<svg xmlns="http://www.w3.org/2000/svg" id="Layer_1" data-name="Layer 1" viewBox="0 0 181 181"><defs><style>.cls-1{fill:#fff;}.cls-2{fill:#131313;}.cls-3{fill:#fafbfb;}</style></defs><path class="cls-1" d="M0,181Q0,91.32,0,1.66C0,.31.3,0,1.66,0Q90.51.06,179.34,0c1.35,0,1.66.3,1.66,1.66q-.06,88.85,0,177.68c0,1.35-.3,1.66-1.66,1.66Q89.68,180.94,0,181Zm136.15-24.3c.61,1.52,2.16,1.18,3.12,1.08a2.51,2.51,0,0,0,2.3-2.05,5.88,5.88,0,0,0,1.12-3.28c.06-2.85-.9-5.57-.48-8.56.51-3.59-.05-7.32-.09-11-.05-4.29.16-8.59-.17-12.86-.15-2,.35-3.94-.07-5.91-.48-2.26-.15-4.54-.12-6.82a50.81,50.81,0,0,0,0-6.53c-.25-2.18-.74-4.49-.38-6.56.49-2.8-.1-5.51.16-8.26.2-2.14-.55-4.38-.24-6.49.51-3.54-.41-7,0-10.6a20.85,20.85,0,0,0-.23-7.15c-.71-3,.71-6.12-.86-9.15a14.53,14.53,0,0,0-1.86-3.3c-2.69-2.67-5.25-5.48-7.92-8.16-2.91-2.91-5.42-6.26-8.32-9.22-1.88-1.93-3.77-3.86-5.69-5.75a1.56,1.56,0,0,1-.38-.55,11.74,11.74,0,0,0-1.82-2.35c-1.1-1.26-2.63-2.18-3.51-3.42-1.91-2.71-4.64-4.38-7-6.5a3.58,3.58,0,0,0-4.15-.57c-.3.14-.68.52-.86.43-2.34-1.08-4.73.43-7.08-.18-2.65-.69-5.4.23-8-.37-1.81-.4-3.44.43-5.16.48-3.52.1-7.06-.14-10.57,0-4.24.18-8.48.56-12.72.83s-8.38.25-12.57.57c-4.38.35-5,2.84-5,5.9,0,1.2.7,2.55.37,3.47-1,2.71-.14,5.47-.28,8.14-.15,2.83-1.34,6.07.59,8.88-.6,4.45,0,8.9,0,13.35-.06,5.13.27,10.24.34,15.36,0,3.54.32,7.07.44,10.61,0,.86-.19,1.73-.15,2.59.11,2.49.42,5,.4,7.48,0,.92-.17,1.86-.13,2.8a50.34,50.34,0,0,1,.19,5.62c-.27,4.37.39,8.71.24,13.1-.07,2.27.4,4.63.43,7,0,2.19.46,4.41.26,6.57-.37,4.17.41,8.32,0,12.49-.18,1.87.72,3.76-.1,5.68-.17.4-.47,1.17-.25,1.46,1.41,1.87.6,4,.82,6,.06.57,0,.83-.49,1.07a2.81,2.81,0,0,0-1.67,3.39,3.14,3.14,0,0,0,3.17,1.85c2.31-.05,4.66.26,6.89,0,5.05-.48,10.09.14,15.15-.26a46.18,46.18,0,0,1,9.33,0,5.17,5.17,0,0,0,2.22.14c3.11-1.21,6.28.31,9.5-.46,2.2-.52,4.75.28,7.19,0a32.84,32.84,0,0,1,5.5-.34c4.65.32,9.31.09,14,.2,2.7.07,5.5-.18,8.22-.2,3.24,0,6.47-.28,9.71-.26C131.7,156.19,134,155.78,136.18,156.67Z"></path><path class="cls-2" d="M136.18,156.67c-2.2-.89-4.48-.48-6.75-.49-3.24,0-6.47.23-9.71.26-2.72,0-5.52.27-8.22.2-4.65-.11-9.31.12-14-.2a32.84,32.84,0,0,0-5.5.34c-2.44.25-5-.55-7.19,0-3.22.77-6.39-.75-9.5.46a5.17,5.17,0,0,1-2.22-.14,46.18,46.18,0,0,0-9.33,0c-5.06.4-10.1-.22-15.15.26-2.23.21-4.58-.1-6.89,0a3.14,3.14,0,0,1-3.17-1.85A2.81,2.81,0,0,1,40.26,152c.47-.24.55-.5.49-1.07-.22-2,.59-4.12-.82-6-.22-.29.08-1.06.25-1.46.82-1.92-.08-3.81.1-5.68.4-4.17-.38-8.32,0-12.49.2-2.16-.24-4.38-.26-6.57,0-2.35-.5-4.71-.43-7,.15-4.39-.51-8.73-.24-13.1a50.34,50.34,0,0,0-.19-5.62c0-.94.12-1.88.13-2.8,0-2.49-.29-5-.4-7.48,0-.86.18-1.73.15-2.59-.12-3.54-.39-7.07-.44-10.61-.07-5.12-.4-10.23-.34-15.36,0-4.45-.57-8.9,0-13.35-1.93-2.81-.74-6.05-.59-8.88.14-2.67-.69-5.43.28-8.14.33-.92-.37-2.27-.37-3.47,0-3.06.62-5.55,5-5.9,4.19-.32,8.39-.3,12.57-.57s8.48-.65,12.72-.83c3.51-.15,7,.09,10.57,0,1.72-.05,3.35-.88,5.16-.48,2.65.6,5.4-.32,8,.37,2.35.61,4.74-.9,7.08.18.18.09.56-.29.86-.43a3.58,3.58,0,0,1,4.15.57c2.36,2.12,5.09,3.79,7,6.5.88,1.24,2.41,2.16,3.51,3.42a11.74,11.74,0,0,1,1.82,2.35,1.56,1.56,0,0,0,.38.55c1.92,1.89,3.81,3.82,5.69,5.75,2.9,3,5.41,6.31,8.32,9.22,2.67,2.68,5.23,5.49,7.92,8.16a14.53,14.53,0,0,1,1.86,3.3c1.57,3,.15,6.17.86,9.15a20.85,20.85,0,0,1,.23,7.15c-.42,3.58.5,7.06,0,10.6-.31,2.11.44,4.35.24,6.49-.26,2.75.33,5.46-.16,8.26-.36,2.07.13,4.38.38,6.56a50.81,50.81,0,0,1,0,6.53c0,2.28-.36,4.56.12,6.82.42,2-.08,3.92.07,5.91.33,4.27.12,8.57.17,12.86,0,3.67.6,7.4.09,11-.42,3,.54,5.71.48,8.56a5.88,5.88,0,0,1-1.12,3.28C140.06,157.48,138.05,156.69,136.18,156.67Zm-1.46-11.43a1.06,1.06,0,0,0,.13.25c.26-.09.15-.28.1-.45-.73-1.07.38-1.94.35-3-.08-2.72-.27-5.42-.42-8.13-.21-4,0-7.92-.11-11.88a16.06,16.06,0,0,0,.22-2.62,45,45,0,0,1-.5-11.1c.28-3.59-.33-7.16.19-10.69.11-.77-1.16-.94-.44-1.62.87-.82.21-1.62.13-2.45-.06-.57-.54-1.12-.2-1.71,1.36-2.41-.13-4.88.13-7.35.2-1.94.5-4.07-.58-6a.73.73,0,0,1,.05-.68c1.16-1,.49-2.09.31-3.13a3.87,3.87,0,0,1,.06-2,6,6,0,0,0,.11-3c-.18-1,0-2.12-.14-3-.22-1.53.54-3,.16-4.35A5.91,5.91,0,0,1,134,60c.12-1.14.22-2.42-1.63-1.43-.16.09-.45-.07-.68-.08-2.72-.13-5.43-.3-8.15-.35-3.89-.08-7.78,0-11.68-.32-3.45-.3-7,0-10.39-.77-1.27-.28-2.92-.77-2.9-2.18A82.25,82.25,0,0,0,97.8,42.1c-.55-3.85.35-7.64-.32-11.45-.5-2.88.12-5.83.34-8.74s-.06-3.06-2.61-2.81a8.49,8.49,0,0,0-1.23,0c-.9.23-1.69-.41-2.65-.12-2.58.79-5.28.3-7.92.4s-5.16,0-7.75.08c-3,.06-6,.54-9,0a15.27,15.27,0,0,0-5.79-.08c-3.41.68-6.77-.36-10.16.11-1.62.23-3.33-.3-5-.44-.78-.06-1.37-.1-1.44,1.16-.08,1.44.59,2.88,0,4.28a8.7,8.7,0,0,0,0,5.68c.75,2.74.26,5.41.44,8.08a52.25,52.25,0,0,1,0,7.4,63.19,63.19,0,0,0,.3,6.89c.07,2.51-.45,5.08.2,7.54a5.85,5.85,0,0,1-.51,4.24c-.06.13-.56,0-.2.37,1.6,1.56,1.1,3.73,1,5.43a87.54,87.54,0,0,0,.23,11.47c.43,4.88,0,9.74.4,14.59.21,2.33-.22,4.79,0,7a99.55,99.55,0,0,1,.42,11.7c-.05,4.42.44,8.81.35,13.24a51,51,0,0,0,0,5.8c.08.91.86,1.6.67,2.52a10.31,10.31,0,0,0-.2,5c.73,2.51-.81,5,.22,7.53a1.46,1.46,0,0,1-.43,1.61l.16.32.11-.1-.34-.23a7.94,7.94,0,0,0,3.93.38,68.66,68.66,0,0,1,8.84-.18c3.13.08,6.3-.63,9.36.57.07,0,.2-.11.3-.18,2.61-1.77,5.68-.17,8.41-1.11.94-.33,1.88.27,2.82.38,2.47.3,4.9-.29,7.39,0,1.16.13,2.65.47,3.9-.15a11.91,11.91,0,0,1,2.39-.48c1.54-.42,2.88.49,4.38.43q9.24-.37,18.48-.51c2.29,0,4.59,0,6.88-.09a44.72,44.72,0,0,1,7.68.09c2.34.34,3.17-.14,3.08-2.46C134.91,146.54,134.37,145.93,134.72,145.24ZM104.5,48.36a9.47,9.47,0,0,1-.13,1.07c-.41,1.62.24,1.89,1.8,1.88,1.86,0,3.64-.94,5.51-.41,1.72.49,3.53,0,5.23.45a3.15,3.15,0,0,0,2.1,0,3.5,3.5,0,0,1,2.22-.13c2.71.75,5.51.24,8.26.45.35,0,.82.16,1-.45s-.32-.73-.55-1c-.48-.52-1.28-.52-1.82-1-1.49-1.49-2.26-3.51-4-4.91a58.18,58.18,0,0,1-4.69-5,88.52,88.52,0,0,1-7-7.89c-2.17-2.87-5-5.16-7.47-7.76-.25-.27-.34-.88-.92-.65s-.32.77-.31,1.21c0,2.4.75,4.82.65,7.12C104.23,37,104.68,42.69,104.5,48.36Z"></path><path class="cls-3" d="M136.18,156.67c1.87,0,3.88.81,5.42-1a2.51,2.51,0,0,1-2.3,2.05C138.34,157.85,136.79,158.19,136.18,156.67Z"></path><path class="cls-3" d="M47.14,150.53a1.42,1.42,0,0,0,.45-1.6c-1-2.49.51-5-.22-7.53a10.31,10.31,0,0,1,.2-5c.19-.92-.59-1.61-.67-2.52a51,51,0,0,1,0-5.8c.09-4.43-.4-8.82-.35-13.24a99.55,99.55,0,0,0-.42-11.7c-.24-2.24.19-4.7,0-7-.42-4.85,0-9.71-.4-14.59a87.54,87.54,0,0,1-.23-11.47c.08-1.7.58-3.87-1-5.43-.36-.34.14-.24.2-.37A5.85,5.85,0,0,0,45.15,60c-.65-2.46-.13-5-.2-7.54a63.19,63.19,0,0,1-.3-6.89,52.25,52.25,0,0,0,0-7.4c-.18-2.67.31-5.34-.44-8.08a8.7,8.7,0,0,1,0-5.68c.61-1.4-.06-2.84,0-4.28.07-1.26.66-1.22,1.44-1.16,1.67.14,3.38.67,5,.44,3.39-.47,6.75.57,10.16-.11a15.27,15.27,0,0,1,5.79.08c3,.58,6,.1,9,0,2.59-.06,5.19,0,7.75-.08s5.34.39,7.92-.4c1-.29,1.75.35,2.65.12a8.49,8.49,0,0,1,1.23,0c2.55-.25,2.83,0,2.61,2.81s-.84,5.86-.34,8.74c.67,3.81-.23,7.6.32,11.45a82.25,82.25,0,0,1,.72,12.77c0,1.41,1.63,1.9,2.9,2.18,3.43.75,6.94.47,10.39.77,3.9.34,7.79.24,11.68.32,2.72,0,5.43.22,8.15.35.23,0,.52.17.68.08,1.85-1,1.75.29,1.63,1.43a5.91,5.91,0,0,0,.32,2.32c.38,1.4-.38,2.82-.16,4.35.12.89,0,2,.14,3a6,6,0,0,1-.11,3,3.87,3.87,0,0,0-.06,2c.18,1,.85,2.17-.31,3.13a.73.73,0,0,0-.05.68c1.08,1.9.78,4,.58,6-.26,2.47,1.23,4.94-.13,7.35-.34.59.14,1.14.2,1.71.08.83.74,1.63-.13,2.45-.72.68.55.85.44,1.62-.52,3.53.09,7.1-.19,10.69a45,45,0,0,0,.5,11.1,16.06,16.06,0,0,1-.22,2.62c.11,4-.1,7.93.11,11.88.15,2.71.34,5.41.42,8.13,0,1.07-1.08,1.94-.35,3a1.43,1.43,0,0,0-.23.2c-.35.69.19,1.3.21,2,.09,2.32-.74,2.8-3.08,2.46a44.72,44.72,0,0,0-7.68-.09c-2.29.07-4.59.06-6.88.09q-9.24.12-18.48.51c-1.5.06-2.84-.85-4.38-.43a11.91,11.91,0,0,0-2.39.48c-1.25.62-2.74.28-3.9.15-2.49-.29-4.92.3-7.39,0-.94-.11-1.88-.71-2.82-.38-2.73.94-5.8-.66-8.41,1.11-.1.07-.23.21-.3.18-3.06-1.2-6.23-.49-9.36-.57a68.66,68.66,0,0,0-8.84.18,7.94,7.94,0,0,1-3.93-.38Zm17.52-123a1.59,1.59,0,0,0-1.16-.05c-2.25.53-3.59,3.29-3.28,6.16.17,1.59.87,3.09.77,4.68,0,.72-.7,1.34-.36,2.2.19.46-.09.67-.65.72-3.65.29-7.29.66-10.94.95a2.81,2.81,0,0,0-1.89.91c-1.83,1.86-.52,7.22,1.94,8.07,3.27,1.14,6.64.64,10,.7.73,0,1.92-.7,2.19.42.34,1.41,1,2.88.17,4.41-.23.44-.53,1.18-.15,1.65,1,1.22.48,2.58.46,3.87,0,.82.22,1.62.23,2.38,0,2.66,1,5.19.84,7.85a3.65,3.65,0,0,0,4.37,3.92c.61-.07,1.15-.5,1.7-.39,1.87.35,2.41-.91,3-2.24.29-.62,0-1.23.16-1.79.69-3.49,0-7-.12-10.45a78.94,78.94,0,0,1-.12-9.23c0-.35.08-.53.47-.58,1.67-.25,3.49.27,5-.92,2.74,1.24,5.48-.1,8.23,0,2,0,3.36-2.08,3.1-4.08-.18-1.36-1.15-2.34-1.27-3.79-.19-2.43-.43-2.81-2.88-2.3-.17,0-.35.24-.49.21-3.83-.79-7.73-.33-11.59-.54-1.17-.06-1.2-.75-1.17-1.34A23,23,0,0,0,69.77,30c-.74-2.1-1.56-2.79-3.86-2.56Zm-6.45,95.23v-.15a22.14,22.14,0,0,0-2.95.22,4.12,4.12,0,0,0-3.38,3c-.36,1.26.58,2.09,1.53,2.69a3.9,3.9,0,0,0,1.82.5c3.56.28,7,.74,10.71.31a35.68,35.68,0,0,1,9.61.27c2,.31,3.79-1.22,5.76-.31,1.43.66,2.76-.48,4.16-.29,2.39.32,4.78-.41,7.09-.19a43,43,0,0,0,8.2.27c5.21-.55,10.38.17,15.54-.33,2.13-.21,4.3.16,6.41-.41,1.5-.4,3.3-2.34,3.25-3.84a3,3,0,0,0-2.56-2.69c-2.25.17-4.49-.23-6.72.13a31.82,31.82,0,0,1-6.45.26c-2.88-.13-5.74-.21-8.63-.07a13.76,13.76,0,0,1-4-.22c-.38-.09-.72-.31-1.09-.11-2,1-4.18.61-6.2.55s-4.3-.61-6.26-.25c-5.9,1.09-11.82,0-17.7.65A78.88,78.88,0,0,1,58.21,122.76Zm67.86-14.64c1-.63-1.1-.67-.27-1.3-.58-.68-.44-1.75-1.7-2.13-1.78-.54-3.48-.12-5.2,0-1.05,0-2.4.53-3.19.34-3-.73-5.9-.16-8.83-.15-3.37,0-6.8-.35-10.09.16a65.19,65.19,0,0,1-9.33.48c-2.73,0-5.45.47-8.27-.1-2.36-.47-4.8.79-7.44.59-2.26-.17-4.81.47-7.16.26a28.34,28.34,0,0,0-10.46,1.12A2.66,2.66,0,0,0,52,109.66,2.42,2.42,0,0,0,53.85,112c1.16.37,2.43,1,3.56.53,2.1-.83,4.22-.25,6.32-.39,2.31-.16,4.71.21,6.93,0,2.61-.28,5.13.54,7.66,0s4.81,0,7.21,0c1.61,0,2.75-1.29,4.84-.49,2.83,1.09,6.27.15,9.45.13,2.4,0,4.92-.15,7.32-.25,2.9-.12,5.81-.73,8.75-.51,1.86.14,3.81-.42,5.63-.11C123.5,111.3,125.81,110.16,126.07,108.12ZM120.47,93a15.23,15.23,0,0,0,4.21-.45,2.7,2.7,0,0,0,2.08-3.25,4.7,4.7,0,0,0-3.06-2.75c-2.74-.23-5.41.58-8.19.3s-5.81,0-8.71,0a69.93,69.93,0,0,0-11.29.67c-1.32.2-2.68-.06-4,0-.8.06-1.85-.16-2.82-.17-2,0-4,.15-6,.15-3.41,0-6.78.2-10.17.51-2.36.22-4.73.5-7.1.52-4.14,0-8.29,0-12.33,1-.79.21-2,.28-1.93,1.45a2.53,2.53,0,0,0,2.31,2.49,34.08,34.08,0,0,0,3.91.09c4.34-.13,8.64.48,13,.19,6.61-.44,13.3.25,19.94.09,4-.1,8-.14,12-.38a8.62,8.62,0,0,1,1.93-.18c2.73.5,5.47-.07,8.23.19S117.82,93.15,120.47,93Z"></path><path class="cls-3" d="M104.5,48.36c.18-5.67-.27-11.33,0-17,.1-2.3-.63-4.72-.65-7.12,0-.44-.3-1,.31-1.21s.67.38.92.65c2.48,2.6,5.3,4.89,7.47,7.76a88.52,88.52,0,0,0,7,7.89,58.18,58.18,0,0,0,4.69,5c1.71,1.4,2.48,3.42,4,4.91.54.53,1.34.53,1.82,1,.23.26.75.39.55,1s-.67.47-1,.45c-2.75-.21-5.55.3-8.26-.45a3.5,3.5,0,0,0-2.22.13,3.15,3.15,0,0,1-2.1,0c-1.7-.49-3.51,0-5.23-.45-1.87-.53-3.65.4-5.51.41-1.56,0-2.21-.26-1.8-1.88A9.47,9.47,0,0,0,104.5,48.36Z"></path><path class="cls-3" d="M135,145c.05.17.16.36-.1.45a1.06,1.06,0,0,1-.13-.25A1.43,1.43,0,0,1,135,145Z"></path><path class="cls-3" d="M47.09,150.53l.34.23-.11.1c0-.11-.11-.22-.17-.33Z"></path><path class="cls-2" d="M64.66,27.53l1.25-.1c2.3-.23,3.12.46,3.86,2.56a23,23,0,0,1,1.45,8.91c0,.59,0,1.28,1.17,1.34,3.86.21,7.76-.25,11.59.54.14,0,.32-.18.49-.21,2.45-.51,2.69-.13,2.88,2.3.12,1.45,1.09,2.43,1.27,3.79.26,2-1.13,4.13-3.1,4.08-2.75-.07-5.49,1.27-8.23,0-1.5,1.19-3.32.67-5,.92-.39.05-.43.23-.47.58A78.94,78.94,0,0,0,72,61.5c.07,3.47.81,7,.12,10.45-.11.56.13,1.17-.16,1.79-.62,1.33-1.16,2.59-3,2.24-.55-.11-1.09.32-1.7.39a3.65,3.65,0,0,1-4.37-3.92C63,69.79,62,67.26,62,64.6c0-.76-.24-1.56-.23-2.38,0-1.29.52-2.65-.46-3.87-.38-.47-.08-1.21.15-1.65.82-1.53.17-3-.17-4.41-.27-1.12-1.46-.41-2.19-.42-3.34-.06-6.71.44-10-.7-2.46-.85-3.77-6.21-1.94-8.07A2.81,2.81,0,0,1,49,42.19c3.65-.29,7.29-.66,10.94-.95.56-.05.84-.26.65-.72-.34-.86.32-1.48.36-2.2.1-1.59-.6-3.09-.77-4.68-.31-2.87,1-5.63,3.28-6.16A1.59,1.59,0,0,1,64.66,27.53Z"></path><path class="cls-2" d="M58.21,122.76a78.88,78.88,0,0,0,8.14,0c5.88-.63,11.8.44,17.7-.65,2-.36,4.18.19,6.26.25s4.21.49,6.2-.55c.37-.2.71,0,1.09.11a13.76,13.76,0,0,0,4,.22c2.89-.14,5.75-.06,8.63.07a31.82,31.82,0,0,0,6.45-.26c2.23-.36,4.47,0,6.72-.13a3,3,0,0,1,2.56,2.69c0,1.5-1.75,3.44-3.25,3.84-2.11.57-4.28.2-6.41.41-5.16.5-10.33-.22-15.54.33a43,43,0,0,1-8.2-.27c-2.31-.22-4.7.51-7.09.19-1.4-.19-2.73.95-4.16.29-2-.91-3.78.62-5.76.31A35.68,35.68,0,0,0,66,129.3c-3.66.43-7.15,0-10.71-.31a3.9,3.9,0,0,1-1.82-.5c-1-.6-1.89-1.43-1.53-2.69a4.12,4.12,0,0,1,3.38-3,22.14,22.14,0,0,1,2.95-.22Z"></path><path class="cls-2" d="M126.07,108.12c-.26,2-2.57,3.18-4.55,2.84-1.82-.31-3.77.25-5.63.11-2.94-.22-5.85.39-8.75.51-2.4.1-4.92.23-7.32.25-3.18,0-6.62,1-9.45-.13-2.09-.8-3.23.49-4.84.49-2.4,0-4.8-.51-7.21,0s-5-.3-7.66,0c-2.22.24-4.62-.13-6.93,0-2.1.14-4.22-.44-6.32.39-1.13.45-2.4-.16-3.56-.53A2.42,2.42,0,0,1,52,109.66a2.66,2.66,0,0,1,2.14-2.31,28.34,28.34,0,0,1,10.46-1.12c2.35.21,4.9-.43,7.16-.26,2.64.2,5.08-1.06,7.44-.59,2.82.57,5.54.12,8.27.1a65.19,65.19,0,0,0,9.33-.48c3.29-.51,6.72-.15,10.09-.16,2.93,0,5.85-.58,8.83.15.79.19,2.14-.3,3.19-.34,1.72-.08,3.42-.5,5.2,0,1.26.38,1.12,1.45,1.7,2.13C125,107.45,127,107.49,126.07,108.12Z"></path><path class="cls-2" d="M120.47,93c-2.65.2-5.34.74-8,.5s-5.5.31-8.23-.19a8.62,8.62,0,0,0-1.93.18c-4,.24-8,.28-12,.38-6.64.16-13.33-.53-19.94-.09-4.39.29-8.69-.32-13-.19a34.08,34.08,0,0,1-3.91-.09A2.53,2.53,0,0,1,51.13,91c-.09-1.17,1.14-1.24,1.93-1.45,4-1.08,8.19-1,12.33-1,2.37,0,4.74-.3,7.1-.52,3.39-.31,6.76-.51,10.17-.51,2,0,4-.17,6-.15,1,0,2,.23,2.82.17,1.36-.1,2.72.16,4,0a69.93,69.93,0,0,1,11.29-.67c2.9,0,5.83-.25,8.71,0s5.45-.53,8.19-.3a4.7,4.7,0,0,1,3.06,2.75,2.7,2.7,0,0,1-2.08,3.25A15.23,15.23,0,0,1,120.47,93Z"></path></svg>