<svg xmlns="http://www.w3.org/2000/svg" id="Layer_1" data-name="Layer 1" viewBox="0 0 181 181"><defs><style>.cls-1{fill:#fff;}.cls-2{fill:#101111;}.cls-3{fill:#fafaf9;}</style></defs><path class="cls-1" d="M0,181Q0,91.32,0,1.66C0,.31.31,0,1.66,0Q90.51.06,179.34,0c1.35,0,1.66.3,1.66,1.66q-.06,88.85,0,177.68c0,1.35-.31,1.66-1.66,1.66Q89.68,180.94,0,181ZM156.35,46.63h0c0-.76-.55-.75-1.09-.74-.51-.62-1.44,0-1.94-.66a.4.4,0,0,0-.57.28l-2.19,0c-.15-.3-.36-.39-.64-.15l-.8.14c-.3-.39-.71-.31-1.12-.3a10.39,10.39,0,0,1-3.4.68h.05l-.73-.3a.49.49,0,0,0-.21.08c-.23.87-.75.53-1.24.3l-.57.17h-.39l-.31-.07c-.34.35-.75.05-1.12.12v-1l.1-.34c.41-.08,1.2.15.6-.74.92-1.88,3.12-2.67,4-4.65.65-1.53,2.36-2.09,3.38-3.44a32.58,32.58,0,0,1,3.3-3.21c1.87-1.81,3.24-4.12,5.12-5.92,3.15-3,6.17-6.07,8.26-9.95,1.13-2.09.37-4.2-1.95-4.55s-3.94,1.29-4.87,2.76c-2,3.16-5.1,5.21-7.24,8.23-2,2.83-4.89,5-7.19,7.65-2.7,3.13-5.93,5.78-8.41,9.13A10.75,10.75,0,0,1,132,43.38a6.35,6.35,0,0,0-2,1.86c-.57.85-1.07,1.76-2.18,1.79-3,.08-5.91,0-8.87.09a36.77,36.77,0,0,0-5.55.46c-4.21.75-8.41-.93-12.71.27-2.51.69-5.39,0-8.1.29s-5.68-.22-8.49.51a19.88,19.88,0,0,1-5.91-.4,3.29,3.29,0,0,0-1.42.09,14,14,0,0,1-3.54.63,21.09,21.09,0,0,0-8.37.69c-.4.12-1.21,0-1.32-.2-.51-1.07-1.39-.66-2.12-.63-4.49.18-9,1.09-13.48.4-.85-.12-2-.53-2.18,1-1-.51-2.11-1.1-3.06-.71-2.87,1.18-5.82.59-8.72.6-3.43,0-6.68,0-9.69,2.15-3.87,2.8-5.47,6.61-4.33,11.21.64,2.59-.05,5.27.41,7.94.38,2.22-.13,4.61-.41,6.9-.17,1.42.65,2.69.38,4.12a18,18,0,0,0-.09,3.29c0,3.15.13,6.3,0,9.44-.05,1.35-.43,2.61.16,4a5.69,5.69,0,0,1,.18,3.07c-.5,2.8.05,5.59-.07,8.38-.12,3.08.76,6.18-.19,9.28a1.75,1.75,0,0,0,.15,1.5,4.51,4.51,0,0,1,.35,3.76c-.61,2.67,0,5.34.24,8,.14,1.36.18,2.72.25,4.08s1.61,3.69,2.4,3.45c1.75-.54,3,.69,4.45,1.07,2.34.6,4.44,1.89,7,1.92,1,0,2.16-.75,3.36.16-2,1.41-2.64,3.88-4.61,5.31a23.29,23.29,0,0,0-6.3,6.67,2.94,2.94,0,0,1-.66.8c-2.66,2.37-5.68,4.37-7.26,7.83a3.13,3.13,0,0,0,5,3.68c1.55-1.43,2.87-3.12,4.38-4.52,2.61-2.39,4.61-5.26,7-7.76A18.88,18.88,0,0,1,39.05,153c3-1.91,4.53-4.93,6.6-7.55.69-.87,1.71-2,2.4-2,1.92,0,3.77-.5,5.67-.6,1.29-.07,2.4.63,3.49.43a20.84,20.84,0,0,1,4.37-.56c1.63.06,3.32-.25,4.86-.12a16.51,16.51,0,0,0,5.84-.44,1.05,1.05,0,0,1,.9,0,16.2,16.2,0,0,0,4,.81c1.28.21,2.39-.56,3.53-.47a44.37,44.37,0,0,0,6.92-.3,12.3,12.3,0,0,1,2-.15,26.76,26.76,0,0,0,8.84.05c2.7-.55,5.46,0,8.21-.12,3-.16,6-.64,9.13,0,2.28.49,4.81-.13,7.12,0a48.84,48.84,0,0,0,9.33-.77,43.93,43.93,0,0,1,10.24-.16,45.91,45.91,0,0,0,6.75-.12,21.17,21.17,0,0,0,3.91-.2c2.17-.58,4.53-.8,6.5-2.13a6.49,6.49,0,0,0,1.55-1.28c1.47-1.81,1.53-4.1,2.31-6.12a16.37,16.37,0,0,0,1.2-4.57c.19-2.18-.46-4.27-.24-6.48.14-1.48.64-3.1-.15-4.87a11.06,11.06,0,0,1-.4-5.46,13.63,13.63,0,0,0,.1-4.6c-.6-2.6-.1-5.26-.4-7.91-.23-2-.06-4.23-.27-6.22-.4-3.72.46-7.45-.47-11.17a16.3,16.3,0,0,1-.26-3.84,28.65,28.65,0,0,0-.18-4.41,57.64,57.64,0,0,1-.62-8.9c0-2.38.51-4.75,0-7.13-.1-.48-.26-1,.6-.85,0-.17.43-.19.1-.51a13.75,13.75,0,0,1-2.32-4c-.77-1.54-1.66-3-3.45-3.64Z"></path><path class="cls-2" d="M140.17,44.82l-.1.34c-.57.08-1.13.36-1,1s.64.3,1,.05c.37-.07.78.23,1.12-.12a1.08,1.08,0,0,0,.31.07h.39l.57-.17c.49.23,1,.57,1.24-.3h.12l.09-.09.72.3-.12.05.15.06-.07-.11a10.39,10.39,0,0,0,3.4-.68l1.12.3.8-.14c.1.52.31.58.64.15l2.19,0c.07.13.15.37.21.36.4,0,.19-.45.36-.64.5.65,1.43,0,1.94.66.22.47.67.58,1.09.74h0l.14.27.31-.25c1.79.61,2.68,2.1,3.45,3.64a13.75,13.75,0,0,0,2.32,4c.33.32-.09.34-.1.51-.86-.18-.7.37-.6.85.51,2.38,0,4.75,0,7.13a57.64,57.64,0,0,0,.62,8.9,28.65,28.65,0,0,1,.18,4.41,16.3,16.3,0,0,0,.26,3.84c.93,3.72.07,7.45.47,11.17.21,2,0,4.23.27,6.22.3,2.65-.2,5.31.4,7.91a13.63,13.63,0,0,1-.1,4.6,11.06,11.06,0,0,0,.4,5.46c.79,1.77.29,3.39.15,4.87-.22,2.21.43,4.3.24,6.48a16.37,16.37,0,0,1-1.2,4.57c-.78,2-.84,4.31-2.31,6.12a6.49,6.49,0,0,1-1.55,1.28c-2,1.33-4.33,1.55-6.5,2.13a21.17,21.17,0,0,1-3.91.2,45.91,45.91,0,0,1-6.75.12,43.93,43.93,0,0,0-10.24.16A48.84,48.84,0,0,1,123,142c-2.31-.12-4.84.5-7.12,0-3.09-.67-6.17-.19-9.13,0-2.75.14-5.51-.43-8.21.12a26.76,26.76,0,0,1-8.84-.05,12.3,12.3,0,0,0-2,.15,44.37,44.37,0,0,1-6.92.3c-1.14-.09-2.25.68-3.53.47a16.2,16.2,0,0,1-4-.81,1.05,1.05,0,0,0-.9,0,16.51,16.51,0,0,1-5.84.44c-1.54-.13-3.23.18-4.86.12a20.84,20.84,0,0,0-4.37.56c-1.09.2-2.2-.5-3.49-.43-1.9.1-3.75.59-5.67.6-.69,0-1.71,1.13-2.4,2-2.07,2.62-3.6,5.64-6.6,7.55a18.88,18.88,0,0,0-2.85,2.87c-2.43,2.5-4.43,5.37-7,7.76-1.51,1.4-2.83,3.09-4.38,4.52a3.13,3.13,0,0,1-5-3.68c1.58-3.46,4.6-5.46,7.26-7.83a2.94,2.94,0,0,0,.66-.8,23.29,23.29,0,0,1,6.3-6.67c2-1.43,2.63-3.9,4.61-5.31-1.2-.91-2.33-.15-3.36-.16-2.58,0-4.68-1.32-7-1.92-1.47-.38-2.7-1.61-4.45-1.07-.79.24-2.35-2.24-2.4-3.45s-.11-2.72-.25-4.08c-.27-2.61-.85-5.28-.24-8a4.51,4.51,0,0,0-.35-3.76,1.75,1.75,0,0,1-.15-1.5c.95-3.1.07-6.2.19-9.28.12-2.79-.43-5.58.07-8.38a5.69,5.69,0,0,0-.18-3.07c-.59-1.39-.21-2.65-.16-4,.12-3.14,0-6.29,0-9.44a18,18,0,0,1,.09-3.29c.27-1.43-.55-2.7-.38-4.12.28-2.29.79-4.68.41-6.9-.46-2.67.23-5.35-.41-7.94-1.14-4.6.46-8.41,4.33-11.21,3-2.18,6.26-2.15,9.69-2.15,2.9,0,5.85.58,8.72-.6.95-.39,2.1.2,3.06.71.14-1.57,1.33-1.16,2.18-1,4.53.69,9-.22,13.48-.4.73,0,1.61-.44,2.12.63.11.23.92.32,1.32.2A21.09,21.09,0,0,1,73.27,49a14,14,0,0,0,3.54-.63,3.29,3.29,0,0,1,1.42-.09,19.88,19.88,0,0,0,5.91.4c2.81-.73,5.67-.24,8.49-.51s5.59.4,8.1-.29c4.3-1.2,8.5.48,12.71-.27a36.77,36.77,0,0,1,5.55-.46c3-.08,5.91,0,8.87-.09,1.11,0,1.61-.94,2.18-1.79a6.35,6.35,0,0,1,2-1.86,10.75,10.75,0,0,0,3.09-3.25c2.48-3.35,5.71-6,8.41-9.13,2.3-2.67,5.19-4.82,7.19-7.65,2.14-3,5.25-5.07,7.24-8.23.93-1.47,2.62-3.1,4.87-2.76s3.08,2.46,1.95,4.55c-2.09,3.88-5.11,6.94-8.26,10-1.88,1.8-3.25,4.11-5.12,5.92a32.58,32.58,0,0,0-3.3,3.21c-1,1.35-2.73,1.91-3.38,3.44-.84,2-3,2.77-4,4.65A.87.87,0,0,0,140.17,44.82ZM97.7,70.22h0c-.17.12-.16.18,0,.2s.14,0,.18,0c.49.42.43-.46,1-.36,2.33.4,4.7-.34,7.07,0,.58.08,1.57-.14,1.76-.52,1.43-2.89,4.31-4.35,6.4-6.57,2.63-2.8,4.08-6.69,8.27-8.49A17.82,17.82,0,0,0,119.6,54c-2.41-.17-4.89.91-7.23-.34-.26-.14-.39,0-.61.09-1.53,1-3.31.38-5,.7-2.19.43-4.53.13-6.79.17-3.21.06-6.43.12-9.65.35-2.88.2-5.75.23-8.62.68-.49.08-1.82.53-2.12-.81-.09-.38-.49-.35-.71-.12a3.25,3.25,0,0,1-3.21.83c-2-.57-4,0-5.94.12-3,.16-6-.4-9,.55-2.06.65-4.18-.22-6.31-.09-3.71.21-7.43.23-11.15.47a72.57,72.57,0,0,1-8.72-.08c-3.18-.18-6.13.21-8.21,3-.1.14-.54,0-.39.36a9.46,9.46,0,0,1,.27,3.32,62.62,62.62,0,0,0,1.15,11.46c2-2.74,5-1.48,7.58-2.06,4-.91,8.25.27,12.32-.5,1.43-.28,2.83.19,4.18-.24a16.55,16.55,0,0,1,6.22-.46,114.82,114.82,0,0,0,11.88,0c3-.1,6-.42,8.92-.53,5.08-.18,10.17-.34,15.25-.34C95.06,70.54,96.34,69.89,97.7,70.22Zm58.72,19.65c0-1,0-2.1-.32-2.08-.89.06-1.81-.36-2.57-.15-2.68.75-5.41,0-8.1.48-2,.36-4-.35-6.05-.07-1.29.18-2.42.87-3.9.63a24.83,24.83,0,0,0-9.08.5,2.23,2.23,0,0,1-1,0c-2.85-.64-5.76-.19-8.64-.38s-6,1-9.13.6c-2.08-.3-4.11,1-6.15.25-2.45-.86-4,.3-5.32,2.07-1.81,2.39-4.89,3.72-5.74,6.9,0,0-.08,0-.12.08a24.88,24.88,0,0,0-5.22,5,39.32,39.32,0,0,1-4.75,5.18c-1.11,1-2.18,2.31-3.21,3.22-1.84,1.64-3.3,3.66-4.94,5.39-2.1,2.2-4.19,4.57-6.22,6.91a70.12,70.12,0,0,1-7,7.41c-1.08.92-1.88,2.13-3,3a1,1,0,0,0-.36.76c0,.35.38.4.69.36,4.85-.64,9.79.44,14.57-.6,1.78-.39,3,1,4.9.38,3.38-1.08,7-.32,10.51-.39,2.26,0,4.55-1,6.76-.09a3.83,3.83,0,0,0,2.85,0c1.39-.65,2.61-.14,3.9-.21.73,0,1.18.56,1.82.42,1.75-.38,3.55-.32,5.29-.58a35.83,35.83,0,0,1,7.46-.09,103.5,103.5,0,0,0,10.58-.39c2.39-.11,4.79,0,7.17,0,2,0,4.15.75,6,.54,4-.43,7.92.34,11.91,0,5.33-.5,7.55-2.17,7.6-7.35,0-3.08.54-6.18-.18-9.25-.19-.78.26-1.45.13-2.32-.22-1.6-1-3.18-.68-4.81a29.14,29.14,0,0,0,.44-4.89c.11-3.2-1-6.32-.66-9.64C156.79,94.29,157,91.82,156.42,89.87Zm-84.79-.66c-.35.63-.6,1.47-1.36,1.41-1.7-.14-3.39.68-4.89.49-3.91-.5-7.77.44-11.62,0-3-.31-6,.4-9,.44-3.33,0-6.71-.28-10.05.46-2.16.48-4.39-.26-6.6-.31-.83,0-1.62.09-1.24,1.08.61,1.55-.44,3.24.54,4.76a2,2,0,0,1-.09,1.47,12.32,12.32,0,0,0-.39,3.08c-.34,2.64.52,5.2.34,7.88-.29,4.14-.48,8.37.6,12.44.41,1.52-.61,2.73-.35,4.07a15.51,15.51,0,0,1,.13,4c-.11,1.59,1.62,4.53,3.64,4.91a1.72,1.72,0,0,1,1.31.74c.31.54.68.39,1.19.39,3,0,5.89-.41,8.86-.28,1.11,0,2.65.54,3.51-.59,1.66-2.22,4-3.85,5.46-6.15s4.41-3,5.35-5.67c.67-1.93,2.82-2.57,3.91-4.23,1.93-2.94,4.61-5.25,7.08-7.74.64-.65,1.9-.36,2.16-1.23.77-2.62,3.32-3.77,4.67-5.88S79,101.6,79.94,99c.14-.38.37-.86.69-1,2.8-1.19,3.57-4.43,6.09-5.93.55-.32,1.4-1.09.87-1.92a2,2,0,0,0-2.17-.45c-3.35,1.47-6.88.07-10.23.82-.92.2-1.72-.28-2.6-.14S71.92,89.77,71.63,89.21Zm45.21-19.75c2.85.52,5.55-.29,8.27-.27,1.56,0,3.1.46,4.69.25a8.59,8.59,0,0,1,3.51-.18c1.29.34,2.69-.15,4.05-.2,1.07,0,2.29.78,3.3-.38.32-.38.89.16,1.35.14s.52.53,1.09.35c2.79-.88,5.7-.47,8.55-.61a8.26,8.26,0,0,0,2.94-.57c.63-.28.84-.54.83-1.4a76.5,76.5,0,0,1,.45-11.52,2,2,0,0,0-.61-1.4c-2.33-2.9-5.57-2.47-8.56-2.08-1.63.22-3.22,1.16-5,1.07a49.34,49.34,0,0,0-5.71.41c-1.53.1-3.26,0-4.79,1.1-1.77,1.32-2.45,3.46-4.23,4.74-.75.55-1.81,1-2.1,2.13-.37,1.42-1.67,2.12-2.55,3.11C120.66,66,118.71,67.69,116.84,69.46Z"></path><path class="cls-3" d="M140.08,46.17c-.36.25-.87.46-1-.05s.42-.88,1-1Z"></path><path class="cls-3" d="M140.17,44.82a.87.87,0,0,1,.6-.74C141.37,45,140.58,44.74,140.17,44.82Z"></path><path class="cls-3" d="M153.32,45.24c-.17.19,0,.6-.36.64-.06,0-.14-.23-.21-.36A.4.4,0,0,1,153.32,45.24Z"></path><path class="cls-3" d="M156.35,46.64c-.42-.16-.87-.27-1.09-.74C155.8,45.89,156.33,45.88,156.35,46.64Z"></path><path class="cls-3" d="M150.56,45.5c-.33.43-.54.37-.64-.15C150.2,45.11,150.41,45.2,150.56,45.5Z"></path><path class="cls-3" d="M149.12,45.49l-1.12-.3C148.41,45.18,148.82,45.1,149.12,45.49Z"></path><path class="cls-3" d="M143.92,45.57l-.09.09h-.12A.49.49,0,0,1,143.92,45.57Z"></path><path class="cls-3" d="M141.51,46.12a1.08,1.08,0,0,1-.31-.07Z"></path><path class="cls-3" d="M142.47,46l-.57.17Z"></path><path class="cls-3" d="M144.6,45.87l.07.11-.15-.06.12-.05Z"></path><path class="cls-3" d="M156.8,46.65l-.31.25-.14-.27Z"></path><path class="cls-1" d="M156.42,89.87c.61,1.95.37,4.42.14,6.74-.33,3.32.77,6.44.66,9.64a29.14,29.14,0,0,1-.44,4.89c-.33,1.63.46,3.21.68,4.81.13.87-.32,1.54-.13,2.32.72,3.07.21,6.17.18,9.25,0,5.18-2.27,6.85-7.6,7.35-4,.38-7.92-.39-11.91,0-1.84.21-4-.55-6-.54-2.38,0-4.78-.08-7.17,0a103.5,103.5,0,0,1-10.58.39,35.83,35.83,0,0,0-7.46.09c-1.74.26-3.54.2-5.29.58-.64.14-1.09-.46-1.82-.42-1.29.07-2.51-.44-3.9.21a3.83,3.83,0,0,1-2.85,0c-2.21-1-4.5,0-6.76.09-3.52.07-7.13-.69-10.51.39-1.85.59-3.12-.77-4.9-.38-4.78,1-9.72,0-14.57.6-.31,0-.67,0-.69-.36a1,1,0,0,1,.36-.76c1.16-.86,2-2.07,3-3a70.12,70.12,0,0,0,7-7.41c2-2.34,4.12-4.71,6.22-6.91,1.64-1.73,3.1-3.75,4.94-5.39,1-.91,2.1-2.24,3.21-3.22a39.32,39.32,0,0,0,4.75-5.18,24.88,24.88,0,0,1,5.22-5s.11,0,.12-.08c.85-3.18,3.93-4.51,5.74-6.9,1.34-1.77,2.87-2.93,5.32-2.07,2,.72,4.07-.55,6.15-.25,3.1.45,6.16-.79,9.13-.6s5.79-.26,8.64.38a2.23,2.23,0,0,0,1,0,24.83,24.83,0,0,1,9.08-.5c1.48.24,2.61-.45,3.9-.63,2.05-.28,4.08.43,6.05.07,2.69-.51,5.42.27,8.1-.48.76-.21,1.68.21,2.57.15C156.43,87.77,156.42,88.85,156.42,89.87Z"></path><path class="cls-3" d="M71.63,89.21c.29.56,0,1.33,1,1.18s1.68.34,2.6.14c3.35-.75,6.88.65,10.23-.82a2,2,0,0,1,2.17.45c.53.83-.32,1.6-.87,1.92-2.52,1.5-3.29,4.74-6.09,5.93-.32.13-.55.61-.69,1-1,2.6-3.72,3.6-5.13,5.81s-3.9,3.26-4.67,5.88c-.26.87-1.52.58-2.16,1.23-2.47,2.49-5.15,4.8-7.08,7.74-1.09,1.66-3.24,2.3-3.91,4.23-.94,2.69-3.92,3.38-5.35,5.67s-3.8,3.93-5.46,6.15c-.86,1.13-2.4.64-3.51.59-3-.13-5.9.32-8.86.28-.51,0-.88.15-1.19-.39a1.72,1.72,0,0,0-1.31-.74c-2-.38-3.75-3.32-3.64-4.91a15.51,15.51,0,0,0-.13-4c-.26-1.34.76-2.55.35-4.07-1.08-4.07-.89-8.3-.6-12.44.18-2.68-.68-5.24-.34-7.88a12.32,12.32,0,0,1,.39-3.08,2,2,0,0,0,.09-1.47c-1-1.52.07-3.21-.54-4.76-.38-1,.41-1.09,1.24-1.08,2.21.05,4.44.79,6.6.31,3.34-.74,6.72-.42,10.05-.46,3,0,5.95-.75,9-.44,3.85.4,7.71-.54,11.62,0,1.5.19,3.19-.63,4.89-.49C71,90.68,71.28,89.84,71.63,89.21Z"></path><path class="cls-3" d="M97.7,70.22c-1.36-.33-2.64.32-4,.32-5.08,0-10.17.16-15.25.34-3,.11-5.94.43-8.92.53a114.82,114.82,0,0,1-11.88,0,16.55,16.55,0,0,0-6.22.46c-1.35.43-2.75,0-4.18.24-4.07.77-8.31-.41-12.32.5-2.54.58-5.56-.68-7.58,2.06A62.62,62.62,0,0,1,26.2,63.21a9.46,9.46,0,0,0-.27-3.32c-.15-.38.29-.22.39-.36,2.08-2.8,5-3.19,8.21-3a72.57,72.57,0,0,0,8.72.08c3.72-.24,7.44-.26,11.15-.47,2.13-.13,4.25.74,6.31.09,3-.95,6-.39,9-.55,2-.11,3.9-.69,5.94-.12a3.25,3.25,0,0,0,3.21-.83c.22-.23.62-.26.71.12.3,1.34,1.63.89,2.12.81,2.87-.45,5.74-.48,8.62-.68,3.22-.23,6.44-.29,9.65-.35,2.26,0,4.6.26,6.79-.17,1.66-.32,3.44.27,5-.7.22-.14.35-.23.61-.09,2.34,1.25,4.82.17,7.23.34a17.82,17.82,0,0,1,2.84.47c-4.19,1.8-5.64,5.69-8.27,8.49-2.09,2.22-5,3.68-6.4,6.57-.19.38-1.18.6-1.76.52-2.37-.31-4.74.43-7.07,0-.61-.1-.55.78-1,.36,0,0-.12,0-.18,0s-.19-.08,0-.2L97.42,70s0,.08,0,.08A2.69,2.69,0,0,0,97.7,70.22Z"></path><path class="cls-3" d="M116.84,69.46c1.87-1.77,3.82-3.43,5.51-5.31.88-1,2.18-1.69,2.55-3.11.29-1.09,1.35-1.58,2.1-2.13,1.78-1.28,2.46-3.42,4.23-4.74,1.53-1.14,3.26-1,4.79-1.1a49.34,49.34,0,0,1,5.71-.41c1.75.09,3.34-.85,5-1.07,3-.39,6.23-.82,8.56,2.08a2,2,0,0,1,.61,1.4,76.5,76.5,0,0,0-.45,11.52c0,.86-.2,1.12-.83,1.4a8.26,8.26,0,0,1-2.94.57c-2.85.14-5.76-.27-8.55.61-.57.18-.68-.36-1.09-.35s-1-.52-1.35-.14c-1,1.16-2.23.35-3.3.38-1.36,0-2.76.54-4.05.2a8.59,8.59,0,0,0-3.51.18c-1.59.21-3.13-.25-4.69-.25C122.39,69.17,119.69,70,116.84,69.46Z"></path><path class="cls-2" d="M97.7,70.22a2.69,2.69,0,0,1-.29-.16s0,0,0-.08l.28.23Z"></path></svg>