<svg xmlns="http://www.w3.org/2000/svg" id="Layer_1" data-name="Layer 1" viewBox="0 0 181 181"><defs><style>.cls-1{fill:#fff;}.cls-2{fill:#131313;}.cls-3{fill:#777;}</style></defs><path class="cls-1" d="M0,90.74Q0,46.34,0,1.93C0,.72.2.43,1.46.43q89,.08,178,0C180.86.43,181,.82,181,2q-.06,88.91,0,177.8c0,1.27-.22,1.59-1.55,1.59q-88.92-.08-177.82,0C.2,181.43,0,181,0,179.73Q.06,135.24,0,90.74Zm27.1-14.45a1.53,1.53,0,0,0,2.15.58l1.1.4c.48.12,1,.84,1.4-.12.78.32,1.53,0,2.29-.11,1.91-.16,2.39.3,2.53,2.15.16,2.25-.8,4.59.49,6.77.08.13-.11.41-.17.62a18.74,18.74,0,0,0-.37,5.12c0,2.11.48,4.25.25,6.32-.52,4.73.15,9.47-.28,14.18-.32,3.49.9,6.92.16,10.47a8.48,8.48,0,0,0-.46,3.15,47.35,47.35,0,0,1,.18,11.47,13.48,13.48,0,0,0,1.33,7.84,6.24,6.24,0,0,0,2.64,2.77c.9.43,1.65-.38,2.42-.06,3,1.25,6-.24,9.06.12,1.51.18,3.08.36,4.62.41s2.88-.15,4.28-.26c4-.3,8.15,1,12.15-.43,1-.38,2.28-.87,2.39-1.78.19-1.52.78-3,.88-4.44.31-4.66,1-9.3.77-14-.11-2.61.17-5.24.32-7.85.14-2.45-.88-4.87-.06-7.34.15-.46.61-.76.48-1.43-.66-3.61-.29-7.26-.36-10.9,0-2.63,0-2.6,2.61-2.3a6.44,6.44,0,0,0,1.95-.16,5.21,5.21,0,0,1,3.05.13,7.29,7.29,0,0,0,2.18.23c1.3.11,2.51-.73,3.6-.39a8.17,8.17,0,0,0,5.12.12,5.89,5.89,0,0,1,2.72-.15,5.61,5.61,0,0,0,3,0c.58-.21,1.68-.19,1.74.52a54.93,54.93,0,0,1,.16,8.21,24.22,24.22,0,0,0-.08,6.36,17.73,17.73,0,0,1,.35,2.62c.06,1.5-.53,2.94-.32,4.42.7,4.92.24,9.87.59,14.82a94.06,94.06,0,0,0,1.32,11.11,1.57,1.57,0,0,0,.48,1,7.84,7.84,0,0,0,6,1.92,52.15,52.15,0,0,1,5.86-.19c1.81.15,3.58-.66,5.37,0a2.21,2.21,0,0,0,1.18.22c4.66-1.32,9.41.39,14.13-.48,2.66-.48,4.09-1.24,5.17-3.73,1.79-4.16.48-8.44.58-12.62.07-2.57.62-5.2,0-8s-.17-5.58.08-8.4c.22-2.51-.34-5.17-.08-7.6.48-4.34-.46-8.6,0-12.92.31-2.83-.36-5.81-.23-8.55.11-2.33.24-4.75.29-7.12,0-1.68.82-2,2.18-2,.89,0,1.75.51,2.65.12.38,1,.92.22,1.4.13l1.1-.4a1.53,1.53,0,0,0,2.15-.58,34.79,34.79,0,0,0,2.76-2.22,5.44,5.44,0,0,0,1.85-3.75c0-2.16-1.33-3.84-2.71-5.28-2.65-2.75-5.91-4.88-8.7-7.42s-6.21-4.56-8.58-7.56c-1.22-1.53-3-2.21-4.21-3.62-2.36-2.71-5.47-4.56-8-7.08-1.24-1.23-2.87-2.17-4.24-3.34-2.66-2.27-5.38-4.5-7.92-6.92-1-1-2.36-1.53-3.28-2.65-2.47-3-5.88-5-8.79-7.52-1.84-1.6-3.36-3.83-6-4.39-.34-.07-.12-.4-.21-.58a5.5,5.5,0,0,0-8.62-1.57c-1.43,1.16-2.44,2.87-4.35,3.44a1.31,1.31,0,0,0-.73.47c-1.18,1.92-3.14,3.05-4.84,4.31-3.25,2.4-6,5.36-9.24,7.77a26,26,0,0,0-3.32,2.72,46.91,46.91,0,0,1-6.42,5.69c-1.27.92-2.83,1.73-3.71,2.87-1.83,2.36-4.75,3.39-6.46,5.73-1.37,1.88-3.65,2.59-5.08,4.47-.8,1.06-1.54,2.64-3,3a4.38,4.38,0,0,0-2.42,1.57c-2.16,2.66-5,4.45-7.66,6.53a34.12,34.12,0,0,0-6.35,6.75,4.18,4.18,0,0,0-.6,3.76C23.47,73.61,25.28,75,27.13,76.29Z"></path><path class="cls-2" d="M148.86,77.14c-.9.39-1.76-.12-2.65-.12-1.36,0-2.15.31-2.18,2-.05,2.37-.18,4.79-.29,7.12-.13,2.74.54,5.72.23,8.55-.47,4.32.47,8.58,0,12.92-.26,2.43.3,5.09.08,7.6-.25,2.82-.73,5.76-.08,8.4s.12,5.38,0,8c-.1,4.18,1.21,8.46-.58,12.62-1.08,2.49-2.51,3.25-5.17,3.73-4.72.87-9.47-.84-14.13.48a2.21,2.21,0,0,1-1.18-.22c-1.79-.62-3.56.19-5.37,0a52.15,52.15,0,0,0-5.86.19,7.84,7.84,0,0,1-6-1.92,1.57,1.57,0,0,1-.48-1A94.06,94.06,0,0,1,104,134.36c-.35-5,.11-9.9-.59-14.82-.21-1.48.38-2.92.32-4.42a17.73,17.73,0,0,0-.35-2.62,24.22,24.22,0,0,1,.08-6.36,54.93,54.93,0,0,0-.16-8.21c-.06-.71-1.16-.73-1.74-.52a5.61,5.61,0,0,1-3,0,5.89,5.89,0,0,0-2.72.15,8.17,8.17,0,0,1-5.12-.12c-1.09-.34-2.3.5-3.6.39a7.29,7.29,0,0,1-2.18-.23,5.21,5.21,0,0,0-3.05-.13,6.44,6.44,0,0,1-1.95.16c-2.64-.3-2.66-.33-2.61,2.3.07,3.64-.3,7.29.36,10.9.13.67-.33,1-.48,1.43-.82,2.47.2,4.89.06,7.34-.15,2.61-.43,5.24-.32,7.85.2,4.7-.46,9.34-.77,14-.1,1.49-.69,2.92-.88,4.44-.11.91-1.37,1.4-2.39,1.78-4,1.48-8.1.13-12.15.43-1.4.11-2.85.29-4.28.26s-3.11-.23-4.62-.41c-3-.36-6.07,1.13-9.06-.12-.77-.32-1.52.49-2.42.06a6.24,6.24,0,0,1-2.64-2.77,13.48,13.48,0,0,1-1.33-7.84,47.35,47.35,0,0,0-.18-11.47,8.48,8.48,0,0,1,.46-3.15c.74-3.55-.48-7-.16-10.47.43-4.71-.24-9.45.28-14.18.23-2.07-.23-4.21-.25-6.32a18.74,18.74,0,0,1,.37-5.12c.06-.21.25-.49.17-.62-1.29-2.18-.33-4.52-.49-6.77-.14-1.85-.62-2.31-2.53-2.15-.76.07-1.51.43-2.29.11-.47,0-1.05-1.2-1.4.12l-1.1-.4c-.48-1.08-1.41-.45-2.15-.58-1.85-1.29-3.66-2.68-4.49-4.84a4.18,4.18,0,0,1,.6-3.76,34.12,34.12,0,0,1,6.35-6.75c2.62-2.08,5.5-3.87,7.66-6.53a4.38,4.38,0,0,1,2.42-1.57c1.48-.34,2.22-1.92,3-3,1.43-1.88,3.71-2.59,5.08-4.47,1.71-2.34,4.63-3.37,6.46-5.73.88-1.14,2.44-1.95,3.71-2.87a46.91,46.91,0,0,0,6.42-5.69,26,26,0,0,1,3.32-2.72c3.24-2.41,6-5.37,9.24-7.77,1.7-1.26,3.66-2.39,4.84-4.31a1.31,1.31,0,0,1,.73-.47c1.91-.57,2.92-2.28,4.35-3.44A5.5,5.5,0,0,1,95.46,14c.09.18-.13.51.21.58,2.65.56,4.17,2.79,6,4.39,2.91,2.53,6.32,4.5,8.79,7.52.92,1.12,2.25,1.67,3.28,2.65,2.54,2.42,5.26,4.65,7.92,6.92,1.37,1.17,3,2.11,4.24,3.34,2.54,2.52,5.65,4.37,8,7.08,1.22,1.41,3,2.09,4.21,3.62,2.37,3,5.75,5,8.58,7.56s6,4.67,8.7,7.42c1.38,1.44,2.74,3.12,2.71,5.28a5.44,5.44,0,0,1-1.85,3.75,34.79,34.79,0,0,1-2.76,2.22c-.74.12-1.67-.5-2.15.58l-1.1.4C149.91,76,149.34,77.1,148.86,77.14ZM68.28,141a1.37,1.37,0,0,0,1.86.07v-.44l.57-.19-.6-.54c-.2-1.5.31-3,0-4.5a25.48,25.48,0,0,1-.06-8.4c.39-2.89-.34-5.74.35-8.58.49-2-.29-4.08-.18-6,.14-2.69.37-5.42.68-8.11a58.05,58.05,0,0,0-.13-8.42c-.05-1-.37-2.38.7-3.14a8.43,8.43,0,0,1,5.89-1.86c3.33.47,6.64,0,10,.28,1.23.08,2.61.79,3.64.28,1.65-.82,3.29.11,5-.42,1-.3,2.54.08,3.81.06,2.57,0,5-.42,7.62.66a3.53,3.53,0,0,1,2.5,3.63c.19,3.83-.48,7.65.22,11.49a20.42,20.42,0,0,1,.07,7c-.38,2.37,0,4.75.17,7.12.13,2.68-.24,5.36.2,8,.65,4-.73,8,.19,12.12.88.36,1.79-.43,2.83-.41,1.45,0,2.77.79,4.12.78,1.71,0,3.43-.45,5.18-.21a17.12,17.12,0,0,0,4.89-.2c2.77-.42,5.51.78,8.37.5.9-.09,1.05-.2,1.09-.93a13.36,13.36,0,0,1,.29-4,3.36,3.36,0,0,0-.27-3,2.07,2.07,0,0,1-.32-1.54c1.13-4.61.42-9.25.2-13.86-.16-3.54,1.25-7.1-.14-10.61a.47.47,0,0,1,.08-.35c.75-1.3.31-2.74.26-4.06-.11-2.87-.34-5.74-.27-8.61.08-3.24.4-6.46.25-9.7a27.84,27.84,0,0,1-.08-4.65,11.72,11.72,0,0,0-.4-5.35,3.27,3.27,0,0,1,1.69-3.9c1.85-1,3.93-.76,6-.75,1.23.31,2.46.92,3.66-.08,1,.77,1.34-.75,2.24-.63-.87-1-1.78-1.8-2.66-2.65-1.58-1.53-3.7-2.44-5.12-4a23.11,23.11,0,0,0-4.15-3.59c-2-1.43-3.78-3.22-5.68-4.81-2.69-2.26-5.13-4.83-7.87-7-2-1.63-4.06-3.28-6.12-4.86-2.3-1.77-4.27-4-6.45-6-2.51-2.25-5.43-3.91-7.79-6.43a84,84,0,0,0-11.36-9.64c-2.92-2.17-2.86-2.12-5.83.06-3.46,2.54-6.47,5.64-9.91,8.18-1.3,1-1.69,2.53-3,3.34a54,54,0,0,0-7.78,6c-1.74,1.57-3.24,3.53-5.1,4.81a83.66,83.66,0,0,0-8.85,7.25c-1.75,1.6-3.47,3.3-5.3,4.74-2.43,1.9-4.47,4.33-7.18,5.81-1.37.74-1.72,2.23-3,3A30.39,30.39,0,0,0,30,69.76c1.22-.36,1.54,1.16,2.56.39,1.2,1,2.43.39,3.66.08a4.65,4.65,0,0,1,2.1,0c.13.21.28.28.5.13l.92.1,3.4,1.92A1.46,1.46,0,0,1,44,74.11c-.16,1-.63,2-.77,3-.21,1.68.54,3.23.23,4.92A29.76,29.76,0,0,0,43.26,90a70.3,70.3,0,0,1,0,12.73c-.25,2.81,1,5.71-.53,8.44-.11.2.2.64.32,1,1,2.94.3,6,.39,9,.06,1.9-.33,4-.33,6,0,2.69.69,5.31,0,8.09-.45,1.83.58,3.83.33,5.82,0,.42.44.51,1.06.59,2.34.31,4.52-.52,6.79-.56,1.27,0,2.51.3,3.74.4,2.46.19,5-.78,7.43.15.8.3,1.21-.41,1.83-.55.22.34,0,1.12.94.71a19.14,19.14,0,0,1,3-.75Z"></path><path class="cls-3" d="M27.13,76.29c.74.13,1.67-.5,2.15.58A1.53,1.53,0,0,1,27.13,76.29Z"></path><path class="cls-3" d="M151.36,76.87c.48-1.08,1.41-.46,2.15-.58A1.53,1.53,0,0,1,151.36,76.87Z"></path><path class="cls-3" d="M30.38,77.27c.35-1.32.93-.16,1.4-.12C31.4,78.11,30.86,77.39,30.38,77.27Z"></path><path class="cls-3" d="M148.86,77.14c.48,0,1-1.16,1.4.13C149.78,77.36,149.24,78.15,148.86,77.14Z"></path><path class="cls-1" d="M32.52,70.15c-1,.77-1.34-.75-2.56-.39a30.39,30.39,0,0,1,7.23-6.06c1.29-.73,1.64-2.22,3-3,2.71-1.48,4.75-3.91,7.18-5.81,1.83-1.44,3.55-3.14,5.3-4.74a83.66,83.66,0,0,1,8.85-7.25c1.86-1.28,3.36-3.24,5.1-4.81a54,54,0,0,1,7.78-6c1.32-.81,1.71-2.38,3-3.34,3.44-2.54,6.45-5.64,9.91-8.18,3-2.18,2.91-2.23,5.83-.06a84,84,0,0,1,11.36,9.64c2.36,2.52,5.28,4.18,7.79,6.43,2.18,2,4.15,4.2,6.45,6,2.06,1.58,4.08,3.23,6.12,4.86,2.74,2.19,5.18,4.76,7.87,7,1.9,1.59,3.65,3.38,5.68,4.81a23.11,23.11,0,0,1,4.15,3.59c1.42,1.58,3.54,2.49,5.12,4,.88.85,1.79,1.67,2.66,2.65-.9-.12-1.22,1.4-2.24.63-1.24-.73-2.45-.25-3.66.08-2,0-4.1-.3-6,.75a3.27,3.27,0,0,0-1.69,3.9,11.72,11.72,0,0,1,.4,5.35,27.84,27.84,0,0,0,.08,4.65c.15,3.24-.17,6.46-.25,9.7-.07,2.87.16,5.74.27,8.61.05,1.32.49,2.76-.26,4.06a.47.47,0,0,0-.08.35c1.39,3.51,0,7.07.14,10.61.22,4.61.93,9.25-.2,13.86a2.07,2.07,0,0,0,.32,1.54,3.36,3.36,0,0,1,.27,3,13.36,13.36,0,0,0-.29,4c0,.73-.19.84-1.09.93-2.86.28-5.6-.92-8.37-.5a17.12,17.12,0,0,1-4.89.2c-1.75-.24-3.47.2-5.18.21-1.35,0-2.67-.75-4.12-.78-1,0-1.95.77-2.83.41-.92-4.07.46-8.11-.19-12.12-.44-2.68-.07-5.36-.2-8-.12-2.37-.55-4.75-.17-7.12a20.42,20.42,0,0,0-.07-7c-.7-3.84,0-7.66-.22-11.49a3.53,3.53,0,0,0-2.5-3.63c-2.57-1.08-5-.71-7.62-.66-1.27,0-2.85-.36-3.81-.06-1.69.53-3.33-.4-5,.42-1,.51-2.41-.2-3.64-.28-3.32-.24-6.63.19-10-.28a8.43,8.43,0,0,0-5.89,1.86c-1.07.76-.75,2.09-.7,3.14a58.05,58.05,0,0,1,.13,8.42c-.31,2.69-.54,5.42-.68,8.11-.11,2,.67,4,.18,6-.69,2.84,0,5.69-.35,8.58a25.48,25.48,0,0,0,.06,8.4c.3,1.51-.21,3,0,4.5-.36.26-.38.5,0,.73V141L68.28,141h0c-1.34-.86-2.67-.54-4,0-.62.14-1,.85-1.83.55-2.46-.93-5,0-7.43-.15-1.23-.1-2.47-.42-3.74-.4-2.27,0-4.45.87-6.79.56-.62-.08-1.11-.17-1.06-.59.25-2-.78-4-.33-5.82.7-2.78,0-5.4,0-8.09,0-2,.39-4.09.33-6-.09-3,.66-6-.39-9-.12-.33-.43-.77-.32-1,1.56-2.73.28-5.63.53-8.44a70.3,70.3,0,0,0,0-12.73,29.76,29.76,0,0,1,.15-7.88c.31-1.69-.44-3.24-.23-4.92.14-1.06.61-2,.77-3a1.46,1.46,0,0,0-.85-1.74c.26-.14.67-.44.41-.61-1.14-.76-2.06-2.29-3.81-1.31l-.92-.1-.5-.13a4.65,4.65,0,0,0-2.1,0C35,69.91,33.76,69.41,32.52,70.15Zm77.07-18.71c0-3.46-2.81-7.47-5.8-8.21a11.08,11.08,0,0,0-5.43-.12c-2.64.68-5.44,1-6.86,4-.67,1.39-1.88,1.29-2.51-.22a4.25,4.25,0,0,0-2-2.27c-4.48-1.61-9-3.19-13.31.7a7.77,7.77,0,0,0-2.59,6.52c0,.21.28.44.25.62-.58,3.28-.63,3.31.74,5.14s2.64,3.45,4.06,5.1C79,66,82.76,68.4,85.5,71.85c.65.83,1.61,1.39,2.29,2.23,2,2.51,2.81,2.27,5.16,0s4.34-5,6.94-7.09c.56-.45,1.27-.55,1.74-1.11,2.3-2.71,4.73-5.31,6.88-8.12.52-.69,1.87-1,1.54-2.23A23.55,23.55,0,0,1,109.59,51.44Z"></path><path class="cls-3" d="M39.7,70.45c1.75-1,2.67.55,3.81,1.31.26.17-.15.47-.41.61Z"></path><path class="cls-3" d="M64.29,141c1.32-.58,2.65-.9,4,0a19.14,19.14,0,0,0-3,.75C64.27,142.12,64.51,141.34,64.29,141Z"></path><path class="cls-3" d="M32.52,70.15c1.24-.74,2.45-.24,3.66.08C35,70.54,33.72,71.15,32.52,70.15Z"></path><path class="cls-3" d="M144.46,70.23c1.21-.33,2.42-.81,3.66-.08C146.92,71.15,145.69,70.54,144.46,70.23Z"></path><path class="cls-3" d="M70.15,140.59c-.41-.23-.39-.47,0-.73l.6.54Z"></path><path class="cls-3" d="M68.28,141l1.86.07A1.37,1.37,0,0,1,68.28,141Z"></path><path class="cls-3" d="M38.28,70.22l.5.13C38.56,70.5,38.41,70.43,38.28,70.22Z"></path><path class="cls-2" d="M109.59,51.44a23.55,23.55,0,0,0,.46,4.07c.33,1.23-1,1.54-1.54,2.23-2.15,2.81-4.58,5.41-6.88,8.12-.47.56-1.18.66-1.74,1.11-2.6,2.09-4.57,4.78-6.94,7.09s-3.13,2.53-5.16,0c-.68-.84-1.64-1.4-2.29-2.23C82.76,68.4,79,66,76.15,62.67c-1.42-1.65-2.76-3.36-4.06-5.1s-1.32-1.86-.74-5.14c0-.18-.24-.41-.25-.62a7.77,7.77,0,0,1,2.59-6.52C78,41.4,82.52,43,87,44.59a4.25,4.25,0,0,1,2,2.27c.63,1.51,1.84,1.61,2.51.22,1.42-2.94,4.22-3.29,6.86-4a11.08,11.08,0,0,1,5.43.12C106.78,44,109.61,48,109.59,51.44Z"></path></svg>