<svg xmlns="http://www.w3.org/2000/svg" id="Layer_1" data-name="Layer 1" viewBox="0 0 181 181"><defs><style>.cls-1{fill:#fafaf9;}.cls-2{fill:#1a1b1b;}.cls-3{fill:#909090;}</style></defs><path class="cls-1" d="M-.58,181.4q0-89.88,0-179.74C-.61.31-.31,0,1.05,0Q90.11.06,179.16,0c1.35,0,1.66.31,1.66,1.66q-.06,89.06,0,178.11c0,1.35-.31,1.66-1.66,1.66Q89.28,181.37-.58,181.4ZM128.57,73.76l-.18-.55a1,1,0,0,0,.45-1.27l.15-1c.34-.45.44-.87-.17-1.18l-.13-.63c.34-.48.11-.67-.37-.73l.13-1.82a1.45,1.45,0,0,0-.07-1.84l.06-.6c.78-.66,1-1.32,0-2l.33-1.67c.32-.18.26-.33,0-.45V59.4c.39-.78,0-1.3-.56-1.81,0-1,.79-1.94.22-3a3.07,3.07,0,0,1,.07-2.6,9.7,9.7,0,0,0,.14-3.17c.1-2.89-1.4-5.79.1-8.68a1.89,1.89,0,0,0-.27-1.88,2.57,2.57,0,0,1-.57-1.28c.13-4.24-.63-8.42-.82-12.64-.17-3.62-4-8.1-8.3-6.67a6.29,6.29,0,0,1-1.79,0c-4,0-8.06-.05-12.09-.05-2.63,0-5.26.13-7.89.07-3.22-.07-6.45,0-9.66,0-4.79,0-9.58.38-14.38,0a1,1,0,0,0-1.16-.18l-1,.05c-1.73-.15-3.4.69-5.15.21a1.37,1.37,0,0,0-1.47.47l-2.06.19a2.48,2.48,0,0,0-2.56.16,5.39,5.39,0,0,1-3.09.45.68.68,0,0,0-.87.15l-.65.06c-.28-.1-.56-.17-.79.12l-.73.15a1.12,1.12,0,0,0-1.5.28,9.47,9.47,0,0,0-4.54,2.28c-2.77,2.44-2.89,5.84-2.54,8.75a112.68,112.68,0,0,1,.34,15.47c0,2.91.3,5.78.27,8.68,0,3.14.59,6.31.4,9.43-.27,4.3.09,8.55.24,12.82s.55,8.47.74,12.71c.22,5.23.75,10.43,1.08,15.64,0,.73,1.13,1.07.65,1.58-1.53,1.61-.53,3.53-.36,5.05.47,4.16.52,8.32.8,12.48.34,5,0,10.08,1.27,15a1.58,1.58,0,0,1,0,1.05c-1.27,1.84-1.11,4-1.43,6.06-.58,3.81,0,7.24,3.35,9.86a19.78,19.78,0,0,0,10.52,4.33,57.56,57.56,0,0,0,13.19-.62,141.08,141.08,0,0,1,18-1.4c4.19,0,8.37.21,12.57,0a53.45,53.45,0,0,1,8.84.3,32.77,32.77,0,0,0,9.67-.46,4.14,4.14,0,0,0,3.33-2.88,11.29,11.29,0,0,0,.44-4.83c-.26-4.38.85-8.65.53-13-.15-2,.12-4.21.17-6.32.2-.6.46-1.21,0-1.81l-.07-1.43c1.59-.83.35-1.7,0-2.55a5.54,5.54,0,0,0-.15-3.8c-.51-1.11,1-2.55-.36-3.68a.92.92,0,0,1,.2-.29c.62-.65.45-1.43.37-2.21-.2-2.18-.1-4.39-.14-6.57-.08-4.09-.51-8.18-.22-12.28.13-1.9-.13-3.82,0-5.76a15.25,15.25,0,0,0-.52-6.21l.12-.85.31-1a33.11,33.11,0,0,0,0-7.77l-.11-1C129.24,74.18,129,73.94,128.57,73.76Z"></path><path class="cls-2" d="M128.79,74.6l.11,1c-1,2.6-.26,5.18,0,7.77l-.31,1-.68.52.56.33a15.25,15.25,0,0,1,.52,6.21c-.13,1.94.13,3.86,0,5.76-.29,4.1.14,8.19.22,12.28,0,2.18-.06,4.39.14,6.57.08.78.25,1.56-.37,2.21a.92.92,0,0,0-.2.29c1.38,1.13-.15,2.57.36,3.68a5.54,5.54,0,0,1,.15,3.8,2.55,2.55,0,0,0,0,2.55c0,.47.05.95.07,1.43-.87.6-.31,1.21,0,1.81,0,2.11-.32,4.3-.17,6.32.32,4.38-.79,8.65-.53,13a11.29,11.29,0,0,1-.44,4.83,4.14,4.14,0,0,1-3.33,2.88,32.77,32.77,0,0,1-9.67.46,53.45,53.45,0,0,0-8.84-.3c-4.2.22-8.38,0-12.57,0a141.08,141.08,0,0,0-18,1.4,57.56,57.56,0,0,1-13.19.62,19.78,19.78,0,0,1-10.52-4.33c-3.31-2.62-3.93-6.05-3.35-9.86.32-2,.16-4.22,1.43-6.06a1.58,1.58,0,0,0,0-1.05c-1.3-4.93-.93-10-1.27-15-.28-4.16-.33-8.32-.8-12.48-.17-1.52-1.17-3.44.36-5.05.48-.51-.61-.85-.65-1.58C47.52,100.42,47,95.22,46.77,90c-.19-4.24-.59-8.46-.74-12.71s-.51-8.52-.24-12.82c.19-3.12-.43-6.29-.4-9.43,0-2.9-.32-5.77-.27-8.68a112.68,112.68,0,0,0-.34-15.47c-.35-2.91-.23-6.31,2.54-8.75a9.47,9.47,0,0,1,4.54-2.28,1.75,1.75,0,0,0,1.5-.28l.73-.15c.35.51.6.38.79-.12l.65-.06a.55.55,0,0,0,.87-.15,5.39,5.39,0,0,0,3.09-.45c.92,1.07,1.7-.29,2.56-.16l2.06-.2c1,.29,2.63-.49,2.46,1.82a2.54,2.54,0,0,1,1.62-1.8c.81-.35,1.79-.11,2.54-.69l1-.05a1.06,1.06,0,0,0,1.16.18c4.8.34,9.59,0,14.38,0,3.21,0,6.44,0,9.66,0,2.63.06,5.26-.07,7.89-.07,4,0,8.06,0,12.09.05a6.29,6.29,0,0,0,1.79,0c4.31-1.43,8.13,3,8.3,6.67.19,4.22.95,8.4.82,12.64a2.57,2.57,0,0,0,.57,1.28,1.89,1.89,0,0,1,.27,1.88c-1.5,2.89,0,5.79-.1,8.68a9.7,9.7,0,0,1-.14,3.17,3.07,3.07,0,0,0-.07,2.6c.57,1-.19,2-.22,3-.32.76.19,1.27.56,1.81v.69l0,.45-.33,1.67c0,.66,0,1.32,0,2l-.06.6c.14.61-.61,1.26.07,1.84,0,.61-.09,1.21-.13,1.82-.25.08-.41.24-.35.51.12.43.46.19.72.22l.13.63A1,1,0,0,0,129,71l-.15,1c-.57.28-.59.75-.45,1.27l.18.55C128.46,74.09,128.29,74.44,128.79,74.6Zm-35.55-52-.48.18c-1.29.21-2.58,0-3.89.17-2.25.26-4.54.8-6.74.59s-4.15-.28-6.21-.27c-3.68,0-7.36,0-11,.14-3.28.09-6.58-.23-9.88-.17a6.75,6.75,0,0,0-6.28,6c-.22,3.13.41,6.2.64,9.3.06.77.29,1,1.09,1,4.51-.34,9-.9,13.52-1,2.67-.08,5.31-1,8-1,4.38-.11,8.74-.92,13.12-.47,2.8.28,5.53-.47,8.38-.06,2.1.31,4.34.33,6.51.44,2.53.13,5-.2,7.51-.31,4.12-.19,8.25.3,12.37-.15,2.14-.23,2.7-.74,2.49-2.93a25,25,0,0,1,.38-8.15,3.43,3.43,0,0,0-3.55-4.06,47.73,47.73,0,0,1-5.35.05,87.1,87.1,0,0,0-13.21.4c-1.27.17-2.74,1-4.14.19-1-1.57-1.8-.31-2.63.26Zm-15.7,131a.29.29,0,0,0,.49,0c.6.47,1.35.31,2,.48.36.22.6,0,.81-.25.89-.06,1.78-.17,2.66-.16,4,0,8.09.14,12.13.13,5.92,0,11.82.27,17.75-.29,2.91-.27,5.48-.52,7.68-2.64,1.69-1.64,3.53-3.06,2.47-5.81a2.82,2.82,0,0,1,0-.72c-.23-3.28-.47-6.56-.68-9.84,0-.5-.15-.82-.68-.84a35.61,35.61,0,0,0-5.5.29,55.65,55.65,0,0,1-6.6.64c-2.32,0-4.68-.41-6.9-.19a50.58,50.58,0,0,1-9.77-.12,7,7,0,0,0-1.89-.05,56.17,56.17,0,0,1-12.69.65c-.82-1-1.53-.08-2.29.13l-1.39.23-.46-.14-1.4-.05c-.08-.27,0-.68-.39-.71s-.3.39-.34.65c-1.68-.36-3.3.28-5,.28-2,0-4.06,0-6.07,0-1.78,0-3.69.28-5.52.11s-2.73.37-2.87,2.27c-.31,4.36.64,8.64.84,13,0,.8.58,1.9,1.37,1.91a3.53,3.53,0,0,1,2.33,1,4.11,4.11,0,0,0,3,1.06c4.68-.29,9.36-.54,14-.81l.47,0,1.56,0c0,.18,0,.35,0,.53v-.53ZM63.81,43.24l-2.75,0c-.34-.31-.61-.14-.88.11l-.56,0c-.32-.54-.71-.62-1.19-.21h-.72c-.06-.32-.16-1-.22-.9-.87,1.18-2.13.14-3.09.61-1.07-.16-2.15-.24-3.2-.49s-1.53.16-1.52,1.26A75.12,75.12,0,0,0,50,51.69c.37,3,.64,6,.72,9.07,0,1.7,1,3.3.75,4.87-.64,4.46.36,8.84.45,13.25.06,3.28-.23,6.6.12,9.8.43,3.79.11,7.56.26,11.32.16,4,.3,8.1.29,12.16,0,5.53.4,11.06.55,16.59.09,3.36,0,3.36,3.12,2.69l.18,0c6-.33,12-1.68,18.11-1.24a3.79,3.79,0,0,0,1.58-.29,4.19,4.19,0,0,1,2.58-.26,10.32,10.32,0,0,0,3,0c3.38-.22,6.8-1,10.11-.62,5,.52,10-.25,15,0s9.92-.31,14.9-.08c.8,0,1.24-.16,1.12-1.13a13.16,13.16,0,0,1-.12-3.7c.72-3.81,0-7.65,0-11.44s-.28-7.49-.18-11.16c.18-6.42-.29-12.83-.06-19.24.17-4.84-.11-9.7-.22-14.54-.09-4.23-.2-8.49-.35-12.73-.09-2.68.05-5.37.09-8,.36.07.59-.09.6-.43a.43.43,0,0,0-.46-.44c-.38,0-.53.18-.45.55a4.8,4.8,0,0,1,.48-2c.3-.82.15-1.55-1.1-1.4a15.68,15.68,0,0,1-3.74.16c-3.82-.5-7.59.33-11.39.34-3.21,0-6.44.47-9.63-.27a28.91,28.91,0,0,0-3.92-.32c-1.91-.18-3.78.28-5.68.08a40,40,0,0,0-8.29-.5c-3.14.34-6.24.38-9.37.48-1.31.05-2.67-.48-3.95.16A1,1,0,0,0,63.81,43.24Zm63.15,32a2.7,2.7,0,0,1,.26-.5c.19-.23.69-.58,0-.65C126.88,74,127,74.69,127,75.21Z"></path><path class="cls-3" d="M70.73,17.61c-.75.58-1.73.34-2.54.69a2.54,2.54,0,0,0-1.62,1.8c.17-2.31-1.47-1.53-2.46-1.82a1.38,1.38,0,0,1,1.47-.46C67.33,18.3,69,17.46,70.73,17.61Z"></path><path class="cls-3" d="M129,83.35c-.31-2.59-1-5.17,0-7.77A33.11,33.11,0,0,1,129,83.35Z"></path><path class="cls-3" d="M129.31,128.56a2.55,2.55,0,0,1,0-2.55C129.66,126.86,130.9,127.73,129.31,128.56Z"></path><path class="cls-3" d="M62.05,18.48c-.86-.13-1.64,1.23-2.56.16A2.48,2.48,0,0,1,62.05,18.48Z"></path><path class="cls-3" d="M128.73,59.4c-.37-.54-.88-1-.56-1.81C128.68,58.1,129.12,58.62,128.73,59.4Z"></path><path class="cls-3" d="M128.44,64.19c0-.66,0-1.32,0-2C129.46,62.87,129.22,63.53,128.44,64.19Z"></path><path class="cls-3" d="M129.38,131.8c-.31-.6-.87-1.21,0-1.81C129.84,130.59,129.58,131.2,129.38,131.8Z"></path><path class="cls-3" d="M128.45,66.63c-.68-.58.07-1.23-.07-1.84A1.45,1.45,0,0,1,128.45,66.63Z"></path><path class="cls-3" d="M53.36,19.57a1.75,1.75,0,0,1-1.5.28A1.12,1.12,0,0,1,53.36,19.57Z"></path><path class="cls-3" d="M128.69,69.18c-.26,0-.6.21-.72-.22-.06-.27.1-.43.35-.51C128.8,68.51,129,68.7,128.69,69.18Z"></path><path class="cls-3" d="M129,71a1,1,0,0,1-.17-1.18C129.43,70.12,129.33,70.54,129,71Z"></path><path class="cls-3" d="M128.39,73.21c-.14-.52-.12-1,.45-1.27A1,1,0,0,1,128.39,73.21Z"></path><path class="cls-3" d="M128.79,74.6c-.5-.16-.33-.51-.22-.84C129,73.94,129.24,74.18,128.79,74.6Z"></path><path class="cls-3" d="M128.52,85.21l-.56-.33.68-.52Z"></path><path class="cls-3" d="M54.88,19.3c-.19.5-.44.63-.79.12C54.32,19.13,54.6,19.2,54.88,19.3Z"></path><path class="cls-3" d="M56.4,19.09a.55.55,0,0,1-.87.15A.68.68,0,0,1,56.4,19.09Z"></path><path class="cls-3" d="M72.93,17.74a1.06,1.06,0,0,1-1.16-.18A1,1,0,0,1,72.93,17.74Z"></path><path class="cls-3" d="M128.76,60.54l0-.45C129,60.21,129.08,60.36,128.76,60.54Z"></path><path class="cls-1" d="M65,43.31c1.28-.64,2.64-.11,3.95-.16,3.13-.1,6.23-.14,9.37-.48a40,40,0,0,1,8.29.5c1.9.2,3.77-.26,5.68-.08a28.91,28.91,0,0,1,3.92.32c3.19.74,6.42.27,9.63.27,3.8,0,7.57-.84,11.39-.34a15.68,15.68,0,0,0,3.74-.16c1.25-.15,1.4.58,1.1,1.4a4.8,4.8,0,0,0-.48,2l.31.32c0,2.68-.18,5.37-.09,8,.15,4.24.26,8.5.35,12.73.11,4.84.39,9.7.22,14.54-.23,6.41.24,12.82.06,19.24-.1,3.67.15,7.47.18,11.16s.75,7.63,0,11.44a13.16,13.16,0,0,0,.12,3.7c.12,1-.32,1.17-1.12,1.13-5-.23-10,.3-14.9.08s-10,.55-15,0c-3.31-.35-6.73.4-10.11.62a10.32,10.32,0,0,1-3,0,4.19,4.19,0,0,0-2.58.26,3.79,3.79,0,0,1-1.58.29c-6.1-.44-12.07.91-18.11,1.24l-.18,0c-3.11.67-3,.67-3.12-2.69-.15-5.53-.56-11.06-.55-16.59,0-4.06-.13-8.13-.29-12.16-.15-3.76.17-7.53-.26-11.32-.35-3.2-.06-6.52-.12-9.8-.09-4.41-1.09-8.79-.45-13.25.23-1.57-.7-3.17-.75-4.87-.08-3-.35-6.06-.72-9.07a75.12,75.12,0,0,1-.27-8.07c0-1.1.36-1.54,1.52-1.26s2.13.33,3.2.49a6.89,6.89,0,0,0,3.31.29h.72c.34.35.78.19,1.19.21l.56,0a.87.87,0,0,0,.88-.11l2.75,0A1.1,1.1,0,0,0,65,43.31Zm8.79,21.23c1.27.6,2.52-.54,3.79-.07a1.68,1.68,0,0,0,1.82,1.08c2.39-.08,4.69-.94,7.11-.61.59.08,1.14,0,1.56.6,1,1.58.17,6-1.46,7a3.11,3.11,0,0,1-.85.21c-3.32.89-6.79.75-10.13,1.49-1.08.24-2.75.32-2.67,1.58S74.72,77,75.84,77a40.14,40.14,0,0,0,8.3-.51c-2.21,2.33-4.86,3.19-6.87,5a1.54,1.54,0,0,1-1.37.17,3.57,3.57,0,0,0-3.09,1.09,2,2,0,0,0-.32,2.76,2.15,2.15,0,0,0,2.68,1.13,3.77,3.77,0,0,1,3.89,1c3.49,3.28,6.42,7.11,10.08,10.2a13.26,13.26,0,0,0,7.71,3.5c.83.06,2,.36,2.22-.55.23-.75-.71-1.41-1.35-2-.13-.11-.34-.15-.47-.26-1.29-1.16-2.94-1.82-4.17-3.07-2.1-2.12-4.15-4.3-6.31-6.33-1.85-1.73-3.53-3.58-5.52-5.33,1.25-.72,2.33-1.24,3.31-1.91,2-1.35,4.31-2.26,5.63-4.36a4.8,4.8,0,0,1,3.54-2.21,27.2,27.2,0,0,0,5.47-1.58c.31-.12.8-.14.82-.58s-.49-.61-.87-.73a16.16,16.16,0,0,0-4.27-.52c-.45,0-1.24.13-.9-.83,1.25-3.53-.11-6.61-1.68-9.79,2.81.08,5.25-1.34,7.93-1.82.57-.1,1.3-.32,1.21-1.06s-.79-.63-1.32-.61c-1.56.05-3.1-.16-4.7,0-2.39.18-4.84,0-7.29.22-2.75.27-5.45,1.24-8.26.8-.23-.13-.38,0-.49.17h-2c-1-.19-2-.77-2.64.5l-.77,0c-.45-.25-.89-.45-1.15.24l-1,.15a.3.3,0,0,0-.51.15.39.39,0,0,0,.35.57c.34.62-.66.53-.54,1-.55.38-1.49-.9-1.71.23A2,2,0,0,0,71.05,64a3.92,3.92,0,0,0,1.23,0C72.85,64,73.2,64.68,73.83,64.54Z"></path><path class="cls-1" d="M73.27,135.1l1.4.05c.09.25.24.33.46.14l1.39-.23c.79.34,1.52-.19,2.29-.13a56.17,56.17,0,0,0,12.69-.65,7,7,0,0,1,1.89.05,50.58,50.58,0,0,0,9.77.12c2.22-.22,4.58.18,6.9.19a55.65,55.65,0,0,0,6.6-.64,35.61,35.61,0,0,1,5.5-.29c.53,0,.65.34.68.84.21,3.28.45,6.56.68,9.84a2.82,2.82,0,0,0,0,.72c1.06,2.75-.78,4.17-2.47,5.81-2.2,2.12-4.77,2.37-7.68,2.64-5.93.56-11.83.28-17.75.29-4,0-8.08-.1-12.13-.13-.88,0-1.77.1-2.66.16l-.81.25c-.68-.17-1.43,0-2-.48a.3.3,0,0,0-.49,0l-.83.18h0l-1.56,0c-.17-.32-.33-.3-.47,0-4.68.27-9.36.52-14,.81a4.11,4.11,0,0,1-3-1.06,3.53,3.53,0,0,0-2.33-1c-.79,0-1.34-1.11-1.37-1.91-.2-4.33-1.15-8.61-.84-13,.14-1.9,1-2.44,2.87-2.27s3.74-.15,5.52-.11c2,0,4.05,0,6.07,0,1.66,0,3.28-.64,5-.28C72.77,135.29,73,135.47,73.27,135.1ZM84,151.88l2.13-.09c.83,0,1.07-.87,1.75-1.2,2.74-1.31,5.07-3,5.42-6.44.23-2.18.54-4.14-1.5-5.9-2.78-2.39-4.3-2.64-7.34-.9a6.71,6.71,0,0,1-2.88,1.17c-1.59,0-2.22,1-2.71,2.2-.39.94-.44,2-.86,2.93C76.41,147.21,79.81,152.62,84,151.88Z"></path><path class="cls-1" d="M96.46,22.34c1.4.82,2.87,0,4.14-.19a87.1,87.1,0,0,1,13.21-.4,47.73,47.73,0,0,0,5.35-.05,3.43,3.43,0,0,1,3.55,4.06,25,25,0,0,0-.38,8.15c.21,2.19-.35,2.7-2.49,2.93-4.12.45-8.25,0-12.37.15-2.5.11-5,.44-7.51.31-2.17-.11-4.41-.13-6.51-.44-2.85-.41-5.58.34-8.38.06-4.38-.45-8.74.36-13.12.47-2.66.06-5.3,1-8,1-4.53.14-9,.7-13.52,1-.8.06-1-.2-1.09-1-.23-3.1-.86-6.17-.64-9.3a6.75,6.75,0,0,1,6.28-6c3.3-.06,6.6.26,9.88.17,3.67-.1,7.35-.11,11-.14q3.09,0,6.21.27c2.2.21,4.49-.33,6.74-.59,1.31-.14,2.6,0,3.89-.17a.32.32,0,0,0,.48-.18h.59C94.77,23.11,95.61,22.63,96.46,22.34ZM81.59,27.53a16,16,0,0,0-1.93,0c-1.28.13-2.25.57-2.46,2.11-.23,1.76,1.19,1.69,2.07,1.85a25.77,25.77,0,0,0,12.52-.42,1.83,1.83,0,0,0,1.36-1.52.94.94,0,0,0-.77-1.07c-1.29-.37-2.53-1.33-3.89-1C86.3,28,84.15,27.36,81.59,27.53ZM70.21,27.1c-1.84.07-3.79,1.7-3.73,3.11A3.58,3.58,0,0,0,69.55,33c1.51-.09,3.71-2,3.69-3.14A3.46,3.46,0,0,0,70.21,27.1ZM103,28c0-2-1.06-2.78-2.91-2.61a10,10,0,0,0-2.6.7,2.51,2.51,0,0,0-1.23,3.14,3,3,0,0,0,4.07,1.37A3.82,3.82,0,0,0,103,28Z"></path><path class="cls-3" d="M96.46,22.34c-.85.29-1.69.77-2.63.26C94.66,22,95.42,20.77,96.46,22.34Z"></path><path class="cls-3" d="M57.71,43.14a6.89,6.89,0,0,1-3.31-.29c1-.47,2.22.57,3.09-.61C57.55,42.17,57.65,42.82,57.71,43.14Z"></path><path class="cls-3" d="M78.81,134.93c-.77-.06-1.5.47-2.29.13C77.28,134.85,78,134,78.81,134.93Z"></path><path class="cls-3" d="M127,75.21c0-.52-.08-1.19.3-1.15.65.07.15.42,0,.65A2.7,2.7,0,0,0,127,75.21Z"></path><path class="cls-3" d="M59.62,43.35c-.41,0-.85.14-1.19-.21C58.91,42.73,59.3,42.81,59.62,43.35Z"></path><path class="cls-3" d="M73.27,135.1c-.27.37-.5.19-.73-.06,0-.26-.13-.68.34-.65S73.19,134.83,73.27,135.1Z"></path><path class="cls-1" d="M121.63,46.61c-.08-.37.07-.56.45-.55a.43.43,0,0,1,.46.44c0,.34-.24.5-.6.43Z"></path><path class="cls-3" d="M65,43.31a1.1,1.1,0,0,1-1.23-.07A1,1,0,0,1,65,43.31Z"></path><path class="cls-3" d="M61.06,43.29a.87.87,0,0,1-.88.11C60.45,43.15,60.72,43,61.06,43.29Z"></path><path class="cls-3" d="M76.7,153.81h0v.53C76.7,154.16,76.7,154,76.7,153.81Z"></path><path class="cls-3" d="M80.06,154.13l.81-.25C80.66,154.15,80.42,154.35,80.06,154.13Z"></path><path class="cls-3" d="M93.24,22.59a.32.32,0,0,1-.48.18Z"></path><path class="cls-3" d="M75.13,135.29c-.22.19-.37.11-.46-.14Z"></path><path class="cls-3" d="M74.67,153.79c.14-.32.3-.34.47,0Z"></path><path class="cls-3" d="M77.54,153.63a.3.3,0,0,1,.49,0A.29.29,0,0,1,77.54,153.63Z"></path><path class="cls-2" d="M77.41,59h2a.35.35,0,0,0,.49-.17c2.81.44,5.51-.53,8.26-.8,2.45-.24,4.9,0,7.29-.22,1.6-.13,3.14.08,4.7,0,.53,0,1.24-.08,1.32.61s-.64,1-1.21,1.06c-2.68.48-5.12,1.9-7.93,1.82,1.57,3.18,2.93,6.26,1.68,9.79-.34,1,.45.8.9.83a16.16,16.16,0,0,1,4.27.52c.38.12.9.18.87.73s-.51.46-.82.58a27.2,27.2,0,0,1-5.47,1.58,4.8,4.8,0,0,0-3.54,2.21c-1.32,2.1-3.67,3-5.63,4.36-1,.67-2.06,1.19-3.31,1.91,2,1.75,3.67,3.6,5.52,5.33,2.16,2,4.21,4.21,6.31,6.33,1.23,1.25,2.88,1.91,4.17,3.07.13.11.34.15.47.26.64.55,1.58,1.21,1.35,2-.27.91-1.39.61-2.22.55a13.26,13.26,0,0,1-7.71-3.5c-3.66-3.09-6.59-6.92-10.08-10.2a3.77,3.77,0,0,0-3.89-1,2.15,2.15,0,0,1-2.68-1.13,2,2,0,0,1,.32-2.76,3.57,3.57,0,0,1,3.09-1.09,1.54,1.54,0,0,0,1.37-.17c2-1.77,4.66-2.63,6.87-5a40.14,40.14,0,0,1-8.3.51c-1.12,0-2.76.19-2.84-1.15s1.59-1.34,2.67-1.58c3.34-.74,6.81-.6,10.13-1.49a3.11,3.11,0,0,0,.85-.21c1.63-1,2.49-5.45,1.46-7-.42-.63-1-.52-1.56-.6-2.42-.33-4.72.53-7.11.61a1.68,1.68,0,0,1-1.82-1.08c-.79-1.15-2.13-1.12-3.79.07-.63.14-1-.5-1.55-.53l-1.09-2.44c-.12-.49.88-.4.54-1l.16-.72,1-.15A.83.83,0,0,0,74,59.44l.77,0C75.67,59.42,76.66,59.79,77.41,59Z"></path><path class="cls-3" d="M71.19,61.57,72.28,64a3.92,3.92,0,0,1-1.23,0,2,2,0,0,1-1.57-2.23C69.7,60.67,70.64,62,71.19,61.57Z"></path><path class="cls-3" d="M73.83,64.54c1.66-1.19,3-1.22,3.79-.07C76.35,64,75.1,65.14,73.83,64.54Z"></path><path class="cls-3" d="M77.41,59c-.75.82-1.74.45-2.64.5C75.44,58.2,76.46,58.78,77.41,59Z"></path><path class="cls-3" d="M74,59.44a.83.83,0,0,1-1.15.24C73.11,59,73.55,59.19,74,59.44Z"></path><path class="cls-3" d="M71.89,59.83c0,.24-.11.48-.16.72a.39.39,0,0,1-.35-.57A.3.3,0,0,1,71.89,59.83Z"></path><path class="cls-3" d="M79.87,58.79a.35.35,0,0,1-.49.17C79.49,58.74,79.64,58.66,79.87,58.79Z"></path><path class="cls-2" d="M84,151.88c-4.23.74-7.63-4.67-6-8.23.42-.91.47-2,.86-2.93.49-1.17,1.12-2.16,2.71-2.2a6.71,6.71,0,0,0,2.88-1.17c3-1.74,4.56-1.49,7.34.9,2,1.76,1.73,3.72,1.5,5.9-.35,3.42-2.68,5.13-5.42,6.44-.68.33-.92,1.17-1.75,1.2Zm4.36-9.06c0-.89-2.1-3.51-2.89-3.6s-3.66,2.79-3.6,3.72c.13,1.74,1.55,3.57,2.82,3.6S88.39,144.16,88.4,142.82Z"></path><path class="cls-2" d="M81.59,27.53c2.56-.17,4.71.45,6.9-.05,1.36-.31,2.6.65,3.89,1a.94.94,0,0,1,.77,1.07,1.83,1.83,0,0,1-1.36,1.52,25.77,25.77,0,0,1-12.52.42c-.88-.16-2.3-.09-2.07-1.85.21-1.54,1.18-2,2.46-2.11A16,16,0,0,1,81.59,27.53Z"></path><path class="cls-2" d="M70.21,27.1a3.46,3.46,0,0,1,3,2.77c0,1.18-2.18,3.05-3.69,3.14a3.58,3.58,0,0,1-3.07-2.8C66.42,28.8,68.37,27.17,70.21,27.1Z"></path><path class="cls-2" d="M103,28a3.82,3.82,0,0,1-2.67,2.6,3,3,0,0,1-4.07-1.37,2.51,2.51,0,0,1,1.23-3.14,10,10,0,0,1,2.6-.7C101.89,25.22,102.93,26,103,28Z"></path><path class="cls-1" d="M88.4,142.82c0,1.34-2.4,3.75-3.67,3.72s-2.69-1.86-2.82-3.6c-.06-.93,2.73-3.81,3.6-3.72S88.41,141.93,88.4,142.82Z"></path></svg>