<svg xmlns="http://www.w3.org/2000/svg" id="Layer_1" data-name="Layer 1" viewBox="0 0 181 181"><defs><style>.cls-1{fill:#fff;}.cls-2{fill:#1a1a1a;}.cls-3{fill:#f9f9f9;}</style></defs><path class="cls-1" d="M0,181Q0,91.32,0,1.66C0,.31.3,0,1.66,0Q90.51.06,179.34,0c1.35,0,1.66.3,1.66,1.66q-.06,88.85,0,177.68c0,1.35-.3,1.66-1.66,1.66Q89.68,180.94,0,181Zm45.86-51c-.31,4.33,2.09,7.33,5,9.95,1.77,1.58,4.15,1.69,6.42,1.94,5.36.61,9.71-1.53,13.52-5.05,2.4-2.23,3.25-5.2,3.72-8.31.11-.67.3-1.2,1.06-1.17,2.24.11,4.44-.56,6.62-.55,3.25,0,6.46-.47,9.7-.57a44.88,44.88,0,0,1,5-.19c1.56.15,3.13-.13,4.65.15.66.12,1.13-.39,1.74-.25,3.19.7,6.4.07,9.6.15.65,0,1.21,0,1.37.79a13.77,13.77,0,0,1,.49,2.43c.08,2.79,1.72,4.78,3.43,6.68.4.45,1.21,1.57,2.15.3.14-.18,1.08,0,.9.47-.75,1.76,1,1.56,1.53,1.72a14.77,14.77,0,0,0,12.61-2.11c.68-.46,1.56-.52,2.06-1.36a20.12,20.12,0,0,0,2.56-5.47c.65-2.72.91-2.79,3.69-2.68a5,5,0,0,0,1.23,0c3.82-.94,7.92-.12,11.62-2,1.22-.64,2.25-1,2.23-2.56a1.84,1.84,0,0,1,.69-1.42,4.62,4.62,0,0,0,1.5-3.71c0-3.19-.2-6.4-.37-9.57-.19-3.53,0-7.11-.68-10.63-.75-3.83-1.26-7.71-2-11.55a6,6,0,0,1-.16-2.94c.48-1.76-.81-3.6-2.49-3.23-2.35.51-4.61-.17-6.94.06-3.9.38-7.82-.31-11.74-.47a1,1,0,0,1-1-.6c-.85-2.27-2.81-3.86-3.48-6.35-1.35-5-5-8.77-7.44-13.19-.23-.4-.6-.51-.94-.74-1.55-1.08-3.2-.05-4.78-.31-1.17-.19-2.49,0-3.51-.42-.79-.35-.3-1.64-.47-2.5-.82-4.17-5-7.67-9.17-7.26-2.22.22-4.61.77-5.65,3.12-.78,1.76-1.8,3.57-1.39,5.64.2,1,0,1.22-1.07,1.44-2.76.57-5.51,0-8.27.15-3.18.21-6.44-.13-9.7-.07-4.75.09-9.56.37-14.29-.5-1.93-.35-3.63.72-5.59.48a32.78,32.78,0,0,0-8,0,80.1,80.1,0,0,1-11.38.26c-2.26-.06-4.57-.22-6.7.59a7.53,7.53,0,0,0-4.55,4.21c-1.68,4.13-1.29,8.56-1.89,12.85a24.37,24.37,0,0,0-.58,5.16c.23,2.77-.47,5.48,0,8.3s-.64,6.07.29,9.1a3.29,3.29,0,0,1,0,.89c0,3.64,0,7.29.1,10.92.09,2.54.72,5.09.54,7.6-.14,2.05.15,4.05.06,6.07a8.87,8.87,0,0,0,1.77,5.15c.7,1.1,2.16,1.08,3.3.38,1-.62,1.46-1.92,3-1.86,3,.12,6,0,9.07-.06.87,0,1.15.43,1.09,1.22Zm46.76-80.4c1,.31,1.71-.27,1.72-1.34a3.19,3.19,0,0,0-1.61-3,35.26,35.26,0,0,0-10.3-3.41c-.89-.14-1.88-.17-2.16.7s.41,1.58,1.35,2A42.84,42.84,0,0,1,89,48.13C90,48.81,91.08,49.77,92.65,49.57ZM114.57,33.4c-.15-.72.09-2.23-1.51-1.52a4,4,0,0,0-2.19,2.17c-.82,2.2-1.86,4.31-2.56,6.56-.42,1.37-.38,2.6,1,3.24s2.43-.22,3-1.44A21.64,21.64,0,0,0,114.57,33.4Zm-14.45,5.45c.46-2.42-1.13-3.79-1.72-5.51a4.38,4.38,0,0,0-2.19-2.85c-.57-.28-1.13-.59-1.64-.1s-.89,1.4-.41,1.93.18.79.3,1.15c.92,2.81,1.8,5.65,3,8.36C98,43.19,99.18,43,100,41.64,100.72,40.57,99.9,39.53,100.12,38.85Zm20,11A16,16,0,0,0,125.72,48a30.71,30.71,0,0,0,6-3.86c.38-.37,1-.71.7-1.28a1.22,1.22,0,0,0-1.46-.45c-2,.72-4.17,1.08-6.07,2.37-1.69,1.14-3.18,2.68-5.22,3.3a1.25,1.25,0,0,0-.84,1.41C118.91,50.24,119.55,50,120.09,49.87Z"></path><path class="cls-2" d="M45.89,130l.12-1.58c.06-.79-.22-1.23-1.09-1.22-3,0-6.05.18-9.07.06-1.55-.06-2,1.24-3,1.86-1.14.7-2.6.72-3.3-.38a8.87,8.87,0,0,1-1.77-5.15c.09-2-.2-4-.06-6.07.18-2.51-.45-5.06-.54-7.6-.12-3.63-.07-7.28-.1-10.92a3.29,3.29,0,0,0,0-.89c-.93-3,.21-6.15-.29-9.1s.22-5.53,0-8.3a24.37,24.37,0,0,1,.58-5.16c.6-4.29.21-8.72,1.89-12.85a7.53,7.53,0,0,1,4.55-4.21c2.13-.81,4.44-.65,6.7-.59a80.1,80.1,0,0,0,11.38-.26,32.78,32.78,0,0,1,8,0c2,.24,3.66-.83,5.59-.48,4.73.87,9.54.59,14.29.5,3.26-.06,6.52.28,9.7.07,2.76-.19,5.51.42,8.27-.15,1.08-.22,1.27-.44,1.07-1.44-.41-2.07.61-3.88,1.39-5.64,1-2.35,3.43-2.9,5.65-3.12,4.15-.41,8.35,3.09,9.17,7.26.17.86-.32,2.15.47,2.5,1,.46,2.34.23,3.51.42,1.58.26,3.23-.77,4.78.31.34.23.71.34.94.74,2.45,4.42,6.09,8.22,7.44,13.19.67,2.49,2.63,4.08,3.48,6.35a1,1,0,0,0,1,.6c3.92.16,7.84.85,11.74.47,2.33-.23,4.59.45,6.94-.06,1.68-.37,3,1.47,2.49,3.23a6,6,0,0,0,.16,2.94c.71,3.84,1.22,7.72,2,11.55.7,3.52.49,7.1.68,10.63.17,3.17.38,6.38.37,9.57a4.62,4.62,0,0,1-1.5,3.71,1.84,1.84,0,0,0-.69,1.42c0,1.55-1,1.92-2.23,2.56-3.7,1.92-7.8,1.1-11.62,2a5,5,0,0,1-1.23,0c-2.78-.11-3,0-3.69,2.68a20.12,20.12,0,0,1-2.56,5.47c-.5.84-1.38.9-2.06,1.36a14.77,14.77,0,0,1-12.61,2.11c-.58-.16-2.28,0-1.53-1.72.18-.42-.76-.65-.9-.47-.94,1.27-1.75.15-2.15-.3-1.71-1.9-3.35-3.89-3.43-6.68a13.77,13.77,0,0,0-.49-2.43c-.16-.78-.72-.78-1.37-.79-3.2-.08-6.41.55-9.6-.15-.61-.14-1.08.37-1.74.25-1.52-.28-3.09,0-4.65-.15a44.88,44.88,0,0,0-5,.19c-3.24.1-6.45.59-9.7.57-2.18,0-4.38.66-6.62.55-.76,0-1,.5-1.06,1.17-.47,3.11-1.32,6.08-3.72,8.31-3.81,3.52-8.16,5.66-13.52,5.05-2.27-.25-4.65-.36-6.42-1.94C48,137.3,45.58,134.3,45.89,130Zm-1.19-8.24,4.15-.44a1.4,1.4,0,0,0,1-.67c1.21-1.7,3.16-2.32,4.9-3.12,4.86-2.23,9.75-1.87,14.57.29a4.18,4.18,0,0,1,1.71,1.4c2.09,2.71,1,2.72,4.43,1.82a5.64,5.64,0,0,1,2.48-.12c2.43.43,4.79-.32,7.2-.35,3.45,0,6.9-.42,10.33-.78,2.19-.23,4.3.58,6.47.33,3.91-.43,7.81-1,11.76-.21a4.26,4.26,0,0,0,4.44-1.71,15.71,15.71,0,0,1,8-5.06c2.37-.69,4.37,0,6.39.49a7.36,7.36,0,0,1,5.8,4.93c.44,1.37,1.32,1.73,2.71,1.81,2.5.13,5-.71,7.47,0,1.75.49,3.43-.21,5.14-.1.61.05,1.11-.56,1-.82-.79-1.42.26-2.77,0-4.14-.57-2.94.08-6-.43-8.82s.19-5.68-.1-8.55c-.4-4,.27-8,.71-12.06a2.47,2.47,0,0,0-2.89-3A61,61,0,0,1,141,83c-6.47-.28-12.9-.76-19.39,0a79.93,79.93,0,0,1-10.51.31c-5.57-.13-11.15.12-16.73-.33-1.31-.11-2.79-.37-4,.35-1.6.94-2,0-2.26-1.27s-.27-2.8-.46-4.19a22.47,22.47,0,0,1-.56-3.33c.06-3.42-.75-6.83,0-10.25.2-.84-.16-1.15-1.06-1.12-5.43.18-10.89.1-16.3.52-3.57.28-7.12-.11-10.68.24a13.34,13.34,0,0,1-3.85.15c-4.4-.78-8.93,0-13.31-1.29-2-.59-4.19.42-6.24.29-1.44-.09-2,.31-2.35,1.49a15.72,15.72,0,0,0-.63,4.41c-.1,3.37-.29,6.75-.06,10.1.13,1.94,0,3.86,0,5.77,0,1.59.48,3.1.38,4.62-.34,4.86.2,9.71.11,14.57a26.87,26.87,0,0,0,.23,5.77c.74,3.44.14,6.85.52,10.26.27,2.43.29,2.88,2.76,2.51A68.84,68.84,0,0,1,44.7,121.73ZM93.19,62.48c-2.18,0-2.12.16-1.93,2.15.3,3,1.62,5.9,1.21,9-.24,1.92-.4,3.86-.7,5.78-.15.89,0,1.14.94,1.44s1.68-.37,2.52-.42c2.87-.16,5.73-.41,8.6-.57,3.4-.18,6.8-.37,10.2-.44,4.62-.09,9.25-.08,13.87-.06.65,0,1.32-.06.79-.75-1.3-1.73-1.43-4-2.67-5.66-2.18-2.94-3.49-6.3-5-9.56-.44-.93-.89-1.26-1.76-1.26-2.5,0-5-.08-7.49,0-3.23.12-6.49.73-9.68.47C99.06,62.37,96.06,63,93.19,62.48ZM58.88,136.05a11.72,11.72,0,0,0,7.32-2.16c2.76-2.17,3.47-5.24,2.34-8.65-.5-1.52-4.09-4.86-5.33-4.43-1.82.65-3.5-.43-5.5.45a9,9,0,0,0-5.33,6.49,10.28,10.28,0,0,0-.49,2.77C51.93,133.37,55.78,136.31,58.88,136.05Zm70.49-1.72c1.43,0,2.82-1.88,4.19-3.82,2.91-4.08,2.42-7.89-1.47-11-1.81-1.44-6-1.69-8-.45-2.49,1.56-4.28,3.62-4,6.75a17.26,17.26,0,0,0,.23,3.05C121.13,131.88,124,134.32,129.37,134.33ZM112.28,57.41a12,12,0,0,0-.28-1.78c-.74-2.47-2.46-4.1-4.76-3.9-3.52.29-4.59,1.66-5.25,4.87-.08.42-.42,1.18.62,1C105.8,57.19,109,57.71,112.28,57.41Z"></path><path class="cls-2" d="M92.65,49.57c-1.57.2-2.68-.76-3.69-1.44a42.84,42.84,0,0,0-7.31-3.62c-.94-.42-1.65-1.07-1.35-2s1.27-.84,2.16-.7a35.26,35.26,0,0,1,10.3,3.41,3.19,3.19,0,0,1,1.61,3C94.36,49.3,93.7,49.88,92.65,49.57Z"></path><path class="cls-2" d="M114.57,33.4a21.64,21.64,0,0,1-2.25,9c-.61,1.22-1.62,2.13-3,1.44s-1.39-1.87-1-3.24c.7-2.25,1.74-4.36,2.56-6.56a4,4,0,0,1,2.19-2.17C114.66,31.17,114.42,32.68,114.57,33.4Z"></path><path class="cls-2" d="M100.12,38.85c-.22.68.6,1.72-.09,2.79-.85,1.31-2,1.55-2.59.19-1.18-2.71-2.06-5.55-3-8.36-.12-.36.09-.7-.3-1.15s-.12-1.41.41-1.93,1.07-.18,1.64.1a4.38,4.38,0,0,1,2.19,2.85C99,35.06,100.58,36.43,100.12,38.85Z"></path><path class="cls-2" d="M120.09,49.87c-.54.15-1.18.37-1.3-.42a1.25,1.25,0,0,1,.84-1.41c2-.62,3.53-2.16,5.22-3.3,1.9-1.29,4-1.65,6.07-2.37a1.22,1.22,0,0,1,1.46.45c.31.57-.32.91-.7,1.28a30.71,30.71,0,0,1-6,3.86A16,16,0,0,1,120.09,49.87Z"></path><path class="cls-3" d="M44.7,121.73a68.84,68.84,0,0,0-8.12.76c-2.47.37-2.49-.08-2.76-2.51-.38-3.41.22-6.82-.52-10.26a26.87,26.87,0,0,1-.23-5.77c.09-4.86-.45-9.71-.11-14.57.1-1.52-.42-3-.38-4.62,0-1.91.17-3.83,0-5.77-.23-3.35,0-6.73.06-10.1a15.72,15.72,0,0,1,.63-4.41c.38-1.18.91-1.58,2.35-1.49,2.05.13,4.2-.88,6.24-.29,4.38,1.28,8.91.51,13.31,1.29a13.34,13.34,0,0,0,3.85-.15c3.56-.35,7.11,0,10.68-.24,5.41-.42,10.87-.34,16.3-.52.9,0,1.26.28,1.06,1.12-.79,3.42,0,6.83,0,10.25a22.47,22.47,0,0,0,.56,3.33c.19,1.39.24,2.81.46,4.19s.66,2.21,2.26,1.27c1.23-.72,2.71-.46,4-.35,5.58.45,11.16.2,16.73.33a79.93,79.93,0,0,0,10.51-.31c6.49-.72,12.92-.24,19.39,0a61,61,0,0,0,10.89-.12,2.47,2.47,0,0,1,2.89,3c-.44,4-1.11,8.08-.71,12.06.29,2.87-.42,5.64.1,8.55s-.14,5.88.43,8.82c.26,1.37-.79,2.72,0,4.14.15.26-.35.87-1,.82-1.71-.11-3.39.59-5.14.1-2.47-.68-5,.16-7.47,0-1.39-.08-2.27-.44-2.71-1.81a7.36,7.36,0,0,0-5.8-4.93c-2-.44-4-1.18-6.39-.49a15.71,15.71,0,0,0-8,5.06,4.26,4.26,0,0,1-4.44,1.71c-4-.76-7.85-.22-11.76.21-2.17.25-4.28-.56-6.47-.33-3.43.36-6.88.74-10.33.78-2.41,0-4.77.78-7.2.35a5.64,5.64,0,0,0-2.48.12c-3.41.9-2.34.89-4.43-1.82a4.18,4.18,0,0,0-1.71-1.4c-4.82-2.16-9.71-2.52-14.57-.29-1.74.8-3.69,1.42-4.9,3.12a1.4,1.4,0,0,1-1,.67Zm15-51.34c-1.37.12-2.73.27-4.11.35-2.3.13-3.19,1.26-2.8,3.52a15.93,15.93,0,0,1,.67,3.07,15.06,15.06,0,0,0,.2,4.4c.32,1.52-.2,2.12-1.69,2a36,36,0,0,0-7.26-.22c-2.28.22-3,1-2.59,3.3.38,2.17.23,4.37.86,6.57s.81,3,3.18,3.15a31,31,0,0,0,6.31-.38c1.24-.2,1.25.07,1.2,1.12-.25,4.52-1,9.06.2,13.57.44,1.68,2.76,2.94,4.29,2.2a19,19,0,0,1,7.22-2.11c.4,0,.62-.29.88-.56a3.57,3.57,0,0,0,1-3.31c-.54-2.77,0-5.6-.6-8.35-.22-1,.08-1.51,1.2-1.33a11.64,11.64,0,0,0,5.43-.54c2-.63,4.26-1,4.74-3.67.52-2.92-.23-5.63-1.21-8.33a1.91,1.91,0,0,0-2.07-1.39c-1.25.13-2.46-.38-3.67-.16-1.8.32-3.33.52-2.77-2.14,0-.16-.11-.34-.16-.51-.31-1.07.15-2.41-1.13-3.13.59-1,.15-2,.1-2.94-.1-1.93-1.31-3.75-2.58-3.8C62.91,70.66,61.33,70.18,59.71,70.39Z"></path><path class="cls-3" d="M93.19,62.48c2.87.53,5.87-.11,8.89.14,3.19.26,6.45-.35,9.68-.47,2.49-.09,5,0,7.49,0,.87,0,1.32.33,1.76,1.26,1.52,3.26,2.83,6.62,5,9.56,1.24,1.67,1.37,3.93,2.67,5.66.53.69-.14.75-.79.75-4.62,0-9.25,0-13.87.06-3.4.07-6.8.26-10.2.44-2.87.16-5.73.41-8.6.57-.84,0-1.48.75-2.52.42s-1.09-.55-.94-1.44c.3-1.92.46-3.86.7-5.78.41-3.11-.91-6-1.21-9C91.07,62.64,91,62.5,93.19,62.48Z"></path><path class="cls-3" d="M58.88,136.05c-3.1.26-7-2.68-7-5.53a10.28,10.28,0,0,1,.49-2.77,9,9,0,0,1,5.33-6.49c2-.88,3.68.2,5.5-.45,1.24-.43,4.83,2.91,5.33,4.43,1.13,3.41.42,6.48-2.34,8.65A11.72,11.72,0,0,1,58.88,136.05Z"></path><path class="cls-3" d="M129.37,134.33c-5.35,0-8.24-2.45-9-5.46a17.26,17.26,0,0,1-.23-3.05c-.27-3.13,1.52-5.19,4-6.75,2-1.24,6.17-1,8,.45,3.89,3.1,4.38,6.91,1.47,11C132.19,132.45,130.8,134.31,129.37,134.33Z"></path><path class="cls-3" d="M112.28,57.41c-3.26.3-6.48-.22-9.67.22-1,.15-.7-.61-.62-1,.66-3.21,1.73-4.58,5.25-4.87,2.3-.2,4,1.43,4.76,3.9A12,12,0,0,1,112.28,57.41Z"></path><path class="cls-2" d="M59.71,70.39c1.62-.21,3.2.27,4.8.34,1.27,0,2.48,1.87,2.58,3.8,0,1,.49,2-.1,2.94,1.28.72.82,2.06,1.13,3.13,0,.17.19.35.16.51-.56,2.66,1,2.46,2.77,2.14,1.21-.22,2.42.29,3.67.16a1.91,1.91,0,0,1,2.07,1.39c1,2.7,1.73,5.41,1.21,8.33-.48,2.68-2.72,3-4.74,3.67a11.64,11.64,0,0,1-5.43.54c-1.12-.18-1.42.36-1.2,1.33.63,2.75.06,5.58.6,8.35a3.57,3.57,0,0,1-1,3.31c-.26.27-.48.54-.88.56A19,19,0,0,0,58.17,113c-1.53.74-3.85-.52-4.29-2.2-1.16-4.51-.45-9-.2-13.57,0-1,0-1.32-1.2-1.12a31,31,0,0,1-6.31.38c-2.37-.1-2.52-.86-3.18-3.15s-.48-4.4-.86-6.57c-.4-2.34.31-3.08,2.59-3.3a36,36,0,0,1,7.26.22c1.49.16,2-.44,1.69-2a15.06,15.06,0,0,1-.2-4.4,15.93,15.93,0,0,0-.67-3.07c-.39-2.26.5-3.39,2.8-3.52C57,70.66,58.34,70.51,59.71,70.39Zm-4.1,3.3c.68,1.21.49,2.46,1,3.46a12.12,12.12,0,0,1,.44,9c-.27.91-1.43,2.12-2.26.85-1.2-1.82-3.09-1.29-4.07-1-1.56.54-3.59,0-4.62,1.24s.24,3.22-.22,4.87c-.18.64.11,1.09.89.76,2-.89,4.14-.32,6.19-.22,1.29.06,3.26-.29,3.65,1.71a23.49,23.49,0,0,1,.68,2.76c.13,3.36,1.54,6.6.9,10-.11.59-.29,1.37.49,1.5,1.25.21,2.54-.16,3.82.13.37.09.31-.36.3-.67a32.62,32.62,0,0,1,.23-6.55c.34-2.28.66-4.57,1-6.85.14-.91.51-1.28,1.61-1a14.26,14.26,0,0,0,5.37,0,4.23,4.23,0,0,1,2.62.11c1.09.63,1.05-.17.91-.68a13.89,13.89,0,0,1,.2-6.72c.1-.46.19-1.41-.21-1.43-1.07-.08-2.51-.43-3.17,0-1.63,1-3.5,0-5.16,1.26-1.11.8-2.41-.8-2.54-3-.19-3.09-.41-6.18-.54-9.27,0-.65,0-1.13-.83-.85C60.21,73.85,58.05,73.66,55.61,73.69Z"></path><path d="M55.61,73.69c2.44,0,4.6.16,6.68-.54.85-.28.8.2.83.85.13,3.09.35,6.18.54,9.27.13,2.17,1.43,3.77,2.54,3C67.86,85,69.73,86,71.36,85c.66-.41,2.1-.06,3.17,0,.4,0,.31,1,.21,1.43a13.89,13.89,0,0,0-.2,6.72c.14.51.18,1.31-.91.68A4.23,4.23,0,0,0,71,93.72a14.26,14.26,0,0,1-5.37,0c-1.1-.28-1.47.09-1.61,1-.37,2.28-.69,4.57-1,6.85a32.62,32.62,0,0,0-.23,6.55c0,.31.07.76-.3.67-1.28-.29-2.57.08-3.82-.13-.78-.13-.6-.91-.49-1.5.64-3.41-.77-6.65-.9-10a23.49,23.49,0,0,0-.68-2.76c-.39-2-2.36-1.65-3.65-1.71-2-.1-4.17-.67-6.19.22-.78.33-1.07-.12-.89-.76.46-1.65-.9-3.57.22-4.87s3.06-.7,4.62-1.24c1-.33,2.87-.86,4.07,1,.83,1.27,2,.06,2.26-.85a12.12,12.12,0,0,0-.44-9C56.1,76.15,56.29,74.9,55.61,73.69Z"></path></svg>