<svg xmlns="http://www.w3.org/2000/svg" id="Layer_1" data-name="Layer 1" viewBox="0 0 181 181"><defs><style>.cls-1{fill:#fcfdff;}.cls-2{fill:#1c1c1c;}.cls-3{fill:#4e4e4d;}</style></defs><path class="cls-1" d="M0,181Q0,91.32,0,1.66C0,.31.3,0,1.66,0Q90.51.06,179.34,0c1.35,0,1.66.3,1.66,1.66q-.06,88.85,0,177.68c0,1.35-.3,1.66-1.66,1.66Q89.68,180.94,0,181Zm125.74-145c-.36,0-.73.08-.64.61-1.48,2.21-1.54,2.62.15,4.75,1,1.31.78,3.11,1.88,4.38.31.35-.19.76-.41,1.1s-.7.83-1,1.29c-1.84,3.06-3.75,6.09-5.44,9.23-1.11,2.06-2.64,3.89-3.62,5.93a152.77,152.77,0,0,1-8.85,15c-1.94,3.07-3.31,6.51-5.85,9.2-.15.15-.16.44-.24.66-1.16,3-3.11,5.63-4.66,8.41-1.64,3-4.08,5.5-5.25,8.81a1.19,1.19,0,0,1-1.36.92c-2.55-.58-5.08-.18-7.64-.08a49,49,0,0,1-9.62-.19c-1.89-.31-3.53.47-5.37.32-1.31-.11-2.46-.77-3.84-.64-4.2.41-8.42-.24-12.64,0-2.16.13-4.31,0-6.5.17a38.37,38.37,0,0,1-6-.38,38.89,38.89,0,0,0-8.5.43c-1.8.25-3.5,1.83-3.2,3.16.63,2.73-.59,5.36-.09,8.11a48.3,48.3,0,0,0,2.41,9.19,41.47,41.47,0,0,0,4,7.57c1.36,2,2.26,4.41,3.81,6.27a68.14,68.14,0,0,0,8.41,8.92,46,46,0,0,0,8.87,6.33,51.44,51.44,0,0,0,6.76,3.27c3.27,1.05,6.4,2.49,9.79,3.31,3.59.87,7.25,1.05,10.83,1.75,3.06.6,6.06.22,9-.06a51.29,51.29,0,0,0,10.7-1.95,57.68,57.68,0,0,0,7.83-2.82c1.44-.68,2.78-1.73,4.25-2.13a17.57,17.57,0,0,0,6.43-3.48c3-2.46,6.24-4.66,8.93-7.64,3.85-4.25,8-8.16,10.64-13.38a80,80,0,0,0,5.1-12.91,49.78,49.78,0,0,1,2.31-6.89c1.54-3.21.27-4.83-2.67-5.58-3.71-1-7.51.42-11.33-.27a16.62,16.62,0,0,0-4.46.17c-.77.09-1.27.11-.85-1.18a49.48,49.48,0,0,1,2.33-5.94c.82-1.74.6-3.79,1.71-5.32s1.61-3.63,2.42-5.4c.72-1.59,1-3.61,1.56-5.39,1-3.09,2.14-6.18,3.46-9.15.75-1.7.52-3.62,1.57-5.2a4.85,4.85,0,0,0,.92-1.9c.33-3.26,1.83-6.23,2.3-9.46.16-1.11.24-2.76,2.31-2.14.42.13,1-.21,1.5-.48,1.4-.86,3-.84,4.54-1.12,2.61-.48,3.85-1.76,3.63-4.15-.3-3.25-1.89-5.28-4.44-4.69a.86.86,0,0,1-.92-.33c-2.81-2.79-6.85-3.32-10.05-5.45-1.33-.89-3.08-1.09-4.2-2.44a1.48,1.48,0,0,0-1.55-.7l-2.05-.77L132,35c-.22-.34-.5-.51-.9-.26h-1.79a1.77,1.77,0,0,0-2.18.35h0c-.55.09-1.15.06-1.29.8ZM36.52,65.74h0c.94.64,1.14,1.92,2.17,2.48a9.6,9.6,0,0,0,2.13,2.23A3.63,3.63,0,0,0,42.24,72l2.37,1.88.93.57c1.88,2.17,4.54,3.32,6.92,4.65C56.6,81.4,60.69,84,65.68,84.45c2.72.26,4.19-.58,4.13-3.32,0-.34.19-.54.26-.81.87-3.49,2.06-6.93,1.77-10.62-.13-1.71.44-3.5-.24-5.14a51.55,51.55,0,0,0-7.47-13.28A32.39,32.39,0,0,0,53.5,43.09c-4-2-8.29-3.35-12.43-5a4.48,4.48,0,0,0-2.93-.46c-.74.19-1.19-.27-1.65-.72-.64-.68-1.44-.48-2.22-.41l-.45-.1c-1.5-.86-3-1.48-4.62-.27-.3.09-.37.33-.39.6-.69,1.72.07,3.31.43,4.94v1c-.36.41-.13.74.13,1.08l.14.69a22.32,22.32,0,0,0,.26,4.24c.19,2.3,1.47,4.29,1.79,6.56.07.55-.53,1.18.17,1.64.67.66.14,1.77.91,2.4l.27.32.17.37c-.09.69.39,1.08.8,1.51a2.35,2.35,0,0,0,.51,1.4C35.4,63.59,35.41,65.08,36.52,65.74Zm26.69-54.6a.26.26,0,0,0-.43,0,1.61,1.61,0,0,0-1.34.5L61,11.9a.22.22,0,0,0-.25.12.33.33,0,0,0-.4.28l-.32.18c-.19-.05-.28,0-.21.21-.13.88-1.5,1-1.3,2.07-.41.47,0,1.06-.23,1.55a.2.2,0,0,0-.12.27c-.37.45-.84.86-.55,1.54l-.13.69c-.26.12-.37.29-.18.55l.11.42a6.58,6.58,0,0,0-.23,4.44,1.41,1.41,0,0,0,.41,1.06,6,6,0,0,0,1,2.57,3,3,0,0,0,1.36,1.47c.39.53.74,1.13,1.54,1.07h.68c.8,1.39,2.07.95,3.25.81.4.15.8.31,1.09-.19l.44-.25a5.52,5.52,0,0,0,3.66-1.38c3.94-3.35,6.11-7.51,3.6-13.32-.47-1.08-1.41-1.15-2-1.84C69.82,11.39,66.89,10.14,63.21,11.14ZM87.68,36.72c-.25.22-.16.41.07.59-.11.92-1.08,1.71-.43,2.75a2.62,2.62,0,0,0,.24,2.22,1.7,1.7,0,0,0-.46,1.64c.5,3.13,1,6.27,1.42,9.42.49,4,2.87,5.51,6.49,3.68a91.3,91.3,0,0,0,9.89-5.84,25.48,25.48,0,0,0,7.3-7.82,45.81,45.81,0,0,0,5.55-14.14c1-4.13,1.28-8.38,2.51-12.45a17,17,0,0,0,.65-3.47c.12-1.4-.76-2.27-1.85-2.06-2,.37-4.11.39-6,1.25-4.36,1.94-8.68,3.83-12.22,7.26-2.21,2.14-5.21,3.35-7.35,5.76-1.67,1.89-3.65,3.47-4.35,6C88.64,33.27,88.16,35,87.68,36.72ZM85.4,79a3.06,3.06,0,0,0,.29,1.77c1.34,3.52,5,5.73,9.91,3.34,1.29-.63,2.64-1.31,3-2.83.28-1.13,0-2.28.62-3.5.44-.8-.09-2.36-.75-3.4-1.81-2.84-4.74-3-7.67-3.12a3.51,3.51,0,0,0-3,1.4A10.69,10.69,0,0,0,85.4,79Z"></path><path class="cls-2" d="M132,35l.87.65c-.11,2.39,1.27.79,2.05.77a1.48,1.48,0,0,1,1.55.7c1.12,1.35,2.87,1.55,4.2,2.44,3.2,2.13,7.24,2.66,10.05,5.45a.86.86,0,0,0,.92.33c2.55-.59,4.14,1.44,4.44,4.69.22,2.39-1,3.67-3.63,4.15-1.52.28-3.14.26-4.54,1.12-.45.27-1.08.61-1.5.48-2.07-.62-2.15,1-2.31,2.14-.47,3.23-2,6.2-2.3,9.46a4.85,4.85,0,0,1-.92,1.9c-1.05,1.58-.82,3.5-1.57,5.2-1.32,3-2.42,6.06-3.46,9.15-.59,1.78-.84,3.8-1.56,5.39-.81,1.77-1.22,3.76-2.42,5.4S131,98,130.18,99.69a49.48,49.48,0,0,0-2.33,5.94c-.42,1.29.08,1.27.85,1.18a16.62,16.62,0,0,1,4.46-.17c3.82.69,7.62-.68,11.33.27,2.94.75,4.21,2.37,2.67,5.58a49.78,49.78,0,0,0-2.31,6.89,80,80,0,0,1-5.1,12.91c-2.67,5.22-6.79,9.13-10.64,13.38-2.69,3-5.9,5.18-8.93,7.64a17.57,17.57,0,0,1-6.43,3.48c-1.47.4-2.81,1.45-4.25,2.13a57.68,57.68,0,0,1-7.83,2.82A51.29,51.29,0,0,1,91,163.69c-3,.28-6,.66-9,.06-3.58-.7-7.24-.88-10.83-1.75-3.39-.82-6.52-2.26-9.79-3.31a51.44,51.44,0,0,1-6.76-3.27,46,46,0,0,1-8.87-6.33,68.14,68.14,0,0,1-8.41-8.92c-1.55-1.86-2.45-4.24-3.81-6.27a41.47,41.47,0,0,1-4-7.57,48.3,48.3,0,0,1-2.41-9.19c-.5-2.75.72-5.38.09-8.11-.3-1.33,1.4-2.91,3.2-3.16a38.89,38.89,0,0,1,8.5-.43,38.37,38.37,0,0,0,6,.38c2.19-.21,4.34,0,6.5-.17,4.22-.26,8.44.39,12.64,0,1.38-.13,2.53.53,3.84.64,1.84.15,3.48-.63,5.37-.32a49,49,0,0,0,9.62.19c2.56-.1,5.09-.5,7.64.08a1.19,1.19,0,0,0,1.36-.92c1.17-3.31,3.61-5.86,5.25-8.81,1.55-2.78,3.5-5.4,4.66-8.41.08-.22.09-.51.24-.66,2.54-2.69,3.91-6.13,5.85-9.2a152.77,152.77,0,0,0,8.85-15c1-2,2.51-3.87,3.62-5.93,1.69-3.14,3.6-6.17,5.44-9.23.27-.46.66-.85,1-1.29s.72-.75.41-1.1c-1.1-1.27-.84-3.07-1.88-4.38-1.69-2.13-1.63-2.54-.15-4.75a.64.64,0,0,0,.64-.61l.09-.09c.61-.29.92.63,1.6.42l-.31-1.22h0a5.08,5.08,0,0,0,2.18-.35h1.79A.64.64,0,0,0,132,35ZM129,51.24c-.95-.45-2.07-.75-2.44.47-.22.74-.71,2.35,1.24,2.17.35.54-.09.89-.33,1.29a28.94,28.94,0,0,0-2.35,3.95c-.69,1.73-2,3-2.86,4.59-1.82,3.26-4.31,6.06-6,9.45-1.28,2.61-3,5-4.49,7.52-.5.81-.84,1.83-2,2.08,1,1.32-.48,1.93-.86,2.82-1.88,4.32-4.76,8.07-7.14,12.1-1.44,2.42-2.29,5.35-4.66,7.25-.81.64-.45,1.25.57,1.28,3.08.08,6.16.14,9.24.26,4.46.18,8.94.31,13.41.22,1.06,0,1.94-.4,1.89-2-.09-2.57,1-5,1.78-7.37,1-2.94,1.79-6,3-8.86s2.06-6.25,3.09-9.37A129.25,129.25,0,0,1,135,66.62c1.67-3.75,2.64-7.87,4.59-11.55.67-1.27.2-1.71-.72-2.23-2-1.15-4-2.28-6-3.42a1.47,1.47,0,0,0-2,.26C130.27,50.22,130.17,51.48,129,51.24Zm10.88,63.26c.06-.34-.18-.47-.9-.57-1.62-.22-3.23.13-4.81-.11-3.82-.59-7.66.08-11.46-.33-2.08-.23-4.06.44-6.16.3s-4.42-.67-6.63-.47c-4.07.36-8.15,0-12.23.26-3.18.24-6.37-.43-9.61-.25-1.7.09-3.62.69-5.35-.34a1.51,1.51,0,0,0-1,0c-4.13,1-8.32.07-12.49.35a41.46,41.46,0,0,1-8.17-.21,9.79,9.79,0,0,0-2.94-.23,14.71,14.71,0,0,1-6.64.24c-3.37-.8-6.91.16-10.35-.25-2.78-.33-5.63.55-8.38-.46-.36-.13-.85-.35-1.19,0s0,.76.15,1.15c1,3.13,3,5.82,3.57,9.08a6.24,6.24,0,0,0,1.21,2.71c1.75,2.43,3,5.15,4.76,7.64,1.82,2.66,3.62,5.44,6,7.44s4.44,4.36,7.07,6.11a49,49,0,0,0,8.74,5c3.7,1.48,7.35,3,11.42,3.64,3.32.5,6.54,1.37,10,1.43a43.57,43.57,0,0,0,7.12-.15,69.12,69.12,0,0,0,16.75-4.67,45,45,0,0,0,12.87-7.83c.59-.52,1.65-.16,1.92-1.11.54-1.95,2.12-3,3.62-4a4,4,0,0,0,1.18-1.07c2.17-3.34,5-6.13,6.88-9.8a128,128,0,0,0,4.93-12.14A6.47,6.47,0,0,0,139.83,114.5Zm-11.24-75a2.81,2.81,0,0,0,1.53,2.32c2.89,1.24,5.42,3.12,8.3,4.46C142,48,146,49.13,149,52c.56.51,1.64.44,2.45.57.6.1.39-1.05.83-1.6.64-.8-.73-3.1-1.71-3-2.52.18-4.73-.7-7-1.7a20.14,20.14,0,0,1-6.1-4c-2.16-2.1-4.46-3.88-7.62-4.15C129,38,128.43,38.21,128.59,39.52Z"></path><path class="cls-2" d="M87.32,40.06c-.65-1,.32-1.83.43-2.75l-.07-.59c.48-1.73,1-3.45,1.43-5.18.7-2.56,2.68-4.14,4.35-6,2.14-2.41,5.14-3.62,7.35-5.76,3.54-3.43,7.86-5.32,12.22-7.26,1.92-.86,4-.88,6-1.25,1.09-.21,2,.66,1.85,2.06a17,17,0,0,1-.65,3.47c-1.23,4.07-1.55,8.32-2.51,12.45a45.81,45.81,0,0,1-5.55,14.14,25.48,25.48,0,0,1-7.3,7.82A91.3,91.3,0,0,1,95,57c-3.62,1.83-6,.33-6.49-3.68-.38-3.15-.92-6.29-1.42-9.42a1.7,1.7,0,0,1,.46-1.64A1.25,1.25,0,0,0,88.94,41C88.93,40.14,88.08,40,87.32,40.06Zm22-20.84c.74-.87-.17-1.13-.61-1.25-1.07-.28-.48.75-.75,1.13a1.48,1.48,0,0,1-.77,1.48,25.53,25.53,0,0,0-2.65,1.78c-2.33,1.91-4.57,3.93-6.9,5.84a15.09,15.09,0,0,0-5.83,11.9c0,1.45.22,3-.47,4.37-.2.39-1.1.52-.37,1.17s1.07.19,1.62-.35c1.24-1.25,1.43-3,2.25-4.43,2.57-4.53,5.35-8.92,8.15-13.31A94.06,94.06,0,0,1,109.34,19.22Zm7.31-4.44c-.35-.12-.74-.56-1,.16s-.5,1.77-1.7,1.76c-.09,0-.28.28-.26.39.55,2.28-1.27,3.57-2.34,5-2.71,3.6-5.51,7.09-7.48,11.2-2.3,4.8-4.87,9.48-7.23,14.26-.31.62-1.25,1.38-.62,2.06.81.89,1.2-.58,1.91-.67a1.35,1.35,0,0,0,.48-.24c1.41-.94,3.47-1.31,4.34-2.49,2.63-3.59,6.43-6.43,7.7-10.93.49-1.77,2.11-2.74,2.52-4.6,1-4.46,2.31-8.84,3.5-13.26.35.1.83.17.89-.24.09-.57-.41-.6-.85-.57l.18-.63C117.32,15.54,117.29,15.14,116.65,14.78Zm-5.21,3.16a.58.58,0,0,0-.61-.51c-.46,0-.62.27-.56.68a.59.59,0,0,0,.57.56C111.3,18.66,111.32,18.24,111.44,17.94Z"></path><path class="cls-2" d="M44.61,73.86,42.24,72c.15-1.08-.3-1.61-1.41-1.52a9.6,9.6,0,0,1-2.13-2.23c-.25-1.25-.34-2.62-2.17-2.48h0c-.59-1-.07-2.92-2.12-2.89a2.35,2.35,0,0,1-.51-1.4c.8-.2.82-.83.82-1.47l.09-.09a4.19,4.19,0,0,1,.9.82c2.3,3.74,5.72,6.35,9.24,8.78,2.73,1.88,5.84,3.28,8.61,5.06,3.75,2.4,8,3.27,11.9,5.24.88.45,1.25,0,1.41-1.09.49-3.22-.28-6.35-.51-9.51a17,17,0,0,0-1.89-5.89c-1.78-3.78-4.68-6.8-7.35-9.95a14.44,14.44,0,0,0-2.41-2.08,44.46,44.46,0,0,0-7.3-3.89c0-.48-.23-.65-.66-.86-1.24-.61-1.75.86-2.74.88-.76-.48-.92-1.41-1.79-1.93a34.91,34.91,0,0,0-9-3.5c-2.08-.56-2.05-.66-2.26,1.58,0,.18-.05.35-.08.53-.47,0-.85.52-1.38.33l-.14-.69c.55-.44.92-.84-.13-1.08v-1c-.16-1.65.28-3.34-.43-4.94,0-.27.09-.51.39-.6l4.62.27.45.1a5.64,5.64,0,0,0,2.22.41c.46.45.91.91,1.65.72a4.48,4.48,0,0,1,2.93.46c4.14,1.68,8.45,3,12.43,5a32.39,32.39,0,0,1,10.63,8.19A51.55,51.55,0,0,1,71.6,64.56c.68,1.64.11,3.43.24,5.14.29,3.69-.9,7.13-1.77,10.62-.07.27-.27.47-.26.81.06,2.74-1.41,3.58-4.13,3.32-5-.48-9.08-3-13.22-5.37-2.38-1.33-5-2.48-6.92-4.65C45.46,73.86,45.17,73.63,44.61,73.86Z"></path><path class="cls-2" d="M58.49,14.76c-.2-1.09,1.17-1.19,1.3-2.07l.21-.21.32-.18.4-.28A.22.22,0,0,1,61,11.9a.35.35,0,0,0,.47-.23,1.61,1.61,0,0,1,1.34-.5.27.27,0,0,0,.43,0c3.68-1,6.61.25,9,3.08.57.69,1.51.76,2,1.84,2.51,5.81.34,10-3.6,13.32a5.52,5.52,0,0,1-3.66,1.38.32.32,0,0,0-.44.25c-.29.5-.69.34-1.09.19-1.15,0-2.07-.94-3.25-.81h-.68c-.25-.73-.64-1.26-1.54-1.07a3,3,0,0,1-1.36-1.47c-.43-.82.94-2.31-1-2.57a1.41,1.41,0,0,1-.41-1.06c.27-.66.53-1.33,1.59-1.19-1.58-.72-1.26-2.06-1.36-3.25,0-.14-.08-.28-.11-.42l.18-.55.13-.69c.78-.3.58-.95.55-1.54a.2.2,0,0,1,.12-.27C59.41,16,58.44,15.28,58.49,14.76Zm.64,5.74c1.15,0,.76,1.06.81,1.5.46,3.78,4.58,4.54,7.29,3.2,1.09-.53,1.18-1.58,1.79-2.34A4.68,4.68,0,0,0,67.85,16c-2.18-1.46-4.25-.66-6.48-.27-1.58.27-1.71,1-1.81,2.27-.07.79.66,1.78-.44,2.39l-.59,0v.08Z"></path><path class="cls-2" d="M85.4,79a10.69,10.69,0,0,1,2.43-6.34,3.51,3.51,0,0,1,3-1.4c2.93.11,5.86.28,7.67,3.12.66,1,1.19,2.6.75,3.4-.67,1.22-.34,2.37-.62,3.5-.39,1.52-1.74,2.2-3,2.83-4.92,2.39-8.57.18-9.91-3.34A3.06,3.06,0,0,1,85.4,79Zm10.38-.46c.07-.59.3-1.27.15-1.37C94.23,76,93.22,74,91,73.55c-.59-.12-1,0-1.18.44-.68,1.51-1.48,3-1.06,4.75.52,2.18,1.52,3.19,3.55,2.84C94.72,81.16,95.85,81.06,95.78,78.51Z"></path><path class="cls-3" d="M29.52,44.41c.53.19.91-.29,1.38-.33a82.82,82.82,0,0,0,2.3,11.23c-1.18-.14-1.19.81-1.46,1.54-.7-.46-.1-1.09-.17-1.64-.32-2.27-1.6-4.26-1.79-6.56A22.32,22.32,0,0,1,29.52,44.41Z"></path><path class="cls-2" d="M31.74,56.85c.27-.73.28-1.68,1.46-1.54L34,57.09v.75c0,.8,1.12,1.14.81,2l-.09.09-1.62,0-.17-.37c0-.21-.08-.3-.27-.32C31.88,58.62,32.41,57.51,31.74,56.85Z"></path><path class="cls-3" d="M57.39,19.78c.1,1.19-.22,2.53,1.36,3.25-1.06-.14-1.32.53-1.59,1.19A6.58,6.58,0,0,1,57.39,19.78Z"></path><path class="cls-3" d="M87.32,40.06c.76-.05,1.61.08,1.62.94a1.25,1.25,0,0,1-1.38,1.28A2.62,2.62,0,0,1,87.32,40.06Z"></path><path class="cls-3" d="M33.82,36.37,29.2,36.1C30.81,34.89,32.32,35.51,33.82,36.37Z"></path><path class="cls-3" d="M28.81,36.7c.71,1.6.27,3.29.43,4.94C28.88,40,28.12,38.42,28.81,36.7Z"></path><path class="cls-3" d="M36.53,65.75c1.83-.14,1.92,1.23,2.17,2.48C37.67,67.67,37.47,66.39,36.53,65.75Z"></path><path class="cls-3" d="M34.4,62.85c2.05,0,1.53,1.84,2.12,2.89C35.41,65.08,35.4,63.59,34.4,62.85Z"></path><path class="cls-3" d="M62.12,30.39c1.18-.13,2.1.81,3.25.81C64.19,31.34,62.92,31.78,62.12,30.39Z"></path><path class="cls-3" d="M33.09,59.94l1.62,0c0,.64,0,1.27-.82,1.47C33.48,61,33,60.63,33.09,59.94Z"></path><path class="cls-3" d="M57.57,25.28c1.91.26.54,1.75,1,2.57A6,6,0,0,1,57.57,25.28Z"></path><path class="cls-3" d="M134.94,36.37c-.78,0-2.16,1.62-2.05-.77Z"></path><path class="cls-3" d="M127.15,35.05l.31,1.22c-.68.21-1-.71-1.6-.42C126,35.11,126.6,35.14,127.15,35.05Z"></path><path class="cls-3" d="M40.83,70.46c1.11-.09,1.56.44,1.41,1.52A3.63,3.63,0,0,1,40.83,70.46Z"></path><path class="cls-3" d="M59.9,29.32c.9-.19,1.29.34,1.54,1.07C60.64,30.45,60.29,29.85,59.9,29.32Z"></path><path class="cls-3" d="M129.33,34.7a5.08,5.08,0,0,1-2.18.35A1.77,1.77,0,0,1,129.33,34.7Z"></path><path class="cls-3" d="M36.49,36.88a5.64,5.64,0,0,1-2.22-.41C35.05,36.4,35.85,36.2,36.49,36.88Z"></path><path class="cls-3" d="M29.25,42.64c1.05.24.68.64.13,1.08C29.12,43.38,28.89,43.05,29.25,42.64Z"></path><path class="cls-3" d="M58.14,16.58c0,.59.23,1.24-.55,1.54C57.3,17.44,57.77,17,58.14,16.58Z"></path><path class="cls-3" d="M58.49,14.76c-.05.52.92,1.19-.23,1.55C58.54,15.82,58.08,15.23,58.49,14.76Z"></path><path class="cls-3" d="M125.77,35.94a.64.64,0,0,1-.64.61C125,36,125.41,36,125.77,35.94Z"></path><path class="cls-3" d="M132,35a.64.64,0,0,1-.9-.26C131.52,34.44,131.8,34.61,132,35Z"></path><path class="cls-3" d="M44.61,73.86c.56-.23.85,0,.93.57Z"></path><path class="cls-3" d="M32.65,59.25c.19,0,.3.11.27.32Z"></path><path class="cls-3" d="M87.68,36.72l.07.59C87.52,37.13,87.43,36.94,87.68,36.72Z"></path><path class="cls-3" d="M66.46,31a.32.32,0,0,1,.44-.25Z"></path><path class="cls-3" d="M57.46,18.81l-.18.55C57.09,19.1,57.2,18.93,57.46,18.81Z"></path><path class="cls-3" d="M60,12.48l-.21.21C59.72,12.49,59.81,12.43,60,12.48Z"></path><path class="cls-3" d="M60.72,12l-.4.28A.33.33,0,0,1,60.72,12Z"></path><path class="cls-3" d="M61.44,11.67a.35.35,0,0,1-.47.23Z"></path><path class="cls-3" d="M63.21,11.14a.27.27,0,0,1-.43,0A.26.26,0,0,1,63.21,11.14Z"></path><path class="cls-1" d="M139.83,114.5a6.47,6.47,0,0,1-.15,1.41,128,128,0,0,1-4.93,12.14c-1.85,3.67-4.71,6.46-6.88,9.8a4,4,0,0,1-1.18,1.07c-1.5,1.06-3.08,2.07-3.62,4-.27.95-1.33.59-1.92,1.11a45,45,0,0,1-12.87,7.83,69.12,69.12,0,0,1-16.75,4.67,43.57,43.57,0,0,1-7.12.15c-3.43-.06-6.65-.93-10-1.43-4.07-.6-7.72-2.16-11.42-3.64a49,49,0,0,1-8.74-5c-2.63-1.75-4.68-4.12-7.07-6.11s-4.21-4.78-6-7.44c-1.71-2.49-3-5.21-4.76-7.64a6.24,6.24,0,0,1-1.21-2.71c-.55-3.26-2.62-6-3.57-9.08-.12-.39-.49-.77-.15-1.15s.83-.16,1.19,0c2.75,1,5.6.13,8.38.46,3.44.41,7-.55,10.35.25a14.71,14.71,0,0,0,6.64-.24,9.79,9.79,0,0,1,2.94.23,41.46,41.46,0,0,0,8.17.21c4.17-.28,8.36.67,12.49-.35a1.51,1.51,0,0,1,1,0c1.73,1,3.65.43,5.35.34,3.24-.18,6.43.49,9.61.25,4.08-.3,8.16.1,12.23-.26,2.21-.2,4.42.32,6.63.47s4.08-.53,6.16-.3c3.8.41,7.64-.26,11.46.33,1.58.24,3.19-.11,4.81.11C139.65,114,139.89,114.16,139.83,114.5Z"></path><path class="cls-1" d="M129,51.24c1.22.24,1.32-1,1.89-1.56a1.47,1.47,0,0,1,2-.26c2,1.14,4,2.27,6,3.42.92.52,1.39,1,.72,2.23-2,3.68-2.92,7.8-4.59,11.55a129.25,129.25,0,0,0-4.92,12.51c-1,3.12-1.88,6.36-3.09,9.37s-2,5.92-3,8.86c-.8,2.35-1.87,4.8-1.78,7.37,0,1.56-.83,1.94-1.89,2-4.47.09-9,0-13.41-.22-3.08-.12-6.16-.18-9.24-.26-1,0-1.38-.64-.57-1.28,2.37-1.9,3.22-4.83,4.66-7.25,2.38-4,5.26-7.78,7.14-12.1.38-.89,1.84-1.5.86-2.82,1.12-.25,1.46-1.27,2-2.08,1.54-2.49,3.21-4.91,4.49-7.52,1.65-3.39,4.14-6.19,6-9.45.88-1.57,2.17-2.86,2.86-4.59a28.94,28.94,0,0,1,2.35-3.95c.24-.4.68-.75.33-1.29C128.26,53.05,128,51.87,129,51.24Z"></path><path class="cls-1" d="M128.59,39.52c-.16-1.31.37-1.52,1.25-1.45,3.16.27,5.46,2,7.62,4.15a20.14,20.14,0,0,0,6.1,4c2.27,1,4.48,1.88,7,1.7,1-.06,2.35,2.24,1.71,3-.44.55-.23,1.7-.83,1.6-.81-.13-1.89-.06-2.45-.57-3-2.83-7-4-10.57-5.66-2.88-1.34-5.41-3.22-8.3-4.46A2.81,2.81,0,0,1,128.59,39.52Z"></path><path class="cls-3" d="M129,51.24c-1,.63-.69,1.81-1.2,2.64-2,.18-1.46-1.43-1.24-2.17C126.88,50.49,128,50.79,129,51.24Z"></path><path class="cls-1" d="M116.5,17.41c-1.19,4.42-2.5,8.8-3.5,13.26-.41,1.86-2,2.83-2.52,4.6-1.27,4.5-5.07,7.34-7.7,10.93-.87,1.18-2.93,1.55-4.34,2.49a1.35,1.35,0,0,1-.48.24c-.71.09-1.1,1.56-1.91.67-.63-.68.31-1.44.62-2.06,2.36-4.78,4.93-9.46,7.23-14.26,2-4.11,4.77-7.6,7.48-11.2,1.07-1.42,2.89-2.71,2.34-5,0-.11.17-.39.26-.39,1.2,0,1.42-.91,1.7-1.76s.62-.28,1-.16l.07,1.19-.18.63A.65.65,0,0,0,116.5,17.41Z"></path><path class="cls-1" d="M109.34,19.22A94.06,94.06,0,0,0,103,27.55c-2.8,4.39-5.58,8.78-8.15,13.31-.82,1.45-1,3.18-2.25,4.43-.55.54-.93,1-1.62.35s.17-.78.37-1.17c.69-1.37.44-2.92.47-4.37a15.09,15.09,0,0,1,5.83-11.9c2.33-1.91,4.57-3.93,6.9-5.84a25.53,25.53,0,0,1,2.65-1.78A1.48,1.48,0,0,0,108,19.1C108.43,19.17,108.87,19.45,109.34,19.22Z"></path><path class="cls-3" d="M109.34,19.22c-.47.23-.91,0-1.36-.12.27-.38-.32-1.41.75-1.13C109.17,18.09,110.08,18.35,109.34,19.22Z"></path><path class="cls-3" d="M111.44,17.94c-.12.3-.14.72-.6.73a.59.59,0,0,1-.57-.56c-.06-.41.1-.68.56-.68A.58.58,0,0,1,111.44,17.94Z"></path><path class="cls-3" d="M116.5,17.41a.65.65,0,0,1,0-.81c.44,0,.94,0,.85.57C117.33,17.58,116.85,17.51,116.5,17.41Z"></path><path class="cls-3" d="M116.72,16l-.07-1.19C117.29,15.14,117.32,15.54,116.72,16Z"></path><path class="cls-1" d="M34,57.09l-.78-1.78a82.82,82.82,0,0,1-2.3-11.23c0-.18.06-.35.08-.53.21-2.24.18-2.14,2.26-1.58a34.91,34.91,0,0,1,9,3.5c.87.52,1,1.45,1.79,1.93,3,3.51,5.9,7.1,9,10.52s4.9,7.21,6.75,11.16a51.85,51.85,0,0,1,3.19,7.85c.15.5.36,1,1,.8s.43-.67.33-1.07a44.42,44.42,0,0,0-1.92-5.92c-1.15-2.89-3.52-5.08-4.71-7.86-1.12-2.6-2.87-4.68-4.41-6.92-1.81-2.63-3.9-5.06-5.89-7.57-.34-.42-.68-.77.12-1a44.46,44.46,0,0,1,7.3,3.89,14.44,14.44,0,0,1,2.41,2.08c2.67,3.15,5.57,6.17,7.35,9.95a17,17,0,0,1,1.89,5.89c.23,3.16,1,6.29.51,9.51-.16,1.1-.53,1.54-1.41,1.09-3.86-2-8.15-2.84-11.9-5.24-2.77-1.78-5.88-3.18-8.61-5.06-3.52-2.43-6.94-5-9.24-8.78a4.19,4.19,0,0,0-.9-.82c.31-.91-.84-1.25-.81-2C34.24,57.58,34.31,57.33,34,57.09Z"></path><path class="cls-3" d="M47.4,47.38c-.8.24-.46.59-.12,1,2,2.51,4.08,4.94,5.89,7.57,1.54,2.24,3.29,4.32,4.41,6.92,1.19,2.78,3.56,5,4.71,7.86a44.42,44.42,0,0,1,1.92,5.92c.1.4.21.92-.33,1.07s-.81-.3-1-.8a51.85,51.85,0,0,0-3.19-7.85c-1.85-4-3.77-7.85-6.75-11.16s-6-7-9-10.52c1,0,1.5-1.49,2.74-.88C47.17,46.73,47.42,46.9,47.4,47.38Z"></path><path class="cls-1" d="M59.12,20.43c1.1-.61.37-1.6.44-2.39.1-1.23.23-2,1.81-2.27,2.23-.39,4.3-1.19,6.48.27A4.68,4.68,0,0,1,69,22.86c-.61.76-.7,1.81-1.79,2.34-2.71,1.34-6.83.58-7.29-3.2,0-.44.34-1.5-.81-1.5Z"></path><path class="cls-3" d="M59.12,20.43v.07l-.61,0v-.08Z"></path><path class="cls-1" d="M95.78,78.51c.07,2.55-1.06,2.65-3.45,3.07-2,.35-3-.66-3.55-2.84-.42-1.79.38-3.24,1.06-4.75.22-.49.59-.56,1.18-.44,2.2.45,3.21,2.48,4.91,3.59C96.08,77.24,95.85,77.92,95.78,78.51Z"></path><path class="cls-3" d="M34,57.09c.33.24.26.49,0,.75Z"></path></svg>