<svg xmlns="http://www.w3.org/2000/svg" id="Layer_1" data-name="Layer 1" viewBox="0 0 181 181"><defs><style>.cls-1{fill:#fff;}.cls-2{fill:#1c1c1c;}.cls-3{fill:#f5f5f5;}</style></defs><path class="cls-1" d="M0,181Q0,91.32,0,1.66C0,.31.31,0,1.66,0Q90.51.06,179.34,0c1.35,0,1.66.3,1.66,1.66q-.06,88.85,0,177.68c0,1.35-.31,1.66-1.66,1.66Q89.68,180.94,0,181ZM128.54,72.3l-.06-.41c-1.17-.86-2.65-.41-3.86-.85a32,32,0,0,0-13.73-2.11,4.45,4.45,0,0,1-1.28-.34c1.67-1.67,1.65-3.55,1.45-5.58-.37.32-.32.94-.75.85-.74-.47.59-1-.25-1.42a1.08,1.08,0,0,0-1.44.3.73.73,0,0,1-.77.27c-2.09-.29-4.19-.54-6.28-.85-.82-.12-.68-.59-.72-1.35-.09-1.78.58-3.43.51-5.18-.06-1.9,0-3.8,0-5.81a12.13,12.13,0,0,0,4.11.8c3.56-.06,7.08.65,10.6.93,2.9.23,5.8-.33,8.71.26,1.72.35,3.7-.11,5.46.06,3.74.35,7.42-.66,11.19,0,1.32.22,3.07-.18,4.58-.18,2.08,0,3.93-.85,5.91-1A14.66,14.66,0,0,0,159,48.23c4.18-2.9,3.63-6.75.05-8.71a20.08,20.08,0,0,0-9.32-2c-3,0-5.88,0-8.83.2a86.44,86.44,0,0,0-10.78,1c-5.41,1-10.86,1.88-16.19,3.2-2.11.53-4.31.36-6.31,1.11s-3.83,1.13-5.69,1.85a3.43,3.43,0,0,1-1.75.19c-3.28-.46-6.58-.87-9.84-1.46-6.22-1.11-12.54-1.27-18.77-2.21-2.93-.44-5.93-.42-8.9-.58-4.09-.23-8.19-.63-12.29-.61-3,0-6.07-.68-9,.81-1.78.92-3.49,2.07-3.72,4.06-.48,4.1,1,5.85,4.89,7.57,3.36,1.51,6.84,1.75,10.35,1.82,5.7.13,11.29-1,16.9-1.89,2.09-.33,4.17-1,6.21-1.18,3.6-.31,7.2-.56,10.77-1.08,3-.43,5.9-1,8.85-1.39,1.91-.29,2.63.31,2,2.07a24,24,0,0,0-.84,4.65c-.22,1.46-1.13,3-.22,4.58-.73.35.22,2.18-1.82,1.65a30.82,30.82,0,0,0-5.16-.41,2.84,2.84,0,0,0-2,.62c-.45.43.16,1.05.5,1.52s-.07,1.12-.16,1.66c-.28,1.67-.45,3.25,1.24,4.36.52.34.12.62-.18.7-.46.12-1,0-1.43.15-3,.64-6.31.22-9.13,2.07-2.09,1.37-4.36,2.47-6.18,4.23-.78.77-1.14,2.82-2.69.73,0-.05-.32.15-.44.11A15.16,15.16,0,0,0,64.56,77a42.72,42.72,0,0,0-7.33,0c-3.72.47-7.44.46-11.15.68-3.42.21-7-.71-10.2,1.29-.65.41-.75-.26-1-.58-1.27-1.41-2.25-3-4.17-3.88A9.54,9.54,0,0,1,27.85,73c-1.59-1.81-3.76-1.79-5.53-1.75-4.8.11-8.51,2.77-11.66,6.21-1,1.05-1,2.59-1.7,3.69a10.9,10.9,0,0,0-.59,11.08c3.28,6.63,9.83,8.68,16.4,7.32a28.76,28.76,0,0,0,2.91-1.1A8.26,8.26,0,0,0,32,95.71c2.65-3.57,2.63-3.58,6.49-3.21.64.06,1.26.31,1.9.35,3.17.18,6.34-.06,9.51.33a21.1,21.1,0,0,1,3.71.36,2.33,2.33,0,0,0,1.86-.19s.08,0,.12,0a.76.76,0,0,1-.14-.11.37.37,0,0,1-.08-.15.4.4,0,0,1,.56-.29c1.49.87,3.08.39,4.63.52a49.74,49.74,0,0,0,9.37.25c.46,0,1.17-.31,1,.42-.33,1.31.68,2.2,1,3.13.83,2.08.46,4.42,1.8,6.35,1.24,1.78,2,3.86,3.34,5.59,1.09,1.45,2.77,2.38,4,3.87,1.63,2,4,3.26,6.26,4.59A18.77,18.77,0,0,0,93.18,120c1.13.23,2.42.25,3.45,1.14a1.13,1.13,0,0,1,.54,1.16c-.07,3.13-1.57,6.53,1.72,9-2,.83-3.84.35-5.67.4a26.44,26.44,0,0,0-8.46,1.46c-.76.28-1.56.49-1.31,1.54s1,1.1,1.88,1.17c3.93.33,7.9,0,11.8.45,3.12.33,6.15-.63,9.24-.13a1.38,1.38,0,0,0,1.78-1.08c.07-.34.43-.58.65-.3,1,1.29,2.49.57,3.72.89,2.35.6,4.75-.2,7.2.09,1.44.18,3.28-.15,4.83-.13,4.42.07,8.83.53,13.26.5,1.33,0,2.51-.59,4-.35a9.73,9.73,0,0,0,5-.63c1.91-.74,4.1-.91,5.81-1.93,2.65-1.56,5.36-3.15,6.63-6.37.71-1.8.86-3.44-.56-4.47-1-.71-2.7-.13-3.82,1.32-.21.28-.38.59-.59.87a14.78,14.78,0,0,1-6.48,4.81c-4,1.5-8.34,1.69-12.6,2-3.25.27-6.53-.48-9.74.37-1.45.39-2.68-.53-4-.52-1.78,0-3.52.82-5.34-.17a2.93,2.93,0,0,0-2.45.09,2,2,0,0,1-1.56,0c-1.47-.39-3.13-1.33-4.62-.64-1.91.9-3.81.57-5.62.67-.16-2.73,1.25-5.29.25-8-.08-.21-.62-1.43.65-1a19.27,19.27,0,0,0,6.1.82c4.67.18,9.32,1,14,.53,1.89-.17,4,.47,5.68-.09,2.1-.68,4.19-.25,6.08-.91,0,1.89-.47,3.7,0,5.37.27.88.48,2.34,1.83,2.4.92,0,1.49-.91,1.6-1.7.25-1.8,1-3.63.45-5.42-.35-1.18.17-1.32,1-1.47.6-.11,1.35.14,1.5-.85s.41-1,.83-.35a1.18,1.18,0,0,0,1.1.54c2.22-.51,4.58-.64,6.57-1.78.95-.54,2.21-.53,2.84-1.3,1.09-1.32,2.59-2.12,3.69-3.32,1.39-1.52,2.92-3,3.17-5.31.48-4.27-1.24-8.11-2.16-12.1-.54-2.36-2.34-4.05-3.5-6.08a11.16,11.16,0,0,0-2-2.72c-1-.94-2.2-1.74-2.6-3.21a3,3,0,0,0-.82-1.34,62.38,62.38,0,0,0-11.46-9c-1.66-1-3.57-1.32-5.21-2.38A2.9,2.9,0,0,0,128.54,72.3Z"></path><path class="cls-2" d="M128.54,72.3a2.9,2.9,0,0,1,2.93.37c1.64,1.06,3.55,1.39,5.21,2.38a62.38,62.38,0,0,1,11.46,9,3,3,0,0,1,.82,1.34c.4,1.47,1.6,2.27,2.6,3.21a11.16,11.16,0,0,1,2,2.72c1.16,2,3,3.72,3.5,6.08.92,4,2.64,7.83,2.16,12.1-.25,2.31-1.78,3.79-3.17,5.31-1.1,1.2-2.6,2-3.69,3.32-.63.77-1.89.76-2.84,1.3-2,1.14-4.35,1.27-6.57,1.78a1.18,1.18,0,0,1-1.1-.54c-.42-.66-.7-.54-.83.35s-.9.74-1.5.85c-.81.15-1.33.29-1,1.47.53,1.79-.2,3.62-.45,5.42-.11.79-.68,1.73-1.6,1.7-1.35-.06-1.56-1.52-1.83-2.4-.5-1.67-.08-3.48,0-5.37-1.89.66-4,.23-6.08.91-1.72.56-3.79-.08-5.68.09-4.7.42-9.35-.35-14-.53a19.27,19.27,0,0,1-6.1-.82c-1.27-.48-.73.74-.65,1,1,2.7-.41,5.26-.25,8,1.81-.1,3.71.23,5.62-.67,1.49-.69,3.15.25,4.62.64a2,2,0,0,0,1.56,0,2.93,2.93,0,0,1,2.45-.09c1.82,1,3.56.18,5.34.17,1.31,0,2.54.91,4,.52,3.21-.85,6.49-.1,9.74-.37,4.26-.36,8.63-.55,12.6-2a14.78,14.78,0,0,0,6.48-4.81c.21-.28.38-.59.59-.87,1.12-1.45,2.83-2,3.82-1.32,1.42,1,1.27,2.67.56,4.47-1.27,3.22-4,4.81-6.63,6.37-1.71,1-3.9,1.19-5.81,1.93a9.73,9.73,0,0,1-5,.63c-1.46-.24-2.64.34-4,.35-4.43,0-8.84-.43-13.26-.5-1.55,0-3.39.31-4.83.13-2.45-.29-4.85.51-7.2-.09-1.23-.32-2.71.4-3.72-.89-.22-.28-.58,0-.65.3a1.38,1.38,0,0,1-1.78,1.08c-3.09-.5-6.12.46-9.24.13-3.9-.43-7.87-.12-11.8-.45-.92-.07-1.66-.2-1.88-1.17s.55-1.26,1.31-1.54a26.44,26.44,0,0,1,8.46-1.46c1.83-.05,3.69.43,5.67-.4-3.29-2.52-1.79-5.92-1.72-9a1.13,1.13,0,0,0-.54-1.16c-1-.89-2.32-.91-3.45-1.14a18.77,18.77,0,0,1-5.86-2.44c-2.26-1.33-4.63-2.56-6.26-4.59-1.19-1.49-2.87-2.42-4-3.87-1.3-1.73-2.1-3.81-3.34-5.59-1.34-1.93-1-4.27-1.8-6.35-.37-.93-1.38-1.82-1-3.13.18-.73-.53-.47-1-.42a49.74,49.74,0,0,1-9.37-.25c-1.55-.13-3.14.35-4.63-.52a.4.4,0,0,0-.56.29.37.37,0,0,0,.08.15.76.76,0,0,0,.14.11s-.09-.06-.12,0a2.33,2.33,0,0,1-1.86.19,21.1,21.1,0,0,0-3.71-.36c-3.17-.39-6.34-.15-9.51-.33-.64,0-1.26-.29-1.9-.35-3.86-.37-3.84-.36-6.49,3.21a8.26,8.26,0,0,1-4.31,2.77,28.76,28.76,0,0,1-2.91,1.1c-6.57,1.36-13.12-.69-16.4-7.32A10.9,10.9,0,0,1,9,81.18c.67-1.1.74-2.64,1.7-3.69,3.15-3.44,6.86-6.1,11.66-6.21,1.77,0,3.94-.06,5.53,1.75a9.54,9.54,0,0,0,2.82,1.45c1.92.88,2.9,2.47,4.17,3.88.29.32.39,1,1,.58,3.2-2,6.78-1.08,10.2-1.29,3.71-.22,7.43-.21,11.15-.68a42.72,42.72,0,0,1,7.33,0,15.16,15.16,0,0,1,4.57.68c.12,0,.41-.16.44-.11,1.55,2.09,1.91,0,2.69-.73,1.82-1.76,4.09-2.86,6.18-4.23,2.82-1.85,6.08-1.43,9.13-2.07.47-.1,1,0,1.43-.15.3-.08.7-.36.18-.7-1.69-1.11-1.52-2.69-1.24-4.36.09-.54.59-1.07.16-1.66s-.95-1.09-.5-1.52a2.84,2.84,0,0,1,2-.62,30.82,30.82,0,0,1,5.16.41c2,.53,1.09-1.3,1.82-1.65-.91-1.55,0-3.12.22-4.58A24,24,0,0,1,97.63,51c.64-1.76-.08-2.36-2-2.07-3,.44-5.89,1-8.85,1.39-3.57.52-7.17.77-10.77,1.08-2,.17-4.12.85-6.21,1.18-5.61.88-11.2,2-16.9,1.89-3.51-.07-7-.31-10.35-1.82-3.84-1.72-5.37-3.47-4.89-7.57.23-2,1.94-3.14,3.72-4.06,2.9-1.49,6-.79,9-.81,4.1,0,8.2.38,12.29.61,3,.16,6,.14,8.9.58,6.23.94,12.55,1.1,18.77,2.21,3.26.59,6.56,1,9.84,1.46a3.43,3.43,0,0,0,1.75-.19c1.86-.72,3.81-1.15,5.69-1.85s4.2-.58,6.31-1.11c5.33-1.32,10.78-2.2,16.19-3.2a86.44,86.44,0,0,1,10.78-1c3-.18,5.88-.25,8.83-.2a20.08,20.08,0,0,1,9.32,2c3.58,2,4.13,5.81-.05,8.71a14.66,14.66,0,0,1-7.07,2.39c-2,.19-3.83,1-5.91,1-1.51,0-3.26.4-4.58.18-3.77-.63-7.45.38-11.19,0-1.76-.17-3.74.29-5.46-.06-2.91-.59-5.81,0-8.71-.26-3.52-.28-7-1-10.6-.93a12.13,12.13,0,0,1-4.11-.8c0,2,0,3.91,0,5.81.07,1.75-.6,3.4-.51,5.18,0,.76-.1,1.23.72,1.35,2.09.31,4.19.56,6.28.85a.73.73,0,0,0,.77-.27,1.08,1.08,0,0,1,1.44-.3c.84.43-.49,1,.25,1.42.43.09.38-.53.75-.85.2,2,.22,3.91-1.45,5.58a4.45,4.45,0,0,0,1.28.34A32,32,0,0,1,124.62,71c1.21.44,2.69,0,3.86.85l-.3.24ZM36.7,84c.54.69-.34,2.42.91,2.85,1.58.55,3.38.4,5.09.73s3.45-.24,5.16-.12a82.35,82.35,0,0,1,8.43.7,77.54,77.54,0,0,0,8.62.78c2.27.13,4.35,1.17,6.57,1.29s3.29,1.65,4,3.16A46.58,46.58,0,0,0,80,101.63a37.61,37.61,0,0,0,5.8,6.41,9.73,9.73,0,0,1,1.88,1.81c.5.72,1.07,1.78,1.84,2,3.16,1,5.75,3.32,9.18,3.88,2.48.41,5,1.08,7.46,1.42a59.37,59.37,0,0,0,6.05.55c1.72.06,3.43.45,5.15.46,1.53,0,3,1.12,4.58.16,1-.65,1.52.73,2.26.72,1.63,0,1.86,0,2.55,1.16.06.11,0,.43.28.26s.67-.28.69-.46c.14-1.87,1.32-1.36,2.47-1.19a13.14,13.14,0,0,0,3.88.26c2.08-.36,4.2-.2,6.26-.55,1.78-.3,3.61-.24,5.35-1s1.95-2.47,3.4-3.26c2.87-1.55,4.8-3.83,4.95-7.25.05-1.11.38-2.61-1-3a16.25,16.25,0,0,0-6.24-.17c-3.26.5-6.53.55-9.76.74a124.79,124.79,0,0,1-13.94-.29,48.69,48.69,0,0,0-6.06.45c-1.76.13-2.73-.09-3-1.89-.21-1.23-.61-2.73-.12-3.71,1.16-2.35-.49-4.46-.12-6.8.35-2.12-1-4.46-.84-6.8.17-3.81-.14-7.63.56-11.42a5.1,5.1,0,0,0,.07-2.47c-.52-.83-1.75-.44-2.71-.3-.11,0-.23-.12-.34-.11a80.89,80.89,0,0,0-8.1.28,10,10,0,0,1-3.28-.06c-.32-.06-.49-.24-.92-.07-3,1.19-6.32,1-9.44,1.89-2.56.71-5.24.9-7.74,2-.49.22-1.28,1.51-2.17.24-.22-.31-.43-1.09-1.21-.66a1.15,1.15,0,0,0-.42,1.56c.53,1-.07,1.31-.68,1.64s-.88.81-1.27,1.06c-1,.66-2,2.3-3.43,1.43a1.07,1.07,0,0,0-1.3-.06c-2.38,1.15-4.77,2.32-7.51,1.08-.31-.14-.74-.15-.63.47s-.33.53-.68.58c-2,.26-4,0-6,.09s-4.06-.21-6,0a39.62,39.62,0,0,1-12.2.11C36.7,82.79,36.57,83,36.7,84Zm115.15,18c1-.06,1-.77.82-1.7-.4-2.52-2.34-4.16-3.56-6.21-1-1.61-1.55-3.41-3.13-4.73-4.32-3.6-8.38-7.48-13-10.67a28.57,28.57,0,0,0-5.55-3.26c-2.74-1.06-5.54-2-8.27-3.12-.42-.18-1.4-.29-1.31.62a51.62,51.62,0,0,1,.59,6.16c0,2.69-.12,5.36-.31,8-.07,1-1,.93-1.32,1.48-.7,1.06,1.1.5.94,1.45a55.7,55.7,0,0,0-.62,5.76c0,.47-.74.7-.49.88,1.15.81.76,2.05.88,3.07.16,1.37.51,2.12,2.09,2.14,2.5,0,5,0,7.51.11,1.12.08,2.31.49,3.43.07,2.85-1.07,5.86-.73,8.76-.69C143.37,101.48,147.52,100.93,151.85,102ZM22.56,96.7l.71,0a12.57,12.57,0,0,0,7-2.92c.82-.6,2.36-1.2,1.8-2.67a2.05,2.05,0,0,1,.52-2.52,4,4,0,0,0,1.07-4.63c-.41-1.18-1.1-2.25-1.53-3.33-.81-2.09-2.23-3.77-4-4.13a20.37,20.37,0,0,0-8.66-.18,9.73,9.73,0,0,0-6.08,4,12.42,12.42,0,0,0-1.85,6.2c-.15,3,1.22,5,2.92,7C16.54,95.92,19.43,96.66,22.56,96.7ZM47.45,43.39c-2.58,0-3.75.48-5.91,1.94a1.79,1.79,0,0,0-.4,2.83A4.66,4.66,0,0,0,43.47,50c3.49,1,7,1.92,10.66,1.42,2.3-.31,4.6.09,6.95-.28,3.2-.51,6.45-.53,9.7-1,5.45-.84,10.86-2.12,16.42-2.25.72,0,1.94-.17,2-.71.07-1.05-1.32-.17-1.52-.54-.89-1.74-2.23-.79-3.42-.73a38.68,38.68,0,0,1-8.43-1.06c-4-.71-8-.3-11.87-.92-3.45-.54-6.93.13-10.44-.68C51.7,42.76,49.5,43.65,47.45,43.39Zm62.18,3.43a1.71,1.71,0,0,0,1.82.59c2.37-.38,4.66.36,7,.3,4.69-.13,9.39.21,14.06-.07,3.85-.24,7.69.25,11.52-.23,2.41-.3,4.93.2,7.24-.55,2.05-.67,4.06-1.44,6.14-2,.77-.22,1.58-.58,1.47-1.64-.07-.58-3-2.83-3.55-2.64a5.62,5.62,0,0,1-3,0,25,25,0,0,0-5.1-.41,86.81,86.81,0,0,0-9.26.69c-3.06.51-6.18.74-9.15,1.54-2.7.72-5.47,1.08-8.18,1.81-2.45.65-5.11,1-7.63,1.6C111.94,46.05,110.53,45.79,109.63,46.82ZM90.31,70.18c3.68-.21,7-.51,10.38-.55,2.35,0,4.65-1.13,7-.34.46.16.79-.25,1.08-.48.45-.38-.16-.56-.29-.84a4.72,4.72,0,0,1-.6-2.73c.21-1.29,0-1.7-1.29-1.32s-2.75-.23-3.9.75a.51.51,0,0,1-.35,0c-3-.13-6.07.46-9.1-.16-1.39-.29-2.23.69-2.06,2.12A4.31,4.31,0,0,1,90.31,70.18Zm66,43.23c.25.19.4.38.6.44s.42-.07.34-.36a.44.44,0,0,0-.5-.37C156.63,113.14,156.53,113.27,156.32,113.41Z"></path><path class="cls-3" d="M36.7,84c-.13-1,0-1.19.83-1a39.62,39.62,0,0,0,12.2-.11c2-.26,4,.07,6,0s4,.17,6-.09c.35,0,.77,0,.68-.58s.32-.61.63-.47c2.74,1.24,5.13.07,7.51-1.08a1.07,1.07,0,0,1,1.3.06c1.48.87,2.38-.77,3.43-1.43.39-.25.74-.78,1.27-1.06s1.21-.68.68-1.64a1.15,1.15,0,0,1,.42-1.56c.78-.43,1,.35,1.21.66.89,1.27,1.68,0,2.17-.24,2.5-1.08,5.18-1.27,7.74-2,3.12-.88,6.42-.7,9.44-1.89.43-.17.6,0,.92.07a10,10,0,0,0,3.28.06,80.89,80.89,0,0,1,8.1-.28c.11,0,.23.13.34.11,1-.14,2.19-.53,2.71.3a5.1,5.1,0,0,1-.07,2.47c-.7,3.79-.39,7.61-.56,11.42-.11,2.34,1.19,4.68.84,6.8-.37,2.34,1.28,4.45.12,6.8-.49,1-.09,2.48.12,3.71.29,1.8,1.26,2,3,1.89a48.69,48.69,0,0,1,6.06-.45,124.79,124.79,0,0,0,13.94.29c3.23-.19,6.5-.24,9.76-.74a16.25,16.25,0,0,1,6.24.17c1.36.35,1,1.85,1,3-.15,3.42-2.08,5.7-4.95,7.25-1.45.79-1.8,2.58-3.4,3.26s-3.57.68-5.35,1c-2.06.35-4.18.19-6.26.55a13.14,13.14,0,0,1-3.88-.26c-1.15-.17-2.33-.68-2.47,1.19,0,.18-.44.33-.69.46s-.22-.15-.28-.26c-.69-1.19-.92-1.17-2.55-1.16-.74,0-1.21-1.37-2.26-.72-1.56,1-3-.14-4.58-.16-1.72,0-3.43-.4-5.15-.46a59.37,59.37,0,0,1-6.05-.55c-2.45-.34-5-1-7.46-1.42-3.43-.56-6-2.84-9.18-3.88-.77-.25-1.34-1.31-1.84-2A9.73,9.73,0,0,0,85.77,108a37.61,37.61,0,0,1-5.8-6.41,46.58,46.58,0,0,1-4.52-8.26c-.68-1.51-1.77-3-4-3.16s-4.3-1.16-6.57-1.29a77.54,77.54,0,0,1-8.62-.78,82.35,82.35,0,0,0-8.43-.7c-1.71-.12-3.51.44-5.16.12s-3.51-.18-5.09-.73C36.36,86.4,37.24,84.67,36.7,84Zm65.44,2.22a3.94,3.94,0,0,1,.16-1.28,7.34,7.34,0,0,0,0-6.51A2.23,2.23,0,0,0,100,77c-2.8.22-5.65-.07-8.38.66-1.47.4-3.38.24-3.87,2.54-.13.61-1.24,1-.2,1.78-.9.33.14,1.31-.18,1.28-1.13-.1-1.62,1.34-3,.83-2.26-.84-4,.58-4,3,0,2.07-.32,4.12-.31,6.21,0,2.93.8,4,3.75,3.55a13.71,13.71,0,0,0,1.9-.42c2-.56,2.63,0,2.61,2,0,1,0,2,0,3a7.85,7.85,0,0,0,1,3.74c.26.5,1.14.1,1,.6-.4,1.37.41,1.86,1.41,2.2,2.14.71,4.38,1.15,6.41,0,1.41-.82,3.57-.77,4-3a18.23,18.23,0,0,0,0-7.21c.6,0,1.19,0,1.78,0,2.59-.07,6.33-2.78,7-5.26a7.49,7.49,0,0,0-.33-4.51c-.65-1.95-.56-3.69-3.5-3C105.44,85.31,103.72,85.36,102.14,86.2Z"></path><path class="cls-1" d="M151.85,102c-4.33-1.08-8.48-.53-12.59-.6-2.9,0-5.91-.38-8.76.69-1.12.42-2.31,0-3.43-.07-2.5-.16-5-.09-7.51-.11-1.58,0-1.93-.77-2.09-2.14-.12-1,.27-2.26-.88-3.07-.25-.18.46-.41.49-.88a55.7,55.7,0,0,1,.62-5.76c.16-.95-1.64-.39-.94-1.45.35-.55,1.25-.52,1.32-1.48.19-2.68.28-5.35.31-8a51.62,51.62,0,0,0-.59-6.16c-.09-.91.89-.8,1.31-.62,2.73,1.13,5.53,2.06,8.27,3.12a28.57,28.57,0,0,1,5.55,3.26c4.67,3.19,8.73,7.07,13,10.67,1.58,1.32,2.17,3.12,3.13,4.73,1.22,2.05,3.16,3.69,3.56,6.21C152.83,101.24,152.8,102,151.85,102Z"></path><path class="cls-3" d="M22.56,96.7c-3.13,0-6-.78-8.12-3.22-1.7-2-3.07-4-2.92-7a12.42,12.42,0,0,1,1.85-6.2,9.73,9.73,0,0,1,6.08-4,20.37,20.37,0,0,1,8.66.18c1.8.36,3.22,2,4,4.13.43,1.08,1.12,2.15,1.53,3.33a4,4,0,0,1-1.07,4.63,2.05,2.05,0,0,0-.52,2.52c.56,1.47-1,2.07-1.8,2.67a12.57,12.57,0,0,1-7,2.92ZM20.08,80.5a1.46,1.46,0,0,0-1.35.61c-1.29,1.43-.2,2.55.56,3.61.39.57.93,1,.42,1.69a32.38,32.38,0,0,1-2.22,3.19,1.25,1.25,0,0,0-.16,1.6c.22.47.55.82,1.1.74a3.35,3.35,0,0,0,2.23-1.26c1.6-2.32,1.78-2.4,4-.63.09.08.15.21.25.26.75.34,1.66,1.06,2.31.42A1.93,1.93,0,0,0,27.3,88C26,86.06,24,84,26.35,81.4a4.35,4.35,0,0,0,.32-.43c.59-.81.87-1.8,0-2.4s-1.58.36-2.28.88c-.41.3-.38.72-.49,1.1a1.29,1.29,0,0,1-2.17.64A2.19,2.19,0,0,0,20.08,80.5Z"></path><path class="cls-3" d="M47.45,43.39c2,.26,4.25-.63,6-.22,3.51.81,7,.14,10.44.68,3.92.62,7.89.21,11.87.92a38.68,38.68,0,0,0,8.43,1.06c1.19-.06,2.53-1,3.42.73.2.37,1.59-.51,1.52.54,0,.54-1.25.7-2,.71-5.56.13-11,1.41-16.42,2.25-3.25.5-6.5.52-9.7,1-2.35.37-4.65,0-6.95.28C50.44,51.87,47,51,43.47,50a4.66,4.66,0,0,1-2.33-1.79,1.79,1.79,0,0,1,.4-2.83C43.7,43.87,44.87,43.35,47.45,43.39Z"></path><path class="cls-3" d="M109.63,46.82c.9-1,2.31-.77,3.4-1,2.52-.59,5.18-.95,7.63-1.6,2.71-.73,5.48-1.09,8.18-1.81,3-.8,6.09-1,9.15-1.54a86.81,86.81,0,0,1,9.26-.69,25,25,0,0,1,5.1.41,5.62,5.62,0,0,0,3,0c.52-.19,3.48,2.06,3.55,2.64.11,1.06-.7,1.42-1.47,1.64-2.08.58-4.09,1.35-6.14,2-2.31.75-4.83.25-7.24.55-3.83.48-7.67,0-11.52.23-4.67.28-9.37-.06-14.06.07-2.35.06-4.64-.68-7-.3A1.71,1.71,0,0,1,109.63,46.82Z"></path><path class="cls-3" d="M90.31,70.18a4.31,4.31,0,0,0,.91-3.5c-.17-1.43.67-2.41,2.06-2.12,3,.62,6.07,0,9.1.16a.51.51,0,0,0,.35,0c1.15-1,2.62-.37,3.9-.75s1.5,0,1.29,1.32a4.72,4.72,0,0,0,.6,2.73c.13.28.74.46.29.84-.29.23-.62.64-1.08.48-2.39-.79-4.69.31-7,.34C97.34,69.67,94,70,90.31,70.18Z"></path><path class="cls-1" d="M156.32,113.41c.21-.14.31-.27.44-.29a.44.44,0,0,1,.5.37c.08.29-.06.46-.34.36S156.57,113.6,156.32,113.41Z"></path><path class="cls-1" d="M128.54,72.3l-.36-.17.3-.24Z"></path><path class="cls-2" d="M102.14,86.2c1.58-.84,3.3-.89,5-1.25,2.94-.65,2.85,1.09,3.5,3a7.49,7.49,0,0,1,.33,4.51c-.69,2.48-4.43,5.19-7,5.26-.59,0-1.18,0-1.78,0a18.23,18.23,0,0,1,0,7.21c-.39,2.19-2.55,2.14-4,3-2,1.2-4.27.76-6.41,0-1-.34-1.81-.83-1.41-2.2.15-.5-.73-.1-1-.6a7.85,7.85,0,0,1-1-3.74c0-1,0-2,0-3,0-2.07-.65-2.58-2.61-2a13.71,13.71,0,0,1-1.9.42c-3,.46-3.73-.62-3.75-3.55,0-2.09.29-4.14.31-6.21,0-2.38,1.76-3.8,4-3,1.39.51,1.88-.93,3-.83.32,0-.72-1,.18-1.28-1-.79.07-1.17.2-1.78.49-2.3,2.4-2.14,3.87-2.54,2.73-.73,5.58-.44,8.38-.66a2.23,2.23,0,0,1,2.3,1.39,7.34,7.34,0,0,1,0,6.51A3.94,3.94,0,0,0,102.14,86.2Zm.35,7.72c2.59.23,3-.23,2.47-2.36-.06-.26-.06-.62-.12-.78-.43-1.23.56-3.25-2-3.39-.59,0-1.07-.51-1.92-.14a1.59,1.59,0,0,1-2.2-.83,12.43,12.43,0,0,1-1.08-5c0-.9-.27-1.25-1.25-1.19-1.29.08-2.75.38-3.84-.38s-1.24.26-1.23.54A16.72,16.72,0,0,0,91.68,84c.44,1.88-.28,2.88-2.21,2.75a14.39,14.39,0,0,0-4.44.55c-.22,0-1.07.13-.83,1A5.29,5.29,0,0,1,83.79,92c-.23.48-.48,1.63.33,1.7,1.72.14,3.24,1.21,5,.88,2.25-.42,3.78.66,3.84,2.89a35.37,35.37,0,0,1-.4,6.59c-.24,1.52.38,1.51,1.45,1.39a17.93,17.93,0,0,1,3.85-.28c1.19.14,1.4-.51,1.28-1.25-.39-2.53.25-5,.15-7.55,0-.39-.51-1.24.24-1.59C100.57,94.33,101.53,93.68,102.49,93.92Z"></path><path class="cls-2" d="M20.08,80.5a2.19,2.19,0,0,1,1.64.69,1.29,1.29,0,0,0,2.17-.64c.11-.38.08-.8.49-1.1.7-.52,1.37-1.5,2.28-.88s.6,1.59,0,2.4a4.35,4.35,0,0,1-.32.43C24,84,26,86.06,27.3,88a1.93,1.93,0,0,1-.09,2.69c-.65.64-1.56-.08-2.31-.42-.1,0-.16-.18-.25-.26-2.21-1.77-2.39-1.69-4,.63a3.35,3.35,0,0,1-2.23,1.26c-.55.08-.88-.27-1.1-.74a1.25,1.25,0,0,1,.16-1.6,32.38,32.38,0,0,0,2.22-3.19c.51-.74,0-1.12-.42-1.69-.76-1.06-1.85-2.18-.56-3.61A1.46,1.46,0,0,1,20.08,80.5Z"></path><path class="cls-3" d="M102.49,93.92c-1-.24-1.92.41-2.91.86-.75.35-.25,1.2-.24,1.59.1,2.52-.54,5-.15,7.55.12.74-.09,1.39-1.28,1.25a17.93,17.93,0,0,0-3.85.28c-1.07.12-1.69.13-1.45-1.39a35.37,35.37,0,0,0,.4-6.59c-.06-2.23-1.59-3.31-3.84-2.89-1.81.33-3.33-.74-5-.88-.81-.07-.56-1.22-.33-1.7a5.29,5.29,0,0,0,.41-3.67c-.24-.89.61-1,.83-1a14.39,14.39,0,0,1,4.44-.55c1.93.13,2.65-.87,2.21-2.75a16.72,16.72,0,0,1-.41-3.67c0-.28.21-1.24,1.23-.54s2.55.46,3.84.38c1-.06,1.21.29,1.25,1.19a12.43,12.43,0,0,0,1.08,5,1.59,1.59,0,0,0,2.2.83c.85-.37,1.33.11,1.92.14,2.61.14,1.62,2.16,2,3.39.06.16.06.52.12.78C105.5,93.69,105.08,94.15,102.49,93.92Z"></path></svg>