<svg xmlns="http://www.w3.org/2000/svg" id="Layer_1" data-name="Layer 1" viewBox="0 0 181 181"><defs><style>.cls-1{fill:#fcfcfb;}.cls-2{fill:#1a1a1a;}.cls-3{fill:#565656;}</style></defs><path class="cls-1" d="M0,181Q0,91.32,0,1.66C0,.31.3,0,1.66,0Q90.51.06,179.34,0c1.35,0,1.66.3,1.66,1.66q-.06,88.85,0,177.68c0,1.35-.3,1.66-1.66,1.66Q89.68,180.94,0,181Zm105.6-56.42a.15.15,0,0,0,.14-.15c.39,0,.73,0,.85-.44h0l.88-.53.82-.49c.66,0,1.4-.27,1.34,1a2.07,2.07,0,0,0,1.25,2.17,45,45,0,0,0,6.8,8.88c2.24,2.34,4.25,4.86,6.42,7.25,1.17,1.29,2.72,2.19,3.54,3.9,1.13,2.35,3.27,4,4.84,6.11,1,1.28,2.65,2.27,3.78,3.58s2.25,1.74,3.81,1.08c.37,0,.73.06.81-.44h0a1.43,1.43,0,0,0,.92-1.52l.22-1c.31-.3.62-.79.27-1-.86-.63-1-1.7-1.6-2.43a.17.17,0,0,0-.15-.19,1.41,1.41,0,0,0-1.17-1l0,0a.69.69,0,0,0-.68-.64,57.12,57.12,0,0,1-5.16-6.09c-1.59-2.44-3.85-4.25-5.49-6.63-1.9-2.79-5.25-4.35-6.82-7.47a8.92,8.92,0,0,0-3.34-3.47c0-.47-.38-.64-.79-.71-.43-.39-.65-1-1.33-1.14-.37-.25-.28-.91-.87-1-.22-.28-.43-.6-.85-.61a1.05,1.05,0,0,0-1-.55c-1.13.06-1.13-.61-.75-1.41l0-.08c.28-.19.75-.1.87-.54a1,1,0,0,0,.77-.62l.26-.51a.29.29,0,0,0,.3-.13c.23,0,.29-.06.21-.27a3.67,3.67,0,0,1,.57-.67c3.4-2.78,4.92-6.91,6.28-10.69A27.6,27.6,0,0,0,123,94.61a47.73,47.73,0,0,0-3.44-13.39c-.78-2.08-2.46-3.48-3.58-5.27-2.37-3.83-6.06-6.14-9.65-8.42s-7.84-3.09-12-4c-3.08-.66-6,.52-9,.43-1.16,0-2.9,0-4,1.17-.85.22-1.83-.09-2.56.61l-.66.16c-.45-.1-.64.18-.78.53A27.48,27.48,0,0,1,74.77,68c-2.41,1.13-4.74,2.36-6.38,4.54-1.31,1.75-2.64,3.59-4,5.15-2.87,3.21-3.5,7.18-4.74,10.89-.95,2.86-.67,6.1-1.24,9.12-.21,1.14,1.06,1.15.89,1.61-.69,1.9.43,3.57.59,5.35A17.18,17.18,0,0,0,64,113.94c2.81,3.35,5,7.73,9.87,8.83.18,0,.3.35.44.54,1.26,1.69,3.29,2.38,5,3A34.11,34.11,0,0,0,92,128.2a34.94,34.94,0,0,0,13-3.13C105.68,125.35,105.63,124.93,105.63,124.55Zm-5.24-73.64a2.78,2.78,0,0,0-.69,2.27,1.41,1.41,0,0,0-.18,1.06c-.56,1.06-.09,2.12,0,3.18-.2.61.41,1,.43,1.53-.74.85-.11,1.18.57,1.5a1.57,1.57,0,0,0,1,.64c2.13,1.06,3.61.11,4.1-2.63a1.54,1.54,0,0,0,.37-1.24c.9-1,.78-2.27,1-3.45a9,9,0,0,0,.69-2.76.94.94,0,0,0,.44-1.15c.31-1.15,1.24-2.06,1.29-3.31,1.34-1.42.83-3,.35-4.55l-.71-.42c-.24-1.81-1.76-1.77-2.9-1.62-1.45.2-2.9.84-3,2.75l-.3,1.31c-1.22,2.16-1.66,4.6-2.52,6.89Zm-7.68-2.1,0-.7c.16-.41-.14-.56-.41-.72l.06-1.16c.53-.72.19-1.45,0-2.18l-.07-.63a2.71,2.71,0,0,0-.4-2.39l0-.44a1.29,1.29,0,0,0-.4-1.63l.08-.63A3.64,3.64,0,0,0,91.11,35l0-.53c1.25-.9.44-2.07.35-3.11-.21-2.36-.54-4.71-.83-7.07A7.38,7.38,0,0,0,90.73,21c1-1.37.17-2.78,0-4.11-.44-2.86-3.49-4.13-6.31-2-.47.36-.76.51-.43,1.06l-.25.57c-.44.27-.29.71-.37,1.11-.22,1.18.65,2.26.21,3.48a10.64,10.64,0,0,0-.11,4.6l.13,1.76a20.62,20.62,0,0,0,.71,6.16l0,.75c-.83,1.31.49,2.19.66,3.3A1.56,1.56,0,0,0,84.77,39c.09.56-.16,1.2.37,1.67l.07.9.28,2.7-.1,2a25.14,25.14,0,0,0,1.27,6.19l0,.36c.71,1.26.24,2.67.54,4,.5,2.12,1.58,3.4,3.52,3.63,1.74.21,2-1.24,2.56-2.3a1.66,1.66,0,0,0,.49-1.4c.43-.6,0-1.22,0-1.83.33-.66-.27-1.17-.3-1.77.28-.22.21-.46,0-.7l-.28-1a.78.78,0,0,0-.25-1l-.08-.88C93.1,49.22,93,49,92.71,48.81ZM26.3,130.38l.49-.64.44-.35.6.1c.6.4.85-.14,1.19-.45,1.38-.57,2.49-1.62,3.95-2.09,2.26-.71,4.12-2.35,6.28-3.19,4.22-1.62,8.18-3.76,12.26-5.67,1.6-.75,3.57-1.08,4.67-2.81a3.22,3.22,0,0,0,.27-3.53c-.55-.88-1.33-2-2.73-1.47-2.49.84-5.17,1.36-7.42,2.64-4.9,2.78-10.16,4.79-15.13,7.42-2.64,1.4-5.54,2.28-8.09,3.92s-5.4,2.41-7.83,4.12c-1.79.65-1.78,2.17-1.59,3.63a2.71,2.71,0,0,0,2.71,2.36,4.33,4.33,0,0,0,3.36-1.28l.83-.47c1.14.67,1.81-.31,2.63-.74l.62-.29c.66.12.54-.44.68-.78.61.5,1-.15,1.53-.27C26.21,130.66,26.3,130.58,26.3,130.38ZM18.48,61.71a22.06,22.06,0,0,0,3.95,2c3.93,1.75,7.37,4.39,11.19,6.41,4.28,2.26,8.51,4.71,12.63,7.29,1.19.75,2.71.78,3.79,1.76a11,11,0,0,0,4.26,2.1c2.1.67,3.49.2,4.13-1.29a4.21,4.21,0,0,0-2-4.85c-2.6-1.25-5.17-2.66-7.63-4-3.08-1.74-6.68-2.89-9.14-5.74-1-1.1-2.55-1.2-3.82-1.83-3.6-1.77-6.69-4.45-10.58-5.66l-.39-.27c-.2-.52-.81-.44-1.13-.78a3.71,3.71,0,0,0-3.56-1.25l-.68,0a3.34,3.34,0,0,0-2,.74C16,57.15,15.87,58.65,17,60a1.39,1.39,0,0,0,.44,1A.87.87,0,0,0,18.48,61.71Zm130.78-30a3.48,3.48,0,0,0-1.85-3.21,3,3,0,0,0-3.6.72c-3.87,4.1-7.44,8.45-11,12.82-2,2.43-4,4.83-6,7.18A96.7,96.7,0,0,0,118.89,59c-1.39,2.08-3.65,3.56-4.26,6.28a2,2,0,0,0,.56,2.13c1.26,1.22,2.55,1.26,4.07.14,5.06-3.74,8.27-9.15,12.55-13.59,2-2.06,3.67-4.41,5.48-6.64s4.16-4.15,5.59-6.71c.89-1.59,2.53-2.41,3.4-3.9C147.25,35,149.3,34,149.26,31.7ZM71.52,148.43c.09,2.11-.85,4.09-.87,6.16,0,1.7-.86,3.18-.73,5,.19,2.73-1.27,5.4-1,8.23a.88.88,0,0,1-.1.34c-.91,2.35-.5,3.46,1.72,4.54,1.65.81,3.13.09,4.45-1.5,1.82-2.19.88-4.9,1.72-7.31.77-2.22.33-4.89.84-7.32.6-2.83.26-5.72.73-8.57.22-1.34.85-2.52,1-3.94.38-3.3,0-6.66.76-9.91a6.77,6.77,0,0,0-.19-2.61,2.73,2.73,0,0,0-2.6-2.31c-1.36-.19-2.11,1.09-2.59,2.27-.09.22.08.52-.16.8-1.91,2.31-1.39,5.26-2,7.91-.23.95.36,2.56.1,2.95C71.51,144.84,71.53,146.6,71.52,148.43ZM140,96.7c1.5.51,3.4-1.21,5.18.23.16.13.6,0,.87-.11,3.53-1.44,7.3-.08,10.92-.94.82-.19,1.92.16,2.91-.2a5.69,5.69,0,0,1,3.51,0,3.94,3.94,0,0,0,4.73-3.39c.09-1.48-.38-3-1.84-3.38a19.26,19.26,0,0,0-5.42-.49c-2.88.08-5.76.6-8.64.58s-5.46.78-8.26.48a22.8,22.8,0,0,0-4.92.36c-1.95.22-4,0-5.84.7-1.46.56-3.27.84-3.21,3,0,1.24,1.64,2.57,3.64,3a4.87,4.87,0,0,0,1.08.07ZM71.87,63c-.67-1.15-1.51-2.58-2.33-4-2.05-3.59-4.19-7.12-6.07-10.8-.62-1.23-1.58-1.92-2.55-1.75a2.9,2.9,0,0,0-2.53,2.35c-.76,3.46,1,6,2.67,8.58,1.09,1.68,2,3.42,3,5.17s1.62,3,3.56,3.68C70,67.08,71.92,66,71.87,63ZM45.2,101.11c2.35.54,4-1.24,6-1.6,1.38-.25,2-1.79,1.67-3.3a2.73,2.73,0,0,0-2.34-2.32,11.16,11.16,0,0,0-5,.34c-3.38.8-6.72,1.48-9.43,3.83-.57.49-1.14,1-1,1.8s1,1,1.78,1.25A17.18,17.18,0,0,0,45.2,101.11Zm90.93-32.94a1.7,1.7,0,0,0-1.32.41c-2.32,2-5,3.59-7.22,5.79-.33.33-.59.76-1,1.07-1,.88-1.57,2.13-.82,3.16a3.05,3.05,0,0,0,3.39,1.18,18.23,18.23,0,0,0,9.89-7,2.53,2.53,0,0,0,.24-3.08A3.3,3.3,0,0,0,136.13,68.17ZM98.44,128.78A3.4,3.4,0,0,0,95.2,132a23.32,23.32,0,0,0,.32,3.36,9.39,9.39,0,0,0,4.76,7.53,1.64,1.64,0,0,0,2.65-1.26,9.27,9.27,0,0,0,0-4.41c-.74-2.39-.78-5-2.16-7.19A2.22,2.22,0,0,0,98.44,128.78Zm37.47-12.09c1.55.14,2.69-.23,3.15-1.83.49-1.75-.21-2.63-1.65-3.8-2.53-2.06-5.67-1.83-8.4-3-1.4-.6-2.61.51-3.32,1.72a2.34,2.34,0,0,0,.7,3.07A18.76,18.76,0,0,0,135.91,116.69Zm-67.57,7.46c.1-1.74-.37-2.83-1.43-3.2a2.83,2.83,0,0,0-3.22.93c-1.53,2-2.8,4.15-4.52,6-1.14,1.24-.87,2.8-.37,4.27a1.67,1.67,0,0,0,2,1.18c1.39-.1,2.16-1.14,3.2-1.79C66.93,129.7,67.56,126.62,68.34,124.15Z"></path><path class="cls-2" d="M78.09,65.92l.66-.16a2.72,2.72,0,0,0,2.56-.61C82.4,64,84.14,64,85.3,64c3,.09,5.89-1.09,9-.43,4.18.89,8.43,1.71,12,4s7.28,4.59,9.65,8.42c1.12,1.79,2.8,3.19,3.58,5.27A47.73,47.73,0,0,1,123,94.61,27.6,27.6,0,0,1,121.55,106c-1.36,3.78-2.88,7.91-6.28,10.69a3.67,3.67,0,0,0-.57.67l-.21.27a.29.29,0,0,1-.3.13c-.33,0-.38.23-.26.51a1,1,0,0,1-.77.62c-.49-.14-.83,0-.87.54l0,.08c-1,.25-.9,1.78-2,1.77s-1.6.74-1.94,1.64l-.82.49c-.67-.45-.82,0-.88.53h0a.64.64,0,0,0-.85.44.15.15,0,0,1-.14.15l-.56.52a34.94,34.94,0,0,1-13,3.13,34.11,34.11,0,0,1-12.67-1.9c-1.75-.61-3.78-1.3-5-3-.14-.19-.26-.5-.44-.54-4.91-1.1-7.06-5.48-9.87-8.83a17.18,17.18,0,0,1-4.16-9.31c-.16-1.78-1.28-3.45-.59-5.35.17-.46-1.1-.47-.89-1.61.57-3,.29-6.26,1.24-9.12,1.24-3.71,1.87-7.68,4.74-10.89,1.39-1.56,2.72-3.4,4-5.15,1.64-2.18,4-3.41,6.38-4.54a27.48,27.48,0,0,0,2.54-1.52c0,.64.31,1,.86.71S78.08,66.34,78.09,65.92ZM84.37,71a.63.63,0,0,0-1,.21l-1,.29a3.27,3.27,0,0,0-3.31,1.21c-1.58,1.45-3.74,2-5.3,3.57a68.2,68.2,0,0,0-5.87,6.9,14.48,14.48,0,0,0-2,6,27.35,27.35,0,0,0-.42,8.21c.34,2.85.56,5.77,1.66,8.31A27.15,27.15,0,0,0,73,113.87a25.36,25.36,0,0,0,15.62,7,24.63,24.63,0,0,0,5.56,0c2-.23,4.07.36,5.67-1.42a1.82,1.82,0,0,1,.94-.49,13.64,13.64,0,0,0,4.56-2.23c5.5-3.62,8.58-8.8,10.28-15,.47-1.69.34-3.43.71-5.07a13.91,13.91,0,0,0-.52-7.15c-1.94-6.35-5.33-11.91-11.4-15.29-1.59-.89-2.93-2.26-4.91-2.49-1.35-.16-2.65-.7-4-.89C91.79,70.29,88.05,68.83,84.37,71Z"></path><path class="cls-2" d="M149.26,31.7c0,2.29-2,3.3-3,5-.87,1.49-2.51,2.31-3.4,3.9-1.43,2.56-3.75,4.45-5.59,6.71s-3.49,4.58-5.48,6.64c-4.28,4.44-7.49,9.85-12.55,13.59-1.52,1.12-2.81,1.08-4.07-.14a2,2,0,0,1-.56-2.13c.61-2.72,2.87-4.2,4.26-6.28a96.7,96.7,0,0,1,7.91-9.74c2-2.35,4-4.75,6-7.18,3.56-4.37,7.13-8.72,11-12.82a3,3,0,0,1,3.6-.72A3.48,3.48,0,0,1,149.26,31.7Z"></path><path class="cls-2" d="M19.55,55.57l.68,0a12.17,12.17,0,0,0,3.56,1.25c.32.34.93.26,1.13.78a.29.29,0,0,0,.39.27c3.89,1.21,7,3.89,10.58,5.66,1.27.63,2.87.73,3.82,1.83,2.46,2.85,6.06,4,9.14,5.74,2.46,1.39,5,2.8,7.63,4a4.21,4.21,0,0,1,2,4.85c-.64,1.49-2,2-4.13,1.29A11,11,0,0,1,50,79.14c-1.08-1-2.6-1-3.79-1.76-4.12-2.58-8.35-5-12.63-7.29-3.82-2-7.26-4.66-11.19-6.41a22.06,22.06,0,0,1-3.95-2c-.07-.66-.58-.65-1.06-.67A1.39,1.39,0,0,1,17,60c0-1.61-.16-3.29,1.92-3.89C19.16,56.07,19.34,55.77,19.55,55.57Z"></path><path class="cls-2" d="M71.52,148.43c0-1.83,0-3.59,1.09-5.29.26-.39-.33-2-.1-2.95.65-2.65.13-5.6,2-7.91.24-.28.07-.58.16-.8.48-1.18,1.23-2.46,2.59-2.27a2.73,2.73,0,0,1,2.6,2.31,6.77,6.77,0,0,1,.19,2.61c-.81,3.25-.38,6.61-.76,9.91-.16,1.42-.79,2.6-1,3.94-.47,2.85-.13,5.74-.73,8.57-.51,2.43-.07,5.1-.84,7.32-.84,2.41.1,5.12-1.72,7.31-1.32,1.59-2.8,2.31-4.45,1.5-2.22-1.08-2.63-2.19-1.72-4.54a.88.88,0,0,0,.1-.34c-.31-2.83,1.15-5.5,1-8.23-.13-1.8.71-3.28.73-5C70.67,152.52,71.61,150.54,71.52,148.43Z"></path><path class="cls-2" d="M20.56,132.62l-.83.47a1.24,1.24,0,0,0-1.3.21c-1.84,1.22-2.79.57-3.68-1.39-.68-1.52,0-2.41.5-3.53,2.43-1.71,5.34-2.53,7.83-4.12s5.45-2.52,8.09-3.92c5-2.63,10.23-4.64,15.13-7.42,2.25-1.28,4.93-1.8,7.42-2.64,1.4-.48,2.18.59,2.73,1.47a3.22,3.22,0,0,1-.27,3.53c-1.1,1.73-3.07,2.06-4.67,2.81-4.08,1.91-8,4-12.26,5.67-2.16.84-4,2.48-6.28,3.19-1.46.47-2.57,1.52-3.95,2.09-.64-.11-.23-1.21-.78-1.07-.71.18-.42,1-.41,1.52l-.6-.1c-.3-.07-.44.06-.44.35l-.49.64-.28.16c-.51.12-.92.77-1.53.27-.55,0-.54.45-.68.78l-.62.29C22.24,131.84,21.26,131.72,20.56,132.62Z"></path><path class="cls-2" d="M117.86,124.93a8.92,8.92,0,0,1,3.34,3.47c1.57,3.12,4.92,4.68,6.82,7.47,1.64,2.38,3.9,4.19,5.49,6.63a57.12,57.12,0,0,0,5.16,6.09.64.64,0,0,0,.68.64l0,0c-.08.89.39,1.12,1.17,1a.17.17,0,0,1,.15.19c-.22,1.41.69,2.38,1.33,3.47l-.22,1c-1.08,0-1,.77-.92,1.52h0c-.38-.05-.69,0-.81.44-1.56.66-2.67.24-3.81-1.08s-2.82-2.3-3.78-3.58c-1.57-2.09-3.71-3.76-4.84-6.11-.82-1.71-2.37-2.61-3.54-3.9-2.17-2.39-4.18-4.91-6.42-7.25a45,45,0,0,1-6.8-8.88,11.13,11.13,0,0,1-.3-2.26c.14-2.16,1.93-2,3.41-2.32.42,0,.63.33.85.61.09.51,0,1.18.87,1,.68.11.9.75,1.33,1.14C117.08,124.74,117.36,125,117.86,124.93Z"></path><path class="cls-2" d="M91.53,38.33l-.08.63.4,1.63,0,.44c0,.83-.59,1.74.4,2.39l.07.63c-1,.72,0,1.46,0,2.18l-.06,1.16c-.27.48,0,.64.41.72l0,.7c-.36.36-.1.55.21.72,0,.29,0,.58.08.88-.17.39-.19.73.25,1l.28,1c-.32.22-.34.45,0,.7,0,.6.63,1.11.3,1.77-.88.61-.81,1.22,0,1.83a1.66,1.66,0,0,1-.49,1.4,1.27,1.27,0,0,0-1.42.81c-.38.77-1.36,1.06-1.82.62-.63-.59-1.66-.73-1.93-1.74-.35-1.32-.95-2.6-.52-4,.28-.91-.21-1-.93-1l0-.36c.87-.7.11-1.49,0-2.1-.36-1.37-.39-2.86-1.22-4.09,0-.66.07-1.31.1-2a2.8,2.8,0,0,0-.28-2.7l-.07-.9c.19-.63.43-1.27-.37-1.67a1.56,1.56,0,0,1,.13-1.33c.54-1.25-.5-2.18-.66-3.3l0-.75c.66-.77,0-1.66.24-2.52a4.13,4.13,0,0,0-1-3.64c0-.58-.08-1.17-.13-1.76,1.4-3,.73-6.11.27-9.19l.25-.57c.83.23,1-.56,1.33-.95A2.2,2.2,0,0,1,88,14.48a3.58,3.58,0,0,1,2.32,3.6c0,1-.34,2,.39,2.92a7.38,7.38,0,0,1-.12,3.24,1.67,1.67,0,0,0-.45,1.57,49.74,49.74,0,0,1,.93,8.61l0,.53c-.24,1,.18,2-.22,3C90.75,38.33,91.24,38.32,91.53,38.33Z"></path><path class="cls-2" d="M140,96.7H134.7a4.87,4.87,0,0,1-1.08-.07c-2-.41-3.6-1.74-3.64-3-.06-2.21,1.75-2.49,3.21-3,1.87-.72,3.89-.48,5.84-.7a22.8,22.8,0,0,1,4.92-.36c2.8.3,5.49-.49,8.26-.48s5.76-.5,8.64-.58a19.26,19.26,0,0,1,5.42.49c1.46.4,1.93,1.9,1.84,3.38a3.94,3.94,0,0,1-4.73,3.39,5.69,5.69,0,0,0-3.51,0c-1,.36-2.09,0-2.91.2-3.62.86-7.39-.5-10.92.94-.27.11-.71.24-.87.11C143.39,95.49,141.49,97.21,140,96.7Z"></path><path class="cls-2" d="M71.87,63c0,3-1.85,4.06-4.27,3.21-1.94-.68-2.7-2.08-3.56-3.68s-1.89-3.49-3-5.17c-1.66-2.57-3.43-5.12-2.67-8.58a2.9,2.9,0,0,1,2.53-2.35c1-.17,1.93.52,2.55,1.75,1.88,3.68,4,7.21,6.07,10.8C70.36,60.44,71.2,61.87,71.87,63Z"></path><path class="cls-2" d="M107.69,51a9,9,0,0,1-.69,2.76,2.68,2.68,0,0,0-1,3.45,1.54,1.54,0,0,1-.37,1.24,6.26,6.26,0,0,0-1,.26c.27,2.56-1.63,2.22-3.15,2.37a1.57,1.57,0,0,1-1-.64L99.93,59c0-.54-.63-.92-.43-1.53.56-1.06.21-2.12,0-3.18a1.41,1.41,0,0,1,.18-1.06,3.67,3.67,0,0,0,.69-2.27h0c1-.31,1.56-.51,1.32-2s1.15-3.14,1.2-4.88l.3-1.31c.53-.31.92-.91,1.69-.77.37.06.71.09.75-.62,0-.91,1.44-1.27,1.83-.47s1,.72,1.58.73l.71.42c-.21.19-.62.54-.61.56,1,1.28,0,2.67.26,4,0,1.25-1,2.16-1.29,3.31A1,1,0,0,0,107.69,51Z"></path><path class="cls-2" d="M45.2,101.11a17.18,17.18,0,0,1-8.34,0c-.75-.2-1.6-.32-1.78-1.25s.42-1.31,1-1.8c2.71-2.35,6-3,9.43-3.83a11.16,11.16,0,0,1,5-.34,2.73,2.73,0,0,1,2.34,2.32c.33,1.51-.29,3.05-1.67,3.3C49.16,99.87,47.55,101.65,45.2,101.11Z"></path><path class="cls-2" d="M136.13,68.17a3.3,3.3,0,0,1,3.21,1.5,2.53,2.53,0,0,1-.24,3.08,18.23,18.23,0,0,1-9.89,7,3.05,3.05,0,0,1-3.39-1.18c-.75-1-.21-2.28.82-3.16.36-.31.62-.74,1-1.07,2.19-2.2,4.9-3.75,7.22-5.79A1.7,1.7,0,0,1,136.13,68.17Z"></path><path class="cls-2" d="M98.44,128.78a2.22,2.22,0,0,1,2.31,1.29c1.38,2.21,1.42,4.8,2.16,7.19a9.27,9.27,0,0,1,0,4.41,1.64,1.64,0,0,1-2.65,1.26,9.39,9.39,0,0,1-4.76-7.53A23.32,23.32,0,0,1,95.2,132,3.4,3.4,0,0,1,98.44,128.78Z"></path><path class="cls-2" d="M135.91,116.69a18.76,18.76,0,0,1-9.52-3.85,2.34,2.34,0,0,1-.7-3.07c.71-1.21,1.92-2.32,3.32-1.72,2.73,1.18,5.87,1,8.4,3,1.44,1.17,2.14,2,1.65,3.8C138.6,116.46,137.46,116.83,135.91,116.69Z"></path><path class="cls-2" d="M68.34,124.15c-.78,2.47-1.41,5.55-4.38,7.4-1,.65-1.81,1.69-3.2,1.79a1.67,1.67,0,0,1-2-1.18c-.5-1.47-.77-3,.37-4.27,1.72-1.86,3-4,4.52-6a2.83,2.83,0,0,1,3.22-.93C68,121.32,68.44,122.41,68.34,124.15Z"></path><path class="cls-3" d="M114,121.49c-1.48.28-3.27.16-3.41,2.32a11.13,11.13,0,0,0,.3,2.26,2.07,2.07,0,0,1-1.25-2.17c.06-1.23-.68-1-1.34-1,.34-.9.73-1.66,1.94-1.64s1-1.52,2-1.77c-.38.8-.38,1.47.75,1.41A1.05,1.05,0,0,1,114,121.49Zm-4.26,1.15-.11-.12a.88.88,0,0,0-.12.21s.07.07.1.1Z"></path><path class="cls-3" d="M86.68,52.77c.72,0,1.21.11.93,1-.43,1.41.17,2.69.52,4,.27,1,1.3,1.15,1.93,1.74.46.44,1.44.15,1.82-.62a1.27,1.27,0,0,1,1.42-.81c-.59,1.06-.82,2.51-2.56,2.3-1.94-.23-3-1.51-3.52-3.63C86.92,55.44,87.39,54,86.68,52.77Z"></path><path class="cls-3" d="M90.73,21c-.73-.89-.36-1.94-.39-2.92A3.58,3.58,0,0,0,88,14.48a2.2,2.2,0,0,0-2.73.49c-.38.39-.5,1.18-1.33.95-.33-.55,0-.7.43-1.06,2.82-2.1,5.87-.83,6.31,2C90.9,18.22,91.74,19.63,90.73,21Z"></path><path class="cls-3" d="M15.25,128.38c-.53,1.12-1.18,2-.5,3.53.89,2,1.84,2.61,3.68,1.39a1.24,1.24,0,0,1,1.3-.21,4.33,4.33,0,0,1-3.36,1.28A2.71,2.71,0,0,1,13.66,132C13.47,130.55,13.46,129,15.25,128.38Z"></path><path class="cls-3" d="M83.71,16.49c.46,3.08,1.13,6.17-.27,9.19a10.64,10.64,0,0,1,.11-4.6c.44-1.22-.43-2.3-.21-3.48C83.42,17.2,83.27,16.76,83.71,16.49Z"></path><path class="cls-3" d="M109.06,41.58c-.63,0-1.17.12-1.58-.73s-1.78-.44-1.83.47c0,.71-.38.68-.75.62-.77-.14-1.16.46-1.69.77.05-1.91,1.5-2.55,3-2.75C107.3,39.81,108.82,39.77,109.06,41.58Z"></path><path class="cls-3" d="M91.09,34.42a49.74,49.74,0,0,0-.93-8.61,1.67,1.67,0,0,1,.45-1.57c.29,2.36.62,4.71.83,7.07C91.53,32.35,92.34,33.52,91.09,34.42Z"></path><path class="cls-3" d="M102.91,44c0,1.74-1.45,3.3-1.2,4.88s-.35,1.7-1.32,2C101.25,48.62,101.69,46.18,102.91,44Z"></path><path class="cls-3" d="M83.57,27.44a4.13,4.13,0,0,1,1,3.64c-.2.86.42,1.75-.24,2.52A20.62,20.62,0,0,1,83.57,27.44Z"></path><path class="cls-3" d="M101.48,61.09c1.52-.15,3.42.19,3.15-2.37a6.26,6.26,0,0,1,1-.26C105.09,61.2,103.61,62.15,101.48,61.09Z"></path><path class="cls-3" d="M85.39,46.22c.83,1.23.86,2.72,1.22,4.09.16.61.92,1.4,0,2.1A25.14,25.14,0,0,1,85.39,46.22Z"></path><path class="cls-3" d="M19.55,55.57c-.21.2-.39.5-.65.57C16.82,56.74,17,58.42,17,60c-1.11-1.38-1-2.88.54-3.72A3.34,3.34,0,0,1,19.55,55.57Z"></path><path class="cls-3" d="M106,57.22a2.68,2.68,0,0,1,1-3.45C106.73,55,106.85,56.24,106,57.22Z"></path><path class="cls-3" d="M109.42,46.55c-.24-1.32.73-2.71-.26-4,0,0,.4-.37.61-.56C110.25,43.56,110.76,45.13,109.42,46.55Z"></path><path class="cls-3" d="M142,153.91c-.64-1.09-1.55-2.06-1.33-3.47.64.73.74,1.8,1.6,2.43C142.66,153.12,142.35,153.61,142,153.91Z"></path><path class="cls-3" d="M91.53,38.33c-.29,0-.78,0-.64-.36.4-1,0-2,.22-3A3.64,3.64,0,0,1,91.53,38.33Z"></path><path class="cls-3" d="M23.79,56.77a12.17,12.17,0,0,1-3.56-1.25A3.71,3.71,0,0,1,23.79,56.77Z"></path><path class="cls-3" d="M84.24,34.35c.16,1.12,1.2,2,.66,3.3C84.73,36.54,83.41,35.66,84.24,34.35Z"></path><path class="cls-3" d="M20.56,132.62c.7-.9,1.68-.78,2.63-.74C22.37,132.31,21.7,133.29,20.56,132.62Z"></path><path class="cls-3" d="M99.52,54.24c.19,1.06.54,2.12,0,3.18C99.43,56.36,99,55.3,99.52,54.24Z"></path><path class="cls-3" d="M27.83,129.49c0-.56-.3-1.34.41-1.52.55-.14.14,1,.78,1.07C28.68,129.35,28.43,129.89,27.83,129.49Z"></path><path class="cls-3" d="M93.79,56.71c-.8-.61-.87-1.22,0-1.83C93.84,55.49,94.22,56.11,93.79,56.71Z"></path><path class="cls-3" d="M92.34,46.23c0-.72-1-1.46,0-2.18C92.53,44.78,92.87,45.51,92.34,46.23Z"></path><path class="cls-3" d="M92.29,43.42c-1-.65-.43-1.56-.4-2.39A2.71,2.71,0,0,1,92.29,43.42Z"></path><path class="cls-3" d="M81.31,65.15a2.72,2.72,0,0,1-2.56.61C79.48,65.06,80.46,65.37,81.31,65.15Z"></path><path class="cls-3" d="M100.39,50.91a3.67,3.67,0,0,1-.69,2.27A2.78,2.78,0,0,1,100.39,50.91Z"></path><path class="cls-3" d="M78.09,65.92c0,.42.71.9.08,1.24s-.9-.07-.86-.71C77.45,66.1,77.64,65.82,78.09,65.92Z"></path><path class="cls-3" d="M99.93,59l.57,1.5C99.82,60.13,99.19,59.8,99.93,59Z"></path><path class="cls-3" d="M140.9,156.44c-.1-.75-.16-1.48.92-1.52A1.43,1.43,0,0,1,140.9,156.44Z"></path><path class="cls-3" d="M85.21,41.55a2.8,2.8,0,0,1,.28,2.7C85.4,43.35,85.31,42.45,85.21,41.55Z"></path><path class="cls-3" d="M140.56,150.25c-.78.13-1.25-.1-1.17-1A1.41,1.41,0,0,1,140.56,150.25Z"></path><path class="cls-3" d="M84.77,39c.8.4.56,1,.37,1.67C84.61,40.18,84.86,39.54,84.77,39Z"></path><path class="cls-3" d="M91.85,40.59,91.45,39A1.29,1.29,0,0,1,91.85,40.59Z"></path><path class="cls-3" d="M17.42,61c.48,0,1,0,1.06.67A.87.87,0,0,1,17.42,61Z"></path><path class="cls-3" d="M115.74,123.08c-.88.2-.78-.47-.87-1C115.46,122.17,115.37,122.83,115.74,123.08Z"></path><path class="cls-3" d="M107.69,51a1,1,0,0,1,.44-1.15A.94.94,0,0,1,107.69,51Z"></path><path class="cls-3" d="M23.81,131.59c.14-.33.13-.8.68-.78C24.35,131.15,24.47,131.71,23.81,131.59Z"></path><path class="cls-3" d="M112.29,119.45c0-.58.38-.68.87-.54C113,119.35,112.57,119.26,112.29,119.45Z"></path><path class="cls-3" d="M93.5,53.11c-.31-.25-.29-.48,0-.7C93.71,52.65,93.78,52.89,93.5,53.11Z"></path><path class="cls-3" d="M106.62,124c.06-.56.21-1,.88-.53Z"></path><path class="cls-3" d="M93.25,51.37c-.44-.23-.42-.57-.25-1A.78.78,0,0,1,93.25,51.37Z"></path><path class="cls-3" d="M105.77,124.4a.64.64,0,0,1,.85-.44C106.5,124.41,106.16,124.45,105.77,124.4Z"></path><path class="cls-3" d="M117.86,124.93c-.5,0-.78-.19-.79-.71C117.48,124.29,117.81,124.46,117.86,124.93Z"></path><path class="cls-3" d="M105.07,125.07l.56-.52C105.63,124.93,105.68,125.35,105.07,125.07Z"></path><path class="cls-3" d="M92.92,49.53c-.31-.17-.57-.36-.21-.72C93,49,93.1,49.22,92.92,49.53Z"></path><path class="cls-3" d="M92.69,48.11c-.41-.08-.68-.24-.41-.72C92.55,47.55,92.85,47.7,92.69,48.11Z"></path><path class="cls-3" d="M139.35,149.23a.64.64,0,0,1-.68-.64A.69.69,0,0,1,139.35,149.23Z"></path><path class="cls-3" d="M140.1,156.87c.12-.42.43-.49.81-.44C140.83,156.93,140.47,156.92,140.1,156.87Z"></path><path class="cls-3" d="M114.49,117.65l.21-.27C114.78,117.59,114.72,117.68,114.49,117.65Z"></path><path class="cls-3" d="M113.93,118.29c-.12-.28-.07-.46.26-.51Z"></path><path class="cls-3" d="M25.31,57.82a.29.29,0,0,1-.39-.27Z"></path><path class="cls-3" d="M26.79,129.74c0-.29.14-.42.44-.35Z"></path><path class="cls-3" d="M26,130.54l.28-.16C26.3,130.58,26.21,130.66,26,130.54Z"></path><path class="cls-1" d="M82.37,71.48l1-.29a.72.72,0,0,0,1-.21c3.68-2.15,7.42-.69,11.13-.14,1.35.19,2.65.73,4,.89,2,.23,3.32,1.6,4.91,2.49,6.07,3.38,9.46,8.94,11.4,15.29a13.91,13.91,0,0,1,.52,7.15c-.37,1.64-.24,3.38-.71,5.07-1.7,6.2-4.78,11.38-10.28,15a13.64,13.64,0,0,1-4.56,2.23,1.82,1.82,0,0,0-.94.49c-1.6,1.78-3.67,1.19-5.67,1.42a24.63,24.63,0,0,1-5.56,0,25.36,25.36,0,0,1-15.62-7,27.15,27.15,0,0,1-5.91-8.22c-1.1-2.54-1.32-5.46-1.66-8.31a27.35,27.35,0,0,1,.42-8.21,14.48,14.48,0,0,1,2-6,68.2,68.2,0,0,1,5.87-6.9c1.56-1.61,3.72-2.12,5.3-3.57C80.44,73.05,81.21,71.75,82.37,71.48Z"></path><path class="cls-3" d="M82.37,71.48c-1.16.27-1.93,1.57-3.31,1.21A3.27,3.27,0,0,1,82.37,71.48Z"></path><path class="cls-3" d="M84.37,71a.72.72,0,0,1-1,.21A.63.63,0,0,1,84.37,71Z"></path><path class="cls-1" d="M109.76,122.64l-.13.19s-.1-.08-.1-.1a.88.88,0,0,1,.12-.21Z"></path></svg>