<svg xmlns="http://www.w3.org/2000/svg" id="Layer_1" data-name="Layer 1" viewBox="0 0 181 181"><defs><style>.cls-1{fill:#fff;}.cls-2{fill:#0e0e0e;}.cls-3{fill:#5b5b5b;}</style></defs><path class="cls-1" d="M0,181Q0,91.32,0,1.66C0,.31.3,0,1.66,0Q90.51.06,179.34,0c1.35,0,1.66.3,1.66,1.66q-.06,88.85,0,177.68c0,1.35-.3,1.66-1.66,1.66Q89.68,180.94,0,181ZM149.16,78.08c-3.11-3.74-7.19-6.6-10.11-10.45-1.87-2.47-5.07-3.54-6.28-6.63a4.62,4.62,0,0,0-2.36-2.31,4.29,4.29,0,0,1-2.11-2,8,8,0,0,0-1.46-1.77c-3.29-3.08-6.41-6.33-9.59-9.53-1.13-1.14-2.55-1.91-3.54-3.13a68.49,68.49,0,0,0-7.88-8.63c-2-1.69-3.62-3.75-5.49-5.56-2.1-2-4.35-3.94-6.41-6a3.56,3.56,0,0,0-3.66-1.21,2.88,2.88,0,0,0-1.52,3.45A5.41,5.41,0,0,0,90,27.22c1.58,1.52,2.54,3.64,4.57,4.72.42.22.67.66.34,1-1.11,1.27-1.05,3.19-2,4.33-2.65,3.14-2.76,7.24-4.47,10.74a35.37,35.37,0,0,0-2.78,10C84.8,63.2,84.44,68.33,84,73.47c-.08.88-.51,1.85-.25,2.6,1.26,3.61.34,7.32.6,11,.22,3.18.82,6.27,1.22,9.4l.06,1.47-.07.7c-.29.2-.23.49-.18.78l0,.7c-.36.44-.67.88-.11,1.4.16.47,0,1,.42,1.44-.16.6.18.9.68,1.11a3.73,3.73,0,0,0,.24,1.81l-.1.4v.65c-.07.22,0,.3.23.28l.4.45.25.44,0,.66c-.59,1.59.09,2.85,1,4a.35.35,0,0,0,.1.26,3.21,3.21,0,0,0,.61,2.28l.22.58a2,2,0,0,0,.57,1.85,3,3,0,0,0,.68,1.47,3.1,3.1,0,0,0,.9,1.64l.64.85c.19.61.15,1.31.69,1.78l.1.43a2,2,0,0,0,1.3,2.18l.41.67c0,.44.28.66.56.9l.24.52c0,.43.09.75.56.84,1.26,1.49,2.49,3,3.8,4.46s1.47,2.77.21,3.85c-2.47,2.13-5,4.15-7.42,6.39-.93.88-2.35,1.39-2.73,2.74A3.71,3.71,0,0,1,88,148.74a5.31,5.31,0,0,0-2.77,3.48,2.91,2.91,0,0,1-.88,1.33c-2,1.66-2.3,3.83-2.38,6.24-.08,2.2.69,3.1,2.86,3.63,1.88.46,4-.77,4.23-2.61.43-3.87,3.41-6.16,5.42-9A36.77,36.77,0,0,1,99,147.07c2.51-2.43,5.5-4.32,8.2-6.52a37.9,37.9,0,0,1,6.85-5c.52-.27,1.23-.42,1.52-.85,1.61-2.41,4.36-3.26,6.57-4.83a42.35,42.35,0,0,1,4-2.54c2-1.13,4.09-2.23,6.13-3.36,3.48-1.93,6.91-4,10.37-5.93.34-.09.73-.11.81-.57a.8.8,0,0,0,.29-.15.3.3,0,0,0,.44-.2l1.37-.9a3.56,3.56,0,0,0,3.58-1.34l.73-.45c2.08-.66,4.27-1.07,5.88-2.73l1-.89a19.07,19.07,0,0,0,5.8-1.4c1.28-.61,2.15-1.93,3.68-2.05a.38.38,0,0,0,.3-.1c.24.07.36,0,.41-.27l.67-.46a.33.33,0,0,0,.44-.25.29.29,0,0,0,.26-.15,1.68,1.68,0,0,0,1.93-1.42c.2-1,.89-2-.46-2.76-.53-.67-1.6-1.1-1.52-2,.18-2.37-1.33-3.59-2.93-4.81-.29-.5-.26-1.22-1-1.39l-.39-.44a3.32,3.32,0,0,0-1.37-1.48l-.34-.37a9.41,9.41,0,0,0-2.6-2.77l-.67-.47a14.11,14.11,0,0,1-1.85-2.08,18.83,18.83,0,0,0-4.7-4.68l-2.72-2.2C149.55,78.8,149.81,78.23,149.16,78.08ZM67,88.76c-1.75.52-3.37-.22-5,.1a27,27,0,0,1-5.78.68,46.74,46.74,0,0,0-7.92.31c-3.43.48-7,.09-10.48,0-2.73-.07-5.45-1-8.18.14a2.3,2.3,0,0,1-1.59-.06,9.8,9.8,0,0,0-4.78-.09,2.56,2.56,0,0,0-2.4,1.88c-.18.86-.18,2.07.68,2.43,1.83.77,3.52,2.13,5.52,2.23,4.06.2,8,1.35,12.18.63,2.23-.39,4.6.11,6.85,0,2.47-.06,5-.09,7.46-.22,2.12-.12,4.27-.17,6.41-.22,3.5-.08,7-.36,10.49-.57.72,0,1,.42.57.84-2,2.13-3.15,4.86-4.87,7.2-1.89,2.58-3.72,5.21-5.53,7.84-.57.83-1,1.77-1.49,2.64-1.47,2.58-3.92,4.59-4.39,7.75-.14,1-.08,2.21.63,2.64,1.09.66,2.35,1.83,3.85.7A11.78,11.78,0,0,0,62.07,123c2.67-4,5.52-7.9,8.11-12,.91-1.42,2.28-2.45,2.95-4.08a29.59,29.59,0,0,1,6.43-9.35c3-3.07,3.19-8.17-1.76-9.34a5.11,5.11,0,0,1-2.21-1.5c-1.81-1.68-2.84-3.94-4.51-5.73-2.48-2.67-4.24-5.89-6.42-8.79-1.51-2-2.55-4.35-4.36-6.17-1.11-1.12-2.24-1.74-3.8-1s-2.13,3.15-1.41,5.29a28.47,28.47,0,0,0,5.78,9.3A46,46,0,0,1,67,88.76Z"></path><path class="cls-2" d="M85.7,102.93c-.4-.41-.26-1-.42-1.44s.52-.9.11-1.4l0-.7c.25,0,.54,0,.56-.26s-.24-.35-.38-.52l.07-.7c.74-.52.5-1-.06-1.47-.4-3.13-1-6.22-1.22-9.4-.26-3.65.66-7.36-.6-11-.26-.75.17-1.72.25-2.6.46-5.14.82-10.27,1.63-15.4a35.37,35.37,0,0,1,2.78-10c1.71-3.5,1.82-7.6,4.47-10.74,1-1.14.9-3.06,2-4.33.33-.38.08-.82-.34-1-2-1.08-3-3.2-4.57-4.72a5.41,5.41,0,0,1-1.21-2.94,2.88,2.88,0,0,1,1.52-3.45A3.56,3.56,0,0,1,93.93,22c2.06,2.07,4.31,4,6.41,6,1.87,1.81,3.52,3.87,5.49,5.56a68.49,68.49,0,0,1,7.88,8.63c1,1.22,2.41,2,3.54,3.13,3.18,3.2,6.3,6.45,9.59,9.53a8,8,0,0,1,1.46,1.77,4.29,4.29,0,0,0,2.11,2A4.62,4.62,0,0,1,132.77,61c1.21,3.09,4.41,4.16,6.28,6.63,2.92,3.85,7,6.71,10.11,10.45,0,.47,0,.92.51,1.11l2.72,2.2c.62.73,0,2,1.28,2.5a5.43,5.43,0,0,1,2.76,2.38,3.08,3.08,0,0,0,2.51,1.88l.67.47a4.16,4.16,0,0,0,2.6,2.77l.34.37c0,.89.61,1.27,1.37,1.48l.39.44c.14.6.24,1.23,1,1.39,1.6,1.22,3.11,2.44,2.93,4.81-.08.93,1,1.36,1.52,2,1,1.91-.24,3-1.47,4.18a.29.29,0,0,1-.26.15.33.33,0,0,0-.44.25l-.67.46a.33.33,0,0,0-.41.27.38.38,0,0,1-.3.1,3.21,3.21,0,0,0-3.14.75c-1.1,1.27-2.59,1.5-4,1.85-.82.2-1.72,0-2.31.85l-1,.89c-2,.78-4.14,1.35-5.88,2.73l-.73.45c-1.36,0-2.42.81-3.58,1.34l-1.37.9a.32.32,0,0,0-.44.2.8.8,0,0,1-.29.15c-.43,0-.73.11-.81.57-3.46,2-6.89,4-10.37,5.93-2,1.13-4.11,2.23-6.13,3.36a42.35,42.35,0,0,0-4,2.54c-2.21,1.57-5,2.42-6.57,4.83-.29.43-1,.58-1.52.85a37.9,37.9,0,0,0-6.85,5c-2.7,2.2-5.69,4.09-8.2,6.52a36.77,36.77,0,0,0-4.51,4.78c-2,2.8-5,5.09-5.42,9-.2,1.84-2.35,3.07-4.23,2.61-2.17-.53-2.94-1.43-2.86-3.63.08-2.41.42-4.58,2.38-6.24a2.91,2.91,0,0,0,.88-1.33A5.31,5.31,0,0,1,88,148.74a3.71,3.71,0,0,0,1.88-2.27c.38-1.35,1.8-1.86,2.73-2.74,2.37-2.24,5-4.26,7.42-6.39,1.26-1.08,1.12-2.37-.21-3.85s-2.54-3-3.8-4.46c0-.39-.06-.77-.56-.84l-.24-.52c.23-.56-.08-.78-.56-.9l-.41-.67c-.07-.95-.81-1.49-1.3-2.18l-.1-.43c-.08-.65.26-1.47-.69-1.78l-.64-.85c.36-.91.15-1.5-.9-1.64a3,3,0,0,1-.68-1.47c-.11-.64.21-1.41-.57-1.85l-.22-.58c-.33-.73.84-1.85-.61-2.28a.35.35,0,0,1-.1-.26c0-1.42.11-2.9-1-4l0-.66a.31.31,0,0,0-.25-.44l-.4-.45c0-.19,0-.3-.23-.28v-.65c.29-.07.34-.2.1-.4a3.73,3.73,0,0,1-.24-1.81C86.88,103.22,86.29,103.07,85.7,102.93Zm55.94-22.06c.05-.21,0-.33-.25-.34l-.14-.33c-.75-1-.86-2.53-2.56-2.51a30.22,30.22,0,0,0-5.38-5.22,6.37,6.37,0,0,1-1.26-1.28,48.21,48.21,0,0,0-5.25-6c-1.06-1-2.35-1.76-3.36-2.9a45.23,45.23,0,0,0-6.06-6.24c-.24-1.31-.61-2.5-2.44-2.52l1.74,2.84c1,2.75,1.83,5.56,2.87,8.3,1.27,3.33,1.55,6.91,2,10.44.18,1.44,1.3,2.92,1.07,4.23-.58,3.42.92,6.63.57,10-.11,1.11-.23,2.25-.28,3.38-.18,4.21.34,8.44-.35,12.64-.25,1.51-1,3-1,4.46.07,3.22-1,6.07-1.89,9a12.43,12.43,0,0,0-1,3.12c0,.34-.29.73,0,1s.68,0,1-.17c2.13-1.39,4.38-2.57,6.58-3.85,2.59-1.49,5.12-3.08,7.78-4.44a9.09,9.09,0,0,1,1.91-.28c1,.06.38-.61.52-.93.68-.9,1.88-.73,2.76-1.44,2.34-1.88,5.32-2.71,7.89-4.32,1.44-.92,3.45-1.2,5.07-1.9,2.73-1.17,5.45-2.35,8.27-3.28,1-.33,1.18-.62.48-1.57-2.67-3.57-6.14-6.34-9.2-9.51-1.05-1.09-1.67-2.74-2.88-3.52-2.59-1.67-4.13-4.34-6.53-6.14a.63.63,0,0,0-.68-.74Zm-33.19-7.12c1.41.34,2-.72,2.88-1,2-.75,2.78-1.1,2-3.91-1.08-3.85-2.27-7.72-3.17-11.65-.16-.7-.33-2.08-1.4-2.19-.6-.07-1.09.82-1.36,1.52-1.46,3.81-3,7.57-3.15,11.77,0,1.87,1,3.21,1.72,4.73A1.75,1.75,0,0,0,108.45,73.75Z"></path><path class="cls-2" d="M67,88.76a46,46,0,0,0-6.12-9.14,28.47,28.47,0,0,1-5.78-9.3c-.72-2.14-.15-4.57,1.41-5.29s2.69-.11,3.8,1c1.81,1.82,2.85,4.15,4.36,6.17,2.18,2.9,3.94,6.12,6.42,8.79,1.67,1.79,2.7,4,4.51,5.73a5.11,5.11,0,0,0,2.21,1.5c5,1.17,4.74,6.27,1.76,9.34a29.59,29.59,0,0,0-6.43,9.35c-.67,1.63-2,2.66-2.95,4.08-2.59,4-5.44,7.94-8.11,12a11.78,11.78,0,0,1-2.84,2.71c-1.5,1.13-2.76,0-3.85-.7-.71-.43-.77-1.63-.63-2.64.47-3.16,2.92-5.17,4.39-7.75.51-.87.92-1.81,1.49-2.64,1.81-2.63,3.64-5.26,5.53-7.84C67.88,101.75,69,99,71,96.89c.41-.42.15-.88-.57-.84-3.5.21-7,.49-10.49.57-2.14,0-4.29.1-6.41.22-2.48.13-5,.16-7.46.22-2.25.06-4.62-.44-6.85,0-4.14.72-8.12-.43-12.18-.63-2-.1-3.69-1.46-5.52-2.23-.86-.36-.86-1.57-.68-2.43a2.56,2.56,0,0,1,2.4-1.88,9.8,9.8,0,0,1,4.78.09,2.3,2.3,0,0,0,1.59.06c2.73-1.18,5.45-.21,8.18-.14,3.5.09,7,.48,10.48,0a46.74,46.74,0,0,1,7.92-.31A27,27,0,0,0,62,88.86C63.62,88.54,65.24,89.28,67,88.76Z"></path><path class="cls-3" d="M158.94,88.15a3.08,3.08,0,0,1-2.51-1.88,5.43,5.43,0,0,0-2.76-2.38c-1.26-.47-.66-1.77-1.28-2.5a18.83,18.83,0,0,1,4.7,4.68A14.11,14.11,0,0,0,158.94,88.15Z"></path><path class="cls-3" d="M156.72,110.77c.59-.8,1.49-.65,2.31-.85,1.44-.35,2.93-.58,4-1.85a3.21,3.21,0,0,1,3.14-.75c-1.53.12-2.4,1.44-3.68,2.05A19.07,19.07,0,0,1,156.72,110.77Z"></path><path class="cls-3" d="M149.86,114.39c1.74-1.38,3.86-2,5.88-2.73C154.13,113.32,151.94,113.73,149.86,114.39Z"></path><path class="cls-3" d="M87.43,108.73c1.15,1.15,1,2.63,1,4C87.52,111.58,86.84,110.32,87.43,108.73Z"></path><path class="cls-3" d="M168.28,106.09c1.23-1.13,2.44-2.27,1.47-4.18,1.35.72.66,1.81.46,2.76A1.68,1.68,0,0,1,168.28,106.09Z"></path><path class="cls-3" d="M145.55,116.18c1.16-.53,2.22-1.34,3.58-1.34A3.56,3.56,0,0,1,145.55,116.18Z"></path><path class="cls-3" d="M162.21,91.39a4.16,4.16,0,0,1-2.6-2.77A9.41,9.41,0,0,1,162.21,91.39Z"></path><path class="cls-3" d="M93,123.92c.49.69,1.23,1.23,1.3,2.18A2,2,0,0,1,93,123.92Z"></path><path class="cls-3" d="M88.57,113c1.45.43.28,1.55.61,2.28A3.21,3.21,0,0,1,88.57,113Z"></path><path class="cls-3" d="M90.65,119.22c1,.14,1.26.73.9,1.64A3.1,3.1,0,0,1,90.65,119.22Z"></path><path class="cls-3" d="M163.92,93.24c-.76-.21-1.34-.59-1.37-1.48A3.32,3.32,0,0,1,163.92,93.24Z"></path><path class="cls-3" d="M85.7,102.93c.59.14,1.18.29.68,1.11C85.88,103.83,85.54,103.53,85.7,102.93Z"></path><path class="cls-3" d="M85.55,96.44c.56.47.8,1,.06,1.47Z"></path><path class="cls-3" d="M165.3,95.07c-.75-.16-.85-.79-1-1.39C165,93.85,165,94.57,165.3,95.07Z"></path><path class="cls-3" d="M89.4,115.9c.78.44.46,1.21.57,1.85A2,2,0,0,1,89.4,115.9Z"></path><path class="cls-3" d="M92.19,121.71c1,.31.61,1.13.69,1.78C92.34,123,92.38,122.32,92.19,121.71Z"></path><path class="cls-3" d="M85.39,100.09c.41.5-.14.93-.11,1.4C84.72,101,85,100.53,85.39,100.09Z"></path><path class="cls-3" d="M149.67,79.19c-.55-.19-.55-.64-.51-1.11C149.81,78.23,149.55,78.8,149.67,79.19Z"></path><path class="cls-3" d="M85.54,98.61c.14.17.4.36.38.52s-.31.3-.56.26C85.31,99.1,85.25,98.81,85.54,98.61Z"></path><path class="cls-3" d="M142.64,118c.08-.46.38-.6.81-.57C143.37,117.89,143,117.91,142.64,118Z"></path><path class="cls-3" d="M94.69,126.77c.48.12.79.34.56.9C95,127.43,94.65,127.21,94.69,126.77Z"></path><path class="cls-3" d="M95.49,128.19c.5.07.55.45.56.84C95.58,128.94,95.46,128.62,95.49,128.19Z"></path><path class="cls-3" d="M167.58,106.49a.33.33,0,0,1,.44-.25A.33.33,0,0,1,167.58,106.49Z"></path><path class="cls-3" d="M86.51,106.9c.2,0,.27.09.23.28C86.53,107.2,86.44,107.12,86.51,106.9Z"></path><path class="cls-3" d="M166.5,107.22a.33.33,0,0,1,.41-.27C166.86,107.17,166.74,107.29,166.5,107.22Z"></path><path class="cls-3" d="M86.62,105.85c.24.2.19.33-.1.4Z"></path><path class="cls-3" d="M87.14,107.63a.31.31,0,0,1,.25.44Z"></path><path class="cls-3" d="M143.74,117.28a.32.32,0,0,1,.44-.2A.3.3,0,0,1,143.74,117.28Z"></path><path class="cls-1" d="M141.25,80.2l.14.33c0,.21,0,.32.25.34v0c0,.45.2.72.68.74,2.4,1.8,3.94,4.47,6.53,6.14,1.21.78,1.83,2.43,2.88,3.52,3.06,3.17,6.53,5.94,9.2,9.51.7,1,.54,1.24-.48,1.57-2.82.93-5.54,2.11-8.27,3.28-1.62.7-3.63,1-5.07,1.9-2.57,1.61-5.55,2.44-7.89,4.32-.88.71-2.08.54-2.76,1.44-1,0-1.94.16-2.43,1.21-2.66,1.36-5.19,3-7.78,4.44-2.2,1.28-4.45,2.46-6.58,3.85-.29.19-.64.46-1,.17s0-.68,0-1a12.43,12.43,0,0,1,1-3.12c.92-3,2-5.82,1.89-9,0-1.43.77-3,1-4.46.69-4.2.17-8.43.35-12.64,0-1.13.17-2.27.28-3.38.35-3.36-1.15-6.57-.57-10,.23-1.31-.89-2.79-1.07-4.23-.44-3.53-.72-7.11-2-10.44-1-2.74-1.87-5.55-2.87-8.3l.7-.32a45.23,45.23,0,0,1,6.06,6.24c1,1.14,2.3,1.86,3.36,2.9a48.21,48.21,0,0,1,5.25,6,6.37,6.37,0,0,0,1.26,1.28,30.22,30.22,0,0,1,5.38,5.22A3.91,3.91,0,0,0,141.25,80.2Z"></path><path class="cls-1" d="M108.45,73.75A1.75,1.75,0,0,1,106,73c-.69-1.52-1.77-2.86-1.72-4.73.1-4.2,1.69-8,3.15-11.77.27-.7.76-1.59,1.36-1.52,1.07.11,1.24,1.49,1.4,2.19.9,3.93,2.09,7.8,3.17,11.65.79,2.81,0,3.16-2,3.91C110.46,73,109.86,74.09,108.45,73.75Z"></path><path class="cls-3" d="M117.38,56.05l-.7.32-1.74-2.84C116.77,53.55,117.14,54.74,117.38,56.05Z"></path><path class="cls-3" d="M141.25,80.2a3.91,3.91,0,0,1-2.56-2.51C140.39,77.67,140.5,79.25,141.25,80.2Z"></path><path class="cls-3" d="M134,114.53c.49-1,1.44-1.17,2.43-1.21-.14.32.47,1-.52.93A9.09,9.09,0,0,0,134,114.53Z"></path><path class="cls-3" d="M142.33,81.64c-.48,0-.67-.29-.68-.74A.63.63,0,0,1,142.33,81.64Z"></path><path class="cls-3" d="M141.64,80.87c-.21,0-.3-.13-.25-.34C141.61,80.54,141.69,80.66,141.64,80.87Z"></path></svg>