<svg xmlns="http://www.w3.org/2000/svg" id="Layer_1" data-name="Layer 1" viewBox="0 0 181 181"><defs><style>.cls-1{fill:#fff;}.cls-2{fill:#151616;}.cls-3{fill:#414141;}</style></defs><path class="cls-1" d="M-.29,181.44q0-89.8,0-179.62C-.32.46,0,.15,1.34.15q89,.06,178,0c1.35,0,1.66.31,1.66,1.67q-.06,89,0,178c0,1.36-.31,1.67-1.66,1.67Q89.52,181.42-.29,181.44ZM72.1,89.59c-.14.22-.56.3-.31.68l-.4.61-.73,1.22c-1.91,2.61-3,5.66-4.56,8.48-1.19,2.16-2.1,4.45-3.42,6.6a22.84,22.84,0,0,0-2.41,5.64,20.83,20.83,0,0,1-1.57,3.4,43.18,43.18,0,0,0-2.48,5.48c-.6,1.7-1.24,3.43-1.95,5.11s-.79,1.93,1.3,2.44l-.86.75c.72-.26.72,1.45,1.7.61a1.16,1.16,0,0,1,1-.17c2.81,1.29,5.81.47,8.7.82a13.5,13.5,0,0,0,2.62,0c1.06-.08,0-1.79,1-1.27.52.25,1,1.09,1.62.94,2.18-.53,4.51-.15,6.62-1.27.87-.47,1.91-.55,1.8,1.22-.09,1.43.05,2.88-.15,4.34a17.17,17.17,0,0,0-.22,3.06c.16,3.78,1.22,7.45.72,11.34-.29,2.33.32,4.88.38,7.26a56.09,56.09,0,0,0,1,7.4A3.37,3.37,0,0,0,84.17,167c.55-.36-.25-1.84.78-1.41,1.81.76,1.33-.72,1.35-1.29a9.51,9.51,0,0,1,.28-1.24,29.45,29.45,0,0,0,.57-5.2c0-1.47-.15-2.91,0-4.41.26-3-.49-6,.1-9,0,0,0-.11,0-.17-.31-2-.89-4-.57-6a4.88,4.88,0,0,0-.15-2.29c-.38-1.18.21-2.62-.94-3.59,1.35-1.67-.68-3.39.07-5.09.21-.48-.44-.54-.73-.79-2.15-1.9-4.81-.62-7.2-1.07-3.55-.68-7.06-1.81-10.75-1.85-1.25,0-2.45-.55-3.74,0-.9.39-1.65.26-1-1s.7-2.68,1.66-3.74c.77-.84.17-2.36.59-2.72,2.9-2.54,3.51-6.26,5.15-9.43,2.19-4.23,4.15-8.59,6.16-12.92.38-.82,1.52-1.17,1.56-2,0-1.18.64-2.24.6-3.38,0-.7.94-.55.8-1.32-.43-2.46.64-4.91.14-7.36-.37-1.79,1.3-3.81-.64-5.43-.34-.28.2-.2.3-.33.22-.28.53-.47.55-.89.12-2.77,0-5.54.18-8.33.27-3.68-1.29-7.25-.93-11a25.41,25.41,0,0,0-.32-3c0-.56,0-1.8.87-1.23a8.93,8.93,0,0,0,5.47,1.39A64.15,64.15,0,0,0,92,50.79a31.38,31.38,0,0,0,6.22-1.11c1.58-.56,3.07-.72,4.4,1.68,2.26,4,5.54,7.51,8.44,11.17,1.48,1.87,3,3.68,4.64,5.45,3.52,3.93,7.21,7.72,10.22,12.07.88,1.28,2.29,2.13,2.88,3.64a29.5,29.5,0,0,1,1.54,8,25.4,25.4,0,0,1-.46,9.35,11.26,11.26,0,0,1-7,7.66c-1.27.53-2.81,1-3.23,2.71s.82,5,2.32,5.94c.43.26.35.31.07.55-.92.78-.17,1.61.1,2.26.81,1.93,1.81,3.77,2.74,5.67-1.59.69-3.07-.15-4.55-.3-2.3-.23-4.6.18-6.92-.42a17.84,17.84,0,0,0-5.17-.13,18.38,18.38,0,0,0-6.8,1.29c-3.11,1.4-3.35,2-2.53,5.51a2.13,2.13,0,0,1-.15,1.39c-.81,1.43-.29,3-.11,4.32.13,1,.55,2.36.2,3.07a3.69,3.69,0,0,0,.2,3.34,2.72,2.72,0,0,1,.23,1.31,44.26,44.26,0,0,0,.48,10.54c.06.33-.19.37-.27.56h-.07c.29.22,0,.54.15.79.55,1.49.35,3.14,1,4.63.15.35.58,1.21-.22,1.65-1.11.89,0,1.6.27,2.31.17.42.67.46.84-.18l.66,0c-.19.69.11,1.13.74.75.42-.26,1.79-.43.72-1.53,1.22-.76.63-1.89.68-2.94.17-3.25.75-6.47-.3-9.72a10.33,10.33,0,0,1,0-5c.56-2.63-.16-5.12.08-7.68a48.86,48.86,0,0,0-.18-7.45c0-.78.38-.45.71-.59,1-.45,2,.28,3,.24,1.84-.09,3.79-.39,5.58.32,1.41.56,2.84.12,4.26.35s3,0,4.27.18c2.85.39,5.26-.53,7.67-1.44,2-.75,2.17-2,1.39-4-.06-.15-.63-.38,0-.62,1-.39.4-1.19.28-1.69a35.45,35.45,0,0,0-1.54-3.74,33.29,33.29,0,0,0-3.7-6.24c-.26-.4-.56-.7-.21-1a11.3,11.3,0,0,1,4.15-2.46v0l0,0c-.39-1.29.92-.71,1.35-1.11,2.79-2.65,4.15-6,5.13-9.56a9.71,9.71,0,0,0,.28-5.18.61.61,0,0,1,0-.44c1.47-3.83-.32-7.6-.43-11.4,0-1.85-1.51-4-3-5.62-2.21-2.48-4-5.33-5.93-8-1.4-1.93-3.07-3.56-4.61-5.31-2-2.28-4-4.51-6.25-6.61-1.47-1.4-2.3-3.46-4.55-4-.26-.06-.47-.16-.37-.46.4-1.31-.64-1.81-1.39-2.47-1.43-1.26-2.82-2.57-4.33-3.73-1.23-.94-2.44-2.6-4.24-.77-.22.23-.53.1-.83,0a20.56,20.56,0,0,0-5.89-.84c-3.23-.13-6.4.63-9.64.6a41.51,41.51,0,0,0-6.62.79,3.2,3.2,0,0,0-2.47,1.63c-1.51,2.57-1.34,5.49-1.78,8.24-.16,1.07-.14,2.38-.3,3.48-.26,1.89.52,3.57.45,5.38-.22,6.52-.6,13-.34,19.57l-.7,1.85h0c-.31,0-.24.19-.24.37l-.12.71c-.31.31-.75.55-.69,1.1Zm.6-62.36.34.27c-.34,4.09,2.1,7,4.32,10,1.52,2.06,4.29,2.65,5.76,4.79.1.15.45.14.68.18a25,25,0,0,0,8.47.51c4.32-.67,8.27-1.79,11.35-5.17a22.64,22.64,0,0,0,4.5-6.62A18,18,0,0,0,108,17.71C105.44,10.85,100.12,7.77,93.61,6c-.84-.22-1.74-.74-2.7-.44a50.53,50.53,0,0,0-5.62,1.83c-2,.91-4.2,1.37-5.9,2.9a25.51,25.51,0,0,0-4.09,5.19,18.43,18.43,0,0,0-2.36,5.16C72.33,22.83,71.85,25,72.7,27.23Z"></path><path class="cls-2" d="M129.64,111.32a11.26,11.26,0,0,0-4.16,2.46c-.35.31,0,.61.21,1a33.29,33.29,0,0,1,3.7,6.24,35.45,35.45,0,0,1,1.54,3.74c.12.5.7,1.3-.28,1.69-.61.24,0,.47,0,.62.78,2,.57,3.21-1.39,4-2.41.91-4.82,1.83-7.67,1.44-1.27-.17-2.88,0-4.27-.18s-2.85.21-4.26-.35c-1.79-.71-3.74-.41-5.58-.32-1,0-2-.69-3-.24-.33.14-.76-.19-.71.59a48.86,48.86,0,0,1,.18,7.45c-.24,2.56.48,5-.08,7.68a10.33,10.33,0,0,0,0,5c1,3.25.47,6.47.3,9.72,0,1,.54,2.18-.68,2.94-.43.36-1.12.25-1.46.78l-.66,0c-.46-.27-1-.71-.61-1.2.77-.93-.43-.58-.5-.93.8-.44.37-1.3.22-1.65-.64-1.49-.44-3.14-1-4.63-.1-.25.14-.57-.15-.79h.07c.08-.19.33-.23.27-.56a44.26,44.26,0,0,1-.48-10.54,2.72,2.72,0,0,0-.23-1.31,3.69,3.69,0,0,1-.2-3.34c.35-.71-.07-2-.2-3.07-.18-1.37-.7-2.89.11-4.32a2.13,2.13,0,0,0,.15-1.39c-.82-3.5-.58-4.11,2.53-5.51a18.38,18.38,0,0,1,6.8-1.29,17.84,17.84,0,0,1,5.17.13c2.32.6,4.62.19,6.92.42,1.48.15,3,1,4.55.3-.93-1.9-1.93-3.74-2.74-5.67-.27-.65-1-1.48-.1-2.26.28-.24.36-.29-.07-.55-1.5-.9-2.72-4.3-2.32-5.94s2-2.18,3.23-2.71a11.26,11.26,0,0,0,7-7.66,25.4,25.4,0,0,0,.46-9.35,29.5,29.5,0,0,0-1.54-8c-.59-1.51-2-2.36-2.88-3.64-3-4.35-6.7-8.14-10.22-12.07-1.59-1.77-3.16-3.58-4.64-5.45-2.9-3.66-6.18-7.13-8.44-11.17-1.33-2.4-2.82-2.24-4.4-1.68A31.38,31.38,0,0,1,92,50.79a64.15,64.15,0,0,1-7.73.14,8.93,8.93,0,0,1-5.47-1.39c-.85-.57-.88.67-.87,1.23a25.41,25.41,0,0,1,.32,3c-.36,3.73,1.2,7.3.93,11-.21,2.79-.06,5.56-.18,8.33,0,.42-.33.61-.55.89-.1.13-.64,0-.3.33,1.94,1.62.27,3.64.64,5.43.5,2.45-.57,4.9-.14,7.36.14.77-.83.62-.8,1.32,0,1.14-.55,2.2-.6,3.38,0,.82-1.18,1.17-1.56,2-2,4.33-4,8.69-6.16,12.92-1.64,3.17-2.25,6.89-5.15,9.43-.42.36.18,1.88-.59,2.72-1,1.06-1.08,2.51-1.66,3.74s.14,1.43,1,1c1.29-.56,2.49,0,3.74,0,3.69,0,7.2,1.17,10.75,1.85,2.39.45,5-.83,7.2,1.07.29.25.94.31.73.79-.75,1.7,1.28,3.42-.07,5.09,1.15,1,.56,2.41.94,3.59a4.88,4.88,0,0,1,.15,2.29c-.32,2,.26,4,.57,6,0,.06.06.12,0,.17-.59,3,.16,6-.1,9-.13,1.5,0,2.94,0,4.41a29.45,29.45,0,0,1-.57,5.2,9.51,9.51,0,0,0-.28,1.24c0,.57.46,2.05-1.35,1.29-1-.43-.23,1-.78,1.41a3.37,3.37,0,0,1-2.56-2.74,56.09,56.09,0,0,1-1-7.4c-.06-2.38-.67-4.93-.38-7.26.5-3.89-.56-7.56-.72-11.34a17.17,17.17,0,0,1,.22-3.06c.2-1.46.06-2.91.15-4.34.11-1.77-.93-1.69-1.8-1.22-2.11,1.12-4.44.74-6.62,1.27-.62.15-1.1-.69-1.62-.94-1.09-.52,0,1.19-1,1.27a13.5,13.5,0,0,1-2.62,0c-2.89-.35-5.89.47-8.7-.82a1.16,1.16,0,0,0-1,.17c-1,.84-1-.87-1.7-.61l.86-.75c-2.09-.51-2.07-.63-1.3-2.44s1.35-3.41,1.95-5.11a43.18,43.18,0,0,1,2.48-5.48,20.83,20.83,0,0,0,1.57-3.4,22.84,22.84,0,0,1,2.41-5.64c1.32-2.15,2.23-4.44,3.42-6.6,1.55-2.82,2.65-5.87,4.56-8.48,1.11.11.72-.68.73-1.22l.4-.61a.57.57,0,0,0,.31-.68v0c.46-.23.78-.53.69-1.1l.12-.71.24-.37h0c1.15-.27.6-1.18.7-1.85C73.6,79,74,72.48,74.2,66c.07-1.81-.71-3.49-.45-5.38.16-1.1.14-2.41.3-3.48.44-2.75.27-5.67,1.78-8.24a3.2,3.2,0,0,1,2.47-1.63,41.51,41.51,0,0,1,6.62-.79c3.24,0,6.41-.73,9.64-.6a20.56,20.56,0,0,1,5.89.84c.3.1.61.23.83,0,1.8-1.83,3-.17,4.24.77,1.51,1.16,2.9,2.47,4.33,3.73.75.66,1.79,1.16,1.39,2.47-.1.3.11.4.37.46,2.25.49,3.08,2.55,4.55,4,2.2,2.1,4.26,4.33,6.25,6.61C124,66.42,125.62,68.05,127,70c2,2.67,3.72,5.52,5.93,8,1.49,1.66,3,3.77,3,5.62.11,3.8,1.9,7.57.43,11.4a.61.61,0,0,0,0,.44,9.71,9.71,0,0,1-.28,5.18c-1,3.59-2.34,6.91-5.13,9.56-.43.4-1.74-.18-1.35,1.11Zm4.5-6.4c.15.18.36.28.56.13s0-.28.05-.43-.26-.37-.52-.26S134,104.71,134.14,104.92Z"></path><path class="cls-2" d="M72.7,27.23c-.85-2.21-.37-4.4.24-6.55a18.43,18.43,0,0,1,2.36-5.16,25.51,25.51,0,0,1,4.09-5.19c1.7-1.53,3.91-2,5.9-2.9A50.53,50.53,0,0,1,90.91,5.6c1-.3,1.86.22,2.7.44,6.51,1.73,11.83,4.81,14.36,11.67a18,18,0,0,1,.15,13.43,22.64,22.64,0,0,1-4.5,6.62c-3.08,3.38-7,4.5-11.35,5.17a25,25,0,0,1-8.47-.51c-.23,0-.58,0-.68-.18-1.47-2.14-4.24-2.73-5.76-4.79-2.22-3-4.66-5.86-4.32-10,.09-.21.14-.41-.06-.59ZM99.21,14.32c-.12-.21-.24-.19-.36,0-1.77-1.3-4.19-1.56-5.57-3.49-.06-.09-.41-.1-.45,0-.77,1.3-1.87.48-2.74.32a5.91,5.91,0,0,0-4.85,1.08,14.31,14.31,0,0,0-3.51,4.13c-3,4.86-2.82,9.66,0,14.42a10,10,0,0,0,5,4.46,11.1,11.1,0,0,0,9.88-.65c3.55-2,5-5.12,5.52-8.9.1-.85-.43-1.73-.16-2.63a5.86,5.86,0,0,0-.65-4.49C100.52,17.16,100.18,15.59,99.21,14.32Z"></path><path class="cls-3" d="M100.31,163.42c.07.35,1.27,0,.5.93-.4.49.15.93.61,1.2-.17.64-.67.6-.84.18C100.28,165,99.2,164.31,100.31,163.42Z"></path><path class="cls-3" d="M102.08,165.58c.34-.53,1-.42,1.46-.78,1.07,1.1-.3,1.27-.72,1.53C102.19,166.71,101.89,166.27,102.08,165.58Z"></path><path class="cls-3" d="M73.86,85.53c-.1.67.45,1.58-.7,1.85C73.39,86.76,73.63,86.15,73.86,85.53Z"></path><path class="cls-3" d="M71.39,90.88c0,.54.38,1.33-.73,1.22Z"></path><path class="cls-3" d="M72.79,88.46c.09.57-.23.87-.69,1.1C72,89,72.48,88.77,72.79,88.46Z"></path><path class="cls-3" d="M72.1,89.59a.57.57,0,0,1-.31.68C71.54,89.89,72,89.81,72.1,89.59Z"></path><path class="cls-3" d="M73.15,87.38l-.24.37C72.91,87.57,72.84,87.34,73.15,87.38Z"></path><path class="cls-2" d="M129.59,111.29l0,0s0,0,0,0Z"></path><path class="cls-1" d="M134.13,104.92c-.13-.21-.21-.42.1-.56s.43,0,.52.26Z"></path><path class="cls-1" d="M134.75,104.62c0,.15,0,.37-.05.43s-.41,0-.56-.13Z"></path><path class="cls-1" d="M99.21,14.32c1,1.27,1.31,2.84,2.06,4.22a5.86,5.86,0,0,1,.65,4.49c-.27.9.26,1.78.16,2.63-.49,3.78-2,6.89-5.52,8.9a11.1,11.1,0,0,1-9.88.65,10,10,0,0,1-5-4.46c-2.79-4.76-3-9.56,0-14.42a14.31,14.31,0,0,1,3.51-4.13,5.91,5.91,0,0,1,4.85-1.08c.87.16,2,1,2.74-.32,0-.07.39-.06.45,0,1.38,1.93,3.8,2.19,5.57,3.49l0-.05c-.18.21,0,.27.13.39l.28-.38Z"></path><path class="cls-1" d="M98.85,14.32c.12-.19.24-.21.36,0l0,0h-.41Z"></path><path class="cls-1" d="M72.7,27.23l.28-.32c.2.18.15.38.06.59Z"></path><path class="cls-2" d="M98.83,14.27h.41l-.28.38C98.87,14.54,98.65,14.48,98.83,14.27Z"></path></svg>