<svg xmlns="http://www.w3.org/2000/svg" id="Layer_1" data-name="Layer 1" viewBox="0 0 287 302"><defs><style>
      .cls-1 {
        fill: #aecde9;
      }

      .cls-2 {
        fill: #1a1c1e;
      }

      .cls-3 {
        fill: #fff;
      }

      .cls-4 {
        fill: #f7f7f7;
      }

      .cls-5 {
        fill: #a9c9e5;
      }

      .cls-6 {
        fill: #0f1012;
      }

      .cls-7 {
        fill: #322e30;
      }

      .cls-8 {
        fill: #f5f4f5;
      }
    </style></defs><g><path class="cls-1" d="M74.69,299.54a85.81,85.81,0,0,1-12.33-1.44c-.61-.12-1.21-.22-1.82-.3s-1.65.38-1.76-.89c-.11-1.46,1-1.24,1.56-1.35,2.08-.38,4.17-.63,6.25-.86,3.27-.36,6.56-.61,9.82-.66,8.93-.14,17.86-1.08,26.8-.79,6.61.21,13.24-.25,19.85-.3,10.59-.08,21.19-.35,31.77,0,6.1.2,12.21-.11,18.32.61a51.81,51.81,0,0,0,10.17.51c5.11-.41,10.2.12,15.28.4,5.63.32,11.27.46,16.9,1.15,3.39.42,6.82.76,10.23,1,.92.07,2.48-.14,2.49,1.37s-1.54,1.14-2.38,1.16c-6,.15-11.88,1.29-17.85,1.57q-10.61.5-21.24.84c-13.14.42-26.29.48-39.44.27-5.17-.08-10.38.28-15.55-.05-7.32-.46-14.65-.21-22-.6-4.88-.25-9.79-.31-14.69-.48A202.26,202.26,0,0,1,74.69,299.54Z"></path><g><path d="M68.12,55.44l0-.65,1.1,0a3.66,3.66,0,0,0,3.3.19c.33-.1,1.27-.45.75-.81-1.89-1.29,0-2.86-.51-4.2l.09-.64c1.93-.07,3.17-2.14,5.23-1.8l.58.18.43.42.13.14,0,.17c.3,1,1.11.89,1.88.83h0c-.25,1.38.72,1.91,1.53,2.77s2.6-.35,2.37,1.3c-.19,1.3-2,.24-2.65,1.2-.06.08-.12.15-.17.23l-1.73-.28L79.86,54c-1.45-1.28-2.9-1.7-4.34,0a.48.48,0,0,0-.35.34c-1,.22.47,1.24-.49,1.46-2.19-.33-3.12.7-3.05,2.82A1.81,1.81,0,0,0,70,59.88a1.36,1.36,0,0,0-.55,1.62l-.44.81a.45.45,0,0,0-.3.34c-1.91,1.32-2.5,3-1,4.91,1.37,1.73,3,3.08,4.22,5.14s3,3.85,4.35,5.93c.62,1,2.06,1.88,1.51,3.34-1,2.78.92,5.39,0,8.42-.82,2.79-.57,6-1.92,8a90.14,90.14,0,0,0-8.36,15.11,23.68,23.68,0,0,0-2,5.49c-.31,2.48-.47,5.11-.55,7.67-.16,5.58-.79,11.15-.53,16.75.06,1.36.38,1.87,1.91,2.17A37,37,0,0,1,73.46,148c.51.22.65.82,1.5.46,1-.45.61-1.17.54-1.7a57.79,57.79,0,0,1-.68-13.59c.6-5.73,1.43-11.35,3.61-16.8,2.56-6.41,5.72-12.65,7-19.54a31.28,31.28,0,0,0-1.53-16.06,50.53,50.53,0,0,0-6.53-12.34c-1.56-2.21-.66-3.85.8-5.46s3.15-2.36,5.41-1.36C89,64,95,65.19,100.27,68c3.47,1.87,7.32,1.61,10.78,1.39,8.17-.53,16.44-1.16,24.14-4.45,2.78-1.18,6.05-1.28,8.17-4.05.56-.74,2.7-.78,3.55.07,1.81,1.85,4,2.48,6.34,3.34,8,3,16.09,5.23,24.7,5.07,2.84,0,5.68-.31,8.52-.32,3.21,0,5.29-2.66,8.37-3.25,3.83-.75,8-.78,11.19-3.94,1.68-1.65,4.27-1,5.78.78s2.29,3.55.66,6c-3.51,5.37-6.81,11-7.52,17.52-.43,3.86-.74,7.84.41,11.77,1.39,4.75,4.58,8.71,5.87,13.43,1.05,3.87,3.37,7.26,3.84,11.34.51,4.47,1.14,8.91,1.43,13.42a86.34,86.34,0,0,1,.15,10.42c-.76.68-.45,1.57-.47,2.4l-.12,2.31-.46.67c.81.62-2,1.8.34,2.19l.8-.36,2.13-.23a1.33,1.33,0,0,0,1.41-.39c1.86-.67,3.88-1.16,4.11-3.66,1.15-1.08.44-2.44.56-3.68a1.64,1.64,0,0,0-.1-.49l.3-2.91.36-.81c-.69-1,0-1.44.74-1.89v-.19l.2-.31-.31.2a1.93,1.93,0,0,0-.53.07c-.47-.13-.53-.44-.36-.85a1.05,1.05,0,0,0-.08-1.5v-1.78c.88-.06,1-.63.94-1.37.19-.73.4-1.47.55-2.21.41-2-2.26-4.23.31-6.16l-1.38-.29-.64-.61c-.81-1,0-2,.06-3.06a1,1,0,0,0-1.11-1c.05-1.23.5-2.54-.66-3.55-.12-.18-.23-.36-.34-.54-.8-2.7-1.17-5.57-3.19-7.77a.62.62,0,0,0-.27-.47l-.33-.66-.44-1.15-.17-.58-.47-.64-.07-.1-.42-.44-.8-1.78-.34-1.15c-1.69-.91-2.34-2.62-3.2-4.18l-.39-.56c-.26-.52-.61-1-.25-1.65l-.22-1.25-.41-1c.06-.75.24-1.53-.55-2-.08-.5,1.24-.94.07-1.5l-.07-.9h0c3.68-.48-.16-2.41.66-3.45V83.51c.45-.26.35-.45-.08-.59-.05-.07-.15-.13-.15-.19a2.64,2.64,0,0,1,.12-.4c.86,0,1.82,0,2-1s-.87-.56-1.37-.75c0-1.7,1.34-2.74,2-4.11L215,76c1-1.43,1.78-3,3.42-3.79,1.42-.51,2.33-1.33,1.84-3l2.48-2.77c.08-.05.23-.08.23-.13a2.3,2.3,0,0,0-.05-.45,4.49,4.49,0,0,0-2-3.2.47.47,0,0,0-.3-.34l-.43-.81a1.38,1.38,0,0,0-.55-1.62,1.83,1.83,0,0,0-1.68-1.23c.05-2.1-1.07-2.92-3-2.8-1.05-3-2.69-3.6-5.18-1.82l-.59.44-1.72.28c-.59-1.19-2.17-.23-2.74-1.17-1-1.64,2.29-.58,1.51-2.21a.7.7,0,0,1,0-.29c1.35-.37,1.7-2.13,3.19-2.31h.12a1.06,1.06,0,0,0,1-.65c.13-.14.27-.27.41-.41l.57-.18.61-.43L213.8,47c-.11,1.52.48,1.94,1.82,1.15l.56.24a.46.46,0,0,0,.31.35c.08.42.17.85.25,1.28.74,1.05.59,2.27.6,3.45l-.24.25.25-.24,2.31.58a2.51,2.51,0,0,1,.06.55,1.69,1.69,0,0,0,1.72,1.23l0,.57c-.2,1.6.7,1.92,2,1.75L225,59.53a.56.56,0,0,0,.37.38c.1.38.19.77.29,1.16-1.15,1.91.62.92,1.15,1.17l0,0,.46.66.6.6a3.1,3.1,0,0,0,.1.53l.47.64c.64.82-.91,1.06-.49,1.82,0,.3.09.6.13.9-.11.56-.18,1.14-.79,1.42l-.59.79a10.08,10.08,0,0,1-4,3.83c-2.95.55-3.5,3-4.17,5.32l-.57.62a3,3,0,0,0-1.17,3.06c0,.37,0,.74,0,1.11-.78.58-.72,1.17,0,1.76-.07,1.18-.14,2.36-.2,3.54-.43,0-1.12-.12-1.13.4s.7.73,1.25.79l.1.61.35.53c0,.42.09.84.13,1.26-.72.54-.46,1.41-.67,2.12-.77,2.49-.16,3.11,2.45,2.57l.11.08a4.29,4.29,0,0,0,1.7,4.32c.22.3.45.59.68.88.36,1.22-1.05,1.77-1.14,2.92.86-.13,1.85-.37,2.15.62.43,1.43-1.18,1.79-1.69,2.67,1.51,1.41,3.14.37,4.72.29l.66,1.18c.25,1-.72,2.55,1.16,3,.06.37.11.75.16,1.13-.82,1.88.25,3.69.3,5.54,0,1.26.12,2.82,1.72,3.44.82,1.1-1.75,2.4.21,3.44.17,1.77-.55,3.62.48,5.31l.24.62-.23,0a5.08,5.08,0,0,0,0,4.72l.13,1.19c-.57.07-1.45.16-1.33.74a2.21,2.21,0,0,0,1.72,1.63c0,.39,0,.78,0,1.17-.84.2-1.22.53-.33,1.2-.05.78-.11,1.57-.16,2.35l-.42.71c.57.93-.95,3.32,1.59,2.77a26.7,26.7,0,0,0,9.44-3.54c0-2,.69-4-.37-5.9.05-2.14-.68-4.34.56-6.37,1.53-3.3,4.4-3.79,7.59-3.61a118,118,0,0,1,14.11,1.76,89.33,89.33,0,0,0,17.59,1.44c1.75,0,3.19,1.49,5.22.62.77-.33,2.2,1.52,1.05,2.54-3.1,2.77-3.82,7.06-6.68,9.91-2.37,2.37-4,5.42-7,7.23-1.61,1-1.66,2.12-.36,3.81a132.93,132.93,0,0,1,10.26,15.86c1.83,3.25-1.45,7.74-6,8.12-5.72.48-11.35-.75-16.95-1.56-2.43-.35-5-.39-7.38-1.22-1.9-.64-2.12.63-2.32,2.36-.28,2.46,1.37,4.56.7,6.94a11.28,11.28,0,0,1-4.66,5.21c-2.46,1-5.17,1.2-7.62,2.38a24.43,24.43,0,0,1-8.31,2.17c-1.37.14-2.18,1.56-3.74,1.9a98.41,98.41,0,0,0-9.77,3.17c-4.65.76-9.42,1.11-13.9,2.44-2.5.74-5.17.31-7.49,1.57l-14.6,1.07c-.24-.14-.48-.41-.71-.39-4.47.35-7.92,4.27-12.74,3.59-.72-.1-1,.83-.23,1.47-2.14,0-3.87,1.31-5.85,1.84-2.9.2-5.41,1.48-8,2.62-2.85,1.26-5.68,2.92-9,2.31-2.71,0-5-1.75-7.62-1.94-4.24-3-9.49-3.1-14.15-4.89.89-1,.23-1.61-.62-1.48-2.75.43-5-1.1-7.56-1.52-2-2.11-4.74-2.12-7.27-2.08a74.59,74.59,0,0,1-12.14-.9l-5.51-.8c-2.3-1.22-5-1.28-7.4-1.56-5.15-.61-9.94-2.47-15-3.3-4.79-2.71-10.17-3.7-15.35-5.26-2.72-1.74-6.19-1.62-8.84-3.53-1.91-2.2-4.15-4.29-2.46-7.65.69-1.37-.88-3.31,1.12-4.34A3,3,0,0,0,38.21,178c-6.1,1.52-12.38,1.84-18.56,2.86L15,181c-3.72-.95-7.45.65-11.2-.09-1.3-.26-1.36-.64-1-1.71,2.48-8.42,8.29-16,14.64-21.72-4.46-2.77-7.53-6.9-11-10.63C3.73,144,2,140.44.41,137c-1.24-2.64.47-4.25,3.35-4.34,7-.22,14,.23,21-1.06a100.52,100.52,0,0,1,19.07-2.12c1.77,0,3.07,1.19,4.73,1.3,1.65,4.34,2.11,8.89,2.44,13.47-.23,1-.1,2,1,2.42,1.72.65,3.51,1.12,5.24,1.75,2.62,1,2.49-.56,2.19-2.32s-.58-3.58-.86-5.38c1-3.67.39-7.43.68-11.15l0,0c.77-.61.46-1.22,0-1.83a5.35,5.35,0,0,0,.49-4.67c1.18-4.72,1.64-9.59,3.87-14.08,1-1.94,2.55-3.6,2.88-5.85l1-.56c.29-.54,2.12-1,.07-1.65a12,12,0,0,0,2.77-4.05c2.19-1.53,1.63-4.09,2.09-6.18a15.39,15.39,0,0,0-5-15.49c-.48-2-2.46-2.87-3.68-4.28-3.62-4.19-3.82-5.42-.34-9.72a6.07,6.07,0,0,0,.62-1.28,1,1,0,0,0,1-.6c.42-1.67,2.63-1.87,3-3.61Zm159.24,92.93-.76.24.14.21.65-.43.12-.27ZM149.2,74.93l-.77.88-4,3.52.44.76a10.34,10.34,0,0,1,7.83.23c3.6,1.57,7.23,3.27,9.95,6.09,1.3,1.35,1.6,1,2.57.07,4-3.86,7.32-8.38,12.43-11.65a18.54,18.54,0,0,0-2.45-.31,44.19,44.19,0,0,1-20.49-4.27c-.13-.06-.41.21-.63.32a.81.81,0,0,0-.47.12c-.41-.15-.56.1-.65.43l-3.82,3.76Zm62.86,83.23c-1.14.64-2.6-.31-3.65.76-2.6,1-5.43,1.07-8.12,1.52-10.86,1.81-21.9,1.84-32.86,2.71-3.39.27-6.74.76-10.17.94a264.53,264.53,0,0,1-27.88-.07c-5.54-.29-11.16-1.09-16.74-1.61-4.2-.39-8.44-.34-12.64-.72-7.08-.64-14-2.39-21-3.5a96.54,96.54,0,0,1-14.23-3.7c-7.31-2.34-14.56-4.87-22.17-7.43v5.41c-.78.05-1.13-1.19-2-.71a1.1,1.1,0,0,0-.33.66c1.15.87.78,3.29,3,3,.18,1.56-.67,3.11-.51,4.51a198.6,198.6,0,0,1,1,22.61c-2.32,1.64-.65,2.58.63,3.58-1.3,2.95,1.49,2.92,2.83,3.41,4.52,1.68,9.17,3,13.74,4.54,4,1.35,7.73,3.35,11.86,4.23,3.21.69,6.45,1.26,9.69,1.83,7.35,1.28,14.61,3.06,22.15,3.13a140,140,0,0,1,14.16,1,142.49,142.49,0,0,0,14.35,1c4.22,0,8.47-.29,12.66,0a96.21,96.21,0,0,0,22.52-.58c9.7-1.52,19.53-.78,29.17-2.7,5-1,10-1.93,15-3a2.7,2.7,0,0,0,2.75-.45l1.37-.2c.59.14,1.18.25,1.54-.44l.75-.08a2.46,2.46,0,0,0,2.63-.92h0c2.36-.51,4.48-1.77,6.72-2.45,4.92-1.49,9.77-3.19,14.64-4.82,3.51-1.18,4.83-2.53,4.15-5.86-1.3-6.36.67-12.61.14-19-.22-2.62-.54-5.78.36-8.06,1.35-3.42-.25-6.4.38-9.85-1.41.79-2.78.66-3.68,1.67a25.84,25.84,0,0,0-6.54,2c-2.39.88-4.86,2-7.57,1.29-1.11,0-1.6.66-1.7,1.69L218,157.32c-1.82-.49-3.43,1.34-5.29.51Zm46.06-23.86a33.43,33.43,0,0,0-9.44-1.33c-1.28,0-3-.67-3.51.69-.73,1.81,1.77,1.59,2.42,2.69.14.23.77.1,1.08.29a6.32,6.32,0,0,1,3.07,4.35c.68,4.8-.18,9.63.08,14.5A59.2,59.2,0,0,1,251,170.6c-.49,2.38-.09,4.09,3.11,4.24,2.1.1,4.24.42,6.36.63a3.3,3.3,0,0,0,1.87.68c3.78.34,7.55.73,11.31,1.2,2.36.3,3.94-1.28,5.8-2.19.46-.23.52-.76.17-1.26-2.43-3.56-4.57-7.32-6.88-11-1.09-1.71-2.29-3.8-4.54-4.6-2.08-.73-2.7-3.1-1-4.42a56.56,56.56,0,0,0,7.74-7.49c2.07-2.35,4.55-4.57,5.38-7.83.36-1.42.24-3.07-1.54-2.5-2.84.91-5.39-.26-8.06-.39C266.48,135.53,262.31,134.8,258.12,134.3ZM39.26,139.54c1.24-.61,1.42-2.08,2.39-2.91,1.1.2,1.73-.63,2.57-1.08s1.71-.88,1.41-1.87-1.53-1-2.35-.91A101.13,101.13,0,0,0,32.9,134,112.24,112.24,0,0,1,9.11,136c-3.23-.07-4.47,2-3,4.95,2.79,5.49,7.46,9.34,12,13.17,2.27,1.89,2.93,3.44,1,5.61C15,164.42,10.66,169,7.69,174.59c-.31.58-1.23.68-.62,1.8a2.1,2.1,0,0,0,1.73,1.25c2.47-.18,5,.21,7.34,0,7.37-.68,14.67-2.14,22-3.12,1.45-.2,1.69-.69,1.61-1.93-.34-5.48-.46-11-1-16.43-.18-1.74,1.42-3.05,1-4.2C38.22,147.8,39.28,143.67,39.26,139.54ZM103.07,129c3.3,3.47,7.42,6.08,10.27,10,2.72,3.79,7.17,5.5,10.61,8.41s6.54,6.38,11.8,4.58a1.71,1.71,0,0,1,1.37.31c2.15,1.9,1.51-.91,2.28-1.31-2.16-2.44-1.65-5.54-2.12-8.4-.11-.67-.83-1.24-1.31-1.83A57.22,57.22,0,0,0,125.6,131a31.34,31.34,0,0,0-10.91-5.66c-4-1-7.8-3-11.6-4.55-3.15-1.3-6.2-3.58-9.23-5.55-1.75-1.14-2.65-.65-2.82,1.49a169.85,169.85,0,0,0-.42,18.6,10.06,10.06,0,0,0,1.43,4.62c1.61,2.85,4.36,4.24,6.66,6.19,6.5,5.5,14.29,5.83,23.05,5.76-4.81-3.51-7.29-8-10.64-11.71-3-3.31-6.06-6.63-8.31-10.56Zm62.34-25.68c-.63-1.62.52-3.66-.51-5.82-2.26-4.73-5.22-8.73-9.82-11.31a22.59,22.59,0,0,0-12.46-3c-3,.19-6.12.43-9,2.37-5.79,3.86-10.79,8-11.6,15.47-.4,3.82,0,7.73,1.87,10.84A26,26,0,0,0,136,122.14c3.3,1.45,6.71.67,10,1.39,2.4.52,5-1.23,7.38-2.16C158.8,119.27,166.56,111.22,165.41,103.3Zm1.76,49c4.93-1.36,9.74-.39,14.17-2.56a48.58,48.58,0,0,0,10.82-7.6,8.25,8.25,0,0,0,2.57-4.38,28.31,28.31,0,0,0,.56-10.61c-.47-3.5.76-7-.31-10.55-.44-1.42-.06-3.28-2.67-1.42-6.3,4.48-13.46,7.43-20.72,9.94-3.34,1.16-6.79,2.25-9.51,4.33-4.69,3.58-9.43,7.26-12.74,12.33-.84,1.29.29,9.11,1.52,9.93a.86.86,0,0,0,.56.14c3.06-.44,6.12-.11,9.17-.14,1.23,0,2.21-1.72,1.71-2.44-1-1.5.18-1.54.81-2.08,2.73-2.35,5.54-4.58,8.13-7.12,4.42-4.33,9.2-8.27,13.83-12.37a63.84,63.84,0,0,1-14,17.66A10.71,10.71,0,0,0,167.17,152.29Zm39.48-84.74a43.09,43.09,0,0,0-11.24,7.35c-8.18,7.79-15.57,16.38-24.15,23.75-.69.59-1.57,1.34-1.1,2.19,1,1.7.15,3.25-.09,4.82-1.23,8-4.81,14.74-12.36,18.15-4.06,1.83-6.11,4.87-8.21,8.24-.24.38-.76.73-.21,1.23.91.8.82-.37,1.16-.63,4.59-3.46,8.77-7.59,14.2-9.75a21.09,21.09,0,0,0,7.65-5.43c8.55-9.07,17.16-18.08,25.63-27.23,1.07-1.15,2.87-2.58,1.3-4.7-.12-.15,0-.58.16-.82,2-3.8,2-8.46,5.24-11.82A9,9,0,0,0,206.65,67.55ZM105.36,117.09c4.46-.09,6.83,3.19,10.81,3.46,2.45.16,5.65,1.86,8,3.69s3.39,1.13,4.51-.68c-5.24-4.61-10.63-9-10.63-17.4ZM90.78,146.9c-1.71-3.85-5.26-6.94-4.38-11.7.09-.46-.67-.32-.79-.22-1.53,1.34-3.45,2.5-4.38,4.19-.73,1.33-.75,4.6.21,4.79C84.68,144.57,87.26,147.12,90.78,146.9Zm48.29-10.2.53-.39c-.54-1.42-1-2.87-1.66-4.25-.27-.6-.58-1.62-1.65-.73-.7.58-1.47,1-.41,2S138,135.58,139.07,136.7Z"></path><path d="M82.18,54.75c0-.08.11-.15.17-.23.66-1,2.46.1,2.65-1.2.23-1.65-1.61-.5-2.37-1.3s-1.78-1.39-1.53-2.77c3.06,1.84,6.12,3.66,9.16,5.51,1.81,1.09,3.81.15,5.77.53,4.16.8,8.06,3.19,12.38,2.59,1.43-.2,2.6,1.63,3.92.19,4-.08,7.66-1.58,11.5-2.32.51-.1,1.43-.15,1.52-1.08a20.65,20.65,0,0,0,6.5-2.85,7.39,7.39,0,0,0,.83-.29c5.72-2.67,11.13-6.41,18-5.11,1.34,1.57,1.88,4,4.44,4.28,2.81,1.94,6.22,2.64,9.09,4.4a7.66,7.66,0,0,0,5.4,1.27c2.31.77,4.57,1.74,7.07,1.71,2.44,1,4.82-.09,7.15-.42,3.53-.5,6.95-2.27,10.37-2.59,3.08-.28,6-.23,8.49-2.2,1.11-.69,1.73-2.33,3.47-1.79a.7.7,0,0,0,0,.29c.78,1.63-2.49.57-1.51,2.21.57.94,2.15,0,2.74,1.17-.5,2.48-2.58,2.32-4.33,2.38-1.46.06-3.35-1.31-3.51,1.58,0,.18-.54.51-.58.48-2.58-2.14-4.9.44-6.92,1a61.85,61.85,0,0,1-9.83,2.2c-4.8.46-9.46,1-14.14-1.3-.85-.42-2.18-1.47-3.93-1.3-4.32.42-7.58-3.08-11.61-4.11a5.49,5.49,0,0,1-3.34-1.95A4.75,4.75,0,0,0,142,53a16.35,16.35,0,0,1-3.59,2.29c-2.16,1.07-4.78,1.08-6.63,2.3-4.81,3.15-10.43,3.42-15.63,5.14-2.67.89-5.35-.11-8-.21a27.24,27.24,0,0,1-9.46-2c-2-.85-4.17-1.24-6.25-1.88-1-.29-2.58,1.12-2.87-1,0-.23.44-.65.13-1-.48-.55-.83.2-1.16.19C86.15,56.9,83.34,58.13,82.18,54.75Z"></path><path class="cls-1" d="M66.51,103.14c-.33,2.25-1.92,3.91-2.88,5.85-2.23,4.49-2.69,9.36-3.87,14.08a114.77,114.77,0,0,1-29-7.51,24,24,0,0,0-5.88-1.67c-2.62-.3-4.21-2.37-6.47-3.23a1.75,1.75,0,0,1-1-2c.13-1,.95-1.21,1.68-1.43a48.64,48.64,0,0,1,11.22-1.86c8.76-.55,17.49-1.47,26.23-2.2C59.79,102.92,63.19,101.8,66.51,103.14Z"></path><path class="cls-1" d="M150.65,46.42c-6.84-1.3-12.25,2.44-18,5.11a7.39,7.39,0,0,1-.83.29c.3-6.37,1.92-12.53,3.56-18.6a203,203,0,0,0,5.14-28.38c.25-2,1.81-2.87,2.36-4.49.17-.52.81-.42,1.21,0,.91,1,2.08,1.74,2.23,3.27.76,7.48,1.87,14.94,2.23,22.43.21,4.46,1.24,8.83,1.08,13.38C149.58,41.56,150.75,44,150.65,46.42Z"></path><path class="cls-1" d="M94.82,205.85a74.59,74.59,0,0,0,12.14.9c2.53,0,5.26,0,7.27,2.08-2.35,4.23-5.81,7.55-9.36,10.69C97.56,226,90,232.2,82.57,238.5a59.23,59.23,0,0,1-7,5.32c-.71.43-1.34.92-2.12.34s-.36-1.39,0-2.1c2.52-5.54,6.22-10.36,9.38-15.51,3.82-6.23,7.56-12.51,11.3-18.79A10.14,10.14,0,0,0,94.82,205.85Z"></path><path class="cls-1" d="M221.49,102.37c-.23-.29-.46-.58-.68-.88.37-.29,1.25-.29.59-1.15-.8-1-1.53-2.11-2.29-3.17l-.11-.08c-.78-1.42-1.68-2.81-1.4-4.55,6.53-1.11,13.06-2.26,19.6-3.31a62.73,62.73,0,0,1,8.41-.94q8.65-.18,17.24-1.19a7.41,7.41,0,0,1,1.76,0c.78.09,2-.45,2.13.87.12,1-.73,1.54-1.55,1.93-2.72,1.31-5.44,2.63-8.2,3.88-6,2.7-11.44,6.26-17,9.64a20.52,20.52,0,0,1-8.77,3.06c-2,.19-3.44,1.94-5.5,1.9C224.39,106.28,223.65,103.82,221.49,102.37Z"></path><path class="cls-1" d="M195.38,206.15c2.32-1.26,5-.83,7.49-1.57,4.48-1.33,9.25-1.68,13.9-2.44,8.71,10.06,17,20.46,24.74,31.27.51.71,1.75,1.48.73,2.49-.79.79-1.51-.19-2.28-.56-9.64-4.71-17.8-11.72-26.93-17.21-4-2.39-8.23-4.34-12.22-6.72C198.64,210.12,195.84,209.28,195.38,206.15Z"></path><path class="cls-1" d="M227.51,114.13l-.16-1.13.12-1.22c8.24.23,16.45-1,24.69-.54,6.51.34,13,1.27,19.5,1.24a2.64,2.64,0,0,1,2.75,2.22c.32,1.51-1,1.59-2,2.08-3.86,2.07-8.2,2.5-12.33,3.58-8.19,2.13-16.47,4-24.57,6.47-1.77.55-3.57,1-5.36,1.52-.18-.59.44-1.39-.45-1.8-2-1,.61-2.34-.21-3.44A23.94,23.94,0,0,0,227.51,114.13Z"></path><path class="cls-1" d="M202.66,52.87c-2.54,2-5.41,1.92-8.49,2.2-3.42.32-6.84,2.09-10.37,2.59-2.33.33-4.71,1.4-7.15.42C185.88,47,196.81,37.68,208.29,29c2.87-2.17,5.16-5.07,8.32-6.95.83-.5,1.49-1.44,2.53-.55.88.76.36,1.6,0,2.41-2.1,4.54-5,8.56-7.7,12.76-2.8,4.45-5.44,9-8.24,13.44A4.14,4.14,0,0,0,202.66,52.87Z"></path><path class="cls-1" d="M144.18,218.66c3.37.61,6.2-1,9-2.31,2.61-1.14,5.12-2.42,8-2.62-2,10.6-4.18,21.17-7.2,31.55-1.25,4.31-.87,8.93-2.43,13.19-.47,1.28-.71,2.73-2.65,2.5s-2.38-1.69-2.35-3.18c.14-6.76-1.17-13.4-1.39-20.15C145,231.32,144.12,225,144.18,218.66Z"></path><path class="cls-1" d="M167.1,211.89c-.75-.64-.49-1.57.23-1.47,4.82.68,8.27-3.24,12.74-3.59.23,0,.47.25.71.39.79,6,3.26,11.59,5.07,17.32,2.35,7.44,4.8,14.84,7.41,22.18,1,2.92,2.6,5.65,3.05,8.79.09.61.29,1.18-.3,1.57-.8.54-1.35-.07-1.72-.6-3.79-5.42-8.42-10.22-11.53-16.16s-5.75-11.78-9.4-17.23A120.3,120.3,0,0,1,167.1,211.89Z"></path><path class="cls-1" d="M125.35,54.67c-.09.93-1,1-1.52,1.08-3.84.74-7.53,2.24-11.5,2.32-3.7-11.17-7.38-22.35-11.13-33.5-1.42-4.24-3.08-8.4-4.52-12.63-.34-1-.9-2.56.44-3.11,1.19-.5,1.64,1,2.34,1.78,7.88,8.82,12.83,19.42,18.31,29.73,1.76,3.32,3.91,6.48,5.87,9.73A10.52,10.52,0,0,1,125.35,54.67Z"></path><path class="cls-1" d="M67.53,75.21a15.39,15.39,0,0,1,5,15.49c-.46,2.09.1,4.65-2.09,6.18.09-1-.55-1.5-1.34-2C60.45,89.07,51.6,83.69,42.54,78.63a104.6,104.6,0,0,1-8.73-5.85c-.69-.48-1.53-1.19-1-2.2s1.5-.45,2.34-.22a126.29,126.29,0,0,0,16.61,3.25C57.05,74.3,62.27,74.93,67.53,75.21Z"></path><path class="cls-1" d="M169.58,56.37a7.66,7.66,0,0,1-5.4-1.27c-2.87-1.76-6.28-2.46-9.09-4.4,3.16-2.28,5-5.69,7.07-8.8,4.73-7.26,8.78-14.93,13.89-22,2-2.79,3.58-6,5.66-8.81.65-.87,1.36-2.26,2.77-1.67,1.67.71.58,2.21.27,3.08-1.95,5.42-4,10.81-6.19,16.13-2.09,5.06-3.62,10.3-5.38,15.46C171.8,48.13,170.25,52.12,169.58,56.37Z"></path><path class="cls-1" d="M216.74,83.51c0-.37,0-.74,0-1.11.77-.87,2.05-1.56,1.17-3.06l.57-.62c1.23.23,1.64-.42,1.83-1.53.1-.64.11-1.6,1.27-1.4a1.32,1.32,0,0,0,1.15-1.37h0a5.87,5.87,0,0,0,2.3.12c7.14-2.65,14.81-3.4,21.94-6.17,3.24-1.25,6.82-1.62,10.25-2.37.67-.14,1.47-.36,1.82.45a1.91,1.91,0,0,1-.54,2.36,40.22,40.22,0,0,1-9.18,6.29c-10,5.17-20.1,10.1-30.18,15.1a9.73,9.73,0,0,1-2,.5.62.62,0,0,1-.42-.09l-.1-.61-.12-1.19c.06-1.18.13-2.36.2-3.54C216.79,84.69,217.64,84.11,216.74,83.51Z"></path><path class="cls-1" d="M122.41,211.83c4.66,1.79,9.91,1.87,14.15,4.89-3.67,2.62-5.85,6.47-8,10.2-5.48,9.44-11.5,18.53-17.62,27.56-.65,1-1.23,2.34-2.66,1.6-1.23-.64-.54-1.88-.27-2.9,1.85-7,5.48-13.35,7.74-20.2C118,226,120.19,218.88,122.41,211.83Z"></path><path class="cls-1" d="M66.93,200.19c5,.83,9.83,2.69,15,3.3,2.37.28,5.1.34,7.4,1.56a117.56,117.56,0,0,1-19.89,7.53,19.68,19.68,0,0,0-5.08,2.24c-4.5,2.91-10.16,2.85-14.59,5.88a2,2,0,0,1-2.5-.13c-.85-.89.19-1.58.62-2.28,1.39-2.29,3.54-3.88,5.51-5.6C58,208.66,62.9,204.89,66.93,200.19Z"></path><path class="cls-1" d="M72.9,49.31l-.09.64c-2,1-2.36,3.22-3.54,4.82l-1.1,0Q60.33,44.38,52.48,34c-.9-1.21-2.86-2.66-1.85-3.93s2.74.5,4,1.15c7.62,4,14.21,9.54,21.55,13.94a2.42,2.42,0,0,1,1.42,1.75C75.52,46.71,73.52,46.69,72.9,49.31Z"></path><path class="cls-1" d="M225.69,61.07c-.1-.39-.19-.78-.29-1.16,0-.21.14-.63-.37-.38l-1.52-1.41.22-.12c0-.08-.06-.18-.13-.22l-2.12-1.41,0-.57c.27-1.58-1.05-.95-1.72-1.23a2.51,2.51,0,0,0-.06-.55,1.07,1.07,0,0,0,.32-.41,11.13,11.13,0,0,0,4.22-1.13c6.19-2.54,12.4-5,18.6-7.52.85-.34,1.8-.71,2.48,0s0,1.8-.48,2.35c-2.36,2.49-4.78,4.92-7.3,7.24-3.21,3-6.71,5.64-9.62,8.93l-.6-.6c.1-.39-.13-.56-.46-.66l0,0Z"></path><path class="cls-1" d="M240.82,145.38a26.7,26.7,0,0,1-9.44,3.54c-2.54.55-1-1.84-1.59-2.77a.57.57,0,0,0,.42-.71c0-.78.11-1.57.16-2.35.5-.3.27-.79.33-1.2s0-.78,0-1.17a2.71,2.71,0,0,0-.39-2.37l-.13-1.19a17,17,0,0,0,0-4.72l.23,0c3.57-.72,7.06,0,10.55.63-1.24,2-.51,4.23-.56,6.37-.18,4.6-.18,4.61-4.67,4.79a5.64,5.64,0,0,0-3.23,1C235.47,145.84,238.16,144.29,240.82,145.38Z"></path><path class="cls-1" d="M59.29,129.54c-.29,3.72.32,7.48-.68,11.15-.88,0-1.32.7-2,1.07-1.77,1-3.12,3-5.59,2.46-.33-4.58-.79-9.13-2.44-13.47C52.15,130.29,55.67,129.43,59.29,129.54Z"></path><path class="cls-1" d="M42.74,191.4c2.65,1.91,6.12,1.79,8.84,3.53a99.3,99.3,0,0,1-9.33,3.41,49.31,49.31,0,0,1-5.7,1.21c-1,.14-2.5.77-3.13-.68-.53-1.21.54-2,1.36-2.67C37.22,194.26,39.64,192.25,42.74,191.4Z"></path><path class="cls-1" d="M246.21,192.52a11.28,11.28,0,0,0,4.66-5.21c2.81,1.92,5.64,3.82,8.42,5.79.61.43,1.31,1,.86,2-.31.64-1,.57-1.57.44C254.45,194.53,250.33,193.52,246.21,192.52Z"></path><path class="cls-2" d="M221.49,102.37c2.16,1.45,2.9,3.91,4.2,6a.79.79,0,0,1-.16.53c-1.58.08-3.21,1.12-4.72-.29.51-.88,2.12-1.24,1.69-2.67-.3-1-1.29-.75-2.15-.62C220.44,104.14,221.85,103.59,221.49,102.37Z"></path><path class="cls-2" d="M221.62,75.79c-1.16-.2-1.17.76-1.27,1.4-.19,1.11-.6,1.76-1.83,1.53.67-2.34,1.22-4.77,4.17-5.32.67.32.32.67,0,1h0C222,74.53,221.9,75.25,221.62,75.79Z"></path><path class="cls-2" d="M217.6,92.54c-.28,1.74.62,3.13,1.4,4.55-2.61.54-3.22-.08-2.45-2.57.21-.71-.05-1.58.67-2.12A1,1,0,0,1,217.6,92.54Z"></path><path class="cls-2" d="M72.9,49.31c.62-2.62,2.62-2.6,4.69-2.44.18.21.36.43.55.64C76.07,47.17,74.83,49.24,72.9,49.31Z"></path><path class="cls-2" d="M220,53.61a1.07,1.07,0,0,1-.32.41l-2.31-.58h0c0-1.18.14-2.4-.6-3.45C218.48,50.59,218.56,52.7,220,53.61Z"></path><path class="cls-2" d="M215.62,48.11c-1.34.79-1.93.37-1.82-1.15C214.78,46.76,215.5,47,215.62,48.11Z"></path><path class="cls-2" d="M229.74,126.55c.89.41.27,1.21.45,1.8-.69,1.18.54,2.34,0,3.51C229.19,130.17,229.91,128.32,229.74,126.55Z"></path><path class="cls-2" d="M65.14,59.33a1,1,0,0,1-1,.6,1.24,1.24,0,0,1,.93-1.32Z"></path><path class="cls-2" d="M227.47,111.78l-.12,1.22c-1.88-.4-.91-1.91-1.16-3Z"></path><path class="cls-2" d="M81.1,49.25c-.77.06-1.58.2-1.88-.83C79.8,48.81,80.81,48.22,81.1,49.25Z"></path><path class="cls-1" d="M67.63,100.93c2.05.64.22,1.11-.07,1.65C67.58,102,67.61,101.48,67.63,100.93Z"></path><path class="cls-1" d="M59.27,127.74c.45.61.76,1.22,0,1.83C59.26,129,59.27,128.35,59.27,127.74Z"></path><path class="cls-2" d="M226.71,69.57l.59-.79Z"></path><path class="cls-2" d="M216.74,90.61a.62.62,0,0,0,.42.09.75.75,0,0,1-.07.44Z"></path><path class="cls-2" d="M228.09,67.36c0-.3-.08-.6-.13-.9C228.83,66.64,228.5,67,228.09,67.36Z"></path><path class="cls-2" d="M228.45,64.64,228,64C228.32,64.08,228.58,64.21,228.45,64.64Z"></path><path class="cls-2" d="M68.12,55.44l0,.28-.21-.29Z"></path><path class="cls-2" d="M216.49,48.7a.46.46,0,0,1-.31-.35Z"></path><polygon class="cls-2" points="209.44 48.77 209.32 48.77 209.38 48.56 209.44 48.77"></polygon><path class="cls-2" d="M210.84,47.71c-.14.14-.28.27-.41.41C210.36,47.78,210.5,47.64,210.84,47.71Z"></path><path class="cls-2" d="M79.14,48.11l-.43-.42C79.06,47.61,79.23,47.73,79.14,48.11Z"></path><path class="cls-2" d="M212,47.1l-.61.43C211.53,47.26,211.63,47,212,47.1Z"></path><path class="cls-3" d="M43.8,182.57a198.6,198.6,0,0,0-1-22.61c-.16-1.4.69-3,.51-4.51,3.81.43,7.12,2.52,10.86,3.34,1.41.3,3.35,0,4,.63,2.53,2.52,5.9,2.51,8.86,3.57a69,69,0,0,0,17.13,3.71A123.72,123.72,0,0,1,98,168.52c7.19,1.49,14.31,2.92,21.67,2.82,2.18,0,4.42-.08,6.54.08,4.51.33,9,1.16,13.55,1.09,2.83,0,5.63-.89,8.48-.53a56,56,0,0,0,13.69.06,107.29,107.29,0,0,1,11.19-1.18c5.4-.07,10.7-.75,16-1.23s10.47-2.25,15.74-2.83c5.6-.61,10.84-2.51,16.36-3.37,6.47-1,12.42-4.27,19-4.94,3.72-.37,4.19.19,3.43,3.81-1.45,6.92-3.36,13.68-7,19.8-1.12,1.89-1.73,4.41-4.14,5.13-4.89,1.47-9.8,3.17-14.89,3.51-5.88.39-11.62,1.83-17.3,2.89a237.1,237.1,0,0,1-27.23,3c-12.71.88-25.43,1.73-38.2,1.44-6.21-.13-12.41.73-18.65-.58a34.44,34.44,0,0,0-7.37-.87c-6.92.13-13.71-.94-20.51-1.86-4.81-.64-9.45-2.2-14.29-2.86A66,66,0,0,1,63,189.35C56.53,187.27,50.19,184.85,43.8,182.57Z"></path><path class="cls-4" d="M82.18,54.75c1.16,3.38,4,2.15,6.29,2.18.33,0,.68-.74,1.16-.19.31.34-.16.76-.13,1,.29,2.07,1.91.66,2.87,1,2.08.64,4.21,1,6.25,1.88a27.24,27.24,0,0,0,9.46,2c2.67.1,5.35,1.1,8,.21,5.2-1.72,10.82-2,15.63-5.14,1.85-1.22,4.47-1.23,6.63-2.3A16.35,16.35,0,0,0,142,53a4.75,4.75,0,0,1,7.23.67,5.49,5.49,0,0,0,3.34,1.95c4,1,7.29,4.53,11.61,4.11,1.75-.17,3.08.88,3.93,1.3,4.68,2.28,9.34,1.76,14.14,1.3a61.85,61.85,0,0,0,9.83-2.2c2-.54,4.34-3.12,6.92-1,0,0,.57-.3.58-.48.16-2.89,2.05-1.52,3.51-1.58,1.75-.06,3.83.1,4.33-2.38l1.72-.28c.41.13.51-.14.59-.44,2.49-1.78,4.13-1.2,5.18,1.82,1,.94,1.26,2.7,3,2.8a1.83,1.83,0,0,1,1.68,1.23c-.71.84-.65,1.42.55,1.62l.43.81c-.14.32,0,.4.3.34a4.49,4.49,0,0,1,2,3.2l-.18.58-2.48,2.77c-.76.91-2.8,1-1.84,3-1.64.82-2.46,2.36-3.42,3.79-.37-.08-.52.06-.42.44-.67,1.37-2,2.41-2,4.11-1.46.17-1.1.95-.6,1.79a2.64,2.64,0,0,0-.12.4c0,.06.1.12.15.19s.06.39.08.59v1.81c-1.06,1-.29,2.33-.66,3.45h0c-.55.34-.77.66.07.9,1.17.56-.15,1-.07,1.5-.89,1-.08,1.48.55,2l.41,1c0,.43-.21.89.22,1.25-.36.61,0,1.13.25,1.65-.14.38.13.47.39.56.86,1.56,1.51,3.27,3.2,4.18.08.4-.21.9.34,1.15l.8,1.78.42.44.07.1.47.64c.06.2.11.39.17.58-.05.46-.21,1,.44,1.15l.33.66.27.47c2,2.2,2.39,5.07,3.19,7.77.11.18.22.36.34.54,1.16,1,.71,2.32.66,3.55-.28,1,.19,1.27,1.11,1-.06,1-.87,2-.06,3.06-.43.12-.76.36-.46.79.42.6.79.26,1.1-.18l1.38.29c-2.57,1.93.1,4.12-.31,6.16-.15.74-.36,1.48-.55,2.21-.86.09-1.29.46-.94,1.37v1.78l.08,1.5c-.17.41-.11.72.36.85l.63.23c-.72.45-1.43.89-.74,1.89a.57.57,0,0,0-.36.81l-.3,2.91a5.37,5.37,0,0,0-3.2,1c-1.56,1-2.9,2.65-5,2.58l0-2.29a86.34,86.34,0,0,0-.15-10.42c-.29-4.51-.92-8.95-1.43-13.42-.47-4.08-2.79-7.47-3.84-11.34-1.29-4.72-4.48-8.68-5.87-13.43-1.15-3.93-.84-7.91-.41-11.77.71-6.5,4-12.15,7.52-17.52,1.63-2.49.78-4.37-.66-6s-4.1-2.43-5.78-.78c-3.21,3.16-7.36,3.19-11.19,3.94-3.08.59-5.16,3.23-8.37,3.25-2.84,0-5.68.27-8.52.32-8.61.16-16.7-2.08-24.7-5.07-2.33-.86-4.53-1.49-6.34-3.34-.85-.85-3-.81-3.55-.07C141.24,63.7,138,63.8,135.19,65c-7.7,3.29-16,3.92-24.14,4.45-3.46.22-7.31.48-10.78-1.39C95,65.19,89,64,83.54,61.63c-2.26-1-3.93-.25-5.41,1.36s-2.36,3.25-.8,5.46a50.53,50.53,0,0,1,6.53,12.34,31.28,31.28,0,0,1,1.53,16.06c-1.24,6.89-4.4,13.13-7,19.54-2.18,5.45-3,11.07-3.61,16.8a57.79,57.79,0,0,0,.68,13.59c.07.53.5,1.25-.54,1.7-.85.36-1-.24-1.5-.46a37,37,0,0,0-7.07-2.45c-1.53-.3-1.85-.81-1.91-2.17-.26-5.6.37-11.17.53-16.75.08-2.56.24-5.19.55-7.67a23.68,23.68,0,0,1,2-5.49A90.14,90.14,0,0,1,75.9,98.38c1.35-2,1.1-5.2,1.92-8,.88-3-1.08-5.64,0-8.42.55-1.46-.89-2.35-1.51-3.34-1.3-2.08-3.23-4-4.35-5.93s-2.85-3.41-4.22-5.14c-1.53-1.93-.94-3.59,1-4.91.3.06.44,0,.3-.34l.44-.81c1.19-.2,1.24-.78.55-1.62a1.81,1.81,0,0,1,1.67-1.22c1.78-.12,2.06-1.85,3.05-2.82,1-.22-.47-1.24.49-1.46l.35-.34c1.44-1.71,2.89-1.29,4.34,0,.09.3.19.57.59.44Z"></path><path class="cls-1" d="M43.8,182.57c6.39,2.28,12.73,4.7,19.19,6.78a66,66,0,0,0,11.11,2.54c4.84.66,9.48,2.22,14.29,2.86,6.8.92,13.59,2,20.51,1.86a34.44,34.44,0,0,1,7.37.87c6.24,1.31,12.44.45,18.65.58,12.77.29,25.49-.56,38.2-1.44a237.1,237.1,0,0,0,27.23-3c5.68-1.06,11.42-2.5,17.3-2.89,5.09-.34,10-2,14.89-3.51,2.41-.72,3-3.24,4.14-5.13,3.65-6.12,5.56-12.88,7-19.8.76-3.62.29-4.18-3.43-3.81-6.61.67-12.56,3.93-19,4.94-5.52.86-10.76,2.76-16.36,3.37-5.27.58-10.41,2.34-15.74,2.83s-10.63,1.16-16,1.23A107.29,107.29,0,0,0,161.91,172a56,56,0,0,1-13.69-.06c-2.85-.36-5.65.48-8.48.53-4.55.07-9-.76-13.55-1.09-2.12-.16-4.36-.11-6.54-.08-7.36.1-14.48-1.33-21.67-2.82a123.72,123.72,0,0,0-13.82-1.82A69,69,0,0,1,67,163c-3-1.06-6.33-1.05-8.86-3.57-.67-.66-2.61-.33-4-.63-3.74-.82-7-2.91-10.86-3.34-2.26.26-1.89-2.16-3-3a1.1,1.1,0,0,1,.33-.66c.9-.48,1.25.76,2,.71a21.8,21.8,0,0,1,4,.72c3,.71,5.69,2,8.59,2.87,4.69,1.37,9.56,2.15,14,4.25a21.3,21.3,0,0,0,5.32,1.57c7.17,1.26,14.35,2.51,21.56,3.56a317.64,317.64,0,0,0,34.34,3.26c8.14.29,16.27,0,24.39.35,5.19.26,10.33-.45,15.49-.67s10.22-1.24,15.34-1.66c8.09-.67,15.95-2.64,23.91-4,7.16-1.22,14.11-3.62,21.2-5.29a40.53,40.53,0,0,1,6.68-1.38c6.23-.41,7.26-1.94,6.89-7.41.9-1,2.27-.88,3.68-1.67-.63,3.45,1,6.43-.38,9.85-.9,2.28-.58,5.44-.36,8.06.53,6.34-1.44,12.59-.14,19,.68,3.33-.64,4.68-4.15,5.86-4.87,1.63-9.72,3.33-14.64,4.82-2.24.68-4.36,1.94-6.72,2.45.42-2.3,3.26-2.23,4.28-4.32a5.86,5.86,0,0,0-1.65,0c-6.13,2.05-12.71,1.65-18.86,3.58-2.71.86-5.58.88-8.38,1.29a165.11,165.11,0,0,1-18.43,2.17,105.52,105.52,0,0,0-10.8.89,98.62,98.62,0,0,1-13.94.42c-4,0-8,.26-11.9.42-7.17.3-14.32-.2-21.47-.21-5.13,0-10.25-1.24-15.39-1.45A132.3,132.3,0,0,1,82.85,197c-5.11-1.1-10.45-1.43-15.37-3.3-5.1-1.94-11.21-1.34-15.28-5.94a.92.92,0,0,0-.79-.25c-2.66,1.21-4.67-.84-7-1.36C43.15,185.15,41.48,184.21,43.8,182.57Z"></path><path class="cls-4" d="M165.41,103.3c1.15,7.92-6.61,16-12,18.07-2.43.93-5,2.68-7.38,2.16-3.32-.72-6.73.06-10-1.39a26,26,0,0,1-12.09-10.3c-1.89-3.11-2.27-7-1.87-10.84.81-7.5,5.81-11.61,11.6-15.47,2.91-1.94,6.06-2.18,9-2.37a22.59,22.59,0,0,1,12.46,3c4.6,2.58,7.56,6.58,9.82,11.31C165.93,99.64,164.78,101.68,165.41,103.3Zm-17.55-9.72c1.59,0,3.13-.09,4.64,0,.89.07,1.6.16,1.66-1a1.3,1.3,0,0,0-1.52-1.42c-5.69.42-11.43-.57-17.1.46-1.16.21-3.36-.27-2.86,1.65.31,1.15,2.39,1.77,4.06,1.18A7.42,7.42,0,0,1,138.1,94c2.46-.29,4.94-.64,7.16.91.58.4,1.6.62,1.21,1.67-.32.89-1.17.4-1.77.44-3,.21-6,.42-9,.52-1.07,0-1.85.45-1.76,1.44s1,.74,1.84.68a59,59,0,0,1,7-.2c1.26.05,3.43-.85,3.64.48.3,2-2.12,2.14-3.55,2.81a6,6,0,0,1-1.73.22c-1.55.21-3.1.38-4.63.69a1.75,1.75,0,0,0-1.45,1.65,1,1,0,0,0,1.07,1.09c3.24,0,5.05,2.19,7,4.22,2.25,2.3,4.67,4.35,8,5,.82.17,1.56.56,1.87-.53a1.19,1.19,0,0,0-1-1.54c-4.73-1.11-7.33-5-10.86-8,3-.61,6-1.36,7.31-3.82,1-1.94,2-2.46,3.86-2.35.92,0,2.23.25,2.24-1.13s-1.26-1.33-2.22-1.18C149.79,97.54,148.43,96.39,147.86,93.58Z"></path><path class="cls-4" d="M102.81,129.58c2.25,3.93,5.32,7.25,8.31,10.56,3.35,3.72,5.83,8.2,10.64,11.71-8.76.07-16.55-.26-23.05-5.76-2.3-2-5-3.34-6.66-6.19a10.06,10.06,0,0,1-1.43-4.62,169.85,169.85,0,0,1,.42-18.6c.17-2.14,1.07-2.63,2.82-1.49,3,2,6.08,4.25,9.23,5.55,3.8,1.57,7.55,3.52,11.6,4.55A31.34,31.34,0,0,1,125.6,131,57.22,57.22,0,0,1,136,140.78c.48.59,1.2,1.16,1.31,1.83.47,2.86,0,6,2.12,8.4-.77.4-.13,3.21-2.28,1.31a1.71,1.71,0,0,0-1.37-.31c-5.26,1.8-8.34-1.63-11.8-4.58s-7.89-4.62-10.61-8.41c-2.85-4-7-6.57-10.27-10a.6.6,0,0,0-.25-.25c-.31-.37-.53-1.13-1.13-.72-.3.2.09.78.56,1Z"></path><path class="cls-4" d="M167.17,152.29a10.71,10.71,0,0,1,3.92-6.94,63.84,63.84,0,0,0,14-17.66c-4.63,4.1-9.41,8-13.83,12.37-2.59,2.54-5.4,4.77-8.13,7.12-.63.54-1.84.58-.81,2.08.5.72-.48,2.43-1.71,2.44-3.05,0-6.11-.3-9.17.14a.86.86,0,0,1-.56-.14c-1.23-.82-2.36-8.64-1.52-9.93,3.31-5.07,8-8.75,12.74-12.33,2.72-2.08,6.17-3.17,9.51-4.33,7.26-2.51,14.42-5.46,20.72-9.94,2.61-1.86,2.23,0,2.67,1.42,1.07,3.5-.16,7,.31,10.55a28.31,28.31,0,0,1-.56,10.61,8.25,8.25,0,0,1-2.57,4.38,48.58,48.58,0,0,1-10.82,7.6C176.91,151.9,172.1,150.93,167.17,152.29Z"></path><path class="cls-4" d="M244.36,148.64c.37,5.47-.66,7-6.89,7.41a40.53,40.53,0,0,0-6.68,1.38c-7.09,1.67-14,4.07-21.2,5.29-8,1.36-15.82,3.33-23.91,4-5.12.42-10.21,1.45-15.34,1.66s-10.3.93-15.49.67c-8.12-.4-16.25-.06-24.39-.35a317.64,317.64,0,0,1-34.34-3.26c-7.21-1.05-14.39-2.3-21.56-3.56a21.3,21.3,0,0,1-5.32-1.57c-4.48-2.1-9.35-2.88-14-4.25-2.9-.85-5.62-2.16-8.59-2.87a21.8,21.8,0,0,0-4-.72v-5.41c7.61,2.56,14.86,5.09,22.17,7.43A96.54,96.54,0,0,0,79,158.19c7,1.11,13.91,2.86,21,3.5,4.2.38,8.44.33,12.64.72,5.58.52,11.2,1.32,16.74,1.61a264.53,264.53,0,0,0,27.88.07c3.43-.18,6.78-.67,10.17-.94,11-.87,22-.9,32.86-2.71,2.69-.45,5.52-.51,8.12-1.52,1.66,1.23,3.3,3.06,5.54,1.65a12.41,12.41,0,0,0,4-3.25l10.6-3.73c1.32.19.91-1.35,1.7-1.69,2.71.69,5.18-.41,7.57-1.29A25.84,25.84,0,0,1,244.36,148.64Z"></path><path class="cls-4" d="M39.26,139.54c0,4.13-1,8.26.5,12.41.42,1.15-1.18,2.46-1,4.2.56,5.45.68,10.95,1,16.43.08,1.24-.16,1.73-1.61,1.93-7.36,1-14.66,2.44-22,3.12-2.35.22-4.87-.17-7.34,0a2.1,2.1,0,0,1-1.73-1.25c-.61-1.12.31-1.22.62-1.8,3-5.6,7.27-10.17,11.46-14.84,1.94-2.17,1.28-3.72-1-5.61-4.58-3.83-9.25-7.68-12-13.17-1.48-2.92-.24-5,3-4.95A112.24,112.24,0,0,0,32.9,134a101.13,101.13,0,0,1,10.38-1.18c.82-.08,2-.13,2.35.91s-.57,1.42-1.41,1.87-1.47,1.28-2.57,1.08a17,17,0,0,0-4.38.27c-8,2-16.14,2.63-24.3,3.25-.84.07-2-.4-2.44.54-.56,1.12.3,2.27,1,2.88,3.91,3.45,6.58,8.11,10.83,11.14,2.1,1.49,1.87,2.54.33,4-.34.33-.46.9-.81,1.21-3.49,3.13-4.25,8.4-8.57,10.88-.85.49-.76,1.32-.59,2.1s1,.76,1.67.82c3.06.31,6.05-.39,9.06-.66,4.82-.45,9.18-2.91,14-3.46,1-.11,1.12-.92,1.07-1.77a1.19,1.19,0,0,0-1.63-1.18c-1.2.34-2.43.35-3.65.68-4.47,1.21-8.95,2.57-13.61,2.81-.43-2.28,1.54-3.48,1.85-5.29h0A5.13,5.13,0,0,0,23.22,163a27.7,27.7,0,0,1,3.72-4.73c.52-.5,2.1,0,1.61-1.56-.3-.92-.25-1.85-1.38-2.63-3.72-2.54-7.46-5.15-10.09-8.94-.76-1.09-1.09-2,1-2.14A98.73,98.73,0,0,0,39.26,139.54Z"></path><path class="cls-5" d="M206.65,67.55a9,9,0,0,1-2,5.35c-3.24,3.36-3.2,8-5.24,11.82-.14.24-.28.67-.16.82,1.57,2.12-.23,3.55-1.3,4.7-8.47,9.15-17.08,18.16-25.63,27.23a21.09,21.09,0,0,1-7.65,5.43c-5.43,2.16-9.61,6.29-14.2,9.75-.34.26-.25,1.43-1.16.63-.55-.5,0-.85.21-1.23,2.1-3.37,4.15-6.41,8.21-8.24,7.55-3.41,11.13-10.15,12.36-18.15.24-1.57,1-3.12.09-4.82-.47-.85.41-1.6,1.1-2.19,8.58-7.37,16-16,24.15-23.75A43.09,43.09,0,0,1,206.65,67.55Z"></path><path class="cls-4" d="M44.43,186.15c2.31.52,4.32,2.57,7,1.36a.92.92,0,0,1,.79.25c4.07,4.6,10.18,4,15.28,5.94,4.92,1.87,10.26,2.2,15.37,3.3a132.3,132.3,0,0,0,22.26,2.77c5.14.21,10.26,1.44,15.39,1.45,7.15,0,14.3.51,21.47.21,3.94-.16,7.93-.43,11.9-.42a98.62,98.62,0,0,0,13.94-.42,105.52,105.52,0,0,1,10.8-.89A165.11,165.11,0,0,0,197,197.53c2.8-.41,5.67-.43,8.38-1.29,6.15-1.93,12.73-1.53,18.86-3.58a5.86,5.86,0,0,1,1.65,0c-1,2.09-3.86,2-4.28,4.32h0c-1.08-.27-2.14-.52-2.63.92l-.75.08a1.56,1.56,0,0,0-1.54.44l-1.37.2c-1,0-1.93-.31-2.75.45-5,1.11-10,2-15,3-9.64,1.92-19.47,1.18-29.17,2.7a96.21,96.21,0,0,1-22.52.58c-4.19-.33-8.44,0-12.66,0a142.49,142.49,0,0,1-14.35-1,140,140,0,0,0-14.16-1c-7.54-.07-14.8-1.85-22.15-3.13-3.24-.57-6.48-1.14-9.69-1.83-4.13-.88-7.88-2.88-11.86-4.23-4.57-1.54-9.22-2.86-13.74-4.54C45.92,189.07,43.13,189.1,44.43,186.15Z"></path><path class="cls-1" d="M260.42,175.47c-2.12-.21-4.26-.53-6.36-.63-3.2-.15-3.6-1.86-3.11-4.24a59.2,59.2,0,0,0,.87-15.11c-.26-4.87.6-9.7-.08-14.5a6.32,6.32,0,0,0-3.07-4.35c-.31-.19-.94-.06-1.08-.29-.65-1.1-3.15-.88-2.42-2.69.55-1.36,2.23-.71,3.51-.69a33.43,33.43,0,0,1,9.44,1.33c.51,1,1,2.11,1.55,3.14.18.33-.09.84,1,.77,4.57-.29,9,1.47,13.6,1.32,1.74-.05,1.44,1,.81,1.89-.93,1.31-2.66,2.18-3.43,3.24-2.63,3.59-6.06,6.29-9.13,9.38-1,1-.94,1.54-.2,2.44s1.32,1.7,2,2.55a77.92,77.92,0,0,1,8.33,13.7c.76,1.56.43,2.3-1.5,2.22a59.77,59.77,0,0,1-8.12-1.08C261.7,173.65,260.28,173.36,260.42,175.47Zm.9-23.64a59.54,59.54,0,0,1,9.07-9c-3-.72-5.56-1.36-8.15-1.95-1.22-.28-2.09.2-1.69,1.5C261.4,145.12,260.72,148,261.32,151.83Zm-.19,8.59c-.35,2.82.17,5.28-.6,7.67-.25.79-.2,2.22.94,2,2-.42,3.81,1.68,5.75.35a1.21,1.21,0,0,0,.06-1.63C265.31,166.09,264.17,162.77,261.13,160.42Z"></path><path class="cls-1" d="M39.26,139.54A98.73,98.73,0,0,1,18.09,143c-2.1.1-1.77,1-1,2.14,2.63,3.79,6.37,6.4,10.09,8.94,1.13.78,1.08,1.71,1.38,2.63.49,1.56-1.09,1.06-1.61,1.56A27.7,27.7,0,0,0,23.22,163a5.13,5.13,0,0,1-1.76,1.88.63.63,0,0,0-.1-.2s-.1,0-.15,0l.26.23c-.31,1.81-2.28,3-1.85,5.29,4.66-.24,9.14-1.6,13.61-2.81,1.22-.33,2.45-.34,3.65-.68a1.19,1.19,0,0,1,1.63,1.18c.05.85,0,1.66-1.07,1.77-4.83.55-9.19,3-14,3.46-3,.27-6,1-9.06.66-.68-.06-1.47.07-1.67-.82s-.26-1.61.59-2.1c4.32-2.48,5.08-7.75,8.57-10.88.35-.31.47-.88.81-1.21,1.54-1.5,1.77-2.55-.33-4-4.25-3-6.92-7.69-10.83-11.14-.68-.61-1.54-1.76-1-2.88.48-.94,1.6-.47,2.44-.54,8.16-.62,16.32-1.26,24.3-3.25a17,17,0,0,1,4.38-.27C40.68,137.46,40.5,138.93,39.26,139.54Z"></path><path class="cls-4" d="M260.42,175.47c-.14-2.11,1.28-1.82,2.56-1.6A59.77,59.77,0,0,0,271.1,175c1.93.08,2.26-.66,1.5-2.22a77.92,77.92,0,0,0-8.33-13.7c-.65-.85-1.29-1.72-2-2.55s-.76-1.47.2-2.44c3.07-3.09,6.5-5.79,9.13-9.38.77-1.06,2.5-1.93,3.43-3.24.63-.9.93-1.94-.81-1.89-4.6.15-9-1.61-13.6-1.32-1.07.07-.8-.44-1-.77-.56-1-1-2.09-1.55-3.14,4.19.5,8.36,1.23,12.56,1.42,2.67.13,5.22,1.3,8.06.39,1.78-.57,1.9,1.08,1.54,2.5-.83,3.26-3.31,5.48-5.38,7.83a56.56,56.56,0,0,1-7.74,7.49c-1.71,1.32-1.09,3.69,1,4.42,2.25.8,3.45,2.89,4.54,4.6,2.31,3.63,4.45,7.39,6.88,11,.35.5.29,1-.17,1.26-1.86.91-3.44,2.49-5.8,2.19-3.76-.47-7.53-.86-11.31-1.2A3.3,3.3,0,0,1,260.42,175.47Z"></path><path class="cls-5" d="M154.13,70.57c.22-.11.5-.38.63-.32a44.19,44.19,0,0,0,20.49,4.27,18.54,18.54,0,0,1,2.45.31c-5.11,3.27-8.46,7.79-12.43,11.65-1,.94-1.27,1.28-2.57-.07-2.72-2.82-6.35-4.52-9.95-6.09a10.34,10.34,0,0,0-7.83-.23l-.44-.76,3.94-3.52c.45-.13.91-.24.78-.88v-.05A4.71,4.71,0,0,0,154.13,70.57Z"></path><path class="cls-5" d="M105.36,117.09,118,106.16c0,8.42,5.39,12.79,10.63,17.4-1.12,1.81-2.26,2.46-4.51.68s-5.5-3.53-8-3.69C112.19,120.28,109.82,117,105.36,117.09Z"></path><path class="cls-5" d="M90.78,146.9c-3.52.22-6.1-2.33-9.34-2.94-1-.19-.94-3.46-.21-4.79.93-1.69,2.85-2.85,4.38-4.19.12-.1.88-.24.79.22C85.52,140,89.07,143.05,90.78,146.9Z"></path><path class="cls-5" d="M216.61,148.91c2.14.07,3.48-1.57,5-2.58a5.37,5.37,0,0,1,3.2-1,1.64,1.64,0,0,1,.1.49c-1.07,1.09-.24,2.47-.56,3.68-.23,2.5-2.25,3-4.11,3.66a1.59,1.59,0,0,0-1.41.39l-2.13.23-.8.36c-2.34-.39.47-1.57-.34-2.19.32-.11.58-.26.46-.67l.12-2.31A.66.66,0,0,1,216.61,148.91Z"></path><path class="cls-4" d="M51,144.22c2.47.56,3.82-1.46,5.59-2.46.66-.37,1.1-1.1,2-1.07.28,1.8.55,3.59.86,5.38s.43,3.28-2.19,2.32c-1.73-.63-3.52-1.1-5.24-1.75C50.94,146.22,50.81,145.26,51,144.22Z"></path><path class="cls-1" d="M218,157.32a12.41,12.41,0,0,1-4,3.25c-2.24,1.41-3.88-.42-5.54-1.65,1.05-1.07,2.51-.12,3.65-.76.38.23.47-.09.6-.33C214.52,158.66,216.13,156.83,218,157.32Z"></path><path class="cls-2" d="M69.27,54.77c1.18-1.6,1.49-3.85,3.54-4.82.46,1.34-1.38,2.91.51,4.2.52.36-.42.71-.75.81A3.66,3.66,0,0,1,69.27,54.77Z"></path><path class="cls-2" d="M227.51,114.13a23.94,23.94,0,0,1,2,9c-1.6-.62-1.68-2.18-1.72-3.44C227.76,117.82,226.69,116,227.51,114.13Z"></path><path class="cls-4" d="M240.82,145.38c-2.66-1.09-5.35.46-8.27-.11a5.64,5.64,0,0,1,3.23-1c4.49-.18,4.49-.19,4.67-4.79C241.51,141.39,240.77,143.41,240.82,145.38Z"></path><path class="cls-5" d="M139.07,136.7c-1.06-1.12-2.07-2.28-3.19-3.34s-.29-1.45.41-2c1.07-.89,1.38.13,1.65.73.63,1.38,1.12,2.83,1.66,4.25Z"></path><path class="cls-4" d="M154.13,70.57a4.71,4.71,0,0,1-4.94,4.31L153,71.12l.65-.43A.81.81,0,0,1,154.13,70.57Z"></path><path class="cls-2" d="M219.11,97.17c.76,1.06,1.49,2.14,2.29,3.17.66.86-.22.86-.59,1.15A4.29,4.29,0,0,1,219.11,97.17Z"></path><path class="cls-2" d="M74.68,55.84c-1,1-1.27,2.7-3.05,2.82C71.56,56.54,72.49,55.51,74.68,55.84Z"></path><path class="cls-2" d="M217.91,58.65c-1.79-.1-2-1.86-3-2.8C216.84,55.73,218,56.55,217.91,58.65Z"></path><path class="cls-2" d="M211.94,82.33c-.5-.84-.86-1.62.6-1.79.5.19,1.53-.36,1.37.75S212.8,82.35,211.94,82.33Z"></path><path class="cls-2" d="M218.39,72.2c-1-2,1.08-2.09,1.84-3C220.72,70.87,219.81,71.69,218.39,72.2Z"></path><path class="cls-2" d="M211.38,88.77c.37-1.12-.4-2.46.66-3.45C211.22,86.36,215.06,88.29,211.38,88.77Z"></path><path class="cls-2" d="M230.33,138.35a2.71,2.71,0,0,1,.39,2.37,2.21,2.21,0,0,1-1.72-1.63C228.88,138.51,229.76,138.42,230.33,138.35Z"></path><path class="cls-2" d="M218,79.34c.88,1.5-.4,2.19-1.17,3.06A3,3,0,0,1,218,79.34Z"></path><path class="cls-2" d="M230.23,132.44a17,17,0,0,1,0,4.72A5.08,5.08,0,0,1,230.23,132.44Z"></path><path class="cls-2" d="M221.48,56.37l2.12,1.41c.07,0,.09.14.13.22l-.22.12C222.18,58.29,221.28,58,221.48,56.37Z"></path><path class="cls-2" d="M230.25,151.9c-.79.34-.38,1.88-1.7,1.69C228.65,152.56,229.14,151.91,230.25,151.9Z"></path><path class="cls-1" d="M219,197.87c.49-1.44,1.55-1.19,2.63-.92A2.46,2.46,0,0,1,219,197.87Z"></path><path class="cls-2" d="M216.74,83.51c.9.6,0,1.18,0,1.76C216,84.68,216,84.09,216.74,83.51Z"></path><path class="cls-2" d="M224.39,149.55c.32-1.21-.51-2.59.56-3.68C224.83,147.11,225.54,148.47,224.39,149.55Z"></path><path class="cls-2" d="M219.72,54.57c.67.28,2-.35,1.72,1.23A1.69,1.69,0,0,1,219.72,54.57Z"></path><path class="cls-2" d="M225.69,61.07l1.15,1.17C226.31,62,224.54,63,225.69,61.07Z"></path><path class="cls-2" d="M211.94,93.2c-.63-.56-1.44-1.07-.55-2C212.18,91.67,212,92.45,211.94,93.2Z"></path><path class="cls-2" d="M216.52,88.81l.12,1.19c-.55-.06-1.26-.15-1.25-.79S216.09,88.86,216.52,88.81Z"></path><path class="cls-2" d="M70,59.88c.69.84.64,1.42-.55,1.62A1.36,1.36,0,0,1,70,59.88Z"></path><path class="cls-2" d="M216.61,148.91a.66.66,0,0,0-.43.11c0-.83-.29-1.72.47-2.4Z"></path><path class="cls-2" d="M225,121.71c-.92.22-1.39,0-1.11-1A1,1,0,0,1,225,121.71Z"></path><path class="cls-2" d="M225.6,125.38c-.31.44-.68.78-1.1.18-.3-.43,0-.67.46-.79Z"></path><path class="cls-2" d="M220.14,61.5c-1.2-.2-1.26-.78-.55-1.62A1.38,1.38,0,0,1,220.14,61.5Z"></path><path class="cls-1" d="M212.58,199c.82-.76,1.8-.48,2.75-.45A2.7,2.7,0,0,1,212.58,199Z"></path><path class="cls-2" d="M225.18,135.41c-.35-.91.08-1.28.94-1.37C226.2,134.78,226.06,135.35,225.18,135.41Z"></path><path class="cls-2" d="M230.7,141.89c-.06.41.17.9-.33,1.2C229.48,142.42,229.86,142.09,230.7,141.89Z"></path><path class="cls-2" d="M216.75,103c-.55-.25-.26-.75-.34-1.15Z"></path><path class="cls-1" d="M216.7,198.39a1.56,1.56,0,0,1,1.54-.44C217.88,198.64,217.29,198.53,216.7,198.39Z"></path><path class="cls-2" d="M227.39,148.39l-.65.43-.14-.21.76-.24Z"></path><path class="cls-2" d="M212.57,95.44c-.43-.36-.26-.82-.22-1.25C212.42,94.6,212.5,95,212.57,95.44Z"></path><path class="cls-2" d="M225.26,138.69l-.08-1.5A1.05,1.05,0,0,1,225.26,138.69Z"></path><path class="cls-2" d="M211.46,89.66c-.84-.24-.62-.56-.07-.9C211.41,89.06,211.43,89.36,211.46,89.66Z"></path><path class="cls-2" d="M218.87,153.6a1.59,1.59,0,0,1,1.41-.39A1.33,1.33,0,0,1,218.87,153.6Z"></path><path class="cls-4" d="M149.2,74.93c.13.64-.33.75-.78.88Z"></path><path class="cls-2" d="M219.12,107.67c-.65-.19-.49-.69-.44-1.15C218.82,106.91,219,107.29,219.12,107.67Z"></path><path class="cls-2" d="M225.15,142.47a.57.57,0,0,1,.36-.81Z"></path><path class="cls-2" d="M226.25,139.77l-.63-.23a1.93,1.93,0,0,1,.53-.07l.11.11Z"></path><path class="cls-2" d="M226.15,139.47l.31-.2-.2.31Z"></path><path class="cls-2" d="M230.21,145.44a.57.57,0,0,1-.42.71Z"></path><path class="cls-2" d="M223.25,117.11c-.12-.18-.23-.36-.34-.54C223,116.75,223.13,116.93,223.25,117.11Z"></path><path class="cls-2" d="M219.72,108.8l-.27-.47A.62.62,0,0,1,219.72,108.8Z"></path><path class="cls-2" d="M227.36,148.37l.15-.25-.12.27Z"></path><path class="cls-2" d="M218.51,105.94l-.47-.64Z"></path><path class="cls-2" d="M213.21,97.65c-.26-.09-.53-.18-.39-.56Z"></path><path class="cls-2" d="M216.06,151.33c.12.41-.14.56-.46.67Z"></path><path class="cls-2" d="M212.05,83.51c0-.2-.05-.39-.08-.59C212.4,83.06,212.5,83.25,212.05,83.51Z"></path><path class="cls-2" d="M215.94,154.19l.8-.36Z"></path><path class="cls-2" d="M214.55,76.43c-.1-.38,0-.52.42-.44Z"></path><path class="cls-2" d="M212.66,157.83c-.13.24-.22.56-.6.33Z"></path><path class="cls-5" d="M153.66,70.69l-.65.43C153.1,70.79,153.25,70.54,153.66,70.69Z"></path><path class="cls-2" d="M222.71,66.43l.18-.58a2.3,2.3,0,0,1,.05.45S222.79,66.38,222.71,66.43Z"></path><path class="cls-2" d="M226.82,62.21c.33.1.56.27.46.66Z"></path><path class="cls-2" d="M220.87,62.65c-.3.06-.44,0-.3-.34A.47.47,0,0,1,220.87,62.65Z"></path><path class="cls-2" d="M69,62.31c.14.32,0,.4-.3.34A.45.45,0,0,1,69,62.31Z"></path><path class="cls-2" d="M225,59.53c.51-.25.33.17.37.38A.56.56,0,0,1,225,59.53Z"></path><path class="cls-2" d="M209.68,54c-.08.3-.18.57-.59.44Z"></path><path class="cls-2" d="M80.45,54.47c-.4.13-.5-.14-.59-.44Z"></path><path class="cls-2" d="M75.52,54l-.35.34A.48.48,0,0,1,75.52,54Z"></path><path class="cls-2" d="M217.35,53.44l-.25.24.24-.25Z"></path><path class="cls-2" d="M218,105.2l-.42-.44Z"></path><path class="cls-3" d="M221.62,75.79c.28-.54.35-1.26,1.15-1.37A1.32,1.32,0,0,1,221.62,75.79Z"></path><path class="cls-2" d="M147.86,93.58c.57,2.81,1.93,4,4.5,3.55,1-.15,2.23-.18,2.22,1.18s-1.32,1.18-2.24,1.13c-1.88-.11-2.84.41-3.86,2.35-1.28,2.46-4.31,3.21-7.31,3.82,3.53,3,6.13,6.89,10.86,8a1.19,1.19,0,0,1,1,1.54c-.31,1.09-1.05.7-1.87.53-3.31-.68-5.73-2.73-8-5-2-2-3.8-4.25-7-4.22a1,1,0,0,1-1.07-1.09,1.75,1.75,0,0,1,1.45-1.65c1.53-.31,3.08-.48,4.63-.69a6,6,0,0,0,1.73-.22c1.43-.67,3.85-.86,3.55-2.81-.21-1.33-2.38-.43-3.64-.48a59,59,0,0,0-7,.2c-.83.06-1.74.38-1.84-.68s.69-1.4,1.76-1.44c3-.1,6-.31,9-.52.6,0,1.45.45,1.77-.44.39-1-.63-1.27-1.21-1.67-2.22-1.55-4.7-1.2-7.16-.91a7.42,7.42,0,0,0-1.36.49c-1.67.59-3.75,0-4.06-1.18-.5-1.92,1.7-1.44,2.86-1.65,5.67-1,11.41,0,17.1-.46a1.3,1.3,0,0,1,1.52,1.42c-.06,1.13-.77,1-1.66,1C151,93.49,149.45,93.58,147.86,93.58Z"></path><path class="cls-6" d="M102.25,129c-.47-.17-.86-.75-.56-1,.6-.41.82.35,1.13.72Z"></path><path class="cls-6" d="M102.81,129.58l-.56-.62.57-.23a.6.6,0,0,1,.25.25Z"></path><path class="cls-4" d="M261.32,151.83c-.6-3.86.08-6.71-.77-9.49-.4-1.3.47-1.78,1.69-1.5,2.59.59,5.18,1.23,8.15,1.95A59.54,59.54,0,0,0,261.32,151.83Z"></path><path class="cls-4" d="M261.13,160.42c3,2.35,4.18,5.67,6.15,8.37a1.21,1.21,0,0,1-.06,1.63c-1.94,1.33-3.73-.77-5.75-.35-1.14.24-1.19-1.19-.94-2C261.3,165.7,260.78,163.24,261.13,160.42Z"></path><path class="cls-4" d="M21.47,164.89l-.26-.23c.05,0,.12,0,.15,0a.63.63,0,0,1,.1.2Z"></path></g></g><g><path class="cls-7" d="M204.27,175.16a2.38,2.38,0,0,1,2.45,1.37c.17.37.25.7-.21.87s-.73.59-1.09-.08a1.86,1.86,0,0,0-2.59-.75,1.83,1.83,0,0,0-1.41,1.86c.07,1,.86,1.15,1.62,1.32.55.11,1.1.18,1.65.29,2.07.4,2.81,1.68,2.15,3.68a4.52,4.52,0,0,1-6.11,2.23,2.8,2.8,0,0,1-1.09-1.38c-.22-.5,0-.74.41-.9s.67-.42,1,.2a2.45,2.45,0,0,0,4,.24,1.47,1.47,0,0,0-.78-2.56c-.73-.18-1.49-.26-2.23-.45a2.67,2.67,0,0,1-1.36-4.56A4.71,4.71,0,0,1,204.27,175.16Z"></path><path class="cls-7" d="M80.65,174.89c1.53.25,2.73.35,3.89.65A2.72,2.72,0,0,1,86.2,180c-.28.42-.15.61.1.9a2.77,2.77,0,0,1,.48,3.33c-.64,1.21-1.86,1.2-3.06,1-.51-.09-1-.13-1.55-.21-2.19-.31-2.22-.31-2.24-2.58s.07-4.39,0-6.58C80,175,80.17,174.71,80.65,174.89Zm.64,7.33c-.28,1.13.27,1.73,1.61,1.68.35,0,.71.12,1.06.13.69,0,1.4,0,1.64-.85a1.72,1.72,0,0,0-.68-2,4,4,0,0,0-2-.52C81.27,180.39,81.27,180.4,81.29,182.22Zm0-4.3c-.4,1.19.38,1.54,1.54,1.58.35,0,.71.09,1.06.11.68,0,1.29-.06,1.5-.84a1.56,1.56,0,0,0-.76-1.93,4.4,4.4,0,0,0-1.71-.43C81.31,176.2,81.31,176.19,81.29,177.92Z"></path><path class="cls-7" d="M178.17,177.9a2.83,2.83,0,0,1,2.63,1.39c.2.33.52.72,0,1s-.78.44-1.19-.19a2.13,2.13,0,0,0-3.11-.57,1.53,1.53,0,0,0-.78,1.5,1.28,1.28,0,0,0,1,1.18c.84.25,1.7.42,2.55.65a2.67,2.67,0,0,1,1.64,4.29c-1.45,2.23-5.43,2.3-6.66.1-.22-.4-.6-.87.1-1.19.49-.24.85-.35,1.24.33a2.27,2.27,0,0,0,2.93.91,1.81,1.81,0,0,0,1.38-1.75c0-1-.75-1.23-1.51-1.41s-1.41-.29-2.1-.5a2.53,2.53,0,0,1-2.06-2.34,2.83,2.83,0,0,1,1.74-3A6.15,6.15,0,0,1,178.17,177.9Z"></path><path class="cls-7" d="M169.25,183.62c0,1.6,0,3.19,0,4.79,0,1-.92,1.05-1.15.7-.52-.78-.84-.25-1.27-.07a3.35,3.35,0,0,1-3.81-.35,4.35,4.35,0,0,1-.89-4.56,3.47,3.47,0,0,1,4.8-2.22c1.07.47,1.12.05,1.07-.79s0-1.52-.08-2.27c0-.48,0-.75.62-.76s.78.17.76.75c0,.79,0,1.59,0,2.39s0,1.59,0,2.39Zm-6,2a2.33,2.33,0,0,0,2.13,2.55,2.71,2.71,0,0,0,2.59-2.75,2.37,2.37,0,0,0-2.17-2.53A2.59,2.59,0,0,0,163.26,185.65Z"></path><path class="cls-7" d="M137,187.42c0-1.44,0-2.87,0-4.31,0-.89.63-1.34,1.22-.79s.8.25,1.23.09a3.48,3.48,0,0,1,4.28,1.1,4.44,4.44,0,0,1-.14,5.05,3.37,3.37,0,0,1-4.25.73c-.94-.47-1-.1-1,.66s0,1.43,0,2.15c0,.47,0,.76-.62.74s-.79-.14-.77-.75c0-1.55,0-3.11,0-4.67Zm6-1.44a2.33,2.33,0,1,0-4.65-.13,2.45,2.45,0,0,0,2.35,2.62A2.29,2.29,0,0,0,143,186Z"></path><path class="cls-7" d="M145.63,187.55V183c0-.27-.1-.62.24-.72s.86-.24,1,.08c.3.65.6.34,1,.16a3.4,3.4,0,0,1,4.34.78,4.41,4.41,0,0,1,.12,5,3.32,3.32,0,0,1-4.26,1.12c-1.07-.49-1.13,0-1.1.79,0,.64,0,1.28,0,1.91s-.07.83-.71.8-.69-.36-.68-.86c0-1.51,0-3,0-4.55Zm6-1.62a2.32,2.32,0,0,0-2.27-2.54,2.41,2.41,0,0,0-2.4,2.68,2.38,2.38,0,0,0,2.27,2.45A2.42,2.42,0,0,0,151.67,185.93Z"></path><path class="cls-7" d="M189.61,183.69c0,1.08,0,2.15,0,3.23,0,.82-.74,1.26-1.35.73-.46-.4-.66-.18-1,0a3.31,3.31,0,0,1-3.62.1,3.54,3.54,0,0,1-1.38-3.49c.17-2.74,2.46-5,5.44-3.74.35.15.52.17.73-.24a.92.92,0,0,1,1.17-.3c.42.15.21.63.21,1,0,.92-.08,1.83-.13,2.75Zm-6,.71c0,1.5.83,2.54,2.07,2.53A2.85,2.85,0,0,0,188.3,184c0-1.5-.78-2.55-2-2.56A2.76,2.76,0,0,0,183.62,184.4Z"></path><path class="cls-7" d="M198.34,182.74c-.06,1.12-.13,2.23-.15,3.35,0,.82-.82,1.09-1.08.81-.67-.76-1.07-.14-1.55.08-2.4,1.12-4.32,0-4.65-2.6-.42-3.37,2.12-5.69,5.36-4.87a.74.74,0,0,0,.9-.28,1,1,0,0,1,1.11-.24c.34.14.18.57.17.87,0,1-.08,1.92-.12,2.88Zm-6.09.92c0,1.45.83,2.42,2.06,2.41A3,3,0,0,0,197,183a2.17,2.17,0,0,0-2-2.41A3,3,0,0,0,192.25,183.66Z"></path><path class="cls-7" d="M135.37,185.8c0,.92,0,1.84,0,2.75s-.62,1.35-1.21.75-.81-.23-1.23-.08a3.57,3.57,0,0,1-4.39-1.43,4.24,4.24,0,0,1,.47-5,3.55,3.55,0,0,1,4-.49c.37.17.6.47,1.09,0s1.19-.17,1.22.66,0,1.91,0,2.86Zm-1.36-.05a2.49,2.49,0,0,0-2.45-2.56,2.37,2.37,0,0,0-2.29,2.54,2.53,2.53,0,0,0,2.53,2.51A2.33,2.33,0,0,0,134,185.75Z"></path><path class="cls-7" d="M157.14,189.71a3.49,3.49,0,0,1-3.26-3.76,3.77,3.77,0,0,1,3.62-4.09,3.38,3.38,0,0,1,3.67,3.4c0,.63-.12.86-.76.86-1.4,0-2.8.09-4.19.14-1,0-1.18.32-.64,1.21a2.39,2.39,0,0,0,3.56.5c.44-.36.77-.59,1.16-.06s-.14.78-.46,1A4,4,0,0,1,157.14,189.71Zm.28-4.65V185H159c.93,0,.89-.39.47-1a2.23,2.23,0,0,0-3.67,0c-.21.27-.55.59-.33,1s.59.11.89.13S157.06,185.06,157.42,185.06Z"></path><path class="cls-7" d="M95.46,183.2a3.13,3.13,0,0,1-3.1,3.26A4.36,4.36,0,0,1,88,182.15a3.19,3.19,0,0,1,3.38-3.25A4.26,4.26,0,0,1,95.46,183.2Zm-6-.76A2.7,2.7,0,0,0,92,185.15a2,2,0,0,0,2-2.19,2.73,2.73,0,0,0-2.65-2.71A2,2,0,0,0,89.41,182.44Z"></path><path class="cls-7" d="M103.81,183.94a3.09,3.09,0,0,1-3.06,3.41,4.27,4.27,0,0,1-4.39-4.12,3.29,3.29,0,0,1,3.26-3.42A4.09,4.09,0,0,1,103.81,183.94Zm-1.39-.11a2.56,2.56,0,0,0-2.6-2.66,2.06,2.06,0,0,0-2,2.17,2.69,2.69,0,0,0,2.57,2.73A2,2,0,0,0,102.42,183.83Z"></path><path class="cls-7" d="M113.28,181a3,3,0,0,1,2.48,1.22c.2.27.66.66.13,1a.66.66,0,0,1-1.08-.27,1.64,1.64,0,0,0-1.83-.84,1,1,0,0,0-1,.86.92.92,0,0,0,.76,1.06c.61.19,1.25.28,1.87.43,1.34.3,2,1,2,2.18s-.79,1.85-2.14,2a3.75,3.75,0,0,1-3.53-1.33c-.21-.26-.73-.59-.2-1a.68.68,0,0,1,1.11.19,2.14,2.14,0,0,0,2.17,1c.59-.06,1.12-.27,1.22-.94s-.46-1-1-1.1-1-.17-1.52-.3c-1.51-.4-2.15-1.19-2-2.41A2.32,2.32,0,0,1,113.28,181Z"></path><path class="cls-7" d="M107.34,184.19c0,.28,0,.56,0,.84-.09,1.07.31,1.74,1.46,1.68.71,0,.66.47.7.85s-.4.4-.69.42a2.44,2.44,0,0,1-2.84-2.61c0-.71,0-1.43,0-2.15s.19-1.75-1.18-1.56c-.42.06-.47-.31-.48-.66s.25-.59.61-.49c1,.27,1.11-.3,1-1.09,0-.34-.2-.84.5-.82s.94.2.83.85c-.15,1,.18,1.44,1.21,1.34.49,0,.83.08.81.71s-.51.52-.84.46c-1-.2-1.26.26-1.16,1.15a9.73,9.73,0,0,1,0,1.08Z"></path><path class="cls-7" d="M120,184.81c0,.48,0,1,0,1.43,0,.9.46,1.49,1.41,1.37.69-.09.7.34.76.76s-.38.49-.71.53a2.35,2.35,0,0,1-2.78-2.49c0-.76,0-1.52,0-2.27s.14-1.71-1.19-1.52c-.52.07-.5-.39-.5-.75s.33-.51.64-.43c1.05.26,1.08-.36,1-1.11,0-.35-.2-.82.49-.82s.87.17.76.74c-.23,1.19.43,1.42,1.4,1.38.49,0,.71.17.71.7s-.31.6-.7.5c-1.26-.33-1.53.3-1.38,1.38a4,4,0,0,1,0,.6Z"></path><path class="cls-7" d="M123.47,185.35c0-.95,0-1.91,0-2.87,0-.72.44-1,.84-.68.8.57,1.48.1,2.21,0,.5-.06,1-.24,1,.65,0,.71-.26.71-.85.67a1.68,1.68,0,0,0-1.82,1.78c-.06,1.11,0,2.23,0,3.34,0,.4.07.81-.56.81s-.87-.19-.84-.84c0-.95,0-1.91,0-2.87Z"></path><path class="cls-8" d="M81.29,182.22c0-1.82,0-1.83,1.59-1.55a4,4,0,0,1,2,.52,1.72,1.72,0,0,1,.68,2c-.24.82-.95.86-1.64.85-.35,0-.71-.14-1.06-.13C81.56,184,81,183.35,81.29,182.22Z"></path><path class="cls-8" d="M81.29,177.92c0-1.73,0-1.72,1.63-1.51a4.4,4.4,0,0,1,1.71.43,1.56,1.56,0,0,1,.76,1.93c-.21.78-.82.88-1.5.84-.35,0-.71-.1-1.06-.11C81.67,179.46,80.89,179.11,81.29,177.92Z"></path><path class="cls-8" d="M163.26,185.65a2.59,2.59,0,0,1,2.55-2.73,2.37,2.37,0,0,1,2.17,2.53,2.71,2.71,0,0,1-2.59,2.75A2.33,2.33,0,0,1,163.26,185.65Z"></path><path class="cls-8" d="M143,186a2.29,2.29,0,0,1-2.3,2.49,2.45,2.45,0,0,1-2.35-2.62A2.33,2.33,0,1,1,143,186Z"></path><path class="cls-8" d="M151.67,185.93a2.42,2.42,0,0,1-2.4,2.59,2.38,2.38,0,0,1-2.27-2.45,2.41,2.41,0,0,1,2.4-2.68A2.32,2.32,0,0,1,151.67,185.93Z"></path><path class="cls-8" d="M183.62,184.4a2.76,2.76,0,0,1,2.65-2.92c1.25,0,2.08,1.06,2,2.56a2.85,2.85,0,0,1-2.61,2.89C184.45,186.94,183.6,185.9,183.62,184.4Z"></path><path class="cls-8" d="M192.25,183.66a3,3,0,0,1,2.79-3.1,2.17,2.17,0,0,1,2,2.41,3,3,0,0,1-2.68,3.1C193.08,186.08,192.25,185.11,192.25,183.66Z"></path><path class="cls-8" d="M134,185.75a2.33,2.33,0,0,1-2.21,2.49,2.53,2.53,0,0,1-2.53-2.51,2.37,2.37,0,0,1,2.29-2.54A2.49,2.49,0,0,1,134,185.75Z"></path><path class="cls-8" d="M157.42,185.06c-.36,0-.72,0-1.08,0s-.71.17-.89-.13.12-.68.33-1a2.23,2.23,0,0,1,3.67,0c.42.62.46,1-.47,1h-1.56Z"></path><path class="cls-8" d="M89.41,182.44a2,2,0,0,1,2-2.19A2.73,2.73,0,0,1,94.07,183a2,2,0,0,1-2,2.19A2.7,2.7,0,0,1,89.41,182.44Z"></path><path class="cls-8" d="M102.42,183.83a2,2,0,0,1-2.07,2.24,2.69,2.69,0,0,1-2.57-2.73,2.06,2.06,0,0,1,2-2.17A2.56,2.56,0,0,1,102.42,183.83Z"></path></g></svg>