<svg xmlns="http://www.w3.org/2000/svg" id="Layer_1" data-name="Layer 1" viewBox="0 0 181 181"><defs><style>.cls-1{fill:#fff;}.cls-2{fill:#141414;}.cls-3{fill:#fafaf9;}</style></defs><path class="cls-1" d="M-.29,180.46q0-89.66,0-179.31C-.33-.2,0-.51,1.33-.51Q90.18-.45,179-.51c1.35,0,1.66.31,1.65,1.66q0,88.85,0,177.68c0,1.36-.3,1.66-1.65,1.66Q89.37,180.43-.29,180.46ZM126.9,35.8c.54-1.8-1-2.89-1.16-4.26-.16-1.54-1.4-2.36-1.73-3.78-.66-2.89-2.93-5-4.23-7.56a6.21,6.21,0,0,0-1.63-2.3c-2.86-2.17-5.32-4.87-8.71-6.32-2-.86-3.85-2.5-5.9-2.76-3.15-.41-6.27-1.36-9.6-.65C90.22,9,86.4,7.85,82.6,8A22.73,22.73,0,0,0,73,10.31a54.5,54.5,0,0,0-8,4.8c-3.57,2.73-5.74,6.39-7.89,10.09-1.24,2.14-2,4.67-3.13,6.82a13.84,13.84,0,0,0-1.52,6.26c-.07,2.83-1.52,5.44-.72,8.47.61,2.31,0,4.94-.14,7.42-.07.92.46,1.76.32,2.57a59.25,59.25,0,0,0-.76,10c0,1.64,0,3.32,0,4.94,0,2.2-.29,4.4-.2,6.62a11.22,11.22,0,0,1,.24,2.6c-.86,3.49-.24,7-.46,10.49s-.25,6.88-.4,10.31a43.86,43.86,0,0,0,.19,7.33c.33,2.62-.28,5.17-.48,7.71-.16,2.11.08,4.27-.46,6.43-.66,2.65.4,5.35,1.05,7.92.92,3.59,1.9,7.28,4.07,10.37,1,1.47,1.75,3.34,3.21,4.35,2.35,1.63,3.28,4.83,6.35,5.61,1.72.44,2.69,2,4.27,2.88,2.74,1.44,5.67,2.09,8.41,3.33,2.09,1,4.35.58,6.44,1.15a31.49,31.49,0,0,0,8.65.73c2.44,0,4.64-1.05,7-1.06,3.66,0,6.8-1.9,10.13-3a19.56,19.56,0,0,0,6.33-4.15c.72-.63,1.36,0,1.86-.54,1.63-1.88,3.59-3.58,5-5.52,1.89-2.61,4.32-5,4.9-8.58.39-2.41,1.62-4.71,2.28-7.17,1-3.72.52-7.31.34-10.92a59.39,59.39,0,0,0-.54-7c-.6-3.52.19-7.13-.16-10.76a77.15,77.15,0,0,1-.09-8.06c0-1.24.47-2.55.09-3.65s-.73-1.74.15-2.57c.08-.07,0-.32,0-.46A13.3,13.3,0,0,1,129,81.7c-.16-4-.13-8.06-.05-12.09.11-4.93-.82-9.8-.62-14.73a60.4,60.4,0,0,0-.16-7.12c-.12-1.42,1-2.79.33-4.08C127.18,41.13,128.27,38.17,126.9,35.8Z"></path><path class="cls-2" d="M126.9,35.8c1.37,2.37.28,5.33,1.57,7.88.64,1.29-.45,2.66-.33,4.08a60.4,60.4,0,0,1,.16,7.12c-.2,4.93.73,9.8.62,14.73-.08,4-.11,8.07.05,12.09a13.3,13.3,0,0,0,.42,4.43c.05.14.1.39,0,.46-.88.83-.5,1.56-.15,2.57s-.09,2.41-.09,3.65a77.15,77.15,0,0,0,.09,8.06c.35,3.63-.44,7.24.16,10.76a59.39,59.39,0,0,1,.54,7c.18,3.61.66,7.2-.34,10.92-.66,2.46-1.89,4.76-2.28,7.17-.58,3.59-3,6-4.9,8.58-1.4,1.94-3.36,3.64-5,5.52-.5.57-1.14-.09-1.86.54a19.56,19.56,0,0,1-6.33,4.15c-3.33,1.09-6.47,3-10.13,3-2.38,0-4.58,1.06-7,1.06a31.49,31.49,0,0,1-8.65-.73c-2.09-.57-4.35-.2-6.44-1.15-2.74-1.24-5.67-1.89-8.41-3.33-1.58-.84-2.55-2.44-4.27-2.88-3.07-.78-4-4-6.35-5.61-1.46-1-2.17-2.88-3.21-4.35-2.17-3.09-3.15-6.78-4.07-10.37-.65-2.57-1.71-5.27-1.05-7.92.54-2.16.3-4.32.46-6.43.2-2.54.81-5.09.48-7.71a43.86,43.86,0,0,1-.19-7.33c.15-3.43.18-6.88.4-10.31s-.4-7,.46-10.49a11.22,11.22,0,0,0-.24-2.6c-.09-2.22.18-4.42.2-6.62,0-1.62,0-3.3,0-4.94a59.25,59.25,0,0,1,.76-10c.14-.81-.39-1.65-.32-2.57.18-2.48.75-5.11.14-7.42-.8-3,.65-5.64.72-8.47A13.84,13.84,0,0,1,54,32c1.16-2.15,1.89-4.68,3.13-6.82,2.15-3.7,4.32-7.36,7.89-10.09a54.5,54.5,0,0,1,8-4.8A22.73,22.73,0,0,1,82.6,8c3.8-.19,7.62.93,11.34.13,3.33-.71,6.45.24,9.6.65,2,.26,3.89,1.9,5.9,2.76,3.39,1.45,5.85,4.15,8.71,6.32a6.21,6.21,0,0,1,1.63,2.3c1.3,2.58,3.57,4.67,4.23,7.56.33,1.42,1.57,2.24,1.73,3.78C125.89,32.91,127.44,34,126.9,35.8ZM94.57,99.28c-2.84.53-4.84-1.51-7.14-2.49-2.71-1.15-5.18-2.87-7.79-4.26-1.34-.71-3-1-4.12-1.92-1.88-1.58-4-2.83-5.94-4.22-2.89-2-5.95-3.79-8.54-6.2l-2.75-2.54c-1.06,2.95.24,5.77-.47,8.69-.41,1.68,0,3.86,0,5.8-.09,2.13.11,4.26-.08,6.4-.09,1.09.4,2.36.34,3.57,0,.63.34,1.53-.82,1.68-.17,0-.45.46-.43.48.66.71,1,1.41.13,2.2,1.48,1.13.5,2.79.68,4.13.24,1.79-.33,3.64,0,5.61.44,2.44-.55,5-.23,7.52.26,2.11-.49,4.5.11,6.36,1.45,4.55,3.4,9,7.12,12.31.66.58,1,1.68,1.69,2a27.8,27.8,0,0,1,5.31,3.68,14.48,14.48,0,0,0,5.58,2.48c2.69.64,5.55,1.08,8.31,1.51,3.9.62,7.58,0,11.34-.25,3.37-.18,6.46-1.61,9.56-2.84.78-.31,1.82-.49,2.22-1.09a9.79,9.79,0,0,1,4-3c2.16-1.12,3.1-3.23,4.77-4.71a13.57,13.57,0,0,0,3.18-5.25c.92-2.41,2.15-4.62,2-7.46-.2-3.38.15-6.81-.06-10.21-.13-2.06.38-4.11-.07-6.17-.22-1-.46-1.59-1.77-1.37a4.29,4.29,0,0,1-3.35-1,5.56,5.56,0,0,0-3.35-1.29,28,28,0,0,1-5.3-1.41,44.85,44.85,0,0,1-8.3-3.54c-1.81-1-4.16-1-5.42-3l.07-.4ZM120.22,72.5c-.67-.89-.56-1.33-.11-1.94,1-1.37,2.35-2.67,1.72-4.75a2.22,2.22,0,0,1-.29-1.27c1-4.43,0-8.9,0-13.37a59,59,0,0,0-1.9-16.61c-1.17-4.28-3.86-7.59-5.9-11.29A10.59,10.59,0,0,0,108,18.56,19.65,19.65,0,0,1,103.36,16a6.23,6.23,0,0,0-4.14-1.36,30.4,30.4,0,0,1-4.28-.26c-2.62-.17-5.23-.63-7.87-.13a9.38,9.38,0,0,1-2.84.15A10.87,10.87,0,0,0,77,15.78a41.47,41.47,0,0,1-5.8,3.1,12.49,12.49,0,0,0-5.5,5.05c-.76,1.23-1.41,2.76-2.27,3.91-2.13,2.81-2.85,6.17-4,9.33A13.42,13.42,0,0,0,59,42.05c0,1.41-1,2.51-.62,4.12.46,2.2.05,4.57.09,6.88,0,3.38-.29,6.75-.32,10.15,0,2.38,1.21,4.2,1.88,6.15.55,1.59,2.8,2.72,4,4.39,1.66,2.37,4.64,2.88,6.76,4.68.9.77,1.59,2.21,2.82,2.24a4.3,4.3,0,0,1,3.12,1.74c1.07,1.15,2.47,1.51,3.74,2.23,2.81,1.6,5.59,3.26,8.47,4.75.71.36,1.29.6,2,.24,3.55-2,7.65-2.79,10.89-5.41,2.82-2.3,6.45-3.21,9.39-5.42a29.28,29.28,0,0,0,5.72-5.09C117.67,72.68,118.33,71.73,120.22,72.5Zm1.32,30.29c1.12-.87-.05-1.93.45-2.87.86-1.62.34-3.49.28-5.1-.1-2.66-.1-5.34-.06-8,0-1.06-.92-1.95-.54-2.74.93-1.91,0-3.82.33-5.7a.89.89,0,0,0-.29-1,1,1,0,0,0-1.14.21c-2.26,2-4.58,4-6.93,5.87a88,88,0,0,1-7.9,5.51,36.7,36.7,0,0,1-8.81,4c2.18.78,3.91,2.42,6,3,3.07.84,5.62,3.2,9,3a2.86,2.86,0,0,1,1.29.51,11.23,11.23,0,0,0,3.89,1.59A8.21,8.21,0,0,1,121.54,102.79Zm6,31.85-.12-.14-.12.13.18.13Z"></path><path class="cls-1" d="M94.91,99.58c1.26,2,3.61,2,5.42,3a44.85,44.85,0,0,0,8.3,3.54,28,28,0,0,0,5.3,1.41,5.56,5.56,0,0,1,3.35,1.29,4.29,4.29,0,0,0,3.35,1c1.31-.22,1.55.36,1.77,1.37.45,2.06-.06,4.11.07,6.17.21,3.4-.14,6.83.06,10.21.17,2.84-1.06,5-2,7.46a13.57,13.57,0,0,1-3.18,5.25c-1.67,1.48-2.61,3.59-4.77,4.71a9.79,9.79,0,0,0-4,3c-.4.6-1.44.78-2.22,1.09-3.1,1.23-6.19,2.66-9.56,2.84-3.76.2-7.44.87-11.34.25-2.76-.43-5.62-.87-8.31-1.51a14.48,14.48,0,0,1-5.58-2.48,27.8,27.8,0,0,0-5.31-3.68c-.72-.35-1-1.45-1.69-2-3.72-3.33-5.67-7.76-7.12-12.31-.6-1.86.15-4.25-.11-6.36-.32-2.56.67-5.08.23-7.52-.36-2,.21-3.82,0-5.61-.18-1.34.8-3-.68-4.13.9-.79.53-1.49-.13-2.2,0,0,.26-.46.43-.48,1.16-.15.78-1.05.82-1.68.06-1.21-.43-2.48-.34-3.57.19-2.14,0-4.27.08-6.4.09-1.94-.36-4.12,0-5.8.71-2.92-.59-5.74.47-8.69L61,80.19c2.59,2.41,5.65,4.19,8.54,6.2,2,1.39,4.06,2.64,5.94,4.22,1.12.94,2.78,1.21,4.12,1.92,2.61,1.39,5.08,3.11,7.79,4.26,2.3,1,4.3,3,7.14,2.49Z"></path><path class="cls-3" d="M120.22,72.5c-1.89-.77-2.55.18-3.35,1.2a29.28,29.28,0,0,1-5.72,5.09c-2.94,2.21-6.57,3.12-9.39,5.42-3.24,2.62-7.34,3.45-10.89,5.41-.66.36-1.24.12-2-.24-2.88-1.49-5.66-3.15-8.47-4.75-1.27-.72-2.67-1.08-3.74-2.23a4.3,4.3,0,0,0-3.12-1.74c-1.23,0-1.92-1.47-2.82-2.24-2.12-1.8-5.1-2.31-6.76-4.68-1.16-1.67-3.41-2.8-4-4.39-.67-1.95-1.9-3.77-1.88-6.15,0-3.4.37-6.77.32-10.15,0-2.31.37-4.68-.09-6.88-.34-1.61.66-2.71.62-4.12a13.42,13.42,0,0,1,.41-4.88c1.16-3.16,1.88-6.52,4-9.33.86-1.15,1.51-2.68,2.27-3.91a12.49,12.49,0,0,1,5.5-5.05,41.47,41.47,0,0,0,5.8-3.1,10.87,10.87,0,0,1,7.22-1.4,9.38,9.38,0,0,0,2.84-.15c2.64-.5,5.25,0,7.87.13a30.4,30.4,0,0,0,4.28.26A6.23,6.23,0,0,1,103.36,16,19.65,19.65,0,0,0,108,18.56a10.59,10.59,0,0,1,5.78,4.71c2,3.7,4.73,7,5.9,11.29a59,59,0,0,1,1.9,16.61c-.06,4.47.94,8.94,0,13.37a2.22,2.22,0,0,0,.29,1.27c.63,2.08-.72,3.38-1.72,4.75C119.66,71.17,119.55,71.61,120.22,72.5ZM71.92,31.39c-.36.07-.65.16-.72.63a13.93,13.93,0,0,1-1.39,3.12c-.81,1.93-2,3.84-1.92,6,0,1.36-.06,2.74.06,4.07.25,2.94,0,6.16,1.62,8.67,2,3.12,3.69,6.53,7,8.77a30.93,30.93,0,0,0,7.26,4,23.61,23.61,0,0,0,12.13.45c4.15-.81,7.14-3.65,10.25-6.24,3.39-2.81,4.45-7,6.16-10.75.39-.87-.17-2.16.21-3,1.09-2.49-.15-4.87-.11-7.3a5.18,5.18,0,0,0-.78-2.57c-1.86-2.74-3-5.87-5.47-8.34s-5.07-4.53-8.59-5.4a25.16,25.16,0,0,0-12.52-.25c-.63.16-.74,1-1.16.71-1.73-1.07-3.18.1-4.39.8a17.5,17.5,0,0,0-4.81,3.36C73.9,29,73.5,30.35,72,30.58a3.84,3.84,0,0,0,0,.67Z"></path><path class="cls-3" d="M121.54,102.79a8.21,8.21,0,0,0-4.42-1.72,11.23,11.23,0,0,1-3.89-1.59,2.86,2.86,0,0,0-1.29-.51c-3.39.17-5.94-2.19-9-3-2.09-.57-3.82-2.21-6-3a36.7,36.7,0,0,0,8.81-4,88,88,0,0,0,7.9-5.51c2.35-1.91,4.67-3.85,6.93-5.87a1,1,0,0,1,1.14-.21.89.89,0,0,1,.29,1c-.37,1.88.6,3.79-.33,5.7-.38.79.55,1.68.54,2.74,0,2.66,0,5.34.06,8,.06,1.61.58,3.48-.28,5.1C121.49,100.86,122.66,101.92,121.54,102.79Z"></path><path class="cls-1" d="M94.57,99.28l.41-.1c0,.13,0,.27-.07.4Z"></path><path class="cls-1" d="M127.52,134.64l-.06.12-.18-.13.12-.13Z"></path><path class="cls-2" d="M72,31.25a3.84,3.84,0,0,1,0-.67c1.47-.23,1.87-1.56,2.68-2.49a17.5,17.5,0,0,1,4.81-3.36c1.21-.7,2.66-1.87,4.39-.8.42.27.53-.55,1.16-.71a25.16,25.16,0,0,1,12.52.25c3.52.87,6.06,2.87,8.59,5.4s3.61,5.6,5.47,8.34a5.18,5.18,0,0,1,.78,2.57c0,2.43,1.2,4.81.11,7.3-.38.88.18,2.17-.21,3-1.71,3.77-2.77,7.94-6.16,10.75-3.11,2.59-6.1,5.43-10.25,6.24a23.61,23.61,0,0,1-12.13-.45,30.93,30.93,0,0,1-7.26-4c-3.27-2.24-5-5.65-7-8.77C68,51.4,68.2,48.18,68,45.24c-.12-1.33,0-2.71-.06-4.07-.08-2.19,1.11-4.1,1.92-6A13.93,13.93,0,0,0,71.2,32c.07-.47.36-.56.72-.63,0,.16,0,.28.24.17A3.28,3.28,0,0,0,72,31.25Zm22.7,3.15c.12,2.13-.93,3.15-2.62,2.56a2.63,2.63,0,0,1-1.5-3.75c.76-1.63,2.4-2.39,4.69-2.18a5.51,5.51,0,0,1,4.49,3.56c.76,2.61-.62,4.49-2.12,6.28a6.09,6.09,0,0,1-4,2.42c-4.37.39-8.3-3.19-9.54-7.06a13.25,13.25,0,0,1-.27-5.74c0-.32.25-.75-.21-.93a.8.8,0,0,0-.68.07c-1,.83-2.39,1.23-2.63,2.83a2,2,0,0,1-1,1.14c-2.36,1.35-3.09,3.95-4.15,6.15-1.14,2.38-1,5.39-.47,7.75.78,3.71,2.29,7.43,6,9.66,3.13,1.86,5.87,4,10,3.3,2.21-.37,4.55.17,6.48-1.48.12-.1.33-.1.5-.16a12.54,12.54,0,0,0,5-3c3.25-3,4.42-6.7,4.7-11a13.79,13.79,0,0,0-1.12-7c-2.18-4.32-5.54-7.63-10.48-8.87A20.79,20.79,0,0,1,93.06,28a4.69,4.69,0,0,0-5.63,2.67,7.27,7.27,0,0,0,1.36,7.14c1.69,2.21,5,3.55,6.93-.07C96.77,35.74,96.84,35.27,94.74,34.4Z"></path><path class="cls-3" d="M94.74,34.4c2.1.87,2,1.34,1,3.37-1.88,3.62-5.24,2.28-6.93.07a7.27,7.27,0,0,1-1.36-7.14A4.69,4.69,0,0,1,93.06,28a20.79,20.79,0,0,0,2.71.85c4.94,1.24,8.3,4.55,10.48,8.87a13.79,13.79,0,0,1,1.12,7c-.28,4.3-1.45,8-4.7,11a12.54,12.54,0,0,1-5,3c-.17.06-.38.06-.5.16-1.93,1.65-4.27,1.11-6.48,1.48-4.13.69-6.87-1.44-10-3.3-3.74-2.23-5.25-5.95-6-9.66-.5-2.36-.67-5.37.47-7.75,1.06-2.2,1.79-4.8,4.15-6.15a2,2,0,0,0,1-1.14c.24-1.6,1.64-2,2.63-2.83a.8.8,0,0,1,.68-.07c.46.18.25.61.21.93a13.25,13.25,0,0,0,.27,5.74c1.24,3.87,5.17,7.45,9.54,7.06a6.09,6.09,0,0,0,4-2.42c1.5-1.79,2.88-3.67,2.12-6.28A5.51,5.51,0,0,0,95.31,31c-2.29-.21-3.93.55-4.69,2.18A2.63,2.63,0,0,0,92.12,37C93.81,37.55,94.86,36.53,94.74,34.4Z"></path><path class="cls-3" d="M72,31.25a3.28,3.28,0,0,1,.12.31c-.19.11-.23,0-.24-.17Z"></path></svg>