<svg xmlns="http://www.w3.org/2000/svg" id="Layer_1" data-name="Layer 1" viewBox="0 0 287 302"><defs><style>
      .cls-1 {
        fill: #aecde9;
      }

      .cls-2 {
        fill: #b2cee8;
      }

      .cls-3 {
        fill: #1a1c1f;
      }

      .cls-4 {
        fill: #101113;
      }

      .cls-5 {
        fill: #fff;
      }

      .cls-6 {
        fill: #f7f7f7;
      }

      .cls-7 {
        fill: #332f31;
      }

      .cls-8 {
        fill: #f6f6f6;
      }
    </style></defs><g><path class="cls-1" d="M74.69,299.54a85.81,85.81,0,0,1-12.33-1.44c-.61-.12-1.21-.22-1.82-.3s-1.65.38-1.76-.89c-.11-1.46,1-1.24,1.56-1.35,2.08-.38,4.17-.63,6.25-.86,3.27-.36,6.56-.61,9.82-.66,8.93-.14,17.86-1.08,26.8-.79,6.61.21,13.24-.25,19.85-.3,10.59-.08,21.19-.35,31.77,0,6.1.2,12.21-.11,18.32.61a51.81,51.81,0,0,0,10.17.51c5.11-.41,10.2.12,15.28.4,5.63.32,11.27.46,16.9,1.15,3.39.42,6.82.76,10.23,1,.92.07,2.48-.14,2.49,1.37s-1.54,1.14-2.38,1.16c-6,.15-11.88,1.29-17.85,1.57q-10.61.5-21.24.84c-13.14.42-26.29.48-39.44.27-5.17-.08-10.38.28-15.55-.05-7.32-.46-14.65-.21-22-.6-4.88-.25-9.79-.31-14.69-.48A202.26,202.26,0,0,1,74.69,299.54Z"></path><g><path d="M59.26,127.75c.32-1.37,1.69-2.6.55-4.16.84-4.78,1.6-9.55,3.56-14.09.95-2.18,2.71-3.93,3.14-6.34l1-.57c.29-.53,2.13-1,.08-1.64a11.82,11.82,0,0,0,2.76-4c2.21-1.54,1.64-4.1,2.09-6.18a15.39,15.39,0,0,0-5-15.49c-.49-2-2.46-2.87-3.68-4.28-3.63-4.19-3.82-5.42-.34-9.72A6.07,6.07,0,0,0,64.13,60a1,1,0,0,0,1-.6c.54-1.52,2.28-2,3-3.33a3.62,3.62,0,0,0,0-.57c0-.22,0-.43,0-.64l1.09,0c.32.28.47.12.56-.21a4.89,4.89,0,0,1,0-.54c.75-.32,1.33-1.34,2.34-.58a.69.69,0,0,0,.1.19s.1,0,.15.05l-.24-.25c-.19-.77-.39-1.54-.58-2.31l0,0L72.8,50c0-.22.06-.43.1-.65a1,1,0,0,0,1-1.22h0A1,1,0,0,0,75.15,47l0,0a3.25,3.25,0,0,0,.54,0l.6.11c.48.6,1.15.48,1.79.46l.57.18.44.42.13.13,0,.18c.15.24.25.57.47.69,2.89,1.58,6,3,4.38,7.29-1.89-.31-3.1-1.84-4.69-2.7-1.94-1-3.7-.74-4.37,1.49a2.17,2.17,0,0,1-.89,1.26c-1.67-.21-2.65.35-2.49,2.21A1.8,1.8,0,0,0,70,59.89c-.77.38-.71,1.1-.73,1.78l-.26.66a.45.45,0,0,0-.3.34c-1.92,1.32-2.5,3-1,4.91,1.37,1.73,3,3.08,4.22,5.14s3,3.85,4.35,5.93c.62,1,2,1.87,1.51,3.34-1,2.79.37,5.54.19,8.38a16.82,16.82,0,0,1-2.14,8c-3,4.94-6.1,9.8-8.31,15.16a24.61,24.61,0,0,0-2,5.48c-.33,2.49-.46,5.11-.55,7.68-.17,5.48-.78,11-.55,16.45.07,1.39.18,2.15,2,2.45a30.82,30.82,0,0,1,7,2.48c.54.23.72.74,1.52.39,1.05-.44.57-1.18.5-1.7a56.33,56.33,0,0,1-.67-13.6c.59-5.73,1.44-11.35,3.61-16.79,2.57-6.42,5.73-12.65,7-19.55a31.15,31.15,0,0,0-1.55-16,47.84,47.84,0,0,0-6.37-12.1c-1.64-2.26-.92-4,.67-5.7s3.17-2.33,5.42-1.33C89,64.08,95,65.24,100.3,68.05c3.56,1.89,7.45,1.55,11.06,1.34,7.8-.45,15.68-1.07,23-4.15,3-1.28,6.62-1.33,9-4.3.6-.75,2.68-.75,3.54.11,1.83,1.82,4,2.45,6.36,3.32,8,3,16.09,5.21,24.7,5.06,2.84-.05,5.68-.32,8.52-.34,3.2,0,5.29-2.66,8.37-3.24,3.84-.73,8-.81,11.19-3.95,1.72-1.69,4.27-.89,5.78.82s2.22,3.56.61,6c-3.49,5.38-6.8,11-7.51,17.53-.42,3.86-.74,7.84.43,11.77,1.4,4.75,4.59,8.71,5.87,13.43,1,3.87,3.36,7.26,3.83,11.33.51,4.46,1.14,8.89,1.43,13.4a86.34,86.34,0,0,1,.15,10.42c-.76.69-.45,1.58-.47,2.41s-.08,1.53-.11,2.3l-.47.67c.82.63-2,1.78.33,2.19l.81-.37,2.1-.21a1.37,1.37,0,0,0,1.44-.41c1.85-.67,3.87-1.16,4.1-3.66,1.16-1.07.44-2.44.56-3.68a1.29,1.29,0,0,0-.1-.48c.1-1,.21-1.94.31-2.91l.36-.81c-.7-1,0-1.45.74-1.89v-.19a3.28,3.28,0,0,1,.2-.31l-.31.2a2.51,2.51,0,0,0-.55.06c-.46-.14-.51-.44-.34-.84a1.07,1.07,0,0,0-.08-1.5c0-.59,0-1.19,0-1.78.88-.06,1-.64,1-1.37,1.73-2.82-1.27-5.84.35-8.66l-.28-.09a1,1,0,0,0-1.16-1.09c-1.69-2.09-.48-4.9-1.79-7.09l-.33-.54c-.8-2.7-1.17-5.57-3.19-7.77a.62.62,0,0,0-.27-.47l-.33-.66-.45-1.15-.16-.58-.48-.64-.06-.09-.55-1-.67-1.18c-.12-.38-.23-.77-.34-1.15-1.7-.91-2.35-2.62-3.2-4.17l-.39-.57-.18-.66c0-.22,0-.44-.07-.66a.32.32,0,0,1,0-.44c.46-.08,1.11-.1,1-.73s-.76-.45-1.23-.49l-.24-.67c-.58-2.7,1.86-5.42,0-8.12,0-.6,0-1.21,0-1.81,2.23-1.11,2.18-2.79,1.16-4.71h0c2.35-.24,3.31-1.5,2.27-3,0-1.94,1.72-2.58,2.89-3.62,1.42-.51,2.33-1.33,1.84-3l2.49-2.78c.08,0,.22-.07.23-.12a2.49,2.49,0,0,0-.05-.46,4.49,4.49,0,0,0-2-3.19.47.47,0,0,0-.3-.34c-.21-.86-1.89-.9-1.26-2.2.86-1.79-.81-1.09-1.4-1.46.07-1.05-.47-.86-1.08-.53-.76-1.06-2-1.62-2.23-3.28s-3-2.27-4.43-1a44.21,44.21,0,0,1-3.9,2.39,5,5,0,0,1-6,.11c0-.59,0-1.19,0-1.78l.61-.5.59-.36.71-.18c1.55,1,2.07.07,2.32-1.29,3-2,5.42-5,9.39-5.24a4.35,4.35,0,0,0,.51,0l.71.37.2.12c.7.71,1.83,1.18,1.5,2.51l.48.51a3.55,3.55,0,0,1,1.91,2.76,1.2,1.2,0,0,0,.4.22,1.71,1.71,0,0,1,.44.13l-.24,1c.09.33.24.48.56.2,1.39-.21,1.43.6,1.2,1.6l.37.56,1.41.87a.32.32,0,0,0,.2.26c.52.49,1,1,1.57,1.46a.56.56,0,0,0,.37.39c.1.38.19.77.28,1.16-1.14,1.9.63.92,1.16,1.17l0,0,.46.65.59.6c1.21,1,.47,2,.09,3,0,.3.09.6.13.9-.11.56-.18,1.14-.79,1.42l-.59.79a10.21,10.21,0,0,1-4,3.83c-2.69.75-3.84,2.71-4.17,5.32l-.57.61a3,3,0,0,0-1.17,3.07,1.58,1.58,0,0,1-.12.52c-1.75,1.15-1.68,2.33-.07,3.54,0,.39,0,.78.07,1.18-1.29.39-1.55,1-1,2.35s1.5,2.63.51,4a1.83,1.83,0,0,0,0,2.55c.85,1.17,1.76.83,2.77.51l.1.08c-.08,1.71-.07,3.37,1.71,4.34l.67.86c-.07.65.12,1.4-.74,1.73-1.09.41-.75,1-.05,1.4,2.11,1.16,2.13,1.13.15,3.11,1.48,1.39,3.11.34,4.69.26a.36.36,0,0,1,.13.44c.18.24.35.49.53.74h0c.25,1-.72,2.55,1.16,3l.16,1.13-2.2.15c.83.71,2.14.43,2,1.68-.3,3.25,1.11,6.27,1.24,9.46-.07.84,1.25.27,1.16,1.13.17,1.77-.56,3.62.48,5.31l.24.62-.23,0a5.08,5.08,0,0,0,0,4.72c.05.4.09.79.13,1.19-.57.06-1.45.16-1.33.74a2.2,2.2,0,0,0,1.72,1.63c0,.39,0,.78,0,1.17-.84.2-1.22.53-.33,1.2l-.17,2.35-.41.71c.56.93-.95,3.32,1.59,2.77a26.89,26.89,0,0,0,9.44-3.54c0-2,.69-4-.37-5.9.05-2.14-.68-4.34.56-6.37,1.47-3.15,4.18-3.77,7.29-3.61a112.34,112.34,0,0,1,14.4,1.76,88.33,88.33,0,0,0,17.56,1.43c1.76,0,3.19,1.53,5.24.62.76-.35,2.21,1.5,1.09,2.53-3.12,2.88-3.87,7.28-6.78,10.15-2.32,2.3-3.87,5.33-6.88,7-1.61.9-1.69,2.09-.39,3.8a130.21,130.21,0,0,1,10.27,15.86c1.89,3.38-1.52,7.7-6.26,8.17-4.38.43-8.63-.68-12.94-1-3.53-.29-7-1.11-10.53-1.72-2.61-.45-2.69.19-2.88,2.57s1.49,4.37.67,6.65a11.28,11.28,0,0,1-4.66,5.23c-2.47,1-5.17,1.2-7.62,2.37a24.66,24.66,0,0,1-8.31,2.17c-1.37.14-2.18,1.56-3.74,1.9a98.41,98.41,0,0,0-9.77,3.17c-4.65.76-9.42,1.11-13.9,2.44-2.5.74-5.17.31-7.49,1.57l-14.6,1.07c-.24-.14-.49-.41-.71-.39-4.48.34-7.92,4.28-12.74,3.59-.72-.1-1,.83-.23,1.47-2.14,0-3.87,1.32-5.85,1.84-2.9.2-5.41,1.49-8,2.63-2.85,1.25-5.68,2.92-9,2.3-2.72,0-5-1.75-7.63-1.93-4.23-3-9.48-3.11-14.14-4.9.88-1,.23-1.61-.62-1.48-2.75.45-5-1.1-7.56-1.52-2-2.11-4.74-2.12-7.27-2.08a74.79,74.79,0,0,1-12.15-.9l-5.5-.79c-2.31-1.23-5-1.29-7.41-1.57-5.15-.61-9.93-2.46-15-3.3-4.79-2.7-10.16-3.71-15.35-5.26-2.73-1.73-6.19-1.62-8.84-3.53-1.93-2.2-4.19-4.31-2.45-7.66.68-1.31-.84-3,.91-4.29.28-.21-1.72-2-2.72-1.47-2.56,1.33-5.49.81-8,2-3,1.38-6.1-.35-9.08.53a16.86,16.86,0,0,1-1.72.34L15,181c-3.72-1-7.45.66-11.2-.09-1.31-.26-1.35-.65-1-1.71,2.58-8.66,8-15.39,14.51-21.8-4.32-2.69-7.39-6.81-10.85-10.55C3.73,144,2,140.47.41,137c-1.24-2.64.47-4.27,3.33-4.35,7-.2,14,.23,21-1a102.19,102.19,0,0,1,19.07-2.13c1.77,0,3.07,1.19,4.73,1.3,1.66,4.34,2.12,8.9,2.45,13.49-.23,1-.09,2,1,2.41,1.73.64,3.51,1.12,5.24,1.75,2.61,1,2.48-.56,2.18-2.31s-.57-3.59-.85-5.38c1-3.67.39-7.44.67-11.16l0,0C60,129,59.7,128.36,59.26,127.75Zm168.1,20.64-.76.24.14.21.64-.43.13-.27ZM149.2,75l-.77.89c-2.6,2.12-5.15,4.25-2.6,8.16,1.66-1.46,2.53-3.91,4.59-4.67,6.71-2.46,13.55-3.29,20.45-.58.54.21.79,1.12,1.65.29,1.49-1.45,3.14-2.74,5.21-4.52-8.23.37-15.62-.8-22.58-4-1-.46-1.56,0-2.14.67l-3.83,3.78Zm63.47,82.9-.61.34c-1.14.63-2.61-.32-3.65.76-3.1.58-6.17,1.26-9.29,1.7A123.86,123.86,0,0,1,183.23,162c-5.26.08-10.5,1-15.79,1.18-3.4.12-6.75.73-10.17.92a275.78,275.78,0,0,1-27.88-.06c-5.64-.27-11.38-.94-17-1.67-4.12-.52-8.25-.15-12.35-.62-7.07-.8-14-2.47-21-3.54a93.09,93.09,0,0,1-13.69-3.49c-7.52-2.32-14.92-5-22.71-7.69v5.45c-.82.06-1.27-1.41-2.47-.4,1.15,1,.72,3.41,3.15,3.39.18,1.55-.67,3.1-.51,4.5a198.42,198.42,0,0,1,1,22.6c-2.32,1.64-.64,2.58.63,3.6-1.3,2.95,1.5,2.91,2.83,3.4,4.52,1.68,9.17,3,13.74,4.54,4,1.35,7.73,3.35,11.86,4.23,3.21.69,6.45,1.26,9.69,1.83,7.35,1.28,14.61,3.06,22.15,3.12,4.72,0,9.45.5,14.16,1a142.5,142.5,0,0,0,14.34,1c4.23,0,8.48-.29,12.66,0a96.72,96.72,0,0,0,22.52-.59c9.7-1.51,19.54-.77,29.18-2.69,5-1,10-1.92,15-3a2.67,2.67,0,0,0,2.75-.44l1.37-.2c.6.13,1.19.25,1.54-.44l.76-.09a2.42,2.42,0,0,0,2.62-.91h0c2.37-.49,4.48-1.77,6.72-2.44,4.93-1.48,9.77-3.19,14.64-4.82,3.51-1.18,4.84-2.53,4.15-5.86-1.31-6.26.64-12.42.08-18.68-.24-2.67-.5-5.95.43-8.33,1.32-3.42-.25-6.4.38-9.85-1.41.79-2.78.67-3.69,1.67-9,2.24-17.65,5.61-26.39,8.68C216.13,156.85,214.53,158.68,212.67,157.85Zm47.75,17.64c1,1.16,2.44.76,3.55.85,4.66.36,9.4,2.34,14-.22,1.07-.6,2.66-.8,1-2.85a23.15,23.15,0,0,1-2.69-4.07c-1.24-2.51-2.93-4.74-4.27-7.16-1.18-2.12-3.31-3.19-4.79-5-1.33-1.6-.83-2.47-.07-3.08a62.31,62.31,0,0,0,7.71-7.52c2.08-2.36,4.55-4.57,5.39-7.84.36-1.41.24-3.07-1.54-2.5-2.84.92-5.39-.26-8.05-.38-4.2-.2-8.38-.93-12.57-1.43a33.43,33.43,0,0,0-9.44-1.33c-1.28,0-3-.67-3.51.69-.73,1.81,1.77,1.59,2.42,2.69.14.23.78.1,1.08.29a6.32,6.32,0,0,1,3.07,4.35c.68,4.79-.18,9.63.08,14.5a59.23,59.23,0,0,1-.87,15.11c-.49,2.37-.09,4.08,3.11,4.24C256.15,175,258.3,175.28,260.42,175.49ZM39.24,139.56c1.25-.6,1.44-2.08,2.41-2.91,1.1.2,1.73-.63,2.57-1.08s1.7-.89,1.41-1.87-1.53-1-2.35-.91c-3.47.32-7,.65-10.38,1.23a124.84,124.84,0,0,1-23.79,2c-3.23-.07-4.49,2-3,5,2.86,5.53,7.5,9.51,12.3,13.24,2.05,1.59,2.64,3.39.72,5.53C15,164.44,10.67,169,7.7,174.6c-.31.58-1.26.68-.63,1.8a2.11,2.11,0,0,0,1.72,1.26c2.47-.16,5,.21,7.34,0,7.47-.7,14.86-2.18,22.31-3.18,1.28-.17,1.37-.62,1.31-1.57-.3-5.58-.44-11.18-1-16.73-.17-1.73,1.43-3.06,1-4.19C38.19,147.83,39.3,143.69,39.24,139.56Zm127.59,13.67c7.15-.4,14.3-.94,21.46-1.11a4,4,0,0,0,4-2.74c.59-3.17,2.45-5.92,2.67-9.16.32-4.8.19-5-4.62-4.74-3.36.21-6.69.81-10,1-6,.4-12-.54-18,.4a3.33,3.33,0,0,1-3.72-3.88c.23-2.25-.23-4.45-.11-6.66,0-.67.19-.78-.58-1-4.2-1.31-5-2.79-4.19-6.87.48-2.3,3.27-4.84,5.42-4.93,3-.13,6.14,1.87,6.93,4.47,1,3.11-.28,6.22-3.1,7.37-.69.28-1.21.32-1.17,1.22a30.59,30.59,0,0,0,.13,4.4c.25,1.24.11,3,2.71,2.26a14.06,14.06,0,0,1,4.81-.37c8,.78,16-.64,24-.75.58,0,.83-.11,1-.72.42-1.85-1.24-6.14-3-6.67-2.81-.87-2.67-2.88-2-4.89,1.46-4.7,1.15-9.54.86-14.25-.48-7.7-5.11-12.28-12.73-13.41-2.34-.34-4-1-4.31-3.61a4.93,4.93,0,0,0-.75-2.48c-.92-1.07-.15-2.83-1.54-3.57-4-2.12-8.34-1.94-12.58-1.5-7.24.76-9.26,2.3-9.36,8.51-.07,4.54-1.55,8.84-1.35,13.39.07,1.75.47,1.93,2,1.9,4.08-.08,8.16,0,12.24,0,2.67.06,5.23,1,7.41-2,1-1.4,3.69-2,5.85-2.17,4.38-.43,8.21,4.45,6.52,8.26-1.38,3.08-4,4-7.09,4.15-2.82.1-5.17-.87-6.53-3.42-.46-.84-.64-1.25-1.77-1.24-5.28,0-10.57,0-15.84-.22-2.76-.14-3.1,1.34-3.12,3.4,0,.47.17.94.14,1.4-.67,10-1.86,19.9-1.43,29.91.09,2.15,1.21,2.9,3.2,2.49,1.43-.3,3.07.17,4.2-.2,2-.63,6,2.76,5.91-2.59,0-.53,1-1.33,1.63-1.56,2.62-.91,5.45-1.12,7.65.67,1.66,1.36,2.41,3.1,1.18,5.81-1.9,4.14-5,5.88-8.61,3.13-2.08-1.56-4.3-1.85-6.51-2.09-2.52-.27-5.13.21-7.68-.26-.85-.16-.86.25-1.08.87-1,2.92-.49,3.73,2.74,3.84C154.65,153.25,160.73,153.48,166.83,153.23ZM142.4,135.6c-2.27,1.94-4.32,1-6.3,1-5.85,0-5.91.09-4.37,5.76a10.93,10.93,0,0,1,.3,4.85c-.82,4.08-4.11,2.92-6.82,2.82-2.9-.11-4.87-2.07-4.7-4.87.19-3.1,2.26-4.73,5-5.71,1-.35,2-.38,1.34-2s.79-3,1.49-4.31c.29-.54,1.92-.24,2.52-.23,3.16.06,6.29-.86,9.41-.37,1.94.31,2.43-.77,2.57-2.18.33-3.45.42-6.93.82-10.37.23-2-.39-2.52-2.33-2.13-1.73.34-3.52.36-5.28.54-3.21.33-4.34-.71-4.27-3.9a8.75,8.75,0,0,1,0-2.28c1.14-3.61-.92-3.6-3.62-3.8-1.87-.14-2.25.7-2.49,1.93a7.62,7.62,0,0,1-6.29,5.53,8.23,8.23,0,0,1-7.56-3.61c-1.44-1.9-.33-4.63-.06-6.82.49-4,5.22-5.78,9.58-3.33,2.73,1.55,5.12,3.7,8.89,2.92,4.58-1,5.51.26,5,4.93-.54,4.52-.21,4.86,4.19,4.31a3.41,3.41,0,0,1,1.46,0c2.62.92,3.28-.31,3.27-2.69a95.38,95.38,0,0,1,.28-10,44.68,44.68,0,0,0-2.08-17.39,3.24,3.24,0,0,0-2.63-2.44,30,30,0,0,0-9.15-.62c-6.69.75-11.49,4.18-12.73,10.47-.57,2.88-2,3.39-4.26,3.34a12,12,0,0,0-7.73,2.52c-3.73,2.77-5.34,6.65-5.91,10.92-.49,3.63-.18,7.36-.38,11-.1,1.83.72,2.45,2.31,3,4.25,1.53,8.66.7,13,1.18a1.81,1.81,0,0,0,1.9-1c2.5-4.09,7.34-3.24,10.31-.6,2.25,2,1.71,6-1.05,8.82s-8.68,1.55-9.68-2.21c-.64-2.42-2.72-2.61-4.24-2.18a15.57,15.57,0,0,1-9.17-.41c-2.87-.89-4.59.18-5.67,3-1.79,4.65-1.16,9.3.21,13.81.86,2.88,2.68,5.21,6.18,5.65,5,.61,9.95,2,14.93,2.7,7.36,1,14.85.93,22.28,1.31.79,0,1.68.14,1.68-1.06C142.41,146.34,142.4,141.29,142.4,135.6Zm64.41-67.43-.59-.48c-2.49,1.39-5.33,2.38-7.38,4.24-5.73,5.22-11.1,10.82-16.68,16.21-1.18,1.14-.47,1.87.42,2.16A17.66,17.66,0,0,1,191,96.23c2.39-2,5.08-3.94,7.17-6.34.71-.81,3.06-2.25,1.06-4.2-.13-.12-.06-.6.07-.83,2.09-3.77,2-8.45,5.2-11.83C205.69,71.8,206.07,69.81,206.81,68.17ZM93.5,127.71c-3.6,3.29-7.06,6.78-10.88,9.8-2.21,1.76-1.72,3.83-1.48,5.8.23,1.79,2.21,1.29,3.5,1.64a4.78,4.78,0,0,1,1.92.62c2.69,2.39,5.6,1.72,8.5,1C93,140.29,90.9,134.25,93.5,127.71Zm21.89-22c.92,4.55,2,5.57,5,5,1.88-.34,1.31-1.8,1.21-2.73C121.42,105.94,118.73,105,115.39,105.66Zm61.88.9a1.8,1.8,0,0,0-2.16-2.27,2.81,2.81,0,0,0-2.78,3c0,1.82,1.22,1.79,2.32,1.78C176.22,109.09,177.63,108.66,177.27,106.56Zm-52.85,18.33c-.08-.73-1.16-1.18-2.33-1.22-1.61,0-1.65,1.4-1.85,2.47-.34,1.89,1.46,1.16,2.16,1.35C123.53,127.8,124.41,127,124.42,124.89Zm35.21-7.13c-1.69-.11-1.75,1-1.86,2.08-.09,1,.13,2,1.11,1.81,1.14-.27,2.91-.22,3-2.07S160.43,118.19,159.63,117.76ZM127.3,146c.43,0,1.48.3,1.22-1.44-.17-1.2-.37-1.76-1.72-1.53-1,.18-2.24-.18-2.25,1.51S125.74,146,127.3,146Zm35.26,1.9c1.29-.58,3.72.83,3.55-2.07-.06-1-.37-1.41-1.27-1.48C162,144.13,163.79,147,162.56,147.92Z"></path><path class="cls-1" d="M66.51,103.16c-.43,2.41-2.19,4.16-3.14,6.34-2,4.54-2.72,9.31-3.56,14.09-8.3-1.7-16.6-3.42-24.57-6.36-4-1.45-7.92-2.73-12-3.79a15.5,15.5,0,0,1-5-2.89c-1.6-1.19-1.08-2.66,1.05-3.33a42.68,42.68,0,0,1,10.36-1.78c11.32-.66,22.6-1.75,33.86-3C64.53,102.37,65.68,102.15,66.51,103.16Z"></path><path d="M84.07,56.42c1.57-4.26-1.49-5.71-4.38-7.29-.22-.12-.32-.45-.47-.69,3.62,1.19,6.6,3.56,9.84,5.44.66.38,1.36,1.17,2,1.11,5.15-.51,9.7,2.06,14.6,2.71,2.21.3,4.43.88,6.69.38,4-.07,7.66-1.57,11.5-2.31.51-.1,1.42-.16,1.52-1.08a20.65,20.65,0,0,0,6.5-2.85c.28-.1.57-.17.83-.29,5.72-2.67,11.12-6.41,18-5.11,1.34,1.57,1.88,4,4.44,4.28,2.8,1.94,6.22,2.63,9.09,4.4a7.66,7.66,0,0,0,5.4,1.26c2.31.78,4.57,1.75,7.07,1.72,2.31,1.12,4.73.09,6.86-.28,5.32-.92,10.4-3.18,16-2.84.23,0,.47-.29.71-.44,0,.59,0,1.19,0,1.78-.95.74-.14,3.38-1.22,2.75-2.85-1.67-5,.53-7,1.13a55.13,55.13,0,0,1-10.16,2.25c-4.69.53-9.39,1-13.73-1.58-1.71,1.62-2-1.25-3.8-1.06-4.41.49-7.8-3-11.89-4.18a5.6,5.6,0,0,1-3.34-2,4.71,4.71,0,0,0-7-.68,24.69,24.69,0,0,1-3.83,2.42c-2.15,1.23-4.83,1-6.63,2.35-3.74,2.82-8.33,3-12.46,4.49a21.07,21.07,0,0,1-12.24.08c-1.06-.27-2,.7-3.1,0-2-1.45-4.69-1.85-6.86-2.34-2-.44-3.86-2.49-5.71-1.55s-1.49.12-1.45-1c0-.33-.3-.68-.46-1a2.16,2.16,0,0,0-2.12-2.57c-1.56,0-2,1.45-2.41,2.73C84.55,56.52,84.35,56,84.07,56.42Z"></path><path class="cls-1" d="M150.65,46.44c-6.85-1.3-12.25,2.44-18,5.11-.26.12-.55.19-.83.29.31-6.37,1.87-12.54,3.55-18.61a197.5,197.5,0,0,0,5.15-28.39c.25-2,1.84-2.86,2.37-4.49.17-.52.85-.43,1.2,0,.72,1,2.33.94,2.4,2.67.14,3.42.58,6.82.86,10.23.45,5.62.92,11.25,1.52,16.85.4,3.77.12,7.69,1.39,11.35C150.86,43.13,150.53,44.79,150.65,46.44Z"></path><path class="cls-1" d="M94.81,205.87a74.79,74.79,0,0,0,12.15.9c2.53,0,5.26,0,7.27,2.08-2.26,4.32-5.82,7.56-9.37,10.69-7.31,6.47-14.83,12.71-22.32,19-2.24,1.88-4.66,3.54-7,5.32-.67.51-1.34.92-2.11.32s-.33-1.4,0-2.1c2.52-5.54,6.22-10.37,9.38-15.52,3.82-6.22,7.55-12.49,11.29-18.76A10.85,10.85,0,0,0,94.81,205.87Z"></path><path class="cls-1" d="M221.48,102.39l-.67-.86c.34-.31,1.26-.3.59-1.17-.8-1-1.53-2.11-2.3-3.17l-.1-.08c-.79-1.42-1.68-2.82-1.41-4.57,6.53-1.1,13.07-2.12,19.58-3.35a44,44,0,0,1,6.67-.76c6.74-.22,13.45-.81,20.16-1.32.92-.07,2.45-.71,2.71.83.19,1.18-1,1.64-2,2.13-8.6,4.17-17.19,8.36-25.23,13.59a18.81,18.81,0,0,1-8.53,2.85c-1.9.18-3.24,1.88-5.21,1.85C224.39,106.29,223.64,103.85,221.48,102.39Z"></path><path class="cls-1" d="M195.38,206.17c2.32-1.26,5-.83,7.49-1.57,4.48-1.33,9.25-1.68,13.9-2.44,7.48,9.25,15.8,17.85,22.08,28.06a38.11,38.11,0,0,0,3.14,3.86c.43.54,1,1.15.35,1.81a1.42,1.42,0,0,1-1.89,0c-4.66-2.82-9.51-5.38-13.91-8.57-5.37-3.91-11-7.29-16.62-10.85-4.18-2.67-9-4.23-12.82-7.42A3.8,3.8,0,0,1,195.38,206.17Z"></path><path class="cls-1" d="M229.74,126.57c.09-.86-1.23-.29-1.16-1.13a1.72,1.72,0,0,0,1.06-1.86,26.86,26.86,0,0,0-2.13-9.43l-.16-1.13-.06-1.66c3.49.69,7,.32,10.48.07a167.75,167.75,0,0,1,17.08-.05c5,.17,10,1.1,15,1.07a10.87,10.87,0,0,1,2.9.35,2.31,2.31,0,0,1,1.66,2.21c.06.94-.74,1.18-1.45,1.59-3,1.75-6.47,2.13-9.76,3C254,122,244.67,124,235.55,126.85c-1.77.56-3.57,1-5.36,1.52C230,127.78,230.62,127,229.74,126.57Z"></path><path class="cls-1" d="M200.19,54.54c-.24.15-.48.46-.71.44-5.57-.34-10.65,1.92-16,2.84-2.13.37-4.55,1.4-6.86.28C185.84,47,196.81,37.74,208.25,29c2.94-2.24,5.38-5.11,8.53-7.14.77-.49,1.43-1.16,2.32-.42s.39,1.56.06,2.4c-1.84,4.69-5.09,8.52-7.71,12.74-2.77,4.46-5.69,8.82-8.22,13.43a4.25,4.25,0,0,0-.54,2.78l-.59.7-.71.18-.59.36Z"></path><path class="cls-1" d="M144.18,218.68c3.37.62,6.2-1.05,9-2.3,2.61-1.14,5.12-2.43,8-2.63a314.3,314.3,0,0,1-7.19,31.51c-1.27,4.31-.87,8.94-2.43,13.2-.47,1.27-.68,2.75-2.63,2.53s-2.41-1.67-2.38-3.15c.13-6.77-1.17-13.42-1.39-20.16C145,231.35,144.12,225,144.18,218.68Z"></path><path class="cls-1" d="M167.1,211.91c-.75-.64-.49-1.57.23-1.47,4.82.69,8.26-3.25,12.74-3.59.22,0,.47.25.71.39.78,6,3.26,11.58,5.07,17.32,2.34,7.43,4.8,14.84,7.41,22.18,1,2.83,2.67,5.42,3,8.51.07.66.54,1.36-.22,1.85-.95.61-1.5-.23-1.91-.81-4.33-6.11-9.43-11.65-12.76-18.49a142.69,142.69,0,0,0-9.82-17.68A88.39,88.39,0,0,1,167.1,211.91Z"></path><path class="cls-1" d="M125.35,54.69c-.1.92-1,1-1.52,1.08-3.84.74-7.53,2.24-11.5,2.31-3.71-11.17-7.38-22.35-11.14-33.51-1.27-3.78-2.77-7.48-4.11-11.23a14.5,14.5,0,0,1-.63-2.85c-.08-.64-.23-1.46.67-1.73a1.36,1.36,0,0,1,1.5.7c4,5.73,8.83,10.87,12,17.24,4,8,8.57,15.64,13,23.39A11.09,11.09,0,0,1,125.35,54.69Z"></path><path class="cls-1" d="M67.53,75.23a15.39,15.39,0,0,1,5,15.49c-.45,2.08.12,4.64-2.09,6.18-1.64-3.28-5-4.51-7.82-6.28-8.86-5.65-18-10.93-26.95-16.37a14.74,14.74,0,0,1-2-1.66c-.61-.54-1.78-.94-1-2,.61-.85,1.55-.52,2.44-.28A124.16,124.16,0,0,0,62.9,74.73C64.45,74.8,65.93,75.6,67.53,75.23Z"></path><path class="cls-1" d="M169.58,56.38a7.66,7.66,0,0,1-5.4-1.26c-2.87-1.77-6.29-2.46-9.09-4.4,3.26-2.46,5.15-6.06,7.31-9.33,4.61-7,8.54-14.41,13.47-21.23,2.09-2.88,3.66-6.18,5.84-9,.66-.87,1.36-2.27,2.77-1.67,1.67.71.55,2.19.26,3.09-1.1,3.42-2.38,6.8-3.76,10.13A263.58,263.58,0,0,0,169.58,56.38Z"></path><path class="cls-1" d="M216.66,82.94a1.58,1.58,0,0,0,.12-.52c.77-.88,2.05-1.56,1.17-3.07l.57-.61c1.22.22,1.64-.42,1.82-1.53.11-.65.12-1.61,1.28-1.4a1.32,1.32,0,0,0,1.15-1.37h0a4.85,4.85,0,0,0,3.43-.21c5.42-2,11.15-2.8,16.65-4.44,4.29-1.27,8.58-2.5,12.91-3.61,1.12-.29,2.5-.87,3.25.26.94,1.4-.38,2.21-1.34,3.09-3.43,3.1-7.48,5.26-11.5,7.39-6.55,3.46-13.17,6.8-19.87,10-3,1.4-5.8,3.21-9.11,3.84-.79-.92-.32-2-.49-3,0-.4,0-.79-.07-1.18C216.7,85.3,217.55,84.14,216.66,82.94Z"></path><path class="cls-1" d="M122.41,211.85c4.66,1.79,9.91,1.87,14.14,4.9-2.57,1.56-4.11,4.09-5.62,6.52-6.55,10.5-12.87,21.14-20,31.25-.67.95-1.25,2.34-2.68,1.57-1.2-.66-.49-1.89-.24-2.91,1.78-7.13,5.6-13.5,7.74-20.5S120.63,218.94,122.41,211.85Z"></path><path class="cls-1" d="M66.93,200.21c5,.84,9.82,2.69,15,3.3,2.37.28,5.1.34,7.41,1.57-6.29,3.35-13.17,5.15-19.8,7.6-6.4,2.35-12.66,5.07-19,7.72-1.16.48-2.43,1-3.28.17-1.08-1,.35-2,.9-2.73a30.11,30.11,0,0,1,5.17-5.17C58.1,208.76,62.9,204.9,66.93,200.21Z"></path><path class="cls-1" d="M69.85,54a4.89,4.89,0,0,0,0,.54l-.56.21-1.09,0c-2.77-3.51-5.67-6.92-8.29-10.53-3.07-4.25-5.83-8.72-9.37-12.62-.43-.47-.88-1.14-.24-1.84s1.27-.21,1.85.09A89.71,89.71,0,0,1,66.49,38.7c2.46,1.93,5.16,3.43,7.7,5.21,1.23.85,3,1.19,3.39,3l-1.24.19-.6-.11c-.19-.44-.38-.59-.54,0l0,0c-.66.09-1.41.07-1.22,1.1h0c-.7.11-1.22.37-1,1.22,0,.22-.07.43-.1.65-.45.3-1.12.38-1.13,1.12l0,0A5.46,5.46,0,0,0,69.85,54Z"></path><path class="cls-1" d="M227.87,63.48l-.59-.6c.09-.39-.14-.55-.46-.65l0,0-1.16-1.17c-.09-.39-.18-.78-.28-1.16,0-.21.14-.64-.37-.39-.53-.48-1.05-1-1.57-1.46l.3-.14-.5-.12L221.85,57l-.37-.56c.23-1,.19-1.81-1.2-1.6l-.56-.2.24-1a20.88,20.88,0,0,0,8.76-3,50.43,50.43,0,0,1,10.05-3.78,23,23,0,0,0,3.4-1.63c1-.49,2.19-1.13,3-.31,1.1,1.1-.08,2.34-.76,3a94.33,94.33,0,0,1-7.76,7.47A90.16,90.16,0,0,0,227.87,63.48Z"></path><path class="cls-1" d="M230.2,145.46l.17-2.35c.49-.3.27-.79.33-1.2s0-.78,0-1.17a2.71,2.71,0,0,0-.39-2.37c0-.4-.08-.79-.13-1.19a17,17,0,0,0,0-4.72l.23,0a23.53,23.53,0,0,1,10.55.63c-1.24,2-.51,4.23-.56,6.37-.18,4.6-.18,4.61-4.67,4.79a5.64,5.64,0,0,0-3.23,1c2.92.57,5.61-1,8.27.11a26.89,26.89,0,0,1-9.44,3.54c-2.54.55-1-1.84-1.59-2.77A.56.56,0,0,0,230.2,145.46Z"></path><path class="cls-2" d="M59.28,129.56c-.28,3.72.31,7.49-.67,11.16-.88,0-1.33.69-2,1.06-1.77,1-3.13,3-5.59,2.47-.33-4.59-.79-9.15-2.45-13.49C52.14,130.22,55.64,129.27,59.28,129.56Z"></path><path class="cls-2" d="M42.74,191.42c2.65,1.91,6.11,1.8,8.84,3.53-2.85,1.82-6.19,2.38-9.32,3.4a34.56,34.56,0,0,1-5.7,1.22c-1.05.15-2.51.77-3.15-.66-.53-1.21.53-2,1.35-2.69C37.2,194.28,39.63,192.27,42.74,191.42Z"></path><path class="cls-2" d="M246.21,192.55a11.28,11.28,0,0,0,4.66-5.23c2.6,1.72,5.24,3.39,7.78,5.19.81.57,2.11,1.3,1.46,2.53-.54,1-1.71.44-2.65.21Z"></path><path class="cls-3" d="M221.48,102.39c2.16,1.46,2.91,3.9,4.21,6a.85.85,0,0,1-.16.53c-1.58.08-3.21,1.13-4.69-.26,2-2,2-1.95-.15-3.11-.7-.38-1-1,.05-1.4C221.6,103.79,221.41,103,221.48,102.39Z"></path><path class="cls-3" d="M216.66,87.66c.17,1-.3,2.13.49,3,.15.61.29,1.22.44,1.83-.27,1.75.62,3.15,1.41,4.57-1,.32-1.92.66-2.77-.51a1.83,1.83,0,0,1,0-2.55c1-1.41,0-2.82-.51-4S215.37,88.05,216.66,87.66Z"></path><path class="cls-3" d="M221.62,75.81c-1.16-.21-1.17.75-1.28,1.4-.18,1.11-.6,1.75-1.82,1.53.33-2.61,1.48-4.57,4.17-5.32.67.32.32.67,0,1h0C222,74.55,221.9,75.27,221.62,75.81Z"></path><path class="cls-3" d="M202.1,53.5l.59-.7,1-.56.77,0h0C204.17,53.57,203.65,54.46,202.1,53.5Z"></path><path class="cls-3" d="M65.13,59.35a1,1,0,0,1-1,.6c0-.63.23-1.15.93-1.32C65.08,58.87,65.11,59.11,65.13,59.35Z"></path><path class="cls-3" d="M229.74,126.57c.88.41.27,1.21.45,1.8-.69,1.18.53,2.34,0,3.51C229.18,130.19,229.91,128.34,229.74,126.57Z"></path><path class="cls-3" d="M227.29,111.36l.06,1.66c-1.88-.4-.91-1.91-1.16-3Z"></path><path class="cls-1" d="M67.63,101c2.05.64.21,1.11-.08,1.64C67.58,102,67.6,101.5,67.63,101Z"></path><path class="cls-3" d="M76.34,47.07l1.24-.19.55.65C77.49,47.55,76.82,47.67,76.34,47.07Z"></path><path class="cls-3" d="M68.12,55.45a3.62,3.62,0,0,1,0,.57C67.57,55.83,67.69,55.64,68.12,55.45Z"></path><path class="cls-2" d="M59.26,127.75c.44.61.76,1.22,0,1.84Z"></path><path class="cls-3" d="M215.23,47.48l-.2-.12h.45Z"></path><path class="cls-3" d="M217.21,50.5l-.48-.51a1.59,1.59,0,0,0,.43.26C217.44,50.32,217.47,50.38,217.21,50.5Z"></path><path class="cls-3" d="M226.71,69.59l.59-.79Z"></path><path class="cls-3" d="M228.09,67.38c0-.3-.09-.6-.13-.9C228.82,66.66,228.5,67,228.09,67.38Z"></path><path class="cls-3" d="M226.19,110.07c-.18-.25-.35-.5-.53-.74C226.08,109.4,226.19,109.69,226.19,110.07Z"></path><path class="cls-3" d="M219.52,53.48a1.2,1.2,0,0,1-.4-.22Z"></path><path class="cls-4" d="M204.44,52.22l-.77,0,.39-.61Z"></path><path class="cls-3" d="M79.14,48.13l-.44-.42C79.06,47.63,79.23,47.75,79.14,48.13Z"></path><path class="cls-3" d="M214.32,47a4.35,4.35,0,0,1-.51,0l.28-.38Z"></path><path class="cls-5" d="M43.8,182.58a198.42,198.42,0,0,0-1-22.6c-.16-1.4.69-2.95.51-4.5,5.7,2,11.6,3.38,17.28,5.6a93.07,93.07,0,0,0,20.94,5.48c6.21.86,12.54,1.16,18.64,2.6,12.52,3,25.33,2,38,3.3,4.6.46,9.28-.76,14-.11,5.65.79,11.27-.51,16.9-.93,6.38-.49,12.81-.61,19.13-1.51,8.26-1.17,16.43-2.95,24.65-4.44,1.58-.29,3.34-2.09,4.13-1.74,2.94,1.29,5.07-.76,7.53-1.18,5.6-1,10.72-3.87,16.51-4.14,2.84-.13,3.29.38,2.77,3.19a73.91,73.91,0,0,1-7,20.69c-2,3.84-4.9,5.58-9.08,6.34-4.63.84-9.32,1.61-13.87,2.71-5.82,1.4-11.76,1.77-17.59,3a124.64,124.64,0,0,1-17.06,1.84c-9.13.6-18.26,1.25-27.4,1.56-7.93.26-15.87.72-23.79.56-3.5-.07-7,.54-10.61-.61a20.94,20.94,0,0,0-8.36-.95c-4.17.46-8.09-.75-12.15-.86-6.11-.17-12.07-2-18.09-3.16-5.28-1-10.61-1.76-15.73-3.35C56.51,187.35,50.19,184.86,43.8,182.58Z"></path><path class="cls-6" d="M84.07,56.42c.28-.45.48.1.72,0,1.54,1.28,3,.72,4.54-.14.16.34.47.69.46,1,0,1.15-.5,2,1.45,1S95,59.48,97,59.92c2.17.49,4.83.89,6.86,2.34,1,.74,2-.23,3.1,0a21.07,21.07,0,0,0,12.24-.08c4.13-1.47,8.72-1.67,12.46-4.49,1.8-1.35,4.48-1.12,6.63-2.35A24.69,24.69,0,0,0,142.07,53a4.71,4.71,0,0,1,7,.68,5.6,5.6,0,0,0,3.34,2c4.09,1.15,7.48,4.67,11.89,4.18,1.76-.19,2.09,2.68,3.8,1.06,4.34,2.58,9,2.11,13.73,1.58A55.13,55.13,0,0,0,192,60.2c1.94-.6,4.13-2.8,7-1.13,1.08.63.27-2,1.22-2.75a5,5,0,0,0,6-.11,44.21,44.21,0,0,0,3.9-2.39c1.47-1.23,4.14-.75,4.43,1s1.47,2.22,2.23,3.28c.24.43.43.93,1.08.53.59.37,2.26-.33,1.4,1.46-.63,1.3,1.05,1.34,1.26,2.2-.14.32,0,.4.3.34a4.49,4.49,0,0,1,2,3.19l-.18.58-2.49,2.78c-.75.91-2.8,1-1.84,3-1.17,1-2.84,1.68-2.89,3.62-1.45.46-1.66,1.88-2.27,3h0c-.84,1.46-2.37,2.75-1.16,4.71,0,.6,0,1.21,0,1.81-.73,2.71-1.8,5.42,0,8.12l.24.67.24,1.22a.32.32,0,0,0,0,.44c-.36.26-.34.48.07.66l.18.66c-.14.37.13.47.39.57.85,1.55,1.5,3.26,3.2,4.17.07.4-.21.9.34,1.15l.67,1.18a.81.81,0,0,0,.55,1l.06.09.48.64.16.58c0,.46-.2,1,.45,1.15l.33.66.27.47c2,2.2,2.39,5.07,3.19,7.76l.33.55c1.31,2.19.1,5,1.79,7.09.05.55-1,.75-.51,1.38.65.81,1.09-.31,1.67-.29l.28.09c-1.62,2.82,1.38,5.84-.35,8.66-.86.08-1.3.46-1,1.37,0,.59,0,1.19,0,1.78l.08,1.5c-.17.4-.12.7.34.84l.65.24c-.72.44-1.44.89-.74,1.89a.56.56,0,0,0-.36.81c-.1,1-.21,1.94-.31,2.91a6.62,6.62,0,0,0-3.19.91c-1.69.84-2.86,2.75-5,2.62l0-2.29a86.34,86.34,0,0,0-.15-10.42c-.29-4.51-.92-8.94-1.43-13.4-.47-4.07-2.78-7.46-3.83-11.33-1.28-4.72-4.47-8.68-5.87-13.43-1.17-3.93-.85-7.91-.43-11.77.71-6.51,4-12.15,7.51-17.53,1.61-2.48.84-4.37-.61-6s-4.06-2.51-5.78-.82c-3.21,3.14-7.35,3.22-11.19,3.95-3.08.58-5.17,3.21-8.37,3.24-2.84,0-5.68.29-8.52.34-8.61.15-16.71-2.06-24.7-5.06-2.32-.87-4.53-1.5-6.36-3.32-.86-.86-2.94-.86-3.54-.11-2.36,3-5.94,3-9,4.3-7.36,3.08-15.24,3.7-23,4.15-3.61.21-7.5.55-11.06-1.34-5.31-2.81-11.27-4-16.74-6.4-2.25-1-3.93-.28-5.42,1.33s-2.31,3.44-.67,5.7a47.84,47.84,0,0,1,6.37,12.1,31.15,31.15,0,0,1,1.55,16c-1.23,6.9-4.39,13.13-7,19.55-2.17,5.44-3,11.06-3.61,16.79a56.33,56.33,0,0,0,.67,13.6c.07.52.55,1.26-.5,1.7-.8.35-1-.16-1.52-.39a30.82,30.82,0,0,0-7-2.48c-1.78-.3-1.89-1.06-2-2.45-.23-5.5.38-11,.55-16.45.09-2.57.22-5.19.55-7.68a24.61,24.61,0,0,1,2-5.48c2.21-5.36,5.32-10.22,8.31-15.16a16.82,16.82,0,0,0,2.14-8c.18-2.84-1.21-5.59-.19-8.38.54-1.47-.89-2.35-1.51-3.34-1.3-2.08-3.22-4-4.35-5.93s-2.85-3.41-4.22-5.14c-1.53-1.93-1-3.59,1-4.91.3.06.44,0,.3-.34l.26-.66c1-.26,1.56-.75.73-1.78a1.8,1.8,0,0,1,1.67-1.21c1.56.09,1.74-1.39,2.49-2.21A2.17,2.17,0,0,0,75,55.21c.67-2.23,2.43-2.54,4.37-1.49C81,54.58,82.18,56.11,84.07,56.42Z"></path><path class="cls-6" d="M166.83,153.23c-6.1.25-12.18,0-18.27-.19-3.23-.11-3.76-.92-2.74-3.84.22-.62.23-1,1.08-.87,2.55.47,5.16,0,7.68.26,2.21.24,4.43.53,6.51,2.09,3.65,2.75,6.71,1,8.61-3.13,1.23-2.71.48-4.45-1.18-5.81-2.2-1.79-5-1.58-7.65-.67-.67.23-1.63,1-1.63,1.56.06,5.35-3.94,2-5.91,2.59-1.13.37-2.77-.1-4.2.2-2,.41-3.11-.34-3.2-2.49-.43-10,.76-20,1.43-29.91,0-.46-.14-.93-.14-1.4,0-2.06.36-3.54,3.12-3.4,5.27.27,10.56.27,15.84.22,1.13,0,1.31.4,1.77,1.24,1.36,2.55,3.71,3.52,6.53,3.42,3.1-.11,5.71-1.07,7.09-4.15,1.69-3.81-2.14-8.69-6.52-8.26-2.16.21-4.83.77-5.85,2.17-2.18,3-4.74,2.09-7.41,2-4.08-.08-8.16-.11-12.24,0-1.48,0-1.88-.15-2-1.9-.2-4.55,1.28-8.85,1.35-13.39.1-6.21,2.12-7.75,9.36-8.51,4.24-.44,8.59-.62,12.58,1.5,1.39.74.62,2.5,1.54,3.57a4.93,4.93,0,0,1,.75,2.48c.29,2.63,2,3.27,4.31,3.61,7.62,1.13,12.25,5.71,12.73,13.41.29,4.71.6,9.55-.86,14.25-.62,2-.76,4,2,4.89,1.71.53,3.37,4.82,3,6.67-.14.61-.39.71-1,.72-8,.11-15.95,1.53-24,.75a14.06,14.06,0,0,0-4.81.37c-2.6.74-2.46-1-2.71-2.26a30.59,30.59,0,0,1-.13-4.4c0-.9.48-.94,1.17-1.22,2.82-1.15,4.05-4.26,3.1-7.37-.79-2.6-3.89-4.6-6.93-4.47-2.15.09-4.94,2.63-5.42,4.93-.86,4.08,0,5.56,4.19,6.87.77.24.62.35.58,1-.12,2.21.34,4.41.11,6.66a3.33,3.33,0,0,0,3.72,3.88c6-.94,12,0,18-.4,3.35-.23,6.68-.83,10-1,4.81-.29,4.94-.06,4.62,4.74-.22,3.24-2.08,6-2.67,9.16a4,4,0,0,1-4,2.74C181.13,152.29,174,152.83,166.83,153.23Z"></path><path class="cls-6" d="M142.4,135.6c0,5.69,0,10.74,0,15.79,0,1.2-.89,1.1-1.68,1.06-7.43-.38-14.92-.33-22.28-1.31-5-.67-9.91-2.09-14.93-2.7-3.5-.44-5.32-2.77-6.18-5.65-1.37-4.51-2-9.16-.21-13.81,1.08-2.79,2.8-3.86,5.67-3a15.57,15.57,0,0,0,9.17.41c1.52-.43,3.6-.24,4.24,2.18,1,3.76,6.86,5.05,9.68,2.21s3.3-6.83,1.05-8.82c-3-2.64-7.81-3.49-10.31.6a1.81,1.81,0,0,1-1.9,1c-4.31-.48-8.72.35-13-1.18-1.59-.58-2.41-1.2-2.31-3,.2-3.67-.11-7.4.38-11,.57-4.27,2.18-8.15,5.91-10.92A12,12,0,0,1,113.46,95c2.28,0,3.69-.46,4.26-3.34,1.24-6.29,6-9.72,12.73-10.47a30,30,0,0,1,9.15.62,3.24,3.24,0,0,1,2.63,2.44,44.68,44.68,0,0,1,2.08,17.39,95.38,95.38,0,0,0-.28,10c0,2.38-.65,3.61-3.27,2.69a3.41,3.41,0,0,0-1.46,0c-4.4.55-4.73.21-4.19-4.31.56-4.67-.37-5.88-5-4.93-3.77.78-6.16-1.37-8.89-2.92-4.36-2.45-9.09-.66-9.58,3.33-.27,2.19-1.38,4.92.06,6.82a8.23,8.23,0,0,0,7.56,3.61,7.62,7.62,0,0,0,6.29-5.53c.24-1.23.62-2.07,2.49-1.93,2.7.2,4.76.19,3.62,3.8a8.75,8.75,0,0,0,0,2.28c-.07,3.19,1.06,4.23,4.27,3.9,1.76-.18,3.55-.2,5.28-.54,1.94-.39,2.56.09,2.33,2.13-.4,3.44-.49,6.92-.82,10.37-.14,1.41-.63,2.49-2.57,2.18-3.12-.49-6.25.43-9.41.37-.6,0-2.23-.31-2.52.23-.7,1.34-2.14,2.66-1.49,4.31s-.38,1.67-1.34,2c-2.71,1-4.78,2.61-5,5.71-.17,2.8,1.8,4.76,4.7,4.87,2.71.1,6,1.26,6.82-2.82a10.93,10.93,0,0,0-.3-4.85c-1.54-5.67-1.48-5.81,4.37-5.76C138.08,136.61,140.13,137.54,142.4,135.6Z"></path><path class="cls-2" d="M43.8,182.58c6.39,2.28,12.71,4.77,19.18,6.77,5.12,1.59,10.45,2.36,15.73,3.35,6,1.12,12,3,18.09,3.16,4.06.11,8,1.32,12.15.86a20.94,20.94,0,0,1,8.36.95c3.57,1.15,7.11.54,10.61.61,7.92.16,15.86-.3,23.79-.56,9.14-.31,18.27-1,27.4-1.56a124.64,124.64,0,0,0,17.06-1.84c5.83-1.21,11.77-1.58,17.59-3,4.55-1.1,9.24-1.87,13.87-2.71,4.18-.76,7.09-2.5,9.08-6.34a73.91,73.91,0,0,0,7-20.69c.52-2.81.07-3.32-2.77-3.19-5.79.27-10.91,3.18-16.51,4.14-2.46.42-4.59,2.47-7.53,1.18-.79-.35-2.55,1.45-4.13,1.74-8.22,1.49-16.39,3.27-24.65,4.44-6.32.9-12.75,1-19.13,1.51-5.63.42-11.25,1.72-16.9.93-4.72-.65-9.4.57-14,.11-12.65-1.26-25.46-.35-38-3.3-6.1-1.44-12.43-1.74-18.64-2.6a93.07,93.07,0,0,1-20.94-5.48c-5.68-2.22-11.58-3.57-17.28-5.6-2.43,0-2-2.35-3.15-3.39,1.2-1,1.65.46,2.47.4,1.94-.26,3.62.7,5.38,1.22,6.66,2,13.47,3.56,19.9,6.09,4.35,1.72,8.85,2.32,13.28,3.23,6.94,1.43,14,2.12,21,3.17a277.55,277.55,0,0,0,28.24,2.51c8.14.38,16.27-.05,24.39.36,5.19.26,10.33-.46,15.49-.67s10.22-1.25,15.34-1.66c8.09-.67,16-2.64,23.91-4,7.16-1.22,14.11-3.62,21.2-5.29a39.32,39.32,0,0,1,6.68-1.38c6.21-.4,7.25-1.95,6.89-7.41.91-1,2.28-.88,3.69-1.67-.63,3.45.94,6.43-.38,9.85-.93,2.38-.67,5.66-.43,8.33.56,6.26-1.39,12.42-.08,18.68.69,3.33-.64,4.68-4.15,5.86-4.87,1.63-9.71,3.34-14.64,4.82-2.24.67-4.35,1.95-6.72,2.44.42-2.29,3.26-2.22,4.46-4.67-4.74,1.55-9.28,1.51-13.57,2.52a140.27,140.27,0,0,1-18,3.31c-6.24.63-12.45,2.25-18.81,1.59a7.4,7.4,0,0,0-2,.28c-6.53,1.26-13.21.95-19.75,1-3.82.06-7.8.14-11.6.36a210.75,210.75,0,0,1-21.63-.16c-8.16-.36-16.31-1.52-24.47-2.2a79.48,79.48,0,0,1-14-2.14c-6.29-1.71-12.89-2-19-4.32-3.66-1.37-8.15-.85-10.8-4.61a1.18,1.18,0,0,0-1-.43c-2.66,1.2-4.67-.83-7-1.36C43.16,185.16,41.48,184.22,43.8,182.58Z"></path><path class="cls-6" d="M244.35,148.66c.36,5.46-.68,7-6.89,7.41a39.32,39.32,0,0,0-6.68,1.38c-7.09,1.67-14,4.07-21.2,5.29-8,1.36-15.82,3.33-23.91,4-5.12.41-10.21,1.45-15.34,1.66s-10.3.93-15.49.67c-8.12-.41-16.25,0-24.39-.36a277.55,277.55,0,0,1-28.24-2.51c-7-1-14.1-1.74-21-3.17-4.43-.91-8.93-1.51-13.28-3.23-6.43-2.53-13.24-4.13-19.9-6.09-1.76-.52-3.44-1.48-5.38-1.22V147c7.79,2.66,15.19,5.37,22.71,7.69A93.09,93.09,0,0,0,79,158.22c7,1.07,13.92,2.74,21,3.54,4.1.47,8.23.1,12.35.62,5.66.73,11.4,1.4,17,1.67a275.78,275.78,0,0,0,27.88.06c3.42-.19,6.77-.8,10.17-.92,5.29-.19,10.53-1.1,15.79-1.18a123.86,123.86,0,0,0,15.89-1.36c3.12-.44,6.19-1.12,9.29-1.7,1.66,1.22,3.3,3.06,5.55,1.64a12.39,12.39,0,0,0,4-3.25C226.7,154.27,235.34,150.9,244.35,148.66Z"></path><path class="cls-6" d="M39.24,139.56c.06,4.13-1.05,8.27.51,12.42.43,1.13-1.17,2.46-1,4.19.56,5.55.7,11.15,1,16.73.06.95,0,1.4-1.31,1.57-7.45,1-14.84,2.48-22.31,3.18-2.35.22-4.87-.15-7.34,0a2.11,2.11,0,0,1-1.72-1.26c-.63-1.12.32-1.22.63-1.8,3-5.6,7.26-10.16,11.45-14.83,1.92-2.14,1.33-3.94-.72-5.53C13.63,150.51,9,146.53,6.13,141c-1.51-2.92-.25-5,3-5a124.84,124.84,0,0,0,23.79-2c3.43-.58,6.91-.91,10.38-1.23.82-.08,2-.13,2.35.91s-.57,1.42-1.41,1.87-1.47,1.28-2.57,1.08c-3.58-.27-6.89,1.1-10.33,1.61-6.24.93-12.55,1.43-18.84,1.84-2.78.18-2.61,1.57-1.32,2.85,3.32,3.31,5.81,7.38,9.48,10.33s4.05,3.2,1.07,6.71-4.17,8.46-8.5,10.93c-.82.47-.7,1.35-.48,2.11s1,.69,1.71.75c3,.31,6-.36,9-.66,4.8-.49,9.19-2.85,14-3.47,1-.13,1.08-1,1-1.79a1.18,1.18,0,0,0-1.64-1.15c-1.2.33-2.43.35-3.65.68-4.46,1.21-8.94,2.55-13.59,2.81-.42-2.28,1.55-3.48,1.84-5.29h0a5,5,0,0,0,1.77-1.87,21.4,21.4,0,0,1,3.7-4.74c1.79-1.5,2.08-2.65.21-4.11-2.81-2.21-5.75-4.28-8.37-6.7a5.39,5.39,0,0,1-2.17-4.28A109.34,109.34,0,0,0,39.24,139.56Z"></path><path class="cls-6" d="M44.43,186.18c2.3.53,4.31,2.56,7,1.36a1.18,1.18,0,0,1,1,.43c2.65,3.76,7.14,3.24,10.8,4.61,6.11,2.28,12.71,2.61,19,4.32a79.48,79.48,0,0,0,14,2.14c8.16.68,16.31,1.84,24.47,2.2a210.75,210.75,0,0,0,21.63.16c3.8-.22,7.78-.3,11.6-.36,6.54-.09,13.22.22,19.75-1a7.4,7.4,0,0,1,2-.28c6.36.66,12.57-1,18.81-1.59a140.27,140.27,0,0,0,18-3.31c4.29-1,8.83-1,13.57-2.52-1.2,2.45-4,2.38-4.46,4.67h0c-1.07-.27-2.14-.53-2.62.91l-.76.09a1.56,1.56,0,0,0-1.54.44l-1.37.2c-.94,0-1.93-.31-2.75.44-5,1.13-10,2-15,3-9.64,1.92-19.48,1.18-29.18,2.69a96.72,96.72,0,0,1-22.52.59c-4.18-.33-8.43,0-12.66,0a142.5,142.5,0,0,1-14.34-1c-4.71-.52-9.44-1-14.16-1-7.54-.06-14.8-1.84-22.15-3.12-3.24-.57-6.48-1.14-9.69-1.83-4.13-.88-7.88-2.88-11.86-4.23-4.57-1.54-9.22-2.86-13.74-4.54C45.93,189.09,43.13,189.13,44.43,186.18Z"></path><path class="cls-1" d="M260.42,175.49c-2.12-.21-4.27-.53-6.36-.63-3.2-.16-3.6-1.87-3.11-4.24a59.23,59.23,0,0,0,.87-15.11c-.26-4.87.6-9.71-.08-14.5a6.32,6.32,0,0,0-3.07-4.35c-.3-.19-.94-.06-1.08-.29-.65-1.1-3.15-.88-2.42-2.69.55-1.36,2.23-.71,3.51-.69a33.43,33.43,0,0,1,9.44,1.33c.51,1.05,1,2.11,1.54,3.14.19.34-.08.84,1,.77,4.57-.28,9,1.47,13.6,1.32,1.74-.05,1.44,1,.81,1.89-.94,1.31-2.66,2.18-3.43,3.23-2.63,3.6-6.07,6.3-9.13,9.39-1,1-.94,1.54-.2,2.44s1.31,1.7,2,2.55a78.53,78.53,0,0,1,8.33,13.7c.75,1.56.43,2.3-1.5,2.22A61.37,61.37,0,0,1,263,173.9C261.7,173.67,260.28,173.37,260.42,175.49Zm10-32.69-8-1.89c-1.34-.32-2.3,0-1.87,1.54.67,2.32.34,4.65.48,7,0,.51-.3,1.29.52,1.43a1.55,1.55,0,0,0,1.5-.76C264.88,147.28,267.5,145.25,270.44,142.8ZM261,160.28a21.72,21.72,0,0,1-.05,4.46c-.85,3.59-.62,6.14,4.1,5.89.64,0,1.42.59,2.06,0a1.52,1.52,0,0,0,0-2.13C265.17,165.91,264.09,162.75,261,160.28Z"></path><path class="cls-2" d="M39.24,139.56a109.34,109.34,0,0,1-22.65,3.66,5.39,5.39,0,0,0,2.17,4.28c2.62,2.42,5.56,4.49,8.37,6.7,1.87,1.46,1.58,2.61-.21,4.11a21.4,21.4,0,0,0-3.7,4.74,5,5,0,0,1-1.77,1.87l-.25-.13.26.12c-.29,1.81-2.26,3-1.84,5.29,4.65-.26,9.13-1.6,13.59-2.81,1.22-.33,2.45-.35,3.65-.68a1.18,1.18,0,0,1,1.64,1.15c.06.83,0,1.66-1,1.79-4.8.62-9.19,3-14,3.47-3,.3-6,1-9,.66-.66-.06-1.47.14-1.71-.75s-.34-1.64.48-2.11c4.33-2.47,5.5-7.4,8.5-10.93s2.57-3.79-1.07-6.71-6.16-7-9.48-10.33c-1.29-1.28-1.46-2.67,1.32-2.85,6.29-.41,12.6-.91,18.84-1.84,3.44-.51,6.75-1.88,10.33-1.61C40.68,137.48,40.49,139,39.24,139.56Z"></path><path class="cls-6" d="M260.42,175.49c-.14-2.12,1.28-1.82,2.56-1.59A61.37,61.37,0,0,0,271.1,175c1.93.08,2.25-.66,1.5-2.22a78.53,78.53,0,0,0-8.33-13.7c-.66-.85-1.29-1.72-2-2.55s-.76-1.47.2-2.44c3.06-3.09,6.5-5.79,9.13-9.39.77-1,2.49-1.92,3.43-3.23.63-.89.93-1.94-.81-1.89-4.6.15-9-1.6-13.6-1.32-1.07.07-.8-.43-1-.77-.55-1-1-2.09-1.54-3.14,4.19.5,8.37,1.23,12.57,1.43,2.66.12,5.21,1.3,8.05.38,1.78-.57,1.9,1.09,1.54,2.5-.84,3.27-3.31,5.48-5.39,7.84a62.31,62.31,0,0,1-7.71,7.52c-.76.61-1.26,1.48.07,3.08,1.48,1.78,3.61,2.85,4.79,5,1.34,2.42,3,4.65,4.27,7.16a23.15,23.15,0,0,0,2.69,4.07c1.64,2,.05,2.25-1,2.85-4.61,2.56-9.35.58-14,.22C262.86,176.25,261.38,176.65,260.42,175.49Z"></path><path class="cls-1" d="M206.81,68.17c-.74,1.64-1.12,3.63-2.29,4.86-3.2,3.38-3.11,8.06-5.2,11.83-.13.23-.2.71-.07.83,2,2-.35,3.39-1.06,4.2-2.09,2.4-4.78,4.29-7.17,6.34a17.66,17.66,0,0,0-8.44-5.93c-.89-.29-1.6-1-.42-2.16,5.58-5.39,11-11,16.68-16.21,2-1.86,4.89-2.85,7.38-4.24Z"></path><path class="cls-1" d="M93.5,127.71c-2.6,6.54-.49,12.58,1.56,18.81-2.9.77-5.81,1.44-8.5-1a4.78,4.78,0,0,0-1.92-.62c-1.29-.35-3.27.15-3.5-1.64-.24-2-.73-4,1.48-5.8C86.44,134.49,89.9,131,93.5,127.71Z"></path><path class="cls-1" d="M153,71.14c.58-.63,1.15-1.13,2.14-.67,7,3.25,14.35,4.42,22.58,4-2.07,1.78-3.72,3.07-5.21,4.52-.86.83-1.11-.08-1.65-.29-6.9-2.71-13.74-1.88-20.45.58-2.06.76-2.93,3.21-4.59,4.67-2.55-3.91,0-6,2.6-8.16.46-.13.91-.25.77-.89l0,0c2.36.5,3.3-1.52,4.62-2.73C154.42,71.62,153.55,71.31,153,71.14Z"></path><path class="cls-1" d="M216.62,148.93c2.17.13,3.34-1.78,5-2.62a6.62,6.62,0,0,1,3.19-.91,1.29,1.29,0,0,1,.1.48c-1.07,1.09-.24,2.48-.56,3.68-.23,2.5-2.25,3-4.1,3.66a1.6,1.6,0,0,0-1.44.41l-2.1.21-.81.37c-2.3-.41.49-1.56-.33-2.19.32-.11.59-.25.47-.67,0-.77.07-1.53.11-2.3A.68.68,0,0,1,216.62,148.93Z"></path><path class="cls-6" d="M51,144.25c2.46.55,3.82-1.46,5.59-2.47.65-.37,1.1-1.1,2-1.06.28,1.79.55,3.59.85,5.38s.43,3.27-2.18,2.31c-1.73-.63-3.51-1.11-5.24-1.75C51,146.25,50.81,145.29,51,144.25Z"></path><path class="cls-6" d="M115.39,105.66c3.34-.63,6,.28,6.24,2.29.1.93.67,2.39-1.21,2.73C117.39,111.23,116.31,110.21,115.39,105.66Z"></path><path class="cls-6" d="M177.27,106.56c.36,2.1-1.05,2.53-2.62,2.55-1.1,0-2.33,0-2.32-1.78a2.81,2.81,0,0,1,2.78-3A1.8,1.8,0,0,1,177.27,106.56Z"></path><path class="cls-2" d="M218,157.34a12.39,12.39,0,0,1-4,3.25c-2.25,1.42-3.89-.42-5.55-1.64,1-1.08,2.51-.13,3.65-.76.38.22.47-.1.61-.34C214.53,158.68,216.13,156.85,218,157.34Z"></path><path class="cls-3" d="M227.51,114.15a26.86,26.86,0,0,1,2.13,9.43,1.72,1.72,0,0,1-1.06,1.86c-.13-3.19-1.54-6.21-1.24-9.46.11-1.25-1.2-1-2-1.68Z"></path><path class="cls-6" d="M124.42,124.89c0,2.13-.89,2.91-2,2.6-.7-.19-2.5.54-2.16-1.35.2-1.07.24-2.52,1.85-2.47C123.26,123.71,124.34,124.16,124.42,124.89Z"></path><path class="cls-6" d="M159.63,117.76c.8.43,2.4.11,2.28,1.82s-1.89,1.8-3,2.07c-1,.24-1.2-.86-1.11-1.81C157.88,118.73,157.94,117.65,159.63,117.76Z"></path><path class="cls-6" d="M127.3,146c-1.56,0-2.76.25-2.75-1.46s1.23-1.33,2.25-1.51c1.35-.23,1.55.33,1.72,1.53C128.78,146.32,127.73,146,127.3,146Z"></path><path class="cls-6" d="M240.82,145.4c-2.66-1.09-5.35.46-8.27-.11a5.64,5.64,0,0,1,3.23-1c4.49-.18,4.49-.19,4.67-4.79C241.51,141.41,240.77,143.43,240.82,145.4Z"></path><path class="cls-6" d="M162.56,147.92c1.23-.92-.58-3.79,2.28-3.55.9.07,1.21.46,1.27,1.48C166.28,148.75,163.85,147.34,162.56,147.92Z"></path><path class="cls-3" d="M212.06,93.46c-1.82-2.7-.75-5.41,0-8.12C213.92,88,211.48,90.76,212.06,93.46Z"></path><path class="cls-6" d="M153,71.14c.54.17,1.41.48.79,1-1.32,1.21-2.26,3.23-4.62,2.73Z"></path><path class="cls-3" d="M212.05,83.53c-1.21-2,.32-3.25,1.16-4.71C214.23,80.74,214.28,82.42,212.05,83.53Z"></path><path class="cls-3" d="M219.1,97.19c.77,1.06,1.5,2.14,2.3,3.17.67.87-.25.86-.59,1.17C219,100.56,219,98.9,219.1,97.19Z"></path><path class="cls-3" d="M213.22,78.82c.61-1.1.82-2.52,2.27-3C216.53,77.32,215.57,78.58,213.22,78.82Z"></path><path class="cls-3" d="M216.66,82.94c.89,1.2,0,2.36-.07,3.54C215,85.27,214.91,84.09,216.66,82.94Z"></path><path class="cls-3" d="M74.12,56.47c-.75.82-.93,2.3-2.49,2.21C71.47,56.82,72.45,56.26,74.12,56.47Z"></path><path class="cls-3" d="M230.33,138.37a2.71,2.71,0,0,1,.39,2.37,2.2,2.2,0,0,1-1.72-1.63C228.88,138.53,229.76,138.43,230.33,138.37Z"></path><path class="cls-3" d="M218.38,72.22c-1-2,1.09-2.09,1.84-3C220.71,70.89,219.8,71.71,218.38,72.22Z"></path><path class="cls-3" d="M69.85,54a5.46,5.46,0,0,1,1.77-2.9c.19.77.39,1.54.58,2.31h0C71.18,52.7,70.6,53.72,69.85,54Z"></path><path class="cls-3" d="M218,79.35c.88,1.51-.4,2.19-1.17,3.07A3,3,0,0,1,218,79.35Z"></path><path class="cls-3" d="M230.23,132.46a17,17,0,0,1,0,4.72A5.08,5.08,0,0,1,230.23,132.46Z"></path><path class="cls-2" d="M219,197.88c.48-1.44,1.55-1.18,2.62-.91A2.42,2.42,0,0,1,219,197.88Z"></path><path class="cls-3" d="M226.19,125.31c-.58,0-1,1.1-1.67.29-.51-.63.56-.83.51-1.38A1,1,0,0,1,226.19,125.31Z"></path><path class="cls-3" d="M224.38,149.56c.32-1.2-.51-2.59.56-3.68C224.82,147.12,225.54,148.49,224.38,149.56Z"></path><path class="cls-3" d="M70,59.89c.83,1,.32,1.52-.73,1.78C69.25,61,69.19,60.27,70,59.89Z"></path><path class="cls-3" d="M212.54,95.35l-.24-1.22c.47,0,1.12,0,1.23.49S213,95.27,212.54,95.35Z"></path><path class="cls-3" d="M73.93,48.12c-.19-1,.56-1,1.22-1.1A1,1,0,0,1,73.93,48.12Z"></path><path class="cls-3" d="M225.68,61.09l1.16,1.17C226.31,62,224.54,63,225.68,61.09Z"></path><path class="cls-3" d="M230.7,141.91c-.06.41.16.9-.33,1.2C229.48,142.44,229.86,142.11,230.7,141.91Z"></path><path class="cls-3" d="M72.9,49.33c-.18-.85.34-1.11,1-1.22A1,1,0,0,1,72.9,49.33Z"></path><path class="cls-3" d="M216.62,148.93a.68.68,0,0,0-.44.12c0-.83-.29-1.72.47-2.41Z"></path><path class="cls-3" d="M225.17,135.43c-.35-.91.09-1.29,1-1.37C226.2,134.79,226.05,135.37,225.17,135.43Z"></path><path class="cls-3" d="M217.91,58.67c-.65.4-.84-.1-1.08-.53C217.44,57.81,218,57.62,217.91,58.67Z"></path><path class="cls-2" d="M212.57,199.05c.82-.75,1.81-.47,2.75-.44A2.67,2.67,0,0,1,212.57,199.05Z"></path><path class="cls-3" d="M71.67,51.1c0-.74.68-.82,1.13-1.12Z"></path><path class="cls-3" d="M225.26,138.71l-.08-1.5A1.07,1.07,0,0,1,225.26,138.71Z"></path><path class="cls-2" d="M216.69,198.41a1.56,1.56,0,0,1,1.54-.44C217.88,198.66,217.29,198.54,216.69,198.41Z"></path><path class="cls-3" d="M223.26,57.82l.5.12-.3.14A.32.32,0,0,1,223.26,57.82Z"></path><path class="cls-3" d="M218.84,153.63a1.6,1.6,0,0,1,1.44-.41A1.37,1.37,0,0,1,218.84,153.63Z"></path><path class="cls-3" d="M227.38,148.41l-.64.43-.14-.21.76-.24Z"></path><path class="cls-3" d="M219.12,107.69c-.65-.19-.49-.69-.45-1.15Z"></path><path class="cls-3" d="M218,105.23a.81.81,0,0,1-.55-1Z"></path><path class="cls-3" d="M216.75,103c-.55-.25-.27-.75-.34-1.15C216.52,102.23,216.63,102.62,216.75,103Z"></path><path class="cls-6" d="M149.2,75c.14.64-.31.76-.77.89Z"></path><path class="cls-3" d="M212.64,96.45c-.41-.18-.43-.4-.07-.66C212.59,96,212.61,96.23,212.64,96.45Z"></path><path class="cls-3" d="M213.21,97.68c-.26-.1-.53-.2-.39-.57Z"></path><path class="cls-3" d="M230.2,145.46a.56.56,0,0,1-.41.71Z"></path><path class="cls-3" d="M225.15,142.49a.56.56,0,0,1,.36-.81Z"></path><path class="cls-3" d="M222.71,66.44l.18-.58a2.49,2.49,0,0,1,.05.46C222.93,66.37,222.79,66.4,222.71,66.44Z"></path><path class="cls-3" d="M227.36,148.39l.15-.25c0,.09-.08.18-.13.27Z"></path><path class="cls-3" d="M219.72,108.82l-.27-.47A.62.62,0,0,1,219.72,108.82Z"></path><path class="cls-3" d="M226.82,62.23c.32.1.55.26.46.65Z"></path><path class="cls-3" d="M216.07,151.35c.12.42-.15.56-.47.67Z"></path><path class="cls-3" d="M226.25,139.79l-.65-.24a2.51,2.51,0,0,1,.55-.06l.11.11Z"></path><path class="cls-3" d="M215.93,154.21l.81-.37Z"></path><path class="cls-3" d="M220.87,62.67c-.3.06-.44,0-.3-.34A.47.47,0,0,1,220.87,62.67Z"></path><path class="cls-3" d="M212.67,157.85c-.14.24-.23.56-.61.34Z"></path><path class="cls-3" d="M69,62.33c.14.32,0,.4-.3.34A.45.45,0,0,1,69,62.33Z"></path><path class="cls-3" d="M225,59.54c.51-.25.33.18.37.39A.56.56,0,0,1,225,59.54Z"></path><path class="cls-3" d="M221.48,56.39l.37.56Z"></path><path class="cls-3" d="M219.72,54.59l.56.2C220,55.07,219.81,54.92,219.72,54.59Z"></path><path class="cls-3" d="M69.26,54.79l.56-.21C69.73,54.91,69.58,55.07,69.26,54.79Z"></path><path class="cls-3" d="M200.8,54l.59-.36Z"></path><path class="cls-3" d="M72.2,53.45l.24.25s-.12,0-.15-.05a.69.69,0,0,1-.1-.19Z"></path><path class="cls-3" d="M226.15,139.49l.31-.2a3.28,3.28,0,0,0-.2.31Z"></path><path class="cls-3" d="M223.24,117.13l-.33-.55Z"></path><path class="cls-3" d="M75.2,47c.16-.61.35-.46.54,0A3.25,3.25,0,0,1,75.2,47Z"></path><path class="cls-3" d="M218.51,106l-.48-.64Z"></path><path class="cls-4" d="M89.33,56.32c-1.5.86-3,1.42-4.54.14.41-1.26.86-2.75,2.42-2.71A2.16,2.16,0,0,1,89.33,56.32Z"></path><path class="cls-5" d="M221.62,75.81c.28-.54.35-1.26,1.14-1.37A1.31,1.31,0,0,1,221.62,75.81Z"></path><path class="cls-6" d="M270.44,142.8c-2.94,2.45-5.56,4.48-7.38,7.3a1.55,1.55,0,0,1-1.5.76c-.82-.14-.49-.92-.52-1.43-.14-2.33.19-4.66-.48-7-.43-1.51.53-1.86,1.87-1.54Z"></path><path class="cls-6" d="M261,160.28c3.1,2.47,4.18,5.63,6.1,8.18a1.52,1.52,0,0,1,0,2.13c-.64.63-1.42,0-2.06,0-4.72.25-5-2.3-4.1-5.89A21.72,21.72,0,0,0,261,160.28Z"></path><path class="cls-6" d="M21.46,164.91l-.26-.12.25.13Z"></path></g></g><g><path class="cls-7" d="M110.65,183c0-1.28,0-2.56,0-3.84,0-.58.1-.89.79-.82,1.19.13,2.4.12,3.58.3a4.66,4.66,0,0,1,3.89,3.75c.37,1.94.23,3.76-1.53,5.08a5,5,0,0,1-3.55.7c-3-.15-3-.15-3.08-3.14,0-.68,0-1.35,0-2Zm1.37.11h0v1.08c.06,2.8.14,2.88,3,2.64a2.61,2.61,0,0,0,2.37-1.73,3.79,3.79,0,0,0-3.21-5.26c-2.21-.22-2.21-.22-2.2,2Z"></path><path class="cls-7" d="M136.14,187.14c0-1.36,0-2.72,0-4.07,0-1,.78-1,1.12-.66.53.62.86.27,1.31.1a3.63,3.63,0,0,1,5,3.73c-.19,2.4-2.42,3.73-4.84,2.74-1.12-.45-1.12,0-1,.84.07.59.09,1.19.14,1.79,0,.36.09.73-.49.72s-.87,0-.9-.65c-.07-1.51-.18-3-.27-4.54Zm1.43-1.42a2.36,2.36,0,0,0,2.36,2.46,2.15,2.15,0,0,0,2.26-2.24,2.42,2.42,0,0,0-2.36-2.49A2.22,2.22,0,0,0,137.57,185.72Z"></path><path class="cls-7" d="M170.83,182.09a4.18,4.18,0,0,1,3.56-.81,2.32,2.32,0,0,1,1.93,2.16c.06,1.11,0,2.23,0,3.34,0,.67-.46.64-.89.69-.62.05-.46-.4-.46-.73,0-.84,0-1.68,0-2.51a1.8,1.8,0,0,0-1.83-1.95,2,2,0,0,0-2.17,1.94,27.11,27.11,0,0,0,0,3c0,.7-.35.74-.88.78s-.58-.35-.58-.75c-.06-2.83-.11-5.67-.2-8.5,0-.6.14-.84.78-.87s.71.29.7.79C170.81,179.72,170.83,180.77,170.83,182.09Z"></path><path class="cls-7" d="M124.29,185.79l-2.27-.14c-.71-.05-.72.28-.48.8a2.62,2.62,0,0,0,3.61,1c.52-.33,1-.51,1.29.06s-.36.78-.7,1a4,4,0,0,1-4.37-.51,3.8,3.8,0,0,1-1.21-4.21,3.43,3.43,0,0,1,4.12-2,3.8,3.8,0,0,1,2.84,3.57c0,.42-.14.55-.56.53-.76,0-1.51,0-2.27,0Zm-.62-1.15v0c.47,0,1,0,1.43,0s.68-.2.39-.7a2.34,2.34,0,0,0-3.5-.61c-.27.24-.62.51-.55.87s.59.28.91.32S123.23,184.62,123.67,184.64Z"></path><path class="cls-7" d="M132.06,186c-.64,0-1.28,0-1.91,0-.29,0-.69-.19-.84.21s.14.6.32.86a2.54,2.54,0,0,0,3.51.61c.57-.41,1-.37,1.27.1s-.27.69-.57.87a3.87,3.87,0,0,1-4.21-.07,3.47,3.47,0,0,1-1.75-3.55,3.25,3.25,0,0,1,2.43-2.95,3.68,3.68,0,0,1,4.73,3.25c0,.57-.09.81-.7.77-.76,0-1.52,0-2.28,0ZM129.23,185H133c.23,0,.54.11.61-.18s-.1-.44-.23-.62a2.26,2.26,0,0,0-2.25-1A2.1,2.1,0,0,0,129.23,185Z"></path><path class="cls-7" d="M157,182c2.17,0,3.46,1,3.85,2.78.17.76-.07,1-.81,1-1.44,0-2.87.15-4.31.19-.93,0-.89.41-.45,1a2.63,2.63,0,0,0,3.65.4c.46-.32.88-.55,1.21-.05s-.27.76-.58,1a3.93,3.93,0,0,1-4.3.22,3.19,3.19,0,0,1-1.71-3.3,3.45,3.45,0,0,1,2.49-3.07A5.16,5.16,0,0,1,157,182Zm-2.09,2.95,4.59-.22a2.15,2.15,0,0,0-2.26-1.61A2.35,2.35,0,0,0,154.86,184.92Z"></path><path class="cls-7" d="M165.1,188.57a3.42,3.42,0,0,1-1.57-6.52,4.11,4.11,0,0,1,4.49.44c.22.24.38.44,0,.66s-.51.72-1,.31a2.39,2.39,0,0,0-1.88-.59,2.3,2.3,0,0,0-2.12,1.67,1.9,1.9,0,0,0,.58,2.17,2.32,2.32,0,0,0,2.67.34,3.15,3.15,0,0,0,.85-.65c.46-.45.74,0,1,.22.46.3,0,.54-.16.74A4.71,4.71,0,0,1,165.1,188.57Z"></path><path class="cls-7" d="M151.66,189.11c-1.54,0-2.26-.7-2.33-2.1,0-.64-.09-1.27-.09-1.91,0-.9.11-1.83-1.3-1.59-.35.06-.43-.24-.45-.56s.15-.66.53-.62c1.12.12,1.25-.53,1.14-1.39-.07-.6.22-.75.77-.76s.68.31.62.76c-.14,1,.23,1.51,1.32,1.33.4-.07.68,0,.7.55s-.29.7-.74.63c-1.15-.17-1.34.44-1.23,1.4a15.23,15.23,0,0,1,0,1.79,1.14,1.14,0,0,0,1.32,1.3c.35,0,.79-.27.86.42s-.41.64-.82.7Z"></path><path class="cls-8" d="M112,183.14v-1.31c0-2.18,0-2.18,2.2-2a3.79,3.79,0,0,1,3.21,5.26,2.61,2.61,0,0,1-2.37,1.73c-2.88.24-3,.16-3-2.64v-1.08Z"></path><path class="cls-8" d="M137.57,185.72a2.22,2.22,0,0,1,2.26-2.27,2.42,2.42,0,0,1,2.36,2.49,2.15,2.15,0,0,1-2.26,2.24A2.36,2.36,0,0,1,137.57,185.72Z"></path><path class="cls-8" d="M123.67,184.64c-.44,0-.88,0-1.32-.07s-.81.15-.91-.32.28-.63.55-.87a2.34,2.34,0,0,1,3.5.61c.29.5.23.73-.39.7s-1,0-1.43,0Z"></path><path class="cls-8" d="M129.23,185a2.1,2.1,0,0,1,1.87-1.81,2.26,2.26,0,0,1,2.25,1c.13.18.28.45.23.62s-.38.18-.61.18Z"></path><path class="cls-8" d="M154.86,184.92a2.35,2.35,0,0,1,2.33-1.83,2.15,2.15,0,0,1,2.26,1.61Z"></path></g></svg>