<svg xmlns="http://www.w3.org/2000/svg" id="Layer_1" data-name="Layer 1" viewBox="0 0 181 181"><defs><style>.cls-1{fill:#fff;}.cls-2{fill:#161616;}.cls-3{fill:#fafaf9;}</style></defs><path class="cls-1" d="M1.13,179.87q0-89.66,0-179.3c0-1.36.31-1.66,1.66-1.66q88.85.06,177.68,0c1.36,0,1.66.3,1.66,1.66q-.06,88.83,0,177.68c0,1.35-.3,1.66-1.66,1.66Q90.79,179.85,1.13,179.87Zm100.6-70.62c1.25.09,2.5.16,3.74.29.84.1,1.57-.62,2.32-.46,1.74.38,3.55-.32,5.25.37,2,.79,3.87.13,5.71-.31,2.85-.69,5.54.73,8.5,0s6.33.41,9.53.21c2.69-.18,5.39,0,8.09-.23a10.74,10.74,0,0,1,3.31-.23c2.47.71,4.79.32,7.18,0,1.61-.24,2.27.54,2,2.09s-.43,3-.5,4.57a92.86,92.86,0,0,0,.35,9.44,79.65,79.65,0,0,1-.16,10.59c-.15,1.91,1,3.64.38,5.56s.57,3.22,1.56,4.58a1.13,1.13,0,0,0,1.21.64c1.93-.18,3.76-1.11,4.23-2.8a21.85,21.85,0,0,0,.09-2.82c.41-3.11-.24-6.21-.09-9.33.09-1.85.55-3.71.29-5.66a19.23,19.23,0,0,1-.55-2.43c0-1.42,0-2.87.11-4.27.18-2.51-.2-5,.25-7.57a11,11,0,0,0-.59-6.67c-.59-1.27-1.36-2.57-2.79-2.8a58.38,58.38,0,0,0-10.24-.49c-1.8,0-3.61.18-5.41.37-2.88.32-5.69-.67-8.6-.24a61.29,61.29,0,0,1-7.3.48c-4.07.14-8.16-.69-12.22-.09-3.29.49-6.61-.64-9.91.39a4.58,4.58,0,0,1-3.19-.34c-1.2-.63-2.27-.34-3.41-.23-.75.08-1.5.21-2.22.33-1.39.23-2.49-.82-3.91-.47-1.86.47-3.9,1.06-5.71.75-3.56-.61-7,0-10.55-.12s-6.94.06-10.39-.25c-.59,0-1.18.33-1.66,0-1.77-1.11-3.58.7-5.5-.23-1-.47-2.51.35-3.79.38-3.15,0-6.29,0-9.44,0-1.65,0-3.46.51-4.91.18-3-.66-5.79,1.1-8.8-.11-1.44-.59-1.6,0-1.9-1.68-.46-2.66-.07-5.35-.42-8a11.91,11.91,0,0,1-.3-3.73c.13-.7.65-1.14.7-1.93.09-1.44-.29-2.79-.3-4.17,0-.82.61-1.8.32-2.4-.77-1.58-1.22-3-.12-4.59A1.67,1.67,0,0,0,32,74.19c-.85-.82-.31-1.58-.34-2.43-.09-2.25,1.32-4.63-.38-6.79-.05-.07.09-.29.15-.44.93-2.62-.1-5.3.23-7.94.21-1.68-.63-3.25-.49-4.94.16-1.94.11-3.91.31-5.85.16-1.53-.5-2.9-.6-4.38-.11-1.7,1.75-3.55-.33-5.12-.06,0-.05-.29,0-.32,1.78-.94-.54-2.6.63-3.64-1-.32.36-1-.28-1.52-1-.82-1.81-2.07-3.22-2.07a3.89,3.89,0,0,0-3.56,2.19c-1,1.74.34,3.76-.76,5.47-.05.08,0,.31,0,.33,1.48.6.58,2.06.54,2.71-.28,3.86.8,7.81-.66,11.6-.12.32.17.68.23,1a15.48,15.48,0,0,1,.44,4.18,65.92,65.92,0,0,0,.1,9.11c.14,2.45.61,4.89.24,7.35-.13.85-.54,1.67-.61,2.53-.17,2.1.3,4.19,0,6.34-.51,3.78.67,7.49.65,11.33,0,5.69-.17,11.38-.16,17.07a15,15,0,0,0,.17,4.12,15.11,15.11,0,0,1,.31,6.32,59,59,0,0,0-.21,7.17c0,1.85-.26,3.81.5,5.67a1.52,1.52,0,0,1,0,1.49,2.76,2.76,0,0,0-.13,2.72c.58,1.36.19,2.66.08,4a3.78,3.78,0,0,0,2.92,4,3.21,3.21,0,0,0,3.78-1.26,10,10,0,0,0,1.23-7.82c-.53-2.33-.29-4.76-.51-7.12s.82-4.82-.43-7.19a5.07,5.07,0,0,1-.09-3.39c.56-2,.18-4,.32-6,.06-.92-.25-1.94.3-2.73s1.32.1,2,.1c.1,0,.2-.13.31-.15,4.38-.83,8.78.36,13.22-.28,2.61-.38,5.37.15,8.09.06a26.84,26.84,0,0,1,4.1-.17A56,56,0,0,0,73,109.7a27.44,27.44,0,0,1,8.09-.06c2.28.44,4.43-.34,6.65,0a15.5,15.5,0,0,0,3.91,0,19.54,19.54,0,0,1,6.15-.11,7.31,7.31,0,0,0,3.63,0ZM69.45,90.06c-.23-.06-.74-.08-.77-.21-.09-.46.35-.18.54-.24a2,2,0,0,0,1.15-1.22c.63-1.47,1-3.08,1.67-4.51.6-1.22-.23-2.49.43-3.71.26-.46.61-.44.89-.68,0,0,.48.34.46.43-.44,1.39.24,2.79.05,4.12a4.74,4.74,0,0,0,.81,4.18c.18.26-.16.4-.17.56a4.53,4.53,0,0,0,2.21,4.31c2.77,1.4,5.69,1,8.61,1,2.56,0,5.14.66,7.62-.5a.42.42,0,0,1,.33.08c2.22,1.38,4.92.85,7,.59,3.54-.45,7,.64,10.48-.11,2.48-.53,5.12.28,7.72.17a20.18,20.18,0,0,1,3.22-.12,74.13,74.13,0,0,0,7.89.06c2.41,0,4.84-.4,7.29-.33a9.62,9.62,0,0,0,2.62,0c4.09-1,8.29-.67,12.42-1.2,1.21-.15,2.44,0,3.66-.17,1.77-.17,2.73-2,2.43-4.65-.59-5-3.56-8.64-7-12a39.77,39.77,0,0,0-4.94-3.9c-1.91-1.37-3.88-2.67-5.91-3.85-1.77-1-3.77-1.7-5.49-2.81-2.51-1.62-5.45-2.07-8.15-3.11A50,50,0,0,0,115.91,60c-1.91-.29-4-1.13-5.86.26-.74.55-1.2.54-1.73-.26-.39-.58-4.17-1.05-4.37-.52-.68,1.79-2.21.49-2.27.25-.3-1.28-1.17-.62-1.68-.56s-1.15.48-1.73.31c-2.49-.73-4.94.18-7.41.18a15.57,15.57,0,0,0-5.21.43c-1.82.63-4-.42-5.91.82a2.93,2.93,0,0,1-1.92.37c-2.32-.26-4.9,2.21-5,4.4-.11,2-.16,4-.09,6.06.1,2.59.84,5.17.19,7.79-1.41-.14-.77-1.21-.86-1.88-.76-5.16-6.29-11.33-11.32-12.81A32.43,32.43,0,0,0,57,64.29,12.91,12.91,0,0,0,45.12,68c-2.72,2.74-4.71,6-4.72,10.23a24.18,24.18,0,0,0,1.49,9c.35.92,1.3.77,1.72,1.73.89,2.08,2.76,3.63,4.52,5S52.49,96,55,96.3s4.81-.23,7.17-.56a8.41,8.41,0,0,0,3.69-2A42.17,42.17,0,0,0,69.45,90.06Z"></path><path class="cls-2" d="M101.42,109.55a7.31,7.31,0,0,1-3.63,0,19.54,19.54,0,0,0-6.15.11,15.5,15.5,0,0,1-3.91,0c-2.22-.34-4.37.44-6.65,0a27.44,27.44,0,0,0-8.09.06,56,56,0,0,1-12.93-.24,26.84,26.84,0,0,0-4.1.17c-2.72.09-5.48-.44-8.09-.06-4.44.64-8.84-.55-13.22.28-.11,0-.21.15-.31.15-.68,0-1.4-1-2-.1s-.24,1.81-.3,2.73c-.14,2,.24,4-.32,6a5.07,5.07,0,0,0,.09,3.39c1.25,2.37.2,4.8.43,7.19s0,4.79.51,7.12a10,10,0,0,1-1.23,7.82,3.21,3.21,0,0,1-3.78,1.26,3.78,3.78,0,0,1-2.92-4c.11-1.3.5-2.6-.08-4a2.76,2.76,0,0,1,.13-2.72,1.52,1.52,0,0,0,0-1.49c-.76-1.86-.55-3.82-.5-5.67a59,59,0,0,1,.21-7.17,15.11,15.11,0,0,0-.31-6.32,15,15,0,0,1-.17-4.12c0-5.69.13-11.38.16-17.07,0-3.84-1.16-7.55-.65-11.33.28-2.15-.19-4.24,0-6.34.07-.86.48-1.68.61-2.53.37-2.46-.1-4.9-.24-7.35a65.92,65.92,0,0,1-.1-9.11,15.48,15.48,0,0,0-.44-4.18c-.06-.32-.35-.68-.23-1,1.46-3.79.38-7.74.66-11.6,0-.65.94-2.11-.54-2.71-.06,0-.09-.25,0-.33,1.1-1.71-.21-3.73.76-5.47a3.89,3.89,0,0,1,3.56-2.19c1.41,0,2.21,1.25,3.22,2.07.64.52-.68,1.2.28,1.52-1.17,1,1.15,2.7-.63,3.64,0,0,0,.28,0,.32,2.08,1.57.22,3.42.33,5.12.1,1.48.76,2.85.6,4.38-.2,1.94-.15,3.91-.31,5.85-.14,1.69.7,3.26.49,4.94-.33,2.64.7,5.32-.23,7.94-.06.15-.2.37-.15.44,1.7,2.16.29,4.54.38,6.79,0,.85-.51,1.61.34,2.43A1.67,1.67,0,0,1,32,75.8c-1.1,1.61-.65,3,.12,4.59.29.6-.32,1.58-.32,2.4,0,1.38.39,2.73.3,4.17,0,.79-.57,1.23-.7,1.93a11.91,11.91,0,0,0,.3,3.73c.35,2.66,0,5.35.42,8,.3,1.68.46,1.09,1.9,1.68,3,1.21,5.84-.55,8.8.11,1.45.33,3.26-.19,4.91-.18,3.15,0,6.29.09,9.44,0,1.28,0,2.82-.85,3.79-.38,1.92.93,3.73-.88,5.5.23.48.3,1.07-.08,1.66,0,3.45.31,6.92.09,10.39.25s7-.49,10.55.12c1.81.31,3.85-.28,5.71-.75,1.42-.35,2.52.7,3.91.47.72-.12,1.47-.25,2.22-.33,1.14-.11,2.21-.4,3.41.23a4.58,4.58,0,0,0,3.19.34c3.3-1,6.62.1,9.91-.39,4.06-.6,8.15.23,12.22.09a61.29,61.29,0,0,0,7.3-.48c2.91-.43,5.72.56,8.6.24,1.8-.19,3.61-.34,5.41-.37a58.38,58.38,0,0,1,10.24.49c1.43.23,2.2,1.53,2.79,2.8a11,11,0,0,1,.59,6.67c-.45,2.55-.07,5.06-.25,7.57-.11,1.4-.14,2.85-.11,4.27a19.23,19.23,0,0,0,.55,2.43c.26,2-.2,3.81-.29,5.66-.15,3.12.5,6.22.09,9.33a21.85,21.85,0,0,1-.09,2.82c-.47,1.69-2.3,2.62-4.23,2.8a1.13,1.13,0,0,1-1.21-.64c-1-1.36-2.19-2.7-1.56-4.58s-.53-3.65-.38-5.56a79.65,79.65,0,0,0,.16-10.59,92.86,92.86,0,0,1-.35-9.44c.07-1.53.28-3,.5-4.57s-.44-2.33-2-2.09c-2.39.37-4.71.76-7.18,0a10.74,10.74,0,0,0-3.31.23c-2.7.26-5.4,0-8.09.23-3.2.2-6.5-.91-9.53-.21s-5.65-.74-8.5,0c-1.84.44-3.75,1.1-5.71.31-1.7-.69-3.51,0-5.25-.37-.75-.16-1.48.56-2.32.46-1.24-.13-2.49-.2-3.74-.29l-.47-.4C101.17,109.12,101,109.39,101.42,109.55Z"></path><path class="cls-2" d="M69.45,90.06a42.17,42.17,0,0,1-3.63,3.69,8.41,8.41,0,0,1-3.69,2c-2.36.33-4.7.88-7.17.56S50,95.52,48.13,94s-3.63-2.93-4.52-5c-.42-1-1.37-.81-1.72-1.73a24.18,24.18,0,0,1-1.49-9c0-4.26,2-7.49,4.72-10.23A12.91,12.91,0,0,1,57,64.29a32.43,32.43,0,0,1,3.69.58c5,1.48,10.56,7.65,11.32,12.81.09.67-.55,1.74.86,1.88.65-2.62-.09-5.2-.19-7.79-.07-2,0-4,.09-6.06.12-2.19,2.7-4.66,5-4.4a2.93,2.93,0,0,0,1.92-.37c1.91-1.24,4.09-.19,5.91-.82a15.57,15.57,0,0,1,5.21-.43c2.47,0,4.92-.91,7.41-.18.58.17,1.16-.23,1.73-.31s1.38-.72,1.68.56c.06.24,1.59,1.54,2.27-.25.2-.53,4-.06,4.37.52.53.8,1,.81,1.73.26,1.86-1.39,4-.55,5.86-.26a50,50,0,0,1,10.66,2.31c2.7,1,5.64,1.49,8.15,3.11,1.72,1.11,3.72,1.78,5.49,2.81,2,1.18,4,2.48,5.91,3.85a39.77,39.77,0,0,1,4.94,3.9c3.41,3.33,6.38,7,7,12,.3,2.6-.66,4.48-2.43,4.65-1.22.12-2.45,0-3.66.17-4.13.53-8.33.16-12.42,1.2a9.62,9.62,0,0,1-2.62,0c-2.45-.07-4.88.36-7.29.33a74.13,74.13,0,0,1-7.89-.06,20.18,20.18,0,0,0-3.22.12c-2.6.11-5.24-.7-7.72-.17-3.51.75-6.94-.34-10.48.11-2.1.26-4.8.79-7-.59a.42.42,0,0,0-.33-.08c-2.48,1.16-5.06.5-7.62.5-2.92,0-5.84.38-8.61-1a4.53,4.53,0,0,1-2.21-4.31c0-.16.35-.3.17-.56A4.74,4.74,0,0,1,73.87,84c.19-1.33-.49-2.73-.05-4.12,0-.09-.44-.45-.46-.43-.28.24-.63.22-.89.68-.66,1.22.17,2.49-.43,3.71-.7,1.43-1,3-1.67,4.51a2,2,0,0,1-1.15,1.22c-.19.06-.63-.22-.54.24C68.71,90,69.22,90,69.45,90.06Zm83-1.34a25.16,25.16,0,0,0-5.68-8.3,44.29,44.29,0,0,0-7.46-5.93c-4.55-2.8-9.7-3.86-14.56-5.74a1.83,1.83,0,0,0-.52-.09c-1.47-.11-3,.11-4-1.52a1.23,1.23,0,0,0-1.09-.49c-2,.6-3.84-.4-5.75-.58a47.43,47.43,0,0,1-8.54-1.1c-2.33-.64-4.76-.36-7.13-.47-2-.1-4.12.22-6.2.19a33,33,0,0,0-7.37.57,10.59,10.59,0,0,1-3.42.34c-.83-.08-2.43-.26-3.09,1.28-.45,1.05.67.71.75,1.24a25.29,25.29,0,0,0,1.92,7.43,2.56,2.56,0,0,1,.1,1c0,1.3,0,2.6,0,3.89a34.75,34.75,0,0,0,.78,5.41c.13.9.12,1.65,1.53,1.21A7,7,0,0,1,86.48,87c1.53.42,2.88-.08,4.32-.18,1.9-.14,3.94-.5,5.69,0,2.16.64,4.23.32,6.32.31,1.59,0,3.19.65,4.79,0,1.24-.55,2.55.47,3.59.19,2.78-.77,5.62-.36,8.34-.38a86.29,86.29,0,0,1,10.14.32c2.27.25,4.79,0,7.19.07,2.07.07,4.2-.4,6.21.26C146.13,88.52,149.31,87.92,152.49,88.72Zm-97-19.14a4.61,4.61,0,0,0-2.9,1.13c-.44.37-1.15-.29-1.23.38-.14,1.13-.89,1.6-1.68,2.27a5.59,5.59,0,0,0-2.11,3c-.29,2.5-.93,5.29.94,7.43,1.4,1.6,2.06,4,4.5,4.57,3.62.84,7,1.31,10.25-1.61,2.56-2.3,3-5.15,3.2-8,.13-2.55-1.82-4-3.26-6C61.14,69.82,58.13,70.48,55.53,69.58Z"></path><path class="cls-1" d="M101.42,109.55c-.38-.16-.25-.43-.16-.7l.47.4Z"></path><path class="cls-3" d="M152.49,88.72c-3.18-.8-6.36-.2-9.42-1.2-2-.66-4.14-.19-6.21-.26-2.4-.07-4.92.18-7.19-.07a86.29,86.29,0,0,0-10.14-.32c-2.72,0-5.56-.39-8.34.38-1,.28-2.35-.74-3.59-.19-1.6.7-3.2,0-4.79,0-2.09,0-4.16.33-6.32-.31-1.75-.52-3.79-.16-5.69,0-1.44.1-2.79.6-4.32.18a7,7,0,0,0-3.72.15c-1.41.44-1.4-.31-1.53-1.21a34.75,34.75,0,0,1-.78-5.41c0-1.29.06-2.59,0-3.89a2.56,2.56,0,0,0-.1-1,25.29,25.29,0,0,1-1.92-7.43c-.08-.53-1.2-.19-.75-1.24.66-1.54,2.26-1.36,3.09-1.28a10.59,10.59,0,0,0,3.42-.34,33,33,0,0,1,7.37-.57c2.08,0,4.16-.29,6.2-.19,2.37.11,4.8-.17,7.13.47a47.43,47.43,0,0,0,8.54,1.1c1.91.18,3.74,1.18,5.75.58a1.23,1.23,0,0,1,1.09.49c.92,1.63,2.5,1.41,4,1.52a1.83,1.83,0,0,1,.52.09c4.86,1.88,10,2.94,14.56,5.74a44.29,44.29,0,0,1,7.46,5.93A25.16,25.16,0,0,1,152.49,88.72Z"></path><path class="cls-3" d="M55.53,69.58c2.6.9,5.61.24,7.71,3.13,1.44,2,3.39,3.47,3.26,6-.15,2.89-.64,5.74-3.2,8-3.25,2.92-6.63,2.45-10.25,1.61-2.44-.56-3.1-3-4.5-4.57-1.87-2.14-1.23-4.93-.94-7.43a5.59,5.59,0,0,1,2.11-3c.79-.67,1.54-1.14,1.68-2.27.08-.67.79,0,1.23-.38A4.61,4.61,0,0,1,55.53,69.58Z"></path></svg>