<svg xmlns="http://www.w3.org/2000/svg" id="Layer_1" data-name="Layer 1" viewBox="0 0 287 302"><defs><style>
      .cls-1 {
        fill: #aecde9;
      }

      .cls-2 {
        fill: #1a1c1f;
      }

      .cls-3 {
        fill: #101113;
      }

      .cls-4 {
        fill: #fff;
      }

      .cls-5 {
        fill: #f7f7f7;
      }

      .cls-6 {
        fill: #a9c9e5;
      }

      .cls-7 {
        fill: #333031;
      }

      .cls-8 {
        fill: #f6f5f5;
      }
    </style></defs><g><path class="cls-1" d="M74.69,299.54a85.81,85.81,0,0,1-12.33-1.44c-.61-.12-1.21-.22-1.82-.3s-1.65.38-1.76-.89c-.11-1.46,1-1.24,1.56-1.35,2.08-.38,4.17-.63,6.25-.86,3.27-.36,6.56-.61,9.82-.66,8.93-.14,17.86-1.08,26.8-.79,6.61.21,13.24-.25,19.85-.3,10.59-.08,21.19-.35,31.77,0,6.1.2,12.21-.11,18.32.61a51.81,51.81,0,0,0,10.17.51c5.11-.41,10.2.12,15.28.4,5.63.32,11.27.46,16.9,1.15,3.39.42,6.82.76,10.23,1,.92.07,2.48-.14,2.49,1.37s-1.54,1.14-2.38,1.16c-6,.15-11.88,1.29-17.85,1.57q-10.61.5-21.24.84c-13.14.42-26.29.48-39.44.27-5.17-.08-10.38.28-15.55-.05-7.32-.46-14.65-.21-22-.6-4.88-.25-9.79-.31-14.69-.48A202.26,202.26,0,0,1,74.69,299.54Z"></path><g><path d="M59.27,127.75c.29-1.37,1.7-2.6.54-4.16.84-4.78,1.6-9.55,3.56-14.09.95-2.18,2.71-3.93,3.14-6.34l1-.57c.28-.53,2.12-1,.07-1.64a11.82,11.82,0,0,0,2.76-4c2.2-1.54,1.64-4.1,2.1-6.18a15.41,15.41,0,0,0-5-15.49c-.48-2-2.46-2.87-3.68-4.28-3.63-4.19-3.82-5.42-.34-9.72A6.07,6.07,0,0,0,64.13,60a1,1,0,0,0,1-.61A4.48,4.48,0,0,1,67.62,57c.56-.4.49-1,.5-1.56l0-.64,1.09,0c.32.28.47.12.56-.21a3.27,3.27,0,0,1,0-.54l.61-.87.43-.94c.55-.15.69-.58.72-1.09l0,0L72.8,50l.1-.65c.88-.65,3.32.23,2.26-2.31l0,0a3.21,3.21,0,0,0,.54,0l.6.11c.48.59,1.15.48,1.79.46l.57.18.44.42.13.13,0,.18c.57,1.25,2,1.26,3,2.17,1.52,1.53,3,3.28,5.54,3.32,1.18,0,1.71,1.16,1.62,2.39a6.59,6.59,0,0,1-1.77.74c-3.44.53-5.6-1.94-8.18-3.33-1.94-1-3.7-.75-4.38,1.48a2.1,2.1,0,0,1-.88,1.25c-1.67-.2-2.65.36-2.49,2.21A1.82,1.82,0,0,0,70,59.9c-.77.37-.71,1.09-.73,1.77-.08.22-.17.44-.26.66a.45.45,0,0,0-.3.34c-1.92,1.32-2.5,3-1,4.91,1.37,1.73,3,3.08,4.21,5.14s3.06,3.85,4.36,5.93c.62,1,2.06,1.88,1.51,3.34-1,2.78.89,5.39,0,8.41s-.53,5.88-2.08,8.23a90.87,90.87,0,0,0-8.21,14.87,24,24,0,0,0-2,5.49c-.3,2.49-.48,5.11-.55,7.68-.16,5.58-.8,11.14-.53,16.74.06,1.36.37,1.88,1.9,2.18A36.33,36.33,0,0,1,73.45,148c.51.21.65.83,1.51.46,1-.45.61-1.17.54-1.7a57.76,57.76,0,0,1-.68-13.59c.6-5.73,1.43-11.35,3.6-16.8,2.57-6.41,5.74-12.64,7-19.54a31.5,31.5,0,0,0-1.62-16.34,56,56,0,0,0-6.58-12.32c-1.22-1.8-.63-3.19.57-4.75s2.82-2.76,4.69-2.21a97.68,97.68,0,0,1,15,5.44,27.32,27.32,0,0,0,13.87,2.71c7.79-.41,15.69-1,23-4.16,3-1.29,6.64-1.3,9-4.29.59-.74,2.71-.78,3.55.07,1.82,1.84,4,2.48,6.35,3.34,8,3,16.08,5.23,24.69,5.07,2.85-.06,5.69-.31,8.53-.32,3.21,0,5.29-2.66,8.37-3.26,3.83-.74,8-.77,11.19-3.93,1.67-1.65,4.27-1,5.78.78s2.29,3.55.66,6c-3.51,5.37-6.81,11-7.52,17.51-.43,3.86-.75,7.85.4,11.78,1.4,4.75,4.59,8.71,5.88,13.43,1.05,3.87,3.37,7.26,3.84,11.34.51,4.47,1.14,8.91,1.43,13.42a86.34,86.34,0,0,1,.15,10.42c-.76.68-.45,1.57-.47,2.4l-.12,2.31-.46.67c.81.62-2,1.8.33,2.19l.81-.37,2.12-.22a1.35,1.35,0,0,0,1.42-.39c1.86-.67,3.88-1.16,4.1-3.66,1.16-1.08.45-2.45.57-3.68a1.64,1.64,0,0,0-.1-.49l.3-2.91.36-.81c-.7-1,0-1.44.74-1.89v-.19l.2-.32-.31.21a1.88,1.88,0,0,0-.53.07c-.47-.13-.53-.44-.36-.85a1.07,1.07,0,0,0-.08-1.5v-1.78c.89-.06,1-.64,1-1.37a5.36,5.36,0,0,0,.21-4.48c-.51-1.23-.81-2.22.31-3.52.83-1-.69-.37-1-.66l-.61-.65c-1.08-2.43-.53-5.22-1.75-7.62l-.33-.55c-.63-2.13-.8-4.58-2-6.29-1-1.4-2.18-2.54-2.38-4.33l-.48-.64-.06-.1-.42-.44c-.27-.6-.53-1.19-.8-1.78-.12-.38-.23-.77-.34-1.15-1.69-.91-2.35-2.62-3.2-4.18l-.39-.56c-.26-.52-.61-1-.25-1.65l-.22-1.25-.94-1.75V91.11l.48-1.14c2.11-1.47.44-3.08.16-4.63-1.18-3.53.68-6.21,2.51-8.89L215,76c1-1.43,1.78-3,3.42-3.79,1.11-.59,2.57-1,1.51-2.77.94-1,1.88-2,2.81-3,.08,0,.23-.07.23-.12a2.49,2.49,0,0,0-.05-.46,4.47,4.47,0,0,0-2-3.19.47.47,0,0,0-.3-.34c-.2-.86-1.89-.9-1.26-2.2.86-1.8-.81-1.1-1.4-1.46.07-1.06-.47-.87-1.08-.53-.77-1.07-2.12-1.6-2.27-3.31C214.49,54,213,53.2,212,52.7s-1.27.78-1.89,1.21c-1.2.83-2.55,1.42-3.76,2.25a5.12,5.12,0,0,1-6.14.16c0-.59,0-1.19,0-1.78l.61-.5.59-.36.71-.18c1.55,1,2.07.07,2.32-1.29,3-2,5.42-5,9.39-5.24a4.35,4.35,0,0,0,.51,0l.71.37.2.12c.7.71,1.83,1.18,1.5,2.51l.48.51a3.59,3.59,0,0,1,1.92,2.76.94.94,0,0,0,.39.22,1.71,1.71,0,0,1,.44.13l-.24,1c.09.33.24.48.56.2.62-.17,1.07,0,1.17.68v.24c.08,1.15,1.08,1.51,1.8,2.11a.32.32,0,0,0,.2.26L225,59.55a.56.56,0,0,0,.37.38c0,.81,1.16,1.34.59,2.31l-.35-.27.34.34c.19-.46.45-.5.79-.14l.51.71.6.6c1.08,1,.49,2,.07,3l.14.9c-.11.56-.18,1.14-.79,1.42l-.59.79a10.14,10.14,0,0,1-4,3.83c-.24.39-.48.79-.71,1.19l-.51.64c-.42.6-.84,1.19-1.25,1.79-1.09.06-1.13.83-1.12,1.64-.38.22-1,0-1.15.67-.54,1-1.48,1.78-1.17,3.07l0,1.13c0,.56,0,1.12,0,1.68-.08,1.21-.15,2.43-.23,3.65-.44.42-.39.8.13,1.12,0,.21.07.42.1.63l.35.53c0,.42.09.84.13,1.26-1.09,1.21,0,2,.57,2.89a.94.94,0,0,1,.17.54c-.17.43-.59,1-.45,1.25.37.65,1-.09,1.49,0l.1.08c.1,1.26-.58,3,1.78,2.84v0c0,.46,0,.91,0,1.37l.65,1,.55.6.6.24c-.07,1.7-2.79.35-2.36,1.59.52,1.51,2.35.14,3.56.51v0c-.46,1.62-2.15,2.13-3.07,3.25,1.54,1.4,3.17.38,4.75.29a.36.36,0,0,1,.13.44l.53.74h0c.25,1-.72,2.55,1.16,3l.16,1.13-1.95.11c1.28.32,1.89,1.38,2.67,2.24a1.84,1.84,0,0,1,.26,1.82c-.4.08-.93,0-.89.68l1-.09h0a3.7,3.7,0,0,0,1,2.93c0,1.12.4,2.34-.53,3.26-1.19,1.19,1,.71.67,1.46.17,1.77-.56,3.62.48,5.31l.24.62-.23,0a5.08,5.08,0,0,0,0,4.72c.05.4.09.79.13,1.19-.57.06-1.45.16-1.33.74a2.2,2.2,0,0,0,1.72,1.63c0,.39,0,.78,0,1.16-.84.21-1.22.54-.33,1.21-.05.78-.11,1.57-.16,2.35l-.42.71c.57.93-.95,3.32,1.59,2.77a26.7,26.7,0,0,0,9.44-3.54c0-2,.69-4-.37-5.9.05-2.14-.68-4.34.56-6.37,1.53-3.3,4.4-3.79,7.59-3.61a118,118,0,0,1,14.11,1.75,86.81,86.81,0,0,0,17.56,1.44c1.76,0,3.19,1.52,5.23.62.76-.34,2.21,1.5,1.09,2.53-3.13,2.88-3.87,7.29-6.78,10.16-2.32,2.29-3.87,5.32-6.88,7-1.62.9-1.69,2.1-.38,3.8a132.13,132.13,0,0,1,10.26,15.86c1.83,3.26-1.41,7.78-6,8.11-5.8.42-11.5-.77-17.2-1.6-2.48-.36-4.92-1-7.4-1.25-1.83-.2-1.84.83-2,2.44-.32,2.47,1.36,4.57.69,7a11.28,11.28,0,0,1-4.66,5.21c-2.46,1-5.17,1.2-7.62,2.38a24.37,24.37,0,0,1-8.31,2.17c-1.37.14-2.18,1.56-3.74,1.9a98.41,98.41,0,0,0-9.77,3.17c-4.65.76-9.42,1.11-13.9,2.44-2.5.74-5.17.31-7.49,1.57l-14.6,1.07c-.24-.14-.49-.41-.71-.39-4.47.34-7.92,4.27-12.74,3.59-.72-.1-1,.83-.23,1.47-2.14,0-3.87,1.31-5.85,1.84-2.9.2-5.41,1.48-8,2.62-2.86,1.26-5.68,2.93-9,2.31-2.71,0-5-1.75-7.63-1.94-4.23-3-9.48-3.1-14.14-4.89.88-1,.23-1.61-.62-1.48-2.75.44-5-1.1-7.56-1.52-2-2.11-4.74-2.12-7.27-2.08a74.79,74.79,0,0,1-12.15-.9l-5.5-.8c-2.31-1.22-5-1.28-7.41-1.56-5.14-.61-9.93-2.47-15-3.3-4.79-2.71-10.17-3.7-15.35-5.26-2.72-1.74-6.19-1.62-8.84-3.53-1.68-2.26-4.28-4.22-2.47-7.62.72-1.35-.88-3.32,1.14-4.33-.78-1.06-1.82-1.84-3.15-1.48-6.1,1.66-12.41,1.87-18.61,2.87L15,181c-3.71-1-7.44.65-11.19-.09-1.31-.26-1.36-.64-1-1.7,2.58-8.67,8-15.4,14.51-21.81-4.32-2.69-7.39-6.81-10.85-10.55C3.73,144,2,140.47.41,137c-1.24-2.64.47-4.26,3.34-4.35,7-.2,14,.24,21.05-1a101.26,101.26,0,0,1,19.07-2.13c1.77,0,3.07,1.2,4.73,1.31,1.64,4.34,2.11,8.89,2.44,13.47-.23,1-.1,2,1,2.42,1.72.65,3.51,1.12,5.24,1.75,2.62,1,2.49-.56,2.19-2.32s-.58-3.58-.86-5.38c1-3.67.38-7.44.67-11.15l0,0C60,129,59.71,128.37,59.27,127.75Zm168.09,20.64-.76.24.14.21.64-.43.13-.27ZM149.17,75l-.74.88c-4.51,4.63-9,9.29-13.54,13.89a4.32,4.32,0,0,0-1.46,4.22c.25,1.76-.58,3.25,1.39,4.85,1.14.93,1.14,3.52,1.23,5.38,0,.83,0,1.3.78,1.46A21.44,21.44,0,0,0,145,106c1.5-.26,3-1.38,2.86-3-.16-2.1,1-3.87.76-6.06-.29-3,1.76-5.56,3-8.24,2.21-4.85,6.65-7.89,9.86-11.93,1.26-1.58,3.38-1.32,4.87.39a21.68,21.68,0,0,1,2.91,5.32,53.92,53.92,0,0,1,7.86-7.58,51.29,51.29,0,0,1-22-4.38c-1-.45-1.57,0-2.16.67l-3.81,3.75Zm63.49,82.9-.6.33c-1.14.64-2.6-.31-3.65.76-3.09.58-6.17,1.27-9.28,1.71A112.42,112.42,0,0,1,183.24,162c-5.27,0-10.53.77-15.79,1.17-3.39.26-6.75.75-10.17.94a270,270,0,0,1-27.88,0c-5.65-.27-11.38-.94-17-1.67-4.13-.52-8.25-.15-12.36-.62-7.07-.8-14-2.46-21-3.55a95.31,95.31,0,0,1-14.23-3.7c-7.31-2.33-14.57-4.87-22.17-7.43v5.41c-.79,0-1.13-1.19-2-.71a1,1,0,0,0-.33.66c1.15.87.78,3.29,3,3,.17,1.56-.67,3.11-.51,4.51a198.6,198.6,0,0,1,1,22.61c-2.32,1.64-.65,2.57.63,3.58-1.31,3,1.49,2.92,2.82,3.41,4.52,1.68,9.18,3,13.75,4.54,4,1.35,7.72,3.35,11.86,4.23,3.21.69,6.45,1.26,9.69,1.83,7.35,1.28,14.6,3.06,22.15,3.12,4.72,0,9.44.5,14.16,1a142.5,142.5,0,0,0,14.34,1c4.23,0,8.48-.29,12.66,0a96.72,96.72,0,0,0,22.52-.58c9.71-1.52,19.54-.78,29.18-2.7,5-1,10-1.93,15-3a2.7,2.7,0,0,0,2.75-.45l1.37-.2c.59.13,1.18.25,1.54-.44l.75-.09a2.44,2.44,0,0,0,2.63-.91h0c2.36-.51,4.48-1.77,6.72-2.45,4.92-1.49,9.77-3.19,14.64-4.82,3.51-1.18,4.83-2.53,4.15-5.86-1.3-6.36.67-12.61.13-18.95-.22-2.62-.54-5.78.37-8.06,1.35-3.42-.25-6.4.38-9.85-1.41.79-2.78.66-3.68,1.67-9,2.24-17.67,5.6-26.41,8.68C216.13,156.85,214.52,158.68,212.66,157.85ZM190.85,97.18c3.28-2,5.35-5.31,8-8,.32-.33,2.61-2.12.43-3.54-.1-.07,0-.58.12-.82,2-3.79,2-8.43,5.2-11.81a7.5,7.5,0,0,0,1.9-5.33c-3,1.43-5.93,2.56-8.1,4.64-7.64,7.33-15.05,14.89-22.59,22.32-1,1-.78,2.45-1.71,3.4,2.16,1.56,1.1,3.87,1.36,5.87.1.75-.1,1.4,1.17,1.44,4.66.13,9.18.11,11.79-4.75C189.24,99.47,190.52,98.67,190.85,97.18Zm69.57,78.31c1,1.16,2.44.76,3.55.85,4.66.36,9.41,2.34,14-.22,1.07-.59,2.66-.8,1-2.85a23.15,23.15,0,0,1-2.69-4.07c-1.23-2.51-2.93-4.74-4.27-7.16-1.17-2.12-3.31-3.2-4.78-5-1.34-1.61-.84-2.47-.08-3.08a62.31,62.31,0,0,0,7.71-7.52c2.08-2.36,4.56-4.57,5.39-7.84.36-1.41.24-3.07-1.54-2.5-2.84.91-5.39-.26-8.05-.39-4.2-.19-8.38-.92-12.57-1.42a33.43,33.43,0,0,0-9.44-1.33c-1.29,0-3-.67-3.51.69-.73,1.81,1.77,1.59,2.42,2.69.14.23.78.1,1.08.29a6.32,6.32,0,0,1,3.07,4.35c.68,4.79-.18,9.63.08,14.5a59.23,59.23,0,0,1-.87,15.11c-.49,2.37-.09,4.09,3.11,4.24C256.15,175,258.3,175.28,260.42,175.49ZM39.25,139.56c1.24-.61,1.43-2.08,2.4-2.91,1.1.2,1.73-.63,2.57-1.08s1.7-.88,1.41-1.87-1.53-1-2.35-.91A100.79,100.79,0,0,0,32.9,134,112.3,112.3,0,0,1,9.11,136c-3.23-.07-4.47,2-3,5,2.79,5.49,7.45,9.34,12,13.17,2.27,1.89,2.93,3.44,1,5.61C15,164.44,10.66,169,7.69,174.61c-.31.58-1.24.68-.62,1.8a2.09,2.09,0,0,0,1.73,1.25c2.46-.18,5,.21,7.33,0,7.38-.68,14.68-2.14,22-3.12,1.45-.2,1.7-.69,1.62-1.93-.34-5.48-.46-11-1-16.43-.17-1.74,1.43-3,1-4.2C38.21,147.82,39.28,143.69,39.25,139.56Zm110.08,20.15c7.78-.51,16.09-.59,24.3-1.89,1.76-.28,4,1.2,5.27-1,1.12-1.85.72-4,.62-6-.19-3.92-1.43-7.76-1.11-11.74.06-.81-.46-1.2-1.24-1.37a45.58,45.58,0,0,0-18.46-.27c-7.8,1.47-15.64,1.73-23.5,2.09-5.42.24-10.84.61-16.26-.07-.7-.09-3.86,2.22-3.91,2.83-.34,4.28-.67,8.57-.92,12.86-.1,1.52.7,2.3,2.29,2.48,2.23.26,4.51-.15,6.67.17C131.63,159.06,140.24,159.07,149.33,159.71Zm23.93-43.54c2.56-1,5-.48,7.18-1.11,1.85-.52,3.59,0,4.15,1.49.64,1.66-1.18,2.92-2.5,3.39-3.22,1.14-6.56,2.4-9.93,2.65-8.23.59-16.5.68-24.76.89-5.46.13-10.91.32-16.36.5-3.16.1-6.61.53-9.52-.16a40.5,40.5,0,0,0-9.45-.69c-2,0-3.57-1-5.14-1.86-.88-.48-.74-2.1-.37-2.86.72-1.45,2.43-1.66,3.92-1.84,3.9-.46,3.91-.42,2.53-4.2-.17-.46-.29-.94-.42-1.41a1.67,1.67,0,0,0-2.25-1.25c-6.58,1.68-13.49,2.3-19.17,6.71-2.51,2-2.83,3.27-1,5.9a13.86,13.86,0,0,0,9.78,6.09c6,1,11.94,1.51,17.9,2.3,6.71.89,13.49.09,20.18-.37,4.39-.31,8.93-.2,13.23-1.47,1.41-.41,2.47,1.27,2.64.95,1.81-3.29,4.74-.84,7-1.22,4.55-.78,9.32-.55,14-.3,5.39.29,10.8-.2,16.19-.39,4-.14,8.09-.94,11.41-3.68a6.33,6.33,0,0,0,1.52-7.18c-2-3.82-11.74-9.1-16-8.48a41.1,41.1,0,0,1-9.72.21c-3-.29-3.88,1.47-4.38,3.83Zm-21-13.28c-.83,5.1,2.62,9.93,3.38,15.34.36,2.54,2.34,2.2,3.65,1.74,1.82-.64.69-1.84-.05-2.88-.29-.41-.18-1.12-.21-1.69-.22-4.06-.23-8.12-.57-12.19a18.29,18.29,0,0,1,1.09-8.33c.48-1.18.86-3,2.29-2.95,1.88,0,3.09,1.59,3.55,3.41,1.13,4.52-.24,9.26,1.19,13.77.13.41-.13.94-.23,1.41a41.35,41.35,0,0,1-1.84,7c-.33.88-.82,2.09.5,2.46,1,.28,2.52.66,3.18-.68,1.48-3,3-6.58,3.23-9.41.26-4,.77-8.26.08-12.43a39.57,39.57,0,0,0-1.58-7.1c-1-2.58-3.27-5-4.58-7.75-.9-1.9-2.3-2.39-3.85-.6s-2.72,3.78-4.44,5.22c-2.56,2.13-2.84,5.5-4.73,8C151.48,96.4,151.81,99.86,152.25,102.89Zm-51.09,29.68a82.2,82.2,0,0,1-8.33-2.44,1.89,1.89,0,0,0-2.47.39,97.45,97.45,0,0,1-7.85,7.1c-2.27,1.72-1.58,3.9-1.35,5.85.19,1.58,2.15,1.1,3.35,1.48.82.26,2,.33,2.37.91,1.42,2.21,4.37,1.73,5.42,1.44,3.78-1.06,7.08.43,10.56.86.47.05.88.36,1.3,0,3.27-3.25,7.76-5.74,6.94-11.49-.29-2-.17-4-3.28-3.22-1.13.28-2.45-.34-3.7-.42-1.4-.09-2.43-.25-1.53-2.06.26-.53.52-1.53-.72-1.29-.62.13-1.62.23-1.36,1.35A13.79,13.79,0,0,0,101.16,132.57ZM131,119.78c2.65-14.85.34-28.61-9.1-40.77-.8,1.21-1.67,2.59-2.6,3.92a28.25,28.25,0,0,0-4.73,21.13c.73,4.53,2.44,8.84,4,13.15a8.71,8.71,0,0,0,1.7,3c1,1.07,1.87.22,2.62,0,1.36-.42.11-1.25,0-1.85s-.88-1.33-1-2A139.34,139.34,0,0,1,120,93.55c0-1.31.44-1.91,1.92-1.8,3.42.26,4.24,3.58,4.35,5.4.25,4.54,2,8.95,1.31,13.54a27.91,27.91,0,0,0-.48,5.91C127.3,120.31,127.31,120.31,131,119.78ZM152,116c-.65-.91-1.5-1.56-1.59-2.3-.43-3.84-3.11-3.85-5.94-3.75a12.64,12.64,0,0,1-2.29-.14c-1.86-.27-4-.71-5.58-.08-1.24.48-.38,2.71-.69,4.14-.13.64-.79,1.17-.25,2.24C140.88,115.36,146.3,117,152,116ZM106.41,89.76c-3.11-.44-3.93-2.16-4.13-4.37,0-.52.27-1.32-.59-1.41-.67-.08-1,.47-1.14,1.1a3.52,3.52,0,0,1-3.26,3.19c-1,.11-.9.77-1,1.47s-.15,1.28.61,1.39c1.79.26,3.07.87,3.23,3,0,.58,1.31,1.09,1.4,0C101.78,91.47,104.13,91.32,106.41,89.76Zm73.74-9.31c-.49.28-.93.4-.94.56-.16,2.12-1.47,2.88-3.38,3.33-.78.19-.61,1.11.24,1.47a6.64,6.64,0,0,0,1.87.66c1.69.17.36,3.12,2.2,2.57,1.16-.34.35-2.62,1.86-3.31.7-.33,1.67-1.21,1-1.71A6.65,6.65,0,0,1,180.15,80.45ZM132.7,77.87c.69.25,1.35.28,1.54.59,1.81,3,3.16,2.6,5.07-.12.77-1.11,1.35-1.26-.07-2a3.08,3.08,0,0,1-1.64-1.94c-.22-.73-1.27-.67-1.32-.2C136.09,76.39,133.59,76.09,132.7,77.87ZM102.29,107c.74-1.5,3.35-2.76.43-4.74-.49-.33-.87-1.12-1.53-.41C99.36,103.78,99.18,105.57,102.29,107Z"></path><path class="cls-1" d="M66.51,103.16c-.43,2.41-2.19,4.16-3.14,6.34-2,4.54-2.72,9.31-3.56,14.09-8.3-1.7-16.6-3.43-24.57-6.36-4-1.45-7.92-2.73-12-3.79a15.46,15.46,0,0,1-5-2.89c-1.61-1.19-1.09-2.67,1-3.33a42.21,42.21,0,0,1,10.37-1.78c11.31-.66,22.59-1.75,33.85-3C64.53,102.37,65.68,102.15,66.51,103.16Z"></path><path d="M89.33,56.32c.09-1.23-.44-2.38-1.62-2.39-2.57,0-4-1.79-5.54-3.32-.9-.91-2.38-.92-3-2.17,3.71,1.25,6.85,3.53,10.06,5.65a4.51,4.51,0,0,0,3,1c4-.38,7.55,1.32,11.28,2.23a26.18,26.18,0,0,0,8.82.76c4-.07,7.66-1.57,11.5-2.31.51-.1,1.43-.16,1.52-1.08a20.65,20.65,0,0,0,6.5-2.85c.28-.1.57-.17.83-.29,5.72-2.67,11.12-6.41,18-5.11,1.34,1.57,1.88,4,4.44,4.28,2.81,1.94,6.22,2.63,9.09,4.4a7.66,7.66,0,0,0,5.4,1.26c2.31.78,4.57,1.75,7.07,1.72,2.32,1.12,4.73.09,6.86-.28,5.32-.92,10.4-3.18,16-2.84.23,0,.47-.29.71-.44,0,.59,0,1.19,0,1.78-.95.74-.13,3.38-1.22,2.75-2.85-1.68-5,.53-7,1.13a55.2,55.2,0,0,1-10.15,2.25c-4.7.53-9.4,1-13.74-1.58-1.7,1.61-2-1.28-3.81-1-4.31.55-7.62-3-11.67-4a5.92,5.92,0,0,1-3.56-2.15,4.68,4.68,0,0,0-7-.68,24.32,24.32,0,0,1-3.84,2.42c-2.14,1.23-4.83,1-6.62,2.35-3.75,2.82-8.33,3-12.46,4.49a21.07,21.07,0,0,1-12.24.08c-1.06-.27-2,.7-3.1,0-2-1.45-4.69-1.85-6.86-2.33-2-.44-3.63-2-5.78-1.68-1.26.21-1.24.18-1.37-.9A3.73,3.73,0,0,0,89.33,56.32Z"></path><path class="cls-1" d="M150.65,46.44c-6.85-1.3-12.25,2.44-18,5.11-.26.12-.55.19-.83.29.31-6.37,1.87-12.54,3.55-18.61a197.5,197.5,0,0,0,5.15-28.39c.25-2,1.84-2.86,2.37-4.49.17-.52.85-.43,1.2,0,.72,1,2.33.94,2.4,2.67.14,3.42.58,6.82.86,10.23.45,5.62.92,11.25,1.52,16.85.4,3.77.12,7.69,1.39,11.35C150.86,43.13,150.53,44.79,150.65,46.44Z"></path><path class="cls-1" d="M94.81,205.87a74.79,74.79,0,0,0,12.15.9c2.53,0,5.26,0,7.27,2.08-2.26,4.32-5.82,7.56-9.36,10.69-7.32,6.47-14.84,12.71-22.33,19-2.24,1.88-4.66,3.54-7,5.32-.67.51-1.34.92-2.11.32s-.33-1.4,0-2.1c2.52-5.54,6.22-10.37,9.38-15.52,3.82-6.22,7.55-12.49,11.29-18.76A10.85,10.85,0,0,0,94.81,205.87Z"></path><path class="cls-1" d="M221.49,102.39l-.65-1c1.3-.41.89-.88,0-1.37v0l-1.78-2.84-.1-.08c-.17-.56-.26-1.2-1-1.26a.94.94,0,0,0-.17-.54c-.06-.92-.13-1.84-.19-2.76,6.53-1.1,13.07-2.13,19.58-3.36a42.61,42.61,0,0,1,6.66-.76c6.75-.22,13.45-.82,20.17-1.32.91-.07,2.45-.71,2.7.83.19,1.19-1,1.64-2,2.13-8.6,4.18-17.19,8.36-25.24,13.59a18.73,18.73,0,0,1-8.52,2.85c-1.9.18-3.24,1.88-5.21,1.84-.61-1-1.22-2-1.84-3v0l-1.2-2.1L222,103Z"></path><path class="cls-1" d="M195.38,206.17c2.32-1.26,5-.83,7.49-1.57,4.48-1.33,9.25-1.68,13.9-2.44,7.48,9.25,15.8,17.85,22.08,28.06a36.92,36.92,0,0,0,3.14,3.85c.43.54,1,1.15.36,1.81a1.38,1.38,0,0,1-1.89,0c-5-3.49-10.78-5.84-15.58-9.77-4.37-3.58-9.44-6.19-14.19-9.23-4.42-2.83-9.42-4.6-13.59-7.84A3.72,3.72,0,0,1,195.38,206.17Z"></path><path class="cls-1" d="M228.49,118.32a1.84,1.84,0,0,0-.26-1.82,2,2,0,0,0-.72-2.35l-.16-1.13-.06-1.66c3.49.69,7,.32,10.48.07a167.75,167.75,0,0,1,17.08-.05c5,.17,10,1.1,15,1.07a10.87,10.87,0,0,1,2.9.35,2.3,2.3,0,0,1,1.66,2.21c.06.94-.74,1.18-1.45,1.59-3,1.75-6.47,2.13-9.76,3C254,122,244.67,124,235.55,126.85c-1.77.55-3.57,1-5.36,1.52-.18-.59.44-1.39-.45-1.8.37-.75-1.86-.27-.67-1.46.93-.92.55-2.14.53-3.26a4.79,4.79,0,0,0-1-2.93h0Z"></path><path class="cls-1" d="M200.19,54.54c-.24.15-.48.46-.71.44-5.57-.34-10.65,1.92-16,2.84-2.13.37-4.54,1.4-6.86.28C185.84,47,196.82,37.74,208.25,29c2.94-2.24,5.38-5.11,8.53-7.14.78-.49,1.43-1.16,2.32-.42s.39,1.56.06,2.4c-1.83,4.69-5.09,8.52-7.71,12.74-2.77,4.46-5.69,8.82-8.22,13.43a4.26,4.26,0,0,0-.54,2.78l-.59.7-.71.18-.59.36Z"></path><path class="cls-1" d="M144.18,218.68c3.37.62,6.19-1.05,9-2.31,2.61-1.14,5.12-2.42,8-2.62a314.3,314.3,0,0,1-7.19,31.51c-1.27,4.31-.87,8.94-2.43,13.2-.46,1.27-.68,2.75-2.63,2.53s-2.41-1.67-2.38-3.16c.14-6.76-1.17-13.41-1.39-20.15C145,231.35,144.12,225,144.18,218.68Z"></path><path class="cls-1" d="M167.1,211.91c-.75-.64-.49-1.57.23-1.47,4.82.68,8.27-3.25,12.74-3.59.22,0,.47.25.71.39.79,6,3.26,11.58,5.07,17.32q3.51,11.15,7.41,22.17c1,2.83,2.67,5.41,3,8.51.06.66.55,1.36-.21,1.85-.95.62-1.51-.22-1.92-.79-4.33-6.11-9.43-11.66-12.75-18.5a144.07,144.07,0,0,0-9.83-17.68A88.39,88.39,0,0,1,167.1,211.91Z"></path><path class="cls-1" d="M125.35,54.69c-.09.92-1,1-1.52,1.08-3.84.74-7.53,2.24-11.5,2.31-3.71-11.17-7.38-22.35-11.14-33.51-1.27-3.78-2.77-7.48-4.11-11.23a14.5,14.5,0,0,1-.63-2.85c-.08-.64-.22-1.46.67-1.73a1.36,1.36,0,0,1,1.5.7c4,5.73,8.83,10.87,12,17.24,4,8,8.56,15.64,13,23.39A11.09,11.09,0,0,1,125.35,54.69Z"></path><path class="cls-1" d="M67.53,75.23a15.41,15.41,0,0,1,5,15.49c-.46,2.08.1,4.64-2.1,6.18-1.64-3.28-5-4.51-7.82-6.28-8.86-5.66-18-10.93-27-16.38a15.26,15.26,0,0,1-2-1.66c-.62-.53-1.78-.94-1-2,.61-.85,1.55-.52,2.43-.28A124.25,124.25,0,0,0,62.9,74.73C64.45,74.8,65.93,75.6,67.53,75.23Z"></path><path class="cls-1" d="M169.58,56.38a7.66,7.66,0,0,1-5.4-1.26c-2.87-1.77-6.28-2.46-9.09-4.4,3.26-2.46,5.15-6.06,7.31-9.33,4.62-7,8.54-14.41,13.48-21.23,2.08-2.88,3.65-6.18,5.83-9,.66-.87,1.36-2.27,2.77-1.67,1.67.71.55,2.19.26,3.09-1.1,3.42-2.38,6.8-3.76,10.13A263.58,263.58,0,0,0,169.58,56.38Z"></path><path class="cls-1" d="M220.22,77c.41-.6.83-1.19,1.25-1.79l.27,0,.27-.07c1,.48.54-.47.74-.77h0a4.74,4.74,0,0,0,3.15-.11c5.6-2,11.53-2.9,17.21-4.63,4.28-1.3,8.58-2.47,12.91-3.59,1.05-.28,2.42-.84,3.1.56.58,1.19-.42,1.85-1.21,2.66A31.5,31.5,0,0,1,249.47,75c-9.81,5-19.47,10.31-29.53,14.8a23.65,23.65,0,0,1-2.78.88.62.62,0,0,1-.42-.09c0-.21-.07-.42-.1-.63l-.13-1.12c.08-1.22.15-2.44.23-3.65,0-.56.92-1.11,0-1.68l0-1.13c.77-.88,2.05-1.56,1.17-3.07.15-.62.77-.45,1.15-.67C220.27,78.67,220.27,77.87,220.22,77Z"></path><path class="cls-1" d="M122.41,211.85c4.66,1.79,9.91,1.87,14.14,4.89-2.57,1.57-4.12,4.1-5.62,6.53-6.51,10.52-12.93,21.1-20,31.25-.67,1-1.26,2.34-2.68,1.56-1.2-.65-.49-1.89-.24-2.91,1.79-7.13,5.6-13.5,7.74-20.49S120.64,218.94,122.41,211.85Z"></path><path class="cls-1" d="M66.93,200.21c5,.83,9.83,2.69,15,3.3,2.37.28,5.1.34,7.41,1.56-6.29,3.36-13.17,5.16-19.81,7.61-6.4,2.36-12.66,5.08-19,7.73-1.16.48-2.44,1-3.29.15-1-1.05.35-2.05.93-2.73a50.18,50.18,0,0,1,5.19-5.12C58,208.69,62.9,204.91,66.93,200.21Z"></path><path class="cls-1" d="M72.9,49.33c0,.22-.07.43-.1.65-.45.3-1.12.38-1.13,1.12l0,0c-.6.13-.66.61-.72,1.09l-.43.94c-.44.12-1,.12-.61.87a3.27,3.27,0,0,0,0,.54l-.56.21-1.09,0c-2.77-3.51-5.67-6.92-8.29-10.53-3.07-4.25-5.83-8.72-9.37-12.62-.43-.47-.88-1.14-.24-1.84s1.27-.21,1.85.09a90.39,90.39,0,0,1,14.37,8.78c2.46,1.94,5.16,3.44,7.7,5.22,1.23.85,3,1.19,3.39,3l-1.24.19-.6-.11c-.19-.44-.38-.59-.54,0l0,0A2.77,2.77,0,0,0,72.9,49.33Z"></path><path class="cls-1" d="M226,62.24c.57-1-.58-1.5-.59-2.31,0-.21.14-.64-.37-.38l-1.57-1.47.3-.14-.5-.12c-.72-.6-1.72-1-1.8-2.11l.19-.06-.2-.18c-.1-.73-.55-.85-1.17-.68l-.56-.2.24-1a20.88,20.88,0,0,0,8.76-3,50.43,50.43,0,0,1,10.05-3.78,26.54,26.54,0,0,0,3.41-1.63c1-.49,2.39-1.27,3.17-.11s-.34,2.34-1.09,3.1c-2.51,2.57-5.12,5.05-7.84,7.39a87.11,87.11,0,0,0-8.54,7.86l-.6-.6c.08-.41-.19-.58-.51-.71-.34-.36-.6-.32-.79.14Z"></path><path class="cls-1" d="M240.82,145.4a26.7,26.7,0,0,1-9.44,3.54c-2.54.55-1-1.84-1.59-2.77a.57.57,0,0,0,.42-.71c0-.78.11-1.57.16-2.35.49-.3.27-.79.33-1.21s0-.77,0-1.16a2.71,2.71,0,0,0-.39-2.37c0-.4-.08-.79-.13-1.19a17,17,0,0,0,0-4.72l.23,0a23.53,23.53,0,0,1,10.55.63c-1.24,2-.51,4.23-.56,6.37-.18,4.6-.18,4.61-4.67,4.79a5.64,5.64,0,0,0-3.23,1C235.47,145.86,238.16,144.31,240.82,145.4Z"></path><path class="cls-1" d="M51,144.24c-.33-4.58-.8-9.13-2.44-13.47,3.54-.56,7-1.48,10.68-1.21-.29,3.71.32,7.48-.67,11.15-.88,0-1.33.7-2,1.07C54.86,142.78,53.5,144.8,51,144.24Z"></path><path class="cls-1" d="M42.74,191.42c2.65,1.91,6.12,1.79,8.84,3.53-2.85,1.81-6.19,2.38-9.32,3.39a34.56,34.56,0,0,1-5.7,1.22c-1.05.15-2.5.78-3.14-.66-.54-1.21.53-2,1.35-2.67C37.21,194.28,39.63,192.27,42.74,191.42Z"></path><path class="cls-1" d="M246.21,192.54a11.28,11.28,0,0,0,4.66-5.21c2.6,1.72,5.23,3.38,7.77,5.18.81.57,2.11,1.3,1.47,2.53-.54,1-1.72.43-2.65.2Z"></path><path class="cls-2" d="M223.85,105.35c.62,1,1.23,2,1.84,3a.86.86,0,0,1-.16.54c-1.58.09-3.21,1.11-4.75-.29C221.7,107.48,223.39,107,223.85,105.35Z"></path><path class="cls-2" d="M229.74,126.57c.89.41.27,1.21.45,1.8-.69,1.18.53,2.34,0,3.51C229.18,130.19,229.91,128.34,229.74,126.57Z"></path><path class="cls-2" d="M202.1,53.5l.59-.7,1-.56.77,0h0C204.17,53.57,203.65,54.47,202.1,53.5Z"></path><path class="cls-2" d="M65.13,59.34a1,1,0,0,1-1,.61,1.24,1.24,0,0,1,.93-1.32Z"></path><path class="cls-2" d="M227.29,111.36l.06,1.66c-1.88-.4-.91-1.91-1.16-3Z"></path><path class="cls-2" d="M217.6,92.55c.06.92.13,1.84.19,2.76-.57-.89-1.66-1.68-.57-2.89A1.22,1.22,0,0,1,217.6,92.55Z"></path><path class="cls-2" d="M68.12,55.45c0,.57.06,1.16-.5,1.56C67.92,56.53,67.37,55.78,68.12,55.45Z"></path><path class="cls-1" d="M67.63,101c2.05.64.21,1.11-.07,1.64C67.58,102,67.61,101.5,67.63,101Z"></path><path class="cls-2" d="M222.72,74.44h0l-.71.23-.06-.06c.23-.4.47-.8.71-1.19C223.36,73.74,223,74.09,222.72,74.44Z"></path><path class="cls-1" d="M59.27,127.75c.44.62.75,1.23,0,1.84C59.26,129,59.26,128.37,59.27,127.75Z"></path><path class="cls-2" d="M76.34,47.07l1.24-.19.55.65C77.49,47.55,76.82,47.66,76.34,47.07Z"></path><path class="cls-2" d="M215.23,47.48l-.2-.12h.45Z"></path><path class="cls-2" d="M217.21,50.5l-.48-.51a1.59,1.59,0,0,0,.43.26C217.44,50.32,217.47,50.38,217.21,50.5Z"></path><path class="cls-2" d="M226.71,69.59l.59-.79Z"></path><path class="cls-2" d="M228.09,67.38l-.14-.9C228.83,66.64,228.54,67,228.09,67.38Z"></path><path class="cls-2" d="M219.52,53.48a.94.94,0,0,1-.39-.22Z"></path><path class="cls-2" d="M216.74,90.63a.62.62,0,0,0,.42.09.75.75,0,0,1-.07.44C217,91,216.86,90.81,216.74,90.63Z"></path><path class="cls-3" d="M204.44,52.22l-.77,0,.39-.61Z"></path><path class="cls-2" d="M226.19,110.07l-.53-.74C226.08,109.4,226.19,109.69,226.19,110.07Z"></path><path class="cls-2" d="M79.14,48.13l-.44-.42C79.06,47.63,79.23,47.75,79.14,48.13Z"></path><path class="cls-2" d="M214.32,47a4.35,4.35,0,0,1-.51,0l.28-.38Z"></path><path class="cls-4" d="M43.8,182.59a198.6,198.6,0,0,0-1-22.61c-.16-1.4.68-2.95.51-4.51,5.7,2,11.59,3.39,17.27,5.6a92.76,92.76,0,0,0,21,5.48c6.21.86,12.54,1.16,18.64,2.6,12.52,2.95,25.33,2,38,3.3,4.6.46,9.28-.71,14-.11,7,.91,14-.89,21-1.08a141.27,141.27,0,0,0,16.13-1.65c6.14-.88,12.24-2.07,18.35-3.18,2.3-.42,4.6-.91,6.85-1.52.9-.24,2-1.51,2.48-1.27,2.85,1.54,5-.67,7.5-1.09,5.6-1,10.72-3.88,16.51-4.14,2.84-.13,3.29.37,2.77,3.18a63.14,63.14,0,0,1-7.13,20.64c-1.27,2.18-2.1,4.69-5.34,5.38-5.65,1.21-11.25,2.53-17,3.52-11.5,2-22.9,4.19-34.62,4.93-8.83.55-17.69,1.5-26.52,1.7-12.31.29-24.66,1.65-37-.3-2.38-.38-4.91-1.22-7.22-.8-4.18.75-8.1-.69-12.16-.8-6.11-.16-12.07-2-18.09-3.16A139.11,139.11,0,0,1,63,189.36C56.51,187.35,50.18,184.87,43.8,182.59Z"></path><path class="cls-5" d="M89.33,56.32a3.73,3.73,0,0,1,.47,1c.13,1.08.11,1.11,1.37.9,2.15-.36,3.82,1.24,5.78,1.68,2.17.48,4.83.88,6.86,2.33,1,.75,2-.22,3.1,0a21.07,21.07,0,0,0,12.24-.08c4.13-1.47,8.71-1.67,12.46-4.49,1.79-1.35,4.48-1.12,6.62-2.35A24.32,24.32,0,0,0,142.07,53a4.68,4.68,0,0,1,7,.68,5.92,5.92,0,0,0,3.56,2.15c4.05,1,7.36,4.58,11.67,4,1.78-.23,2.11,2.66,3.81,1,4.34,2.57,9,2.11,13.74,1.58A55.2,55.2,0,0,0,192,60.2c1.94-.6,4.13-2.81,7-1.13,1.09.63.27-2,1.22-2.75a5.12,5.12,0,0,0,6.14-.16c1.21-.83,2.56-1.42,3.76-2.25.62-.43,1-1.66,1.89-1.21s2.47,1.33,2.54,2.13c.15,1.71,1.5,2.24,2.27,3.31.24.43.44.93,1.08.53.59.36,2.26-.34,1.4,1.46-.63,1.3,1.06,1.34,1.26,2.2-.14.32,0,.4.3.34a4.47,4.47,0,0,1,2,3.19l-.18.58c-.93,1-1.87,2-2.81,3-.64.85-2.48,1-1.51,2.77-1.64.82-2.46,2.36-3.42,3.79-.37-.08-.52.06-.42.44-1.83,2.68-3.69,5.36-2.51,8.89-.41,1.53-1.47,3-.16,4.63l-.48,1.14c-.44.45-.69.9,0,1.35l.94,1.75c0,.43-.21.89.22,1.25-.36.61,0,1.13.25,1.65-.14.37.13.47.39.56.85,1.56,1.51,3.27,3.2,4.18.08.39-.21.9.34,1.15.27.59.53,1.18.8,1.78l.42.44.06.1.48.64c.2,1.79,1.38,2.93,2.38,4.33,1.22,1.71,1.39,4.16,2,6.29l.33.55c1.22,2.4.67,5.19,1.75,7.62-.46.17-.89.4-.42.92s.76.12,1-.27c.35.29,1.87-.31,1,.66-1.12,1.3-.82,2.29-.31,3.52a5.36,5.36,0,0,1-.21,4.48c-.86.08-1.29.46-1,1.37,0,.59,0,1.19,0,1.78s0,1,.08,1.5c-.17.41-.11.72.36.85l.63.23c-.72.45-1.44.89-.74,1.89a.56.56,0,0,0-.36.81l-.3,2.91a6.67,6.67,0,0,0-3.2.92c-1.69.84-2.86,2.76-5,2.61,0-.77,0-1.53,0-2.29a86.34,86.34,0,0,0-.15-10.42c-.29-4.51-.92-9-1.43-13.42-.47-4.08-2.79-7.47-3.84-11.34-1.29-4.72-4.48-8.68-5.88-13.43-1.15-3.93-.83-7.92-.4-11.78.71-6.5,4-12.14,7.52-17.51,1.63-2.49.78-4.37-.66-6s-4.11-2.43-5.78-.78c-3.21,3.16-7.36,3.19-11.19,3.93-3.08.6-5.16,3.24-8.37,3.26-2.84,0-5.68.26-8.53.32-8.61.16-16.7-2.08-24.69-5.07-2.33-.86-4.53-1.5-6.35-3.34-.84-.85-3-.81-3.55-.07-2.35,3-5.95,3-9,4.29-7.34,3.13-15.24,3.75-23,4.16a27.32,27.32,0,0,1-13.87-2.71,97.68,97.68,0,0,0-15-5.44c-1.87-.55-3.45.59-4.69,2.21s-1.79,2.95-.57,4.75a56,56,0,0,1,6.58,12.32,31.5,31.5,0,0,1,1.62,16.34c-1.23,6.9-4.4,13.13-7,19.54-2.17,5.45-3,11.07-3.6,16.8a57.76,57.76,0,0,0,.68,13.59c.07.53.5,1.25-.54,1.7-.86.37-1-.25-1.51-.46a36.33,36.33,0,0,0-7.07-2.45c-1.53-.3-1.84-.82-1.9-2.18-.27-5.6.37-11.16.53-16.74.07-2.57.25-5.19.55-7.68a24,24,0,0,1,2-5.49,90.87,90.87,0,0,1,8.21-14.87c1.55-2.35,1.26-5.29,2.08-8.23s-1.09-5.63,0-8.41c.55-1.46-.89-2.35-1.51-3.34-1.3-2.08-3.23-4-4.36-5.93s-2.84-3.41-4.21-5.14c-1.53-1.94-1-3.59,1-4.91.3.06.44,0,.3-.34.09-.22.18-.44.26-.66,1-.27,1.56-.75.73-1.77a1.82,1.82,0,0,1,1.67-1.23c1.56.1,1.74-1.38,2.49-2.21A2.1,2.1,0,0,0,75,55.21c.68-2.23,2.44-2.52,4.38-1.48,2.58,1.39,4.74,3.86,8.18,3.33A6.59,6.59,0,0,0,89.33,56.32Z"></path><path class="cls-1" d="M43.8,182.59c6.38,2.28,12.71,4.76,19.18,6.77a139.11,139.11,0,0,0,15.73,3.34c6,1.13,12,3,18.09,3.16,4.06.11,8,1.55,12.16.8,2.31-.42,4.84.42,7.22.8,12.33,1.95,24.68.59,37,.3,8.83-.2,17.69-1.15,26.52-1.7,11.72-.74,23.12-3,34.62-4.93,5.72-1,11.32-2.31,17-3.52,3.24-.69,4.07-3.2,5.34-5.38a63.14,63.14,0,0,0,7.13-20.64c.52-2.81.07-3.31-2.77-3.18-5.79.26-10.91,3.17-16.51,4.14-2.46.42-4.65,2.63-7.5,1.09-.46-.24-1.58,1-2.48,1.27-2.25.61-4.55,1.1-6.85,1.52-6.11,1.11-12.21,2.3-18.35,3.18a141.27,141.27,0,0,1-16.13,1.65c-7,.19-14,2-21,1.08-4.72-.6-9.4.57-14,.11-12.65-1.26-25.46-.35-38-3.3-6.1-1.44-12.43-1.74-18.64-2.6a92.76,92.76,0,0,1-21-5.48c-5.68-2.21-11.57-3.57-17.27-5.6-2.26.26-1.89-2.16-3-3a1,1,0,0,1,.33-.66c.9-.48,1.24.76,2,.71,1.94-.24,3.61.7,5.38,1.22,6.66,2,13.46,3.56,19.9,6.1,4.35,1.71,8.85,2.32,13.28,3.23,6.94,1.43,14,2.12,21,3.17a280.7,280.7,0,0,0,28.24,2.51c8.15.38,16.28-.05,24.4.35,5.19.26,10.33-.45,15.49-.67s10.22-1.24,15.34-1.66c8.09-.67,15.95-2.64,23.91-4,7.16-1.22,14.11-3.62,21.2-5.29a40.53,40.53,0,0,1,6.68-1.38c6.23-.41,7.26-1.94,6.89-7.41.9-1,2.27-.88,3.68-1.67-.63,3.45,1,6.43-.38,9.85-.91,2.28-.59,5.44-.37,8.06.54,6.34-1.43,12.59-.13,18.95.68,3.33-.64,4.68-4.15,5.86-4.87,1.63-9.72,3.33-14.64,4.82-2.24.68-4.36,1.94-6.72,2.45.42-2.3,3.26-2.23,4.6-5-4.85,2.06-9.42,1.76-13.71,2.81a136,136,0,0,1-18.29,3.35c-6.34.65-12.65,2.23-19.11,1.57a5.3,5.3,0,0,0-1.43.27c-6.52,1.29-13.19.88-19.75,1.08-4,.12-8.13.19-12.16.4-7.14.38-14.24-.11-21.35-.23-5.44-.09-10.86-1.19-16.31-1.47A133.26,133.26,0,0,1,82.8,197c-5.11-1.12-10.44-1.44-15.35-3.3-5.1-1.93-11.2-1.33-15.27-5.93a.86.86,0,0,0-.78-.25c-2.66,1.21-4.66-.85-7-1.36C43.15,185.16,41.48,184.23,43.8,182.59Z"></path><path class="cls-5" d="M149.33,159.71c-9.09-.64-17.7-.65-26.25-1.9-2.16-.32-4.44.09-6.67-.17-1.59-.18-2.39-1-2.29-2.48.25-4.29.58-8.58.92-12.86,0-.61,3.21-2.92,3.91-2.83,5.42.68,10.84.31,16.26.07,7.86-.36,15.7-.62,23.5-2.09a45.58,45.58,0,0,1,18.46.27c.78.17,1.3.56,1.24,1.37-.32,4,.92,7.82,1.11,11.74.1,2,.5,4.17-.62,6-1.31,2.17-3.51.69-5.27,1C165.42,159.12,157.11,159.2,149.33,159.71Z"></path><path class="cls-5" d="M173.26,116.17l.72-3.56c.5-2.36,1.36-4.12,4.38-3.83a41.1,41.1,0,0,0,9.72-.21c4.24-.62,14,4.66,16,8.48a6.33,6.33,0,0,1-1.52,7.18c-3.32,2.74-7.44,3.54-11.41,3.68-5.39.19-10.8.68-16.19.39-4.7-.25-9.47-.48-14,.3-2.23.38-5.16-2.07-7,1.22-.17.32-1.23-1.36-2.64-.95-4.3,1.27-8.84,1.16-13.23,1.47-6.69.46-13.47,1.26-20.18.37-6-.79-12-1.31-17.9-2.3a13.86,13.86,0,0,1-9.78-6.09c-1.88-2.63-1.56-3.95,1-5.9,5.68-4.41,12.59-5,19.17-6.71a1.67,1.67,0,0,1,2.25,1.25c.13.47.25,1,.42,1.41,1.38,3.78,1.37,3.74-2.53,4.2-1.49.18-3.2.39-3.92,1.84-.37.76-.51,2.38.37,2.86,1.57.87,3.1,1.84,5.14,1.86a40.5,40.5,0,0,1,9.45.69c2.91.69,6.36.26,9.52.16,5.45-.18,10.9-.37,16.36-.5,8.26-.21,16.53-.3,24.76-.89,3.37-.25,6.71-1.51,9.93-2.65,1.32-.47,3.14-1.73,2.5-3.39-.56-1.45-2.3-2-4.15-1.49C178.21,115.69,175.82,115.13,173.26,116.17Z"></path><path class="cls-5" d="M244.36,148.66c.37,5.47-.66,7-6.89,7.41a40.53,40.53,0,0,0-6.68,1.38c-7.09,1.67-14,4.07-21.2,5.29-8,1.36-15.82,3.33-23.91,4-5.12.42-10.21,1.45-15.34,1.66s-10.3.93-15.49.67c-8.12-.4-16.25,0-24.4-.35a280.7,280.7,0,0,1-28.24-2.51c-7-1.05-14.1-1.74-21-3.17-4.43-.91-8.93-1.52-13.28-3.23-6.44-2.54-13.24-4.13-19.9-6.1-1.77-.52-3.44-1.46-5.38-1.22v-5.41c7.6,2.56,14.86,5.1,22.17,7.43A95.31,95.31,0,0,0,79,158.21c7,1.09,13.92,2.75,21,3.55,4.11.47,8.23.1,12.36.62,5.66.73,11.39,1.4,17,1.67a270,270,0,0,0,27.88,0c3.42-.19,6.78-.68,10.17-.94,5.26-.4,10.52-1.17,15.79-1.17a112.42,112.42,0,0,0,15.89-1.34c3.11-.44,6.19-1.13,9.28-1.71,1.66,1.23,3.3,3.06,5.54,1.65a12.41,12.41,0,0,0,4-3.25C226.69,154.26,235.34,150.9,244.36,148.66Z"></path><path class="cls-5" d="M39.25,139.56c0,4.13-1,8.26.5,12.41.43,1.15-1.17,2.46-1,4.2.57,5.45.69,11,1,16.43.08,1.24-.17,1.73-1.62,1.93-7.35,1-14.65,2.44-22,3.12-2.34.22-4.87-.17-7.33,0a2.09,2.09,0,0,1-1.73-1.25c-.62-1.12.31-1.22.62-1.8,3-5.61,7.27-10.17,11.45-14.84,1.95-2.17,1.29-3.72-1-5.61-4.59-3.83-9.25-7.68-12-13.17-1.48-2.92-.24-5,3-5A112.3,112.3,0,0,0,32.9,134a100.79,100.79,0,0,1,10.38-1.17c.82-.08,2-.13,2.35.91s-.57,1.42-1.41,1.87-1.47,1.28-2.57,1.08a17.53,17.53,0,0,0-4.39.27c-8.07,2-16.33,2.7-24.6,3.24-2.59.17-3.23,1.06-1.4,2.9,3.24,3.26,5.67,7.25,9.28,10.14,3.78,3,4.19,3.31,1.09,6.94-3,3.46-4.09,8.31-8.33,10.71-.85.48-.77,1.32-.6,2.09s1,.78,1.65.84c3.06.31,6-.39,9.07-.66,4.82-.44,9.18-2.92,14-3.46,1-.11,1.13-.91,1.07-1.76a1.18,1.18,0,0,0-1.62-1.19c-1.19.34-2.43.34-3.65.68-4.47,1.21-8.95,2.56-13.62,2.81-.42-2.28,1.55-3.48,1.85-5.29h0A5.08,5.08,0,0,0,23.22,163a28.15,28.15,0,0,1,3.71-4.73c.53-.5,2.11,0,1.61-1.56-.29-.92-.24-1.86-1.38-2.63-3.71-2.54-7.45-5.16-10.08-8.94-.76-1.1-1.1-2,1-2.14A99.17,99.17,0,0,0,39.25,139.56Z"></path><path class="cls-5" d="M44.43,186.17c2.31.51,4.31,2.57,7,1.36a.86.86,0,0,1,.78.25c4.07,4.6,10.17,4,15.27,5.93,4.91,1.86,10.24,2.18,15.35,3.3a133.26,133.26,0,0,0,21.34,2.76c5.45.28,10.87,1.38,16.31,1.47,7.11.12,14.21.61,21.35.23,4-.21,8.15-.28,12.16-.4,6.56-.2,13.23.21,19.75-1.08a5.3,5.3,0,0,1,1.43-.27c6.46.66,12.77-.92,19.11-1.57a136,136,0,0,0,18.29-3.35c4.29-1.05,8.86-.75,13.71-2.81-1.34,2.76-4.18,2.69-4.6,5h0c-1.08-.27-2.15-.52-2.63.91l-.75.09a1.55,1.55,0,0,0-1.54.44l-1.37.2c-1,0-1.93-.31-2.75.45-5,1.11-10,2-15,3-9.64,1.92-19.47,1.18-29.18,2.7a96.72,96.72,0,0,1-22.52.58c-4.18-.33-8.43,0-12.66,0a142.5,142.5,0,0,1-14.34-1c-4.72-.52-9.44-1-14.16-1-7.55-.06-14.8-1.84-22.15-3.12-3.24-.57-6.48-1.14-9.69-1.83-4.14-.88-7.89-2.88-11.86-4.23-4.57-1.55-9.23-2.86-13.75-4.54C45.92,189.09,43.12,189.13,44.43,186.17Z"></path><path class="cls-1" d="M260.42,175.49c-2.12-.21-4.27-.53-6.36-.63-3.2-.15-3.6-1.87-3.11-4.24a59.23,59.23,0,0,0,.87-15.11c-.26-4.87.6-9.71-.08-14.5a6.32,6.32,0,0,0-3.07-4.35c-.3-.19-.94-.06-1.08-.29-.65-1.1-3.15-.88-2.42-2.69.55-1.36,2.22-.71,3.51-.69a33.43,33.43,0,0,1,9.44,1.33c.51,1.05,1,2.11,1.54,3.14.19.33-.08.84,1,.77,4.57-.29,9,1.47,13.6,1.32,1.74-.05,1.44,1,.81,1.89-.94,1.31-2.66,2.18-3.43,3.23-2.63,3.6-6.07,6.3-9.13,9.39-1,1-.94,1.54-.2,2.44s1.31,1.7,2,2.55a78.16,78.16,0,0,1,8.33,13.7c.75,1.56.43,2.3-1.5,2.22a59.77,59.77,0,0,1-8.12-1.08C261.7,173.66,260.28,173.38,260.42,175.49Zm10-32.68c-3.06-.73-5.66-1.38-8.28-2-1.27-.29-2,.32-1.61,1.58.71,2.31.35,4.65.49,7,0,.52-.3,1.29.5,1.45a1.5,1.5,0,0,0,1.51-.74C264.87,147.29,267.48,145.25,270.44,142.81Zm-9.33,17.62c-.29,2.87.15,5.42-.61,7.9-.22.73-.14,1.67.93,1.82a31.11,31.11,0,0,1,4.79.75c1.21.36,1.69-1.25.94-2.29C265.25,166,264.15,162.73,261.11,160.43Z"></path><path class="cls-6" d="M153,71.14c.59-.64,1.18-1.12,2.16-.67a51.29,51.29,0,0,0,22,4.38,53.92,53.92,0,0,0-7.86,7.58,21.68,21.68,0,0,0-2.91-5.32c-1.49-1.71-3.61-2-4.87-.39-3.21,4-7.65,7.08-9.86,11.93-1.22,2.68-3.27,5.27-3,8.24.21,2.19-.92,4-.76,6.06.12,1.63-1.36,2.75-2.86,3a21.44,21.44,0,0,1-8.21-.33c-.77-.16-.75-.63-.78-1.46-.09-1.86-.09-4.45-1.23-5.38-2-1.6-1.14-3.09-1.39-4.85a4.32,4.32,0,0,1,1.46-4.22c4.54-4.6,9-9.26,13.54-13.89.44-.13.92-.23.74-.88l0,0C152.11,74.75,153.59,73.29,153,71.14Zm-15,24c.68.92,1.94.67,2.48,1.61.36.65,1.22,2.13,1.63.85s3.64-2,1.16-3.86c-.67-.51-1.33-2.36-2.46-.94C140,93.85,138.75,94.15,138,95.19Z"></path><path class="cls-6" d="M188.38,100.58c-2.61,4.86-7.13,4.88-11.79,4.75-1.27,0-1.07-.69-1.17-1.44-.26-2,.8-4.31-1.36-5.87.93-1,.72-2.42,1.71-3.4,7.54-7.43,14.95-15,22.59-22.32,2.17-2.08,5.13-3.21,8.1-4.64a7.5,7.5,0,0,1-1.9,5.33c-3.19,3.38-3.16,8-5.2,11.81-.13.24-.22.75-.12.82,2.18,1.42-.11,3.21-.43,3.54-2.61,2.71-4.68,6-8,8-.06-1.24-1.12-1.82-1.84-2.51-1.85-1.78-2.18,1-3.36,1.31-.89.26-1,1.1-.31,1.52C186.65,98.29,186.93,100,188.38,100.58Z"></path><path class="cls-5" d="M152.25,102.89c-.44-3-.77-6.49.06-7.62,1.89-2.55,2.17-5.92,4.73-8,1.72-1.44,2.94-3.49,4.44-5.22s3-1.3,3.85.6c1.31,2.77,3.56,5.17,4.58,7.75a39.57,39.57,0,0,1,1.58,7.1c.69,4.17.18,8.44-.08,12.43-.19,2.83-1.75,6.39-3.23,9.41-.66,1.34-2.14,1-3.18.68-1.32-.37-.83-1.58-.5-2.46a41.35,41.35,0,0,0,1.84-7c.1-.47.36-1,.23-1.41-1.43-4.51-.06-9.25-1.19-13.77-.46-1.82-1.67-3.36-3.55-3.41-1.43,0-1.81,1.77-2.29,2.95a18.29,18.29,0,0,0-1.09,8.33c.34,4.07.35,8.13.57,12.19,0,.57-.08,1.28.21,1.69.74,1,1.87,2.24.05,2.88-1.31.46-3.29.8-3.65-1.74C154.87,112.82,151.42,108,152.25,102.89Z"></path><path class="cls-6" d="M101.16,132.57a13.79,13.79,0,0,1-.65-1.59c-.26-1.12.74-1.22,1.36-1.35,1.24-.24,1,.76.72,1.29-.9,1.81.13,2,1.53,2.06,1.25.08,2.57.7,3.7.42,3.11-.77,3,1.24,3.28,3.22.82,5.75-3.67,8.24-6.94,11.49-.42.41-.83.1-1.3,0-3.48-.43-6.78-1.92-10.56-.86-1,.29-4,.77-5.42-1.44-.36-.58-1.55-.65-2.37-.91-1.2-.38-3.16.1-3.35-1.48-.23-1.95-.92-4.13,1.35-5.85a97.45,97.45,0,0,0,7.85-7.1,1.89,1.89,0,0,1,2.47-.39A82.2,82.2,0,0,0,101.16,132.57Z"></path><path class="cls-5" d="M131,119.78c-3.73.53-3.74.53-4-3.18a27.91,27.91,0,0,1,.48-5.91c.71-4.59-1.06-9-1.31-13.54-.11-1.82-.93-5.14-4.35-5.4-1.48-.11-1.9.49-1.92,1.8a139.34,139.34,0,0,0,1.94,22.71c.1.71.79,1.33,1,2s1.41,1.43,0,1.85c-.75.24-1.67,1.09-2.62,0a8.71,8.71,0,0,1-1.7-3c-1.57-4.31-3.28-8.62-4-13.15a28.25,28.25,0,0,1,4.73-21.13c.93-1.33,1.8-2.71,2.6-3.92C131.38,91.17,133.69,104.93,131,119.78Z"></path><path class="cls-1" d="M39.25,139.56A99.17,99.17,0,0,1,18.09,143c-2.11.1-1.77,1-1,2.14,2.63,3.78,6.37,6.4,10.08,8.94,1.14.77,1.09,1.71,1.38,2.63.5,1.55-1.08,1.06-1.61,1.56A28.15,28.15,0,0,0,23.22,163a5.08,5.08,0,0,1-1.77,1.88.93.93,0,0,0-.09-.2s-.1,0-.15,0l.25.23c-.3,1.81-2.27,3-1.85,5.29,4.67-.25,9.15-1.6,13.62-2.81,1.22-.34,2.46-.34,3.65-.68a1.18,1.18,0,0,1,1.62,1.19c.06.85,0,1.65-1.07,1.76-4.83.54-9.19,3-14,3.46-3,.27-6,1-9.07.66-.68-.06-1.46.05-1.65-.84s-.25-1.61.6-2.09c4.24-2.4,5.37-7.25,8.33-10.71,3.1-3.63,2.69-3.91-1.09-6.94-3.61-2.89-6-6.88-9.28-10.14-1.83-1.84-1.19-2.73,1.4-2.9,8.27-.54,16.53-1.25,24.6-3.24a17.53,17.53,0,0,1,4.39-.27C40.68,137.48,40.49,139,39.25,139.56Z"></path><path class="cls-5" d="M260.42,175.49c-.14-2.11,1.28-1.83,2.56-1.6A59.77,59.77,0,0,0,271.1,175c1.93.08,2.25-.66,1.5-2.22a78.16,78.16,0,0,0-8.33-13.7c-.66-.85-1.29-1.72-2-2.55s-.76-1.47.2-2.44c3.06-3.09,6.5-5.79,9.13-9.39.77-1,2.49-1.92,3.43-3.23.63-.9.93-1.94-.81-1.89-4.6.15-9-1.61-13.6-1.32-1.07.07-.8-.44-1-.77-.55-1-1-2.09-1.54-3.14,4.19.5,8.37,1.23,12.57,1.42,2.66.13,5.21,1.3,8.05.39,1.78-.57,1.9,1.09,1.54,2.5-.83,3.27-3.31,5.48-5.39,7.84a62.31,62.31,0,0,1-7.71,7.52c-.76.61-1.26,1.47.08,3.08,1.47,1.77,3.61,2.85,4.78,5,1.34,2.42,3,4.65,4.27,7.16a23.15,23.15,0,0,0,2.69,4.07c1.64,2,.05,2.26-1,2.85-4.6,2.56-9.35.58-14,.22C262.86,176.25,261.38,176.65,260.42,175.49Z"></path><path class="cls-5" d="M152,116c-5.65,1-11.07-.63-16.34.11-.54-1.07.12-1.6.25-2.24.31-1.43-.55-3.66.69-4.14,1.61-.63,3.72-.19,5.58.08a12.64,12.64,0,0,0,2.29.14c2.83-.1,5.51-.09,5.94,3.75C150.45,114.43,151.3,115.08,152,116Z"></path><path class="cls-6" d="M216.61,148.93c2.18.15,3.35-1.77,5-2.61a6.67,6.67,0,0,1,3.2-.92,1.64,1.64,0,0,1,.1.49c-1.08,1.09-.24,2.47-.57,3.68-.22,2.5-2.24,3-4.1,3.66a1.6,1.6,0,0,0-1.42.39l-2.12.22-.81.37c-2.32-.39.48-1.57-.33-2.19.32-.11.58-.26.46-.67l.12-2.31A.71.71,0,0,1,216.61,148.93Z"></path><path class="cls-5" d="M106.41,89.76c-2.28,1.56-4.63,1.71-4.84,4.37-.09,1.07-1.36.56-1.4,0-.16-2.11-1.44-2.72-3.23-3-.76-.11-.65-.78-.61-1.39s-.06-1.36,1-1.47a3.52,3.52,0,0,0,3.26-3.19c.12-.63.47-1.18,1.14-1.1.86.09.55.89.59,1.41C102.48,87.6,103.3,89.32,106.41,89.76Z"></path><path class="cls-5" d="M51,144.24c2.46.56,3.82-1.46,5.59-2.46.65-.37,1.1-1.1,2-1.07.28,1.8.55,3.59.86,5.38s.43,3.28-2.19,2.32c-1.73-.63-3.52-1.1-5.24-1.75C50.94,146.24,50.81,145.28,51,144.24Z"></path><path class="cls-5" d="M180.15,80.45A6.65,6.65,0,0,0,183,84c.67.5-.3,1.38-1,1.71-1.51.69-.7,3-1.86,3.31-1.84.55-.51-2.4-2.2-2.57a6.64,6.64,0,0,1-1.87-.66c-.85-.36-1-1.28-.24-1.47,1.91-.45,3.22-1.21,3.38-3.33C179.22,80.85,179.66,80.73,180.15,80.45Z"></path><path class="cls-5" d="M132.7,77.87c.89-1.78,3.39-1.48,3.58-3.64.05-.47,1.1-.53,1.32.2a3.08,3.08,0,0,0,1.64,1.94c1.42.71.84.86.07,2-1.91,2.72-3.26,3.07-5.07.12C134.05,78.15,133.39,78.12,132.7,77.87Z"></path><path class="cls-5" d="M188.38,100.58c-1.45-.58-1.73-2.29-3-3.08-.7-.42-.58-1.26.31-1.52,1.18-.35,1.51-3.09,3.36-1.31.72.69,1.78,1.27,1.84,2.51C190.52,98.67,189.24,99.47,188.38,100.58Z"></path><path class="cls-1" d="M218,157.34a12.41,12.41,0,0,1-4,3.25c-2.24,1.41-3.88-.42-5.54-1.65,1.05-1.07,2.51-.12,3.65-.76.38.23.47-.09.6-.33C214.52,158.68,216.13,156.85,218,157.34Z"></path><path class="cls-5" d="M102.29,107c-3.11-1.41-2.93-3.2-1.1-5.15.66-.71,1,.08,1.53.41C105.64,104.22,103,105.48,102.29,107Z"></path><path class="cls-5" d="M240.82,145.4c-2.66-1.09-5.35.46-8.27-.11a5.64,5.64,0,0,1,3.23-1c4.49-.18,4.49-.19,4.67-4.79C241.51,141.41,240.77,143.43,240.82,145.4Z"></path><path class="cls-5" d="M153,71.14c.59,2.15-.89,3.61-3.81,3.76Z"></path><path class="cls-2" d="M211.88,90c-1.31-1.59-.25-3.1.16-4.63C212.32,86.89,214,88.5,211.88,90Z"></path><path class="cls-2" d="M222.64,103.23l1.2,2.1c-1.21-.37-3,1-3.56-.51C219.85,103.58,222.57,104.93,222.64,103.23Z"></path><path class="cls-2" d="M72.9,49.33A2.77,2.77,0,0,1,75.16,47C76.22,49.56,73.78,48.68,72.9,49.33Z"></path><path class="cls-2" d="M74.12,56.46c-.75.83-.93,2.31-2.49,2.21C71.47,56.82,72.45,56.26,74.12,56.46Z"></path><path class="cls-2" d="M230.33,138.37a2.71,2.71,0,0,1,.39,2.37,2.2,2.2,0,0,1-1.72-1.63C228.88,138.53,229.76,138.43,230.33,138.37Z"></path><path class="cls-2" d="M227.51,114.15a2,2,0,0,1,.72,2.35c-.78-.86-1.39-1.92-2.67-2.24Z"></path><path class="cls-2" d="M218,79.35c.88,1.51-.4,2.19-1.17,3.07C216.47,81.13,217.41,80.32,218,79.35Z"></path><path class="cls-2" d="M230.23,132.46a17,17,0,0,1,0,4.72A5.08,5.08,0,0,1,230.23,132.46Z"></path><path class="cls-2" d="M219.1,97.19l1.78,2.84C218.52,100.18,219.2,98.45,219.1,97.19Z"></path><path class="cls-2" d="M218.39,72.22c-1-1.72.87-1.92,1.51-2.77C221,71.23,219.5,71.63,218.39,72.22Z"></path><path class="cls-2" d="M228.55,118.92a4.79,4.79,0,0,1,1,2.93A3.7,3.7,0,0,1,228.55,118.92Z"></path><path class="cls-1" d="M219,197.88c.48-1.43,1.55-1.18,2.63-.91A2.44,2.44,0,0,1,219,197.88Z"></path><path class="cls-2" d="M70,59.9c.83,1,.31,1.5-.73,1.77C69.25,61,69.19,60.27,70,59.9Z"></path><path class="cls-2" d="M218,95.85c.78.06.87.7,1,1.26-.51-.1-1.12.64-1.49,0C217.37,96.85,217.79,96.28,218,95.85Z"></path><path class="cls-2" d="M224.38,149.57c.33-1.21-.51-2.59.57-3.68C224.83,147.12,225.54,148.49,224.38,149.57Z"></path><path class="cls-2" d="M220.22,77c.05.83.05,1.63-1.12,1.64C219.09,77.87,219.13,77.1,220.22,77Z"></path><path class="cls-2" d="M220.89,100.05c.84.49,1.25,1,0,1.37C220.86,101,220.88,100.51,220.89,100.05Z"></path><path class="cls-2" d="M230.7,141.9c-.06.42.16.91-.33,1.21C229.48,142.44,229.86,142.11,230.7,141.9Z"></path><path class="cls-2" d="M216.61,148.93a.71.71,0,0,0-.43.11c0-.83-.29-1.72.47-2.4C216.64,147.4,216.62,148.16,216.61,148.93Z"></path><path class="cls-2" d="M217.91,58.67c-.64.4-.84-.1-1.08-.53C217.44,57.8,218,57.61,217.91,58.67Z"></path><path class="cls-2" d="M225.17,135.43c-.34-.91.09-1.29,1-1.37C226.2,134.79,226.06,135.37,225.17,135.43Z"></path><path class="cls-1" d="M212.58,199.06c.82-.76,1.8-.48,2.75-.45A2.7,2.7,0,0,1,212.58,199.06Z"></path><path class="cls-2" d="M69.86,54c-.44-.75.17-.75.61-.87Z"></path><path class="cls-2" d="M216.75,83.55c.91.57,0,1.12,0,1.68C216.74,84.67,216.75,84.11,216.75,83.55Z"></path><path class="cls-2" d="M228.49,118.32l.06.59-1,.09C227.56,118.33,228.09,118.4,228.49,118.32Z"></path><path class="cls-2" d="M71.67,51.1c0-.74.68-.82,1.13-1.12Z"></path><path class="cls-2" d="M225.6,125.4c-.27.39-.6.75-1,.27s0-.75.42-.92Z"></path><path class="cls-2" d="M216.75,103c-.55-.25-.26-.76-.34-1.15C216.52,102.23,216.63,102.62,216.75,103Z"></path><path class="cls-2" d="M227.38,148.41l-.64.43-.14-.21.76-.24Z"></path><path class="cls-5" d="M149.17,75c.18.65-.3.75-.74.88Z"></path><path class="cls-1" d="M216.7,198.41a1.55,1.55,0,0,1,1.54-.44C217.88,198.66,217.29,198.54,216.7,198.41Z"></path><path class="cls-2" d="M216.51,88.88c0,.37.09.75.13,1.12C216.12,89.68,216.07,89.3,216.51,88.88Z"></path><path class="cls-2" d="M223.26,57.82l.5.12-.3.14A.32.32,0,0,1,223.26,57.82Z"></path><path class="cls-2" d="M225.26,138.71l-.08-1.5A1.07,1.07,0,0,1,225.26,138.71Z"></path><path class="cls-2" d="M70.9,52.23c.06-.48.12-1,.72-1.09C71.59,51.65,71.45,52.08,70.9,52.23Z"></path><path class="cls-2" d="M211.41,92.46c-.7-.45-.45-.9,0-1.35Z"></path><path class="cls-2" d="M218.86,153.62a1.6,1.6,0,0,1,1.42-.39A1.35,1.35,0,0,1,218.86,153.62Z"></path><path class="cls-2" d="M212.57,95.46c-.43-.36-.26-.82-.22-1.25C212.42,94.62,212.49,95,212.57,95.46Z"></path><path class="cls-2" d="M218,105.22l-.42-.44Z"></path><path class="cls-2" d="M221.49,102.39l.55.6Z"></path><path class="cls-2" d="M221.45,55.47l.2.18-.19.06Z"></path><path class="cls-2" d="M225.15,142.49a.56.56,0,0,1,.36-.81Z"></path><path class="cls-2" d="M226.25,139.79l-.63-.23a1.88,1.88,0,0,1,.53-.07l.11.11Z"></path><path class="cls-2" d="M219.72,54.59l.56.2C220,55.07,219.81,54.92,219.72,54.59Z"></path><path class="cls-2" d="M230.21,145.46a.57.57,0,0,1-.42.71Z"></path><path class="cls-2" d="M213.21,97.67c-.26-.09-.53-.19-.39-.56Z"></path><path class="cls-2" d="M218.51,106l-.48-.64Z"></path><path class="cls-2" d="M69.26,54.79l.56-.21C69.73,54.91,69.58,55.07,69.26,54.79Z"></path><path class="cls-2" d="M227.36,148.39l.15-.25c0,.09-.08.18-.13.27Z"></path><path class="cls-2" d="M200.8,54l.59-.36Z"></path><path class="cls-2" d="M216.06,151.35c.12.41-.14.56-.46.67Z"></path><path class="cls-2" d="M226.15,139.49l.31-.21-.2.32Z"></path><path class="cls-2" d="M215.93,154.21l.81-.37Z"></path><path class="cls-2" d="M212.66,157.85c-.13.24-.22.56-.6.33Z"></path><path class="cls-2" d="M222.71,66.44l.18-.58a2.49,2.49,0,0,1,.05.46C222.94,66.37,222.79,66.4,222.71,66.44Z"></path><path class="cls-2" d="M226.77,62.17c.32.13.59.3.51.71Z"></path><path class="cls-2" d="M69,62.33c.14.31,0,.4-.3.34A.45.45,0,0,1,69,62.33Z"></path><path class="cls-2" d="M220.87,62.67c-.3.06-.44,0-.3-.34A.47.47,0,0,1,220.87,62.67Z"></path><path class="cls-2" d="M222,75.21l-.27.07-.27,0,.51-.64.06.06A2.45,2.45,0,0,0,222,75.21Z"></path><path class="cls-2" d="M226,62.24v.07l-.34-.34Z"></path><path class="cls-2" d="M223.24,117.13l-.33-.55Z"></path><path class="cls-2" d="M214.55,76.45c-.1-.38,0-.52.42-.44Z"></path><path class="cls-2" d="M75.2,47c.16-.61.35-.46.54,0A3.21,3.21,0,0,1,75.2,47Z"></path><path class="cls-2" d="M225,59.55c.51-.26.33.17.37.38A.56.56,0,0,1,225,59.55Z"></path><path class="cls-4" d="M222,75.21a2.45,2.45,0,0,1,0-.54l.71-.23C222.55,74.74,223,75.69,222,75.21Z"></path><path class="cls-5" d="M270.44,142.81c-3,2.44-5.57,4.48-7.39,7.3a1.5,1.5,0,0,1-1.51.74c-.8-.16-.47-.93-.5-1.45-.14-2.32.22-4.66-.49-7-.39-1.26.34-1.87,1.61-1.58C264.78,141.43,267.38,142.08,270.44,142.81Z"></path><path class="cls-5" d="M261.11,160.43c3,2.3,4.14,5.54,6.05,8.18.75,1,.27,2.65-.94,2.29a31.11,31.11,0,0,0-4.79-.75c-1.07-.15-1.15-1.09-.93-1.82C261.26,165.85,260.82,163.3,261.11,160.43Z"></path><path class="cls-5" d="M138,95.19c.74-1,2-1.34,2.81-2.34,1.13-1.42,1.79.43,2.46.94,2.48,1.91-.77,2.61-1.16,3.86s-1.27-.2-1.63-.85C140,95.86,138.69,96.11,138,95.19Z"></path><path class="cls-5" d="M21.46,164.91l-.25-.23c.05,0,.12,0,.15,0a.93.93,0,0,1,.09.2Z"></path></g></g><g><path class="cls-7" d="M126.93,185.64c0,1,.06,2,0,3a3.74,3.74,0,0,1-2.54,3.43,4.08,4.08,0,0,1-4.32-1.35c-.34-.42-.51-.71,0-1.18s.71-.18,1,.17a2.6,2.6,0,0,0,2.81.85,2.22,2.22,0,0,0,1.6-1.77c.06-.26.21-.56,0-.79s-.51,0-.74.13a3.72,3.72,0,0,1-5.22-3.31c-.07-2.56,2.55-4.06,5.07-2.91.39.18.64.52,1.19,0,.38-.37,1.24-.33,1.17.75s0,2,0,3Zm-3.55,1.59a2.28,2.28,0,0,0,2.26-2.18,2.47,2.47,0,0,0-2.49-2.38,2.16,2.16,0,0,0-2.24,2.15A2.51,2.51,0,0,0,123.38,187.23Z"></path><path class="cls-7" d="M86.75,180.67a5.06,5.06,0,0,1,3.57-4.86,5.72,5.72,0,0,1,5.78,3c.11.23.38.53-.07.68s-.7.51-1.08.1c-.19-.2-.31-.46-.49-.67a3.88,3.88,0,0,0-4-1.32,3.53,3.53,0,0,0-2.23,3,3.83,3.83,0,0,0,2.24,3.64,3.32,3.32,0,0,0,4.25-.69c.57-.63.93-.12,1.32.13.61.39,0,.68-.18.91a4,4,0,0,1-2,1.31A5.73,5.73,0,0,1,86.75,180.67Z"></path><path class="cls-7" d="M104.56,183.78c0,.83,0,1.67,0,2.51,0,.29.18.72-.27.8s-.93.19-1-.29c-.17-.74-.47-.36-.81-.21a3.85,3.85,0,0,1-5.23-2.51,3.14,3.14,0,0,1,1-3.47,3.58,3.58,0,0,1,4-.19c.34.18.61.82,1.11,0,.31-.49,1.21.05,1.22.74,0,.87,0,1.75,0,2.63Zm-1.42-.17a2.59,2.59,0,0,0-2.67-2.49,2.13,2.13,0,0,0-2.1,2A2.7,2.7,0,0,0,101,185.7,2,2,0,0,0,103.14,183.61Z"></path><path class="cls-7" d="M116.84,185l-3.35-.21c-.61-.05-.67.21-.44.72a2.66,2.66,0,0,0,3.7,1.06c.5-.29.93-.55,1.25.09s-.31.74-.63.94a3.94,3.94,0,0,1-5.27-1.31,3.29,3.29,0,0,1,.67-4.59,3.93,3.93,0,0,1,5.92,2.08c.24.92.12,1.47-1,1.26a4.7,4.7,0,0,0-.84,0Zm.67-1c-1.12-2-3.19-2.38-4.24-1-.21.27-.65.71.18.77C114.74,183.75,116,183.82,117.51,183.91Z"></path><path class="cls-7" d="M142.63,192.62c-.23,0-.59.07-.54-.28s-.18-1,.49-1.19a2.26,2.26,0,0,0,1.52-1.24,2.23,2.23,0,0,0,.07-2.25c-.76-1.44-1.43-2.93-2.09-4.42-.14-.32-.78-.74-.13-1a1,1,0,0,1,1.37.57c.47,1.13,1,2.25,1.52,3.37.13.26.13.7.56.66s.36-.4.46-.64c.47-1.1.93-2.2,1.36-3.31.18-.45.39-.74.95-.71s.84.05.52.74c-1.22,2.63-2.38,5.3-3.59,7.94A2.91,2.91,0,0,1,142.63,192.62Z"></path><path class="cls-7" d="M180.66,184c0,.79,0,1.59,0,2.39s-.64,1.24-1.28.72c-.46-.36-.69-.16-1,0-1.83.86-3.27.66-4.34-.6a3.35,3.35,0,0,1-.11-4,3.84,3.84,0,0,1,4.37-1.35c.41.14.84.68,1.16-.19.09-.24.66-.21,1-.09s.21.47.22.73c0,.79,0,1.59,0,2.39Zm-3.46-1.93a2.52,2.52,0,0,0-2.6,2.3,2.1,2.1,0,0,0,2.08,2,2.54,2.54,0,0,0,2.66-2.36A2.09,2.09,0,0,0,177.2,182.05Z"></path><path class="cls-7" d="M169,188.17a3.42,3.42,0,0,1-3.59-2.66,3.52,3.52,0,0,1,2.25-3.9c2.23-.83,4.53.29,4.9,2.34.12.69-.06,1-.76,1-1.43,0-2.86.15-4.29.24-.26,0-.61-.07-.72.25s.11.53.28.75a2.53,2.53,0,0,0,3.54.28c.46-.32.85-.53,1.18,0s-.29.74-.57,1A3.62,3.62,0,0,1,169,188.17Zm-.11-4.13c.52,0,1,0,1.54-.09.25,0,.63.13.71-.24s-.21-.48-.41-.67a2.54,2.54,0,0,0-3.26,0c-.28.23-.66.51-.57.85s.6.19.93.21S168.5,184.06,168.85,184Z"></path><path class="cls-7" d="M132.07,188.77a3.73,3.73,0,0,1-3.79-3.79,3.36,3.36,0,0,1,3.51-3.19,3.81,3.81,0,0,1,4,3.57A3.65,3.65,0,0,1,132.07,188.77Zm2.33-3.48A2.41,2.41,0,0,0,132,183a2.13,2.13,0,0,0-2.24,2.14,2.35,2.35,0,0,0,4.69.14Z"></path><path class="cls-7" d="M195,182.5c0,2-2.13,3.82-4.34,3.8a3.24,3.24,0,0,1-3.11-3.17,4.15,4.15,0,0,1,4.08-3.63A3.17,3.17,0,0,1,195,182.5Zm-1.38.15a2,2,0,0,0-2.07-1.87,2.48,2.48,0,0,0-2.58,2.28,1.94,1.94,0,0,0,2,2A2.66,2.66,0,0,0,193.62,182.65Z"></path><path class="cls-7" d="M107.21,183.85a7.53,7.53,0,0,1,0-.95c.09-.75-.09-1.23-1-1.21-.41,0-.77-.07-.76-.66s.46-.54.83-.47c1,.19.85-.47.88-1.08,0-.35-.31-.94.48-.93.63,0,1,.23.89.93-.14.94.21,1.43,1.22,1.35.47,0,.86,0,.81.69s-.5.55-.85.46c-1-.26-1.24.24-1.16,1.13a10.35,10.35,0,0,1,0,1.67c0,1,.38,1.54,1.39,1.5.58,0,.78.22.77.77s-.53.49-.87.51a2.4,2.4,0,0,1-2.68-2.51C107.2,184.65,107.21,184.25,107.21,183.85Z"></path><path class="cls-7" d="M156.51,188.74a3.49,3.49,0,0,1-3.59-3.49,3.59,3.59,0,0,1,3.85-3.4,3.72,3.72,0,0,1,2.12.69c.27.2.91.34.5.84-.28.34-.64.75-1.27.2a2.25,2.25,0,0,0-2.88-.07,2,2,0,0,0-1,2,2.26,2.26,0,0,0,3.75,1.37c.59-.51,1-.45,1.36,0s-.25.74-.55,1A3.38,3.38,0,0,1,156.51,188.74Z"></path><path class="cls-7" d="M186.14,185.45c.18,0,.56-.24.63.37s-.19.7-.63.82c-1.61.45-2.71-.26-2.85-1.89,0-.52,0-1,0-1.56,0-.81.21-1.81-1.23-1.42-.39.1-.4-.3-.44-.56s.07-.62.43-.58c1.23.15,1.27-.6,1.16-1.47-.08-.57.18-.76.73-.8.74-.07.68.44.64.85-.13,1,.3,1.34,1.28,1.1.3-.08.73-.23.8.37s-.16.73-.66.7c-1.15-.07-1.55.47-1.35,1.57a6,6,0,0,1,0,1.2C184.59,185.09,185,185.59,186.14,185.45Z"></path><path class="cls-7" d="M196.19,182.3a19.25,19.25,0,0,0,0-2.28c-.12-.94.63-1.15,1.07-.92.73.41,1.15,0,1.69-.24a1.53,1.53,0,0,1,1.15-.17c.27.12.13.5.13.77,0,.68-.58.37-.91.45a2,2,0,0,0-1.65,1.93c0,.91,0,1.83,0,2.75,0,.66-.3.81-.86.86-.77.06-.57-.48-.58-.88,0-.76,0-1.52,0-2.27Z"></path><path class="cls-7" d="M137,185.4c0-.84.06-1.68,0-2.51s.47-1.1.87-.76c.85.7,1.5,0,2.24,0,.42,0,1-.31,1.05.51s-.4.64-.87.66a1.69,1.69,0,0,0-1.79,1.81c0,1-.06,2,0,3,0,.61-.29.71-.81.72s-.65-.3-.64-.76c0-.88,0-1.75,0-2.63Z"></path><path class="cls-7" d="M160.8,185.16c0-.84,0-1.67,0-2.51,0-.65.38-1.07.8-.75.88.66,1.52-.11,2.26-.12.38,0,.9-.39,1,.41.07.62-.22.69-.74.74a1.82,1.82,0,0,0-1.93,2c-.05.91-.05,1.83,0,2.75,0,.56-.17.77-.74.79s-.59-.36-.59-.78c0-.84,0-1.67,0-2.51Z"></path><path class="cls-8" d="M123.38,187.23a2.51,2.51,0,0,1-2.47-2.41,2.16,2.16,0,0,1,2.24-2.15,2.47,2.47,0,0,1,2.49,2.38A2.28,2.28,0,0,1,123.38,187.23Z"></path><path class="cls-8" d="M103.14,183.61A2,2,0,0,1,101,185.7a2.7,2.7,0,0,1-2.65-2.55,2.13,2.13,0,0,1,2.1-2A2.59,2.59,0,0,1,103.14,183.61Z"></path><path class="cls-8" d="M117.51,183.91c-1.47-.09-2.77-.16-4.06-.26-.83-.06-.39-.5-.18-.77C114.32,181.53,116.39,181.93,117.51,183.91Z"></path><path class="cls-8" d="M177.2,182.05a2.09,2.09,0,0,1,2.14,2,2.54,2.54,0,0,1-2.66,2.36,2.1,2.1,0,0,1-2.08-2A2.52,2.52,0,0,1,177.2,182.05Z"></path><path class="cls-8" d="M168.85,184c-.35,0-.71.07-1.06.06s-.81.26-.93-.21.29-.62.57-.85a2.54,2.54,0,0,1,3.26,0c.2.19.48.39.41.67s-.46.21-.71.24C169.88,184,169.37,184,168.85,184Z"></path><path class="cls-8" d="M134.4,185.29a2.35,2.35,0,0,1-4.69-.14A2.13,2.13,0,0,1,132,183,2.41,2.41,0,0,1,134.4,185.29Z"></path><path class="cls-8" d="M193.62,182.65a2.66,2.66,0,0,1-2.68,2.38,1.94,1.94,0,0,1-2-2,2.48,2.48,0,0,1,2.58-2.28A2,2,0,0,1,193.62,182.65Z"></path></g></svg>