<svg xmlns="http://www.w3.org/2000/svg" id="Layer_1" data-name="Layer 1" viewBox="0 0 181 181"><defs><style>.cls-1{fill:#fff;}.cls-2{fill:#151616;}.cls-3{fill:#d5d3d2;}.cls-4{fill:#1a1a1a;stroke:#231f20;stroke-linecap:round;stroke-linejoin:round;stroke-width:7px;}</style></defs><path class="cls-1" d="M-1.39,183.34q0-89.64,0-179.3c0-1.36.3-1.66,1.66-1.66q88.83.06,177.67,0c1.36,0,1.67.3,1.67,1.66q-.06,88.83,0,177.67c0,1.36-.31,1.67-1.67,1.67Q88.27,183.32-1.39,183.34Zm104.24-145a28.91,28.91,0,0,0,8.42-4.12,49.76,49.76,0,0,1,6.16-3.89,15.85,15.85,0,0,0,4.76-3.52c1-1,2-2,.32-3.35a1.15,1.15,0,0,1-.3-1c.42-1.31-.76-2-1.24-2.82-.9-1.59-1-3.59-2.49-4.92a8.23,8.23,0,0,1-.74-2.07c-.51-1.49-1.93-2.46-2.2-4A2,2,0,0,0,114,7.1c-1-.41-2.26-.78-3.1.21A3.8,3.8,0,0,0,109.8,11c.73,2.67,2.49,5,2.75,7.84a7.67,7.67,0,0,1-4.71-1.08,10.13,10.13,0,0,0-7-1.29,29,29,0,0,1-8.11.17c-1.8-.18-3.57-.74-5.42-.48a30.22,30.22,0,0,1-4.84.34,30.09,30.09,0,0,0-5.7.55c-4.4.77-8.61,2.4-13.08,2.85a2.41,2.41,0,0,0-1.15.46,17.8,17.8,0,0,1-4.92,2.24c-1.2.44-2.66.93-2.44,2.76,0,.48-.3.62-.71.58s-.8.19-.84-.38c-.06-1-.49-.6-1-.39-1.22.45-1.92,1.9-3,2.07-2.15.34-3.15,2.17-4.8,3.13a38.7,38.7,0,0,0-4.25,3.46c-3.51,2.79-6.89,5.44-8.94,9.69-.69,1.44-2.41,2.84-3.71,4.19-2.72,2.8-3.73,6.57-6,9.59-1,1.35-1.07,3.31-1.83,4.63-1.41,2.49-1.52,5.29-2.67,7.76s-1.42,5.2-2.24,7.77c-.38,1.16-.65,2.91,1.37,3.78-2.23.31-2.11,2.06-2.05,3.33.11,2.21-.2,4.37-.21,6.55a61,61,0,0,0,.48,9.53c.41,2.8,1.21,5.53,1.48,8.35.15,1.53,0,3.15.89,4.55a13.06,13.06,0,0,1,1.57,3.95c.26,1,.55,2.41,2.2,2.64.71.11,1.5.9.37,1.82-.79.65-.25,1.34.12,2,1,1.89,2.05,3.8,3.09,5.69a13.68,13.68,0,0,0,2,3.09,11.25,11.25,0,0,1,2.41,3.73c.15.32.24.88.46.93,1.88.42,2.11,2.25,3,3.48.14.18.19.53.35.57,2.41.63,3.59,2.56,4.87,4.44.45.65,1.41.79,1.68-.16.23-.79.93-1,1.25-1.55.61-1.08,2.64-1.91.94-3.5-.75-.69-1.17-1.63-1.94-2.24a32.64,32.64,0,0,1-6.1-6.64c-1.44-2-2.82-4.06-4.27-6.06-.69-.95-.78-2-1.35-3a36.83,36.83,0,0,1-3.24-6.35c-.61-1.73-.49-3.93-2.42-5-.3-.18-.09-.31,0-.38.95-.78.22-1.55-.07-2.25a41,41,0,0,1-1.47-5.17c-.32-1.23.77-2.45-.18-3.44a5.54,5.54,0,0,1-1.11-5.15c.58-1.92-.32-3.49-.1-5.22a8.54,8.54,0,0,0,.31-2.37c-.71-3.51.8-6.8.77-10.23,0-1.75,1.28-3.33,1.37-5,.15-2.79,1.83-4.95,2.55-7.49A17,17,0,0,1,26,59.8c1.5-2.18,2.45-4.63,4-6.79,2.6-3.5,5.35-6.85,8.19-10.13a70.56,70.56,0,0,1,9.44-8.43,55.16,55.16,0,0,1,11.14-6.56c2.5-1.18,4.93-2.68,7.79-3,1-.1,1.65-1.12,2.46-1.32,2.45-.6,5.07-.56,7.45-1.32A14.9,14.9,0,0,1,83,21.67c.17,0,.36.12.49.06a6.77,6.77,0,0,1,6.31,0c.44.24.8.07,1.2,0,1.85-.21,3.67-.91,5.53,0a16.22,16.22,0,0,0,7.12,2.13,6.58,6.58,0,0,1,1.9.39c.85,1.35,2.43.73,3.48,1.4.62.4,1.86-.52,2,.56s-1.17.45-1.75.94c-2.77,2.33-6.35,3.51-9,6.11a1.87,1.87,0,0,0-.76,1.89c.07.49-.67,1.45.68,1.27,0,0,.06.09.06.13a1.13,1.13,0,0,1-.08.24c-.77.93.55,1,.71,1.59.08.3.44-.09.55-.37l.63.23c0,.31.11.63.47.62S102.87,38.58,102.85,38.34Zm16.21,69.42c.18-1.81-.74-2.63-2.2-3.22-1.82-.73-3.56-1.69-5.37-2.48-2.3-1-4.46-2.31-6.74-3.38-2.92-1.35-6.13-2.1-8.79-3.91a34.05,34.05,0,0,0-5.47-2.66c-1.45-.64-2.59-1.43-2.41-2.78.43-3.14-.29-6.28.29-9.39.45-2.45-.89-5,.28-7.42a1.26,1.26,0,0,0-.08-.7,9.71,9.71,0,0,1,0-4.7c.33-1.46-.87-2.62-.51-3.93.64-2.4.31-4.87.21-7.23a57.75,57.75,0,0,1,.25-10.6,23.61,23.61,0,0,0-.32-4.88A12.43,12.43,0,0,1,88,37.3a4.11,4.11,0,0,0-3.66-5c-.92,0-.48,1-1.24.89-1.76-.21-1.45,1.49-2.09,2.35-.5.69,1.06.24.36.88s-.42,1.24-.35,1.93a15.11,15.11,0,0,1,.16,3.52c-.33,2.62-.19,5.24-.36,7.85s.15,5.31.21,8a87.08,87.08,0,0,1,0,8.85c-.19,2.5,0,5-.23,7.48A60,60,0,0,0,80.61,81c.17,3.66.94,7.28-.14,10.92a1,1,0,0,0,0,.53c.72,2.22,1.76,4,4.36,4.57a31,31,0,0,1,4.4,1.68c2.42,1,4.47,2.85,7,3.83a72.63,72.63,0,0,1,7.76,3.84c3.07,1.63,6.34,2.86,9.33,4.7C115.63,112.45,119.35,110.81,119.06,107.76Zm3.59,49.63a23.52,23.52,0,0,1-2.77-4.77c-.31-.79-.74-.77-1.38-.36-3.67,2.34-8.4,2.34-11.81,5.3,0,.05-.31-.12-.44-.22a2.61,2.61,0,0,0-2.31-.08A75.56,75.56,0,0,1,93.07,159c-1.28.11-1.68.54-1.48,1.71s.44,2.56.66,3.84c.09.51.26,1,.9.87,2.43-.47,5,.29,7.36-.8,3.25-1.47,7-1,10.28-2.52,1.66-.76,3.77-.61,5.33-1.5C118.22,159.44,120.43,158.49,122.65,157.39Zm-44.44,4.39c0-.53.06-.83.07-1.13,0-1.3,0-2.23-1.87-2.5a11.93,11.93,0,0,1-3.08-.53c-1.23-.51-2.51-1.46-4.11-1.12s-2.77-1.95-4.52-.73c-.14-1.48-1.53-1-2.24-1.5-2.06-1.43-4.56-2-6.49-3.7-1.13-1-2.37-.46-3.08.94-.53,1-.93,2.16-1.54,3.16s-.32,1.39.7,1.6c2.09.43,3.73,1.89,5.67,2.72a52.2,52.2,0,0,1,6,2.54,1.74,1.74,0,0,0,2.29,0,1.37,1.37,0,0,1,2,.33c1,1.84,2.69,2,4.44,1.94a3.47,3.47,0,0,1,1.52.41,4.17,4.17,0,0,0,3.83-.06C78.86,163.61,78.05,162.42,78.21,161.78Zm50.56-16.1c1.13,1.6,2.75,2.73,3.51,4.56.17.41.89,1.33,1.63.07.25-.41.33-1.18.92-1.33,2.44-.59,3.79-2.69,5.55-4.14s3.14-3.82,4.89-5.56,3.66-3.59,4.69-6c.17-.41.25-.57-.21-.74-1.54-.57-2.6-2-4.19-2.48-.56-.18-1.13-.49-1.35.2-.75,2.4-3.33,3.2-4.46,5.36-1.25,2.41-3.52,4.09-5.43,6A25.84,25.84,0,0,1,128.77,145.68Z"></path><path class="cls-2" d="M100.31,33.28c2.61-2.6,6.19-3.78,9-6.11.58-.49,1.93.19,1.75-.94s-1.4-.16-2-.56c-1-.67-2.63-.05-3.48-1.4a6.58,6.58,0,0,0-1.9-.39,16.22,16.22,0,0,1-7.12-2.13c-1.86-.93-3.68-.23-5.53,0-.4,0-.76.21-1.2,0a6.77,6.77,0,0,0-6.31,0c-.13.06-.32,0-.49-.06a14.9,14.9,0,0,0-6.44.61c-2.38.76-5,.72-7.45,1.32-.81.2-1.43,1.22-2.46,1.32-2.86.29-5.29,1.79-7.79,3a55.16,55.16,0,0,0-11.14,6.56,70.56,70.56,0,0,0-9.44,8.43c-2.84,3.28-5.59,6.63-8.19,10.13-1.6,2.16-2.55,4.61-4,6.79a17,17,0,0,0-1.92,4.84c-.72,2.54-2.4,4.7-2.55,7.49-.09,1.64-1.38,3.22-1.37,5,0,3.43-1.48,6.72-.77,10.23a8.54,8.54,0,0,1-.31,2.37c-.22,1.73.68,3.3.1,5.22a5.54,5.54,0,0,0,1.11,5.15c.95,1-.14,2.21.18,3.44A41,41,0,0,0,22,108.68c.29.7,1,1.47.07,2.25-.09.07-.3.2,0,.38,1.93,1.12,1.81,3.32,2.42,5a36.83,36.83,0,0,0,3.24,6.35c.57,1,.66,2.08,1.35,3,1.45,2,2.83,4,4.27,6.06a32.64,32.64,0,0,0,6.1,6.64c.77.61,1.19,1.55,1.94,2.24,1.7,1.59-.33,2.42-.94,3.5-.32.57-1,.76-1.25,1.55-.27,1-1.23.81-1.68.16-1.28-1.88-2.46-3.81-4.87-4.44-.16,0-.21-.39-.35-.57-.92-1.23-1.15-3.06-3-3.48-.22-.05-.31-.61-.46-.93a11.25,11.25,0,0,0-2.41-3.73,13.68,13.68,0,0,1-2-3.09c-1-1.89-2.05-3.8-3.09-5.69-.37-.67-.91-1.36-.12-2,1.13-.92.34-1.71-.37-1.82-1.65-.23-1.94-1.66-2.2-2.64A13.06,13.06,0,0,0,17,113.54c-.92-1.4-.74-3-.89-4.55-.27-2.82-1.07-5.55-1.48-8.35a61,61,0,0,1-.48-9.53c0-2.18.32-4.34.21-6.55-.06-1.27-.18-3,2.05-3.33-2-.87-1.75-2.62-1.37-3.78.82-2.57,1.08-5.29,2.24-7.77s1.26-5.27,2.67-7.76c.76-1.32.82-3.28,1.83-4.63,2.27-3,3.28-6.79,6-9.59,1.3-1.35,3-2.75,3.71-4.19,2.05-4.25,5.43-6.9,8.94-9.69a38.7,38.7,0,0,1,4.25-3.46c1.65-1,2.65-2.79,4.8-3.13,1.1-.17,1.8-1.62,3-2.07.56-.21,1-.61,1,.39,0,.57.52.35.84.38s.76-.1.71-.58c-.22-1.83,1.24-2.32,2.44-2.76a17.8,17.8,0,0,0,4.92-2.24,2.41,2.41,0,0,1,1.15-.46c4.47-.45,8.68-2.08,13.08-2.85a30.09,30.09,0,0,1,5.7-.55,30.22,30.22,0,0,0,4.84-.34c1.85-.26,3.62.3,5.42.48a29,29,0,0,0,8.11-.17,10.13,10.13,0,0,1,7,1.29,7.67,7.67,0,0,0,4.71,1.08c-.26-2.86-2-5.17-2.75-7.84a3.8,3.8,0,0,1,1.08-3.68c.84-1,2.07-.62,3.1-.21a2,2,0,0,1,1.56,1.61c.27,1.51,1.69,2.48,2.2,4a8.23,8.23,0,0,0,.74,2.07c1.54,1.33,1.59,3.33,2.49,4.92.48.85,1.66,1.51,1.24,2.82a1.15,1.15,0,0,0,.3,1c1.72,1.32.63,2.3-.32,3.35a15.85,15.85,0,0,1-4.76,3.52,49.76,49.76,0,0,0-6.16,3.89,28.91,28.91,0,0,1-8.42,4.12l-.75-.08-.63-.23c.16-1-1-.6-1.26-1.22a1.13,1.13,0,0,0,.08-.24s0-.09-.06-.13c0-.88-.54-1.82.55-2.58C101.31,33.5,100.74,33.28,100.31,33.28Z"></path><path class="cls-2" d="M119.06,107.76c.29,3-3.43,4.69-5.74,3.27-3-1.84-6.26-3.07-9.33-4.7a72.63,72.63,0,0,0-7.76-3.84c-2.5-1-4.55-2.83-7-3.83A31,31,0,0,0,84.86,97c-2.6-.62-3.64-2.35-4.36-4.57a1,1,0,0,1,0-.53c1.08-3.64.31-7.26.14-10.92A60,60,0,0,1,80.84,74c.18-2.49,0-5,.23-7.48a87.08,87.08,0,0,0,0-8.85c-.06-2.65-.39-5.3-.21-8s0-5.23.36-7.85a15.11,15.11,0,0,0-.16-3.52c-.07-.69-.21-1.41.35-1.93s-.86-.19-.36-.88c.64-.86.33-2.56,2.09-2.35.76.09.32-.91,1.24-.89a4.11,4.11,0,0,1,3.66,5,12.43,12.43,0,0,0,.13,3.18,23.61,23.61,0,0,1,.32,4.88A57.75,57.75,0,0,0,88.24,56c.1,2.36.43,4.83-.21,7.23-.36,1.31.84,2.47.51,3.93a9.71,9.71,0,0,0,0,4.7,1.26,1.26,0,0,1,.08.7c-1.17,2.44.17,5-.28,7.42-.58,3.11.14,6.25-.29,9.39-.18,1.35,1,2.14,2.41,2.78A34.05,34.05,0,0,1,96,94.77c2.66,1.81,5.87,2.56,8.79,3.91,2.28,1.07,4.44,2.38,6.74,3.38,1.81.79,3.55,1.75,5.37,2.48C118.32,105.13,119.24,106,119.06,107.76Z"></path><path class="cls-2" d="M122.65,157.39c-2.22,1.1-4.43,2.05-6.53,3.25-1.56.89-3.67.74-5.33,1.5-3.3,1.49-7,1.05-10.28,2.52-2.4,1.09-4.93.33-7.36.8-.64.12-.81-.36-.9-.87-.22-1.28-.45-2.56-.66-3.84s.2-1.6,1.48-1.71a75.56,75.56,0,0,0,10.87-1.78,2.61,2.61,0,0,1,2.31.08c.13.1.39.27.44.22,3.41-3,8.14-3,11.81-5.3.64-.41,1.07-.43,1.38.36A23.52,23.52,0,0,0,122.65,157.39Z"></path><path class="cls-2" d="M78.21,161.78c-.16.64.65,1.83-.38,2.36a4.17,4.17,0,0,1-3.83.06,3.47,3.47,0,0,0-1.52-.41c-1.75,0-3.41-.1-4.44-1.94a1.37,1.37,0,0,0-2-.33,1.74,1.74,0,0,1-2.29,0,52.2,52.2,0,0,0-6-2.54c-1.94-.83-3.58-2.29-5.67-2.72-1-.21-1.3-.61-.7-1.6s1-2.12,1.54-3.16c.71-1.4,2-1.92,3.08-.94,1.93,1.69,4.43,2.27,6.49,3.7.71.5,2.1,0,2.24,1.5,1.75-1.22,3,1,4.52.73s2.88.61,4.11,1.12a11.93,11.93,0,0,0,3.08.53c1.83.27,1.88,1.2,1.87,2.5C78.27,161,78.24,161.25,78.21,161.78ZM57.46,158.5c.11-.06.27-.09.3-.17s-.06-.31-.25-.27a.37.37,0,0,0-.23.21S57.39,158.42,57.46,158.5Z"></path><path class="cls-2" d="M128.77,145.68a25.84,25.84,0,0,0,5.55-4.08c1.91-1.91,4.18-3.59,5.43-6,1.13-2.16,3.71-3,4.46-5.36.22-.69.79-.38,1.35-.2,1.59.53,2.65,1.91,4.19,2.48.46.17.38.33.21.74-1,2.43-2.85,4.2-4.69,6s-3,4-4.89,5.56-3.11,3.55-5.55,4.14c-.59.15-.67.92-.92,1.33-.74,1.26-1.46.34-1.63-.07C131.52,148.41,129.9,147.28,128.77,145.68Z"></path><path class="cls-3" d="M100.31,33.28c.43,0,1,.22.47.58-1.09.76-.53,1.7-.55,2.58-1.35.18-.61-.78-.68-1.27A1.87,1.87,0,0,1,100.31,33.28Z"></path><path class="cls-3" d="M100.21,36.81c.21.62,1.42.21,1.26,1.22-.11.28-.47.67-.55.37C100.76,37.82,99.44,37.74,100.21,36.81Z"></path><path class="cls-3" d="M102.1,38.26l.75.08c0,.24,0,.53-.28.54S102.12,38.57,102.1,38.26Z"></path><path class="cls-1" d="M57.46,158.5c-.07-.08-.2-.18-.18-.23a.37.37,0,0,1,.23-.21c.19,0,.33.07.25.27S57.57,158.44,57.46,158.5Z"></path><line class="cls-4" x1="149.92" y1="12.63" x2="25.9" y2="164.64"></line></svg>