<svg xmlns="http://www.w3.org/2000/svg" id="Layer_1" data-name="Layer 1" viewBox="0 0 287 302"><defs><style>
      .cls-1 {
        fill: #aecde9;
      }

      .cls-2 {
        fill: #fff;
      }

      .cls-3 {
        fill: #f5f5f5;
      }

      .cls-4 {
        fill: #f7f8f9;
      }

      .cls-5 {
        fill: #aacae5;
      }

      .cls-6 {
        fill: #322e2f;
      }
    </style></defs><g><path class="cls-1" d="M74.69,299.54a85.81,85.81,0,0,1-12.33-1.44c-.61-.12-1.21-.22-1.82-.3s-1.65.38-1.76-.89c-.11-1.46,1-1.24,1.56-1.35,2.08-.38,4.17-.63,6.25-.86,3.27-.36,6.56-.61,9.82-.66,8.93-.14,17.86-1.08,26.8-.79,6.61.21,13.24-.25,19.85-.3,10.59-.08,21.19-.35,31.77,0,6.1.2,12.21-.11,18.32.61a51.81,51.81,0,0,0,10.17.51c5.11-.41,10.2.12,15.28.4,5.63.32,11.27.46,16.9,1.15,3.39.42,6.82.76,10.23,1,.92.07,2.48-.14,2.49,1.37s-1.54,1.14-2.38,1.16c-6,.15-11.88,1.29-17.85,1.57q-10.61.5-21.24.84c-13.14.42-26.29.48-39.44.27-5.17-.08-10.38.28-15.55-.05-7.32-.46-14.65-.21-22-.6-4.88-.25-9.79-.31-14.69-.48A202.26,202.26,0,0,1,74.69,299.54Z"></path><g><path d="M15,181c-3.72-1-7.45.65-11.2-.09-1.3-.26-1.36-.64-1-1.7,2.58-8.67,8-15.4,14.52-21.81-4.33-2.69-7.4-6.82-10.86-10.55C3.73,144,2,140.46.41,137c-1.24-2.63.47-4.24,3.35-4.33,7-.22,14,.23,21-1.06a101.35,101.35,0,0,1,19.07-2.13c1.77,0,3.07,1.2,4.73,1.3,1.64,4.34,2.11,8.9,2.44,13.48-.23,1-.1,2,1,2.42,1.73.65,3.52,1.12,5.25,1.75,2.62,1,2.49-.56,2.19-2.32s-.57-3.58-.86-5.38c1-3.67.39-7.44.68-11.15l0,0c.76-.61.46-1.22,0-1.84.3-1.37,1.7-2.6.54-4.16.84-4.78,1.6-9.55,3.57-14.09.94-2.18,2.7-3.93,3.13-6.34l1-.57c.29-.53,2.12-1,.07-1.64a11.82,11.82,0,0,0,2.76-4c2.2-1.54,1.64-4.09,2.1-6.18a15.39,15.39,0,0,0-5-15.49c-.85-2-2.65-3.2-4.09-4.67-2.84-2.89-3-5.53-.56-8.71,1.39-1.79,2.18-4.07,4.59-5,.88-.32.25-1.46.7-2.09,1.76.12,1.66-1.61,2.46-2.45,2.06-2.15,2.53-6.34,7-5.47,4.06,2.54,8.13,5,12.16,7.63a4.25,4.25,0,0,0,2.78.65c3.93-.48,7.35,1.36,11,2.18a27.48,27.48,0,0,0,8.81.74c4-.11,7.68-1.55,11.52-2.31.51-.1,1.43-.14,1.51-1.08a20.75,20.75,0,0,0,6.5-2.85c.27-.09.56-.17.83-.29,5.71-2.67,11.12-6.4,18-5.11,1.35,1.56,1.86,4,4.43,4.27,2.8,2,6.22,2.64,9.1,4.42a7.66,7.66,0,0,0,5.41,1.25c2.3.8,4.57,1.72,7.06,1.72,2.43,1,4.82-.1,7.15-.41,3.51-.48,6.92-2.35,10.33-2.57,3.12-.2,5.93-.33,8.51-2.13,2.7-2.47,6.15-3.75,9.16-5.76,1.82-1.22,3.72-.3,4.92,1.78.94,1.61,2.15,3.07,3.24,4.59-.06.19-.22.48-.16.54a61.29,61.29,0,0,1,8.07,9.33c1.26,2.74.14,5-1.6,7-1.14,1.35-2.92,2.13-3.54,4h0c-.79.12-.87.84-1.15,1.39-4.49,4.06-5.67,9.12-4.48,14.89l.45,1.84a6.26,6.26,0,0,0,1.18,4c2.5,4.17,4.8,8.46,7.18,12.7.46.7.54,1.64,1.34,2.13.68,3,1.25,6,2.06,8.92.74,2.67-.82,5.54.85,8.09-.46,1.39.28,2.71.27,4.07-.46,5,1,10-.57,15-.43,1.41.56,1.86,1.66,1.52,3.18-1,6.47-1.64,9.27-3.56,0-2,.7-4-.37-5.9.05-2.14-.68-4.34.56-6.38,1.53-3.29,4.4-3.78,7.59-3.6a118,118,0,0,1,14.11,1.75,87.84,87.84,0,0,0,17.59,1.44c1.75,0,3.19,1.5,5.22.62.77-.32,2.2,1.52,1.05,2.55-3.1,2.77-3.82,7.06-6.68,9.91-2.37,2.36-4,5.41-7,7.23-1.61,1-1.66,2.12-.36,3.81a132.13,132.13,0,0,1,10.26,15.86c1.83,3.25-1.45,7.73-6,8.11-5.72.48-11.35-.74-16.95-1.55-2.43-.36-5-.39-7.38-1.22-1.9-.64-2.12.63-2.32,2.36-.28,2.46,1.37,4.56.7,6.94a11.28,11.28,0,0,1-4.66,5.21c-2.46,1-5.17,1.2-7.62,2.38a24.6,24.6,0,0,1-8.31,2.17c-1.37.14-2.18,1.55-3.74,1.9a98.41,98.41,0,0,0-9.77,3.17c-4.65.76-9.42,1.11-13.9,2.44-2.5.73-5.17.3-7.49,1.57l-14.6,1.07c-.24-.14-.49-.41-.71-.39-4.47.35-7.93,4.27-12.74,3.59-.72-.1-1,.83-.23,1.47-2.14,0-3.87,1.31-5.85,1.84-2.9.2-5.41,1.48-8,2.62-2.86,1.26-5.68,2.92-9,2.31-2.71,0-5-1.75-7.62-1.94-4.24-3-9.49-3.1-14.15-4.9.89-1,.23-1.6-.62-1.47-2.75.42-5-1.09-7.56-1.53-2-2.1-4.74-2.11-7.27-2.07a74.59,74.59,0,0,1-12.14-.9l-5.51-.8c-2.31-1.22-5-1.28-7.4-1.57-5.15-.61-9.94-2.46-15-3.29-4.79-2.71-10.17-3.7-15.35-5.27-2.72-1.74-6.19-1.61-8.84-3.52-1.92-2.2-4.15-4.3-2.46-7.65.69-1.37-.89-3.32,1.11-4.35A3,3,0,0,0,38.2,178c-6.09,1.55-12.38,1.8-18.55,2.86Zm98.61-82.05a2.35,2.35,0,0,0,1.82-1.14c10.14-4.61,17.74-12.8,26.75-19,1.58-1.09,3.08-2.07,5.09-1.76l-9.9,10.27a5.58,5.58,0,0,0,3.88-2.45,27.66,27.66,0,0,1,3.67-4c1.29-1.23,2.46-1.59,4.12-.23,3.1,2.55,6.56,4.67,9.38,7.54,1.74,1.78,3.34,2.41,5.24.38,2.83,3.44,7,5,10.54,7.45-.25.29-.47.61-.75.88-1.21,1.14-3.15,2.11-3.44,3.44-.24,1.12,1.77,2.34,2.88,3.45.81.83,1.35,2-.61,2.8a33.33,33.33,0,0,1-10.43,2.14c-1.23.11-1.57.32-1.45,1.65a137,137,0,0,1,.85,17.54L182.57,107l2.29,1.56c2,2,4,3.91,6,5.83.44.41.61,1.78,1.66.69.82-.84-.17-2.3-.23-2.32-3.19-.67-4.4-4.11-7.28-5.17.12-1.06-1.74-1-1.3-2.2a46.75,46.75,0,0,0,7.15-7.79c1.63-.75,2.69.56,4,1.05s2.47,1.74,4.43.93c-2-1.8-4.76-1.71-6.34-3.6,1.19-2.06,3-3.59,4.63-5.26s2.08-2.93,1.67-5.14a1.36,1.36,0,0,1,.14-.84c2.06-3.78,2-8.44,5.21-11.81a7.31,7.31,0,0,0,1.85-5.51C194,73.9,186,84.88,176.55,94.13c-1.24,1.05-2.15.07-3-.6-2.8-2.28-5.52-4.66-8.28-7l1.44-1.78c.3,0,.59,0,.88,0,1.28,0,2.8,2,3.49.7s-2.05-1.17-2.6-2.42c2.88-2.68,5.29-5.87,9.26-8.07a15.43,15.43,0,0,0-1.54-.27c-7.31,0-14.4-1-21.07-4.19-1-.47-1.55.08-2.16.64-3.86-1.94-7.69-3.35-11.7-.28a9.76,9.76,0,0,1-2.44,1L130,75.33c2.62.61,5.09-.63,7.86.06a6.41,6.41,0,0,1-.78.71c-4.44,2.55-8.91,5.07-13.32,7.67-.73.43-2.43.52-1.81,1.74s1.73-.15,2.55-.41c2.51-.78,5-1.78,7.51-2.73-.13,1.81-1.55,2.2-2.48,3-4.86,4-9.77,8-14.67,12l-1.73,1.17-.62.84C113,99.7,113.32,99.39,113.57,98.94Zm144.55,35.38a33.86,33.86,0,0,0-9.44-1.34c-1.29,0-3-.66-3.51.7-.73,1.81,1.77,1.59,2.42,2.69.14.23.77.1,1.08.29a6.32,6.32,0,0,1,3.07,4.35c.68,4.79-.18,9.63.08,14.5a59.23,59.23,0,0,1-.87,15.11c-.49,2.37-.09,4.08,3.11,4.24,2.09.1,4.24.42,6.36.63,3.56,1.57,7.49.86,11.12,1.76,2.57.64,4.57-.45,6.71-1.2.75-.26,2.11-.86,1.3-2.11-2.35-3.62-4.54-7.34-6.86-11-1.09-1.71-2.28-3.8-4.53-4.6-2.09-.74-2.71-3.1-1-4.42a57.08,57.08,0,0,0,7.73-7.49c2.08-2.35,4.56-4.57,5.39-7.84.35-1.41.22-3.06-1.55-2.49-2.84.9-5.39-.26-8.06-.39C266.48,135.54,262.31,134.82,258.12,134.32ZM221.62,197h0c2.36-.51,4.48-1.77,6.72-2.45,4.92-1.49,9.77-3.19,14.64-4.82,3.51-1.18,4.83-2.53,4.15-5.86-1.29-6.36.67-12.61.14-18.95-.22-2.62-.55-5.78.36-8.06,1.36-3.42-.24-6.4.38-9.86-1.41.8-2.77.67-3.68,1.68-9,2.22-17.68,5.55-26.41,8.68l-9.53,1.6c-2.61,1-5.44,1.07-8.13,1.52-10.86,1.81-21.9,1.84-32.86,2.7-3.39.27-6.74.77-10.17,1a267.25,267.25,0,0,1-27.88-.07c-5.54-.29-11.16-1.09-16.74-1.61-4.2-.39-8.44-.34-12.64-.72-7.08-.65-14-2.4-21-3.5a95.33,95.33,0,0,1-14.23-3.71c-7.31-2.33-14.56-4.86-22.17-7.42v5.41c-.78,0-1.13-1.2-2-.71a1,1,0,0,0-.33.65c1.15.88.78,3.3,3,3,.18,1.56-.67,3.11-.51,4.51a198.49,198.49,0,0,1,1,22.61c-2.32,1.64-.65,2.57.63,3.58-1.3,3,1.49,2.91,2.83,3.41,4.52,1.68,9.17,3,13.74,4.54,4,1.34,7.73,3.34,11.86,4.23,3.21.69,6.45,1.26,9.69,1.83,7.35,1.27,14.61,3,22.16,3.12,4.72,0,9.44.5,14.16,1s9.51,1,14.34,1c4.22,0,8.47-.29,12.65,0a96.82,96.82,0,0,0,22.53-.59c9.7-1.51,19.53-.77,29.17-2.69,5-1,10-1.93,15-3a2.67,2.67,0,0,0,2.75-.44l1.37-.21c.59.14,1.18.26,1.54-.43l.75-.09A2.44,2.44,0,0,0,221.62,197ZM39.26,139.55c1.11-.35,1.12-1.52,1.7-2.27,1-.75,2.29-.82,3.29-1.69.66-.58,1.67-.91,1.38-1.89s-1.53-1-2.35-.91c-3.46.31-6.94.64-10.37,1.23a125,125,0,0,1-23.8,2c-3.23-.07-4.47,2-3,5,2.79,5.49,7.44,9.34,12,13.16,2.27,1.89,2.93,3.45,1,5.62C15,164.44,10.66,169,7.69,174.61c-.31.58-1.23.68-.62,1.8a2.1,2.1,0,0,0,1.73,1.25c2.47-.18,5,.2,7.34,0,7.37-.68,14.67-2.14,22-3.13,1.45-.19,1.69-.69,1.61-1.93-.34-5.48-.46-11-1-16.43-.17-1.74,1.43-3,1-4.19C38.22,147.82,39.27,143.69,39.26,139.55Zm185.59,5.85c0-6.69,1.49-13.21,1.66-19.88-1.78.93-2.25-.61-1.9-1.93.48-1.87-1.8-3.34-.46-5.15-2.65-2.93-2.25-7.14-4.72-10.38-2.24-2.93-3.68-6.61-5.87-9.71a5,5,0,0,1-1.21-3.16c.08-1.75-.83-3.26-.87-5.12-.07-3,1.37-6,.09-9,2.73-3.88,5.12-8.07,8.27-11.57,3.52-3.91,3.83-3.8.45-7.6-.48-.54-1.45-.78-1-1.84a.85.85,0,0,0-.77-1.24c-2.37-.26-3.09-2-3.83-3.88s-2.79-2.13-4.53-1.27c-2.36,1.17-4,3.78-7.11,3.49-1.47-.14-3.38-1.38-3.53,1.54,0,.18-.55.5-.59.47-2.57-2.17-4.88.45-6.9,1a64.28,64.28,0,0,1-9.84,2.21c-4.8.48-9.59,1.16-14-1.56-1.77,1.58-2.28-1.25-4.07-1.06-4.31.44-7.59-3-11.61-4.12a5.55,5.55,0,0,1-3.35-2c-1.77-2.44-4.91-2.63-7.23-.58a20.66,20.66,0,0,1-3.62,2.26c-2.13,1.22-4.71,1.1-6.65,2.3-5.29,3.23-11.28,3.81-17,5.31-2.29.59-4.2-.63-6.35-.52-3.24.16-6.36-.77-9.43-1.76-2.4-.78-4.81-1.54-7.21-2.3a9.69,9.69,0,0,1-1.74-1.14c-.14-.52-.4-1-1-.66-3.95,2.09-6.43-1.14-9.28-2.68C77.23,52.62,76,52.77,75,55.27a6.69,6.69,0,0,1-2.91,3.44c-2.61,1.38-3.13,4.36-5.11,6.22-.59.55.09,1.41.47,2.09,1.21,2.19,3.43,3.45,4.68,5.87,1.17,2.25,3.46,4.28,4.66,6.74.35.71,1.74,1,1.09,2.33-1.24,2.69.25,5.52.06,8.36a17.85,17.85,0,0,1-2.31,8.51,106.05,106.05,0,0,0-8.19,14.88c-.71,1.73-1.86,3.73-1.85,5.21,0,2.59-.59,5.11-.59,7.7,0,5.57-.77,11.14-.49,16.74.06,1.28.21,1.94,1.85,2.23A37.69,37.69,0,0,1,73.42,148c.48.19.52,1,1.49.55s.68-1.1.61-1.66c-.55-4.52-1.16-9-.69-13.59.6-5.84,1.46-11.54,3.67-17.07,2.53-6.33,5.65-12.46,6.87-19.27a31.55,31.55,0,0,0-1.56-16.33,55.21,55.21,0,0,0-6.58-12.33c-1.33-2-.62-3.39.67-5s2.86-2.61,4.76-2a106,106,0,0,1,14.72,5.39,27.21,27.21,0,0,0,13.86,2.74c7.79-.45,15.69-1,23-4.15,3-1.3,6.62-1.33,9-4.28.66-.83,2.83-.81,3.56,0,1.86,2,4.2,2.58,6.59,3.47,7.9,2.93,15.89,5.23,24.42,5,2.93-.08,5.86-.12,8.8-.31,3.11-.21,5.11-2.64,8.08-3.23,3.82-.76,8-.69,11.2-3.91,1.68-1.69,4.26-1.06,5.8.67,1.25,1.42,2.54,3.13,1.08,5.49-3.37,5.45-6.79,11-7.74,17.44a30.61,30.61,0,0,0,.27,12.35c1.26,4.78,4.26,8.8,5.91,13.41,1.26,3.52,3.23,6.91,3.78,10.53,1.34,9,2.45,18,1.58,27.08-.53,1.67-.71,3.45-1.63,5,.81.58,1.26-.08,1.8-.16,6.71-1.06,6.7-1.07,7.78-7.53A4.84,4.84,0,0,1,224.85,145.4Zm-55.87-41c-2.76-3.43-5.39-7-8.27-10.24-3.32-3.77-7.71-6.34-11.43-9.63-2.4-2.12-3.92-1.29-4.84.49-2.49,4.8-7.43,7-10.78,10.85-2.72,3.12-5.78,5.94-8.77,9,3.47,0,6.48,0,9.49,0,3.36,0,4.11.53,3.88,3.79-.43,5.85,1,11.61.62,17.45-.08,1.56.43,2.17,2.32,2.46,4.44.68,8.69-1.43,13.15-.48.56.12,3.84.88,3.67-2.62-.24-5.27-.06-10.55-.82-15.8-.27-1.89.39-3.11,2.58-3.75C162.76,105,166,106.3,169,104.41Zm26.56,21.89a41.94,41.94,0,0,0-6.9-4.5c-2.41-1.42-4.57-3.28-6.88-4.88-1.86-1.3-3-.93-4,1.3-1.73,3.81-2.92,7.86-5.13,11.45-.47.76-1,1.82-.6,2.46.58.85,1.88.51,2.73.21,2.37-.81,3.47.06,3.93,2.37.72,3.56,3.3,6.29,4.49,9.65.23.65.68,1.25,1.53.95,2.9-1,6-.88,9-1.42,1.54-.27,1.7-.91,1.22-2.21-.92-2.51-1.86-5-2.55-7.61C190.94,128.94,190.83,129,195.54,126.3Zm-93.92.13c1.19.54,2.28,1,3.29,1.52s2,1.53,1.33,2.85c-1.74,3.45-2.13,7.36-3.84,10.81-.74,1.5-.18,2.09,1.36,2.34,2.86.46,5.81.32,8.59,1.29,1,.36,1.5-.16,1.75-1,.91-3,3.38-5.18,4-8.24s1.81-4.85,5.33-3.61c.89.31,2.52.45,1.7-1.44-2-4.63-4.13-9.2-6.21-13.8-.62-1.38-1.48-1.22-2.71-.67-3.42,1.51-5.64,4.72-9.11,6.16A16.71,16.71,0,0,0,101.62,126.43Zm-6.09-.54c-4.7,4.26-9.27,8.39-13.81,12.55-.79.72-1,5.61-.35,5.69,2.93.34,5.36,2,8.13,2.8s5.26-.66,7.93.17c1.79.56,3.81.37,5.6,1.13,1,.44,1.3-.22,1.63-1.09a9.47,9.47,0,0,1-2.13-.26c-4.28-1.64-4.31-1.12-3.16-5.37.8-2.94,1.95-5.79,2.85-8.7.76-2.44-.11-3.94-2.57-3.55C96.78,129.72,96.09,128.27,95.53,125.89Zm24.37-21.42L96.32,125.05a1.06,1.06,0,0,0,1.4.11c6.54-3.43,12.11-8.36,18.61-11.9,2.84-1.55,3.34-1.83,4.7,1.15,1.74,3.82,3.46,7.65,5.21,11.52,3.59-2.59,5.57-6.49,8.8-9.21a1.51,1.51,0,0,0,.55-1.8c-.57-1.7-.28-3.49-.28-5.24,0-1.11.3-1.79-1.7-1.76-2.61,0-5.28.4-7.86,0C123.52,107.66,120.36,108.66,119.9,104.47Zm38.75,26.2c-1.11.27-1.93-.78-3.12-.4-4.5,1.44-9.2,1.3-13.81,1-3.63-.22-6.54.27-8.86,3.37a65.28,65.28,0,0,1-5.13,5.27c-3.47,3.66-6.91,7.36-10.65,11.35h4.1c-1.45-1.29-1.54-2.15.1-3.27,4.61-3.15,9.18-6.4,13.61-9.82,1.85-1.43,2.69-.88,3.58.86,1.32,2.56,2.7,5.09,4.2,7.91C147.74,141,153.32,136.06,158.65,130.67Zm-18.57,21.79c2.32.41,2.75-.27,1.63-2.25-1.44-2.53-2.78-5.14-4-7.78-1-2.13-2.32-2.48-4-1a66.93,66.93,0,0,1-7.7,5.81c-1.4,1-1.82,1.8.23,2.46,1.63.53,2.13,1.51,1.32,3.14-.37.77-.37,1.72-.7,2.52-1.06,2.5.31,3.12,2.42,3.5,6.13,1.08,6.19,1.15,8.21-4.63C138,152.82,138.6,152.07,140.08,152.46ZM163,161.34v0c1.38,0,2.75,0,4.12,0,1.71-.06,2.52-.89,1.83-2.58-1-2.34-.16-3.52,2.26-3.85,1.11-.15,1.77-.72.76-1.71-3.05-3-6.17-5.87-9.26-8.8-1.12-1.06-2.09-.69-2.86.41-2.16,3.1-4.28,6.22-6.39,9.36-1.07,1.6-.27,2.06,1.3,2,1.73-.11,3.21.09,3.14,2.37-.08,2.58,1.3,3.31,3.63,2.9A9,9,0,0,1,163,161.34Zm-59.83-56.18-.66-.75L89,115.73l.65.73A108,108,0,0,0,103.17,105.16Zm2.64-12.33c-.07-.91-.68-.62-1-.44q-5.47,2.77-10.9,5.66a1.09,1.09,0,0,0-.35,1c.3.58.77.33,1.21,0a74.45,74.45,0,0,1,10.33-5.19C105.48,93.69,105.94,93.4,105.81,92.83Z"></path><path class="cls-1" d="M66.51,103.16c-.43,2.41-2.19,4.16-3.13,6.34-2,4.54-2.73,9.31-3.57,14.09-8.3-1.7-16.59-3.43-24.57-6.36-3.94-1.45-7.92-2.73-12-3.79a15.69,15.69,0,0,1-5-2.89c-1.61-1.2-1.09-2.67,1-3.33a42.78,42.78,0,0,1,10.37-1.79c11.32-.65,22.59-1.74,33.86-3C64.53,102.37,65.69,102.14,66.51,103.16Z"></path><path class="cls-1" d="M150.65,46.45c-6.84-1.29-12.25,2.44-18,5.11-.27.12-.56.2-.83.29.3-6.37,1.86-12.54,3.54-18.62a196.13,196.13,0,0,0,5.15-28.39c.25-2,1.84-2.86,2.37-4.48.17-.53.85-.44,1.2,0,.72,1,2.33.94,2.4,2.67.15,3.42.58,6.82.86,10.23.45,5.62.92,11.26,1.52,16.85.4,3.77.12,7.69,1.4,11.36C150.87,43.14,150.53,44.8,150.65,46.45Z"></path><path class="cls-1" d="M94.82,205.87a74.59,74.59,0,0,0,12.14.9c2.53,0,5.25,0,7.27,2.07-2.25,4.32-5.81,7.56-9.36,10.69-7.31,6.47-14.83,12.71-22.32,19-2.24,1.88-4.66,3.54-7,5.32-.67.52-1.34.93-2.12.33s-.32-1.39,0-2.1c2.51-5.54,6.21-10.37,9.38-15.52,3.81-6.22,7.54-12.49,11.28-18.76A10.14,10.14,0,0,0,94.82,205.87Z"></path><path class="cls-1" d="M225.94,109.23c-2.38-4.24-4.68-8.53-7.18-12.7a6.26,6.26,0,0,1-1.18-4c6.54-1.11,13.1-2.13,19.62-3.36a44.07,44.07,0,0,1,6.68-.75c6.76-.22,13.48-.81,20.22-1.33.88-.07,2.25-.56,2.58.65s-.82,1.77-1.85,2.26a221.78,221.78,0,0,0-25.55,13.73,20.88,20.88,0,0,1-8.27,2.8A8.09,8.09,0,0,0,225.94,109.23Z"></path><path class="cls-1" d="M195.38,206.17c2.32-1.27,5-.84,7.49-1.57,4.48-1.33,9.25-1.68,13.9-2.44,7.48,9.25,15.8,17.85,22.08,28.05a39,39,0,0,0,3,3.63c.47.59,1.25,1.25.54,2s-1.42.33-2.13-.13c-5.64-3.64-11.64-6.65-17-10.84-3.94-3.11-8.49-5.49-12.79-8.15s-9.25-4.5-13.34-7.69A3.72,3.72,0,0,1,195.38,206.17Z"></path><path class="cls-1" d="M230.19,128.37c-1.67-2.55-.11-5.42-.85-8.09-.81-2.94-1.38-6-2.06-8.92,3.49.69,7,.32,10.49.07a164.72,164.72,0,0,1,17.07-.05c5,.17,10,1.1,15.06,1.07a10.84,10.84,0,0,1,2.89.35,2.3,2.3,0,0,1,1.66,2.21c.06.94-.73,1.2-1.46,1.59-4,2.17-8.56,2.66-12.87,3.78-8.2,2.13-16.47,4-24.57,6.47C233.78,127.4,232,127.86,230.19,128.37Z"></path><path class="cls-1" d="M202.64,53c-2.58,1.8-5.39,1.93-8.51,2.13-3.41.22-6.82,2.09-10.33,2.57-2.33.31-4.72,1.39-7.15.41,9.13-11.12,20.07-20.27,31.44-29,3-2.31,5.52-5.27,8.78-7.33.69-.43,1.28-1,2.1-.45s.61,1.46.27,2.34c-1.88,4.8-5.23,8.7-7.87,13s-5.31,8.85-8.07,13.22A4.74,4.74,0,0,0,202.64,53Z"></path><path class="cls-1" d="M144.18,218.68c3.37.61,6.19-1.05,9-2.31,2.61-1.14,5.12-2.42,8-2.62-2,10.59-4.14,21.17-7.19,31.54-1.27,4.3-.87,8.93-2.43,13.19-.47,1.28-.7,2.74-2.65,2.5s-2.38-1.68-2.36-3.17c.14-6.75-1.17-13.4-1.39-20.15C145,231.34,144.12,225,144.18,218.68Z"></path><path class="cls-1" d="M167.1,211.91c-.75-.64-.49-1.57.23-1.47,4.81.68,8.27-3.24,12.74-3.59.22,0,.47.25.71.39.79,6,3.26,11.58,5.07,17.32q3.51,11.15,7.41,22.17c1,2.83,2.67,5.41,3,8.51.06.66.55,1.36-.21,1.85-.95.62-1.5-.22-1.92-.8-4.33-6.1-9.43-11.65-12.75-18.49a142.76,142.76,0,0,0-9.83-17.68A88.39,88.39,0,0,1,167.1,211.91Z"></path><path class="cls-1" d="M125.36,54.7c-.08.94-1,1-1.51,1.08-3.84.76-7.55,2.2-11.52,2.31-3.94-12-7.67-24.09-12.13-35.94a79.83,79.83,0,0,1-3.62-10.5c-.21-.94-.79-2.35.56-2.84,1.09-.4,1.54.88,2.19,1.59,7.66,8.37,12.5,18.52,17.8,28.35,2.17,4,4.71,7.8,6.84,11.84A11.32,11.32,0,0,1,125.36,54.7Z"></path><path class="cls-1" d="M67.53,75.23a15.39,15.39,0,0,1,5,15.49c-.46,2.09.1,4.64-2.1,6.18A2,2,0,0,0,69.32,95Q56.5,86.56,43.14,79c-3.2-1.81-6.22-4-9.24-6.08-.72-.5-1.93-1.21-1.25-2.32s1.7-.41,2.65-.14a135.43,135.43,0,0,0,16,3.17C56.67,74.41,62.1,74.84,67.53,75.23Z"></path><path class="cls-1" d="M169.59,56.39a7.66,7.66,0,0,1-5.41-1.25c-2.88-1.78-6.3-2.46-9.1-4.42,3.27-2.45,5.16-6,7.32-9.33,4.61-7,8.53-14.41,13.47-21.22,2.09-2.88,3.65-6.19,5.84-9.05.66-.87,1.36-2.27,2.77-1.67,1.67.71.55,2.19.26,3.08-1.1,3.43-2.38,6.81-3.76,10.14A253.69,253.69,0,0,0,169.59,56.39Z"></path><path class="cls-1" d="M217.13,90.7c-1.19-5.77,0-10.83,4.48-14.89a1.32,1.32,0,0,0,1.15-1.39h0a4.5,4.5,0,0,0,3.15-.11c5.6-2,11.53-2.89,17.21-4.62,4.28-1.31,8.59-2.46,12.91-3.6,1.05-.27,2.43-.87,3.1.58.56,1.21-.44,1.85-1.23,2.65-2.73,2.76-6.13,4.53-9.47,6.24-9.44,4.86-18.76,10-28.48,14.28A23.69,23.69,0,0,1,217.13,90.7Z"></path><path class="cls-1" d="M122.41,211.84c4.66,1.8,9.91,1.88,14.15,4.9-3.67,2.62-5.85,6.46-8,10.2-5.48,9.44-11.5,18.52-17.62,27.55-.65,1-1.23,2.35-2.66,1.6-1.23-.64-.54-1.88-.27-2.89,1.83-6.92,5.38-13.18,7.61-19.94C117.94,226.15,120.15,219,122.41,211.84Z"></path><path class="cls-1" d="M66.93,200.21c5,.83,9.83,2.68,15,3.29,2.36.29,5.09.35,7.4,1.57-6.34,3.27-13.23,5.07-19.82,7.65-6.43,2.52-12.83,5.16-19.24,7.75-1.07.43-2.22.85-3,.09-1-.95.31-1.78.78-2.51,1.4-2.15,3.45-3.7,5.36-5.35C58,208.68,62.9,204.9,66.93,200.21Z"></path><path class="cls-1" d="M77.59,46.89c-4.43-.87-4.9,3.32-7,5.47-.8.84-.7,2.57-2.46,2.45-2.77-3.51-5.67-6.92-8.29-10.54-3.07-4.25-5.83-8.71-9.37-12.62-.42-.47-.88-1.14-.24-1.83s1.28-.21,1.86.09A90.35,90.35,0,0,1,66.49,38.7c2.46,1.93,5.17,3.44,7.71,5.21C75.43,44.77,77.17,45.1,77.59,46.89Z"></path><path class="cls-1" d="M227.87,63.48a61.29,61.29,0,0,0-8.07-9.33c-.06-.06.1-.35.16-.54a22.63,22.63,0,0,0,9.85-3.52c3.12-1.87,6.71-2.09,9.88-3.58,1.23-.58,2.43-1.26,3.7-1.75a1.68,1.68,0,0,1,1.94.22c.56.65.08,1.32-.25,1.89-1.84,3.22-4.91,5.25-7.56,7.68C234.3,57.51,230.81,60.2,227.87,63.48Z"></path><path class="cls-1" d="M240.82,145.4c-2.8,1.92-6.09,2.61-9.27,3.56-1.1.34-2.09-.11-1.66-1.52,1.54-5,.11-10,.57-15a25.57,25.57,0,0,1,10.55.68c-1.24,2-.51,4.24-.56,6.38-.19,4.59-.19,4.61-4.67,4.79a5.54,5.54,0,0,0-3.23,1C235.47,145.86,238.16,144.32,240.82,145.4Z"></path><path class="cls-1" d="M59.29,129.56c-.29,3.71.32,7.48-.68,11.15-.88,0-1.32.69-2,1.06-1.77,1-3.12,3-5.59,2.47-.33-4.58-.8-9.14-2.44-13.48C52.14,130.21,55.65,129.29,59.29,129.56Z"></path><path class="cls-1" d="M42.74,191.42c2.65,1.91,6.12,1.78,8.84,3.52a96.64,96.64,0,0,1-9.33,3.42,47.27,47.27,0,0,1-5.7,1.2c-1,.15-2.5.78-3.13-.67-.53-1.21.54-2,1.36-2.67C37.22,194.27,39.64,192.27,42.74,191.42Z"></path><path class="cls-1" d="M246.21,192.54a11.28,11.28,0,0,0,4.66-5.21c2.81,1.92,5.64,3.82,8.42,5.78.61.44,1.31,1,.86,2-.31.63-1,.56-1.57.44C254.45,194.55,250.33,193.54,246.21,192.54Z"></path><path class="cls-1" d="M67.63,101c2.05.64.22,1.11-.07,1.64C67.58,102,67.61,101.49,67.63,101Z"></path><path class="cls-1" d="M59.27,127.75c.45.62.75,1.23,0,1.84C59.26,129,59.27,128.37,59.27,127.75Z"></path><path class="cls-2" d="M43.8,182.59a198.49,198.49,0,0,0-1-22.61c-.16-1.4.69-2.95.51-4.51,3.81.43,7.14,2.46,10.85,3.35,1.48.36,3.43-.13,4.29.76,2.28,2.36,5.35,2.28,8,3.25a70.66,70.66,0,0,0,17.68,3.88A120.84,120.84,0,0,1,98,168.53c7.19,1.51,14.31,2.91,21.67,2.83a54.47,54.47,0,0,1,6.53.08c4.31.5,8.64.88,13,1.06,2.62.1,5.3-.69,7.89-.45a74.48,74.48,0,0,0,16.62-.1,77.71,77.71,0,0,1,9.43-1,150,150,0,0,0,15.19-1.07c6.45-.67,12.84-2.07,19.2-3.37,3.11-.64,6.24-1.81,9.19-2.4s5.85-1.19,8.79-1.75c5.29-1,10.15-3.69,15.66-3.94,2.17-.1,3.19.44,2.75,2.76A71.66,71.66,0,0,1,236,183.4c-1.86,3.26-4.48,4.38-7.66,5.1-5.08,1.15-10.27,1.83-15.31,3-5.64,1.32-11.39,1.61-17,2.81A121.44,121.44,0,0,1,179,196.19c-9,.62-18.06,1.21-27.11,1.54-7.93.29-15.87.64-23.8.54-3.6-.05-7.24.59-10.89-.67a22.38,22.38,0,0,0-8.22-.81c-4.16.22-8.09-.82-12.16-.93-6.1-.16-12.06-2-18.09-3.16-5.27-1-10.61-1.76-15.72-3.34C56.51,187.35,50.19,184.87,43.8,182.59Z"></path><path class="cls-3" d="M216.6,148.93c.87-9.11-.24-18.13-1.58-27.08-.55-3.62-2.52-7-3.78-10.53-1.65-4.61-4.65-8.63-5.91-13.41a30.61,30.61,0,0,1-.27-12.35c.95-6.48,4.37-12,7.74-17.44,1.46-2.36.17-4.07-1.08-5.49-1.54-1.73-4.12-2.36-5.8-.67-3.19,3.22-7.38,3.15-11.2,3.91-3,.59-5,3-8.08,3.23-2.94.19-5.87.23-8.8.31-8.53.25-16.52-2-24.42-5C151,63.54,148.69,63,146.83,61c-.73-.78-2.9-.8-3.56,0-2.37,2.95-6,3-9,4.28-7.35,3.13-15.25,3.7-23,4.15a27.21,27.21,0,0,1-13.86-2.74,106,106,0,0,0-14.72-5.39c-1.9-.6-3.48.44-4.76,2s-2,3-.67,5a55.21,55.21,0,0,1,6.58,12.33,31.55,31.55,0,0,1,1.56,16.33c-1.22,6.81-4.34,12.94-6.87,19.27-2.21,5.53-3.07,11.23-3.67,17.07-.47,4.58.14,9.07.69,13.59.07.56.35,1.19-.61,1.66s-1-.36-1.49-.55a37.69,37.69,0,0,0-7.09-2.39c-1.64-.29-1.79-1-1.85-2.23-.28-5.6.47-11.17.49-16.74,0-2.59.61-5.11.59-7.7,0-1.48,1.14-3.48,1.85-5.21A106.05,106.05,0,0,1,75.6,98.83a17.85,17.85,0,0,0,2.31-8.51c.19-2.84-1.3-5.67-.06-8.36.65-1.38-.74-1.62-1.09-2.33-1.2-2.46-3.49-4.49-4.66-6.74-1.25-2.42-3.47-3.68-4.68-5.87-.38-.68-1.06-1.54-.47-2.09,2-1.86,2.5-4.84,5.11-6.22A6.69,6.69,0,0,0,75,55.27c1-2.5,2.26-2.65,4.6-1.37,2.85,1.54,5.33,4.77,9.28,2.68.61-.32.87.14,1,.66a9.69,9.69,0,0,0,1.74,1.14c2.4.76,4.81,1.52,7.21,2.3,3.07,1,6.19,1.92,9.43,1.76,2.15-.11,4.06,1.11,6.35.52,5.77-1.5,11.76-2.08,17-5.31,1.94-1.2,4.52-1.08,6.65-2.3a20.66,20.66,0,0,0,3.62-2.26c2.32-2.05,5.46-1.86,7.23.58a5.55,5.55,0,0,0,3.35,2c4,1.07,7.3,4.56,11.61,4.12,1.79-.19,2.3,2.64,4.07,1.06,4.43,2.72,9.22,2,14,1.56A64.28,64.28,0,0,0,192,60.17c2-.53,4.33-3.15,6.9-1,0,0,.58-.29.59-.47.15-2.92,2.06-1.68,3.53-1.54,3.06.29,4.75-2.32,7.11-3.49,1.74-.86,3.79-.61,4.53,1.27s1.46,3.62,3.83,3.88a.85.85,0,0,1,.77,1.24c-.45,1.06.52,1.3,1,1.84,3.38,3.8,3.07,3.69-.45,7.6-3.15,3.5-5.54,7.69-8.27,11.57,1.28,3-.16,6-.09,9,0,1.86,1,3.37.87,5.12a5,5,0,0,0,1.21,3.16c2.19,3.1,3.63,6.78,5.87,9.71,2.47,3.24,2.07,7.45,4.72,10.38-1.34,1.81.94,3.28.46,5.15-.35,1.32.12,2.86,1.9,1.93-.17,6.67-1.71,13.19-1.66,19.88a6.78,6.78,0,0,0-3.2.92C220,147.16,218.78,149.09,216.6,148.93Z"></path><path class="cls-1" d="M43.8,182.59c6.39,2.28,12.71,4.76,19.19,6.77,5.11,1.58,10.45,2.36,15.72,3.34,6,1.13,12,3,18.09,3.16,4.07.11,8,1.15,12.16.93a22.38,22.38,0,0,1,8.22.81c3.65,1.26,7.29.62,10.89.67,7.93.1,15.87-.25,23.8-.54,9-.33,18.08-.92,27.11-1.54A121.44,121.44,0,0,0,196,194.33c5.64-1.2,11.39-1.49,17-2.81,5-1.19,10.23-1.87,15.31-3,3.18-.72,5.8-1.84,7.66-5.1a71.66,71.66,0,0,0,7.81-22.27c.44-2.32-.58-2.86-2.75-2.76-5.51.25-10.37,2.94-15.66,3.94-2.94.56-5.93,1.19-8.79,1.75s-6.08,1.76-9.19,2.4c-6.36,1.3-12.75,2.7-19.2,3.37a150,150,0,0,1-15.19,1.07,77.71,77.71,0,0,0-9.43,1,74.48,74.48,0,0,1-16.62.1c-2.59-.24-5.27.55-7.89.45-4.32-.18-8.65-.56-13-1.06a54.47,54.47,0,0,0-6.53-.08c-7.36.08-14.48-1.32-21.67-2.83a120.84,120.84,0,0,0-13.82-1.82,70.66,70.66,0,0,1-17.68-3.88c-2.69-1-5.76-.89-8-3.25-.86-.89-2.81-.4-4.29-.76-3.71-.89-7-2.92-10.85-3.35-2.26.26-1.89-2.16-3-3a1,1,0,0,1,.33-.65c.9-.49,1.25.75,2,.71,1.94-.25,3.62.7,5.38,1.22,6.66,2,13.46,3.56,19.9,6.1,4.35,1.71,8.85,2.31,13.29,3.23,6.93,1.43,14,2.12,21,3.17a280.94,280.94,0,0,0,28.24,2.5c8.15.38,16.28-.05,24.4.36,5.19.26,10.33-.45,15.49-.67s10.22-1.24,15.34-1.66c8.09-.67,15.95-2.64,23.91-4,7.16-1.22,14.11-3.62,21.2-5.29a40.53,40.53,0,0,1,6.68-1.38c6.23-.41,7.25-1.94,6.89-7.41.91-1,2.27-.88,3.68-1.68-.62,3.46,1,6.44-.38,9.86-.91,2.28-.58,5.44-.36,8.06.53,6.34-1.43,12.59-.14,18.95.68,3.33-.64,4.68-4.15,5.86-4.87,1.63-9.72,3.33-14.64,4.82-2.24.68-4.36,1.94-6.72,2.44.42-2.29,3.27-2.22,4.6-5-4.85,2.05-9.42,1.75-13.71,2.8a136.09,136.09,0,0,1-18.3,3.35c-6.34.66-12.65,2.22-19.11,1.57a5.7,5.7,0,0,0-1.44.27c-6.52,1.27-13.19.88-19.75,1.08-4,.13-8.13.18-12.16.4-7.14.38-14.25-.12-21.36-.23-5.33-.09-10.63-1.21-16-1.47A132.44,132.44,0,0,1,82.81,197c-5.11-1.11-10.44-1.44-15.35-3.3-5.1-1.93-11.21-1.33-15.27-5.93a.88.88,0,0,0-.79-.25c-2.66,1.21-4.66-.85-7-1.36C43.15,185.16,41.48,184.23,43.8,182.59Z"></path><path class="cls-2" d="M169,104.41c-3,1.89-6.22.62-9.2,1.48-2.19.64-2.85,1.86-2.58,3.75.76,5.25.58,10.53.82,15.8.17,3.5-3.11,2.74-3.67,2.62-4.46-1-8.71,1.16-13.15.48-1.89-.29-2.4-.9-2.32-2.46.34-5.84-1-11.6-.62-17.45.23-3.26-.52-3.8-3.88-3.79-3,0-6,0-9.49,0,3-3,6-5.85,8.77-9C137,92,142,89.83,144.44,85c.92-1.78,2.44-2.61,4.84-.49,3.72,3.29,8.11,5.86,11.43,9.63C163.59,97.46,166.22,101,169,104.41Z"></path><path class="cls-4" d="M244.36,148.66c.36,5.47-.66,7-6.89,7.41a40.53,40.53,0,0,0-6.68,1.38c-7.09,1.67-14,4.07-21.2,5.29-8,1.36-15.82,3.33-23.91,4-5.12.42-10.21,1.45-15.34,1.66s-10.3.93-15.49.67c-8.12-.41-16.25,0-24.4-.36a280.94,280.94,0,0,1-28.24-2.5c-7-1.05-14.1-1.74-21-3.17-4.44-.92-8.94-1.52-13.29-3.23-6.44-2.54-13.24-4.13-19.9-6.1-1.76-.52-3.44-1.47-5.38-1.22v-5.41c7.61,2.56,14.86,5.09,22.17,7.42A95.33,95.33,0,0,0,79,158.21c7,1.1,13.91,2.85,21,3.5,4.2.38,8.44.33,12.64.72,5.58.52,11.2,1.32,16.74,1.61a267.25,267.25,0,0,0,27.88.07c3.43-.18,6.78-.68,10.17-1,11-.86,22-.89,32.86-2.7,2.69-.45,5.52-.51,8.13-1.52,1.65,1.23,3.29,3.06,5.53,1.64a12.25,12.25,0,0,0,4-3.24C226.68,154.21,235.34,150.88,244.36,148.66Z"></path><path class="cls-4" d="M39.26,139.55c0,4.14-1,8.27.49,12.42.43,1.15-1.17,2.45-1,4.19.57,5.46.69,11,1,16.43.08,1.24-.16,1.74-1.61,1.93-7.36,1-14.66,2.45-22,3.13-2.35.21-4.87-.17-7.34,0a2.1,2.1,0,0,1-1.73-1.25c-.61-1.12.31-1.22.62-1.8,3-5.61,7.27-10.17,11.46-14.84,1.94-2.17,1.28-3.73-1-5.62-4.59-3.82-9.24-7.67-12-13.16-1.49-2.92-.25-5,3-5a125,125,0,0,0,23.8-2c3.43-.59,6.91-.92,10.37-1.23.82-.08,2-.13,2.35.91s-.72,1.31-1.38,1.89c-1,.87-2.3.94-3.29,1.69-1.06-1.19-2.35-.68-3.54-.38-8.17,2-16.51,2.67-24.87,3.28-.73,0-1.71-.32-2.09.62a2.24,2.24,0,0,0,.82,2.38c3.45,3,5.72,7.2,9.33,10.08s4.09,3.21,1.12,6.7-4.15,8.47-8.48,10.93c-.84.48-.73,1.34-.53,2.11s1,.71,1.69.78c3.06.31,6.05-.38,9.06-.67,4.81-.47,9.19-2.86,14-3.46,1-.12,1.09-.94,1-1.79a1.18,1.18,0,0,0-1.64-1.15c-1.2.34-2.43.36-3.64.68-4.47,1.21-8.95,2.56-13.59,2.81-.45-2.29,1.54-3.48,1.84-5.29h0A5.08,5.08,0,0,0,23.22,163a28.15,28.15,0,0,1,3.71-4.73c.53-.5,2.11,0,1.61-1.56-.29-.92-.24-1.86-1.37-2.63-3.72-2.55-7.46-5.16-10.09-8.94-.76-1.1-1.09-2,1-2.14A98.65,98.65,0,0,0,39.26,139.55Z"></path><path class="cls-5" d="M176.55,94.13C186,84.88,194,73.9,206.43,67.45A7.31,7.31,0,0,1,204.58,73c-3.21,3.37-3.15,8-5.21,11.81a1.36,1.36,0,0,0-.14.84c.41,2.21,0,3.43-1.67,5.14S194.12,94,192.93,96l-8-3.71c.37,1.8,1.52,1.85,2.27,2.38,1.27.9,3.24,1,3.63,2.95a46.75,46.75,0,0,1-7.15,7.79c-.86.22-1.48-.49-2.25-.7-.23,1.16.76,1.58,1.12,2.31l-21.36,20.8a137,137,0,0,0-.85-17.54c-.12-1.33.22-1.54,1.45-1.65a33.33,33.33,0,0,0,10.43-2.14c2-.84,1.42-2,.61-2.8-1.11-1.11-3.12-2.33-2.88-3.45.29-1.33,2.23-2.3,3.44-3.44.28-.27.5-.59.75-.88,2.11,1,3.74,2.92,6.34,3.51C179.69,97,176.27,97,176.55,94.13Zm-9.83,26.29c.65-2.75-.94-5.17-1-7.78,0-.19-.6-.49-.92-.49-.47,0-.6.51-.52.86C164.82,115.55,165.21,118.16,166.72,120.42Z"></path><path class="cls-4" d="M44.43,186.17c2.31.51,4.31,2.57,7,1.36a.88.88,0,0,1,.79.25c4.06,4.6,10.17,4,15.27,5.93,4.91,1.86,10.24,2.19,15.35,3.3a132.44,132.44,0,0,0,21.65,2.76c5.33.26,10.63,1.38,16,1.47,7.11.11,14.22.61,21.36.23,4-.22,8.15-.27,12.16-.4,6.56-.2,13.23.19,19.75-1.08a5.7,5.7,0,0,1,1.44-.27c6.46.65,12.77-.91,19.11-1.57a136.09,136.09,0,0,0,18.3-3.35c4.29-1.05,8.86-.75,13.71-2.8-1.33,2.75-4.18,2.68-4.6,5h0c-1.08-.27-2.14-.52-2.63.91l-.75.09a1.54,1.54,0,0,0-1.54.43l-1.37.21c-1,0-1.93-.31-2.75.44-5,1.12-10,2-15,3-9.64,1.92-19.47,1.18-29.17,2.69a96.82,96.82,0,0,1-22.53.59c-4.18-.33-8.43,0-12.65,0-4.83-.05-9.6-.5-14.34-1s-9.44-1-14.16-1c-7.55-.07-14.81-1.85-22.16-3.12-3.24-.57-6.48-1.14-9.69-1.83-4.13-.89-7.88-2.89-11.86-4.23-4.57-1.55-9.22-2.86-13.74-4.54C45.92,189.08,43.13,189.12,44.43,186.17Z"></path><path class="cls-1" d="M260.42,175.49c-2.12-.21-4.27-.53-6.36-.63-3.2-.16-3.6-1.87-3.11-4.24a59.23,59.23,0,0,0,.87-15.11c-.26-4.87.6-9.71-.08-14.5a6.32,6.32,0,0,0-3.07-4.35c-.31-.19-.94-.06-1.08-.29-.65-1.1-3.15-.88-2.42-2.69.54-1.36,2.22-.71,3.51-.7a33.86,33.86,0,0,1,9.44,1.34c.51,1,1,2.11,1.54,3.13.19.34,0,.76,1,.8,4.55.19,9.08.87,13.62,1.27,1.73.15,1.44,1,.81,1.91-.94,1.32-2.66,2.19-3.43,3.24-2.63,3.6-6.07,6.3-9.14,9.39-.95,1-.93,1.54-.19,2.44s1.31,1.7,2,2.55a78.77,78.77,0,0,1,8.33,13.7c.75,1.56.42,2.29-1.5,2.22a59.77,59.77,0,0,1-8.12-1.08C261.69,173.66,260.28,173.38,260.42,175.49Zm10-32.69-8-1.9c-1.35-.32-2.28.07-1.84,1.57.64,2.22.32,4.46.48,6.68,0,.59-.44,1.49.53,1.7a1.49,1.49,0,0,0,1.49-.77C264.88,147.26,267.52,145.25,270.43,142.8ZM261,160.3c0,1.72.05,3,0,4.23-.09,1.64-.82,3.47-.3,4.85.73,1.92,3.29.1,4.66,1.36.68.62,1.33.27,1.81-.2a1.4,1.4,0,0,0,.05-1.89C265.23,166,264.15,162.78,261,160.3Z"></path><path class="cls-3" d="M176.55,94.13c-.28,2.85,3.14,2.91,3.95,5.31-2.6-.59-4.23-2.52-6.34-3.51-3.54-2.45-7.71-4-10.54-7.45-3-2.46-5.87-5-8.93-7.34-2.26-1.73-4.26-4-7.46-4.13-2-.31-3.51.67-5.09,1.76-9,6.23-16.61,14.42-26.75,19l-.57-.47c4.9-4,9.81-8,14.67-12,.93-.77,2.35-1.16,2.48-3-2.56.95-5,1.95-7.51,2.73-.82.26-2,1.52-2.55.41s1.08-1.31,1.81-1.74c4.41-2.6,8.88-5.12,13.32-7.67a6.41,6.41,0,0,0,.78-.71c-2.77-.69-5.24.55-7.86-.06l8.9-3.55a9.76,9.76,0,0,0,2.44-1c4-3.07,7.84-1.66,11.7.28,2.78,2.37,6.51,2.65,10.07,4.33-2.69,1.07-4.9-.94-7.36.15,4,3.11,8.47,5.16,12.8,7.41.55,1.25,3.29,1.08,2.6,2.42s-2.21-.7-3.49-.7c-.29,0-.58,0-.88,0a16.19,16.19,0,0,0-5.58-2.13c.84,2.29,3,2.58,4.14,3.91,2.76,2.34,5.48,4.72,8.28,7C174.4,94.2,175.31,95.18,176.55,94.13Z"></path><path class="cls-4" d="M195.54,126.3c-4.71,2.66-4.6,2.64-3.24,7.77.69,2.61,1.63,5.1,2.55,7.61.48,1.3.32,1.94-1.22,2.21-3,.54-6.07.39-9,1.42-.85.3-1.3-.3-1.53-.95-1.19-3.36-3.77-6.09-4.49-9.65-.46-2.31-1.56-3.18-3.93-2.37-.85.3-2.15.64-2.73-.21-.44-.64.13-1.7.6-2.46,2.21-3.59,3.4-7.64,5.13-11.45,1-2.23,2.19-2.6,4-1.3,2.31,1.6,4.47,3.46,6.88,4.88A41.94,41.94,0,0,1,195.54,126.3Z"></path><path class="cls-4" d="M101.62,126.43a16.71,16.71,0,0,1,5.48-3.75c3.47-1.44,5.69-4.65,9.11-6.16,1.23-.55,2.09-.71,2.71.67,2.08,4.6,4.21,9.17,6.21,13.8.82,1.89-.81,1.75-1.7,1.44-3.52-1.24-4.71.56-5.33,3.61s-3.09,5.28-4,8.24c-.25.8-.72,1.32-1.75,1-2.78-1-5.73-.83-8.59-1.29-1.54-.25-2.1-.84-1.36-2.34,1.71-3.45,2.1-7.36,3.84-10.81.67-1.32-.23-2.25-1.33-2.85S102.81,127,101.62,126.43Z"></path><path class="cls-1" d="M21.47,164.91c-.3,1.81-2.29,3-1.84,5.29,4.64-.25,9.12-1.6,13.59-2.81,1.21-.32,2.44-.34,3.64-.68a1.18,1.18,0,0,1,1.64,1.15c.06.85,0,1.67-1,1.79-4.81.6-9.19,3-14,3.46-3,.29-6,1-9.06.67-.66-.07-1.46.11-1.69-.78s-.31-1.63.53-2.11c4.33-2.46,5.48-7.4,8.48-10.93s2.56-3.77-1.12-6.7-5.88-7-9.33-10.08a2.24,2.24,0,0,1-.82-2.38c.38-.94,1.36-.57,2.09-.62,8.36-.61,16.7-1.26,24.87-3.28,1.19-.3,2.48-.81,3.54.38-.58.75-.59,1.92-1.7,2.27A98.65,98.65,0,0,1,18.09,143c-2.1.1-1.77,1-1,2.14,2.63,3.78,6.37,6.39,10.09,8.94,1.13.77,1.08,1.71,1.37,2.63.5,1.55-1.08,1.06-1.61,1.56A28.15,28.15,0,0,0,23.22,163a5.08,5.08,0,0,1-1.77,1.88.61.61,0,0,0-.09-.2s-.1,0-.15,0Z"></path><path class="cls-5" d="M95.53,125.89c.56,2.38,1.25,3.83,4.12,3.37,2.46-.39,3.33,1.11,2.57,3.55-.9,2.91-2,5.76-2.85,8.7-1.15,4.25-1.12,3.73,3.16,5.37a9.47,9.47,0,0,0,2.13.26c-.33.87-.61,1.53-1.63,1.09-1.79-.76-3.81-.57-5.6-1.13-2.67-.83-5.25.59-7.93-.17s-5.2-2.46-8.13-2.8c-.7-.08-.44-5,.35-5.69C86.26,134.28,90.83,130.15,95.53,125.89Z"></path><path class="cls-3" d="M260.42,175.49c-.14-2.11,1.27-1.83,2.56-1.6A59.77,59.77,0,0,0,271.1,175c1.92.07,2.25-.66,1.5-2.22a78.77,78.77,0,0,0-8.33-13.7c-.66-.85-1.29-1.72-2-2.55s-.76-1.48.19-2.44c3.07-3.09,6.51-5.79,9.14-9.39.77-1,2.49-1.92,3.43-3.24.63-.89.92-1.76-.81-1.91-4.54-.4-9.07-1.08-13.62-1.27-1,0-.78-.46-1-.8-.55-1-1-2.09-1.54-3.13,4.19.5,8.36,1.22,12.56,1.42,2.67.13,5.22,1.29,8.06.39,1.77-.57,1.9,1.08,1.55,2.49-.83,3.27-3.31,5.49-5.39,7.84a57.08,57.08,0,0,1-7.73,7.49c-1.72,1.32-1.1,3.68,1,4.42,2.25.8,3.44,2.89,4.53,4.6,2.32,3.63,4.51,7.35,6.86,11,.81,1.25-.55,1.85-1.3,2.11-2.14.75-4.14,1.84-6.71,1.2C267.91,176.35,264,177.06,260.42,175.49Z"></path><path class="cls-5" d="M119.9,104.47c.46,4.19,3.62,3.19,5.85,3.49,2.58.36,5.25,0,7.86,0,2,0,1.69.65,1.7,1.76,0,1.75-.29,3.54.28,5.24a1.51,1.51,0,0,1-.55,1.8c-3.23,2.72-5.21,6.62-8.8,9.21-1.75-3.87-3.47-7.7-5.21-11.52-1.36-3-1.86-2.7-4.7-1.15-6.5,3.54-12.07,8.47-18.61,11.9a1.06,1.06,0,0,1-1.4-.11ZM132.67,110a12.05,12.05,0,0,0-4.64,5.23c-.66,1.18-2.77,2.79-1.58,3.5,1.82,1.09,1.51-1.78,2.47-2.65a29.39,29.39,0,0,0,2.22-2.71A4.45,4.45,0,0,0,132.67,110Z"></path><path class="cls-5" d="M158.65,130.67c-5.33,5.39-10.91,10.33-16,16.28-1.5-2.82-2.88-5.35-4.2-7.91-.89-1.74-1.73-2.29-3.58-.86-4.43,3.42-9,6.67-13.61,9.82-1.64,1.12-1.55,2-.1,3.27h-4.1c3.74-4,7.18-7.69,10.65-11.35a65.28,65.28,0,0,0,5.13-5.27c2.32-3.1,5.23-3.59,8.86-3.37,4.61.29,9.31.43,13.81-1C156.72,129.89,157.54,130.94,158.65,130.67Z"></path><path class="cls-3" d="M140.08,152.46c-1.48-.39-2.09.36-2.6,1.82-2,5.78-2.08,5.71-8.21,4.63-2.11-.38-3.48-1-2.42-3.5.33-.8.33-1.75.7-2.52.81-1.63.31-2.61-1.32-3.14-2-.66-1.63-1.5-.23-2.46a66.93,66.93,0,0,0,7.7-5.81c1.68-1.53,3-1.18,4,1,1.23,2.64,2.57,5.25,4,7.78C142.83,152.19,142.4,152.87,140.08,152.46Z"></path><path class="cls-3" d="M163,161.34a9,9,0,0,0-1.47,0c-2.33.41-3.71-.32-3.63-2.9.07-2.28-1.41-2.48-3.14-2.37-1.57.1-2.37-.36-1.3-2,2.11-3.14,4.23-6.26,6.39-9.36.77-1.1,1.74-1.47,2.86-.41,3.09,2.93,6.21,5.83,9.26,8.8,1,1,.35,1.56-.76,1.71-2.42.33-3.22,1.51-2.26,3.85.69,1.69-.12,2.52-1.83,2.58-1.37,0-2.74,0-4.12,0Z"></path><path class="cls-5" d="M168.51,83c-4.33-2.25-8.79-4.3-12.8-7.41,2.46-1.09,4.67.92,7.36-.15-3.56-1.68-7.29-2-10.07-4.33.61-.56,1.18-1.11,2.16-.64,6.67,3.15,13.76,4.22,21.07,4.19a15.43,15.43,0,0,1,1.54.27C173.8,77.13,171.39,80.32,168.51,83Z"></path><path class="cls-5" d="M147.23,77c3.2.09,5.2,2.4,7.46,4.13,3.06,2.34,6,4.88,8.93,7.34-1.9,2-3.5,1.4-5.24-.38-2.82-2.87-6.28-5-9.38-7.54-1.66-1.36-2.83-1-4.12.23a27.66,27.66,0,0,0-3.67,4,5.58,5.58,0,0,1-3.88,2.45Z"></path><path class="cls-5" d="M216.6,148.93c2.18.16,3.35-1.77,5.05-2.61a6.78,6.78,0,0,1,3.2-.92,4.84,4.84,0,0,0-.3.8c-1.08,6.46-1.07,6.47-7.78,7.53-.54.08-1,.74-1.8.16C215.89,152.38,216.07,150.6,216.6,148.93Z"></path><path class="cls-3" d="M51,144.24c2.47.55,3.82-1.46,5.59-2.47.66-.37,1.1-1.1,2-1.06.29,1.8.56,3.59.86,5.38s.43,3.28-2.19,2.32c-1.73-.63-3.52-1.1-5.25-1.75C50.94,146.24,50.81,145.28,51,144.24Z"></path><path class="cls-3" d="M103.17,105.16a108,108,0,0,1-13.49,11.3l-.65-.73,13.48-11.32Z"></path><path class="cls-3" d="M190.85,97.63c-.39-2-2.36-2-3.63-2.95-.75-.53-1.9-.58-2.27-2.38l8,3.71c1.58,1.89,4.34,1.8,6.34,3.6-2,.81-3.12-.43-4.43-.93S192.48,96.88,190.85,97.63Z"></path><path class="cls-3" d="M105.81,92.83c.13.57-.33.86-.75,1a74.45,74.45,0,0,0-10.33,5.19c-.44.3-.91.55-1.21,0a1.09,1.09,0,0,1,.35-1q5.43-2.88,10.9-5.66C105.13,92.21,105.74,91.92,105.81,92.83Z"></path><path class="cls-1" d="M218,157.34a12.25,12.25,0,0,1-4,3.24c-2.24,1.42-3.88-.41-5.53-1.64Z"></path><path class="cls-3" d="M185,107.62c2.88,1.06,4.09,4.5,7.28,5.17.06,0,1.05,1.48.23,2.32-1,1.09-1.22-.28-1.66-.69-2-1.92-4-3.88-6-5.83C184.91,108.27,185,108,185,107.62Z"></path><path class="cls-3" d="M240.82,145.4c-2.66-1.08-5.35.46-8.27-.11a5.54,5.54,0,0,1,3.23-1c4.48-.18,4.48-.2,4.67-4.79C241.52,141.41,240.77,143.43,240.82,145.4Z"></path><path class="cls-1" d="M165.3,86.53c-1.16-1.33-3.3-1.62-4.14-3.91a16.19,16.19,0,0,1,5.58,2.13Z"></path><path class="cls-3" d="M185,107.62c-.05.33-.09.65-.14,1L182.57,107c-.36-.73-1.35-1.15-1.12-2.31.77.21,1.39.92,2.25.7C183.26,106.67,185.12,106.56,185,107.62Z"></path><path class="cls-1" d="M219,197.88c.49-1.43,1.55-1.18,2.63-.91A2.44,2.44,0,0,1,219,197.88Z"></path><path class="cls-3" d="M113.09,98.5l1.73-1.17.57.47a2.35,2.35,0,0,1-1.82,1.14Z"></path><path class="cls-1" d="M212.58,199.05c.82-.75,1.8-.47,2.75-.44A2.67,2.67,0,0,1,212.58,199.05Z"></path><path class="cls-3" d="M113.57,98.94c-.25.45-.55.76-1.1.4l.62-.84Z"></path><path class="cls-1" d="M216.7,198.4a1.54,1.54,0,0,1,1.54-.43C217.88,198.66,217.29,198.54,216.7,198.4Z"></path><path class="cls-2" d="M222.76,74.42a1.32,1.32,0,0,1-1.15,1.39C221.89,75.26,222,74.54,222.76,74.42Z"></path><path class="cls-3" d="M166.72,120.42c-1.51-2.26-1.9-4.87-2.44-7.41-.08-.35.05-.87.52-.86.32,0,.91.3.92.49C165.78,115.25,167.37,117.67,166.72,120.42Z"></path><path class="cls-4" d="M270.43,142.8c-2.91,2.45-5.55,4.46-7.36,7.28a1.49,1.49,0,0,1-1.49.77c-1-.21-.49-1.11-.53-1.7-.16-2.22.16-4.46-.48-6.68-.44-1.5.49-1.89,1.84-1.57Z"></path><path class="cls-4" d="M261,160.3c3.16,2.48,4.24,5.73,6.21,8.35a1.4,1.4,0,0,1-.05,1.89c-.48.47-1.13.82-1.81.2-1.37-1.26-3.93.56-4.66-1.36-.52-1.38.21-3.21.3-4.85C261,163.28,261,162,261,160.3Z"></path><path class="cls-4" d="M21.47,164.91l-.26-.23c.05,0,.12,0,.15,0a.61.61,0,0,1,.09.2Z"></path><path class="cls-3" d="M132.67,110a4.45,4.45,0,0,1-1.53,3.37,29.39,29.39,0,0,1-2.22,2.71c-1,.87-.65,3.74-2.47,2.65-1.19-.71.92-2.32,1.58-3.5A12.05,12.05,0,0,1,132.67,110Z"></path></g></g><g><path class="cls-6" d="M162.13,178.51a3,3,0,0,1,2.46,1.79c.18.37.38.75-.2,1-.42.17-.73.31-1.08-.24a2,2,0,0,0-2.73-1,1.66,1.66,0,0,0-1.18,1.51,1.49,1.49,0,0,0,1,1.57c.63.23,1.29.4,1.94.58,2,.57,2.76,1.38,2.73,3a3.9,3.9,0,0,1-3,3.75,3.46,3.46,0,0,1-4.41-2.24c-.25-.68,0-.89.55-1.16s.69.1.89.5a2.25,2.25,0,0,0,3,1.23,1.94,1.94,0,0,0,1.45-1.84c0-1-.63-1.39-1.45-1.63-.58-.17-1.16-.31-1.72-.5-2-.69-2.83-1.88-2.51-3.63S159.62,178.49,162.13,178.51Z"></path><path class="cls-6" d="M187.42,176.5a3,3,0,0,1,2.8,1.89c.22.49.32.88-.31,1.16s-.8.12-1-.45a1.77,1.77,0,0,0-2.3-1A2,2,0,0,0,185,180c-.08,1,.62,1.57,1.56,1.81.77.2,1.55.37,2.31.61a2.43,2.43,0,0,1,1.89,2.21,2.51,2.51,0,0,1-1.54,2.71,6.55,6.55,0,0,1-3.94.65,2.25,2.25,0,0,1-1.72-1.16c-.16-.31-.58-.72,0-1,.42-.21.83-.6,1.31.1a2.68,2.68,0,0,0,3.87.36,1.33,1.33,0,0,0-.32-2.33,14.09,14.09,0,0,0-2-.51c-2.26-.58-3.15-1.69-2.94-3.66A3.72,3.72,0,0,1,187.42,176.5Z"></path><path class="cls-6" d="M124.85,182.06c0,1-.51,1.18-1.36,1.21s-1.45.92-1.49,1.88c-.07,1.32-.08,2.64-.09,4,0,.5-.07.83-.71.81s-.63-.32-.63-.78c0-2.2.05-4.39,0-6.59,0-1,1-.81,1.08-.59.48.79.88.25,1.33.11a1.88,1.88,0,0,1,1.71,0c.54.35,1.08-.14,1.66-.14.92,0,.42-.82.48-1.28s0-.88.66-.86.83.23.75.79c-.16,1.07.13,1.68,1.36,1.48.57-.09.62.3.63.75s-.32.59-.7.51c-1.22-.25-1.35.41-1.29,1.39s0,1.67,0,2.51.29,1.53,1.3,1.42c.68-.07.69.31.72.78s-.06.81-.64.92a2.37,2.37,0,0,1-2.77-2.53c0-1.19,0-2.4,0-3.59,0-.7-.13-1.15-.89-1C125.07,183.49,125.36,182.52,124.85,182.06Z"></path><path class="cls-6" d="M148.9,186.26c0,1.2,0,2.4,0,3.6,0,.35,0,.77-.48.86s-.71.14-.93-.3-.63-.25-1-.07c-2,1-3.59.36-4.42-1.69a6.25,6.25,0,0,1-.28-3.77,3.43,3.43,0,0,1,4.87-2.53c.42.17.71.42,1.23-.07s1.24-.18,1.25.74c0,1.08,0,2.16,0,3.24Zm-5.92-.14c-.07,1.67.88,3,2.16,3.08s2.55-1.37,2.58-3a2.54,2.54,0,0,0-2.21-2.78A2.58,2.58,0,0,0,143,186.12Z"></path><path class="cls-6" d="M108.23,188.89c-.62,0-1-.08-1.27-.72-1.14-3.2-2.57-6.28-3.52-9.54-.09-.3-.7-.85.06-1a1,1,0,0,1,1.38.72c.73,2.27,1.58,4.51,2.42,6.75.12.34.14.91.64.9s.47-.58.59-.93c.74-2.06,1.51-4.12,2.12-6.23.26-.89.8-.76,1.36-.66.82.16.25.72.16,1-1,3.06-2.12,6.11-3.17,9.16C108.85,188.77,108.69,189.08,108.23,188.89Z"></path><path class="cls-6" d="M173.45,185.35c-.06.85-.14,2.16-.22,3.47,0,.32,0,.69-.45.69-.31,0-.71.32-.9-.24s-.49-.2-.72-.05c-3.33,2.05-5.26-.52-5.21-3.17,0-2.46,1.22-4.28,3.08-4.68a3.48,3.48,0,0,1,1.64.08c.61.15,1.23,1.06,1.8-.14a.61.61,0,0,1,1,.59C173.41,182.89,173.45,183.89,173.45,185.35Zm-6.12.43c0,1.58.82,2.73,2,2.75a3,3,0,0,0,2.71-3,2.52,2.52,0,0,0-2.2-2.8C168.45,182.72,167.38,184,167.33,185.78Z"></path><path class="cls-6" d="M182,184.53c0,1,0,2.07,0,3.11s-.72,1.42-1.36.91c-.47-.37-.66-.17-1,0-3,1.52-5.2.08-5-3.28a5.32,5.32,0,0,1,1.28-3.39,3.2,3.2,0,0,1,3-1.07c.75.09,1.45,1,2.28-.07.29-.37.95-.11.91.68-.05,1,0,2.07,0,3.11Zm-1.33.43c0-1.54-.88-2.7-2.08-2.72-1.52,0-2.6,1.32-2.6,3.22,0,1.46.81,2.43,2,2.45A2.81,2.81,0,0,0,180.69,185Z"></path><path class="cls-6" d="M112.18,185.5c0-2.44,1.43-4,3.36-4a3.75,3.75,0,0,1,3.92,3.54c.06.73-.11,1-.9.94-1.27-.13-2.55-.16-3.83-.21-.34,0-.76-.16-1,.22s0,.78.26,1.1a2.37,2.37,0,0,0,3.53.67c.35-.24.57-.5,1-.06s.18.78-.13,1.12a3.08,3.08,0,0,1-3.83.51A4.72,4.72,0,0,1,112.18,185.5Zm3.58-.94v0c.55,0,1.11.05,1.67.1.74.07.7-.27.43-.77a2.29,2.29,0,0,0-3.64-.59c-.28.28-.66.59-.49,1s.63.17,1,.21A9.53,9.53,0,0,0,115.76,184.56Z"></path><path class="cls-6" d="M134.18,186.19a4,4,0,0,1,2.33-4,3.36,3.36,0,0,1,3.79.62c.34.29.87.59.36,1.15s-.79.52-1.33,0a2,2,0,0,0-3.06.17,3.28,3.28,0,0,0,.35,4.52,1.86,1.86,0,0,0,2.67-.24c.35-.35.56-.71,1.12-.17s.28.87-.07,1.28a3.08,3.08,0,0,1-5.16-.18A5.5,5.5,0,0,1,134.18,186.19Z"></path><path class="cls-6" d="M150.64,183.81c0-1.52,0-3,0-4.55,0-.44-.21-.95.62-.94s.75.35.76.88c.08,2.71.09,5.42,0,8.13,0,.75-.15,1.58,1,1.62.55,0,.33.53.37.84a.71.71,0,0,1-.63.85c-1.12.28-2.11-.54-2.16-1.93-.06-1.63,0-3.27,0-4.9Z"></path><path class="cls-6" d="M131.72,186.17c0-1.11,0-2.23,0-3.34,0-.49.12-.72.66-.73s.77.19.75.76c-.08,2.26-.11,4.53-.17,6.8,0,.44,0,.9-.69.85s-.68-.48-.67-1c0-1.11,0-2.23,0-3.34Z"></path><path class="cls-6" d="M133.14,179.86c0,.5-.27.83-.71.85s-.79-.33-.8-.84a.66.66,0,0,1,.61-.76A.84.84,0,0,1,133.14,179.86Z"></path><path class="cls-3" d="M143,186.12a2.58,2.58,0,0,1,2.53-2.74,2.54,2.54,0,0,1,2.21,2.78c0,1.67-1.26,3.11-2.58,3S142.91,187.79,143,186.12Z"></path><path class="cls-3" d="M167.33,185.78c0-1.78,1.12-3.06,2.56-3a2.52,2.52,0,0,1,2.2,2.8,3,3,0,0,1-2.71,3C168.15,188.51,167.29,187.36,167.33,185.78Z"></path><path class="cls-3" d="M180.69,185a2.81,2.81,0,0,1-2.65,2.95c-1.22,0-2-1-2-2.45,0-1.9,1.08-3.24,2.6-3.22C179.81,182.26,180.7,183.42,180.69,185Z"></path><path class="cls-3" d="M115.76,184.56a9.53,9.53,0,0,1-1.07,0c-.33,0-.81.19-1-.21s.21-.72.49-1a2.29,2.29,0,0,1,3.64.59c.27.5.31.84-.43.77-.56,0-1.12-.07-1.67-.1Z"></path></g></svg>