<svg xmlns="http://www.w3.org/2000/svg" id="Layer_1" data-name="Layer 1" viewBox="0 0 181 181"><defs><style>.cls-1{fill:#fff;}.cls-2{fill:#151616;}.cls-3{fill:#858484;}</style></defs><path class="cls-1" d="M0,90.32Q0,45.91,0,1.5C0,.31.18,0,1.46,0q89,.08,178,0c1.38,0,1.54.37,1.54,1.6q-.06,88.91,0,177.81c0,1.25-.2,1.59-1.55,1.59q-88.9-.06-177.82,0C.21,181,0,180.61,0,179.31Q.06,134.8,0,90.32ZM97.65,73.08c-1.43,2.22-3.73,3.35-5.9,4.64a1.93,1.93,0,0,1-2.15.1c-2.11-1.27-4.4-2.28-5.87-4.4-.57-1.36-1.11-2.75-2.57-3.44a3.48,3.48,0,0,0-1-1.61.77.77,0,0,0-.48-.91l-.27-.52c0-.59.27-1.27-.52-1.6a.6.6,0,0,0-.16-.22c-.67-1.62-2.09-2.93-2.05-4.85a.71.71,0,0,0-.52-.64l-.19-1.81c.32-.32.21-.55-.15-.72L75,55.4c-.54-1,0-2.18-.72-3.12L73.93,50a1.12,1.12,0,0,0-.16-1.2V47.4c.29-.12.35-.28.08-.49-.25-.45-.79-.81-.47-1.44.62-.14.86-.44.43-1l0-.61a11.27,11.27,0,0,0,.48-4.08l-.07-.64a.32.32,0,0,0-.14-.49L74,38a.34.34,0,0,0-.17-.49,1.93,1.93,0,0,1-.37-1.32.81.81,0,0,0,0-1.2l-.06-.66.34-1.43c3.76-2.75,5.68-6.47,3-11.75-1.4-2.83-5.83-4.46-8.46-2.72-3,2-6.08,4.14-6.16,8.25,0,1.82.08,3.77,1.66,5.26.75.71,2.09,1.29,2,2.48-.4,3.65.68,7.25.2,10.87a23.07,23.07,0,0,0,.43,6.83A54.75,54.75,0,0,0,68.62,62.2c1.87,5.14,4,10.26,7.59,14.57a20.8,20.8,0,0,0,5.87,5.35c2.4,1.28,4.26,3.13,3.85,5.87s-.15,5.32-.29,8c-.24,4.53-3.25,6.91-6.19,9.2-2.49,2-5.94,2.09-9,3A33.74,33.74,0,0,1,61,109.45c-2,0-3.68,1.25-5.62,1.49a13.4,13.4,0,0,0-5.49,1.37c-2.59,1.56-5.69,1.77-8.3,3.53-1.59,1.07-3.17,2.57-5.25,3-.34.07-.84.55-.84.84,0,1.73-1.47,2.19-2.51,3a17,17,0,0,0-5.34,7,23.06,23.06,0,0,0-2.12,7.63,30.87,30.87,0,0,0,.24,6c.49,3.85,3.41,6.6,5.31,9.81a4.81,4.81,0,0,0,1.52,1.7c2.81,1.63,5.28,3.75,8.54,4.73s6.7,2.55,10.22,2.91c5,.51,9.95,1.45,15,.4a24.73,24.73,0,0,0,6.12-1.65c2.43-1.2,5-2.1,7.5-3.09,3-1.19,5.95-2.49,8.76-3.88,3.83-1.89,7.45-4.26,11.46-5.83,1.68-.65,2.9-2,4.68-2.53A84.54,84.54,0,0,0,114.4,142a14.46,14.46,0,0,1,3.8-1.59c2.1-.29,4.26-.2,6.39-.35,1.09-.08,1.75.42,1.51,1.4-.47,2,1.12,3.55.8,5.48-.09.52.47,1.07,1.19,1.15.27,0,.69,0,.7.39.07,2.33,2.15,3.09,3.53,4.25,1.67,1.39,3.58,2.67,6,2.57a17.55,17.55,0,0,0,12.33-5.65c5.08-5.3,4.75-10.35,1.79-15.86a13.35,13.35,0,0,0-1.72-2.26c-2.31-2.66-5.18-4.36-8.76-4a20.75,20.75,0,0,0-11.21,4.57,2.78,2.78,0,0,1-2.61.57c-2.44-.5-5.1-1-7.38-.42-3.66,1-7.48,1.72-10.84,3.65a4.7,4.7,0,0,1-.91.37,36.77,36.77,0,0,0-5.18,1.89c-3.81,1.93-7.86,3.39-11.45,5.73-1.53,1-3.55.85-4.94,2a29.16,29.16,0,0,1-9.88,5.16c-3.23,1.06-6.26,2.63-9.58,3.54-2.8.77-5.56.42-8.31.84-1.14.18-2.19-.93-3.06-.62-2.82,1-5.34-.18-8-.7s-4.46-2.38-7-2.67a4,4,0,0,1-2.62-1.64,56.45,56.45,0,0,0-4-4.07,2,2,0,0,1-.85-1.87,1.55,1.55,0,0,0-.29-1.36c-1-1-.91-2.25-.86-3.5a14.33,14.33,0,0,1,1.7-6.05c1.43-2.83,2.09-6.1,5.57-7.32a.81.81,0,0,0,.42-.32c1-2.08,3.31-2.46,5-3.36,4.74-2.58,10.14-3.7,15.35-4.93a59.82,59.82,0,0,1,7.77-1.42A43.47,43.47,0,0,0,79,113.34c4.69-1.65,8.11-5.15,11.43-8.68a2.84,2.84,0,0,0,.7-2.51,2.41,2.41,0,0,1,.39-1.87c2.74-2.3,1.89-5.66,2.28-8.48.26-1.82.65-4-.22-6-.29-.64.4-.77.81-1a26.36,26.36,0,0,0,6.85-4.43c3-2.66,5.67-5.48,7.22-9.3s4.18-7.42,4.82-11.84c.6-4.14,2.31-8.19,2-12.39s.6-8.33.06-12.48c-.07-.59.29-.8.68-1.12,3.35-2.75,3.72-6,2.2-9.46a9.86,9.86,0,0,0-8.06-6,5.42,5.42,0,0,0-4.81,1.59,8.59,8.59,0,0,0,.9,12.39A4,4,0,0,1,107.42,37c-1,2.58-.17,5,0,7.41a5.7,5.7,0,0,1-.1,2.93c0,1.59-.88,3.09-.44,4.71l-.06.63c-.6.46-.68.86.11,1.17l-.45,1a1.61,1.61,0,0,0-.94,1.57l-.15.6c-.53.28-.52.7-.26,1.16l-.06.68a6,6,0,0,0-.78,3.43l-.55,1.36A1.27,1.27,0,0,0,102.57,65l-.51.63c-.52.43-.45,1-.49,1.61a.79.79,0,0,0-.1.27c-.54.17-.64.62-.71,1.1l-.71,1.08A6.07,6.07,0,0,0,97.65,73.08Z"></path><path class="cls-2" d="M73.44,36.21a1.93,1.93,0,0,0,.37,1.32A.31.31,0,0,0,74,38l.15.61a.32.32,0,0,0,.14.49l.07.64c-1,1.26-.77,2.67-.48,4.08l0,.61a.76.76,0,0,0-.43,1c-.32.63.22,1,.47,1.44,0,.16,0,.32-.08.49v1.35a1,1,0,0,0,.16,1.2l.35,2.33c-.84,1.29-.29,2.26.72,3.12l.77,1.7c-.36.33-.16.54.15.72l.19,1.81a5.78,5.78,0,0,0,2.57,5.49.6.6,0,0,1,.16.22c0,.57-.26,1.26.52,1.6l.28.52c-.19.49,0,.76.47.91a3.48,3.48,0,0,1,1,1.61c-.26.53-1.56,1.26-.56,1.53,1.35.35,2,1.47,3.13,1.91,1.47,2.12,3.76,3.13,5.87,4.4a1.93,1.93,0,0,0,2.15-.1c2.17-1.29,4.47-2.42,5.9-4.64.73-.17,1.08-1.08,1.67-1.18,1.83-.3,1.47-1.13.73-2.19l.71-1.08a.84.84,0,0,0,.71-1.1.79.79,0,0,1,.1-.27c.85-.33.72-1,.49-1.61l.51-.63a1.69,1.69,0,0,0,1.16-1.37l.55-1.36c1.33-.9,1.15-2.15.78-3.43l.06-.68a.9.9,0,0,0,.26-1.16l.15-.6a1.71,1.71,0,0,0,.94-1.57l.45-1c1.26-.51-.07-.78-.11-1.17l.06-.63c.46-1.54,1-3.08.44-4.71a5.7,5.7,0,0,0,.1-2.93c-.16-2.44-1-4.83,0-7.41a4,4,0,0,0-1.25-5.16,8.59,8.59,0,0,1-.9-12.39,5.42,5.42,0,0,1,4.81-1.59,9.86,9.86,0,0,1,8.06,6c1.52,3.42,1.15,6.71-2.2,9.46-.39.32-.75.53-.68,1.12.54,4.15-.41,8.29-.06,12.48s-1.36,8.25-2,12.39c-.64,4.42-3.21,7.9-4.82,11.84s-4.2,6.64-7.22,9.3a26.36,26.36,0,0,1-6.85,4.43c-.41.18-1.1.31-.81,1,.87,2,.48,4.15.22,6-.39,2.82.46,6.18-2.28,8.48a2.41,2.41,0,0,0-.39,1.87,2.84,2.84,0,0,1-.7,2.51c-3.32,3.53-6.74,7-11.43,8.68a43.47,43.47,0,0,1-10.2,2.28A59.82,59.82,0,0,0,61,117c-5.21,1.23-10.61,2.35-15.35,4.93-1.67.9-4,1.28-5,3.36a.81.81,0,0,1-.42.32c-3.48,1.22-4.14,4.49-5.57,7.32A14.33,14.33,0,0,0,33,139c0,1.25-.11,2.48.86,3.5a1.55,1.55,0,0,1,.29,1.36,2,2,0,0,0,.85,1.87,56.45,56.45,0,0,1,4,4.07,4,4,0,0,0,2.62,1.64c2.59.29,4.56,2.16,7,2.67s5.13,1.69,8,.7c.87-.31,1.92.8,3.06.62,2.75-.42,5.51-.07,8.31-.84,3.32-.91,6.35-2.48,9.58-3.54a29.16,29.16,0,0,0,9.88-5.16c1.39-1.19,3.41-1,4.94-2,3.59-2.34,7.64-3.8,11.45-5.73a36.77,36.77,0,0,1,5.18-1.89,4.7,4.7,0,0,0,.91-.37c3.36-1.93,7.18-2.67,10.84-3.65,2.28-.62,4.94-.08,7.38.42a2.78,2.78,0,0,0,2.61-.57,20.75,20.75,0,0,1,11.21-4.57c3.58-.33,6.45,1.37,8.76,4a13.35,13.35,0,0,1,1.72,2.26c3,5.51,3.29,10.56-1.79,15.86a17.55,17.55,0,0,1-12.33,5.65c-2.37.1-4.28-1.18-6-2.57-1.38-1.16-3.46-1.92-3.53-4.25,0-.4-.43-.36-.7-.39-.72-.08-1.28-.63-1.19-1.15.32-1.93-1.27-3.52-.8-5.48.24-1-.42-1.48-1.51-1.4-2.13.15-4.29.06-6.39.35a14.46,14.46,0,0,0-3.8,1.59,84.54,84.54,0,0,1-9.57,3.84c-1.78.57-3,1.88-4.68,2.53-4,1.57-7.63,3.94-11.46,5.83-2.81,1.39-5.8,2.69-8.76,3.88-2.49,1-5.07,1.89-7.5,3.09a24.73,24.73,0,0,1-6.12,1.65c-5,1-10,.11-15-.4-3.52-.36-6.83-1.89-10.22-2.91s-5.73-3.1-8.54-4.73a4.81,4.81,0,0,1-1.52-1.7c-1.9-3.21-4.82-6-5.31-9.81a30.87,30.87,0,0,1-.24-6,23.06,23.06,0,0,1,2.12-7.63,17,17,0,0,1,5.34-7c1-.77,2.5-1.23,2.51-3,0-.29.5-.77.84-.84,2.08-.39,3.66-1.89,5.25-3,2.61-1.76,5.71-2,8.3-3.53a13.4,13.4,0,0,1,5.49-1.37c1.94-.24,3.57-1.51,5.62-1.49a33.74,33.74,0,0,0,9.48-1.36c3.05-.86,6.5-1,9-3,2.94-2.29,6-4.67,6.19-9.2.14-2.63-.1-5.28.29-8s-1.45-4.59-3.85-5.87a20.8,20.8,0,0,1-5.87-5.35c-3.58-4.31-5.72-9.43-7.59-14.57a54.75,54.75,0,0,1-2.21-10.06A23.07,23.07,0,0,1,66,45.31c.48-3.62-.6-7.22-.2-10.87.13-1.19-1.21-1.77-2-2.48-1.58-1.49-1.7-3.44-1.66-5.26.08-4.11,3.16-6.26,6.16-8.25,2.63-1.74,7.06-.11,8.46,2.72,2.63,5.28.71,9-3,11.75-1,.25-.78.82-.34,1.43l.06.66A1.44,1.44,0,0,0,73.44,36.21Zm72.89,105c.3-1.68-.79-2.65-2.09-3.35-.54-.28-.7-1.49-1.69-.82a6.54,6.54,0,0,1-3.1.69,4.34,4.34,0,0,0-3.54,3.78,3.64,3.64,0,0,0,1.45,3.79c2.29,1.76,5.41,1.34,7.61-1.13C145.71,143.38,146.58,142.6,146.33,141.25Z"></path><path class="cls-3" d="M83.73,73.42C82.59,73,82,71.86,80.6,71.51c-1-.27.3-1,.56-1.53C82.62,70.67,83.16,72.06,83.73,73.42Z"></path><path class="cls-3" d="M78.68,65.12a5.78,5.78,0,0,1-2.57-5.49.71.71,0,0,1,.52.64C76.59,62.19,78,63.5,78.68,65.12Z"></path><path class="cls-3" d="M100.05,69.71c.74,1.06,1.1,1.89-.73,2.19-.59.1-.94,1-1.67,1.18A6.07,6.07,0,0,1,100.05,69.71Z"></path><path class="cls-3" d="M73.86,43.84c-.29-1.41-.55-2.82.48-4.08A11.27,11.27,0,0,1,73.86,43.84Z"></path><path class="cls-3" d="M107.31,47.34c.52,1.63,0,3.17-.44,4.71C106.43,50.43,107.32,48.93,107.31,47.34Z"></path><path class="cls-3" d="M105.06,58.86c.37,1.28.55,2.53-.78,3.43A6,6,0,0,1,105.06,58.86Z"></path><path class="cls-3" d="M75,55.4c-1-.86-1.56-1.83-.72-3.12C75,53.22,74.46,54.43,75,55.4Z"></path><path class="cls-3" d="M106.81,52.68c0,.39,1.37.66.11,1.17C106.13,53.54,106.21,53.14,106.81,52.68Z"></path><path class="cls-3" d="M73.39,34.35c-.44-.61-.71-1.18.34-1.43C73.62,33.4,73.5,33.88,73.39,34.35Z"></path><path class="cls-3" d="M106.47,54.85a1.71,1.71,0,0,1-.94,1.57A1.61,1.61,0,0,1,106.47,54.85Z"></path><path class="cls-3" d="M103.73,63.65A1.69,1.69,0,0,1,102.57,65,1.27,1.27,0,0,1,103.73,63.65Z"></path><path class="cls-3" d="M79.36,66.94c-.78-.34-.48-1-.52-1.6C79.63,65.67,79.37,66.35,79.36,66.94Z"></path><path class="cls-3" d="M102.06,65.65c.23.65.36,1.28-.49,1.61C101.61,66.69,101.54,66.08,102.06,65.65Z"></path><path class="cls-3" d="M73.38,45.47a.76.76,0,0,1,.43-1C74.24,45,74,45.33,73.38,45.47Z"></path><path class="cls-3" d="M105.38,57a.9.9,0,0,1-.26,1.16C104.86,57.72,104.85,57.3,105.38,57Z"></path><path class="cls-3" d="M101.47,67.53a.84.84,0,0,1-.71,1.1C100.83,68.15,100.93,67.7,101.47,67.53Z"></path><path class="cls-3" d="M75.92,57.82c-.31-.18-.51-.39-.15-.72C76.13,57.27,76.24,57.5,75.92,57.82Z"></path><path class="cls-3" d="M80.11,68.37c-.45-.15-.66-.42-.47-.91A.78.78,0,0,1,80.11,68.37Z"></path><path class="cls-3" d="M73.44,36.21a1.44,1.44,0,0,1,0-1.2A.81.81,0,0,1,73.44,36.21Z"></path><path class="cls-3" d="M73.93,50a1,1,0,0,1-.16-1.2A1.12,1.12,0,0,1,73.93,50Z"></path><path class="cls-3" d="M74,38a.31.31,0,0,1-.17-.49A.34.34,0,0,1,74,38Z"></path><path class="cls-3" d="M74.27,39.12a.32.32,0,0,1-.14-.49A.32.32,0,0,1,74.27,39.12Z"></path><path class="cls-3" d="M73.77,47.4c0-.17,0-.33.08-.49C74.12,47.12,74.06,47.28,73.77,47.4Z"></path><path class="cls-1" d="M146.33,141.25c.25,1.35-.62,2.13-1.36,3-2.2,2.47-5.32,2.89-7.61,1.13a3.64,3.64,0,0,1-1.45-3.79,4.34,4.34,0,0,1,3.54-3.78,6.54,6.54,0,0,0,3.1-.69c1-.67,1.15.54,1.69.82C145.54,138.6,146.63,139.57,146.33,141.25Z"></path></svg>