<svg xmlns="http://www.w3.org/2000/svg" id="Layer_1" data-name="Layer 1" viewBox="0 0 287 302"><defs><style>
      .cls-1 {
        fill: #aecde9;
      }

      .cls-2 {
        fill: #f7f7f7;
      }

      .cls-3 {
        fill: #fff;
      }

      .cls-4 {
        fill: #151719;
      }

      .cls-5 {
        fill: #332f30;
      }

      .cls-6 {
        fill: #f5f5f5;
      }
    </style></defs><g><path class="cls-1" d="M74.69,299.54a85.81,85.81,0,0,1-12.33-1.44c-.61-.12-1.21-.22-1.82-.3s-1.65.38-1.76-.89c-.11-1.46,1-1.24,1.56-1.35,2.08-.38,4.17-.63,6.25-.86,3.27-.36,6.56-.61,9.82-.66,8.93-.14,17.86-1.08,26.8-.79,6.61.21,13.24-.25,19.85-.3,10.59-.08,21.19-.35,31.77,0,6.1.2,12.21-.11,18.32.61a51.81,51.81,0,0,0,10.17.51c5.11-.41,10.2.12,15.28.4,5.63.32,11.27.46,16.9,1.15,3.39.42,6.82.76,10.23,1,.92.07,2.48-.14,2.49,1.37s-1.54,1.14-2.38,1.16c-6,.15-11.88,1.29-17.85,1.57q-10.61.5-21.24.84c-13.14.42-26.29.48-39.44.27-5.17-.08-10.38.28-15.55-.05-7.32-.46-14.65-.21-22-.6-4.88-.25-9.79-.31-14.69-.48A202.26,202.26,0,0,1,74.69,299.54Z"></path><g><path d="M66.93,200.21c-4.79-2.71-10.17-3.7-15.36-5.26-2.72-1.73-6.18-1.62-8.83-3.53-1.84-2.24-4.24-4.31-2.47-7.69.68-1.31-.84-3.07,1-4.3.22-.15-1.83-1.94-2.8-1.43-6,3.17-12.5,2.07-18.78,2.86L15,181c-3.71-1-7.44.65-11.19-.1-1.29-.26-1.38-.63-1.06-1.7,2.58-8.66,8-15.4,14.51-21.81-4.3-2.69-7.38-6.81-10.84-10.54C3.73,144,2,140.48.41,137c-1.24-2.65.47-4.3,3.32-4.37,7-.19,14,.23,21.07-1a101.34,101.34,0,0,1,19.07-2.12c1.77,0,3.07,1.19,4.73,1.3A46.88,46.88,0,0,1,51,144.24c-.22,1-.1,2,1,2.41,1.63.64,3.29,1.2,5,1.74,2.18.72,3,.06,2.48-2.31-.42-1.76-.6-3.58-.88-5.37,1-3.67.39-7.44.68-11.15l0,0c.62-.23.52-.56.16-1-.57-1.74,1.71-3.25.39-5,.83-4.78,1.61-9.55,3.57-14.09.94-2.18,2.7-3.94,3.13-6.35,2.11-1.94,2.82-4.73,4.25-7.08,2-1.37,1.43-3.71,1.79-5.53a15.42,15.42,0,0,0-5-15.29c-.79-2-2.65-3.17-4.07-4.66-2.84-3-2.77-5.34-.74-8.75,1.55-2.63,4.61-4,5.45-7,1.77.13,1.63-1.64,2.45-2.45,2.1-2.11,2.52-6.36,7-5.46,4.25,2.59,8.52,5.14,12.74,7.79a3.42,3.42,0,0,0,2.22.46c3.9-.41,7.33,1.35,11,2.2a27,27,0,0,0,8.81.75c4-.1,7.67-1.56,11.51-2.32.51-.1,1.43-.14,1.52-1.07a21,21,0,0,0,6.5-2.85,7.42,7.42,0,0,0,.83-.3c5.71-2.67,11.12-6.4,18-5.1,1.36,1.55,1.87,4,4.44,4.27,2.8,2,6.22,2.64,9.09,4.41a7.69,7.69,0,0,0,5.41,1.26c2.3.78,4.57,1.73,7.07,1.72,2.43,1,4.81-.1,7.14-.42,3.53-.48,6.94-2.33,10.36-2.58,3.11-.22,5.94-.28,8.49-2.17,2.69-2.5,6.19-3.7,9.19-5.72,1.8-1.21,3.71-.3,4.9,1.8A51.32,51.32,0,0,0,220,53.61c-.06.18-.22.47-.16.53a64.11,64.11,0,0,1,8.07,9.34c1.36,2.78.12,5-1.63,7-1.14,1.34-2.94,2.08-3.52,3.93h0c-.8.12-.87.83-1.15,1.38-4.44,4.08-5.72,9.11-4.48,14.89l.45,1.83a6.43,6.43,0,0,0,1.18,4c2.42,3.87,4.63,7.87,6.93,11.83a5.64,5.64,0,0,0,1.59,3c.68,3,1.26,6,2.07,8.92.73,2.67-.81,5.54.84,8.09-.46,1.39.28,2.71.27,4.07-.47,5,1,10-.57,15-.44,1.37.54,1.87,1.66,1.53,3.17-1,6.45-1.65,9.26-3.56-.05-2,.69-4-.37-5.9.05-2.14-.68-4.34.56-6.38,1.47-3.15,4.18-3.76,7.29-3.61a112.71,112.71,0,0,1,14.41,1.76,87.53,87.53,0,0,0,17.56,1.43c1.76,0,3.19,1.52,5.23.62.78-.34,2.22,1.51,1.1,2.54-3.12,2.88-3.87,7.28-6.78,10.15-2.32,2.3-3.88,5.33-6.88,7-1.62.91-1.68,2.1-.38,3.8a133.44,133.44,0,0,1,10.27,15.86c1.83,3.26-1.42,7.78-6,8.12-5.8.43-11.5-.79-17.2-1.61-2.48-.35-4.92-1-7.4-1.24-1.83-.21-1.84.81-2,2.43-.33,2.47,1.37,4.57.69,7a11.28,11.28,0,0,1-4.66,5.21c-2.46,1.05-5.17,1.19-7.62,2.38a24.61,24.61,0,0,1-8.32,2.18c-1.36.14-2.18,1.55-3.73,1.89a98.59,98.59,0,0,0-9.78,3.17c-4.65.76-9.43,1.12-13.92,2.44-2.49.73-5.15.33-7.47,1.57l-14.59,1.07c-.24-.14-.5-.41-.72-.39-4.43.48-7.92,4.27-12.73,3.59-.72-.1-1,.84-.23,1.47-2.14,0-3.88,1.32-5.86,1.85-2.89.19-5.4,1.48-8,2.62-2.86,1.25-5.69,2.92-9,2.3-2.72,0-5-1.75-7.63-1.94-4.24-3-9.49-3.1-14.14-4.89.85-.95.23-1.62-.63-1.48-2.75.46-5-1.12-7.56-1.5-2-2.14-4.73-2.12-7.27-2.09a74.59,74.59,0,0,1-12.14-.91l-5.51-.8c-2.3-1.22-5-1.28-7.4-1.56C76.75,202.89,72,201.06,66.93,200.21Zm191.19-65.89a34.44,34.44,0,0,0-9.47-1.33c-1.29,0-3-.61-3.48.73-.7,1.82,1.83,1.56,2.48,2.68.13.22.82.06,1.08.27a7.6,7.6,0,0,1,3,5c.62,4.49-.27,8.95.06,13.48A52.8,52.8,0,0,1,251,170c-.77,3.57-.25,4,3.32,4.83,2,.46,4.07.41,6.09.68,1,1.15,2.44.76,3.56.84,4.66.37,9.39,2.34,14-.21,1.07-.6,2.66-.8,1-2.85a23.15,23.15,0,0,1-2.69-4.07c-1.23-2.51-2.95-4.73-4.27-7.16-1.16-2.14-3.31-3.2-4.79-5s-.82-2.49-.06-3.1a62.29,62.29,0,0,0,7.71-7.52c2.07-2.35,4.55-4.56,5.38-7.83.36-1.41.24-3.07-1.54-2.5-2.83.92-5.39-.26-8.05-.38C266.48,135.55,262.3,134.82,258.12,134.32ZM221.61,197h0c2.36-.5,4.48-1.77,6.71-2.45,4.92-1.48,9.77-3.17,14.63-4.81,3.54-1.2,4.84-2.48,4.15-5.85-1.27-6.26.63-12.42.08-18.67-.24-2.67-.49-5.95.44-8.35,1.31-3.42-.25-6.4.46-10.25-1.42,1.36-2.89,1-3.76,2.07-9,2.25-17.66,5.6-26.4,8.68l-9.49,1.56c-3.09.59-6.17,1.29-9.29,1.75A112.43,112.43,0,0,1,183,162c-5.07,0-10.14.77-15.21,1.12-3.5.24-6.95.79-10.48,1a276.16,276.16,0,0,1-27.9-.06c-5.55-.28-11.2-.93-16.77-1.66-4.21-.55-8.44-.19-12.65-.66-7.07-.78-14-2.44-21-3.53a94.67,94.67,0,0,1-13.43-3.41c-7.58-2.35-15-5.07-22.91-7.74v5.44c-.79.07-1.15-1.14-2-.68a.87.87,0,0,0-.3.6c1.08,1,.76,3.29,3,3.06.18,1.56-.65,3.1-.5,4.51a199.21,199.21,0,0,1,1,22.64c-2.32,1.64-.59,2.55.64,3.55-1.29,3,1.5,2.91,2.83,3.41,4.52,1.68,9.18,3,13.75,4.54,4,1.34,7.72,3.34,11.86,4.23,3.21.68,6.45,1.27,9.69,1.83,7.35,1.26,14.6,3.06,22.15,3.12a137.53,137.53,0,0,1,14.16,1,139.63,139.63,0,0,0,14.34,1c4.22,0,8.47-.29,12.65,0a97.29,97.29,0,0,0,22.52-.58c9.7-1.52,19.54-.77,29.18-2.7,5-1,10-1.93,15-3a2.7,2.7,0,0,0,2.75-.45l1.37-.2c.6.14,1.18.25,1.54-.44l.75-.08A2.44,2.44,0,0,0,221.61,197ZM41,137.28c1-.75,2.29-.83,3.29-1.7.67-.58,1.68-.9,1.38-1.88s-1.52-1-2.35-.91a106.1,106.1,0,0,0-10.7,1.2,115.37,115.37,0,0,1-23.23,2c-3.51,0-4.75,1.94-3.18,5,2.79,5.46,7.45,9.29,12,13.1,2.26,1.89,2.92,3.45,1,5.63C15,164.44,10.67,169,7.69,174.61c-.3.58-1.24.68-.62,1.8a2.08,2.08,0,0,0,1.74,1.24c2.46-.19,5,.21,7.33,0,7.38-.68,14.67-2.14,22-3.12,1.46-.2,1.68-.71,1.6-1.94-.34-5.48-.47-11-1-16.43-.18-1.72,1.41-3.07,1-4.13-1.59-4.17-.47-8.32-.5-12.47C40.36,139.2,40.37,138,41,137.28Zm186.57-11.86c-2.5.32-3,.2-3-.45.18-4-1.16-7.7-2.53-11.33-.43-1.13,0-2.83-.76-3.23-2.6-1.37-2.65-4.15-3.88-6.23-2.1-3.56-4.86-6.71-5.93-11-.32-1.29.16-2.35,0-3.5-.42-2.81-.46-6.29.49-8.6,1.77-4.28,5.08-8,8-11.72,1.31-1.7,4.13-2.9,2.12-5.41-1.31-1.64-2.08-4-3.51-4.91-1.89-1.14-3.15-2.14-3.91-4.2-.34-.93-1.6-1.67-2.6-2.15s-1.16.94-1.93,1.18c-2.6.81-4.18,3.94-7.49,3.23-1.26-.27-3-1.14-3,1.42,0,.42-.43.87-.75.63-2.69-2-5,.5-7,1.15a46.16,46.16,0,0,1-9.92,2.1c-4.67.4-9.42,1.18-13.74-1.58-1.67,1.56-2.06-1.2-3.79-1-4.41.47-7.8-3-11.89-4.18a5.54,5.54,0,0,1-3.35-2,4.71,4.71,0,0,0-7-.75,21.86,21.86,0,0,1-3.83,2.45c-2.16,1.14-4.72,1.11-6.65,2.31-5.11,3.17-10.94,3.72-16.52,5.2-2.37.64-4.58-.46-6.91-.39a27.73,27.73,0,0,1-9.45-1.83c-2.4-.79-4.79-1.64-7.23-2.27-1.14-.3-1.2-.08-1.69-1.28-.16-.4-.47-.79-.85-.58-4.09,2.24-6.6-1.14-9.53-2.74-2-1.11-3.64-.86-4.48,1.4a6.22,6.22,0,0,1-2.81,3.47C69.52,60,69,63,67,64.83c-.71.64.06,1.66.53,2.36,1.33,2,3.2,3.48,4.53,5.63s3.45,4.35,4.74,6.8c.39.75,1.68,1.18,1.09,2.63-.78,2,0,4,.31,6a14.71,14.71,0,0,1-2.21,10c-3,5-6.33,9.93-8.49,15.43-.71,1.8-1.88,3.75-1.86,5.45,0,2.42-.57,4.75-.6,7.15-.06,5.57-.76,11.14-.56,16.75.06,1.48.16,2.43,2.11,2.6s3.9,1,3.32,3.81c-.47,2.3,1.47,3.16,3,3.57a96.85,96.85,0,0,0,18.39,3.11c8,.48,16.08.43,24.06,1.7,4.54.73,9.29.41,13.73,1.45,6.17,1.44,12.38.9,18.55,1.26,5.84.33,11.75-.7,17.63-.81,1.2,0,1.65-1.35,2.79-.92,1.62.61,3.29.25,4.92.1,8.21-.71,16.41-1.55,24.62-2.21,7.84-.62,15.52-2.22,23.23-3.67a4.06,4.06,0,0,0,3.58-3.94c.2-4.16,1.11-8.27.62-12.46-.09-.76-.42-1.71.49-2.4,1.63-1.25,1.4-2.91.71-4.5S225.64,126.8,227.52,125.42ZM78.08,90.28c-.06-.06-.13-.18-.18-.17a1.8,1.8,0,0,0-.38.16c.06.06.13.18.18.18A1.43,1.43,0,0,0,78.08,90.28Z"></path><path class="cls-1" d="M66.5,103.15c-.43,2.41-2.19,4.17-3.13,6.35-2,4.54-2.74,9.31-3.57,14.09-8.3-1.7-16.59-3.43-24.56-6.36-4-1.45-7.92-2.73-12-3.79a15.69,15.69,0,0,1-5-2.89c-1.6-1.19-1.08-2.67,1.05-3.34a43.17,43.17,0,0,1,10.36-1.78c11.32-.65,22.59-1.74,33.86-3C64.52,102.37,65.68,102.14,66.5,103.15Z"></path><path class="cls-1" d="M150.64,46.45c-6.84-1.3-12.25,2.43-18,5.1a7.42,7.42,0,0,1-.83.3c.31-6.37,1.87-12.55,3.55-18.62a196.11,196.11,0,0,0,5.14-28.39c.25-2,1.84-2.86,2.37-4.48.17-.53.86-.44,1.2,0,.72,1,2.33.94,2.41,2.67.14,3.42.58,6.82.85,10.23.46,5.62.93,11.26,1.52,16.85.41,3.77.12,7.69,1.4,11.36C150.86,43.14,150.53,44.8,150.64,46.45Z"></path><path class="cls-1" d="M94.81,205.87a74.59,74.59,0,0,0,12.14.91c2.54,0,5.27-.05,7.27,2.09-2.27,4.29-5.82,7.54-9.37,10.68-7.31,6.46-14.83,12.7-22.31,19-2.24,1.88-4.67,3.54-7,5.32-.66.51-1.33.92-2.11.32s-.32-1.4,0-2.11c2.52-5.54,6.22-10.36,9.38-15.51,3.82-6.22,7.55-12.49,11.29-18.76A10.85,10.85,0,0,0,94.81,205.87Z"></path><path class="cls-1" d="M225.69,108.36c-2.3-4-4.51-8-6.93-11.83a6.43,6.43,0,0,1-1.18-4c6.53-1.1,13.08-2.11,19.58-3.34a40.55,40.55,0,0,1,6.67-.75c6.85-.15,13.64-1,20.46-1.34.85,0,2.22-.59,2.43.83.16,1.08-.86,1.6-1.79,2-8.7,4.2-17.4,8.37-25.51,13.68a18.77,18.77,0,0,1-8.53,2.85C229,106.69,227.65,108.39,225.69,108.36Z"></path><path class="cls-1" d="M195.37,206.17c2.32-1.24,5-.84,7.47-1.57,4.49-1.32,9.27-1.68,13.92-2.44,7.49,9.25,15.81,17.85,22.09,28.06a38.11,38.11,0,0,0,3.14,3.86c.43.53,1,1.15.35,1.8a1.43,1.43,0,0,1-1.9,0c-4.66-2.82-9.51-5.39-13.9-8.58-5.37-3.9-11-7.28-16.62-10.84-4.18-2.66-9-4.23-12.82-7.42A3.8,3.8,0,0,1,195.37,206.17Z"></path><path class="cls-1" d="M230.19,128.37c-1.65-2.55-.11-5.42-.84-8.09-.81-2.94-1.39-6-2.07-8.92,3.49.69,7,.32,10.49.07a164.91,164.91,0,0,1,17.08-.05c4.91.16,9.8.69,14.7,1,.79.06,1.58,0,2.36.1a2.71,2.71,0,0,1,2.5,2.16c.32,1.45-.92,1.83-1.88,2.24-3.79,1.61-7.86,2.32-11.83,3.32-8.41,2.1-16.87,4-25.15,6.61C233.78,127.4,232,127.86,230.19,128.37Z"></path><path class="cls-1" d="M202.64,52.94c-2.55,1.89-5.38,2-8.49,2.17-3.42.25-6.83,2.1-10.36,2.58-2.33.32-4.71,1.39-7.14.42,9.2-11.18,20.2-20.39,31.65-29.14,2.94-2.25,5.41-5.11,8.55-7.15.68-.44,1.26-1,2.09-.48s.65,1.45.3,2.33c-1.88,4.78-5.15,8.72-7.84,13-2.79,4.45-5.45,9-8.24,13.44A4.41,4.41,0,0,0,202.64,52.94Z"></path><path class="cls-1" d="M144.18,218.68c3.36.62,6.19-1.05,9-2.3,2.61-1.14,5.12-2.43,8-2.62a304.23,304.23,0,0,1-7.19,31.51c-1.25,4.31-.87,8.93-2.43,13.19-.46,1.28-.68,2.75-2.63,2.53s-2.4-1.67-2.37-3.16c.13-6.76-1.17-13.41-1.39-20.16C145,231.35,144.12,225,144.18,218.68Z"></path><path class="cls-1" d="M125.35,54.7c-.09.93-1,1-1.52,1.07-3.84.76-7.54,2.22-11.51,2.32-3.7-11.18-7.37-22.36-11.13-33.52-1.27-3.78-2.77-7.48-4.11-11.23a13.82,13.82,0,0,1-.63-2.85c-.08-.64-.23-1.46.66-1.73a1.36,1.36,0,0,1,1.5.71c4,5.72,8.84,10.86,12,17.23,4,8,8.57,15.64,13,23.39A11.13,11.13,0,0,1,125.35,54.7Z"></path><path class="cls-1" d="M167.1,211.91c-.73-.63-.49-1.57.23-1.47,4.81.68,8.3-3.11,12.73-3.59.22,0,.48.25.72.39.78,6,3.25,11.58,5.06,17.32,2.35,7.43,4.8,14.83,7.42,22.18,1,2.83,2.67,5.41,3,8.51.06.66.54,1.36-.22,1.84-.95.62-1.51-.23-1.92-.8-4.33-6.11-9.42-11.66-12.75-18.5a143.29,143.29,0,0,0-9.82-17.67A88.39,88.39,0,0,1,167.1,211.91Z"></path><path class="cls-1" d="M67.53,75.25a15.42,15.42,0,0,1,5,15.29c-.36,1.82.19,4.16-1.79,5.53-9.2-6.29-18.77-12-28.41-17.58a49.54,49.54,0,0,1-8.94-6c-.56-.52-1.48-.87-.88-1.86a1.43,1.43,0,0,1,1.85-.5c4.19,1.79,8.76,1.87,13.1,3,3.17.86,6.56.72,9.84,1.39S64.12,75.05,67.53,75.25Z"></path><path class="cls-1" d="M169.58,56.39a7.69,7.69,0,0,1-5.41-1.26c-2.87-1.77-6.29-2.46-9.09-4.41,3.26-2.33,5.25-5.84,7.18-9.07,6.16-10.28,12.62-20.36,19.27-30.32A10.42,10.42,0,0,1,182.7,10c.49-.52,1.06-.93,1.81-.58,1,.44.68,1.17.51,2-.83,4.05-2.68,7.73-4.24,11.49-2.66,6.41-4.92,12.94-7,19.53C172.26,47.06,170.41,51.58,169.58,56.39Z"></path><path class="cls-1" d="M217.13,90.7c-1.24-5.78,0-10.81,4.48-14.89a1.32,1.32,0,0,0,1.15-1.38h0a4.76,4.76,0,0,0,3.44-.21c5.42-2,11.15-2.81,16.65-4.44,4.29-1.27,8.58-2.5,12.91-3.62,1.12-.28,2.49-.86,3.25.27.94,1.41-.39,2.22-1.35,3.09-3.43,3.1-7.48,5.26-11.51,7.39-6.54,3.46-13.16,6.81-19.86,10C223.28,88.27,220.45,90.1,217.13,90.7Z"></path><path class="cls-1" d="M122.41,211.85c4.65,1.79,9.9,1.88,14.14,4.89-4,2.9-6.16,7.19-8.58,11.24q-8.19,13.68-17.23,26.79c-.65.93-1.28,2-2.53,1.32-1.08-.59-.55-1.71-.32-2.65,1.81-7.22,5.66-13.68,7.83-20.77S120.62,218.93,122.41,211.85Z"></path><path class="cls-1" d="M66.93,200.21c5,.85,9.82,2.68,15,3.3,2.37.28,5.1.34,7.4,1.56-6.29,3.36-13.08,5.42-19.84,7.52-4.32,1.35-8,4.15-12.36,5.34-2.42.66-5,1.11-7.09,2.71a2.21,2.21,0,0,1-2.76-.06c-1-1,.28-1.8.77-2.51a27.32,27.32,0,0,1,5.34-5.4A118.61,118.61,0,0,0,66.93,200.21Z"></path><path class="cls-1" d="M77.59,46.89c-4.45-.9-4.87,3.35-7,5.46-.82.81-.68,2.58-2.45,2.45-6.13-7-11.12-15-16.88-22.29-.63-.8-1.93-1.51-1-2.66s1.83,0,2.59.48c5.38,3.05,10.92,5.86,15.65,10,1.73,1.51,4,2.41,5.89,3.73C75.61,44.84,77.23,45.19,77.59,46.89Z"></path><path class="cls-1" d="M227.87,63.48a64.11,64.11,0,0,0-8.07-9.34c-.06-.06.1-.35.16-.53a19.11,19.11,0,0,0,7.46-2.42,67.91,67.91,0,0,1,12.26-4.71c1.38-.41,2.61-1.38,4-1.75s2.36.09,1.55,1.89a13.88,13.88,0,0,1-3.69,4.48C237,55.23,232,58.9,227.87,63.48Z"></path><path class="cls-1" d="M240.81,145.4c-2.81,1.91-6.09,2.6-9.26,3.56-1.12.34-2.1-.16-1.66-1.53,1.56-5,.1-10,.57-15a22.8,22.8,0,0,1,10.54.68c-1.24,2-.51,4.24-.56,6.38-.17,4.6-.17,4.61-4.66,4.79a5.68,5.68,0,0,0-3.23,1C235.47,145.86,238.16,144.31,240.81,145.4Z"></path><path class="cls-1" d="M59.28,129.56c-.29,3.71.31,7.48-.68,11.15-.87,0-1.32.7-2,1.07-1.78,1-3.13,3-5.59,2.46a46.88,46.88,0,0,0-2.44-13.48C52.14,130.21,55.64,129.29,59.28,129.56Z"></path><path class="cls-1" d="M42.74,191.42c2.65,1.91,6.11,1.8,8.83,3.53-2.85,1.81-6.18,2.38-9.31,3.39a34.56,34.56,0,0,1-5.7,1.22c-1.05.15-2.5.77-3.14-.66-.54-1.21.52-2,1.35-2.68C37.21,194.28,39.63,192.27,42.74,191.42Z"></path><path class="cls-1" d="M246.21,192.54a11.28,11.28,0,0,0,4.66-5.21c2.59,1.71,5.22,3.37,7.75,5.16.81.58,2.11,1.3,1.49,2.53-.53,1-1.71.46-2.64.23C253.72,194.33,250,193.44,246.21,192.54Z"></path><path class="cls-1" d="M59.41,128.64c.36.39.46.72-.16,1C59.3,129.27,59.35,129,59.41,128.64Z"></path><path class="cls-2" d="M227.52,125.42c-1.88,1.38-1.93,2.7-1.26,4.27s.92,3.25-.71,4.5c-.91.69-.58,1.64-.49,2.4.49,4.19-.42,8.3-.62,12.46a4.06,4.06,0,0,1-3.58,3.94c-7.71,1.45-15.39,3-23.23,3.67-8.21.66-16.41,1.5-24.62,2.21-1.63.15-3.3.51-4.92-.1-1.14-.43-1.59.89-2.79.92-5.88.11-11.79,1.14-17.63.81-6.17-.36-12.38.18-18.55-1.26-4.44-1-9.19-.72-13.73-1.45-8-1.27-16-1.22-24.06-1.7A96.85,96.85,0,0,1,72.94,153c-1.58-.41-3.52-1.27-3-3.57.58-2.85-1.33-3.64-3.32-3.81s-2-1.12-2.11-2.6c-.2-5.61.5-11.18.56-16.75,0-2.4.63-4.73.6-7.15,0-1.7,1.15-3.65,1.86-5.45,2.16-5.5,5.45-10.39,8.49-15.43a14.71,14.71,0,0,0,2.21-10c-.29-2-1.09-4.07-.31-6,.59-1.45-.7-1.88-1.09-2.63-1.29-2.45-3.35-4.54-4.74-6.8s-3.2-3.63-4.53-5.63c-.47-.7-1.24-1.72-.53-2.36C69,63,69.52,60,72.15,58.66A6.22,6.22,0,0,0,75,55.19c.84-2.26,2.46-2.51,4.48-1.4,2.93,1.6,5.44,5,9.53,2.74.38-.21.69.18.85.58.49,1.2.55,1,1.69,1.28,2.44.63,4.83,1.48,7.23,2.27a27.73,27.73,0,0,0,9.45,1.83c2.33-.07,4.54,1,6.91.39,5.58-1.48,11.41-2,16.52-5.2,1.93-1.2,4.49-1.17,6.65-2.31a21.86,21.86,0,0,0,3.83-2.45,4.71,4.71,0,0,1,7,.75,5.54,5.54,0,0,0,3.35,2c4.09,1.14,7.48,4.65,11.89,4.18,1.73-.18,2.12,2.58,3.79,1,4.32,2.76,9.07,2,13.74,1.58a46.16,46.16,0,0,0,9.92-2.1c2.07-.65,4.33-3.16,7-1.15.32.24.75-.21.75-.63,0-2.56,1.73-1.69,3-1.42,3.31.71,4.89-2.42,7.49-3.23.77-.24,1.06-1.6,1.93-1.18s2.26,1.22,2.6,2.15c.76,2.06,2,3.06,3.91,4.2,1.43.86,2.2,3.27,3.51,4.91,2,2.51-.81,3.71-2.12,5.41-2.91,3.75-6.22,7.44-8,11.72-.95,2.31-.91,5.79-.49,8.6.17,1.15-.31,2.21,0,3.5,1.07,4.27,3.83,7.42,5.93,11,1.23,2.08,1.28,4.86,3.88,6.23.75.4.33,2.1.76,3.23,1.37,3.63,2.71,7.33,2.53,11.33C224.5,125.62,225,125.74,227.52,125.42Zm-15-9.65a38.66,38.66,0,0,0-4.25-10.66c-3.56-5.79-4.26-12.2-3.45-18.73s4.23-12,7.45-17.58c1.48-2.53,1.35-4.71-.78-6.41s-4.38-1.76-6.37.08A9.22,9.22,0,0,1,199.8,65a21.88,21.88,0,0,0-10,3c-3.51,2.21-7.63,1.19-11.46,1.46-1.41.1-2.79,1.06-4.16.49-4.32-1.81-9.18-1.21-13.46-3-4.65-1.93-10-2.15-14-6a2.93,2.93,0,0,0-3.89.46,8.09,8.09,0,0,1-3.76,2.48c-5.92,1.17-11.34,4.07-17.52,4.42-8.27.48-16.33,2.46-24.53-1.73-4.37-2.23-9.39-3.68-14.2-5.23-2-.65-3.52.23-4.81,1.72s-2.24,3-.87,5.22a71.94,71.94,0,0,1,6,11.34,31,31,0,0,1,2,17.58c-1.31,7.06-4.63,13.43-7.21,20.06a17.19,17.19,0,0,0-1.62,7c5.74-4,11.92-4.43,18.28-2.86,2.85.7,6,1.68,7.73,4,2.51,3.29,5.46,6.35,7,10.37a7.59,7.59,0,0,0,5.74,5.24,21.4,21.4,0,0,0,11.15-.69c3.32-1.18,5.51-3.27,5.52-7.59,0-3.58-.88-7.06-.59-10.61,0-.49-.55-1.28.38-1.45s.95.76,1.11,1.37a7.24,7.24,0,0,1,0,1.15,39.66,39.66,0,0,0,1.63,10.22c.27.77.45,2.48,2,2,1-.35,1.29-1.49,1.25-2.64-.05-2.2,0-4.41,0-6.95,1.48,1.27,2.78.36,4.1.24-.09,4.6,1.81,8.65,2.09,13,.09,1.46,1.09,2.83,1.48,4.3.33,1.23,1.57,1.47,1.78.79.52-1.74,2.64-2.7,2.33-4.61a60,60,0,0,1-.2-6.56c-.34-6.4-.3-6.41,4-8.17.87-.36,1.3-.84,1.39.88a66.07,66.07,0,0,0,.38,7.84c.23,1.38.79,2.76,2.66,2.44,1.65-.28,1.68-1.59,1.68-2.86,0-4,0-7.92-.06-11.88,0-.74.24-1.15.92-1.14.46,0,1,.53.78.93-1,2.14-.27,4.35-.09,6.44.27,3.12.69,6.53,2.71,9,3,3.64,12.07,3.32,15.2-.2,2.11-2.37,4.26-4.73,6.17-7.26C191.78,119.88,200.9,115.53,212.55,115.77Zm-7,10.75c.27-1.41-.77-1.16-1.46-1.12-3.55.22-6.09,2.37-7.89,5a23.61,23.61,0,0,1-7.14,7.34c-.66.4-1.25,1.07-1.1,1.47.28.78,1.15.9,2,.65,2.83-.84,4.58-2.89,6.39-5.11,2.26-2.79,4-6.47,8.17-7C205.52,127.69,205.58,127.21,205.55,126.52ZM87,127.35c-.88-.23-1.75.21-1.75.87,0,1,.72,1.17,1.58,1.33A14.8,14.8,0,0,1,98,137.61a8.92,8.92,0,0,0,4.73,4.23c.75.25,2.09,1.15,2.52-.24a1.74,1.74,0,0,0-1.56-2.08c-2.14-.34-2.94-2.07-4-3.7C96.63,131.31,92.93,127.67,87,127.35Zm76.34,15c0,.71.59.88,1.07,1.19,5.1,3.24,10.49,3.15,16,1.39.62-.2,1.51-.32,1.2-1.24s-1.08-.82-1.94-.65c-5,1-9.84,1.14-14.46-1.42A1.22,1.22,0,0,0,163.33,142.36Zm-41.56,6.5a19.36,19.36,0,0,0,8.78-5.45c.32-.34.48-1.23.06-1.24-.61,0-1.06-1-1.89-.11-2.83,3.11-6.56,4.51-10.62,5.11-.9.14-1.64.29-1.24,1.35.3.81,1,.82,1.88.64S120.61,147.36,121.77,148.86Zm82.84-15.76a1.11,1.11,0,0,0-.75.76c-.31.9-.13,2.16.5,2.41a14.81,14.81,0,0,1,5.29,3.37c.55.58,1.2-.18,1.8-.3s.09-.65,0-.93C211,136.75,206.53,133.15,204.61,133.1Zm-64,6.12c-.23-.78-.09-1.77-1-1.95-1.13-.22-1.33.62-1.6,1.56-.6,2,.13,4.31-1.29,6.2-.47.62.23,1,.75,1.29.91.53,1.18-.13,1.53-.75C140.12,143.58,139.57,141.17,140.64,139.22Zm17.17,8.49c.39-1.12,1.3.57,1.66-.5a1.15,1.15,0,0,0-.82-1.62c-2.22-.31-2.9-2.12-3.72-3.7-.42-.81-.79-1.21-1.71-1.19a1.41,1.41,0,0,0-1.51,1c-.09.29-.56.88,0,.71,2.17-.65,1.79,1.37,2.17,2.16A5.9,5.9,0,0,0,157.81,147.71ZM87.88,137.26a1,1,0,0,0-1-1.19c-2.36.05-3.93,1.66-5.59,3.05-.17.14-.07.76.08,1.07.33.67,1,.58,1.54.37,1-.39,1.73-1.21,2.93-1C87.56,139.85,87.56,138.47,87.88,137.26Z"></path><path class="cls-3" d="M43.79,182.62a199.21,199.21,0,0,0-1-22.64c-.15-1.41.68-2.95.5-4.51,5.7,2,11.6,3.39,17.28,5.6a92.54,92.54,0,0,0,20.94,5.48c6.21.86,12.53,1.16,18.64,2.6,12.51,2.95,25.33,2,38,3.3,4.6.46,9.29-.76,14-.1,5.65.78,11.26-.75,16.9-.88,6.42-.15,12.79-.89,19.12-1.62,8.28-.95,16.44-2.9,24.66-4.39,1.58-.29,3.34-2.09,4.12-1.74,2.95,1.29,5.08-.75,7.53-1.18,5.6-1,10.72-3.87,16.52-4.13,2.83-.13,3.29.37,2.77,3.17a63.44,63.44,0,0,1-7.14,20.65c-1.26,2.17-2.09,4.68-5.33,5.38-5.65,1.2-11.24,2.54-17,3.51-11.51,2-22.92,4.18-34.64,4.93-8.83.57-17.69,1.5-26.51,1.71-12.32.29-24.67,1.65-37-.31-2.38-.37-4.92-1.23-7.23-.79-4,.75-7.71-.64-11.57-.76-6.31-.2-12.47-2-18.68-3.2-5.35-1-10.78-1.8-16-3.47C56.36,187.18,50.09,184.84,43.79,182.62Z"></path><path class="cls-1" d="M43.79,182.62c6.3,2.22,12.57,4.56,18.93,6.61,5.2,1.67,10.63,2.43,16,3.47,6.21,1.2,12.37,3,18.68,3.2,3.86.12,7.58,1.51,11.57.76,2.31-.44,4.85.42,7.23.79,12.32,2,24.67.6,37,.31,8.82-.21,17.68-1.14,26.51-1.71,11.72-.75,23.13-3,34.64-4.93,5.72-1,11.31-2.31,17-3.51,3.24-.7,4.07-3.21,5.33-5.38a63.44,63.44,0,0,0,7.14-20.65c.52-2.8.06-3.3-2.77-3.17-5.8.26-10.92,3.17-16.52,4.13-2.45.43-4.58,2.47-7.53,1.18-.78-.35-2.54,1.45-4.12,1.74-8.22,1.49-16.38,3.44-24.66,4.39-6.33.73-12.7,1.47-19.12,1.62-5.64.13-11.25,1.66-16.9.88-4.72-.66-9.41.56-14,.1-12.64-1.26-25.46-.35-38-3.3-6.11-1.44-12.43-1.74-18.64-2.6a92.54,92.54,0,0,1-20.94-5.48c-5.68-2.21-11.58-3.57-17.28-5.6-2.25.23-1.93-2.11-3-3.06a.87.87,0,0,1,.3-.6c.88-.46,1.24.75,2,.68,1.94-.25,3.61.7,5.38,1.22,6.66,2,13.46,3.56,19.9,6.1,4.35,1.71,8.85,2.31,13.28,3.23,6.94,1.43,14,2.12,21,3.17a280.43,280.43,0,0,0,28.24,2.5c8.14.38,16.27-.05,24.4.36,5.18.26,10.32-.45,15.48-.67s10.22-1.24,15.35-1.66c8.08-.67,15.95-2.64,23.9-4,7.16-1.22,14.11-3.62,21.2-5.29a40.53,40.53,0,0,1,6.68-1.38c6.22-.41,7.26-1.94,6.89-7.41.87-1.09,2.34-.71,3.76-2.07-.71,3.85.85,6.83-.46,10.25-.93,2.4-.68,5.68-.44,8.35.55,6.25-1.35,12.41-.08,18.67.69,3.37-.61,4.65-4.15,5.85-4.86,1.64-9.71,3.33-14.63,4.81-2.23.68-4.35,1.95-6.71,2.45.43-2.29,3.26-2.23,4.47-4.68-4.75,1.54-9.29,1.51-13.58,2.52a144.74,144.74,0,0,1-18.3,3.34c-6.34.66-12.65,2.22-19.11,1.57a5.3,5.3,0,0,0-1.43.27c-6.53,1.27-13.21,1-19.75,1-3.82.05-7.8.13-11.6.36a213.65,213.65,0,0,1-21.63-.17c-8.16-.36-16.31-1.51-24.47-2.2a78.56,78.56,0,0,1-14-2.14c-6.29-1.71-12.88-2-19-4.32-3.66-1.36-8.14-.85-10.8-4.6a1.13,1.13,0,0,0-1-.43c-2.66,1.19-4.66-.86-7-1.37C43.2,185.17,41.47,184.26,43.79,182.62Z"></path><path class="cls-2" d="M244.35,148.66c.37,5.47-.67,7-6.89,7.41a40.53,40.53,0,0,0-6.68,1.38c-7.09,1.67-14,4.07-21.2,5.29-8,1.36-15.82,3.33-23.9,4-5.13.42-10.22,1.45-15.35,1.66s-10.3.93-15.48.67c-8.13-.41-16.26,0-24.4-.36a280.43,280.43,0,0,1-28.24-2.5c-7-1.05-14.1-1.74-21-3.17-4.43-.92-8.93-1.52-13.28-3.23-6.44-2.54-13.24-4.14-19.9-6.1-1.77-.52-3.44-1.47-5.38-1.22v-5.44c7.86,2.67,15.33,5.39,22.91,7.74A94.67,94.67,0,0,0,79,158.2c7,1.09,13.93,2.75,21,3.53,4.21.47,8.44.11,12.65.66,5.57.73,11.22,1.38,16.77,1.66a276.16,276.16,0,0,0,27.9.06c3.53-.18,7-.73,10.48-1,5.07-.35,10.14-1.1,15.21-1.12a112.43,112.43,0,0,0,16.21-1.37c3.12-.46,6.2-1.16,9.29-1.75,1.53,1.54,3.3,2.93,5.47,1.68a11.51,11.51,0,0,0,4-3.24C226.69,154.26,235.34,150.91,244.35,148.66Z"></path><path class="cls-2" d="M39.25,139.55c0,4.15-1.09,8.3.5,12.47.41,1.06-1.18,2.41-1,4.13.55,5.46.68,10.95,1,16.43.08,1.23-.14,1.74-1.6,1.94-7.36,1-14.65,2.44-22,3.12-2.34.22-4.87-.18-7.33,0a2.08,2.08,0,0,1-1.74-1.24c-.62-1.12.32-1.22.62-1.8,3-5.6,7.27-10.17,11.45-14.83,1.95-2.18,1.29-3.74-1-5.63-4.56-3.81-9.22-7.64-12-13.1C4.59,138,5.83,136,9.34,136a115.37,115.37,0,0,0,23.23-2,106.1,106.1,0,0,1,10.7-1.2c.83-.07,2-.12,2.35.91s-.71,1.3-1.38,1.88c-1,.87-2.3.95-3.29,1.7-.94-1.15-2.17-.68-3.27-.46-2.19.43-4.32,1.24-6.53,1.5-6.08.72-12.19,1.24-18.29,1.83-2.88.28-3.48,1.2-1.41,3.23,3.27,3.19,5.66,7.16,9.29,10s3.94,3.11,1.05,6.5-4.21,8.45-8.48,11c-.84.5-.79,1.31-.63,2.09s1,.79,1.65.86c3.06.31,6-.39,9.06-.66,4.83-.44,9.2-2.91,14-3.45,1-.12,1.13-.9,1.08-1.76a1.18,1.18,0,0,0-1.61-1.2c-1.2.34-2.43.33-3.65.67-4.47,1.23-9,2.54-13.62,2.84-.44-2.3,1.54-3.5,1.84-5.32v0A5.16,5.16,0,0,0,23.22,163a20.61,20.61,0,0,1,3.7-4.74c1.88-1.54,2.15-2.58.18-4.11-3.57-2.76-7.41-5.23-10-9-.78-1.13-1-2,1-2.13A94.23,94.23,0,0,0,39.25,139.55Z"></path><path class="cls-2" d="M44.43,186.17c2.31.51,4.31,2.56,7,1.37a1.13,1.13,0,0,1,1,.43c2.66,3.75,7.14,3.24,10.8,4.6,6.12,2.28,12.71,2.61,19,4.32a78.56,78.56,0,0,0,14,2.14c8.16.69,16.31,1.84,24.47,2.2a213.65,213.65,0,0,0,21.63.17c3.8-.23,7.78-.31,11.6-.36,6.54-.09,13.22.22,19.75-1a5.3,5.3,0,0,1,1.43-.27c6.46.65,12.77-.91,19.11-1.57a144.74,144.74,0,0,0,18.3-3.34c4.29-1,8.83-1,13.58-2.52-1.21,2.45-4,2.39-4.47,4.68h0c-1.07-.26-2.14-.51-2.63.92l-.75.08a1.58,1.58,0,0,0-1.54.44l-1.37.2c-.95,0-1.93-.3-2.75.45-5,1.11-10,2-15,3-9.64,1.93-19.48,1.18-29.18,2.7a97.29,97.29,0,0,1-22.52.58c-4.18-.33-8.43,0-12.65,0a139.63,139.63,0,0,1-14.34-1,137.53,137.53,0,0,0-14.16-1c-7.55-.06-14.8-1.86-22.15-3.12-3.24-.56-6.48-1.15-9.69-1.83-4.14-.89-7.88-2.89-11.86-4.23-4.57-1.54-9.23-2.86-13.75-4.54C45.93,189.08,43.14,189.12,44.43,186.17Z"></path><path class="cls-1" d="M260.41,175.49c-2-.27-4.05-.22-6.09-.68-3.57-.81-4.09-1.26-3.32-4.83a52.8,52.8,0,0,0,.83-14.85c-.33-4.53.56-9-.06-13.48a7.6,7.6,0,0,0-3-5c-.26-.21-.95,0-1.08-.27-.65-1.12-3.18-.86-2.48-2.68.51-1.34,2.19-.75,3.48-.73a34.44,34.44,0,0,1,9.47,1.33c.51,1.05,1,2.11,1.54,3.14.18.34,0,.74,1,.78,4.55.19,9.08.87,13.62,1.28,1.73.15,1.43,1,.8,1.92-.93,1.31-2.65,2.18-3.42,3.23-2.64,3.6-6.07,6.3-9.14,9.39-.95,1-.93,1.54-.2,2.44s1.32,1.7,2,2.55a78.11,78.11,0,0,1,8.32,13.7c.76,1.55.44,2.3-1.49,2.22a59.77,59.77,0,0,1-8.12-1.08C261.7,173.67,260.28,173.37,260.41,175.49Zm10-32.72c-2.92-.67-5.38-1.2-7.82-1.8-1.21-.3-2.45-.33-2.05,1.29.59,2.43.36,4.85.48,7.27,0,.44-.22,1.06.35,1.27a1.33,1.33,0,0,0,1.54-.57C264.82,147.37,267.49,145.26,270.42,142.77ZM261,160.28a21.45,21.45,0,0,1-.05,4.45c-.84,3.58-.64,6.15,4.1,5.9.63,0,1.41.6,2.06,0a1.53,1.53,0,0,0,0-2.13C265.17,165.92,264.1,162.76,261,160.28Z"></path><path class="cls-1" d="M21.46,164.9c-.3,1.82-2.28,3-1.84,5.32,4.66-.3,9.15-1.61,13.62-2.84,1.22-.34,2.45-.33,3.65-.67a1.18,1.18,0,0,1,1.61,1.2c0,.86-.06,1.64-1.08,1.76-4.83.54-9.2,3-14,3.45-3,.27-6,1-9.06.66-.69-.07-1.47,0-1.65-.86s-.21-1.59.63-2.09c4.27-2.52,5.47-7.43,8.48-11s2.52-3.72-1.05-6.5-6-6.79-9.29-10c-2.07-2-1.47-2.95,1.41-3.23,6.1-.59,12.21-1.11,18.29-1.83,2.21-.26,4.34-1.07,6.53-1.5,1.1-.22,2.33-.69,3.27.46-.58.75-.59,1.92-1.7,2.27A94.23,94.23,0,0,1,18.11,143c-2.07.1-1.82,1-1,2.13,2.62,3.79,6.46,6.26,10,9,2,1.53,1.7,2.57-.18,4.11a20.61,20.61,0,0,0-3.7,4.74,5.16,5.16,0,0,1-1.77,1.88.93.93,0,0,0-.09-.2s-.1,0-.15,0Z"></path><path class="cls-2" d="M260.41,175.49c-.13-2.12,1.29-1.82,2.57-1.6A59.77,59.77,0,0,0,271.1,175c1.93.08,2.25-.67,1.49-2.22a78.11,78.11,0,0,0-8.32-13.7c-.66-.85-1.3-1.72-2-2.55s-.75-1.48.2-2.44c3.07-3.09,6.5-5.79,9.14-9.39.77-1,2.49-1.92,3.42-3.23.63-.89.93-1.77-.8-1.92-4.54-.41-9.07-1.09-13.62-1.28-1,0-.79-.44-1-.78-.55-1-1-2.09-1.54-3.14,4.18.5,8.36,1.23,12.56,1.43,2.66.12,5.22,1.3,8.05.38,1.78-.57,1.9,1.09,1.54,2.5-.83,3.27-3.31,5.48-5.38,7.83a62.29,62.29,0,0,1-7.71,7.52c-.76.61-1.31,1.47.06,3.1s3.63,2.82,4.79,5c1.32,2.43,3,4.65,4.27,7.16a23.15,23.15,0,0,0,2.69,4.07c1.64,2,.05,2.25-1,2.85-4.61,2.55-9.34.58-14,.21C262.85,176.25,261.37,176.64,260.41,175.49Z"></path><path class="cls-2" d="M51,144.24c2.46.56,3.81-1.46,5.59-2.46.65-.37,1.1-1.1,2-1.07.28,1.79.46,3.61.88,5.37.56,2.37-.3,3-2.48,2.31-1.67-.54-3.33-1.1-5-1.74C50.94,146.22,50.82,145.27,51,144.24Z"></path><path class="cls-2" d="M218,157.34a11.51,11.51,0,0,1-4,3.24c-2.17,1.25-3.94-.14-5.47-1.68Z"></path><path class="cls-2" d="M240.81,145.4c-2.65-1.09-5.34.46-8.26-.12a5.68,5.68,0,0,1,3.23-1c4.49-.18,4.49-.19,4.66-4.79C241.5,141.41,240.76,143.43,240.81,145.4Z"></path><path class="cls-1" d="M219,197.88c.49-1.43,1.56-1.18,2.63-.92A2.44,2.44,0,0,1,219,197.88Z"></path><path class="cls-1" d="M212.57,199.05c.82-.75,1.8-.47,2.75-.45A2.7,2.7,0,0,1,212.57,199.05Z"></path><path class="cls-1" d="M216.69,198.4a1.58,1.58,0,0,1,1.54-.44C217.87,198.65,217.29,198.54,216.69,198.4Z"></path><path class="cls-3" d="M222.76,74.43a1.32,1.32,0,0,1-1.15,1.38C221.89,75.26,222,74.55,222.76,74.43Z"></path><path class="cls-2" d="M78.09,90.29a2.14,2.14,0,0,1-.39.16s-.12-.12-.18-.18a1.8,1.8,0,0,1,.38-.16S78,90.22,78.09,90.29Z"></path><path d="M212.55,115.77c-11.65-.24-20.77,4.11-27.65,13.23-1.91,2.53-4.06,4.89-6.17,7.26-3.13,3.52-12.19,3.84-15.2.2-2-2.45-2.44-5.86-2.71-9-.18-2.09-.9-4.3.09-6.44.19-.4-.32-.92-.78-.93-.68,0-.93.4-.92,1.14.06,4,.06,7.92.06,11.88,0,1.27,0,2.58-1.68,2.86-1.87.32-2.43-1.06-2.66-2.44a66.07,66.07,0,0,1-.38-7.84c-.09-1.72-.52-1.24-1.39-.88-4.28,1.76-4.32,1.77-4,8.17a60,60,0,0,0,.2,6.56c.31,1.91-1.81,2.87-2.33,4.61-.21.68-1.45.44-1.78-.79-.39-1.47-1.39-2.84-1.48-4.3-.28-4.35-2.18-8.4-2.09-13-1.32.12-2.62,1-4.1-.24,0,2.54,0,4.75,0,6.95,0,1.15-.2,2.29-1.25,2.64-1.54.52-1.72-1.19-2-2a39.66,39.66,0,0,1-1.63-10.22,7.24,7.24,0,0,0,0-1.15c-.16-.61-.09-1.55-1.11-1.37s-.35,1-.38,1.45c-.29,3.55.59,7,.59,10.61,0,4.32-2.2,6.41-5.52,7.59a21.4,21.4,0,0,1-11.15.69,7.59,7.59,0,0,1-5.74-5.24c-1.51-4-4.46-7.08-7-10.37-1.76-2.3-4.88-3.28-7.73-4-6.36-1.57-12.54-1.12-18.28,2.86a17.19,17.19,0,0,1,1.62-7c2.58-6.63,5.9-13,7.21-20.06a31,31,0,0,0-2-17.58,71.94,71.94,0,0,0-6-11.34c-1.37-2.18-.49-3.65.87-5.22s2.81-2.37,4.81-1.72c4.81,1.55,9.83,3,14.2,5.23,8.2,4.19,16.26,2.21,24.53,1.73,6.18-.35,11.6-3.25,17.52-4.42a8.09,8.09,0,0,0,3.76-2.48,2.93,2.93,0,0,1,3.89-.46c3.93,3.81,9.3,4,14,6,4.28,1.78,9.14,1.18,13.46,3,1.37.57,2.75-.39,4.16-.49,3.83-.27,7.95.75,11.46-1.46a21.88,21.88,0,0,1,10-3,9.22,9.22,0,0,0,5.35-2.56c2-1.84,4.28-1.75,6.37-.08s2.26,3.88.78,6.41c-3.22,5.55-6.66,11.08-7.45,17.58s-.11,12.94,3.45,18.73A38.66,38.66,0,0,1,212.55,115.77ZM154.13,70.6c-2,.39-2.84,2.24-4.13,3.49-.58.57.13.94.68,1.14,3.43,2.44,7,4.64,9.3,8.43.75,1.26,1.36,2.55,2,3.86.43.87.92,1.25,1.89.34,4.49-4.24,8.23-9.23,13.24-13.07a71.1,71.1,0,0,1-11.68-.92c-3.8-.56-7.38-2.18-11-3.63C154.42,70.21,154.25,70.47,154.13,70.6Zm-27,37.59c7.44-.34,14.82,1.56,22.29.61,2.93-.37,5.94-.19,8.8-1.09,2.24-.71,4-1.54,4-4.71-.1-5.22-2.1-9.8-3.56-14.61-1.35-4.46-4.35-7.12-8.09-9.65-6.85-4.63-8.76-3.19-13.32,1.51-7.31,7.56-10.72,16.89-10.73,27.43-1.34.16-2.38-.05-2.29-1.76,0-.85-.13-1.65-1.22-1.3-1.88.61-3.93.51-5.59,2q-7,6.32-14.2,12.33c-2.14,1.78-2.44,3,.36,4.18,1.09.45,1.47,1.53,2.1,2.37a67.55,67.55,0,0,1,6.61,10.73c1,2,2,2.29,3.62.53a94.65,94.65,0,0,1,7.6-7.78c3.88-3.36,6.89-6.84,4.84-12.44a6,6,0,0,1,0-2c0-4,0-4-3.9-4.13C124.25,108.39,125.78,108.42,127.09,108.19Zm79.58-40.6c-4,2-7.63,3.72-10.57,6.73-6.4,6.53-12.93,12.93-19.37,19.41-1.28,1.28-3.31,2.21-2,4.77.43.88-.58,1.78-1.61,2.11a11.37,11.37,0,0,1-3.08.9c-3.32.08-3.83,2.07-3.42,4.73.23,1.48-.25,2.39-1.76,2.54-2.66.25-2.35,2-2,3.82.28,1.67.93,3.54.46,5-.95,3-.06,5.67-.17,8.54a3,3,0,0,0,1.92-1.27c11.36-11.28,22.26-23,33.16-34.72a5.17,5.17,0,0,0,1.08-4.52,1.36,1.36,0,0,1,.13-.84c2.07-3.78,2-8.46,5.23-11.83A9.75,9.75,0,0,0,206.67,67.59Zm-62.49,56.48v-.19c.9.09,1.8.24,2.7.25,4.29,0,5.83-1.31,5.44-5-.16-1.53-.4-3.06-.54-4.6-.12-1.32-.86-2.38-2.3-2-2.61.67-5.25.31-7.86.54-.43,0-.46.31-.65.63-1.18,2-.59,4.25-1,6.31-.66,3.25.89,4.11,3.66,4.07Zm27.74-26c-.94-2.92-3.72-3.93-5.9-5.55-.3-.22-1.85-1.32-1.73.44A13.88,13.88,0,0,0,166,99.12c.89,1.35,3.77-.43,5.76-.92A.85.85,0,0,0,171.92,98.11ZM126,94.29c-1.73.55-6.52,5.92-6.57,7.21a1,1,0,0,0,.5,1c.83.5,4.57-.45,4.78-1.35C125.21,98.88,125.58,96.63,126,94.29Zm34.55,19.12a40.51,40.51,0,0,1-5.19,1c-1.2.09-1.2.65-1.13,1.47s-.47,1.93.51,2c1.85,0,3.89.45,5.55-.59S160.34,114.73,160.56,113.41Zm-23.1,5.71c.53-4.46.53-4.45-3.5-4.36a5.66,5.66,0,0,1-1.75-.16c-.61-.19-1.29-.35-1.47.33a5.89,5.89,0,0,0-.06,2.61c.2.94,1,.58,1.66.41A4.87,4.87,0,0,1,137.46,119.12Zm-3.05.81c-.7,3.46.51,5.78.91,8.22A15.22,15.22,0,0,0,134.41,119.93Zm11.68,13.63c.31-2.33.87-4.71-1-6.8C145.85,129,145,131.36,146.09,133.56Zm11.16-6.06c.31-2.25,1.05-4.54-.66-6.63C157.05,123.06,156,125.38,157.25,127.5Z"></path><path d="M205.55,126.52c0,.69,0,1.17-1,1.29-4.21.52-5.91,4.2-8.17,7-1.81,2.22-3.56,4.27-6.39,5.11-.85.25-1.72.13-2-.65-.15-.4.44-1.07,1.1-1.47a23.61,23.61,0,0,0,7.14-7.34c1.8-2.68,4.34-4.83,7.89-5C204.78,125.36,205.82,125.11,205.55,126.52Z"></path><path d="M87,127.35c5.94.32,9.64,4,12.64,8.47,1.07,1.63,1.87,3.36,4,3.7a1.74,1.74,0,0,1,1.56,2.08c-.43,1.39-1.77.49-2.52.24A8.92,8.92,0,0,1,98,137.61a14.8,14.8,0,0,0-11.13-8.06c-.86-.16-1.57-.33-1.58-1.33C85.24,127.56,86.11,127.12,87,127.35Z"></path><path d="M163.33,142.36a1.22,1.22,0,0,1,1.89-.73c4.62,2.56,9.51,2.41,14.46,1.42.86-.17,1.65-.24,1.94.65s-.58,1-1.2,1.24c-5.53,1.76-10.92,1.85-16-1.39C163.92,143.24,163.31,143.07,163.33,142.36Z"></path><path d="M121.77,148.86c-1.16-1.5-2,.1-3,.3s-1.58.17-1.88-.64c-.4-1.06.34-1.21,1.24-1.35,4.06-.6,7.79-2,10.62-5.11.83-.92,1.28.1,1.89.11.42,0,.26.9-.06,1.24A19.36,19.36,0,0,1,121.77,148.86Z"></path><path d="M204.61,133.1c1.92.05,6.38,3.65,6.85,5.31.08.28.55.82,0,.93s-1.25.88-1.8.3a14.81,14.81,0,0,0-5.29-3.37c-.63-.25-.81-1.51-.5-2.41A1.11,1.11,0,0,1,204.61,133.1Z"></path><path d="M140.64,139.22c-1.07,1.95-.52,4.36-1.65,6.35-.35.62-.62,1.28-1.53.75-.52-.3-1.22-.67-.75-1.29,1.42-1.89.69-4.17,1.29-6.2.27-.94.47-1.78,1.6-1.56C140.55,137.45,140.41,138.44,140.64,139.22Z"></path><path d="M157.81,147.71a5.9,5.9,0,0,1-3.9-3.11c-.38-.79,0-2.81-2.17-2.16-.59.17-.12-.42,0-.71a1.41,1.41,0,0,1,1.51-1c.92,0,1.29.38,1.71,1.19.82,1.58,1.5,3.39,3.72,3.7a1.15,1.15,0,0,1,.82,1.62C159.11,148.28,158.2,146.59,157.81,147.71Z"></path><path d="M87.88,137.26c-.32,1.21-.32,2.59-2.08,2.29-1.2-.2-2,.62-2.93,1-.52.21-1.21.3-1.54-.37-.15-.31-.25-.93-.08-1.07,1.66-1.39,3.23-3,5.59-3.05A1,1,0,0,1,87.88,137.26Z"></path><path class="cls-2" d="M270.42,142.77c-2.93,2.49-5.6,4.6-7.5,7.46a1.33,1.33,0,0,1-1.54.57c-.57-.21-.33-.83-.35-1.27-.12-2.42.11-4.84-.48-7.27-.4-1.62.84-1.59,2.05-1.29C265,141.57,267.5,142.1,270.42,142.77Z"></path><path class="cls-2" d="M261,160.28c3.12,2.48,4.19,5.64,6.11,8.19a1.53,1.53,0,0,1,0,2.13c-.65.63-1.43,0-2.06,0-4.74.25-4.94-2.32-4.1-5.9A21.45,21.45,0,0,0,261,160.28Z"></path><path class="cls-2" d="M21.46,164.9l-.25-.22c.05,0,.12,0,.15,0a.93.93,0,0,1,.09.2Z"></path><path class="cls-1" d="M206.67,67.59A9.75,9.75,0,0,1,204.58,73c-3.24,3.37-3.16,8.05-5.23,11.83a1.36,1.36,0,0,0-.13.84,5.17,5.17,0,0,1-1.08,4.52c-10.9,11.72-21.8,23.44-33.16,34.72a3,3,0,0,1-1.92,1.27c.11-2.87-.78-5.59.17-8.54.47-1.46-.18-3.33-.46-5-.3-1.85-.61-3.57,2-3.82,1.51-.15,2-1.06,1.76-2.54-.41-2.66.1-4.65,3.42-4.73a11.37,11.37,0,0,0,3.08-.9c1-.33,2-1.23,1.61-2.11-1.27-2.56.76-3.49,2-4.77,6.44-6.48,13-12.88,19.37-19.41C199,71.31,202.66,69.56,206.67,67.59Z"></path><path class="cls-2" d="M126.44,107.68c0-10.54,3.42-19.87,10.73-27.43,4.56-4.7,6.47-6.14,13.32-1.51,3.74,2.53,6.74,5.19,8.09,9.65C160,93.2,162,97.78,162.14,103c.06,3.17-1.72,4-4,4.71-2.86.9-5.87.72-8.8,1.09-7.47,1-14.85-1-22.29-.61Zm18-7c7.43-.12,9.57-5.06,9.19-11.68-.18-3.25-5.3-7.24-9-7-4.24.27-8.89,7.1-8.48,12.48C136.47,99,139.08,100.92,144.43,100.65Z"></path><path class="cls-1" d="M126.44,107.68l.65.51c-1.31.23-2.84.2-2.75,2.19,3.95.14,3.95.14,3.9,4.13a6,6,0,0,0,0,2c2,5.6-1,9.08-4.84,12.44a94.65,94.65,0,0,0-7.6,7.78c-1.6,1.76-2.63,1.48-3.62-.53a67.55,67.55,0,0,0-6.61-10.73c-.63-.84-1-1.92-2.1-2.37-2.8-1.16-2.5-2.4-.36-4.18q7.24-6,14.2-12.33c1.66-1.5,3.71-1.4,5.59-2,1.09-.35,1.26.45,1.22,1.3C124.06,107.63,125.1,107.84,126.44,107.68Z"></path><path class="cls-1" d="M154.13,70.6c.12-.13.29-.39.35-.36,3.57,1.45,7.15,3.07,11,3.63a71.1,71.1,0,0,0,11.68.92c-5,3.84-8.75,8.83-13.24,13.07-1,.91-1.46.53-1.89-.34-.64-1.31-1.25-2.6-2-3.86-2.27-3.79-5.87-6-9.3-8.43C152.07,73.86,154.16,73,154.13,70.6Z"></path><path class="cls-2" d="M144.18,124.07h-.56c-2.77,0-4.32-.82-3.66-4.07.43-2.06-.16-4.26,1-6.31.19-.32.22-.6.65-.63,2.61-.23,5.25.13,7.86-.54,1.44-.37,2.18.69,2.3,2,.14,1.54.38,3.07.54,4.6.39,3.69-1.15,5-5.44,5-.9,0-1.8-.16-2.7-.25Z"></path><path class="cls-2" d="M171.92,98.11a.85.85,0,0,1-.19.09c-2,.49-4.87,2.27-5.76.92A13.88,13.88,0,0,1,164.29,93c-.12-1.76,1.43-.66,1.73-.44C168.2,94.18,171,95.19,171.92,98.11Z"></path><path class="cls-2" d="M126,94.29c-.43,2.34-.8,4.59-1.29,6.81-.21.9-4,1.85-4.78,1.35a1,1,0,0,1-.5-1C119.49,100.21,124.28,94.84,126,94.29Z"></path><path class="cls-2" d="M160.56,113.41c-.22,1.32,1.47,2.79-.26,3.86s-3.7.64-5.55.59c-1,0-.44-1.26-.51-2s-.07-1.38,1.13-1.47A40.51,40.51,0,0,0,160.56,113.41Z"></path><path class="cls-2" d="M137.46,119.12a4.87,4.87,0,0,0-5.12-1.17c-.63.17-1.46.53-1.66-.41a5.89,5.89,0,0,1,.06-2.61c.18-.68.86-.52,1.47-.33a5.66,5.66,0,0,0,1.75.16C138,114.67,138,114.66,137.46,119.12Z"></path><path class="cls-2" d="M154.13,70.6c0,2.41-2.06,3.26-3.45,4.63-.55-.2-1.26-.57-.68-1.14C151.29,72.84,152.11,71,154.13,70.6Z"></path><path class="cls-1" d="M134.41,119.93a15.22,15.22,0,0,1,.91,8.22C134.92,125.71,133.71,123.39,134.41,119.93Z"></path><path class="cls-1" d="M146.09,133.56c-1.12-2.2-.24-4.56-1-6.8C147,128.85,146.4,131.23,146.09,133.56Z"></path><path class="cls-1" d="M157.25,127.5c-1.24-2.12-.2-4.44-.66-6.63C158.3,123,157.56,125.25,157.25,127.5Z"></path><path class="cls-4" d="M144.43,100.65c-5.35.27-8-1.68-8.3-6.2-.41-5.38,4.24-12.21,8.48-12.48,3.71-.24,8.83,3.75,9,7C154,95.59,151.86,100.53,144.43,100.65Zm-.9-14.84a11.2,11.2,0,0,1,7.05,7.94c1-2.29,1.87-4.15.15-6S146.71,85.14,143.53,85.81Z"></path><path class="cls-2" d="M143.53,85.81c3.18-.67,5.39.1,7.2,2s.81,3.66-.15,6A11.2,11.2,0,0,0,143.53,85.81Z"></path></g></g><g><path class="cls-5" d="M93.49,179.88c-.82,1.44-1.57,2.79-2.34,4.13-.63,1.1-1.36,1.13-2,0-.79-1.34-1.5-2.73-2.27-4.08-.18-.32-.19-.79-.83-.92a28.73,28.73,0,0,0,0,4.15c0,.6.13,1.19.13,1.79,0,.31.36.89-.38.87-.52,0-1-.09-1-.84-.05-1.88-.17-3.75-.23-5.63,0-1.15,0-2.31,0-3.47,0-.37-.32-1,.4-1s1.17,0,1.47.72a54.9,54.9,0,0,0,2.89,6.17c.19.33.26.88.68.89s.51-.54.69-.87c.88-1.66,1.79-3.3,2.57-5,.35-.74.81-.73,1.44-.65s.64.57.65,1.06c.07,3,.16,6,.21,9,0,.31.34.92-.43.81-.46-.06-1.07.05-1.08-.78,0-1.68-.11-3.36-.19-5A1.38,1.38,0,0,0,93.49,179.88Z"></path><path class="cls-5" d="M195.27,190.63v-8.48c0-.84,0-1.68,0-2.51,0-.62,1-1.1,1.19-.64.44.82.67.23,1,0a3.31,3.31,0,0,1,3.49-.39,3.12,3.12,0,0,1,1.52,3.15c-.08,2.79-2,4.74-4.32,4.47-.54-.07-1.13-.85-1.55-.24-.29.42-.11,1.16-.13,1.76a11.46,11.46,0,0,0,0,1.55C196.55,190.32,196.13,190.73,195.27,190.63Zm1.32-7.95a2.12,2.12,0,0,0,2.09,2.28,3,3,0,0,0,2.53-3,2.08,2.08,0,0,0-2-2.26A2.91,2.91,0,0,0,196.59,182.68Z"></path><path class="cls-5" d="M130.89,182.6c3.14-1.47,5.31-.15,5.43,3.15,0,1,0,2.08,0,3.12,0,.49,0,.83-.69.83s-.77-.32-.76-.89c0-1.12.05-2.24,0-3.35a2.06,2.06,0,0,0-2-2.24c-1.07,0-1.82.81-1.89,2.19-.06,1.12,0,2.23,0,3.35,0,.44,0,.78-.6.76s-.8-.09-.79-.72q.07-4.92-.27-9.82c0-.31-.08-.71.42-.64s.93-.13,1,.59C130.72,180.12,130.81,181.3,130.89,182.6Z"></path><path class="cls-5" d="M174.67,184.8c0,1,0,2.08,0,3.11,0,.73-.81,1.16-1.3.66s-.52-.37-.93-.15c-1.71.92-3,.8-4-.29a4.63,4.63,0,0,1-.53-5.14,3.42,3.42,0,0,1,4.07-1.69c.57.14,1,.34,1.61-.11s1.25-.34,1.16.74,0,1.92,0,2.87Zm-1.36,0a2.24,2.24,0,0,0-2.22-2.43,2.62,2.62,0,0,0-2.43,2.72,2.36,2.36,0,0,0,2.15,2.54A2.74,2.74,0,0,0,173.31,184.84Z"></path><path class="cls-5" d="M114.26,184.94c0-.92,0-1.84,0-2.76s.49-1.25,1.22-.73c.48.35.74.21,1.15.07a3.27,3.27,0,0,1,4.35,2.55,29.61,29.61,0,0,1,.21,4.42c0,.49-.19.64-.64.59s-.83.06-.81-.58c0-1.12,0-2.24,0-3.36a2.58,2.58,0,0,0-.83-2,1.8,1.8,0,0,0-3,.94,18.32,18.32,0,0,0-.15,3.7c0,.38.37,1-.52,1s-.79-.55-.79-1.1v-2.75Z"></path><path class="cls-5" d="M96.89,183.44a3.36,3.36,0,0,1,3.4-3.54,4.49,4.49,0,0,1,4.24,4.36,3.31,3.31,0,0,1-3.28,3.53A4.46,4.46,0,0,1,96.89,183.44Zm1.43.16a2.85,2.85,0,0,0,2.66,2.85,2.21,2.21,0,0,0,2.14-2.27,2.93,2.93,0,0,0-2.68-2.84A2.14,2.14,0,0,0,98.32,183.6Z"></path><path class="cls-5" d="M113,185a3.39,3.39,0,0,1-3.39,3.57,4.4,4.4,0,0,1-4.24-4.34,3.5,3.5,0,0,1,3.44-3.58A4.32,4.32,0,0,1,113,185Zm-1.4-.09a2.79,2.79,0,0,0-2.66-2.83,2.28,2.28,0,0,0-2.14,2.3,2.93,2.93,0,0,0,2.56,2.85A2.27,2.27,0,0,0,111.64,184.88Z"></path><path class="cls-5" d="M137.47,185.78A3.54,3.54,0,0,1,141,182,3.85,3.85,0,0,1,145,185.9a3.94,3.94,0,0,1-3.75,4A3.9,3.9,0,0,1,137.47,185.78Zm6.06.05a2.54,2.54,0,0,0-2.35-2.55,2.37,2.37,0,0,0-2.29,2.67,2.47,2.47,0,0,0,2.32,2.56A2.49,2.49,0,0,0,143.53,185.83Z"></path><path class="cls-5" d="M193.63,183c0,1,0,2,0,3s-.71,1.08-1.13.77-.69-.19-1.07,0c-2,1.21-4.05.25-4.28-2.09-.13-1.39,0-2.79-.09-4.19,0-.66.38-.66.84-.71.62-.09.63.28.62.72,0,1.08-.09,2.16-.07,3.23s.26,1.95,1.46,2.15a2.16,2.16,0,0,0,2.24-1.76,15.85,15.85,0,0,0,.23-3.57c0-.58-.3-1.42.78-1.35s.41.91.48,1.37a15.86,15.86,0,0,1,0,2.39Z"></path><path class="cls-5" d="M124.93,181.61a3,3,0,0,1,2.62,1.17c.21.28.69.66.26,1a.72.72,0,0,1-1.19-.25,1.65,1.65,0,0,0-1.75-.78,1.1,1.1,0,0,0-1.09.93c-.11.65.35,1,.86,1.11s1.33.22,2,.37c.91.21,1.67.63,1.78,1.68a2.2,2.2,0,0,1-1.31,2.44,3.67,3.67,0,0,1-4.55-1.25c-.15-.24-.53-.53-.13-.81s.81-.45,1.15.07a2.24,2.24,0,0,0,2.26,1c.68-.08,1.16-.39,1.22-1.09s-.51-.92-1.06-1.06-1-.18-1.53-.28c-1.43-.3-2.19-1.17-2-2.34A2.42,2.42,0,0,1,124.93,181.61Z"></path><path class="cls-5" d="M158.08,189.76a3.07,3.07,0,0,1-2.9-1.41c-.19-.31-.41-.66.08-.9s.69-.37,1,.14a2,2,0,0,0,2.63.7,1.19,1.19,0,0,0,.79-1.22c0-.59-.53-.75-1-.82s-1.2-.1-1.79-.21a1.8,1.8,0,0,1-1.66-1.48,2.14,2.14,0,0,1,.91-2.3,3.18,3.18,0,0,1,4.05.39c.24.29.76.67.23,1.09s-.81.28-1.17-.27a1.56,1.56,0,0,0-2-.47,1,1,0,0,0-.75,1.1,1,1,0,0,0,.89.83,13.81,13.81,0,0,0,1.42.19c1.08.12,2.11.31,2.25,1.67a2.55,2.55,0,0,1-1.82,2.76A6,6,0,0,1,158.08,189.76Z"></path><path class="cls-5" d="M182.52,184.12c0-.4,0-.8,0-1.2.07-.81,0-1.46-1.1-1.18-.4.09-.57-.12-.58-.53s.06-.75.55-.72c1.1.08,1.22-.55,1.09-1.41-.07-.52,0-.92.7-1s.7.52.65.94c-.12,1,.28,1.29,1.22,1.09.3-.07.74-.21.77.4s-.11.89-.7.84c-1.18-.1-1.35.56-1.27,1.53.06.75,0,1.51,0,2.27s.37,1.31,1.25,1.15c.47-.08.73-.05.82.51s-.25.75-.7.87a2,2,0,0,1-2.72-2.05c0-.52,0-1,0-1.55Z"></path><path class="cls-5" d="M149.23,189.71a2,2,0,0,1-2.15-2.06c-.07-1.11-.06-2.23,0-3.34,0-.64-.14-1-.86-.9-.47.06-.83,0-.85-.63s.36-.61.76-.58c.9.06.78-.54.78-1.11s-.28-1,.55-1,.86.44.82,1c-.08.89.26,1.24,1.16,1.12.42-.06.9-.12.91.58s-.45.68-.88.63c-.89-.1-1.21.22-1.11,1.13s0,1.76.06,2.63c.05.71.38,1.24,1.2,1.18.5,0,.91-.13.92.63s-.42.75-.92.77Z"></path><path class="cls-5" d="M163.15,185.35c0-.44,0-.88,0-1.32.08-.76-.06-1.24-1-1-.42.09-.66,0-.7-.54s.21-.74.69-.67c1,.13,1-.43.91-1.16,0-.43-.28-1,.54-1.05s.84.42.79,1c-.09.91.26,1.23,1.16,1.08.4-.07.9-.2.91.55s-.42.7-.86.66c-1-.09-1.21.4-1.12,1.28s0,1.68,0,2.52.4,1.29,1.28,1.16c.45-.07.74-.08.8.51s-.21.77-.71.88a2.08,2.08,0,0,1-2.73-2.14c0-.56,0-1.12,0-1.68Z"></path><path class="cls-5" d="M176.29,184.67c0-1,0-2,0-3-.05-.74.36-1.06.89-.81.77.37,1.31,0,2-.22.38-.14,1-.51,1.16.24s0,1-.81,1a1.77,1.77,0,0,0-1.73,1.8c-.12,1.26-.14,2.54-.15,3.81,0,.63-.16,1-.86.95s-.46-.6-.47-1c0-.95,0-1.91,0-2.86Z"></path><path class="cls-6" d="M196.59,182.68a2.91,2.91,0,0,1,2.66-3,2.08,2.08,0,0,1,2,2.26,3,3,0,0,1-2.53,3A2.12,2.12,0,0,1,196.59,182.68Z"></path><path class="cls-6" d="M173.31,184.84a2.74,2.74,0,0,1-2.5,2.83,2.36,2.36,0,0,1-2.15-2.54,2.62,2.62,0,0,1,2.43-2.72A2.24,2.24,0,0,1,173.31,184.84Z"></path><path class="cls-6" d="M98.32,183.6a2.14,2.14,0,0,1,2.12-2.26,2.93,2.93,0,0,1,2.68,2.84,2.21,2.21,0,0,1-2.14,2.27A2.85,2.85,0,0,1,98.32,183.6Z"></path><path class="cls-6" d="M111.64,184.88a2.27,2.27,0,0,1-2.24,2.32,2.93,2.93,0,0,1-2.56-2.85,2.28,2.28,0,0,1,2.14-2.3A2.79,2.79,0,0,1,111.64,184.88Z"></path><path class="cls-6" d="M143.53,185.83a2.49,2.49,0,0,1-2.32,2.68,2.47,2.47,0,0,1-2.32-2.56,2.37,2.37,0,0,1,2.29-2.67A2.54,2.54,0,0,1,143.53,185.83Z"></path></g></svg>