<svg xmlns="http://www.w3.org/2000/svg" id="Layer_1" data-name="Layer 1" viewBox="0 0 181 181"><defs><style>.cls-1{fill:#fcfcfb;}.cls-2{fill:#151515;}.cls-3{fill:#6e6d6d;}</style></defs><path class="cls-1" d="M-.58,181.58q0-90,0-179.92C-.61.31-.3,0,1.05,0Q90.2.06,179.34,0c1.35,0,1.66.31,1.66,1.66q-.06,89.15,0,178.29c0,1.35-.31,1.66-1.66,1.66Q89.37,181.55-.58,181.58Zm23.61-21c.32-.36.73.46,1-.08l.64.07c.17.39.24,1.08.81.27a2.63,2.63,0,0,1,2.57.2,24.44,24.44,0,0,0,6.07,2.62,65.54,65.54,0,0,0,9.47,1.7c1.24.16,2.6.61,4,.17.64-.19,1.78-.74,2.37-.29,1,.75,2.12.6,3.13,1s1.75-.7,2.78-.37a50.06,50.06,0,0,0,9,1.78l.45-.12c.38.34.77.66,1.34.47.5.17,1,.91,1.51.08l.47,0c.05.24.1.26.15,0l.46-.14c.26,1,.73.24,1.12.14a50,50,0,0,0,11.54,0c.4.1.87.83,1.13-.14l.46.14c.05.24.1.27.15,0l.47,0c.55.83,1,.09,1.51-.08.57.19,1-.13,1.35-.47l.44.12c2.16,0,4.18-.83,6.31-1.05a1.74,1.74,0,0,1,2.11,1.23c1.39,3,3.32,5.44,7,5.76.41,0,.79.31.69.6-.3.85.22.77.71.76,2-.05,3.86.7,5.87.72,1.19,0,1.46-.85,2.21-1.13a9.14,9.14,0,0,0,4.44-2.84,15.14,15.14,0,0,1,3-2.53c1-.8,2.39-1.16,3.21-2.34a2.67,2.67,0,0,1,.86-.76c1.47,1.21,3.23.4,4.83.69,3.85.7,7.66-.47,11.45-.91a22.54,22.54,0,0,0,6.1-1.18c2.22-.9,4.83-.77,7.19-1.41,2-.54,2.9-2.27,4.1-3.91,3.21-4.35,2.84-8.78,1.54-13.52-1.1-4-4.6-5.24-7.67-7-1.64-.92-3.38-1.59-5.31-.76-1.2.51-1.26.06-1-1,.5-2.28,2-4.16,2.31-6.59.26-1.72,1.16-3.46.94-5.3-.28-2.36-.43-4.78-3.37-5.76a3.54,3.54,0,0,1-2.49-2.73c-.25-1.5-1.58-1.61-2.69-1.86a3.43,3.43,0,0,1-1-.16,5.75,5.75,0,0,0-4.42-.22c-2.68.88-2.82.91-2.85-2-.05-3.91,0-7.82.21-11.72.06-1.31,0-2.64,0-3.91s.62-2.47.44-3.86a40.15,40.15,0,0,1-.43-5.51c0-4.93-.22-9.87-.29-14.8,0-1.67.12-3.34.25-5,.23-3-.71-6-.39-9,.29-2.73.23-5.5.39-8.25.2-3.81-1-6.18-4.82-7.46-2.73-.93-5.65-1.26-8.15-3.16a16.05,16.05,0,0,0-3.8-2.58c-2.36-.84-4.65-1.84-7-2.76-3.71-1.47-4.08-2.11-3.45-6.07a2.17,2.17,0,0,0-.94-2.38c1.35-1.6,3.26-1,4.95-1.27a5.29,5.29,0,0,0,4.43-4.63,34.37,34.37,0,0,0-1.27-9.68A3.09,3.09,0,0,0,109,8,65.55,65.55,0,0,0,101.15,7c-2.74-.07-5.51-.2-8.26-.37-.86,0-1.82-.53-2.56-.28-3.17,1-6.36.42-9.55.39a24.89,24.89,0,0,0-3.86,0,31.76,31.76,0,0,1-7.07.44c-5.36-.37-10.64.42-16,.77a38.11,38.11,0,0,0-6.52.63c-1.75.41-3.55-.07-5.31,1-2.43,1.53-4,6-2.22,8.23a17.38,17.38,0,0,1,2.32,3.45,5.86,5.86,0,0,0,3.33,3.38c2.18.64,2.95,1.48,2.62,3.82a16,16,0,0,0,0,3.17c.11,1.83-1.42,1.52-2.33,2-.1.06-.18.17-.28.22-1.64.71-3.24,1.52-4.94,2.14a14.61,14.61,0,0,0-4.79,2.54,11.64,11.64,0,0,1-5.27,2.92A48.23,48.23,0,0,0,25,43.1,5.47,5.47,0,0,0,21.19,47c-.56,2-.23,3.86-.15,5.82a91.71,91.71,0,0,1-.15,10.74c-.27,3.46.09,7,.16,10.47,0,1.46-.56,3-.37,4.32.61,4.29-.05,8.52-.24,12.76-.1,2.33.58,4.6.42,6.82-.25,3.67.39,7.3.13,10.94-.12,1.69.45,3.42-.19,5.06A6.13,6.13,0,0,0,21,118.4a6.27,6.27,0,0,1,.36,2.84A33.68,33.68,0,0,0,21,128c.21,2.53.49,5.09.49,7.58a61.78,61.78,0,0,1-.3,7.17,74.39,74.39,0,0,0,0,8.58,27.64,27.64,0,0,0,.59,7.09.38.38,0,0,0-.17,0s-.1.07-.1.08c.33.63.41,1.5,1.4,1.5a.55.55,0,0,0,.12.24c0,.16,0,.32,0,.48h-.17Z"></path><path class="cls-2" d="M84.22,168.12l-.47,0H83.6l-.46-.14c-.52-1.17-.76,0-1.13.14a50,50,0,0,1-11.54,0c-.36-.17-.6-1.29-1.12-.14l-.46.14h-.15l-.47,0c-.46-.79-.93-1.35-1.51-.08-.57.19-1-.13-1.34-.47s-.38-.18-.45.12a50.06,50.06,0,0,1-9-1.78c-1-.33-1.74.77-2.78.37s-2.14-.24-3.13-1c-.59-.45-1.73.1-2.37.29-1.45.44-2.81,0-4-.17a65.54,65.54,0,0,1-9.47-1.7,24.44,24.44,0,0,1-6.07-2.62,2.63,2.63,0,0,0-2.57-.2c-.15-.47-.5-.3-.81-.27l-.64-.07c-.21-.52-.61-.52-1.06-.38a.55.55,0,0,1-.12-.24c.25-1-.66-1.09-1.13-1.54a27.64,27.64,0,0,1-.59-7.09,74.39,74.39,0,0,1,0-8.58,61.78,61.78,0,0,0,.3-7.17c0-2.49-.28-5.05-.49-7.58a33.68,33.68,0,0,1,.33-6.73A6.27,6.27,0,0,0,21,118.4a6.13,6.13,0,0,1-.18-4.46c.64-1.64.07-3.37.19-5.06.26-3.64-.38-7.27-.13-10.94.16-2.22-.52-4.49-.42-6.82.19-4.24.85-8.47.24-12.76-.19-1.35.4-2.86.37-4.32-.07-3.49-.43-7-.16-10.47A91.71,91.71,0,0,0,21,52.83c-.08-2-.41-3.83.15-5.82A5.47,5.47,0,0,1,25,43.1a48.23,48.23,0,0,1,5.5-1.59,11.64,11.64,0,0,0,5.27-2.92,14.61,14.61,0,0,1,4.79-2.54c1.7-.62,3.3-1.43,4.94-2.14.1,0,.18-.16.28-.22.91-.5,2.44-.19,2.33-2a16,16,0,0,1,0-3.17c.33-2.34-.44-3.18-2.62-3.82a5.86,5.86,0,0,1-3.33-3.38,17.38,17.38,0,0,0-2.32-3.45c-1.76-2.24-.21-6.7,2.22-8.23,1.76-1.1,3.56-.62,5.31-1A38.11,38.11,0,0,1,53.89,8c5.32-.35,10.6-1.14,16-.77a31.76,31.76,0,0,0,7.07-.44,24.89,24.89,0,0,1,3.86,0c3.19,0,6.38.66,9.55-.39.74-.25,1.7.23,2.56.28,2.75.17,5.52.3,8.26.37A65.55,65.55,0,0,1,109,8a3.09,3.09,0,0,1,2.66,2.43,34.37,34.37,0,0,1,1.27,9.68,5.29,5.29,0,0,1-4.43,4.63c-1.69.25-3.6-.33-4.95,1.27a2.17,2.17,0,0,1,.94,2.38c-.63,4-.26,4.6,3.45,6.07,2.33.92,4.62,1.92,7,2.76a16.05,16.05,0,0,1,3.8,2.58c2.5,1.9,5.42,2.23,8.15,3.16,3.79,1.28,5,3.65,4.82,7.46-.16,2.75-.1,5.52-.39,8.25-.32,3,.62,6,.39,9-.13,1.66-.27,3.33-.25,5,.07,4.93.31,9.87.29,14.8a40.15,40.15,0,0,0,.43,5.51c.18,1.39-.47,2.53-.44,3.86s.11,2.6,0,3.91c-.18,3.9-.26,7.81-.21,11.72,0,2.93.17,2.9,2.85,2a5.75,5.75,0,0,1,4.42.22,3.43,3.43,0,0,0,1,.16c1.11.25,2.44.36,2.69,1.86a3.54,3.54,0,0,0,2.49,2.73c2.94,1,3.09,3.4,3.37,5.76.22,1.84-.68,3.58-.94,5.3-.36,2.43-1.81,4.31-2.31,6.59-.24,1.09-.18,1.54,1,1,1.93-.83,3.67-.16,5.31.76,3.07,1.73,6.57,2.95,7.67,7,1.3,4.74,1.67,9.17-1.54,13.52-1.2,1.64-2.14,3.37-4.1,3.91-2.36.64-5,.51-7.19,1.41a22.54,22.54,0,0,1-6.1,1.18c-3.79.44-7.6,1.61-11.45.91-1.6-.29-3.36.52-4.83-.69a2.67,2.67,0,0,0-.86.76c-.82,1.18-2.21,1.54-3.21,2.34a15.14,15.14,0,0,0-3,2.53,9.14,9.14,0,0,1-4.44,2.84c-.75.28-1,1.15-2.21,1.13-2,0-3.88-.77-5.87-.72-.49,0-1,.09-.71-.76.1-.29-.28-.57-.69-.6-3.65-.32-5.58-2.75-7-5.76a1.74,1.74,0,0,0-2.11-1.23c-2.13.22-4.15,1.09-6.31,1.05-.07-.3-.21-.38-.44-.12-.39.34-.78.66-1.35.47C85.15,166.74,84.68,167.34,84.22,168.12ZM28.08,131a44.55,44.55,0,0,1,6,.22A73.56,73.56,0,0,1,43,132.55c3.87.73,7.9.59,11.85.87,2.28.17,4.55.45,6.82.67,1.45.14,3.06-.55,4.25-.16,2.32.75,4.65.49,6.94.69,5.22.44,10.46-.36,15.7-.38,4.58,0,9.16-1,13.75-1.13,2.09-.07,4.12-.65,6.18-.53,1.64.09,3-1,4.54-.94a.84.84,0,0,0,.74-.5c2.09-3.6,5.17-6.43,8.18-9.14,2.08-1.87,2.06-4,2.51-6.12.22-1-.76-2.16-.31-3.3a4,4,0,0,0,.49-2.35c-.41-2.62-.08-5.28-.29-8-.23-2.89-.65-6-.2-8.83A61.12,61.12,0,0,0,124.36,81c-.16-3.16.2-6.28.34-9.41a51.08,51.08,0,0,0,0-5.67c0-.66-.63-1-1.59-.9a50.55,50.55,0,0,1-8,.78,39,39,0,0,0-5.63.51,33,33,0,0,1-7.83.57c-.85-.09-1.62-.33-2.43-.49-.16,1.13-1.07.68-1.7.8-3.1.59-6.23,0-9.37.28-4.72.45-9.49.37-14.24.47-1.53,0-3.06,0-4.58-.12a116.46,116.46,0,0,0-12.67-.47A16.17,16.17,0,0,1,53.43,67c-.26,0,.2-.9-.73-.56a12.75,12.75,0,0,1-7.61.18,26.17,26.17,0,0,0-6.73-.91c-3.12.07-6.11-.54-9.17-.7-.54,0-1,0-1.16.51a9.23,9.23,0,0,0-.51,3.18c.48,2.63.38,5.29.66,7.92.32,3.15-.2,6.39-.3,9.59-.08,2.61.55,5.21.47,7.76a88.11,88.11,0,0,1-.52,9.44c-.38,2.61.4,5.36-.44,8,0,.13.12.23.33.3a1.35,1.35,0,0,1,.76,1.74c-.91,2.07-.12,4.08.11,6.07.1.91-.62,1.56-.41,2.15C29.29,124.79,28.32,127.88,28.08,131Zm91.81-72.57a10.73,10.73,0,0,0,4.17-.29c.75-.23.92-.23.83-1.07a28.64,28.64,0,0,1,.25-5.62c.07-.79.33-1.77-.62-2.2-2.56-1.17-4.68-3-7.24-4.27-2.71-1.31-6-1.2-8.25-3.58-3.86-.08-5.93-3.64-9.27-4.74a1.27,1.27,0,0,1-.63-.62c-.85-2-1.75-4-1.58-6.31.24-3.22.23-3.22-2.76-3.43a.3.3,0,0,1-.16-.08c-.78-.72-1.81-.31-2.61-.34-2.62-.07-5.27,1.33-7.88.16-1.51-.68-2.57.9-4.07.36s-3.11.62-4.24.16c-2.48-1-4.87.45-7.32-.34-1.2-.39-2.66.06-4.13-.2-2.75-.48-5.68.12-8.54.17-.72,0-1,.59-.88.84.3.84-.11,1.58-.13,2.36-.08,3.27.09,6.69-4,8a.73.73,0,0,0-.29.19C47.3,41,42.78,42,38.66,43.66c-2.28.94-4.73,1.45-6.68,3.11a3.61,3.61,0,0,1-1.5.81,4,4,0,0,0-3.15,3.87c0,1.69.66,3.34.2,5.09-.07.27-.54,1.46,1.07,1.65,3.81.46,7.63.38,11.44.77,2.69.27,5.46.2,8.14.73,1.13.23,2.1-.5,3.17-.14a18.62,18.62,0,0,0,5.5.65c2.68.08,5.35-.05,8,.06,1.83.07,3.71.33,5.47.32,2.53,0,5.09-.09,7.63-.13,1.66,0,3.41.4,5,0,2-.5,3.91-.2,5.83-.29,3.19-.15,6.4.24,9.59-.23a12.06,12.06,0,0,1,3.83-.36,9,9,0,0,0,3.52-.12,15.48,15.48,0,0,1,4.69-.37,26.21,26.21,0,0,0,4.79-.13C116.69,58.84,118.31,58.56,119.89,58.43ZM28.32,148.22c-.22,2.49.58,4.46.58,6.5,0,.57.36.34.56.35a27.26,27.26,0,0,1,4.28,1.14c1.66.38,3.22,1.06,5,1,1.35-.07,2.59,1.07,4.19,1,4.05-.3,8,.77,12.12.83A41.08,41.08,0,0,1,63,160a31.16,31.16,0,0,0,8.52.34c2.15-.13,4.29.9,6.52.33a15,15,0,0,1,6.67,0,2.75,2.75,0,0,0,.9-.05,65.93,65.93,0,0,1,6.81-.94c2.13-.09,3.49-.51,4.19-2.9,1-3.52,3.3-6.4,5.58-9.29a44.14,44.14,0,0,0,3.75-5.35,1.59,1.59,0,0,0,.26-1.28c-.51.41-.83-.43-1.47-.14-1.43.63-3,.44-4.55.58-1.89.17-3.77-.16-5.73.34-1.35.34-2.84,1-4.47.72a16.9,16.9,0,0,0-2.57,0c-3.27,0-6.49.56-9.76.56-3.86,0-7.69-.38-11.54-.42a41.24,41.24,0,0,1-8.8-.94c-1-.23-2.15-.67-3-.36a6.71,6.71,0,0,1-3.26.1c-3.11-.25-6.2-.8-9.3-1.17a48,48,0,0,1-9.72-2.2c-2.51-.86-4,.16-3.78,2.8S28.83,146,28.32,148.22Zm113.82-21.7a17.34,17.34,0,0,0-.18-2.26c0-2.53-3.15-2.48-3.6-4.59a1.09,1.09,0,0,0-.32.06c-1.57.69-3.27.84-4.85,1.74-2.29,1.3-4.93,2-6.53,4.33-.15.22-.46.15-.6.25a27.57,27.57,0,0,0-5.47,4.65,57.43,57.43,0,0,0-4.76,5.34c-1.42,2.07-3.44,3.75-4.17,6.26-.33,1.12-1.31,1.72-1.82,2.71-1.44,2.74-3.13,5.36-4.52,8.13-.81,1.59-2.69,2.51-2.88,4.34a28,28,0,0,1-1.07,4.22,2.38,2.38,0,0,0,.45,2.29,27.72,27.72,0,0,1,1.78,2.49c.77,1,3.67,2.06,4.69,1.59a37.67,37.67,0,0,0,7.79-5.07,81.34,81.34,0,0,0,9.34-9.14c2.45-2.76,4.87-5.5,7.1-8.43,1.49-2,2.85-4.05,4.16-6.07a37.08,37.08,0,0,0,4.18-7.64C141.42,130.15,142.28,128.7,142.14,126.52ZM46.48,18.83a4,4,0,0,1,2.44-.31,76.35,76.35,0,0,0,10.8.13c1.71,0,3.45.66,5,.46,2.92-.4,5.86-.1,8.76-.6a12,12,0,0,1,2.86-.22c3,.25,5.92,1.1,8.91.05a2.65,2.65,0,0,1,1.77.15c2.4,1.06,4.8.2,7.2.17,2.83,0,5.51-1.46,8.45-.7.75.2,2.09.51,2.6-.35.41-.68.16-1.76.2-2.66-.87,0-1-1.32-2.42-.93a5.81,5.81,0,0,1-4,.09c-3.65-1.78-7.58-.08-11.39-1.18C85,12.18,82,13.08,79.1,13c-3.16,0-6.31-.71-9.57-.1-2.9.54-6,0-9,.16-3.95.25-7.87.78-11.81,1.16-.67.06-1.36.3-1.42.87C47.18,16.37,46.3,17.42,46.48,18.83Zm96.06,124.78c-.91-.33-1.48.1-1.89.95-.64,1.34-1,3.28-2.07,3.83-2.1,1.1-2.19,3.38-3.6,4.87a29.14,29.14,0,0,0-4,4.78c-.25.42-1.62,1.47-.42,1.72a8.58,8.58,0,0,0,3.18.41c3-.49,6.07-.63,9.09-1a23.78,23.78,0,0,0,7.52-2.7,3.84,3.84,0,0,0,1.3-.88c1.74-2,1.35-5.92.24-8.11a3.4,3.4,0,0,0-1.37-1.58C148.06,144.58,145.65,143,142.54,143.61Zm-121-32.08-.28-.21a1.9,1.9,0,0,0-.25.4s.15.15.23.22Z"></path><path class="cls-3" d="M21.76,158.39c.47.45,1.38.57,1.13,1.54-1,0-1.07-.87-1.4-1.5,0,0,.06-.08.1-.08A.38.38,0,0,1,21.76,158.39Z"></path><path class="cls-3" d="M66.76,168c.58-1.27,1-.71,1.51.08C67.72,169,67.26,168.21,66.76,168Z"></path><path class="cls-3" d="M84.22,168.12c.46-.78.93-1.38,1.51-.08C85.23,168.21,84.77,169,84.22,168.12Z"></path><path class="cls-3" d="M69.35,168c.52-1.15.76,0,1.12.14C70.08,168.2,69.61,168.93,69.35,168Z"></path><path class="cls-3" d="M82,168.1c.37-.16.61-1.31,1.13-.14C82.88,168.93,82.41,168.2,82,168.1Z"></path><path class="cls-3" d="M23,160.17c.45-.14.85-.14,1.06.38-.31.54-.72-.28-1,.08l0,0Z"></path><path class="cls-3" d="M24.71,160.62c.31,0,.66-.2.81.27C25,161.7,24.88,161,24.71,160.62Z"></path><path class="cls-3" d="M23,160.63l-.15,0h.17Z"></path><path class="cls-3" d="M65,167.69c.07-.3.21-.38.45-.12Z"></path><path class="cls-3" d="M87.08,167.57c.23-.26.37-.18.44.12Z"></path><path class="cls-3" d="M68.74,168.1h.15C68.84,168.36,68.79,168.34,68.74,168.1Z"></path><path class="cls-3" d="M83.6,168.1h.15C83.7,168.37,83.65,168.34,83.6,168.1Z"></path><path class="cls-1" d="M28.08,131c.24-3.12,1.21-6.21.1-9.36-.21-.59.51-1.24.41-2.15-.23-2-1-4-.11-6.07a1.35,1.35,0,0,0-.76-1.74c-.21-.07-.37-.17-.33-.3.84-2.65.06-5.4.44-8a88.11,88.11,0,0,0,.52-9.44c.08-2.55-.55-5.15-.47-7.76.1-3.2.62-6.44.3-9.59-.28-2.63-.18-5.29-.66-7.92A9.23,9.23,0,0,1,28,65.48c.12-.53.62-.54,1.16-.51,3.06.16,6.05.77,9.17.7a26.17,26.17,0,0,1,6.73.91,12.75,12.75,0,0,0,7.61-.18c.93-.34.47.51.73.56a16.17,16.17,0,0,0,3.22.38,116.46,116.46,0,0,1,12.67.47c1.52.09,3.05.16,4.58.12,4.75-.1,9.52,0,14.24-.47,3.14-.3,6.27.31,9.37-.28.63-.12,1.54.33,1.7-.8.81.16,1.58.4,2.43.49a33,33,0,0,0,7.83-.57,39,39,0,0,1,5.63-.51,50.55,50.55,0,0,0,8-.78c1-.14,1.54.24,1.59.9a51.08,51.08,0,0,1,0,5.67c-.14,3.13-.5,6.25-.34,9.41a61.12,61.12,0,0,1-.24,12.46c-.45,2.88,0,5.94.2,8.83.21,2.67-.12,5.33.29,8a4,4,0,0,1-.49,2.35c-.45,1.14.53,2.26.31,3.3-.45,2.14-.43,4.25-2.51,6.12-3,2.71-6.09,5.54-8.18,9.14a.84.84,0,0,1-.74.5c-1.58,0-2.9,1-4.54.94-2.06-.12-4.09.46-6.18.53-4.59.16-9.17,1.12-13.75,1.13-5.24,0-10.48.82-15.7.38-2.29-.2-4.62.06-6.94-.69-1.19-.39-2.8.3-4.25.16-2.27-.22-4.54-.5-6.82-.67-4-.28-8-.14-11.85-.87a73.56,73.56,0,0,0-8.92-1.33A44.55,44.55,0,0,0,28.08,131Zm44.3-15.41a13.4,13.4,0,0,0,.38,5,4.13,4.13,0,0,0,2.83,3.26c1.5.37,2.53-.43,3.43-1.82a9,9,0,0,0,1.15-4.72c.3-5.53,0-11.07.66-16.6.2-1.66.8-1.91,2.16-1.83,2.69.18,5.42,1.12,8,.22,1.1-.37,2,.4,2.84,0s2.08-.73,3-1.22c.61-.3,1.46-.48,1.26-1.74-.39-2.49-1.27-3.57-3.88-3.88a18.85,18.85,0,0,0-4.59-.34c-2.2.29-4.34-.62-6.58.11-1.58.51-2.36-.69-2.33-2.38a76.08,76.08,0,0,0-.36-8.8,3.42,3.42,0,0,0-1.67-2c-.94-.62-1.76-.2-2.59-.46-1.53-.46-4,.9-4.14,2.45a80.89,80.89,0,0,0-.33,8.81c0,1.74-.78,2.72-2.54,2.41-.4-.07-.79-.35-1.17-.31-3.9.37-7.88-.17-11.7,1A2.79,2.79,0,0,0,54.38,95c-.13.87-.62,2.15.77,2.71s2.68,1.47,4,1.45c3,0,6,.83,9-.15,2.39-.79,3.35.12,3.57,2.54a38.8,38.8,0,0,1,.29,5.82A66.13,66.13,0,0,0,72.38,115.59Z"></path><path class="cls-1" d="M119.89,58.43c-1.58.13-3.2.41-4.71.53a26.21,26.21,0,0,1-4.79.13,15.48,15.48,0,0,0-4.69.37,9,9,0,0,1-3.52.12,12.06,12.06,0,0,0-3.83.36c-3.19.47-6.4.08-9.59.23-1.92.09-3.86-.21-5.83.29-1.55.39-3.3,0-5,0-2.54,0-5.1.1-7.63.13-1.76,0-3.64-.25-5.47-.32-2.67-.11-5.34,0-8-.06a18.62,18.62,0,0,1-5.5-.65c-1.07-.36-2,.37-3.17.14-2.68-.53-5.45-.46-8.14-.73-3.81-.39-7.63-.31-11.44-.77C27,58,27.46,56.81,27.53,56.54c.46-1.75-.19-3.4-.2-5.09a4,4,0,0,1,3.15-3.87,3.61,3.61,0,0,0,1.5-.81c1.95-1.66,4.4-2.17,6.68-3.11C42.78,42,47.3,41,50.54,37.54a.73.73,0,0,1,.29-.19c4.09-1.27,3.92-4.69,4-8,0-.78.43-1.52.13-2.36-.09-.25.16-.82.88-.84,2.86-.05,5.79-.65,8.54-.17,1.47.26,2.93-.19,4.13.2,2.45.79,4.84-.67,7.32.34,1.13.46,2.88-.65,4.24-.16s2.56-1,4.07-.36c2.61,1.17,5.26-.23,7.88-.16.8,0,1.83-.38,2.61.34a.3.3,0,0,0,.16.08c3,.21,3,.21,2.76,3.43C97.38,32,98.28,34,99.13,36a1.27,1.27,0,0,0,.63.62c3.34,1.1,5.41,4.66,9.27,4.74,2.21,2.38,5.54,2.27,8.25,3.58,2.56,1.23,4.68,3.1,7.24,4.27,1,.43.69,1.41.62,2.2a28.64,28.64,0,0,0-.25,5.62c.09.84-.08.84-.83,1.07A10.73,10.73,0,0,1,119.89,58.43Z"></path><path class="cls-1" d="M28.32,148.22c.51-2.24.21-4.9-.05-7.56s1.27-3.66,3.78-2.8a48,48,0,0,0,9.72,2.2c3.1.37,6.19.92,9.3,1.17a6.71,6.71,0,0,0,3.26-.1c.81-.31,2,.13,3,.36a41.24,41.24,0,0,0,8.8.94c3.85,0,7.68.42,11.54.42,3.27,0,6.49-.57,9.76-.56a16.9,16.9,0,0,1,2.57,0c1.63.29,3.12-.38,4.47-.72,2-.5,3.84-.17,5.73-.34,1.53-.14,3.12,0,4.55-.58.64-.29,1,.55,1.47.14a1.59,1.59,0,0,1-.26,1.28,44.14,44.14,0,0,1-3.75,5.35c-2.28,2.89-4.54,5.77-5.58,9.29-.7,2.39-2.06,2.81-4.19,2.9a65.93,65.93,0,0,0-6.81.94,2.75,2.75,0,0,1-.9.05,15,15,0,0,0-6.67,0c-2.23.57-4.37-.46-6.52-.33A31.16,31.16,0,0,1,63,160a41.08,41.08,0,0,0-7.88-1C51,158.89,47,157.82,43,158.12c-1.6.12-2.84-1-4.19-1-1.83.1-3.39-.58-5-1a27.26,27.26,0,0,0-4.28-1.14c-.2,0-.56.22-.56-.35C28.9,152.68,28.1,150.71,28.32,148.22Z"></path><path class="cls-1" d="M142.14,126.52c.14,2.18-.72,3.63-1.28,5.2a37.08,37.08,0,0,1-4.18,7.64c-1.31,2-2.67,4.11-4.16,6.07-2.23,2.93-4.65,5.67-7.1,8.43a81.34,81.34,0,0,1-9.34,9.14,37.67,37.67,0,0,1-7.79,5.07c-1,.47-3.92-.59-4.69-1.59a27.72,27.72,0,0,0-1.78-2.49,2.38,2.38,0,0,1-.45-2.29,28,28,0,0,0,1.07-4.22c.19-1.83,2.07-2.75,2.88-4.34,1.39-2.77,3.08-5.39,4.52-8.13.51-1,1.49-1.59,1.82-2.71.73-2.51,2.75-4.19,4.17-6.26a57.43,57.43,0,0,1,4.76-5.34,27.57,27.57,0,0,1,5.47-4.65c.14-.1.45,0,.6-.25,1.6-2.34,4.24-3,6.53-4.33,1.58-.9,3.28-1,4.85-1.74a1.09,1.09,0,0,1,.32-.06c.45,2.11,3.62,2.06,3.6,4.59A17.34,17.34,0,0,1,142.14,126.52Z"></path><path class="cls-1" d="M46.48,18.83c-.18-1.41.7-2.46.83-3.7.06-.57.75-.81,1.42-.87,3.94-.38,7.86-.91,11.81-1.16,3-.19,6.09.38,9-.16,3.26-.61,6.41.07,9.57.1,2.89,0,5.94-.86,8.55-.11,3.81,1.1,7.74-.6,11.39,1.18a5.81,5.81,0,0,0,4-.09c1.38-.39,1.55.92,2.42.93,0,.9.21,2-.2,2.66-.51.86-1.85.55-2.6.35-2.94-.76-5.62.67-8.45.7-2.4,0-4.8.89-7.2-.17a2.65,2.65,0,0,0-1.77-.15c-3,1.05-5.94.2-8.91-.05a12,12,0,0,0-2.86.22c-2.9.5-5.84.2-8.76.6-1.53.2-3.27-.51-5-.46a76.35,76.35,0,0,1-10.8-.13A4,4,0,0,0,46.48,18.83Z"></path><path class="cls-1" d="M142.54,143.61c3.11-.62,5.52,1,8,2.27a3.4,3.4,0,0,1,1.37,1.58c1.11,2.19,1.5,6.13-.24,8.11a3.84,3.84,0,0,1-1.3.88,23.78,23.78,0,0,1-7.52,2.7c-3,.39-6.08.53-9.09,1a8.58,8.58,0,0,1-3.18-.41c-1.2-.25.17-1.3.42-1.72a29.14,29.14,0,0,1,4-4.78c1.41-1.49,1.5-3.77,3.6-4.87,1.07-.55,1.43-2.49,2.07-3.83C141.06,143.71,141.63,143.28,142.54,143.61Z"></path><path class="cls-1" d="M21.56,111.53l-.3.41c-.08-.07-.24-.18-.23-.22a1.9,1.9,0,0,1,.25-.4Z"></path><path class="cls-2" d="M72.38,115.59a66.13,66.13,0,0,1-.35-8.27,38.8,38.8,0,0,0-.29-5.82c-.22-2.42-1.18-3.33-3.57-2.54-3,1-6,.11-9,.15-1.32,0-2.67-.93-4-1.45s-.9-1.84-.77-2.71a2.79,2.79,0,0,1,1.91-2.18c3.82-1.21,7.8-.67,11.7-1,.38,0,.77.24,1.17.31,1.76.31,2.57-.67,2.54-2.41A80.89,80.89,0,0,1,72,80.82c.13-1.55,2.61-2.91,4.14-2.45.83.26,1.65-.16,2.59.46a3.42,3.42,0,0,1,1.67,2,76.08,76.08,0,0,1,.36,8.8c0,1.69.75,2.89,2.33,2.38,2.24-.73,4.38.18,6.58-.11a18.85,18.85,0,0,1,4.59.34c2.61.31,3.49,1.39,3.88,3.88.2,1.26-.65,1.44-1.26,1.74-1,.49-2.07.7-3,1.22s-1.74-.33-2.84,0c-2.61.9-5.34,0-8-.22-1.36-.08-2,.17-2.16,1.83-.65,5.53-.36,11.07-.66,16.6A9,9,0,0,1,79,122.05c-.9,1.39-1.93,2.19-3.43,1.82a4.13,4.13,0,0,1-2.83-3.26A13.4,13.4,0,0,1,72.38,115.59Z"></path></svg>