<svg xmlns="http://www.w3.org/2000/svg" id="Layer_1" data-name="Layer 1" viewBox="0 0 287 302"><defs><style>
      .cls-1 {
        fill: #aecde9;
      }

      .cls-2 {
        fill: #1a1c1f;
      }

      .cls-3 {
        fill: #fff;
      }

      .cls-4 {
        fill: #f6f6f5;
      }

      .cls-5 {
        fill: #333434;
      }

      .cls-6 {
        fill: #0f1012;
      }

      .cls-7 {
        fill: #332f30;
      }

      .cls-8 {
        fill: #f7f6f7;
      }
    </style></defs><g><path class="cls-1" d="M74.69,299.54a85.81,85.81,0,0,1-12.33-1.44c-.61-.12-1.21-.22-1.82-.3s-1.65.38-1.76-.89c-.11-1.46,1-1.24,1.56-1.35,2.08-.38,4.17-.63,6.25-.86,3.27-.36,6.56-.61,9.82-.66,8.93-.14,17.86-1.08,26.8-.79,6.61.21,13.24-.25,19.85-.3,10.59-.08,21.19-.35,31.77,0,6.1.2,12.21-.11,18.32.61a51.81,51.81,0,0,0,10.17.51c5.11-.41,10.2.12,15.28.4,5.63.32,11.27.46,16.9,1.15,3.39.42,6.82.76,10.23,1,.92.07,2.48-.14,2.49,1.37s-1.54,1.14-2.38,1.16c-6,.15-11.88,1.29-17.85,1.57q-10.61.5-21.24.84c-13.14.42-26.29.48-39.44.27-5.17-.08-10.38.28-15.55-.05-7.32-.46-14.65-.21-22-.6-4.88-.25-9.79-.31-14.69-.48A202.26,202.26,0,0,1,74.69,299.54Z"></path><g><path d="M67.63,101a11.82,11.82,0,0,0,2.76-4c2.2-1.54,1.64-4.1,2.09-6.18a15.39,15.39,0,0,0-5-15.49c-.48-2-2.46-2.87-3.68-4.28-3.63-4.19-3.82-5.42-.34-9.72A6.07,6.07,0,0,0,64.13,60a1,1,0,0,0,1-.61A4.43,4.43,0,0,1,67.62,57c.56-.39.49-1,.5-1.56,0-.22,0-.43,0-.64l1.09,0c.32.28.47.12.56-.21a3.27,3.27,0,0,1,0-.54l.61-.87.43-.94c.55-.15.69-.58.72-1.09l0,0L72.8,50l.1-.65c.88-.65,3.32.23,2.26-2.31l0,0a3.25,3.25,0,0,0,.54,0l.6.11c.48.59,1.15.48,1.79.46l.57.18.44.42.13.13,0,.18c.15.24.25.57.47.69,2.87,1.59,6,3,4.34,7.29-1.85-.39-3.1-1.84-4.67-2.71C77.45,52.64,75.68,53,75,55.22a2.15,2.15,0,0,1-.88,1.24c-1.67-.2-2.65.36-2.49,2.21A1.79,1.79,0,0,0,70,59.9c-.77.37-.71,1.08-.73,1.77-.08.22-.17.44-.26.66a.45.45,0,0,0-.3.34c-1.92,1.32-2.5,3-1,4.91,1.36,1.72,3,3.07,4.21,5.14s3.07,3.84,4.36,5.92c.61,1,2,1.89,1.51,3.34-1,2.79.85,5.4,0,8.42s-.51,5.81-2.09,8.23a91.42,91.42,0,0,0-8.2,14.89,23.4,23.4,0,0,0-2,5.48c-.33,2.48-.47,5.12-.55,7.68-.18,5.58-.8,11.14-.54,16.74.07,1.38.4,1.87,1.92,2.17a36,36,0,0,1,7.06,2.46c.52.22.67.81,1.52.45,1-.45.6-1.17.53-1.7-.58-4.52-1.16-9-.68-13.59.6-5.73,1.43-11.35,3.61-16.8,2.56-6.41,5.72-12.64,7-19.54a31.28,31.28,0,0,0-1.53-16.06,50.72,50.72,0,0,0-6.53-12.34c-1.56-2.2-.66-3.85.8-5.46s3.14-2.36,5.4-1.36c5.47,2.4,11.43,3.59,16.74,6.4,3.55,1.88,7.45,1.57,11.06,1.35,7.79-.48,15.69-1,23-4.16,3-1.29,6.64-1.3,9-4.29.58-.74,2.7-.78,3.55.08,1.82,1.84,4,2.47,6.34,3.34,8,3,16.09,5.22,24.7,5.06,2.84-.05,5.68-.31,8.52-.32,3.21,0,5.29-2.66,8.37-3.25,3.83-.75,8-.78,11.19-3.94,1.68-1.65,4.27-1,5.78.78s2.28,3.55.66,6c-3.51,5.37-6.81,11-7.53,17.52-.42,3.86-.73,7.84.41,11.77,1.4,4.75,4.59,8.71,5.88,13.43,1.05,3.87,3.37,7.26,3.83,11.34.52,4.47,1.14,8.91,1.44,13.42a86.34,86.34,0,0,1,.15,10.42c-.76.69-.45,1.58-.47,2.4s-.07,1.54-.11,2.31l-.47.67c.82.63-2,1.79.33,2.19l.81-.37,2.11-.22a1.33,1.33,0,0,0,1.43-.4c1.86-.67,3.88-1.16,4.1-3.66,1.17-1.07.45-2.44.56-3.68a1.37,1.37,0,0,0-.1-.48c.11-1,.21-1.94.31-2.91l.36-.81c-.69-1,0-1.44.74-1.89v-.19l.2-.32-.32.21a1.44,1.44,0,0,0-.5.07c-.49-.12-.55-.43-.38-.85a1.05,1.05,0,0,0-.08-1.5v-1.78c.88-.06,1-.63.94-1.36.19-.74.4-1.48.55-2.22.41-2-2.26-4.23.31-6.16l-1.38-.29-.61-.64c-1.07-2.44-.53-5.23-1.74-7.63l-.34-.55c-.8-2.69-1.16-5.57-3.19-7.76a.62.62,0,0,0-.27-.47l-.33-.66c-.15-.39-.3-.77-.44-1.15-.06-.19-.11-.38-.17-.58l-.47-.64-.07-.09-.55-1-.67-1.18-.34-1.15c-1.69-.91-2.34-2.62-3.2-4.18l-.39-.56-.18-.66-.07-.65a.22.22,0,0,1,0-.35l-.22-1.24-.29-.75c-.71-2.71,1.84-5.42,0-8.12,0-.6,0-1.21,0-1.82,2.24-1.1,2.16-2.79,1.16-4.7h0c2.34-.24,3.31-1.5,2.27-3,.06-1.94,1.72-2.58,2.9-3.62,1.42-.51,2.32-1.33,1.84-3l2.48-2.78c.08,0,.23-.07.23-.12a2.49,2.49,0,0,0-.05-.46,4.47,4.47,0,0,0-2-3.19.47.47,0,0,0-.3-.34c-.2-.86-1.88-.9-1.26-2.2.87-1.8-.81-1.1-1.4-1.46.07-1.06-.46-.87-1.08-.53-.76-1.07-2-1.63-2.24-3.29s-3-2.31-4.43-1a19.47,19.47,0,0,1-3.48,2c-1.79,1.09-4.18,2.33-6.45.43l0-1.78.61-.5.59-.36.71-.18c1.38.73,1.07-.32,1.09-1a52.94,52.94,0,0,0,7.58-4.8,4.14,4.14,0,0,1,3-.7,4.1,4.1,0,0,0,.5,0l.71.37.2.12c.7.71,1.83,1.18,1.5,2.51l.48.51a3.59,3.59,0,0,1,1.92,2.76.94.94,0,0,0,.39.22,1.71,1.71,0,0,1,.44.13l-.24,1c.09.33.24.48.56.2,1.39-.21,1.42.6,1.2,1.6l.37.56,1.41.87a.44.44,0,0,0,.23.3L225,59.55a.56.56,0,0,0,.37.38c.1.38.19.77.29,1.16-1.15,1.9.62.92,1.15,1.17l0,0,.46.66.6.59c1.2,1,.45,2,.08,3l.13.9c-.11.56-.18,1.14-.79,1.42l-.59.79a10.21,10.21,0,0,1-4,3.83c-2.69.75-3.84,2.71-4.17,5.31l-.57.62a3,3,0,0,0-1.17,3.07,1.58,1.58,0,0,1-.12.52c-1.75,1.15-1.67,2.33-.06,3.54l.06,1.18c-1.29.39-1.55,1-1,2.35s1.5,2.63.51,4a1.83,1.83,0,0,0,0,2.55c.85,1.17,1.76.84,2.77.51l.11.08c-.1,1.71-.07,3.37,1.7,4.34l.68.86c0,.78-.25,1.87.15,2.29,1.84,1.88.37,2.86-.9,3.86,1.57,1.47,3.2.44,4.79.35a.36.36,0,0,1,.13.44c.18.24.35.49.53.74h0c.25,1-.72,2.55,1.16,3,.06.37.11.75.16,1.13l-1.95.11c1.55,0,1.78,1.52,2.67,2.24a1.84,1.84,0,0,1,.26,1.82c-.4.08-.93,0-.89.68l1-.09h0a3.67,3.67,0,0,0,1,2.93c0,1.12.4,2.34-.53,3.26-1.19,1.19,1,.71.67,1.46.17,1.77-.56,3.62.48,5.31l.24.62-.23,0a5.08,5.08,0,0,0,0,4.72c.05.4.09.79.13,1.19-.57.06-1.45.16-1.33.74a2.2,2.2,0,0,0,1.72,1.63l0,1.16c-.84.21-1.22.54-.33,1.21-.05.78-.11,1.57-.16,2.35l-.42.71c.57.93-.95,3.32,1.59,2.77a26.88,26.88,0,0,0,9.44-3.53c0-2,.7-4-.37-5.91.05-2.14-.68-4.34.56-6.37,1.53-3.3,4.4-3.79,7.59-3.61a118,118,0,0,1,14.11,1.75,86.81,86.81,0,0,0,17.56,1.44c1.76,0,3.19,1.53,5.23.62.76-.34,2.21,1.5,1.09,2.53-3.13,2.88-3.87,7.29-6.78,10.16-2.32,2.29-3.87,5.32-6.88,7-1.62.9-1.69,2.1-.38,3.8a132.13,132.13,0,0,1,10.26,15.86c1.83,3.26-1.41,7.78-6,8.11-5.8.42-11.5-.77-17.2-1.6-2.48-.36-4.92-1-7.4-1.25-1.83-.2-1.84.83-2,2.45-.32,2.46,1.36,4.56.69,6.94a11.28,11.28,0,0,1-4.66,5.21c-2.46,1-5.17,1.2-7.62,2.38a24.37,24.37,0,0,1-8.31,2.17c-1.37.14-2.18,1.56-3.74,1.9a98.41,98.41,0,0,0-9.77,3.17c-4.65.76-9.42,1.11-13.9,2.44-2.5.74-5.17.31-7.49,1.57l-14.6,1.07c-.24-.14-.49-.41-.71-.39-4.47.35-7.93,4.27-12.74,3.59-.72-.1-1,.83-.23,1.47-2.14,0-3.87,1.31-5.85,1.84-2.9.2-5.41,1.48-8,2.62-2.86,1.26-5.68,2.93-9,2.31-2.71,0-5-1.75-7.63-1.93-4.23-3-9.48-3.11-14.14-4.9.88-1,.23-1.61-.62-1.48-2.75.44-5-1.1-7.56-1.52-2-2.11-4.74-2.12-7.27-2.08a74.79,74.79,0,0,1-12.15-.9l-5.5-.8c-2.31-1.22-5-1.28-7.41-1.56-5.14-.61-9.93-2.47-15-3.3-4.79-2.71-10.17-3.7-15.35-5.26-2.72-1.74-6.19-1.62-8.84-3.53-1.75-2.25-4.24-4.24-2.47-7.64.71-1.35-.85-3.31,1.13-4.35-.71-1-1.9-2-2.86-1.44-2.54,1.41-5.41,1-8,1.93a6.68,6.68,0,0,1-4.82.39c-2-.76-4,.53-6.05.55L15,181c-3.71-1-7.44.65-11.19-.09-1.31-.26-1.36-.64-1-1.7,2.58-8.67,8-15.4,14.51-21.81-4.32-2.68-7.39-6.81-10.85-10.55C3.73,144,2,140.47.41,137c-1.24-2.64.47-4.26,3.34-4.35,7-.2,14,.24,21.05-1a100.43,100.43,0,0,1,19.07-2.12c1.77,0,3.07,1.19,4.73,1.3,1.64,4.34,2.11,8.89,2.44,13.47-.23,1-.1,2,1,2.42,1.73.65,3.52,1.12,5.25,1.75,2.62,1,2.49-.55,2.19-2.31s-.58-3.59-.86-5.39c1-3.67.38-7.44.67-11.15l0,0c.76-.61.45-1.22,0-1.84.29-1.37,1.7-2.6.54-4.16.84-4.78,1.6-9.55,3.57-14.09.94-2.18,2.7-3.93,3.13-6.34l1-.57C67.84,102.06,69.68,101.59,67.63,101Zm159.73,47.44-.76.24.14.21.64-.43.13-.27ZM149.15,75l-.72.88c-3.13,1.81-.81,4.79-1.45,7.17-.5,1.89.42,3,3,3a18.15,18.15,0,0,1,8.89,2.09c1,.56,1.6.72,2.55-.6,1.56-2.17,1.85-6.91,6.64-4.29.15.08.66-.36.92-.64a41.12,41.12,0,0,1,8.69-7.72,12.27,12.27,0,0,0-1.64-.24,47.46,47.46,0,0,1-20.9-4.18c-1-.46-1.56,0-2.15.67l-3.82,3.75Zm62.91,83.23c-1.14.64-2.6-.31-3.65.76-3.09.58-6.17,1.27-9.28,1.71A127.73,127.73,0,0,1,183.24,162c-5.26.08-10.51,1-15.79,1.18-3.4.12-6.75.72-10.17.91a270,270,0,0,1-27.88,0c-5.64-.27-11.38-1-17-1.67-4.12-.52-8.25-.15-12.36-.62-7.07-.81-14-2.46-21-3.55a94.14,94.14,0,0,1-14.23-3.71c-7.31-2.32-14.57-4.86-22.17-7.42v5.41c-.79,0-1.13-1.19-2-.71a1,1,0,0,0-.33.66c1.15.87.78,3.29,3,3,.17,1.56-.67,3.11-.52,4.51a196.33,196.33,0,0,1,1,22.61c-2.32,1.64-.65,2.57.63,3.58-1.31,3,1.49,2.92,2.82,3.41,4.52,1.68,9.18,3,13.75,4.54,4,1.35,7.72,3.35,11.85,4.23,3.22.69,6.46,1.26,9.7,1.83,7.34,1.28,14.6,3.06,22.15,3.13a140.39,140.39,0,0,1,14.16,1c4.75.52,9.52,1,14.34,1,4.32.05,8.67-.33,12.94,0a93.28,93.28,0,0,0,22.24-.59c9.71-1.5,19.54-.76,29.18-2.69,5-1,10-1.92,15-3a2.7,2.7,0,0,0,2.75-.45l1.37-.2c.59.14,1.18.25,1.54-.44l.75-.08a2.47,2.47,0,0,0,2.63-.91h0c2.36-.51,4.48-1.77,6.72-2.45,4.92-1.49,9.77-3.19,14.64-4.82,3.51-1.18,4.83-2.53,4.15-5.86-1.3-6.36.67-12.61.14-18.95-.23-2.62-.54-5.79.36-8.06,1.35-3.42-.25-6.4.38-9.85-1.41.79-2.78.67-3.68,1.67-9,2.24-17.67,5.6-26.41,8.68-1.82-.49-3.43,1.34-5.29.51Zm48.36,17.31c1,1.17,2.44.78,3.55.85,4.67.33,9.42,2.37,14-.22,1.07-.6,2.64-.82,1-2.87a22.43,22.43,0,0,1-2.69-4.07c-1.25-2.51-2.92-4.75-4.28-7.17-1.19-2.1-3.29-3.21-4.78-5s-.79-2.47,0-3.09a63.18,63.18,0,0,0,7.72-7.53c2.08-2.35,4.55-4.58,5.37-7.86.35-1.44.13-3-1.64-2.45-2.83.93-5.4-.24-8.06-.36-4.18-.2-8.33-.93-12.49-1.44a33.43,33.43,0,0,0-9.44-1.33c-1.29,0-3-.67-3.51.69-.73,1.81,1.77,1.59,2.42,2.69.14.23.78.1,1.08.29a6.32,6.32,0,0,1,3.07,4.35c.68,4.79-.18,9.63.08,14.5a59.66,59.66,0,0,1-.87,15.11c-.49,2.38-.09,4.09,3.11,4.24C256.15,175,258.3,175.28,260.42,175.49ZM39.26,139.56c1.23-.61,1.42-2.08,2.39-2.91,1.1.2,1.73-.63,2.57-1.08s1.7-.88,1.41-1.87-1.53-1-2.35-.92A104,104,0,0,0,32.9,134,112.3,112.3,0,0,1,9.11,136c-3.24-.07-4.48,2-3,5,2.78,5.49,7.45,9.34,12,13.17,2.26,1.89,2.92,3.45,1,5.61C15,164.44,10.66,169,7.68,174.61c-.3.58-1.23.69-.61,1.8a2.07,2.07,0,0,0,1.73,1.25c2.46-.18,5,.21,7.33,0,7.38-.68,14.68-2.13,22-3.12,1.45-.2,1.7-.68,1.62-1.93-.34-5.48-.46-11-1-16.43-.18-1.74,1.42-3,1-4.19C38.22,147.82,39.28,143.69,39.26,139.56Zm89,17.59,1.15.26.69.38c2,.53,3.81,1.7,6,1.9a81.19,81.19,0,0,0,16.93-.33l.69-.3h1.13a1,1,0,0,0,1.1-.43l1.16-.2c1.18-1.07,2.39,1.51,3.57,0,5.53.1,10.84-1.4,16.24-2.2a3.34,3.34,0,0,0,2.71-1.77c1-1.69,1.61-4.13,3.07-4.86,1.86-.91,3.4,1.63,5.19,2.47,1.56.74,2.12.54,2.84-1a64.21,64.21,0,0,0,2.65-7.7c1.66-5,1.52-5.18-3.91-5.6a9,9,0,0,0-1.45-.2c-1.37.13-1.7-.36-1.57-1.75a66.66,66.66,0,0,0,.27-7.61c0-2.12-1.12-4.59-.35-6.26.9-1.93,3.89-1,5.91-1.59,1.24-.35,1.59-.48,1.19-1.68-.71-2.12-1.24-4.32-2.08-6.39-3.22-8-1.75-6.44-8.39-2.4-1.1.67-1.32.57-1.93-.34a54.12,54.12,0,0,0-5.06-7.12c-4-4.23-4.22-4.23-.48-8.4,1.46-1.63,1-2.44-.37-3.39q-3-2.07-6.16-4c-3.21-2-3.33-1.94-5,1.48-1.39,2.89-3.55,3.54-6.78,2.23-3-1.22-6.25-2.22-9.49-1.85-2.62.31-2.94-.89-3-2.82a13.42,13.42,0,0,1,.07-2.54c.43-2.5-.53-3-3-2.82-2.23.13-4.46.27-6.66.58-5.43.77-5.41.83-3.44,6,.18.45.16,1,.44,1.38,1.13,1.45.17,1.74-1,2.07a29.26,29.26,0,0,0-9.59,4.35c-3.62,2.64-4,2.4-6.7-1.24-.24-.32-.6-.58-.72-.93-.71-2.1-2.07-1.37-2.8-.34-1.68,2.34-4.23,3.71-6,6-3.57,4.72-3.77,4.57,1.34,7.35.34.19.62.49,1,.68,1,.55,1.07,1.09.41,2.09a38,38,0,0,0-5.17,12,2.27,2.27,0,0,1-2.49,1.88,7.84,7.84,0,0,1-3.84-.78c-2.18-1.35-2.3,0-2.39,1.52-.21,3.58-.41,7.17-.53,10.76,0,1.61,0,2.75,2.46,1.95,1.53-.5,3.29-1.29,5.09-.82.47.12,1.22-.23,1.15.8-.33,4.43,1.83,8.23,3.17,12.23.26.78.6,1.48-.42,2-2.08,1-3.81,2.71-6.23,2.92.12,2.5,2,2.76,3.8,3.26,8.13,2.32,16.51,2.89,24.87,3.58C128.74,159,128,158,128.28,157.15ZM182.42,107q8-8.59,16.05-17.2a5.43,5.43,0,0,0,.78-4,1.24,1.24,0,0,1,.05-.85c2.09-3.77,2-8.45,5.18-11.83a9.4,9.4,0,0,0,2.11-5.53c-3.09,1.59-6.12,2.71-8.38,4.87-6.18,5.88-12.17,12-18.2,18-.39.39-1.55.87-.7,1.56,1.57,1.27.1,1.8-.46,2.46a34.39,34.39,0,0,1-2.69,2.71c-.58.55-.75.93,0,1.55C178.85,101,180,104.4,182.42,107ZM91.59,129.49c-3.09,2.8-5.74,5.56-8.76,7.84-2.3,1.73-2,3.9-1.69,6,.27,1.79,2.25,1.25,3.53,1.64.82.24,1.87.42,2.32,1,1.51,2,4.48,1.67,5.44,1.33,3.9-1.37,7.21.84,10.89.57-.56-3-3.15-5.76-2.72-9.34.06-.47-.68-.8-1.38-.8a8.79,8.79,0,0,0-3.1.74c-2.48.93-3.74.16-4.41-2.36A14.18,14.18,0,0,1,91.59,129.49Z"></path><path class="cls-1" d="M66.51,103.16c-.43,2.41-2.19,4.16-3.13,6.34-2,4.54-2.73,9.31-3.57,14.09-8.3-1.7-16.6-3.42-24.57-6.36-4-1.45-7.92-2.73-12-3.79a15.5,15.5,0,0,1-5-2.89c-1.6-1.19-1.08-2.66,1.05-3.33a42.68,42.68,0,0,1,10.37-1.78c11.31-.66,22.59-1.75,33.85-3C64.53,102.37,65.68,102.15,66.51,103.16Z"></path><path d="M84,56.42c1.66-4.28-1.47-5.7-4.34-7.29-.22-.12-.32-.45-.47-.69,3.62,1.19,6.6,3.56,9.84,5.44.66.38,1.36,1.17,2,1.11,5.15-.51,9.7,2.06,14.6,2.71,2.21.3,4.43.88,6.69.38,4-.07,7.66-1.57,11.5-2.31.51-.1,1.43-.16,1.52-1.08a20.65,20.65,0,0,0,6.5-2.85c.28-.1.57-.17.83-.29,5.72-2.67,11.12-6.41,18-5.11,1.34,1.57,1.88,4,4.44,4.28,2.81,1.94,6.22,2.63,9.09,4.4a7.66,7.66,0,0,0,5.4,1.26c2.31.78,4.57,1.75,7.07,1.72,2.32,1.12,4.73.09,6.86-.28,5.32-.92,10.4-3.18,16-2.84.23,0,.47-.28.71-.44l0,1.78c-.95.74-.13,3.38-1.22,2.74-2.85-1.67-5,.54-7,1.14a56,56,0,0,1-10.15,2.25c-4.7.53-9.4,1-13.74-1.58-1.7,1.6-2-1.28-3.81-1-4.31.54-7.62-3-11.67-4a5.92,5.92,0,0,1-3.56-2.15,4.68,4.68,0,0,0-7-.68,24.32,24.32,0,0,1-3.84,2.42c-2.14,1.22-4.83,1-6.62,2.35-3.75,2.82-8.33,3-12.46,4.49a21.16,21.16,0,0,1-12.24.08c-1.06-.27-2,.7-3.1,0-2-1.45-4.69-1.85-6.86-2.33-2-.44-3.63-2.05-5.77-1.68-1.27.21-1.25.17-1.38-.9a3.73,3.73,0,0,0-.47-1,2.16,2.16,0,0,0-2.11-2.57c-1.57,0-2,1.45-2.44,2.7C84.53,56.48,84.3,56,84,56.42Z"></path><path class="cls-1" d="M150.65,46.44c-6.85-1.3-12.25,2.44-18,5.11-.26.12-.55.19-.83.29.31-6.37,1.87-12.54,3.55-18.61a197.5,197.5,0,0,0,5.15-28.39c.25-2,1.84-2.86,2.37-4.49.17-.52.85-.43,1.2,0,.72,1,2.33.94,2.4,2.67.14,3.42.58,6.82.86,10.23.45,5.62.92,11.25,1.52,16.85.4,3.77.12,7.69,1.39,11.35C150.86,43.13,150.53,44.79,150.65,46.44Z"></path><path class="cls-1" d="M94.81,205.87a74.79,74.79,0,0,0,12.15.9c2.53,0,5.26,0,7.27,2.08-2.26,4.32-5.82,7.55-9.36,10.69-7.32,6.47-14.84,12.71-22.33,19-2.24,1.88-4.66,3.54-7,5.32-.66.51-1.34.92-2.11.32s-.33-1.39,0-2.1c2.52-5.54,6.22-10.37,9.38-15.52,3.82-6.22,7.55-12.49,11.29-18.76A10.85,10.85,0,0,0,94.81,205.87Z"></path><path class="cls-1" d="M221.49,102.39l-.68-.86c.34-.31,1.26-.3.59-1.17-.8-1-1.53-2.11-2.29-3.17l-.11-.08c-.79-1.42-1.67-2.82-1.41-4.57,6.53-1.1,13.08-2.12,19.58-3.35a44,44,0,0,1,6.67-.76c6.74-.22,13.45-.81,20.17-1.32.91-.07,2.44-.71,2.7.83.19,1.18-1,1.64-2,2.13-8.6,4.17-17.19,8.36-25.23,13.59a18.81,18.81,0,0,1-8.53,2.85c-1.9.18-3.24,1.88-5.21,1.85C224.39,106.3,223.65,103.84,221.49,102.39Z"></path><path class="cls-1" d="M195.38,206.17c2.32-1.26,5-.83,7.49-1.57,4.48-1.33,9.25-1.68,13.9-2.44,7.48,9.25,15.8,17.85,22.08,28.06a38.11,38.11,0,0,0,3.14,3.86c.44.54,1,1.15.35,1.81a1.42,1.42,0,0,1-1.89,0c-4.66-2.82-9.51-5.38-13.91-8.57-5.37-3.91-11-7.29-16.62-10.85-4.18-2.67-9-4.23-12.82-7.42A3.8,3.8,0,0,1,195.38,206.17Z"></path><path class="cls-1" d="M228.49,118.32a1.84,1.84,0,0,0-.26-1.82,2,2,0,0,0-.72-2.35c0-.38-.1-.76-.16-1.13l-.06-1.66c3.49.7,7,.32,10.49.07a167.75,167.75,0,0,1,17.08-.05c4.91.16,9.8.69,14.7,1,.79.06,1.58,0,2.36.1a2.7,2.7,0,0,1,2.49,2.16c.32,1.46-.92,1.84-1.87,2.24-3.8,1.61-7.86,2.32-11.84,3.32-8.41,2.1-16.87,4-25.15,6.61-1.77.56-3.57,1-5.36,1.52-.18-.59.44-1.39-.45-1.8.37-.75-1.86-.27-.67-1.46.93-.92.55-2.14.53-3.26a4.81,4.81,0,0,0-1-2.93h0Z"></path><path class="cls-1" d="M200.19,54.54c-.24.16-.48.46-.71.44-5.57-.34-10.65,1.92-16,2.84-2.13.37-4.54,1.4-6.86.28,9.2-11.16,20.16-20.38,31.62-29.09,2.86-2.17,5.15-5.08,8.31-7,.83-.49,1.49-1.47,2.53-.59s.27,1.77-.09,2.65c-1.81,4.59-5,8.37-7.56,12.47-2.81,4.44-5.71,8.82-8.23,13.44a4.25,4.25,0,0,0-.54,2.78c-.2.22-.39.45-.59.69l-.71.18-.59.36Z"></path><path class="cls-1" d="M144.18,218.68c3.37.62,6.19-1.05,9-2.31,2.61-1.14,5.12-2.42,8-2.62a306.42,306.42,0,0,1-7.19,31.52c-1.25,4.31-.87,8.93-2.43,13.2-.47,1.27-.69,2.74-2.63,2.52s-2.41-1.67-2.38-3.16c.14-6.76-1.17-13.41-1.39-20.16C145,231.35,144.12,225,144.18,218.68Z"></path><path class="cls-1" d="M167.1,211.91c-.75-.64-.49-1.57.23-1.47,4.81.68,8.27-3.24,12.74-3.59.22,0,.47.25.71.39.79,6,3.26,11.58,5.07,17.32,2.34,7.43,4.8,14.84,7.41,22.18,1,2.83,2.67,5.42,3,8.51.07.66.54,1.36-.21,1.85-1,.61-1.51-.23-1.92-.81-4.33-6.11-9.43-11.65-12.76-18.49a142.69,142.69,0,0,0-9.82-17.68A88.39,88.39,0,0,1,167.1,211.91Z"></path><path class="cls-1" d="M125.35,54.69c-.09.92-1,1-1.52,1.08-3.84.74-7.53,2.24-11.5,2.31-3.71-11.17-7.38-22.35-11.14-33.51-1.27-3.78-2.77-7.48-4.11-11.23a14.5,14.5,0,0,1-.63-2.85c-.08-.64-.22-1.46.67-1.73a1.36,1.36,0,0,1,1.5.7c4,5.73,8.83,10.87,12,17.24,4,8,8.56,15.64,13,23.39A11.09,11.09,0,0,1,125.35,54.69Z"></path><path class="cls-1" d="M67.53,75.23a15.39,15.39,0,0,1,5,15.49c-.45,2.08.11,4.64-2.09,6.18-1.64-3.28-5-4.51-7.82-6.28C53.72,85,44.61,79.7,35.62,74.25a15.35,15.35,0,0,1-2-1.66c-.61-.54-1.78-.93-1-2,.61-.85,1.55-.52,2.43-.28a124.34,124.34,0,0,0,27.9,4.46C64.45,74.8,65.93,75.6,67.53,75.23Z"></path><path class="cls-1" d="M169.58,56.38a7.66,7.66,0,0,1-5.4-1.26c-2.87-1.77-6.28-2.46-9.09-4.4,3.25-2.34,5.24-5.84,7.18-9.07q9.24-15.42,19.27-30.32A9.07,9.07,0,0,1,182.7,10c.49-.52,1.07-.93,1.82-.58.94.44.68,1.17.51,2-.84,4-2.68,7.72-4.24,11.48-2.66,6.4-4.92,13-7,19.53C172.25,47.06,170.43,51.58,169.58,56.38Z"></path><path class="cls-1" d="M216.66,82.94a1.58,1.58,0,0,0,.12-.52c.77-.88,2.05-1.56,1.17-3.07l.57-.62c1.22.23,1.64-.41,1.82-1.52.11-.64.12-1.61,1.28-1.4a1.32,1.32,0,0,0,1.15-1.37h0a4.85,4.85,0,0,0,3.43-.21c5.42-2,11.15-2.8,16.65-4.44,4.29-1.27,8.58-2.5,12.91-3.61,1.12-.29,2.5-.87,3.25.26.94,1.41-.38,2.22-1.34,3.09-3.43,3.1-7.48,5.26-11.5,7.39-6.55,3.46-13.17,6.8-19.87,10-3,1.4-5.8,3.21-9.11,3.84-.79-.92-.31-2-.49-3l-.06-1.18C216.7,85.3,217.55,84.14,216.66,82.94Z"></path><path class="cls-1" d="M122.41,211.85c4.66,1.79,9.91,1.87,14.14,4.9-2.57,1.56-4.11,4.09-5.62,6.52-6.55,10.5-12.87,21.14-20,31.25-.67.95-1.25,2.34-2.68,1.57-1.2-.66-.49-1.89-.24-2.91,1.78-7.13,5.6-13.5,7.74-20.5S120.63,218.94,122.41,211.85Z"></path><path class="cls-1" d="M66.93,200.21c5,.83,9.83,2.69,15,3.3,2.37.28,5.1.34,7.41,1.56-6.29,3.37-13.08,5.42-19.84,7.53-4.33,1.34-8,4.14-12.37,5.34-2.42.65-5,1.1-7.09,2.7a2.2,2.2,0,0,1-2.76-.06c-1-1,.29-1.78.77-2.51a21.88,21.88,0,0,1,5.11-5.23c4.63-3.47,8.62-7.64,12.94-11.45A6.87,6.87,0,0,0,66.93,200.21Z"></path><path class="cls-1" d="M69.26,54.79l-1.09,0c-6.12-7.06-11.12-15-16.88-22.3-.63-.8-1.93-1.5-1-2.66s1.83,0,2.58.47c5.39,3.06,10.93,5.87,15.66,10,1.72,1.51,4,2.41,5.89,3.73,1.15.79,2.79,1.13,3.13,2.83l-1.24.19-.6-.11c-.19-.44-.38-.59-.54,0l0,0a2.55,2.55,0,0,0-2.26,2.31l-.1.65c-.45.3-1.12.38-1.13,1.12l0,0c-.6.13-.66.61-.72,1.09l-.43.94c-.44.12-1,.12-.61.87a3.27,3.27,0,0,0,0,.54Z"></path><path class="cls-1" d="M223.26,57.82,221.85,57l-.37-.56c.22-1,.19-1.81-1.2-1.6l-.56-.2.24-1a19,19,0,0,0,7.46-2.41,67.21,67.21,0,0,1,12.26-4.72c1.39-.41,2.61-1.38,4-1.75s2.35.1,1.55,1.89a13.91,13.91,0,0,1-3.7,4.48C237,55.24,232,58.9,227.88,63.49l-.6-.6c.1-.4-.14-.56-.46-.66l0,0-1.15-1.17c-.1-.39-.19-.78-.29-1.16,0-.21.14-.64-.37-.38l-1.54-1.43C223.79,57.73,223.37,57.89,223.26,57.82Z"></path><path class="cls-1" d="M230.21,145.46c0-.78.11-1.57.16-2.35.5-.3.27-.79.33-1.21l0-1.16a2.71,2.71,0,0,0-.39-2.37c0-.4-.08-.79-.13-1.19a17,17,0,0,0,0-4.72l.23,0a21.68,21.68,0,0,1,10.55.63c-1.24,2-.51,4.23-.56,6.37-.19,4.6-.18,4.61-4.67,4.79a5.64,5.64,0,0,0-3.23,1c2.92.57,5.61-1,8.27.12a26.88,26.88,0,0,1-9.44,3.53c-2.54.55-1-1.84-1.59-2.77A.57.57,0,0,0,230.21,145.46Z"></path><path class="cls-1" d="M59.28,129.56c-.29,3.71.32,7.48-.67,11.15-.88,0-1.33.7-2,1.07-1.77,1-3.13,3-5.59,2.46-.33-4.58-.8-9.13-2.44-13.47C52.14,130.21,55.64,129.29,59.28,129.56Z"></path><path class="cls-1" d="M42.74,191.42c2.65,1.91,6.12,1.79,8.84,3.53-2.85,1.81-6.19,2.38-9.32,3.39a34.56,34.56,0,0,1-5.7,1.22c-1.05.15-2.5.78-3.14-.66-.54-1.21.53-2,1.35-2.67C37.21,194.28,39.63,192.27,42.74,191.42Z"></path><path class="cls-1" d="M246.21,192.54a11.28,11.28,0,0,0,4.66-5.21c2.59,1.71,5.22,3.37,7.75,5.16.81.58,2.11,1.3,1.5,2.53-.53,1-1.71.46-2.65.23C253.72,194.33,250,193.44,246.21,192.54Z"></path><path class="cls-2" d="M221.49,102.39c2.16,1.45,2.9,3.91,4.2,6a.79.79,0,0,1-.16.53c-1.59.09-3.22,1.12-4.79-.35,1.27-1,2.74-2,.9-3.86C221.24,104.26,221.52,103.17,221.49,102.39Z"></path><path class="cls-2" d="M216.66,87.66c.18,1-.3,2.13.49,3,.15.61.29,1.22.44,1.83-.26,1.75.62,3.15,1.41,4.57-1,.33-1.92.66-2.77-.51a1.83,1.83,0,0,1,0-2.55c1-1.41,0-2.82-.51-4S215.37,88.05,216.66,87.66Z"></path><path class="cls-2" d="M222.73,74.44h0c-.8.11-.87.83-1.15,1.37-1.16-.21-1.17.76-1.28,1.4-.18,1.11-.6,1.75-1.82,1.52.33-2.6,1.48-4.56,4.17-5.31C223.36,73.74,223,74.09,222.73,74.44Z"></path><path class="cls-2" d="M229.74,126.57c.89.41.27,1.21.45,1.8-.69,1.18.54,2.34,0,3.51C229.18,130.19,229.91,128.34,229.74,126.57Z"></path><path class="cls-2" d="M65.14,59.34a1,1,0,0,1-1,.61,1.24,1.24,0,0,1,.93-1.32C65.09,58.87,65.11,59.1,65.14,59.34Z"></path><path class="cls-2" d="M227.29,111.36l.06,1.66c-1.88-.4-.91-1.91-1.16-3Z"></path><path class="cls-2" d="M202.1,53.5c.2-.24.39-.47.59-.69l.5-.34C203.17,53.18,203.48,54.23,202.1,53.5Z"></path><path class="cls-2" d="M68.12,55.45c0,.57.06,1.17-.5,1.56C67.92,56.53,67.37,55.78,68.12,55.45Z"></path><path class="cls-1" d="M67.63,101c2.05.64.21,1.11-.07,1.64C67.58,102.05,67.61,101.5,67.63,101Z"></path><path class="cls-2" d="M76.34,47.07l1.24-.19.55.65C77.49,47.55,76.82,47.66,76.34,47.07Z"></path><path class="cls-1" d="M59.27,127.75c.44.62.75,1.23,0,1.84C59.26,129,59.26,128.37,59.27,127.75Z"></path><path class="cls-2" d="M226.71,69.59l.59-.79Z"></path><path class="cls-2" d="M215.23,47.48l-.2-.12h.45Z"></path><path class="cls-2" d="M217.21,50.5l-.48-.51a1.59,1.59,0,0,0,.43.26C217.44,50.32,217.47,50.38,217.21,50.5Z"></path><path class="cls-2" d="M226.19,110.07c-.18-.25-.35-.5-.53-.74C226.08,109.4,226.19,109.69,226.19,110.07Z"></path><path class="cls-2" d="M219.52,53.48a.94.94,0,0,1-.39-.22Z"></path><path class="cls-2" d="M228.09,67.38l-.13-.9C228.82,66.66,228.5,67,228.09,67.38Z"></path><path class="cls-2" d="M79.14,48.13l-.44-.42C79.06,47.63,79.23,47.75,79.14,48.13Z"></path><path class="cls-2" d="M214.32,47a4.1,4.1,0,0,1-.5,0l.27-.38Z"></path><path class="cls-3" d="M43.8,182.59a196.33,196.33,0,0,0-1-22.61c-.15-1.4.69-2.95.52-4.51,5.7,2,11.59,3.39,17.27,5.6a92.76,92.76,0,0,0,21,5.48c6.21.86,12.54,1.16,18.64,2.6,12.52,2.95,25.33,2,38,3.3,4.6.46,9.28-.7,14-.11,7.23.91,14.39-1,21.62-1.09a123.32,123.32,0,0,0,15.54-1.63c6.14-.9,12.24-2.08,18.35-3.19,2.31-.42,4.6-.91,6.86-1.52.9-.24,2-1.51,2.47-1.27,2.85,1.54,5.05-.67,7.5-1.09,5.6-1,10.72-3.88,16.52-4.14,2.83-.13,3.28.37,2.76,3.18a63.43,63.43,0,0,1-7.13,20.65c-1.27,2.17-2.11,4.68-5.34,5.37-5.65,1.22-11.25,2.53-17,3.52-11.5,2-22.91,4.19-34.63,4.93-8.83.56-17.68,1.5-26.51,1.7-12.31.29-24.66,1.65-37-.3-2.38-.38-5-1.17-7.22-.78-4,.68-7.71-.65-11.58-.78-6.3-.2-12.46-2-18.67-3.19-5.27-1-10.61-1.77-15.73-3.35C56.51,187.36,50.18,184.87,43.8,182.59Z"></path><path class="cls-4" d="M89.33,56.32a3.73,3.73,0,0,1,.47,1c.13,1.07.11,1.11,1.38.9,2.14-.37,3.81,1.24,5.77,1.68,2.17.48,4.83.88,6.86,2.33,1,.75,2-.22,3.1,0a21.16,21.16,0,0,0,12.24-.08c4.13-1.47,8.71-1.67,12.46-4.49,1.79-1.35,4.48-1.13,6.62-2.35A24.32,24.32,0,0,0,142.07,53a4.68,4.68,0,0,1,7,.68,5.92,5.92,0,0,0,3.56,2.15c4.05,1,7.36,4.57,11.67,4,1.78-.23,2.11,2.65,3.81,1,4.34,2.57,9,2.11,13.74,1.58A56,56,0,0,0,192,60.2c1.94-.6,4.13-2.81,7-1.14,1.09.64.27-2,1.22-2.74,2.27,1.9,4.66.66,6.45-.43a19.47,19.47,0,0,0,3.48-2c1.43-1.32,4.12-.81,4.43,1s1.48,2.22,2.24,3.29c.24.43.44.93,1.08.53.59.36,2.27-.34,1.4,1.46-.62,1.3,1.06,1.34,1.26,2.2-.14.32,0,.4.3.34a4.47,4.47,0,0,1,2,3.19l-.18.58-2.48,2.78c-.76.92-2.8,1-1.84,3-1.18,1-2.84,1.68-2.9,3.62-1.45.46-1.65,1.88-2.27,3h0c-.84,1.46-2.43,2.73-1.16,4.7,0,.61,0,1.22,0,1.82-.73,2.71-1.79,5.42,0,8.12.1.25.2.5.29.75,0,.43-.21.89.22,1.24a.22.22,0,0,0,0,.35c-.35.25-.34.47.07.65l.18.66c-.14.37.13.47.39.56.86,1.56,1.51,3.27,3.2,4.18.08.39-.21.89.34,1.15l.67,1.18a.81.81,0,0,0,.55,1l.07.09.47.64c.06.2.11.39.17.58,0,.46-.21,1,.44,1.15l.33.66.27.47c2,2.19,2.39,5.07,3.19,7.76l.34.55c1.21,2.4.67,5.19,1.74,7.63-.46.16-.89.39-.42.91s.76.12,1-.27l1.38.29c-2.57,1.93.1,4.12-.31,6.16-.15.74-.36,1.48-.55,2.22-.86.08-1.29.45-.94,1.36v1.78l.08,1.5c-.17.42-.11.73.38.85l.61.23c-.71.45-1.43.89-.74,1.89a.57.57,0,0,0-.36.81c-.1,1-.2,1.94-.31,2.91a6.76,6.76,0,0,0-3.19.91c-1.69.84-2.86,2.75-5,2.61l0-2.28a86.34,86.34,0,0,0-.15-10.42c-.3-4.51-.92-9-1.44-13.42-.46-4.08-2.78-7.47-3.83-11.34-1.29-4.72-4.48-8.68-5.88-13.43-1.14-3.93-.83-7.91-.41-11.77.72-6.5,4-12.15,7.53-17.52,1.62-2.49.78-4.37-.66-6s-4.1-2.43-5.78-.78c-3.21,3.16-7.36,3.19-11.19,3.94-3.08.59-5.16,3.23-8.37,3.25-2.84,0-5.68.27-8.52.32-8.61.16-16.7-2.08-24.7-5.06-2.32-.87-4.52-1.5-6.34-3.34-.85-.86-3-.82-3.55-.08-2.35,3-6,3-9,4.29-7.35,3.14-15.25,3.68-23,4.16-3.61.22-7.51.53-11.06-1.35-5.31-2.81-11.27-4-16.74-6.4-2.26-1-3.93-.25-5.4,1.36s-2.36,3.26-.8,5.46a50.72,50.72,0,0,1,6.53,12.34,31.28,31.28,0,0,1,1.53,16.06c-1.24,6.9-4.4,13.13-7,19.54-2.18,5.45-3,11.07-3.61,16.8-.48,4.57.1,9.07.68,13.59.07.53.51,1.25-.53,1.7-.85.36-1-.23-1.52-.45a36,36,0,0,0-7.06-2.46c-1.52-.3-1.85-.79-1.92-2.17-.26-5.6.36-11.16.54-16.74.08-2.56.22-5.2.55-7.68a23.4,23.4,0,0,1,2-5.48,91.42,91.42,0,0,1,8.2-14.89c1.58-2.42,1.28-5.2,2.09-8.23s-1.08-5.63,0-8.42c.53-1.45-.9-2.34-1.51-3.34-1.29-2.08-3.24-4-4.36-5.92s-2.85-3.42-4.21-5.14c-1.53-1.94-1-3.59,1-4.91.3.06.43,0,.3-.34.09-.22.18-.44.26-.66,1-.27,1.56-.75.73-1.77a1.79,1.79,0,0,1,1.67-1.23c1.56.1,1.74-1.38,2.49-2.21A2.15,2.15,0,0,0,75,55.22c.68-2.24,2.45-2.58,4.36-1.51,1.57.87,2.82,2.32,4.67,2.71.27-.42.5.06.75,0C86.32,57.75,87.83,57.18,89.33,56.32Z"></path><path class="cls-4" d="M127.63,159.6c-8.36-.69-16.74-1.26-24.87-3.58-1.76-.5-3.68-.76-3.8-3.26,2.42-.21,4.15-1.93,6.23-2.92,1-.48.68-1.18.42-2-1.34-4-3.5-7.8-3.17-12.23.07-1-.68-.68-1.15-.8-1.8-.47-3.56.32-5.09.82-2.43.8-2.51-.34-2.46-1.95.12-3.59.32-7.18.53-10.76.09-1.52.21-2.87,2.39-1.52a7.84,7.84,0,0,0,3.84.78,2.27,2.27,0,0,0,2.49-1.88,38,38,0,0,1,5.17-12c.66-1,.56-1.54-.41-2.09-.34-.19-.62-.49-1-.68-5.11-2.78-4.91-2.63-1.34-7.35,1.75-2.32,4.3-3.69,6-6,.73-1,2.09-1.76,2.8.34.12.35.48.61.72.93,2.72,3.64,3.08,3.88,6.7,1.24a29.26,29.26,0,0,1,9.59-4.35c1.17-.33,2.13-.62,1-2.07-.28-.36-.26-.93-.44-1.38-2-5.16-2-5.22,3.44-6,2.2-.31,4.43-.45,6.66-.58,2.44-.14,3.4.32,3,2.82a13.42,13.42,0,0,0-.07,2.54c0,1.93.36,3.13,3,2.82,3.24-.37,6.46.63,9.49,1.85,3.23,1.31,5.39.66,6.78-2.23,1.65-3.42,1.77-3.48,5-1.48q3.14,1.92,6.16,4c1.38,1,1.83,1.76.37,3.39-3.74,4.17-3.49,4.17.48,8.4a54.12,54.12,0,0,1,5.06,7.12c.61.91.83,1,1.93.34,6.64-4,5.17-5.57,8.39,2.4.84,2.07,1.37,4.27,2.08,6.39.4,1.2.05,1.33-1.19,1.68-2,.56-5-.34-5.91,1.59-.77,1.67.31,4.14.35,6.26a66.66,66.66,0,0,1-.27,7.61c-.13,1.39.2,1.88,1.57,1.75a9,9,0,0,1,1.45.2c5.43.42,5.57.56,3.91,5.6a64.21,64.21,0,0,1-2.65,7.7c-.72,1.5-1.28,1.7-2.84,1-1.79-.84-3.33-3.38-5.19-2.47-1.46.73-2.08,3.17-3.07,4.86a3.34,3.34,0,0,1-2.71,1.77c-5.4.8-10.71,2.3-16.24,2.2a1.46,1.46,0,0,1,0-.51l1.18-.32.49-.32,1.86-1.36.55-.42,1.22-.76c.33.06.47-.07.41-.41.9-1.48,2.65-2.31,3.13-4.11.13-.2.25-.4.37-.6l.94-1.72c.26-.13.64-.19.75-.4,6.15-11.56,6.06-22.54-.56-33.72a26.91,26.91,0,0,0-8.76-9.21,39.36,39.36,0,0,0-11.8-5.46c-3.94-.93-8.05-.53-12-.21-5.69.45-10.79,2.9-15.37,6.27-4.33,3.19-6.46,8.14-9.53,12.33-.32.43-.08,1.33,0,2s.35,1.41-.19,2c-2.63,2.69-2.65,6.26-2.42,9.47.81,11.12,4.83,20.64,15.06,26.52A2.59,2.59,0,0,1,127.63,159.6Z"></path><path class="cls-3" d="M154.88,159.05h-1.13l-.69.3a81.19,81.19,0,0,1-16.93.33c-2.2-.2-4-1.37-6-1.9a.52.52,0,0,0-.69-.38l-1.15-.26c-.94-2.15-3.76-2.18-4.77-4.25l-.45-.4-1.28-1.27-.51-.49c-2.11-1.57-3.08-3.94-4.37-6.1-4.25-7.07-3.37-14.81-3.32-22.51,0-1.78,1.45-2,1.94-3.29a22.76,22.76,0,0,1,6.44-9.38l.41-.5c3.45-4.15,8.37-6.08,13.21-7.52a27.94,27.94,0,0,1,12.37-.37,29.65,29.65,0,0,1,17.45,9.11l.45.46a27.6,27.6,0,0,1,7.62,22.45c-.09.32-.17.64-.25,1,.14,4.86-1.68,9.12-4.08,13.19-1.32.83-1.13,2.79-2.6,3.51l-.54.54a6.92,6.92,0,0,1-2.41,2.4l-.52.47-3.55,2.59c-.81.54-1.93.62-2.38,1.67l-1.16.2A.88.88,0,0,0,154.88,159.05Zm-19-37.76h0c1.24-.15,1.34-1,1-1.89s-.84-1.4-1.64-.36a.28.28,0,0,1-.37,0,1.23,1.23,0,0,0-1.35.46c-4.72,2.5-8.46,6.45-13.23,8.92a1.78,1.78,0,0,0,.13,3.36c4.92,2.06,8.63,5.87,13.08,8.59,0,.67,0,1.54,1,1.47s.77-.95.83-1.6l.26-.67c.05-.06.14-.15.13-.18a2.67,2.67,0,0,0-.22-.36c.42-1.72-.65-2.72-1.85-3.53a42.84,42.84,0,0,0-6.11-3.84c-2.58-1.2-1.79-2.09-.14-3.31,2.79-2,5.8-3.82,8.11-6.45ZM161.34,126c-2-1-3.66-2.64-5.6-3.67-1.62-.86-2.29-3.37-4.72-2.79a.5.5,0,0,0-.33.35c-.66.47-.94,1.24-.42,1.76,2.56,2.6,4.94,5.56,8,7.46,1.82,1.13,1.27,1.36.34,2.22a36.31,36.31,0,0,1-7.13,5.43c-2.11,1.14-2.08,2.56-.19,3.56.56,1.38,1.15,1.41,1.79,0,3-2.16,6.05-4.19,8.88-6.52,4.34-3.58,4.26-3.67,0-7.29Zm-18.93,0c-2,5.61-3.84,11.28-6,16.81-.71,1.81-.14,3.14,1.05,3.65,1.62.69,2.17-.91,2.64-2.27,1.48-4.32,3-8.61,4.57-12.91,1.75-4.89,3.55-9.76,5.27-14.66.27-.78.64-1.89-.54-2.23-1-.3-2.46-.33-2.73,1-.69,3.23-2.84,5.81-3.69,8.95C142.27,124.64,142.42,125.31,142.41,125.93Z"></path><path class="cls-1" d="M43.8,182.59c6.38,2.28,12.71,4.77,19.18,6.77,5.12,1.58,10.46,2.35,15.73,3.35,6.21,1.17,12.37,3,18.67,3.19,3.87.13,7.59,1.46,11.58.78,2.27-.39,4.84.4,7.22.78,12.33,1.95,24.68.59,37,.3,8.83-.2,17.68-1.14,26.51-1.7,11.72-.74,23.13-3,34.63-4.93,5.72-1,11.32-2.3,17-3.52,3.23-.69,4.07-3.2,5.34-5.37a63.43,63.43,0,0,0,7.13-20.65c.52-2.81.07-3.31-2.76-3.18-5.8.26-10.92,3.17-16.52,4.14-2.45.42-4.65,2.63-7.5,1.09-.45-.24-1.57,1-2.47,1.27-2.26.61-4.55,1.1-6.86,1.52-6.11,1.11-12.21,2.29-18.35,3.19a123.32,123.32,0,0,1-15.54,1.63c-7.23.13-14.39,2-21.62,1.09-4.72-.59-9.4.57-14,.11-12.65-1.26-25.46-.35-38-3.3-6.1-1.44-12.43-1.74-18.64-2.6a92.76,92.76,0,0,1-21-5.48c-5.68-2.21-11.57-3.57-17.27-5.6-2.26.26-1.89-2.16-3-3a1,1,0,0,1,.33-.66c.9-.48,1.24.76,2,.71,1.94-.24,3.61.7,5.38,1.22,6.65,2,13.46,3.56,19.9,6.1,4.35,1.71,8.85,2.32,13.28,3.23,6.94,1.43,14,2.12,21,3.17a280.7,280.7,0,0,0,28.24,2.51c8.15.38,16.28-.05,24.4.35,5.19.26,10.33-.45,15.49-.66s10.22-1.25,15.34-1.67c8.09-.67,15.95-2.64,23.91-4,7.16-1.22,14.11-3.62,21.2-5.29a40.53,40.53,0,0,1,6.68-1.38c6.24-.41,7.26-1.94,6.89-7.41.9-1,2.27-.88,3.68-1.67-.63,3.45,1,6.43-.38,9.85-.9,2.27-.59,5.44-.36,8.06.53,6.34-1.44,12.59-.14,18.95.68,3.33-.64,4.68-4.15,5.86-4.87,1.63-9.72,3.33-14.64,4.82-2.24.68-4.36,1.94-6.72,2.45.42-2.3,3.27-2.23,4.45-4.68-4.73,1.52-9.26,1.5-13.56,2.51a144.74,144.74,0,0,1-18.3,3.34c-6.34.65-12.65,2.22-19.11,1.57a5.7,5.7,0,0,0-1.44.27c-6.52,1.27-13.2,1-19.74,1-3.83.05-7.8.14-11.6.36a211,211,0,0,1-21.64-.17c-8.16-.36-16.3-1.51-24.47-2.2a78.7,78.7,0,0,1-14-2.14c-6.29-1.71-12.89-2-19-4.32-3.66-1.36-8.14-.85-10.8-4.6-.18-.27-.77-.54-1-.43-2.67,1.19-4.67-.84-7-1.37C43.15,185.16,41.48,184.23,43.8,182.59Z"></path><path class="cls-4" d="M244.36,148.66c.37,5.47-.65,7-6.89,7.41a40.53,40.53,0,0,0-6.68,1.38c-7.09,1.67-14,4.07-21.2,5.29-8,1.36-15.82,3.33-23.91,4-5.12.42-10.21,1.45-15.34,1.67s-10.3.92-15.49.66c-8.12-.4-16.25,0-24.4-.35a280.7,280.7,0,0,1-28.24-2.51c-7-1.05-14.1-1.74-21-3.17-4.43-.91-8.93-1.52-13.28-3.23-6.44-2.54-13.25-4.13-19.9-6.1-1.77-.52-3.44-1.46-5.38-1.22v-5.41c7.6,2.56,14.86,5.1,22.17,7.42A94.14,94.14,0,0,0,79,158.21c7,1.09,13.92,2.74,21,3.55,4.11.47,8.24.1,12.36.62,5.66.72,11.4,1.4,17,1.67a270,270,0,0,0,27.88,0c3.42-.19,6.77-.79,10.17-.91,5.28-.21,10.53-1.1,15.79-1.18a127.73,127.73,0,0,0,15.89-1.36c3.11-.44,6.19-1.13,9.28-1.71,1.66,1.22,3.3,3.06,5.54,1.65a12.41,12.41,0,0,0,4-3.25C226.69,154.26,235.34,150.9,244.36,148.66Z"></path><path class="cls-4" d="M39.26,139.56c0,4.13-1,8.26.49,12.42.43,1.14-1.17,2.45-1,4.19.56,5.45.68,11,1,16.43.08,1.25-.17,1.73-1.62,1.93-7.35,1-14.65,2.44-22,3.12-2.34.22-4.87-.17-7.33,0a2.07,2.07,0,0,1-1.73-1.25c-.62-1.11.31-1.22.61-1.8,3-5.61,7.28-10.17,11.46-14.84,1.94-2.16,1.28-3.72-1-5.61-4.59-3.83-9.26-7.68-12-13.17-1.49-2.93-.25-5,3-5A112.3,112.3,0,0,0,32.9,134a104,104,0,0,1,10.38-1.18c.82-.07,2-.12,2.35.92s-.57,1.42-1.41,1.87-1.47,1.28-2.57,1.08c-3.58-.26-6.91,1.1-10.35,1.62-6.15.92-12.39,1.3-18.59,1.89-2.65.26-3.27,1.28-1.34,3.1,3.36,3.17,5.7,7.24,9.36,10.09s3.95,3.12,1.07,6.5c-3.07,3.61-4.29,8.63-8.7,11.17-.69.39-.56,1.23-.42,1.89.19.89,1,.81,1.64.87,3.06.31,6.06-.39,9.07-.66,4.83-.44,9.19-2.91,14-3.45,1-.11,1.15-.89,1.09-1.76a1.16,1.16,0,0,0-1.6-1.19c-1.2.34-2.43.32-3.66.66-4.47,1.24-9,2.54-13.63,2.85-.4-2.3,1.5-3.52,1.85-5.32h0A5,5,0,0,0,23.22,163a31.12,31.12,0,0,1,3.49-4.55c2.13-2.17,2.37-2.71-.09-4.63-3.41-2.65-7.06-5-9.56-8.69-.78-1.14-1-2,1.05-2.12A94.78,94.78,0,0,0,39.26,139.56Z"></path><path class="cls-4" d="M44.43,186.17c2.3.53,4.3,2.56,7,1.37.23-.11.82.16,1,.43,2.66,3.75,7.14,3.24,10.8,4.6,6.11,2.28,12.71,2.61,19,4.32a78.7,78.7,0,0,0,14,2.14c8.17.69,16.31,1.84,24.47,2.2a211,211,0,0,0,21.64.17c3.8-.22,7.77-.31,11.6-.36,6.54-.09,13.22.22,19.74-1a5.7,5.7,0,0,1,1.44-.27c6.46.65,12.77-.92,19.11-1.57a144.74,144.74,0,0,0,18.3-3.34c4.3-1,8.83-1,13.56-2.51-1.18,2.45-4,2.38-4.45,4.68h0c-1.08-.27-2.15-.52-2.63.92l-.75.08a1.58,1.58,0,0,0-1.54.44l-1.37.2c-1,0-1.93-.3-2.75.45-5,1.12-10,2-15,3-9.64,1.93-19.47,1.19-29.18,2.69a93.28,93.28,0,0,1-22.24.59c-4.27-.36-8.62,0-12.94,0-4.82-.06-9.59-.51-14.34-1a140.39,140.39,0,0,0-14.16-1c-7.55-.07-14.81-1.85-22.15-3.13-3.24-.57-6.48-1.14-9.7-1.83-4.13-.88-7.88-2.88-11.85-4.23-4.57-1.55-9.23-2.86-13.75-4.54C45.92,189.09,43.12,189.13,44.43,186.17Z"></path><path class="cls-1" d="M260.42,175.49c-2.12-.21-4.27-.53-6.36-.63-3.2-.15-3.6-1.86-3.11-4.24a59.66,59.66,0,0,0,.87-15.11c-.26-4.87.6-9.71-.08-14.5a6.32,6.32,0,0,0-3.07-4.35c-.3-.19-.94-.06-1.08-.29-.65-1.1-3.15-.88-2.42-2.69.54-1.36,2.22-.71,3.51-.69a33.43,33.43,0,0,1,9.44,1.33c.51,1.05,1,2.11,1.54,3.14.19.33,0,.75,1,.79,4.55.19,9.08.87,13.62,1.27,1.73.15,1.44,1,.81,1.92-.94,1.31-2.66,2.18-3.43,3.23-2.63,3.6-6.07,6.3-9.13,9.39-1,1-.94,1.54-.2,2.44s1.31,1.7,2,2.55a78.16,78.16,0,0,1,8.33,13.7c.75,1.56.43,2.3-1.5,2.22a59.77,59.77,0,0,1-8.12-1.08C261.69,173.66,260.28,173.38,260.42,175.49Zm9.91-32.7c-2.93-.7-5.53-1.35-8.14-1.94-1.25-.28-2,.28-1.64,1.56.69,2.31.35,4.65.49,7,0,.52-.32,1.29.48,1.45a1.53,1.53,0,0,0,1.28-.5C264.77,147.42,267.54,145.29,270.33,142.79ZM261,160.3c0,1.8.27,3.22-.06,4.48-1,3.72-.43,6,4.15,5.88.66,0,1.45.53,2.05-.09a1.57,1.57,0,0,0-.06-2.15C265.14,165.89,264.09,162.72,261,160.3Z"></path><path class="cls-1" d="M182.42,107c-2.44-2.62-3.57-6-6.26-8.3-.75-.62-.58-1,0-1.55a34.39,34.39,0,0,0,2.69-2.71c.56-.66,2-1.19.46-2.46-.85-.69.31-1.17.7-1.56,6-6,12-12.13,18.2-18,2.26-2.16,5.29-3.28,8.38-4.87a9.4,9.4,0,0,1-2.11,5.53c-3.16,3.38-3.09,8.06-5.18,11.83a1.24,1.24,0,0,0-.05.85,5.43,5.43,0,0,1-.78,4Q190.47,98.45,182.42,107Z"></path><path d="M121.78,151.23l1.28,1.27.45.4c1,2.07,3.83,2.1,4.77,4.25-.26.81.46,1.87-.65,2.45a2.59,2.59,0,0,0-1.59-2.19c-10.23-5.88-14.25-15.4-15.06-26.52-.23-3.21-.21-6.78,2.42-9.47.54-.55.29-1.27.19-2s-.35-1.57,0-2c3.07-4.19,5.2-9.14,9.53-12.33,4.58-3.37,9.68-5.82,15.37-6.27,4-.32,8.09-.72,12,.21a39.36,39.36,0,0,1,11.8,5.46,26.91,26.91,0,0,1,8.76,9.21c6.62,11.18,6.71,22.16.56,33.72-.11.21-.49.27-.75.4l-1.72-.62c2.4-4.07,4.22-8.33,4.08-13.19.08-.32.16-.64.25-1a27.6,27.6,0,0,0-7.62-22.45l-.45-.46A29.65,29.65,0,0,0,148,101.07a27.94,27.94,0,0,0-12.37.37c-4.84,1.44-9.76,3.37-13.21,7.52-.3,0-.51.15-.41.5a22.76,22.76,0,0,0-6.44,9.38c-.49,1.25-1.93,1.51-1.94,3.29,0,7.7-.93,15.44,3.32,22.51,1.29,2.16,2.26,4.53,4.37,6.1Z"></path><path class="cls-1" d="M153,71.14c.59-.63,1.16-1.13,2.15-.67a47.46,47.46,0,0,0,20.9,4.18,12.27,12.27,0,0,1,1.64.24A41.12,41.12,0,0,0,169,82.61c-.26.28-.77.72-.92.64-4.79-2.62-5.08,2.12-6.64,4.29-.95,1.32-1.58,1.16-2.55.6A18.15,18.15,0,0,0,150,86.05c-2.61,0-3.53-1.16-3-3,.64-2.38-1.68-5.36,1.45-7.17.45-.12.91-.24.72-.88l0-.06c2.37.56,3.29-1.5,4.61-2.7C154.42,71.63,153.56,71.3,153,71.14Z"></path><path class="cls-1" d="M21.46,164.91c-.35,1.8-2.25,3-1.85,5.32,4.67-.31,9.16-1.61,13.63-2.85,1.23-.34,2.46-.32,3.66-.66a1.16,1.16,0,0,1,1.6,1.19c.06.87-.06,1.65-1.09,1.76-4.83.54-9.19,3-14,3.45-3,.27-6,1-9.07.66-.69-.06-1.45,0-1.64-.87-.14-.66-.27-1.5.42-1.89,4.41-2.54,5.63-7.56,8.7-11.17,2.88-3.38,2.51-3.71-1.07-6.5s-6-6.92-9.36-10.09c-1.93-1.82-1.31-2.84,1.34-3.1,6.2-.59,12.44-1,18.59-1.89,3.44-.52,6.77-1.88,10.35-1.62-1,.83-1.16,2.3-2.39,2.91A94.78,94.78,0,0,1,18.11,143c-2.05.1-1.83,1-1.05,2.12,2.5,3.65,6.15,6,9.56,8.69,2.46,1.92,2.22,2.46.09,4.63A31.12,31.12,0,0,0,23.22,163a5,5,0,0,1-1.77,1.89.93.93,0,0,0-.09-.2s-.1,0-.15,0Z"></path><path class="cls-4" d="M260.42,175.49c-.14-2.11,1.27-1.83,2.56-1.6A59.77,59.77,0,0,0,271.1,175c1.93.08,2.25-.66,1.5-2.22a78.16,78.16,0,0,0-8.33-13.7c-.66-.85-1.29-1.72-2-2.55s-.76-1.47.2-2.44c3.06-3.09,6.5-5.79,9.13-9.39.77-1,2.49-1.92,3.43-3.23.63-.9.92-1.77-.81-1.92-4.54-.4-9.07-1.08-13.62-1.27-1,0-.78-.46-1-.79-.55-1-1-2.09-1.54-3.14,4.16.51,8.31,1.24,12.49,1.44,2.66.12,5.23,1.29,8.06.36,1.77-.58,2,1,1.64,2.45-.82,3.28-3.29,5.51-5.37,7.86a63.18,63.18,0,0,1-7.72,7.53c-.77.62-1.35,1.48,0,3.09s3.59,2.86,4.78,5c1.36,2.42,3,4.66,4.28,7.17a22.43,22.43,0,0,0,2.69,4.07c1.65,2.05.08,2.27-1,2.87-4.61,2.59-9.36.55-14,.22C262.86,176.27,261.38,176.66,260.42,175.49Z"></path><path class="cls-1" d="M91.59,129.49a14.18,14.18,0,0,0,.12,6.63c.67,2.52,1.93,3.29,4.41,2.36a8.79,8.79,0,0,1,3.1-.74c.7,0,1.44.33,1.38.8-.43,3.58,2.16,6.31,2.72,9.34-3.68.27-7-1.94-10.89-.57-1,.34-3.93.64-5.44-1.33-.45-.59-1.5-.77-2.32-1-1.28-.39-3.26.15-3.53-1.64-.32-2.1-.61-4.27,1.69-6C85.85,135.05,88.5,132.29,91.59,129.49Z"></path><path class="cls-1" d="M216.62,148.92c2.17.14,3.34-1.77,5-2.61a6.76,6.76,0,0,1,3.19-.91,1.37,1.37,0,0,1,.1.48c-1.07,1.09-.24,2.48-.56,3.68-.22,2.5-2.24,3-4.1,3.66a1.6,1.6,0,0,0-1.43.4l-2.11.22-.81.37c-2.31-.4.49-1.56-.33-2.19.32-.11.59-.25.47-.67,0-.77.07-1.54.11-2.31A.86.86,0,0,1,216.62,148.92Z"></path><path class="cls-4" d="M51,144.24c2.46.56,3.82-1.46,5.59-2.46.65-.37,1.1-1.1,2-1.07.28,1.8.55,3.59.86,5.39s.43,3.27-2.19,2.31c-1.73-.63-3.52-1.1-5.25-1.75C50.94,146.25,50.81,145.28,51,144.24Z"></path><path class="cls-1" d="M218,157.34a12.41,12.41,0,0,1-4,3.25c-2.24,1.41-3.88-.43-5.54-1.65,1.05-1.07,2.51-.12,3.65-.76.38.23.47-.09.6-.33C214.52,158.68,216.13,156.85,218,157.34Z"></path><path class="cls-4" d="M240.82,145.41c-2.66-1.09-5.35.45-8.27-.12a5.64,5.64,0,0,1,3.23-1c4.49-.18,4.48-.19,4.67-4.79C241.52,141.41,240.77,143.43,240.82,145.41Z"></path><path class="cls-2" d="M212.06,93.46c-1.81-2.7-.75-5.41,0-8.12C213.9,88,211.35,90.75,212.06,93.46Z"></path><path class="cls-4" d="M153,71.14c.55.16,1.41.49.79,1-1.32,1.2-2.24,3.26-4.61,2.7Z"></path><path class="cls-2" d="M212.06,83.52c-1.27-2,.32-3.24,1.16-4.7C214.22,80.73,214.3,82.42,212.06,83.52Z"></path><path class="cls-2" d="M219.11,97.19c.76,1.06,1.49,2.14,2.29,3.17.67.87-.25.86-.59,1.17C219,100.56,219,98.9,219.11,97.19Z"></path><path class="cls-2" d="M213.22,78.82c.62-1.1.82-2.52,2.27-3C216.53,77.32,215.56,78.58,213.22,78.82Z"></path><path class="cls-2" d="M216.66,82.94c.89,1.2,0,2.36-.06,3.54C215,85.27,214.91,84.09,216.66,82.94Z"></path><path class="cls-5" d="M157.14,158.42c.45-1,1.57-1.13,2.38-1.67l1.19,1.13a1.46,1.46,0,0,0,0,.51C159.53,159.93,158.32,157.35,157.14,158.42Z"></path><path class="cls-2" d="M72.9,49.33A2.55,2.55,0,0,1,75.16,47C76.22,49.56,73.78,48.68,72.9,49.33Z"></path><path class="cls-2" d="M74.12,56.46c-.75.83-.93,2.31-2.49,2.21C71.47,56.82,72.45,56.26,74.12,56.46Z"></path><path class="cls-2" d="M218.39,72.22c-1-2,1.08-2.08,1.84-3C220.71,70.89,219.81,71.71,218.39,72.22Z"></path><path class="cls-2" d="M230.33,138.37a2.71,2.71,0,0,1,.39,2.37,2.2,2.2,0,0,1-1.72-1.63C228.88,138.53,229.76,138.43,230.33,138.37Z"></path><path class="cls-2" d="M218,79.35c.88,1.51-.4,2.19-1.17,3.07A3,3,0,0,1,218,79.35Z"></path><path class="cls-2" d="M227.51,114.15a2,2,0,0,1,.72,2.35c-.89-.72-1.12-2.25-2.67-2.24Z"></path><path class="cls-2" d="M230.23,132.46a17,17,0,0,1,0,4.72A5.08,5.08,0,0,1,230.23,132.46Z"></path><path class="cls-1" d="M219,197.89c.48-1.44,1.55-1.19,2.63-.92A2.46,2.46,0,0,1,219,197.89Z"></path><path class="cls-2" d="M228.55,118.92a4.81,4.81,0,0,1,1,2.93A3.67,3.67,0,0,1,228.55,118.92Z"></path><path class="cls-2" d="M224.38,149.56c.32-1.2-.51-2.59.56-3.68C224.83,147.12,225.55,148.49,224.38,149.56Z"></path><path class="cls-2" d="M70,59.9c.83,1,.31,1.5-.73,1.77C69.25,61,69.19,60.27,70,59.9Z"></path><path class="cls-2" d="M225.69,61.09l1.15,1.17C226.31,62,224.54,63,225.69,61.09Z"></path><path class="cls-2" d="M216.62,148.92a.86.86,0,0,0-.44.12c0-.82-.29-1.71.47-2.4Z"></path><path class="cls-2" d="M217.91,58.67c-.64.4-.84-.1-1.08-.53C217.45,57.8,218,57.61,217.91,58.67Z"></path><path class="cls-2" d="M230.7,141.9c-.06.42.17.91-.33,1.21C229.48,142.44,229.86,142.11,230.7,141.9Z"></path><path class="cls-1" d="M212.58,199.06c.82-.75,1.8-.48,2.75-.45A2.7,2.7,0,0,1,212.58,199.06Z"></path><path class="cls-2" d="M225.18,135.43c-.35-.91.08-1.28.94-1.36C226.2,134.8,226.06,135.37,225.18,135.43Z"></path><path class="cls-2" d="M69.86,54c-.44-.75.17-.75.61-.87Z"></path><path class="cls-2" d="M71.67,51.1c0-.74.68-.82,1.13-1.12Z"></path><path class="cls-2" d="M228.49,118.32l.06.59-1,.09C227.56,118.33,228.09,118.4,228.49,118.32Z"></path><path class="cls-2" d="M225.6,125.4c-.27.39-.6.75-1,.27s0-.75.42-.91Z"></path><path class="cls-2" d="M216.75,103c-.55-.26-.26-.76-.34-1.15Z"></path><path class="cls-2" d="M218,105.23a.81.81,0,0,1-.55-1Z"></path><path class="cls-1" d="M216.7,198.41a1.58,1.58,0,0,1,1.54-.44C217.88,198.66,217.29,198.55,216.7,198.41Z"></path><path class="cls-2" d="M70.9,52.23c.06-.48.12-1,.72-1.09C71.59,51.65,71.45,52.08,70.9,52.23Z"></path><path class="cls-2" d="M225.26,138.71l-.08-1.5A1.05,1.05,0,0,1,225.26,138.71Z"></path><path class="cls-5" d="M154.88,159.05a.88.88,0,0,1,1.1-.43A1,1,0,0,1,154.88,159.05Z"></path><path class="cls-2" d="M218.85,153.62a1.6,1.6,0,0,1,1.43-.4A1.33,1.33,0,0,1,218.85,153.62Z"></path><path class="cls-2" d="M219.12,107.69c-.65-.19-.48-.69-.44-1.15C218.82,106.92,219,107.3,219.12,107.69Z"></path><path class="cls-2" d="M227.38,148.41l-.64.43-.14-.21.76-.24Z"></path><path class="cls-2" d="M212.57,95.45c-.43-.35-.26-.81-.22-1.24C212.42,94.62,212.5,95,212.57,95.45Z"></path><path class="cls-4" d="M149.15,75c.19.64-.27.76-.72.88Z"></path><path class="cls-2" d="M226.25,139.79l-.61-.23a1.44,1.44,0,0,1,.5-.07l.12.11Z"></path><path class="cls-2" d="M69,62.33c.13.31,0,.4-.3.34A.45.45,0,0,1,69,62.33Z"></path><path class="cls-2" d="M225,59.55c.51-.26.33.17.37.38A.56.56,0,0,1,225,59.55Z"></path><path class="cls-2" d="M225.15,142.49a.57.57,0,0,1,.36-.81Z"></path><path class="cls-2" d="M223.26,57.82c.11.07.53-.09.23.3A.44.44,0,0,1,223.26,57.82Z"></path><path class="cls-2" d="M230.21,145.46a.57.57,0,0,1-.42.71Z"></path><path class="cls-2" d="M219.72,108.82l-.27-.47A.62.62,0,0,1,219.72,108.82Z"></path><path class="cls-2" d="M221.48,56.39l.37.56Z"></path><path class="cls-2" d="M227.36,148.39l.15-.25c0,.09-.08.18-.13.27Z"></path><path class="cls-2" d="M226.14,139.49l.32-.21-.2.32Z"></path><path class="cls-2" d="M216.07,151.35c.12.42-.15.56-.47.67Z"></path><path class="cls-2" d="M220.87,62.67c-.3.06-.44,0-.3-.34A.47.47,0,0,1,220.87,62.67Z"></path><path class="cls-2" d="M215.93,154.21l.81-.37Z"></path><path class="cls-5" d="M129.43,157.41a.52.52,0,0,1,.69.38Z"></path><path class="cls-2" d="M219.72,54.59l.56.2C220,55.07,219.81,54.92,219.72,54.59Z"></path><path class="cls-2" d="M69.26,54.79l.56-.21C69.73,54.91,69.58,55.07,69.26,54.79Z"></path><path class="cls-2" d="M212.66,157.85c-.13.24-.22.56-.6.33Z"></path><path class="cls-2" d="M226.82,62.23c.32.1.56.26.46.66Z"></path><path class="cls-2" d="M200.8,54l.59-.36Z"></path><path class="cls-4" d="M153.06,159.36l.69-.3Z"></path><path class="cls-2" d="M218.51,106l-.47-.64Z"></path><path class="cls-2" d="M222.71,66.44l.18-.58a2.49,2.49,0,0,1,.05.46C222.94,66.37,222.79,66.4,222.71,66.44Z"></path><path class="cls-2" d="M212.64,96.45c-.41-.18-.42-.4-.07-.65Z"></path><path class="cls-2" d="M213.21,97.67c-.26-.09-.53-.19-.39-.56Z"></path><path class="cls-2" d="M75.2,47c.16-.61.35-.46.54,0A3.25,3.25,0,0,1,75.2,47Z"></path><path class="cls-2" d="M223.25,117.13l-.34-.55Z"></path><path class="cls-6" d="M89.33,56.32c-1.5.86-3,1.43-4.55.11.44-1.23.87-2.73,2.44-2.68A2.16,2.16,0,0,1,89.33,56.32Z"></path><path class="cls-3" d="M221.62,75.81c.28-.54.35-1.26,1.15-1.37A1.32,1.32,0,0,1,221.62,75.81Z"></path><path d="M160.71,157.88l-1.19-1.13,3.55-2.59c.35.05.48-.16.52-.47a6.92,6.92,0,0,0,2.41-2.4l.54-.54c1.47-.72,1.28-2.68,2.6-3.51l1.72.62-.94,1.72c-.12.2-.24.4-.37.6-.48,1.8-2.23,2.63-3.13,4.11l-.41.41-1.22.76-.55.42-1.86,1.36-.49.32Z"></path><path class="cls-5" d="M169.55,150.18c.13-.2.25-.4.37-.6C169.8,149.78,169.68,150,169.55,150.18Z"></path><path class="cls-5" d="M166,154.7l.41-.41C166.48,154.63,166.34,154.76,166,154.7Z"></path><path class="cls-5" d="M164.24,155.88l.55-.42Z"></path><path class="cls-5" d="M161.89,157.56l.49-.32Z"></path><path d="M135.52,121.85c-2.31,2.63-5.32,4.41-8.11,6.45-1.65,1.22-2.44,2.11.14,3.31a42.84,42.84,0,0,1,6.11,3.84c1.2.81,2.27,1.81,1.85,3.53a.62.62,0,0,0,.09.54c-.09.22-.17.44-.26.67l-1.79.13c-4.45-2.72-8.16-6.53-13.08-8.59a1.78,1.78,0,0,1-.13-3.36c4.77-2.47,8.51-6.42,13.23-8.92.71.59,1-.08,1.35-.46a.28.28,0,0,0,.37,0,2.77,2.77,0,0,1,.64,2.25h0Z"></path><path d="M143,124.24c.85-3.14,3-5.72,3.69-8.95.27-1.3,1.71-1.27,2.73-1,1.18.34.81,1.45.54,2.23-1.72,4.9-3.52,9.77-5.27,14.66-1.54,4.3-3.09,8.59-4.57,12.91-.47,1.36-1,3-2.64,2.27-1.19-.51-1.76-1.84-1.05-3.65,2.19-5.53,4-11.2,6-16.81C143.13,125.54,143.4,125,143,124.24Z"></path><path d="M151,119.52c2.43-.58,3.1,1.93,4.72,2.79,1.94,1,3.58,2.67,5.6,3.67l.55.56c4.29,3.62,4.37,3.71,0,7.29-2.83,2.33-5.92,4.36-8.88,6.52l-1.79,0c-1.89-1-1.92-2.42.19-3.56a36.31,36.31,0,0,0,7.13-5.43c.93-.86,1.48-1.09-.34-2.22-3-1.9-5.4-4.86-8-7.46-.52-.52-.24-1.29.42-1.76C151,119.92,151.13,119.85,151,119.52Z"></path><path class="cls-4" d="M135.93,121.28a2.77,2.77,0,0,0-.64-2.25c.8-1,1.35-.41,1.64.36S137.17,121.13,135.93,121.28Z"></path><path class="cls-4" d="M133.55,140.32l1.79-.13c-.06.65.12,1.54-.83,1.6S133.6,141,133.55,140.32Z"></path><path class="cls-4" d="M151.25,140.3l1.79,0C152.4,141.71,151.81,141.68,151.25,140.3Z"></path><path class="cls-4" d="M143,124.24c.45.76.18,1.3-.54,1.69C142.42,125.31,142.27,124.64,143,124.24Z"></path><path class="cls-4" d="M134.92,119c-.37.38-.64,1.05-1.35.46A1.23,1.23,0,0,1,134.92,119Z"></path><path class="cls-4" d="M161.89,126.54l-.55-.56Z"></path><path class="cls-4" d="M165.4,110.18l.45.46Z"></path><path class="cls-4" d="M122,109.46c-.1-.35.11-.47.41-.5Z"></path><path class="cls-4" d="M135.6,139.52a.62.62,0,0,1-.09-.54,2.67,2.67,0,0,1,.22.36S135.65,139.46,135.6,139.52Z"></path><path class="cls-4" d="M121.78,151.23l-.51-.49Z"></path><path class="cls-4" d="M166.54,150.75l-.54.54Z"></path><path class="cls-4" d="M123.51,152.9l-.45-.4Z"></path><path class="cls-4" d="M163.59,153.69c0,.31-.17.52-.52.47Z"></path><path class="cls-4" d="M151,119.52c.11.33-.05.4-.33.35A.5.5,0,0,1,151,119.52Z"></path><path class="cls-4" d="M173.47,133.09c-.09.32-.17.64-.25,1C173.3,133.73,173.38,133.41,173.47,133.09Z"></path><path class="cls-4" d="M135.52,121.85l.4-.56Z"></path><path class="cls-4" d="M270.33,142.79c-2.79,2.5-5.56,4.63-7.53,7.54a1.53,1.53,0,0,1-1.28.5c-.8-.16-.45-.93-.48-1.45-.14-2.32.2-4.66-.49-7-.39-1.28.39-1.84,1.64-1.56C264.8,141.44,267.4,142.09,270.33,142.79Z"></path><path class="cls-4" d="M261,160.3c3.1,2.42,4.15,5.59,6.08,8.12a1.57,1.57,0,0,1,.06,2.15c-.6.62-1.39.07-2.05.09-4.58.16-5.12-2.16-4.15-5.88C261.26,163.52,261,162.1,261,160.3Z"></path><path class="cls-4" d="M21.46,164.91l-.25-.23c.05,0,.12,0,.15,0a.93.93,0,0,1,.09.2Z"></path></g></g><g><path class="cls-7" d="M95.56,182.23c0-1.47,0-2.95,0-4.43,0-.66.17-.94.89-.82.91.14,1.83.16,2.74.26a5.15,5.15,0,0,1,4.39,3.72,5.52,5.52,0,0,1-.85,5.94,3.7,3.7,0,0,1-3.2,1.28c-.56-.05-1.11-.12-1.67-.19-2.19-.27-2.19-.27-2.25-2.53,0-.6,0-1.2,0-1.79s0-1,0-1.44Zm7,.93a4.38,4.38,0,0,0-5.28-4.3c-.46.1-.43.4-.43.71,0,2,.08,4.07.09,6.1,0,.58.28.77.81.77.35,0,.71.06,1.07.09C101.22,186.75,102.59,185.51,102.59,183.16Z"></path><path class="cls-7" d="M166,186.63a3.9,3.9,0,0,1-3.25,3.75,3.6,3.6,0,0,1-4.06-2.4c-.13-.34-.43-.73.23-.93.47-.15.8-.34,1.18.26a2.34,2.34,0,0,0,3.22,1.14,1.8,1.8,0,0,0,1.16-1.79c0-.85-.64-1.13-1.32-1.32s-1.31-.35-2-.51a2.81,2.81,0,0,1-2.47-2.28,3.38,3.38,0,0,1,1.5-3.32,3.33,3.33,0,0,1,5.21,1.5c.16.41.29.75-.28.93s-.71.3-1-.29a2,2,0,0,0-3.11-.81,1.79,1.79,0,0,0-.82,1.64,1.46,1.46,0,0,0,1.18,1.21c1,.3,2,.52,3,.86A2.26,2.26,0,0,1,166,186.63Z"></path><path class="cls-7" d="M191.54,184.52a3.78,3.78,0,0,1-2.95,3.59c-1.85.48-3.41,0-4.16-1.45-.19-.36-.71-.83,0-1.2.52-.26.9-.42,1.35.31a2.46,2.46,0,0,0,4.05-.15,1.23,1.23,0,0,0-.71-2c-.87-.25-1.8-.32-2.69-.56-1.93-.53-2.58-1.92-1.8-3.78a4.06,4.06,0,0,1,3.64-2.5,2.81,2.81,0,0,1,2.8,1.85c.19.44.46.85-.24,1.16s-.77.1-1.09-.42a2.09,2.09,0,0,0-3.57.09,1.36,1.36,0,0,0,.79,2.25c.95.28,1.95.41,2.92.65A1.89,1.89,0,0,1,191.54,184.52Z"></path><path class="cls-7" d="M174.2,185.36c0,1.08,0,2.16,0,3.23,0,.89-.62,1.3-1.29.78s-.82-.18-1.24,0a2.85,2.85,0,0,1-4.25-1.21,4.61,4.61,0,0,1,.06-4.89,3.32,3.32,0,0,1,3.35-1.64,3.44,3.44,0,0,1,.92.22c.5.21,1,.74,1.33-.2.06-.14.6-.18.9-.12s.27.51.28.79c0,1,0,2,0,3Zm-1.37,0a2.25,2.25,0,0,0-2.22-2.43,2.6,2.6,0,0,0-2.47,2.7,2.4,2.4,0,0,0,2.16,2.66A2.79,2.79,0,0,0,172.83,185.38Z"></path><path class="cls-7" d="M182.78,184.75V188c0,.4-.11.7-.59.73s-.7.21-.78-.39-.34-.17-.55,0c-1.89,1.19-3.12,1.23-4.21.15a4.69,4.69,0,0,1-.58-5.54,3.61,3.61,0,0,1,4.57-1.51c.44.18.74.42,1-.23.14-.35.65-.26,1-.19s.25.52.26.81c0,1,0,2,0,3Zm-1.29-.07a2.2,2.2,0,0,0-2.21-2.31,2.74,2.74,0,0,0-2.52,2.82,2.34,2.34,0,0,0,2.23,2.46A2.82,2.82,0,0,0,181.49,184.68Z"></path><path class="cls-7" d="M143.33,186.4c0,2.39-1.76,4.46-3.75,4.44s-3.74-2.25-3.72-4.66a3.69,3.69,0,0,1,3.71-3.84A3.78,3.78,0,0,1,143.33,186.4Zm-1.41-.07a2.4,2.4,0,0,0-2.37-2.59,2.35,2.35,0,0,0-2.27,2.54,2.73,2.73,0,0,0,2.32,2.84A2.58,2.58,0,0,0,141.92,186.33Z"></path><path class="cls-7" d="M135,186.39c-.06,2-1.46,3.93-3.07,4.23-2,.37-4.09-1.52-4.38-4.06a3.74,3.74,0,0,1,3.39-4.36A4,4,0,0,1,135,186.39Zm-3.81-2.79a2.3,2.3,0,0,0-2.25,2.43,2.73,2.73,0,0,0,2.39,2.92,2.66,2.66,0,0,0,2.29-2.75A2.58,2.58,0,0,0,131.17,183.6Z"></path><path class="cls-7" d="M110.09,185.53l-3-.24c-.81-.06-.86.34-.58,1a2.45,2.45,0,0,0,3.68,1.12c.49-.35.77-.44,1.16,0s0,.81-.32,1.09a3.09,3.09,0,0,1-4,.19,4.77,4.77,0,0,1-2.15-4,3.37,3.37,0,0,1,3.49-3.44,4,4,0,0,1,3.72,3.8c0,.47-.16.64-.63.58s-1-.06-1.43-.08Zm-1.27-1.23h0l1.43.12c.48.05.58-.19.38-.56a2.42,2.42,0,0,0-1.85-1.38,2.13,2.13,0,0,0-2.11.83c-.36.47-.47.87.36.9C107.62,184.22,108.22,184.27,108.82,184.3Z"></path><path class="cls-7" d="M124.8,185.29c0,1.2.06,2.4,0,3.59,0,.45.49,1.29-.64,1.3s-.75-.71-.75-1.26c0-2.43-.08-4.87,0-7.31,0-1-.28-1.41-1.27-1.35-.43,0-.88,0-1.31,0s-.94-.08-.89-.78.3-.85,1-.81c2.12.13,4.23.2,6.35.25.65,0,.93.19.92.89s-.47.67-1,.68c-2.47,0-2.46,0-2.43,2.54,0,.76,0,1.52,0,2.28Z"></path><path class="cls-7" d="M151.49,190.9a3.08,3.08,0,0,1-3.11-1.85c-.13-.26-.46-.64.09-.9s.73-.35,1.1.18c.8,1.13,1.7,1.33,2.64.79a1.33,1.33,0,0,0,.71-1.4c-.07-.61-.56-.73-1-.81s-1.11-.13-1.66-.23a2,2,0,0,1-1.82-1.78,2.17,2.17,0,0,1,1.27-2.24,3.05,3.05,0,0,1,3.89.74c.19.28.66.65.12,1-.37.23-.75.35-1.1-.2a1.57,1.57,0,0,0-2.3-.49,1,1,0,0,0-.55,1,.87.87,0,0,0,.76.81,13.75,13.75,0,0,0,1.41.22c1.53.16,2.24.67,2.41,1.72a3.11,3.11,0,0,1-1.81,3.21A6.74,6.74,0,0,1,151.49,190.9Z"></path><path class="cls-7" d="M144.59,183.6c0-1.48,0-2.95,0-4.42,0-.5,0-.93.72-.93s.65.5.65,1c0,2.71,0,5.41,0,8.12,0,.76,0,1.54,1.11,1.61.62,0,.38.69.44,1.08s-.36.65-.76.71a2,2,0,0,1-2.07-2c-.1-1.71,0-3.42,0-5.13Z"></path><path class="cls-7" d="M116.09,187.5c.62-1.62,1.22-3.2,1.84-4.78.13-.35.19-.79.76-.75s1,0,.69.85c-.85,2.07-1.61,4.17-2.4,6.26-.13.35-.22.71-.71.62s-1,0-1.16-.61c-.72-2.32-1.71-4.55-2.62-6.8-.1-.24-.33-.58.17-.6s1-.09,1.26.6c.49,1.39,1,2.75,1.59,4.12C115.65,186.76,115.65,187.19,116.09,187.5Z"></path><path class="cls-8" d="M102.59,183.16c0,2.35-1.37,3.59-3.74,3.37-.36,0-.72-.08-1.07-.09-.53,0-.8-.19-.81-.77,0-2-.06-4.07-.09-6.1,0-.31,0-.61.43-.71A4.38,4.38,0,0,1,102.59,183.16Z"></path><path class="cls-8" d="M172.83,185.38a2.79,2.79,0,0,1-2.53,2.93,2.4,2.4,0,0,1-2.16-2.66,2.6,2.6,0,0,1,2.47-2.7A2.25,2.25,0,0,1,172.83,185.38Z"></path><path class="cls-8" d="M181.49,184.68a2.82,2.82,0,0,1-2.5,3,2.34,2.34,0,0,1-2.23-2.46,2.74,2.74,0,0,1,2.52-2.82A2.2,2.2,0,0,1,181.49,184.68Z"></path><path class="cls-8" d="M141.92,186.33a2.58,2.58,0,0,1-2.32,2.79,2.73,2.73,0,0,1-2.32-2.84,2.35,2.35,0,0,1,2.27-2.54A2.4,2.4,0,0,1,141.92,186.33Z"></path><path class="cls-8" d="M131.17,183.6a2.58,2.58,0,0,1,2.43,2.6,2.66,2.66,0,0,1-2.29,2.75,2.73,2.73,0,0,1-2.39-2.92A2.3,2.3,0,0,1,131.17,183.6Z"></path><path class="cls-8" d="M108.82,184.3c-.6,0-1.2-.08-1.79-.1-.83,0-.72-.43-.36-.9a2.13,2.13,0,0,1,2.11-.83,2.42,2.42,0,0,1,1.85,1.38c.2.37.1.61-.38.56l-1.43-.12Z"></path></g></svg>