<svg xmlns="http://www.w3.org/2000/svg" id="Layer_1" data-name="Layer 1" viewBox="0 0 181 181"><defs><style>.cls-1{fill:#f9f9f9;}.cls-2{fill:#010101;}.cls-3{fill:#1b1c1b;}</style></defs><path class="cls-1" d="M0,90.5Q0,46,0,1.51C0,.33.16,0,1.45,0q89,.06,178,0C180.8,0,181,.34,181,1.59q-.06,88.91,0,177.81c0,1.22-.16,1.6-1.54,1.6q-89-.08-178,0C.19,181,0,180.7,0,179.5Q.06,135,0,90.5ZM42.4,123.14c.18.25.22.63.64.66a2.71,2.71,0,0,0,1.22,1.26,4.52,4.52,0,0,0,3.85,1.79c2.15-.25,4,1.18,6.2,1a101.46,101.46,0,0,0,10.84-1.73c2-.4,4.1-.56,5.3-2.58h0c1-.39,1.7-.29,1.59,1.06,0,.17.27.36.42.53l.11-.06-.11.07c.91,2.44,1.79,4.9,2.78,7.31.21.52.5,1.25,1.35,1.19h0c.43.81.24,1.89,1.06,2.54h0c1,2,2.78,3.56,3.56,5.73.07.2.51.26.79.39v.43l-.12,0,.12.11.6.21a4.46,4.46,0,0,0,2.07,3l0,0c.3.44.8.41,1.24.51h0c.46.81,1.71,1,1.83,1.95a4.65,4.65,0,0,0,1.41,2.4l.11.34c0,1.1,1,1.33,1.67,1.9a.21.21,0,0,0,.14.27,1.44,1.44,0,0,0,1,1.39l0,0c.15.58.29,1.16.47,1.72.54,1.7,2.21,3.12,3.69,2.73,2.22-.57,4.57-.7,6.66-1.82.61-.32.93-.92,1.73-1.12a10,10,0,0,0,4.8-2.53.2.2,0,0,0,.27-.15A60.81,60.81,0,0,0,117,149.9c.25,0,.36-.08.41-.3,1.33-.85,2.37-2.31,4.26-2a1.54,1.54,0,0,0,1.11-.45c2.41-1.77,5-3.31,7.37-5.11s4.65-3.84,6.94-5.8l.25-.21c3.51-1.72,5.83-4.81,8.55-7.45v0a2.45,2.45,0,0,0,1.77-1.07l0,0c.55-.25,1.3-.23,1.43-1l0,0a31.56,31.56,0,0,0,3.22-3.33c.84-1.14,1.43-2.86.75-4a28.18,28.18,0,0,0-6.5-7.77l-.08,0-.29-.23,0-.09-.09,0c-.09-1.41-1-2.19-2.09-2.92h0c-.1-.63-.55-.88-1.09-1.07-.23-.55-.78-.75-1.21-1.08-.66-1.59-2-2.75-2.87-4.17-.56-.87-.83-2-2.07-2.3l-.12-.4c-.71-1.73.47-3,1.13-4.34l.49-1c1.67-2.28,2.52-5,3.65-7.53,1.59-3.55,2.21-7.47,2.81-11.33v-.41a45.52,45.52,0,0,0,2.34-9.06c.15-1.17.54-2.33.07-3.51l.11-1.11c.87-1.77.08-3.39-.44-5l-.08-.73,0-1.1v-.71a22.25,22.25,0,0,0-2.06-7.41l-.05-.13h-.13c-.23-.35.25-.81-.18-1.12l-.17-.73c-.46-1.2-.62-2.58-1.95-3.26h0A10.26,10.26,0,0,0,141,38.09c-1.22-1.25-2.22-2.74-3.72-3.69a.18.18,0,0,0-.26-.1c-.18-.34-.34-.69-.79-.76l-.48-.63a2.13,2.13,0,0,0-1-1.09h0c-.93-1.16-1.64-2.72-3-3.24-2.94-1.13-5.11-3.29-7.58-5-3.06-2.18-6-4.59-9.78-5.53a8.69,8.69,0,0,1-1.44-.62c-2.4-1.14-4.77-2.29-7.63-2.09a25.47,25.47,0,0,1-6.79-.78,18.84,18.84,0,0,0-5.69-.23,1.2,1.2,0,0,0-1.09,0,2.8,2.8,0,0,0-2.7-.52c-2.23.47-4.59.46-6.71,1a54.42,54.42,0,0,0-7.1,2.31c-2.69,1.15-5.51,2-8,3.57l-.38.26c-.42,0-.84-.05-1,.49l-.46.4c-.37.09-.75.16-.89.59l-1.65.69a18.48,18.48,0,0,0-6.13,4.79l-.42.24c-3.39,1.91-4.42,5.46-5.62,8.7-1,2.77-1.93,5.65-2.8,8.5a32.14,32.14,0,0,0-1.12,8.2l0,.75c-1.22,1.5-.68,3.8-2.34,5.1,0,0,.06.22.13.31.48.69,0,.94-.53,1.2a8,8,0,0,0-2.81,2.69,13.92,13.92,0,0,1-2.12,2.84,14.71,14.71,0,0,0-3.62,4.09l0,0c-2,0-2,2.08-3,3.07-2,1.93-4.51,3.57-5.28,6.55-.46,1.83-1.14,3.61.22,5.35v.11l.11,0A3.9,3.9,0,0,0,30,88.44c0,.33.26.4.53.42l.2.28,0,.08c1.82,1.64,3.45,3.57,6.06,4l0,0a1,1,0,0,0,.78.67h0a4.57,4.57,0,0,0,.81,1.38,3.61,3.61,0,0,1,1.35,3.43c-.07,1-.33,2.29.72,3.14l0,.74c-.51.42-.49.92-.52,1.56-.13,2.47,0,4.92-.19,7.4-.35,3.62-.27,7.29,1.71,10.58l.17.3c0,.35.11.7.6.66Z"></path><path class="cls-2" d="M144.84,74.38v.41c-1.17,1.21-1.24,2.81-1.42,4.32a14.64,14.64,0,0,1-2,6.08c-.74,1.19-.45,2.85-1.65,3.57-1,.61-.67,2.29-2.19,2.41-.29,0-.32.68.1,1a2.12,2.12,0,0,1,.67,1.43l-.49,1c-1.06.18-1.21,1.22-1.75,1.88-.87,1.08-.74,1.93.62,2.46l.12.4a3.52,3.52,0,0,0,1.37,2.58c.48.49,1.09.89,1.19,1.7a2.42,2.42,0,0,0,2.38,2.19c.43.33,1,.53,1.21,1.08a1,1,0,0,0,1.09,1.07h0a3,3,0,0,0,2.09,2.92l.09,0,0,.09.29.23.08,0c1,2.5,2.93,4.33,4.57,6.36.88,1.09,1.16,4.79,0,5.26-1.7.69-1.66,2.15-2.06,3.46l0,0c-.74,0-1.5-.07-1.43,1l0,0c-.79,0-1.65-.06-1.77,1.07v0c-1.13.81-3.5-.21-3.45,2.33-2.11.54-2.71,2.83-4.44,3.8a1.12,1.12,0,0,0-.66,1.32l-.25.21c-.72-.25-1.33.23-2.29.17-.15,0,0,.08.12.09.38,0,0-.2.1-.29l-.37-.23c0,.09-.08.18.15.43.27.48.3.83,0,1.12a12.87,12.87,0,0,1-5.75,3.34c-.28.07-.57,0-.63.45-.31,2.24-1.31,3.09-3.33,2.62-1-.24-1.39,0-1.59,1s-1.81,2-2.69,1.48a1.92,1.92,0,0,0-2.57.3c-.79.74-1.41,1.65-.83,2.84-.05.22-.16.35-.41.3-1.28-.41-2.32.95-3.57.54s-1.81.39-2.7.68c-1.94.64-.83,1.72-.94,2.64a.2.2,0,0,1-.27.15c-.53.06-1.1-.69-1.6.11-1.12,1.81-3.36.76-4.86,1.82-.37.26-1.24.21-1.47.85-.35,1-1.1,1.14-2,1.16a5.1,5.1,0,0,0-2.57.5,2.59,2.59,0,0,1-3.46-1.29c-.41-.75-.49-1.72-1.41-2.13l0,0c0-.71-.16-1.29-1-1.39a.21.21,0,0,1-.14-.27,2.06,2.06,0,0,0-1.67-1.9l-.11-.34c-.16-2.41-1.49-4.2-3.24-4.35h0c-.14-.85-.66-.74-1.24-.51l0,0c0-1.5-1-2.28-2.07-3l-.6-.21v-.56c-.14-.87.6-1.84-.33-2.63-1.36-1.15-2.68-2.32-4-3.49h0c.1-.48-.19-1.09.44-1.39.33-.16.7-.31.56-.74s-.57-.14-.88-.16a9.92,9.92,0,0,1-1.18-.25h0a4.62,4.62,0,0,0-1.19-3.17c-.88-1.31-1.29-3.08-2-4.61-.22-.47-.26-.92-.92-.72l.11-.07-.11.06a7,7,0,0,0,.07-1.58,1.23,1.23,0,0,0-1.11-1c-.65-.05-.94.41-1,1h0c-2.38.67-4.54,2.65-7.29,1.26a2.4,2.4,0,0,1-.17.27c-1.24,1.28-2.78,1.34-4.31.12-.22,1.15-.32,2.42-1.82.78-.35-.38-1.36-1.64-2.2-.37-1,1.48-2,1.33-3.51.81-.52-.18-1.08-1.14-1.67-.55a1.63,1.63,0,0,1-2.36,0c-.75-1.52-1.86-.75-2.86-.75A2.71,2.71,0,0,1,43,123.8a.64.64,0,0,0-.64-.66l-.09,0a.62.62,0,0,0-.6-.66l-.17-.3c-.67-1.51,0-3.2-.89-4.81-.69-1.2,0-2.93-.42-4.42-.15-.54.63-.41.88-.66.61-.6,1.77-1,.64-2.29A4.63,4.63,0,0,1,41,106.9c.06-1.45.74-3-.48-4.29l0-.74c.91,0,1.34-.17.47-1.06s-.87-2.27-.13-2.66c1.68-.88,1-1.05-.14-1.45-.46-.17-.68-.63-1-1-.56-.75-1-1.6-2.11-1.77h0a.63.63,0,0,0-.78-.67l0,0c-.29-1.17,1.34-1.28,1.32-2.35a1.44,1.44,0,0,0-1.51.34c-.92,1.3-1.53.5-2.46,0-1.16-.65-1.84-2.11-3.41-2l0-.08a.47.47,0,0,0-.2-.28c-.27,0-.5-.09-.53-.42-.21-.42-.67-.88-.6-1.24.35-1.82-.8-1.64-1.92-1.58l-.11,0v-.11c0-.72,0-1.45.08-2.16a8.43,8.43,0,0,1,.46-2.9c1-2,1.54-4.17,4.17-4.61,0,0,0-.12.08-.16,1.63-1.37,1.87-3.61,3.24-5.14l0,0c2.19-.62,2.7-3.35,4.93-3.92,0,0,0-.11,0-.17,0-1.25.86-1.42,1.86-1.34.47,1.31,1.06,2.6.38,4l-.34.33c-.45,0-.74.16-.77.65l-.41.77c-1.38.11-1.31,1.36-1.72,2.22h0c-.79,0-1.23.34-.94,1.21l0,0c-1.11-.35-1.21.4-1.27,1.19l-.06,0c-1.24-.3-2.11-.31-2.21,1.44a5.38,5.38,0,0,1-1.31,2.9,3.25,3.25,0,0,0-.76,2.5l0,0c-1,.37-.74,1.52-1.33,2.15-.06.06.16.38.24.58,1.26-1.21,2,.72,3.16.47H35l0,.09c.15,1.52,1.45,1.47,2.46,1.79a.27.27,0,0,1,.1.29c0,.44-.24,1,.22,1.28s.68-.22.86-.57c.41.07.83.12,1,.56,0,.9.48,1.08,1.25.83l-.09.09.09-.09c0,1-1.61,2.88,1.29,2.08.45-.12.61.45.84.78s.11,1.12.81,1.26l.17,1.43c.07,1.27-.35,2.5.17,3.82a5.16,5.16,0,0,1,0,4c-.87,1.76-.25,3.24.25,4.82a8.16,8.16,0,0,1,.35,3.22v.41a.18.18,0,0,1,0,.27l.14.4.24.73c-.59,1-.75,2,.23,2.86a1.28,1.28,0,0,1,.44,1.11c0,1.58.63,2.49,2.28,2.57.28,0,.75.12.79.28.49,1.92,2,1,3.11,1.11,1.27.13,2.59.15,3.59-.92l.42-.11h.24l.77,0c1.28.8,2.59-.07,3.9.07,1.58.16,2.94-1,4.48-1A3.21,3.21,0,0,0,68.65,117c.39-.48.95-.3,1.44-.37.8,1.3,1.36.88,1.82-.25.58-.25,1,.27,1.43.4a6.11,6.11,0,0,0,3.3,3.08v0a.64.64,0,0,0,.65.79l0,0c.08.7-.21,1.48.27,2.09,1.46,1.84,2.4,4,3.69,5.94.69,1,.55,2.58,1.94,3.14A3.49,3.49,0,0,1,84.57,134c-.54.42-.32.63.21.74.75,0,1.07.47,1.19,1.14a.24.24,0,0,0,.09.23l.29.44c.49,1.22.31,2.89,2.14,3.24,1.74.76,2.62,2.46,4,3.62-.68,2.4-.68,2.4,1.63,2.57h.12v.12a18.21,18.21,0,0,1,.66,2.59c.08.7,1.06,1.15.58,1.94s-.84,1.62-.17,1.88c.9.35,2,1,3,.3.72-.51,1.2-1,1.85,0a.91.91,0,0,0,1.3.16c.6-.52-.12-.75-.42-1s-.25-.66-.28-1a.62.62,0,0,1,.72-.37c2,.12,3.85-1,5.89-.51.36.09.86-.66,0-.87-1.55-.39.09-.92-.11-1.35a3.67,3.67,0,0,1,1.58-.95c.59.09,1.19.23,1.3-.64h0c.91-.32,2.26.21,2.54-1.32l.49-.09c.71,0,1.25-.25,1.32-1.06a2.84,2.84,0,0,1,1.73-.8,1,1,0,0,0,1.15-1l.6-.15a1,1,0,0,0,1.21-.91l.33-.14a3.48,3.48,0,0,0,3.28-2.49v0c1.26-.82,2.26.2,3.75.81-1.66-2.16.11-2.72,1-3.74,1.2-1.44,3.56-1.74,3.93-4a.48.48,0,0,1,.56-.37c.42.08.78,0,.92-.45l.8-.56c1-.14,1.11-.94,1.36-1.66l.44-.13a2.07,2.07,0,0,0,1.68-1.89l0,0c1.33-.37,3.56.59,3.25-2.2v0c1.6-.24,2.48-1.63,3.79-2.35,1.65-.92,1.74-1.69.34-2.89-.55-.47-1-1.22-1.9-1.2h0c-.05-1.89-1.37-2.65-2.87-3.26-.36-.13-.71-.28-.73-.74l-.21-.32-.51-.54c.15-.54.4-1-.28-1.51-1.85-1.52-3.65-3.07-4-5.73a2.55,2.55,0,0,0-2.62-2l-.05-.11c.25-.79-.35-1.19-.76-1.69a3.85,3.85,0,0,1-1-3.62c.54-1.44-.15-1.39-1.07-1.46a1.3,1.3,0,0,1,.43-1.07c.66,0,.7-.49.68-1l.42-.46c1.52-.44,1-1.85,1.39-2.84l.52-1.13c2.46-.62.9-3.64,2.78-4.69.58-.31-.05-.94-.26-1.39A1.9,1.9,0,0,1,135,83a.33.33,0,0,0,.11-.27v0a2.6,2.6,0,0,0,.71-3.25c-.22-.8.38-1.26.75-1.81.5-.07.87-.2.32-.73a.7.7,0,0,1,.25-.76.3.3,0,0,0,.12-.3l.13-.37c.5-.11.75-.29.24-.73l.15-.71c.74-.44,1.24-1,.54-1.83l.06-1.07c1.42-.57,1.62-1.59,1.06-2.89v-.73c.28-.94,1.48-1.73.46-2.89a.59.59,0,0,1,.09-.75l.13-.36a1,1,0,0,1,.28-1c.46-.19.94.53,1.55-.15-1.18-.25-.3-1.66-1.32-2l-.18-.59-.14-.47-.13-.75a2.72,2.72,0,0,0,.28-2.39c-.36-2.12,0-4.35-1.14-6.38-.37-.67.35-2-1.29-1.7l0-.72c.51-.51.15-.64-.31-.72l-.09-.32-.11-.35c-.37-.57-1.08-1-1-1.77s.38-1.87-1-2a.6.6,0,0,1-.58-.58c.21-1.92-1-1-1.77-.9l-.08-.08c.69-1.09.73-1.82-.9-1.59l-1.72-1.51c-.64-3-3.44-3.62-5.58-5h-.14l-.06-.13a3.58,3.58,0,0,0-3.33-2.08l-.63-.2a7.64,7.64,0,0,0-4.94-3.35l-1.21-.52c-.41-2.21-.41-2.21-2.16-1a1.7,1.7,0,0,1-1.44-.76c-.07-.16-.12-.46-.2-.47-1.87-.15-3.09-2.32-5.23-1.69-.27.08-.64-.26-1-.36-2-.57-4-1.59-5.9.06l-.71,0c-.89-.91-1.46-2.25-3.26-1.18-1.19.7-2,0-1.6-1.69-2.83,2-6,2.08-9,2.44a25.55,25.55,0,0,0-4.29,1.19c-.64.18-.59.66-.56,1.15a.21.21,0,0,1-.12.29c-.53,0-1,.05-1,.75-.14.34-.43.37-.74.34l-.33.19a.65.65,0,0,1-.74.17c-1.23.22-2.84-1.07-3.62.91-.33.25-.54.73-1.09.51-.44-.51-.61-.22-.72.25l-.42.11-.61.15-.7.26c-1.59,0-2.72.49-2.74,2.32l0,0c-.58-.27-.83,0-.87.55l-.32.34c-1.49-.44-1.94.86-2.64,1.63-1.19,1.28-2.94,2.16-3.18,4.17l-.36.32c-1.53.65-1.58,2.77-3.26,3.28-.11,0-.23.32-.21.47.32,1.88-1,3.58-.56,5.49A2.6,2.6,0,0,1,54,49c-.69.65-1,1.65.24,2.29v.74a.74.74,0,0,0,0,.33v0c-1.41,0-.69,1.15-.82,1.74C52.74,57,50.44,59,49.89,61.83l-.36.68c-.47,0-.75.23-.74.73h0c-.84,0-1.81-.1-1.17,1.27l-.11.08c-.76-.43-.86.06-.9.65l-.34.17c-1.36.2-2.64-.36-4-.37-.57-1.42-.19-2.77,1.32-2.78,2,0,2-1,1.94-2.44-.06-1.2.05-2.31,1.76-2.13.48.05.57-.35.65-.84.19-1.19-.85-1.72-1.21-2.61l0-.75c.43-.1.51-.41.56-.8.18-1.59.31-3.2.61-4.77.88-4.56,2.75-8.82,4.27-13.18a2.29,2.29,0,0,1,.58-.89,13,13,0,0,0,3.52-5.76l.42-.24a8.87,8.87,0,0,0,6.13-4.79l1.65-.69c.47.07.81-.06.89-.59l.46-.4c.39,0,.83,0,1-.49l.38-.26c1.49-.05,3.76-1,6.2-2.07a45,45,0,0,1,8-2.86c1.65-.37,3.54-1.38,5.29,0a.36.36,0,0,0,.58-.21c.41-1.7,1.62-.93,2.59-.84.66.06,1.42.61,1.81-.44a1.2,1.2,0,0,1,1.09,0c.63,1.29,1.61.19,2.36.23,2.77.16,5.32,1.4,8.2,1.18A21,21,0,0,1,110,16.76c.72.19,2.56,0,1.83,2-.2.54.73,1,1.11.58,1.35-1.42,2.34-.31,3.57.2s1.82,1.87,3,2.12c1.5.33,2.46,1.45,3.77,2a1.22,1.22,0,0,1,.61,1.93c-1.21,1.32-1.06,2.35.27,3.38,1.13-1.22,1.13-1.22,2.58-.76.27.09.63.3.83.2,2.37-1.12,3.68.31,5,1.93a3.42,3.42,0,0,0,2.14,1.51h0c-.07.73.19,1.16,1,1.09l.48.63c0,.54.23.81.79.76a.18.18,0,0,1,.26.1c.58.74.11,2.11,1.08,2.46a3.42,3.42,0,0,1,2.36,2.39,1.76,1.76,0,0,0,1.62,1.23h0c0,1.48,1,2.37,1.95,3.26l.17.73c-.49.46-.43.84.18,1.12h.13l.05.13a22.34,22.34,0,0,0,.45,3.18c.42,1.45.62,3,1.61,4.23v.71c-.78.35-.81.71,0,1.1l.08.73-.56.37c1,1.4,0,3.25,1,4.66l-.11,1.11a2,2,0,0,0-1.05,2c.4,2.43-.32,4.72-.9,7A7.07,7.07,0,0,0,144.84,74.38ZM82,135.1c.14-.13.47-.21.14-.47l-.14.47-.08.15ZM135.45,95c-.26.06-.57.07-.53.46a.15.15,0,0,0,.11.11c.39,0,.4-.27.45-.53l.14-.17Zm12.38,29.43c-.26-.7-.19-1.64-1.39-2C146.73,123.37,146.94,124.1,147.83,124.42ZM85.48,17.16c-.33,0-.49.1-.43.27a.83.83,0,0,0,.39.5.27.27,0,0,0,.39-.34C85.78,17.4,85.57,17.26,85.48,17.16Zm57.08,26c-.36-.06-.5.09-.45.25a.94.94,0,0,0,.39.5.27.27,0,0,0,.39-.34C142.84,43.4,142.62,43.26,142.56,43.18ZM49.15,57.93c-.14-.12-.26-.3-.37-.28a.42.42,0,0,0-.28.31c0,.23.08.46.37.39C49,58.32,49,58.1,49.15,57.93Zm-6.44,56.94c-.1.16-.26.31-.23.4a.47.47,0,0,0,.35.27c.25,0,.45-.15.34-.42C43.13,115,42.91,115,42.71,114.87Zm3.81,7.51c0,.41-.05.61-.05.81s.18.3.32.16a.59.59,0,0,0,.13-.45C46.9,122.77,46.75,122.67,46.52,122.38Zm54.86,32.32c0-.11,0-.26-.12-.29s-.2.06-.3.1.05.26.12.29S101.28,154.73,101.38,154.7Zm32.15-21.14c-.1,0-.23-.14-.3-.11s-.09.18-.13.28.22.14.29.11S133.48,133.66,133.53,133.56Zm11.55-22c-.1-.05-.22-.14-.29-.12s-.09.19-.13.29.22.14.29.11S145,111.64,145.08,111.54ZM94.87,15.46l-.31-.13c0,.1-.14.23-.11.3s.18.09.29.14A2.88,2.88,0,0,1,94.87,15.46ZM83.72,17.15c0,.1-.14.22-.12.29s.19.09.29.14.14-.22.11-.29S83.82,17.19,83.72,17.15Zm19.87.37-.13.3c.1,0,.22.14.29.11s.09-.18.13-.28ZM140,108.83c0-.1-.05-.25-.12-.28s-.2.06-.3.1.06.25.13.29S139.92,108.87,140,108.83Zm-11.18,29.56c-.05-.09-.07-.23-.14-.25s-.18.05-.28.08l.18.34Zm-83.4-75c0,.1-.15.22-.12.3s.19.09.29.13.14-.22.11-.29S45.54,63.42,45.44,63.37Zm98.2-.95c-.1,0-.22-.14-.29-.11s-.1.18-.14.28.22.14.29.12S143.6,62.52,143.64,62.42ZM46.4,59.72c.1,0,.22.14.29.11a.28.28,0,0,0,.12-.27.29.29,0,0,0-.27-.12C46.46,59.47,46.44,59.62,46.4,59.72ZM77.57,18.24c0,.1-.14.23-.11.3s.19.09.29.13.14-.22.11-.29S77.68,18.29,77.57,18.24Zm-38,52.12-.3-.14c0,.11-.14.23-.11.3s.2.15.28.12S39.56,70.46,39.6,70.36ZM51.91,55.19c-.1,0-.23-.14-.3-.11s-.09.19-.14.29c.1,0,.23.14.3.11S51.86,55.3,51.91,55.19ZM144,54.48c-.1,0-.22-.14-.29-.11s-.1.18-.14.28.22.14.29.11S144,54.58,144,54.48Zm-50.56,92.8c-.1,0-.22-.14-.3-.11s-.09.19-.13.29.22.14.29.11S93.4,147.38,93.44,147.28ZM50.82,53.22c0-.1-.06-.26-.13-.29s-.19.06-.3.1.06.26.13.29S50.72,53.26,50.82,53.22ZM75.65,20c.1,0,.23.14.3.11s.1-.18.14-.29-.22-.14-.29-.11S75.7,19.89,75.65,20Zm44.13,125.11-.3-.13c0,.1-.14.22-.11.29s.18.1.28.14S119.74,145.21,119.78,145.11ZM43.24,101.6c0-.1-.05-.23-.12-.27s-.18,0-.28,0l.14.36Zm88.15-68.2c0,.1-.14.23-.12.3a.32.32,0,0,0,.29.12.3.3,0,0,0,.12-.28C131.65,33.47,131.49,33.45,131.39,33.4Zm5.66,98.9c.1,0,.22.15.29.12s.1-.19.14-.29-.22-.14-.29-.11S137.09,132.2,137.05,132.3Zm-6.91,2.3c0-.1.14-.22.11-.29s-.18-.09-.28-.13-.14.22-.12.29S130,134.56,130.14,134.6ZM111.49,22c-.1,0-.22-.15-.3-.12s-.09.19-.13.29.22.14.29.12S111.45,22.07,111.49,22Zm.69,127c0-.11.13-.2.13-.29s-.09-.17-.14-.26c0,.09-.14.18-.14.27S112.12,148.82,112.18,148.92ZM58.45,123.6a.66.66,0,0,0-.05-.15s-.09,0-.13,0a.38.38,0,0,0,0,.15S58.4,123.62,58.45,123.6ZM42.56,105.1l-.08-.11-.1.09.14.14Z"></path><path class="cls-3" d="M134.74,31.82a3.42,3.42,0,0,1-2.14-1.51c-1.33-1.62-2.64-3-5-1.93-.2.1-.56-.11-.83-.2-1.45-.46-1.45-.46-2.58.76-1.33-1-1.48-2.06-.27-3.38a1.22,1.22,0,0,0-.61-1.93c-1.31-.56-2.27-1.68-3.77-2-1.16-.25-1.75-1.63-3-2.12s-2.22-1.62-3.57-.2c-.38.39-1.31,0-1.11-.58.73-2-1.11-1.77-1.83-2a21,21,0,0,0-6.64-1.07c-2.88.22-5.43-1-8.2-1.18-.75,0-1.73,1.06-2.36-.23a18.84,18.84,0,0,1,5.69.23,25.47,25.47,0,0,0,6.79.78c2.86-.2,5.23.95,7.63,2.09a8.69,8.69,0,0,0,1.44.62c3.77.94,6.72,3.35,9.78,5.53,2.47,1.76,4.64,3.92,7.58,5C133.1,29.1,133.81,30.66,134.74,31.82Z"></path><path class="cls-3" d="M44.26,125.06c1,0,2.11-.77,2.86.75a1.63,1.63,0,0,0,2.36,0c.59-.59,1.15.37,1.67.55,1.49.52,2.53.67,3.51-.81.84-1.27,1.85,0,2.2.37,1.5,1.64,1.6.37,1.82-.78,1.53,1.22,3.07,1.16,4.31-.12a2.4,2.4,0,0,0,.17-.27c2.75,1.39,4.91-.59,7.29-1.26-1.2,2-3.3,2.18-5.3,2.58a101.46,101.46,0,0,1-10.84,1.73c-2.21.18-4.05-1.25-6.2-1A4.52,4.52,0,0,1,44.26,125.06Z"></path><path class="cls-3" d="M117.43,149.6c-.58-1.19,0-2.1.83-2.84a1.92,1.92,0,0,1,2.57-.3c.88.55,2.48-.38,2.69-1.48s.54-1.27,1.59-1c2,.47,3-.38,3.33-2.62.06-.42.35-.38.63-.45a12.87,12.87,0,0,0,5.75-3.34,1.26,1.26,0,0,0,.28-1c.68-.06,1.29-.54,2-.29-2.29,2-4.52,4-6.94,5.8s-5,3.34-7.37,5.11a1.54,1.54,0,0,1-1.11.45C119.8,147.29,118.76,148.75,117.43,149.6Z"></path><path class="cls-3" d="M56.33,28.09a13,13,0,0,1-3.52,5.76,2.29,2.29,0,0,0-.58.89C50.71,39.1,48.84,43.36,48,47.92c-.3,1.57-.43,3.18-.61,4.77-.05.39-.13.7-.56.8a32.14,32.14,0,0,1,1.12-8.2c.87-2.85,1.77-5.73,2.8-8.5C51.91,33.55,52.94,30,56.33,28.09Z"></path><path class="cls-3" d="M42.29,65c-1-.08-1.82.09-1.86,1.34,0,.06,0,.16,0,.17-2.23.57-2.74,3.3-4.93,3.92a14.71,14.71,0,0,1,3.62-4.09,13.92,13.92,0,0,0,2.12-2.84A8,8,0,0,1,44,60.85c.54-.26,1-.51.53-1.2-.07-.09-.16-.29-.13-.31,1.66-1.3,1.12-3.6,2.34-5.1.36.89,1.4,1.42,1.21,2.61-.08.49-.17.89-.65.84-1.71-.18-1.82.93-1.76,2.13.07,1.42.09,2.43-1.94,2.44-1.51,0-1.89,1.36-1.32,2.78Z"></path><path class="cls-3" d="M91.75,14.23c-.39,1-1.15.5-1.81.44-1-.09-2.18-.86-2.59.84a.36.36,0,0,1-.58.21c-1.75-1.4-3.64-.39-5.29,0a45,45,0,0,0-8,2.86c-2.44,1.08-4.71,2-6.2,2.07,2.49-1.59,5.31-2.42,8-3.57a54.42,54.42,0,0,1,7.1-2.31c2.12-.58,4.48-.57,6.71-1A2.8,2.8,0,0,1,91.75,14.23Z"></path><path class="cls-3" d="M40.54,102.61c1.22,1.31.54,2.84.48,4.29a4.63,4.63,0,0,0,.73,3.07c1.13,1.31,0,1.69-.64,2.29-.25.25-1,.12-.88.66.41,1.49-.27,3.22.42,4.42.92,1.61.22,3.3.89,4.81-2-3.29-2.06-7-1.71-10.58.24-2.48.06-4.93.19-7.4C40.05,103.53,40,103,40.54,102.61Z"></path><path class="cls-3" d="M138.39,93.65a2.12,2.12,0,0,0-.67-1.43c-.42-.37-.39-1-.1-1,1.52-.12,1.17-1.8,2.19-2.41,1.2-.72.91-2.38,1.65-3.57a14.64,14.64,0,0,0,2-6.08c.18-1.51.25-3.11,1.42-4.32-.6,3.86-1.22,7.78-2.81,11.33C140.91,88.65,140.06,91.37,138.39,93.65Z"></path><path class="cls-3" d="M92.19,154.93c.92.41,1,1.38,1.41,2.13a2.59,2.59,0,0,0,3.46,1.29,5.1,5.1,0,0,1,2.57-.5c.88,0,1.63-.16,2-1.16.23-.64,1.1-.59,1.47-.85,1.5-1.06,3.74,0,4.86-1.82.5-.8,1.07-.05,1.6-.11a10,10,0,0,1-4.8,2.53c-.8.2-1.12.8-1.73,1.12-2.09,1.12-4.44,1.25-6.66,1.82-1.48.39-3.15-1-3.69-2.73C92.48,156.09,92.34,155.51,92.19,154.93Z"></path><path class="cls-3" d="M149.17,126.39c.4-1.31.36-2.77,2.06-3.46,1.14-.47.86-4.17,0-5.26-1.64-2-3.57-3.86-4.57-6.36a28.18,28.18,0,0,1,6.5,7.77c.68,1.12.09,2.84-.75,4A31.56,31.56,0,0,1,149.17,126.39Z"></path><path class="cls-3" d="M35.44,70.5c-1.37,1.53-1.61,3.77-3.24,5.14,0,0,0,.15-.08.16-2.63.44-3.21,2.59-4.17,4.61a8.43,8.43,0,0,0-.46,2.9c-.09.71-.06,1.44-.08,2.16-1.36-1.74-.68-3.52-.22-5.35.77-3,3.31-4.62,5.28-6.55C33.48,72.58,33.46,70.49,35.44,70.5Z"></path><path class="cls-3" d="M137.36,136a1.12,1.12,0,0,1,.66-1.32c1.73-1,2.33-3.26,4.44-3.8-.05-2.54,2.32-1.52,3.45-2.33C143.19,131.23,140.87,134.32,137.36,136Z"></path><path class="cls-3" d="M109.81,153.76c.11-.92-1-2,.94-2.64.89-.29,1.57-1.06,2.7-.68s2.29-.95,3.57-.54A60.81,60.81,0,0,1,109.81,153.76Z"></path><path class="cls-3" d="M144.84,74.38a7.07,7.07,0,0,1,.46-3.6c.58-2.25,1.3-4.54.9-7a2,2,0,0,1,1.05-2c.47,1.18.08,2.34-.07,3.51A45.52,45.52,0,0,1,144.84,74.38Z"></path><path class="cls-3" d="M37.61,93.92c1.06.17,1.55,1,2.11,1.77.29.38.51.84,1,1,1.12.4,1.82.57.14,1.45-.74.39-.68,1.84.13,2.66s.44,1-.47,1.06c-1.05-.85-.79-2.12-.72-3.14a3.61,3.61,0,0,0-1.35-3.43A4.57,4.57,0,0,1,37.61,93.92Z"></path><path class="cls-3" d="M72.47,125.14c.66-.2.7.25.92.72.73,1.53,1.14,3.3,2,4.61a4.62,4.62,0,0,1,1.19,3.17c-.85.06-1.14-.67-1.35-1.19C74.26,130,73.38,127.58,72.47,125.14Z"></path><path class="cls-3" d="M62.88,23.06a8.87,8.87,0,0,1-6.13,4.79A18.48,18.48,0,0,1,62.88,23.06Z"></path><path class="cls-3" d="M30.78,89.22c1.57-.1,2.25,1.36,3.41,2,.93.52,1.54,1.32,2.46,0a1.44,1.44,0,0,1,1.51-.34c0,1.07-1.61,1.18-1.32,2.35C34.23,92.79,32.6,90.86,30.78,89.22Z"></path><path class="cls-3" d="M141.83,105.86a2.42,2.42,0,0,1-2.38-2.19c-.1-.81-.71-1.21-1.19-1.7a3.52,3.52,0,0,1-1.37-2.58c1.24.28,1.51,1.43,2.07,2.3C139.88,103.11,141.17,104.27,141.83,105.86Z"></path><path class="cls-3" d="M77.67,136.19c1.34,1.17,2.66,2.34,4,3.49.93.79.19,1.76.33,2.63-.28-.13-.72-.19-.79-.39C80.45,139.75,78.66,138.22,77.67,136.19Z"></path><path class="cls-3" d="M142.33,40.48a1.76,1.76,0,0,1-1.62-1.23,3.42,3.42,0,0,0-2.36-2.39c-1-.35-.5-1.72-1.08-2.46,1.5,1,2.5,2.44,3.72,3.69A10.26,10.26,0,0,1,142.33,40.48Z"></path><path class="cls-3" d="M146.87,53.13c-1-1.24-1.19-2.78-1.61-4.23a22.34,22.34,0,0,1-.45-3.18A22.25,22.25,0,0,1,146.87,53.13Z"></path><path class="cls-3" d="M86,146.65c1.75.15,3.08,1.94,3.24,4.35a4.65,4.65,0,0,1-1.41-2.4C87.7,147.63,86.45,147.46,86,146.65Z"></path><path class="cls-3" d="M147.36,60.7c-1-1.41,0-3.26-1-4.66l.56-.37C147.44,57.31,148.23,58.93,147.36,60.7Z"></path><path class="cls-3" d="M27.51,85.62c1.12-.06,2.27-.24,1.92,1.58-.07.36.39.82.6,1.24A3.9,3.9,0,0,1,27.51,85.62Z"></path><path class="cls-3" d="M136.77,99c-1.36-.53-1.49-1.38-.62-2.46.54-.66.69-1.7,1.75-1.88C137.24,96,136.06,97.26,136.77,99Z"></path><path class="cls-3" d="M146.22,110.93a3,3,0,0,1-2.09-2.92C145.18,108.74,146.13,109.52,146.22,110.93Z"></path><path class="cls-3" d="M76.61,133.65a9.92,9.92,0,0,0,1.18.25c.31,0,.71-.34.88.16s-.23.58-.56.74c-.63.3-.34.91-.44,1.39C76.85,135.54,77,134.46,76.61,133.65Z"></path><path class="cls-3" d="M144.28,43.74c-1-.89-2-1.78-1.95-3.26C143.66,41.16,143.82,42.54,144.28,43.74Z"></path><path class="cls-3" d="M70.46,123.54c0-.62.32-1.08,1-1a1.23,1.23,0,0,1,1.11,1,7,7,0,0,1-.07,1.58c-.15-.17-.44-.36-.42-.53C72.16,123.25,71.49,123.15,70.46,123.54Z"></path><path class="cls-3" d="M82.63,143.08c1.09.74,2.1,1.52,2.07,3A4.46,4.46,0,0,1,82.63,143.08Z"></path><path class="cls-3" d="M89.34,151.34a2.06,2.06,0,0,1,1.67,1.9C90.38,152.67,89.36,152.44,89.34,151.34Z"></path><path class="cls-3" d="M145.92,128.56c.12-1.13,1-1,1.77-1.07A2.45,2.45,0,0,1,145.92,128.56Z"></path><path class="cls-3" d="M147.72,127.46c-.07-1.11.69-1.06,1.43-1C149,127.23,148.27,127.21,147.72,127.46Z"></path><path class="cls-3" d="M91.15,153.51c.84.1,1,.68,1,1.39A1.44,1.44,0,0,1,91.15,153.51Z"></path><path class="cls-3" d="M144.13,108a1,1,0,0,1-1.09-1.07C143.58,107.13,144,107.38,144.13,108Z"></path><path class="cls-3" d="M146.84,54.94c-.79-.39-.76-.75,0-1.1Z"></path><path class="cls-3" d="M84.75,146.13c.58-.23,1.1-.34,1.24.51C85.55,146.54,85.05,146.57,84.75,146.13Z"></path><path class="cls-3" d="M135.74,32.91c-.81.07-1.07-.36-1-1.09A2.13,2.13,0,0,1,135.74,32.91Z"></path><path class="cls-3" d="M144.63,45.59c-.61-.28-.67-.66-.18-1.12C144.88,44.78,144.4,45.24,144.63,45.59Z"></path><path class="cls-3" d="M66.86,20.89c-.15.53-.59.46-1,.49C66,20.84,66.44,20.87,66.86,20.89Z"></path><path class="cls-3" d="M41.71,122.45a.62.62,0,0,1,.6.66C41.82,123.15,41.76,122.8,41.71,122.45Z"></path><path class="cls-3" d="M42.4,123.14a.64.64,0,0,1,.64.66C42.62,123.77,42.58,123.39,42.4,123.14Z"></path><path class="cls-3" d="M137,34.3c-.56.05-.81-.22-.79-.76C136.67,33.61,136.83,34,137,34.3Z"></path><path class="cls-3" d="M65.42,21.78c-.08.53-.42.66-.89.59C64.67,21.94,65.05,21.87,65.42,21.78Z"></path><path class="cls-3" d="M36.82,93.24a.63.63,0,0,1,.78.67A1,1,0,0,1,36.82,93.24Z"></path><path class="cls-3" d="M82,142.74v.13l-.12-.11Z"></path><path class="cls-3" d="M30.56,88.86a.47.47,0,0,1,.2.28Z"></path><path class="cls-3" d="M146.56,111.29l-.29-.23Z"></path><path class="cls-1" d="M97.91,22l.71,0a109.24,109.24,0,0,1,12.3,2.46,1.7,1.7,0,0,0,1.44.76c.69.4,1.18,1.23,2.16,1l1.21.52c1.65,1.11,3,2.7,4.94,3.35l.63.2c.75,1.28,1.66,2.3,3.33,2.08l.06.13h.14a2.49,2.49,0,0,0,1.4,1.72A6.31,6.31,0,0,1,129.39,37a1,1,0,0,0,1,.55l1.72,1.51c.38.49.21,1.28.9,1.59l.08.08a17.32,17.32,0,0,0,3.4,3.44c-.08.82.63,1.2,1,1.77,0,0-.1.1-.09.12s.13.15.2.23l.09.32a.71.71,0,0,0,.31.72l0,.72c.49,2.26,1.77,4.27,1.85,6.68,0,1.25-.48,2.59.3,3.79l.13.75a.33.33,0,0,0,.14.47l.18.59-.23,2.19a1,1,0,0,0-.28,1l-.13.36a.59.59,0,0,0-.09.75,3.48,3.48,0,0,0-.46,2.89v.73c-.22,1-1.12,1.78-1.06,2.89l-.06,1.07a3.32,3.32,0,0,0-.54,1.83l-.15.71-.24.73-.13.37-.12.3a.7.7,0,0,0-.25.76.66.66,0,0,0-.32.73c-.37.55-1,1-.75,1.81-.22,1.08-.94,2.06-.71,3.25v0s-.12,0-.12,0a1.77,1.77,0,0,0,0,.23,1.9,1.9,0,0,0-.47,1.21c-1.68,1.68-2,3.93-2.52,6.08l-.52,1.13c-1.65.37-1.2,1.76-1.39,2.84l-.42.46a.94.94,0,0,0-.68,1,1.3,1.3,0,0,0-.43,1.07c-.37.18-.44.53-.51.89-.55,2.89,1.5,4.32,3.31,5.88l.05.11c1,2,1.95,4.17,3.6,5.76,1.16,1.12,1.45,3.07,3.33,3.46l.51.54.21.32c0,.46.37.61.73.74a6.57,6.57,0,0,0,2.87,3.26h0a9.17,9.17,0,0,0,.68,1c1.44,1.78,1.38,2-.54,3.4-.83.6-2,.8-2.37,2v0a4.68,4.68,0,0,0-3.25,2.2l0,0a2.17,2.17,0,0,0-1.68,1.89l-.44.13c-1,.12-1.21.85-1.36,1.66l-.8.56a.73.73,0,0,0-.92.45.48.48,0,0,0-.56.37c-3.09,1.79-5.36,4.67-8.49,6.42-.1.06-.09.33-.14.5v0a9.32,9.32,0,0,0-3.28,2.49l-.33.14a1.14,1.14,0,0,0-1.21.91l-.6.15a.92.92,0,0,0-1.15,1,2.84,2.84,0,0,0-1.73.8c-.7,0-1.3.19-1.32,1.06l-.49.09a5,5,0,0,0-2.54,1.32h0c-.44.2-1.08,0-1.3.64a3.67,3.67,0,0,0-1.58.95,17.59,17.59,0,0,0-5.79,2.73.62.62,0,0,0-.72.37,5.59,5.59,0,0,0-2.34.81c-.82.46-1.34.41-1.65-.71-.38-1.43-1.32-2.69-1.4-4.22-.05-.82-.62-.74-1.16-.75V146h-.12a2.92,2.92,0,0,0-1.63-2.57c-1.38-1.16-2.26-2.86-4-3.62a7.1,7.1,0,0,0-2.14-3.24l-.29-.44,0-.14-.13-.09c-.12-.67-.44-1.12-1.19-1.14-.07-.24.17-.58-.21-.74a3.49,3.49,0,0,0-1.37-2.14,2.21,2.21,0,0,0-.49-2.09,17.91,17.91,0,0,1-1.91-3.17c-1-2-1.8-4.26-3.5-5.91l0,0c-.1-.36-.13-.78-.65-.79v0c-.93-1.21-1.56-2.74-3.3-3.08-.48-.13-.85-.65-1.43-.4-.63,0-1.28-.28-1.82.25-.49.07-1-.11-1.44.37a16.83,16.83,0,0,0-1.89.47c-1,.35-1.88,1.15-2.79,1.11-2.43-.1-4.57,1-6.88,1.3l-.77,0c-.08-.17-.16-.22-.24,0l-.42.11c-1.07-.72-2.27.26-3.43-.36a7.29,7.29,0,0,0-4-.87,1.47,1.47,0,0,1-1.7-1.45,20.31,20.31,0,0,0-1.34-4.33l-.24-.73-.14-.4a.18.18,0,0,0,0-.27s.1-.09.1-.12a2.47,2.47,0,0,0-.1-.29,8.16,8.16,0,0,0-.35-3.22c.75-2.27.6-4.66.64-7,0-1.87.07-3.93-1-5.68l-.17-1.43c.1-2.15-1.64-3-2.94-4.12l-.09.09.09-.09c-.21-.6-.84-.55-1.25-.83-.2-.44-.62-.49-1-.56a1.12,1.12,0,0,0-1.08-.71.27.27,0,0,0-.1-.29,4.21,4.21,0,0,0-2.46-1.79l0-.09h-.11c-.65-1.09-1.81-1.85-2.07-3.2l0,0a3.23,3.23,0,0,0,1.06-1.55c.48-1,.82-2.38,1.65-2.88a2.81,2.81,0,0,0,1.57-2.41l.06,0c.71-.09,1-.65,1.27-1.19l0,0A2.18,2.18,0,0,0,39.45,73h0c.87-.51,1.73-1,1.72-2.22l.41-.77c.45,0,.75-.16.77-.65l.34-.33a15.4,15.4,0,0,0,3.6-3.65l.34-.17c.47,0,.65-.37.9-.65l.11-.08a3.11,3.11,0,0,0,1.17-1.27h0c.43-.06.77-.2.74-.73l.36-.68c.67-.35,1.7-.29,2-1,1-2.72,2.16-5.43,2.31-8.39v0a.79.79,0,0,0,.11-.08,1.89,1.89,0,0,0-.11-.25v-.74c.45-1.78,1.68-3.38,1.27-5.4a4.27,4.27,0,0,1,.87-3.21,21.7,21.7,0,0,0,2.59-5.46l.36-.32c2.22-1.65,3.88-3.87,5.82-5.8l.32-.34a1.17,1.17,0,0,0,.87-.55l0,0,2.74-2.32.7-.26a.46.46,0,0,0,.61-.15l.42-.11a.65.65,0,0,0,.72-.25c.55.22.76-.26,1.08-.51a5.88,5.88,0,0,0,3.63-.91.65.65,0,0,0,.74-.17l.33-.19c.31,0,.6,0,.74-.34a.82.82,0,0,0,1-.75.21.21,0,0,0,.12-.29c1.5-1.8,3.78-1.08,5.63-1.52C89.06,21.42,93.51,21.66,97.91,22Zm21.42,47.74a5.68,5.68,0,0,0,2.82.42A31.49,31.49,0,0,0,128,68.28c4.86-2.23,6-9.31,4.16-13.2a4.65,4.65,0,0,1-.13-4.47c2.93-5.63-2.95-11.42-7.84-11-1.73.16-1.87-.43-2-1.74a10.45,10.45,0,0,0-7.76-9.6c-3.9-1.09-7.83-1.52-11.7.37-1.26.61-2.62,1.11-3.61-.71a5.55,5.55,0,0,0-1.85-1.65c-2.8-1.81-5.74-1.71-8.93-1.45S83,26.79,80.67,28.3c-1.07.69-1.18,2.77-2.13,3.26s-2.57-.46-4-.29c-.35,0-.7.15-1,.16a8.35,8.35,0,0,0-7.44,5,11.15,11.15,0,0,0-1.46,4c-.09.91.69,1.47.64,2.37A6.55,6.55,0,0,0,70,49.58c.59.21.92.34.54,1.12A30.25,30.25,0,0,0,69,56c-1.12,4.17,2.71,9.51,7.41,9.8a14.15,14.15,0,0,0,5.48-.57c1.76-.61,2.34.19,3.07,1.44A7.91,7.91,0,0,0,91,70.28c2,.26,4.08-.66,6.07-1.28.44-.14,1-.59,1.29-.07a1.91,1.91,0,0,1,.39,1.63c-1,4-3.2,7.42-4.84,11.1s-.57,7.14,2.76,9a70.6,70.6,0,0,0,8,3.84c1.7.7,4.73,0,5.43-1.53a31.09,31.09,0,0,1,1.22-2.91c1.59-2.81,2.81-5.84,4.32-8.7C117.57,77.77,119.49,74.19,119.33,69.77Z"></path><path class="cls-3" d="M97.91,22c-4.4-.37-8.85-.61-13.13.39-1.85.44-4.13-.28-5.63,1.52,0-.49-.08-1,.56-1.15A25.55,25.55,0,0,1,84,21.6c3-.36,6.22-.44,9-2.44-.39,1.65.41,2.39,1.6,1.69C96.45,19.78,97,21.12,97.91,22Z"></path><path class="cls-3" d="M45.22,113.05a20.31,20.31,0,0,1,1.34,4.33,1.47,1.47,0,0,0,1.7,1.45,7.29,7.29,0,0,1,4,.87c1.16.62,2.36-.36,3.43.36-1,1.07-2.32,1-3.59.92-1.08-.11-2.62.81-3.11-1.11,0-.16-.51-.27-.79-.28-1.65-.08-2.33-1-2.28-2.57a1.28,1.28,0,0,0-.44-1.11C44.47,115.05,44.63,114.06,45.22,113.05Z"></path><path class="cls-3" d="M94.24,146.11c.54,0,1.11-.07,1.16.75.08,1.53,1,2.79,1.4,4.22.31,1.12.83,1.17,1.65.71a5.59,5.59,0,0,1,2.34-.81c0,.35,0,.72.28,1s1,.51.42,1a.91.91,0,0,1-1.3-.16c-.65-1-1.13-.55-1.85,0-1,.7-2.13.05-3-.3-.67-.26-.24-1.23.17-1.88s-.5-1.24-.58-1.94A18.21,18.21,0,0,0,94.24,146.11Z"></path><path class="cls-3" d="M138.36,112.91c-1.88-.39-2.17-2.34-3.33-3.46-1.65-1.59-2.58-3.73-3.6-5.76a2.55,2.55,0,0,1,2.62,2c.38,2.66,2.18,4.21,4,5.73C138.76,112,138.51,112.37,138.36,112.91Z"></path><path class="cls-3" d="M58.92,37.24a21.7,21.7,0,0,1-2.59,5.46,4.27,4.27,0,0,0-.87,3.21c.41,2-.82,3.62-1.27,5.4-1.27-.64-.93-1.64-.24-2.29a2.6,2.6,0,0,0,.94-2.54c-.41-1.91.88-3.61.56-5.49,0-.15.1-.44.21-.47C57.34,40,57.39,37.89,58.92,37.24Z"></path><path class="cls-3" d="M110.92,24.54a109.24,109.24,0,0,0-12.3-2.46c1.95-1.65,3.93-.63,5.9-.06.33.1.7.44,1,.36,2.14-.63,3.36,1.54,5.23,1.69C110.8,24.08,110.85,24.38,110.92,24.54Z"></path><path class="cls-3" d="M122.84,138.35c0-.17,0-.44.14-.5,3.13-1.75,5.4-4.63,8.49-6.42-.37,2.25-2.73,2.55-3.93,4-.84,1-2.61,1.58-1,3.74C125.1,138.55,124.1,137.53,122.84,138.35Z"></path><path class="cls-3" d="M57.09,119.92c2.31-.32,4.45-1.4,6.88-1.3.91,0,1.84-.76,2.79-1.11a16.83,16.83,0,0,1,1.89-.47A3.21,3.21,0,0,1,65.47,119c-1.54,0-2.9,1.17-4.48,1C59.68,119.85,58.37,120.72,57.09,119.92Z"></path><path class="cls-3" d="M54.19,52.4c-.15,3-1.29,5.67-2.31,8.39-.29.75-1.32.69-2,1,.55-2.83,2.85-4.87,3.48-7.69C53.5,53.55,52.78,52.42,54.19,52.4Z"></path><path class="cls-3" d="M44.09,95.37c1.1,1.75,1.06,3.81,1,5.68,0,2.31.11,4.7-.64,7-.5-1.58-1.12-3.06-.25-4.82a5.16,5.16,0,0,0,0-4C43.74,97.87,44.16,96.64,44.09,95.37Z"></path><path class="cls-3" d="M77.3,120.69c1.7,1.65,2.45,3.88,3.5,5.91a17.91,17.91,0,0,0,1.91,3.17,2.21,2.21,0,0,1,.49,2.09c-1.39-.56-1.25-2.11-1.94-3.14-1.29-1.93-2.23-4.1-3.69-5.94C77.09,122.17,77.38,121.39,77.3,120.69Z"></path><path class="cls-3" d="M131.38,103.58c-1.81-1.56-3.86-3-3.31-5.88.07-.36.14-.71.51-.89.92.07,1.61,0,1.07,1.46a3.85,3.85,0,0,0,1,3.62C131,102.39,131.63,102.79,131.38,103.58Z"></path><path class="cls-3" d="M37.15,75.48a2.81,2.81,0,0,1-1.57,2.41c-.83.5-1.17,1.86-1.65,2.88a3.23,3.23,0,0,1-1.06,1.55,3.25,3.25,0,0,1,.76-2.5,5.38,5.38,0,0,0,1.31-2.9C35,75.17,35.91,75.18,37.15,75.48Z"></path><path class="cls-3" d="M101.51,150.61a17.59,17.59,0,0,1,5.79-2.73c.2.43-1.44,1,.11,1.35.85.21.35,1,0,.87C105.36,149.62,103.49,150.73,101.51,150.61Z"></path><path class="cls-3" d="M140.2,58.53c-.78-1.2-.25-2.54-.3-3.79-.08-2.41-1.36-4.42-1.85-6.68,1.64-.29.92,1,1.29,1.7,1.14,2,.78,4.26,1.14,6.38A2.72,2.72,0,0,1,140.2,58.53Z"></path><path class="cls-3" d="M140.45,124.21c.33-1.21,1.54-1.41,2.37-2,1.92-1.4,2-1.62.54-3.4a9.17,9.17,0,0,1-.68-1c.89,0,1.35.73,1.9,1.2,1.4,1.2,1.31,2-.34,2.89C142.93,122.58,142.05,124,140.45,124.21Z"></path><path class="cls-3" d="M46.27,65.41a15.4,15.4,0,0,1-3.6,3.65c.68-1.42.09-2.71-.38-4h0C43.63,65.05,44.91,65.61,46.27,65.41Z"></path><path class="cls-3" d="M65.1,31.12c-1.94,1.93-3.6,4.15-5.82,5.8.24-2,2-2.89,3.18-4.17C63.16,32,63.61,30.68,65.1,31.12Z"></path><path class="cls-3" d="M132,90.33c.55-2.15.84-4.4,2.52-6.08.21.45.84,1.08.26,1.39C132.92,86.69,134.48,89.71,132,90.33Z"></path><path class="cls-3" d="M130.41,37.56a1,1,0,0,1-1-.55,6.31,6.31,0,0,0-3.16-2.69,2.49,2.49,0,0,1-1.4-1.72C127,33.94,129.77,34.53,130.41,37.56Z"></path><path class="cls-3" d="M41,89.82c1.3,1.14,3,2,2.94,4.12-.7-.14-.53-.85-.81-1.26s-.39-.9-.84-.78C39.37,92.7,41,90.77,41,89.82Z"></path><path class="cls-3" d="M32.84,82.35c.26,1.35,1.42,2.11,2.07,3.2-1.11.25-1.9-1.68-3.16-.47-.08-.2-.3-.52-.24-.58C32.1,83.87,31.85,82.72,32.84,82.35Z"></path><path class="cls-3" d="M136.51,44.18a17.32,17.32,0,0,1-3.4-3.44c.79-.11,2-1,1.77.9a.6.6,0,0,0,.58.58C136.89,42.31,136.51,43.34,136.51,44.18Z"></path><path class="cls-3" d="M137.21,126.39a4.68,4.68,0,0,1,3.25-2.2C140.77,127,138.54,126,137.21,126.39Z"></path><path class="cls-3" d="M120.67,30.2c-2-.65-3.29-2.24-4.94-3.35A7.64,7.64,0,0,1,120.67,30.2Z"></path><path class="cls-3" d="M92.49,143.41A2.92,2.92,0,0,1,94.12,146C91.81,145.81,91.81,145.81,92.49,143.41Z"></path><path class="cls-3" d="M124.63,32.48c-1.67.22-2.58-.8-3.33-2.08A3.58,3.58,0,0,1,124.63,32.48Z"></path><path class="cls-3" d="M142.68,117.77a6.57,6.57,0,0,1-2.87-3.26C141.31,115.12,142.63,115.88,142.68,117.77Z"></path><path class="cls-3" d="M73.34,116.82c1.74.34,2.37,1.87,3.3,3.08A6.11,6.11,0,0,1,73.34,116.82Z"></path><path class="cls-3" d="M119.55,140.86a9.32,9.32,0,0,1,3.28-2.49A3.48,3.48,0,0,1,119.55,140.86Z"></path><path class="cls-3" d="M76.24,25.68a5.88,5.88,0,0,1-3.63.91C73.4,24.61,75,25.9,76.24,25.68Z"></path><path class="cls-3" d="M86.35,136.55a7.1,7.1,0,0,1,2.14,3.24C86.66,139.44,86.84,137.77,86.35,136.55Z"></path><path class="cls-3" d="M114.52,26.33c-1,.2-1.47-.63-2.16-1C114.11,24.12,114.11,24.12,114.52,26.33Z"></path><path class="cls-3" d="M130.11,94.3c.19-1.08-.26-2.47,1.39-2.84C131.13,92.45,131.63,93.86,130.11,94.3Z"></path><path class="cls-3" d="M69.08,27.87l-2.74,2.32C66.36,28.36,67.49,27.85,69.08,27.87Z"></path><path class="cls-3" d="M138.39,71.18c-.06-1.11.84-1.88,1.06-2.89C140,69.59,139.81,70.61,138.39,71.18Z"></path><path class="cls-3" d="M135.12,82.74c-.23-1.19.49-2.17.71-3.25A2.6,2.6,0,0,1,135.12,82.74Z"></path><path class="cls-3" d="M139.46,67.56a3.48,3.48,0,0,1,.46-2.89C140.94,65.83,139.74,66.62,139.46,67.56Z"></path><path class="cls-3" d="M140.42,62.53l.23-2.19c1,.38.14,1.79,1.32,2C141.36,63.06,140.88,62.34,140.42,62.53Z"></path><path class="cls-3" d="M35.06,85.64a4.21,4.21,0,0,1,2.46,1.79C36.51,87.11,35.21,87.16,35.06,85.64Z"></path><path class="cls-3" d="M41.15,70.81c0,1.19-.85,1.71-1.72,2.22C39.84,72.17,39.77,70.92,41.15,70.81Z"></path><path class="cls-3" d="M70.09,116.67c.54-.53,1.19-.29,1.82-.25C71.45,117.55,70.89,118,70.09,116.67Z"></path><path class="cls-3" d="M147.83,124.42c-.89-.32-1.1-1-1.39-2C147.64,122.78,147.57,123.72,147.83,124.42Z"></path><path class="cls-3" d="M110.18,146.29a5,5,0,0,1,2.54-1.32C112.44,146.5,111.09,146,110.18,146.29Z"></path><path class="cls-3" d="M135.55,128.26a2.17,2.17,0,0,1,1.68-1.89A2.07,2.07,0,0,1,135.55,128.26Z"></path><path class="cls-3" d="M133,40.66c-.69-.31-.52-1.1-.9-1.59C133.76,38.84,133.72,39.57,133,40.66Z"></path><path class="cls-3" d="M133.75,130.05c.15-.81.38-1.54,1.36-1.66C134.86,129.11,134.71,129.91,133.75,130.05Z"></path><path class="cls-3" d="M37.62,87.72a1.12,1.12,0,0,1,1.08.71c-.18.35-.38.86-.86.57S37.64,88.16,37.62,87.72Z"></path><path class="cls-3" d="M113.21,144.88c0-.87.62-1,1.32-1.06C114.46,144.63,113.92,144.86,113.21,144.88Z"></path><path class="cls-3" d="M38.48,74.27c-.29.54-.56,1.1-1.27,1.19C37.27,74.67,37.37,73.92,38.48,74.27Z"></path><path class="cls-3" d="M137.79,74.08a3.32,3.32,0,0,1,.54-1.83C139,73.12,138.53,73.64,137.79,74.08Z"></path><path class="cls-3" d="M48.79,63.24a3.11,3.11,0,0,1-1.17,1.27C47,63.14,48,63.25,48.79,63.24Z"></path><path class="cls-3" d="M85.48,17.16c.09.1.3.24.35.43a.27.27,0,0,1-.39.34.83.83,0,0,1-.39-.5C85,17.26,85.15,17.13,85.48,17.16Z"></path><path class="cls-3" d="M39.73,89c.41.28,1,.23,1.25.83C40.21,90.07,39.74,89.89,39.73,89Z"></path><path class="cls-3" d="M116.26,143a.92.92,0,0,1,1.15-1A1,1,0,0,1,116.26,143Z"></path><path class="cls-3" d="M118,141.91a1.14,1.14,0,0,1,1.21-.91A1,1,0,0,1,118,141.91Z"></path><path class="cls-3" d="M142.56,43.18c.06.08.28.22.33.41a.27.27,0,0,1-.39.34.94.94,0,0,1-.39-.5C142.06,43.27,142.2,43.12,142.56,43.18Z"></path><path class="cls-3" d="M39.45,73a2.18,2.18,0,0,1-.94,1.21C38.22,73.36,38.66,73.06,39.45,73Z"></path><path class="cls-3" d="M108.88,146.93c.22-.64.86-.44,1.3-.64C110.07,147.16,109.47,147,108.88,146.93Z"></path><path class="cls-3" d="M49.15,57.93c-.11.17-.17.39-.28.42-.29.07-.4-.16-.37-.39a.42.42,0,0,1,.28-.31C48.89,57.63,49,57.81,49.15,57.93Z"></path><path class="cls-3" d="M42.71,114.87c.2.1.42.14.46.25.11.27-.09.43-.34.42a.47.47,0,0,1-.35-.27C42.45,115.18,42.61,115,42.71,114.87Z"></path><path class="cls-3" d="M129,95.74a.94.94,0,0,1,.68-1C129.71,95.25,129.67,95.71,129,95.74Z"></path><path class="cls-3" d="M79,24.23a.82.82,0,0,1-1,.75C78,24.28,78.5,24.21,79,24.23Z"></path><path class="cls-3" d="M46.52,122.38c.23.29.38.39.4.52a.59.59,0,0,1-.13.45c-.14.14-.32.1-.32-.16S46.49,122.79,46.52,122.38Z"></path><path class="cls-3" d="M47.51,64.59c-.25.28-.43.67-.9.65C46.65,64.65,46.75,64.16,47.51,64.59Z"></path><path class="cls-3" d="M101.38,154.7c-.1,0-.23.13-.3.1s-.08-.19-.12-.29.22-.13.3-.1S101.34,154.59,101.38,154.7Z"></path><path class="cls-3" d="M133.53,133.56c-.05.1-.07.25-.14.28s-.19-.07-.29-.11.06-.25.13-.28S133.43,133.52,133.53,133.56Z"></path><path class="cls-3" d="M145.08,111.54c0,.1-.06.25-.13.28s-.19-.07-.29-.11.06-.26.13-.29S145,111.49,145.08,111.54Z"></path><path class="cls-3" d="M94.87,15.46a2.88,2.88,0,0,0-.13.31c-.11,0-.26-.07-.29-.14s.07-.2.11-.3Z"></path><path class="cls-3" d="M83.72,17.15c.1,0,.25.06.28.14s-.07.19-.11.29-.26-.07-.29-.14S83.67,17.25,83.72,17.15Z"></path><path class="cls-3" d="M103.59,17.52l.29.13c0,.1-.06.26-.13.28s-.19-.07-.29-.11S103.54,17.62,103.59,17.52Z"></path><path class="cls-3" d="M140,108.83c-.1,0-.22.14-.29.11s-.09-.19-.13-.29.23-.13.3-.1S140,108.73,140,108.83Z"></path><path class="cls-3" d="M128.84,138.39l-.24.17-.18-.34c.1,0,.21-.11.28-.08S128.79,138.3,128.84,138.39Z"></path><path class="cls-3" d="M45.44,63.37c.1.05.25.07.28.14s-.07.19-.11.29-.26-.06-.29-.13S45.39,63.47,45.44,63.37Z"></path><path class="cls-3" d="M49.53,62.51c0,.53-.31.67-.74.73C48.78,62.74,49.06,62.53,49.53,62.51Z"></path><path class="cls-3" d="M143.64,62.42c0,.1-.06.26-.14.29s-.19-.07-.29-.12.06-.25.14-.28S143.54,62.38,143.64,62.42Z"></path><path class="cls-3" d="M71.53,27.1a.65.65,0,0,1-.72.25C70.92,26.88,71.09,26.59,71.53,27.1Z"></path><path class="cls-3" d="M46.4,59.72c0-.1.06-.25.14-.28a.29.29,0,0,1,.27.12.28.28,0,0,1-.12.27C46.62,59.86,46.5,59.76,46.4,59.72Z"></path><path class="cls-3" d="M77.57,18.24c.11.05.26.07.29.14s-.07.19-.11.29-.26-.06-.29-.13S77.53,18.34,77.57,18.24Z"></path><path class="cls-3" d="M76.63,119.88c.52,0,.55.43.65.79A.64.64,0,0,1,76.63,119.88Z"></path><path class="cls-3" d="M42.33,69.39c0,.49-.32.67-.77.65C41.59,69.55,41.88,69.37,42.33,69.39Z"></path><path class="cls-3" d="M39.6,70.36c0,.1-.06.26-.13.28s-.26,0-.28-.12.07-.19.11-.3Z"></path><path class="cls-3" d="M51.91,55.19c0,.11-.07.26-.14.29s-.2-.07-.3-.11c.05-.1.07-.26.14-.29S51.81,55.15,51.91,55.19Z"></path><path class="cls-3" d="M144,54.48c0,.1-.07.25-.14.28s-.19-.07-.29-.11.07-.26.14-.28S143.9,54.44,144,54.48Z"></path><path class="cls-3" d="M134.54,136.3l.13-.31.37.23c-.07.09.28.33-.1.29A1,1,0,0,1,134.54,136.3Z"></path><path class="cls-3" d="M93.44,147.28c0,.1-.07.26-.14.29s-.19-.07-.29-.11.06-.26.13-.29S93.34,147.24,93.44,147.28Z"></path><path class="cls-3" d="M50.82,53.22c-.1,0-.23.13-.3.1s-.09-.19-.13-.29.23-.13.3-.1S50.78,53.12,50.82,53.22Z"></path><path class="cls-3" d="M75.65,20c0-.11.07-.26.15-.29s.19.07.29.11-.07.26-.14.29S75.75,20,75.65,20Z"></path><path class="cls-3" d="M138,47.34a.71.71,0,0,1-.31-.72C138.17,46.7,138.53,46.83,138,47.34Z"></path><path class="cls-3" d="M119.78,145.11c0,.1-.08.2-.13.3s-.25-.07-.28-.14.07-.19.11-.29Z"></path><path class="cls-3" d="M43.24,101.6l-.26.14-.14-.36c.1,0,.22-.09.28,0S43.2,101.5,43.24,101.6Z"></path><path class="cls-3" d="M135.48,95c0,.26-.06.57-.45.53a.15.15,0,0,1-.11-.11c0-.39.27-.4.53-.46Z"></path><path class="cls-3" d="M131.39,33.4c.1.05.26.07.29.14a.3.3,0,0,1-.12.28.32.32,0,0,1-.29-.12C131.25,33.63,131.35,33.5,131.39,33.4Z"></path><path class="cls-3" d="M132,131.06a.73.73,0,0,1,.92-.45C132.81,131.1,132.45,131.14,132,131.06Z"></path><path class="cls-3" d="M137.4,75.52l.24-.73C138.15,75.23,137.9,75.41,137.4,75.52Z"></path><path class="cls-3" d="M137.05,132.3c0-.1.06-.25.14-.28s.19.07.29.11-.06.26-.14.29S137.15,132.35,137.05,132.3Z"></path><path class="cls-3" d="M136.58,77.68a.66.66,0,0,1,.32-.73C137.45,77.48,137.08,77.61,136.58,77.68Z"></path><path class="cls-3" d="M66.29,30.23a1.17,1.17,0,0,1-.87.55C65.46,30.2,65.71,30,66.29,30.23Z"></path><path class="cls-3" d="M84.57,134c.38.16.14.5.21.74C84.25,134.63,84,134.42,84.57,134Z"></path><path class="cls-3" d="M130.14,134.6c-.1,0-.26-.06-.29-.13s.07-.2.12-.29.25.06.28.13S130.18,134.5,130.14,134.6Z"></path><path class="cls-3" d="M111.49,22c0,.1-.07.26-.14.29s-.19-.08-.29-.12.06-.26.13-.29S111.39,21.92,111.49,22Z"></path><path class="cls-3" d="M112.18,148.92c-.06-.1-.15-.19-.15-.28s.09-.18.14-.27c0,.09.14.17.14.26S112.23,148.81,112.18,148.92Z"></path><path class="cls-3" d="M82,135.1l.14-.47c.33.26,0,.34-.14.47Z"></path><path class="cls-3" d="M58.45,123.6c-.05,0-.12.05-.13,0a.38.38,0,0,1,0-.15s.11,0,.13,0A.66.66,0,0,1,58.45,123.6Z"></path><path class="cls-3" d="M70.39,27.46a.46.46,0,0,1-.61.15Z"></path><path class="cls-3" d="M42.56,105.1l0,.12-.14-.14.1-.09Z"></path><path class="cls-3" d="M77.31,25.32l-.33.19Z"></path><path class="cls-3" d="M135.45,95l.17-.13-.14.17Z"></path><path class="cls-3" d="M137.15,76.19l.12-.3A.3.3,0,0,1,137.15,76.19Z"></path><path class="cls-3" d="M86,135.88l.13.09,0,.14A.24.24,0,0,1,86,135.88Z"></path><path class="cls-3" d="M82,135.1l-.08.15.08-.15Z"></path><path class="cls-3" d="M44.83,111.24a2.47,2.47,0,0,1,.1.29s-.07.08-.1.12Z"></path><path class="cls-3" d="M137.62,46.3c-.07-.08-.14-.15-.2-.23s.06-.08.09-.12Z"></path><path class="cls-3" d="M54.2,52.05a1.89,1.89,0,0,1,.11.25.79.79,0,0,1-.11.08A.74.74,0,0,1,54.2,52.05Z"></path><path class="cls-3" d="M56.08,120c.08-.22.16-.17.24,0h-.24Z"></path><path class="cls-3" d="M140.47,59.75a.33.33,0,0,1-.14-.47Z"></path><path class="cls-3" d="M139.08,113.77l-.21-.32Z"></path><path class="cls-3" d="M44.84,111.92l.14.4Z"></path><path class="cls-3" d="M135,83a1.77,1.77,0,0,1,0-.23s.08,0,.12,0A.33.33,0,0,1,135,83Z"></path><path class="cls-3" d="M140,63.92l.13-.36Z"></path><path class="cls-3" d="M119.33,69.77c.16,4.42-1.76,8-3.66,11.62-1.51,2.86-2.73,5.89-4.32,8.7A31.09,31.09,0,0,0,110.13,93c-.7,1.52-3.73,2.23-5.43,1.53a70.6,70.6,0,0,1-8-3.84c-3.33-1.89-4.36-5.44-2.76-9s3.89-7.1,4.84-11.1a1.91,1.91,0,0,0-.39-1.63c-.34-.52-.85-.07-1.29.07-2,.62-4,1.54-6.07,1.28A7.91,7.91,0,0,1,85,66.66c-.73-1.25-1.31-2-3.07-1.44a14.15,14.15,0,0,1-5.48.57C71.7,65.5,67.87,60.16,69,56a30.25,30.25,0,0,1,1.54-5.29c.38-.78,0-.91-.54-1.12a6.55,6.55,0,0,1-4.71-6.78c0-.9-.73-1.46-.64-2.37a11.15,11.15,0,0,1,1.46-4,8.35,8.35,0,0,1,7.44-5c.35,0,.7-.12,1-.16,1.38-.17,3,.8,4,.29S79.6,29,80.67,28.3c2.36-1.51,4.59-3.19,7.7-3.44s6.13-.36,8.93,1.45A5.55,5.55,0,0,1,99.15,28c1,1.82,2.35,1.32,3.61.71,3.87-1.89,7.8-1.46,11.7-.37a10.45,10.45,0,0,1,7.76,9.6c.1,1.31.24,1.9,2,1.74,4.89-.45,10.77,5.34,7.84,11a4.65,4.65,0,0,0,.13,4.47c1.82,3.89.7,11-4.16,13.2a31.49,31.49,0,0,1-5.85,1.91A5.68,5.68,0,0,1,119.33,69.77ZM77.38,34.62c-2.69,0-3.33.14-5.34,1.36-2.31,1.4-3.61,4.91-2.66,7.2.75,1.83,3.29,2.55,6.2,1.94a2.77,2.77,0,0,1,3,1.22c.64,1,.89,2-.12,2.92a11.53,11.53,0,0,0-1.25,1.48c-1.48,2-2.85,4-2.45,6.75A2,2,0,0,0,76.2,59.3c3.28.93,6.46,1.35,9-1.72a1.61,1.61,0,0,1,1-.61c2.6-.52,4.19,1.26,3.37,4-.51,1.69.56,2.46,1.58,3.2A1.73,1.73,0,0,0,93.59,64c1.42-2.19,3.79-1.69,5.76-2.28,1-.3,1.94-.18,2,1.24a1.08,1.08,0,0,0,.78.92c3.15,1,2.58,3.89,3.22,6.22.52,1.87-.7,3.32-.74,5a6.76,6.76,0,0,1-1.2,3.6c-1.38,2.19-2.86,4.32-4.07,6.63-.43.81-.25,1,.37,1.31a12,12,0,0,1,3.63,2.24c.53.52,1.81,1,2-.12.41-2.22,2-3.73,2.83-5.71a20.41,20.41,0,0,1,2-4.6A19.25,19.25,0,0,0,113.29,71a11.72,11.72,0,0,1,3-5.91c.9-.92,2.05-1.87,3.64-1.38,1.76.54,4.73-.68,6.14-2.87,1.06-1.67.76-2.42-1.12-3.22-2.46-1.06-3.09-3.18-1.49-5.34a20.48,20.48,0,0,0,2.65-3.88c.61-1.36-.43-3.47-1.7-3.18s-2.63.13-3.85.62c-2,.78-2.89.6-3.94-1.06a3.27,3.27,0,0,1,.16-3.4,3.67,3.67,0,0,0-.28-4.24,13.3,13.3,0,0,0-3.84-3,6.18,6.18,0,0,0-4.92-.46c-1.35.38-2.79-.56-4.19.77-.77.74-2.26,1.06-3.42,1.81-2.08,1.34-3.77.31-4.46-2.14-.29-1-.5-2.35-1.68-2.51a19.31,19.31,0,0,0-9.5.88C82.14,33.39,80.13,36,77.38,34.62Z"></path><path class="cls-1" d="M77.38,34.62c2.75,1.36,4.76-1.23,7.14-2.12a19.31,19.31,0,0,1,9.5-.88c1.18.16,1.39,1.49,1.68,2.51.69,2.45,2.38,3.48,4.46,2.14,1.16-.75,2.65-1.07,3.42-1.81,1.4-1.33,2.84-.39,4.19-.77a6.18,6.18,0,0,1,4.92.46,13.3,13.3,0,0,1,3.84,3,3.67,3.67,0,0,1,.28,4.24,3.27,3.27,0,0,0-.16,3.4c1,1.66,2,1.84,3.94,1.06,1.22-.49,2.56-.33,3.85-.62s2.31,1.82,1.7,3.18a20.48,20.48,0,0,1-2.65,3.88c-1.6,2.16-1,4.28,1.49,5.34,1.88.8,2.18,1.55,1.12,3.22-1.41,2.19-4.38,3.41-6.14,2.87-1.59-.49-2.74.46-3.64,1.38a11.72,11.72,0,0,0-3,5.91,19.25,19.25,0,0,1-3.11,7.47,20.41,20.41,0,0,0-2,4.6c-.78,2-2.42,3.49-2.83,5.71-.21,1.1-1.49.64-2,.12a12,12,0,0,0-3.63-2.24c-.62-.28-.8-.5-.37-1.31,1.21-2.31,2.69-4.44,4.07-6.63a6.76,6.76,0,0,0,1.2-3.6c0-1.67,1.26-3.12.74-5-.64-2.33-.07-5.19-3.22-6.22a1.08,1.08,0,0,1-.78-.92c-.07-1.42-1-1.54-2-1.24-2,.59-4.34.09-5.76,2.28a1.73,1.73,0,0,1-2.44.18c-1-.74-2.09-1.51-1.58-3.2.82-2.76-.77-4.54-3.37-4a1.61,1.61,0,0,0-1,.61c-2.51,3.07-5.69,2.65-9,1.72a2,2,0,0,1-1.46-1.81c-.4-2.7,1-4.77,2.45-6.75a11.53,11.53,0,0,1,1.25-1.48c1-.95.76-1.94.12-2.92a2.77,2.77,0,0,0-3-1.22c-2.91.61-5.45-.11-6.2-1.94-.95-2.29.35-5.8,2.66-7.2C74.05,34.76,74.69,34.59,77.38,34.62ZM105.19,38a1.76,1.76,0,0,1-.69.12c-1.21-.32-1.8.4-2.19,1.33a2,2,0,0,0,.66,2.35,4.19,4.19,0,0,0,2.36,1.12A1.88,1.88,0,0,1,107,45.27c-.18,1.43-.4,2.87-.44,4.3,0,1.08,1.06,1.69,1.75,1,1.35-1.36,3-2.35,3.48-4.62A6.34,6.34,0,0,0,105.19,38ZM85.64,46.69a3.55,3.55,0,0,0,1.06,2.86c1.62,2,3.81,2,6,2.25A6.85,6.85,0,0,0,96.52,51c1.07-.51,1-1.11,0-1.41-1.48-.47-2.86-1.67-4.6-.85-.24.11-.43,0-.57-.25-1-1.8-2.7-3.26-2.77-5.52,0-.62-.47-.83-.9-1-.67-.22-1,.32-1.22.8A8.84,8.84,0,0,0,85.64,46.69ZM111.06,61c2.46.2,3.94-1.39,5.15-3.09.38-.54,1.13-2,.16-2.5-.74-.4-.71-.66-.73-1.27,0-1.08-1.15-1.16-1.78-1.64-.38-.29-1,.33-.9.81.37,2-1.51,2.26-2.47,3.1-.66.58-1.37,1.14-2,1.78-1,1-.71,2,.62,2.45A15.62,15.62,0,0,0,111.06,61Z"></path><path class="cls-3" d="M105.19,38A6.34,6.34,0,0,1,111.76,46c-.5,2.27-2.13,3.26-3.48,4.62-.69.68-1.79.07-1.75-1,0-1.43.26-2.87.44-4.3a1.88,1.88,0,0,0-1.64-2.33A4.19,4.19,0,0,1,103,41.82a2,2,0,0,1-.66-2.35c.39-.93,1-1.65,2.19-1.33A1.76,1.76,0,0,0,105.19,38Z"></path><path class="cls-3" d="M85.64,46.69a8.84,8.84,0,0,1,.83-3.86c.21-.48.55-1,1.22-.8.43.14.88.35.9,1,.07,2.26,1.76,3.72,2.77,5.52.14.25.33.36.57.25,1.74-.82,3.12.38,4.6.85.94.3,1.06.9,0,1.41a6.85,6.85,0,0,1-3.79.77c-2.22-.25-4.41-.3-6-2.25A3.55,3.55,0,0,1,85.64,46.69Z"></path><path class="cls-3" d="M111.06,61a15.62,15.62,0,0,1-1.93-.36c-1.33-.43-1.59-1.43-.62-2.45.61-.64,1.32-1.2,2-1.78,1-.84,2.84-1.1,2.47-3.1-.09-.48.52-1.1.9-.81.63.48,1.75.56,1.78,1.64,0,.61,0,.87.73,1.27,1,.53.22,2-.16,2.5C115,59.63,113.52,61.22,111.06,61Z"></path></svg>