<?xml version="1.0" encoding="utf-8"?>
<!-- Generator: Adobe Illustrator 24.2.3, SVG Export Plug-In . SVG Version: 6.00 Build 0)  -->
<svg version="1.1" id="Layer_1" xmlns="http://www.w3.org/2000/svg" xmlns:xlink="http://www.w3.org/1999/xlink" x="0px" y="0px"
	 viewBox="0 0 71.9 122.7" style="enable-background:new 0 0 71.9 122.7;" xml:space="preserve">
<g transform="translate(0.000000,1050.000000) scale(0.100000,-0.100000)">
	<path d="M317.1,10497.7c-2.3-2.5-3.4-2.8-5.1-1.4c-1.7,1.2-2.6,1.1-4.2-1.2c-1.7-2.2-2.6-2.5-4.4-0.9c-3.4,2.8-10.3,0.9-21.4-5.8
		c-4.5-2.8-8.7-3.7-17.6-4c-5-0.3-9.9-1.2-10.9-2.2s-2.6-1.7-3.7-1.7c-2.6,0-8.5-5.9-7.5-7.6c0.5-0.8-0.6-1.1-2.3-0.6
		c-2.3,0.6-3.4-0.3-4.8-3.6c-1.4-4-1.9-4.2-3.1-1.7c-2.2,3.6-4.4,3.3-7.8-1.2c-2-2.5-3.9-3.4-5.8-2.8c-2.3,0.9-2.3,0.8-0.5-1.6
		s1.6-2.8-2.8-3.6c-2.6-0.6-4.8-1.9-4.8-3c0-0.9-1.4-3.1-3.1-4.7c-1.7-1.6-3.1-2.2-3.1-1.4s-2.2-1.1-4.7-4c-2.5-3-5.3-5.6-6.2-5.6
		c-0.8-0.2-2.8-0.3-4.4-0.5c-3.7-0.2-14.6-10.9-14.1-13.8c0.6-3.4-0.6-5.1-4.2-6.5c-2.2-0.9-3.4-2.3-2.8-3.3
		c0.6-1.2,1.4-1.1,2.5,0.3c0.9,1.6,1.1,0.9,0.5-1.7c-0.6-2.2-2.3-5.8-4-8.1c-1.6-2.3-3-4.8-3-5.6c0-0.8-1.1-2.3-2.3-3.4
		c-1.9-1.6-2-2.5-0.6-4c1.4-1.7,1.1-2.2-1.4-2.2c-3.3,0-7.3-5-5.4-6.7c0.5-0.6-0.2-2.6-1.4-4.5c-1.4-2-3-5.9-3.4-8.7
		c-0.6-2.6-1.9-5-2.8-5s-1.2-1.9-0.6-4.7c0.6-3.4,0.2-5-1.4-5.6c-1.2-0.6-2.3-2.6-2.3-4.7c0-1.9-1.7-5.4-3.9-7.8
		c-2.3-2.5-3.9-6.1-3.9-8.5c0-2.5-0.6-4.5-1.4-4.5c-0.8,0-1.4-2.6-1.2-5.8s-0.6-5.9-1.7-6.4c-1.1-0.3-1.9-3-1.9-5.9
		c0-4-0.6-5.3-2.6-5.3c-2.3-0.2-2.5-0.3-0.5-1.4c3.3-1.9,2.3-15.7-0.9-15.7c-1.9,0-1.9-0.6-0.6-3.1c0.9-1.7,1.1-4,0.5-5.1
		c-0.6-0.9-0.9-3.1-0.8-4.5c0.3-1.6-0.3-2.8-1.2-2.8s-1.2-1.6-0.6-4c0.6-2.6,0.3-4.5-0.9-5.3c-1.2-0.8-1.4-2-0.6-3.3
		c2-3.3,2.3-7.8,0.8-9.8c-0.9-1.1-0.9-2.6-0.2-4c2-3.3,1.9-4-1.1-7c-1.4-1.4-2.6-5-2.6-7.8c-0.2-3-0.8-5.8-1.4-6.4
		c-0.6-0.6-0.3-2.2,0.8-3.3c1.1-1.4,1.2-2.6,0.3-3.3c-2-1.6-5.9-8.5-3.9-7.5c0.8,0.6,2.3-0.3,3.1-2c2.3-4,2.2-4.8-0.8-4.8
		c-2.2,0-2.2-0.5-0.6-2.3c1.2-1.4,2-6.4,1.9-11.7c0-5.1,0.6-9.6,1.4-10.3c0.8-0.5,1.4-5.3,1.4-10.7c0-6.4,0.6-10.1,2-10.6
		c1.2-0.6,1.4-1.2,0.2-2.2c-0.8-0.6-2.5-6.8-3.6-13.7c-3.4-21.8-3.4-26-0.6-29.1c1.7-2,1.9-2.8,0.5-2.8s-1.7-1.6-1.1-5.4
		c0.5-3,0.3-5.4-0.6-5.4c-2.3,0-1.6-6.2,0.9-7.1c3.3-1.2,3-3.4-0.9-4.5c-2.5-0.9-2.8-1.4-1.2-3.4c1.6-1.9,1.6-2.5-0.3-3.9
		c-1.4-0.9-1.6-1.7-0.5-2.2c2.2-0.9,0.9-7.9-2.3-12.9c-2.3-3.6-2.3-3.7,0.9-1.9c4.7,2.3,5.9,2.2,3.4-0.8c-1.7-2-2.5-8.7-1.4-12.6
		c0.8-3-0.5-10.7-1.9-11.5c-0.8-0.5-0.3-1.4,1.1-2c2.2-0.8,2.3-1.4,0.9-3.1c-1.2-1.6-1.4-2.5-0.2-3.3c2.5-1.6,1.9-4.5-1.6-8.2
		c-3.6-3.9-3.9-5-1.1-5c2.2,0,1.7-12-0.6-14.9c-0.8-0.9-0.6-2.3,0.2-3.1c0.8-0.8,1.1-3,0.6-4.8c-0.8-2.5-2.5-3.6-7.3-4.4
		c-3.6-0.6-7.1-1.7-8.1-2.3c-2.3-1.7-11.3-3.4-18.2-3.4c-4,0.2-5.9-0.6-5.9-2c0-1.2-0.8-2.6-1.9-3.3c-1.2-0.8-1.4-0.3-0.8,1.7
		c0.9,2.2,0.5,2.5-2,1.9c-1.7-0.5-3.1-0.3-3.1,0.2c0,0.6-3.7,0.9-8.2,0.8c-14.1-0.6-17.1,0.9-19.3,9.5c-0.9,4-2.5,8.2-3.3,9.2
		c-0.8,1.1-2.2,4.8-3.1,8.4c-2.5,8.7-15.4,19.6-14,11.8c0.3-2-0.6-2.6-4.2-2.6c-3.9-0.2-5.1-1.2-7.6-6.1c-4-8.4-5.8-16.9-3.9-19.3
		c1.1-1.2,1.1-2.8,0-4.8c-0.9-1.9-1.1-3.4-0.2-4.4s1.9-7.1,2.3-13.8c0.5-6.8,1.6-14.8,2.3-17.9c0.8-3,1.4-12.7,1.4-21.8
		c0-9,0.5-18.8,0.9-21.8c0.6-3,0.9-6.1,0.9-7c-1.1-9.9-0.6-22.5,0.8-25.6c1.9-4.2,1.1-15.5-1.1-15.5c-1.9,0-0.5-8.2,2-12.4
		c1.4-2.5,1.6-3.7,0.3-4.2c-1.2-0.5-1.4-2.5-0.5-7c0.9-3.4,1.1-7.5,0.6-9c-0.5-1.6-0.2-3.3,0.8-3.9c0.8-0.5,1.6-3,1.6-5.6
		c0-3.6,0.6-4.5,3.4-4.5c4.5,0,1.6-3.1-3.3-3.6c-3.1-0.2-4.8-4.2-1.7-4.2c0.9,0,1.6-1.7,1.6-3.7c0-2.2,0.8-4.4,1.6-4.8
		c0.9-0.6,1.2-2.3,0.8-4c-0.6-1.7-0.3-3,0.8-3c0.9,0,1.2-1.6,0.6-3.9c-0.8-3.3-0.5-3.7,1.7-2.8c2.5,0.9,2.6,0.3,1.9-4.7
		c-0.5-3.1-0.2-6.1,0.6-6.7c0.8-0.5,1.2-5.8,0.9-11.7c-0.3-9.8-0.2-10.7,2.6-10.7c3,0,3-0.2,0.3-2c-2.3-1.7-2.5-2.6-1.1-5.4
		c0.9-1.9,2.3-4.7,3.1-6.2c0.6-1.6,1.1-6.8,0.9-12s0.3-9.8,1.1-10.3c0.9-0.6,1.6-3.6,1.7-6.7c0.2-4.4,0.8-5.6,3.1-5.6
		c2.3,0,2.6-0.6,1.7-2.6c-1.9-3.7-1.1-19.7,0.9-20.4c3.9-1.4,6.1-5.4,5.9-11c0-6.7,1.2-9.9,3.6-8.7c0.8,0.6,1.4,0.3,1.4-0.6
		c0-0.8-0.9-1.7-1.9-2c-1.6-0.6-1.4-1.4,0.5-3.1c1.4-1.4,2.5-5.4,2.6-9.2c0.2-3.7,1.1-7.5,1.9-8.2c0.9-0.9,1.6-3.1,1.6-5
		s1.1-3.7,2.3-4.4c1.2-0.5,1.9-1.9,1.4-3.3c-0.6-1.6,0-2.3,1.7-2.3c1.6,0,2.3-1.1,2-2.6c-0.3-3,4.4-11.3,7.5-13.4
		c1.1-0.6,2.3-3.3,3-5.9c0.6-2.6,2-5.1,3.1-5.6c1.2-0.3,1.9-1.6,1.4-2.6s0.3-3,1.7-4c1.2-1.1,2.3-3.1,2.3-4.7c0-1.6,1.1-3.6,2.3-4.7
		s1.9-2.5,1.4-3.3c-0.5-0.8,0.6-3.4,2.5-5.8c6.1-7.6,23.2-25.2,24.7-25.2c0.8,0,1.7-1.1,2.3-2.3c0.5-1.2,1.6-2.3,2.6-2.3
		c2.3,0,10.4-8.9,11-12.1c0.3-1.4,1.6-2.6,2.6-2.6c1.2,0,2.8-2,3.4-4.4c1.4-5.4,4.4-9.2,6.2-7.9c0.8,0.5,1.4-0.3,1.4-1.6
		c0-1.4,0.9-2.5,2.2-2.5c1.2,0,2.5-1.1,3.1-2.3c0.5-1.2,1.9-1.9,3-1.4c1.4,0.5,2.5-0.3,3-2c0.5-1.9,3.4-3.7,7.6-5
		c3.7-1.1,8.1-2.6,9.6-3.6c1.7-0.8,3.3-1.1,3.7-0.6c0.5,0.5,5-1.2,10.1-4c8.7-4.7,9.2-4.7,11.2-2c2.5,3.4,7.9,2,6.5-1.7
		c-0.5-1.2-0.3-2,0.5-1.6c0.6,0.5,3.6-0.5,6.5-2c4.8-2.5,12.1-5,16.2-5.4c5.1-0.6,11.7-3,13.1-4.7c0.9-1.1,6.2-2,12.9-2.2
		c6.1-0.3,12-1.1,12.9-1.9c0.8-0.6,4-1.6,7-1.9c4.4-0.3,5.6-1.2,5.9-4c0.6-3.6,6.8-7.3,11-6.7c1.1,0.2,1.6-0.3,0.9-1.4
		s0.2-2.2,2-2.6c1.7-0.5,3.7-2.6,4.4-4.8c1.7-6.4,1.2-22.7-0.8-23.3c-0.9-0.3-1.4-1.2-0.9-2c0.5-0.6-0.2-3.1-1.6-5.1
		c-1.4-2.2-2.2-4.5-1.7-5.4c0.6-0.8-1.2-3.1-4-5c-2.8-2-6.5-5.1-8.2-7.1c-1.7-1.9-4.5-3.4-6.2-3.4c-5.3,0.2-19.6-3.9-19.6-5.4
		c0.2-0.9-2.3-1.6-5.3-1.7c-3.4,0-6.5-1.4-8.5-3.6c-3.7-3.9-6.2-4.4-6.2-1.2c0,1.7-0.8,1.9-3.7,0.5c-2.3-1.1-3.4-2.6-2.8-4.2
		c0.8-1.9,0.5-2-1.4-0.5c-1.2,0.9-3.9,2-6.1,2.2c-5.6,0.6-21.6-1.9-22.7-3.4c-1.4-2.3-6.8-1.6-7.8,0.9c-1.7,4.4-13.1,1.2-13.1-3.7
		c0-2.5-2.6-2-3.7,0.8c-0.5,1.2-1.7,1.9-2.5,1.4c-0.9-0.6-2.8-0.2-4.2,1.1c-2,1.6-2.6,1.6-3.1,0c-0.5-0.9-1.4-1.6-2.2-0.9
		c-0.8,0.5-1.4-0.3-1.4-1.6c0-1.4-0.6-2.5-1.6-2.5c-0.8,0-1.6,0.9-1.6,2.2c0,1.7-1.7,2.2-7.1,1.6c-8.7-0.8-10.4-1.7-9.5-5.3
		c0.9-3.6-4.8-5.6-6.2-2.2c-1.1,3.1-3.4,1.2-2.5-2.2c0.5-2-0.3-2.8-2.6-3c-4-0.3-7.8-3.3-7.8-6.1c0-1.2-1.1-2.2-2.3-2.2
		c-1.6,0-2.3-1.6-2.3-4.5c0-3.1-0.9-4.7-3.1-5.3c-1.7-0.5-3.7-2.6-4.7-4.8c-0.8-2.2-2.2-4-3.3-4c-0.9,0-1.4-0.9-0.9-1.9
		c0.3-1.1,1.6-1.9,2.5-1.6c2.3,0.5,2.2-2.3-0.2-3.3c-1.2-0.5-1.1-0.9,0.6-0.9c1.4-0.2,3.1-0.9,3.6-1.7c0.6-0.9,0.5-1.6-0.3-1.4
		c-0.6,0.2-3.9,0.2-7,0c-4.8-0.2-5.8-0.6-5.4-3.1c0.3-1.6,1.2-3.9,2.2-5.1c1.9-2.2,2-2.6,2-7.6c0-2.5,0.6-3,3.6-2.2
		c3.3,0.8,3.1,0.8-0.5-1.6c-3.4-2.2-3.4-2.5-0.6-1.9c2.6,0.5,3.1,0,2.5-2.8c-0.6-3.7,5.3-10.7,7.6-9.2c2.6,1.6,12.3-8.2,11.2-11.2
		c-0.5-1.2,0.2-2.2,1.7-2.2c1.4,0,2.5,0.6,2.5,1.2c0,1.7,4.8,1.9,7,0.3c0.9-0.6,5.6-0.9,10.6-0.9c4.8,0.2,8.9-0.2,8.9-0.8
		c0-0.9,1.9-0.9,11.7,0.6c0.9,0.2,1.4-0.3,1.2-1.2c-0.2-0.9,3.9-1.6,9.3-1.6c5.3,0,14.5-1.2,20.2-2.8c5.9-1.4,11.2-2.3,12.1-1.9
		c0.8,0.6,1.4,0.3,1.4-0.5c0-1.7,7.6-1.6,10.3,0c2.3,1.6,12.9,1.9,19.7,0.5c3.1-0.6,5.8-0.5,5.8,0.2c0,0.8,3.7,1.4,8.1,1.4
		c5.8,0,8.1,0.6,7.8,2c-0.3,2.2,2.2,2.5,3.6,0.3c0.6-1.1,1.9-1.1,3.7,0c1.6,0.8,3.3,1.1,3.6,0.6c1.6-1.4,23.2-2.2,22.2-0.8
		c-0.5,0.8-0.2,1.9,0.8,2.5c0.8,0.5,1.6-0.2,1.6-1.4c0-3.4,2.5-3.1,6.2,0.6c1.9,1.9,3.1,2.3,3.1,1.1c0-2,13.7-2.3,16.8-0.5
		c0.9,0.5,2.6,0.5,4,0c1.4-0.5,3.6-0.2,4.8,0.9c1.2,0.9,2.8,1.6,3.4,1.1c2.8-1.7,16-2.6,16-1.1c0,0.8,1.1,1.6,2.3,1.6
		c1.2,0,2.3-0.8,2.3-1.7s1.1-1.4,2.3-0.8c1.2,0.5,2.3,0.2,2.3-0.6c0-0.8,2.3-1.1,5.1-0.6c11.8,2,27.8,3,28.4,1.9
		c1.4-2,5.3-1.4,5.3,0.9c0,3.1,6.2,1.2,6.4-2c0-1.4,0.5-1.7,0.9-0.6c0.5,1.4,1.4,1.6,3.6,0.2c2.3-1.4,3.7-1.4,6.8,0.2
		c2,1.2,5,1.7,6.2,1.2c1.2-0.5,3.4,0,4.7,1.4c1.6,1.6,2.6,1.7,3.4,0.5c0.6-1.2,1.4-1.2,2-0.2c0.6,1.2,3.1,1.2,7.6,0.2
		c4.5-0.9,7.6-0.9,9.6,0.2c2,1.1,3.1,1.1,3.1,0.2s0.9-1.2,2.2-0.8c1.1,0.5,7,0.9,13.2,1.1c7.9,0.2,11-0.2,11-1.6
		c0-3,4.2-2.5,6.2,0.8c1.7,2.5,1.7,2.5,0.9,0c-0.6-1.9,0-2.8,1.9-3c1.4-0.2,4.5-0.3,6.8-0.5c2.3-0.2,4.7-0.8,5.3-1.4
		c0.6-0.5,3.4,0,6.2,1.2c2.8,1.1,5.6,1.6,6.1,0.9c0.9-1.7,14.9-1.2,17.7,0.5c1.2,0.8,2.6,0.5,3.4-0.8c0.8-1.2,1.4-1.4,1.4-0.5
		s2.8,1.7,6.4,1.7c3.7,0,7,0.9,7.8,2.2c1.2,2,2,0.9,1.6-2c-0.3-2.2,1.4-1.4,8.4,3.7c3.7,2.8,7.5,6.7,8.4,8.7
		c0.9,1.9,2.3,3.4,3.3,3.4s1.4-0.6,0.8-1.4c-0.5-0.8-0.3-1.9,0.5-2.3c0.8-0.5,2.5,1.2,3.9,3.7c1.7,2.8,3.6,4.2,5,3.7
		c4.4-1.7,10.9,17.7,9.8,29.5c-0.3,3.9,0.2,7.1,0.8,7.1c0.8,0,0.2,1.1-1.2,2.5c-1.6,1.7-2.2,3.9-1.7,6.2c0.8,2.6,0.3,3.7-1.2,3.7
		c-3.3,0-7.5,4.7-6.5,7.1c0.5,1.2-0.2,2.2-1.4,2.2s-3,1.2-3.7,3c-0.9,1.6-3.7,3.7-6.2,4.8c-2.6,1.1-4.5,2.6-4.4,3.6
		c0.2,0.9-1.2,2-3.3,2.3c-1.9,0.3-3.1,1.1-2.6,1.9c1.7,2.6-3.4,4.8-7.6,3.1c-5.4-2-7.6-2-6.4,0c0.6,0.9,1.7,1.1,2.6,0.6
		c0.9-0.6,1.4-0.2,0.9,1.1s-2.3,2.5-4.5,2.6c-2,0.3-4.7,1.4-5.6,2.2c-1.4,1.1-2.8,1.1-4.4-0.3c-2-1.7-3.1-1.4-6.1,1.4
		c-2.2,2-5.3,3.4-7.5,3.1c-1.9-0.2-4.7,0.2-5.9,0.6c-1.2,0.6-5.1,1.4-8.5,1.9c-13.2,2-17.9,2.2-17.9,0.5c0-0.9-1.6-1.2-4.2-0.5
		c-2.5,0.6-8.9,1.4-14.5,1.9c-5.6,0.3-10.3,1.2-10.6,2c-0.3,0.6-1.9,0.9-3.4,0.5c-1.7-0.5-3.1,0-3.1,0.9c0,1.1-1.4,1.4-3.7,0.8
		c-2-0.5-4.2-0.2-4.8,0.8c-0.5,0.9-1.7,1.4-2.5,0.9c-2.2-1.4-10.7,5.3-9.8,7.5c0.9,2.6-5,8.1-6.4,5.9c-1.7-3-4.2-1.9-3.1,1.4
		c0.6,2,0.2,3.4-1.2,4c-1.9,0.6-2,1.9-0.9,5.8c0.9,3.1,0.8,5.1-0.3,5.8c-0.9,0.6-0.6,1.7,0.9,3.1c1.2,1.1,2.3,2.8,2.3,4
		c0,1.1,1.4,2.8,3.1,3.7s2.6,2.5,2.2,3.4c-0.6,1.1-0.5,1.2,0.6,0.6c1.1-0.6,2.5,0.3,3.3,2.5c0.8,2,4.2,6.5,7.8,10.3
		c3.6,3.6,6.8,8.7,7.5,11.3c0.9,5,6.7,9.9,13.4,11.5c2.3,0.6,4.8,2.3,5.6,3.7s1.7,2.3,2,2c0.9-0.9,8.7,2.6,9.3,4.4
		c0.3,0.9,4.8,1.9,10.3,2.2c5.6,0.2,10.4,1.2,11,2.3c0.6,0.9,2.3,1.4,3.7,0.8c1.4-0.5,2.6-0.3,2.6,0.6s2.2,2,4.8,2.6
		c2.6,0.6,5.1,2,5.6,3.3c0.5,1.2,1.7,2.2,3,2.2c1.2,0,2.2,0.6,2.2,1.6c0,0.8,0.9,1.1,2,0.8c0.9-0.5,4.5,1.7,7.8,4.7
		c3.3,3,6.7,5.1,7.5,4.7c0.8-0.6,1.9,0.2,2.3,1.6c0.6,1.4,2,2.2,3.3,1.7c1.6-0.6,2-0.2,1.2,2c-0.8,2.5-0.3,2.8,2.2,2.2
		c2-0.5,4.2,0.6,6.7,3.4c2,2.3,4.5,5.3,5.6,6.4c1.1,1.2,1.7,2.2,1.2,2.2c-0.5,0,0.3,1.4,1.7,3.1c1.6,1.7,3.3,3.1,4,3.1
		c2,0,13.4,12.7,13.5,15.1c0,1.1,1.1,1.6,2.3,1.1c1.4-0.6,3.4,0.9,5.4,4.4c1.7,2.8,3.1,4.5,3.1,3.7c0-0.8,1.1-0.5,2.3,0.6
		s1.9,2.5,1.4,3.3c-0.5,0.8,0.3,1.9,1.7,2.3c1.6,0.6,2,2,1.6,3.7c-0.8,2.2-0.3,2.6,2.2,2c2.5-0.6,3.7,0.6,6.2,6.1
		c1.7,3.9,4.2,7.9,5.6,9c1.2,1.1,2.3,2.6,2.3,3.4s2.5,3.4,5.4,6.1c3,2.6,5.4,6.2,5.4,7.8c0,1.6,1.1,3,2.3,3c1.4,0,2.3,1.4,2.3,3.7
		c0,2,1.1,4.2,2.5,4.7c1.4,0.6,2.2,1.4,1.7,1.9c-0.5,0.6,0.2,2,1.4,3.3c1.2,1.4,2.6,4.4,3.3,6.7c0.5,2.6,2,4.7,3.9,5.1
		c1.9,0.6,2.6,1.6,2,2.6s-0.6,2.3,0.2,3c0.8,0.5,2.3,2.6,3.4,4.8c0.9,2.2,2.5,5,3.4,6.2c3.3,5.1,7.6,16,6.8,17.3
		c-0.5,0.8,0,2.8,0.9,4.5c1.1,2,1.1,3.1,0,3.1c-0.8,0-1.6,0.6-1.6,1.6c0,0.8,1.1,1.1,2.3,0.6c1.6-0.6,2.3,0,2.3,2.2
		c0,1.9,0.8,3.7,1.6,4.2c0.9,0.5,1.6,2.6,1.6,4.8c0,2,0.8,3.7,1.7,3.7c0.9,0,1.4,1.4,0.9,3.1s-0.3,3.1,0.2,3.1
		c0.6,0,1.2,1.7,1.2,3.7c0.2,2,1.7,5.1,3.6,7c1.9,1.9,3,4,2.5,5c-0.6,0.8-0.2,2.5,0.8,3.7c1.6,1.9,1.4,2.3-1.6,2.3s-3.1,0.3-1.6,2.3
		c1.1,1.2,2.5,2,3.1,1.6c1.6-0.9,3.4,10.7,2.2,13.8c-0.5,1.4-0.2,2.5,0.8,2.5c0.9,0,1.7,2.3,1.7,5.1c0,3.4,0.5,4.4,1.4,2.8
		c1.9-2.8,4.5,10.1,5.6,27.8c1.1,17.4,2,21.6,5.9,27c1.9,2.5,2.3,4,1.1,3.3c-1.6-0.9-1.9,0-1.1,4.7c0.5,3.3,1.6,6.4,2.3,6.8
		c1.9,1.2,4.5,15.4,5.9,32c1.9,20.7,2.6,26.7,5.1,34.8c0.9,3,1.2,5.9,0.8,6.5c-0.5,0.8-0.3,1.4,0.5,1.4c0.6,0,1.4,5.4,1.6,12.1
		c0.2,6.5,0.6,14.3,1.1,17.3c0.5,3.4,0,6.1-1.6,7.6c-1.7,1.6-1.9,2.8-0.8,3.9c0.9,0.9,1.7,3.3,1.7,5.1c0,1.9,0.9,4.2,2,5.1
		c2.6,2,2.2,25.5-0.3,26.3c-1.1,0.3-1.2,1.6-0.2,3.4c0.9,1.7,0.9,3.3,0.2,3.7c-1.6,0.9,1.2,10.3,3.1,10.3c1.6,0,3.1,7.1,3.9,17.1
		c0.3,4.7,0.9,11.2,1.1,14.3c0.3,3.1,0,5.4-0.5,5.1c-0.6-0.5-0.9,2.8-0.8,7c0.2,4.4-0.3,7.8-0.9,7.8c-0.8,0-1.4,2-1.4,4.4
		c0,4-6.8,15.7-10.7,18c-3.3,2-11,2-12.7,0c-1.4-1.7-1.1-2.2,1.9-2.2c2.6,0,3.1-0.5,1.7-1.9c-2.3-2.3-5.9,0.6-7.1,5.9
		c-0.8,3-1.7,3.7-3.6,3.1c-1.4-0.6-3-0.3-3.6,0.6c-0.6,1.1-3,0-6.1-3c-2.8-2.6-4.7-4.8-4.2-4.8c0.6,0-0.5-1.6-2.2-3.4
		c-1.7-1.9-2.8-4.4-2.5-5.4c0.5-1.1,0.2-2-0.8-2c-0.9,0-1.4-0.9-0.9-2.2c0.5-1.1,0.2-2.8-0.8-3.7c-1.2-1.2-1.2-2.3,0.2-4
		c1.4-1.6,1.4-2.5,0.2-3.3c-1.1-0.6-1.6-2.8-1.1-4.8c0.3-2,0.2-3.7-0.3-3.7c-0.6,0-1.7-3.9-2.6-8.5c-0.8-4.7-0.9-8.5-0.3-8.5
		c2,0,1.4-2.8-1.2-5.4c-1.4-1.4-4-2.3-5.9-2c-1.7,0.2-4.2-0.2-5.3-0.9c-1.1-0.6-2.5-0.8-3-0.3c-0.6,0.5-2.5,0-4.2-1.1
		c-1.9-1.2-6.1-2.6-9.3-3.1c-3.4-0.5-6.7-1.9-7.3-3c-0.9-1.6-1.7-1.6-3.1-0.2c-1.4,1.4-3.3,1.2-7.8-0.6c-4.5-1.7-6.7-1.9-8.2-0.6
		c-1.1,0.9-2.5,1.1-3.3,0.5c-0.6-0.6-0.2,0.6,1.1,2.8c2.5,4,3.1,22.4,0.8,26c-0.6,0.9-0.5,2.2,0.3,2.8c0.9,0.5,1.2,1.9,0.8,3.1
		c-0.6,1.2-1.6,2-2.2,1.6c-0.6-0.5-1.6,0.2-2,1.4c-0.6,1.4,0.5,2.5,2.3,3.1c2.5,0.6,3,1.2,1.6,2.8c-0.9,1.2-1.4,6.7-1.2,12.9
		c0.5,9.2,0.9,11,3.6,12.3c1.9,0.9,3.3,3,3.3,5.1c0,1.9-0.6,3.1-1.4,2.6c-0.8-0.5-1.4-0.2-1.4,0.8c0,0.8,0.8,2,1.6,2.5
		c1.2,0.8,1.1,1.7-0.2,3.3c-0.9,1.1-1.4,3.3-0.8,4.5c0.5,1.4-0.3,3.6-1.9,5.1c-1.9,1.9-2.5,4.7-2.2,9.5c0.3,3.9-0.3,8.9-1.4,11.3
		c-2.6,6.4-3.9,27.5-1.7,29.1c0.6,0.5,1.2,2.8,1.6,5.1c0.3,3-0.3,4.4-2.3,4.8c-2.6,0.6-2.6,0.8,0.2,0.9c2.5,0.2,2.6,0.9,1.7,6.1
		c-0.6,3.1-1.2,7-1.1,8.5c0,1.4-0.5,2.6-1.2,2.6s-1.1,2.3-0.9,5.1c0.3,2.6,0.2,3.7-0.2,2.3c-0.8-3.1-3.7-3.9-3.3-0.8
		c0.3,0.9-0.5,1.7-1.4,1.4c-3.4-0.6-2.2,2,1.4,3.6c5.3,2.3,5.3,6.4,0.2,8.4l-4.4,1.7l4.2-0.5c3-0.5,3.9,0,3.3,1.4
		c-0.5,1.2,0.3,2.5,1.6,3.1c1.9,0.6,2,2,0.6,7.3c-0.9,3.6-2.5,7.3-3.7,8.1c-1.6,1.2-1.7,3-0.5,7.1c1.2,4.5,1.2,12,0.2,20.4
		c-0.2,0.6-1.4,0.8-2.8,0.3c-2.6-0.8-2.6-0.8-0.2,1.2c1.7,1.6,2.3,3.9,1.9,7.5c-0.3,3-0.8,6.5-0.8,7.8c-0.2,1.2-0.8,3.1-1.6,4
		s-1.4,3.9-1.7,6.5c-0.2,2.8-0.9,5-1.7,5c-0.6,0-0.8,0.8-0.2,1.9c1.7,2.8,2.3,18,0.6,19.1c-0.8,0.5-1.1,2.6-0.6,4.7
		c0.5,2.8,0,3.9-1.7,3.9c-1.9,0-2.3,0.9-1.6,3c1.4,4.5-0.8,11.7-2.8,9.6c-2.3-2.3-4.2-2.2-4.2,0.6c0,1.2,0.8,2.3,1.6,2.3
		c2,0,2,1.9-0.2,7.3c-1.1,2.3-2,9.5-2.3,15.9c-0.5,7.8-1.4,12.4-3.1,14.3c-1.4,1.6-2,3.4-1.6,4.4c0.6,0.8-0.2,2.2-1.6,3
		c-1.7,0.9-2,1.7-0.8,2.5c0.9,0.6,1.7,2.2,1.7,3.4c0,1.6-1.1,2-3.9,1.2c-4.8-1.2-5.3,1.7-0.3,3.1l3.4,1.1l-3.3,1.4
		c-1.9,0.8-3.9,2.2-4.7,3.3c-0.6,1.1-0.5,1.6,0.5,0.9c0.9-0.6,2.5-0.2,3.4,1.1c1.4,1.7,1.1,2.3-1.7,3.1c-2.3,0.5-4.5,3.1-6.4,7.8
		c-2.2,5.4-3.9,7.1-7.5,7.9c-4.8,1.1-7.3,3.6-5,5.3c2.6,1.7,3.3,5.8,1.2,8.4c-1.7,2.3-2,2.5-3,0.3c-0.6-1.9-1.4-2-3.7-0.6
		c-3,1.9-3,1.9-0.2,4.7c1.7,1.7,3,3.9,3,5c0,2.6-6.8,9.2-8.2,7.9c-0.5-0.5-0.5,0.5,0,2.2c0.8,3.3-3.1,7.6-11.5,12.9
		c-2.8,1.9-5.1,3.9-5.1,4.7c0,0.6-0.9,0.9-2.2,0.5c-1.6-0.6-2.5,0.8-3.3,3.9c-1.1,5-8.7,11.8-10.9,9.8c-0.8-0.6-0.8,0.2-0.3,1.7
		c0.8,1.9,0.2,2.6-1.7,2.6c-1.4,0-5.1,1.6-8.1,3.4c-5.3,3.3-10.9,6.5-24.1,13.5c-3.4,1.9-8.7,3.3-11.7,3.1c-3-0.2-11.3,0.9-18.5,2.3
		c-13.4,2.5-35.9,3.6-38.9,1.7c-0.9-0.5-1.7-0.2-1.7,0.9c0,1.2-0.6,1.2-2.3-0.2c-2-1.7-2.8-1.6-4.4,0.5c-1.7,2.3-10.9,4.7-16.9,4.5
		c-1.6-0.2-2.8,0.6-2.8,1.6c0,1.1-0.6,1.1-1.9,0.2c-2.5-1.7-12.1-1.6-15.1,0.3c-1.6,0.8-2.5,0.6-3-0.5c-0.3-0.9-1.6-1.2-2.8-0.8
		c-1.2,0.5-2.2,0.2-2.2-0.8c0-1.4-11.8-1.1-19.4,0.3c-1.7,0.5-3.9,0.8-5,0.8c-0.9,0.2-2,1.2-2.3,2.6
		C320,10500.7,319.6,10500.5,317.1,10497.7z M400.2,10439.8c0.2-1.1,0.2-2.5,0-3.1c0-0.8,0.6-1.2,1.6-1.2s1.4-1.1,0.8-2.3
		c-0.6-1.6,0.2-2.3,2.3-2.3c1.7,0,4.5-0.6,6.1-1.6c1.6-0.8,5.4-1.9,8.5-2.2c3.3-0.5,6.4-1.6,7-2.5c0.6-1.1,3.7-1.9,6.8-1.9
		c3.1,0,5.6-0.6,5.6-1.4s0.8-1.4,1.6-1.4c0.9,0,1.6,1.4,1.6,3c0,3.6,2.5,5.6,3.9,3.3c0.6-0.9,1.7-1.2,2.5-0.8c0.8,0.6,2-0.9,3-3.1
		c0.8-2.2,2.5-3.9,3.4-3.6c1.1,0.3,4.2-1.1,7-3.1c2.6-1.9,7-3.9,9.6-4.4c3.9-0.8,4.7-1.6,4-3.9c-0.6-2,0.5-4.8,3-8.1
		c2.3-2.6,4.7-5.8,5.4-6.5c2-2.6,9.5-17.9,9.3-19.1c-0.5-2.6,4.2-11.2,6.1-11.2c1.1,0,1.7-0.6,1.2-1.4c-0.5-0.8,0.6-1.9,2.6-2.5
		c1.9-0.5,2.6-1.4,1.7-1.7c-3.1-1.4-0.6-13.4,3.6-16.6c3.9-3.1,4.7-6.7,1.9-7.6c-1.2-0.5-0.9-1.4,0.6-3.1c1.4-1.2,3-5,3.4-8.1
		c0.6-3.1,1.6-5.6,2.2-5.6c0.5,0,1.1-2.8,1.2-6.4c0.2-5.8,4.8-13.1,8.4-13.1c3.3,0,2.8-2.5-0.8-4c-3-1.4-3.6-2.5-2.5-3.7
		c2.6-3.3,3-14.5,0.5-15.4c-1.2-0.5-1.7-1.7-1.2-2.6c0.6-0.8,1.4-3.9,1.9-6.5c0.5-2.8,1.2-5.3,1.7-5.8c1.1-0.8,1.2-1.4,2.5-14.3
		c0.3-3.9,1.4-8.5,2.2-10.1c1.7-3,3.3-12.7,4.2-25.6c0.6-7.1,0.5-7.5-3.6-7.6c-2.3-0.2-5.1-0.2-6.4,0c-1.1,0.3-3.1-0.2-4.7-0.6
		c-1.4-0.6-8.1-1.1-14.9-0.9c-7.1,0-12.7-0.6-13.4-1.6c-0.6-1.2-1.9-1.2-3.9-0.2c-2,1.1-6.5,0.8-14.6-0.8c-6.4-1.2-14.9-2-18.8-1.7
		c-5.6,0.3-7,0-6.4-1.6c0.6-1.7-0.8-1.9-6.5-1.1c-9.5,1.4-21.3-1.6-20-5.1c0.8-1.7,0.3-2.2-1.6-1.4c-4.4,1.6-6.7-0.2-7-5.4
		c-0.8-10.7,0.8-13.4,9.5-15.9c12.9-3.7,25.8-5.3,26.6-3.4c0.5,1.1,1.2,0.8,2.3-0.6c0.8-1.2,2-1.7,2.6-1.1c0.6,0.6,2.2,0.3,3.3-0.8
		c1.7-1.4,2.5-1.4,3.3-0.2c0.8,1.4,4.4,1.1,12.7-0.5c6.4-1.4,13.8-2.3,16.6-2.3s6.8-0.9,9-2c2.3-1.2,5.3-2,6.7-1.7
		c1.4,0.3,3.4,0.6,4.2,0.6c0.9,0.2,0.5,0.9-0.8,1.9c-2.3,1.7-1.1,1.6,16.8-1.6c3.7-0.8,7.3-1.9,7.9-2.6c2-2.2,3.6-14.6,1.9-14.6
		c-2.5,0,0.6-32.8,3.3-34.3c0.9-0.6,1.1-1.9,0.3-3.1s-1.4-4.2-1.4-6.8c0-3-0.8-4.7-2.3-4.8c-1.2,0-5-0.3-8.2-0.3
		c-3.1-0.2-5.6-0.8-5.6-1.4c0.5-3.1-0.3-3.7-2.3-2.2c-1.7,1.6-3.1,1.6-5.6,0.2c-1.9-0.9-4.4-1.4-5.6-0.9c-1.2,0.5-2.2,0-2.2-1.1
		c0-1.2-0.5-1.4-1.2-0.2c-2,3.1-10.3,3.4-24.4,1.2c-16.6-2.8-17.1-2.8-24.6-4.4c-3.3-0.8-7.8-1.6-10.1-1.7
		c-5.4-0.6-11.2-2.5-11.3-3.7c-1.2-15.7-0.9-16.6,9.5-22.2c5.9-3.1,9.5-3.7,21.8-4c8.1-0.2,17.9-0.6,21.8-1.2
		c3.9-0.5,12.9-1.1,20.2-1.4c7.3-0.3,13.5-0.8,14-0.8c0.5-0.2,3-0.2,5.4,0c9,0.5,12.7-2.2,13.8-9.6c1.7-11.7,1.9-18.5,0.5-19.4
		c-0.8-0.5-0.5-1.4,0.6-2.2c1.7-1.1,1.6-1.4-0.5-1.4c-3.1,0-3.7-2.3-1.2-3.9c0.9-0.5,1.6-1.7,1.6-2.5c0-0.9-0.8-1.1-1.7-0.6
		c-0.9,0.6-1.6,0.2-1.2-0.9c0.2-1.2,0.2-6.8,0-12.4l-0.2-10.4l-5.8-1.2c-3.3-0.6-7-1.1-8.2-0.9c-1.2,0.2-3.4-0.2-4.7-0.8
		c-5-2-15.7-2.6-28.4-1.6c-6.7,0.5-9.3,0.2-9.9-1.4c-0.5-1.2-2.2-2.2-3.9-2.2c-1.6,0-2.6-0.6-2.2-1.4c0.5-0.8-1.6-1.4-4.7-1.4
		s-6.4-0.8-7.1-1.6c-0.9-0.9-2.6-1.2-3.7-0.8c-3.4,1.2-16.2-9.2-15.2-12.4c0.5-1.6-0.2-3.1-1.6-3.6c-2.2-0.8-2.2-1.4-0.2-5.4
		c3-5.8,6.5-7.5,14.5-7.3c4.5,0,6.5,0.8,6.5,2.2c0,2.6,2.6,2.8,3.4,0.3c0.8-2.3,3.1-2.6,22.1-3.6c7.6-0.3,15.1,0,16.5,0.8
		c1.6,0.8,3.3,0.9,3.9,0.3c0.5-0.6,6.7-1.2,13.7-1.4c7,0,13.5-0.3,14.3-0.3c0.9-0.2,1.7-4.2,1.7-9.5c0.2-6.4,0.9-10.3,2.8-12.1
		c3-3.4,3.1-5,0.5-5c-1.2,0-2-2-2.2-5.4c-0.2-3.1-1.1-6.5-2-7.8c-1.1-1.2-1.4-2.3-0.8-2.3c0.8,0,0.2-1.2-1.2-2.6
		c-1.7-2-2.3-5.3-2-11c0.3-4.5-0.2-8.5-0.8-9c-0.8-0.5-1.1-3.7-0.6-7.3c0.6-6.7,0.6-6.7-4.4-6.7c-2.8,0-6.4-0.5-8.1-1.2
		c-1.7-0.6-7.5-1.4-12.7-1.6c-5.4-0.3-10.7-1.2-11.7-2.2c-1.2-0.8-3.4-0.9-5.1-0.2c-4.7,1.9-5.4,1.7-4.4-1.1
		c0.8-2.3,0.5-2.3-3.1,0.2c-2.3,1.4-4.2,2-4.2,1.2c0-0.9-2.5-1.4-5.4-0.9c-3.1,0.3-5.4-0.2-5.4-1.1c0-0.8-1.1-1.6-2.3-1.6
		s-3.6-0.6-5.1-1.4c-1.4-0.8-3.9-1.9-5.4-2.3c-1.4-0.5-3.1-2.2-3.7-3.6c-0.6-1.6-2-3.9-3.3-5.1c-2-1.9-2.2-1.7-1.2,1.2
		c1.7,5,0,4.2-2.8-1.6c-3.1-6.1-3.1-9-0.2-9c1.4,0,2.3-1.4,2.3-3.9c0-3,0.9-4,4.4-4.7c2.3-0.5,6.7-1.7,9.8-2.6
		c3.1-0.9,10.3-1.4,16-0.9c5.6,0.3,10.4,0,10.6-0.6c0.6-1.9,40.1-3,40.1-1.1c0,0.9,1.1,0.6,2.3-0.8c3-2.8,3-5.6,0.2-5.6
		c-1.2,0-2.5-0.9-3-1.9c-0.9-3,0.6-7.6,2.2-6.5c0.8,0.5,1.4-0.3,1.4-1.6c0-1.4-0.6-2.5-1.6-2.5c-3.1,0-1.4-4.2,2.3-5.9
		c4.5-2,5.1-4.8,1.2-5.1c-6.7-0.5-7.5-0.8-7-2.8c0.2-1.1-0.8-3-2.2-4c-1.6-1.1-3-2.8-3.1-4c-0.8-4.8-1.7-8.5-2.6-10.7
		c-2.5-7-2.6-11.5-0.2-15.1c2.5-4,2.5-4-1.6-3.3c-2.3,0.5-4.5,0.2-5-0.5c-0.5-0.8,0-1.4,1.1-1.4c1.6,0,1.6-0.5,0.3-1.7
		c-1.2-1.2-1.2-3.1-0.3-5.6c0.8-2.2,1.1-4.5,0.6-5.3c-0.6-0.8-1.2-3-1.6-4.8c-0.5-1.9-1.4-3.7-2.2-4.2c-0.8-0.5-1.7-2.3-2-4
		c-0.3-1.7-1.4-3-2.3-2.8c-1.1,0.3-2.3-1.1-2.8-3.1c-1.4-5-4.4-11-6.2-12.3c-0.9-0.8-0.6-1.9,0.8-2.8c1.9-1.2,1.4-1.6-1.9-1.6
		c-2.5,0-4.4-0.6-4.4-1.2c0-0.8-3.9-3-8.5-4.8c-4.7-2-10.1-5.3-12-7.3c-2-2-4.5-3.7-5.4-3.7c-1.1,0-1.9-0.8-1.6-1.9
		c0.2-0.9-1.7-2.3-4.4-3c-2.5-0.6-7.6-2.5-11.2-4.4s-7.6-3.3-8.9-3.3c-1.2,0-2.8-0.8-3.3-1.7c-0.6-0.8-3-2.3-5.1-3.1
		c-3.1-1.2-3.6-1.9-2-3c1.4-0.8,1.7-2.3,0.9-4c-1.1-2.8-1.2-2.8-2.6,0.3c-1.4,3-2.2,3.1-7,1.7c-4.5-1.4-5.1-2.2-4.4-5.3
		c0.5-2,0.2-3.6-0.8-3.6c-0.8,0-1.6,1.4-1.6,3.1c0,3.7-2.6,4-7.1,0.9c-1.9-1.2-4.7-2.3-6.2-2.3s-5.4-0.5-8.4-0.9
		c-3-0.5-7.6-1.2-10.4-1.7c-3.4-0.5-5.3-1.9-6.1-4.2c-1.1-3.3-1.1-3.3-2.3-0.3c-0.6,1.7-1.2,2.3-1.2,1.6c-0.2-0.9-4.8-1.7-11.8-1.6
		c-8.4,0-11.7-0.6-11.7-1.9c0-2.5-1.9-2.6-4.4-0.2c-1.2,1.2-2.3,1.2-3.9,0c-1.6-1.2-4.4-1.4-9-0.6c-3.7,0.8-11.5,1.2-17.3,1.1
		c-5.9,0-10.6,0.5-10.6,1.4c0,0.8-0.5,0.9-0.9,0.5c-0.6-0.5-2.3-0.3-3.9,0.5c-1.7,0.9-3.1,1.1-3.7,0.2c-1.9-3.1-12.6,0.2-22.5,6.8
		c-5.6,3.7-12,7.3-14.3,7.8c-2.3,0.6-5,2-5.9,3.1c-1.1,1.2-4.2,3-7.1,3.9c-3,0.9-5.3,2.6-5.3,3.9c0,2.5-5.6,4.4-11.7,4
		c-3.4-0.2-4,0.2-2.5,1.2c1.9,1.1,1.2,2.6-3.1,8.2c-2.8,3.6-5.9,7.1-6.7,7.8c-0.8,0.5-1.6,1.9-1.9,3.1c-0.2,1.1-2.8,4.8-5.9,8.1
		c-5.9,6.5-6.5,7.9-4,9.5c2.3,1.4,1.9,4.4-0.6,3.4c-1.6-0.6-2.5,1.1-3.3,6.4c-0.6,4-1.7,8.1-2.3,8.9c-0.8,0.9-1.9,4-2.3,7
		c-0.5,3-1.7,6.2-2.6,7.3s-1.2,3.4-0.8,5.1c0.5,1.7,0.2,3.6-0.8,4c-0.8,0.5-2.2,2.8-3.1,5c-2.2,5.8-3.3,26.7-1.4,26.7
		c0.8,0,1.1,3,0.6,6.7c-0.5,3.6-0.8,8.1-0.8,10.1c0,1.9-0.6,3.4-1.4,3.4s-1.4,1.9-1.4,4c0,3-0.6,3.9-2.3,3.1c-3-1.1-3,0.5,0,3.7
		c1.9,2,3.9,2.3,10.4,1.4c4.5-0.6,11.2-0.5,14.9,0.3c3.7,0.8,10.3,1.4,14.8,1.2c4.5,0,9.8,0.3,12,0.9c2.2,0.5,5,1.1,6.2,1.2
		c1.2,0.2,2.8,0.9,3.3,1.7c1.6,2,22.5-1.1,22.1-3.4c-0.8-3.3,2.2-2,3.1,1.2c0.9,3.6,4.2,4.2,4.2,0.8c0-1.2,0.8-2.3,1.6-2.3
		c0.9,0,1.6,0.8,1.6,1.7c0,1.2,0.8,1.1,2.5-0.3c2.6-2.2,16.2-3.6,16.2-1.6c0,0.8,1.1,1.7,2.2,2.2c1.7,0.6,2,0.2,1.6-1.7
		c-0.8-2.3-0.6-2.3,0.9,0.2c0.9,1.4,2.5,2.6,3.4,2.6c2.2,0,8.4,7.3,11.8,14c3.4,7,3.7,21.8,0.3,21.9c-1.6,0-1.4,0.5,0.6,1.2
		c2.8,1.1,2.6,1.4-1.9,4c-2.8,1.7-5,3.6-5,4.2c0,0.6-2.2,1.2-4.8,1.2s-4.4-0.6-3.7-1.6c0.5-0.8,0.3-1.6-0.6-1.6
		c-0.8,0-1.9,0.6-2.5,1.4c-0.9,1.7-8.5,2.3-25.3,2c-7.9-0.2-12-0.9-13.7-2.6c-3-3-3.9-3-2.8,0c0.8,1.7-0.2,2.3-3.7,2.3
		c-2.6,0-5.3-0.8-5.8-1.6c-0.6-1.1-1.9-1.1-3.9,0c-4.5,2.5-6.5,1.9-5.4-1.6c0.5-1.7,0.3-4.4-0.6-5.8c-0.9-1.6-1.7-2-1.7-0.9
		c0,2.2-6.2,0.8-6.4-1.7c0-0.9-0.8,0-1.6,2c-1.2,3-2.2,3.4-5.8,2.6c-2.3-0.6-6.1-1.6-8.4-2c-2.3-0.5-3.9-1.4-3.4-2.2
		c1.1-1.9-1.1-1.7-3.9,0c-1.6,0.9-4.2,0.5-7.9-1.4c-6.8-3.4-15.1-3.6-16.3-0.3c-0.5,1.4-0.2,3,0.9,3.4c1.2,0.9,1.2,1.4,0,2.2
		c-2.3,1.6-2.2,7.1,0.3,7.1c1.1,0,1.9,2.3,1.9,6.1c0.2,5-0.3,5.8-2.6,5.1c-3.4-0.8-3.4-0.3-0.6,5c1.4,2.8,1.7,6.1,0.9,10.6
		c-0.8,3.6-0.9,7.5-0.5,8.5c0.5,1.2-0.5,3.6-1.9,5.1c-1.6,1.7-2.3,3.1-1.9,3.1s0.3,2.2-0.5,4.7c-0.8,3-0.8,4.7,0.2,4.7
		s1.4,3.6,1.1,8.1c-0.5,7.1,0,8.2,2.6,8.7c1.7,0.3,4.2,0.9,5.4,1.4c2.6,1.1,23.9,2.5,38.5,2.5c5.3,0.2,9.6,0.6,9.6,1.4
		s1.7,0.9,3.7,0.3c2-0.5,5.3-0.2,7,0.9c1.9,0.9,7,1.9,11.5,1.9c11.2,0.2,17.3,3.4,16,8.4c-1.1,4.4-0.5,4.7,2.8,1.2
		c2.3-2.2,2.5-1.9,2.6,2.8c0.2,2.8,0.6,6.8,1.2,9c1.4,5,0.3,9.3-2.3,9.3c-1.1,0-1.7,0.9-1.2,2c0.3,1.1-0.3,3.3-1.6,5
		c-2.2,2.8-2.3,2.8-2.5,0.5c0-1.9-1.2-2.8-3.9-2.8c-4.2,0-5.1,2.8-2,5.9c1.4,1.4,0.5,1.9-4.7,1.9c-3.6,0-6.5,0.8-6.5,1.6
		c0,0.9-1.1,1.6-2.5,1.6c-1.4,0-1.9-0.8-1.2-1.7c0.6-1.1,0.2-1.6-1.1-1.1c-1.2,0.5-3.1-0.2-4.2-1.4c-1.1-1.1-4.2-2-6.7-2
		c-2.6,0-6.7-1.1-9.2-2.3c-2.6-1.4-4.7-1.7-4.7-0.8c0,0.8-0.8,1.6-1.7,1.6c-2.5,0-6.1-4-6.1-6.8c0-1.4-0.8-2.5-1.7-2.5
		c-0.8,0-1.1,0.6-0.6,1.6c1.7,2.8-6.8,3.6-10.9,0.9c-3.4-2.2-3.9-2.3-3.9-0.2c0,2.8-1.9,3-4.4,0.5c-1.6-1.6-2.3-1.6-3.4,0.3
		c-1.4,2-1.7,2-3,0c-1.9-2.8-12.3-3.7-12.1-1.1c0.2,5.4-0.6,9-1.7,8.2c-0.8-0.5-1.2,4.4-1.2,10.6c0.2,10.6,0,11.3-3,10.7
		c-2.2-0.6-2.5-0.3-1.1,0.8c1.2,0.8,2.2,5.3,2.3,11.7c0.2,5.8,0.8,10.4,1.2,10.4c1.2,0,0.6,10.7-0.8,14.1c-0.9,2.2,0.8,2.3,13.8,2
		c10.3-0.2,15.2,0.3,15.7,1.4c0.5,1.2,5,1.9,12,2c12,0.2,21,1.7,23.8,3.9c1.2,0.9,2.2,0.6,2.8-1.1c0.8-1.9,2.3-2.3,5.9-1.9
		c2.6,0.5,7.1,0.3,9.9-0.3c3.4-0.8,5.4-0.6,5.9,0.6c0.5,1.1,1.2,0.9,2.3-0.5c1.2-2,2.2-2,5.9-0.2c2.3,1.1,5.1,2.2,5.9,2.5
		c6.7,1.6,14.8,6.8,14.8,9.8c0,0.9,1.1,1.7,2.5,1.7c1.2,0,2,0.6,1.6,1.4c-0.6,0.8-0.2,3.4,0.8,5.8c1.2,3.6,1.1,4.8-0.8,6.2
		c-1.4,0.9-2.5,3.4-2.5,5.4c0,8.2-16.3,16-27.5,13.1c-2.5-0.6-11-1.2-19.1-1.2c-8.1-0.2-15.9-0.9-17.1-1.9c-1.2-0.8-4-1.2-6.2-1.1
		c-2.2,0.3-6.1-0.3-8.5-1.4c-2.6-0.9-8.5-2.3-13.2-3c-4.7-0.8-11.7-2-15.4-2.8c-7.5-1.7-11-1.1-11,1.9c0,0.9-1.1,3.7-2.3,6.2
		c-2,3.9-2.2,4.8-0.2,7c1.7,2,1.9,3.1,0.5,5.6c-2.2,3.7-3.1,9-1.6,8.1c0.8-0.5,1.4,0.9,1.4,3c0.2,2-0.2,3.7-0.8,3.7
		c-0.6,0-1.2,6.1-1.2,13.7c0,7.5-0.5,15.9-1.2,18.7c-0.8,3.3-0.6,5,0.6,5c0.9,0,1.7,1.7,1.7,3.9c0,2.2,0.5,3.9,1.2,3.9
		c10.9,0.8,16.8,0.6,15.4-0.3s-1.2-1.2,0.3-1.2c1.2,0,3.6,1.1,5.1,2.6c2.5,2.3,3.1,2.3,5.6,0.2c2.2-2,6.5-2.3,24.4-2
		c22.2,0.5,24.9,0.6,28.4,3c1.1,0.6,2.5,0.9,3,0.5c0.5-0.5,3.6,0.8,6.8,3c3.3,2,6.7,3.7,7.5,3.7s1.7,1.1,2.3,2.3
		c0.5,1.2,1.7,2.2,2.8,2c1.1-0.3,2,0.6,2,1.9c0,1.2,0.5,2.6,1.1,3.1c1.4,1.1,1.9,15.7,0.5,19.9c-1.2,3.7-4.7,4.7-5.9,1.6
		c-0.6-1.6-1.1-1.6-2.8,0c-1.7,1.6-1.7,1.9,0.3,1.9c1.1,0.2,0.5,1.1-1.7,2.2c-2.6,1.6-4.7,1.7-6.7,0.8c-1.4-0.9-3.4-1.1-4.4-0.6
		c-0.8,0.6-2.6,0.2-4-1.1c-2.2-1.7-2.6-1.7-3.3,0.2c-0.6,1.7-0.9,1.7-1.9,0c-1.1-1.6-1.9-1.6-3.9,0.2c-1.7,1.4-3,1.6-3.6,0.6
		s-6.4-1.6-12.7-1.4c-6.4,0-13.1-0.5-14.8-1.4c-2-0.9-3.1-0.8-3.6,0.5c-0.3,0.9-1.1,1.4-1.7,0.9c-0.8-0.3-4.8-1.1-9-1.4
		c-4.2-0.5-8.9-1.2-10.1-1.7c-1.4-0.6-3-0.3-3.6,0.6c-0.5,0.9-2.6,1.2-4.8,0.8c-2.6-0.8-3.7-0.3-3.7,1.4c0,1.2,0.9,2.8,2,3.1
		c1.2,0.6,1.4,1.2,0.2,2.2c-0.9,0.6-2,2.6-2.5,4.5c-0.6,2.6-0.2,3.1,2.6,2.5c3.3-0.6,3.6-0.2,2.8,4.8c-0.3,3,0,5.9,0.9,6.5
		c2.3,1.2,0.3,8.9-2.8,11.2c-2.2,1.7-2,1.9,1.1,2c1.9,0,3.4-0.8,3.4-1.9c0-0.9,0.5-1.4,0.9-0.8c1.6,1.6,2,12,0.5,12.9
		c-0.8,0.5-0.9,1.7-0.3,2.6c0.6,1.1,1.2,4.7,1.4,8.1c0.2,9.3,2.2,16.3,4.7,16.3c1.2,0,2.2,0.8,2.2,1.6c0,0.9-0.6,1.6-1.2,1.6
		c-0.8,0-1.2,3.4-1.2,7.8c0.2,4.2,0.6,7.8,1.2,7.8c1.4,0,0.6,13.5-0.8,14.9c-2,2-1.1,3.7,2,3.7c3,0,3.3,0.6,3.7,5.9
		c0.2,1.1,0.9,2.5,1.9,3.1c0.9,0.6,2.3,3.6,3,6.5s1.9,5.9,2.6,6.4c0.8,0.6,1.6,4.2,1.6,8.2c0.2,4.8,0.8,7.1,2.3,7.1
		c1.1,0,2,0.8,2,1.7c0,0.8,0.8,1.1,1.9,0.5c0.9-0.6,1.2-0.5,0.6,0.6c-0.9,1.6,1.7,9.3,3.7,11.2c2.5,2.2,7.6,10.6,6.8,11.3
		c-0.5,0.5,0.6,1.2,2.3,1.9c1.9,0.5,3.3,1.7,3.3,2.6c0,2.2,5.6,9,6.7,8.1c0.5-0.5,1.2,0.6,1.9,2.3c0.5,1.9,1.7,3.3,2.6,3.3
		c0.8,0,3.3,1.4,5.4,3.1c2.2,1.7,3.6,3.1,3,3.1c-0.5,0,0.5,1.4,2.2,3.1c1.7,1.7,3.9,3.1,4.8,3.1c3.1,0,10.7,5.3,10.7,7.5
		c0,1.4,0.8,1.6,3,0.3c3.9-2,3.7-2,7.9,1.6c2.6,2.3,4,2.6,4.8,1.4s3.4-0.5,9,3.1c4.4,2.6,8.7,4.8,9.6,4.8c0.8,0,1.1,0.8,0.6,1.6
		c-1.2,2.2,2.2,6.5,4.2,5.3c0.8-0.5,0.8-1.7-0.3-3c-2.6-3.1,2.6-4.2,7-1.4c2,1.4,6.4,2.3,9.6,2.2c3.3-0.2,6.7-0.2,7.5,0.2
		c0.9,0.2,3.3,0.5,5.4,0.8c2.2,0.3,6.2,0.8,9.2,1.2c3,0.5,6.1,0.3,7-0.5c1.1-0.9,2.8-0.9,3.9-0.3c1.1,0.8,3.4,0.9,5.1,0.5
		c1.7-0.5,3.6,0,4.2,0.9c0.8,1.2,2.3,1.1,5.4-0.5c2.8-1.6,5.3-1.9,6.8-0.9c1.6,0.8,4.2,0.6,6.5-0.2c2.2-0.9,5.6-1.9,7.8-2
		c2.2-0.3,3-0.2,2,0.3c-1.6,0.5-1.6,1.6-0.3,3.7c0.8,1.7,2.2,2.6,3.1,2.2c0.8-0.6,2.2-0.5,3.3,0.2c1.2,0.8,0.9,1.6-1.2,2.3
		c-2.6,1.1-2.6,1.2,0.6,1.2C398.5,10441.6,400.2,10440.7,400.2,10439.8z M654.6,9952.4c0.3-2.2-0.6-4.5-2.2-5.6
		c-2.3-1.9-2.3-2-0.2-3c2.2-0.8,2.5-2.8,1.7-12.3c-2-26.9-2.5-29.7-5-31.2c-1.4-0.9-1.7-3.1-0.9-6.8c0.8-4,0.6-5.3-0.8-4.5
		c-1.4,0.9-1.7-1.4-1.2-9c0.5-5.8,0.2-9.8-0.6-9.3c-0.8,0.5-0.9-0.3-0.5-1.7c0.6-1.2,0.2-3.4-0.9-4.7c-1.4-1.7-1.6-2.8-0.2-4.4
		c0.9-1.2,1.2-2.5,0.8-3.1c-0.5-0.5-0.2-2.3,0.8-4c1.6-2.8,1.4-3.1-0.9-2.2c-2.3,0.9-2.5,0.6-0.8-1.4c1.7-2.2,1.6-2.8-0.8-4.2
		c-2.2-1.2-2.3-1.9-0.9-3.4c1.2-1.2,1.4-2.6,0.6-3.6c-1.7-2-0.3-10.3,1.6-10.3c3,0,1.1-2.5-3.4-4.5c-3.4-1.4-4.2-2.5-2.8-3.3
		c1.6-1.1,1.4-2.2-0.8-5.3c-1.4-2.3-2.2-4.8-1.7-5.6c0.5-0.9,0.3-1.6-0.6-1.6c-0.9,0-1.4-2-1.1-4.5c0.3-3.3,0-4.4-1.6-3.7
		c-2.5,0.9-3-3.6-0.6-5c0.9-0.6,1.1-1.9,0.5-2.8c-1.6-2.5-0.6-7.8,1.6-9.2c1.4-0.8,1.4-1.6-0.2-3.1c-1.4-1.4-1.9-1.4-1.9,0.3
		c0,5.3-3.1-1.4-3.6-7.6c-0.2-3.6-1.2-7.1-2.3-7.8c-2.5-1.4-0.6-6.7,1.9-5.3c0.9,0.5,0.2-0.8-1.7-3c-2-2-3.6-4.8-3.6-6.2
		s-0.9-3.3-2-4.2c-1.2-0.9-1.9-3.6-1.4-6.4c0.3-2.6,0-4.7-0.6-4.5c-0.8,0.2-2.5,0.2-3.7,0c-1.9-0.2-1.9-0.5,0.2-2.6
		c2.5-2.5,2.2-9.9-0.3-9.9c-0.8,0-1.4-1.2-1.4-2.8c0-1.6-1.1-4.4-2.5-6.2c-1.4-2-2.2-4-1.7-4.4c0.5-0.5-0.6-2.3-2.3-4
		c-2.3-2.3-2.6-3.4-1.2-5.1c1.2-1.6,1.2-3,0-5.4c-0.9-1.7-1.4-3.7-0.9-4.5c0.5-0.8-0.9-3.3-3-5.8c-2.2-2.5-3.6-5.3-3.3-6.4
		c0.5-0.9-0.3-2.2-1.6-2.6c-1.2-0.5-2.2-2.5-2.2-4.7c0-2-0.9-4-2.2-4.5c-1.4-0.6-1.9-2.2-1.4-3.9c0.5-2.2-0.2-3.4-2.5-4.2
		c-3.6-1.1-4.2-3.1-1.7-4.7c3.1-1.9,1.7-5.1-1.9-4.4c-2.8,0.6-3.1,0.5-1.9-0.9c2-2.2,1.1-7.9-1.1-7.9c-0.8,0-1.4-1.1-1.4-2.3
		s-1.4-3.6-3.1-5c-3.1-2.8-4-5.9-1.9-7.1c0.6-0.3,0.3-0.3-0.8-0.2c-2.3,0.6-7.1-6.7-5.8-8.9c0.6-1.1,0-1.4-2-0.8
		c-3.9,1.2-16.3-10.4-14.9-14c0.8-2,0.3-2.3-2.2-1.6c-3.4,1.1-5.1-0.2-10.6-7.8c-1.7-2.3-4.5-5.6-6.1-7.1c-2.2-2-2.5-2.8-0.9-2.8
		c1.4,0,0.9-1.1-1.2-3.1c-1.9-1.9-3.4-4.5-3.4-6.1c0-1.6-1.7-3.6-3.9-4.5c-2.2-0.9-3.9-3-3.9-4.2c0-1.4-0.8-2-1.7-1.4
		c-2.3,1.4-9.3-2.5-8.1-4.5c0.5-0.9,0.2-1.1-0.8-0.5c-2.2,1.2-12.7-5.3-12.7-7.9c0-1.4-1.1-1.6-3.4-0.6c-5,1.9-12.1-2-12.1-6.5
		c-0.2-3.1-0.3-3.1-1.7-0.6c-1.9,3.3-5.9,2.5-13.1-2.6c-3.9-2.8-17.9-6.2-30.9-7.5c-1.6-0.2-4.8-2.2-7.3-4.5
		c-2.5-2.3-4.5-3.6-4.5-2.8c0,2.2-2.6,1.7-5.3-0.9c-1.2-1.2-3.1-2.3-4.2-2.3c-2.2,0-8.2-6.2-9.6-9.9c-0.6-1.4-1.7-2.5-2.6-2.5
		s-1.4,0.6-0.9,1.2c1.4,2.5-13.4,5.1-19,3.6c-4.2-1.2-5-1.2-3.6,0.5c2.3,2.8,0.3,4.2-3.3,2.3c-1.6-0.9-7.6-1.9-13.2-2.2
		c-5.6-0.3-10.7-1.2-11.2-2.2c-0.6-0.9-3.4-0.3-7.1,1.9c-5.4,3-7.3,3.3-14.8,2.2c-11-1.6-9.8-1.6-23.6-0.6
		c-6.5,0.5-12.6,1.2-13.5,1.9c-2.5,1.4-8.2-0.6-7-2.6c1.4-2.2-2.2-4.2-5.8-3.3c-2.6,0.8-3.7,3.3-3.1,7.1c0.2,1.2-1.1,1.4-5.6,0.2
		c-2-0.6-3.6-2-3.6-3.4c0-2-0.3-2.2-1.9-0.5c-1.7,1.6-1.4,2.3,1.1,3.7c3,1.7,2.8,1.9-1.6,2.8c-2.5,0.6-7.6,1.1-11.2,1.2
		c-3.6,0-6.7,0.9-7,1.9c-0.3,0.9-2.3,2-4.4,2.3c-6.2,0.8-14,3.4-18.2,6.1c-2,1.4-4.4,2-5.1,1.6c-0.9-0.5-1.6-0.2-1.6,0.9
		c0,1.2-2.2,1.6-7.3,0.8c-8.4-0.9-9.8-0.3-12.4,5.4c-1.6,3.6-8.9,8.2-17.9,11.2c-1.6,0.6-2.8,2-2.8,3.3c0,1.1-1.1,2.5-2.3,3.1
		c-1.2,0.5-3.1,2.5-4,4.4c-4,9-10.7,18.3-13.2,18.3c-1.2,0-2.2,0.8-2.2,1.6c0,0.9-1.1,1.6-2.5,1.6c-3.4,0-11.3,7.8-10.4,10.4
		c0.5,1.2-0.3,2-2.5,2c-2,0-2.8,0.8-2.3,2c0.3,1.1-0.9,3-3.1,4.2c-2.2,1.1-3.7,2.6-3.6,3.6c0.2,0.9-1.4,2.5-3.6,3.7
		c-2.2,1.1-3,2-1.7,2c1.9,0,1.9,0.5-0.2,2.8c-3.1,3.6-5,8.2-4.5,11.7c0.2,1.4-0.3,2.6-1.2,2.6c-0.8,0-3.4,4.2-5.8,9.2
		c-3,6.2-4.8,8.7-5.8,7.5c-0.8-1.1-0.9-0.6-0.5,1.4c0.6,1.9-0.6,6.2-3,10.9c-2.2,4.2-4.4,11.2-4.7,15.7c-0.3,4.4-1.2,9.3-2.2,10.9
		c-0.8,1.6-2.6,5.6-4,9c-4.2,9.9-7.6,17.1-9,18c-0.8,0.6-1.6,3-1.6,5.4c-0.2,2.5-0.9,5-1.7,5.6c-0.9,0.6-0.8,1.9,0.3,3.1
		c0.9,1.2,1.4,4.5,0.9,7.5s-1.1,6.5-1.2,7.8c-0.2,1.4-0.8,3.3-1.6,4.4c-0.6,0.9-0.6,2.6-0.2,3.6c0.6,0.8,0,2.8-1.2,4.2
		c-1.4,1.6-2.8,4.7-3.3,7c-0.3,2.3-1.2,5.6-1.7,7.3c-0.6,1.7-0.3,3.1,0.6,3.1s0.9,1.9,0,5.4c-0.9,3.1-1.1,7-0.6,8.5
		c1.4,4.4-0.5,9.3-3.4,9.3c-1.4,0-2,0.5-1.6,1.1c0.6,0.5,0.3,1.9-0.6,3.1c-1.4,1.6-1.1,2,1.6,2c2,0,3,0.6,2.5,1.6
		c-0.6,0.9-2.5,1.2-4.4,0.8c-3.1-0.9-3.3-0.8-0.8,1.2c2.3,1.9,2.5,2.8,0.8,7.5c-0.9,3-2.3,5.6-2.8,6.1c-2,1.7-3,7.6-1.4,8.5
		c1.1,0.6,1.2,1.7,0.3,2.8s-2,5.8-2.5,10.4c-2,18.2-3,24.1-4.8,28.6c-0.8,1.7-0.5,3.3,0.6,3.9c1.4,0.9,1.4,2.2,0,5.3
		c-1.1,2.3-2.5,3.7-3.4,3.1c-0.9-0.6-1.1-0.2-0.3,1.1c0.6,1.1,1.6,6.2,1.7,11.5c0.3,5.3,0.6,10.3,0.8,11c0.5,3-1.7,13.8-3,14.8
		c-0.6,0.5-1.2,2.5-1.2,4.7s-0.5,6.1-1.1,8.5c-1.9,7.9,0.3,9.3,10.9,7.5c10.6-2,25.5-1.2,27,1.2c0.6,1.1,2.2,1.4,3.4,0.9
		c1.2-0.5,2.8-0.5,3.4,0.2c0.5,0.6,4.4,1.2,8.5,1.4c8.9,0.3,11.8-2.2,11.2-9c-0.5-3.4,0.2-4.5,2.3-4.7c1.6,0,2-0.5,0.9-0.9
		c-2.3-0.9-2.6-5.8-0.5-9.8c1.2-2.3,0.9-2.6-1.6-2c-1.7,0.5-3.1,0-3.1-0.9s1.1-1.7,2.3-1.7c2.2,0,2.3-0.6,2.3-16.6
		c0-1.9,0.6-3.7,1.4-4.2c0.8-0.5,0.9-4,0.6-7.8c-0.5-3.9-0.3-8.2,0.3-9.8c1.6-3.3,1.4-3.1,0.2-8.7c-0.6-3-0.5-4,0.6-3.4
		c1.7,1.1,2.2-2.8,0.5-4.5c-0.6-0.6-1.4-2.8-1.7-5c-0.3-2.8,0.2-3.7,1.4-2.8c1.4,0.8,1.6-0.5,0.8-4.7c-0.8-3.6-0.5-6.7,0.6-7.9
		c1.2-1.6,1.1-2.5-1.1-3.7c-2.6-1.6-2.6-1.6,0-1.7c1.6,0,2.5-0.6,1.9-1.4c-0.5-0.9-1.1-4.8-1.4-9c-0.3-4-0.2-6.5,0.2-5.4
		c0.5,0.9,2.2,1.9,4,1.9c3.1,0,3.1,0,0.2-2.3s-3-2.3,0-4.7c2.6-2,2.8-2.3,0.5-2.3c-3.6,0-3.4-4.7,0.2-4.8c1.4,0,1.9-0.5,1.1-0.8
		c-1.1-0.5-1.6-5.6-1.4-12.9c0.2-6.8-0.5-14-1.6-16c-1.6-3.1-1.4-3.7,1.4-5.1c1.7-0.9,3.1-2.6,3.1-3.9s1.1-3.3,2.3-4.4
		c2-1.7,1.9-1.9-1.1-1.1c-4,1.1-4.7-1.1-1.2-4.5c1.2-1.2,2.3-4.7,2.5-7.5c0-4.4,0.3-4.7,1.4-2c1.1,2.2,1.2,0.6,0.9-5
		c-0.3-4.5,0-8.5,0.5-9.2c0.5-0.5,0.9-5.9,0.9-12.1c0-8.7,0.8-12.4,3.6-16.9c1.9-3.3,3.4-7.1,3.4-8.5c0-1.4,1.4-4.7,3-7
		c1.6-2.5,2.5-5.9,2-7.6c-0.5-2.2,0.2-3.3,2.6-3.9c2.5-0.6,3.3-1.7,2.8-3.9c-0.5-1.7,0.3-3.4,2.3-4.5c1.7-0.9,2.6-2.6,2.2-3.9
		s-0.3-2,0.5-1.6c2.2,1.4,11-8.7,11-12.6c0-2,1.2-4,2.8-4.7c1.4-0.6,4.4-2.8,6.5-5c2.2-2.3,8.1-6.2,12.9-8.5
		c4.8-2.5,8.9-5.1,8.9-5.6c0-0.6,1.4-1.6,3.1-2c1.7-0.5,3.1-1.7,3.1-3s2.8-3.9,6.4-5.9c3.4-2.2,7.6-5.1,9.2-6.8
		c1.6-1.6,4.7-2.8,6.8-2.8s5.1-1.4,6.5-3c1.4-1.7,3.6-3,4.8-3c1.1,0,2-0.6,2-1.4s4-2.6,9-4c4.8-1.4,10.9-3.4,13.2-4.2
		c2.3-0.9,4.8-1.2,5.3-0.6c0.6,0.5,2.5,0,4.2-1.1c4.7-2.8,13.4-3.4,13.4-0.8c0.2,1.4,0.8,1.1,2.2-0.8c4-5.3,15.4-6.4,34.3-3.4
		c8.4,1.4,9.8,1.2,17.7-0.6c7.5-2,28-1.9,30.6,0.2c1.1,0.8,2.5,1.2,3.1,0.9c2.5-0.6,12.7,1.9,17.3,4.2c2.3,1.2,7.5,2.6,11.3,3.3
		c3.9,0.6,12.1,3.4,18.3,6.2c6.2,3,13.4,5.3,16,5.3c9,0,18.2,3.3,19.3,6.7c0.6,2.3,1.2,2.8,1.9,1.2c0.5-1.2,1.2-1.4,1.9-0.5
		c0.5,0.8,3.4,3,6.4,4.7c3,1.7,5.3,3.9,5,5c-0.2,1.1,0.8,1.4,2.5,0.9c3.6-1.2,13.2,2.6,20,7.8c2.6,2,5.6,3.7,6.5,3.7
		s1.7,0.8,1.7,1.6c0,0.9,1.2,1.6,2.8,1.6c6.1,0,21.8,11.8,32.6,24.6c2,2.3,7.3,8.4,11.7,13.4c10.7,12.1,12.3,14.6,11.2,16.6
		c-0.6,0.9,0.3,3.1,1.9,5c3.6,3.9,4.8,7.1,6.1,14.9c0.5,3.1,1.4,5.8,1.9,6.1c3.1,1.2,4.7,3.1,5.6,7c0.8,3.3,0.5,4.2-1.4,4.2
		s-1.2,1.6,2.2,5.9c4,5,4.5,6.7,3.9,13.2c-0.3,4,0,8.7,0.8,10.3c0.9,1.6,1.9,4.5,2.3,6.5c3.1,13.5,3.9,19,3.3,20
		c-0.5,0.8,0,1.9,0.8,2.3c1.1,0.6,1.2,3,0.8,5.6c-0.8,3.3-0.3,4.8,1.4,5.4c1.6,0.6,2.5,2.8,2.5,5.6c0,2.5-0.6,4.2-1.4,3.6
		c-1.6-0.9-1.2,10.6,0.3,14.8c0.5,1.2,1.4,4.8,1.9,7.8c2.6,14.3,2.6,15.5,0.3,16.5c-2,0.8-2.2,1.6-0.8,4.7c0.9,2,2.2,3.7,2.6,3.7
		s0.9,2.2,1.1,4.7c0.2,2.6-0.5,4.7-1.2,4.7s-0.3,1.6,0.9,3.4c3.4,4.7,3.1,7.5-0.6,7.5c-3.6,0-4.2,2.8-0.9,4s5.3,8.1,5.3,17.1
		c-0.2,4.4,0.9,9.9,2.2,12.6c2.5,5.1,2.5,8.4,0,14.9c-1.4,3.3-1.4,5,0,7.3c1.4,2,1.4,3.9,0.2,6.5c-1.4,3.3-1.2,4.7,2.2,10.4
		c0.3,0.3,2.3,0.9,4.7,1.1c6.2,0.8,12,1.7,17.9,3.1c2.8,0.6,6.1,1.1,7.1,0.8c0.9-0.2,1.9,0.6,1.9,1.7c0,1.4,2.6,2,9,2
		C653.4,9955.9,654.2,9955.6,654.6,9952.4z"/>
</g>
</svg>
