<?xml version="1.0" encoding="utf-8"?>
<!-- Generator: Adobe Illustrator 24.2.3, SVG Export Plug-In . SVG Version: 6.00 Build 0)  -->
<svg version="1.1" id="Layer_1" xmlns="http://www.w3.org/2000/svg" xmlns:xlink="http://www.w3.org/1999/xlink" x="0px" y="0px"
	 viewBox="0 0 63.5 122.7" style="enable-background:new 0 0 63.5 122.7;" xml:space="preserve">
<g transform="translate(0.000000,1050.000000) scale(0.100000,-0.100000)">
	<path d="M319.4,10499.2c-0.4-0.4-3.2-1-6.2-1.3s-5.6-1.1-5.8-1.8c-0.3-0.8-1.5-1.3-2.9-1.3c-1.3,0-3.7-1.5-5.3-3.4
		c-1.5-1.9-5-5.9-7.8-9.1c-7.9-9.1-10.6-13.5-11.5-18.9c-0.5-2.9-1.5-5.2-2.4-5.2c-1.6,0-4-11-2.6-12.2c0.4-0.4-1-4-3-8.1
		c-2.1-4-3.8-8.3-3.8-9.6s-1.1-4.8-2.5-7.8c-2-4.3-2.6-9-3-20.4c-0.3-11.6-0.9-15.3-2.5-16.9c-2.4-2.4-2.6-7.1-0.6-9.1
		c1.1-1.1,1-2.6-0.6-6.1c-1.3-2.5-1.9-5.4-1.5-6.6c0.5-1.1-0.3-6.1-1.6-11c-1.9-6.8-2.5-13.1-2.5-26.6c0-11-0.8-21.1-1.9-26.5
		c-1.1-4.8-2-11.1-2-14c0-8.1-4.8-11-7.4-4.5c-2.8,6.6-6.4,12.9-7.6,12.9c-0.6,0-1.5,2.1-1.9,4.8c-1.9,10.7-3.9,17.4-5.9,19.8
		c-1.4,1.6-1.8,3.4-1.1,5c1,2.8,0.8,3.9-2.4,11.4c-1.3,2.8-3,7.6-3.9,10.6c-1.1,3.4-2.6,5.8-4.2,6.2c-1.5,0.4-2,1.3-1.4,2.6
		c2.1,4.5-1.1,21.1-5.6,27.9c-2,3.2-2.8,6.3-2.8,11.5c0,7.1-2.1,11.9-5.2,11.9c-1.3,0-1.6,1.6-1.4,5.4c0.4,4,0,5.3-1.5,5.3
		c-1.1,0-2.4,1.9-3.3,5c-0.8,2.6-1.8,5.3-2.4,5.6c-0.6,0.4-1.5,2.1-1.9,3.9c-1.3,4.9-9.8,16.5-14.6,19.9c-6.6,4.4-8.7,4.9-18.5,5
		c-8.6,0.1-9.2-0.1-12.9-4c-2.3-2.5-3.9-5.6-3.9-7.6c0-1.8-0.8-4.4-1.6-5.9c-8.8-15.3-9.3-17.5-6.6-31.4c0.4-2,0.1-7.7-0.6-12.6
		c-0.8-4.8-1.4-10.9-1.4-13.2c0.1-6.3,2.9-15.1,4.8-15.1c1.1,0,1.4-1,0.9-3c-0.4-1.8,0.3-4.8,1.5-7.2c1.4-2.9,2.4-8.1,2.6-15.5
		c0.3-6.2,1-12.2,1.8-13.5c0.6-1.3,1.1-3.7,1.1-5.4c0-1.9,0.5-4.3,1.1-5.6c2.4-4.4,5-13.8,5.7-19.6c0.4-3.3,1.4-7.3,2.3-8.8
		c0.9-1.5,1.6-6.4,1.6-11c0-4.5,0.5-9.3,0.9-10.7c0.5-1.4,0.5-3.3-0.1-4.2c-0.9-1.4-1.8-1.1-4.2,1.3c-11.1,10.2-12.5,11.2-15,10.5
		c-2-0.8-2.9,0.1-4.5,4.3c-1.1,2.9-2.5,5.2-3.2,5.2c-0.5,0-1,1.4-1,3.2c0,2.3-1.4,4-4.7,6.2c-2.6,1.8-6.8,5.2-9.2,7.7
		c-2.4,2.4-5,4.4-5.9,4.4s-2.5,1.4-3.7,3.2s-3.4,3.5-4.9,3.9c-1.6,0.4-5.3,3.3-8.2,6.3c-2.8,3-6.2,5.6-7.4,5.6s-3.2,1-4.3,2.3
		s-4.7,3.5-7.8,5.2c-3.2,1.5-5.7,3.4-5.7,4s-2.3,2.1-5,3.3c-3.3,1.5-5.4,3.4-6.2,5.7c-0.9,2.6-2.1,3.5-4.4,3.5
		c-2.9,0-9.1,2.1-15.3,5.4c-10.2,5.3-26.6-3.4-29-15.5c-0.4-1.8-1.5-6.6-2.4-10.7c-1.9-8-1.6-16.7,0.5-20.7c0.6-1.4,1.3-4,1.3-6.1
		c0-1.9,1.8-7.4,3.8-12.4c2.1-4.8,3.8-9.5,3.8-10.3c0-0.9,1.1-2.1,2.5-2.9s2.5-2.1,2.5-3.2c0-1,2.5-4.3,5.6-7.2
		c3-3,6.9-8.2,8.6-11.7c1.8-3.4,4-7.9,5.2-10.1c3.5-6.4,4.4-8.7,5.2-12.1c0.4-1.8,2.6-5.7,4.9-8.8c2.4-3,4.8-6.9,5.3-8.7
		s2.3-4.8,3.9-6.7c1.6-2,3-4.7,3-6.1c0-1.4,0.9-2.8,1.9-3.2s3.9-5,6.6-10.3c2.5-5.4,5.4-10.2,6.3-10.7c3.3-2,13.5-25.2,13.6-30.8
		c0-2.9,1-6.2,2.1-7.6c1.1-1.3,2.5-5.7,3-10.2c0.6-5.9,1.5-8.5,3.7-10.1c3.7-2.9,5.7-6.8,5.7-11.2c0-2,0.9-4.9,2-6.4
		c1-1.5,1.5-3.3,1.1-4c-0.6-1,2.8-11.1,5.8-16.8c1.1-2,2.1-8.6,4.3-27.6c0.3-2.5,1-5.7,1.8-6.9c3.9-7.7,6.3-14.4,6.9-19.3
		c0.4-3.2,1.3-8.5,2-12c2-10.3,5.2-29.8,6.2-37.9c0.5-4.2,1.5-8.7,2.3-10.1c0.8-1.4,1.4-5.3,1.4-8.8c0-3.4,1.1-9.8,2.6-14.1
		s2.6-8.6,2.6-9.6c0-0.9,1.4-4.7,3.2-8.2c1.8-3.7,3.2-7.6,3.2-9c0-1.3,0.9-3,1.9-3.9s1.9-2.9,1.9-4.5c0-1.5,1.1-4.8,2.5-7.2
		c2-3.5,2.3-5,1.3-7.7c-0.6-1.9-1.3-5.3-1.3-7.4c0-2.3-0.9-5.2-1.9-6.4c-1-1.4-1.9-3.9-1.9-5.8c0-1.8-0.9-4.5-2-6.1
		c-3-4.4-3.4-8.7-0.9-10.3c1.6-1,1.8-1.6,0.8-2c-2-0.9-2.1-4.5-0.1-6.6c1.1-1.1,0.9-1.6-1-2.3c-3.5-1.4-4-2.8-3.4-8.2
		c0.4-2.5,0.1-6.6-0.6-8.7c-1-2.7-1-4.9-0.1-7.2c0.6-1.9,0.9-4.3,0.4-5.3c-0.5-1.1-1-2.4-1-2.9c-0.3-2.1-2.4-2.7-3.4-0.8
		c-1.6,2.9-8.1,1.8-12.9-2.3c-1.9-1.6-4.2-2.7-5-2.3c-0.9,0.3-2.3-1.3-3.3-3.5c-0.9-2.3-2.5-5.9-3.5-8.2s-1.9-7.1-1.9-10.7
		s0-7.8,0-9.2s0-7.8,0.1-14.3c0.1-8.1-0.4-13.8-1.9-18.5c-1.9-5.7-2-8.1-0.9-13c0.8-3.3,1.4-11,1.5-17.3c0.1-8.8,0.6-11.7,2.3-12.9
		c1.4-1.1,1.6-2,0.8-3.2c-0.8-0.9-1.6-4.4-2-7.7c-0.9-9,4.3-16.3,16.2-22.5c8.7-4.4,8.8-4.7,9.7-10.5c0.5-3.4,0-9.8-1-15.5
		c-5-27.9-5.3-36.2-0.8-37.4c1.4-0.4,1.1-0.6-1-0.8c-4.8-0.3-5.8-1.5-5.8-7.7c0-7.1-1.5-29.3-2.5-35.8c-0.5-3-0.3-5.2,0.6-5.8
		c1.1-0.6,1.1-4.9,0-17.8c-1.8-20.4-1.8-24.9-0.6-34.2c0.5-4.4,0.4-9.2-0.6-12.6c-2.1-7.8-2.5-16.2-1-20.9c1-3.2,0.9-6.2-0.6-12.6
		c-1.3-5.2-2-13.5-1.9-21.7c0-7.3,0.1-20.6,0.3-29.7c0.3-32.8-0.5-49.3-2.5-54.8c-0.8-1.6-0.6-6.3,0-11.4c0.9-5.7,0.8-10.5-0.1-15.3
		c-0.9-4.5-1-9.8-0.3-15.6c0.5-4.8,0.6-9.8,0.1-11.2s-0.4-5.2,0.3-8.3c0.9-3.9,0.8-6.3-0.3-7.9c-1.4-2.1,0.8-2.3,49.7-2.3h51.1
		l0.5,2.8c0.4,1.6,0.9,5.6,1.3,8.7c1.1,10.5,6.1,15.8,15.8,17.2c6.6,1,13.1,0.4,16.7-1.5c2-1,5.4-2.9,7.7-4
		c4.8-2.5,9.7-7.8,9.8-10.6c0-1,0.8-2.7,1.5-3.4c1.3-1.3,1.3-2.1,0-4.2c-0.9-1.4-1.3-3-0.9-3.7c0.5-0.8,53.2-1.3,142.2-1.3h141.5
		l-0.9,19.8c-0.5,12-1.5,20.6-2.4,21.6c-0.8,1-1.6,6.9-1.8,13.4c-0.3,6.3-1,13.6-1.8,16.2c-1.3,3.7-1.1,6.4,0,11.9
		c1.6,7.4,0.8,11.4-6.3,26.4c-2.1,4.8-2.1,5.6-0.4,11.4c1.8,5.9,1.9,13.6,0.3,16.4c-1.4,2.4-2.1,7.7-2.9,19.4
		c-0.5,6.6-1.3,13.1-1.9,14.5c-0.6,1.6-0.3,4,0.9,6.2c1.4,2.8,1.5,4.5,0.5,7.4c-0.8,2.1-1.4,6.2-1.4,8.8c0,2.8-0.6,6.1-1.4,7.4
		c-0.6,1.4-1.3,4.9-1.3,7.8c0,2.9-1.3,18-2.6,33.7c-2,21.2-3.2,28.8-4.5,29.9c-1.1,1-1.5,2.3-0.9,3.8c1.4,3.2,0.8,10.5-1.3,14.3
		c-2.5,5.2-3.3,17.9-1.3,21.8c1.8,3.4,1.4,7.2-0.6,7.2c-0.5,0-1.9,5.6-3,12.2c-1.3,6.8-3,16.4-4,21.5c-1.3,5.6-1.5,9.8-0.9,11.1
		c1.8,3,9.5-4.5,15-15c5.2-9.6,12.5-18,16.2-18.7c1.4-0.3,3-2,3.8-4.4c0.8-2.3,2.4-5.3,3.7-6.8c2.1-2.5,2.4-2.5,3.9-0.4
		c1.1,1.5,1.9,1.8,2.5,0.8c0.5-0.9,0.5-2,0.1-2.8c-0.4-0.6,1.4-3.4,4.2-5.9c9.5-9.2,15.4-14.3,16.7-14.3c0.8,0,3.7-1.3,6.6-2.8
		c2.8-1.6,6.9-3.9,9.1-5c2.6-1.5,6.9-2.1,13.5-2.3c10.9,0,14.5,1.8,18.2,9.2c2.5,5,3.8,18.2,1.8,20.6c-0.8,0.9-1,2.3-0.5,3
		c0.5,0.8-0.1,2.1-1.3,3c-1.1,0.9-2.6,4-3.3,7.2c-1.8,8.3-1.9,8.6-2.8,9.5c-0.5,0.5-0.9,2.5-0.9,4.4c0,4.3-2.1,10.2-4.2,11.5
		c-0.9,0.5-1.5,1.4-1.6,1.9c0,0.5-1.5,4.2-3.3,7.9c-2.6,5.9-8.2,12.4-12,14.1c-1.4,0.5-5.4,7.9-5.4,9.8c0,0.9-1.6,3.7-3.7,6.2
		c-1.9,2.5-4,6.1-4.7,7.8c-0.6,1.9-3.9,6.6-7.4,10.6c-13.2,15-14.5,16.8-14.5,19.2c0,3.4,19.1,20.6,24.9,22.3c1.4,0.5,3,1.6,3.4,2.6
		s2,1.9,3.7,1.9c2.1,0,4,1.4,6.1,4.4c1.6,2.4,3.4,4.4,4,4.4c2,0,16.4,14.9,20.8,21.5c5.6,8.5,7.9,16.5,7.1,24
		c-1.1,9.3-3,13.9-5.6,13.9c-1.3,0-2.6,1-3,2.3c-0.9,2.8-5.3,5.4-10.9,6.7c-2.4,0.5-6.6,1.5-9.2,2.1c-2.9,0.8-4.9,0.8-5.4,0
		c-0.5-0.6-1.4-0.6-2.4,0.3c-1.1,1-4.3,0.5-11.5-1.9c-5.4-1.8-12.1-3.5-14.9-4c-5.8-0.9-18.4-6.8-20.9-9.7c-0.9-1.1-2.5-2-3.8-2
		s-2.9-0.9-3.8-1.9c-0.9-1-2.3-1.9-3-1.8c-3,0.4-4.5-0.4-12-5.8c-4.3-3.2-8.5-5.7-9.5-5.7c-0.9,0-3.3-0.9-5.3-1.9
		c-3.4-1.8-3.8-1.6-7.4,1.9c-2,2-5.8,5.7-8.3,8.1c-5.3,5.2-9.6,7.1-15.6,7.1c-5.3,0-7.7,2.3-8.8,8.5c-0.4,2.6-1.6,6.2-2.8,7.8
		c-1.1,1.9-1.6,4.8-1.4,8.2c0.4,2.8,0.1,6.6-0.3,8.3c-0.5,1.8-0.5,4.3,0,5.7c0.6,1.8,0.3,3.4-1.5,5.2c-2,2.3-2.1,3.2-0.9,6.1
		c1.3,2.7,1.1,4-0.1,6.8c-3.3,6.7-2.5,13,2.1,19.2c2.3,3.2,6.1,7.1,8.2,8.8c2.3,1.8,6.1,5,8.6,7.3c2.4,2.4,5.7,5.2,7.3,6.2
		c1.5,1.1,2.8,3.3,2.8,4.9c0,1.6,1.1,3.5,2.5,4.3s2.5,1.9,2.5,2.6c0,2.4,7.6,9,14.9,12.7c3.9,2.1,8.7,4.7,10.6,5.7
		c3.5,1.8,12.4,11.7,12.4,13.8c0,0.5,1.8,2.8,3.9,5c2,2.1,3.9,5.6,4.2,7.6c0.4,2.9,1.3,3.9,4.4,4.8c2.1,0.6,3.9,1.9,3.9,2.9
		s2.6,4.5,5.8,7.8c3.2,3.2,6.3,6.9,6.9,8.3c0.6,1.4,2.5,4.3,4,6.4c1.5,2.1,3.7,6.3,4.5,9.5c2.1,7.2,6.3,16.3,8.7,19.1
		c1.8,2.1,7.7,22.3,8.3,28.8c0.5,4.3,2.1,11.7,3,13.1c1.6,2.9,1.3,15.4-0.6,17.4c-1.1,1.3-1.6,3-1.3,4c1,2.7-2.5,16.3-4.7,17.8
		c-1,0.8-1.9,2.4-2.1,3.8c-0.5,2.5-5.8,5.8-10.6,6.6c-5.4,0.9-17.4,0.4-18.8-0.8c-1-0.9-2-0.9-2.8-0.1c-0.6,0.6-3.3,0.1-6.7-1.4
		c-3-1.4-7.1-2.7-8.8-2.9c-7.8-1-11.4-2.5-14-6.1c-1.5-2-4.2-4.2-5.9-4.9c-1.6-0.6-3.8-2.9-4.5-4.9c-1-2.6-2.3-3.8-4.3-3.8
		c-3.5,0-10.6-4.3-16.9-10.2c-13.9-13.1-17-14-20.3-5.8c-1.3,2.9-2.3,7.7-2.3,10.5c0,2.9-1,7.1-2.1,9.5c-1.1,2.3-2.5,8.2-2.9,13.1
		c-0.5,4.8-1.6,10.7-2.6,13c-1.4,3.3-1.4,4.5-0.1,6.6c1.1,1.9,1.3,3.3,0.3,5c-0.6,1.3-1.3,8.2-1.3,15.4c0,8.7-0.6,14.6-2,18.2
		c-1.8,4.7-1.8,5.6,0,9c1.5,3.2,1.6,5.3,0.5,13c-1,6.8-1,10.7,0.1,15c0.8,3.2,2,11.5,2.6,18.4c1.1,10.9,1,12.9-0.6,14
		c-2.6,1.9-2.4,2.8,1,3.3c3,0.4,3-0.3,1.1,18.7c-0.9,8.2-0.8,11,0.4,11.6c1.9,1.1,2.6,4,4.4,16.2c0.8,5.2,1.9,10,2.6,11
		c0.8,0.9,1,2.9,0.6,4.4c-0.5,1.6-1.1,7.4-1.5,13s-0.9,10.9-1.3,11.9c-0.3,1,0.3,3,1.3,4.4c1.4,2.3,1.6,8.3,1.4,31.2
		c-0.1,15.5-0.4,28.3-0.5,28.3s-0.4,4.8-0.6,10.7c-0.5,15.4-2.8,29.9-5.4,34.4c-1.3,2.1-4.8,5.2-7.9,6.7c-3.5,1.8-5.9,3.9-6.3,5.7
		c-0.8,3.3-13.2,10.6-15.5,9.1c-0.9-0.5-2-1-2.8-1c-7.6-0.5-19.6-7.4-19.6-11.4c0-0.8-1.4-2.6-3.2-4.2c-3.3-2.9-4.3-7.8-1.6-7.8
		c0.9,0-0.5-1.8-3-3.8c-2.5-2.1-5-5-5.6-6.7c-0.4-1.5-2.1-5.8-3.8-9.5c-1.6-3.7-3-8.3-3-10.3s-1.6-8.6-3.7-14.8
		c-3.8-11.4-5.2-17.5-5.9-26c-0.3-2.5-1-5.8-1.8-7.1c-0.6-1.4-1.3-4.7-1.3-7.3c0-2.8-1.1-6.1-2.5-7.9c-1.4-1.8-2.5-4.9-2.5-6.9
		c0-2.1-0.5-4.4-1.1-5c-1.6-1.9-3.9-12.9-4.7-22.7c-0.4-4.8-1.4-10.5-2.3-12.6c-1-2-2.4-8.1-3.3-13.2c-2-12.1-4.2-16.4-8.3-16.4
		c-4.3,0-5.4,3.5-2,6.4c2.1,1.6,2.8,3.5,2.8,8.3c0,3.4-0.8,6.9-1.5,7.7c-1.3,1.3-1.3,2.1,0,4c1.1,1.9,1.1,2.8-0.1,4
		c-3.8,3.8-5.8,7.9-4.7,9.8c0.9,1.5,1.4,1.3,2.3-1.3c0.9-2.3,1.4-2.6,1.9-1.3c1.4,4,2.3,9.7,2.1,14.8c0,2.9,0.5,5.6,1.3,6.1
		c1.6,1,0.6,13.5-2.1,25.6c-1.4,6.2-1.4,9.1-0.4,12.4c1.9,5.7,2.6,40.5,1,44.2c-1,2.1-1,3.4,0.1,4.8c1,1.3,1.1,3.3,0.3,7.2
		c-0.8,3.5-0.8,6.2,0,7.7c1.4,2.6,0.5,4.8-2.1,4.8s-2.1,2,1,4c2.6,1.8,2.8,2.3,1.4,6.2c-1.1,3.2-1.1,5.8-0.3,10
		c0.9,3.9,0.9,7.2,0,10.7c-0.8,2.8-1.3,5.9-1.1,6.9c0.5,3.5-1.8,17-4.4,26.4c-2.5,9-7.9,16.5-11.7,16.5c-0.9,0-1.9,0.9-2.3,2
		c-0.4,1-1.4,1.5-2,1.1c-0.8-0.5-2.3-0.1-3.4,0.8c-1.8,1.5-9.8,4.8-11.9,4.9C320.5,10500,319.9,10499.6,319.4,10499.2z M322.3,10461
		c0.8-2.1,1.1-4.4,0.6-5.2c-0.4-0.6,0.5-5.3,2-10.1c2.4-7.8,2.5-9.5,1.1-13.8c-1-3-1.3-6.8-0.6-9.7c0.9-5.3,1.4-15.1,0.8-21.3
		c-0.1-2,0.1-13.8,0.5-25.9c0.5-12.1,0.8-23.5,0.6-25.2c-0.5-6.2-0.4-12,0.5-16c0.5-2.1,0.4-4.3-0.3-4.7c-1.5-0.9-0.9-16.9,1-24.7
		c1-4.2,1-6.8,0.3-8.5c-0.9-1.5-0.9-3,0-4.5c0.9-1.8,0.8-3.3-0.3-5.3c-1-2-1.3-8.8-0.8-24.1c0.4-11.7,0.8-22.2,0.9-23.2
		s1.9-5.8,3.9-10.7c2.1-4.8,4.7-10.6,5.6-12.7c2-4.8,4.9-7.3,11-9.7c2.5-1.1,4.7-2.5,4.7-3.2c0-2.3,5.6-2.8,7.7-0.8
		c1.1,1,4.2,2,6.6,2.1c2.5,0.3,4.9,0.8,5.4,1.3s1.8,0.9,2.9,0.9c2.9,0.1,6.2,5.2,7.8,12.2c0.8,3.3,3.2,9.5,5.3,13.5
		c3.8,7.3,4.5,10.3,7.2,24.7c0.6,3.8,2.4,8.5,3.8,10.5c1.9,2.4,2.3,4,1.5,5.6c-2.4,4.2,2,23.2,9.6,42.3c0.9,2.1,1,4.7,0.4,6.3
		c-0.8,2.1-0.5,3.3,1,4.3c1,0.9,2,2.5,2,3.9c0.3,8.8,2.5,20.1,4.5,22.2c1.4,1.5,2.6,5.4,3.2,10c0.5,4,1.3,7.7,1.9,8.1
		c0.6,0.3,1.4,3.5,1.9,6.9c0.5,3.8,2,7.8,3.7,9.7c1.5,1.9,3.2,4.9,3.7,6.9c1.3,5.2,4.5,4.4,4.5-1.1c0-2.8,0.5-4.2,1.3-3.7
		c1,0.6,1.1-1.3,0.5-5.6c-0.5-4.2-0.4-7.1,0.6-8.2c0.8-0.9,1.1-2.5,0.8-3.4c-0.5-1.5-1.9-43.8-1.9-57.2c0.1-2,0.8-4.5,1.5-5.4
		c1-1.3,1-3,0-6.4c-0.8-2.5-1.4-6.7-1.4-9.1s-0.3-6.4-0.6-8.8s-1.1-10.3-1.5-17.7c-0.4-7.3-1.3-13.9-1.9-14.6
		c-1.5-1.8-1.8-11.7-0.5-21.7c0.8-5.8,1.6-8.3,3.3-9.2c1.4-0.6,2.4-2,2.4-3c0-1.4-0.8-1.5-3-0.6c-2.8,1-3,0.8-3.9-4.2
		c-1.8-9.8-1.5-54,0.4-59.6c0.9-2.8,1.9-12.4,2.3-21.5c0.4-9,1-17.3,1.5-18.3c0.4-1,0.8-4.5,0.9-7.8c0.1-3.2,0.9-7.4,1.5-9.5
		c0.8-1.9,2.1-6.3,2.9-9.8c0.9-3.4,2.4-7.6,3.4-9.2c1.1-1.9,1.4-3.5,0.5-4.9c-0.8-1.5-0.5-3.5,1.3-6.9c1.3-2.5,2.4-5.7,2.4-6.8
		s1.1-3.4,2.5-5.2s2.5-4.4,2.5-5.8c0-1.4,0.9-3.7,2.1-4.9c1.8-2,1.8-2.8,0.4-5.8c-2.9-5.8-2.9-11.4,0-13.1c3.2-2,3.3-3.8,0.4-2.7
		c-1.4,0.4-0.5-1.1,2-3.8c3.7-3.9,5.3-4.7,9.6-4.7c2.8,0,6.2,0.8,7.6,1.6c1.4,0.9,4.8,2.4,7.6,3.3c5,1.8,9.5,4.7,15.3,10
		c1.8,1.5,4.3,2.8,5.6,2.8c3,0,10.1,6.8,10.1,9.7c0,1.6,2.9,3.5,9.5,6.6c5.2,2.4,9.5,5,9.5,5.9s1,1.9,2.4,2.4
		c1.3,0.4,3.3,1.8,4.5,3.2c1.3,1.4,3.7,2.5,5.2,2.5c1.6,0,4.8,1.1,7.1,2.4c2.1,1.4,4.4,2.3,5,1.9c1.5-1,1.3-9.8-0.5-11.6
		c-0.8-0.8-1.6-3.9-1.8-6.8c-0.6-8-3-18.7-5-22.7c-1-1.9-1.8-4.5-1.8-5.9s-1.6-4-3.5-6.1c-4.8-4.8-6.6-8.2-6.6-13
		c0-2.3-0.8-4.2-1.9-4.5c-1-0.5-1.9-1.3-1.9-1.9c0-0.5-2-3.2-4.4-5.8s-4.4-5.6-4.4-6.4c0-0.9-3.2-4.7-6.9-8.5
		c-3.8-3.8-6.9-7.4-6.9-8.2c0-0.6-0.9-1.3-1.9-1.3s-1.9-0.5-1.9-1.1c0-1.1-3.9-5.3-14.4-15.1c-2.5-2.4-4.5-4.8-4.5-5.3
		c0-0.6-0.8-1.1-1.8-1.1s-2.9-1.4-4.3-3.2s-2.9-3.2-3.3-3.2c-1.5,0-10.9-9.8-10.9-11.6c0-0.9-2.6-3.2-5.7-5
		c-3.8-2.3-5.7-4.3-5.7-6.1c0-2.5-4.3-8-5.4-6.7c-0.6,0.5-6.2-3.9-12.7-10.3c-3.3-3.2-6.2-4.7-13.4-6.8c-3.2-1-6.7-2.9-7.9-4.4
		c-1.5-1.6-3.7-2.5-5.8-2.3c-2.1,0.3-4.3-0.5-5.8-2.1c-1.3-1.5-3-2.7-4-2.7s-3.5-1.8-5.7-3.8c-2-2.1-4.2-3.5-4.8-3.2
		c-0.6,0.4-1.8-0.1-2.8-1c-0.9-0.9-2.6-2-3.8-2.5c-1.3-0.4-2.3-1.9-2.3-3.2s-0.6-2.9-1.3-3.5c-1.6-1.6,0.1-6.8,2.9-9.1
		c2.4-2,20.7-2.4,22.7-0.4c0.8,0.8,3.2,1.4,5.3,1.4c5.6,0,17.3,3.7,18.9,5.9c1,1.4,2.1,1.5,4.5,0.5c3.8-1.4,5.2-5.7,3.3-10.3
		c-1.8-4.5-2.1-17.5-0.5-22.2c0.9-2.9,0.9-4.4,0-5.7c-0.8-0.9-1.8-4.2-2.3-7.3c-0.6-4.4-0.1-6.8,1.8-10.6c1.5-2.9,2.3-6.2,1.9-7.8
		c-0.5-1.8,0.5-5.7,2.5-10.1c4-8.7,4-10.6,0.5-10.6c-1.6-0.1-9.1-0.5-16.8-1c-13.8-0.8-29.1-0.9-58-0.4c-30.3,0.6-43.7,0.1-47.9-1.6
		c-3.7-1.6-4.5-1.5-7.2,0.3c-4.2,3-32.6,4.3-34.7,1.5c-1.3-1.6-1.8-1.6-3.9,0.4c-1.8,1.6-5,2.4-11.9,2.7c-9.7,0.5-19.4,2.1-30.7,5.2
		c-13,3.5-18.5,4.4-26.9,4.4c-8.6,0.1-28.6,3.9-30.7,5.9c-0.6,0.6-1.3,6.2-1.3,12.5c0,6.2-0.6,14.9-1.3,19.4c-1,6.1-0.9,8.8,0.3,11
		c1.3,2.3,1.3,3.3,0.1,4.4c-1.9,1.9-2,6.9-0.3,7.9c1.6,1,1.6,5.7,0,5.7c-0.6,0-1.6,1.9-2.3,4.3c-1.4,4.5,0,12.9,3,18.4
		c1.5,2.9,2.3,3.2,9,2.8c4-0.3,7.9-1,8.8-1.8c0.8-0.6,7.4-0.9,14.8-0.8l13.4,0.5l3.8,5.9c5.6,8.8,5.2,14.4-1.1,20.2
		c-8.6,7.7-10.3,8.5-20.4,8.6c-5.2,0.1-10,0.8-10.9,1.4s-2,0.9-2.8,0.5c-1.4-0.9-8.8,2.8-11,5.4c-1.1,1.5-1.5,1.5-2.4,0.1
		c-0.8-1.1-1.8,0.5-3.3,5.2c-1.3,3.8-2.4,7.8-2.4,9.1s-0.8,3.5-1.8,5c-2,3-4.5,18.9-4.5,27.9c0,3.3-0.8,6.1-1.9,7.1
		c-1.1,0.9-1.5,2.8-1.1,5c0.5,1.9,0.1,3.8-0.5,4.3c-0.8,0.5-1,3.9-0.8,8.5c0.5,5.8,0.1,8.2-1.3,9.8c-1,1.1-2.4,4.3-3,7.1
		s-1.6,5.9-2.1,7.1c-0.4,1.3-0.3,2.5,0.4,2.9c0.8,0.5,0.8,2.6,0,6.1c-0.6,3-1.3,7.8-1.1,10.9c0,4.4-0.4,5.3-2,5s-2.4,1-3.2,5.9
		c-0.5,3.5-1.6,7.3-2.3,8.5c-0.8,1.3-1.3,4.4-1.3,6.9c0,2.6-0.9,6.2-1.9,7.9c-3.4,5.9-3.5,6.4-1.8,9.6c1.9,3.7,0.5,10.3-4.4,21.2
		c-1.6,3.5-5,12.7-7.6,20.3c-2.6,7.7-5.8,15-7.2,16.5c-1.3,1.4-2.4,4-2.4,5.9c0,1.8-2.3,8.7-5,15.1c-3,6.9-4.8,12.7-4.3,14
		c0.5,1.1,0,3-1.1,4.3c-1,1.1-2.6,3.9-3.8,5.9c-1,2.1-3.7,5.7-5.8,7.8c-2.1,2.3-3.9,5.2-3.9,6.4s-1.4,3.7-3.2,5.3s-3.2,3.5-3.2,4.3
		c0,2.7-9.8,21.6-12.4,23.8c-1.4,1.3-4,5.6-5.9,9.5c-1.9,4-5.3,11.1-7.7,15.8s-4.3,9.7-4.3,11.1c0,4.5-5.2,12.2-17.3,25.5
		c-3.4,3.8-7.3,16.3-6.1,19.6c0.6,1.6,1,1.6,2.9-0.3c1.3-1.1,2.6-2,3-2c0.3,0,3.4-2.5,6.8-5.7c7.8-7.3,16.5-12.2,20.7-11.7
		c4,0.4,6.3-1,6.3-4.2c0-1.3,0.9-2.4,1.9-2.4s1.9-0.8,1.9-1.5c0-0.9,2.1-3.4,4.8-5.7c2.5-2.1,7.7-6.6,11.4-9.7
		c3.7-3.2,7.2-5.8,7.8-5.8c0.8,0,1.3-0.6,1.3-1.5c0-1.6,3.5-5.6,16.4-18.2c4.5-4.4,8.8-8.1,9.6-8.1c0.6,0,2.5-1.6,4-3.8
		c1.8-2.3,4-3.8,5.7-3.8c1.8,0,4-1.5,5.7-3.8c1.6-2,3.7-3.8,4.7-3.8c0.9,0,2.5-0.8,3.5-1.8c1.5-1.5,6.3-2.5,10.5-2.1
		c0.8,0.1,1.9,1.4,2.5,2.8c0.8,1.5,3.2,3.4,5.4,4.2c6.1,2,9.3,8.8,12.1,25.5c1.9,11.6,2,14.9,0.8,19.9c-1,4.2-1.1,6.6-0.3,7.6
		c1,1.1,0.8,2.3-0.4,4c-1,1.3-1.5,3.8-1.1,5.7c0.4,1.8-0.1,5.4-0.9,8.2c-0.9,2.6-2,7.4-2.5,10.6c-1.5,8.7-2.3,11.5-3.7,13.1
		c-0.6,0.8-1.6,5-2.1,9.6c-0.4,4.5-1.1,8.7-1.5,9.5c-0.4,0.6-0.9,2-1.1,3.2c-0.6,3.8-2.8,14.6-4.2,20.8c-1.6,7.3-2.3,13.5-3.2,28.1
		c-0.6,10.3,0.6,16,3.3,15.1c0.8-0.3,1.1-0.8,0.9-1.1c-0.3-0.4,0.4-1.6,1.4-2.8c0.9-1.3,1.9-5.2,2.1-8.8c0.5-7.7,2.6-13.5,5.8-15.8
		c1.4-1,2.3-3.3,2.3-5.9c0-2.4,0.6-4.7,1.3-5c0.8-0.4,1.3-2.1,1.3-3.8s0.8-3.5,1.6-4c1.6-1.1,5.4-10.6,7.4-18.7
		c0.6-2.8,1.6-6.2,2.3-7.6s2-5.9,3.2-10.1c5.2-18.8,7.6-25.7,11.2-33.4c2.1-4.5,4.2-8.5,4.5-8.8c0.4-0.4,1.8-3.3,2.9-6.6
		c1.5-3.8,3.8-6.8,6.6-8.8c2.4-1.5,4.2-3.5,3.9-4.3s2.1-3.4,5.4-5.9c5-3.9,6.7-4.5,10.7-4c2.6,0.4,6.4,1.8,8.3,3.2
		c2.8,2,3.9,2.3,4.7,1c2.6-4.2,9.7-5.9,14.3-3.5c4,2.1,9.6,12.9,11.1,21.5c2.6,15.9,2.6,18.5,0,21.5l-2.5,2.7l2.6,0.8
		c2.8,0.6,4.8,5.6,3.4,7.8c-0.5,0.6,0.4,3.9,1.9,7.1c2.1,4.7,2.4,6.1,1.1,7.6c-1.4,1.6-1.3,3.4,0,9.2c0.9,3.9,1.5,10.5,1.4,14.6
		c-0.1,4,0.5,8.1,1.3,9.1c0.9,1,1.1,3.4,0.6,5.8c-1.1,5.4-1.1,6.6,0.4,15.5c0.8,4.3,2.4,10.2,3.8,13.2c2.9,6.4,3.3,11.1,1.3,15.6
		c-1.1,2.4-0.9,4.7,1.3,11c1.4,4.4,2.6,9,2.6,10.3s1.4,4.8,3.2,7.9c1.9,3.5,3.2,7.7,3.2,10.9c0,5.6,8.7,25.5,11.6,26.6
		S320.6,10464.8,322.3,10461z M206.8,9649.5c3.3-2.8,21.1-4.5,27.6-2.8c2.8,0.9,4.8,0.8,5.6,0s6.6-1.8,13.1-2.4
		c6.4-0.5,14.9-1.4,18.7-1.8c3.8-0.4,9.2-0.9,12-1.1c2.8-0.3,7.6-1.4,10.7-2.4c3.8-1.4,9.1-1.9,15.5-1.8c6.7,0.3,10.2-0.1,11.1-1.1
		c1.9-2.4,8.2-3.4,11.1-1.9c1.6,0.9,2.8,1,3.3,0.1c0.4-0.6,2.1-1.3,3.7-1.3s4.7-0.9,6.6-1.9c2-1,6.3-1.9,9.6-1.9
		c4.8,0,6.1,0.5,6.7,2.5c0.4,1.4,1.6,2.5,2.6,2.5s2.9,1.1,4.4,2.6c2.4,2.4,2.8,2.4,4.8,0.6c1.3-1.1,2.9-2,3.7-2
		c0.9,0,1.5-1.6,1.5-3.8c0-3.5,0.3-3.8,4.9-3.8c3.7,0,5.3,0.8,6.7,2.8c1.6,2.4,2.3,2.7,3.9,1.3c1-0.9,4.7-1.5,7.9-1.5
		c3.4,0.1,10.7,0.3,16.3,0.1c5.6,0,13.5,0.4,17.7,0.6c4.2,0.4,9.6,0.8,12,0.9c2.4,0.1,4.9,1,5.4,1.9c1.4,2.1,3.4,1.9,3.4-0.4
		c0-1.8,0.5-1.6,4.8,0c3.3,1.4,6.4,1.8,10.7,1.3c3.4-0.5,5.8-1.3,5.4-1.6c-0.4-0.4-0.1-1.3,0.5-2.1s1.5-5.9,1.8-11.5
		c0.4-5.4,1.5-13.1,2.8-16.9c1.3-3.8,2.3-10.6,2.3-15.1c0.1-4.5,0.5-8.8,1.1-9.7c0.5-0.8,0.5-2.3,0.1-3.3s0.4-4.2,1.8-7.1
		c1.9-3.7,2.4-6.7,1.9-10.3c-0.6-3.9-0.3-5.7,1.1-6.7c3.2-2.3,5-10.1,4-17c-0.8-5.9-1.1-6.4-4.3-6.4c-1.9,0-5.2,0.6-7.4,1.4
		c-2.9,1-4.9,1-7.4,0c-3.7-1.5-4.9-1.5-18.5-0.8c-8.6,0.5-20.2,0.8-25.2,0.5c-1.4,0-4.4-0.6-6.7-1.4c-3-0.9-5.2-0.9-7.8,0.3
		c-2.8,1.1-4.7,1.1-7.7,0.1s-4.7-0.9-7.8,0.6c-3.3,1.8-8.8,2.1-33.4,2c-21.5,0-30.4,0.5-32.7,1.6c-2,1-5.7,1.4-10.5,1
		c-5.9-0.6-9-0.1-14.4,2.1c-3.9,1.5-7.9,2.4-9.1,2c-1-0.4-2.9-0.3-4,0.4c-3.2,1.6-9.1,0.3-9.2-2.3c-0.1-1.1-0.5-0.6-1,1.1
		c-0.8,2.6-1.6,3.2-5.6,3.2c-2.5,0-5.3,0.8-6.1,1.6c-0.9,0.8-2.4,1.5-3.4,1.5s-3.3,0.9-5,1.8c-1.9,1-6.6,2.4-10.3,3.2
		c-10,1.8-15.5,3.3-20.2,5.7c-2.3,1.1-5.3,2-6.6,2c-1.4,0-5.6,0.9-9.2,1.9c-3.7,1.1-7.2,1.9-7.7,1.6c-0.6-0.1-2.6,0.8-4.7,2
		c-2.4,1.6-4.8,2.1-7.8,1.6c-2.4-0.4-4.7-0.1-5,0.5c-0.5,0.6-2.5,1.1-4.7,1.1c-2,0-6.9,0.9-10.7,2c-4,1.1-8.7,1.6-11.1,1.3
		c-7.8-1.5-8.1-1.1-7.9,17.3c0.1,14.8,0.5,17,2.8,20.2c2.5,3.5,3,7.7,2,19.2c-0.3,2.1,0.6,7.1,1.8,11.2c1.1,4,1.8,8.5,1.4,9.7
		c-0.5,1.3-0.1,3.4,0.5,4.8c1.3,2.1,2.6,2.4,17.7,2C199.6,9651.3,205.4,9650.7,206.8,9649.5z M185.5,9496.2c1.3-1,3.9-1.9,5.7-1.9
		c4.4,0,13-7.6,13.1-11.5c0-2.1,0.8-3,2.5-3c1.9,0,2.5-0.9,2.5-3.2c0-2,0.8-3.2,1.9-3.2c6.9,0,2.6-17.7-7.1-28.6
		c-4.7-5.3-9-6.8-18.2-6.6c-9.8,0.3-15,1.6-20.6,5.3c-5.3,3.5-5.8,4.8-6.3,16.9c-0.3,4.8-0.8,9-1.3,9.3c-0.4,0.5-0.3,1.9,0.5,3.3
		c0.8,1.4,0.9,4,0.5,6.1c-0.9,4.3,1.4,12.2,4.5,15.4C167,9498.1,181.5,9499.2,185.5,9496.2z M432.7,9407.1c8.3-3.8,15-8.8,16.5-12.5
		c0.9-2,2.3-3.8,2.9-3.8c0.8,0,2.1-1.9,3.2-4.3c2.3-5.4,4-20.9,2.4-20.9c-1.8,0-4.3-9.5-3.3-12c0.6-1.9,0.3-2.1-2.5-1.4
		c-3,0.8-3.4,0.5-3.4-2.7c0-4.4-3.4-7.9-7.6-7.9c-1.9,0-4.2-0.9-5-1.9s-2.6-1.9-4-1.9s-4.4-0.9-6.8-2c-5.4-2.5-8.6-1.6-7.4,2.3
		c0.4,1.6,0.4,2.3-0.3,1.5c-1.9-2.7-4.8-2.7-8.2,0c-1.9,1.5-5.4,4-7.8,5.8c-2.9,2.1-4.3,3.9-3.8,5.3c0.4,1.1-0.4,2.8-1.6,3.8
		c-2.3,1.6-4.9,7.1-7.8,16.4c-1.3,3.9-1.3,5.3,0.4,7.4c1.4,2,1.5,3.4,0.5,5.6c-1.8,3.9-0.6,8.1,3.4,12.7c1.8,2,3.5,4.8,3.9,6.3
		C398,9409.7,421.2,9412.4,432.7,9407.1z"/>
	<path d="M290.4,10131.4c-1.3-0.8-4.3-1-7.1-0.5c-2.5,0.4-10.9,0.1-18.4-0.6c-11.2-1.1-14-1.9-15.5-3.9c-0.9-1.3-2.8-2.4-4.2-2.4
		s-4.3-0.9-6.3-2c-2.1-1-4.8-1.8-5.9-1.6c-1.1,0.3-6.8-0.1-12.6-0.6c-8.2-0.8-11.1-1.6-13-3.7c-2.4-2.7-3.3-8.5-1.3-8.5
		c0.5,0,3.2-1.4,5.7-3.2c3.4-2.4,5.6-2.9,8.1-2.3c4.9,1.1,10.6,1,13.5-0.5c3-1.6,25.9,0,39.7,2.8c18.9,3.9,23.7,4.4,43.2,5.2
		c13.1,0.5,20.6,0.3,22.2-0.6c1.9-1,3.9-1,7.4,0.3c4.2,1.3,4.8,2.1,5.2,5.7c0.4,3.5-0.4,4.9-4.9,9.1c-6.4,5.9-7.6,6.2-27,6.9
		c-8.3,0.3-17.7,0.9-20.8,1.3C295,10132.6,291.6,10132.3,290.4,10131.4z"/>
</g>
</svg>
