<?xml version="1.0" standalone="no"?>
<!DOCTYPE svg PUBLIC "-//W3C//DTD SVG 20010904//EN"
 "http://www.w3.org/TR/2001/REC-SVG-20010904/DTD/svg10.dtd">
<svg version="1.0" xmlns="http://www.w3.org/2000/svg"
 width="800.000000pt" height="1050.000000pt" viewBox="0 0 800.000000 1050.000000"
 preserveAspectRatio="xMidYMid meet">
<metadata>
Created by potrace 1.16, written by Peter Selinger 2001-2019
</metadata>
<g transform="translate(0.000000,1050.000000) scale(0.100000,-0.100000)"
fill="#000000" stroke="none">
<path d="M4367 6960 c-16 -19 -19 -19 -42 -4 -24 16 -27 15 -44 0 -11 -10 -21
-13 -25 -7 -4 6 -18 6 -35 1 -16 -4 -32 -6 -35 -2 -3 3 -6 1 -6 -4 0 -5 -20
-9 -45 -8 -25 0 -45 -3 -45 -7 0 -4 -9 -5 -19 -2 -10 3 -28 0 -38 -5 -11 -6
-25 -7 -33 -2 -9 5 -19 5 -27 -1 -7 -6 -17 -8 -22 -4 -6 3 -20 1 -31 -5 -15
-8 -20 -8 -20 3 0 7 -8 14 -17 15 -10 1 -35 4 -57 8 -27 5 -37 3 -32 -5 10
-16 0 -13 -19 6 -14 14 -18 14 -26 2 -7 -12 -9 -12 -9 1 0 12 -2 12 -9 1 -6
-10 -13 -10 -29 -2 -16 9 -24 7 -37 -6 -13 -12 -19 -13 -24 -4 -6 10 -12 8
-25 -4 -13 -13 -20 -14 -31 -5 -10 8 -27 9 -59 2 -24 -5 -50 -6 -57 -1 -7 4
-18 5 -24 1 -5 -3 -23 -7 -40 -8 -16 0 -47 -8 -68 -17 -20 -9 -40 -16 -44 -16
-3 1 -10 -6 -15 -14 -4 -9 -16 -13 -27 -10 -10 3 -22 0 -25 -6 -4 -6 -15 -11
-25 -11 -10 0 -24 -7 -31 -15 -9 -11 -16 -11 -29 -3 -13 8 -25 6 -49 -6 -18
-9 -37 -14 -42 -11 -6 3 -10 3 -10 -2 0 -4 -15 -14 -32 -22 -18 -8 -41 -21
-50 -29 -10 -8 -18 -11 -18 -7 0 4 -9 0 -20 -10 -15 -14 -20 -15 -20 -4 0 10
-2 11 -8 2 -7 -11 -57 -35 -77 -37 -5 -1 -11 -5 -12 -10 -2 -13 -32 -28 -42
-22 -5 3 -11 -1 -15 -9 -3 -8 -15 -15 -27 -15 -13 0 -23 -8 -26 -21 -3 -12
-11 -18 -19 -15 -13 5 -74 -50 -74 -68 0 -4 -9 -6 -19 -3 -12 3 -27 -3 -37
-14 -9 -10 -24 -19 -33 -19 -17 0 -42 -24 -60 -58 -7 -14 -18 -19 -33 -16 -13
2 -17 2 -11 -2 10 -4 10 -9 -1 -20 -8 -8 -19 -14 -24 -14 -6 0 -12 -7 -16 -15
-3 -8 -11 -15 -18 -15 -7 0 -25 -22 -40 -48 -15 -26 -38 -54 -52 -62 -15 -7
-26 -19 -26 -27 0 -7 -7 -13 -15 -13 -8 0 -15 -3 -15 -8 0 -4 -10 -18 -23 -32
-13 -14 -43 -54 -67 -90 -24 -36 -51 -73 -62 -83 -10 -10 -18 -32 -18 -49 0
-17 -3 -28 -7 -25 -11 11 -64 -69 -57 -87 3 -9 1 -16 -5 -16 -6 0 -11 -6 -11
-12 0 -7 -13 -24 -30 -38 -17 -14 -33 -38 -36 -55 -3 -16 -9 -32 -13 -35 -4
-3 -16 -21 -27 -40 -10 -19 -25 -41 -31 -48 -7 -7 -13 -23 -13 -35 0 -13 -9
-30 -20 -40 -11 -9 -20 -27 -20 -40 0 -26 -34 -102 -50 -112 -5 -3 -10 -15
-10 -26 0 -10 -4 -19 -8 -19 -9 0 -46 -79 -43 -93 1 -4 -5 -15 -14 -23 -8 -9
-15 -26 -15 -40 0 -13 -5 -24 -11 -24 -5 0 -7 -5 -4 -10 3 -6 -1 -17 -9 -25
-8 -9 -13 -22 -9 -30 3 -10 1 -13 -8 -10 -18 7 -23 -66 -6 -77 8 -5 7 -8 -4
-8 -22 0 -49 -63 -49 -113 0 -23 -5 -58 -10 -79 -6 -20 -12 -53 -15 -75 -2
-21 -7 -51 -11 -68 -9 -43 -15 -101 -19 -177 -2 -54 0 -66 11 -61 8 3 14 -1
14 -11 0 -9 -6 -16 -12 -16 -28 0 -12 -376 19 -460 3 -8 7 -40 8 -70 1 -30 10
-77 20 -105 9 -27 17 -67 16 -87 -1 -27 3 -38 13 -38 8 0 13 -7 12 -16 -1 -9
15 -50 36 -91 21 -42 38 -81 38 -87 0 -6 10 -31 21 -56 39 -80 82 -182 80
-187 -1 -2 7 -12 17 -22 9 -11 23 -27 31 -36 7 -9 20 -14 27 -11 20 7 31 -24
13 -35 -11 -7 -10 -11 5 -22 11 -8 16 -19 12 -25 -3 -6 0 -14 8 -19 8 -4 14
-12 14 -18 0 -5 8 -14 18 -20 28 -14 140 -119 205 -191 14 -16 43 -42 64 -59
21 -16 58 -48 82 -69 37 -33 46 -37 55 -25 8 11 9 11 4 -3 -4 -13 4 -20 29
-30 19 -6 35 -16 35 -20 0 -4 9 -8 21 -8 11 0 17 -5 14 -10 -3 -6 2 -13 12
-17 10 -4 25 -14 33 -24 8 -9 35 -24 60 -33 25 -9 66 -34 90 -56 24 -22 50
-40 57 -40 8 0 16 -7 19 -15 4 -8 14 -15 24 -15 10 0 23 -7 30 -15 16 -19 46
-19 54 0 8 22 25 18 19 -5 -3 -11 0 -20 6 -20 6 0 11 6 11 13 0 9 2 9 9 -1 7
-11 11 -11 23 1 26 26 56 30 69 9 7 -11 17 -19 23 -18 6 2 8 1 4 -1 -15 -9 -8
-32 12 -38 11 -3 20 -11 20 -16 0 -5 5 -9 10 -9 6 0 30 -9 53 -20 44 -22 162
-44 178 -35 5 4 9 1 9 -6 0 -6 8 -9 19 -6 11 3 28 -1 38 -8 10 -7 37 -18 60
-25 24 -7 50 -21 59 -31 15 -17 18 -17 40 -2 22 14 24 14 30 -1 4 -10 12 -15
19 -12 7 2 30 0 51 -5 22 -5 48 -12 58 -14 11 -3 39 -14 62 -25 24 -11 50 -17
59 -14 9 4 15 1 15 -7 0 -11 2 -11 10 1 8 12 13 13 30 3 25 -17 50 -17 50 0 0
8 3 8 8 2 4 -6 22 -11 41 -10 20 0 36 -6 39 -14 4 -11 7 -10 13 5 6 14 8 15 8
3 1 -13 12 -16 55 -14 29 1 57 5 62 8 14 8 137 6 149 -4 6 -4 24 -6 40 -4 17
2 74 4 127 5 68 2 101 6 109 16 6 7 23 13 37 12 15 0 56 6 91 15 35 8 72 12
81 10 10 -3 21 0 24 6 4 5 13 8 21 4 8 -3 15 0 15 6 0 6 6 8 14 5 8 -3 17 -1
21 5 3 6 17 11 30 11 22 0 74 18 85 30 3 3 21 6 40 8 19 1 39 7 44 12 14 14
29 13 20 -1 -4 -8 4 -9 27 -4 19 4 36 11 37 16 2 5 13 14 24 20 16 8 19 8 13
-1 -4 -7 4 -5 18 4 13 9 29 16 33 15 5 -1 23 3 39 10 17 7 35 14 42 15 7 1 20
10 31 19 10 9 22 14 26 10 4 -4 11 -2 15 5 4 8 15 14 23 16 8 1 27 9 41 19 15
9 31 17 37 17 6 0 8 4 5 10 -3 6 4 10 18 10 13 0 32 9 44 19 26 24 97 61 119
61 26 0 84 31 84 45 0 7 14 18 30 24 17 5 33 17 36 25 3 9 10 14 14 11 4 -3
15 6 24 20 9 14 42 38 74 54 62 31 132 101 132 132 0 12 7 19 20 19 13 0 24
10 31 27 6 15 14 30 18 33 4 3 14 21 24 40 9 19 17 29 17 22 0 -20 20 -4 31
25 5 13 13 21 19 18 5 -3 10 3 10 14 0 11 6 26 13 33 8 7 12 19 9 26 -2 6 1
12 7 12 6 0 11 6 11 14 0 8 9 18 21 21 14 5 19 13 16 26 -3 12 0 19 8 19 11 0
40 60 33 68 -2 2 5 8 15 13 9 6 15 14 12 18 -2 5 2 14 10 21 8 7 12 16 9 21
-3 5 2 12 10 15 9 3 16 15 16 25 0 11 6 22 14 25 8 3 16 19 20 35 3 17 15 43
26 59 24 34 25 40 3 40 -15 0 -16 2 -3 9 8 6 18 7 22 5 4 -3 8 2 8 11 0 10 6
31 14 48 17 37 26 75 33 136 3 28 13 51 27 63 11 10 17 18 11 17 -24 -3 -25 3
-6 27 16 21 18 30 10 40 -9 11 -8 14 1 14 8 0 11 3 7 6 -3 3 3 14 13 24 13 13
18 30 15 55 -2 24 1 38 11 42 8 3 12 8 10 12 -3 4 -1 13 4 21 4 7 4 24 -1 36
-5 16 -4 27 5 36 11 11 32 73 40 118 10 54 17 113 20 165 2 33 6 76 9 95 18
112 26 192 21 204 -3 8 -2 21 2 28 12 19 14 57 3 63 -15 10 -10 28 6 21 18 -7
20 15 3 32 -6 6 -13 31 -14 54 -11 191 -11 208 0 208 7 0 6 4 -2 9 -7 4 -12
12 -11 17 2 5 -1 25 -6 44 -4 19 -8 49 -8 65 0 17 -4 36 -10 43 -6 8 -6 12 2
12 6 0 11 9 11 20 0 11 -4 20 -10 20 -5 0 -10 12 -10 26 0 17 -6 28 -20 31
-11 3 -20 10 -20 15 0 5 9 6 20 3 23 -7 28 13 5 21 -10 4 -13 13 -10 25 4 11
2 19 -4 19 -6 0 -11 9 -11 20 0 11 -7 20 -15 20 -10 0 -14 8 -11 22 3 24 -32
120 -43 114 -3 -2 -5 10 -5 27 1 18 -2 37 -7 43 -5 6 -10 19 -12 30 -2 10 -8
29 -15 41 -7 12 -12 26 -12 32 0 12 -19 37 -67 88 -37 38 -41 48 -17 39 12 -5
14 -1 8 17 -4 12 -7 29 -8 37 -1 8 -9 24 -20 35 -10 11 -30 36 -45 55 -14 19
-39 47 -56 63 -16 16 -31 38 -31 48 -1 10 -2 23 -3 27 0 4 -19 27 -42 51 -24
27 -38 50 -34 59 6 16 -30 62 -49 63 -6 0 -25 19 -41 42 -17 23 -40 46 -51 52
-11 5 -32 23 -47 38 -14 16 -31 26 -36 22 -6 -3 -11 0 -11 7 0 22 -130 150
-147 144 -8 -3 -11 -2 -8 4 3 5 -9 17 -27 26 -18 9 -37 23 -41 31 -6 10 -20
13 -50 9 -30 -4 -35 -3 -17 3 27 9 19 15 -30 24 -56 11 -74 17 -96 31 -52 35
-96 56 -114 56 -10 0 -21 4 -24 9 -5 7 -52 22 -81 25 -5 1 -15 5 -22 9 -6 4
-18 4 -27 1 -9 -3 -16 -1 -16 5 0 6 -8 11 -18 11 -10 0 -24 6 -31 13 -10 10
-15 8 -25 -6 -12 -16 -14 -16 -20 -2 -3 9 -2 13 4 10 6 -3 10 -2 10 3 0 6 -16
12 -35 14 -20 2 -35 0 -35 -7 0 -6 -3 -6 -8 1 -11 18 -100 45 -126 38 -13 -3
-26 -2 -29 3 -6 9 -140 8 -155 -1 -5 -3 -17 1 -27 8 -14 10 -26 11 -47 4 -19
-7 -33 -7 -41 0 -16 13 -77 21 -83 10 -8 -13 -44 -9 -44 5 -1 6 -9 2 -20 -11
-11 -14 -21 -18 -25 -12 -4 6 -12 10 -18 9 -15 -3 -50 12 -57 23 -3 4 -14 -1
-23 -12z m-556 -299 c34 -26 111 -51 125 -40 7 6 16 3 25 -7 10 -12 26 -15 66
-12 29 3 53 1 53 -4 0 -5 4 -7 9 -4 5 3 36 2 70 -2 36 -5 64 -5 70 1 5 5 18 4
32 -4 37 -20 47 -19 43 5 -4 19 -4 19 4 2 9 -20 52 -33 52 -16 0 5 10 10 23
10 21 0 77 6 86 9 2 0 -2 8 -9 16 -15 18 -7 30 14 22 10 -4 13 -13 9 -23 -5
-14 0 -16 42 -12 26 3 51 11 55 18 5 8 10 9 14 1 4 -6 17 -11 29 -11 99 0 257
-9 267 -15 6 -4 38 -9 72 -11 33 -2 76 -9 96 -16 28 -10 36 -10 39 0 6 15 24
16 20 0 -1 -6 7 -13 18 -15 26 -5 66 -24 87 -41 12 -10 18 -10 23 -2 5 8 13 5
26 -9 11 -12 25 -21 32 -21 8 0 7 4 -3 10 -8 5 -12 12 -8 15 3 4 19 -7 34 -24
26 -30 48 -39 57 -23 2 4 2 1 1 -5 -4 -18 28 -33 70 -33 20 0 36 -4 36 -9 0
-5 11 -12 25 -15 31 -8 92 -61 100 -87 4 -10 13 -19 21 -19 8 0 12 -5 9 -10
-4 -6 7 -16 24 -23 17 -7 28 -16 24 -20 -3 -4 -1 -7 5 -7 13 0 102 -84 102
-97 0 -7 49 -64 105 -124 8 -9 15 -21 15 -27 0 -6 19 -29 43 -52 23 -23 42
-46 42 -51 0 -5 5 -13 10 -17 6 -4 10 -14 10 -22 -1 -17 11 -29 43 -48 19 -11
22 -10 22 5 0 15 2 16 10 3 6 -10 6 -16 0 -18 -15 -5 -12 -38 5 -52 8 -7 15
-21 15 -32 0 -14 5 -18 16 -14 8 3 12 2 9 -4 -3 -6 -1 -10 5 -10 6 0 8 -5 5
-10 -4 -6 -11 -8 -16 -4 -6 3 -5 -3 3 -15 7 -12 18 -19 25 -17 6 3 14 -2 17
-10 3 -9 1 -12 -4 -9 -17 10 -11 -11 10 -37 10 -14 17 -28 14 -30 -9 -9 19
-58 33 -58 15 0 13 -21 -2 -32 -6 -5 -5 -8 2 -8 7 0 10 -6 7 -14 -3 -7 2 -21
11 -30 10 -10 15 -25 12 -38 -3 -12 1 -37 10 -57 9 -20 15 -39 15 -43 -1 -5 2
-8 7 -8 5 0 7 -10 4 -21 -4 -14 0 -27 11 -35 14 -10 15 -16 6 -34 -7 -13 -8
-26 -2 -33 5 -7 8 -34 8 -60 -2 -47 -1 -48 26 -42 21 5 28 3 28 -9 0 -9 -4
-16 -10 -16 -5 0 -10 -7 -10 -16 0 -10 -5 -14 -16 -10 -8 3 -12 2 -9 -4 6 -9
18 -143 18 -192 0 -16 3 -28 8 -28 12 0 -2 -73 -17 -90 -8 -10 -10 -21 -4 -29
4 -8 6 -21 2 -29 -4 -11 -2 -13 8 -7 10 6 12 4 7 -8 -4 -10 -10 -24 -13 -32
-3 -8 -2 -15 4 -15 5 0 13 -7 16 -16 3 -8 2 -12 -4 -9 -11 7 -11 8 -14 -55 -2
-25 1 -53 6 -62 5 -11 5 -18 -1 -18 -5 0 -9 -8 -9 -17 3 -31 -12 -74 -22 -68
-6 3 -10 -3 -10 -14 0 -12 -5 -21 -11 -21 -8 0 -8 -4 0 -14 9 -11 9 -15 -1
-18 -10 -4 -10 -8 1 -22 11 -13 11 -20 3 -28 -7 -7 -12 -29 -12 -49 0 -21 -5
-41 -11 -44 -6 -4 -8 -13 -5 -21 3 -7 1 -16 -5 -20 -5 -3 -9 -13 -8 -22 4 -33
-14 -114 -26 -118 -7 -3 -13 -20 -12 -40 1 -20 -4 -39 -11 -43 -6 -3 -13 -29
-16 -56 -7 -66 -21 -122 -35 -139 -6 -7 -8 -16 -4 -19 3 -4 1 -7 -5 -7 -7 0
-11 -3 -10 -7 4 -15 -13 -53 -23 -53 -6 0 -7 -5 -4 -10 8 -12 -25 -90 -38 -90
-4 0 -5 -4 -2 -10 3 -5 1 -10 -4 -10 -6 0 -11 -7 -11 -15 0 -8 -4 -15 -8 -15
-5 0 -15 -19 -22 -42 -8 -24 -20 -51 -28 -61 -9 -9 -12 -20 -9 -23 4 -4 -8
-20 -26 -36 -31 -28 -31 -29 -13 -43 23 -18 14 -20 -16 -4 -19 10 -20 9 -15
-10 3 -15 -1 -25 -15 -32 -11 -6 -17 -13 -14 -17 4 -3 -5 -18 -19 -32 -14 -15
-27 -37 -28 -49 -1 -11 -7 -21 -14 -21 -7 0 -20 -11 -29 -25 -9 -14 -20 -22
-25 -19 -5 3 -9 0 -9 -7 0 -6 -7 -17 -15 -23 -9 -6 -17 -21 -18 -34 -1 -25 -8
-27 -26 -9 -10 10 -11 9 -6 -5 7 -17 -3 -23 -27 -19 -5 0 -8 -4 -8 -9 0 -6
-22 -20 -48 -33 -39 -18 -48 -27 -47 -45 2 -20 -2 -23 -24 -17 -17 4 -21 3
-12 -3 16 -11 7 -17 -38 -27 -41 -9 -117 -48 -146 -75 -14 -14 -24 -17 -31
-10 -7 7 -20 2 -40 -15 -45 -39 -48 -41 -76 -48 -14 -4 -34 -10 -45 -13 -15
-5 -15 -4 -3 5 13 9 13 11 0 11 -19 0 -42 -15 -41 -26 0 -5 -7 -8 -15 -8 -9 1
-13 -6 -10 -22 3 -16 1 -21 -10 -17 -8 3 -11 9 -8 14 3 5 -2 9 -10 9 -9 0 -16
-5 -16 -11 0 -6 -7 -9 -15 -5 -8 3 -15 1 -15 -4 0 -12 -100 -57 -129 -58 -13
-1 -32 -9 -43 -19 -19 -16 -21 -17 -31 -2 -8 13 -16 14 -45 5 -20 -6 -37 -18
-40 -29 -3 -10 -10 -16 -18 -13 -8 3 -14 1 -14 -4 0 -5 -8 -9 -17 -9 -50 -1
-129 -13 -139 -22 -7 -6 -18 -9 -26 -8 -7 1 -20 0 -28 -3 -63 -21 -84 -24
-147 -22 -40 1 -77 5 -83 9 -7 4 -17 2 -23 -4 -13 -13 -31 -15 -23 -3 2 4 1
14 -4 22 -7 11 -13 10 -35 -4 -23 -15 -29 -16 -36 -5 -5 8 -9 10 -9 4 0 -9
-34 -12 -193 -18 -24 -1 -37 2 -37 11 0 8 -19 12 -63 12 -35 0 -67 4 -73 9
-14 13 -76 32 -69 21 4 -6 1 -10 -4 -10 -6 0 -11 5 -11 11 0 6 -7 9 -14 6 -10
-4 -13 -1 -10 7 6 16 -60 29 -105 20 -19 -4 -53 0 -86 11 -31 9 -62 14 -71 11
-9 -3 -12 -2 -9 4 3 6 -2 13 -12 16 -10 3 -26 10 -36 15 -16 9 -57 19 -139 36
-14 3 -28 13 -31 22 -3 12 -16 18 -43 20 -22 1 -45 3 -51 3 -7 1 -13 8 -13 17
0 14 -2 14 -10 1 -8 -12 -10 -12 -16 3 -5 14 -9 15 -20 6 -8 -7 -17 -9 -21 -5
-3 3 -1 6 6 6 7 0 9 5 6 10 -4 6 -15 8 -26 5 -12 -4 -21 -1 -25 9 -4 10 -25
18 -55 22 -34 5 -49 11 -49 21 0 9 -6 13 -14 10 -8 -3 -31 7 -53 23 -21 16
-44 30 -50 30 -7 0 -13 7 -13 15 0 8 -9 15 -20 15 -11 0 -20 5 -20 10 0 6 -9
10 -19 10 -11 0 -23 5 -26 10 -4 6 -10 8 -15 5 -4 -3 -10 2 -14 10 -3 8 -12
15 -20 15 -9 0 -20 9 -26 20 -6 11 -17 20 -25 20 -8 0 -15 4 -15 9 0 9 -48 26
-63 22 -5 -1 -11 7 -14 18 -6 22 -36 38 -41 22 -2 -6 -8 -11 -14 -11 -5 0 -7
8 -4 18 4 13 -3 27 -24 45 -16 15 -30 33 -30 40 0 6 -15 19 -33 28 -22 11 -33
24 -35 42 -2 15 -9 27 -15 27 -7 0 -18 9 -25 20 -7 12 -17 18 -22 15 -5 -3
-18 3 -30 15 -11 11 -17 20 -14 20 4 0 -5 11 -19 24 -14 13 -23 27 -20 30 4 3
2 6 -4 6 -5 0 -22 22 -37 50 -20 36 -31 47 -43 43 -13 -5 -15 -2 -10 11 7 19
-30 116 -44 116 -5 0 -9 14 -9 31 0 17 -7 37 -15 46 -9 9 -13 23 -10 34 5 14
1 19 -12 20 -10 0 -13 3 -7 5 13 6 7 44 -7 44 -5 0 -9 7 -9 15 0 9 -9 25 -20
37 -11 12 -20 30 -20 39 0 10 -7 24 -15 32 -8 8 -12 17 -9 20 9 9 -14 151 -26
155 -5 2 -10 10 -10 18 0 8 -5 14 -12 14 -6 0 -3 7 8 15 12 9 15 18 9 22 -5 5
-11 26 -12 48 -1 22 -3 60 -5 85 -2 25 1 51 7 59 8 12 7 13 -4 6 -10 -6 -13
-4 -9 6 17 44 19 59 8 59 -7 0 -10 6 -7 13 3 7 2 32 -2 54 -5 23 -3 74 4 117
7 42 8 79 4 82 -12 7 0 93 18 128 11 21 12 31 4 34 -18 6 -13 19 9 25 11 3 20
13 20 24 0 15 -2 16 -11 3 -9 -12 -10 -11 -4 5 19 52 26 88 21 101 -3 7 1 19
8 26 17 18 39 85 32 97 -4 5 0 13 7 18 12 7 37 44 37 56 0 2 -15 2 -32 0 -25
-3 -30 -2 -18 6 8 6 25 11 37 11 26 0 52 50 57 109 3 40 24 91 38 91 4 0 8 6
8 14 0 8 10 22 23 31 12 8 21 16 19 18 -2 1 0 15 4 32 6 26 8 27 16 10 7 -16
8 -15 5 7 -2 15 0 29 5 30 5 2 14 23 19 47 5 25 23 60 40 80 16 20 35 42 41
50 9 11 7 17 -8 28 -18 13 -17 13 6 11 19 -2 24 1 22 15 -2 10 3 17 13 17 9 0
15 9 15 25 0 14 3 25 8 25 9 0 42 57 42 73 0 7 18 32 40 56 38 41 49 62 33 60
-20 -3 -33 2 -33 13 0 9 3 9 11 1 19 -19 46 -3 65 38 11 22 26 39 35 39 19 0
32 26 22 43 -4 7 0 7 9 -1 14 -11 19 -9 34 17 10 17 22 31 26 31 4 0 8 9 8 19
0 23 56 70 91 76 13 3 25 9 27 15 2 6 7 8 12 5 4 -3 28 15 52 38 25 24 50 41
57 39 6 -2 11 1 11 7 0 6 6 11 14 11 8 0 16 7 20 15 3 8 10 15 17 15 6 0 31
21 55 46 29 29 61 51 92 61 26 8 62 22 81 30 18 8 40 16 47 17 8 1 20 8 26 14
7 7 23 12 36 12 13 0 21 4 18 9 -5 8 39 23 74 26 8 0 35 11 60 22 25 12 64 25
88 29 23 4 42 11 42 16 0 5 4 7 9 3 6 -3 42 0 80 6 51 9 71 16 71 27 0 11 3
12 13 3 9 -7 24 -8 45 -1 18 5 32 6 32 4 0 -3 7 2 16 10 21 21 46 20 75 -3z"/>
<path d="M4483 6017 c-3 -5 -13 -7 -23 -4 -11 3 -21 -2 -24 -10 -3 -8 -11 -11
-18 -7 -18 11 -91 5 -100 -9 -4 -7 -8 -9 -8 -5 0 4 -16 0 -35 -8 -19 -8 -36
-14 -37 -13 -6 1 -45 -13 -71 -26 -25 -13 -32 -12 -80 14 -56 30 -117 46 -117
31 0 -5 -6 -7 -14 -4 -8 3 -24 1 -35 -5 -13 -8 -22 -8 -26 -1 -4 6 -11 7 -17
4 -6 -4 -29 -9 -51 -11 -23 -2 -48 -10 -58 -19 -9 -8 -20 -14 -25 -13 -20 5
-64 -14 -64 -28 0 -10 -6 -12 -20 -8 -12 4 -20 2 -20 -5 0 -8 -8 -10 -21 -7
-31 8 -102 -39 -96 -63 7 -26 -31 -43 -86 -37 -32 3 -47 1 -47 -6 0 -7 -12
-13 -27 -14 -15 0 -29 -6 -31 -12 -2 -6 -10 -11 -18 -11 -8 0 -14 -7 -14 -15
0 -8 -4 -15 -10 -15 -5 0 -10 5 -10 10 0 17 -45 -18 -60 -45 -8 -14 -19 -23
-27 -21 -7 3 -20 -5 -30 -17 -10 -12 -32 -29 -48 -37 -17 -9 -34 -26 -40 -38
-5 -12 -15 -22 -22 -22 -7 0 -17 -9 -23 -19 -12 -24 -13 -42 -1 -22 5 7 11 9
14 4 3 -5 -12 -20 -34 -33 -31 -20 -38 -30 -37 -50 2 -17 -2 -25 -12 -25 -18
0 -40 -19 -40 -34 0 -6 -7 -11 -15 -11 -8 0 -20 -10 -26 -22 -7 -13 -18 -27
-26 -31 -8 -5 -11 -17 -8 -30 4 -16 0 -25 -17 -32 -13 -6 -22 -16 -20 -23 1
-7 -5 -15 -13 -18 -8 -3 -12 -11 -8 -18 14 -22 11 -38 -6 -43 -10 -3 -29 -28
-42 -56 -13 -29 -32 -61 -42 -72 -11 -12 -16 -28 -13 -41 3 -12 0 -27 -8 -33
-12 -11 -24 -46 -32 -96 -7 -43 -12 -75 -20 -107 -11 -50 -15 -70 -17 -105 -1
-18 -5 -33 -9 -33 -5 0 -8 -13 -8 -30 0 -16 -5 -30 -11 -30 -6 0 -8 -8 -4 -19
3 -10 1 -30 -4 -44 -6 -14 -6 -27 -2 -29 4 -2 5 -34 0 -73 -4 -38 -4 -74 1
-80 4 -5 6 -19 5 -30 -14 -106 -14 -135 5 -200 11 -38 25 -72 32 -77 9 -5 9
-8 1 -8 -8 0 -9 -10 -1 -37 13 -47 25 -63 49 -63 21 0 26 -26 7 -32 -11 -4 -9
-10 38 -99 7 -14 25 -36 39 -49 14 -13 25 -27 25 -31 0 -12 56 -92 79 -113 11
-10 35 -41 52 -68 20 -30 37 -47 45 -44 8 3 14 -1 14 -9 0 -8 4 -15 9 -15 5 0
16 -6 23 -13 32 -31 85 -66 91 -60 4 3 7 -1 7 -9 0 -17 26 -32 40 -23 4 3 13
-9 20 -25 8 -20 24 -33 49 -41 20 -7 41 -18 46 -25 6 -7 25 -15 43 -18 19 -2
39 -11 45 -20 16 -20 82 -47 118 -48 22 -1 29 -6 29 -21 0 -16 3 -17 15 -7 12
10 15 10 15 -4 0 -9 8 -16 19 -16 11 0 23 -4 26 -10 3 -5 16 -10 29 -10 12 0
31 -7 42 -15 10 -8 28 -14 39 -15 17 0 17 2 5 10 -13 8 -12 10 3 10 9 0 17 -7
17 -15 0 -10 14 -17 40 -21 22 -4 40 -11 40 -17 0 -5 14 -7 35 -4 19 3 37 1
41 -5 3 -5 15 -8 25 -5 11 3 19 0 19 -5 0 -6 8 -4 18 5 12 11 22 13 32 7 17
-11 170 -9 170 1 0 4 -5 9 -11 11 -6 2 -1 12 11 23 17 16 20 16 14 2 -13 -36
18 -47 156 -52 73 -3 146 -1 163 4 48 15 121 36 127 37 37 6 88 17 100 21 8 3
24 7 35 8 31 3 88 31 109 54 10 11 24 17 32 14 8 -3 14 -1 14 5 0 6 13 13 29
17 16 3 35 13 42 21 6 8 19 14 28 14 18 0 53 35 44 44 -4 3 1 6 10 6 23 0 149
67 169 90 9 11 21 20 27 20 6 0 11 5 11 10 0 6 7 10 16 10 10 0 14 6 11 14 -4
10 -1 13 8 10 7 -3 29 10 47 28 18 19 45 40 60 47 14 8 29 23 32 35 3 11 21
38 38 58 90 104 113 132 110 140 -1 5 9 20 22 33 14 14 28 41 32 60 3 19 12
39 20 46 8 6 14 20 14 30 0 11 4 19 9 19 13 0 44 69 43 99 0 14 5 29 10 32 5
3 10 13 12 21 1 9 8 23 15 31 7 9 11 24 9 34 -2 11 2 17 11 15 10 -2 12 5 9
23 -3 16 0 28 9 33 11 7 11 14 -3 48 -9 21 -13 36 -9 32 4 -4 16 -3 27 3 15 8
17 13 8 24 -7 8 -9 19 -5 25 3 5 1 10 -4 10 -6 0 -11 8 -11 18 0 13 2 14 9 4
17 -28 31 14 28 87 -3 52 0 71 9 71 13 0 13 17 1 37 -4 6 -3 15 3 18 7 5 8 11
1 19 -12 14 -17 134 -7 157 4 10 3 20 -3 23 -6 4 -7 36 -4 81 4 65 3 75 -12
75 -9 0 -13 5 -10 10 4 6 11 8 16 5 5 -4 9 -2 9 3 0 17 -13 22 -27 10 -12 -10
-12 -7 -3 14 10 21 8 34 -9 73 -12 26 -21 51 -21 56 0 4 -5 20 -12 36 -12 28
-15 38 -17 61 0 6 -10 21 -21 32 -11 11 -16 20 -10 20 12 0 1 31 -16 45 -6 6
-17 28 -24 50 -7 21 -26 53 -41 70 -16 16 -29 33 -29 37 0 3 -14 11 -31 17
-27 9 -30 13 -19 26 11 13 9 20 -11 43 -41 46 -70 72 -80 72 -5 0 -9 9 -9 20
0 13 -7 20 -20 20 -13 0 -20 7 -20 20 0 11 -7 20 -15 20 -8 0 -15 4 -15 8 0 5
-11 14 -25 20 -14 6 -25 18 -25 26 0 8 -13 17 -29 21 -16 3 -35 13 -42 21 -6
8 -18 14 -25 14 -8 0 -14 5 -14 11 0 6 -9 9 -20 6 -11 -3 -20 -1 -20 4 0 5 6
9 13 9 6 0 3 7 -8 16 -11 8 -28 13 -38 10 -12 -3 -22 4 -29 20 -7 15 -17 23
-26 19 -10 -4 -12 0 -8 10 3 9 2 14 -3 11 -4 -3 -18 6 -29 19 -12 14 -28 25
-36 25 -8 0 -20 8 -25 18 -6 9 -11 14 -11 10 0 -4 -16 0 -34 7 -22 10 -37 11
-41 5 -9 -15 -56 -12 -69 5 -6 8 -31 16 -56 18 -25 1 -52 7 -60 12 -16 11 -25
12 -117 16 -34 2 -60 6 -58 9 2 4 -3 7 -11 7 -8 0 -17 -4 -21 -10z m-512 -208
c-9 -34 -9 -59 1 -65 21 -13 108 -32 113 -24 2 4 17 5 32 3 16 -3 51 -6 80 -8
28 -2 57 -6 62 -10 6 -3 17 -3 24 2 27 17 318 16 347 -2 6 -4 23 -4 36 -1 14
4 23 3 21 -1 -3 -5 10 -8 28 -8 19 1 32 -2 29 -6 -4 -8 57 -29 86 -29 11 0 12
-2 3 -8 -8 -5 -2 -12 17 -20 16 -8 32 -13 36 -12 3 1 11 -6 18 -16 13 -17 32
-29 127 -76 28 -15 44 -29 41 -37 -3 -8 0 -11 6 -7 6 3 17 0 25 -8 8 -8 17
-12 21 -9 3 4 6 1 6 -5 0 -7 6 -12 12 -12 17 0 148 -138 148 -155 0 -14 27
-28 39 -21 4 3 8 -7 9 -22 1 -15 9 -32 17 -38 8 -6 15 -18 15 -27 0 -10 6 -14
15 -11 12 5 14 0 9 -24 -4 -19 0 -38 11 -55 9 -15 14 -31 10 -37 -4 -7 2 -14
14 -17 12 -3 21 -13 21 -23 0 -10 6 -25 14 -32 11 -12 11 -17 1 -32 -13 -16
-10 -56 4 -56 4 0 12 5 19 12 13 13 15 8 6 -16 -3 -8 -12 -12 -20 -9 -22 8
-16 -17 9 -38 12 -10 16 -18 10 -19 -7 0 -13 -7 -13 -17 0 -9 3 -14 6 -10 3 3
12 1 19 -6 9 -9 9 -16 1 -29 -8 -13 -8 -23 2 -38 15 -24 16 -44 2 -35 -13 8
-13 3 5 -32 14 -28 17 -57 16 -168 -1 -80 -8 -136 -22 -161 -10 -20 -11 -29
-1 -44 16 -27 15 -29 -10 -24 -13 2 -17 1 -10 -2 10 -5 10 -9 1 -20 -7 -8 -13
-29 -14 -46 -2 -17 -7 -33 -11 -37 -16 -11 -34 -50 -34 -73 0 -13 -6 -34 -13
-48 -7 -14 -21 -50 -31 -80 -10 -30 -24 -62 -31 -70 -7 -8 -11 -23 -10 -32 2
-10 -10 -29 -26 -42 -16 -14 -29 -27 -29 -30 0 -3 -18 -22 -40 -42 -22 -20
-40 -44 -40 -53 -1 -22 -43 -72 -64 -75 -21 -3 -36 -24 -29 -43 3 -8 -2 -13
-16 -13 -11 0 -28 -11 -37 -25 -9 -14 -25 -25 -35 -25 -11 0 -19 -4 -19 -10 0
-5 -7 -10 -15 -10 -8 0 -23 -8 -33 -17 -43 -41 -68 -57 -82 -55 -8 1 -32 -13
-52 -32 -35 -32 -59 -45 -96 -50 -8 -2 -25 -13 -38 -25 -13 -12 -28 -20 -34
-16 -6 4 -17 2 -24 -4 -7 -6 -21 -9 -30 -5 -9 4 -18 0 -22 -9 -3 -9 -12 -13
-20 -10 -9 3 -22 -3 -30 -16 -11 -15 -26 -21 -53 -21 -20 0 -42 -5 -47 -10 -6
-6 -47 -12 -92 -13 -61 -1 -81 -5 -77 -14 2 -7 -2 -13 -9 -13 -8 0 -16 5 -18
12 -3 7 -27 13 -56 14 -28 2 -56 5 -61 8 -5 4 -12 3 -15 -2 -2 -4 -40 -5 -83
-1 -43 4 -83 3 -89 -2 -10 -8 -40 -6 -104 5 -8 2 -26 8 -40 13 -14 6 -31 8
-38 6 -7 -3 -20 1 -29 8 -13 11 -17 11 -20 2 -3 -7 -9 -13 -14 -13 -4 0 -6 6
-3 13 6 16 -28 33 -83 43 -21 3 -43 11 -49 16 -7 5 -38 22 -70 38 -33 17 -72
40 -87 52 -22 18 -30 20 -36 9 -5 -7 -14 -10 -20 -7 -6 4 -9 10 -7 14 8 13
-18 37 -59 57 -22 11 -43 18 -47 17 -4 -1 -16 10 -26 23 -11 14 -23 25 -27 25
-4 0 -20 14 -35 30 -15 17 -38 30 -50 30 -16 0 -20 4 -16 18 4 12 -3 21 -24
30 -17 8 -28 17 -25 22 3 4 -2 14 -11 21 -9 7 -27 35 -41 63 -14 28 -32 56
-40 61 -8 6 -25 31 -37 56 -13 24 -29 44 -36 44 -7 0 -15 6 -18 14 -3 8 0 11
7 7 6 -4 11 -1 11 8 0 8 -5 18 -10 21 -24 15 -42 85 -55 210 -1 11 -5 28 -10
39 -4 10 -4 21 2 25 5 3 9 52 9 109 -1 56 2 102 7 102 16 0 6 39 -12 45 -11 3
-22 12 -25 20 -7 20 21 19 32 0 6 -11 11 -3 20 32 6 27 10 57 8 68 -2 11 3 36
9 56 7 20 12 54 11 77 -1 22 2 39 6 36 4 -3 8 4 8 15 0 11 5 23 11 27 6 3 9
17 7 29 -4 16 -1 22 9 18 7 -3 13 0 13 6 0 6 -5 11 -12 11 -6 0 -2 9 9 20 22
20 24 25 42 96 6 23 28 59 51 84 22 24 43 54 46 67 4 13 10 23 14 23 4 0 10 9
13 21 4 13 10 18 18 14 7 -5 10 -3 7 6 -6 15 18 69 30 69 4 0 21 22 37 50 17
27 35 50 40 50 11 0 15 18 17 73 0 15 6 27 13 27 8 0 10 -10 7 -27 -5 -26 -4
-27 14 -13 10 8 27 25 37 37 10 13 35 30 55 40 20 9 58 32 84 51 26 19 54 35
62 36 8 1 23 9 33 17 42 34 83 59 107 65 15 3 32 14 39 23 6 9 19 16 27 16 8
0 24 19 35 43 22 48 53 62 91 42 13 -8 27 -10 31 -7 3 4 12 2 19 -4 14 -11 38
-3 29 10 -2 5 7 6 20 3 15 -2 25 0 25 8 0 6 8 10 18 8 9 -2 15 -11 13 -19z"/>
<path d="M7688 6847 c-21 -12 -38 -28 -38 -35 0 -7 -7 -15 -15 -18 -8 -4 -15
-10 -15 -14 0 -5 -5 -21 -12 -37 -6 -15 -10 -35 -9 -43 1 -12 0 -13 -8 -1 -7
11 -11 10 -20 -6 -5 -11 -7 -23 -4 -27 3 -3 1 -6 -5 -6 -7 0 -11 -10 -10 -23
1 -12 -13 -52 -30 -89 -18 -36 -35 -75 -37 -86 -2 -11 -12 -39 -23 -63 -27
-61 -36 -105 -22 -114 9 -6 9 -9 1 -15 -7 -4 -13 -18 -15 -31 -1 -14 -6 -31
-11 -39 -5 -7 -10 -27 -12 -44 -2 -17 -4 -37 -5 -43 -1 -7 -6 -13 -13 -13 -6
0 -11 -8 -12 -17 -4 -41 -22 -111 -41 -158 -10 -27 -17 -56 -15 -62 3 -7 0
-13 -5 -13 -13 0 -26 -90 -14 -102 5 -5 -3 -33 -21 -70 -17 -37 -31 -84 -33
-117 -7 -96 -10 -108 -28 -136 -32 -49 -56 -245 -30 -245 8 0 14 -7 14 -16 0
-10 -6 -14 -15 -11 -23 9 -26 -6 -31 -126 -2 -62 -7 -123 -11 -137 -3 -14 -5
-37 -4 -52 1 -15 -3 -36 -9 -48 -6 -12 -13 -50 -15 -85 -2 -35 -6 -69 -10 -75
-4 -6 -1 -17 5 -25 10 -12 10 -15 -2 -15 -9 0 -18 -23 -27 -72 -7 -40 -15 -81
-17 -91 -2 -10 -6 -27 -9 -38 -4 -11 -1 -26 5 -34 9 -10 9 -15 1 -15 -6 0 -10
-17 -10 -37 0 -49 -8 -171 -17 -253 -4 -36 -7 -68 -6 -71 3 -17 -33 -208 -49
-256 -6 -19 -9 -48 -7 -64 3 -16 1 -29 -3 -29 -11 0 -18 -40 -7 -46 5 -3 7
-17 4 -29 -5 -19 3 -31 40 -64 25 -22 67 -48 92 -57 26 -10 52 -21 58 -26 22
-16 115 -22 124 -8 4 7 15 10 25 7 9 -4 14 -11 10 -17 -3 -5 7 -12 22 -16 15
-3 36 -8 46 -11 17 -4 25 11 10 20 -5 2 -1 1 7 -1 8 -3 31 -6 50 -6 19 -1 38
-6 42 -12 9 -13 -8 -131 -23 -156 -12 -23 -12 -41 1 -33 6 3 10 1 10 -4 0 -6
-4 -11 -10 -11 -17 0 -12 -70 5 -77 14 -5 14 -7 0 -23 -10 -11 -15 -31 -14
-47 2 -15 0 -34 -4 -40 -5 -7 -5 -45 -2 -85 4 -40 8 -125 9 -188 1 -63 5 -140
9 -170 4 -30 9 -82 12 -115 2 -33 9 -61 14 -63 7 -2 6 -10 -1 -21 -8 -13 -5
-28 11 -63 11 -26 21 -54 21 -62 0 -9 5 -16 12 -16 6 0 9 -3 5 -6 -7 -7 54
-60 65 -57 4 2 8 -2 8 -8 0 -6 9 -9 20 -6 11 3 23 1 26 -4 6 -10 84 -9 84 1 0
3 9 6 21 7 31 3 84 47 103 86 18 39 21 93 6 102 -7 4 -7 12 0 24 5 10 7 29 3
42 -3 13 -6 39 -5 58 0 18 -5 43 -13 55 -11 16 -12 31 -5 61 12 48 4 160 -13
194 -9 19 -9 25 1 28 6 3 10 9 6 14 -3 5 0 9 6 9 12 0 4 87 -10 105 -6 8 -6
90 0 90 1 0 3 19 5 43 2 24 -3 54 -10 69 -8 15 -11 31 -8 36 3 5 -1 14 -8 19
-8 5 -10 11 -4 14 6 2 9 22 9 44 -1 22 2 42 6 45 5 3 6 14 3 25 -3 11 -10 17
-15 14 -6 -4 -5 2 1 14 14 27 14 69 0 78 -8 4 -7 9 2 15 9 5 10 9 3 9 -8 0 -9
11 -4 35 6 26 4 39 -6 50 -17 16 -19 29 -3 19 8 -4 9 1 3 17 -4 13 -8 35 -9
48 -1 13 -9 29 -19 36 -15 11 -15 13 -1 19 9 3 13 2 10 -4 -3 -6 -1 -10 5 -10
7 0 11 19 9 53 -1 29 1 59 5 65 4 7 2 12 -3 12 -6 0 -11 5 -11 11 0 5 4 7 10
4 6 -3 7 1 4 10 -4 9 -13 14 -21 10 -12 -4 -14 0 -10 16 4 15 2 19 -9 15 -8
-3 -14 -1 -14 4 0 16 28 11 38 -6 8 -14 10 -13 15 5 3 11 1 21 -4 21 -9 0 -4
134 6 150 4 6 0 10 -7 10 -10 0 -10 2 1 9 11 7 10 10 -4 18 -14 8 -15 14 -7
30 6 11 11 42 11 69 0 27 2 76 4 109 2 33 1 79 -3 103 -4 23 -5 42 -1 42 10 0
9 95 -2 102 -14 9 -19 68 -6 68 8 0 10 17 7 50 -3 28 -1 50 4 50 12 0 7 160
-5 178 -5 6 -6 12 -1 12 5 0 10 20 12 45 2 35 -1 45 -13 45 -17 0 -20 16 -6
24 5 4 11 0 14 -6 2 -7 5 5 5 27 0 22 2 54 4 70 2 17 0 46 -4 65 -4 19 -3 40
3 46 7 8 6 15 -2 19 -8 6 -8 10 2 15 9 6 10 13 3 22 -9 11 -11 32 -5 41 1 1 3
46 4 99 1 54 5 98 8 98 4 0 6 15 6 33 0 17 1 57 3 88 2 30 0 60 -3 67 -4 6 -3
30 3 54 15 65 13 77 -15 84 -14 3 -25 10 -25 16 0 5 9 6 20 3 17 -5 20 -2 21
22 0 15 2 66 4 113 3 52 1 87 -6 91 -7 4 -6 22 4 55 8 27 12 58 10 69 -3 11
-5 50 -6 87 -1 38 -5 68 -9 68 -5 0 -8 11 -8 25 0 14 6 25 13 25 10 0 12 29
11 126 -1 69 -5 142 -10 162 -4 20 -8 43 -10 50 -1 6 1 12 5 12 4 0 6 24 3 53
-4 53 -26 87 -56 87 -7 0 -16 6 -19 13 -8 20 -49 17 -89 -6z"/>
<path d="M973 6793 c-7 -2 -13 -13 -13 -23 0 -10 -5 -20 -12 -22 -9 -3 -8 -16
1 -54 7 -27 14 -81 16 -120 2 -43 11 -90 22 -116 18 -40 19 -48 6 -108 -7 -36
-11 -70 -8 -77 2 -7 0 -15 -5 -18 -6 -4 -10 -14 -10 -25 0 -16 -18 -30 -40
-30 -14 0 -29 57 -18 68 6 6 6 12 -1 16 -5 4 -8 13 -4 21 3 10 -1 15 -13 15
-11 0 -15 3 -8 8 14 9 24 38 17 46 -8 8 -11 56 -3 56 3 0 6 11 6 25 1 14 -2
25 -8 25 -5 0 -6 -4 -3 -10 3 -5 2 -10 -4 -10 -5 0 -9 9 -8 19 0 11 5 17 10
14 5 -3 7 7 4 23 -3 16 -9 51 -12 79 -4 27 -13 62 -21 78 -8 15 -13 31 -11 35
3 4 1 17 -4 30 -9 25 -39 30 -39 7 0 -8 -6 -15 -12 -15 -9 0 -8 -4 2 -10 9 -6
10 -10 3 -10 -6 0 -15 5 -18 11 -4 6 -14 8 -22 5 -9 -4 -13 -1 -10 6 2 7 12
12 22 10 13 -3 16 1 11 13 -3 9 -6 18 -6 20 0 2 -8 1 -18 -2 -23 -6 -68 -91
-66 -123 1 -14 7 -50 13 -80 6 -30 9 -82 6 -115 -3 -33 -7 -90 -10 -126 -2
-37 -9 -78 -14 -92 -5 -14 -7 -27 -4 -30 2 -3 2 -14 -1 -24 -4 -14 -15 -18
-43 -18 -50 1 -61 9 -69 50 -3 20 -10 37 -14 40 -9 5 -2 126 10 171 4 17 4 37
0 44 -5 8 -5 23 0 35 4 12 13 64 20 116 14 111 5 153 -33 147 -12 -2 -21 -9
-19 -17 2 -8 -3 -11 -13 -8 -11 5 -23 -10 -46 -54 -17 -34 -28 -63 -25 -66 3
-3 -4 -23 -15 -44 -11 -22 -17 -39 -13 -39 4 0 1 -6 -5 -13 -6 -8 -8 -16 -5
-20 3 -3 -4 -32 -16 -64 -12 -32 -23 -69 -25 -83 -1 -14 -6 -47 -10 -74 -7
-40 -5 -50 8 -58 19 -10 23 -43 7 -53 -6 -3 -10 1 -10 9 0 28 -15 17 -32 -21
-11 -27 -13 -42 -6 -50 7 -9 7 -13 0 -13 -15 0 -8 -128 7 -143 6 -6 11 -24 11
-39 0 -15 4 -28 9 -28 5 0 7 -9 4 -20 -3 -12 0 -20 6 -20 7 0 9 -4 6 -10 -3
-5 -1 -10 4 -10 6 0 11 -8 11 -19 0 -10 7 -24 14 -31 8 -6 20 -27 26 -46 6
-18 26 -45 43 -59 18 -14 26 -25 20 -25 -9 0 -8 -6 4 -19 9 -11 23 -17 31 -13
11 4 14 1 9 -12 -6 -15 0 -36 29 -111 8 -22 13 -46 15 -88 1 -16 7 -31 14 -33
6 -3 10 -17 7 -34 -3 -24 -1 -30 14 -30 14 0 15 -3 6 -12 -7 -7 -8 -17 -1 -30
5 -10 7 -18 3 -18 -3 0 1 -11 9 -24 9 -13 13 -33 10 -45 -3 -13 -1 -21 7 -21
10 0 9 -14 -7 -57 -3 -8 3 -13 14 -13 13 0 19 -8 21 -26 2 -22 -2 -25 -17 -21
-12 3 -22 -1 -25 -10 -3 -8 -1 -11 4 -8 6 3 10 2 10 -4 0 -5 -5 -13 -10 -16
-6 -4 -7 -12 -3 -18 5 -7 10 -34 11 -62 2 -27 8 -52 14 -56 7 -5 7 -8 -1 -10
-7 -3 -13 -52 -16 -139 -3 -74 -5 -139 -6 -145 -4 -30 11 -129 21 -135 7 -5 6
-11 -5 -20 -9 -8 -13 -20 -9 -33 3 -11 2 -17 -3 -14 -9 6 -10 -111 -1 -130 6
-13 2 -86 -6 -110 -4 -14 -3 -23 3 -23 6 0 11 5 11 12 0 6 3 8 6 5 4 -4 2 -12
-3 -19 -6 -8 -8 -34 -4 -65 4 -29 4 -50 -1 -47 -4 3 -8 0 -8 -5 0 -6 3 -11 8
-11 4 0 7 -82 8 -183 0 -209 8 -364 17 -373 4 -4 4 -18 1 -30 -4 -17 -1 -26
10 -30 13 -5 14 -9 5 -20 -6 -8 -15 -12 -19 -9 -4 3 -6 -28 -3 -68 5 -99 5
-96 3 -147 -4 -90 0 -109 25 -135 19 -18 22 -25 10 -25 -8 0 -15 5 -15 10 0 6
-7 10 -16 10 -11 0 -14 -5 -9 -17 13 -32 15 -76 4 -89 -7 -8 -7 -14 1 -19 7
-4 7 -12 0 -24 -5 -10 -6 -21 -3 -25 4 -3 8 -35 9 -70 1 -35 6 -72 11 -82 5
-11 8 -36 8 -56 0 -24 5 -38 12 -38 10 0 10 -6 1 -24 -7 -18 -8 -37 -1 -65 7
-27 7 -43 0 -50 -7 -7 -6 -15 3 -26 10 -12 10 -15 -4 -15 -9 0 -16 -7 -16 -15
0 -8 3 -15 8 -15 4 0 7 -29 6 -65 0 -41 3 -65 10 -65 6 0 4 -5 -4 -10 -13 -8
-13 -10 2 -10 25 0 30 -16 12 -34 -8 -9 -11 -16 -6 -16 6 0 8 -9 5 -20 -6 -22
14 -53 28 -44 5 3 9 0 9 -6 0 -6 12 -8 32 -5 20 4 34 1 39 -7 7 -10 11 -10 21
0 6 6 20 12 29 12 9 0 25 12 35 28 23 34 25 171 5 312 -8 52 -14 110 -15 128
-1 17 -3 32 -6 32 -3 0 -5 34 -5 76 -1 55 -5 78 -15 84 -9 6 -10 10 -3 10 6 0
10 8 8 18 -2 9 -4 20 -4 25 -1 4 -8 7 -16 7 -18 0 -20 19 -2 26 19 7 21 32 21
207 0 86 3 157 7 157 4 0 5 9 2 20 -3 11 -12 20 -21 20 -14 0 -13 2 1 13 25
18 32 183 8 198 -14 9 -14 10 0 6 12 -4 16 3 17 34 1 21 -3 39 -8 39 -6 0 -10
7 -10 15 0 8 5 15 11 15 8 0 8 4 -1 15 -6 8 -8 20 -4 27 12 18 13 168 1 175
-5 3 -4 9 3 13 9 6 9 12 0 27 -9 14 -10 34 -3 77 6 31 6 59 2 62 -5 3 -9 0 -9
-7 0 -7 -3 -9 -6 -6 -4 4 -2 13 5 21 15 18 17 104 3 118 -6 6 -8 17 -5 24 3 8
0 21 -7 29 -9 11 -9 15 -1 15 7 0 11 14 10 38 -2 21 1 43 5 50 4 7 4 12 -1 12
-4 0 -7 35 -5 77 5 116 5 168 0 273 -3 52 -1 147 4 210 5 63 11 138 13 165 2
28 8 73 13 100 6 33 6 52 0 56 -7 4 -6 9 1 13 6 4 9 11 6 16 -3 5 1 24 8 42 8
18 14 35 14 38 0 3 6 16 13 30 8 14 14 36 14 50 1 14 6 24 13 23 7 -2 15 14
19 35 4 20 11 45 16 55 6 12 5 17 -4 18 -7 0 -3 5 10 11 12 6 22 18 22 27 0 9
9 35 20 56 11 22 18 45 16 52 -3 7 1 10 10 6 8 -3 14 -2 13 3 -4 25 3 44 16
44 21 0 19 18 -2 23 -15 4 -15 5 2 6 21 1 75 78 75 106 0 8 4 15 8 15 17 0 19
153 2 158 -6 2 -3 16 9 36 21 33 26 105 16 211 -2 28 -6 90 -9 139 -2 54 -8
91 -16 96 -6 4 -10 13 -9 21 2 8 -4 39 -13 69 -10 30 -19 78 -21 107 -3 42
-10 58 -38 87 -18 20 -39 36 -47 36 -7 0 -10 5 -7 11 15 24 -53 48 -92 32z"/>
</g>
</svg>
