<?xml version="1.0" standalone="no"?>
<!DOCTYPE svg PUBLIC "-//W3C//DTD SVG 20010904//EN"
 "http://www.w3.org/TR/2001/REC-SVG-20010904/DTD/svg10.dtd">
<svg version="1.0" xmlns="http://www.w3.org/2000/svg"
 width="800.000000pt" height="1050.000000pt" viewBox="0 0 800.000000 1050.000000"
 preserveAspectRatio="xMidYMid meet">
<metadata>
Created by potrace 1.16, written by Peter Selinger 2001-2019
</metadata>
<g transform="translate(0.000000,1050.000000) scale(0.100000,-0.100000)"
fill="#000000" stroke="none">
<path d="M3786 9139 c5 -16 -2 -19 -71 -34 -5 -1 -14 -3 -20 -4 -5 -2 -30 -2
-54 -1 -34 1 -41 -1 -35 -12 6 -10 4 -10 -9 1 -13 10 -20 11 -30 2 -8 -6 -17
-8 -20 -4 -4 3 -13 1 -20 -5 -8 -7 -17 -9 -20 -5 -4 3 -7 -1 -7 -10 0 -15 -3
-15 -20 -5 -17 11 -22 10 -31 -2 -8 -11 -12 -12 -16 -3 -6 16 -44 8 -91 -19
-18 -10 -37 -16 -41 -14 -4 3 -18 -4 -29 -15 l-22 -20 -1 28 c-2 24 -2 25 -6
6 -3 -17 -11 -23 -31 -23 -14 0 -37 -10 -50 -22 -14 -13 -22 -18 -18 -11 3 6
2 15 -4 18 -6 4 -9 1 -8 -6 2 -7 -16 -22 -39 -34 -24 -12 -40 -25 -37 -28 3
-3 -3 -3 -15 0 -12 3 -21 1 -21 -5 0 -5 -11 -13 -25 -16 -14 -4 -25 -11 -25
-16 0 -5 -6 -7 -14 -4 -8 3 -19 -3 -26 -16 -9 -16 -15 -19 -25 -10 -9 8 -14 6
-19 -5 -3 -9 -11 -13 -17 -9 -6 3 -15 0 -20 -7 -4 -8 -12 -14 -16 -14 -13 -1
-58 -27 -65 -39 -4 -6 -13 -11 -20 -11 -7 -1 -12 -7 -10 -14 1 -7 -2 -10 -8
-6 -6 4 -20 -5 -31 -19 -11 -14 -27 -26 -35 -26 -8 0 -14 -6 -14 -14 0 -8 -11
-17 -25 -20 -14 -4 -23 -11 -20 -16 3 -6 -1 -10 -10 -10 -8 0 -18 -7 -22 -16
-3 -9 -13 -14 -24 -11 -11 3 -19 1 -19 -5 0 -5 -7 -16 -15 -24 -10 -10 -15
-11 -15 -3 0 9 -3 9 -14 -1 -8 -6 -12 -18 -9 -26 7 -19 -14 -18 -25 1 -7 13
-11 11 -22 -12 -7 -15 -14 -31 -14 -35 -1 -5 -5 -9 -11 -10 -14 -3 -36 -48
-29 -59 3 -5 -3 -9 -13 -9 -19 -1 -75 -29 -58 -30 6 0 -1 -7 -15 -15 -14 -7
-25 -17 -25 -22 1 -11 -50 -53 -65 -53 -7 0 -10 -7 -6 -16 3 -8 2 -12 -3 -9
-5 3 -12 -3 -15 -12 -3 -10 -17 -30 -30 -45 -20 -21 -22 -27 -11 -32 8 -3 15
-1 15 4 0 6 5 10 10 10 18 0 11 -29 -10 -40 -11 -6 -20 -7 -19 -3 4 23 -3 23
-21 0 -11 -14 -20 -28 -20 -32 0 -4 -9 -16 -21 -26 -11 -10 -18 -22 -15 -28 4
-6 -2 -8 -14 -6 -11 2 -18 0 -15 -5 3 -5 -4 -14 -15 -20 -11 -6 -18 -15 -15
-21 4 -5 -1 -9 -10 -9 -9 0 -13 -4 -10 -10 3 -5 0 -10 -7 -10 -9 0 -9 -3 2
-10 13 -8 12 -10 -3 -10 -14 0 -17 -5 -12 -20 5 -14 2 -20 -10 -20 -9 0 -13
-5 -10 -10 3 -6 -1 -13 -10 -16 -10 -4 -12 -10 -6 -18 7 -8 1 -16 -20 -25 -16
-7 -29 -19 -29 -26 0 -7 -5 -15 -11 -17 -9 -3 -9 -10 0 -26 7 -12 8 -22 2 -22
-5 0 -12 6 -14 13 -3 7 -6 5 -6 -5 -1 -10 -5 -18 -11 -18 -5 0 -10 -10 -10
-22 0 -13 -7 -36 -15 -52 -8 -15 -15 -33 -15 -38 0 -5 -6 -16 -12 -23 -33 -37
-39 -46 -33 -55 3 -6 -1 -10 -10 -10 -11 0 -14 -6 -10 -23 4 -15 -1 -31 -14
-46 -12 -13 -21 -30 -21 -37 0 -7 -5 -14 -11 -16 -5 -2 -11 -24 -12 -48 -1
-25 -7 -51 -14 -58 -7 -7 -13 -22 -13 -32 0 -10 -3 -26 -7 -36 -5 -13 -3 -15
8 -9 11 6 12 5 2 -6 -7 -7 -13 -28 -13 -46 0 -17 -4 -54 -9 -80 -22 -110 -23
-125 -9 -117 10 6 10 4 -1 -9 -7 -9 -10 -17 -5 -17 5 0 1 -5 -8 -10 -13 -8
-15 -19 -11 -48 4 -20 6 -52 6 -69 0 -18 3 -33 6 -33 4 0 7 -18 8 -41 1 -22 7
-47 13 -54 8 -9 8 -14 -1 -17 -7 -2 -12 -28 -12 -63 -1 -55 -16 -93 -31 -78
-3 4 -12 -8 -18 -25 -7 -18 -16 -32 -20 -32 -4 0 -8 -5 -8 -11 0 -6 -10 -19
-22 -30 -17 -13 -20 -21 -11 -27 8 -5 3 -13 -16 -26 -16 -11 -36 -34 -46 -53
-10 -18 -22 -33 -27 -33 -5 0 -7 -4 -3 -9 3 -5 -8 -19 -25 -31 -16 -12 -30
-27 -30 -35 0 -7 -7 -15 -15 -19 -16 -6 -21 -36 -5 -36 5 0 6 8 3 17 -6 15 -5
16 9 3 17 -16 7 -40 -17 -40 -6 0 -12 -13 -12 -31 0 -17 -5 -34 -13 -39 -9 -6
-8 -10 6 -19 19 -10 17 -12 -8 -15 -7 0 -19 -20 -26 -43 -8 -24 -18 -43 -23
-43 -4 0 -6 -20 -4 -46 3 -26 1 -43 -4 -39 -5 3 -12 1 -16 -5 -3 -5 -2 -10 4
-10 5 0 1 -17 -9 -38 -12 -25 -18 -54 -15 -83 1 -24 -1 -52 -6 -61 -5 -9 -5
-19 -1 -22 10 -6 8 -83 -3 -108 -4 -10 -3 -18 3 -18 6 0 7 -14 1 -41 -11 -50
-6 -138 11 -168 6 -13 7 -21 2 -17 -16 9 -19 -24 -7 -68 8 -30 7 -40 -2 -43
-10 -4 -9 -9 3 -20 13 -13 13 -17 2 -24 -12 -8 -4 -13 15 -10 5 1 6 -3 2 -9
-9 -14 4 -52 16 -45 9 6 10 2 13 -36 0 -11 9 -27 20 -34 12 -9 17 -21 13 -35
-4 -16 1 -24 18 -32 13 -6 21 -16 19 -23 -3 -6 2 -18 11 -25 8 -7 15 -21 15
-32 0 -14 5 -18 15 -15 8 4 17 2 20 -3 4 -6 1 -10 -5 -10 -6 0 -4 -10 6 -25 9
-14 23 -25 31 -25 8 0 12 -4 9 -9 -6 -9 16 -40 66 -95 15 -17 28 -34 28 -39 0
-4 5 -5 10 -2 5 3 10 2 10 -3 0 -4 18 -18 39 -30 21 -12 41 -29 45 -37 3 -8
11 -15 18 -15 7 0 25 -6 40 -14 15 -8 37 -12 49 -9 15 4 20 2 15 -5 -4 -7 3
-14 19 -18 14 -3 25 -10 25 -16 0 -5 5 -6 10 -3 6 3 10 1 10 -4 0 -6 4 -11 10
-11 5 0 6 8 3 17 -5 13 -3 15 13 8 10 -4 47 -10 82 -13 34 -2 62 -9 62 -14 0
-6 8 -4 17 3 14 11 15 11 9 1 -7 -11 3 -13 50 -10 65 5 91 -9 97 -51 2 -12 9
-26 16 -31 9 -5 9 -10 3 -14 -7 -4 -7 -18 -2 -39 22 -81 24 -97 17 -150 -3
-20 -2 -35 3 -32 5 3 7 13 4 23 -3 9 1 6 9 -7 13 -22 13 -27 0 -39 -8 -8 -11
-17 -8 -20 3 -4 10 0 14 7 6 9 10 5 15 -14 4 -14 4 -31 0 -36 -3 -6 3 -13 14
-16 23 -6 44 -46 36 -68 -3 -8 -9 -13 -13 -10 -4 2 -19 -2 -34 -10 -14 -7 -28
-11 -31 -8 -3 3 -29 -6 -58 -19 -29 -14 -65 -28 -80 -32 -16 -3 -28 -13 -28
-21 0 -8 -7 -15 -16 -15 -9 0 -27 -9 -41 -20 -14 -11 -35 -20 -46 -20 -11 0
-26 -8 -34 -18 -9 -10 -11 -11 -7 -2 5 10 0 9 -14 -4 -12 -11 -22 -16 -22 -11
0 4 -12 -4 -26 -19 -15 -14 -31 -26 -36 -26 -6 0 -7 -7 -4 -15 4 -11 0 -15
-12 -13 -9 2 -16 -3 -14 -10 1 -7 -11 -15 -28 -19 -21 -4 -32 -13 -36 -30 -4
-15 -12 -22 -20 -19 -8 3 -14 1 -14 -5 0 -5 -13 -23 -29 -38 -16 -16 -26 -33
-22 -37 3 -5 4 -8 2 -7 -2 2 -10 -2 -18 -8 -7 -6 -13 -8 -13 -3 0 5 -11 -9
-25 -31 -13 -22 -25 -36 -25 -32 0 5 -7 1 -16 -7 -8 -9 -13 -20 -9 -26 3 -6
-1 -7 -9 -4 -11 4 -16 0 -16 -10 0 -9 -8 -16 -18 -16 -20 0 -46 -45 -37 -61 4
-5 1 -9 -4 -9 -6 0 -11 6 -11 12 0 7 -15 -5 -32 -27 -18 -22 -33 -42 -33 -46
0 -17 -64 -78 -68 -67 -3 9 -9 7 -19 -6 -8 -10 -20 -16 -26 -12 -8 5 -10 1 -5
-10 4 -12 3 -15 -5 -10 -7 4 -12 1 -12 -8 0 -8 -13 -25 -28 -38 -15 -12 -27
-26 -27 -30 0 -4 -10 -15 -23 -23 -12 -9 -20 -21 -17 -26 4 -5 2 -9 -4 -9 -6
0 -21 -18 -33 -40 -13 -21 -33 -45 -45 -51 -12 -7 -20 -15 -18 -19 3 -5 -2
-11 -10 -14 -21 -8 -36 -49 -21 -58 6 -5 3 -8 -10 -8 -30 0 -36 -11 -18 -31
12 -13 12 -19 3 -25 -8 -4 -10 -3 -5 5 4 6 0 14 -10 18 -14 5 -42 -20 -32 -29
2 -2 -7 -18 -20 -35 -19 -26 -21 -36 -12 -53 10 -18 8 -20 -18 -20 -28 0 -31
-5 -33 -53 0 -9 -4 -15 -10 -12 -5 4 -9 -5 -9 -18 0 -14 -7 -27 -15 -31 -8 -3
-15 -13 -15 -21 0 -9 -5 -13 -10 -10 -6 3 -10 -3 -10 -15 0 -11 -18 -39 -40
-61 -39 -39 -51 -57 -30 -44 6 3 7 -1 4 -9 -3 -9 -10 -14 -15 -11 -4 3 -11
-10 -14 -29 -4 -19 -14 -37 -22 -40 -10 -4 -11 -11 -5 -22 12 -22 -7 -84 -26
-84 -11 0 -13 -8 -8 -30 3 -16 1 -30 -4 -30 -5 0 -16 -13 -25 -30 -12 -23 -13
-30 -3 -30 8 0 6 -5 -5 -11 -9 -5 -17 -19 -17 -29 0 -11 -4 -20 -10 -20 -5 0
-6 -7 -3 -17 4 -11 3 -14 -5 -9 -8 5 -10 2 -6 -9 4 -8 2 -21 -4 -28 -6 -6 -14
-30 -18 -52 -5 -22 -9 -43 -10 -47 -1 -5 -2 -17 -3 -28 0 -11 -8 -20 -16 -20
-11 0 -14 -7 -11 -25 3 -14 1 -25 -4 -25 -5 0 -14 -9 -20 -19 -7 -15 -6 -23 5
-35 17 -17 20 -30 5 -21 -20 12 -39 -14 -31 -43 8 -28 -7 -77 -41 -140 -10
-18 -18 -41 -18 -51 0 -11 -6 -22 -12 -24 -8 -3 -6 -6 5 -6 14 -1 15 -4 5 -20
-7 -11 -15 -18 -19 -15 -4 2 -9 -14 -11 -37 -3 -35 -1 -40 14 -36 19 5 34 -8
19 -17 -8 -5 -11 -29 -12 -79 0 -11 8 -26 18 -34 10 -8 11 -11 3 -7 -13 7 -13
6 0 -12 8 -10 21 -24 29 -30 8 -7 11 -16 6 -24 -5 -8 -4 -11 3 -6 9 6 40 -22
95 -84 8 -10 12 -21 9 -25 -4 -3 1 -3 11 1 10 3 17 1 17 -5 0 -6 7 -11 16 -11
9 0 12 -5 8 -12 -5 -8 -2 -9 9 -5 9 3 23 -1 32 -9 8 -8 19 -13 24 -10 5 3 20
-3 34 -14 16 -13 28 -16 32 -10 9 15 48 -8 41 -25 -3 -9 0 -12 9 -8 8 3 12 9
9 14 -3 5 -1 9 5 9 5 0 11 -4 13 -9 2 -5 10 -11 18 -13 8 -2 18 -10 22 -18 5
-11 7 -8 7 8 1 13 5 20 11 17 6 -4 8 -10 5 -15 -3 -4 4 -10 15 -13 11 -3 20
-2 20 3 0 4 7 11 16 14 10 4 13 2 8 -6 -5 -8 -2 -9 9 -5 11 4 17 1 17 -7 0 -7
9 -12 22 -10 13 1 28 3 35 3 6 1 18 8 26 16 13 13 16 13 21 0 3 -8 10 -15 16
-15 6 0 8 5 5 10 -7 12 24 12 83 1 33 -7 44 -5 51 6 7 13 12 13 31 3 18 -10
24 -9 30 1 10 15 40 21 40 8 0 -6 5 -7 10 -4 6 4 34 9 63 12 81 8 111 11 125
12 8 1 10 6 5 14 -4 6 5 4 20 -6 18 -12 33 -15 45 -9 9 4 29 8 45 7 15 0 27 3
27 8 0 5 6 4 14 -2 10 -9 16 -9 21 -1 4 6 14 8 24 4 9 -3 31 -6 49 -5 18 1 32
-3 32 -10 0 -7 7 -8 18 -3 9 4 56 8 103 9 48 1 91 5 96 8 8 5 135 19 173 19 8
0 34 -2 58 -5 31 -4 44 -1 51 10 6 11 10 12 15 4 4 -6 16 -11 26 -11 10 0 20
-5 22 -11 2 -6 13 -3 28 9 19 15 29 18 43 10 10 -5 25 -7 32 -4 8 3 28 1 44
-4 19 -5 31 -5 31 1 0 5 7 9 15 9 8 0 15 -3 15 -7 0 -9 118 -8 126 0 3 2 22 1
42 -3 100 -21 110 -21 115 -3 4 16 5 16 6 -1 1 -15 7 -18 35 -13 19 3 39 0 45
-6 8 -8 11 -8 11 1 0 7 7 12 15 12 8 0 15 -3 15 -7 0 -8 161 -8 220 0 23 4 41
0 53 -10 9 -9 17 -12 17 -7 0 12 76 9 92 -3 16 -12 48 -13 48 -1 0 4 7 8 16 8
8 0 12 -4 9 -10 -3 -5 4 -10 17 -9 13 0 37 -3 53 -6 17 -4 64 -8 106 -9 41 -1
81 -6 87 -10 7 -4 12 -2 12 5 0 8 3 9 13 0 8 -6 16 -9 19 -6 3 3 11 -1 18 -10
16 -19 40 -19 40 0 0 8 4 15 10 15 5 0 7 -7 4 -15 -5 -11 -2 -13 12 -8 12 4
15 3 10 -5 -5 -9 -1 -9 18 -2 16 6 27 6 31 0 4 -6 20 -4 41 5 21 9 32 10 28 3
-5 -8 3 -10 27 -6 36 6 62 1 55 -10 -2 -4 9 -7 25 -6 19 0 36 9 45 22 18 26
31 28 56 5 18 -16 58 -26 58 -13 0 3 9 6 19 6 11 0 17 -4 14 -9 -3 -5 4 -6 16
-3 11 3 30 9 41 12 11 3 20 1 20 -4 0 -5 8 -12 18 -16 9 -3 23 -9 30 -12 8 -4
10 0 6 10 -3 9 -1 16 5 16 6 0 11 -4 11 -9 0 -5 7 -12 16 -15 8 -3 13 -2 10 3
-4 5 3 7 14 4 11 -3 23 -10 26 -15 3 -5 11 -5 19 2 9 8 17 7 26 -2 16 -15 63
-15 99 0 14 5 31 6 39 2 8 -4 27 -4 43 0 16 5 30 5 34 -1 3 -5 10 -7 15 -4 5
4 9 1 9 -5 0 -6 5 -8 10 -5 6 4 19 1 28 -7 15 -12 16 -11 3 5 -12 15 -11 17 3
17 9 0 16 -5 16 -11 0 -7 14 -9 38 -5 20 3 38 5 40 6 2 0 1 4 -2 8 -2 4 4 8
14 8 12 0 16 -4 10 -11 -6 -7 13 -9 58 -8 36 1 73 -2 81 -6 11 -7 15 -36 17
-127 3 -140 12 -225 25 -238 5 -6 9 -16 9 -24 0 -24 40 -101 65 -126 14 -14
25 -30 25 -36 0 -6 16 -18 35 -27 19 -9 35 -21 35 -25 0 -5 4 -7 9 -4 5 3 14
-1 21 -9 8 -9 18 -12 27 -6 8 4 31 5 52 1 51 -9 215 -1 237 12 5 3 32 6 59 6
28 0 52 1 55 2 18 6 40 7 40 1 0 -4 27 -7 60 -7 33 1 60 6 60 11 0 6 3 5 8 -1
11 -17 67 -25 81 -11 6 6 27 12 46 12 18 0 32 -2 30 -4 -8 -7 25 -32 35 -26 5
3 10 1 10 -5 0 -7 7 -10 15 -6 8 3 15 2 15 -3 0 -4 73 -6 163 -4 89 2 169 4
177 3 8 0 49 -1 90 -3 45 -2 78 1 82 7 5 7 8 7 8 -1 0 -16 71 -7 82 10 6 9 8
9 8 0 0 -7 12 -13 26 -13 14 0 23 4 19 10 -4 6 2 7 17 1 13 -5 31 -6 39 -1 7
4 94 7 192 6 136 -1 177 2 177 12 0 6 5 12 11 12 5 0 7 -5 4 -10 -6 -10 12 -9
93 4 12 2 22 -1 22 -7 0 -6 4 -6 13 0 6 6 27 10 45 9 17 0 32 3 32 8 0 5 7 3
15 -4 8 -6 20 -8 26 -4 7 4 9 3 5 -4 -3 -6 -2 -13 4 -17 5 -3 10 -2 10 3 0 6
15 12 34 14 19 2 33 1 30 -3 -7 -11 20 -25 46 -23 14 1 46 3 73 5 33 2 47 7
47 17 0 11 3 12 13 4 7 -6 19 -9 27 -7 38 8 60 18 60 26 0 5 19 22 42 39 22
16 38 30 34 30 -5 0 1 15 12 34 11 18 23 49 27 67 4 19 12 40 17 47 6 6 8 12
5 12 -3 0 -1 13 4 30 6 16 14 30 18 30 4 0 8 14 9 32 2 18 6 35 10 38 4 3 8
18 10 35 2 16 7 34 11 40 12 15 20 55 12 55 -4 0 -3 21 2 47 14 66 21 1883 8
1896 -6 6 -7 16 -1 28 14 26 10 130 -6 156 -11 17 -11 23 0 32 15 13 8 70 -14
111 -13 24 -12 24 5 10 17 -13 18 -13 13 0 -3 8 -13 45 -23 81 -17 67 -53 119
-80 119 -8 0 -14 3 -13 8 4 11 -35 52 -44 46 -4 -3 -8 0 -8 5 0 6 -3 10 -7 9
-5 0 -15 1 -23 5 -8 3 -28 10 -45 15 -16 5 -29 14 -28 20 2 6 -4 9 -12 5 -13
-4 -13 -8 -3 -21 12 -13 11 -14 -9 -2 -12 8 -21 18 -20 23 1 5 -4 12 -10 14
-7 3 -13 0 -13 -7 0 -7 -6 -8 -19 0 -12 6 -22 6 -26 1 -3 -6 -18 -6 -38 0 -47
14 -177 17 -169 4 3 -5 -1 -4 -10 3 -12 10 -26 11 -52 4 -19 -6 -37 -8 -39 -5
-3 2 -38 4 -78 5 -41 0 -89 6 -107 14 -18 7 -30 9 -27 5 3 -5 -4 -7 -14 -4
-11 3 -18 10 -15 17 2 7 -2 31 -10 54 -8 23 -13 42 -11 42 3 0 -3 8 -12 18
-12 12 -21 15 -26 8 -5 -7 -7 -2 -4 10 3 15 -4 29 -24 45 -15 12 -25 28 -22
33 3 6 3 8 -2 4 -4 -4 -14 -3 -22 3 -7 6 -13 7 -13 2 0 -5 -6 -10 -14 -10 -10
0 -14 10 -13 26 2 19 -3 26 -15 25 -11 -1 -18 5 -18 17 0 10 -5 21 -12 25 -7
5 -8 3 -3 -7 8 -12 6 -12 -8 0 -9 7 -17 20 -17 27 0 23 -37 77 -43 62 -4 -8
-6 -7 -6 5 -1 10 -5 15 -11 12 -5 -3 -7 0 -4 9 3 9 -2 17 -15 21 -12 3 -41 26
-66 49 -41 40 -49 44 -46 24 3 -20 -11 -4 -21 22 -7 22 -18 33 -39 37 -16 3
-27 9 -24 13 7 11 -25 25 -66 28 -9 1 -20 9 -23 18 -6 15 -4 15 10 3 16 -13
16 -12 5 9 -6 12 -18 22 -26 22 -8 0 -15 4 -15 9 0 5 -10 11 -22 13 -15 2 -22
9 -21 21 0 12 -4 16 -13 13 -7 -3 -26 5 -41 18 -28 23 -33 26 -54 26 -5 0 -7
4 -4 10 3 5 -5 15 -19 22 -14 6 -26 17 -26 25 0 7 -8 13 -19 13 -10 0 -36 6
-58 14 -29 10 -44 11 -59 3 -17 -9 -18 -9 -5 6 11 14 11 18 -3 23 -9 4 -30 4
-46 0 -28 -5 -43 8 -18 16 6 2 12 11 14 19 5 31 10 43 24 61 8 10 15 22 16 26
2 23 29 61 47 66 12 3 18 8 14 12 -3 4 0 16 8 28 8 11 15 28 15 37 0 9 7 20
16 23 8 3 12 11 9 16 -4 6 -1 17 5 25 10 12 10 18 1 29 -10 12 -8 17 8 25 12
7 18 17 15 26 -4 8 -1 15 5 15 6 0 11 7 11 15 0 8 5 15 11 15 8 0 7 5 -1 15
-11 13 -10 14 3 10 11 -5 17 3 22 34 4 23 11 41 16 41 6 0 7 5 4 10 -7 12 15
80 26 80 5 0 6 9 4 20 -2 12 6 27 23 40 18 14 23 23 15 26 -7 3 -13 12 -13 20
0 9 4 13 9 10 5 -4 7 2 4 13 -3 10 0 22 6 25 6 4 11 14 11 23 0 9 10 37 22 61
17 36 19 48 9 63 -9 15 -8 19 4 19 11 0 14 7 10 30 -3 17 -2 30 2 30 5 0 8 18
9 41 0 24 6 44 15 50 10 6 10 9 1 9 -10 0 -10 5 -2 20 12 22 21 73 20 113 0
15 5 27 10 27 6 0 8 4 5 10 -3 5 -2 18 3 27 6 10 11 41 13 68 2 28 9 53 14 57
6 5 5 8 -2 8 -7 0 -13 9 -13 21 0 16 4 20 18 15 15 -5 15 -5 1 7 -13 9 -15 25
-12 67 5 78 5 80 15 80 5 0 7 4 3 9 -3 5 -1 12 5 16 5 3 10 20 10 36 0 20 -4
28 -12 23 -7 -4 -8 -3 -4 4 4 7 16 12 27 12 17 0 18 3 9 20 -6 11 -8 20 -5 20
3 0 1 9 -5 20 -8 15 -8 20 1 20 6 0 9 9 6 20 -3 11 -2 20 2 20 4 0 8 7 8 15 0
8 -4 12 -9 9 -11 -7 -10 7 2 26 5 9 5 19 -2 27 -6 8 -7 13 -1 13 6 0 10 12 10
28 0 15 3 54 6 87 4 35 3 54 -2 46 -5 -8 -11 -9 -15 -3 -8 14 21 35 36 26 9
-5 8 -1 -2 12 -29 37 -40 62 -29 66 6 2 12 17 14 33 1 17 5 40 9 53 4 12 4 22
-1 21 -20 -3 -23 2 -9 17 18 18 22 39 5 28 -8 -4 -8 -1 -2 12 7 16 10 92 3
109 -5 13 -3 62 3 72 4 6 3 22 -2 36 -6 16 -6 28 1 35 6 6 6 12 -1 16 -11 7 4
44 24 58 6 5 5 8 -3 8 -9 0 -11 7 -6 23 4 12 7 31 6 41 0 10 13 32 30 47 21
20 28 34 23 47 -17 41 -13 62 11 62 15 0 30 10 41 28 10 15 21 30 26 33 5 3 7
8 6 10 -2 2 5 16 15 31 10 16 16 35 12 43 -3 8 -2 15 3 15 11 0 37 61 33 78
-2 8 1 19 7 26 5 6 6 18 2 25 -5 8 -2 26 7 43 16 33 24 266 9 275 -4 2 -5 9
-2 14 4 5 1 9 -4 9 -6 0 -10 6 -9 13 2 6 -5 11 -16 10 -12 -1 -15 2 -8 9 11
11 -14 87 -33 101 -6 4 -5 10 3 16 11 6 10 10 -3 15 -24 9 -27 8 -19 -6 5 -9
2 -8 -10 1 -9 8 -15 20 -12 28 3 7 1 13 -5 13 -6 0 -9 7 -5 15 3 9 0 15 -9 15
-8 0 -15 4 -15 8 0 4 -15 16 -32 27 -35 21 -37 22 -70 24 -22 2 -22 3 -3 11
18 7 18 8 -7 15 -16 4 -28 11 -28 17 0 5 -4 6 -10 3 -5 -3 -10 -1 -10 5 0 14
-40 49 -57 50 -6 0 -14 6 -16 13 -4 9 -6 9 -6 -1 -1 -10 -6 -10 -23 2 -12 9
-31 16 -41 16 -10 0 -16 4 -12 9 6 10 -21 41 -36 41 -5 0 -9 -5 -9 -11 0 -7
-10 1 -21 15 -16 21 -24 24 -30 15 -6 -11 -9 -10 -15 4 -3 9 -11 14 -17 10 -7
-4 -8 1 -4 13 7 18 6 18 -7 2 -17 -22 -26 -23 -26 -1 0 13 -4 11 -20 -7 -11
-13 -20 -19 -20 -14 0 6 6 16 13 23 10 11 8 11 -10 2 -19 -10 -23 -9 -23 3 0
10 -9 13 -30 11 -16 -2 -30 1 -30 6 0 6 -4 8 -9 4 -5 -3 -12 -1 -16 5 -8 12
-87 9 -97 -4 -4 -6 -12 -5 -21 2 -8 7 -19 11 -23 10 -5 -2 -10 1 -11 5 -1 5
-10 16 -20 25 -10 9 -18 24 -18 32 0 8 -5 14 -12 13 -7 -2 -10 4 -7 12 3 8 -1
24 -10 37 -9 12 -16 18 -16 12 0 -5 6 -16 13 -23 10 -10 9 -11 -5 -6 -10 4
-19 12 -20 19 0 6 -2 16 -2 22 -2 16 -35 46 -44 40 -5 -3 -19 5 -33 18 -13 12
-32 25 -41 29 -10 3 -18 13 -18 22 0 8 -7 15 -16 15 -8 0 -12 4 -9 10 3 5 0 7
-9 4 -9 -3 -17 2 -21 15 -3 12 -10 21 -14 21 -5 0 -25 11 -45 25 -20 13 -43
22 -51 19 -11 -5 -13 -2 -9 10 4 10 1 16 -9 16 -9 0 -37 11 -62 24 -25 14 -54
23 -63 20 -12 -4 -13 -3 -4 3 9 7 6 13 -14 22 -15 6 -29 10 -32 7 -2 -3 -21 3
-42 14 -29 15 -40 16 -49 7 -10 -9 -11 -8 -6 4 6 15 3 17 -45 21 -10 1 -17 4
-14 7 3 3 -10 12 -28 21 -23 12 -39 14 -52 7 -13 -6 -21 -5 -27 4 -6 10 -9 11
-9 2 0 -7 -7 -13 -16 -13 -10 0 -14 6 -11 15 5 10 -4 16 -31 20 -20 4 -46 11
-57 16 -75 34 -103 39 -123 25 -9 -7 -12 -5 -10 5 2 10 -6 14 -27 14 -16 0
-35 3 -40 7 -6 4 -24 5 -40 3 -17 -1 -33 2 -37 8 -9 14 -38 18 -38 5 0 -7 -4
-7 -13 0 -7 6 -41 13 -75 15 -35 3 -66 7 -69 11 -12 12 -44 6 -38 -6 4 -7 0
-5 -9 6 -10 12 -27 18 -50 17 -20 -1 -44 -1 -53 -1 -10 0 -33 1 -50 1 -18 1
-33 4 -33 8 0 4 -11 8 -25 9 -14 1 -25 -2 -25 -6 0 -4 -17 -7 -38 -6 -20 0
-47 -6 -60 -13 -21 -13 -25 -13 -35 0 -16 20 -67 31 -67 15 0 -6 -6 -3 -14 7
-8 11 -20 16 -29 12 -9 -3 -19 -2 -23 4 -3 6 -12 8 -19 5 -7 -2 -17 0 -23 6
-6 6 -14 5 -23 -5 -12 -12 -15 -12 -26 2 -12 15 -13 15 -7 0z m2433 -2385 c4
3 8 -1 8 -9 0 -8 -7 -15 -16 -16 -10 0 -12 -2 -3 -6 15 -6 16 -53 1 -53 -5 0
-8 -4 -4 -10 3 -5 13 -6 23 -3 15 6 15 5 -1 -11 -13 -13 -16 -27 -12 -48 5
-21 2 -35 -12 -50 -10 -12 -12 -18 -4 -13 11 6 13 1 9 -26 -3 -21 0 -38 8 -47
17 -16 18 -32 4 -32 -7 0 -8 -6 -1 -17 6 -11 6 -24 -1 -36 -5 -11 -8 -30 -5
-43 2 -13 1 -24 -2 -24 -3 0 -5 -27 -4 -60 0 -33 -3 -60 -9 -60 -5 0 -7 -4 -3
-9 3 -5 1 -12 -5 -16 -6 -4 -4 -15 6 -30 19 -28 12 -81 -9 -68 -9 5 -9 3 -1
-8 13 -16 24 -79 14 -79 -4 0 -7 -6 -8 -12 -11 -129 -10 -159 3 -164 8 -3 11
-12 8 -20 -3 -8 -9 -11 -14 -8 -5 3 -9 2 -10 -3 -3 -41 -10 -67 -19 -78 -7 -8
-9 -19 -5 -25 3 -5 2 -10 -3 -10 -5 0 -9 -14 -10 -32 0 -17 -7 -35 -14 -39
-10 -7 -10 -9 0 -9 8 0 10 -8 6 -25 -3 -13 -7 -38 -8 -55 -1 -17 -9 -36 -17
-41 -11 -7 -8 -9 11 -10 17 -1 19 -3 8 -6 -10 -2 -18 -8 -19 -11 -1 -4 -3 -25
-5 -47 -2 -22 -8 -41 -13 -43 -5 -2 -7 -10 -4 -18 3 -8 0 -14 -7 -14 -8 0 -10
-8 -6 -23 4 -16 -1 -26 -14 -35 -11 -7 -20 -21 -20 -31 0 -11 -5 -23 -11 -27
-6 -3 -9 -15 -6 -25 3 -10 0 -20 -7 -23 -6 -2 -2 -5 8 -5 19 -1 19 -1 1 -14
-10 -8 -18 -27 -19 -43 -1 -17 -6 -28 -13 -26 -7 1 -13 -7 -13 -18 0 -10 -10
-29 -22 -40 -13 -12 -23 -24 -24 -28 -2 -22 -27 -129 -32 -137 -4 -5 -7 -17
-7 -25 -1 -18 -44 -90 -54 -90 -11 0 -31 -47 -31 -70 0 -13 -5 -18 -15 -14 -8
4 -15 1 -15 -6 0 -6 -7 -18 -15 -27 -12 -12 -13 -18 -4 -29 9 -11 8 -15 -5
-20 -12 -5 -14 -10 -6 -19 10 -12 4 -25 -12 -25 -5 0 -6 6 -3 13 4 6 -2 1 -13
-13 -11 -13 -18 -28 -16 -32 3 -4 -2 -5 -10 -2 -9 3 -16 2 -16 -3 0 -6 -11
-22 -24 -36 -14 -15 -37 -49 -53 -77 -18 -32 -35 -50 -47 -50 -12 0 -16 -5
-12 -15 3 -8 1 -15 -4 -15 -6 0 -10 -8 -11 -17 0 -17 -1 -17 -7 -1 -4 10 -12
14 -17 10 -15 -10 -45 -59 -45 -73 0 -6 -8 -18 -18 -27 -10 -10 -11 -12 -2 -7
13 9 13 8 2 -7 -7 -9 -29 -24 -48 -33 -19 -9 -32 -20 -29 -26 4 -5 2 -9 -4 -9
-5 0 -12 6 -14 13 -3 7 -6 4 -6 -6 -1 -11 -6 -15 -13 -11 -8 5 -9 0 -6 -14 4
-14 2 -20 -4 -16 -5 4 -23 -4 -40 -16 -17 -12 -41 -23 -54 -24 -29 -1 -32 -16
-4 -16 11 0 20 -4 20 -9 0 -4 -13 -8 -30 -7 -16 1 -30 4 -30 8 0 4 -15 1 -32
-7 -18 -8 -32 -21 -32 -29 1 -8 -3 -14 -8 -13 -6 1 -12 -6 -13 -16 -4 -23 -15
-35 -15 -17 0 10 -3 10 -15 0 -8 -7 -12 -16 -9 -21 13 -22 12 -49 -3 -49 -11
0 -13 3 -5 13 8 10 6 13 -7 13 -13 0 -17 -6 -13 -19 4 -17 2 -18 -19 -8 -23
12 -23 11 -4 -4 11 -8 25 -13 32 -11 7 3 10 -1 7 -9 -10 -24 -64 2 -76 36 -4
11 -11 9 -30 -8 -13 -13 -29 -23 -36 -23 -6 0 -14 -5 -18 -12 -5 -7 -3 -8 6
-3 8 5 11 4 6 -3 -4 -6 -13 -9 -20 -6 -13 5 -46 -20 -46 -36 0 -4 -34 -7 -75
-6 -40 0 -71 -2 -66 -7 4 -4 5 -21 3 -38 -3 -17 -7 -27 -11 -23 -3 5 -16 17
-28 28 -19 15 -24 16 -36 5 -7 -8 -16 -21 -19 -30 -4 -11 -15 -15 -37 -11 -17
2 -38 -1 -46 -8 -8 -7 -15 -8 -15 -3 0 9 -13 9 -75 -1 -11 -2 -24 -4 -28 -5
-5 0 -5 -6 -2 -12 4 -6 13 -8 21 -5 8 3 14 1 14 -4 0 -14 -18 -21 -25 -10 -3
5 -13 10 -21 10 -10 0 -12 -5 -8 -12 5 -9 2 -8 -9 1 -14 11 -23 12 -45 2 -15
-7 -29 -12 -32 -11 -2 1 -7 -7 -11 -17 -6 -15 -8 -15 -8 -2 -1 17 -31 36 -31
20 0 -5 -19 -8 -41 -6 -34 2 -42 -1 -46 -16 -3 -10 -9 -16 -14 -13 -5 3 -7 8
-5 12 2 4 -10 7 -27 7 -18 0 -36 -6 -40 -12 -4 -7 -13 -13 -18 -13 -6 0 -8 4
-5 8 2 4 -11 6 -30 4 -21 -3 -34 0 -34 7 0 6 -5 11 -11 11 -5 0 -7 -4 -4 -10
3 -5 -12 -8 -38 -6 -44 3 -45 3 -37 -24 8 -26 7 -27 -19 -20 -17 4 -25 13 -23
23 2 10 -4 17 -13 17 -9 0 -13 5 -10 10 4 6 -7 8 -30 4 -20 -3 -44 -2 -53 2
-25 11 -36 11 -44 -1 -5 -7 -8 -7 -8 1 0 11 -69 13 -86 2 -7 -5 -14 -1 -18 7
-4 11 -13 14 -31 9 -16 -4 -25 -2 -25 6 0 7 -7 10 -15 6 -8 -3 -15 -1 -15 3 0
5 -13 8 -30 7 -19 -1 -26 1 -20 8 5 8 -5 11 -33 12 -23 1 -51 5 -62 9 -14 5
-16 4 -6 -3 8 -6 10 -12 3 -16 -6 -4 -14 -1 -19 6 -4 7 -17 13 -28 13 -11 0
-19 6 -17 13 1 8 -2 11 -7 8 -5 -4 -12 -2 -16 4 -3 5 -14 10 -23 10 -15 0 -15
-2 -2 -10 9 -6 10 -10 3 -10 -7 0 -17 9 -23 20 -6 11 -21 20 -33 20 -12 0 -27
8 -33 18 -8 12 -23 17 -47 17 -23 -1 -34 2 -31 10 4 9 -8 11 -38 8 -31 -3 -39
-1 -28 7 12 8 9 10 -12 10 -16 0 -28 4 -28 10 0 5 -17 17 -37 27 -21 9 -41 22
-45 27 -4 6 -8 8 -8 4 0 -4 -12 4 -26 17 -15 14 -38 25 -50 25 -15 0 -24 6
-24 15 0 8 -3 14 -7 14 -23 -4 -33 3 -33 21 0 11 -3 20 -8 20 -4 0 -16 16 -26
35 -10 19 -22 32 -26 30 -5 -3 -10 2 -14 10 -3 8 -1 15 4 15 5 0 7 7 4 15 -3
8 -11 13 -16 12 -6 -1 -13 4 -16 12 -3 9 0 11 9 6 11 -6 12 -5 2 6 -7 7 -13
21 -13 31 0 10 -7 18 -15 18 -8 0 -14 3 -14 8 3 20 -3 32 -17 32 -8 0 -13 4
-10 9 7 11 -25 71 -37 71 -5 0 -5 5 -2 10 10 16 -23 24 -40 10 -23 -19 -18 4
5 25 15 14 17 21 9 32 -6 7 -8 13 -5 13 4 0 1 10 -6 23 -7 12 -12 27 -13 32 0
6 -10 30 -22 55 -35 77 -37 88 -11 92 12 2 28 14 35 28 9 18 13 20 13 8 0 -22
9 -23 36 -3 12 8 24 11 28 8 3 -3 14 1 23 9 10 8 39 27 65 42 26 14 60 38 75
51 51 45 53 46 53 35 0 -18 36 7 61 41 18 26 19 33 8 40 -12 7 -12 9 1 10 8 1
23 0 34 -1 10 -1 16 3 12 8 -3 5 6 14 19 20 14 7 25 16 25 22 0 6 6 8 13 4 6
-4 9 -4 5 1 -4 4 3 22 16 39 13 17 33 52 44 79 12 26 26 47 33 47 6 0 9 7 5
15 -3 8 3 20 13 27 10 7 17 21 15 31 -1 9 2 17 7 17 5 0 8 3 7 8 0 4 2 15 6
24 4 10 6 23 4 30 -3 7 4 22 14 32 10 11 16 26 14 33 -3 7 2 19 10 27 34 34
55 143 39 206 l-6 25 11 -24 c6 -13 13 -22 15 -19 6 5 36 144 37 173 1 11 6
23 12 27 6 4 6 11 -2 20 -9 11 -8 20 4 37 9 13 14 35 12 51 -2 16 0 28 4 27 5
-1 11 19 13 45 2 26 11 63 19 82 8 19 12 37 9 40 -3 3 0 19 5 36 8 22 8 29 1
24 -8 -4 -9 1 -3 17 4 13 6 47 4 74 -2 28 -4 71 -4 97 -1 27 -4 48 -7 48 -5 0
-5 57 0 80 1 3 22 4 47 2 35 -3 49 0 60 14 14 18 15 17 10 -8 -5 -20 -1 -30
13 -38 28 -14 54 -13 45 3 -4 6 2 4 14 -6 12 -11 26 -16 33 -11 8 5 10 3 4 -6
-6 -10 -4 -12 8 -7 10 3 17 3 17 -2 0 -4 16 -8 36 -9 20 -1 41 -6 48 -10 6 -5
20 -8 30 -6 10 1 26 -4 34 -13 10 -9 25 -13 42 -9 15 3 31 2 35 -2 4 -4 30 -8
58 -9 42 -1 140 -9 175 -14 4 -1 9 -1 12 1 23 8 60 7 60 -3 0 -8 3 -8 8 -2 4
6 16 11 27 13 11 1 31 4 45 6 14 2 37 0 52 -4 14 -5 29 -5 33 -2 4 4 19 8 33
8 15 1 27 3 27 4 0 3 123 11 145 10 44 -2 65 1 74 10 12 12 29 13 22 2 -3 -5
18 -6 47 -4 29 2 55 8 58 14 4 5 9 3 12 -5 5 -13 10 -14 31 -4 13 6 23 14 21
18 -2 3 3 6 11 6 9 0 13 -6 9 -15 -4 -12 -3 -13 9 -3 8 7 30 14 48 15 18 2 39
4 46 5 6 0 12 8 12 16 0 8 4 15 10 15 5 0 7 -7 3 -16 -4 -12 0 -14 23 -8 16 4
32 11 35 16 4 6 19 8 35 7 16 -2 35 0 42 5 7 4 26 8 42 8 17 1 33 5 36 10 3 4
16 8 30 8 14 0 22 4 19 10 -3 6 4 10 17 10 14 0 33 6 43 14 13 9 27 11 42 5
14 -5 25 -4 29 2 3 6 13 8 21 5 8 -3 11 -1 8 4 -3 6 2 10 12 11 81 3 133 18
133 38 0 5 9 7 20 4 11 -3 20 0 20 6 0 6 11 11 24 11 28 0 43 16 24 23 -8 3
-6 6 5 6 10 1 20 -6 23 -14 5 -13 9 -13 22 -3 8 7 18 12 21 12 3 -1 5 1 4 5
-2 9 6 10 59 14 20 1 40 6 45 11 5 5 2 6 -6 1 -10 -5 -12 -4 -7 3 5 8 13 9 25
2 14 -7 26 -3 51 15 19 14 50 28 69 31 20 4 41 11 48 16 7 5 17 7 23 3 5 -3
10 -1 10 4 0 6 11 11 25 11 16 0 25 6 25 16 0 8 4 13 8 10 5 -3 18 4 30 14 12
11 30 20 42 20 11 0 20 5 20 11 0 6 8 9 17 7 10 -2 28 7 42 20 14 12 30 21 38
18 7 -3 16 0 20 6 5 9 8 9 11 0 2 -7 7 -10 11 -8z m-321 -2673 c12 -10 18 -22
14 -26 -4 -5 1 -5 11 -2 11 4 24 -1 34 -13 13 -15 20 -17 30 -8 10 8 12 7 8
-4 -4 -9 4 -19 19 -28 14 -7 25 -16 24 -19 -2 -21 5 -33 27 -43 14 -6 25 -17
25 -25 0 -8 6 -13 13 -11 15 4 57 -37 57 -56 0 -19 21 -26 43 -14 11 6 17 5
17 -2 0 -12 9 -24 52 -71 15 -16 32 -29 38 -29 6 0 8 -4 5 -10 -4 -6 6 -10 22
-10 22 0 25 -2 13 -10 -13 -8 -12 -10 3 -10 9 0 17 -3 17 -7 0 -15 45 -60 68
-67 12 -4 22 -13 22 -21 0 -8 8 -16 19 -20 27 -8 67 -48 76 -74 3 -12 11 -19
16 -16 5 4 9 -4 9 -15 0 -13 8 -24 20 -27 21 -6 28 -23 8 -23 -6 0 -3 -9 7
-20 11 -12 13 -20 6 -20 -7 0 -9 -4 -6 -10 4 -6 -2 -7 -17 -1 -13 4 -29 6 -37
3 -8 -2 -11 0 -8 5 8 13 -43 4 -60 -10 -9 -6 -21 -4 -38 7 -21 14 -24 14 -19
1 7 -17 -7 -20 -23 -4 -7 7 -22 7 -52 -1 -36 -9 -155 -16 -201 -10 -8 1 -43 1
-77 0 -48 -2 -63 -6 -63 -17 0 -9 -5 -11 -12 -7 -18 12 -88 14 -88 3 0 -5 -5
-9 -11 -9 -5 0 -8 3 -6 8 3 4 -15 8 -39 10 -27 2 -44 -1 -44 -8 0 -6 -5 -8
-12 -4 -7 4 -28 9 -48 11 -19 1 -44 4 -55 6 -11 3 -28 0 -39 -5 -13 -7 -16 -7
-12 1 8 12 -7 15 -18 4 -4 -5 -11 -9 -14 -9 -29 -6 -51 -18 -47 -24 3 -5 0
-12 -6 -16 -8 -4 -9 -3 -5 4 4 7 1 12 -8 12 -9 0 -16 -4 -16 -10 0 -5 -5 -10
-11 -10 -5 0 -8 4 -5 9 9 14 -16 20 -36 9 -12 -6 -18 -5 -18 2 0 6 -4 9 -9 5
-5 -3 -12 -1 -15 3 -6 10 -36 9 -82 -2 -17 -4 -50 -2 -74 3 -45 10 -86 -1 -75
-19 3 -6 -1 -7 -9 -4 -10 4 -18 -1 -22 -11 -4 -9 -13 -14 -21 -11 -8 3 -11 1
-8 -4 3 -6 0 -10 -7 -10 -15 0 -40 -26 -58 -59 -16 -31 -60 -199 -64 -246 -2
-22 -5 -40 -6 -40 -1 0 -3 -75 -4 -167 -2 -116 1 -165 8 -161 7 4 6 1 -1 -8
-10 -13 -16 -62 -14 -118 1 -20 3 -22 16 -11 9 7 18 10 21 7 3 -3 -4 -10 -15
-17 -16 -8 -20 -19 -18 -45 1 -19 6 -35 10 -35 5 0 5 -6 0 -12 -11 -18 -10
-121 2 -131 6 -6 6 -10 -2 -14 -7 -2 -13 -11 -13 -19 0 -9 4 -12 10 -9 7 4 7
-3 0 -19 -8 -22 -7 -26 8 -26 10 0 13 -3 7 -8 -16 -11 -18 -74 -3 -84 11 -6
11 -8 0 -8 -8 0 -12 -12 -10 -33 1 -18 -2 -38 -6 -45 -4 -7 -3 -12 2 -12 5 0
8 -25 6 -55 -1 -39 1 -53 9 -48 9 5 9 3 1 -8 -6 -8 -10 -24 -9 -36 1 -12 -2
-20 -6 -18 -4 3 -5 -12 -3 -33 2 -20 4 -68 4 -107 0 -118 0 -129 5 -133 2 -2
0 -15 -6 -29 -6 -18 -6 -22 3 -17 8 5 9 2 3 -12 -5 -10 -9 -55 -11 -99 -1 -44
-3 -86 -3 -93 -1 -9 -8 -11 -21 -7 -11 4 -20 2 -20 -4 0 -6 -5 -11 -11 -11 -5
0 -7 4 -4 10 4 6 -2 7 -17 2 -13 -5 -34 -6 -48 -2 -14 4 -31 2 -39 -4 -12 -9
-13 -8 -6 4 7 13 6 13 -7 2 -10 -8 -19 -9 -22 -3 -4 5 2 14 11 20 10 6 15 11
10 11 -4 0 -16 -6 -27 -12 -14 -9 -23 -10 -28 -3 -9 13 -62 19 -62 6 0 -5 -7
-12 -16 -15 -14 -5 -15 -4 -5 8 9 11 9 16 0 22 -7 4 -14 3 -16 -2 -3 -10 -70
-11 -80 0 -9 9 -25 7 -19 -2 3 -5 -18 -5 -47 -1 -94 14 -157 16 -158 5 0 -6
-3 -5 -6 2 -7 18 -53 15 -53 -3 0 -17 -25 -20 -35 -5 -4 6 -12 7 -23 1 -11 -6
-20 -4 -29 7 -11 15 -12 13 -13 -13 -1 -29 -2 -29 -11 -7 -5 13 -13 20 -19 17
-6 -4 -8 -10 -6 -14 8 -12 -31 -6 -46 7 -8 6 -25 10 -37 7 -13 -2 -30 3 -38
11 -9 9 -31 15 -52 14 -60 -3 -82 0 -77 9 3 4 -5 6 -18 4 -13 -3 -27 0 -30 6
-10 16 -26 14 -26 -3 0 -15 -16 -16 -37 -3 -8 5 -13 3 -13 -3 0 -8 -19 -9 -60
-4 -41 4 -64 3 -74 -5 -11 -9 -16 -9 -23 1 -12 20 -145 19 -160 -1 -10 -14
-12 -14 -18 1 -4 9 -15 18 -26 21 -13 3 -17 1 -12 -6 4 -7 -5 -4 -21 6 -15 10
-30 16 -34 13 -3 -3 1 -6 8 -6 7 0 11 -2 8 -5 -3 -3 -17 -1 -32 4 -17 7 -26 7
-26 1 0 -6 -5 -10 -11 -10 -5 0 -7 6 -3 13 6 9 4 9 -7 1 -8 -5 -25 -9 -39 -7
-14 2 -44 4 -67 6 -22 1 -39 5 -37 8 3 6 -23 5 -51 -1 -5 -1 -12 -1 -15 0 -3
1 -25 3 -50 5 -61 4 -73 7 -88 25 -7 8 -11 11 -10 5 3 -16 -13 -55 -23 -55 -5
0 -7 17 -4 38 2 20 1 30 -3 21 -4 -9 -17 -15 -30 -14 -13 1 -25 -2 -27 -6 -3
-4 -23 -3 -45 2 -22 5 -43 9 -47 8 -5 -1 -12 0 -18 1 -33 7 -51 3 -62 -15 -12
-19 -13 -19 -10 4 2 21 -2 24 -29 24 -16 1 -35 -2 -40 -6 -14 -8 -94 -6 -94 3
0 4 -7 10 -14 13 -11 4 -13 1 -9 -11 3 -9 3 -14 -2 -10 -4 4 -14 3 -21 -3 -8
-7 -14 -7 -19 1 -4 7 -13 7 -27 -1 -14 -8 -23 -8 -27 -1 -7 12 -29 11 -48 -1
-7 -5 -13 -4 -13 0 0 11 -81 9 -99 -2 -9 -5 -12 -4 -8 2 3 5 0 10 -8 10 -8 0
-11 -5 -8 -10 4 -6 0 -8 -9 -4 -9 3 -21 0 -28 -6 -10 -9 -11 -9 -5 3 6 12 5
12 -5 3 -7 -6 -19 -9 -26 -6 -8 3 -14 0 -14 -6 0 -6 -7 -11 -15 -11 -18 0 -20
16 -2 24 6 3 -1 3 -16 1 -16 -2 -35 -9 -42 -15 -14 -12 -153 -8 -190 5 -15 5
-16 4 -6 -3 19 -14 -13 -20 -56 -11 -18 4 -33 3 -33 -1 0 -13 -74 -20 -81 -8
-4 7 -14 8 -25 3 -32 -14 -106 -16 -97 -2 5 9 3 9 -8 1 -17 -14 -69 -24 -69
-14 0 13 -35 7 -54 -9 -11 -9 -17 -11 -13 -6 3 6 1 17 -4 25 -8 13 -10 13 -18
0 -5 -8 -7 -19 -3 -25 3 -5 -1 -4 -10 2 -8 7 -18 10 -21 6 -12 -11 -167 -7
-179 5 -17 17 -26 15 -24 -5 1 -16 -11 -18 -107 -19 -81 -1 -107 2 -103 11 6
17 -26 14 -40 -3 -8 -11 -12 -11 -23 2 -10 12 -17 13 -26 6 -10 -8 -15 -8 -21
1 -5 8 -3 10 7 4 10 -6 11 -5 4 3 -9 10 -57 19 -107 21 -10 1 -18 8 -18 16 0
8 -5 15 -10 15 -7 0 -7 6 0 19 7 14 6 21 -3 24 -9 4 -8 8 3 16 19 13 20 34 0
44 -9 4 -5 6 12 4 32 -5 37 7 11 22 -17 9 -17 11 -2 23 9 7 20 27 23 43 3 17
9 40 11 53 4 16 2 21 -6 17 -6 -4 -4 3 4 16 16 23 17 28 17 49 0 6 7 10 15 10
8 0 15 5 15 11 0 5 -6 7 -12 3 -7 -4 -5 2 5 14 11 11 16 25 13 30 -3 5 3 20
14 32 22 25 26 35 10 25 -5 -3 -10 -1 -10 4 0 6 4 11 10 11 5 0 9 3 8 8 -2 4
2 25 9 47 7 22 15 53 18 68 3 17 10 26 18 22 7 -4 3 1 -7 9 -17 14 -18 16 -3
16 9 0 17 7 17 15 0 8 5 15 11 15 6 0 9 9 6 20 -3 11 -1 20 4 20 5 0 9 9 9 21
0 13 4 18 12 13 7 -5 8 -3 4 5 -5 7 0 18 10 26 11 8 16 15 11 15 -4 0 4 18 19
41 14 22 23 43 20 46 -3 4 2 12 12 20 12 10 13 16 5 19 -13 6 -11 9 25 49 7 8
10 19 7 25 -3 5 0 10 9 10 9 0 17 15 21 40 4 22 11 42 15 45 5 3 6 13 3 22 -5
12 -3 14 7 8 10 -6 12 -4 7 8 -3 10 -2 17 3 17 6 0 10 9 10 20 0 11 5 20 11
20 11 0 41 64 37 80 -2 5 8 16 21 23 13 6 29 21 35 32 6 11 13 22 16 25 3 3
18 26 33 53 15 26 32 47 37 47 6 0 10 9 10 20 0 19 28 52 66 78 11 7 13 10 7
7 -8 -4 -13 0 -13 9 0 9 4 16 9 16 8 0 21 29 25 54 0 5 7 10 14 12 7 1 8 0 2
-3 -5 -2 -8 -9 -4 -14 6 -10 64 43 64 59 0 6 -6 13 -12 15 -8 3 -6 6 4 6 9 1
27 11 40 24 13 12 38 34 56 50 19 15 31 27 28 27 -3 0 5 10 17 23 12 13 25 22
29 20 4 -2 13 6 21 17 7 11 17 17 22 12 4 -4 4 3 1 15 -6 18 -4 22 7 17 10 -3
18 3 23 18 4 13 15 30 25 39 11 9 19 21 19 27 0 7 11 18 23 27 13 8 29 26 35
40 6 14 16 25 22 25 7 0 18 7 26 15 9 8 24 15 35 15 10 0 19 5 19 11 0 6 23
33 51 60 40 38 49 52 40 63 -15 18 -1 29 17 13 13 -9 14 -9 8 1 -4 7 -1 12 9
12 10 0 13 5 9 12 -4 6 -3 8 4 4 15 -9 61 14 56 29 -3 7 1 12 8 12 7 -1 15 3
17 8 2 6 16 19 32 30 15 12 46 40 68 63 44 45 58 51 67 27 4 -8 10 -12 15 -9
5 3 9 -1 9 -8 0 -8 9 -21 20 -31 12 -10 17 -23 13 -32 -4 -12 -1 -16 13 -13
12 2 18 -2 16 -11 -2 -8 3 -11 13 -8 10 4 15 0 15 -12 0 -10 16 -29 35 -42 20
-13 38 -34 41 -45 4 -16 11 -20 26 -16 16 4 20 1 16 -9 -3 -8 1 -20 8 -27 11
-10 14 -10 14 1 0 17 27 18 34 1 3 -9 -1 -11 -11 -7 -11 4 -14 2 -9 -5 4 -7
15 -12 25 -12 10 0 30 -11 44 -24 14 -13 28 -21 31 -18 3 3 6 0 6 -6 0 -23 3
-27 34 -48 17 -12 36 -19 41 -16 6 3 7 2 3 -3 -12 -13 41 -51 65 -47 4 1 7 -2
7 -7 0 -5 10 -7 22 -3 13 3 19 1 15 -5 -6 -10 58 -28 90 -26 7 0 11 -3 8 -7
-10 -16 149 -75 168 -63 6 3 16 -2 23 -12 8 -10 22 -19 31 -20 10 -1 28 -7 40
-13 13 -7 34 -10 47 -8 14 2 26 1 28 -3 2 -4 20 -11 41 -14 27 -4 36 -3 31 6
-4 7 3 3 15 -8 17 -15 44 -22 100 -26 42 -4 90 -9 106 -13 57 -12 156 -28 170
-27 6 0 24 2 42 4 17 2 30 -1 27 -5 -3 -4 2 -8 10 -8 9 0 16 4 16 9 0 6 12 6
28 2 15 -4 41 -6 57 -4 51 5 207 3 216 -3 5 -3 9 -1 9 5 0 6 6 8 14 5 7 -3 22
3 32 13 17 17 17 17 11 1 -7 -21 -7 -21 28 -8 32 12 84 23 108 22 9 0 17 4 17
9 0 6 4 8 9 5 16 -11 40 5 34 22 -3 11 -2 13 4 6 15 -21 193 4 193 28 0 5 6 8
13 7 6 -1 25 1 40 6 22 6 26 10 15 17 -9 6 -6 7 10 3 13 -4 28 -2 35 3 7 5 32
13 56 17 25 4 54 17 68 31 12 13 23 21 23 19 0 -3 22 4 49 14 28 10 52 16 55
13 4 -3 6 0 6 6 0 7 5 12 11 12 6 0 28 13 48 29 20 15 59 36 88 45 29 10 54
25 57 34 3 9 20 23 36 31 17 7 29 16 26 19 -3 2 -14 -1 -23 -9 -16 -12 -15
-11 1 8 10 13 23 20 28 17 12 -7 45 21 70 61 11 17 17 22 14 12 -5 -17 -5 -17
18 0 13 10 22 21 20 24 -2 4 8 10 22 13 18 5 24 12 20 22 -3 9 -1 12 4 9 6 -3
10 0 10 7 0 7 15 20 33 29 17 9 31 23 29 30 -2 8 0 11 3 7 4 -4 16 -3 27 3 16
8 17 13 7 25 -10 12 -9 13 4 8 10 -3 20 2 27 15 6 12 17 21 24 21 8 0 16 7 20
15 6 17 -9 21 -17 5 -3 -6 -4 -5 -3 2 2 7 12 13 23 13 11 0 29 9 39 20 11 12
15 15 10 8 -5 -7 -5 -13 1 -13 4 0 17 16 27 35 11 19 23 35 28 35 5 0 6 4 3
10 -5 8 98 120 109 120 2 0 13 -8 24 -19z m1172 -906 c100 -3 121 -6 115 -15
-3 -6 1 -7 9 -4 9 3 16 10 16 15 0 6 9 5 21 -1 11 -7 27 -9 34 -6 8 3 17 1 20
-4 4 -6 11 -10 16 -10 6 0 8 4 5 9 -4 5 2 7 13 4 10 -3 21 0 25 5 4 6 21 7 48
0 34 -7 43 -6 50 7 12 21 25 19 31 -5 4 -14 11 -18 28 -14 13 3 46 6 72 5 33
-1 49 3 53 13 5 13 8 13 22 0 9 -8 20 -14 24 -15 4 0 20 -6 35 -14 25 -13 29
-13 35 3 7 19 9 17 12 -17 2 -13 11 -30 20 -37 10 -7 15 -17 12 -22 -10 -17
-16 -82 -7 -82 5 0 7 -14 5 -31 -2 -18 0 -28 6 -24 6 3 10 1 10 -4 0 -6 -4
-11 -9 -11 -6 0 -6 -12 -1 -30 5 -16 5 -30 0 -30 -8 0 -4 -29 8 -60 9 -24 10
-90 1 -90 -5 0 -4 -12 2 -26 5 -15 9 -43 9 -63 -1 -74 9 -221 16 -233 4 -6 9
-95 10 -197 4 -206 8 -277 19 -303 4 -10 3 -18 -3 -18 -5 0 -8 -39 -5 -97 2
-54 4 -116 4 -138 0 -22 0 -53 0 -70 0 -16 0 -34 -1 -40 0 -5 -3 -79 -5 -163
-2 -84 -8 -158 -12 -165 -4 -6 -7 -47 -8 -92 -1 -44 -7 -92 -13 -106 -6 -14
-12 -71 -13 -125 -2 -56 -7 -102 -13 -106 -7 -5 -5 -8 4 -8 12 0 12 -2 2 -9
-12 -7 -19 -28 -37 -105 -3 -11 -8 -22 -12 -25 -5 -3 -16 -18 -26 -33 -10 -16
-24 -28 -32 -28 -8 0 -15 -5 -15 -11 0 -5 -4 -8 -9 -4 -5 3 -12 1 -15 -4 -3
-4 -19 -7 -36 -5 -23 3 -29 0 -24 -9 5 -8 2 -7 -9 2 -9 7 -24 11 -32 7 -8 -3
-15 -1 -15 5 0 11 -49 1 -68 -14 -7 -6 -48 -11 -90 -13 -42 -1 -95 -4 -118 -5
-22 -1 -45 1 -51 4 -6 4 -22 3 -35 -2 -12 -5 -37 -7 -54 -6 -27 2 -31 0 -27
-19 4 -21 4 -21 -9 -1 -7 12 -21 19 -30 17 -10 -2 -18 1 -18 7 0 12 -62 15
-73 5 -9 -9 -77 -15 -195 -16 -79 -1 -106 2 -113 13 -6 10 -9 10 -9 2 0 -7 -5
-13 -11 -13 -5 0 -7 5 -4 10 9 15 -13 12 -40 -6 -13 -9 -29 -13 -36 -9 -6 4
-15 1 -20 -6 -6 -10 -9 -11 -9 -1 0 18 -21 15 -36 -5 -8 -11 -13 -13 -14 -5 0
8 -8 10 -24 6 -17 -4 -27 0 -35 13 -8 14 -11 14 -11 3 0 -13 -1 -13 -10 0 -5
8 -10 10 -10 4 0 -6 -6 -11 -12 -12 -32 -2 -62 -13 -70 -24 -5 -9 -8 -8 -8 6
0 17 -2 17 -22 -5 -12 -13 -19 -17 -15 -8 4 13 -3 16 -43 16 -27 0 -56 5 -65
13 -13 11 -15 10 -9 -6 5 -17 4 -17 -8 -3 -11 13 -32 16 -106 15 -50 0 -92 -4
-92 -9 0 -5 -10 -5 -21 -2 -35 11 -46 12 -112 4 -36 -4 -67 -3 -73 2 -8 6 -13
6 -16 -1 -4 -13 -78 -22 -78 -9 0 5 -7 6 -15 3 -8 -4 -15 -1 -15 4 0 7 -14 6
-40 -3 -23 -8 -38 -10 -35 -5 3 5 -7 9 -22 9 -15 0 -40 2 -55 6 -20 5 -28 4
-28 -6 0 -11 -2 -11 -10 1 -8 12 -14 12 -45 -3 -28 -13 -41 -15 -56 -6 -12 6
-19 13 -16 15 3 3 -5 16 -18 30 -22 24 -41 109 -21 97 5 -4 6 -2 3 4 -9 14
-30 173 -29 218 0 6 0 28 1 50 0 22 0 58 0 80 0 22 2 52 4 67 3 22 0 28 -14
28 -11 0 -19 5 -19 11 0 5 4 8 10 4 5 -3 8 18 7 55 -1 33 2 60 7 60 4 0 5 8 1
18 -4 9 -9 62 -11 117 -2 55 -3 105 -4 110 0 6 1 29 3 53 1 23 -1 42 -6 42 -4
0 -5 6 -1 12 11 17 13 508 3 508 -5 0 -4 11 1 25 5 13 6 53 2 87 -4 35 -7 145
-7 245 0 100 -3 179 -7 177 -5 -3 -8 -1 -8 5 0 5 4 12 8 15 5 3 9 24 10 47 1
23 6 47 11 53 5 6 11 29 14 51 3 22 8 47 11 55 16 52 16 70 -1 71 -16 1 -16 2
-2 6 17 4 29 55 34 143 3 61 4 62 15 55 6 -3 10 -2 10 3 0 5 16 9 35 10 19 1
48 8 64 17 20 10 32 12 36 4 4 -6 23 -9 42 -7 25 2 39 -3 49 -17 8 -10 14 -14
14 -9 0 6 15 10 33 10 46 0 89 9 125 28 17 9 33 12 36 8 3 -5 30 -7 61 -5 34
2 55 -1 55 -8 0 -5 5 -7 10 -4 6 4 34 8 63 10 29 1 61 6 71 11 14 5 17 4 11
-5 -6 -10 -3 -11 13 -2 27 14 35 14 26 -1 -4 -7 2 -4 14 6 14 12 22 14 22 7 0
-7 5 -9 11 -5 20 12 153 12 168 0 11 -8 13 -8 8 0 -9 15 15 25 33 14 7 -5 24
-4 37 1 12 5 23 5 23 0 0 -20 207 -17 227 3 3 3 15 0 27 -6 11 -7 26 -11 31
-9 6 1 42 4 80 6 86 4 197 16 208 22 4 2 7 0 7 -4 0 -5 16 -7 35 -5 19 2 35 8
35 14 0 5 6 6 13 1 6 -4 28 -8 47 -8z"/>
<path d="M5244 6080 c-5 -5 -20 -11 -33 -13 -18 -3 -25 -11 -27 -32 -2 -16 2
-35 8 -42 8 -10 8 -17 -2 -26 -10 -10 -12 -8 -6 8 5 15 4 17 -4 9 -9 -9 -9
-17 -1 -33 8 -15 9 -21 1 -21 -6 0 -8 -5 -4 -11 3 -6 8 -36 11 -67 6 -74 6
-62 -2 -179 -5 -72 -3 -103 4 -103 8 0 7 -6 -1 -20 -10 -15 -10 -26 0 -52 8
-22 9 -34 2 -36 -7 -3 -6 -10 2 -20 8 -9 8 -13 1 -9 -8 5 -10 -4 -6 -31 10
-75 10 -281 -1 -279 -5 1 -15 -13 -21 -31 -6 -18 -15 -29 -19 -25 -4 4 -4 -1
0 -10 7 -18 -23 -50 -38 -41 -5 3 -8 -2 -8 -10 0 -14 -6 -16 -92 -18 -21 -1
-35 -5 -31 -11 3 -5 -8 0 -25 13 -20 15 -39 21 -56 18 -15 -3 -31 0 -37 8 -6
8 -16 11 -22 7 -5 -3 -16 3 -24 13 -8 10 -15 18 -16 16 -2 -4 -53 14 -84 29
-11 6 -26 9 -31 5 -6 -3 -13 -2 -17 4 -4 6 -13 5 -25 -2 -10 -7 -16 -16 -14
-20 3 -4 0 -8 -6 -8 -6 0 -9 -4 -5 -9 3 -5 -3 -12 -12 -14 -16 -4 -16 -5 -1
-6 15 -1 15 -4 3 -28 -8 -15 -12 -30 -9 -35 3 -5 0 -7 -8 -6 -8 2 -14 -9 -16
-30 -3 -35 13 -66 30 -56 5 3 15 1 23 -6 7 -6 19 -10 27 -9 17 3 71 -22 81
-38 9 -14 65 -43 84 -43 7 0 13 -4 13 -9 0 -10 107 -49 153 -56 17 -3 27 0 27
8 0 8 3 8 8 2 9 -14 52 -17 52 -4 0 6 8 6 20 -1 11 -6 25 -8 31 -5 5 4 15 2
22 -3 14 -12 87 17 86 33 -3 23 2 35 12 35 8 0 8 -4 0 -14 -7 -8 -8 -17 -3
-20 4 -3 14 4 22 14 8 10 17 17 22 14 4 -3 8 0 8 6 0 6 5 8 10 5 6 -3 10 -1
10 6 0 7 3 10 6 6 8 -8 41 27 49 52 3 12 10 21 13 21 4 0 15 15 24 33 14 29
21 55 44 192 4 22 8 70 9 106 1 36 5 71 9 77 4 7 2 12 -3 12 -7 0 -10 17 -8
41 2 22 1 42 -2 44 -3 2 -6 40 -6 84 0 45 -4 81 -8 81 -4 0 -3 9 3 21 14 26
19 206 6 219 -7 7 -5 10 3 10 8 0 11 6 7 16 -3 8 -2 12 4 9 14 -9 12 19 -2 33
-9 9 -9 12 0 12 8 0 10 9 6 26 -5 21 -4 25 6 19 10 -6 12 -3 8 13 -4 12 -2 22
2 22 12 0 3 66 -13 99 -7 14 -20 25 -29 25 -10 -1 -14 4 -11 12 7 18 -75 8
-95 -12 -18 -18 -23 -18 -16 1 4 8 2 15 -4 15 -6 0 -17 3 -26 6 -11 4 -16 1
-16 -10 0 -9 -4 -16 -10 -16 -5 0 -7 7 -4 15 7 17 2 19 -12 5z"/>
<path d="M3762 4838 c-7 -7 -12 -9 -12 -5 0 3 -11 -4 -23 -16 -28 -26 -62
-110 -53 -132 3 -9 2 -13 -4 -10 -14 8 0 -57 14 -70 6 -5 10 -18 8 -28 -2 -10
8 -37 22 -61 14 -24 22 -46 19 -50 -3 -3 -1 -6 5 -6 7 0 12 -14 12 -31 0 -17
4 -28 10 -24 6 3 10 -2 11 -12 0 -10 3 -13 6 -6 5 14 13 9 71 -45 19 -18 43
-37 53 -43 11 -5 19 -14 19 -20 0 -23 63 -65 80 -54 6 4 7 -1 3 -11 -5 -13 -3
-16 10 -11 8 3 20 0 26 -7 6 -7 24 -11 41 -10 16 1 30 -2 30 -6 0 -10 56 -30
64 -23 3 4 6 0 6 -8 1 -10 5 -8 15 5 8 11 15 15 15 9 0 -17 52 -31 83 -22 15
4 27 3 27 -2 0 -5 16 -8 35 -6 19 2 36 0 37 -4 6 -17 217 -32 235 -17 7 6 11
14 8 17 -2 4 2 8 10 8 11 0 12 -4 4 -14 -9 -10 -8 -13 5 -13 9 0 16 7 16 15 0
18 12 19 27 4 9 -9 18 -4 38 16 31 30 35 67 11 94 -9 9 -16 22 -16 28 0 6 -7
16 -15 23 -12 10 -15 10 -15 -1 -1 -10 -4 -9 -11 3 -5 9 -16 15 -23 12 -8 -3
-17 -1 -20 5 -4 6 -13 8 -21 4 -9 -3 -22 0 -30 7 -8 7 -15 10 -15 6 0 -3 -11
-1 -25 4 -14 5 -46 12 -72 16 -27 3 -53 10 -59 15 -6 5 -15 4 -22 -3 -8 -8
-13 -7 -18 5 -4 12 -13 15 -32 10 -18 -4 -23 -3 -17 6 5 9 0 12 -16 10 -27 -2
-89 23 -131 53 -25 17 -28 17 -28 3 0 -9 -6 -15 -12 -12 -7 2 -12 14 -10 27 2
13 0 20 -7 16 -11 -7 -91 67 -91 84 0 5 -3 9 -7 9 -20 -3 -34 2 -29 10 4 5 -4
22 -17 38 -21 26 -45 60 -116 166 -14 21 -31 35 -37 33 -9 -3 -11 1 -7 11 4
11 2 14 -5 9 -7 -4 -12 -2 -12 3 0 15 -33 14 -48 -1z"/>
<path d="M6127 2819 c-10 -6 -21 -8 -24 -5 -8 7 -55 -27 -108 -80 -25 -24 -50
-44 -55 -44 -6 0 -10 -5 -10 -10 0 -6 -9 -20 -20 -32 -16 -17 -17 -24 -7 -37
9 -12 9 -13 0 -7 -7 4 -13 3 -13 -2 0 -5 -11 -15 -25 -22 -13 -7 -22 -17 -19
-22 3 -4 1 -8 -4 -8 -14 0 -49 -63 -46 -82 1 -11 -3 -15 -12 -11 -9 3 -14 -2
-14 -17 0 -11 -4 -19 -9 -15 -14 8 -25 -35 -12 -48 17 -17 13 -33 -10 -34 -17
-2 -18 1 -9 13 17 19 5 18 -14 -2 -15 -14 -16 -14 -16 5 0 12 -4 21 -10 21 -5
0 -10 5 -10 11 0 6 -9 18 -20 27 -11 10 -21 29 -22 44 -1 15 -6 26 -11 25 -5
-1 -11 7 -13 17 -1 11 -10 23 -18 28 -9 5 -27 20 -41 34 -13 13 -35 24 -49 24
-24 0 -55 -22 -57 -41 -4 -30 0 -48 17 -84 10 -22 19 -44 19 -50 0 -5 16 -32
35 -60 19 -27 34 -54 33 -60 -4 -18 51 -76 73 -77 15 -2 20 -7 17 -19 -4 -14
2 -17 31 -17 20 0 34 4 31 8 -7 12 38 21 49 10 16 -16 35 -12 64 15 15 14 21
25 14 25 -6 0 -12 5 -12 11 0 7 9 9 21 6 16 -4 26 4 47 39 15 24 35 47 45 50
14 5 16 9 6 20 -6 8 -9 17 -5 21 3 3 6 1 6 -5 0 -17 37 22 45 47 3 12 13 21
21 21 8 0 14 6 14 14 0 8 8 22 18 32 9 10 17 20 18 23 0 3 39 46 87 95 58 59
87 96 87 111 0 13 6 25 12 27 8 3 4 9 -10 17 -12 6 -22 19 -22 29 0 15 -2 15
-10 2 -8 -13 -10 -13 -10 1 0 27 -33 36 -63 18z"/>
<path d="M7390 2534 c0 -8 -56 -14 -125 -13 -16 0 -55 0 -85 1 -30 0 -73 -2
-95 -6 -22 -3 -70 -7 -106 -9 -40 -2 -74 -9 -85 -17 -15 -13 -16 -13 -9 -1 6
11 4 13 -10 7 -24 -9 -150 -28 -198 -30 -21 -1 -42 -7 -46 -15 -7 -10 -9 -10
-14 2 -4 10 -14 13 -31 10 -21 -4 -25 -10 -21 -24 5 -16 1 -19 -23 -19 -22 0
-29 4 -28 18 0 10 -6 16 -16 16 -10 -1 -18 2 -18 6 0 5 -14 11 -30 15 -42 9
-80 -16 -80 -54 0 -28 31 -67 43 -54 4 3 7 1 7 -5 0 -7 8 -12 19 -12 10 0 30
-9 44 -20 28 -22 52 -27 41 -7 -6 8 -3 8 9 -1 9 -8 21 -11 26 -8 5 4 12 2 16
-4 4 -6 10 -8 15 -5 5 3 61 7 125 8 63 1 115 5 115 8 0 10 49 21 115 24 33 2
78 7 100 13 22 5 49 6 59 2 11 -3 39 -3 63 0 41 7 113 6 138 0 6 -1 27 -2 47
-1 31 1 36 4 32 19 -4 13 -3 14 4 4 15 -21 78 -1 65 21 -2 4 2 7 10 7 8 0 17
7 21 15 3 8 1 15 -4 15 -5 0 -6 9 -1 22 6 17 2 28 -15 45 -23 23 -74 42 -74
27z"/>
<path d="M6237 2028 c2 -5 -1 -9 -6 -9 -23 -3 -27 -5 -53 -28 -16 -14 -28 -31
-28 -38 0 -8 -4 -11 -10 -8 -5 3 -10 -1 -10 -10 0 -12 -6 -15 -21 -10 -16 5
-19 4 -14 -5 4 -7 3 -15 -2 -19 -16 -11 -53 -78 -46 -84 3 -4 0 -7 -9 -7 -19
0 -60 -35 -51 -43 3 -4 -2 -9 -11 -13 -9 -3 -16 -14 -16 -24 0 -17 -41 -37
-64 -31 -5 1 -3 -6 5 -15 8 -10 9 -15 3 -11 -14 8 -38 -18 -29 -33 6 -9 -7
-14 -28 -11 -4 1 -10 -5 -13 -13 -9 -24 -74 4 -74 33 0 6 -3 11 -7 11 -5 0
-19 17 -33 38 -14 20 -31 41 -38 45 -7 5 -10 12 -7 18 4 5 -3 9 -14 9 -10 0
-26 2 -33 5 -8 3 -25 -4 -38 -15 -19 -17 -25 -31 -24 -65 0 -25 7 -52 16 -62
8 -10 18 -31 22 -47 4 -16 15 -30 26 -33 11 -3 20 -14 20 -24 0 -10 9 -23 20
-29 11 -6 20 -17 20 -25 0 -8 3 -15 8 -16 28 -3 46 -9 52 -20 4 -6 12 -9 18
-5 5 3 13 -1 16 -10 5 -14 9 -14 23 -3 14 12 16 12 8 0 -6 -11 -2 -13 24 -8
18 4 39 14 47 22 9 8 23 15 32 15 25 0 75 47 66 61 -4 8 -3 9 5 5 16 -10 74
28 91 59 7 14 18 25 24 25 6 0 4 5 -4 10 -13 9 -13 10 0 10 8 0 25 13 37 28
12 16 34 41 48 56 14 15 23 32 19 37 -3 5 -2 9 3 8 4 -1 16 1 26 6 14 6 15 10
6 21 -8 10 -8 14 -1 14 17 0 69 54 77 79 3 12 11 19 16 16 5 -3 6 2 2 11 -4
11 -3 15 5 10 6 -4 11 1 11 11 0 10 2 27 4 38 2 11 -4 32 -14 46 -10 14 -16
29 -12 32 3 4 -17 5 -45 4 -27 -1 -48 -5 -45 -9z"/>
<path d="M7310 1725 c-8 -9 -17 -12 -24 -7 -6 5 -42 7 -81 5 -38 -2 -81 -3
-94 -3 -12 0 -28 -3 -34 -7 -6 -4 -23 -7 -37 -7 -14 -1 -24 -6 -23 -11 1 -7
-33 -10 -90 -9 -55 1 -98 -3 -106 -10 -11 -8 -13 -8 -8 0 8 13 -153 17 -174 4
-7 -5 -21 -4 -31 1 -28 15 -164 0 -188 -21 -22 -19 -26 -45 -9 -56 8 -5 8 -9
-1 -14 -19 -12 32 -38 81 -41 24 -1 53 -7 63 -12 21 -10 229 -12 245 -2 6 3
11 1 11 -5 0 -7 16 -10 45 -7 25 2 62 1 83 -3 20 -3 51 -3 67 1 17 4 55 10 85
14 30 3 56 9 58 13 1 4 37 7 79 6 42 -1 85 1 96 5 10 4 41 4 68 1 27 -4 49 -3
49 1 0 5 6 6 14 3 16 -6 31 29 21 46 -3 5 -2 10 3 10 13 0 22 39 11 46 -5 3
-7 9 -4 13 24 39 -144 83 -175 46z"/>
<path d="M6196 1235 c-3 -8 -14 -15 -24 -15 -21 0 -46 -23 -35 -33 3 -4 -2 -9
-11 -13 -9 -3 -16 -12 -16 -20 0 -8 -5 -14 -11 -14 -15 0 -34 -21 -53 -58 -9
-18 -20 -32 -25 -32 -9 0 -26 -48 -22 -63 1 -5 -3 -6 -8 -3 -11 7 -53 -48 -44
-58 3 -3 1 -6 -6 -6 -6 0 -34 -21 -61 -48 -27 -26 -53 -46 -59 -44 -6 2 -11
-1 -11 -7 0 -6 -9 -2 -20 9 -11 11 -20 24 -20 29 0 6 -8 16 -17 23 -10 7 -19
20 -21 28 -7 31 -24 40 -69 36 -24 -2 -45 -6 -47 -8 -25 -39 -26 -101 -1 -92
7 3 16 1 20 -5 3 -7 0 -8 -9 -5 -17 6 -23 -16 -8 -30 4 -4 7 -11 7 -14 0 -4 8
-18 18 -32 11 -15 17 -19 17 -10 1 8 7 1 14 -16 8 -17 27 -41 44 -53 34 -24
46 -27 37 -8 -4 6 0 5 7 -4 14 -17 82 -21 106 -6 6 5 16 5 22 2 13 -8 67 19
110 55 19 16 40 34 47 40 7 5 15 10 19 10 8 0 44 40 44 49 0 3 14 21 30 38 17
18 29 35 28 37 -2 3 18 29 45 60 26 30 47 59 47 65 0 6 4 11 9 11 15 0 53 69
47 85 -3 8 0 14 7 12 8 -1 11 11 9 38 -4 52 -45 94 -74 76 -13 -8 -24 -8 -37
-1 -14 7 -20 6 -25 -5z"/>
<path d="M7328 984 c-3 -3 -25 -5 -49 -6 -24 0 -55 -5 -69 -10 -14 -6 -44 -12
-67 -13 -24 -2 -48 -7 -55 -12 -7 -4 -24 -9 -38 -10 -14 -1 -54 -7 -90 -13
-36 -6 -74 -11 -85 -12 -11 -1 -22 -5 -25 -9 -3 -4 -16 -9 -30 -10 -14 -2 -30
-10 -36 -18 -8 -10 -13 -11 -18 -2 -5 8 -13 8 -27 1 -14 -8 -19 -7 -19 1 0 9
-3 9 -14 0 -8 -7 -16 -8 -19 -4 -3 4 -33 6 -66 5 -34 -2 -59 -8 -56 -12 3 -5
-10 -6 -30 -3 -25 4 -35 2 -35 -8 0 -9 -3 -10 -10 -3 -16 16 -89 -23 -100 -52
-13 -32 6 -81 33 -88 12 -3 40 -6 63 -6 22 0 44 -3 48 -7 10 -10 116 -10 116
0 0 5 4 6 10 2 10 -6 74 -7 130 -1 49 5 102 27 122 51 17 20 17 20 33 -3 13
-18 20 -20 30 -12 8 6 19 10 27 9 21 -4 132 24 140 35 5 7 8 6 8 -3 0 -9 4
-10 13 -4 18 14 99 14 90 -1 -4 -6 1 -5 10 3 10 8 20 11 23 9 3 -3 22 -2 43 3
21 5 69 5 107 0 48 -6 71 -5 76 3 5 6 8 7 8 1 0 -5 5 -3 10 5 8 11 12 12 18 3
8 -13 52 -6 52 8 0 5 6 8 13 6 6 -1 11 4 9 12 -4 20 8 52 18 46 4 -3 6 5 3 16
-6 21 -7 21 -20 4 -7 -11 -13 -15 -13 -10 0 4 -10 0 -22 -11 -14 -11 -18 -13
-11 -3 9 11 10 25 4 47 -8 25 -6 31 7 34 35 8 -30 30 -97 34 -36 3 -76 7 -88
9 -13 3 -23 1 -23 -5 0 -5 -7 -10 -15 -10 -8 0 -15 5 -15 10 0 11 -13 13 -22
4z"/>
</g>
</svg>
