<?xml version="1.0" standalone="no"?>
<!DOCTYPE svg PUBLIC "-//W3C//DTD SVG 20010904//EN"
 "http://www.w3.org/TR/2001/REC-SVG-20010904/DTD/svg10.dtd">
<svg version="1.0" xmlns="http://www.w3.org/2000/svg"
 width="800.000000pt" height="1050.000000pt" viewBox="0 0 800.000000 1050.000000"
 preserveAspectRatio="xMidYMid meet">
<metadata>
Created by potrace 1.16, written by Peter Selinger 2001-2019
</metadata>
<g transform="translate(0.000000,1050.000000) scale(0.100000,-0.100000)"
fill="#000000" stroke="none">
<path d="M52 8313 c-6 -2 -10 -8 -8 -12 3 -4 -5 -7 -17 -7 -22 1 -22 -1 -23
-159 -1 -108 2 -162 10 -167 8 -6 7 -8 -1 -8 -10 0 -13 -305 -13 -1439 0
-1285 2 -1440 16 -1451 10 -9 12 -15 4 -20 -12 -8 32 -60 50 -60 6 0 10 -4 10
-10 0 -5 8 -18 18 -28 9 -10 23 -30 31 -44 8 -15 17 -26 21 -25 7 2 73 -49 93
-71 7 -8 27 -29 45 -47 18 -19 39 -50 47 -69 15 -35 35 -48 35 -23 1 8 4 7 13
-3 7 -8 21 -22 31 -30 18 -13 19 -13 11 0 -6 12 -5 12 5 3 7 -6 18 -9 25 -7 6
3 18 -2 25 -11 7 -8 23 -15 36 -15 13 0 23 -3 22 -7 -2 -5 5 -19 15 -33 9 -13
17 -21 17 -16 0 5 8 2 18 -7 10 -10 22 -14 25 -10 4 3 7 1 7 -5 0 -7 7 -12 15
-12 8 0 15 -6 15 -12 0 -8 8 -4 17 7 12 15 14 16 10 3 -3 -9 2 -25 11 -36 20
-22 79 -55 90 -49 4 3 16 1 27 -3 11 -4 30 -4 43 1 16 6 22 5 22 -6 0 -8 7
-15 15 -15 22 0 30 4 28 13 -2 4 4 7 13 7 9 0 29 9 46 21 16 12 30 20 31 18
19 -36 28 -46 48 -56 13 -7 33 -26 44 -43 11 -16 28 -30 38 -30 15 0 21 -11
18 -32 0 -4 9 -10 20 -13 17 -6 18 -9 7 -22 -10 -12 -9 -17 3 -27 9 -6 14 -16
12 -23 -2 -6 0 -14 4 -16 11 -7 11 34 0 51 -7 10 -3 10 17 0 29 -13 34 -28 10
-28 -11 0 -14 -6 -8 -22 4 -13 10 -25 13 -28 14 -10 42 -100 35 -111 -5 -9 0
-10 15 -6 22 5 22 5 5 -14 -9 -10 -12 -19 -6 -19 5 0 8 -9 5 -20 -3 -12 0 -20
6 -20 7 0 9 -4 6 -10 -8 -13 37 -90 53 -90 13 0 16 -17 13 -63 -1 -17 4 -29
13 -33 9 -3 16 -15 16 -25 0 -10 5 -19 11 -19 6 0 8 -9 4 -20 -4 -13 -1 -22 9
-26 8 -3 13 -11 10 -18 -6 -16 60 -86 81 -86 8 0 23 -9 32 -19 9 -11 20 -18
25 -15 4 3 8 -2 8 -11 0 -9 -9 -19 -20 -22 -16 -4 -18 -8 -9 -19 9 -11 9 -14
0 -14 -7 0 -9 -5 -6 -10 3 -5 2 -10 -3 -10 -6 0 -15 -13 -20 -30 -6 -16 -23
-41 -38 -55 -15 -14 -21 -25 -14 -25 9 0 7 -6 -6 -16 -10 -8 -12 -12 -4 -8 13
7 13 6 0 -12 -8 -10 -22 -26 -31 -34 -9 -8 -16 -22 -17 -30 0 -8 -3 -33 -7
-55 -12 -77 -13 -90 -3 -102 6 -7 5 -14 -2 -18 -6 -3 -8 -11 -4 -16 11 -19 11
-74 0 -88 -8 -11 -8 -13 1 -7 8 4 13 1 13 -8 0 -20 32 -86 41 -86 4 0 12 -15
19 -34 10 -31 41 -55 80 -62 8 -2 16 -7 18 -13 2 -5 10 -7 18 -4 8 3 14 -1 14
-11 0 -14 26 -22 55 -16 6 1 42 3 80 5 39 2 84 8 102 14 39 11 43 7 33 -29 -5
-16 -7 -40 -6 -54 2 -14 0 -23 -4 -21 -4 3 -11 -12 -15 -33 -4 -20 -11 -40
-16 -43 -5 -3 -11 -15 -14 -27 -4 -20 4 -26 30 -23 6 1 1 -6 -9 -14 -15 -11
-17 -18 -8 -27 7 -7 8 -17 2 -29 -7 -12 -5 -19 6 -23 11 -4 15 -14 12 -31 -3
-14 0 -29 6 -35 7 -5 11 -23 10 -40 -1 -16 2 -28 6 -25 5 3 11 1 15 -5 3 -5 0
-10 -7 -10 -8 0 -6 -5 5 -11 10 -6 25 -8 34 -5 12 5 13 3 5 -7 -7 -8 -7 -18
-2 -27 6 -8 10 -11 10 -6 0 6 9 0 21 -12 11 -12 24 -20 30 -17 5 4 9 -1 9 -11
0 -11 6 -15 20 -11 10 3 21 0 23 -6 4 -12 47 -19 127 -21 30 0 57 -4 61 -8 3
-5 23 1 44 12 45 23 70 26 59 8 -9 -14 -13 -158 -4 -158 5 0 10 -29 13 -69 1
-17 41 -61 56 -61 6 0 11 -7 11 -15 0 -13 14 -20 23 -13 1 1 15 -9 30 -22 16
-14 30 -24 33 -23 2 1 17 -2 33 -7 24 -7 31 -5 34 8 4 13 5 13 6 -3 1 -14 9
-20 26 -21 14 -1 22 2 19 7 -3 5 2 6 10 3 10 -4 16 -1 16 7 0 11 2 11 8 2 9
-14 52 -6 52 9 0 6 7 7 16 4 8 -3 12 -2 9 4 -3 6 -1 10 4 10 6 0 11 -4 11 -10
0 -5 10 -9 23 -7 15 1 21 -3 19 -13 -12 -50 -15 -67 -13 -85 1 -11 2 -35 4
-52 1 -31 8 -38 32 -33 6 1 5 -4 -2 -11 -9 -9 -6 -20 15 -50 15 -21 33 -37 39
-34 7 2 13 -3 13 -11 0 -10 6 -14 15 -10 9 3 15 0 15 -8 0 -8 7 -17 16 -20 8
-3 12 -10 9 -16 -3 -6 4 -10 17 -11 50 -1 113 -11 121 -18 5 -5 24 -5 44 -1
19 5 42 6 49 3 8 -3 14 0 14 6 0 6 10 11 23 11 13 0 41 9 63 19 21 11 42 17
45 15 4 -2 9 3 13 11 3 8 11 15 18 15 7 0 26 12 43 28 33 30 57 46 98 63 15 6
27 15 27 20 0 4 6 6 14 3 8 -3 22 8 34 28 12 18 33 46 47 62 14 16 25 35 25
43 0 16 26 18 35 2 4 -6 14 -8 22 -5 8 3 11 1 8 -4 -3 -6 1 -10 10 -10 9 0 13
-5 10 -10 -3 -5 1 -10 10 -10 15 0 70 -34 90 -56 5 -6 26 -20 44 -30 19 -11
43 -25 52 -33 10 -8 37 -21 61 -29 24 -7 58 -28 77 -45 19 -18 31 -27 27 -20
-3 6 12 2 34 -8 22 -11 45 -17 50 -14 6 3 10 2 10 -3 0 -14 45 -20 66 -9 12 7
20 6 28 -4 6 -8 22 -16 36 -17 14 -2 31 -9 37 -14 7 -6 20 -7 29 -4 9 4 23 1
31 -5 9 -8 17 -9 24 -2 6 6 26 7 49 3 23 -4 43 -3 49 3 7 7 16 6 27 -4 10 -8
15 -9 11 -3 -4 8 7 12 36 12 73 2 87 5 76 18 -6 8 -2 11 15 9 13 -2 37 4 52
12 27 14 122 39 135 35 4 -1 5 7 2 17 -3 10 1 22 8 26 8 5 10 4 5 -4 -15 -24
25 -22 54 2 16 14 39 28 49 32 11 3 23 15 26 25 3 10 12 17 19 14 7 -3 21 7
30 21 10 15 23 25 29 23 17 -6 50 29 34 36 -7 2 -3 5 8 5 22 1 52 62 40 81 -3
5 -2 10 4 10 6 0 9 22 8 55 -2 30 0 49 5 42 5 -8 8 -5 8 10 0 29 28 55 50 48
10 -3 61 1 112 9 52 9 106 13 121 11 15 -3 27 -1 27 5 0 15 30 12 30 -2 0 -8
5 -6 10 4 6 10 22 16 38 16 43 -1 182 83 182 110 0 6 6 17 14 25 8 8 16 23 18
33 2 10 11 25 20 32 20 14 41 80 43 131 1 20 9 37 18 43 10 5 17 15 17 23 0
10 11 13 40 10 37 -3 40 -2 35 16 -4 11 -2 19 4 19 6 0 11 -7 11 -16 0 -12 5
-14 18 -9 9 4 24 9 32 10 8 1 26 7 40 13 19 7 29 6 40 -4 13 -11 24 -7 75 31
59 45 68 49 93 46 14 -2 81 52 96 77 6 10 5 13 -3 8 -6 -4 -11 -2 -11 5 0 7
10 9 25 7 20 -4 23 -3 14 8 -9 11 -8 14 4 14 25 0 69 44 71 71 1 19 6 23 24
22 13 -2 21 1 18 6 -3 5 3 20 14 34 11 14 20 29 20 34 0 5 5 14 12 21 12 12
17 29 23 72 1 14 4 25 5 25 1 0 4 9 6 20 6 36 9 50 17 62 4 6 2 13 -4 15 -18
6 -23 52 -16 128 4 38 9 46 33 55 41 14 58 26 77 55 9 13 17 20 17 15 0 -5 10
2 22 16 12 13 30 34 40 45 11 12 21 29 22 39 1 9 9 21 17 27 11 7 11 11 1 15
-15 6 -16 33 -1 33 5 0 7 -4 4 -10 -3 -6 -2 -10 3 -10 5 0 9 22 9 49 -1 33 5
54 16 66 10 9 15 20 12 24 -2 5 0 23 5 41 7 24 6 38 -3 49 -10 12 -9 14 4 9
14 -5 16 4 16 60 0 39 -4 70 -11 75 -8 6 -8 10 0 13 12 5 7 44 -5 44 -4 0 -6
17 -4 37 3 40 -33 153 -49 153 -6 0 -8 6 -5 14 3 7 1 18 -4 23 -14 14 6 61 40
93 15 15 27 34 25 43 -1 10 3 14 14 10 11 -5 14 -2 9 10 -3 9 -2 19 2 21 5 3
11 20 15 37 3 17 15 43 26 59 11 15 20 33 20 39 0 6 5 11 10 11 6 0 10 7 10
15 0 8 8 23 18 33 18 18 20 18 52 -10 19 -15 43 -28 53 -28 10 0 16 -4 12 -9
-11 -19 15 -21 33 -3 12 12 25 16 38 12 10 -4 27 -3 37 2 9 5 22 6 27 3 12 -7
70 22 92 47 9 11 14 27 11 36 -4 13 -2 12 10 -3 9 -11 17 -15 17 -7 0 6 7 12
15 12 8 0 15 5 15 12 0 6 3 8 7 5 3 -4 15 0 25 10 10 9 18 13 18 8 0 -4 8 3
19 16 10 13 17 29 14 35 -2 7 0 15 6 19 6 3 11 1 11 -4 0 -6 7 -11 16 -11 8 0
12 5 9 10 -3 6 -1 10 5 10 6 0 21 11 34 25 13 14 30 25 39 25 9 0 19 5 22 10
4 6 11 7 17 4 7 -4 8 -2 4 4 -3 6 3 16 15 23 37 20 89 71 82 82 -4 6 -1 7 7 2
7 -4 15 -4 19 1 14 21 94 83 101 79 4 -2 13 8 21 23 8 14 22 34 32 44 9 10 17
23 17 28 0 6 4 10 10 10 5 0 21 12 35 26 19 19 23 29 15 34 -9 5 -9 9 -1 14 8
5 11 439 11 1573 l0 1565 -22 -6 c-13 -3 -28 -6 -35 -6 -6 0 -14 -8 -17 -18
-5 -14 -14 -17 -42 -14 -30 4 -35 2 -32 -14 3 -19 -22 -27 -33 -11 -11 15 -62
11 -74 -6 -6 -9 -20 -14 -31 -13 -10 2 -27 -3 -36 -12 -13 -11 -18 -12 -18 -2
0 10 -3 10 -15 0 -8 -7 -15 -9 -15 -6 0 4 -13 -1 -30 -11 -16 -9 -30 -21 -30
-26 0 -4 -9 -7 -20 -5 -20 3 -130 -75 -130 -92 0 -5 -6 -7 -14 -4 -8 3 -17 0
-22 -7 -5 -8 -3 -10 6 -4 8 5 11 4 6 -3 -4 -6 -13 -9 -21 -6 -8 4 -17 -1 -21
-9 -3 -10 -12 -13 -22 -10 -9 4 -14 3 -10 -2 8 -9 -22 -65 -34 -65 -8 0 -39
-23 -73 -56 -12 -11 -26 -19 -31 -17 -5 1 -18 -12 -29 -30 -14 -21 -29 -32
-43 -31 -12 0 -22 -3 -22 -8 0 -4 -7 -8 -16 -8 -8 0 -13 -4 -9 -9 3 -6 -5 -15
-17 -22 -26 -13 -68 -57 -68 -71 0 -5 -5 -6 -10 -3 -6 3 -10 3 -10 -2 0 -12
-46 -63 -57 -63 -14 0 -44 -35 -37 -43 3 -3 -8 -13 -25 -22 -17 -8 -31 -20
-31 -25 0 -5 -12 -13 -26 -16 -15 -4 -23 -12 -20 -19 3 -8 -2 -16 -10 -19 -10
-4 -12 -2 -8 6 5 7 3 8 -5 3 -7 -4 -11 -16 -8 -26 3 -11 2 -17 -2 -15 -4 3
-30 -18 -58 -47 -45 -47 -142 -136 -201 -186 -13 -11 -32 -18 -43 -16 -11 2
-19 -2 -19 -10 0 -7 -7 -16 -16 -19 -9 -4 -14 -9 -11 -13 4 -3 -7 -19 -23 -35
-31 -29 -39 -45 -17 -32 6 4 2 -4 -10 -17 -18 -20 -20 -28 -10 -38 10 -10 8
-11 -6 -5 -14 5 -20 1 -24 -16 -4 -16 -8 -18 -14 -8 -7 10 -9 11 -9 0 0 -7 -4
-11 -9 -7 -12 7 -41 -22 -41 -40 0 -7 -11 -20 -25 -29 -14 -9 -23 -22 -19 -28
4 -7 3 -8 -5 -4 -6 4 -14 0 -18 -11 -3 -10 -13 -26 -20 -35 -8 -9 -12 -22 -8
-27 3 -6 1 -11 -5 -11 -6 0 -9 -4 -5 -9 3 -5 1 -12 -4 -16 -14 -8 -68 -90 -76
-114 -6 -21 -46 -38 -64 -27 -5 4 -12 2 -16 -4 -3 -5 -15 -10 -27 -10 -11 0
-32 -6 -46 -14 -15 -8 -46 -19 -69 -25 -24 -7 -43 -17 -43 -22 0 -6 -7 -8 -16
-5 -9 4 -23 1 -30 -5 -7 -6 -29 -11 -49 -11 -19 0 -35 -5 -35 -10 0 -7 -4 -7
-12 -1 -14 11 -31 11 -90 -1 -21 -4 -38 -12 -38 -19 0 -7 -3 -8 -8 -2 -9 13
-28 18 -85 20 -27 0 -50 -2 -53 -7 -3 -5 -10 -5 -16 -2 -6 4 -44 8 -85 9 -41
2 -77 6 -80 9 -4 3 -15 -2 -26 -11 -15 -13 -18 -14 -12 -3 8 13 6 13 -8 2 -9
-8 -21 -11 -27 -7 -6 4 -18 1 -26 -6 -8 -6 -18 -9 -21 -5 -4 4 -1 11 7 16 13
8 12 10 -2 10 -9 0 -19 6 -22 13 -5 9 -7 9 -12 -1 -3 -6 -10 -10 -15 -6 -5 3
-9 -1 -9 -8 0 -8 -5 -6 -11 5 -11 18 -54 23 -64 7 -6 -9 -43 6 -56 23 -10 14
-105 20 -127 8 -12 -7 -46 -14 -74 -16 -29 -3 -54 -9 -56 -14 -2 -5 -21 -2
-43 7 -32 12 -45 13 -60 4 -15 -10 -19 -9 -19 0 0 9 -3 8 -10 -2 -5 -9 -28
-15 -62 -16 -29 -1 -62 -4 -73 -7 -11 -3 -31 -8 -45 -12 -17 -4 -45 3 -83 20
-32 14 -66 25 -77 25 -11 0 -20 4 -20 9 0 5 -11 12 -25 15 -14 4 -24 10 -21
15 3 4 -1 8 -9 8 -8 0 -15 -4 -15 -9 0 -5 -4 -6 -10 -3 -5 3 -10 15 -10 25 0
13 -5 17 -15 14 -9 -4 -15 0 -15 10 0 9 -5 16 -11 16 -5 0 -7 -6 -3 -12 6 -10
4 -10 -7 -2 -8 6 -22 10 -31 9 -10 -2 -18 1 -18 6 0 6 -5 7 -10 4 -5 -3 -15
-3 -22 1 -7 4 -24 8 -38 8 -14 1 -29 4 -35 7 -5 4 -20 5 -32 4 -13 -1 -23 2
-23 6 0 5 -12 8 -27 8 -16 1 -55 2 -87 3 -39 2 -61 -2 -64 -10 -3 -9 -9 -9
-23 -1 -15 7 -24 7 -35 -1 -11 -10 -15 -9 -19 3 -8 19 -74 6 -91 -18 -7 -10
-25 -15 -45 -15 -31 2 -79 -4 -137 -16 -13 -2 -21 -8 -18 -13 3 -4 -10 -13
-29 -19 -38 -11 -44 -6 -17 14 14 11 12 12 -15 2 -18 -7 -33 -18 -33 -26 0 -7
-4 -11 -9 -8 -5 4 -11 1 -13 -5 -2 -7 -31 -13 -65 -15 -35 -1 -72 -10 -86 -19
-14 -8 -35 -18 -48 -20 -61 -12 -79 -17 -79 -24 0 -5 -11 -6 -25 -3 -14 2 -25
0 -25 -5 0 -5 -21 -8 -47 -7 -27 1 -54 -3 -61 -8 -6 -6 -12 -6 -12 -2 0 5 -17
8 -37 6 -21 -2 -50 -5 -65 -5 -16 -1 -28 -4 -28 -7 0 -3 -29 -5 -64 -5 -41 0
-62 3 -58 10 3 5 -3 3 -13 -5 -11 -9 -16 -10 -11 -2 4 6 3 12 -3 12 -5 0 -11
-4 -13 -10 -2 -6 -13 -4 -29 4 -15 7 -32 10 -39 6 -9 -6 -8 -9 6 -13 16 -4 15
-5 -4 -6 -19 -1 -22 3 -17 20 5 16 3 20 -12 17 -10 -1 -28 5 -41 14 -13 8 -32
14 -43 11 -11 -3 -19 0 -19 6 0 7 -5 9 -10 6 -6 -3 -10 -1 -10 5 0 6 -10 11
-22 10 -13 -1 -26 -1 -30 0 -5 1 -12 3 -16 4 -5 0 -16 9 -26 19 -12 12 -14 17
-4 17 8 1 6 6 -6 15 -11 8 -16 15 -10 15 13 0 -46 50 -60 50 -6 1 -24 19 -41
40 -16 21 -35 39 -42 40 -7 0 -18 10 -24 23 -7 12 -16 25 -21 28 -5 3 -10 13
-11 21 -3 19 -43 69 -50 62 -3 -3 -8 4 -12 15 -3 12 -11 19 -16 16 -5 -4 -9 0
-9 8 0 16 -100 117 -130 131 -10 5 -26 26 -34 47 -10 25 -42 60 -93 104 -43
37 -81 76 -85 86 -4 11 -12 18 -18 14 -6 -3 -7 1 -4 9 3 9 1 16 -5 16 -15 0
-76 59 -76 73 -1 7 -6 11 -12 10 -14 -3 -103 79 -103 94 0 9 -35 30 -35 21 0
-2 -13 7 -29 19 -16 13 -32 21 -36 18 -4 -3 -10 5 -13 16 -3 12 -10 18 -15 15
-6 -3 -13 1 -16 10 -3 8 -2 12 4 9 6 -3 10 -3 10 1 0 12 -34 33 -55 34 -17 0
-17 2 -5 10 12 8 11 10 -6 10 -11 0 -29 9 -39 20 -10 11 -23 19 -28 17 -5 -1
-25 12 -44 29 -19 18 -49 44 -66 59 -18 15 -48 40 -67 57 -19 16 -50 36 -67
44 -18 8 -33 21 -33 29 0 8 -18 29 -40 46 -22 18 -40 38 -40 46 0 7 -5 13 -11
13 -16 0 -41 28 -35 39 4 5 -9 14 -27 20 -18 6 -50 27 -70 46 -21 20 -42 33
-47 30 -5 -3 -12 0 -16 6 -4 8 -3 9 4 5 7 -4 12 -2 12 3 0 6 -11 11 -24 11
-13 0 -29 7 -36 15 -7 8 -19 15 -26 15 -8 0 -14 4 -14 10 0 5 -18 15 -40 21
-36 11 -38 13 -22 25 15 12 15 13 -5 9 -15 -2 -23 1 -23 10 0 13 -28 30 -43
26 -5 -1 -7 4 -5 11 7 20 -38 50 -63 43 -15 -5 -19 -4 -15 4 8 12 7 12 -12 4z
m3761 -1958 c26 -4 47 -10 47 -14 -1 -8 -67 -41 -85 -41 -8 0 -35 -11 -61 -25
-26 -14 -53 -25 -60 -25 -17 0 -18 -12 -1 -30 10 -12 9 -12 -5 -2 -11 9 -18
10 -23 2 -3 -6 -11 -8 -16 -5 -5 4 -9 1 -9 -5 0 -7 -7 -9 -16 -6 -11 4 -15 2
-11 -8 8 -21 -105 -112 -125 -100 -4 3 -8 0 -8 -5 0 -6 -7 -11 -15 -11 -8 0
-15 -5 -15 -11 0 -5 -4 -8 -8 -5 -5 3 -23 -10 -39 -29 -17 -19 -33 -32 -36
-29 -2 3 -8 -7 -11 -21 -4 -14 -11 -23 -16 -20 -5 3 -19 -5 -32 -18 -13 -12
-40 -31 -61 -41 -22 -10 -48 -27 -58 -37 -11 -11 -24 -17 -29 -14 -5 3 -7 0
-4 -8 3 -10 -8 -23 -35 -38 -22 -12 -37 -27 -34 -32 3 -6 1 -7 -4 -4 -6 4 -16
0 -23 -8 -7 -8 -18 -15 -24 -15 -6 0 -22 -13 -36 -30 -14 -16 -30 -30 -37 -30
-6 0 -15 -9 -18 -20 -3 -11 -14 -20 -22 -20 -9 0 -13 -3 -10 -7 4 -3 -5 -15
-20 -25 -16 -10 -25 -18 -20 -18 4 0 -12 -18 -34 -40 -23 -22 -46 -40 -52 -40
-6 0 -3 -6 8 -13 17 -13 17 -14 -4 -20 -13 -3 -19 -1 -14 5 4 7 1 8 -6 4 -7
-5 -11 -21 -9 -36 2 -19 -4 -35 -17 -47 -36 -33 -85 -101 -89 -125 -3 -13 -5
-24 -7 -25 -1 -2 -3 -7 -4 -13 -1 -5 -4 -13 -5 -17 -1 -5 -2 -11 -1 -15 0 -5
-6 -8 -14 -8 -9 0 -12 -6 -8 -17 4 -10 2 -14 -4 -10 -11 7 -23 -35 -23 -79 0
-12 -6 -29 -12 -36 -15 -15 -17 -22 -22 -79 -4 -42 10 -119 22 -129 4 -3 8
-12 10 -20 2 -8 8 -17 13 -18 5 -2 7 -8 3 -13 -3 -5 0 -9 7 -9 7 0 9 -3 6 -7
-4 -3 3 -11 16 -18 12 -6 21 -17 19 -24 -1 -7 6 -11 15 -9 10 2 17 -2 15 -9
-1 -7 5 -13 13 -13 8 0 15 -5 15 -11 0 -6 7 -9 14 -6 10 4 13 1 9 -9 -4 -10 0
-12 11 -8 9 4 18 0 22 -9 3 -8 17 -18 32 -22 15 -4 36 -14 46 -23 11 -9 16
-11 12 -4 -10 17 10 15 28 -4 9 -8 16 -11 16 -6 0 5 11 10 25 10 14 0 25 -5
25 -10 0 -5 7 -2 16 7 11 10 19 13 23 6 4 -6 12 -7 21 -1 22 14 42 12 34 -2
-4 -7 5 -2 19 11 23 21 27 22 27 7 0 -15 3 -14 29 5 17 13 38 20 50 16 12 -3
28 3 41 15 15 14 24 17 29 9 8 -12 16 -5 90 73 24 26 61 54 83 63 21 8 38 21
38 29 0 8 3 13 8 13 26 -4 44 3 39 15 -4 9 -1 13 6 10 17 -6 79 34 72 46 -3 6
-1 10 6 10 14 0 49 38 49 53 0 6 3 8 6 4 3 -3 17 4 30 16 14 12 35 31 47 42
12 11 24 20 27 20 3 1 15 6 28 13 12 7 22 10 22 6 0 -3 7 -1 15 6 8 7 12 17 8
23 -4 6 0 8 10 4 10 -3 17 -2 17 4 0 6 4 8 9 5 5 -3 11 1 15 9 3 8 12 15 21
15 8 0 15 5 15 10 0 6 9 10 20 10 11 0 20 3 20 8 0 4 14 15 30 24 17 9 30 13
30 7 0 -5 9 -4 19 3 11 7 17 16 14 21 -3 5 5 3 18 -4 13 -7 27 -12 31 -11 4 1
10 -8 14 -20 7 -23 19 -40 47 -66 9 -9 42 -41 71 -69 30 -29 59 -53 65 -53 5
0 11 -8 13 -17 2 -12 12 -18 28 -18 16 0 29 -9 37 -25 7 -14 13 -21 13 -17 0
4 10 -1 22 -13 12 -11 26 -20 30 -20 5 0 7 -4 3 -9 -7 -12 15 -61 27 -61 5 0
7 -4 4 -9 -3 -4 3 -16 14 -26 11 -10 20 -15 20 -10 0 4 -8 14 -17 21 -12 9
-14 13 -5 14 19 0 39 -23 34 -39 -3 -8 0 -11 6 -7 6 4 16 -3 22 -14 6 -11 15
-18 19 -15 5 3 11 -2 15 -10 3 -8 12 -12 21 -9 8 3 15 2 15 -3 0 -15 51 -64
60 -58 6 3 7 0 5 -8 -3 -7 5 -19 20 -27 14 -7 25 -19 25 -25 0 -18 57 -68 69
-61 7 4 11 -1 11 -13 0 -14 5 -19 15 -15 8 4 15 1 15 -6 0 -6 4 -9 9 -5 6 3
28 -13 50 -36 23 -22 41 -37 41 -33 0 4 8 0 18 -9 10 -10 23 -14 28 -10 5 5 6
4 2 -1 -5 -5 15 -25 43 -43 27 -19 53 -41 56 -49 3 -8 10 -14 15 -14 6 0 19
-11 30 -25 11 -14 28 -25 38 -25 13 0 17 -5 14 -15 -4 -8 -1 -15 5 -15 6 0 11
5 11 11 0 5 5 7 10 4 6 -4 8 -11 4 -16 -3 -6 0 -9 7 -7 15 3 80 -58 71 -67 -5
-5 14 -9 31 -6 4 0 7 -6 7 -14 0 -8 4 -14 9 -13 5 2 17 -6 26 -17 9 -11 13
-14 9 -6 -8 17 51 -24 87 -60 14 -14 32 -23 40 -21 8 3 11 1 7 -3 -7 -7 43
-55 56 -55 4 0 17 -9 29 -21 12 -11 42 -32 66 -46 24 -15 57 -39 74 -55 17
-15 37 -28 43 -28 7 0 14 -6 17 -14 3 -8 19 -17 36 -21 17 -3 47 -22 68 -41
21 -20 55 -43 75 -53 21 -10 35 -21 30 -26 -4 -5 -2 -5 4 -2 6 4 27 -2 47 -12
20 -10 34 -14 31 -7 -3 6 1 3 10 -8 8 -10 19 -15 24 -12 13 8 43 -4 37 -13 -2
-4 14 -6 36 -5 32 2 39 -1 35 -13 -15 -39 -18 -63 -6 -63 6 0 9 -4 5 -9 -8
-14 32 -24 63 -16 15 3 34 15 42 25 8 10 22 20 29 22 8 2 25 13 37 25 11 13
42 32 68 43 42 19 61 40 36 40 -5 0 -10 5 -10 12 0 6 9 3 21 -8 17 -16 22 -16
30 -4 24 36 38 68 32 74 -4 3 -1 6 5 6 7 0 12 7 12 15 0 22 40 64 56 58 8 -3
14 1 14 11 0 9 4 16 9 16 12 0 24 -36 17 -48 -3 -5 -7 -55 -10 -113 -3 -57 -8
-115 -12 -129 -4 -14 -7 -37 -8 -53 0 -15 -6 -25 -12 -23 -6 2 -9 -7 -6 -25 3
-19 0 -29 -9 -29 -7 0 -27 -16 -45 -35 -21 -23 -35 -32 -39 -24 -6 8 -10 7
-16 -2 -7 -12 -9 -12 -9 0 0 11 -3 11 -15 1 -9 -7 -13 -21 -10 -31 4 -11 2
-19 -4 -19 -6 0 -11 5 -11 11 0 6 -9 9 -20 6 -11 -3 -20 0 -20 6 0 8 -4 7 -12
-1 -7 -7 -27 -12 -45 -12 -18 0 -33 -4 -33 -9 0 -13 -183 -6 -208 8 -12 7 -22
8 -22 3 0 -6 -18 -9 -39 -9 -22 0 -38 4 -35 9 3 4 -4 8 -16 8 -12 0 -19 3 -17
8 3 4 -22 7 -55 6 -41 0 -62 4 -65 13 -3 7 -13 13 -22 13 -10 0 -27 9 -39 20
-12 11 -27 20 -34 20 -8 0 -28 14 -47 30 -18 17 -50 39 -70 50 -21 10 -43 26
-50 34 -8 9 -20 16 -27 16 -8 0 -14 4 -14 10 0 5 -6 9 -12 7 -7 -1 -12 4 -11
10 2 7 0 12 -5 11 -13 -4 -82 26 -82 35 0 5 -7 6 -16 3 -9 -4 -22 -2 -28 2 -6
5 -32 17 -58 27 -42 16 -60 32 -62 60 -1 5 -11 12 -23 15 -13 3 -31 12 -41 20
-50 41 -80 56 -115 58 -21 2 -43 -1 -49 -5 -7 -3 -26 -8 -43 -10 -16 -2 -31
-8 -33 -13 -2 -6 -12 -10 -23 -10 -16 0 -17 -3 -7 -19 7 -11 16 -17 20 -15 4
3 8 0 8 -5 0 -14 -13 -14 -27 0 -7 7 -13 7 -17 1 -11 -18 96 -140 134 -154 19
-6 38 -11 43 -10 4 1 7 -7 7 -19 0 -16 4 -19 23 -13 12 3 19 3 15 -1 -8 -9 20
-39 45 -48 11 -4 15 -12 11 -19 -5 -8 -2 -9 9 -5 10 3 17 2 17 -3 0 -6 8 -10
18 -10 15 0 49 -26 122 -92 14 -13 48 -34 75 -47 28 -13 57 -29 65 -36 8 -6
31 -17 50 -25 70 -25 120 -50 120 -60 0 -6 6 -10 14 -10 8 0 16 -5 18 -10 3
-10 33 -18 85 -24 11 -1 33 -10 47 -19 14 -9 40 -17 57 -17 18 0 37 -6 43 -14
6 -8 34 -17 61 -20 152 -16 160 -17 145 -7 -8 5 -11 13 -7 17 3 4 14 1 23 -6
19 -17 87 -14 124 5 42 22 78 26 84 9 3 -8 2 -14 -2 -14 -4 0 -7 -17 -6 -38 0
-20 -8 -54 -18 -75 -10 -21 -16 -42 -13 -47 3 -6 -1 -10 -9 -10 -9 0 -16 -6
-16 -14 0 -8 -8 -21 -18 -28 -10 -7 -21 -21 -25 -31 -3 -9 -10 -16 -14 -16
-15 4 -43 -13 -37 -22 3 -5 1 -9 -5 -9 -5 0 -12 6 -14 13 -3 7 -6 6 -6 -5 -1
-9 -6 -20 -13 -24 -7 -4 -8 -3 -4 4 14 23 -16 12 -43 -15 -30 -30 -67 -53 -93
-56 -8 -2 -23 -10 -32 -20 -22 -21 -27 -22 -19 -1 5 13 3 15 -13 6 -31 -15
-113 -21 -127 -8 -7 6 -23 10 -37 9 -24 -2 -58 -3 -108 -2 -12 1 -51 15 -85
31 -34 17 -64 30 -67 30 -3 0 -9 6 -13 14 -5 8 -12 12 -17 9 -5 -3 -11 -1 -15
5 -3 5 -15 10 -26 10 -10 0 -19 5 -19 10 0 6 -11 10 -24 10 -34 0 -72 16 -96
40 -11 11 -20 18 -20 15 0 -3 -12 3 -27 12 -26 17 -27 17 -20 0 11 -29 -7 -19
-21 11 -9 23 -18 29 -40 27 -15 -1 -30 3 -34 9 -4 6 -11 11 -15 12 -4 0 -16 4
-25 8 -9 4 -22 9 -30 11 -39 9 -58 18 -58 28 0 6 -3 7 -7 4 -3 -4 -17 3 -30
15 -12 12 -26 19 -29 15 -3 -3 -25 5 -49 18 -23 13 -45 21 -49 18 -4 -4 -13 3
-22 16 -11 15 -22 20 -35 16 -10 -4 -19 -2 -19 4 0 5 8 11 18 14 10 2 2 7 -20
11 -22 5 -38 14 -38 22 0 13 -45 39 -61 36 -4 -1 -17 10 -29 23 -13 14 -32 25
-42 25 -11 0 -18 7 -18 20 0 11 -4 20 -10 20 -5 0 -18 10 -30 22 -11 12 -20
18 -20 14 0 -4 -7 0 -16 8 -17 17 -89 23 -79 6 3 -5 -4 -10 -15 -10 -16 0 -20
-4 -16 -16 3 -8 2 -12 -3 -9 -15 8 -23 -30 -15 -70 4 -23 2 -41 -7 -51 -15
-19 -22 -74 -8 -74 5 0 9 -7 9 -16 0 -25 63 -114 81 -114 9 0 19 -9 22 -20 3
-11 10 -20 17 -20 6 0 8 6 5 13 -4 6 -1 5 7 -4 7 -9 18 -14 25 -12 6 2 14 0
17 -6 4 -6 13 -8 21 -4 11 4 13 1 8 -13 -4 -11 -3 -15 4 -11 6 4 14 0 17 -9 3
-8 12 -14 20 -12 8 2 21 -4 28 -13 19 -24 164 -100 173 -91 5 4 5 -1 2 -10 -4
-12 -2 -15 9 -11 8 3 21 0 29 -7 8 -7 15 -9 15 -6 0 9 84 -36 88 -46 2 -5 10
-8 18 -8 8 0 14 -5 14 -11 0 -5 4 -8 9 -4 5 3 15 -1 23 -8 7 -8 19 -12 26 -9
7 2 18 2 25 -1 7 -2 15 -4 18 -3 3 0 13 -5 22 -12 9 -8 21 -11 27 -7 5 3 10 1
10 -6 0 -7 11 -10 30 -7 17 3 30 0 31 -6 0 -7 3 -6 5 1 7 16 34 5 28 -11 -3
-9 5 -12 28 -11 18 2 53 -7 78 -18 41 -18 54 -21 98 -26 7 0 10 -6 6 -13 -5
-7 -3 -8 7 -2 20 12 39 14 39 3 0 -5 6 -9 14 -9 8 0 22 -7 30 -16 9 -8 32 -18
53 -21 20 -4 48 -12 62 -19 13 -7 28 -11 33 -8 12 8 10 -14 -6 -44 -14 -28
-67 -72 -85 -72 -6 0 -8 -7 -5 -15 4 -9 -3 -19 -20 -26 -20 -10 -23 -15 -15
-26 9 -11 8 -12 -4 -7 -9 3 -24 -1 -32 -10 -9 -9 -29 -16 -45 -16 -16 0 -40
-4 -55 -10 -41 -16 -180 -16 -199 -1 -9 7 -23 11 -32 7 -8 -3 -28 1 -43 9 -16
8 -31 12 -34 8 -4 -3 -14 -2 -24 3 -20 8 -45 13 -80 15 -13 1 -23 8 -23 16 0
10 -6 12 -20 8 -11 -4 -20 -2 -20 4 0 6 -5 11 -11 11 -6 0 -17 7 -25 15 -9 8
-24 15 -35 15 -10 0 -19 5 -19 11 0 5 -4 8 -9 4 -5 -3 -13 0 -17 6 -4 7 -21 9
-46 5 -30 -5 -46 -2 -66 12 -15 11 -36 22 -47 25 -48 14 -111 39 -124 50 -11
10 -13 8 -7 -11 5 -15 3 -22 -5 -22 -7 0 -9 3 -6 6 11 11 -22 48 -45 51 -13 1
-33 5 -45 8 -13 3 -23 1 -23 -5 0 -5 -7 -10 -15 -10 -10 0 -15 7 -13 18 2 9
-3 16 -9 15 -7 -2 -20 8 -29 22 -9 14 -20 22 -25 19 -5 -3 -9 0 -9 7 0 6 -8 9
-19 6 -13 -3 -18 -1 -15 8 7 16 -43 33 -112 39 -29 2 -57 7 -63 10 -6 4 -15 5
-20 1 -5 -3 -16 1 -24 9 -8 8 -33 23 -56 33 -22 10 -41 21 -41 25 0 5 -6 8
-14 8 -8 0 -25 13 -38 28 -33 41 -135 115 -148 107 -5 -3 -10 -1 -10 4 0 6
-10 9 -22 7 -13 -2 -29 1 -35 6 -9 7 -13 7 -13 0 0 -5 -9 -8 -21 -5 -12 4 -25
0 -29 -7 -5 -8 -21 -15 -37 -17 -31 -4 -53 -27 -53 -55 0 -24 44 -89 69 -103
11 -5 38 -28 61 -49 23 -21 52 -39 63 -40 14 -1 23 -10 27 -26 4 -16 12 -24
23 -22 10 2 17 -4 17 -13 0 -9 5 -13 10 -10 5 3 10 -1 10 -10 0 -8 8 -19 18
-22 9 -4 23 -15 30 -24 7 -10 19 -16 27 -13 8 4 15 1 15 -5 0 -6 14 -11 30
-11 17 0 30 -4 30 -10 0 -5 7 -10 16 -10 8 0 12 -4 9 -10 -3 -5 2 -11 12 -11
28 -2 36 -4 73 -22 19 -9 31 -16 25 -17 -15 0 53 -40 69 -40 7 0 24 -9 37 -21
32 -28 72 -44 77 -30 7 21 20 11 14 -11 -3 -14 -2 -19 6 -14 7 4 12 3 12 -2 0
-14 38 -22 44 -8 2 6 5 2 5 -8 1 -11 4 -16 7 -13 4 4 19 0 33 -8 38 -21 221
-67 243 -62 10 3 16 1 12 -4 -3 -5 4 -9 15 -9 11 0 22 -4 26 -9 3 -6 14 -8 25
-6 10 2 43 -9 72 -25 29 -17 62 -30 74 -30 11 0 24 -4 30 -9 5 -5 19 -11 32
-13 l22 -3 -21 -40 c-26 -49 -56 -78 -82 -80 -11 -1 -26 -10 -33 -19 -8 -11
-18 -15 -26 -10 -10 6 -10 4 1 -9 12 -15 12 -17 -3 -11 -9 3 -16 1 -16 -6 0
-6 -4 -9 -10 -5 -5 3 -18 -3 -29 -14 -12 -12 -39 -24 -61 -27 -22 -4 -43 -10
-46 -15 -2 -4 -11 -6 -19 -2 -8 3 -15 1 -15 -5 0 -5 -24 -10 -52 -10 -29 0
-73 -2 -97 -4 -24 -3 -48 0 -55 7 -6 6 -21 11 -33 12 -13 0 -37 1 -54 2 -16 0
-28 5 -25 9 2 4 -11 7 -30 7 -19 -1 -37 2 -40 7 -3 4 -16 8 -30 8 -13 0 -24 3
-24 8 0 4 -26 8 -57 10 -37 2 -78 12 -113 29 -30 14 -61 25 -68 24 -7 -1 -11
3 -10 10 3 11 -17 19 -52 21 -8 1 -27 15 -41 31 -19 22 -32 28 -48 24 -15 -4
-29 2 -46 21 l-24 26 20 33 c29 47 59 133 47 133 -7 0 -7 4 0 13 11 14 12 147
0 147 -4 0 -8 7 -8 16 0 10 -6 14 -15 10 -18 -7 -20 10 -2 18 8 3 7 8 -5 16
-10 6 -18 16 -18 23 0 23 -57 68 -77 60 -15 -6 -16 -4 -5 9 10 13 8 17 -18 28
-16 7 -30 17 -30 22 0 5 -8 8 -17 6 -10 -1 -23 1 -29 4 -23 15 -77 18 -92 6
-13 -11 -14 -11 -7 1 6 11 4 13 -9 8 -9 -4 -15 -3 -12 2 5 8 13 53 20 111 1 9
5 20 8 25 14 23 -6 157 -29 194 -12 18 -12 22 -2 16 8 -5 5 1 -5 13 -11 12
-16 22 -11 22 4 0 3 6 -2 13 -5 6 -18 34 -27 60 -15 39 -21 47 -37 42 -10 -4
-19 -2 -19 3 0 6 -11 9 -25 8 -13 -2 -22 0 -20 5 12 19 -104 21 -127 1 -23
-19 -39 0 -29 35 5 17 6 35 3 39 -4 4 -2 4 5 0 15 -8 22 22 11 52 -5 15 -4 21
2 17 12 -8 13 -9 -5 47 -7 26 -12 57 -10 68 2 11 1 18 -4 16 -11 -7 -41 81
-44 127 -1 9 -5 17 -10 17 -5 0 -7 7 -4 15 4 8 2 17 -4 20 -5 4 -7 10 -5 14 3
4 -6 14 -19 21 -14 7 -27 21 -31 32 -3 10 -12 18 -20 18 -8 0 -13 6 -12 13 2
7 -6 12 -19 11 -13 -1 -20 3 -16 11 2 7 0 16 -6 20 -6 3 -11 0 -11 -7 0 -10
-2 -10 -8 -1 -13 20 -106 19 -172 -2 -17 -5 -41 -35 -65 -79 -5 -10 -19 -22
-31 -27 -18 -6 -21 -4 -20 22 1 16 4 29 8 29 11 0 6 204 -6 219 -8 11 -8 13 2
7 13 -8 17 15 5 28 -4 4 -8 19 -9 34 -1 15 -3 29 -4 32 -4 9 -7 25 -8 54 -2
22 -6 27 -18 22 -13 -5 -15 -2 -11 14 3 11 1 18 -4 14 -5 -3 -9 0 -9 6 0 6 -8
13 -17 17 -31 11 -62 44 -56 61 4 9 2 13 -4 9 -6 -4 -23 0 -39 7 -27 13 -99
20 -187 17 -24 -1 -43 -8 -54 -21 -10 -11 -23 -20 -30 -20 -7 0 -10 -7 -7 -15
4 -8 2 -15 -2 -16 -52 -4 -127 -36 -145 -61 -3 -5 -18 -4 -32 1 -21 8 -28 7
-35 -5 -7 -13 -36 -24 -69 -26 -7 -1 -10 -5 -7 -10 7 -11 -41 -57 -73 -69 -13
-5 -28 -20 -33 -34 -5 -14 -16 -25 -25 -25 -8 0 -15 -7 -15 -15 0 -8 -7 -15
-16 -15 -9 0 -12 -5 -8 -12 6 -10 5 -10 -8 -1 -8 7 -18 11 -21 8 -4 -3 -5 -2
-2 2 3 3 -2 17 -11 31 -11 17 -12 22 -3 17 8 -5 -2 9 -21 31 -19 21 -38 40
-42 42 -5 2 -8 10 -8 18 0 8 -5 14 -11 14 -7 0 -9 10 -5 26 9 36 -2 67 -21 60
-11 -5 -14 -1 -10 13 3 11 1 21 -3 23 -5 2 -11 17 -14 33 -2 17 -5 32 -6 35
-1 3 -2 8 -1 12 0 4 -7 4 -16 1 -12 -5 -15 -2 -10 10 3 9 2 17 -3 17 -6 0 -10
7 -10 15 0 8 -11 25 -25 37 -18 15 -22 25 -14 34 7 8 6 14 -2 20 -8 4 -9 3 -5
-4 4 -7 2 -12 -3 -12 -14 0 -14 17 -1 25 6 3 -3 20 -20 38 -16 18 -30 35 -30
39 0 4 -13 21 -29 37 -16 17 -32 39 -35 49 -4 11 -16 22 -27 25 -12 3 -19 9
-17 14 2 4 -9 20 -24 35 -15 15 -28 25 -28 22 0 -2 -8 3 -17 12 -10 8 -34 25
-53 38 -19 12 -35 27 -35 33 0 11 42 65 92 119 12 13 19 24 15 24 -4 0 -1 4 6
9 7 4 14 17 15 29 0 12 3 19 6 17 6 -7 41 26 41 39 0 15 63 139 75 148 6 4 6
8 2 8 -5 0 -1 7 7 16 9 8 14 19 11 24 -3 4 2 11 11 14 8 3 13 10 9 15 -3 5 -1
12 5 16 5 3 10 14 10 24 0 10 7 24 15 31 13 11 13 15 3 21 -9 6 -9 9 -1 9 6 0
17 16 23 35 7 22 16 33 23 28 7 -4 6 1 -2 10 -13 17 -12 18 11 21 6 0 22 21
35 46 13 25 28 47 33 48 6 2 8 8 4 13 -3 5 0 9 5 9 6 0 11 9 11 20 0 11 7 20
15 20 9 0 19 8 22 18 4 9 10 19 13 22 11 8 30 72 24 81 -3 5 2 6 11 3 10 -4
14 -2 10 8 -3 7 5 26 17 41 12 15 23 37 25 49 2 12 8 25 15 29 6 4 8 11 4 17
-3 5 1 13 10 16 14 5 14 9 3 23 -10 12 -10 14 -1 9 8 -5 12 0 12 14 0 12 4 18
10 15 6 -4 10 -3 9 2 -6 34 4 83 20 100 11 12 17 23 14 27 -3 3 -3 11 -1 18 3
7 7 18 8 23 1 6 10 21 20 35 27 40 47 85 44 103 -1 9 1 17 5 17 4 0 13 16 20
35 7 19 24 48 37 65 22 26 28 28 47 17 12 -7 25 -16 28 -21 4 -4 10 -3 14 3 5
8 12 6 24 -8 9 -11 30 -23 47 -27 16 -4 35 -11 41 -16 7 -6 30 -8 51 -6 23 2
44 -2 51 -9 12 -14 42 -17 151 -16 37 1 66 6 68 12 2 6 9 8 15 4 18 -11 40
-13 52 -4 5 5 17 8 25 8 8 1 24 4 34 8 16 7 18 5 14 -12 -4 -17 -2 -20 16 -16
51 12 86 25 86 34 0 6 3 8 8 5 13 -8 77 10 75 21 -1 5 8 8 21 6 13 -3 27 0 30
6 4 6 18 11 31 11 13 0 27 5 30 10 3 6 15 10 26 10 10 0 19 3 19 8 0 4 19 7
43 6 23 0 45 4 48 8 6 9 63 16 133 17 30 1 37 4 32 16 -3 9 0 15 8 15 8 0 16
-7 20 -15 8 -22 34 -18 48 8 7 12 11 26 10 30 -1 5 2 6 7 3 5 -4 22 -1 38 6
15 6 39 13 53 14 87 10 130 12 126 5 -3 -5 6 -6 19 -3 14 2 28 8 30 12 6 10
135 6 208 -5z m2152 -82 c4 -16 11 -36 16 -46 5 -10 7 -22 4 -27 -4 -6 -2 -10
4 -10 6 0 8 -12 5 -30 -4 -18 -1 -36 6 -45 9 -10 9 -15 1 -15 -6 0 -11 -4 -11
-10 0 -5 3 -9 8 -9 21 4 27 -4 26 -38 -1 -21 -2 -42 -4 -48 -6 -23 1 -37 15
-31 13 4 13 2 5 -14 -7 -13 -7 -21 1 -26 6 -3 9 -15 6 -25 -3 -11 -2 -19 3
-19 4 0 11 -16 14 -35 4 -19 12 -35 18 -35 6 0 5 -7 -3 -17 -10 -11 -10 -14
-1 -9 12 7 17 -10 12 -44 -1 -10 3 -9 14 5 12 16 17 18 27 8 10 -10 10 -13 1
-13 -18 0 -8 -61 13 -72 12 -7 14 -13 6 -17 -7 -5 -1 -19 19 -41 29 -32 32
-62 4 -39 -12 10 -13 9 -8 -5 3 -9 12 -16 20 -16 8 0 11 -6 7 -17 -5 -12 -3
-14 7 -8 10 6 12 4 7 -9 -4 -9 -3 -15 1 -13 4 2 15 -4 25 -15 9 -10 13 -18 7
-18 -5 0 -1 -9 10 -20 12 -12 18 -25 15 -30 -4 -6 -2 -10 3 -10 6 0 9 -8 8
-17 0 -10 5 -17 12 -16 11 3 14 -9 15 -64 1 -12 4 -20 8 -17 4 2 10 -4 14 -13
3 -10 2 -19 -4 -21 -5 -2 -1 -12 9 -22 11 -11 17 -26 14 -33 -3 -8 2 -17 10
-20 9 -4 19 -24 22 -47 4 -24 12 -40 20 -40 8 0 14 -10 14 -25 0 -16 6 -25 16
-25 8 0 12 -4 9 -10 -3 -5 0 -10 7 -10 21 0 59 -46 52 -64 -4 -10 0 -18 10
-22 9 -3 16 -12 16 -20 0 -8 4 -14 10 -14 5 0 13 -15 18 -32 5 -18 15 -32 21
-30 7 1 10 -2 6 -8 -3 -5 1 -10 9 -10 10 0 13 -6 9 -17 -4 -11 -3 -14 5 -9 8
5 10 2 6 -8 -3 -9 -2 -16 3 -16 11 0 53 -76 53 -95 0 -7 14 -18 32 -26 27 -11
29 -14 12 -20 -18 -7 -18 -8 -1 -8 28 -1 46 -25 43 -55 -1 -14 -6 -25 -9 -24
-9 4 -47 -58 -47 -77 0 -8 -11 -26 -24 -40 -14 -15 -22 -33 -19 -42 3 -9 -7
-26 -26 -43 -17 -16 -31 -33 -31 -39 0 -5 -4 -11 -10 -13 -5 -1 -12 -19 -14
-38 -2 -19 -9 -36 -15 -38 -6 -2 -21 -20 -32 -40 -11 -21 -28 -50 -39 -67 -11
-16 -26 -42 -33 -58 -7 -15 -16 -24 -20 -20 -4 3 -7 -1 -7 -10 0 -9 -11 -24
-25 -33 -14 -9 -25 -21 -25 -26 0 -6 -12 -19 -26 -30 -15 -12 -23 -26 -19 -35
3 -11 1 -13 -10 -9 -8 3 -15 2 -15 -3 0 -4 -9 -18 -20 -31 -16 -18 -22 -20
-34 -10 -9 6 -20 9 -26 5 -5 -3 -10 -2 -10 4 0 5 -11 8 -25 6 -14 -1 -23 0
-20 3 5 5 -41 32 -57 32 -11 0 -26 12 -78 64 -23 23 -40 33 -40 25 -1 -8 -8
-2 -16 13 -8 16 -30 35 -49 42 -19 8 -35 21 -35 28 0 9 -3 10 -8 2 -5 -8 -15
-8 -32 -2 -20 7 -22 11 -10 18 12 8 10 10 -7 10 -13 0 -23 4 -23 10 0 13 -44
41 -68 43 -12 1 -18 6 -15 14 3 8 2 13 -3 11 -14 -3 -83 25 -79 32 2 4 -14 13
-35 20 -22 7 -40 16 -40 20 0 4 -13 13 -30 20 -16 7 -31 20 -31 29 -1 13 -2
13 -6 -1 -2 -10 -9 -18 -15 -18 -6 0 -8 10 -4 25 4 17 0 30 -15 44 -12 11 -18
24 -15 30 4 6 -8 13 -29 17 -19 3 -35 10 -35 15 0 5 -8 9 -17 9 -10 0 -29 9
-43 20 -14 11 -29 20 -33 20 -5 0 -20 9 -34 20 -14 11 -29 18 -33 15 -4 -3
-11 2 -14 11 -4 10 -2 13 7 9 6 -4 3 1 -7 9 -11 9 -16 16 -11 16 15 0 -29 29
-45 30 -8 0 -26 9 -39 19 -14 10 -31 17 -38 14 -7 -3 -13 2 -13 10 0 9 -13 24
-30 34 -16 9 -30 23 -30 31 0 7 -4 10 -10 7 -5 -3 -10 1 -10 9 0 9 -7 16 -15
16 -8 0 -19 9 -25 20 -6 11 -14 19 -18 19 -20 -3 -30 3 -36 24 -5 18 -8 20
-16 7 -8 -13 -10 -13 -10 2 0 22 -86 111 -100 103 -5 -3 -10 0 -10 7 0 7 -9
19 -20 26 -12 7 -18 17 -15 22 3 6 -1 7 -9 4 -10 -4 -18 1 -22 11 -4 9 -12 14
-19 11 -8 -3 -16 2 -19 10 -3 9 -11 12 -18 8 -7 -4 -10 -4 -6 0 8 9 -47 66
-63 66 -6 0 -8 4 -5 9 6 9 -89 111 -105 111 -5 0 -9 4 -9 9 0 5 -15 16 -32 25
-18 8 -44 27 -57 41 -13 14 -27 25 -33 25 -5 0 -6 5 -3 10 3 6 -1 10 -9 10 -9
0 -16 4 -16 9 0 5 -13 12 -30 16 -36 8 -46 21 -30 40 12 15 20 125 9 125 -4 0
-14 16 -23 35 -10 20 -22 33 -27 29 -6 -3 -18 3 -27 13 -16 18 -67 40 -58 25
2 -4 -22 -6 -55 -6 -47 1 -59 -2 -59 -14 0 -13 -3 -12 -14 3 -13 18 -14 17
-41 -7 -18 -17 -26 -32 -22 -42 4 -9 2 -16 -3 -16 -6 0 -10 4 -10 10 0 5 -15
-1 -34 -13 -18 -12 -32 -24 -31 -27 2 -3 -13 -6 -32 -7 -38 -2 -66 -20 -56
-36 3 -6 1 -7 -5 -3 -6 3 -14 0 -19 -7 -14 -24 -145 -109 -159 -103 -8 3 -13
0 -11 -7 1 -7 -8 -12 -21 -12 -12 0 -35 -15 -50 -32 -16 -17 -42 -38 -58 -47
-16 -8 -44 -29 -63 -46 -18 -16 -38 -30 -42 -30 -5 0 -9 -7 -9 -16 0 -8 -5
-12 -10 -9 -6 3 -13 -1 -16 -10 -4 -9 -18 -22 -33 -30 -14 -7 -43 -30 -64 -49
-20 -20 -41 -36 -46 -36 -4 0 -19 -8 -32 -19 -42 -32 -165 -66 -189 -51 -7 4
-25 4 -41 -2 -39 -14 -84 8 -84 42 0 14 -6 31 -12 38 -7 7 -13 19 -12 25 0 9
2 8 6 0 2 -7 11 -13 19 -13 11 0 12 4 4 19 -14 26 -13 38 2 23 21 -21 28 -13
24 30 -3 30 1 47 15 62 11 11 19 26 19 33 0 7 7 13 15 13 8 0 15 7 15 16 0 8
14 27 30 41 17 13 28 29 25 33 -3 5 -1 10 4 12 5 1 17 17 27 33 51 84 68 106
85 116 11 5 17 14 14 19 -3 5 4 14 15 20 11 6 18 15 15 21 -4 5 -1 9 4 9 6 0
20 8 30 18 11 9 34 28 52 42 17 14 37 30 43 35 6 6 17 11 24 13 7 1 23 11 34
22 12 11 25 17 30 14 4 -3 8 0 8 6 0 6 4 9 9 6 5 -3 11 1 15 9 3 8 12 15 21
15 8 0 15 5 15 11 0 5 3 9 8 7 4 -2 30 18 57 46 28 27 43 46 35 42 -9 -4 -8
-2 3 7 9 8 17 20 17 26 0 7 4 10 9 6 5 -3 15 1 23 8 7 7 25 20 40 30 16 9 27
21 25 25 -1 4 0 7 3 8 17 3 50 26 46 33 -4 6 50 38 69 41 2 1 34 17 70 36 37
19 75 34 85 34 9 0 23 7 30 15 7 8 18 15 24 15 7 0 30 9 51 20 23 12 63 21 93
22 28 1 52 5 52 9 0 9 102 32 145 33 17 1 35 5 42 9 15 9 162 19 293 20 164 0
174 -1 164 -16 -5 -7 -1 -4 9 6 9 11 17 14 17 8 0 -6 14 -11 31 -11 17 0 37
-7 45 -15 17 -17 34 -20 34 -5 0 5 7 7 15 4 8 -4 12 -11 8 -17 -4 -6 -1 -7 7
-2 16 10 70 13 70 4 0 -12 65 5 83 22 17 15 22 16 33 4 8 -7 14 -18 14 -24 0
-6 10 -11 23 -12 12 0 47 -2 77 -4 30 -1 59 -1 63 2 8 5 71 10 207 17 41 2 84
8 94 12 13 5 17 4 13 -3 -4 -7 19 -3 52 7 33 10 63 15 66 12 3 -4 3 1 -1 11
-5 13 -2 16 12 10 12 -4 15 -3 10 6 -5 8 -3 11 5 10 20 -4 58 10 102 38 21 13
42 21 46 18 5 -2 11 2 15 10 9 24 25 17 31 -12z m-3584 -2436 c-7 -7 -7 -15 0
-24 9 -10 8 -13 -3 -13 -9 0 -14 -14 -15 -44 -1 -25 -7 -55 -13 -67 -10 -17
-9 -20 1 -14 8 5 10 4 5 -4 -4 -6 -10 -23 -12 -37 -5 -28 -26 -54 -43 -54 -6
0 -11 -9 -11 -20 0 -11 -5 -20 -12 -20 -6 0 -8 -3 -5 -6 3 -4 2 -16 -4 -27 -8
-14 -8 -18 0 -13 20 13 11 -4 -16 -32 -15 -15 -31 -26 -36 -24 -4 1 -7 -6 -6
-15 3 -26 -11 -54 -25 -46 -6 3 -8 3 -4 -2 4 -4 -2 -25 -13 -46 -11 -22 -15
-39 -9 -39 5 0 10 -5 10 -12 0 -6 -9 -3 -20 7 -20 18 -20 18 -14 -13 4 -22 3
-32 -5 -32 -7 0 -10 4 -7 8 2 4 1 14 -4 22 -9 15 -10 14 -24 -33 -2 -7 -16
-19 -32 -27 -37 -19 -55 -36 -47 -44 4 -3 1 -6 -6 -6 -7 0 -9 -5 -6 -10 4 -6
3 -9 -2 -8 -12 3 -73 -31 -73 -41 0 -5 -14 -12 -30 -16 -17 -4 -28 -10 -26
-13 4 -6 -48 -12 -114 -13 -14 -1 -28 -5 -31 -10 -12 -19 -44 6 -46 36 -1 17
-3 39 -4 50 -1 11 2 34 6 51 6 26 4 33 -12 38 -25 8 -29 46 -3 39 20 -5 82 35
74 48 -4 7 33 78 46 89 4 3 10 12 14 20 19 41 34 59 41 52 4 -4 5 6 1 22 -6
23 -4 27 8 23 10 -4 22 3 32 19 41 61 194 194 194 167 0 -4 11 5 25 21 14 16
25 36 25 44 0 9 6 12 16 8 8 -3 26 1 40 10 13 9 24 13 24 8 0 -4 5 -3 12 4 7
7 20 12 29 12 10 0 19 5 21 12 3 8 21 12 46 11 23 -1 42 2 42 6 0 4 7 8 15 8
11 0 12 -4 6 -10z m475 -477 c1 -78 23 -157 45 -163 12 -3 17 -11 13 -21 -6
-15 5 -21 29 -17 10 1 -2 -46 -20 -81 -7 -16 -18 -28 -23 -28 -6 0 -10 -8 -11
-17 0 -12 -2 -14 -6 -5 -6 15 -63 -63 -63 -85 0 -8 -7 -10 -17 -6 -10 3 -15 3
-11 -1 3 -4 -7 -22 -23 -38 -16 -17 -29 -34 -29 -39 0 -4 -16 -24 -35 -45 -19
-20 -35 -33 -35 -29 0 4 -9 -4 -21 -18 -11 -15 -26 -26 -32 -24 -7 1 -11 -6
-9 -15 2 -10 -2 -18 -8 -18 -5 0 -12 0 -15 0 -12 0 -45 -41 -40 -50 3 -5 0
-12 -6 -16 -8 -4 -9 -3 -5 4 4 7 3 12 -3 12 -14 0 -33 -38 -26 -50 3 -6 -1
-10 -9 -10 -8 0 -18 -9 -21 -20 -3 -11 -11 -20 -16 -20 -6 0 -7 -5 -4 -10 4
-6 3 -10 -2 -9 -21 4 -31 -3 -37 -23 -5 -19 -8 -21 -16 -8 -7 10 -10 11 -10 2
0 -12 -47 -37 -63 -33 -5 1 -22 -8 -38 -20 l-30 -21 -27 23 c-39 36 -77 82
-75 91 2 4 -4 8 -12 8 -8 0 -16 6 -16 13 -1 6 -3 22 -4 35 -1 12 -5 25 -9 29
-3 3 -1 12 5 20 9 9 8 13 0 13 -7 0 -5 10 6 26 9 15 19 36 20 48 2 11 12 35
23 53 13 22 15 33 7 37 -7 2 -4 5 7 5 12 1 16 6 13 15 -4 11 -1 13 10 9 11 -4
14 -2 9 5 -3 6 3 16 14 22 12 7 19 18 16 25 -3 8 -1 17 3 19 5 3 11 19 14 34
3 16 15 40 27 53 11 13 41 56 65 94 82 128 153 194 226 210 19 4 41 13 50 21
8 7 24 15 35 17 10 2 32 9 48 16 16 6 31 10 33 7 3 -2 19 2 36 10 55 24 72 16
73 -36z m300 -587 c-2 -16 -6 -35 -9 -43 -12 -35 -14 -60 -5 -60 6 0 3 -11 -6
-25 -9 -14 -14 -25 -11 -25 9 0 -22 -55 -39 -69 -9 -7 -13 -17 -10 -22 3 -5 1
-9 -4 -9 -9 0 -19 -21 -27 -60 -2 -8 -9 -16 -14 -18 -6 -2 -11 -10 -11 -18 0
-8 -7 -14 -16 -14 -8 0 -12 -4 -9 -10 3 -5 1 -10 -6 -10 -7 0 -9 -3 -6 -7 4
-3 2 -12 -4 -20 -9 -9 -8 -13 0 -13 6 0 11 -5 11 -11 0 -8 -5 -7 -15 1 -13 11
-18 10 -30 -6 -8 -10 -13 -24 -11 -30 2 -6 0 -17 -5 -25 -7 -11 -9 -10 -9 6
-1 18 -1 19 -11 3 -5 -10 -17 -18 -24 -18 -8 0 -15 -6 -15 -13 0 -7 -13 -23
-30 -35 -19 -14 -27 -28 -23 -37 4 -13 0 -15 -21 -11 -14 3 -26 1 -26 -4 0 -5
-14 -17 -30 -27 -17 -10 -28 -23 -26 -29 3 -8 -4 -11 -19 -9 -32 3 -95 34 -95
45 0 6 -6 10 -13 10 -25 0 -50 38 -50 77 -2 56 21 95 74 131 37 24 47 36 44
53 -4 17 -2 19 10 9 12 -10 15 -10 15 2 0 14 53 78 65 78 13 0 36 30 30 40 -6
9 8 14 28 11 4 -1 10 7 14 16 4 10 13 22 20 26 7 5 11 12 8 17 -3 5 -1 11 5
15 5 3 10 15 10 26 0 11 11 31 24 44 14 13 27 34 31 45 6 19 38 25 112 23 7
-1 11 3 8 7 -3 4 17 6 45 5 27 -2 52 0 55 6 12 19 25 8 21 -18z m207 -506 c18
8 60 10 102 4 12 -1 13 -51 1 -51 -5 0 -4 -6 3 -13 8 -10 7 -17 -1 -25 -9 -9
-9 -12 1 -12 9 0 8 -5 -3 -16 -19 -18 -20 -28 -5 -56 8 -15 8 -19 0 -14 -7 5
-11 -2 -11 -16 0 -13 -4 -30 -10 -38 -6 -9 -5 -20 3 -29 9 -12 9 -13 0 -7 -12
6 -18 -11 -14 -36 0 -5 -6 -8 -15 -8 -12 0 -15 -7 -12 -24 4 -17 -3 -28 -24
-42 -15 -10 -28 -24 -28 -29 0 -12 -36 -45 -49 -45 -5 0 -12 -7 -15 -16 -3 -8
-10 -13 -15 -9 -5 3 -17 -5 -26 -17 -11 -17 -18 -20 -23 -10 -6 9 -12 5 -22
-13 -10 -18 -16 -22 -22 -13 -5 9 -8 8 -8 -5 0 -11 -5 -15 -11 -11 -6 3 -15 0
-20 -7 -8 -11 -14 -8 -32 14 -13 15 -32 27 -42 27 -18 1 -18 2 -4 13 17 13 16
14 -24 59 -22 24 -34 78 -18 78 5 0 8 15 6 34 -2 25 0 33 9 30 8 -3 24 17 42
53 16 31 37 66 48 78 10 11 24 34 31 50 7 17 25 40 40 53 14 12 23 28 19 34
-4 7 -3 8 4 4 7 -4 12 -1 12 9 0 9 5 13 10 10 6 -3 10 -1 10 5 0 8 6 8 20 0
16 -9 20 -8 20 4 0 13 4 14 25 4 17 -8 32 -8 48 -1z"/>
</g>
</svg>
