<?xml version="1.0" encoding="utf-8"?>
<!-- Generator: Adobe Illustrator 24.2.3, SVG Export Plug-In . SVG Version: 6.00 Build 0)  -->
<svg version="1.1" id="Layer_1" xmlns="http://www.w3.org/2000/svg" xmlns:xlink="http://www.w3.org/1999/xlink" x="0px" y="0px"
	 viewBox="0 0 208.9 208.9" style="enable-background:new 0 0 208.9 208.9;" xml:space="preserve">
<style type="text/css">
	.st0{fill:#FFFFFF;}
	.st1{fill:#040404;}
</style>
<path class="st0" d="M48.9,0H160c27,0,48.9,21.9,48.9,48.9V160c0,27-21.9,48.9-48.9,48.9H48.9C21.9,208.9,0,187,0,160V48.9
	C0,21.9,21.9,0,48.9,0z"/>
<path class="st1" d="M81.9,150.1l58.7-33.9c6.5-3.8,8.8-12.1,5-18.7c-1.2-2.1-2.9-3.8-5-5L81.9,58.7c-6.5-3.8-14.9-1.5-18.7,5
	c-1.2,2.1-1.8,4.4-1.8,6.8v67.8c0,7.5,6.1,13.7,13.7,13.6C77.5,152,79.8,151.3,81.9,150.1z"/>
</svg>
