<svg id="Layer_1" data-name="Layer 1" xmlns="http://www.w3.org/2000/svg" viewBox="0 0 64 64">
  <path d="M64,11.25V52.8A11.23,11.23,0,0,1,52.77,64H46.51a9.85,9.85,0,0,1-3.82-.78,5.38,5.38,0,0,1-.55-.24,9.85,9.85,0,0,1-1.9-1.24c-2.42-1.92-5.82-6-6.27-14.07a6.54,6.54,0,0,1,6.75-6.87H45a8.43,8.43,0,0,0,8.69-8c.06-4.47-3.79-8.17-8.55-8.24a8.7,8.7,0,0,0-1.14.05A11.77,11.77,0,0,1,42.2,30a9.41,9.41,0,0,0,.42-5.28c0-.14-.06-.27-.1-.41v0c-.05-.16-.09-.35-.13-.48s-.09-.27-.13-.4l-.2-.5c-.06-.13-.09-.23-.17-.39s-.18-.36-.25-.48-.13-.24-.2-.35-.2-.32-.3-.48-.14-.21-.22-.31-.28-.35-.42-.53-.11-.14-.18-.22-.42-.45-.65-.68l-.21-.17-.52-.45-.31-.22-.49-.34L37.8,18a5.24,5.24,0,0,0-.51-.3l-.37-.18a4.9,4.9,0,0,0-.52-.24c-.14-.05-.26-.11-.4-.15a5.31,5.31,0,0,0-.56-.2l-.4-.12c-.2-.06-.4-.1-.6-.14l-.4-.09-.69-.1c-.11,0-.22,0-.34,0a9.12,9.12,0,0,0-1-.05c-.35,0-.69,0-1,0l-.3,0-.68.1-.36.07q-.32.06-.63.15l-.33.09c-.26.07-.51.17-.75.25l-.31.13-.66.3-.38.21-.42.24-.4.26c-.12.08-.24.15-.35.24s-.28.2-.41.31l-.23.18c-.32.28-.62.58-.93.88l-.06.08c-.15.16-.29.32-.43.5l-.13.16c-.13.18-.27.36-.38.54l-.1.15a9.8,9.8,0,0,0-1,2.05,13.66,13.66,0,0,1,5,5.66,8.64,8.64,0,0,0-6-4.33h-.06c-.23,0-.46-.08-.7-.1l-.2,0a7,7,0,0,0-.79,0,2.94,2.94,0,0,0-.41,0,4.1,4.1,0,0,1-.48,0,2.51,2.51,0,0,1-.27,0l-.6.09-.33.07-.5.13-.3.11a3,3,0,0,0-.5.17l-.32.14-.44.19-.33.2a4.27,4.27,0,0,0-.38.22c-.11.06-.19.14-.31.22s-.25.16-.35.24l-.29.25c-.11.1-.24.19-.33.28l-.27.28q-.17.15-.3.3c-.09.1-.15.19-.24.3s-.19.23-.26.33l-.21.33c-.07.11-.16.23-.23.35s-.1.22-.17.34l-.19.37a3.84,3.84,0,0,0-.14.36c-.05.13-.11.26-.15.39s-.06.24-.1.38a2.62,2.62,0,0,0-.11.4c0,.13,0,.26-.07.4s0,.28-.07.41,0,.27,0,.41a2.75,2.75,0,0,0,0,.41v0c0,.1,0,.22,0,.33s0,.33,0,.49a.9.9,0,0,1,0,.16A8.44,8.44,0,0,0,19,40.78h4.29A6.53,6.53,0,0,1,30,47.65c-.45,8.05-3.84,12.15-6.27,14.07A9.13,9.13,0,0,1,21.83,63a3.87,3.87,0,0,1-.55.25,9.93,9.93,0,0,1-3.81.76H11.21A11.22,11.22,0,0,1,0,52.75V11.2A11.22,11.22,0,0,1,11.21,0h41.6A11.23,11.23,0,0,1,64,11.25Z"/>
</svg>
