<?xml version="1.0" standalone="no"?>
<!DOCTYPE svg PUBLIC "-//W3C//DTD SVG 20010904//EN"
 "http://www.w3.org/TR/2001/REC-SVG-20010904/DTD/svg10.dtd">
<svg version="1.0" xmlns="http://www.w3.org/2000/svg"
 width="800.000000pt" height="1050.000000pt" viewBox="0 0 800.000000 1050.000000"
 preserveAspectRatio="xMidYMid meet">
<metadata>
Created by potrace 1.16, written by Peter Selinger 2001-2019
</metadata>
<g transform="translate(0.000000,1050.000000) scale(0.100000,-0.100000)"
fill="#000000" stroke="none">
<path d="M4946 8525 c-16 -17 -30 -20 -21 -5 3 6 -1 7 -9 4 -20 -8 -20 -18 -1
-34 9 -8 20 -9 28 -4 7 5 5 1 -6 -8 -21 -19 -47 -14 -47 11 -1 14 -3 13 -15
-3 -11 -14 -12 -23 -4 -33 9 -10 7 -13 -11 -13 -13 0 -29 8 -37 18 -7 9 -13
13 -12 7 3 -26 -2 -46 -11 -40 -5 3 -10 1 -10 -4 0 -6 4 -11 10 -11 5 0 7 -7
4 -15 -4 -8 -10 -12 -15 -10 -5 3 -11 -5 -15 -19 -4 -16 -11 -23 -20 -19 -15
6 -20 -12 -5 -21 4 -3 6 -17 3 -31 -4 -21 -7 -23 -20 -13 -13 11 -14 9 -8 -12
5 -17 4 -21 -2 -11 -16 22 -29 5 -27 -36 1 -21 -2 -43 -7 -50 -9 -11 23 -37
47 -38 13 0 13 -28 0 -37 -16 -12 -28 -9 -22 5 3 8 1 20 -4 28 -7 11 -9 10 -9
-4 0 -10 -4 -15 -10 -12 -15 9 -12 -2 7 -32 17 -26 17 -27 0 -20 -13 5 -17 1
-17 -16 0 -18 2 -19 10 -7 9 14 15 6 10 -15 -13 -62 -18 -155 -8 -155 18 0 6
-19 -14 -23 l-23 -4 23 -2 c21 -1 33 -21 12 -21 -6 0 -9 -5 -8 -11 4 -14 -33
-23 -94 -23 -26 0 -45 -3 -42 -8 3 -4 -2 -5 -10 -2 -9 3 -13 11 -9 18 3 6 -3
3 -14 -7 -12 -11 -24 -14 -27 -9 -3 6 0 12 6 15 9 3 7 7 -6 12 -11 5 -26 3
-37 -3 -11 -7 -20 -8 -24 -2 -10 17 -25 11 -25 -10 0 -21 -15 -27 -25 -10 -3
6 -15 10 -26 10 -10 0 -19 5 -19 11 0 8 -4 8 -12 2 -14 -11 -112 -9 -143 3
-18 7 -18 6 -6 -9 12 -15 11 -17 -2 -17 -9 0 -19 5 -23 11 -4 8 -11 4 -19 -11
l-13 -23 -7 22 c-5 16 -12 20 -27 15 -36 -11 -53 -12 -65 -1 -9 6 -13 5 -13
-4 0 -11 -2 -11 -10 1 -6 10 -10 11 -10 3 0 -9 -7 -10 -26 -3 -33 13 -47 13
-38 -1 5 -8 2 -9 -12 -1 -14 8 -23 7 -36 -5 -18 -16 -76 -24 -84 -12 -6 11
-36 0 -51 -19 -8 -10 -13 -11 -13 -4 0 17 -47 15 -53 -2 -4 -11 -1 -13 11 -9
14 6 15 5 2 -9 -18 -20 -30 -14 -30 15 0 16 -3 18 -12 9 -9 -9 -16 -8 -29 4
-23 21 -51 12 -42 -13 5 -15 3 -15 -10 2 -12 16 -18 17 -28 8 -9 -9 -18 -9
-31 -2 -12 7 -24 7 -31 1 -7 -5 -21 -6 -32 -2 -11 4 -33 3 -50 -1 -39 -12 -48
-11 -40 1 3 6 2 10 -3 10 -6 0 -12 -7 -16 -15 -3 -8 -14 -15 -25 -15 -11 0
-23 -5 -26 -10 -5 -8 -11 -8 -20 0 -7 6 -20 7 -30 4 -10 -4 -21 -1 -26 7 -5 8
-9 9 -9 2 0 -8 -6 -8 -24 0 -18 9 -26 22 -30 52 -9 58 -7 86 4 100 5 6 7 15 4
18 -13 13 -12 92 1 102 16 12 23 55 11 73 -4 7 -5 19 -3 26 3 8 -3 16 -15 19
-11 3 -17 10 -13 16 9 15 21 14 41 -6 16 -16 16 -16 9 7 -5 14 -8 33 -7 44 0
10 -7 20 -18 23 -11 3 -16 11 -13 19 3 8 0 21 -6 28 -9 10 -9 16 -1 21 6 4 9
13 6 21 -3 8 0 11 10 7 8 -3 14 1 14 10 0 8 -8 14 -17 13 -10 0 -17 5 -15 12
2 14 -14 16 -23 2 -3 -5 -2 -10 3 -10 5 0 9 -7 9 -14 0 -12 -5 -13 -21 -4 -12
6 -22 11 -23 10 -2 -1 -3 0 -3 3 0 3 0 10 0 17 0 6 7 3 15 -8 8 -10 15 -14 14
-9 -3 26 2 46 11 40 23 -14 8 3 -21 24 -18 13 -29 19 -25 13 7 -11 -21 -25
-34 -17 -5 3 -7 12 -4 19 3 8 0 17 -7 22 -7 4 -10 3 -5 -4 3 -6 2 -13 -4 -17
-5 -3 -10 0 -10 7 0 9 -3 9 -10 -2 -8 -12 -10 -9 -8 10 3 24 0 25 -44 25 -27
-1 -48 3 -48 7 0 4 -7 8 -15 8 -9 0 -12 -6 -9 -17 4 -11 3 -14 -3 -7 -14 19
-60 26 -67 9 -3 -8 -12 -12 -21 -9 -8 4 -15 1 -15 -6 0 -18 -42 -48 -62 -45
-11 2 -15 -1 -12 -10 3 -7 14 -11 27 -8 12 3 3 -5 -20 -17 -24 -12 -41 -26
-38 -30 3 -4 -1 -10 -9 -13 -7 -3 -16 -27 -20 -53 -3 -26 -11 -53 -17 -60 -6
-8 -9 -14 -5 -14 3 0 0 -16 -8 -35 -11 -24 -12 -37 -4 -41 7 -5 8 -2 3 6 -5 8
-4 11 2 7 8 -5 10 -39 3 -57 -1 -3 -2 -9 -1 -13 1 -4 -5 -10 -13 -13 -11 -4
-12 -13 -5 -37 5 -17 7 -39 4 -48 -3 -9 -1 -27 4 -40 6 -17 5 -28 -5 -37 -17
-16 -7 -42 14 -35 13 4 14 3 4 -5 -8 -5 -13 -15 -12 -23 4 -27 0 -40 -10 -34
-5 3 -10 1 -10 -4 0 -6 7 -11 15 -11 9 0 12 -6 9 -15 -4 -8 -12 -15 -20 -15
-8 0 -14 -4 -14 -10 0 -5 -17 -7 -37 -4 -74 10 -283 9 -283 -1 0 -5 -4 -4 -9
4 -6 8 -16 11 -31 6 -15 -5 -20 -4 -16 4 4 7 -1 11 -13 11 -13 0 -21 -7 -21
-17 0 -12 -3 -14 -8 -6 -5 8 -21 9 -52 3 -29 -5 -50 -4 -58 2 -9 8 -19 8 -35
0 -12 -6 -29 -10 -37 -10 -8 0 -31 -3 -50 -7 -19 -4 -43 -8 -52 -9 -10 0 -18
-4 -18 -9 0 -5 -7 -7 -15 -3 -8 3 -21 -1 -29 -9 -11 -11 -15 -12 -19 -2 -3 9
-7 9 -20 -1 -9 -8 -25 -11 -37 -7 -12 4 -20 2 -20 -6 0 -8 -4 -8 -13 -1 -14
12 -60 5 -52 -7 2 -4 -16 -5 -40 -1 -24 4 -50 3 -56 -1 -7 -4 -23 -5 -36 -3
-12 2 -23 0 -23 -4 0 -5 -11 -8 -25 -7 -14 2 -25 0 -25 -4 0 -9 -37 -7 -46 2
-12 12 -24 8 -24 -8 0 -11 -7 -14 -23 -10 -15 4 -32 -1 -50 -16 -21 -16 -36
-20 -59 -15 -27 5 -30 4 -25 -14 3 -11 1 -17 -4 -14 -13 7 -80 -58 -75 -72 3
-7 -9 -14 -25 -18 -20 -4 -28 -10 -24 -18 4 -7 0 -5 -8 5 -18 21 -28 22 -20 1
3 -9 -3 -23 -16 -35 -21 -20 -31 -13 -10 8 8 8 7 13 -2 18 -8 5 -10 4 -5 -3 4
-7 2 -12 -4 -12 -8 0 -10 -9 -6 -25 5 -18 1 -28 -13 -37 -15 -9 -17 -15 -9
-26 8 -9 8 -16 -2 -25 -10 -10 -12 -8 -6 8 5 16 1 14 -19 -8 -15 -15 -31 -24
-38 -21 -7 4 -9 3 -4 -1 4 -5 0 -16 -8 -25 -8 -9 -16 -35 -17 -58 -1 -23 -5
-42 -8 -42 -4 0 -10 -9 -13 -21 -3 -12 -10 -18 -15 -15 -15 9 -23 -21 -12 -48
7 -18 5 -28 -6 -37 -8 -7 -14 -22 -12 -33 2 -12 -2 -25 -9 -31 -17 -14 -28
-215 -11 -215 9 0 9 -3 0 -12 -10 -10 -15 -10 -22 2 -8 12 -10 9 -10 -11 0
-14 -6 -31 -13 -38 -7 -9 -7 -11 -1 -8 17 10 23 -12 19 -69 -2 -27 0 -53 3
-59 7 -11 5 -111 -3 -137 -3 -9 -1 -19 5 -23 5 -3 10 -14 9 -23 0 -14 -2 -13
-9 3 -9 20 -11 9 -15 -75 -1 -14 -5 -31 -9 -38 -4 -6 -5 -30 -2 -52 3 -24 1
-38 -5 -35 -5 4 -9 0 -10 -7 0 -7 -2 -22 -4 -33 -2 -11 0 -22 6 -25 6 -4 6
-25 0 -56 -5 -28 -6 -50 -1 -52 5 -2 5 -13 1 -25 -5 -12 -8 -34 -7 -49 1 -16
-1 -28 -5 -28 -4 0 -10 -7 -13 -16 -5 -13 -2 -15 14 -11 16 4 19 2 11 -7 -15
-18 -11 -96 5 -96 10 0 10 -7 -2 -36 -8 -20 -10 -33 -5 -29 6 3 11 2 11 -4 0
-5 -6 -12 -12 -14 -10 -4 -9 -8 2 -16 11 -7 12 -13 4 -21 -13 -13 -6 -63 7
-54 5 3 6 -2 3 -11 -4 -10 -13 -14 -23 -11 -14 5 -14 5 0 -6 18 -15 19 -120 2
-153 -9 -17 -10 -90 -2 -120 1 -5 -1 -18 -6 -28 -4 -9 -3 -23 3 -30 12 -15 5
-58 -12 -69 -7 -5 -6 -8 3 -8 11 0 11 -3 1 -15 -9 -10 -9 -15 -1 -15 13 0 15
-46 2 -55 -6 -3 -6 -18 -1 -35 6 -20 5 -28 -2 -24 -6 4 -8 -1 -6 -12 2 -11 10
-18 16 -17 19 4 14 -15 -5 -20 -15 -4 -15 -6 4 -12 13 -4 20 -11 17 -16 -3 -5
-9 -7 -13 -5 -9 6 -11 -11 -15 -136 -2 -60 -6 -114 -9 -120 -2 -7 1 -19 8 -25
10 -9 14 -9 19 2 3 8 11 15 18 15 7 0 0 -12 -15 -25 -24 -22 -27 -29 -21 -61
5 -30 4 -35 -7 -30 -8 4 -6 1 4 -7 18 -15 23 -37 7 -37 -10 0 -8 -50 3 -67 4
-6 0 -29 -8 -52 -8 -23 -12 -48 -8 -56 3 -9 0 -22 -6 -29 -10 -11 -8 -16 10
-21 15 -5 18 -9 9 -15 -8 -5 -11 -20 -8 -41 3 -19 2 -44 -3 -57 -6 -16 -5 -24
5 -28 11 -4 11 -18 0 -77 -6 -40 -10 -75 -8 -79 2 -3 -2 -9 -8 -11 -8 -3 -6
-6 4 -6 11 -1 15 -6 12 -16 -3 -8 1 -22 10 -31 18 -17 13 -34 -10 -34 -11 0
-15 -9 -13 -33 2 -18 0 -37 -4 -43 -3 -6 -3 -14 1 -18 10 -11 9 -96 -2 -96 -5
0 -6 -3 -3 -7 4 -3 2 -12 -4 -20 -9 -10 -8 -13 3 -13 10 0 14 -13 14 -52 -1
-28 4 -57 11 -63 8 -9 9 -15 1 -23 -13 -13 -17 -102 -4 -102 5 0 4 -6 -2 -13
-12 -14 -10 -216 2 -235 3 -6 2 -12 -4 -14 -5 -1 -11 -24 -13 -50 -2 -26 1
-44 5 -42 5 3 8 -10 6 -28 -1 -19 2 -40 6 -47 5 -8 3 -16 -5 -21 -10 -7 -10
-12 2 -26 8 -10 9 -15 3 -12 -11 7 -10 -69 1 -130 5 -27 3 -32 -7 -26 -10 6
-10 4 1 -9 8 -10 11 -27 7 -42 -4 -14 -2 -25 4 -25 5 0 10 -5 10 -11 0 -5 -5
-7 -11 -3 -8 5 -8 1 0 -14 6 -12 7 -23 2 -26 -5 -3 -8 -17 -8 -31 0 -13 3 -22
8 -20 4 3 10 1 14 -5 3 -5 2 -10 -4 -10 -5 0 -8 -10 -6 -23 12 -60 17 -77 25
-77 5 0 7 -7 4 -15 -4 -8 -11 -12 -17 -8 -7 4 -8 -2 -3 -18 4 -13 7 -30 6 -36
0 -7 0 -23 0 -35 0 -13 -1 -45 -1 -71 0 -35 3 -47 12 -41 9 5 10 -3 5 -30 -5
-25 -3 -43 6 -54 10 -12 10 -14 1 -8 -14 8 -18 -6 -6 -18 4 -4 8 -17 8 -29 1
-12 12 -44 24 -71 17 -36 20 -50 11 -56 -9 -5 -6 -12 9 -22 14 -10 19 -21 15
-32 -4 -11 2 -26 15 -40 12 -12 18 -26 14 -29 -6 -7 6 -10 42 -9 17 1 17 0 2
-4 -28 -9 -15 -42 23 -57 13 -5 13 -6 0 -6 -15 -1 20 -37 67 -68 13 -8 21 -19
18 -23 -3 -5 4 -11 15 -15 11 -4 32 -18 46 -32 14 -14 31 -22 39 -19 8 3 15 1
15 -5 0 -6 5 -7 11 -4 5 4 19 -1 30 -11 10 -9 19 -12 19 -6 0 5 8 9 17 7 10
-2 23 -4 28 -4 6 -1 3 -6 -5 -11 -11 -7 -7 -10 18 -10 17 0 32 -4 32 -8 0 -27
208 -52 238 -29 10 8 16 7 22 -4 10 -16 60 -23 60 -8 0 6 7 6 19 -1 14 -7 21
-6 25 3 3 9 9 7 19 -6 15 -19 32 -24 21 -6 -3 6 8 3 25 -5 20 -11 31 -13 31
-5 0 7 13 10 34 7 19 -2 33 -1 31 2 -2 3 3 13 10 23 8 12 15 14 20 8 3 -6 1
-11 -4 -11 -6 0 -11 -7 -11 -16 0 -11 6 -14 23 -8 12 4 28 7 35 7 6 0 12 5 12
11 0 6 4 6 12 -2 8 -8 8 -15 -2 -27 -14 -17 -7 -19 19 -6 10 6 23 6 31 1 8 -5
22 -4 32 1 10 6 24 6 31 2 22 -14 36 -12 29 5 -5 14 -3 15 9 6 8 -6 34 -12 59
-13 184 -7 224 -7 270 -1 28 4 53 3 56 -1 6 -10 186 -5 203 5 26 17 80 24 85
12 3 -6 4 -2 1 10 -4 17 0 20 25 20 16 0 30 -4 30 -8 0 -5 5 -6 10 -3 6 3 10
15 10 27 0 17 3 18 15 8 8 -7 13 -16 10 -20 -3 -5 9 -2 25 7 31 15 45 12 45
-10 0 -5 7 -12 15 -14 13 -4 13 -3 1 5 -11 8 -6 14 24 26 20 9 44 16 51 16 8
0 14 4 14 9 0 5 12 8 26 6 15 -1 28 3 31 11 3 8 13 14 23 14 11 0 22 5 25 11
4 6 14 8 22 5 16 -6 53 10 65 28 5 8 8 7 8 -2 0 -15 21 -12 35 6 6 7 24 15 40
18 17 2 38 7 49 10 10 4 22 0 27 -7 7 -11 10 -9 15 8 4 13 24 30 50 43 25 11
42 25 39 29 -7 12 22 41 41 41 8 0 14 7 14 15 0 8 5 15 10 15 6 0 10 7 10 16
0 8 4 13 9 10 7 -5 22 15 25 34 2 11 46 53 46 44 1 -5 10 8 21 29 11 21 24 35
29 32 5 -3 7 4 5 15 -2 11 3 24 12 28 8 5 17 27 19 52 2 24 8 48 13 54 5 6 7
19 6 28 -2 10 5 34 16 54 14 28 16 41 8 51 -9 9 -8 13 0 13 7 0 9 4 6 10 -8
13 16 91 26 85 4 -3 10 -1 13 4 3 5 -1 11 -9 15 -13 5 -12 10 5 40 10 20 15
38 11 41 -11 6 -3 43 15 69 9 14 10 23 3 32 -6 7 -6 15 -1 18 13 8 2 56 -12
56 -6 0 -2 7 8 15 19 15 19 15 -2 15 -24 0 -28 19 -12 51 6 11 7 19 3 18 -20
-3 -27 2 -13 11 11 7 11 10 2 10 -7 0 -11 4 -7 9 3 5 -1 15 -8 23 -7 7 -12 28
-11 45 1 18 -3 33 -8 33 -5 0 -7 -4 -4 -9 4 -5 -3 -7 -14 -4 -23 6 -17 23 8
23 15 1 14 3 -3 16 -12 9 -19 26 -19 45 1 19 -3 29 -11 26 -6 -3 -17 4 -23 14
-8 13 -20 18 -36 15 -19 -3 -23 -1 -19 13 3 11 -2 21 -11 24 -9 4 -16 1 -16
-6 0 -8 -4 -6 -10 3 -5 8 -10 11 -10 7 0 -5 -7 -2 -15 6 -8 9 -23 13 -34 10
-12 -3 -25 5 -39 25 -21 29 -24 29 -110 30 -49 0 -95 -4 -102 -8 -9 -5 -18 -3
-24 6 -12 15 -60 8 -50 -7 3 -5 11 -6 17 -3 7 4 9 4 5 -1 -10 -11 -311 -14
-325 -2 -7 5 -21 6 -30 2 -10 -3 -20 -7 -23 -7 -3 0 -15 -4 -27 -9 -14 -5 -25
-4 -29 2 -4 6 -11 6 -20 -2 -22 -18 -134 -7 -146 14 -5 10 -13 15 -18 12 -5
-3 -11 -1 -15 5 -4 6 -12 7 -18 3 -16 -10 -69 -4 -85 9 -8 7 -12 7 -12 -1 0
-8 -6 -7 -16 3 -8 9 -20 16 -25 16 -5 0 -9 4 -9 10 0 13 -57 70 -70 70 -5 0
-10 6 -10 13 0 6 -13 18 -30 25 -16 8 -30 18 -30 23 0 6 -9 19 -20 31 -10 11
-22 34 -25 49 -4 16 -10 27 -14 24 -9 -5 -57 46 -53 58 1 4 -3 7 -9 7 -6 0 -9
9 -6 20 3 11 1 20 -4 20 -5 0 -9 13 -9 29 0 16 -7 36 -15 45 -20 20 -19 25 11
36 31 12 21 34 -11 26 -21 -5 -23 -3 -21 21 2 16 0 38 -5 49 -13 35 -18 131
-7 142 6 6 6 12 -1 16 -16 10 -13 36 4 36 8 0 15 5 15 11 0 5 5 7 10 4 7 -4
10 8 9 34 -2 23 -7 41 -12 41 -4 0 -5 4 -2 10 3 6 -1 10 -9 10 -21 0 -20 13 3
34 16 14 18 23 10 43 -5 13 -6 30 -2 36 4 7 6 20 4 31 -1 10 2 15 7 12 6 -3
12 1 16 9 3 8 0 15 -7 15 -7 1 -5 6 6 14 9 7 17 18 17 25 0 6 5 11 11 11 5 0
9 8 7 18 -2 11 4 27 12 37 12 15 12 19 2 23 -15 5 -19 -1 67 91 28 29 48 57
46 62 -3 4 -1 10 5 14 5 3 10 -1 10 -10 0 -9 5 -13 10 -10 6 4 9 14 8 23 -2
11 3 17 14 16 10 -1 17 1 16 5 -2 19 3 31 12 26 6 -3 10 -1 10 5 0 6 5 8 12 4
7 -5 9 -2 6 8 -4 10 6 20 33 32 21 10 39 21 39 26 0 4 18 6 40 4 24 -2 40 0
40 7 0 5 -5 7 -11 3 -7 -4 -7 1 1 16 7 14 17 19 27 16 9 -4 26 1 39 9 18 12
24 12 24 3 0 -8 3 -9 8 -3 10 15 83 36 96 28 7 -4 7 -1 -1 8 -9 12 -3 14 40
17 29 1 75 4 102 7 28 2 70 4 95 5 25 0 56 0 70 0 14 0 34 2 45 3 30 6 75 -12
117 -44 20 -16 42 -29 48 -29 7 0 34 -23 61 -50 27 -28 51 -50 54 -50 17 0 45
-39 45 -63 0 -15 7 -30 15 -33 8 -4 12 -11 8 -17 -3 -6 -1 -7 5 -3 7 4 12 2
12 -4 0 -6 7 -19 16 -27 13 -14 17 -14 25 -2 7 12 9 12 9 -1 1 -13 2 -13 13 1
7 9 18 14 25 12 6 -3 13 0 13 6 1 6 2 17 4 24 1 6 -5 23 -13 36 -11 19 -11 22
-1 16 9 -6 9 -2 -2 11 -9 10 -21 34 -29 52 -7 17 -16 32 -20 32 -5 0 -13 12
-18 28 -6 15 -22 39 -36 53 -13 15 -22 30 -19 33 4 3 2 6 -4 6 -6 0 -14 11
-17 25 -4 14 -11 23 -16 20 -6 -4 -7 -11 -4 -17 4 -7 2 -8 -5 -4 -6 4 -11 13
-10 19 3 26 -2 37 -16 37 -8 0 -15 7 -15 16 0 11 -5 14 -17 10 -10 -4 -14 -4
-11 0 11 10 -50 56 -63 48 -8 -5 -10 -2 -7 7 4 11 -2 16 -22 17 -16 1 -42 14
-59 29 l-30 27 27 50 c14 28 39 67 54 86 16 19 28 43 28 52 0 10 7 18 15 18 8
0 12 6 10 13 -5 13 38 67 53 67 5 0 16 7 23 17 13 15 12 15 -11 3 l-25 -13 19
22 c11 11 25 21 33 21 7 0 13 9 13 21 0 11 5 17 10 14 6 -3 10 -1 10 6 0 7 3
9 6 6 4 -4 29 12 55 34 27 22 53 38 59 34 6 -4 10 -3 9 2 -4 20 2 34 14 32 18
-2 57 12 57 21 0 4 16 7 35 5 25 -3 35 1 35 11 0 8 5 14 12 14 6 0 20 7 30 17
11 9 18 11 18 5 0 -16 16 -15 32 1 18 19 64 31 123 33 46 2 150 12 150 14 0 0
23 3 50 6 43 5 150 8 150 4 0 -1 74 -8 163 -15 68 -5 86 -11 77 -26 -4 -5 -1
-9 4 -9 6 0 11 6 11 13 0 9 2 9 9 -1 4 -8 11 -13 15 -13 35 5 40 0 17 -20 -13
-11 -21 -23 -17 -26 4 -4 11 -2 15 6 9 14 77 6 87 -10 3 -5 14 -9 25 -9 10 0
19 -5 19 -11 0 -5 5 -7 10 -4 19 12 49 -5 43 -23 -3 -9 -3 -14 2 -10 4 4 14 0
22 -10 9 -10 11 -11 7 -2 -4 8 7 1 25 -17 18 -17 30 -36 27 -42 -4 -7 -1 -9 8
-5 8 3 17 -2 20 -13 4 -10 22 -29 41 -43 19 -14 33 -30 31 -36 -3 -7 3 -10 12
-7 10 2 28 -1 42 -7 24 -10 24 -10 -7 -7 -37 4 -35 -8 3 -17 30 -8 56 -30 47
-40 -4 -3 1 -6 11 -6 9 0 14 -4 11 -10 -3 -5 -1 -10 5 -10 7 0 9 -7 6 -16 -3
-8 -2 -12 4 -9 6 3 10 -1 10 -11 0 -9 8 -23 18 -31 9 -8 11 -11 3 -7 -9 5 -12
3 -7 -4 4 -7 13 -12 20 -12 22 0 63 -40 49 -46 -7 -3 -13 -13 -13 -21 0 -12 5
-10 20 7 12 13 20 18 20 10 0 -7 7 -21 16 -31 10 -11 16 -36 17 -64 0 -25 4
-45 9 -45 5 0 4 -9 -2 -20 -6 -11 -8 -24 -6 -29 3 -5 -1 -21 -8 -37 -8 -15
-18 -44 -21 -66 -4 -23 -11 -36 -17 -31 -6 3 -8 1 -4 -5 3 -6 2 -13 -4 -17 -6
-4 -8 -11 -5 -16 4 -5 -1 -16 -9 -25 -9 -8 -16 -22 -16 -31 0 -8 -11 -28 -25
-45 -14 -16 -25 -36 -25 -44 0 -9 -4 -13 -9 -9 -12 7 -41 -33 -41 -56 0 -9 -8
-19 -19 -22 -13 -3 -20 -16 -23 -40 -2 -20 0 -33 4 -31 4 3 8 -1 8 -9 0 -19
27 -30 34 -14 3 9 7 8 14 -2 7 -9 12 -10 16 -2 4 6 10 9 14 7 11 -6 43 20 46
38 1 8 18 32 37 53 20 21 33 45 31 52 -3 8 0 11 6 7 16 -10 42 37 31 57 -8 13
-6 15 6 11 11 -5 14 -2 9 10 -4 11 -1 16 10 16 9 0 16 8 16 18 0 10 9 35 20
57 11 22 20 56 20 77 0 27 4 38 15 38 9 0 15 9 15 23 0 13 6 32 14 43 13 17
18 17 36 6 12 -8 19 -9 15 -3 -3 7 3 11 16 11 19 0 20 -2 8 -17 -13 -15 -10
-16 30 -10 25 3 39 2 32 -2 -10 -6 -9 -10 4 -15 24 -9 25 -8 26 12 0 14 3 13
16 -5 8 -13 21 -23 28 -23 7 0 16 -7 19 -16 3 -8 10 -13 15 -9 5 3 21 -6 35
-20 14 -14 30 -25 36 -25 6 0 9 -4 6 -9 -3 -5 1 -12 10 -15 9 -3 12 -2 9 5 -7
11 47 1 55 -11 3 -4 13 -6 22 -5 18 3 20 -14 3 -28 -6 -5 -2 -6 9 -3 10 4 26
1 34 -6 13 -11 15 -11 8 2 -4 8 4 2 19 -14 19 -21 23 -31 14 -36 -7 -5 1 -11
21 -15 23 -5 29 -10 19 -15 -10 -7 -6 -12 14 -21 15 -7 27 -16 27 -21 0 -5 5
-6 12 -2 7 4 8 3 4 -5 -4 -6 -1 -14 8 -17 9 -3 13 -15 11 -32 -2 -15 -2 -21 1
-14 8 18 23 15 20 -5 -3 -18 47 -98 73 -119 8 -6 11 -18 8 -28 -4 -9 -3 -15 2
-12 5 3 11 -1 14 -8 3 -8 1 -17 -6 -20 -9 -3 -9 -5 0 -5 7 -1 10 -8 6 -18 -5
-12 -2 -15 10 -10 18 7 20 2 8 -28 -5 -11 -5 -32 0 -47 5 -18 4 -28 -3 -28 -7
0 -7 -4 -1 -12 6 -7 9 -24 8 -38 -1 -14 2 -31 7 -37 7 -9 7 -13 1 -13 -7 0
-10 -45 -10 -114 1 -81 -3 -118 -12 -130 -8 -9 -9 -16 -3 -16 5 0 8 -9 5 -20
-3 -11 -10 -20 -17 -20 -8 0 -7 -3 1 -8 9 -6 9 -18 2 -47 -6 -22 -15 -68 -21
-103 -6 -37 -16 -66 -24 -69 -8 -3 -14 -13 -14 -23 0 -11 -4 -22 -10 -25 -5
-3 -10 -14 -10 -23 0 -20 -58 -88 -67 -79 -3 4 -11 -3 -18 -16 -6 -12 -18 -21
-27 -21 -10 1 -14 -5 -11 -17 4 -14 -3 -19 -32 -25 -26 -5 -33 -9 -23 -15 10
-7 9 -9 -5 -9 -11 0 -15 -4 -11 -11 5 -8 -1 -10 -20 -7 -14 3 -26 1 -26 -4 0
-6 -7 -7 -16 -4 -8 3 -12 2 -9 -4 3 -6 -2 -10 -13 -10 -10 0 -22 -3 -26 -7
-11 -11 -46 -10 -46 1 0 7 -3 7 -8 1 -7 -10 -14 -12 -56 -21 -11 -2 -22 -8
-26 -14 -8 -13 -92 -16 -110 -5 -9 5 -11 4 -6 -3 5 -8 0 -12 -13 -12 -10 0
-22 6 -24 13 -4 8 -6 8 -6 0 -1 -8 -19 -10 -63 -6 -68 6 -68 6 -148 2 -31 -2
-61 0 -68 5 -6 4 -17 4 -23 0 -6 -3 -15 0 -20 7 -6 9 -9 10 -9 2 0 -8 -13 -11
-37 -8 -21 2 -57 0 -80 -4 -28 -6 -40 -5 -36 2 4 6 -2 8 -15 5 -12 -3 -22 -3
-24 2 -2 4 -29 4 -60 0 -32 -3 -65 -2 -74 3 -11 7 -24 6 -36 -2 -10 -6 -23 -9
-28 -6 -10 6 -80 -57 -80 -72 0 -5 -18 -18 -39 -29 -22 -10 -37 -22 -35 -26 3
-5 1 -8 -3 -8 -13 0 -79 -64 -86 -84 -4 -10 -12 -14 -18 -10 -7 4 -9 3 -6 -3
3 -5 -5 -31 -18 -58 -14 -27 -25 -54 -25 -61 0 -7 -9 -29 -21 -48 -11 -19 -18
-40 -15 -45 4 -5 2 -12 -3 -15 -5 -4 -7 -22 -5 -42 3 -27 1 -34 -8 -28 -10 5
-10 4 -1 -6 7 -8 8 -22 3 -41 -5 -17 -5 -31 1 -35 5 -3 8 -18 7 -34 -1 -16 -5
-27 -8 -25 -4 2 -7 -9 -7 -25 0 -17 4 -30 8 -30 4 0 6 -9 4 -20 -2 -11 0 -20
5 -20 4 0 11 -7 14 -16 4 -12 2 -15 -9 -10 -12 4 -13 2 -6 -13 6 -10 17 -23
25 -31 9 -7 16 -21 16 -30 0 -10 5 -20 11 -22 6 -2 12 -19 14 -38 4 -47 4 -47
14 -32 6 10 10 7 13 -12 3 -14 1 -26 -3 -26 -12 0 -12 -33 0 -45 4 -6 16 -31
26 -57 10 -27 21 -48 26 -48 5 0 14 -10 21 -22 14 -24 38 -30 50 -13 5 6 8 6
8 -1 0 -6 -3 -14 -7 -18 -13 -13 -10 -56 4 -56 7 0 13 -4 13 -10 0 -5 11 -10
25 -10 14 0 28 -7 31 -15 3 -8 21 -17 40 -21 19 -3 34 -10 34 -16 0 -5 4 -7 8
-4 5 3 18 -4 30 -14 12 -11 26 -20 32 -20 9 0 33 -10 70 -32 8 -4 22 -11 30
-15 26 -12 59 -46 54 -55 -3 -4 7 -8 23 -8 31 0 55 -12 54 -26 0 -5 9 -9 22
-9 33 -1 87 -37 88 -60 1 -15 2 -16 6 -4 3 13 11 15 38 9 19 -4 36 -5 39 -2 4
3 6 -1 6 -9 1 -10 4 -9 11 4 7 11 17 16 29 12 33 -10 65 -17 82 -17 11 1 15
-5 11 -14 -4 -12 0 -13 21 -4 21 8 28 7 32 -5 6 -15 56 -32 113 -39 31 -3 57
14 43 30 -4 5 6 -2 21 -16 28 -24 33 -25 178 -25 116 0 150 3 154 14 4 11 9
11 28 -2 13 -8 30 -11 42 -7 11 3 36 6 55 5 147 -7 170 -5 197 16 16 12 17 12
6 -1 -10 -13 -1 -15 65 -14 43 1 82 3 87 4 6 1 13 2 18 1 4 0 7 3 7 8 0 5 9 7
20 4 11 -3 20 0 20 6 0 6 5 11 11 11 5 0 7 -5 4 -10 -4 -6 17 -1 47 10 29 11
78 23 108 26 87 8 93 10 101 30 4 10 8 13 8 7 1 -18 26 -16 41 2 7 8 30 18 52
21 27 5 37 11 34 20 -6 16 10 28 19 14 4 -6 11 -8 16 -4 5 3 7 10 3 15 -3 6 3
13 15 16 12 3 21 13 21 22 0 10 11 24 25 31 14 7 25 17 25 22 0 4 4 8 10 8 18
0 51 40 44 53 -4 7 -4 9 1 5 8 -8 35 15 35 31 0 6 9 26 20 46 11 20 20 41 20
47 0 6 10 20 23 31 15 13 18 21 10 24 -7 3 -13 9 -13 15 0 6 6 5 15 -2 13 -11
18 -10 30 6 8 10 12 25 10 31 -2 7 3 13 12 13 13 0 14 3 5 12 -17 17 -15 26 5
24 13 -1 19 9 24 39 7 39 22 88 42 132 6 13 10 36 10 53 0 16 4 27 9 24 4 -3
8 0 8 5 0 6 -6 11 -12 11 -9 0 -8 3 2 10 8 5 11 12 7 16 -4 4 1 13 11 21 9 8
11 12 5 8 -7 -3 -13 -2 -13 4 0 5 4 11 9 13 5 2 12 21 15 43 3 22 7 49 10 60
2 11 5 33 5 48 1 19 5 26 13 21 7 -4 8 -3 4 5 -4 6 -3 18 3 25 8 10 8 21 1 42
-6 15 -8 39 -5 52 4 17 2 22 -6 16 -14 -8 -4 11 19 38 11 13 13 34 9 85 -3 38
-8 76 -12 86 -4 9 -3 17 1 17 5 0 10 23 11 51 1 28 7 57 13 64 6 8 9 23 5 34
-5 16 -2 18 16 14 19 -5 20 -4 10 16 -9 16 -9 21 0 19 6 -2 12 7 14 20 1 12
-2 22 -7 22 -5 0 -7 4 -3 9 3 5 1 12 -5 16 -6 4 -7 12 -3 18 13 20 12 97 -1
90 -7 -4 -6 -1 1 7 8 9 9 19 2 31 -7 15 -6 17 6 13 11 -5 15 1 15 23 0 16 -6
35 -12 42 -10 11 -10 13 0 7 8 -5 12 0 12 13 0 10 3 27 6 35 5 14 2 15 -20 6
-14 -5 -26 -6 -26 -1 0 5 9 11 20 14 16 4 20 12 18 39 -2 18 -7 36 -12 39 -4
4 -3 16 3 28 7 11 8 21 3 21 -9 0 -8 91 1 107 8 14 -1 77 -12 81 -6 2 -7 12
-1 28 7 18 6 35 -5 61 -18 42 -18 46 -6 38 6 -3 8 6 5 21 -3 15 -6 32 -7 38
-1 6 -6 14 -12 18 -6 5 -5 8 3 8 9 0 10 5 4 18 -11 20 -5 122 9 138 5 6 6 14
2 18 -15 14 -18 65 -9 131 1 11 -1 28 -6 37 -4 9 -4 28 2 42 8 22 7 26 -8 26
-10 0 -13 3 -6 8 6 4 12 14 12 22 1 8 4 30 6 48 4 21 2 32 -7 32 -8 0 -8 3 2
9 8 5 11 16 6 30 -5 17 -12 20 -28 15 -17 -5 -19 -4 -10 6 9 9 9 17 0 30 -8
14 -8 22 2 34 11 12 10 21 -3 47 -14 28 -14 30 1 25 13 -5 14 -4 3 9 -7 8 -19
15 -27 15 -8 0 -11 5 -8 10 4 6 11 7 17 4 7 -5 9 2 4 20 -3 15 -1 36 5 48 9
17 9 23 0 26 -6 2 -11 8 -11 13 0 6 4 8 9 5 5 -3 9 6 9 21 0 15 5 29 11 31 6
2 8 9 5 14 -4 6 -8 47 -10 91 -1 54 -7 82 -16 88 -10 7 -11 12 0 29 7 11 8 20
4 20 -5 0 -8 21 -7 48 0 26 -3 60 -8 76 -6 18 -6 30 0 35 6 3 9 14 7 23 -1 10
1 20 6 23 4 3 2 30 -5 60 -7 30 -8 52 -4 49 12 -7 11 1 -5 41 -9 21 -11 35 -5
35 6 0 8 4 5 8 -3 5 1 21 9 36 8 14 10 24 5 21 -6 -4 -10 -3 -11 2 -4 44 -3
70 4 66 4 -2 7 1 7 6 0 6 -7 11 -15 11 -12 0 -14 9 -10 40 3 28 1 40 -8 40 -9
0 -9 2 -1 8 12 7 14 218 2 237 -8 12 -3 100 6 114 4 6 3 11 -2 11 -6 0 -8 10
-4 22 4 17 2 20 -11 15 -10 -4 -17 -2 -17 3 0 6 4 10 8 10 10 0 14 19 14 73 0
20 4 37 9 37 5 0 3 11 -3 25 -8 18 -8 29 -1 36 13 13 -5 81 -20 72 -5 -3 -4 4
2 15 15 27 14 32 -5 32 -10 0 -14 6 -11 14 3 7 0 19 -6 25 -7 7 -7 11 -1 11 6
0 9 23 6 60 -3 38 0 65 7 74 10 12 8 19 -9 36 -16 16 -19 24 -10 35 13 16 16
66 6 84 -4 6 -2 11 4 11 13 0 3 43 -11 48 -5 2 -9 10 -9 18 0 8 -5 14 -12 14
-9 0 -9 3 -1 11 8 8 7 18 -3 37 -8 15 -14 33 -14 40 0 6 -4 12 -9 12 -5 0 -9
30 -9 68 0 91 1 85 -31 122 -16 19 -27 40 -24 47 4 9 0 11 -13 6 -13 -5 -16
-3 -11 10 8 20 -1 47 -15 47 -6 0 -19 10 -29 22 -11 11 -20 17 -20 12 -1 -5
-4 4 -8 20 -4 21 -13 30 -31 33 -13 2 -27 7 -30 11 -3 4 -16 16 -30 27 -23 19
-24 19 -10 1 13 -17 13 -19 0 -11 -30 19 -49 39 -43 48 3 6 1 7 -5 3 -6 -3
-13 -2 -17 4 -3 5 -15 15 -25 20 -17 9 -19 8 -13 -7 4 -11 -1 -8 -14 7 -11 14
-22 32 -25 41 -4 9 -16 19 -27 22 -13 3 -19 1 -14 -5 3 -7 1 -8 -6 -4 -6 4
-24 9 -39 12 -15 3 -36 8 -47 11 -11 4 -25 6 -32 5 -6 -2 -14 2 -18 8 -3 5
-12 10 -18 10 -7 0 -6 -4 3 -10 9 -6 10 -10 3 -10 -6 0 -14 4 -17 9 -3 5 -19
8 -36 7 -20 -1 -30 3 -30 12 0 9 -10 12 -30 10 -17 -1 -34 2 -38 8 -11 18 -50
26 -70 15 -10 -5 -29 -11 -43 -13 -13 -2 -28 -6 -34 -9 -5 -4 -21 -4 -35 -2
-14 2 -35 4 -48 5 -15 0 -22 5 -18 13 3 10 -8 13 -47 12 -29 -1 -55 -6 -59
-12 -5 -6 -8 -5 -8 3 0 6 -5 12 -11 12 -5 0 -8 -4 -5 -9 6 -10 -16 -21 -41
-21 -8 0 -22 -7 -31 -17 -15 -15 -17 -14 -22 8 -4 13 -13 23 -21 22 -19 -2
-56 -11 -79 -18 -10 -3 -21 -1 -24 4 -4 6 -13 8 -21 4 -8 -3 -15 -1 -15 5 0
14 -43 20 -71 10 -27 -11 -200 -18 -194 -9 2 4 -7 11 -20 17 -20 10 -23 9 -20
-7 2 -10 0 -21 -6 -24 -5 -4 -9 3 -9 15 0 18 -5 20 -40 16 -25 -3 -43 1 -50 9
-15 17 -52 15 -45 -2 3 -11 0 -11 -15 -3 -11 6 -24 9 -28 6 -4 -3 -13 -1 -20
3 -8 5 -8 14 3 34 8 16 10 29 4 33 -6 3 -7 28 -3 60 4 36 2 54 -5 54 -6 0 -17
14 -26 30 -12 23 -12 30 -3 28 7 -2 11 4 10 12 -12 52 -8 109 10 124 19 16 26
52 8 41 -7 -4 -9 2 -4 19 5 22 3 26 -17 26 -30 0 -19 9 15 12 26 2 26 3 8 18
-27 21 -32 43 -13 58 14 11 14 12 -3 10 -15 -2 -23 8 -37 47 -9 28 -18 45 -18
39 -1 -7 -18 4 -38 23 -27 24 -45 33 -61 30 -15 -3 -26 1 -29 10 -5 12 -7 12
-14 1 -7 -10 -9 -10 -9 0 0 9 -5 10 -19 2 -14 -7 -21 -6 -24 3 -4 9 -7 9 -18
0 -15 -15 -29 -17 -29 -4 0 5 9 11 21 14 13 4 18 10 14 17 -6 9 -10 9 -16 -1
-6 -10 -9 -11 -9 -1 0 16 -15 15 -34 -3z m-731 -1065 c-4 -6 6 -8 24 -6 17 2
33 1 36 -2 11 -12 65 -10 65 1 0 7 7 4 14 -6 12 -15 18 -16 35 -7 12 6 21 7
21 3 0 -4 11 -13 25 -20 14 -6 23 -7 20 -3 -8 13 25 28 46 23 11 -3 19 -12 19
-20 0 -12 3 -12 22 1 19 14 23 14 35 -2 8 -9 12 -12 10 -7 -7 14 21 51 30 41
4 -4 1 -11 -7 -16 -16 -10 -7 -14 23 -10 15 1 17 -3 12 -19 -4 -13 -2 -21 5
-21 6 0 8 -5 5 -10 -4 -6 -11 -8 -16 -5 -5 4 -9 -1 -9 -10 0 -9 5 -13 11 -9 7
4 10 1 7 -7 -3 -8 -11 -13 -17 -11 -6 1 -11 -2 -11 -7 0 -12 30 -22 42 -14 7
3 8 1 4 -6 -5 -7 -16 -9 -28 -5 -18 5 -19 4 -7 -9 8 -8 21 -12 29 -9 9 3 8 -1
-4 -10 -10 -8 -16 -20 -12 -26 4 -7 1 -12 -9 -12 -15 0 -15 -1 -1 -16 9 -8 16
-20 16 -25 0 -6 4 -7 10 -4 6 3 7 -1 4 -10 -4 -8 -1 -21 5 -29 9 -10 8 -16 -4
-26 -11 -9 -12 -16 -5 -25 6 -7 9 -25 6 -39 -3 -14 1 -32 7 -38 7 -7 13 -30
14 -51 1 -24 12 -52 29 -74 18 -24 22 -34 12 -30 -10 3 -19 0 -22 -9 -3 -7 -2
-13 2 -13 18 3 46 -3 35 -8 -7 -2 -13 -11 -13 -19 0 -9 5 -12 11 -8 7 4 10 1
7 -7 -3 -8 4 -22 15 -31 19 -17 21 -17 33 0 10 13 12 13 10 2 -9 -47 -19 -69
-30 -63 -6 4 -5 0 2 -9 15 -18 59 -9 55 11 -2 6 2 11 7 11 6 0 13 0 18 0 4 0
7 -6 7 -12 0 -7 -7 -13 -15 -13 -8 0 -16 -9 -18 -20 -2 -11 -1 -17 3 -13 5 4
15 3 22 -4 11 -9 16 -9 22 0 4 7 14 10 22 7 8 -3 23 1 34 10 20 15 20 15 0 9
-16 -5 -17 -4 -5 5 21 15 30 14 30 -5 0 -8 5 -12 10 -9 6 4 7 11 4 17 -4 6 -1
8 7 6 8 -3 13 -11 11 -18 -3 -11 0 -11 13 0 8 7 32 14 51 16 20 2 42 8 48 14
7 5 15 7 19 4 3 -3 8 4 12 15 3 12 11 21 17 21 6 0 8 13 6 30 -5 34 -5 34 22
18 22 -14 33 -8 24 16 -3 9 -11 13 -18 9 -6 -3 -2 3 8 15 12 14 14 22 7 22 -7
0 -9 5 -6 10 3 6 17 10 31 10 26 0 33 17 9 26 -14 6 -18 54 -4 54 3 0 3 19 -2
43 -5 31 -4 48 7 65 8 12 11 22 7 21 -24 -4 -25 4 -3 21 14 11 21 20 15 19
-23 -3 -25 3 -9 32 8 17 12 29 7 26 -5 -3 -16 19 -24 49 -9 30 -12 54 -8 54 5
0 9 -5 9 -11 0 -5 5 -7 11 -4 7 5 5 14 -5 30 -8 12 -12 26 -8 29 3 4 5 25 3
46 -1 25 2 40 9 40 6 0 8 6 5 13 -4 6 2 2 12 -10 17 -21 20 -22 46 -8 15 8 25
10 22 5 -4 -6 0 -10 7 -11 7 0 31 -2 53 -4 22 -2 47 2 55 9 13 9 13 9 2 -6
-12 -15 -9 -16 43 -15 55 3 56 2 51 -23 -3 -14 -3 -19 0 -12 3 6 11 9 16 6 7
-4 8 -2 4 5 -6 8 0 10 18 5 16 -4 33 -1 43 7 14 12 16 12 8 -1 -6 -12 -5 -13
6 -2 7 6 21 12 31 12 10 0 18 5 18 11 0 6 5 7 13 2 18 -11 37 -12 37 -2 0 5 7
9 15 9 8 0 15 -4 15 -8 0 -14 44 -8 57 8 11 13 12 13 13 -2 0 -9 6 -18 13 -21
18 -6 38 4 30 16 -3 6 -1 7 6 3 6 -4 9 -11 6 -16 -3 -4 2 -10 9 -13 8 -3 16
-1 18 5 3 7 16 4 38 -7 25 -13 32 -14 23 -4 -10 12 -3 14 49 12 34 -1 64 -7
68 -13 5 -8 12 -7 23 4 20 20 56 21 63 1 4 -8 13 -15 21 -15 8 0 12 4 9 8 -3
5 8 9 25 10 23 0 29 -3 25 -14 -7 -18 -1 -18 28 1 22 14 25 14 40 0 15 -15 17
-15 33 0 13 14 14 21 5 36 -9 13 -9 20 0 25 6 4 8 3 5 -3 -12 -19 27 -25 40
-7 7 10 16 14 20 10 4 -4 0 -12 -10 -17 -9 -6 -14 -15 -11 -21 4 -6 2 -8 -4
-4 -6 3 -13 2 -16 -3 -10 -15 14 -24 29 -11 8 7 24 10 35 7 11 -3 20 -1 20 4
0 5 7 9 16 9 8 0 12 -4 9 -10 -3 -5 0 -11 7 -11 25 -2 33 -5 61 -19 15 -7 27
-18 27 -23 0 -6 3 -8 6 -5 3 4 14 -2 25 -13 10 -10 34 -20 52 -20 17 -1 24 -3
15 -6 -24 -6 -23 -20 2 -28 11 -3 20 -11 20 -16 0 -6 -4 -7 -10 -4 -5 3 -7 0
-4 -9 3 -8 12 -12 20 -9 8 3 14 -1 14 -10 0 -10 7 -15 19 -12 11 2 22 -3 25
-11 4 -10 1 -13 -7 -9 -6 4 -2 -2 11 -12 15 -12 21 -25 16 -36 -3 -10 -1 -17
5 -17 6 0 11 -7 11 -15 0 -8 3 -14 8 -14 18 3 32 -2 32 -11 0 -5 -8 -10 -19
-10 -18 0 -18 -2 -4 -42 8 -22 12 -47 9 -55 -3 -7 -2 -13 2 -13 8 0 9 -5 13
-72 2 -20 7 -34 13 -31 5 3 6 1 2 -6 -4 -7 -4 -20 0 -29 12 -30 14 -50 5 -74
-6 -15 -4 -32 6 -51 12 -24 12 -31 1 -45 -11 -13 -11 -14 1 -7 11 6 12 5 5 -6
-11 -18 -12 -139 -1 -139 5 0 6 -4 2 -10 -3 -5 1 -25 9 -45 14 -32 13 -38 -4
-37 -3 0 -4 -15 -2 -35 4 -28 2 -34 -9 -27 -11 6 -12 5 -3 -7 6 -8 11 -27 12
-42 1 -15 6 -36 12 -46 14 -28 -27 -44 -63 -25 -15 8 -27 10 -27 5 0 -5 6 -12
13 -14 7 -3 7 -6 1 -6 -6 -1 -21 8 -34 19 -25 22 -45 27 -34 8 5 -7 3 -8 -7
-2 -8 5 -34 9 -59 9 -37 0 -47 4 -55 23 -5 12 -13 22 -18 22 -4 0 -5 -5 -1
-12 5 -7 3 -8 -6 -3 -7 4 -16 2 -20 -5 -6 -10 -12 -10 -29 2 -11 8 -18 18 -13
23 4 5 1 5 -6 1 -7 -4 -10 -11 -8 -15 3 -4 -11 -7 -30 -7 -19 0 -34 4 -34 8 0
13 -28 9 -33 -4 -4 -10 -8 -10 -15 1 -6 8 -17 11 -25 8 -11 -4 -15 -1 -12 12
3 19 -30 27 -41 9 -5 -7 -2 -8 6 -3 8 5 11 3 8 -6 -3 -8 -10 -13 -16 -12 -7 2
-9 -4 -5 -14 6 -15 5 -16 -9 -3 -9 8 -14 23 -12 33 1 10 -3 17 -12 17 -24 0
-94 -24 -94 -32 0 -5 -4 -8 -10 -8 -5 0 -7 6 -4 14 3 8 0 17 -7 22 -8 4 -10 3
-5 -4 4 -7 3 -12 -3 -12 -5 0 -12 6 -14 13 -4 9 -8 9 -15 -2 -5 -7 -14 -11
-20 -7 -6 3 -14 1 -17 -5 -5 -7 -14 -4 -29 10 -18 16 -24 18 -38 7 -10 -7 -14
-17 -10 -21 4 -5 0 -4 -8 0 -8 5 -27 8 -43 7 -22 -2 -28 1 -24 12 4 9 -2 14
-18 14 -16 0 -21 -5 -18 -18 3 -10 -1 -17 -11 -17 -9 0 -16 5 -16 11 0 6 -4 6
-11 -1 -8 -8 -20 -8 -35 -3 -13 5 -24 5 -26 0 -2 -5 -20 -12 -41 -15 -32 -5
-38 -3 -46 17 -7 17 -10 19 -10 6 -1 -10 -7 -18 -15 -18 -8 0 -16 -6 -18 -12
-3 -9 -11 -8 -30 4 -30 20 -56 18 -73 -5 -15 -20 -29 -22 -22 -3 4 11 1 11
-18 2 -13 -6 -23 -15 -22 -21 1 -5 -17 -10 -39 -10 -31 -1 -45 4 -54 18 -7 12
-7 16 -1 12 6 -3 11 -1 11 4 0 16 -28 13 -37 -3 -5 -8 -23 -17 -41 -21 -20 -3
-31 -2 -28 4 8 12 -11 24 -43 27 -20 3 -22 1 -11 -6 12 -8 11 -11 -7 -16 -13
-4 -24 -14 -24 -23 -1 -14 -2 -14 -6 1 -2 10 -10 15 -19 11 -8 -3 -17 4 -23
18 -9 21 -17 11 -12 -15 1 -5 -6 -5 -16 -1 -33 13 -63 14 -63 0 0 -7 -11 -15
-25 -17 -15 -3 -22 -1 -18 5 4 6 -2 8 -14 5 -13 -4 -27 2 -39 15 -11 14 -19
17 -22 9 -2 -7 -10 -12 -18 -12 -8 0 -14 -4 -14 -8 0 -5 -10 -8 -22 -7 -17 1
-23 8 -22 23 1 12 -3 22 -7 22 -5 0 -9 -7 -9 -16 0 -9 -5 -12 -12 -8 -6 4 -18
-2 -26 -12 -10 -13 -16 -15 -19 -6 -3 6 -16 12 -29 12 -14 0 -22 4 -19 10 4 6
-3 8 -17 6 -13 -3 -31 -5 -41 -5 -10 -1 -15 -5 -12 -11 3 -5 -1 -10 -9 -10 -8
0 -20 8 -25 18 -10 16 -12 16 -26 -2 -11 -14 -15 -16 -15 -5 -1 10 -3 9 -11
-3 -5 -10 -19 -18 -30 -18 -11 0 -30 -5 -41 -11 -17 -9 -20 -9 -16 3 4 9 -1
14 -14 15 -10 1 -22 -5 -25 -13 -7 -19 -29 -18 -37 3 -6 15 -8 15 -16 3 -9
-13 -10 -13 -11 0 -1 8 -1 18 0 23 0 4 -6 7 -15 7 -10 0 -14 -6 -11 -14 4 -10
-1 -13 -19 -11 -29 3 -39 11 -39 32 0 23 -25 29 -26 6 -1 -10 -1 -21 -1 -24 1
-3 -11 -6 -26 -5 -17 1 -26 6 -24 14 1 8 -2 11 -8 7 -5 -3 -10 0 -10 7 -1 9
-5 7 -14 -4 -17 -23 -33 -23 -40 0 -8 24 -34 24 -42 0 -3 -10 -9 -18 -14 -18
-5 0 -16 -3 -26 -7 -10 -4 -15 -2 -11 3 3 6 -3 15 -14 22 -16 10 -19 9 -19 -4
0 -8 -5 -12 -10 -9 -6 4 -7 11 -4 17 4 6 -14 -1 -38 -16 -40 -23 -47 -25 -58
-11 -10 12 -16 13 -28 3 -8 -7 -25 -11 -37 -10 -13 2 -26 -1 -29 -7 -4 -6 -13
-8 -21 -5 -8 4 -13 10 -10 14 3 4 -2 11 -11 14 -11 4 -15 2 -11 -8 8 -21 -37
-38 -59 -22 -11 8 -14 18 -9 27 5 8 -2 5 -15 -6 -16 -14 -24 -16 -27 -7 -3 6
-9 12 -14 12 -6 0 -7 -4 -4 -10 3 -5 0 -11 -7 -11 -34 -4 -62 2 -70 13 -5 9
-8 9 -8 1 0 -6 -14 -19 -31 -27 -31 -15 -31 -15 -27 9 3 15 0 26 -9 29 -8 3
-13 0 -12 -7 3 -27 -2 -32 -35 -33 -19 0 -33 3 -30 7 2 4 -1 11 -7 15 -7 4
-16 -1 -21 -11 -8 -14 -12 -15 -19 -4 -7 11 -9 11 -9 1 0 -8 -7 -11 -19 -7
-10 3 -24 -1 -31 -10 -16 -20 -33 -9 -24 17 4 14 2 18 -5 14 -6 -4 -11 -2 -11
4 0 6 -4 8 -10 5 -5 -3 -10 -1 -10 6 0 7 -3 9 -6 6 -4 -4 -2 -13 4 -20 9 -10
9 -14 -1 -14 -6 0 -23 -3 -36 -7 -16 -6 -21 -5 -17 3 5 7 -1 11 -14 11 -12 0
-18 5 -15 10 10 16 -1 11 -16 -7 -8 -9 -9 -14 -4 -11 6 4 17 3 25 -3 12 -7 10
-9 -7 -9 -12 0 -25 5 -28 10 -4 7 -11 7 -18 2 -17 -13 -46 -11 -40 4 6 17 -14
27 -24 12 -4 -7 -8 -17 -8 -22 0 -5 -6 -11 -12 -13 -7 -3 -13 3 -13 12 0 13
-3 15 -13 7 -8 -7 -19 -6 -36 3 -22 11 -27 10 -43 -9 -10 -12 -17 -15 -18 -8
0 9 -11 10 -41 6 -27 -5 -44 -3 -48 5 -4 6 -15 9 -24 5 -15 -5 -15 -8 3 -31
21 -27 19 -43 -7 -43 -9 0 -13 -6 -9 -15 3 -8 1 -15 -4 -15 -6 0 -10 4 -10 8
0 5 -12 14 -27 21 -15 7 -23 15 -17 19 15 12 15 32 -1 32 -8 0 -15 5 -15 12 0
6 -10 2 -23 -10 -17 -16 -26 -19 -34 -11 -6 6 -9 17 -7 23 2 6 -7 12 -21 12
-14 1 -25 -2 -25 -8 0 -5 -4 -7 -9 -3 -5 3 -12 1 -16 -5 -10 -16 -38 -12 -32
4 4 10 1 13 -9 9 -7 -3 -14 -9 -14 -14 0 -5 -7 -9 -16 -9 -8 0 -12 4 -9 10 3
6 -1 7 -9 4 -9 -3 -16 -10 -16 -16 0 -5 -4 -6 -10 -3 -5 3 -10 1 -10 -4 0 -18
-26 -12 -45 9 -10 11 -22 17 -28 13 -6 -3 -7 -1 -3 5 4 7 -1 10 -14 9 -11 -1
-20 -7 -20 -14 0 -7 -7 -13 -15 -13 -8 0 -12 6 -9 14 7 17 -20 16 -38 -2 -7
-7 -17 -8 -29 -2 -12 7 -19 6 -23 -5 -3 -8 -11 -15 -18 -14 -9 0 -10 2 -1 5
13 6 6 34 -9 34 -5 0 -6 -6 -2 -12 6 -10 4 -10 -8 0 -13 10 -17 10 -21 -1 -3
-8 -17 -17 -31 -19 -23 -5 -25 -2 -22 19 4 20 2 23 -14 18 -10 -3 -25 1 -33
10 -11 10 -18 12 -22 4 -4 -6 -13 -8 -20 -5 -7 2 -17 0 -23 -6 -13 -13 -47 16
-37 32 3 5 1 10 -4 10 -6 0 -11 -9 -11 -19 0 -11 -6 -23 -12 -27 -7 -4 -10 -4
-6 1 4 4 3 14 -4 22 -9 11 -13 11 -27 -1 -19 -16 -66 -32 -58 -19 3 4 0 16 -7
25 -11 15 -13 15 -25 -4 -12 -19 -11 -20 6 -14 14 6 15 4 6 -5 -6 -6 -17 -8
-25 -3 -15 9 -55 6 -78 -6 -25 -13 -92 -21 -85 -10 8 12 -6 13 -38 1 -22 -8
-24 -7 -21 15 1 15 -3 24 -12 24 -8 0 -13 -3 -12 -7 0 -5 -4 -19 -10 -33 -8
-20 -11 -21 -11 -6 -1 12 -6 16 -16 12 -8 -3 -21 4 -29 16 -14 19 -16 20 -22
5 -3 -9 -10 -15 -14 -12 -4 3 -13 -2 -20 -10 -10 -13 -14 -12 -28 2 -11 10
-17 12 -20 4 -2 -6 -8 -9 -13 -5 -5 3 -9 -2 -9 -10 0 -10 -6 -13 -15 -10 -8 4
-15 1 -15 -5 0 -6 -5 -11 -11 -11 -5 0 -7 5 -4 10 3 6 0 10 -9 10 -8 0 -16 -6
-19 -12 -3 -10 -7 -10 -20 1 -14 11 -18 11 -23 -3 -3 -9 -10 -16 -16 -16 -5 0
-6 5 -2 11 4 8 -1 9 -15 4 -16 -5 -22 -3 -20 7 3 24 -1 38 -11 38 -5 0 -10 -7
-10 -15 0 -20 -24 -19 -45 1 -15 15 -18 15 -39 -6 -15 -14 -26 -18 -31 -11 -3
6 -4 15 -1 20 3 5 -2 12 -11 15 -15 6 -15 8 -1 23 12 11 14 22 7 42 -9 28 -7
75 6 104 4 10 3 34 -3 53 -7 23 -7 36 0 40 6 4 7 20 3 38 -11 53 -13 96 -5 91
5 -3 6 4 3 15 -3 11 0 27 7 35 6 8 9 19 5 25 -3 5 0 10 7 11 9 0 10 2 1 5 -7
3 -9 12 -6 20 3 8 0 14 -6 14 -6 0 -11 -7 -11 -16 0 -8 -4 -12 -10 -9 -6 4 -3
16 7 31 10 17 19 21 23 14 12 -20 20 16 10 49 -6 21 -5 28 3 25 14 -5 16 53 4
74 -5 7 -2 15 8 18 12 5 15 14 11 30 -4 14 -2 24 4 24 6 0 8 -6 4 -12 -5 -9
-4 -10 4 -3 6 6 12 29 13 53 2 23 8 42 14 42 6 0 17 15 24 33 12 30 65 73 84
69 7 -2 11 14 8 31 -1 5 3 6 8 3 5 -4 12 -2 16 4 4 6 11 7 17 4 6 -4 8 -2 5 3
-10 16 26 49 48 45 17 -4 18 -2 5 14 -12 16 -12 17 0 7 17 -16 50 -17 50 -2 0
6 8 9 19 6 26 -6 55 11 42 26 -7 9 3 12 37 13 26 1 56 2 67 4 11 1 49 -1 85
-4 63 -6 163 8 187 26 7 5 14 5 17 -1 5 -7 15 -7 32 -1 33 13 37 13 28 -2 -5
-8 -2 -9 12 -4 24 10 107 11 157 1 24 -4 43 -2 52 5 8 6 23 9 35 5 11 -3 20
-2 20 3 0 6 17 6 42 2 29 -6 45 -5 50 3 5 8 9 5 14 -7 7 -18 8 -18 21 0 7 10
13 14 13 8 0 -5 32 -10 71 -11 39 -1 73 -4 76 -7 3 -2 -4 -17 -13 -32 -15 -22
-16 -28 -5 -32 9 -3 10 -6 2 -12 -13 -7 -4 -40 11 -40 5 0 7 4 4 9 -3 5 1 11
9 14 10 4 12 1 8 -10 -4 -11 -2 -14 5 -9 8 5 10 2 6 -8 -3 -9 -12 -16 -19 -16
-9 0 -12 -16 -9 -61 4 -47 2 -59 -8 -53 -10 6 -9 3 1 -9 7 -9 19 -17 27 -17
10 0 10 -5 -1 -27 -10 -18 -11 -31 -5 -37 6 -6 10 -18 10 -27 0 -12 6 -16 19
-12 16 4 19 1 14 -16 -3 -11 -2 -32 1 -46 5 -20 11 -25 25 -20 22 7 35 -27 18
-44 -7 -7 -5 -12 7 -17 11 -4 21 -2 26 6 5 8 9 9 14 1 4 -6 4 -15 1 -21 -3 -5
1 -10 9 -10 8 0 18 5 21 10 4 6 11 8 16 4 6 -3 5 -12 -3 -22 -8 -10 -8 -13 -1
-9 6 4 13 2 15 -4 2 -7 16 -13 31 -15 15 -1 37 -6 48 -9 18 -6 21 -4 16 9 -6
14 -3 15 13 6 12 -6 20 -7 20 -1 0 5 -6 11 -12 14 -7 2 -10 8 -5 12 4 5 14 0
23 -11 11 -13 17 -15 20 -6 8 17 24 15 24 -4 0 -8 5 -12 10 -9 6 3 10 1 10 -6
0 -7 3 -9 6 -6 4 4 1 13 -6 22 -7 8 -8 15 -2 15 5 0 12 7 15 14 4 10 1 13 -9
9 -7 -3 -14 0 -14 6 0 6 14 11 31 11 17 0 28 4 24 10 -3 6 -2 10 4 10 5 0 13
-9 16 -21 5 -16 9 -18 21 -8 12 9 12 15 2 27 -7 9 -8 13 -2 9 15 -9 48 29 41
47 -4 10 -1 13 9 9 10 -4 14 2 14 21 0 14 -5 26 -11 26 -8 0 -7 5 2 16 16 19
19 34 23 100 2 28 6 56 10 63 5 7 1 9 -11 5 -16 -6 -16 -5 1 8 15 11 16 19 9
33 -8 14 -6 23 6 37 18 18 21 44 9 64 -4 6 2 18 12 27 11 9 17 22 15 29 -4 10
11 14 61 15 43 1 70 7 75 15 6 9 9 7 9 -7 0 -15 2 -17 9 -6 5 7 13 11 18 8 5
-3 36 -2 69 2 33 5 60 5 62 0 5 -14 32 -11 32 4 0 8 17 12 52 11 29 0 61 4 72
10 14 8 20 8 24 -3 3 -9 6 -10 12 -2 5 9 14 9 35 1 18 -7 32 -7 39 -1 8 7 27
6 54 -1 33 -8 49 -8 70 2 15 8 36 14 47 15 11 1 23 3 28 4 4 2 19 3 35 4 15 0
30 5 33 10 4 5 13 6 20 2 18 -12 99 -15 99 -4 0 5 13 6 30 3 22 -5 31 -2 36
10 3 9 10 16 16 16 5 0 6 -4 3 -10z"/>
</g>
</svg>
