<svg id="Startup_icon" data-name="Startup icon" xmlns="http://www.w3.org/2000/svg" width="66.452" height="122.638" viewBox="0 0 66.452 122.638">
  <path id="Startups" d="M11648.135-14406.545a9.726,9.726,0,0,1,1.35.016,4.857,4.857,0,0,1,1.132.355c.295.109.574.25.869.357a1.64,1.64,0,0,1,.667.451,6.307,6.307,0,0,0,1.768,1.287,5.579,5.579,0,0,1,2.761,2.979c.373.836.684,1.705,1.055,2.527a3.073,3.073,0,0,0,.5.59c-.109.154-.2.279-.247.342.387.914,1.115,1.551,1.286,2.527s.419,1.924.636,2.885a1.308,1.308,0,0,1,.046.357,21.7,21.7,0,0,0,.389,3.6c.108,1.256.45,2.482.65,3.738a4.819,4.819,0,0,1,.063.947,10.057,10.057,0,0,0,.264,2.635,5.726,5.726,0,0,1-.387,4.234,1.1,1.1,0,0,1-.946.637,1,1,0,0,0-.419.078,1.521,1.521,0,0,1-1.412-.078,2.006,2.006,0,0,0-1.659-.154,5.361,5.361,0,0,1-1.722.014,3.791,3.791,0,0,0-.837.078c-.5.094-1.009.342-1.506,0-.046-.031-.124-.062-.17-.031a3.639,3.639,0,0,1-1.862.264.566.566,0,0,0-.31.357c-.092.449-.092.914-.2,1.35-.217,1.148-.48,2.295-.714,3.459a1.342,1.342,0,0,0-.078.434,1.621,1.621,0,0,1-1.147,1.629,4.266,4.266,0,0,0,.389.854,2.128,2.128,0,0,1,.108,2.436c-.559,1.1-1.6,1.178-2.543,1.426a11.084,11.084,0,0,1-3.848.109,21.758,21.758,0,0,0-3.893-.078c-1.334.109-2.653.154-3.987.188a5.156,5.156,0,0,0-1.1.217,1.185,1.185,0,0,1-.915-.047,1.826,1.826,0,0,0-.916.047,2.589,2.589,0,0,1-1.411-.078,3.127,3.127,0,0,0-2.125.031.915.915,0,0,1-.574.092,3.359,3.359,0,0,0-1.753-.045,6.245,6.245,0,0,1-1.086-.094,2.426,2.426,0,0,0-.589-.076c-1.489.309-3.01-.156-4.5.246a2.245,2.245,0,0,1-1.194-.186,2.866,2.866,0,0,0-2.031.031,1.374,1.374,0,0,1-.932.092,2.8,2.8,0,0,0-1.6-.014c-.5.076-.977.063-1.488.092-.745.047-1.488.078-2.234.141a3.076,3.076,0,0,1-3.1-3.025,3.372,3.372,0,0,1,.093-.791,3.943,3.943,0,0,0-.434-3.07,3.337,3.337,0,0,1-.357-1.6,6.4,6.4,0,0,0-.077-1.227,2.59,2.59,0,0,0-1.8.2,1.1,1.1,0,0,1-.666.107,9.208,9.208,0,0,0-3.848.9,2.231,2.231,0,0,1-2.419-.34,1.578,1.578,0,0,1-.637-1.01c-.2-1.178-.355-2.342-.636-3.49a17.826,17.826,0,0,1-.247-3.4,9.35,9.35,0,0,0-.171-.945,1.779,1.779,0,0,1-.077-.5,5.97,5.97,0,0,0-.156-2.033,14.984,14.984,0,0,1,0-3.334c.078-.637.016-1.258.078-1.893.078-.744.2-1.49.295-2.219.155-1.178.31-2.342.481-3.506a4.367,4.367,0,0,1,.217-.744,3.784,3.784,0,0,0,.2-.744,4.287,4.287,0,0,1,.854-2.715,3.959,3.959,0,0,0,.79-1.877,6.059,6.059,0,0,1,.946-1.83,6.274,6.274,0,0,1,2.39-2.418,11.077,11.077,0,0,0,1.8-1.475,5.481,5.481,0,0,1,2.916-.992c.992-.125,1.1-.187,1.209-1.18a16.891,16.891,0,0,1,1.117-4.529c.295-.775.59-1.535.854-2.326a4.819,4.819,0,0,0,.077-.682c.372-1.35.715-2.746,1.194-4.064.466-1.271,1.1-2.482,1.629-3.738.373-.916.683-1.861,1.056-2.775.7-1.676,1.395-3.352,2.14-5.043.342-.76.76-1.488,1.1-2.232.2-.42.3-.869.466-1.287a9.073,9.073,0,0,1,.589-1.227c.187-.324.481-.605.636-.93.513-1.07.978-2.156,1.475-3.227a12.532,12.532,0,0,1,1.271-2.637,18.283,18.283,0,0,1,1.769-2.605,6.12,6.12,0,0,0,.806-1.07,2.256,2.256,0,0,1,2.126-.775c.744.076,1.256.619,1.954.744a.524.524,0,0,1,.279.2,28.673,28.673,0,0,1,2.094,2.979,8.4,8.4,0,0,0,1.475,2.2,2.877,2.877,0,0,1,.479.727c.528.932,1.07,1.848,1.582,2.793.264.5.45,1.023.729,1.521s.729.93.978,1.426c.526,1.086.992,2.217,1.488,3.336a3.066,3.066,0,0,0,.388.775,13.123,13.123,0,0,1,2.018,3.754,2.486,2.486,0,0,0,.449.682,7.862,7.862,0,0,1,1.07,1.582c.434.807.822,1.645,1.209,2.5.218.5.357,1.023.543,1.52a5.09,5.09,0,0,0,.481,1.209,11.335,11.335,0,0,1,.992,2.375c.466,1.131.946,2.232,1.442,3.35.481,1.086.979,2.17,1.443,3.271a7.848,7.848,0,0,1,.279,1.18,1.418,1.418,0,0,0,.124.418,3.765,3.765,0,0,1,.5,1.629A9.533,9.533,0,0,0,11648.135-14406.545Zm-22.521-35.969a5.287,5.287,0,0,0-1.024,1.645c-.512,1.115-1.054,2.217-1.566,3.334-.046.092-.17.17-.2.279a3.578,3.578,0,0,0-.481,1.178,2.657,2.657,0,0,1-.6,1.365,13.233,13.233,0,0,0-1.5,2.947,3.436,3.436,0,0,0-.218.9c-.062.559-.527.869-.775,1.3-.31.543-.559,1.117-.838,1.674a4.761,4.761,0,0,0-.636,1.287,3.911,3.911,0,0,1-.605,1.629,4.375,4.375,0,0,0-.559,1.551c-.046.141-.062.279-.108.42a16.028,16.028,0,0,1-.76,1.861,15.663,15.663,0,0,0-.775,1.986c-.2.525-.48,1.021-.636,1.566-.232.775-.357,1.566-.59,2.342-.217.744-.573,1.441-.79,2.188-.28.914-.527,1.83-.729,2.76-.248,1.209-.419,2.451-.667,3.66a8.352,8.352,0,0,1-.45,2.389,6.66,6.66,0,0,0-.449,1.738c-.125.729-.172,1.473-.265,2.2-.139,1.055-.341,2.078-.434,3.135-.016.619,0,1.24.046,1.859a9.964,9.964,0,0,1-.015,1.2c-.016.34-.094.684-.125,1.023-.046.682-.03,1.365-.077,2.063s-.155,1.381-.232,2.078a4.126,4.126,0,0,0-.032.637,6.64,6.64,0,0,0,.078,2.279,1.983,1.983,0,0,1,.079.668c-.017.93-.048,1.846-.079,2.791a3.508,3.508,0,0,1-.078,1.273,3.9,3.9,0,0,0-.092,2.342l.14,1.271c.031.217,0,.449.046.652a8.331,8.331,0,0,1-.077,3.1,7.17,7.17,0,0,0-.171,1.287c0,.914.109,1.8.077,2.715a2.994,2.994,0,0,0,.4,1.674c.156.248.7.574.792.5.511-.357,1.055-.125,1.551-.172.915-.076,1.846-.061,2.761-.047a11.241,11.241,0,0,0,1.256.031,10.63,10.63,0,0,0,2.11-.217c.108-.047.279.078.418.094a3.688,3.688,0,0,0,1.784.078,1.585,1.585,0,0,1,.605.031c.4.029.791.076,1.209.076a18.085,18.085,0,0,1,2.575-.154,4.182,4.182,0,0,0,2.684-.109.283.283,0,0,1,.248-.031c.542.357,1.116.078,1.675.109a20.918,20.918,0,0,1,2.4.092c.822.141,1.566-.48,2.373-.123a21.312,21.312,0,0,1,4.653-.078,8.485,8.485,0,0,0,1.1-.107,5.2,5.2,0,0,1,1.1-.016,6.567,6.567,0,0,0,3.336-.016c.464-2.2.93-4.453,1.364-6.7a4.463,4.463,0,0,0,.046-1.117c-.046-.838-.077-1.674-.2-2.512-.187-1.227.264-2.514-.311-3.723a.592.592,0,0,1,0-.234c.094-1.674.155-3.35.311-5.023a26.529,26.529,0,0,0,.016-2.949c-.047-1.084.093-2.17.031-3.24-.062-.854-.156-1.707-.248-2.576-.062-.5.092-.992.077-1.488a8.941,8.941,0,0,0-.885-3.738,1.175,1.175,0,0,1-.217-.744,7.941,7.941,0,0,0-.45-3.01c-.077-.355-.2-.729-.295-1.084-.17-.637-.278-1.3-.5-1.924a21.9,21.9,0,0,1-1.241-3.227,2.492,2.492,0,0,0-.265-.543,27.457,27.457,0,0,1-1.318-2.916c-.558-1.754-1.565-3.32-2.078-5.072-.016-.062-.077-.078-.094-.141-.216-.432-.434-.883-.636-1.316a34.055,34.055,0,0,0-1.752-3.662,17.049,17.049,0,0,0-2.3-3.443.886.886,0,0,1-.232-.465,13.054,13.054,0,0,0-1.21-2.791c-.512-.994-.977-2.033-1.488-3.025-.217-.434-.636-.775-.807-1.225-.652-1.551-1.924-2.746-2.528-4.312a3.132,3.132,0,0,0-.2-.279C11626.575-14441.32,11626.124-14441.879,11625.613-14442.514Zm-18.784,38.514a9.849,9.849,0,0,0-3.49,2.945,4.365,4.365,0,0,0-.961,1.861,2.333,2.333,0,0,1-.155.279c-.248.543-.5,1.086-.729,1.645s-.388,1.133-.606,1.676a9.736,9.736,0,0,0-.774,3.691,1.334,1.334,0,0,1-.016.248c-.124.836-.31,1.658-.388,2.5-.094.93-.108,1.875-.171,2.807-.015.139-.092.309-.046.434a1.239,1.239,0,0,1-.093,1.07.809.809,0,0,0,.107.869,2.328,2.328,0,0,1,.28,1.115c.077.916-.295,1.848.154,2.73a.5.5,0,0,1,.016.264c-.186.775.14,1.52-.03,2.313-.155.682.418,1.084,1.086.9a15.281,15.281,0,0,1,3.227-.635c.433-.031.852-.031,1.286-.047a2.486,2.486,0,0,0-.14-1.77,1.333,1.333,0,0,1-.154-.59c0-.945.046-1.922.076-2.869.017-.729.078-1.441.078-2.17-.03-.9-.078-1.785-.187-2.668-.077-.637.2-1.211.094-1.877a8.223,8.223,0,0,1,.093-1.955c.063-.621.155-1.24.187-1.861a18.934,18.934,0,0,0,.17-4.3,1.369,1.369,0,0,1,.047-.434c.077-.637.124-1.256.2-1.893.109-.76.248-1.5.388-2.248C11606.488-14402.59,11606.643-14403.209,11606.829-14404Zm42.1,1.627a6.182,6.182,0,0,1,.5,3.211,5.116,5.116,0,0,0,.356,2.2,4.184,4.184,0,0,1,.047,1.705,3.4,3.4,0,0,0,0,1.676,3.263,3.263,0,0,1,.031,1.1c-.031.854-.078,1.689-.078,2.543a3.534,3.534,0,0,1,.047,1.148,1.813,1.813,0,0,0-.2.7,3.571,3.571,0,0,0,.217.682c.031.094-.093.2-.093.326a9.834,9.834,0,0,0-.094,2.232,14.492,14.492,0,0,0,.28,3.057c.046.107-.047.279-.062.418-.031.342-.047.684-.078,1.148,2.482-.154,4.918-.311,7.336-.449-.029-.885-.046-1.77-.076-2.652a2.361,2.361,0,0,0-.171-.574,6.891,6.891,0,0,1-.372-1.676,18.84,18.84,0,0,0-.637-4.266,4.142,4.142,0,0,1-.093-1.629,1.849,1.849,0,0,0-.155-1.225,2.865,2.865,0,0,1-.372-1.07,6.422,6.422,0,0,0-.636-2.219c-.124-.311-.356-.574-.465-.9a6.1,6.1,0,0,0-1.567-2.635C11651.485-14400.559,11650.679-14402,11648.926-14402.373Zm-11.54,58.709c-.186,1.164-.356,2.342-.559,3.49a3.725,3.725,0,0,0-.218.932,5.506,5.506,0,0,1-.883,2.574,23.5,23.5,0,0,1-2.917,4.574,12.55,12.55,0,0,1-2.466,2.342,7.6,7.6,0,0,1-2.25,1.381c-.169.063-.247.311-.4.436a15.472,15.472,0,0,1-6.141,2.945,1.926,1.926,0,0,1-1.459-.465,2.674,2.674,0,0,1-.821-3.334,7.2,7.2,0,0,0,.372-1.1,40.255,40.255,0,0,1,2.357-6.639.821.821,0,0,0-.155-1.162l-.14-.094a2.879,2.879,0,0,1-.837-.945,6.039,6.039,0,0,0-1.288-1.381,4.721,4.721,0,0,1-1.271-2.2,11.655,11.655,0,0,1-.527-1.629c-.265-.977-.543-1.953-.729-2.963a9.638,9.638,0,0,1-.232-2.5c.077-.992.326-1.986.5-2.963s.791-1.707,1.023-2.621a2.439,2.439,0,0,1,1.457-1.52,13.864,13.864,0,0,0,1.489-.838,8.562,8.562,0,0,1,2.809-.869,30.914,30.914,0,0,1,3.582-.59,6.958,6.958,0,0,1,2.031.248c.45.094.838.42,1.272.529a5.5,5.5,0,0,1,3.01,2.465,3.163,3.163,0,0,1,.355,1.6,1.953,1.953,0,0,0,.42,1.193,4.844,4.844,0,0,1,.854,1.77c.186.637.558,1.193.79,1.8a7.253,7.253,0,0,1,.527,1.707C11637.122-14346.207,11637.23-14344.936,11637.386-14343.664Zm.62-58.926c-.17.59-.357,1.209-.526,1.846a9.556,9.556,0,0,1-.481,1.566c-.4.822-.993,1.568-1.334,2.4a6.075,6.075,0,0,1-2.729,2.605,1.865,1.865,0,0,1-.48.2,4.827,4.827,0,0,0-1.691.744.917.917,0,0,1-.5.17c-1.706.248-3.413.574-5.057-.264-.636-.326-1.35-.465-1.97-.791a8.39,8.39,0,0,1-2.109-1.5,12.6,12.6,0,0,1-2.312-3.506,8.835,8.835,0,0,1-1.024-5.289,1.56,1.56,0,0,0,.017-.605,2.662,2.662,0,0,1,.435-2.156,17.034,17.034,0,0,1,1.83-2.916,4.175,4.175,0,0,0,.325-.713,3.531,3.531,0,0,1,1.474-1.643,15.2,15.2,0,0,1,6.282-2.049,3.872,3.872,0,0,1,1.457.2c.637.17,1.257.4,1.894.621.062.016.124,0,.17.031a6.908,6.908,0,0,1,2.963,2.188c.743,1.146,1.473,2.311,2.187,3.475a4.065,4.065,0,0,1,.512,1.24C11637.557-14405.4,11637.742-14404.047,11638.006-14402.59Z" transform="translate(-11595.104 14447.62)"/>
</svg>
