<?xml version="1.0" standalone="no"?>
<!DOCTYPE svg PUBLIC "-//W3C//DTD SVG 20010904//EN"
 "http://www.w3.org/TR/2001/REC-SVG-20010904/DTD/svg10.dtd">
<svg version="1.0" xmlns="http://www.w3.org/2000/svg"
 width="800.000000pt" height="1050.000000pt" viewBox="0 0 800.000000 1050.000000"
 preserveAspectRatio="xMidYMid meet">
<metadata>
Created by potrace 1.16, written by Peter Selinger 2001-2019
</metadata>
<g transform="translate(0.000000,1050.000000) scale(0.100000,-0.100000)"
fill="#000000" stroke="none">
<path d="M3200 7272 c0 -6 -7 -9 -15 -6 -8 4 -21 2 -28 -4 -12 -10 -63 -9
-130 4 -32 6 -37 4 -31 -10 3 -9 1 -16 -5 -16 -6 0 -11 5 -11 11 0 6 -6 9 -14
6 -8 -3 -17 -1 -20 6 -2 7 -5 4 -5 -6 -1 -16 -3 -17 -16 -4 -15 15 -48 12
-105 -11 -14 -5 -49 -8 -77 -6 -44 2 -53 0 -53 -13 0 -15 -1 -15 -13 1 -10 13
-18 15 -37 8 -14 -5 -39 -8 -57 -6 -21 2 -33 -1 -37 -12 -4 -11 -10 -12 -22
-6 -20 11 -54 4 -54 -10 0 -6 -7 -7 -16 -4 -9 3 -21 3 -27 -1 -6 -4 -23 -8
-37 -9 -14 -2 -32 -4 -40 -7 -8 -2 -28 -7 -45 -12 -16 -4 -34 -10 -40 -13 -5
-3 -28 -5 -52 -3 -29 2 -43 -2 -43 -10 0 -7 -3 -9 -7 -6 -3 4 -13 1 -21 -6
-13 -10 -14 -9 -7 2 6 11 2 12 -21 6 -16 -5 -46 -9 -66 -10 -21 -1 -46 -9 -55
-17 -10 -9 -37 -19 -60 -23 -30 -5 -43 -12 -44 -23 0 -16 -1 -16 -7 -1 -9 21
-52 7 -52 -16 0 -8 -7 -15 -15 -15 -8 0 -15 5 -15 10 0 18 -40 11 -41 -7 0
-10 -3 -13 -5 -7 -3 8 -16 9 -42 3 -20 -5 -45 -6 -54 -3 -10 3 -23 2 -30 -3
-7 -4 -19 -8 -27 -10 -8 -1 -17 -5 -20 -10 -7 -9 -22 -13 -63 -16 -15 -1 -28
-5 -28 -9 0 -10 -40 -21 -78 -23 -18 0 -36 -6 -40 -12 -4 -6 -24 -14 -46 -17
-21 -4 -42 -8 -46 -11 -5 -3 -10 0 -12 6 -2 5 -11 7 -21 4 -9 -4 -14 -12 -10
-18 4 -6 0 -8 -10 -4 -9 3 -18 0 -21 -9 -3 -8 -16 -14 -28 -14 -13 0 -36 -9
-52 -19 -17 -11 -33 -18 -38 -15 -4 3 -8 0 -8 -5 0 -6 -7 -11 -15 -11 -8 0
-15 -4 -15 -10 0 -5 -7 -10 -14 -10 -8 0 -37 -20 -63 -45 -26 -25 -54 -43 -61
-40 -7 2 -10 0 -7 -5 3 -6 1 -10 -5 -10 -7 0 -9 -7 -6 -15 4 -11 0 -15 -12
-13 -11 2 -17 -3 -16 -14 1 -10 -2 -16 -6 -13 -4 2 -17 -5 -28 -16 -12 -11
-22 -15 -22 -9 0 6 -5 8 -10 5 -6 -4 -7 -11 -4 -17 4 -6 1 -9 -6 -6 -17 5 -73
-49 -65 -62 3 -6 1 -10 -4 -10 -6 0 -11 5 -11 11 0 15 -68 -61 -73 -83 -3 -10
-1 -21 4 -24 5 -3 9 -13 9 -22 0 -14 -2 -13 -13 2 -13 17 -15 16 -27 -15 -7
-19 -19 -39 -27 -45 -8 -7 -16 -24 -19 -39 -3 -16 -9 -36 -14 -45 -5 -10 -7
-20 -3 -23 3 -4 0 -13 -6 -21 -7 -8 -10 -20 -6 -26 3 -5 1 -10 -5 -10 -7 0
-10 -7 -6 -15 3 -8 1 -15 -4 -15 -20 0 -35 -147 -17 -169 8 -10 9 -13 0 -8 -6
4 -14 3 -18 -3 -3 -5 0 -10 7 -10 10 0 11 -2 0 -8 -7 -5 -12 -22 -11 -38 1
-16 0 -36 -2 -44 -2 -8 2 -14 9 -12 16 3 15 -6 -2 -24 -8 -8 -13 -28 -12 -46
2 -18 -1 -39 -7 -45 -6 -9 -5 -18 3 -28 7 -8 9 -15 4 -15 -5 0 -8 -46 -7 -102
1 -56 -1 -107 -6 -112 -5 -6 -5 -20 -1 -31 4 -11 4 -29 0 -40 -11 -31 -5 -192
8 -208 7 -8 9 -17 5 -21 -4 -4 -8 -19 -9 -34 -1 -15 -2 -27 -3 -27 -2 0 -3
-18 -4 -39 -2 -30 2 -40 16 -44 21 -5 22 -18 1 -26 -8 -3 -12 -2 -9 4 3 6 2
10 -4 10 -12 0 -12 -78 0 -86 5 -3 9 -10 9 -15 0 -6 -4 -7 -10 -4 -6 4 -7 -2
-1 -17 4 -13 7 -70 5 -128 -2 -76 1 -111 12 -127 9 -15 10 -23 2 -25 -8 -3 -8
-10 1 -25 6 -12 11 -33 11 -47 0 -13 7 -31 15 -39 8 -8 11 -17 8 -21 -3 -3 0
-12 7 -21 10 -12 10 -15 0 -15 -9 0 -10 -3 -1 -13 6 -8 8 -17 4 -20 -6 -6 11
-11 30 -8 4 0 7 -4 7 -10 0 -6 -7 -8 -16 -5 -15 6 -15 4 1 -20 9 -15 12 -23 6
-20 -14 9 -14 2 3 -59 7 -27 11 -56 8 -63 -2 -7 0 -18 5 -25 5 -7 10 -32 12
-57 2 -54 19 -138 33 -164 7 -13 6 -21 -2 -26 -9 -6 -9 -10 3 -16 16 -9 46
-105 52 -164 2 -19 10 -60 19 -90 8 -30 22 -82 31 -115 9 -32 24 -64 33 -71
14 -10 14 -14 3 -28 -9 -11 -10 -16 -2 -16 6 0 11 -6 11 -14 0 -8 8 -17 18
-19 16 -4 16 -5 0 -6 -22 -1 -23 -13 -2 -53 9 -18 11 -27 4 -23 -9 6 -9 2 0
-15 6 -12 9 -24 6 -27 -3 -3 2 -12 10 -20 8 -9 13 -21 10 -28 -2 -7 4 -22 15
-33 10 -12 19 -28 19 -37 0 -8 4 -15 10 -15 5 0 6 -7 3 -17 -4 -10 -2 -14 4
-10 6 4 9 -3 7 -18 -1 -14 1 -25 5 -25 4 0 8 -7 8 -15 0 -8 -5 -15 -11 -15 -6
0 -4 -5 4 -10 8 -5 11 -10 7 -10 -4 0 -2 -6 5 -14 7 -8 16 -12 20 -9 5 2 9 -4
9 -14 3 -44 7 -61 15 -74 4 -7 9 -22 10 -33 0 -11 6 -22 12 -24 7 -2 12 -11
12 -21 0 -9 5 -22 12 -29 7 -7 8 -12 4 -12 -5 0 -3 -7 4 -15 7 -9 10 -18 7
-21 -3 -4 5 -18 18 -32 13 -14 22 -29 19 -34 -3 -4 4 -18 15 -30 12 -12 21
-27 21 -34 0 -17 28 -26 34 -11 3 7 5 6 5 -3 -1 -8 2 -26 6 -38 6 -17 10 -20
16 -11 4 7 6 -6 4 -28 -3 -29 0 -43 10 -46 8 -4 11 -14 8 -28 -4 -14 -2 -20 4
-16 6 4 10 -1 9 -11 -1 -12 5 -16 23 -14 16 1 22 -2 18 -12 -4 -10 0 -12 15
-8 19 5 20 2 14 -24 -4 -16 -4 -26 0 -22 3 4 16 -4 27 -18 17 -22 18 -27 6
-35 -12 -7 -12 -9 1 -10 8 -1 17 -1 20 -1 3 0 11 -6 18 -14 11 -12 10 -14 -3
-14 -8 0 -15 -2 -15 -5 0 -14 45 -65 57 -65 7 0 13 -9 13 -20 0 -12 7 -20 18
-20 14 0 15 -2 2 -10 -13 -9 -13 -10 0 -11 8 -1 19 -1 23 0 5 1 6 -3 2 -9 -3
-5 1 -13 9 -16 9 -3 16 -13 16 -21 0 -8 8 -13 18 -12 30 3 42 -1 42 -12 0 -5
-4 -7 -10 -4 -5 3 -10 2 -10 -4 0 -5 9 -13 20 -16 11 -3 20 -13 20 -20 0 -9 6
-12 15 -9 18 7 19 0 4 -28 -9 -18 -9 -20 4 -15 11 4 18 -1 23 -15 5 -16 8 -18
15 -7 7 11 9 11 9 -3 0 -9 14 -25 30 -35 17 -9 30 -22 30 -28 0 -6 12 -21 26
-34 21 -19 28 -20 41 -9 14 11 16 10 11 -10 -4 -12 -3 -20 2 -17 4 3 10 -5 14
-18 3 -13 20 -30 40 -40 27 -12 34 -21 29 -33 -5 -13 -2 -16 10 -11 9 3 17 2
17 -3 0 -6 -4 -10 -10 -10 -18 0 -11 -20 8 -20 21 -1 54 -25 45 -33 -6 -6 29
-11 49 -8 5 0 7 -4 5 -11 -1 -7 3 -12 10 -13 6 0 15 -3 19 -7 4 -4 14 -2 23 5
14 10 14 10 4 -3 -17 -22 1 -42 50 -55 4 -2 10 -4 15 -5 4 -1 16 -3 27 -4 14
-1 19 -7 17 -20 -3 -15 1 -18 17 -13 16 4 21 1 19 -11 -2 -12 3 -16 16 -14 11
2 15 -1 11 -8 -5 -7 2 -9 19 -4 20 5 25 3 21 -7 -4 -10 14 -23 55 -41 33 -15
63 -27 67 -26 3 0 10 -7 15 -16 6 -10 18 -15 34 -12 13 3 24 0 24 -5 0 -6 4
-7 10 -4 5 3 21 -2 35 -11 14 -9 25 -14 25 -11 0 3 20 -1 44 -8 32 -10 47 -10
55 -2 8 8 11 8 11 -2 0 -7 4 -9 10 -6 5 3 24 -2 42 -11 20 -10 58 -18 95 -18
34 -1 57 -3 51 -5 -6 -2 7 -10 28 -17 21 -8 45 -12 52 -9 6 2 12 -1 12 -8 0
-8 3 -8 9 2 7 11 13 11 32 1 17 -10 24 -10 27 -1 6 17 22 13 22 -6 0 -14 2
-15 9 -4 6 9 16 11 32 5 13 -4 32 -7 42 -5 9 1 17 -3 17 -10 0 -8 3 -9 13 0 8
6 17 7 21 3 4 -4 14 2 22 12 7 11 17 16 21 12 4 -4 1 -11 -7 -16 -8 -6 -13
-10 -10 -11 3 0 14 -2 25 -4 11 -2 32 -6 48 -9 15 -3 27 -2 27 3 0 5 36 8 80
7 80 -1 89 1 70 20 -7 7 -6 11 4 11 8 0 13 -4 10 -9 -3 -4 0 -8 5 -8 19 0 26
-2 44 -11 12 -7 17 -6 17 3 0 9 3 10 8 2 4 -6 15 -8 26 -5 17 7 17 8 2 24 -10
9 -14 17 -9 17 5 0 17 -10 27 -22 18 -21 19 -21 32 -3 8 10 14 14 14 9 0 -7
19 -8 58 -2 31 5 84 11 116 13 33 3 63 10 68 17 6 10 8 10 8 -2 0 -12 2 -12 9
-2 4 7 12 12 17 11 26 -5 35 2 29 21 -4 11 -2 20 4 20 6 0 11 -8 11 -17 0 -15
2 -15 9 -4 5 8 16 11 24 8 9 -3 18 -1 21 6 5 9 7 9 12 -1 3 -6 11 -9 17 -5 11
7 50 13 89 14 11 0 15 6 11 16 -4 10 -2 14 4 10 6 -4 44 5 84 19 41 13 81 25
89 26 8 0 21 5 28 11 6 5 12 6 12 2 0 -4 7 -2 15 5 9 7 18 10 22 7 10 -11 44
13 37 26 -4 7 -4 9 1 5 4 -4 14 -3 22 3 7 6 13 8 13 3 0 -4 11 3 25 16 14 13
25 20 25 16 0 -5 7 -3 15 4 8 6 19 9 25 5 5 -3 10 1 10 9 0 14 23 21 51 18 4
-1 23 15 43 34 20 19 36 30 36 24 0 -6 26 9 58 34 32 25 64 46 70 46 7 0 12 4
12 9 0 12 130 141 144 142 6 1 14 1 19 0 4 0 7 6 7 14 0 8 9 20 20 27 11 7 20
16 20 20 0 12 38 48 50 48 14 0 50 37 42 45 -3 3 4 8 17 12 17 4 19 8 9 14
-10 7 -10 9 2 9 17 0 52 35 43 43 -2 3 4 8 15 11 11 4 27 23 36 44 8 20 15 29
15 19 1 -14 4 -15 14 -5 8 7 12 20 9 30 -3 14 0 17 12 12 12 -4 16 0 16 16 0
11 5 18 10 15 6 -3 10 -1 10 4 0 6 7 11 15 11 8 0 14 3 13 8 -2 12 23 66 35
74 8 5 6 12 -8 22 -19 14 -18 15 12 10 29 -5 33 -2 44 31 7 19 17 35 22 35 4
0 6 4 2 9 -3 5 0 13 6 16 5 4 8 14 5 22 -3 8 -1 11 4 8 6 -3 10 0 10 9 0 8 6
17 13 19 10 4 10 6 0 6 -7 1 -13 5 -13 10 0 6 9 8 20 6 14 -3 20 2 20 15 0 10
7 20 15 24 8 3 15 12 15 21 0 8 4 15 9 15 11 0 33 59 26 70 -3 4 2 11 11 14
10 4 13 13 9 26 -4 13 0 23 15 32 29 18 63 75 56 94 -3 8 -2 12 4 9 6 -3 15
-3 22 1 8 5 7 9 -5 13 -15 6 -14 8 4 19 12 8 18 9 14 3 -3 -6 -1 -11 4 -11 6
0 11 5 11 11 0 5 5 7 10 4 9 -6 14 8 11 28 -1 7 15 11 32 8 4 0 7 4 7 10 0 5
4 8 8 5 5 -3 18 4 30 14 12 11 29 21 39 23 10 1 24 6 32 11 12 8 23 10 69 15
7 0 10 6 7 11 -6 9 20 14 57 11 9 -1 19 3 23 9 3 5 11 10 16 10 6 0 7 -5 3
-12 -5 -8 0 -9 17 -4 13 4 34 10 47 13 12 3 22 12 22 19 0 8 4 14 10 14 5 0 9
-3 9 -7 -4 -28 2 -33 18 -17 14 14 18 14 22 2 6 -15 83 -19 97 -5 4 4 12 7 18
7 6 0 4 -5 -4 -11 -11 -8 -9 -8 10 -3 38 11 80 13 80 3 0 -5 12 -4 26 2 15 5
29 7 32 5 2 -3 20 1 40 10 19 8 43 12 54 9 13 -5 16 -2 12 8 -3 10 2 13 18 12
13 -1 29 2 36 8 8 6 12 5 12 -3 0 -9 5 -8 18 3 10 9 27 14 39 11 11 -3 32 0
44 7 26 14 31 16 55 18 9 0 14 7 11 15 -4 10 0 12 15 8 14 -3 19 -1 14 6 -3 6
5 13 21 16 16 4 39 9 53 12 14 3 48 7 75 8 28 2 50 4 50 6 0 1 19 4 43 4 24 1
47 8 52 15 4 8 13 10 20 6 7 -4 15 -2 19 4 4 6 21 13 37 14 16 1 31 5 34 9 5
6 36 15 63 17 5 1 5 5 2 11 -3 5 3 10 14 10 28 0 52 11 45 21 -3 5 1 9 10 9 8
0 17 6 19 13 3 7 6 5 6 -5 1 -16 3 -16 21 2 11 11 20 24 20 29 0 4 21 14 48
21 26 7 57 22 69 33 12 10 26 16 32 13 5 -4 11 6 13 21 2 17 8 27 16 25 8 -1
11 2 7 8 -3 5 1 13 10 16 13 6 14 8 3 15 -9 6 -6 9 11 9 20 0 23 4 19 25 -4
20 -2 23 8 15 9 -8 14 -6 19 10 3 11 10 18 15 15 5 -3 12 5 16 17 4 13 26 43
50 68 24 25 44 51 44 58 0 6 4 12 10 12 5 0 9 3 9 8 -1 4 0 10 1 15 1 4 3 13
4 20 1 6 7 11 13 10 6 -1 10 5 9 14 -2 10 11 45 28 78 35 68 38 78 39 120 0
18 -4 29 -11 28 -13 -3 -16 10 -5 20 3 4 12 2 20 -4 19 -16 18 11 -2 37 -20
26 -19 37 4 31 16 -4 19 1 18 32 0 20 8 66 17 104 8 37 16 95 16 130 0 34 1
79 3 99 1 25 -2 39 -11 43 -11 4 -11 9 -3 19 6 7 8 16 4 19 -3 4 -1 7 5 7 7 0
12 9 12 20 0 29 -30 100 -43 100 -8 0 -8 3 0 11 8 8 8 20 3 34 -5 13 -6 26 -3
29 4 3 1 6 -5 6 -7 0 -12 9 -12 21 0 11 -4 17 -10 14 -5 -3 -7 0 -4 9 3 8 0
24 -6 36 -6 12 -14 34 -16 48 -3 15 -9 31 -15 36 -5 6 -9 20 -9 33 0 13 -8 31
-18 41 -20 20 -76 112 -67 112 3 0 -4 9 -15 20 -11 11 -20 25 -20 30 0 6 -5
10 -10 10 -6 0 -31 20 -55 45 -25 25 -49 44 -53 42 -4 -1 -25 17 -46 41 -21
23 -45 42 -52 42 -8 0 -13 3 -12 8 5 17 -14 52 -28 52 -8 0 -13 4 -10 9 6 8
-16 23 -39 26 -5 0 -9 7 -7 14 1 7 -2 10 -7 6 -14 -8 -60 34 -78 72 -9 20 -23
33 -34 33 -11 0 -19 5 -19 10 0 6 -11 10 -24 10 -13 0 -27 7 -30 16 -3 8 -10
13 -15 10 -5 -3 -12 1 -15 10 -3 8 -10 13 -15 10 -5 -4 -11 -1 -13 4 -6 18
-42 18 -55 1 -11 -14 -12 -14 -13 3 0 13 -5 17 -20 13 -11 -3 -23 0 -28 7 -12
21 -73 38 -88 25 -11 -9 -14 -8 -14 5 0 9 -8 16 -21 16 -11 0 -18 4 -14 9 3 6
-11 13 -32 16 -21 4 -46 9 -55 12 -10 2 -18 0 -18 -5 0 -6 -9 -8 -20 -5 -11 3
-20 12 -20 20 0 10 -4 11 -19 3 -16 -8 -22 -6 -29 6 -5 10 -21 18 -36 20 -14
1 -24 -1 -21 -7 3 -5 -1 -6 -9 -3 -9 3 -16 12 -16 20 0 8 -6 11 -15 8 -8 -4
-22 -1 -30 6 -8 7 -21 10 -29 7 -7 -3 -19 0 -25 6 -9 9 -11 8 -6 -4 4 -10 2
-20 -4 -24 -6 -3 -11 -2 -11 4 0 25 -32 41 -67 35 -26 -5 -34 -4 -29 5 5 8 0
10 -18 7 -14 -3 -28 -1 -30 3 -3 4 -25 7 -50 6 -25 0 -46 3 -46 7 0 4 -6 5
-13 2 -8 -3 -19 1 -25 9 -7 8 -23 12 -37 9 -15 -2 -25 0 -25 7 0 7 -5 9 -10 6
-15 -9 -31 38 -16 47 8 6 7 8 -1 8 -7 0 -13 9 -13 20 0 11 5 20 10 20 6 0 10
11 10 24 0 14 -4 28 -10 31 -5 3 -10 12 -10 18 0 7 4 6 10 -3 6 -9 10 -10 10
-3 0 6 -5 15 -10 18 -7 4 -7 12 0 24 5 10 7 21 4 24 -3 3 -7 27 -9 54 -6 80
-28 148 -45 138 -4 -3 -7 3 -6 13 0 9 -5 16 -11 14 -7 -1 -13 4 -13 11 0 7 -9
19 -19 27 -11 7 -17 18 -14 24 4 5 -1 7 -11 3 -13 -5 -19 -1 -23 13 -3 10 -14
22 -24 25 -10 3 -28 24 -41 46 -12 21 -25 39 -29 39 -5 0 -18 11 -31 24 -13
14 -30 26 -38 28 -8 2 -30 13 -49 25 -19 12 -39 19 -44 16 -6 -3 -7 -1 -3 5 4
7 1 12 -9 12 -9 0 -14 4 -11 9 3 4 -27 26 -66 47 -43 23 -81 52 -94 72 -14 20
-24 28 -27 20 -4 -8 -6 -7 -6 4 -1 9 -14 21 -31 27 -16 5 -30 15 -30 21 0 6
-4 8 -10 5 -5 -3 -10 -1 -10 5 0 6 -5 8 -10 5 -6 -4 -9 -1 -8 6 2 7 -8 16 -22
20 -14 4 -18 8 -10 9 9 1 6 5 -9 11 -16 6 -28 6 -37 -2 -16 -13 -37 -2 -30 17
4 9 -2 14 -15 14 -14 0 -19 5 -16 14 3 8 -1 17 -9 20 -22 8 -26 7 -19 -3 3 -5
1 -12 -4 -15 -5 -3 -11 1 -15 9 -7 18 -33 20 -39 3 -5 -16 -18 -6 -21 19 -2
12 -10 17 -25 15 -12 -2 -20 0 -19 5 2 5 -4 16 -12 24 -11 12 -22 14 -43 8
-22 -6 -26 -5 -19 4 8 9 0 13 -29 14 -21 2 -39 -2 -39 -7 0 -6 -4 -10 -9 -10
-5 0 -7 9 -4 20 4 14 0 20 -11 20 -9 0 -16 5 -16 10 0 6 -3 9 -7 8 -5 -1 -17
3 -29 9 -23 13 -144 23 -144 11 0 -3 -14 0 -30 9 -36 18 -80 24 -80 11 0 -5
-9 -4 -20 2 -11 6 -20 8 -20 4 0 -3 -7 -1 -15 6 -10 9 -15 9 -15 1 0 -11 -34
-10 -46 2 -4 3 -15 2 -25 -4 -13 -7 -26 -6 -40 2 -17 9 -23 8 -30 -2 -7 -11
-9 -11 -9 2 0 11 -8 16 -22 15 -13 -1 -26 2 -29 6 -3 5 -43 11 -90 13 -132 8
-180 14 -193 23 -6 5 -25 8 -43 7 -17 0 -30 2 -27 6 7 12 -34 17 -45 6 -8 -8
-11 -8 -11 1 0 9 -5 10 -17 4 -10 -5 -28 -8 -41 -6 -13 2 -21 0 -18 -4 6 -9
-47 -7 -63 3 -6 3 -11 2 -11 -4 0 -7 -8 -7 -23 -2 -12 5 -43 8 -67 6 -25 -1
-49 0 -54 3 -18 10 -112 9 -125 -1 -12 -10 -14 -9 -9 5 5 12 1 16 -16 14 -13
-2 -28 -6 -34 -10 -6 -3 -13 -2 -17 3 -4 7 -15 7 -31 1 -14 -6 -35 -10 -47 -9
-21 0 -21 1 -2 10 15 7 10 8 -18 3 -22 -3 -37 -1 -34 3 6 10 -81 9 -90 -1 -3
-3 -12 -1 -20 5 -9 8 -13 8 -13 1z m-114 -229 c-1 -15 7 -18 49 -17 64 2 84 7
96 25 7 11 9 11 9 1 0 -7 4 -11 9 -7 5 3 12 1 15 -3 6 -11 56 -3 56 7 0 4 7 8
15 8 8 0 12 -4 9 -9 -3 -5 8 -6 25 -3 16 3 33 1 36 -5 3 -5 1 -10 -6 -10 -7 0
-10 -2 -7 -5 8 -8 39 6 33 15 -3 5 -1 11 5 15 5 3 10 0 10 -8 0 -16 51 -18 62
-3 4 6 14 4 25 -5 17 -15 34 -16 93 -6 13 2 42 -4 64 -14 37 -16 41 -16 54 -1
12 15 13 15 9 1 -4 -12 0 -15 19 -11 13 2 21 9 17 15 -3 6 -1 7 6 3 14 -9 161
-11 188 -2 12 4 24 2 28 -4 3 -5 22 -10 41 -10 21 0 33 4 29 10 -3 6 -2 10 4
10 5 0 13 -9 16 -21 6 -17 9 -18 23 -7 10 8 13 9 9 1 -5 -8 4 -11 33 -8 22 2
40 0 40 -5 0 -6 10 -6 25 0 16 6 25 6 25 0 0 -6 9 -6 25 0 15 6 27 6 30 0 3
-5 12 -7 20 -3 8 3 15 -1 15 -8 0 -7 3 -9 7 -6 3 4 12 2 19 -4 22 -18 140 -21
154 -4 10 12 16 12 39 1 16 -9 34 -11 48 -5 17 6 23 4 28 -11 4 -12 14 -17 31
-15 13 1 27 -1 30 -6 2 -4 12 -5 21 -2 11 5 14 3 9 -6 -6 -8 2 -7 23 3 17 9
31 12 31 7 0 -5 11 -12 25 -15 14 -4 25 -10 25 -14 0 -4 17 -9 37 -10 21 -2
40 -7 44 -13 3 -6 18 -11 32 -13 15 -1 30 -5 33 -9 3 -3 12 -3 20 0 8 3 30 -7
49 -21 19 -15 39 -25 44 -21 5 3 12 1 16 -5 4 -6 10 -8 15 -5 5 3 14 0 22 -7
7 -7 24 -15 37 -16 13 -2 30 -10 38 -17 7 -8 22 -17 33 -20 11 -3 20 -11 20
-16 0 -5 8 -9 18 -9 15 0 15 2 2 11 -13 9 -13 10 0 6 8 -2 15 -8 15 -14 0 -13
31 -43 45 -43 6 0 8 -5 4 -12 -5 -7 0 -9 14 -6 15 4 19 2 15 -8 -3 -8 -1 -14
3 -14 14 -1 84 -67 78 -73 -3 -3 2 -4 11 -3 9 1 21 9 27 17 8 11 9 10 4 -4 -6
-19 37 -66 62 -67 6 0 12 -4 12 -10 0 -5 6 -7 14 -4 7 3 22 -6 33 -19 10 -13
28 -27 40 -31 12 -4 24 -14 27 -22 3 -8 10 -12 16 -9 5 3 10 -1 10 -9 0 -9 5
-16 10 -16 6 0 10 -6 10 -13 0 -19 35 -49 45 -40 4 5 2 -2 -4 -15 -11 -21 -9
-92 5 -134 3 -10 2 -23 -2 -30 -4 -7 -7 -28 -6 -48 5 -69 4 -99 -3 -110 -4 -7
-9 -31 -11 -53 -2 -28 0 -36 7 -27 5 8 9 11 9 5 0 -5 -4 -17 -9 -24 -6 -9 -6
-22 1 -35 8 -15 7 -22 -8 -33 -10 -7 -14 -13 -8 -13 5 0 17 -12 27 -25 13 -18
14 -23 3 -19 -8 3 -17 1 -21 -5 -9 -15 4 -53 16 -46 5 4 9 1 9 -4 0 -6 -5 -11
-11 -11 -12 0 15 -48 54 -95 19 -23 33 -32 44 -28 12 5 14 3 8 -7 -6 -10 -4
-12 8 -7 11 4 14 2 11 -7 -7 -19 44 -30 64 -14 13 11 14 11 7 -1 -6 -11 -4
-13 8 -8 10 4 21 -1 27 -11 10 -15 11 -15 6 2 -6 18 -5 18 18 2 24 -15 31 -15
74 0 22 9 95 4 102 -5 3 -5 19 -9 35 -9 17 -1 52 -5 80 -11 27 -5 53 -7 57 -5
5 3 8 1 8 -4 0 -5 20 -8 45 -7 28 0 46 -4 49 -12 3 -7 12 -10 20 -7 8 3 24 -3
35 -13 12 -10 35 -18 50 -19 16 0 36 -6 44 -12 8 -7 36 -14 61 -15 25 -1 46
-5 46 -9 0 -5 7 -8 15 -8 8 0 15 -5 15 -11 0 -5 4 -8 9 -5 4 3 25 -4 47 -14
41 -22 69 -26 59 -10 -3 6 -2 10 3 10 5 0 14 -11 20 -25 12 -25 26 -32 36 -17
8 14 68 1 99 -20 15 -11 27 -15 27 -9 0 6 5 11 11 11 6 0 8 -9 4 -22 -6 -16
-4 -20 8 -15 11 4 34 -13 69 -49 29 -30 69 -63 88 -74 20 -10 44 -30 55 -43
11 -15 24 -23 33 -19 11 4 14 1 9 -10 -5 -14 1 -20 33 -33 52 -21 70 -31 70
-40 0 -6 26 -38 58 -71 52 -55 103 -136 109 -175 5 -30 32 -129 38 -140 11
-17 13 -59 3 -65 -5 -3 -5 -11 0 -17 14 -19 23 -49 12 -42 -6 3 -10 -1 -10
-10 0 -10 5 -13 12 -9 7 5 8 3 2 -7 -14 -23 -10 -83 6 -97 8 -8 10 -11 4 -8
-16 8 -36 -18 -28 -37 3 -8 0 -18 -6 -22 -9 -6 -9 -10 1 -16 10 -6 11 -9 2 -9
-7 0 -13 -11 -13 -25 0 -14 6 -25 13 -25 9 0 9 -2 -1 -9 -7 -4 -12 -12 -11
-17 1 -5 -3 -22 -10 -39 -7 -16 -10 -37 -8 -47 3 -9 0 -16 -6 -15 -6 1 -12 -5
-13 -13 0 -8 -2 -23 -2 -32 -1 -10 -9 -18 -17 -18 -11 0 -14 -7 -9 -25 3 -14
2 -25 -2 -25 -11 0 -30 -43 -39 -87 -4 -18 -10 -33 -15 -33 -5 0 -22 -19 -40
-42 -17 -24 -34 -41 -38 -38 -4 3 -12 -7 -19 -21 -7 -15 -29 -40 -49 -55 -20
-16 -47 -45 -60 -64 -15 -21 -24 -28 -24 -18 0 11 -6 15 -21 11 -12 -4 -18
-11 -15 -20 3 -8 2 -12 -3 -9 -12 8 -33 -19 -23 -29 4 -5 1 -5 -6 -1 -15 9
-54 -2 -48 -13 6 -8 -33 -45 -40 -38 -10 9 -79 -22 -76 -35 3 -10 1 -10 -8 -1
-9 9 -23 7 -57 -8 -24 -10 -41 -14 -38 -9 10 16 -11 11 -26 -6 -7 -9 -21 -13
-34 -10 -12 3 -25 3 -29 -1 -14 -14 -38 -12 -32 3 4 11 -3 9 -24 -6 -16 -11
-45 -21 -64 -22 -20 -1 -43 -9 -52 -19 -9 -10 -21 -15 -28 -13 -7 3 -18 -2
-25 -10 -6 -8 -21 -12 -34 -9 -17 4 -19 2 -8 -5 11 -8 6 -10 -20 -9 -21 1 -33
-2 -32 -9 1 -7 -6 -10 -17 -7 -11 3 -20 0 -20 -6 0 -7 -10 -9 -26 -7 -14 3
-38 0 -52 -7 -32 -13 -132 -16 -132 -3 0 4 -11 1 -24 -7 -18 -12 -26 -13 -36
-4 -10 9 -11 9 -6 0 4 -7 2 -13 -3 -13 -6 0 -11 4 -11 8 0 4 -8 8 -17 9 -10 1
-38 6 -62 11 -32 7 -50 6 -69 -4 -14 -7 -30 -10 -35 -7 -5 3 -13 -1 -18 -8 -8
-12 -11 -12 -18 1 -6 8 -13 11 -17 7 -4 -4 -13 -2 -21 4 -10 9 -17 8 -28 -1
-9 -7 -18 -10 -22 -6 -3 3 -15 -2 -25 -11 -18 -16 -18 -16 -12 0 9 24 -11 21
-35 -4 -11 -13 -24 -18 -32 -14 -8 5 -10 4 -5 -3 4 -7 1 -12 -8 -12 -9 0 -16
-4 -16 -9 0 -5 -8 -8 -17 -7 -11 0 -17 -5 -15 -14 3 -12 1 -12 -9 -3 -7 7 -19
9 -34 3 -13 -5 -26 -6 -29 -3 -3 4 -6 1 -6 -5 0 -7 -9 -12 -20 -12 -11 0 -20
-6 -20 -13 0 -8 -12 -20 -26 -27 -16 -9 -24 -20 -21 -31 3 -12 -1 -15 -13 -12
-16 4 -75 -59 -64 -70 3 -2 -9 -19 -26 -36 -17 -17 -28 -31 -23 -31 4 0 0 -5
-9 -11 -10 -5 -18 -16 -18 -24 0 -8 -11 -17 -24 -21 -17 -4 -22 -11 -19 -25 3
-11 0 -19 -6 -19 -7 0 -9 -4 -6 -10 3 -5 1 -10 -4 -10 -6 0 -14 -18 -17 -40
-4 -22 -10 -40 -15 -40 -5 0 -9 -9 -9 -19 0 -11 -5 -23 -10 -26 -6 -4 -8 -11
-5 -16 4 -5 2 -9 -4 -9 -6 0 -8 -6 -5 -14 3 -7 -2 -16 -10 -19 -19 -8 -21 -33
-3 -41 6 -3 3 -4 -7 -3 -10 1 -21 -4 -24 -12 -3 -10 0 -12 12 -8 11 4 15 3 11
-4 -4 -5 -12 -8 -18 -6 -21 7 -59 -42 -54 -69 3 -18 -1 -27 -17 -35 -21 -10
-21 -10 -1 7 13 10 14 15 5 12 -8 -2 -19 -14 -25 -26 -5 -12 -13 -22 -17 -22
-5 0 -8 -5 -8 -11 0 -6 -9 -22 -20 -37 -16 -20 -18 -27 -8 -34 10 -6 9 -8 -3
-8 -24 0 -81 -84 -67 -98 9 -9 5 -12 -19 -12 -18 0 -39 -9 -54 -24 -35 -36
-54 -60 -52 -67 1 -3 -8 -12 -21 -19 -13 -7 -28 -22 -34 -34 -5 -12 -26 -33
-45 -46 -25 -17 -35 -31 -33 -45 2 -11 1 -14 -1 -8 -5 15 -23 17 -23 4 0 -5
-8 -12 -18 -15 -21 -7 -54 -60 -44 -71 4 -5 2 -5 -5 -2 -16 10 -43 -3 -43 -20
0 -9 -6 -13 -14 -10 -9 4 -19 -5 -26 -24 -12 -27 -20 -33 -45 -30 -14 1 -85
-58 -85 -70 0 -6 4 -7 10 -4 6 3 10 2 10 -4 0 -17 -18 -22 -23 -6 -9 22 -59 6
-109 -33 -9 -8 -21 -11 -26 -8 -5 3 -16 -2 -23 -11 -8 -9 -33 -25 -56 -35 -23
-10 -45 -23 -48 -28 -3 -6 -11 -10 -16 -10 -6 0 -7 5 -3 11 9 15 -50 -16 -71
-37 -10 -10 -31 -17 -52 -16 -27 1 -34 -2 -29 -13 6 -17 -19 -21 -29 -5 -4 6
-15 4 -29 -5 -12 -8 -26 -12 -29 -8 -4 3 -7 1 -7 -5 0 -6 -7 -9 -17 -5 -11 4
-14 3 -9 -5 9 -16 -7 -15 -22 0 -7 7 -12 8 -12 2 0 -5 -12 -11 -27 -12 -22 -1
-24 0 -13 8 9 6 10 10 3 10 -6 0 -18 -6 -25 -12 -7 -7 -21 -14 -31 -16 -10 -2
-37 -11 -60 -21 -27 -11 -64 -17 -104 -16 -34 1 -60 -2 -57 -7 3 -4 -3 -5 -12
-1 -14 5 -16 3 -10 -12 7 -18 6 -18 -13 -1 -10 9 -22 13 -25 8 -6 -10 -88 -8
-105 3 -6 3 -11 2 -11 -4 0 -5 6 -12 13 -14 6 -3 -5 -3 -25 0 -23 3 -44 1 -53
-7 -12 -10 -15 -10 -15 2 0 12 -10 14 -47 11 -110 -9 -172 -10 -167 -2 3 5 -2
6 -10 3 -9 -3 -16 -11 -16 -16 0 -7 -5 -6 -13 1 -8 6 -17 8 -20 4 -4 -3 -7 0
-7 8 0 11 -18 14 -88 13 -48 0 -95 4 -105 9 -10 4 -31 9 -48 9 -16 1 -29 4
-29 7 0 4 -8 7 -17 8 -28 3 -68 10 -70 13 -2 1 -6 3 -10 5 -5 1 -16 5 -26 9
-9 5 -26 6 -37 3 -11 -3 -23 -1 -26 5 -3 5 -12 7 -20 4 -8 -3 -14 -1 -14 5 0
6 -9 8 -20 4 -11 -4 -20 -2 -20 4 0 6 -6 11 -14 11 -8 0 -21 7 -30 15 -16 17
-63 17 -86 1 -13 -10 -13 -9 -1 6 12 16 10 20 -24 34 -31 13 -40 13 -47 2 -7
-10 -8 -8 -4 5 6 19 -10 24 -17 5 -4 -8 -6 -7 -6 4 -1 9 2 18 7 21 4 2 2 2 -5
1 -20 -5 -73 20 -73 34 0 9 -7 11 -20 7 -14 -4 -20 -2 -18 7 2 8 -5 12 -19 11
-16 -2 -21 1 -16 13 3 8 2 14 -3 13 -16 -4 -49 14 -77 43 -29 29 -42 34 -50
21 -2 -5 -2 -3 -1 4 2 7 -1 15 -7 18 -5 4 -6 11 -3 17 4 6 2 8 -3 5 -6 -4 -13
0 -17 8 -3 8 -12 12 -21 9 -11 -5 -14 -2 -8 12 4 11 3 15 -4 11 -6 -4 -10 -1
-9 6 0 6 -1 12 -4 12 -3 0 -19 12 -35 27 -16 16 -38 28 -48 28 -10 0 -17 5
-15 11 4 13 -174 199 -190 199 -7 0 -12 6 -12 13 0 8 -9 22 -20 32 -11 10 -20
23 -20 30 0 13 -52 65 -66 65 -17 1 -66 47 -56 54 11 7 -7 56 -20 56 -5 0 -8
6 -8 14 0 7 -7 19 -15 26 -8 7 -18 30 -21 51 -4 23 -12 39 -20 39 -8 0 -14 7
-14 15 0 8 -3 15 -8 15 -8 0 -42 73 -42 90 0 6 -7 10 -16 10 -8 0 -12 5 -9 10
3 6 0 10 -7 10 -7 0 -22 7 -32 15 -15 11 -17 18 -9 26 13 13 2 44 -31 94 -21
30 -22 34 -25 59 0 8 -7 21 -14 28 -21 21 -26 45 -14 58 9 9 9 11 1 7 -12 -7
-22 21 -30 83 -3 19 -11 41 -19 50 -8 9 -15 22 -15 28 0 6 -7 15 -15 19 -9 5
-16 26 -18 48 -1 22 -7 47 -12 55 -6 8 -15 24 -21 35 -5 11 -18 19 -26 19 -9
-1 -19 5 -23 13 -4 11 0 14 14 10 18 -4 18 -3 5 29 -8 18 -14 41 -14 51 0 10
-7 30 -14 46 -8 15 -11 27 -6 27 11 0 2 65 -13 102 -7 16 -15 28 -19 28 -5 0
-8 9 -8 19 0 11 -4 22 -9 25 -5 3 -7 19 -5 35 2 19 -2 31 -11 35 -8 3 -12 12
-9 21 3 8 2 15 -2 15 -5 0 -9 26 -8 57 0 32 -4 61 -9 65 -6 3 -11 19 -13 34
-2 16 -8 30 -14 32 -5 2 -10 10 -10 17 0 7 -7 16 -16 19 -14 5 -14 9 -3 23 12
15 12 16 -5 10 -14 -6 -16 -5 -8 5 13 16 13 30 0 45 -5 7 -8 25 -6 40 1 15 -2
27 -7 26 -6 -1 -10 11 -11 25 -4 98 -10 158 -16 162 -13 10 -18 90 -5 90 7 0
4 5 -5 11 -10 5 -18 21 -18 34 0 13 -10 31 -22 39 -12 9 -17 16 -11 16 16 0 6
74 -18 133 -20 49 -19 128 4 171 7 15 6 22 -7 31 -8 7 -13 15 -10 18 12 11 10
101 -2 127 -6 14 -9 31 -7 38 3 6 -1 12 -7 12 -9 0 -9 5 1 17 12 14 12 16 0 8
-11 -6 -12 -5 -5 6 5 8 9 31 10 52 0 33 -2 36 -20 31 -16 -4 -18 -3 -7 5 14 9
20 105 7 118 -2 3 -1 15 4 28 7 17 5 25 -6 29 -14 5 -14 8 0 22 20 19 20 19 1
48 -12 17 -14 40 -9 102 3 43 7 104 8 134 0 35 7 61 16 70 9 8 14 23 12 33 -2
9 2 17 10 17 10 0 9 3 -2 11 -12 8 -12 12 -2 16 26 10 -8 33 -40 26 -22 -4
-33 -2 -40 10 -5 10 -15 17 -23 17 -22 0 -22 33 -1 58 40 46 110 13 108 -51
-1 -21 3 -37 7 -37 5 0 8 32 7 70 0 39 3 70 8 70 4 0 5 12 2 28 -5 19 -4 23 3
12 9 -12 11 -12 17 3 3 9 4 25 2 35 -3 10 1 23 9 30 7 7 11 17 8 22 -3 5 2 24
12 42 9 18 19 44 20 57 2 13 11 30 19 38 7 8 14 20 14 27 0 16 46 56 55 48 4
-4 5 -2 4 3 -5 16 11 55 22 55 6 0 7 4 4 10 -3 6 1 7 9 4 9 -3 16 -1 16 4 0 6
10 14 22 18 12 3 31 15 42 25 18 17 37 24 58 20 4 0 5 5 2 13 -3 7 2 16 11 20
9 3 13 11 9 18 -5 8 -2 9 9 5 11 -4 20 1 27 13 6 11 20 20 30 20 11 0 30 11
41 25 12 13 35 27 50 30 17 4 26 11 23 17 -4 7 -2 8 5 4 14 -9 53 2 46 14 -4
7 35 18 92 25 12 2 28 7 35 11 7 5 22 9 33 10 41 2 76 15 97 36 18 18 22 19
27 6 4 -9 15 -14 29 -11 37 5 67 11 67 13 0 1 11 4 25 6 13 2 27 8 30 12 3 4
16 9 30 10 14 1 34 4 45 6 11 3 24 5 28 5 5 1 5 6 2 11 -3 6 0 10 9 10 8 0 17
-6 20 -12 3 -10 8 -9 18 4 9 11 19 14 28 8 8 -5 17 -7 20 -5 3 2 26 6 50 10
53 8 56 10 42 27 -8 10 4 13 57 15 37 0 83 8 102 16 24 10 39 11 51 4 12 -8
23 -6 41 6 14 9 28 12 33 7 10 -10 54 -2 54 10 0 5 10 6 23 3 12 -3 19 -3 15
2 -4 4 -1 13 6 21 9 9 32 11 75 8 40 -3 61 0 61 7 0 7 15 10 40 7 22 -2 41 0
43 5 1 4 15 4 30 -2 20 -8 26 -7 24 2 -1 7 5 10 13 8 32 -7 80 -8 80 0 0 10
44 18 120 21 36 1 71 6 79 12 9 7 17 5 26 -7 12 -17 15 -16 46 13 18 16 34 30
35 30 1 0 1 -8 0 -17z"/>
<path d="M5097 6569 c-4 -15 -15 -19 -54 -20 -26 -1 -51 -1 -55 0 -4 0 -5 -6
-2 -14 4 -8 1 -15 -5 -15 -6 0 -16 -11 -23 -25 -6 -13 -15 -22 -19 -19 -5 3
-9 1 -9 -5 0 -5 5 -13 10 -16 6 -4 8 -16 4 -28 -11 -33 -6 -63 17 -112 7 -16
18 -33 23 -36 5 -4 5 -12 2 -18 -4 -6 4 -25 18 -42 14 -17 26 -36 26 -43 0 -6
6 -18 13 -24 6 -7 13 -17 13 -22 3 -23 5 -24 14 -10 8 13 10 13 10 -1 0 -9 7
-22 15 -29 12 -10 13 -16 4 -27 -7 -7 -9 -16 -5 -20 3 -3 6 -1 6 5 0 7 4 12 9
12 5 0 9 -17 9 -37 0 -42 -25 -113 -40 -113 -5 0 -6 -5 -2 -11 4 -7 1 -10 -7
-7 -8 3 -18 -1 -24 -7 -11 -13 -88 -9 -80 5 2 4 -14 15 -36 25 -35 16 -42 17
-51 4 -8 -11 -9 -11 -5 3 4 10 -1 18 -14 21 -10 3 -19 13 -19 22 0 13 -6 16
-22 12 -14 -4 -29 0 -40 10 -10 9 -18 13 -18 9 0 -4 -7 0 -16 8 -19 19 -48 22
-39 4 4 -7 0 -6 -7 3 -20 24 -137 81 -151 73 -7 -4 -9 -4 -5 1 9 10 -60 57
-73 50 -5 -4 -9 -1 -9 4 0 6 -8 11 -17 11 -15 0 -16 -2 -3 -10 13 -8 12 -10
-2 -10 -10 0 -18 4 -18 9 0 6 -21 13 -47 17 -27 3 -72 17 -100 31 -32 15 -61
22 -73 18 -14 -4 -20 -2 -20 8 0 10 -7 13 -19 10 -10 -3 -22 0 -25 6 -4 5 -13
8 -21 4 -8 -3 -15 0 -15 5 0 25 -148 35 -168 12 -8 -8 -11 -10 -8 -4 3 7 -4
15 -17 19 -37 13 -57 13 -57 1 0 -6 -4 -5 -9 3 -5 8 -31 15 -61 17 -29 2 -55
6 -58 8 -2 3 -13 1 -23 -5 -13 -7 -19 -6 -19 1 0 6 -11 8 -27 4 -15 -4 -32 -7
-38 -6 -30 4 -94 12 -121 15 -17 2 -35 6 -40 9 -16 8 -58 1 -62 -11 -3 -8 -9
-6 -18 6 -7 10 -14 13 -14 6 0 -6 -8 -11 -17 -11 -10 0 -30 -2 -45 -5 -16 -3
-28 -1 -28 4 0 5 -3 8 -7 8 -5 -1 -10 0 -13 1 -15 7 -148 6 -167 -1 -17 -6
-21 -5 -17 5 3 9 -5 15 -24 18 -22 3 -29 1 -25 -9 3 -7 0 -13 -6 -13 -7 0 -14
7 -17 15 -5 11 -11 12 -24 5 -24 -13 -33 -13 -25 0 4 6 -4 6 -22 -1 -15 -5
-54 -8 -88 -4 -33 3 -90 1 -127 -3 -38 -5 -68 -5 -68 0 0 4 -5 8 -11 8 -5 0
-8 -4 -5 -9 6 -9 -57 -7 -73 3 -5 3 -12 -2 -15 -11 -5 -12 -10 -13 -17 -6 -8
8 -21 8 -43 2 -38 -12 -78 -19 -132 -23 -62 -5 -104 -16 -104 -27 0 -6 -9 -7
-21 -4 -12 4 -19 3 -16 -1 3 -5 -29 -9 -70 -9 -49 1 -80 -4 -89 -12 -16 -17
-44 -17 -44 0 0 9 -2 9 -8 0 -4 -6 -20 -15 -36 -19 -19 -5 -27 -3 -22 4 6 11
-8 10 -36 -3 -10 -4 -16 -11 -13 -15 3 -4 -2 -10 -10 -14 -8 -3 -15 -1 -15 4
0 15 -21 8 -57 -17 -17 -13 -39 -23 -47 -23 -9 0 -16 -4 -16 -10 0 -5 -7 -6
-17 -3 -11 4 -14 3 -9 -5 4 -7 1 -12 -9 -12 -11 0 -15 -5 -12 -14 6 -14 -19
-26 -56 -26 -10 0 -30 -11 -45 -25 -15 -14 -31 -24 -37 -22 -5 2 -19 -5 -30
-15 -18 -17 -21 -17 -31 -3 -15 20 -16 87 -1 78 6 -4 7 -1 2 6 -8 13 13 63 24
57 4 -3 11 7 18 20 8 18 8 22 0 17 -19 -11 64 80 93 102 37 29 52 45 43 45 -4
0 0 5 10 11 9 6 15 15 11 20 -3 6 3 13 14 16 26 6 36 31 21 49 -6 8 -8 14 -3
14 5 0 1 5 -9 11 -9 5 -21 8 -25 5 -5 -3 -32 -6 -61 -7 -28 -2 -54 -6 -57 -11
-3 -5 -10 -5 -16 -2 -7 4 -8 -2 -3 -17 7 -22 7 -22 -9 -6 -16 15 -20 15 -47 2
-16 -9 -31 -15 -34 -15 -28 3 -104 -78 -88 -94 3 -3 2 -6 -4 -6 -17 0 -55 -38
-48 -49 4 -7 -1 -8 -12 -4 -10 3 -15 3 -11 -2 4 -4 0 -14 -8 -22 -8 -9 -13
-21 -10 -28 3 -8 -2 -16 -10 -19 -8 -3 -14 -14 -14 -25 0 -11 -4 -23 -10 -26
-5 -3 -10 -17 -10 -31 0 -17 -4 -23 -12 -18 -7 4 -5 -2 5 -13 18 -20 18 -21 0
-19 -16 1 -18 -8 -18 -68 -1 -67 0 -69 52 -137 29 -38 53 -73 53 -79 0 -5 5
-10 10 -10 6 0 10 -5 10 -12 0 -17 30 -47 43 -42 7 2 20 -9 29 -26 9 -16 23
-30 31 -30 8 0 20 -7 27 -15 7 -8 39 -22 71 -31 32 -9 64 -23 70 -30 6 -8 16
-14 21 -14 6 0 4 8 -3 17 -11 13 -8 13 13 -2 15 -11 28 -24 28 -30 0 -5 5 -3
10 5 7 11 10 11 10 2 0 -7 4 -11 9 -7 5 3 16 -1 23 -8 8 -8 27 -16 43 -19 46
-8 59 -12 67 -23 5 -6 8 -5 8 3 0 9 4 10 19 0 15 -9 23 -9 38 2 15 12 15 11
-2 -9 l-20 -24 20 10 c23 12 29 11 103 -15 29 -10 53 -22 52 -26 -1 -5 4 -12
12 -17 10 -6 9 -11 -6 -22 -13 -9 -17 -20 -12 -32 6 -16 4 -16 -11 -4 -10 7
-15 9 -11 5 4 -5 3 -15 -3 -23 -6 -7 -9 -22 -6 -33 3 -10 -1 -24 -9 -31 -17
-14 -18 -39 -1 -39 8 0 8 -3 -2 -9 -17 -11 -20 -35 -24 -159 -1 -73 1 -95 13
-102 13 -8 12 -11 -5 -16 -23 -6 -26 -43 -6 -67 6 -9 8 -18 4 -20 -5 -3 -8
-25 -8 -49 1 -26 -4 -50 -14 -62 -15 -18 -15 -19 6 -14 17 5 20 2 16 -11 -3
-9 -10 -21 -14 -27 -5 -6 -6 -14 -2 -17 3 -4 0 -13 -6 -21 -8 -9 -8 -16 -2
-20 5 -4 8 -15 6 -26 -2 -11 -1 -20 3 -20 4 0 7 -17 7 -37 0 -21 7 -67 17
-102 9 -35 14 -71 10 -79 -3 -9 -1 -13 5 -9 6 4 8 -3 5 -19 -4 -24 -58 -74
-79 -74 -5 0 -25 -13 -43 -30 -31 -28 -44 -34 -62 -31 -5 0 -8 -4 -8 -9 0 -6
5 -10 11 -10 6 0 9 -6 6 -12 -2 -7 -14 -12 -25 -10 -21 3 -26 -4 -23 -38 0 -9
-2 -10 -5 -3 -7 15 -100 -42 -127 -79 -11 -15 -24 -25 -29 -22 -4 3 -8 -6 -8
-20 0 -14 -5 -26 -11 -26 -6 0 -9 -7 -6 -15 4 -8 1 -17 -4 -21 -6 -3 -9 -14
-6 -24 3 -11 -2 -21 -10 -24 -9 -4 -13 -14 -10 -26 3 -11 2 -20 -2 -20 -4 0
-8 -15 -9 -34 -2 -31 -5 -50 -19 -158 -3 -25 -1 -38 7 -38 7 0 6 -6 -4 -15
-23 -24 -16 -130 10 -150 10 -8 23 -15 27 -15 5 0 5 -5 1 -12 -5 -8 -11 -5
-20 7 -19 26 -27 13 -13 -21 10 -26 13 -156 5 -226 -2 -16 0 -28 3 -28 4 0 7
-29 7 -65 0 -61 2 -67 34 -95 19 -17 51 -36 72 -42 21 -6 38 -15 38 -19 0 -4
12 -6 26 -3 18 3 23 1 18 -7 -5 -9 -2 -10 12 -4 10 4 34 7 51 6 27 -1 32 1 26
16 -5 16 -4 16 9 0 12 -16 19 -18 53 -8 24 6 44 7 56 1 11 -6 20 -6 23 -1 4 5
34 7 69 5 43 -4 72 0 91 10 17 8 38 11 54 8 15 -4 48 -7 74 -7 27 0 48 -3 48
-7 0 -4 11 -3 25 2 19 7 23 6 18 -6 -4 -10 0 -12 11 -8 9 3 16 11 16 16 0 6 6
5 15 -2 9 -8 25 -9 42 -5 16 5 37 10 48 12 11 2 22 8 23 14 3 6 8 6 17 -1 14
-12 77 -2 69 11 -2 5 8 11 23 15 15 4 45 25 65 48 35 38 42 50 39 68 0 4 6 5
15 1 8 -3 14 -2 13 3 -1 5 -1 11 0 14 4 10 13 85 12 103 0 9 5 17 10 17 6 0 6
8 -1 20 -8 14 -8 20 0 20 6 0 9 4 6 9 -4 5 -1 11 5 13 8 3 6 10 -5 21 -10 9
-13 17 -7 17 6 0 10 11 9 25 -1 14 -6 25 -11 25 -5 0 -4 6 2 14 13 16 10 51
-7 68 -7 7 -12 16 -12 22 0 5 7 1 15 -10 15 -18 16 -17 9 15 -3 18 -7 54 -7
80 -1 25 -6 49 -12 53 -6 5 -5 8 3 8 13 0 17 46 3 54 -4 3 -14 39 -20 81 -7
41 -17 75 -22 75 -5 0 -9 7 -9 16 0 28 -69 144 -70 117 0 -4 -8 7 -16 25 -9
17 -23 32 -31 32 -8 0 -11 5 -8 10 3 6 -1 10 -9 10 -8 0 -17 9 -21 20 -3 11
-17 28 -29 38 -13 10 -31 32 -40 50 -9 18 -25 38 -36 45 -11 6 -20 16 -20 21
0 10 -30 35 -43 36 -5 0 -5 -4 -2 -10 3 -5 0 -7 -8 -4 -8 3 -17 14 -20 25 -4
15 -2 19 9 15 25 -10 15 2 -22 23 -19 12 -33 25 -30 30 4 5 -13 17 -37 26 -33
12 -43 21 -42 37 1 11 8 24 16 29 11 7 11 9 0 9 -10 0 -11 3 -2 13 8 10 6 19
-10 35 -11 12 -17 26 -14 31 3 5 2 12 -3 15 -5 3 -8 36 -7 73 1 38 -3 72 -9
76 -8 6 -8 10 0 13 13 6 6 56 -10 66 -8 6 -8 8 1 8 6 0 10 8 8 18 -1 9 2 22 7
29 5 7 5 14 -1 17 -5 4 -7 21 -4 39 3 23 0 39 -11 50 -16 16 -22 32 -8 24 4
-3 7 16 7 43 0 38 -3 46 -15 42 -11 -4 -10 0 3 15 14 17 16 26 8 41 -6 11 -8
21 -6 24 3 2 6 30 9 62 2 32 8 61 13 65 5 3 8 16 7 29 -1 12 2 25 6 27 5 3 6
14 3 25 -4 14 0 20 11 20 10 0 14 5 11 10 -3 6 5 10 19 10 13 0 26 -4 28 -9 2
-5 21 -13 42 -17 28 -5 37 -4 32 5 -4 6 -2 11 3 11 6 0 11 -4 11 -9 0 -6 19
-9 42 -8 23 1 43 -3 45 -9 2 -7 20 -8 48 -4 31 5 48 3 55 -5 10 -12 120 -12
139 0 5 3 12 1 16 -5 4 -7 12 -7 24 0 10 5 20 7 23 5 2 -3 22 -7 44 -10 21 -2
34 -1 27 3 -7 4 -9 13 -4 20 6 10 15 9 40 -4 27 -13 34 -14 48 -2 12 9 15 9 9
1 -5 -9 -1 -13 13 -13 10 0 22 6 24 13 4 9 8 9 15 -2 7 -9 19 -11 38 -6 28 7
98 9 139 4 11 -2 33 1 49 5 25 6 28 5 17 -7 -9 -12 -8 -16 5 -21 22 -8 40 4
23 15 -11 7 -10 9 4 9 9 0 17 -4 17 -9 0 -4 41 -8 90 -7 50 1 90 -2 90 -7 0
-4 16 -6 35 -4 19 3 35 0 35 -6 0 -5 6 -4 14 3 8 6 23 11 33 10 37 -4 64 0 58
9 -3 5 -1 12 5 16 5 3 10 1 10 -4 0 -16 23 -13 75 9 l47 20 -5 -20 c-4 -17 -3
-19 8 -10 7 6 17 10 21 9 22 -4 34 2 35 19 1 11 4 9 9 -8 4 -14 8 -19 9 -12 1
7 6 10 12 6 6 -3 15 0 20 7 5 8 9 9 9 3 0 -8 13 -9 43 -3 23 4 64 5 91 2 35
-4 51 -2 57 8 7 11 11 12 17 1 7 -10 11 -10 22 3 14 17 50 21 50 5 0 -7 6 -7
19 0 13 7 28 7 45 0 18 -6 26 -6 26 1 0 6 4 8 9 4 5 -3 12 -1 16 4 3 6 12 8
20 4 8 -3 15 -1 15 4 0 11 5 12 80 16 30 2 64 8 76 15 11 6 34 9 50 7 16 -2
33 -4 37 -4 5 -1 6 -5 3 -10 -3 -5 1 -12 10 -15 12 -5 15 -2 10 11 -6 17 -5
17 8 0 12 -16 15 -16 50 8 41 28 51 31 40 13 -5 -9 -2 -8 10 1 9 8 15 20 12
27 -3 8 0 11 8 8 6 -2 25 7 42 21 16 14 36 26 44 26 8 1 28 2 44 3 16 1 36 11
45 21 9 11 23 20 31 20 10 0 14 8 12 22 -3 20 -1 21 22 10 13 -6 22 -16 18
-22 -3 -6 1 -5 9 1 8 6 28 11 45 11 18 0 43 6 55 14 13 9 32 18 42 22 10 4 17
17 17 33 0 19 4 25 15 20 13 -4 13 -2 5 14 -14 27 -13 30 14 30 14 0 28 5 31
10 5 8 11 7 21 -1 8 -6 14 -7 14 -2 0 5 16 24 35 43 19 19 35 41 35 48 0 6 9
21 20 32 11 11 17 20 14 20 -4 0 1 11 10 25 11 17 12 25 5 25 -7 0 -2 8 9 19
12 10 19 21 15 25 -4 3 2 12 12 20 16 12 17 18 8 39 -10 22 -9 26 10 31 21 6
21 7 4 20 -10 8 -18 16 -17 18 1 1 -4 15 -10 30 -11 23 -10 29 9 49 21 22 20
56 0 70 -5 3 -9 18 -10 35 -2 52 -51 150 -73 148 -9 -1 -15 1 -14 5 2 22 -4
32 -17 27 -10 -4 -15 1 -15 14 0 13 -7 20 -20 20 -11 0 -28 9 -37 20 -10 11
-23 20 -30 20 -7 0 -13 5 -13 10 0 6 -6 10 -12 10 -7 0 -25 6 -40 14 -24 13
-27 12 -31 -5z"/>
<path d="M5945 5220 c-4 -6 -11 -8 -16 -5 -5 4 -9 -1 -9 -10 0 -9 -4 -13 -10
-10 -6 3 -7 -1 -4 -9 3 -9 2 -16 -4 -16 -6 0 -12 4 -14 10 -2 6 -14 4 -30 -4
-15 -8 -29 -11 -33 -8 -3 4 -3 -1 1 -11 3 -9 1 -23 -5 -30 -11 -15 -24 -145
-14 -160 7 -11 11 -89 5 -82 -9 8 -34 -35 -44 -74 -9 -38 -15 -84 -23 -196 -8
-116 -13 -145 -25 -161 -7 -7 -9 -14 -4 -14 5 0 2 -5 -6 -10 -12 -8 -12 -10 5
-10 12 0 16 -3 9 -8 -7 -4 -10 -37 -8 -85 1 -42 -2 -80 -7 -83 -6 -3 -7 -14
-4 -25 4 -12 2 -19 -7 -19 -10 0 -9 -3 2 -10 13 -8 13 -10 -2 -10 -10 0 -15
-5 -12 -13 2 -7 6 -38 8 -68 2 -29 6 -66 9 -81 2 -16 0 -28 -4 -28 -14 0 -10
-20 6 -36 18 -19 20 -38 3 -28 -7 3 3 -9 24 -27 20 -19 37 -38 38 -44 1 -5 6
-9 11 -8 5 2 8 -1 6 -6 -2 -9 77 -71 90 -71 5 0 1 5 -7 10 -8 5 -10 10 -4 10
6 0 18 -8 27 -18 10 -10 27 -18 40 -17 12 1 25 -2 28 -7 3 -5 12 -4 20 4 14
13 92 18 104 6 4 -4 18 -3 32 3 15 6 22 5 18 -1 -10 -17 133 -2 172 18 10 5
24 7 31 5 7 -3 19 1 27 7 12 10 15 10 15 -1 1 -9 5 -8 15 5 8 11 15 14 15 8 0
-9 14 -11 44 -9 26 2 42 -1 39 -6 -3 -5 4 -6 17 -2 15 5 20 4 16 -4 -5 -7 -1
-9 8 -5 19 7 20 16 4 32 -6 6 -9 14 -6 17 3 3 13 -1 22 -10 9 -9 16 -12 16 -6
0 6 15 11 33 11 17 0 39 5 47 10 11 7 11 10 2 10 -7 0 -10 5 -7 10 4 7 12 7
25 0 29 -15 43 -12 91 19 24 16 47 27 51 25 4 -3 8 2 8 11 0 9 5 13 10 10 6
-3 10 1 10 10 0 10 7 15 18 14 31 -4 102 29 110 51 7 18 63 66 74 63 4 -2 8 3
8 10 0 8 9 24 20 37 16 18 17 25 8 32 -10 6 -10 8 0 8 7 0 10 5 7 10 -3 6 -1
10 6 10 7 0 10 3 6 6 -3 3 2 15 13 26 23 25 30 61 17 85 -9 15 -8 16 4 6 12
-9 14 -5 15 28 1 21 -3 39 -8 39 -5 0 -1 15 9 33 18 34 18 57 0 69 -8 5 -7 8
4 8 14 0 15 13 12 93 -4 94 -8 135 -17 173 -6 29 -52 101 -68 107 -9 4 -10 6
-1 6 7 1 10 8 7 16 -4 8 -10 13 -14 10 -5 -3 -11 3 -15 12 -7 21 -88 83 -108
83 -8 0 -26 9 -40 20 -14 11 -30 20 -37 20 -6 0 -8 5 -5 10 3 6 -1 10 -9 10
-8 0 -18 9 -21 20 -3 11 -11 20 -17 20 -6 0 -44 16 -85 35 -41 19 -79 35 -86
35 -7 0 -25 11 -41 25 -26 22 -63 31 -105 25 -8 -1 -17 4 -21 10 -4 6 -30 12
-58 13 -27 1 -48 5 -45 10 2 4 -5 7 -16 7 -12 0 -21 -4 -21 -9 0 -4 -11 -7
-25 -6 -14 2 -25 -2 -25 -8 0 -8 -3 -8 -8 -2 -8 12 -21 14 -119 19 -43 2 -73
0 -73 -6 0 -5 -4 -6 -10 -3 -15 9 -79 12 -74 3 3 -4 1 -8 -5 -8 -5 0 -11 6
-14 13 -3 9 -8 9 -21 -2 -14 -12 -16 -12 -10 3 7 18 -1 22 -11 6z m274 -319
c13 -7 32 -11 42 -8 10 3 19 2 19 -1 0 -4 19 -6 42 -5 23 0 52 -3 65 -8 14 -5
23 -5 23 1 0 6 5 10 10 10 6 0 10 -7 10 -16 0 -10 6 -14 14 -11 8 3 16 2 18
-3 2 -6 17 -10 33 -11 37 -2 85 -18 82 -29 -1 -4 0 -8 3 -7 3 0 16 -6 30 -13
14 -8 29 -14 33 -15 4 0 11 -5 15 -11 4 -6 36 -25 71 -42 49 -24 67 -29 82
-21 14 7 19 6 21 -3 3 -28 5 -34 28 -80 13 -26 27 -45 32 -42 11 7 10 -3 -2
-27 -6 -10 -7 -19 -2 -19 5 0 9 -18 8 -40 -2 -28 2 -40 12 -40 7 0 10 -5 7
-10 -4 -6 -9 -8 -13 -6 -4 2 -8 -9 -9 -25 -4 -54 -7 -69 -14 -69 -4 0 -12 -14
-19 -30 -7 -17 -26 -47 -41 -67 -16 -19 -27 -39 -24 -43 2 -3 -2 -7 -9 -7 -24
0 -76 -25 -70 -34 3 -5 -8 -9 -25 -9 -21 0 -29 -4 -25 -13 4 -10 -3 -12 -26
-9 -16 2 -37 -1 -45 -8 -9 -8 -15 -8 -15 -2 0 6 -23 -3 -52 -18 -32 -18 -58
-26 -67 -21 -9 4 -31 7 -48 7 -18 -1 -33 1 -33 4 0 10 -49 10 -75 0 -14 -5
-25 -6 -25 -1 0 4 -33 6 -72 5 -40 -1 -73 -3 -73 -4 0 -1 -12 -4 -27 -6 -16
-1 -28 1 -28 6 0 5 -8 7 -17 3 -15 -5 -16 -4 -5 8 10 11 8 17 -10 32 -13 10
-16 17 -8 14 21 -6 26 42 5 49 -8 4 -12 10 -9 15 3 5 10 6 16 3 8 -5 9 8 4 42
-4 27 -9 112 -11 189 -2 77 -8 156 -13 176 -5 21 -6 43 -2 50 10 14 5 77 -8
131 -6 22 -6 35 -1 32 5 -3 9 4 9 14 0 27 20 41 71 48 24 4 45 8 47 9 7 6 48
-2 71 -14z"/>
</g>
</svg>
