<?xml version="1.0" standalone="no"?>
<!DOCTYPE svg PUBLIC "-//W3C//DTD SVG 20010904//EN"
 "http://www.w3.org/TR/2001/REC-SVG-20010904/DTD/svg10.dtd">
<svg version="1.0" xmlns="http://www.w3.org/2000/svg"
 width="800.000000pt" height="1050.000000pt" viewBox="0 0 800.000000 1050.000000"
 preserveAspectRatio="xMidYMid meet">
<metadata>
Created by potrace 1.16, written by Peter Selinger 2001-2019
</metadata>
<g transform="translate(0.000000,1050.000000) scale(0.100000,-0.100000)"
fill="#000000" stroke="none">
<path d="M3803 9465 c-17 -8 -38 -24 -46 -35 -7 -11 -17 -17 -20 -13 -4 3 -7
1 -7 -5 0 -6 -14 -13 -30 -17 -17 -4 -28 -11 -24 -16 3 -5 -1 -9 -9 -9 -7 0
-24 -11 -37 -25 -13 -14 -20 -25 -16 -25 5 0 3 -6 -3 -14 -7 -8 -14 -39 -16
-68 -3 -34 -1 -48 5 -38 5 8 13 11 17 6 4 -4 0 -13 -10 -20 -22 -17 -22 -31 4
-55 l21 -19 -20 -11 c-12 -6 -32 -11 -46 -11 -14 0 -26 -4 -26 -10 0 -5 -7 -7
-16 -3 -14 5 -35 -2 -88 -29 -13 -7 -16 -6 -11 2 4 7 -1 7 -14 -2 -15 -9 -24
-10 -29 -2 -11 16 -92 5 -92 -13 0 -8 -4 -12 -8 -9 -5 3 -21 -2 -36 -10 -16
-7 -35 -14 -42 -14 -8 0 -23 -9 -34 -20 -10 -10 -21 -16 -24 -11 -6 9 -22 8
-78 -4 -21 -4 -35 -11 -32 -16 3 -5 -2 -6 -10 -3 -10 4 -16 1 -16 -7 0 -7 -3
-9 -7 -6 -3 4 -21 -3 -40 -14 -18 -11 -33 -18 -33 -15 0 3 -9 -2 -20 -12 -12
-9 -24 -17 -28 -17 -13 -1 -62 -37 -62 -47 0 -15 -29 -40 -39 -33 -5 3 -12 1
-16 -5 -4 -6 -10 -8 -15 -5 -5 3 -11 1 -15 -5 -4 -6 -10 -8 -15 -5 -5 3 -11 1
-15 -5 -4 -6 -11 -8 -16 -5 -5 4 -9 2 -9 -4 0 -5 6 -12 13 -14 7 -3 6 -6 -5
-6 -9 -1 -20 4 -24 11 -5 8 -11 6 -20 -6 -7 -10 -15 -17 -18 -17 -20 3 -26 0
-21 -9 3 -5 -6 -15 -20 -22 -14 -6 -24 -17 -21 -24 3 -8 1 -16 -4 -19 -6 -4
-10 -1 -10 4 0 6 -7 11 -16 11 -8 0 -12 -4 -9 -10 3 -5 0 -10 -9 -10 -8 0 -13
-7 -12 -16 1 -9 -8 -28 -21 -42 -13 -14 -21 -32 -18 -40 3 -8 0 -12 -7 -10
-10 4 -58 -36 -58 -48 0 -3 -25 -37 -55 -76 -30 -38 -55 -76 -55 -83 0 -7 -5
-15 -12 -17 -6 -2 -11 -18 -11 -36 0 -17 -4 -29 -8 -26 -4 2 -10 0 -14 -6 -3
-5 -1 -10 4 -10 6 0 11 -7 11 -16 0 -10 -5 -14 -16 -10 -10 4 -13 2 -8 -6 5
-8 0 -9 -15 -5 -17 4 -21 1 -19 -11 3 -17 -27 -66 -64 -106 -10 -11 -18 -24
-18 -28 0 -5 -4 -7 -9 -3 -5 3 -12 -4 -15 -15 -3 -11 -9 -30 -12 -41 -4 -14
-2 -19 5 -15 16 10 14 1 -9 -45 -12 -22 -18 -45 -14 -51 4 -6 3 -8 -3 -5 -5 4
-15 -4 -20 -16 -32 -67 -47 -104 -49 -123 -1 -12 -10 -36 -18 -53 -9 -17 -17
-55 -19 -86 -1 -30 -6 -55 -10 -55 -5 0 -5 -4 -2 -10 3 -5 1 -10 -5 -10 -6 0
-8 -4 -5 -10 7 -11 -26 -123 -33 -115 -7 7 -34 -46 -37 -72 -2 -13 2 -23 8
-23 8 0 8 -3 0 -11 -6 -6 -9 -18 -6 -25 3 -8 -2 -17 -11 -20 -9 -3 -16 -15
-16 -26 0 -12 -4 -17 -12 -12 -7 5 -8 3 -2 -7 13 -21 14 -39 1 -39 -7 0 -6 -5
3 -11 11 -8 7 -9 -17 -4 -21 4 -44 1 -62 -8 -19 -9 -33 -11 -39 -5 -6 6 -12 6
-16 -1 -5 -7 -15 -7 -32 -1 -17 7 -23 7 -19 0 3 -6 1 -10 -4 -10 -6 0 -11 5
-11 10 0 6 -11 10 -25 10 -14 0 -25 -4 -25 -10 0 -5 -12 -10 -26 -10 -14 0
-34 -5 -45 -10 -13 -8 -19 -7 -19 0 0 6 -10 8 -27 3 -16 -3 -37 -6 -48 -4 -11
1 -29 3 -40 5 -11 1 -24 -1 -30 -4 -5 -4 -19 -10 -30 -12 -11 -3 -29 -9 -40
-13 -16 -5 -17 -5 -5 4 8 5 11 14 6 18 -4 4 -13 0 -20 -10 -14 -17 -36 -23
-36 -9 0 4 -23 7 -52 6 -28 -2 -59 1 -69 6 -11 6 -19 6 -21 0 -6 -17 -108 -14
-108 4 0 5 -7 1 -15 -10 -14 -19 -14 -19 -15 1 0 13 -3 16 -8 8 -4 -6 -19 -15
-35 -18 -16 -4 -24 -12 -20 -19 3 -6 -4 -2 -17 9 -13 11 -20 15 -17 9 4 -7 0
-14 -8 -18 -9 -3 -15 0 -15 10 0 13 -3 13 -23 -1 -13 -8 -27 -12 -30 -9 -4 4
-9 0 -13 -9 -5 -15 -8 -14 -24 5 -16 21 -18 21 -34 5 -10 -9 -24 -17 -31 -17
-21 0 -56 -42 -50 -58 3 -9 0 -12 -9 -9 -10 4 -13 -4 -11 -36 1 -23 8 -43 14
-45 6 -2 9 -7 6 -12 -3 -5 20 -23 50 -40 64 -36 148 -46 227 -25 40 10 45 10
40 -3 -4 -11 -2 -13 8 -7 13 8 41 12 137 18 17 1 29 5 26 10 -5 9 6 8 32 -2
11 -5 25 -4 33 1 8 7 12 7 12 0 0 -6 13 -7 35 -2 24 5 35 4 35 -4 0 -6 4 -5 9
3 6 8 14 10 22 5 22 -13 39 -13 39 0 0 8 14 12 40 11 22 -1 40 2 40 6 0 4 9 5
21 2 12 -4 25 0 30 8 7 11 9 11 9 1 0 -15 67 -14 88 1 7 6 17 5 25 -1 13 -11
57 -6 57 7 0 3 35 6 78 6 42 -1 89 2 105 6 16 5 27 4 27 -3 0 -13 -33 -68 -41
-68 -3 0 -20 -13 -37 -30 -33 -31 -49 -39 -36 -18 4 7 3 8 -4 4 -6 -4 -8 -14
-5 -24 6 -14 4 -15 -9 -5 -17 14 -28 8 -28 -16 0 -14 2 -14 10 -1 6 9 10 10
10 3 0 -7 -6 -16 -14 -20 -8 -4 -17 -19 -19 -33 -10 -53 -20 -80 -28 -80 -11
0 -44 -62 -41 -77 2 -7 -2 -13 -8 -13 -6 0 -9 -4 -6 -9 3 -4 -6 -21 -20 -37
-22 -25 -55 -78 -59 -94 -1 -3 -7 -18 -13 -33 -7 -16 -12 -31 -12 -34 0 -3
-14 -26 -32 -52 -18 -26 -33 -61 -34 -81 -1 -19 -3 -37 -4 -40 -1 -3 -2 -8 -1
-12 0 -4 -4 -20 -10 -35 -6 -15 -13 -39 -16 -53 -2 -13 -9 -28 -15 -31 -6 -4
-8 -18 -4 -32 4 -16 1 -27 -7 -30 -9 -4 -9 -6 1 -6 17 -1 15 -21 -3 -35 -14
-10 -19 -33 -29 -129 -2 -21 -7 -41 -10 -44 -3 -3 -1 -14 4 -24 6 -10 6 -19 1
-21 -12 -4 -20 -173 -10 -190 7 -10 9 -9 9 4 0 11 5 15 15 12 22 -9 18 -21 -8
-28 -13 -3 -24 -11 -25 -18 -5 -55 -1 -103 11 -161 8 -38 13 -78 10 -90 -4
-18 -3 -19 6 -7 8 12 11 5 11 -28 0 -24 4 -41 9 -38 5 3 8 -9 7 -27 -3 -39 3
-59 15 -51 5 3 9 0 9 -5 0 -6 -5 -11 -11 -11 -6 0 -7 -5 -2 -12 9 -15 14 -34
17 -67 2 -14 8 -27 14 -29 7 -2 12 -10 12 -17 0 -8 9 -20 20 -28 11 -8 17 -17
14 -20 -8 -8 15 -67 26 -67 5 0 6 -9 3 -20 -3 -11 0 -20 6 -20 6 0 11 5 11 11
0 5 5 7 11 3 8 -5 8 -9 -1 -14 -20 -12 -1 -31 28 -28 19 2 26 -1 24 -11 -3
-12 33 -46 50 -46 3 0 10 -4 15 -8 16 -17 74 -36 91 -31 13 5 14 4 4 -4 -16
-11 -17 -22 -5 -31 4 -3 13 -15 19 -26 7 -12 26 -22 50 -26 46 -7 100 -34 112
-55 5 -9 16 -16 26 -18 10 -1 21 -7 24 -12 4 -5 21 -10 37 -12 17 -2 34 -8 39
-13 6 -5 22 -9 37 -9 29 0 43 -21 40 -57 -1 -12 4 -25 11 -30 7 -4 19 -18 25
-30 11 -19 10 -24 -3 -31 -15 -8 -15 -10 0 -15 10 -4 15 -3 11 3 -3 6 -2 10 4
10 14 0 31 -33 31 -59 0 -12 7 -21 16 -21 11 0 14 -6 8 -22 -3 -13 -3 -20 1
-16 11 11 57 -53 50 -70 -2 -7 -1 -10 4 -7 5 3 12 -4 16 -15 3 -11 12 -20 18
-21 7 0 3 -4 -8 -9 l-20 -9 20 -1 c21 -1 61 -69 47 -81 -4 -4 -25 1 -46 12
-22 10 -41 17 -44 14 -3 -2 -13 0 -24 6 -15 8 -31 5 -71 -14 -29 -13 -64 -27
-79 -31 -16 -3 -28 -13 -28 -21 0 -8 -7 -15 -16 -15 -9 0 -27 -9 -41 -20 -14
-11 -35 -20 -46 -20 -11 0 -26 -8 -34 -17 -9 -11 -11 -12 -7 -3 5 10 0 9 -14
-4 -12 -11 -22 -16 -22 -11 0 4 -12 -4 -26 -19 -15 -14 -31 -26 -36 -26 -6 0
-7 -7 -4 -15 4 -11 0 -15 -12 -13 -9 2 -16 -3 -14 -10 1 -7 -11 -15 -28 -19
-21 -4 -32 -13 -36 -30 -4 -15 -12 -22 -20 -19 -8 3 -14 1 -14 -5 0 -5 -13
-23 -29 -38 -16 -16 -26 -33 -22 -37 3 -5 4 -8 2 -7 -2 2 -10 -2 -18 -8 -7 -6
-13 -8 -13 -3 0 5 -11 -9 -25 -31 -13 -22 -25 -36 -25 -32 0 5 -7 1 -16 -7 -8
-9 -13 -20 -9 -26 3 -6 -1 -7 -9 -4 -11 4 -16 0 -16 -10 0 -9 -8 -16 -18 -16
-20 0 -46 -45 -37 -61 4 -5 1 -9 -4 -9 -6 0 -11 6 -11 12 0 7 -15 -5 -32 -27
-18 -22 -33 -42 -33 -46 0 -17 -64 -78 -68 -67 -3 9 -9 7 -19 -6 -8 -10 -20
-16 -26 -12 -8 5 -10 1 -5 -10 4 -12 3 -15 -5 -10 -7 4 -12 1 -12 -8 0 -8 -13
-25 -28 -38 -15 -12 -27 -26 -27 -30 0 -4 -10 -15 -23 -23 -12 -9 -20 -21 -17
-26 4 -5 2 -9 -4 -9 -6 0 -21 -18 -33 -40 -13 -21 -33 -45 -45 -51 -12 -7 -20
-15 -18 -19 3 -5 -2 -11 -10 -14 -21 -8 -36 -49 -21 -58 6 -5 3 -8 -10 -8 -30
0 -36 -11 -18 -31 12 -13 12 -19 3 -25 -8 -4 -10 -3 -5 5 4 6 0 14 -10 18 -15
6 -33 -12 -35 -34 -1 -5 -10 -20 -21 -35 -15 -22 -17 -32 -8 -48 10 -18 8 -20
-18 -20 -28 0 -31 -5 -33 -53 0 -9 -4 -15 -10 -12 -5 4 -9 -5 -9 -18 0 -14 -7
-27 -15 -31 -8 -3 -15 -13 -15 -21 0 -9 -4 -13 -10 -10 -5 3 -10 -3 -10 -15 0
-11 -18 -39 -40 -61 -39 -39 -51 -57 -30 -44 6 3 7 -1 4 -9 -3 -9 -10 -14 -15
-11 -4 3 -11 -10 -14 -29 -4 -19 -14 -37 -22 -40 -10 -4 -11 -11 -5 -22 12
-22 -7 -84 -26 -84 -11 0 -13 -8 -8 -30 3 -16 1 -30 -4 -30 -5 0 -16 -13 -25
-30 -12 -23 -13 -30 -3 -30 8 0 6 -5 -5 -11 -9 -5 -17 -19 -17 -29 0 -11 -4
-20 -10 -20 -5 0 -6 -7 -3 -17 4 -11 3 -14 -5 -9 -8 5 -10 2 -6 -9 4 -8 2 -21
-4 -28 -6 -6 -14 -30 -18 -52 -5 -22 -9 -43 -10 -47 -1 -5 -2 -17 -3 -28 0
-11 -8 -20 -16 -20 -11 0 -14 -7 -11 -25 3 -14 1 -25 -4 -25 -5 0 -14 -9 -20
-19 -7 -15 -6 -23 5 -35 17 -17 20 -30 5 -21 -20 12 -39 -14 -31 -43 8 -28 -7
-77 -41 -140 -10 -18 -18 -41 -18 -51 0 -11 -6 -22 -12 -24 -8 -3 -6 -6 5 -6
14 -1 15 -4 5 -20 -7 -11 -15 -18 -19 -15 -4 2 -9 -14 -11 -37 -3 -35 -1 -40
14 -36 19 5 34 -8 19 -17 -8 -5 -11 -29 -12 -79 0 -11 8 -26 18 -34 10 -8 11
-11 3 -7 -13 7 -13 6 0 -12 8 -10 21 -24 29 -30 8 -7 11 -16 6 -24 -5 -8 -4
-11 3 -6 9 6 40 -22 95 -85 8 -9 12 -20 9 -24 -4 -3 1 -3 11 1 10 3 17 1 17
-5 0 -6 7 -11 16 -11 9 0 12 -5 8 -12 -5 -8 -2 -9 9 -5 9 3 23 -1 32 -9 8 -8
19 -13 24 -10 5 3 20 -3 34 -14 16 -13 28 -16 32 -10 9 15 48 -8 41 -25 -3 -9
0 -12 9 -8 8 3 12 9 9 14 -3 5 -1 9 5 9 5 0 11 -4 13 -9 1 -5 10 -11 18 -13 8
-2 18 -10 22 -18 5 -11 7 -8 7 8 1 13 5 20 11 17 6 -4 8 -10 5 -15 -3 -4 4
-10 15 -13 11 -3 20 -2 20 3 0 4 7 11 16 14 10 4 13 2 8 -6 -5 -8 -2 -9 9 -5
11 4 17 1 17 -7 0 -7 9 -12 23 -10 12 1 27 3 34 3 6 1 18 8 26 16 13 13 16 13
21 0 3 -8 10 -15 16 -15 6 0 8 5 5 10 -7 12 24 12 83 1 33 -7 44 -5 51 6 7 13
12 13 31 3 18 -10 24 -9 30 1 10 15 40 21 40 8 0 -6 5 -7 10 -4 6 4 34 9 63
12 81 8 111 11 125 12 8 1 10 6 5 13 -4 7 5 5 20 -5 18 -12 33 -15 45 -9 9 4
29 8 45 7 15 0 27 3 27 8 0 5 6 4 14 -2 10 -9 16 -9 21 -1 4 6 14 8 24 4 9 -3
31 -6 49 -5 18 1 32 -3 32 -10 0 -7 7 -8 18 -3 9 4 56 8 103 9 48 1 91 5 96 8
8 5 135 19 173 19 8 0 34 -2 58 -5 31 -4 44 -1 51 10 6 11 10 12 15 4 4 -6 16
-11 26 -11 10 0 20 -5 22 -11 2 -6 13 -3 28 9 19 15 29 18 43 10 10 -5 25 -7
32 -4 8 3 28 1 44 -4 19 -5 31 -5 31 1 0 5 7 9 15 9 8 0 15 -3 15 -7 0 -9 118
-8 126 0 3 2 22 1 42 -3 100 -21 110 -21 115 -3 4 16 5 16 6 -1 1 -15 7 -18
35 -13 19 3 39 0 45 -6 8 -8 11 -8 11 1 0 7 7 12 15 12 8 0 15 -3 15 -7 0 -8
161 -8 220 0 23 4 41 0 53 -10 9 -9 17 -12 17 -7 0 12 76 9 92 -3 16 -12 48
-13 48 -1 0 4 7 8 16 8 8 0 12 -4 9 -10 -3 -5 4 -10 17 -9 13 0 37 -3 53 -6
17 -4 64 -8 106 -9 41 -1 81 -6 87 -10 7 -4 12 -2 12 5 0 8 3 9 13 0 8 -6 16
-9 19 -6 3 3 11 -1 18 -10 16 -19 40 -19 40 0 0 8 4 15 10 15 5 0 7 -7 4 -15
-5 -11 -2 -13 12 -8 12 4 15 3 10 -5 -5 -9 -1 -9 18 -2 16 6 27 6 31 0 4 -6
20 -4 41 5 21 9 32 10 28 3 -5 -8 3 -10 27 -6 36 6 62 1 55 -10 -2 -4 9 -7 25
-6 19 0 36 9 45 22 18 26 31 28 56 5 18 -16 58 -26 58 -13 0 3 9 6 19 6 11 0
17 -4 14 -9 -3 -5 4 -6 16 -3 11 3 30 9 41 12 11 3 20 1 20 -4 0 -5 8 -12 18
-16 9 -3 23 -9 30 -12 8 -4 10 0 6 10 -3 9 -1 16 5 16 6 0 11 -4 11 -9 0 -5 7
-12 16 -15 8 -3 13 -2 10 3 -4 5 3 7 14 4 11 -3 23 -10 26 -15 3 -5 11 -5 19
2 9 8 17 7 26 -2 16 -15 63 -15 99 0 14 5 31 6 39 2 8 -4 27 -4 43 0 16 5 30
5 34 -1 3 -5 10 -7 15 -4 5 4 9 1 9 -5 0 -6 5 -8 10 -5 6 4 19 1 28 -7 15 -12
16 -11 3 5 -12 15 -11 17 3 17 9 0 16 -5 16 -11 0 -7 14 -9 38 -5 20 3 38 5
40 6 2 0 1 4 -2 8 -2 4 4 8 14 8 12 0 16 -4 10 -11 -5 -7 15 -10 63 -11 40 0
106 -2 147 -4 41 -1 86 0 100 4 14 4 43 8 65 9 22 1 46 6 54 11 9 6 12 5 8 -1
-4 -6 2 -13 13 -16 11 -3 18 0 17 6 -1 6 7 13 18 15 17 4 18 3 5 -14 -14 -16
-13 -17 5 -9 11 4 29 9 41 10 11 1 25 4 31 8 7 4 14 3 18 -3 4 -6 10 -8 15 -5
14 9 100 13 105 5 5 -8 94 -5 133 4 12 2 22 1 22 -3 0 -13 36 -6 63 12 35 22
45 22 21 -2 -10 -10 -22 -17 -26 -14 -5 2 -8 -1 -8 -6 0 -13 2 -13 34 -1 19 7
26 6 26 -2 0 -9 3 -9 12 0 7 7 21 12 31 12 17 0 18 2 6 18 -13 15 -12 16 3 3
10 -7 29 -11 43 -9 14 3 25 1 25 -4 0 -5 13 -2 30 7 32 17 64 20 55 6 -8 -13
38 -10 48 4 5 7 10 6 15 -3 5 -8 22 -11 47 -7 21 2 44 0 52 -6 10 -9 13 -8 13
2 0 11 2 11 10 -1 6 -9 10 -10 10 -3 0 8 11 11 30 8 17 -2 30 0 30 3 0 4 15 7
33 6 17 0 40 5 50 12 12 8 29 9 47 4 16 -5 31 -5 35 -2 3 4 18 7 33 8 54 2 63
4 58 13 -6 10 49 33 57 24 7 -6 88 18 106 31 11 8 13 8 8 -1 -5 -8 2 -7 20 2
15 8 34 15 41 15 6 0 12 4 12 10 0 5 14 8 30 6 17 -2 30 1 30 8 0 6 7 0 16
-13 11 -15 23 -21 35 -18 11 3 17 1 13 -4 -3 -5 -1 -9 5 -9 6 0 20 -10 32 -22
12 -13 19 -17 15 -10 -4 6 -5 12 -1 12 9 0 49 -24 56 -34 4 -4 15 -3 26 3 23
11 34 6 27 -14 -6 -15 47 -15 58 0 5 7 14 6 26 -2 15 -9 22 -9 32 0 10 9 11 9
6 0 -8 -14 10 -18 18 -5 3 5 29 7 59 4 33 -2 58 1 62 7 3 6 15 11 26 11 11 0
18 4 14 9 -3 6 3 10 12 10 32 0 58 6 65 15 3 5 16 11 29 13 12 2 28 11 35 21
7 9 17 18 23 18 6 1 16 2 22 3 5 0 7 6 4 11 -3 6 6 15 21 20 15 6 24 13 21 16
-8 8 16 33 25 27 4 -2 5 3 2 11 -4 10 -1 16 9 16 16 0 30 50 21 75 -4 8 -1 22
6 30 6 8 13 24 15 37 1 13 6 30 10 40 4 11 1 18 -12 21 -17 4 -17 5 0 6 14 1
16 7 11 27 -4 17 -3 25 3 21 6 -4 9 5 8 21 0 16 -8 28 -17 30 -15 3 -14 6 4
24 11 11 16 23 11 27 -5 3 -8 32 -7 64 0 32 -3 60 -8 63 -4 3 -6 10 -3 15 4 5
3 15 -2 22 -4 6 -8 26 -9 42 0 17 -4 41 -8 55 -6 20 -5 22 4 10 10 -13 11 -12
6 3 -3 10 -6 25 -6 33 0 9 -5 12 -10 9 -6 -3 -10 -1 -10 4 0 6 4 11 9 11 6 0
9 9 8 19 0 11 -5 17 -9 15 -12 -8 -10 28 6 79 11 38 12 47 1 47 -8 0 -11 8 -8
20 4 16 2 19 -12 13 -13 -4 -16 -3 -11 6 4 6 2 18 -4 26 -8 10 -9 15 -2 15 13
0 6 44 -7 48 -5 2 -7 12 -4 22 3 13 0 20 -8 20 -10 0 -10 3 -1 12 7 7 12 21
12 32 0 17 2 18 10 6 6 -9 10 -10 10 -3 0 7 -7 16 -15 20 -8 5 -17 25 -19 46
-3 23 -1 35 4 32 6 -4 10 -1 10 4 0 6 -7 11 -15 11 -8 0 -16 9 -16 20 -3 38
-6 55 -13 72 -4 9 -5 22 -1 28 3 5 1 10 -5 10 -7 0 -10 7 -6 15 3 9 0 15 -8
15 -12 0 -15 6 -18 54 -1 14 -6 22 -10 20 -4 -3 -8 4 -8 16 0 13 -4 19 -12 14
-7 -4 -8 -3 -4 4 4 6 -3 25 -15 41 -11 16 -22 46 -23 67 -3 53 -12 67 -37 54
-22 -12 -23 -11 -9 24 7 20 6 24 -5 19 -11 -4 -15 2 -15 20 0 14 6 28 13 30 6
3 0 6 -15 6 -28 1 -33 9 -43 71 -7 38 -23 63 -36 54 -5 -3 -6 2 -3 10 3 9 3
24 -1 34 -5 9 -7 24 -6 33 1 9 -5 22 -14 29 -8 7 -15 17 -15 22 0 5 -9 19 -20
30 -14 15 -16 24 -9 29 7 4 3 9 -10 14 -13 4 -20 9 -17 13 4 3 -8 21 -26 39
-17 18 -26 33 -19 33 7 0 9 5 6 10 -4 6 -11 8 -16 5 -5 -4 -9 -1 -9 4 0 6 -7
11 -15 11 -8 0 -15 4 -15 10 0 5 -13 22 -28 38 -16 16 -32 37 -35 46 -4 9 -10
16 -15 16 -5 0 -8 10 -7 22 1 13 -4 38 -12 56 -7 17 -11 32 -8 32 3 0 -3 8
-12 18 -12 12 -21 15 -26 8 -5 -7 -7 -2 -4 10 3 15 -4 29 -24 45 -15 12 -25
28 -22 33 3 6 3 8 -2 4 -4 -4 -14 -3 -22 3 -7 6 -13 7 -13 2 0 -5 -6 -10 -14
-10 -10 0 -14 10 -13 26 2 19 -3 26 -15 25 -11 -1 -18 5 -18 17 0 10 -5 21
-12 25 -7 5 -8 3 -3 -7 8 -12 6 -12 -8 0 -9 7 -17 20 -17 27 0 23 -37 77 -43
62 -4 -8 -6 -7 -6 5 -1 10 -5 15 -11 12 -5 -3 -7 0 -4 9 3 9 -2 17 -15 21 -12
3 -41 26 -66 49 -41 40 -49 44 -46 24 3 -20 -11 -4 -21 22 -7 22 -18 33 -39
37 -16 3 -27 9 -24 13 7 11 -25 25 -66 28 -9 1 -20 9 -23 18 -6 15 -4 15 10 3
16 -13 16 -12 5 9 -6 12 -18 22 -26 22 -8 0 -15 4 -15 9 0 5 -10 11 -22 13
-15 2 -22 9 -21 21 0 12 -4 16 -13 13 -7 -3 -26 5 -41 18 -28 23 -33 26 -54
26 -5 0 -7 4 -4 10 3 5 -5 15 -19 22 -14 6 -26 16 -26 22 0 9 -79 36 -115 39
-5 0 -10 13 -10 27 0 19 4 26 13 22 10 -4 12 4 6 33 -6 33 -4 37 9 32 11 -4
14 -2 10 9 -3 7 0 14 7 14 7 0 10 7 6 15 -3 9 0 18 7 21 14 5 16 31 3 52 -4 7
-1 12 9 12 11 0 14 6 9 25 -6 24 -5 25 19 16 14 -5 28 -7 31 -4 3 4 14 -1 23
-9 28 -25 112 -28 135 -4 8 7 30 17 49 21 19 5 28 10 21 12 -6 3 -10 9 -6 14
3 5 13 5 25 -1 18 -10 23 -6 20 12 0 5 2 7 7 6 13 -5 54 30 48 41 -4 7 -1 8 8
5 9 -4 18 1 22 10 3 9 12 16 20 16 7 0 18 9 24 20 6 11 22 23 35 26 14 3 25
12 25 20 0 8 6 11 15 7 9 -3 15 -2 14 3 -4 22 2 34 16 34 9 0 18 7 21 15 4 8
12 15 20 15 8 0 14 6 14 14 0 8 7 21 15 30 9 8 16 18 15 21 -2 34 1 40 11 25
9 -13 10 -13 6 1 -3 9 1 26 9 38 8 12 12 26 9 31 -3 6 -1 10 4 10 6 0 11 5 11
11 0 5 -4 7 -10 4 -5 -3 -10 1 -10 9 0 8 5 18 10 21 6 3 10 21 10 38 0 18 7
45 15 61 9 16 13 36 11 43 -3 7 4 18 16 24 11 6 17 14 12 18 -5 3 -10 15 -11
26 0 11 -4 30 -6 43 -3 12 -2 22 4 22 5 0 9 16 9 36 0 21 4 33 10 29 13 -8 9
17 -4 26 -11 8 -15 194 -5 211 4 6 3 22 -1 34 -5 13 -5 36 0 53 5 17 5 31 1
31 -4 0 -8 7 -9 15 -3 33 -4 60 -2 70 1 6 2 20 1 33 -1 20 -4 21 -23 12 -22
-11 -22 -10 1 8 21 17 23 23 13 51 -6 17 -9 38 -6 46 4 8 2 15 -3 15 -5 0 -9
10 -10 23 -1 12 -3 32 -6 45 -3 12 -2 22 3 22 5 0 4 16 -2 36 -5 20 -7 41 -5
48 3 7 1 19 -4 27 -6 10 -2 16 14 21 l22 6 -22 1 c-26 1 -40 36 -23 56 11 14
7 19 -12 16 -5 0 -8 4 -8 9 0 6 4 10 9 10 5 0 7 9 4 20 -3 12 -8 19 -10 16
-12 -11 -29 20 -25 46 2 15 0 28 -6 28 -9 0 -35 52 -38 75 0 6 -2 16 -2 23 -1
7 -6 10 -12 7 -5 -3 -10 -2 -10 4 0 5 6 11 12 13 8 3 2 15 -17 33 -17 16 -24
25 -17 21 18 -11 15 2 -8 27 -11 12 -18 27 -16 34 3 7 2 13 -3 13 -5 0 -11 14
-15 31 -3 17 -10 28 -16 24 -6 -3 -10 4 -10 17 0 13 -14 41 -30 62 -17 22 -30
46 -30 53 0 7 -5 13 -11 13 -5 0 -7 5 -4 10 3 6 0 13 -9 16 -8 3 -18 19 -21
36 -4 16 -13 32 -21 35 -8 3 -14 12 -14 20 0 8 -3 12 -7 10 -10 -6 -34 19 -26
27 4 3 1 6 -5 6 -7 0 -12 6 -12 14 0 8 -8 13 -17 12 -9 -2 -24 5 -34 15 -9 9
-25 21 -34 26 -14 8 -15 14 -7 30 16 29 22 72 11 78 -5 4 -9 21 -9 40 0 18 -6
40 -13 47 -7 7 -14 33 -15 58 -3 69 -6 90 -12 90 -3 0 -6 9 -7 20 -1 11 -8 33
-16 49 -8 16 -13 45 -12 65 2 33 0 36 -19 30 -19 -6 -19 -6 -3 10 20 21 20 21
5 49 -6 12 -11 41 -12 65 0 23 -3 42 -6 42 -3 0 -6 18 -5 41 1 22 -3 42 -7 45
-4 3 -8 16 -8 29 0 13 -8 31 -17 41 -14 13 -15 18 -5 22 10 3 9 7 -3 16 -9 6
-17 24 -19 39 -1 15 -8 33 -14 39 -7 7 -12 17 -12 24 0 6 -10 19 -22 28 -20
13 -20 15 -3 9 18 -6 19 -5 6 11 -8 9 -20 15 -28 12 -8 -3 -12 -2 -9 2 6 10
-40 107 -50 105 -5 -1 -8 5 -6 13 2 8 -3 14 -10 14 -11 0 -10 2 0 9 10 6 7 12
-13 25 -14 9 -23 21 -20 26 4 6 2 10 -3 10 -6 0 -17 18 -26 40 -9 22 -20 40
-26 40 -5 0 -10 5 -10 11 0 6 -7 17 -15 26 -8 8 -13 19 -9 24 3 5 2 8 -3 7 -4
-2 -8 0 -8 5 0 4 -14 16 -31 26 -42 25 -84 69 -72 73 6 2 4 11 -6 20 -9 9 -16
22 -16 28 0 7 -6 10 -14 7 -8 -3 -16 2 -19 14 -5 19 -27 27 -27 9 0 -15 -27
-12 -33 4 -4 10 -1 13 9 9 7 -3 14 -1 14 5 0 6 -11 9 -25 7 -14 -1 -25 2 -25
6 0 5 -7 9 -15 9 -8 0 -15 5 -15 11 0 5 -4 8 -9 4 -5 -3 -16 3 -23 13 -7 11
-27 22 -45 26 -30 7 -48 28 -44 52 1 13 -28 28 -37 19 -3 -3 0 -5 6 -5 7 0 12
-5 12 -12 0 -6 -8 -4 -19 6 -11 10 -25 15 -30 11 -6 -3 -14 1 -17 9 -3 9 -9
14 -14 11 -4 -2 -16 4 -26 14 -11 9 -25 16 -32 13 -6 -2 -12 1 -12 7 0 6 -5
11 -11 11 -7 0 -22 11 -35 25 -12 13 -37 33 -56 45 -18 11 -29 20 -24 20 6 0
1 6 -9 14 -11 8 -27 13 -37 11 -11 -2 -15 1 -12 10 6 16 -25 35 -56 35 -14 0
-19 4 -14 13 6 10 4 10 -7 0 -7 -7 -18 -13 -24 -13 -7 0 -7 3 1 8 6 4 4 13 -8
25 -10 9 -18 13 -18 9 0 -5 -15 -9 -32 -9 -31 -1 -31 0 -10 10 12 5 22 17 22
25 0 10 -4 12 -12 5 -19 -14 -111 -9 -116 6 -4 11 -6 11 -12 1 -6 -10 -15 -5
-35 16 -15 16 -29 24 -33 19 -4 -6 -16 -10 -27 -9 -11 1 -37 2 -58 3 -21 0
-36 4 -34 9 3 4 -7 8 -21 9 -15 0 -28 6 -30 13 -3 8 -10 6 -22 -5 -13 -12 -20
-13 -25 -5 -4 7 -1 17 6 22 10 6 6 7 -11 3 -27 -8 -27 -8 -52 -6 -12 1 -16 8
-13 22 3 12 1 18 -3 15 -4 -4 -7 -12 -7 -17 0 -5 -4 -9 -9 -8 -5 0 -12 -5 -16
-11 -5 -8 -13 -4 -26 13 -14 17 -25 22 -39 17 -11 -4 -24 -5 -29 -2 -4 2 -5
-6 -1 -19 l7 -24 -23 24 c-14 15 -24 20 -27 13 -8 -24 -21 -11 -21 21 0 17 -2
46 -5 62 -3 17 -7 42 -9 57 -4 29 -51 83 -71 83 -6 0 -11 6 -11 12 0 21 -38
41 -87 46 -39 5 -49 2 -67 -19 -11 -13 -25 -24 -30 -24 -14 0 -33 28 -27 39 4
5 -3 13 -15 16 -13 4 -25 2 -29 -5 -4 -7 -10 -8 -13 -3 -10 15 -128 13 -164
-2z m253 -167 c55 -1 103 -6 109 -12 14 -15 15 -76 1 -73 -6 1 -10 -6 -10 -15
1 -10 -4 -14 -12 -11 -8 3 -21 0 -29 -7 -8 -7 -21 -10 -29 -7 -8 3 -16 2 -18
-3 -2 -8 -57 -15 -141 -19 -10 -1 -22 -11 -28 -23 l-10 -23 5 23 c4 23 2 24
-49 26 -18 1 -29 6 -27 14 1 6 -3 12 -10 12 -6 0 -1 11 12 25 13 14 29 25 37
25 7 0 13 5 13 10 0 6 7 10 15 10 8 0 15 4 15 9 0 5 12 12 26 15 18 5 24 12
20 22 -3 8 -2 13 3 10 5 -3 53 -7 107 -8z m-16 -460 c63 8 96 8 107 0 6 -5 14
-5 18 2 3 5 11 10 16 10 6 0 8 -4 5 -8 -2 -4 4 -13 15 -20 11 -7 19 -8 19 -2
0 5 7 10 15 10 8 0 15 -5 15 -11 0 -8 4 -8 13 -1 13 11 67 11 67 0 0 -4 12 -3
27 3 14 5 39 7 55 4 18 -4 35 -2 45 7 9 7 14 8 10 2 -10 -16 25 -28 35 -12 6
10 8 10 8 1 0 -7 8 -13 18 -13 9 0 30 -7 46 -15 16 -9 36 -13 43 -10 8 2 12 1
9 -4 -3 -5 1 -11 9 -15 8 -3 15 -1 15 4 0 9 38 5 48 -5 3 -2 11 3 19 13 12 16
13 16 7 0 -5 -14 -1 -18 15 -18 12 0 21 -4 21 -9 0 -5 14 -11 30 -13 17 -3 30
-1 30 3 0 5 7 6 15 3 8 -4 13 -10 10 -14 -3 -5 3 -6 13 -3 10 2 24 -2 31 -11
7 -8 20 -12 28 -9 11 4 14 2 9 -5 -4 -7 -2 -12 3 -12 6 0 11 5 11 10 0 6 7 10
15 10 8 0 15 -7 15 -16 0 -10 6 -14 15 -11 8 4 17 2 20 -2 3 -5 15 -7 27 -3
14 3 19 2 14 -6 -4 -7 -2 -12 5 -12 14 0 59 -46 59 -61 0 -5 9 -9 20 -9 24 0
54 -16 103 -55 38 -30 113 -68 134 -68 7 0 11 -2 9 -5 -6 -6 49 -52 62 -52 6
0 18 -7 26 -16 9 -8 16 -11 16 -5 0 6 6 8 14 5 8 -3 12 -12 10 -19 -3 -7 -1
-16 5 -20 6 -3 11 -1 11 6 0 8 5 6 13 -4 6 -9 21 -18 32 -20 31 -4 39 -12 65
-61 12 -25 38 -55 56 -68 18 -12 31 -25 29 -29 -6 -9 56 -70 65 -64 5 3 11 1
14 -4 4 -5 2 -12 -3 -16 -6 -3 -4 -13 4 -23 9 -9 15 -21 14 -25 0 -5 12 -20
26 -33 30 -27 97 -149 88 -158 -4 -3 -1 -6 6 -6 7 0 10 -4 6 -9 -3 -5 3 -16
14 -23 28 -20 50 -80 55 -153 3 -36 8 -71 13 -77 9 -15 11 -25 19 -90 4 -26
10 -46 13 -43 4 2 8 -15 8 -37 0 -22 7 -44 14 -49 12 -8 11 -11 -1 -19 -10 -6
-11 -10 -2 -10 6 0 12 -5 12 -11 0 -6 -6 -9 -14 -6 -8 3 -26 -3 -40 -14 -14
-11 -26 -17 -26 -12 0 12 -184 11 -192 -1 -5 -7 -8 -6 -8 2 0 7 -5 10 -10 7
-6 -4 -8 -11 -4 -16 9 -15 -19 -6 -34 11 -10 11 -12 12 -6 1 5 -10 3 -13 -9
-8 -11 4 -14 2 -10 -9 3 -7 0 -14 -6 -14 -6 0 -11 5 -11 11 0 7 -9 9 -24 5
-15 -4 -26 -1 -28 6 -3 7 -11 9 -24 4 -36 -15 -84 -16 -84 -1 0 15 -29 14 -73
-4 -31 -12 -48 -11 -59 4 -5 6 -8 5 -8 -2 0 -7 -9 -13 -21 -13 -11 0 -17 5
-14 10 12 19 -7 10 -26 -12 l-18 -23 -1 23 c0 16 -4 21 -12 15 -18 -10 -42
-10 -50 1 -3 5 -14 2 -23 -7 -21 -21 -26 -21 -18 -1 5 13 3 15 -13 7 -10 -6
-36 -11 -57 -11 -21 -1 -43 -5 -50 -9 -7 -4 -44 -8 -83 -9 -39 -1 -76 -4 -83
-8 -6 -4 -19 -3 -29 3 -19 10 -82 -13 -82 -31 0 -5 -4 -6 -10 -3 -16 10 -12
25 7 25 29 0 5 13 -31 17 -23 2 -36 -1 -39 -11 -4 -9 -14 -12 -26 -9 -12 3
-21 1 -21 -6 0 -6 -16 -11 -35 -11 -27 0 -35 -4 -35 -17 -1 -17 -1 -17 -10 -1
-9 15 -14 15 -45 2 -19 -8 -35 -12 -35 -9 0 3 -9 1 -19 -5 -13 -6 -22 -6 -26
-1 -6 11 -75 8 -95 -4 -9 -6 -11 -4 -5 4 6 10 3 11 -11 3 -11 -5 -32 -8 -49
-7 -16 2 -35 -1 -42 -7 -10 -8 -13 -6 -13 8 0 15 -2 16 -9 5 -8 -13 -12 -13
-28 0 -16 13 -17 13 -4 -3 12 -16 11 -18 -8 -18 -13 0 -20 4 -15 11 3 6 -7 4
-24 -5 -40 -21 -83 -27 -98 -15 -7 6 -19 7 -26 3 -7 -5 -44 -10 -83 -11 -119
-4 -209 -11 -225 -17 -23 -9 -110 -13 -110 -4 0 4 -15 5 -32 2 -18 -3 -41 -6
-50 -7 -10 -1 -18 -6 -18 -12 0 -5 -4 -4 -8 3 -5 7 -30 13 -55 15 -31 1 -47 6
-47 15 0 10 -5 10 -22 1 -13 -7 -61 -13 -107 -14 -57 0 -86 -5 -89 -13 -4 -13
-33 -17 -31 -4 3 19 -2 23 -16 12 -8 -7 -15 -9 -15 -5 0 4 -7 2 -16 -6 -13
-10 -17 -10 -25 2 -5 8 -9 10 -9 6 0 -5 -6 -5 -12 0 -7 4 -59 9 -114 9 -56 1
-107 5 -113 8 -7 5 -8 1 -4 -10 6 -15 4 -15 -20 1 -18 11 -27 13 -27 6 0 -7
-4 -9 -10 -6 -5 3 -10 0 -10 -7 0 -9 -3 -9 -8 -2 -4 6 -37 11 -73 11 -37 0
-71 3 -75 5 -5 3 -22 4 -39 1 -55 -7 -140 -3 -140 7 0 1 -17 3 -37 5 -21 2
-38 -1 -38 -6 0 -5 -5 -9 -11 -9 -5 0 -8 4 -5 9 3 4 -6 6 -19 3 -14 -2 -22 -8
-20 -13 3 -4 -7 -2 -22 6 -18 9 -29 11 -34 4 -3 -6 -25 -8 -50 -5 -24 2 -50 5
-57 5 -16 1 -11 43 7 65 8 9 9 16 3 16 -6 0 -12 -6 -15 -12 -2 -7 -8 -10 -12
-6 -5 4 3 17 17 27 17 14 25 30 26 53 0 21 9 39 23 51 21 17 21 18 4 31 -16
11 -14 14 16 29 27 13 30 17 16 22 -9 4 -14 11 -11 16 3 5 11 6 17 2 7 -3 4 3
-6 14 -18 21 -18 22 0 32 14 9 15 12 5 19 -11 7 -7 11 12 16 30 7 33 20 8 36
-15 9 -14 10 6 5 23 -7 27 1 13 24 -6 9 -4 29 5 53 7 21 11 38 7 38 -3 0 0 7
7 15 7 8 17 12 23 8 7 -4 8 0 4 11 -5 13 -1 19 14 23 14 4 19 12 16 24 -3 11
-1 19 4 19 5 0 9 7 9 15 0 25 23 65 38 65 12 0 12 3 2 15 -12 14 -7 19 13 16
5 -1 6 3 2 9 -4 6 -1 18 7 27 11 14 11 16 -2 8 -8 -5 -2 4 13 20 21 21 24 30
15 37 -9 5 -9 8 -1 8 6 0 15 9 18 20 3 11 15 20 25 20 11 0 22 11 29 31 6 17
15 28 20 25 5 -3 12 11 16 32 3 20 16 45 28 54 12 10 16 18 10 18 -7 0 -13 4
-13 10 0 5 7 7 15 4 10 -4 15 0 15 15 0 14 6 21 19 21 11 0 23 5 26 10 3 6 0
10 -7 10 -9 0 -10 3 -2 8 6 4 14 17 18 30 4 12 10 22 14 22 4 0 13 4 21 9 11
7 12 13 3 23 -9 11 -6 14 11 15 12 1 23 7 25 13 2 5 10 10 17 10 7 0 15 7 19
15 3 8 12 15 21 15 8 0 15 5 15 10 0 6 12 15 27 21 15 5 33 19 41 30 7 10 18
17 23 14 5 -4 13 4 18 17 6 13 10 17 10 9 1 -12 4 -11 19 1 9 9 22 14 28 11 6
-2 16 7 22 19 6 13 11 17 11 10 1 -10 6 -10 23 2 12 9 32 16 44 16 11 0 24 3
28 7 8 9 31 14 81 18 22 2 43 3 48 4 4 1 -2 10 -13 21 -17 17 -18 23 -8 40 11
17 15 18 34 5 15 -10 24 -11 32 -3 8 8 15 8 26 -1 10 -8 15 -9 18 -1 2 6 30
13 61 15 32 2 64 8 70 12 7 5 23 8 37 7 14 -2 32 0 40 3 8 3 25 7 38 9 27 3
82 26 82 34 0 7 34 12 93 13 26 0 47 4 47 8 0 3 11 4 25 1 16 -3 25 0 25 8 0
7 7 10 17 6 10 -4 25 2 39 15 19 18 26 20 39 9 12 -10 16 -9 21 5 4 9 10 13
13 8 3 -5 17 -7 31 -5z m1474 -1912 c-11 -44 -11 -61 -1 -68 11 -7 19 -128 8
-128 -3 0 -7 -33 -8 -73 -1 -39 -4 -99 -8 -133 -6 -48 -4 -68 10 -94 12 -23
13 -30 3 -24 -10 6 -11 5 -2 -7 6 -8 10 -30 8 -49 -1 -19 0 -27 3 -17 2 9 9
17 15 17 6 0 8 -9 4 -22 -4 -13 -8 -30 -9 -38 -2 -26 26 -102 40 -107 7 -3 13
-10 13 -15 0 -16 53 -63 70 -63 8 0 14 -5 13 -11 -2 -13 89 -56 122 -58 11 -1
42 -12 70 -24 29 -14 59 -21 72 -17 13 3 23 1 23 -5 0 -13 32 -9 41 4 11 14
42 -2 35 -19 -3 -8 0 -15 7 -15 7 -1 5 -6 -5 -14 -13 -10 -15 -15 -6 -24 9 -9
9 -12 0 -12 -13 0 -8 -58 7 -73 16 -16 13 -30 -4 -23 -17 6 -21 -9 -5 -19 6
-4 8 -14 6 -23 -3 -10 -2 -23 3 -30 4 -8 0 -41 -11 -80 -10 -37 -18 -88 -18
-114 0 -29 -6 -52 -16 -62 -14 -15 -11 -20 9 -17 4 0 7 -4 7 -9 0 -6 -4 -10
-8 -10 -5 0 -7 -22 -4 -50 3 -36 0 -50 -9 -50 -6 0 -2 -8 9 -19 26 -22 28 -31
7 -31 -10 0 -15 -11 -16 -32 -1 -44 -6 -78 -15 -107 -5 -17 -4 -22 4 -17 7 4
12 2 12 -3 0 -6 -5 -11 -11 -11 -7 0 -8 -11 -4 -30 4 -17 2 -30 -3 -30 -10 0
-25 -38 -23 -54 1 -5 -4 -13 -11 -18 -11 -6 -11 -10 0 -17 11 -7 11 -9 -1 -14
-9 -3 -14 -14 -12 -24 1 -10 -11 -42 -27 -71 -17 -29 -27 -56 -24 -59 3 -3 1
-12 -6 -20 -8 -10 -8 -17 0 -25 7 -7 12 -17 12 -22 0 -6 -4 -4 -10 4 -7 11
-11 9 -19 -14 -6 -15 -9 -31 -6 -36 8 -13 -6 -40 -18 -33 -6 4 -7 1 -3 -6 5
-7 1 -20 -7 -29 -9 -9 -16 -20 -17 -24 -5 -41 -15 -68 -24 -68 -6 0 -12 -8
-12 -19 0 -12 6 -17 16 -14 13 4 13 3 0 -9 -23 -20 -41 -58 -35 -68 4 -6 2
-10 -4 -10 -5 0 -12 -13 -16 -29 -3 -16 -13 -35 -21 -42 -18 -15 -18 -29 3
-44 18 -13 10 -35 -13 -35 -8 0 -12 5 -9 10 3 6 2 10 -4 10 -18 0 -34 -43 -33
-90 0 -14 -4 -31 -10 -37 -6 -7 -7 -13 -3 -13 5 0 0 -9 -10 -20 -10 -11 -15
-20 -10 -20 4 0 -3 -9 -16 -20 -19 -15 -21 -21 -11 -28 11 -7 10 -11 -4 -16
-16 -6 -16 -9 -4 -17 11 -8 10 -9 -7 -4 -19 5 -23 2 -23 -15 0 -14 -8 -24 -21
-27 -11 -3 -18 -11 -15 -19 3 -8 0 -11 -8 -8 -7 3 -16 -2 -20 -11 -3 -9 -10
-13 -16 -10 -5 3 -15 -4 -21 -17 -6 -13 -32 -36 -57 -53 -26 -16 -58 -42 -70
-57 -13 -16 -28 -26 -33 -22 -5 3 -9 -2 -9 -10 0 -9 -3 -15 -7 -15 -30 5 -41
-3 -37 -25 3 -19 0 -24 -21 -23 -13 0 -38 -12 -55 -27 -17 -14 -42 -26 -54
-26 -12 0 -26 -4 -32 -8 -5 -4 -27 -14 -49 -21 -22 -8 -51 -21 -64 -30 -13 -8
-31 -16 -39 -17 -8 -2 -18 -8 -22 -15 -4 -6 -13 -9 -18 -5 -6 4 -26 0 -44 -7
-18 -8 -39 -12 -45 -10 -7 3 -15 -2 -18 -9 -4 -9 -16 -13 -34 -10 -17 2 -34
-3 -44 -13 -10 -9 -17 -12 -17 -8 0 5 -7 18 -16 29 -8 10 -13 14 -10 8 3 -7 0
-16 -7 -21 -16 -13 -43 -10 -40 4 2 9 -5 9 -27 1 -17 -5 -30 -15 -30 -21 0 -8
-4 -7 -9 2 -11 17 -51 -2 -51 -24 0 -8 -5 -15 -11 -15 -5 0 -7 5 -3 11 4 8 0
9 -15 4 -12 -4 -21 -2 -21 4 0 6 -5 11 -11 11 -5 0 -7 -5 -3 -11 5 -8 -1 -10
-20 -7 -15 3 -26 1 -27 -6 -1 -6 -5 0 -9 14 -5 17 -8 19 -9 8 -1 -20 -6 -21
-36 -9 -12 5 -33 2 -52 -6 -18 -7 -33 -11 -33 -8 0 4 -6 3 -12 -2 -7 -4 -23
-6 -36 -4 -13 1 -30 -3 -39 -11 -14 -11 -15 -11 -8 1 6 11 2 13 -19 9 -14 -3
-26 -2 -26 2 0 4 -23 10 -51 14 -43 6 -53 4 -65 -11 -9 -12 -13 -14 -14 -5 0
10 -11 12 -41 8 -23 -3 -46 -3 -52 1 -6 4 -45 8 -86 10 -111 5 -196 15 -196
23 0 1 -15 3 -32 4 -18 2 -44 11 -57 20 -14 9 -45 17 -70 18 -25 2 -46 5 -46
8 0 3 -14 6 -31 7 -17 1 -37 10 -44 20 -8 10 -17 18 -22 18 -16 1 -58 28 -76
49 -15 16 -18 17 -13 4 7 -22 1 -22 -49 2 -22 11 -46 19 -52 20 -7 0 -13 5
-13 10 0 10 -20 32 -53 59 -14 11 -17 11 -15 1 2 -7 -3 -15 -11 -18 -10 -3
-12 0 -8 12 5 12 -5 21 -36 36 -23 10 -38 19 -34 20 5 0 1 7 -7 16 -9 8 -14
20 -11 25 4 5 -3 9 -14 9 -12 0 -21 4 -21 9 0 5 -9 13 -20 16 -11 3 -20 11
-20 18 0 17 -61 77 -79 78 -11 0 -9 4 5 11 22 10 21 10 -7 38 -16 15 -29 33
-29 40 0 7 -3 10 -7 7 -11 -12 -34 15 -23 28 11 14 -43 75 -67 75 -9 0 -11 5
-7 12 11 18 12 48 2 42 -4 -3 -11 2 -14 10 -3 9 -10 13 -15 10 -5 -3 -9 4 -9
16 0 12 -4 18 -10 15 -8 -5 -12 13 -9 41 0 3 -10 14 -22 25 -12 10 -19 22 -16
26 10 10 -14 34 -27 26 -6 -3 -8 -3 -4 2 4 4 -2 25 -13 47 -11 22 -18 46 -15
54 3 8 -5 21 -19 30 -14 9 -21 22 -18 30 3 8 0 14 -7 14 -7 0 -9 8 -5 21 5 14
2 25 -6 30 -11 7 -10 9 5 9 15 0 13 5 -12 32 -17 17 -29 35 -26 40 3 4 -2 8
-10 8 -18 0 -22 25 -5 35 5 4 9 17 7 28 -1 12 1 27 5 34 4 6 2 15 -4 19 -8 5
-9 3 -4 -6 5 -9 4 -11 -3 -6 -7 4 -12 23 -12 42 0 19 -4 34 -9 34 -5 0 -8 17
-6 37 2 21 -1 45 -6 55 -5 9 -5 19 -1 22 13 8 2 69 -17 90 -9 11 -10 16 -3 12
6 -4 12 -2 12 3 0 6 -4 11 -8 11 -4 0 -8 9 -9 20 -1 11 2 18 8 15 10 -7 -9 41
-25 64 -8 10 -8 13 -1 9 6 -4 17 -3 25 3 10 5 11 9 3 9 -7 0 -17 10 -24 21 -8
15 -8 19 0 15 15 -10 14 7 -1 23 -11 11 -10 12 1 6 10 -6 12 -4 7 4 -5 7 -14
10 -22 7 -18 -7 -18 9 1 27 8 8 12 17 8 20 -5 5 -9 55 -16 188 -1 36 -5 45
-17 41 -11 -4 -10 1 4 16 19 22 19 22 0 22 -16 0 -17 2 -4 10 8 5 11 10 5 10
-5 0 -4 4 3 8 9 6 8 13 -5 28 -14 15 -18 39 -19 115 l-2 97 26 0 c14 0 31 7
38 16 8 11 13 13 16 5 2 -7 12 -9 27 -4 12 4 20 9 18 12 -7 6 47 61 56 56 4
-2 7 1 7 7 0 6 4 9 9 5 5 -3 17 7 26 23 10 16 29 36 44 46 41 28 63 64 63 103
0 20 3 31 7 24 11 -17 41 31 41 64 0 14 5 25 12 25 6 0 8 3 5 7 -4 3 -3 11 2
17 5 6 21 33 35 60 20 38 23 51 14 58 -7 4 -8 8 -3 8 6 0 11 30 11 68 1 77 23
184 36 176 4 -3 8 0 8 5 0 6 -5 11 -11 11 -8 0 -7 5 1 15 7 9 10 18 6 22 -3 3
1 17 9 30 14 21 14 23 -1 23 -16 0 -16 1 -1 18 11 12 13 22 6 35 -6 9 -7 17
-4 17 3 0 1 9 -5 20 -9 17 -8 20 10 20 11 0 20 -6 20 -12 0 -8 7 -5 15 6 8 11
15 15 15 8 0 -16 58 -7 81 14 18 16 19 16 19 0 0 -9 4 -15 9 -12 5 4 11 1 13
-6 3 -7 11 -9 24 -3 24 10 85 6 101 -7 7 -5 16 -7 21 -5 4 3 14 2 22 -3 9 -6
19 -3 28 8 7 9 11 12 8 5 -7 -13 10 -28 18 -15 2 4 19 9 36 10 19 1 29 -2 25
-7 -3 -6 8 -9 29 -7 19 1 33 -1 31 -5 -4 -6 34 -14 124 -26 33 -4 42 -2 36 7
-6 9 -3 10 10 2 11 -5 30 -6 47 -2 17 5 28 5 28 -1 0 -5 11 -7 25 -3 15 4 25
2 25 -5 0 -6 7 -11 16 -11 9 0 12 5 8 13 -6 9 -4 9 7 1 11 -9 74 -12 74 -3 0
1 35 2 78 3 42 1 77 -2 77 -6 0 -5 9 -4 19 2 13 7 20 7 23 -1 2 -5 13 -1 26
11 20 19 22 19 23 3 1 -17 2 -17 6 0 2 9 9 17 14 17 6 0 7 -6 3 -12 -6 -10 -4
-10 8 0 10 8 19 9 22 3 4 -5 18 -7 33 -5 15 3 30 0 34 -8 7 -10 9 -9 9 5 0 19
2 20 24 11 9 -3 13 -11 10 -16 -4 -6 1 -6 13 1 11 6 23 8 26 4 4 -3 12 -2 19
4 7 5 23 8 36 7 12 0 22 2 22 6 0 4 18 4 40 0 41 -8 90 -3 90 9 0 8 11 9 108
12 34 2 62 6 62 11 0 4 12 8 26 8 16 0 23 -4 18 -12 -5 -7 -3 -8 7 -2 12 7 30
10 109 16 8 0 21 5 28 11 8 7 12 5 12 -7 0 -9 7 -16 16 -16 9 0 12 5 8 13 -6
9 -4 9 7 2 16 -12 101 -11 121 1 17 11 40 11 54 2 6 -4 34 -6 63 -4 28 1 54
-1 57 -6 3 -4 10 -6 15 -2 5 3 7 10 4 15 -4 5 -2 9 4 9 5 0 13 -5 16 -10 4 -6
13 -7 24 -1 10 6 43 9 74 8 40 -2 57 1 57 10 0 9 7 10 25 3 18 -7 28 -5 39 5
8 9 17 11 20 6 6 -10 125 -5 176 7 43 11 52 7 44 -22z m480 -2899 c-2 -7 6
-19 20 -27 14 -7 25 -16 24 -19 -2 -21 5 -33 27 -43 14 -6 25 -17 25 -25 0 -8
6 -13 13 -11 15 4 57 -37 57 -56 0 -19 21 -26 43 -14 11 6 17 5 17 -2 0 -12 9
-24 52 -71 15 -16 32 -29 38 -29 6 0 8 -4 5 -10 -4 -6 6 -10 22 -10 22 0 25
-2 13 -10 -13 -8 -12 -10 3 -10 9 0 17 -3 17 -7 0 -15 45 -60 68 -67 12 -4 22
-13 22 -21 0 -8 8 -16 19 -20 27 -8 67 -48 76 -74 3 -12 11 -19 16 -16 5 4 9
-4 9 -15 0 -13 8 -24 20 -27 21 -6 28 -23 8 -23 -6 0 -4 -8 6 -19 10 -10 13
-21 8 -22 -5 -2 0 -13 11 -24 20 -20 20 -20 14 3 -3 12 -1 20 4 16 5 -3 9 -16
9 -30 0 -13 4 -24 9 -24 5 0 12 -11 15 -25 4 -14 11 -23 16 -20 6 3 10 -1 10
-10 0 -9 7 -23 15 -32 8 -8 13 -19 9 -24 -3 -5 2 -12 10 -15 9 -3 16 -16 16
-28 0 -12 7 -31 16 -42 8 -10 13 -13 9 -7 -4 8 -1 11 8 7 8 -3 17 -19 21 -35
3 -17 19 -44 36 -60 16 -17 30 -33 30 -36 0 -4 8 -15 18 -26 9 -11 11 -17 5
-13 -18 10 -16 3 6 -22 10 -12 25 -22 32 -23 9 0 10 -2 3 -5 -13 -6 -7 -44 7
-44 5 0 8 -3 7 -7 -5 -23 16 -102 28 -107 8 -3 14 -14 14 -25 0 -15 5 -19 18
-15 12 4 13 3 4 -3 -10 -7 -9 -16 4 -42 12 -24 14 -39 6 -55 -10 -22 8 -63 21
-49 4 3 7 -1 7 -11 0 -18 22 -46 37 -46 5 0 7 -18 5 -41 -4 -35 0 -44 28 -69
18 -16 29 -33 26 -39 -4 -5 3 -15 14 -21 17 -9 20 -19 17 -52 -2 -22 -10 -44
-18 -49 -9 -6 -11 -11 -3 -16 5 -5 10 -18 10 -31 0 -26 51 -75 68 -65 6 4 5
-1 -2 -10 -8 -9 -11 -21 -7 -27 3 -5 2 -10 -3 -10 -5 0 -9 -7 -9 -15 0 -8 5
-15 11 -15 6 0 11 -14 12 -31 1 -20 -2 -26 -7 -17 -6 9 -9 6 -9 -10 0 -16 4
-21 13 -16 8 5 8 2 -2 -9 -7 -9 -9 -17 -3 -17 6 0 7 -14 1 -40 -6 -28 -6 -48
2 -62 8 -15 8 -19 0 -13 -7 4 4 -23 22 -59 20 -37 31 -69 25 -72 -5 -3 -7 -12
-4 -19 2 -7 2 -16 -1 -19 -9 -9 -8 -76 2 -75 17 2 23 -26 9 -42 -8 -9 -17 -41
-20 -70 -3 -29 -7 -55 -9 -57 -2 -3 2 -14 10 -26 19 -27 19 -47 0 -40 -11 4
-15 -1 -16 -17 0 -13 -3 -19 -5 -12 -4 9 -13 9 -32 2 -46 -18 -96 -17 -135 1
-38 19 -53 20 -74 7 -7 -4 -22 -3 -34 3 -12 7 -38 10 -58 7 -39 -5 -134 20
-126 33 6 10 -36 0 -52 -12 -7 -5 -14 -5 -18 2 -5 8 -11 8 -21 -1 -8 -6 -14
-8 -14 -4 0 4 -6 3 -12 -3 -7 -5 -22 -6 -32 -3 -21 8 -143 4 -166 -6 -15 -6
-20 -7 -77 -18 -18 -3 -33 -10 -33 -15 0 -5 -6 -7 -14 -4 -8 3 -17 0 -21 -6
-5 -8 -10 -9 -14 -2 -4 7 -13 5 -26 -5 -17 -13 -17 -15 -2 -9 11 3 16 2 12 -4
-7 -12 -46 -14 -44 -2 3 19 -2 22 -17 8 -16 -17 -39 -22 -30 -7 7 10 -46 23
-54 13 -8 -11 -32 -13 -26 -3 4 5 2 12 -4 16 -5 3 -10 2 -10 -3 0 -10 -50 -10
-67 1 -8 5 -13 3 -13 -6 0 -8 -9 -17 -20 -20 -13 -3 -20 0 -20 10 0 19 -46 10
-72 -14 -16 -14 -17 -14 -13 6 2 12 0 19 -6 16 -5 -4 -9 -13 -9 -21 0 -8 -4
-14 -10 -14 -5 0 -10 5 -10 10 0 7 -6 7 -17 2 -21 -11 -70 -9 -80 3 -5 4 -2 5
6 0 9 -5 12 -4 8 2 -4 7 -20 8 -42 3 -19 -4 -33 -4 -30 0 3 4 -9 10 -25 12
-20 3 -30 0 -30 -8 0 -8 -6 -11 -16 -7 -11 4 -12 8 -4 13 7 4 -3 7 -21 5 -19
-2 -44 -3 -57 -4 -13 -1 -20 -5 -17 -11 4 -7 -3 -7 -20 0 -20 8 -27 7 -31 -5
-7 -16 -44 -21 -44 -5 0 5 -7 7 -15 4 -8 -4 -13 -9 -11 -13 6 -9 -37 -7 -52 3
-7 4 -16 4 -22 1 -5 -3 -10 1 -10 9 0 21 -13 20 -34 -3 -17 -19 -52 -19 -40 0
9 16 -29 10 -48 -7 -16 -16 -18 -15 -24 1 -6 16 -9 15 -26 -6 -11 -13 -17 -19
-14 -12 8 16 -7 24 -24 13 -11 -7 -11 -12 -2 -23 9 -11 9 -14 -3 -14 -7 0 -13
5 -12 10 1 6 -13 14 -31 18 -27 5 -32 4 -28 -8 3 -8 2 -11 -3 -8 -5 3 -12 1
-16 -5 -4 -6 -11 -7 -17 -4 -6 4 -5 10 3 16 11 7 9 8 -6 6 -11 -1 -26 2 -34 7
-10 5 -16 4 -19 -3 -2 -7 -8 -12 -13 -12 -6 0 -7 4 -4 10 4 6 -2 7 -17 2 -13
-5 -34 -6 -48 -2 -14 4 -31 2 -39 -4 -12 -9 -13 -8 -6 4 7 13 6 13 -7 2 -10
-8 -19 -9 -22 -3 -4 5 2 14 11 20 10 6 15 11 10 11 -4 0 -16 -6 -27 -12 -14
-9 -23 -10 -28 -3 -9 13 -62 19 -62 6 0 -5 -7 -12 -16 -15 -14 -5 -15 -4 -5 8
9 11 9 16 0 22 -7 4 -14 3 -16 -2 -3 -10 -70 -11 -80 0 -9 9 -25 7 -19 -2 3
-5 -18 -5 -47 -1 -94 14 -157 16 -158 5 0 -6 -3 -5 -6 2 -7 18 -53 15 -53 -3
0 -17 -25 -20 -35 -5 -4 6 -12 7 -23 1 -11 -6 -20 -4 -29 7 -11 15 -12 13 -13
-13 -1 -29 -2 -29 -11 -7 -5 13 -13 20 -19 17 -6 -4 -8 -10 -6 -14 8 -12 -31
-6 -46 7 -8 6 -25 10 -37 7 -13 -2 -30 3 -38 11 -9 9 -31 15 -52 14 -60 -3
-82 0 -77 9 3 4 -5 6 -18 4 -13 -3 -27 0 -30 6 -10 16 -26 14 -26 -3 0 -15
-16 -16 -37 -3 -8 5 -13 3 -13 -3 0 -8 -19 -9 -60 -4 -41 4 -64 3 -74 -5 -11
-9 -16 -9 -23 1 -12 20 -145 19 -160 -1 -10 -14 -12 -14 -18 1 -4 9 -15 18
-26 21 -13 3 -17 1 -12 -6 4 -7 -5 -4 -21 6 -15 10 -30 16 -34 13 -3 -3 1 -6
8 -6 7 0 11 -2 8 -5 -3 -3 -17 -1 -32 4 -17 7 -26 7 -26 1 0 -6 -5 -10 -11
-10 -5 0 -7 6 -3 13 6 9 4 9 -7 1 -8 -5 -25 -9 -39 -7 -14 2 -44 4 -67 6 -22
1 -39 5 -37 8 3 6 -23 5 -51 -1 -5 -1 -12 -1 -15 0 -3 1 -25 3 -50 5 -61 4
-73 7 -88 25 -7 8 -11 11 -10 5 3 -16 -13 -55 -23 -55 -5 0 -7 17 -4 38 2 20
1 30 -3 21 -4 -9 -17 -15 -30 -14 -13 1 -25 -2 -27 -6 -3 -4 -23 -3 -45 2 -22
5 -43 9 -47 8 -5 -1 -12 0 -18 1 -33 7 -51 3 -62 -15 -12 -19 -13 -19 -10 4 2
21 -2 24 -29 24 -16 1 -35 -2 -40 -6 -14 -8 -94 -6 -94 3 0 4 -7 10 -14 13
-11 4 -13 1 -9 -11 3 -9 3 -14 -2 -10 -4 4 -14 3 -21 -3 -8 -7 -14 -7 -19 1
-4 7 -13 7 -27 -1 -14 -8 -23 -8 -27 -1 -7 12 -29 11 -49 -1 -6 -5 -12 -4 -12
0 0 11 -81 9 -99 -2 -9 -5 -12 -4 -8 2 3 5 0 10 -8 10 -8 0 -11 -5 -8 -10 4
-6 0 -8 -9 -4 -9 3 -21 0 -28 -6 -10 -9 -11 -9 -5 3 6 12 5 12 -5 3 -7 -6 -19
-9 -26 -6 -8 3 -14 0 -14 -6 0 -6 -7 -11 -15 -11 -18 0 -20 16 -2 24 6 3 -1 3
-16 1 -16 -2 -35 -9 -42 -15 -14 -12 -153 -8 -190 5 -15 5 -16 4 -6 -3 19 -14
-13 -20 -56 -11 -18 4 -33 3 -33 -1 0 -13 -74 -20 -81 -8 -4 7 -14 8 -25 3
-32 -14 -106 -16 -97 -2 5 9 3 9 -8 1 -17 -14 -69 -24 -69 -14 0 13 -35 7 -54
-9 -11 -9 -17 -11 -13 -6 3 6 1 17 -4 25 -8 13 -10 13 -18 0 -5 -8 -7 -19 -3
-25 3 -5 -1 -4 -10 2 -8 7 -18 10 -21 6 -12 -11 -167 -7 -179 5 -17 17 -26 15
-24 -6 1 -15 -11 -17 -107 -18 -81 -1 -107 2 -103 11 6 17 -26 14 -40 -3 -8
-11 -12 -11 -23 2 -10 12 -17 13 -26 6 -10 -8 -15 -8 -21 1 -5 8 -3 10 7 4 10
-6 11 -5 4 3 -9 10 -57 19 -107 21 -10 1 -18 8 -18 16 0 8 -5 15 -10 15 -7 0
-7 6 0 19 7 14 6 21 -3 24 -9 4 -8 8 3 16 19 13 20 34 0 44 -9 4 -5 6 13 4 31
-5 36 7 10 22 -17 9 -17 11 -2 23 9 7 20 27 23 43 3 17 9 40 11 53 4 16 2 21
-6 17 -6 -4 -3 5 7 21 11 15 18 29 17 31 -8 9 -1 23 12 23 8 0 15 5 15 11 0 5
-6 7 -12 3 -7 -4 -5 2 5 14 11 11 16 25 13 30 -3 5 3 20 14 32 22 25 26 35 10
25 -5 -3 -10 -1 -10 4 0 6 4 11 10 11 5 0 9 3 8 8 -2 4 2 25 9 47 7 22 15 53
18 68 3 17 10 26 18 22 7 -4 3 1 -7 9 -17 14 -18 16 -3 16 9 0 17 7 17 15 0 8
5 15 11 15 6 0 9 9 6 20 -3 11 -1 20 4 20 5 0 9 9 9 21 0 13 4 18 12 13 7 -5
8 -3 4 5 -5 7 0 18 10 26 11 8 16 15 11 15 -4 0 4 18 19 41 14 22 23 43 20 46
-3 4 2 12 12 20 12 10 13 16 5 19 -13 6 -11 9 25 49 7 8 10 19 7 25 -3 5 0 10
9 10 9 0 17 15 21 40 4 22 11 42 15 45 5 3 6 13 3 22 -5 12 -3 14 7 8 10 -6
12 -4 7 8 -3 10 -2 17 3 17 6 0 10 9 10 20 0 11 5 20 11 20 11 0 41 64 37 80
-2 5 8 16 21 23 13 6 29 21 35 32 6 11 13 22 16 25 3 3 18 26 33 53 15 26 32
47 37 47 6 0 10 9 10 20 0 19 28 52 66 78 11 7 13 10 7 7 -8 -4 -13 0 -13 9 0
9 4 16 9 16 8 0 21 29 25 54 0 5 7 10 14 12 7 1 8 0 2 -3 -5 -2 -8 -9 -4 -14
6 -10 64 43 64 59 0 6 -6 13 -12 15 -8 3 -6 6 4 6 9 1 27 11 40 24 13 12 38
34 56 50 19 15 31 27 28 27 -3 0 5 10 17 23 12 13 25 22 29 20 4 -2 13 6 21
17 7 11 17 17 22 12 4 -4 4 3 1 15 -6 18 -4 22 7 17 10 -3 18 3 23 18 4 13 15
30 25 39 11 9 19 21 19 27 0 7 11 18 23 27 13 8 29 26 35 40 6 14 16 25 22 25
7 0 18 7 26 15 9 8 24 15 35 15 10 0 19 5 19 11 0 6 23 33 51 60 40 38 49 52
40 63 -15 18 -1 29 17 13 13 -9 14 -9 8 1 -4 7 -1 12 9 12 10 0 13 5 9 12 -4
6 -3 8 4 4 15 -9 61 14 56 29 -3 7 1 12 8 12 7 -1 13 1 13 5 0 4 15 18 33 31
42 32 81 74 74 81 -3 3 0 6 6 6 12 0 34 19 62 55 14 17 13 18 -7 13 -20 -5
-21 -4 -10 21 6 14 12 28 14 30 6 9 33 -30 27 -41 -4 -6 5 -21 22 -36 16 -13
24 -21 17 -18 -6 4 -15 1 -18 -4 -8 -13 24 -52 36 -44 5 3 9 -1 9 -8 0 -23 35
-85 47 -81 6 2 13 -5 16 -17 3 -12 13 -20 27 -20 11 0 19 -4 16 -9 -3 -5 3
-20 14 -34 11 -14 20 -30 20 -35 0 -5 8 -9 17 -8 9 0 22 -8 27 -19 7 -12 19
-19 29 -17 10 2 17 0 16 -5 -4 -21 2 -33 16 -33 9 0 15 -7 13 -17 -2 -10 5
-19 16 -21 13 -3 16 0 11 10 -4 7 3 2 14 -12 11 -14 21 -31 21 -37 0 -7 5 -13
11 -13 6 0 9 6 6 13 -3 8 1 14 9 14 7 0 11 -4 8 -8 -6 -10 27 -28 41 -23 6 2
18 -8 27 -23 10 -16 18 -22 18 -15 0 21 20 13 32 -14 8 -18 17 -24 31 -20 14
3 17 1 12 -12 -3 -9 -3 -13 1 -10 4 4 16 2 28 -4 11 -7 26 -13 31 -14 28 -4
55 -18 55 -28 0 -16 42 -18 53 -3 6 8 7 7 4 -5 -4 -11 2 -18 19 -22 14 -4 29
-4 35 -1 5 4 9 3 8 -2 -5 -32 23 -38 43 -9 5 7 8 4 8 -7 0 -13 6 -17 23 -15
13 2 21 -2 19 -9 -1 -7 5 -13 13 -13 8 0 15 -5 15 -11 0 -8 4 -8 14 1 12 9 22
8 50 -5 20 -10 43 -14 53 -11 9 4 20 1 25 -6 6 -10 8 -10 8 0 0 6 5 12 11 12
5 0 7 -4 4 -10 -4 -6 6 -7 26 -3 24 5 30 3 24 -7 -5 -9 -2 -10 14 -5 16 5 20
3 15 -9 -7 -19 12 -22 20 -3 5 9 7 9 12 -1 5 -10 9 -10 22 0 12 10 14 10 8 1
-4 -7 -2 -13 3 -13 6 0 11 7 11 15 0 8 5 15 10 15 7 0 7 -6 2 -17 -5 -10 -7
-24 -5 -31 4 -10 9 -9 24 4 18 17 20 16 33 -1 11 -15 18 -16 44 -7 16 6 33 8
36 5 3 -4 6 -1 6 6 0 7 5 9 10 6 6 -4 17 -1 25 5 12 10 15 9 15 -4 0 -18 15
-22 25 -6 5 8 12 7 22 -1 9 -8 17 -9 21 -3 9 12 35 12 44 -1 5 -6 8 -6 8 2 0
6 10 10 23 8 33 -4 58 -16 52 -25 -3 -5 0 -12 6 -16 8 -4 9 -3 5 4 -4 7 -1 12
8 12 9 0 16 5 16 10 0 6 -5 10 -12 10 -6 0 -8 3 -5 7 4 3 15 0 24 -8 10 -8 32
-16 48 -17 26 -1 27 0 10 8 -16 8 -13 9 13 4 22 -4 41 0 57 10 14 9 25 12 25
7 0 -6 22 -10 50 -8 28 1 50 5 50 9 0 4 9 8 20 8 11 0 20 -4 20 -8 0 -4 9 -8
20 -9 12 -1 18 3 14 8 -4 7 13 9 50 5 44 -5 58 -3 62 8 5 12 10 13 24 4 10 -7
17 -15 14 -20 -3 -4 8 -1 23 7 15 8 49 15 75 15 26 0 49 4 52 9 3 5 20 14 36
20 18 6 28 6 25 1 -10 -16 11 -11 25 5 10 12 16 13 26 4 11 -9 14 -9 14 0 0 7
9 9 26 5 19 -5 25 -4 20 5 -5 8 0 8 19 1 32 -12 38 -12 31 -2 -2 4 -1 14 4 22
7 12 12 11 28 -4 13 -11 22 -14 27 -7 3 6 14 11 24 11 20 0 71 22 71 32 0 3 9
4 20 1 13 -3 20 0 20 8 0 12 2 12 9 1 7 -11 10 -11 22 0 8 7 21 13 29 13 8 0
14 5 13 12 -2 8 4 10 14 6 12 -5 14 -3 8 8 -7 11 -5 11 10 -1 17 -14 18 -13
12 3 -5 14 -2 16 18 13 27 -5 59 19 49 36 -4 6 -3 8 3 5 6 -4 35 6 66 22 31
16 59 26 62 23 3 -3 5 2 5 10 0 9 7 19 16 22 9 4 14 9 10 13 -3 3 4 11 17 18
12 6 21 17 19 23 -1 7 6 12 17 12 10 0 29 8 42 18 13 10 32 22 42 25 11 4 15
12 11 18 -4 8 -3 9 5 5 7 -4 19 2 29 14 10 12 30 24 44 25 15 2 37 10 50 19
20 14 18 21 -4 17 -5 0 -8 4 -8 10 0 5 16 17 35 25 19 8 35 17 35 20 0 3 -4 2
-10 -1 -23 -14 -7 15 21 39 17 14 27 26 23 26 -4 0 1 8 10 19 21 23 57 93 51
99 -2 2 7 14 20 26 13 12 27 35 31 52 3 16 18 41 32 57 29 30 34 33 26 14z"/>
<path d="M4109 8525 c-3 -3 -42 -5 -85 -6 -147 0 -346 -19 -380 -35 -38 -18
-63 -53 -75 -103 -13 -55 -22 -714 -11 -815 9 -79 13 -92 40 -119 24 -24 43
-32 90 -38 149 -21 326 7 373 57 30 32 52 134 38 171 -20 54 -41 64 -118 57
-38 -4 -78 -3 -88 1 -10 5 -21 9 -25 9 -4 1 -20 14 -35 30 -22 24 -27 39 -28
85 -2 87 34 139 110 160 59 16 71 14 108 -19 19 -16 38 -30 41 -30 12 0 -28
61 -52 81 -23 17 -23 19 -7 46 26 44 61 64 129 76 56 9 68 8 107 -10 53 -25
109 -84 109 -115 0 -13 -9 -37 -20 -55 -11 -19 -15 -35 -10 -38 6 -4 18 8 28
25 37 68 35 67 85 43 60 -29 83 -71 81 -145 -4 -108 -47 -140 -184 -137 -65 1
-75 -1 -97 -24 -63 -63 -35 -183 52 -225 26 -12 51 -19 57 -16 6 4 8 3 5 -3
-14 -23 193 -31 263 -10 82 24 140 141 128 260 -3 26 -1 44 4 41 4 -3 6 48 3
113 -3 65 -7 177 -9 248 -5 150 -13 274 -22 326 -6 41 -43 82 -89 99 -31 12
-506 26 -516 15z"/>
<path d="M3762 6122 c-29 -9 -82 -73 -93 -113 -7 -24 -18 -53 -25 -64 -7 -11
-16 -38 -19 -60 -4 -22 -16 -50 -27 -61 -11 -12 -18 -28 -17 -35 3 -20 -19
-71 -41 -94 -11 -12 -21 -30 -23 -40 -2 -11 -9 -33 -16 -48 -6 -16 -9 -32 -6
-37 3 -5 1 -12 -5 -15 -6 -4 -8 -16 -4 -27 4 -13 2 -18 -4 -14 -6 4 -10 -1
-10 -11 1 -27 -12 -86 -22 -98 -12 -15 -16 -48 -7 -62 5 -7 4 -13 -1 -13 -6 0
-14 -24 -18 -52 -4 -29 -9 -62 -10 -73 -2 -11 -5 -36 -8 -55 -2 -19 -13 -57
-25 -83 -23 -54 -25 -61 -13 -53 12 7 9 -108 -3 -116 -6 -5 -5 -8 4 -8 7 0 11
-6 8 -14 -4 -9 2 -17 14 -21 22 -7 25 -25 7 -43 -8 -8 -8 -12 -1 -12 9 0 17
-17 23 -50 3 -12 34 -40 46 -40 7 0 29 -13 47 -30 19 -16 40 -30 48 -30 7 0
20 -7 30 -16 9 -8 27 -16 40 -18 13 -2 43 -8 67 -15 49 -14 162 -20 162 -8 0
4 5 7 11 7 5 0 7 -5 3 -11 -10 -17 58 0 72 17 14 17 34 18 34 2 0 -9 3 -9 12
0 7 7 22 12 34 12 12 0 27 7 34 14 8 11 18 12 36 6 15 -6 24 -6 24 0 0 6 7 10
15 10 8 0 15 5 15 10 0 6 9 10 19 10 11 0 22 4 26 9 3 5 19 12 35 16 17 4 30
11 30 16 0 5 7 9 15 9 8 0 15 6 15 14 0 8 14 17 30 21 24 5 29 11 25 25 -3 10
0 22 6 26 8 5 10 2 5 -7 -4 -8 2 -3 14 10 11 13 18 31 15 39 -3 9 -1 18 5 22
14 8 21 58 10 65 -5 3 -6 14 -3 25 6 23 -22 54 -42 46 -10 -3 -15 1 -15 11 0
9 -3 13 -6 10 -4 -3 -16 -1 -28 5 -34 19 -98 19 -113 0 -10 -14 -14 -14 -21
-4 -8 11 -10 11 -15 -2 -4 -9 -13 -16 -20 -16 -8 0 -26 -9 -41 -21 -14 -11
-30 -18 -36 -14 -5 3 -22 -1 -38 -9 -16 -8 -32 -12 -36 -9 -3 4 -6 1 -6 -5 0
-7 -9 -12 -21 -12 -11 0 -18 -4 -15 -9 7 -11 -58 -14 -166 -7 -36 2 -84 36
-71 50 3 3 7 16 8 28 2 13 8 51 14 85 10 53 9 67 -4 92 -14 28 -14 30 2 24 12
-5 15 -2 10 9 -3 9 -3 19 1 23 8 8 9 13 11 56 1 21 5 28 14 23 10 -6 10 -4 0
7 -18 18 -16 32 2 25 16 -6 21 19 6 29 -11 6 -8 48 7 86 12 29 11 47 -2 68 -5
8 -4 16 4 21 9 6 9 9 -1 15 -10 7 -8 10 5 15 10 3 17 8 16 10 -1 3 3 17 9 32
8 21 7 31 -4 42 -19 19 -19 30 -1 23 11 -4 13 -1 9 10 -4 9 -2 14 3 11 5 -4 9
15 9 40 0 26 4 50 8 53 5 3 9 22 10 42 1 22 6 32 12 27 7 -6 11 14 12 56 1 38
-2 62 -8 59 -5 -4 -9 -1 -9 4 0 6 3 11 8 11 4 0 13 9 20 20 10 16 9 25 -7 54
-11 19 -17 37 -14 40 12 12 -63 19 -95 8z"/>
<path d="M5139 5191 c-2 -5 -17 -12 -34 -16 -23 -5 -26 -4 -15 4 11 8 12 11 2
11 -8 0 -16 -9 -19 -20 -6 -22 -18 -26 -28 -10 -9 15 -47 -8 -39 -23 4 -7 4
-9 -1 -5 -12 11 -35 -11 -35 -32 0 -10 -7 -20 -15 -24 -8 -3 -15 -15 -15 -26
0 -11 -7 -20 -15 -20 -12 0 -14 -11 -11 -60 3 -33 1 -62 -5 -65 -5 -4 -7 -10
-4 -15 3 -5 -3 -24 -13 -42 -18 -31 -22 -47 -23 -90 0 -10 -5 -18 -10 -18 -6
0 -7 -5 -4 -10 4 -6 12 -7 18 -3 7 4 6 0 -2 -10 -7 -9 -11 -17 -7 -17 4 0 -5
-20 -19 -45 -14 -25 -25 -50 -25 -56 0 -5 -10 -23 -21 -38 -12 -16 -18 -34
-15 -40 4 -6 0 -14 -8 -17 -9 -3 -16 -12 -16 -19 0 -8 -6 -20 -13 -27 -7 -7
-14 -16 -15 -21 -5 -22 -29 -47 -45 -47 -10 0 -20 -7 -23 -15 -4 -8 -13 -15
-21 -15 -8 0 -11 -4 -8 -10 3 -5 1 -10 -5 -10 -6 0 -8 -4 -5 -10 3 -5 0 -7 -8
-4 -9 3 -20 -8 -32 -32 -13 -27 -19 -33 -26 -23 -5 9 -9 10 -9 2 0 -10 -55
-29 -72 -25 -5 1 -7 -1 -6 -6 2 -11 -21 -62 -28 -62 -3 0 -3 7 0 16 5 13 1 14
-22 10 -15 -4 -37 -8 -50 -11 -12 -2 -26 -6 -31 -9 -5 -3 -26 -8 -47 -12 -22
-3 -40 -10 -42 -14 -2 -5 -10 -6 -17 -4 -8 3 -29 -1 -46 -10 -18 -9 -41 -16
-52 -16 -12 0 -32 -10 -45 -22 -14 -13 -22 -18 -18 -11 3 6 -17 -1 -46 -16
-29 -16 -58 -38 -64 -50 -6 -11 -14 -18 -17 -14 -11 10 -8 -16 3 -38 6 -10 20
-19 31 -19 11 0 22 -7 25 -15 5 -12 9 -13 21 -3 9 8 17 8 21 2 11 -16 40 -24
104 -29 36 -3 58 -1 58 5 0 6 8 5 21 -2 17 -10 23 -10 26 0 3 6 9 12 14 12 6
0 7 -4 4 -10 -3 -5 -1 -10 4 -10 6 0 11 4 11 9 0 6 13 5 32 -1 24 -8 47 -8 90
1 32 6 63 9 68 6 6 -3 10 -1 10 4 0 6 8 11 18 11 9 0 44 13 77 29 33 16 63 27
66 25 4 -2 10 3 13 12 3 8 10 12 16 9 5 -3 10 -2 10 4 0 5 -6 12 -12 15 -7 3
-3 3 10 0 15 -4 24 0 28 10 3 9 11 16 16 16 6 0 16 7 22 15 6 8 43 31 81 50
39 19 63 35 55 35 -13 0 -13 2 0 9 8 6 18 7 24 4 5 -4 7 3 3 16 -4 18 -2 21
15 15 13 -4 18 -2 14 4 -3 5 5 17 19 26 16 11 22 22 18 33 -5 13 -2 15 16 10
19 -5 22 -2 18 14 -4 14 0 19 16 19 18 0 19 2 7 10 -13 8 -13 10 1 10 14 0 34
29 37 53 1 4 7 14 14 22 45 50 44 46 47 111 1 16 5 23 13 18 7 -5 9 -2 5 9 -3
8 1 21 9 28 9 7 13 21 11 30 -3 10 1 20 9 23 8 3 14 12 14 20 0 8 5 16 11 18
7 2 13 20 14 39 1 19 7 45 14 57 7 12 9 26 7 31 -3 5 1 12 10 15 11 4 15 14
12 31 -3 14 -1 25 5 25 5 0 7 11 5 25 -3 14 -1 28 4 31 5 3 8 18 7 32 -2 15 0
32 3 38 4 6 1 23 -7 38 -8 14 -10 24 -5 21 6 -4 10 -1 10 4 0 6 -4 11 -10 11
-5 0 -10 7 -10 15 0 8 -3 14 -7 14 -26 -4 -35 3 -16 11 15 6 21 15 17 25 -5
13 -9 13 -22 3 -12 -10 -14 -10 -8 -1 4 8 -2 17 -18 25 -14 6 -26 17 -26 25 0
17 -20 17 -20 1 -1 -8 -6 -6 -14 5 -8 10 -16 14 -17 8z"/>
</g>
</svg>
