<svg xmlns="http://www.w3.org/2000/svg" id="Layer_1" data-name="Layer 1" viewBox="0 0 181 181"><defs><style>.cls-1{fill:#fff;}.cls-2{fill:#151515;}.cls-3{fill:#fafbfb;}</style></defs><path class="cls-1" d="M.07,180.54Q.07,90.89,0,1.23C0-.12.34-.43,1.69-.43q88.85.06,177.68,0c1.36,0,1.66.31,1.66,1.66q-.06,88.85,0,177.68c0,1.36-.3,1.66-1.66,1.66Q89.71,180.51.07,180.54Zm33.74-75.75-.05,0c-.34.5.06.77.35,1,2.82,2.81,5.66,5.6,8.23,8.66,3.57,4.25,7.74,7.94,11.33,12.2,1.94,2.31,4.49,4.12,6.38,6.58a61.28,61.28,0,0,0,5.09,5.49,36.31,36.31,0,0,0,3.61,3.84A21.44,21.44,0,0,1,72,146c1.34,1.62,2.92,2.88,4.36,4.33,1.06,1.07,2.42,1.71,3.32,3.12A26,26,0,0,0,85,159.6c1.79,1.46,3.59,3,5.23,4.52,3.35,3.2,7.39,4.29,11.71,5,6.28,1,11.64-1.88,16.92-4.39,2.88-1.37,5.13-4.07,7.61-6.23.65-.57.73-1.64,1.51-2.17,3.49-2.31,4.8-6.15,6.19-9.68a23.55,23.55,0,0,0,1.55-10.39c-.33-4.16-1.12-8.22-4.06-11.5a8.4,8.4,0,0,1-1.69-2.07,14.52,14.52,0,0,0-3.64-5.32c-2.46-2.2-4.13-5.11-6.65-7.24-1.22-1-2.71-1.92-3.51-3.22-2.27-3.67-5.52-6.43-8.48-9.41-2.82-2.83-5.38-5.91-8.45-8.53s-5.25-5.9-8-8.72C89,77.94,87.41,75.17,85,73c-2-1.8-3.7-4.28-5.79-5.78-2.73-2-4.5-4.6-6.45-7a69.3,69.3,0,0,0-8.28-8.49,88.5,88.5,0,0,0-10.23-8.09c-1.27-.82-2.81-.85-3.85-1.64a6.29,6.29,0,0,0-5.75-1,7.38,7.38,0,0,1-1.42.08,37.22,37.22,0,0,0-14.42,3.23,22.14,22.14,0,0,0-6.5,5.18c-3.22,3.32-6.38,6.74-8.14,11.11-1,2.41-3,4.74-1.32,7.68.16.27-.14.8-.2,1.21a14.46,14.46,0,0,0,.75,8.33c1.07,2.3.61,5.42,3.32,6.91,0,0,0,.12,0,.17a27.73,27.73,0,0,0,6.43,9.74c1.48,1.52,3.3,2.71,4.48,4.5A17.19,17.19,0,0,0,33.81,104.79Zm106.8-59.27c-.56-.51-.8,0-1.12,0-2.64.27-4.69,2.07-7.22,2.75A6.73,6.73,0,0,0,128,51.51a8,8,0,0,1-2,3c-2.56,1.73-2.88,4.52-4.12,6.88-.64,1.22-.55,2.5-1,3.72a19.11,19.11,0,0,0-.49,8.8c.23,1.71.87,3.43,1.25,5.11.53,2.32,2,4,3,5.93.77,1.58,2.52,2,3.23,3.56a5.85,5.85,0,0,0,2.25,2.28c1.16.79,2.64,1,3.6,2,1.77,1.93,4.14,2,6.53,2.45a25.19,25.19,0,0,0,11.46-.4,29.82,29.82,0,0,0,3.23-1.5A38.08,38.08,0,0,0,160,90.79c2.21-1.31,3.55-3.64,5.51-5.27.57-.48,1.15-.74,1.46-1.69.53-1.65,1-3.33,1.52-5a28,28,0,0,0,1.14-14.63c-.23-1.1-1.13-2.07-1.3-3.16A10.42,10.42,0,0,0,165.15,55c-2.27-2.23-4.36-4.62-7.07-6.4-3.3-2.15-7-2.7-10.75-3.22A26.37,26.37,0,0,0,140.61,45.52ZM79.12,38.88c.12,2.69,1.9,4.82,2.57,7.36.5,1.89,2.17,3.54,3.55,5.1.77.87,1.32,2,2.82,2.37.77.2,2.27.53,2.71,1.69a2.41,2.41,0,0,0,1.75,1.51c1.5.41,2.83,1.2,4.36,1.64,3.1.89,6,1.59,9.28,1.14,1-.14,2.08-.7,3.16,0a3.62,3.62,0,0,0,1.54-.1c2.91-.8,5.13-3,8.12-3.76a9.41,9.41,0,0,0,4.88-3.61c2.07-2.81,5-5.16,5.49-9a1.23,1.23,0,0,1,.16-.5c1.66-2.68,1.64-5.59,1.55-8.62,0-1.35-.65-2.56-.52-3.82a11.28,11.28,0,0,0-1.08-6.08,40.27,40.27,0,0,0-5.11-7.46c-1.79-2.24-4.37-3.41-6.7-4.88A21,21,0,0,0,113,10.18c-1.94-.66-3.88-2.22-6.2-1.16a.56.56,0,0,1-.49-.14c-.89-1-2.17-.58-3.13-.54-3.67.14-7.29.72-10.47,2.82a18,18,0,0,1-2.85,2.06C87,14.34,85.32,16.54,83.62,19a29.5,29.5,0,0,0-4.93,13.94C78.46,34.85,79.3,36.84,79.12,38.88Z"></path><path class="cls-2" d="M33.81,104.79a17.19,17.19,0,0,1-6.21-5.65c-1.18-1.79-3-3-4.48-4.5a27.73,27.73,0,0,1-6.43-9.74c0-.05,0-.16,0-.17-2.71-1.49-2.25-4.61-3.32-6.91a14.46,14.46,0,0,1-.75-8.33c.06-.41.36-.94.2-1.21-1.66-2.94.35-5.27,1.32-7.68,1.76-4.37,4.92-7.79,8.14-11.11a22.14,22.14,0,0,1,6.5-5.18,37.22,37.22,0,0,1,14.42-3.23A7.38,7.38,0,0,0,44.63,41a6.29,6.29,0,0,1,5.75,1c1,.79,2.58.82,3.85,1.64a88.5,88.5,0,0,1,10.23,8.09,69.3,69.3,0,0,1,8.28,8.49c2,2.4,3.72,5,6.45,7,2.09,1.5,3.75,4,5.79,5.78,2.43,2.14,4,4.91,6.27,7.21,2.73,2.82,5,6.17,8,8.72s5.63,5.7,8.45,8.53c3,3,6.21,5.74,8.48,9.41.8,1.3,2.29,2.19,3.51,3.22,2.52,2.13,4.19,5,6.65,7.24a14.52,14.52,0,0,1,3.64,5.32,8.4,8.4,0,0,0,1.69,2.07c2.94,3.28,3.73,7.34,4.06,11.5a23.55,23.55,0,0,1-1.55,10.39c-1.39,3.53-2.7,7.37-6.19,9.68-.78.53-.86,1.6-1.51,2.17-2.48,2.16-4.73,4.86-7.61,6.23-5.28,2.51-10.64,5.4-16.92,4.39-4.32-.7-8.36-1.79-11.71-5-1.64-1.56-3.44-3.06-5.23-4.52a26,26,0,0,1-5.32-6.12c-.9-1.41-2.26-2-3.32-3.12-1.44-1.45-3-2.71-4.36-4.33a21.44,21.44,0,0,0-3.24-3.44,36.31,36.31,0,0,1-3.61-3.84,61.28,61.28,0,0,1-5.09-5.49c-1.89-2.46-4.44-4.27-6.38-6.58-3.59-4.26-7.76-8-11.33-12.2-2.57-3.06-5.41-5.85-8.23-8.66-.29-.28-.69-.55-.36-1,0-.11.08-.2.12-.3l-.24.1Zm8.5-57.19c-2.71.39-5.76.25-8.28,1.33a24.65,24.65,0,0,0-9.84,7.69c-2.54,3.3-5,6.5-5,11.07-.06,3.22-.88,6.35.53,9.51a33.06,33.06,0,0,0,5.41,8.94c2.12,2.36,4.64,4.39,6,7.37a6,6,0,0,0,1.46,1.8c3,2.59,5.87,5.23,8.93,7.68,3.75,3,6.76,6.72,10.39,9.86a41.75,41.75,0,0,1,7.47,8c.62.91,1.15.76,1.62.08a50.3,50.3,0,0,1,7.1-7.62c4-3.83,7.62-8,11.46-11.92a34.82,34.82,0,0,0,3.81-4,5,5,0,0,1,2.1-2.13c2.12-.82,3-2.91,4.32-4.46.23-.25.85-1.42-.1-1.82a6.33,6.33,0,0,1-3.06-3.21c-1.83-3.48-4.92-5.9-7.5-8.71s-4.56-6.56-7.86-8.93a.46.46,0,0,1-.15-.31c0-1.38-1.14-1.38-2-1.61a3.73,3.73,0,0,1-1.54-.69c-2-1.6-2.88-4-4.45-5.93a47.78,47.78,0,0,0-4.43-5.24c-1.73-1.55-4.17-2.48-6-4.14s-4.56-1.52-6.74-2.63C45,47,43.64,48,42.31,47.6Zm61.82,114.45a30.1,30.1,0,0,0,3.3-.66c2.4-.78,5.25-1.12,7-2.66,2.47-2.14,5.74-3.42,7.49-6.42a4.41,4.41,0,0,1,1.26-1.25c2.42-1.72,3-4.55,4-7a17.75,17.75,0,0,0,1.24-7.2c0-.32.13-.87.34-1,.88-.34.58-.62.13-1.1a2,2,0,0,1-.49-1.14c-.44-5.26-4.42-8.38-7.59-11.77-2.53-2.71-5-5.53-7.77-8-2.94-2.66-5.12-6.13-8.19-8.69-1-.88-1.38-2.15-2.32-3-1.79-1.68-3.92-3-5.38-5.07-1-1.46-1.91-1.34-3.06.12a14,14,0,0,1-2.77,3.26c-3.61,2.41-5.7,6.3-9,9-2.17,1.74-3.83,4.1-6,5.9a99.49,99.49,0,0,0-10.85,11.07,1.26,1.26,0,0,0,.09,2.08A5.31,5.31,0,0,0,67.71,130c.59.17.54,1.2.66,1.33,2.16,2.12,4,4.59,6.54,6.32,1.89,1.27,2.53,3.62,4.34,5a11.81,11.81,0,0,1,2.53,1.85c1.63,2.11,3.4,4.13,5.18,6.11.55.61,1.49.82,1.94,1.56.88,1.42,1.49,3.09,3.54,3.23.58,0,.4.67.64,1,1.4,1.86,2.64,3.83,5,4.68C100.07,161.73,102.11,161.59,104.13,162.05Z"></path><path class="cls-2" d="M140.61,45.52a26.37,26.37,0,0,1,6.72-.16c3.75.52,7.45,1.07,10.75,3.22,2.71,1.78,4.8,4.17,7.07,6.4a10.42,10.42,0,0,1,3.22,6.08c.17,1.09,1.07,2.06,1.3,3.16a28,28,0,0,1-1.14,14.63c-.53,1.65-1,3.33-1.52,5-.31,1-.89,1.21-1.46,1.69-2,1.63-3.3,4-5.51,5.27a38.08,38.08,0,0,1-5.13,2.51,29.82,29.82,0,0,1-3.23,1.5,25.19,25.19,0,0,1-11.46.4c-2.39-.45-4.76-.52-6.53-2.45-1-1-2.44-1.21-3.6-2a5.85,5.85,0,0,1-2.25-2.28c-.71-1.54-2.46-2-3.23-3.56-1-2-2.43-3.61-3-5.93-.38-1.68-1-3.4-1.25-5.11a19.11,19.11,0,0,1,.49-8.8c.42-1.22.33-2.5,1-3.72,1.24-2.36,1.56-5.15,4.12-6.88a8,8,0,0,0,2-3,6.73,6.73,0,0,1,4.26-3.22c2.53-.68,4.58-2.48,7.22-2.75C139.81,45.51,140.05,45,140.61,45.52ZM159.8,59.69c-1.09,2.61-3.73,3.08-5.37,4.91a18.24,18.24,0,0,1-6.91,4.9c-2.34.92-4.43,2.86-6.66,4.3-1.54,1-2.8,2.3-4.75,2.8-1.45.38-2.34.35-3.13-.82s-.34-2.19.48-3.33c1.92-2.65,4.91-4,7.08-6.34a15.59,15.59,0,0,1,2.73-2.48,98.55,98.55,0,0,0,10-7.48c1.48-1.25,1.45-1.55-.36-2.57-.25-.14-.52-.24-.77-.37-1.07-.58-2.39-.3-3.37-.72a8.45,8.45,0,0,0-5.35-.79c-2.19.53-4.49.68-6.47,2.12a22.4,22.4,0,0,1-2,1.49c-2.45,1.38-4.83,2.73-6.09,5.78-1.42,3.41-3.11,6.56-2,10.37,0,.11,0,.24-.07.36-.38,1.79.47,3.61,1.15,4.88,1.33,2.51,2.37,5.25,5,7.15,3.44,2.47,7,4.35,11.14,4.54A19.17,19.17,0,0,0,151.22,87,18.9,18.9,0,0,0,158,82.65c1.54-1.48,2.21-3.8,3.67-5.52a2.28,2.28,0,0,0,.26-2.42,2.56,2.56,0,0,1,.39-2.27,5.28,5.28,0,0,0,.38-5.86,2.12,2.12,0,0,1-.28-1.9c.28-.61.56-.87-.35-.62-.47.13-.5-.08-.48-.42C161.61,62.13,160.45,61.2,159.8,59.69Z"></path><path class="cls-2" d="M79.12,38.88c.18-2-.66-4-.43-6A29.5,29.5,0,0,1,83.62,19c1.7-2.41,3.35-4.61,6.26-5.73a18,18,0,0,0,2.85-2.06c3.18-2.1,6.8-2.68,10.47-2.82,1,0,2.24-.49,3.13.54a.56.56,0,0,0,.49.14c2.32-1.06,4.26.5,6.2,1.16a21,21,0,0,1,4.63,1.75c2.33,1.47,4.91,2.64,6.7,4.88a40.27,40.27,0,0,1,5.11,7.46,11.28,11.28,0,0,1,1.08,6.08c-.13,1.26.48,2.47.52,3.82.09,3,.11,5.94-1.55,8.62a1.23,1.23,0,0,0-.16.5c-.49,3.8-3.42,6.15-5.49,9A9.41,9.41,0,0,1,119,55.86c-3,.77-5.21,3-8.12,3.76a3.62,3.62,0,0,1-1.54.1c-1.08-.73-2.21-.17-3.16,0-3.24.45-6.18-.25-9.28-1.14-1.53-.44-2.86-1.23-4.36-1.64a2.41,2.41,0,0,1-1.75-1.51c-.44-1.16-1.94-1.49-2.71-1.69-1.5-.38-2-1.5-2.82-2.37-1.38-1.56-3-3.21-3.55-5.1C81,43.7,79.24,41.57,79.12,38.88Zm46.16-6.29A19.92,19.92,0,0,0,124,26.15c-1.66-4.38-4-8.2-8.06-10.61-1.71-1-3.37-2.44-5.51-2.5-4.19-.12-8.28-.4-12.41,1.49-2.92,1.34-4.86,3.6-7.22,5.44s-3.1,4.75-4.36,7.31c-.3.61.48,1.71,1.15,1.7a23.63,23.63,0,0,1,3.86-.1,14.52,14.52,0,0,0,6,0,8.23,8.23,0,0,1,4.74,0c1.22.38,2.72,1,3.78.58,2.11-.75,3.12.53,4.34,1.59a1.09,1.09,0,0,1,0,1.72c-1.33.72-2.3,2-3.88,2.31a38.65,38.65,0,0,1-5.86.51c-2.46.17-4.91-.2-7.37.33-1.44.31-3-.11-4.49-.24a2.75,2.75,0,0,0-2.36.79c-.46.61.38,1.63-.3,2.36,1.56,0,.93,1.52,1.47,2.25a24,24,0,0,1,2.74,4.23c.81,1.88,2.49,2.76,3.69,3.92,1.75,1.71,4.55,2.4,7.17,2.59.78.05,1,.78,1.65.81a23.59,23.59,0,0,0,10.39-1.78c2.54-1.1,5.23-2.18,6.58-5A4.79,4.79,0,0,1,121,44.54c1.86-1.64,3.21-3.5,3.09-6.13a1.37,1.37,0,0,1,.27-.85C125.46,36.16,125.12,34.48,125.28,32.59Z"></path><path class="cls-3" d="M42.31,47.6c1.33.38,2.71-.56,3.63-.08,2.18,1.11,4.84.88,6.74,2.63s4.25,2.59,6,4.14a47.78,47.78,0,0,1,4.43,5.24c1.57,1.92,2.44,4.33,4.45,5.93a3.73,3.73,0,0,0,1.54.69c.88.23,2,.23,2,1.61a.46.46,0,0,0,.15.31c3.3,2.37,5.18,6,7.86,8.93s5.67,5.23,7.5,8.71a6.33,6.33,0,0,0,3.06,3.21c1,.4.33,1.57.1,1.82-1.36,1.55-2.2,3.64-4.32,4.46a5,5,0,0,0-2.1,2.13,34.82,34.82,0,0,1-3.81,4c-3.84,4-7.48,8.09-11.46,11.92a50.3,50.3,0,0,0-7.1,7.62c-.47.68-1,.83-1.62-.08a41.75,41.75,0,0,0-7.47-8C48.26,109.71,45.25,106,41.5,103c-3.06-2.45-6-5.09-8.93-7.68a6,6,0,0,1-1.46-1.8c-1.38-3-3.9-5-6-7.37a33.06,33.06,0,0,1-5.41-8.94c-1.41-3.16-.59-6.29-.53-9.51.08-4.57,2.5-7.77,5-11.07A24.65,24.65,0,0,1,34,48.93C36.55,47.85,39.6,48,42.31,47.6Z"></path><path class="cls-3" d="M104.13,162.05c-2-.46-4.06-.32-6-1-2.4-.85-3.64-2.82-5-4.68-.24-.3-.06-.93-.64-1-2-.14-2.66-1.81-3.54-3.23-.45-.74-1.39-.95-1.94-1.56-1.78-2-3.55-4-5.18-6.11a11.81,11.81,0,0,0-2.53-1.85c-1.81-1.41-2.45-3.76-4.34-5-2.55-1.73-4.38-4.2-6.54-6.32-.12-.13-.07-1.16-.66-1.33a5.31,5.31,0,0,1-2.11-1.51,1.26,1.26,0,0,1-.09-2.08A99.49,99.49,0,0,1,76.36,115.3c2.12-1.8,3.78-4.16,6-5.9,3.34-2.68,5.43-6.57,9-9a14,14,0,0,0,2.77-3.26c1.15-1.46,2-1.58,3.06-.12,1.46,2.07,3.59,3.39,5.38,5.07.94.88,1.27,2.15,2.32,3,3.07,2.56,5.25,6,8.19,8.69,2.78,2.51,5.24,5.33,7.77,8,3.17,3.39,7.15,6.51,7.59,11.77a2,2,0,0,0,.49,1.14c.45.48.75.76-.13,1.1-.21.08-.35.63-.34,1a17.75,17.75,0,0,1-1.24,7.2c-.95,2.48-1.57,5.31-4,7a4.41,4.41,0,0,0-1.26,1.25c-1.75,3-5,4.28-7.49,6.42-1.79,1.54-4.64,1.88-7,2.66A30.1,30.1,0,0,1,104.13,162.05Z"></path><path class="cls-1" d="M33.81,104.79l-.18-.22.24-.1c0,.1-.08.19-.12.3Z"></path><path class="cls-3" d="M159.8,59.69c.65,1.51,1.81,2.44,1.75,4,0,.34,0,.55.48.42.91-.25.63,0,.35.62a2.12,2.12,0,0,0,.28,1.9,5.28,5.28,0,0,1-.38,5.86,2.56,2.56,0,0,0-.39,2.27,2.28,2.28,0,0,1-.26,2.42c-1.46,1.72-2.13,4-3.67,5.52A18.9,18.9,0,0,1,151.22,87,19.17,19.17,0,0,1,144,88.39c-4.15-.19-7.7-2.07-11.14-4.54-2.65-1.9-3.69-4.64-5-7.15-.68-1.27-1.53-3.09-1.15-4.88,0-.12.1-.25.07-.36-1.09-3.81.6-7,2-10.37,1.26-3.05,3.64-4.4,6.09-5.78a22.4,22.4,0,0,0,2-1.49c2-1.44,4.28-1.59,6.47-2.12a8.45,8.45,0,0,1,5.35.79c1,.42,2.3.14,3.37.72.25.13.52.23.77.37,1.81,1,1.84,1.32.36,2.57a98.55,98.55,0,0,1-10,7.48,15.59,15.59,0,0,0-2.73,2.48c-2.17,2.32-5.16,3.69-7.08,6.34-.82,1.14-1.3,2.1-.48,3.33s1.68,1.2,3.13.82c1.95-.5,3.21-1.82,4.75-2.8,2.23-1.44,4.32-3.38,6.66-4.3a18.24,18.24,0,0,0,6.91-4.9C156.07,62.77,158.71,62.3,159.8,59.69Z"></path><path class="cls-3" d="M125.28,32.59c-.16,1.89.18,3.57-1,5a1.37,1.37,0,0,0-.27.85c.12,2.63-1.23,4.49-3.09,6.13a4.79,4.79,0,0,0-1.18,1.33c-1.35,2.78-4,3.86-6.58,5a23.59,23.59,0,0,1-10.39,1.78c-.63,0-.87-.76-1.65-.81-2.62-.19-5.42-.88-7.17-2.59-1.2-1.16-2.88-2-3.69-3.92a24,24,0,0,0-2.74-4.23c-.54-.73.09-2.24-1.47-2.25.68-.73-.16-1.75.3-2.36a2.75,2.75,0,0,1,2.36-.79c1.5.13,3.05.55,4.49.24,2.46-.53,4.91-.16,7.37-.33a38.65,38.65,0,0,0,5.86-.51c1.58-.34,2.55-1.59,3.88-2.31a1.09,1.09,0,0,0,0-1.72c-1.22-1.06-2.23-2.34-4.34-1.59-1.06.38-2.56-.2-3.78-.58a8.23,8.23,0,0,0-4.74,0,14.52,14.52,0,0,1-6,0,23.63,23.63,0,0,0-3.86.1c-.67,0-1.45-1.09-1.15-1.7,1.26-2.56,2.07-5.52,4.36-7.31s4.3-4.1,7.22-5.44c4.13-1.89,8.22-1.61,12.41-1.49,2.14.06,3.8,1.49,5.51,2.5C120,18,122.33,21.77,124,26.15A19.92,19.92,0,0,1,125.28,32.59Z"></path></svg>