<svg width="202" height="184" viewBox="0 0 202 184" fill="none" xmlns="http://www.w3.org/2000/svg">
<path d="M41.6184 90.0935C41.822 89.1311 42.8121 88.2671 41.9976 87.1712C42.5874 83.8134 43.1211 80.4627 44.4974 77.2735C45.1645 75.7421 46.4003 74.5128 46.7023 72.8198L47.4045 72.4194C47.6011 72.0471 48.8931 71.7169 47.4536 71.2674C48.2872 70.4751 48.9472 69.5183 49.3917 68.4575C50.9365 67.3757 50.5433 65.5774 50.8663 64.1162C51.3546 62.1554 51.2845 60.0971 50.664 58.1741C50.0435 56.251 48.8974 54.5401 47.3553 53.235C47.0183 51.8301 45.6279 51.2189 44.7712 50.2284C42.2223 47.2851 42.0889 46.4211 44.5325 43.4005C44.7343 43.122 44.9017 42.82 45.031 42.5013C45.1783 42.5128 45.3254 42.4776 45.4514 42.4007C45.5775 42.3237 45.6761 42.209 45.7332 42.0728C45.8992 41.6912 46.1392 41.3463 46.4394 41.0581C46.7395 40.77 47.0938 40.5442 47.4817 40.3939C47.8749 40.1129 47.8258 39.6914 47.8328 39.298V38.8485H48.5982C48.8229 39.0452 48.9282 38.9328 48.9914 38.7009C48.9809 38.5747 48.9809 38.4478 48.9914 38.3216L49.4197 37.7105L49.7217 37.0502C50.1079 36.9448 50.2062 36.6427 50.2273 36.2845L51.119 35.4766L51.1893 35.02C51.8072 34.5634 53.5205 35.1816 52.7762 33.3973C52.9024 33.408 53.0292 33.408 53.1554 33.3973L53.5767 33.4746C53.9138 33.889 54.3842 33.8118 54.8336 33.7977L55.2339 33.9242L55.5428 34.2192L55.6341 34.3105V34.437C56.0344 35.3151 57.0385 35.3221 57.7407 35.9613C58.808 37.0361 59.8473 38.2654 61.6308 38.2935C62.4594 38.2935 62.8316 39.1084 62.7684 39.9724C62.3817 40.2054 61.9629 40.3805 61.5255 40.4922C59.11 40.8645 57.5932 39.1295 55.7816 38.153C54.4193 37.4506 53.1835 37.6262 52.706 39.1927C52.6176 39.5526 52.397 39.8661 52.0881 40.0708C50.9154 39.9303 50.2273 40.3236 50.3396 41.6232C50.0837 41.6235 49.8338 41.7007 49.6222 41.8447C49.4106 41.9888 49.2471 42.193 49.1529 42.4311C48.6122 42.691 48.6544 43.1967 48.6403 43.6744C48.5841 43.829 48.5209 43.9835 48.4577 44.1381C48.4046 44.1556 48.3572 44.187 48.3201 44.229C48.2831 44.2709 48.2579 44.322 48.2471 44.3769C46.8989 45.3041 46.4916 46.4843 47.5449 47.826C48.5069 49.0413 49.6515 49.9896 50.5011 51.4367C51.3508 52.8838 52.6498 54.1412 53.5627 55.6023C53.998 56.3048 55.0092 56.923 54.623 57.9486C53.9208 59.9014 55.2479 61.7349 54.623 63.8563C53.998 65.9778 54.2508 67.9868 53.1624 69.6376C50.919 72.9318 48.9889 76.429 47.3974 80.0833C46.774 81.3068 46.3024 82.6019 45.9931 83.9399C45.7824 85.689 45.656 87.5295 45.6068 89.3348C45.4945 93.2546 45.0451 97.1603 45.2347 101.094C45.2768 102.049 45.4945 102.415 46.5688 102.626C48.2918 103.015 49.9697 103.582 51.5755 104.318C51.9336 104.466 52.0319 104.902 52.6358 104.642C53.338 104.326 53.0641 103.82 53.015 103.447C52.4804 100.295 52.3201 97.0908 52.5375 93.9009C52.9588 89.8757 53.5416 85.9279 55.0654 82.0994C56.87 77.5966 59.0959 73.2202 59.9807 68.3732C60.6225 64.5138 60.23 60.5531 58.8431 56.8949C57.6701 53.8285 56.1179 50.9211 54.2227 48.2405C53.3661 46.976 53.7803 45.9996 54.623 44.9037C55.4656 43.8079 56.6032 42.9649 57.9163 43.3513C61.5255 44.3356 65.0482 45.6137 68.4491 47.1727C71.4725 48.6508 74.8313 49.3074 78.1885 49.0764C83.6586 48.7884 89.2059 48.3739 94.3389 46.1541C96.4455 45.2479 99.0014 45.2409 100.659 43.1405C101.073 42.6207 102.562 42.5926 103.151 43.1897C104.429 44.4823 105.96 44.9318 107.61 45.536C113.228 47.6434 118.902 49.2099 124.947 49.0975C126.949 49.0553 128.943 48.8797 130.937 48.8727C133.191 48.8727 134.652 47.0041 136.814 46.5826C139.504 46.0628 142.432 46.0417 144.672 43.8219C145.845 42.6629 147.67 43.1195 148.731 44.3699C149.791 45.6203 150.339 46.8636 149.194 48.5847C146.729 52.3569 144.412 56.3118 143.914 60.8849C143.612 63.5964 143.387 66.3993 144.194 69.16C145.178 72.4967 147.417 75.2785 148.323 78.5941C149.061 81.3126 150.69 83.694 151.02 86.5601C151.378 89.7001 151.82 92.8191 152.024 95.9872C152.206 98.4228 152.241 100.867 152.129 103.307C151.596 103.785 151.813 104.41 151.799 104.993L151.715 106.616L151.392 107.086C151.961 107.522 149.988 108.351 151.624 108.625L152.192 108.365L153.681 108.21C153.856 108.266 154.043 108.27 154.22 108.221C154.397 108.173 154.556 108.074 154.678 107.936C155.984 107.466 157.403 107.121 157.557 105.365C158.372 104.606 157.873 103.644 157.957 102.78C157.952 102.662 157.928 102.546 157.887 102.436L158.098 100.392L158.351 99.8227C157.859 99.1202 158.351 98.8111 158.87 98.495V98.3615L159.011 98.1367L158.793 98.2843C158.667 98.2828 158.542 98.2994 158.421 98.3334C158.091 98.2421 158.049 98.0244 158.168 97.7364C158.299 97.5885 158.366 97.3951 158.356 97.198C158.345 97.0008 158.258 96.8157 158.112 96.6826V95.4323C158.737 95.3901 158.814 94.9827 158.814 94.4699C159.064 93.9871 159.207 93.4558 159.233 92.9125C159.258 92.3692 159.166 91.8269 158.962 91.3228C158.603 90.4588 158.393 89.7633 159.179 88.8501C159.762 88.1477 158.695 88.5902 158.477 88.3865L158.049 87.9299C157.29 86.2229 157.677 84.263 156.82 82.5771L156.588 82.1907C156.146 80.6945 156.026 78.9734 155.184 77.7722C154.482 76.7888 153.653 75.9879 153.513 74.7305L153.175 74.2809L153.133 74.2107L152.838 73.9016C152.649 73.4801 152.466 73.0657 152.277 72.6512C152.192 72.3843 152.115 72.1103 152.038 71.8434C150.851 71.2041 150.388 70.0029 149.791 68.9071L149.517 68.5137C149.334 68.1484 149.089 67.8112 149.342 67.3546L149.187 66.4765L148.527 65.2472V64.3551L148.864 63.5543C150.346 62.5216 149.173 61.3907 148.976 60.3018C148.148 57.8221 149.454 55.9395 150.739 54.0569L150.971 53.7408C151.673 52.7363 152.22 51.6334 153.372 51.0784C154.152 50.664 155.177 50.376 154.432 49.1326C155.092 48.4301 155.753 47.7277 156.406 47.0252C156.462 47.0252 156.567 46.976 156.567 46.9409C156.565 46.8323 156.554 46.7241 156.532 46.6178C156.475 46.1645 156.32 45.7292 156.077 45.3422C155.835 44.9552 155.51 44.6257 155.128 44.3769C155.115 44.3225 155.09 44.2721 155.053 44.2304C155.016 44.1886 154.969 44.1569 154.917 44.1381C154.776 43.5339 153.59 43.5058 154.032 42.5926C154.636 41.3282 153.463 41.8199 153.049 41.567C153.098 40.8224 152.719 40.9559 152.291 41.1947C151.75 40.4431 150.802 40.0708 150.697 38.8695C150.612 38.2865 149.566 37.7245 148.864 37.3733C148.162 37.0221 147.972 37.9212 147.537 38.2233C146.694 38.8063 145.746 39.2208 144.897 39.8038C144.287 40.2865 143.537 40.5583 142.76 40.5786C141.982 40.5989 141.219 40.3664 140.585 39.9162C140.585 39.5018 140.585 39.0803 140.585 38.6658L141.014 38.3146L141.428 38.0617L141.926 37.9353C143.015 38.6377 143.38 37.9844 143.555 37.0291C145.662 35.6241 147.361 33.5167 150.149 33.3481C150.268 33.3552 150.388 33.3552 150.507 33.3481L151.006 33.6081L151.146 33.6924C151.638 34.1911 152.431 34.5213 152.199 35.4555L152.536 35.8138C152.902 36.0023 153.216 36.2776 153.451 36.6156C153.686 36.9535 153.835 37.3439 153.885 37.7526C153.962 37.8254 154.056 37.8785 154.159 37.9072C154.265 37.9236 154.369 37.9543 154.467 37.9985L154.299 38.7009C154.362 38.9328 154.467 39.0381 154.692 38.8414C155.128 38.722 155.444 38.8414 155.514 39.3191V39.4877C155.57 40.2956 156.272 40.5484 156.778 40.9699C156.782 41.0102 156.798 41.0485 156.823 41.0806C156.847 41.1128 156.88 41.1376 156.918 41.1526L157.992 42.1852C158.01 42.2477 158.043 42.3048 158.089 42.3514C158.134 42.398 158.19 42.4326 158.252 42.4521C158.252 43.0211 159.067 43.3934 158.667 44.0748L158.421 43.8852L158.66 44.124C158.793 43.8009 158.976 43.7728 159.214 44.0257L159.572 44.5244L159.994 44.9459C160.752 45.6484 160.338 46.3508 160.043 47.0533L160.141 47.6855C160.064 48.0789 160.015 48.4863 159.586 48.683L159.172 49.238C158.504 50.3781 157.531 51.3097 156.363 51.9284C156.195 52.2024 156.026 52.4834 155.865 52.7644L155.507 53.2139C155.212 53.6354 154.917 54.0499 154.629 54.4714C153.864 54.5135 153.836 55.0544 153.843 55.6234C153.576 55.7779 153.14 55.6234 153.035 56.0941C152.656 56.7965 151.996 57.3444 152.213 58.2506V59.0444C152.213 59.4378 152.213 59.8312 152.213 60.2246C152.157 61.0746 152.108 61.9316 152.052 62.7886C151.743 63.0836 151.778 63.3505 152.143 63.5753C152.143 63.7229 152.192 63.8704 152.213 64.0179L152.459 64.3902C152.459 64.6852 152.522 64.9803 152.551 65.2753C151.785 66.1253 152.551 66.6802 152.951 67.3054C153.029 67.4166 153.07 67.5491 153.07 67.6848C152.951 67.9868 152.656 68.3872 152.754 68.5629C153.014 69.0195 153.456 68.4996 153.8 68.5629L153.871 68.6191C153.941 69.5042 153.463 70.7265 155.121 70.6141C155.121 70.9372 155.121 71.2533 155.121 71.5764L155.577 72.2789L155.963 72.7004L156.384 72.869C156.335 74.0632 154.425 73.1148 154.727 73.9859C155.092 75.0466 156.377 74.0843 157.227 74.3442C156.904 75.4822 155.717 75.8404 155.071 76.6272C156.153 77.6106 157.297 76.8941 158.407 76.8309C158.456 76.8638 158.491 76.9126 158.508 76.969C158.525 77.0254 158.521 77.0859 158.498 77.14L158.87 77.6598C159.046 78.3623 158.365 79.4511 159.685 79.7672L159.797 80.561L158.428 80.6383C159.327 80.8631 159.755 81.6077 160.303 82.2118C160.443 82.3902 160.533 82.6022 160.565 82.8266C160.597 83.051 160.57 83.2799 160.485 83.4903C160.204 83.5465 159.832 83.4903 159.86 83.968L160.563 83.9048C160.524 84.2782 160.567 84.6556 160.688 85.0109C160.809 85.3662 161.006 85.691 161.265 85.963C161.265 86.7498 161.546 87.6068 160.893 88.253C160.057 89.089 161.595 88.7518 161.363 89.2786C161.482 90.522 160.97 91.8216 161.7 93.0087L161.869 93.4443H161.707C161.439 93.9557 161.299 94.5246 161.299 95.1021C161.299 95.6796 161.439 96.2485 161.707 96.7599C161.742 97.0409 161.77 97.3149 161.798 97.5958C161.398 97.638 160.78 97.7082 160.864 98.1157C160.936 98.4019 161.087 98.6619 161.301 98.8648C161.515 99.0677 161.783 99.2051 162.072 99.2607C162.072 99.5347 162.072 99.8086 162.072 100.076C161.482 100.223 161.216 100.455 161.84 100.926C161.805 101.473 161.763 102.028 161.728 102.576L161.433 103.075C161.833 103.728 160.766 105.407 162.55 105.021C164.897 104.621 167.147 103.777 169.178 102.534C169.178 101.129 169.663 99.7243 168.919 98.3896C168.954 96.8864 168.441 95.3409 169.312 93.9149C170.386 91.5968 172.401 91.2526 174.641 91.379C177.966 91.5892 181.274 91.9997 184.549 92.6083C188.615 93.363 192.746 93.7019 196.88 93.6199C198.116 93.6199 199.12 94.6876 200.552 94.0554C201.086 93.8166 202.104 95.1091 201.318 95.8327C199.12 97.8558 198.6 100.954 196.557 102.97C194.928 104.578 193.839 106.707 191.726 107.887C190.588 108.519 190.539 109.362 191.459 110.556C194.123 114.093 196.531 117.817 198.663 121.698C199.948 123.988 197.673 127.163 194.45 127.395C190.378 127.69 186.375 126.854 182.373 126.271C180.631 126.018 178.918 125.568 177.176 125.393C175.891 125.252 175.884 125.976 175.772 127.107C175.547 128.842 176.727 130.317 176.256 132.024C175.581 133.56 174.435 134.841 172.984 135.684C171.257 136.386 169.354 136.527 167.634 137.356C165.794 138.205 163.818 138.721 161.798 138.88C160.836 138.978 160.268 139.976 159.172 140.215C156.848 140.837 154.558 141.58 152.312 142.441C149.047 142.975 145.697 143.221 142.551 144.155C140.796 144.675 138.921 144.373 137.292 145.258L127.04 146.01C126.871 145.912 126.696 145.722 126.541 145.736C123.403 145.975 120.98 148.736 117.595 148.258C117.09 148.188 116.893 148.841 117.434 149.29C115.931 149.29 114.716 150.211 113.326 150.583C111.29 150.723 109.527 151.623 107.709 152.423C105.7 153.309 103.72 154.482 101.389 154.046C99.486 154.046 97.8779 152.817 96.0312 152.683C93.0609 150.576 89.3744 150.506 86.1022 149.248C86.7201 148.546 86.2637 148.117 85.6668 148.209C83.7358 148.518 82.1559 147.436 80.3583 147.141C78.9539 145.659 77.0299 145.652 75.2533 145.68C72.397 145.701 69.5437 145.49 66.7217 145.048L62.8597 144.486C61.2376 143.629 59.3487 143.586 57.6564 143.39C54.0472 142.961 50.6837 141.655 47.1236 141.072C43.7601 139.168 39.9823 138.472 36.3449 137.377C34.435 136.154 31.9984 136.239 30.1376 134.897C28.9579 133.309 27.1322 131.932 28.4032 129.544C28.9087 128.596 27.7852 127.212 29.2037 126.502C28.656 125.758 27.9257 125.21 26.9918 125.463C22.7084 126.629 18.2776 126.776 13.924 127.479L10.5324 127.5C7.92729 126.797 5.30811 127.957 2.6749 127.437C1.75503 127.254 1.71992 126.987 1.97271 126.243C3.78436 120.152 7.59023 115.424 12.1615 110.922C9.12803 109.032 6.97231 106.138 4.54273 103.511C2.61872 101.509 1.40393 99.0289 0.287449 96.5913C-0.583267 94.7368 0.617479 93.5988 2.63277 93.5356C7.5481 93.3951 12.4634 93.7042 17.4139 92.8331C21.8201 91.9114 26.3038 91.4105 30.8047 91.3369C32.0475 91.3369 32.9604 92.1798 34.126 92.2571C35.2776 95.3058 35.6077 98.502 35.8394 101.719C35.6779 102.422 35.7692 103.124 36.5416 103.419C37.7493 103.876 39.0063 104.206 40.221 104.649C42.0608 105.351 41.9695 104.255 41.7588 103.019C41.5482 101.783 41.3516 100.504 41.155 99.2396C41.8571 96.6616 41.4218 94.0133 41.6254 91.4071C42.131 90.9716 41.9274 90.529 41.6184 90.0935ZM159.65 104.592L159.116 104.761L159.214 104.909L159.664 104.606L159.755 104.417L159.65 104.592ZM104.745 53.0383L104.226 53.6565C101.059 56.9089 97.906 60.1824 94.7181 63.4138C94.2935 63.7676 93.9736 64.2307 93.7929 64.7532C93.6122 65.2756 93.5776 65.8375 93.6929 66.3782C93.8684 67.6145 93.2856 68.6612 94.6689 69.7851C95.4694 70.4384 95.4694 72.2578 95.5326 73.5644C95.5326 74.1475 95.5326 74.4776 96.0803 74.59C97.9605 75.0324 99.9082 75.1087 101.817 74.8148C102.871 74.6322 103.924 73.8454 103.825 72.7074C103.713 71.2322 104.528 69.9889 104.359 68.4505C104.156 66.3431 105.595 64.5447 106.466 62.6621C108.018 59.2552 111.135 57.1197 113.389 54.2817C114.274 53.1718 115.763 53.3544 116.809 54.5557C117.662 55.6994 118.35 56.9575 118.852 58.2928C120.507 56.3356 122.356 54.5516 124.372 52.9681C119.058 53.0953 113.783 52.0446 108.923 49.8913C108.221 49.5751 107.821 49.8913 107.407 50.3619L104.731 52.9962L104.745 53.0383ZM149.327 111.273L148.906 111.505C148.106 111.954 147.08 111.287 146.343 112.039C144.173 112.446 142.011 112.931 139.827 113.24C136.134 113.808 132.405 114.113 128.669 114.153C124.968 114.153 121.275 114.694 117.581 114.975C115.201 115.158 112.842 115.502 110.44 115.635C103.919 115.973 97.3844 115.973 90.863 115.635C86.8957 115.446 82.8721 114.975 78.9258 114.462C76.0258 114.097 73.1327 114.357 70.2467 114.027C65.2822 113.465 60.4161 112.299 55.5007 111.533C52.1081 110.925 48.7674 110.056 45.5085 108.934C40.3755 107.297 35.2776 105.513 29.941 103.714V107.515C29.3862 107.515 29.1475 106.679 28.5366 107.016C28.4031 107.135 28.3202 107.301 28.3049 107.48C29.1124 108.091 28.8526 109.791 30.4114 109.587C30.5308 110.683 29.941 111.772 30.0533 112.755C30.589 118.032 30.8234 123.335 30.7555 128.638C29.1264 129.79 30.2991 130.443 31.1979 131.153C30.278 133.26 32.2442 133.204 33.1781 133.548C36.352 134.728 39.6242 135.656 42.8332 136.737C45.642 137.686 48.2541 139.091 51.1612 139.709C53.4152 140.194 55.6903 140.594 57.9654 140.994C63.1265 141.893 68.2174 143.144 73.5189 143.186C76.8333 143.186 80.1476 143.537 83.462 143.888C86.8045 144.292 90.1652 144.526 93.5314 144.591C96.5016 144.591 99.486 144.387 102.421 144.591C107.69 145.072 112.997 144.935 118.234 144.184C125.053 143.116 131.955 143.636 138.724 142.287C142.235 141.584 145.746 140.931 149.257 140.179C149.577 140.307 149.926 140.346 150.267 140.29C150.607 140.234 150.926 140.087 151.188 139.863L152.15 139.723C152.565 139.814 152.979 139.898 153.232 139.414L153.758 139.351C154.095 139.445 154.452 139.434 154.782 139.32C155.112 139.206 155.399 138.993 155.605 138.711C157.262 138.353 158.751 137.468 160.324 136.99C163.779 135.944 167.184 134.749 170.604 133.604C173.069 132.775 173.995 131.827 173.518 129.488C172.605 125.02 173.988 120.63 173.609 116.176C173.455 114.336 173.23 112.116 173.869 110.514C174.817 108.112 173.693 106.018 174.136 103.595C173.146 104.15 172.184 104.059 171.552 104.768C165.232 106.342 159.144 108.702 153.007 110.865C151.764 110.535 150.634 111.821 149.327 111.238V111.273ZM134.013 68.6191C136.316 67.2141 137.769 64.889 139.63 62.9993C139.855 62.7675 141.463 61.5101 139.932 60.5126C139.862 60.4634 139.932 60.1051 140.016 59.9366C141.421 57.2742 141.421 54.0147 143.668 51.6404C144.584 50.6145 145.063 49.2707 145.002 47.8963C142.895 48.9008 140.838 49.6946 139.314 51.1557C133.949 56.3048 128.746 61.6154 123.452 66.8348C122.75 67.5373 122.904 68.5558 122.251 69.2232C123.768 70.319 123.023 71.9417 123.206 73.3467C123.276 73.8735 123.136 74.3301 124.028 74.3582C127.3 74.4495 130.474 74.4355 132.306 71.0215C132.882 70.2277 133.781 69.6657 134.013 68.6191ZM182.864 123.629C183.566 124.444 184.577 124.163 185.357 124.226C188.629 124.479 191.964 125.87 195.188 124.072C195.939 123.657 197.055 123.51 195.89 122.07C195.161 121.186 194.528 120.228 194.001 119.211C193.137 117.448 191.943 115.881 191.003 114.181C190.181 112.692 188.678 111.933 187.646 110.669C186.705 109.538 187.056 108.934 187.59 108.505C189.543 106.904 191.355 105.136 193.004 103.223C194.464 101.565 196.206 100.012 196.789 97.7153C197.041 96.7248 196.957 95.5587 195.707 95.9591C193.713 96.5984 191.922 95.7765 190.055 95.6851C187.105 95.5517 184.17 95.0389 181.228 94.6876C179.074 94.061 176.842 93.7464 174.599 93.7534C173.693 93.7534 172.493 93.2827 172.135 94.2381C171.622 95.5095 173.378 95.355 173.834 96.1277C173.932 96.2893 174.382 96.1979 174.592 96.3314C175.152 96.6532 175.635 97.0933 176.008 97.6211C176.38 98.1489 176.633 98.7516 176.748 99.3871C177.226 102.752 176.622 106.152 176.804 109.573C177.055 113.123 176.85 116.69 176.193 120.187C175.849 121.852 176.13 123.06 178.377 123.166C179.866 123.285 181.375 123.482 182.864 123.629ZM27.5605 98.3896C28.4313 97.9611 28.5647 96.9285 29.2458 96.3455C30.0182 96.486 30.4606 95.9029 31.0504 95.5868C31.6403 95.2707 32.2442 94.9686 32.0405 94.2732C31.8369 93.5777 30.9662 93.5707 30.3904 93.6339C27.9477 93.791 25.5149 94.0747 23.1016 94.4839C17.599 95.5447 11.999 96.0157 6.39651 95.8889C4.12843 95.8397 3.25772 97.2938 4.28994 99.4012C6.24905 103.258 9.52126 105.962 12.7162 108.653C14.3102 109.98 14.7736 111.069 13.4184 112.594C10.5324 115.867 7.48491 119.07 5.3994 123.011C5.18172 123.419 4.52868 123.489 4.96404 124.276C5.06898 124.518 5.23717 124.727 5.45095 124.881C5.66472 125.036 5.91616 125.13 6.17883 125.154C7.90622 125.027 9.68979 125.301 11.3259 125.154C16.5081 124.676 21.6341 123.65 26.7741 122.962C27.7923 122.821 27.9678 122.477 27.9116 121.606C27.6729 117.757 27.5886 113.879 27.2094 110.065C27.0901 108.842 28.2136 107.957 27.9116 107.114C26.8303 104.192 27.5816 101.291 27.5605 98.3896ZM104.858 112.544C110.321 112.186 116.156 112.13 121.921 111.217C123.157 111.02 124.73 112.06 125.621 110.514C126.408 109.215 126.127 107.704 126.057 106.299C125.923 103.546 125.053 100.848 125.277 98.0525C125.32 97.4835 124.954 97.2095 124.407 97.0901C120.144 96.1429 115.733 96.0784 111.444 96.9004C105.967 97.933 100.462 98.1157 94.9428 98.3686C91.1369 98.5372 87.331 98.7971 83.5252 98.3194C83.0336 98.2562 80.8147 99.8789 80.7796 100.307C80.5408 103.314 80.3091 106.328 80.1336 109.341C80.0634 110.409 80.6251 110.957 81.7416 111.083C83.3075 111.266 84.9085 110.978 86.4252 111.203C92.4289 112.088 98.4748 112.095 104.858 112.544ZM121.661 81.9589C123.459 81.2565 125.172 81.6217 126.703 81.1792C128.002 80.8139 129.224 81.1792 129.617 82.2259C130.066 83.392 128.788 84.2771 127.861 84.6072C125.6 85.408 123.255 86.2931 120.889 86.4688C115.11 86.8832 109.303 86.9464 103.502 87.094C99.6685 87.1853 95.8416 87.3188 92.0146 87.4452C89.7957 87.5154 87.3732 87.8175 85.3298 87.3328C83.1445 86.9121 80.9173 86.7494 78.6941 86.8481C77.2897 86.8481 76.1873 86.1456 75.0848 85.5415C74.4669 85.2043 74.5652 84.0663 74.825 83.5325C75.3306 82.5139 76.5313 82.3664 77.5776 82.2399C80.3161 81.9168 80.3232 81.9449 79.3541 79.2895C79.2348 78.9664 79.1505 78.6292 79.0592 78.2991C79.0276 78.1292 78.959 77.9685 78.8581 77.8283C78.7573 77.6881 78.6267 77.5719 78.4758 77.4881C78.3249 77.4042 78.1573 77.3547 77.9851 77.3431C77.8128 77.3315 77.6401 77.3581 77.4793 77.421C72.8589 78.6011 68.0067 79.0367 64.0183 82.1345C62.2558 83.5395 62.0311 84.4316 63.3161 86.2791C64.0872 87.4431 65.0995 88.4276 66.2844 89.1658C67.4693 89.9039 68.7991 90.3784 70.1835 90.5571C74.3967 91.2596 78.5677 91.6179 82.7527 92.1728C87.4644 92.798 92.2253 92.236 96.923 91.9129C100.006 91.6951 103.194 91.7724 106.213 90.8803C107.203 90.5922 107.947 91.7724 108.067 91.5476C109.338 89.2365 111.395 90.9575 112.982 90.6906C116.177 90.1427 119.526 90.3042 122.813 90.4799C126.598 90.6836 130.396 90.3394 134.181 90.2059C136.99 90.1075 139.862 89.5456 142.193 87.6208C142.873 86.9952 143.341 86.1734 143.532 85.2695C143.723 84.3656 143.628 83.4245 143.261 82.5771C141.856 79.8937 135.017 76.1846 132.025 76.6202C129.764 76.9393 127.473 76.9888 125.2 76.7677C123.094 76.564 122.476 77.8003 122.125 79.4581L121.661 81.9589ZM106.915 72.6301C106.332 76.2127 108.755 79.6057 109.289 83.406C109.541 85.1903 110.932 84.9514 111.852 84.6283C113.13 84.1787 112.336 83.3358 111.816 82.6052C111.613 82.3172 111.69 81.8184 111.669 81.418C111.514 78.566 111.507 75.714 111.269 72.8549C111.067 70.8714 111.329 68.8681 112.034 67.0034C112.371 66.1745 112.638 64.896 113.642 64.9311C114.962 64.9311 115.812 66.048 116.135 67.3265C116.928 70.5017 115.966 73.8314 116.971 76.9995C117.062 77.2875 116.879 77.6598 116.809 77.99C116.523 79.6637 116.09 81.3091 115.517 82.9072C115.285 83.5254 114.941 84.3754 115.868 84.6353C116.57 84.832 117.638 85.099 118.101 84.1576C119.14 82.0502 120.208 79.5354 120.369 77.5474C120.552 74.7375 120.91 71.745 120.425 68.8157C120.209 67.1227 119.838 65.4531 119.316 63.8282C118.614 62.0159 117.02 60.3159 116.1 58.3841C115.468 57.0494 114.485 56.7052 113.396 57.9626C112.308 59.22 111.486 60.6179 110.279 61.6295C108.481 63.1258 108.284 65.4931 106.957 67.2492C106.367 68.0711 106.599 70.5017 106.908 72.6301H106.915ZM71.0402 93.4794C69.0616 93.0115 67.1092 92.4394 65.1909 91.7654C64.9181 91.5919 64.5913 91.5239 64.272 91.5744C63.9526 91.6248 63.6627 91.7902 63.4565 92.0393C61.7108 93.8005 59.8707 95.4655 57.9443 97.0269C56.3504 98.2351 56.8349 99.7665 56.9964 101.136C57.1298 102.246 58.5061 101.909 59.3487 102.176C59.9245 102.359 60.7531 102.408 61.0129 102.815C62.01 104.368 64.0815 104.03 64.8188 103.827C67.4731 103.082 69.7903 104.129 72.2339 104.431C72.564 104.466 72.8519 104.684 73.1468 104.431C75.4429 102.148 78.5958 100.399 78.02 96.3595C77.8163 94.9546 77.9006 93.5496 75.7168 94.0976C74.9233 94.2943 73.9964 93.8587 73.1187 93.8025C72.1356 93.7393 71.4124 93.6269 72.0443 92.3554C72.2269 91.9831 72.4095 91.2807 71.5388 91.4493C71.1034 91.5406 70.4012 91.6108 70.5838 92.3976C70.7116 92.7669 70.8617 93.1282 71.0332 93.4794H71.0402ZM91.9866 84.4948C93.8474 74.0632 92.2253 64.3972 85.5966 55.8552C85.0349 56.7052 84.424 57.6746 83.7709 58.6089C82.2688 60.7429 81.2022 63.1525 80.6323 65.6995C80.0623 68.2465 80.0002 70.881 80.4496 73.452C80.9622 76.6342 82.1629 79.6618 83.2583 82.6895C83.5119 83.4645 83.9177 84.181 84.452 84.7969C85.1542 85.5485 85.7651 84.9514 86.2918 84.7969C87.2468 84.5019 86.369 83.9188 86.2918 83.4973C86.2145 83.0758 85.6739 82.563 85.5896 82.0924C84.7087 76.7967 84.2648 71.4376 84.2625 66.0691C84.2625 65.1489 84.5714 64.7274 85.6107 64.8047C88.0122 64.9873 88.588 67.3195 88.6652 68.598C88.8407 71.7872 90.0696 74.8851 89.5851 78.1094C89.3257 79.4774 89.2127 80.8691 89.248 82.261C89.3885 84.8671 89.3955 84.8671 91.9866 84.4948ZM106.733 81.8395C106.276 81.2003 105.679 80.7436 105.616 80.2238C105.314 77.5263 103.432 77.5193 101.445 77.5896C100.907 77.6056 100.369 77.5727 99.837 77.4912C98.531 77.3016 97.0283 76.9925 95.9188 77.435C95.0481 77.7722 95.652 79.3387 95.4343 80.3432C95.343 80.7928 94.8796 81.1651 95.2588 81.9168C98.9242 81.3899 102.73 82.542 106.733 81.8395ZM74.7197 63.4067C72.5359 63.0977 71.9601 61.8894 71.8196 60.337C71.8196 59.9717 72.0092 59.4097 71.4053 59.3465C70.9349 59.2903 70.7031 59.6766 70.6048 60.1192C70.5513 60.7038 70.2915 61.2502 69.8722 61.6607C69.4528 62.0713 68.901 62.3192 68.3157 62.3601C67.6135 62.4373 67.6837 62.901 67.6135 63.3927C67.5433 63.8844 67.5082 64.2919 68.0418 64.3691C69.2988 64.5518 70.1976 64.9803 70.3099 66.4765C70.3099 66.884 71.2298 67.2422 71.293 66.4765C71.4685 64.608 73.1187 64.5026 74.7197 63.4067ZM126.499 56.8668C126.155 57.0635 125.846 57.1478 125.839 57.2602C125.727 58.7494 124.807 59.2833 123.466 59.5994C122.918 59.7328 123.037 60.3791 123.634 60.632C124.046 60.8514 124.489 61.0077 124.947 61.0956C126.134 61.215 125.2 63.2873 126.492 62.901C127.307 62.6621 126.738 61.0605 127.798 60.5758C128.29 60.344 128.971 59.7258 128.5 59.3746C127.558 58.8013 126.849 57.9129 126.499 56.8668ZM93.1803 55.0544C93.6648 55.23 94.1282 55.2511 94.2617 55.4689C95.5326 57.5763 96.4806 57.2953 97.8218 55.3846C98.3624 54.6048 98.7697 54.4994 97.7726 53.9796C97.4948 53.8475 97.2484 53.6575 97.0498 53.4225C96.8512 53.1875 96.7051 52.9129 96.621 52.6168C96.4665 52.104 95.7292 52.1462 95.6941 52.4763C95.5607 54.0147 93.8052 53.804 93.1803 55.0544ZM71.8267 75.5173C72.3463 74.4636 74.179 73.5785 72.1286 72.1876C71.7845 71.9558 71.5177 71.4008 71.0542 71.8996C69.7692 73.2553 69.6428 74.5128 71.8267 75.5173Z" fill="black"/>
<path d="M46.7012 72.8193C46.3993 74.5122 45.1634 75.7415 44.4964 77.2729C43.092 80.4621 42.5864 83.8129 41.9966 87.1707C36.1684 85.9765 30.3402 84.7612 24.7437 82.703C21.935 81.6844 19.1824 80.7852 16.3174 80.0406C15.03 79.5905 13.8389 78.9018 12.8065 78.0105C11.6759 77.1746 12.0411 76.1349 13.5087 75.6713C15.8743 74.9523 18.3205 74.5322 20.7904 74.4209C28.7322 73.9573 36.6529 73.1916 44.5596 72.3135C45.3109 72.2643 46.1184 72.1098 46.7012 72.8193Z" fill="#AECDE9"/>
<path d="M62.728 39.9147C62.7912 39.0506 62.419 38.2428 61.5905 38.2358C59.7858 38.2358 58.7817 36.9783 57.7003 35.9036C57.0683 35.2643 56.0291 35.2573 55.5938 34.3792C58.1989 35.2573 60.4038 36.8589 62.6578 38.3481C63.2522 38.829 64.0004 39.0785 64.7644 39.0506C67.5731 38.7837 70.0659 39.9779 72.6851 40.6171C74.7042 41.1455 76.7986 41.326 78.8784 41.151C81.6871 41.1018 84.2572 40.0481 86.9536 39.5283C87.3117 39.458 87.9577 39.4159 88.0209 38.7696C89.6464 38.3708 91.1906 37.6935 92.5851 36.7676C92.7817 36.6973 92.9854 36.6482 93.1679 36.5639C97.1845 34.6883 100.976 32.0611 105.807 32.9743C106.748 34.0771 107.127 35.7841 108.925 35.9808C110.898 37.3436 113.293 37.8283 115.308 39.0717C116.417 39.8301 117.77 40.1458 119.1 39.9568C120.722 40.5047 122.309 41.1861 124.064 41.165C125.693 41.9518 127.386 41.2283 128.881 40.9684C132.617 40.3221 136.184 38.7345 140.116 38.9733C140.278 38.9733 140.446 38.7696 140.615 38.6643C140.615 39.0787 140.615 39.5002 140.615 39.9147C139.948 40.4345 140.524 42.289 139.758 41.8464C137.757 40.6663 136.247 42.2187 134.843 42.6402C132.522 43.3902 130.136 43.9194 127.716 44.2208C124.415 44.5931 121.115 44.9232 118.068 43.1109C116.874 44.2419 116.663 42.2117 115.392 42.4084C112.366 42.7948 110.042 40.301 107.198 39.5985C106.209 39.4141 105.321 38.8775 104.698 38.0882C104.425 37.7087 104.074 37.3918 103.669 37.1587C103.264 36.9256 102.814 36.7816 102.348 36.7364C101.883 36.6912 101.414 36.7458 100.971 36.8965C100.529 37.0473 100.124 37.2907 99.7826 37.6106C98.9387 38.2601 98.036 38.8292 97.0862 39.3105C95.5835 40.1746 93.6946 40.013 92.4377 40.9613C89.8045 42.9423 86.5884 43.0687 83.6884 44.1154C80.8921 44.9846 77.9009 45.0041 75.0936 44.1716C74.3493 43.9819 73.6892 44.6633 72.9168 44.1716C71.5124 43.153 69.6235 42.872 68.0998 42.5349C66.6954 42.2258 65.5508 41.1299 64.0411 41.3547C63.1563 41.5022 63.1704 41.4812 63.0791 40.7225C63.0085 40.4353 62.8898 40.1622 62.728 39.9147Z" fill="black"/>
<path d="M105.785 32.9752C100.975 32.062 97.1829 34.6892 93.1453 36.5648C92.9627 36.6491 92.7591 36.6983 92.5625 36.7685C92.7802 32.2938 93.8756 27.9596 95.0553 23.6956C96.7451 17.145 97.9538 10.4796 98.6716 3.75255C98.8471 2.34761 99.9636 1.74349 100.336 0.598469C100.455 0.233186 100.933 0.296408 101.178 0.598469C101.684 1.30094 102.814 1.25879 102.864 2.47406C102.962 4.8765 103.271 7.26489 103.468 9.66031C103.784 13.6082 104.114 17.5631 104.535 21.4969C104.816 24.1452 104.619 26.8989 105.511 29.4699C105.932 30.65 105.7 31.8161 105.785 32.9752Z" fill="#AECDE9"/>
<path d="M66.5731 144.971C69.395 145.413 72.2484 145.625 75.1047 145.603C76.8812 145.603 78.7982 145.603 80.2096 147.064C78.6227 150.099 76.1229 152.375 73.6371 154.573C68.4971 159.118 63.2166 163.502 57.9572 167.92C56.3843 169.241 54.685 170.407 53.0418 171.657C52.5714 172.016 52.1009 172.304 51.5602 171.882C51.0195 171.461 51.3285 170.899 51.5602 170.407C53.3297 166.515 55.9278 163.122 58.1468 159.505C60.8291 155.135 63.4483 150.731 66.0745 146.326C66.2832 145.891 66.4502 145.437 66.5731 144.971Z" fill="#AECDE9"/>
<path d="M155.526 72.2777L155.07 71.5752C155.983 71.2872 155.695 70.957 155.07 70.6128L153.82 68.6178L153.75 68.5616C153.631 68.1682 153.567 67.7187 153.048 67.6765C153.048 67.5408 153.006 67.4084 152.928 67.2972C152.886 66.6509 152.837 66.0046 152.795 65.3584C157.38 64.5857 161.973 63.8621 166.544 62.9981C168.086 62.6975 169.65 62.519 171.22 62.4642C175.96 62.3097 180.665 61.8882 185.384 61.537C186.023 61.4878 187.104 61.0382 187.28 62.12C187.413 62.9559 186.577 63.272 185.875 63.6163C179.836 66.5526 173.804 69.4889 168.152 73.1628C166.35 74.3058 164.296 74.9929 162.169 75.1648C160.835 75.2913 159.894 76.4855 158.511 76.4574C158.082 75.7549 157.654 75.0524 157.219 74.35L156.376 72.8748L155.885 72.7062L155.526 72.2777Z" fill="#AECDE9"/>
<path d="M137.195 145.18C138.824 144.295 140.706 144.597 142.455 144.077C145.601 143.143 148.95 142.897 152.215 142.363C157.468 148.861 163.31 154.902 167.72 162.074C168.393 163.024 169.13 163.928 169.924 164.779C170.226 165.158 170.627 165.587 170.177 166.05C169.998 166.219 169.76 166.313 169.514 166.313C169.267 166.313 169.03 166.219 168.85 166.05C165.339 163.599 161.28 161.948 157.91 159.187C154.841 156.672 151.281 154.839 147.946 152.704C144.842 150.716 141.331 149.472 138.403 147.196C138.058 146.978 137.77 146.682 137.56 146.332C137.35 145.982 137.225 145.587 137.195 145.18Z" fill="#AECDE9"/>
<path d="M160.442 83.4694C160.527 83.259 160.554 83.0301 160.522 82.8057C160.49 82.5813 160.399 82.3692 160.26 82.1909C160.371 81.8987 160.382 81.5776 160.29 81.2786C160.199 80.9796 160.01 80.7197 159.754 80.5401L159.642 79.7463L159.6 78.5802C162.05 79.0649 164.515 78.805 166.959 78.6294C170.953 78.4139 174.956 78.4022 178.952 78.5942C182.463 78.7137 185.974 79.367 189.485 79.3459C190.172 79.3358 190.857 79.4185 191.521 79.5917C191.857 79.6892 192.153 79.8933 192.363 80.1733C192.573 80.4533 192.687 80.794 192.687 81.1442C192.729 81.8045 192.167 81.9731 191.669 82.2611C189.562 83.4904 187.125 83.7574 184.815 84.3685C178.355 86.0544 171.804 87.4594 165.4 89.4614C164.157 89.8478 162.893 90.1639 161.636 90.5291C161.51 90.1147 161.945 89.5527 161.32 89.2647C161.58 88.7379 160.014 89.075 160.85 88.2391C161.503 87.5928 161.236 86.7358 161.222 85.9491C161.222 85.2041 160.975 84.4802 160.519 83.8908L160.442 83.4694Z" fill="#AECDE9"/>
<path d="M140.572 38.6652C140.404 38.7706 140.235 38.9883 140.074 38.9743C136.162 38.7354 132.595 40.323 128.839 40.9693C127.343 41.2292 125.651 41.9527 124.021 41.166C130.496 33.3686 138.206 26.8637 146.232 20.7241C148.296 19.1506 150.01 17.1345 152.221 15.7085C152.769 15.3643 153.226 14.8937 153.851 15.4135C154.476 15.9333 154.124 16.5093 153.893 17.0994C152.608 20.394 150.319 23.0844 148.479 26.0489C146.534 29.1819 144.483 32.2446 142.707 35.483C142.361 36.0716 142.228 36.7607 142.328 37.4359L141.913 37.9276L141.415 38.054L141 38.3069L140.572 38.6652Z" fill="#AECDE9"/>
<path d="M101.24 153.968C103.607 154.404 105.587 153.23 107.56 152.345C109.393 151.545 111.155 150.645 113.178 150.505C111.875 157.965 110.19 165.353 108.129 172.64C107.237 175.667 107.518 178.92 106.423 181.912C106.099 182.804 105.945 183.844 104.576 183.689C103.206 183.535 102.883 182.516 102.905 181.47C103.003 176.721 102.083 172.05 101.928 167.315C101.816 162.868 101.198 158.408 101.24 153.968Z" fill="#AECDE9"/>
<path d="M117.336 149.212C116.81 148.763 116.992 148.109 117.498 148.18C120.882 148.657 123.305 145.897 126.444 145.658C126.598 145.658 126.774 145.833 126.942 145.932C127.497 150.146 129.232 154.066 130.502 158.098C132.146 163.32 133.88 168.511 135.706 173.672C136.408 175.66 137.581 177.473 137.812 179.65C137.854 180.114 138.198 180.606 137.665 180.95C136.998 181.385 136.605 180.795 136.317 180.395C133.276 176.103 129.695 172.204 127.364 167.399C125.357 163.103 123.05 158.952 120.461 154.979C119.319 153.113 118.276 151.188 117.336 149.212Z" fill="#AECDE9"/>
<path d="M88.0208 38.7717C87.9576 39.418 87.3186 39.4742 86.9534 39.5304C84.257 40.0502 81.6659 41.1039 78.8782 41.1531C76.2731 33.3065 73.6961 25.453 71.0558 17.6134C70.164 14.9581 69.1107 12.359 68.1698 9.7247C67.9554 9.07394 67.8072 8.4032 67.7274 7.72267C67.6712 7.27309 67.5729 6.69706 68.1979 6.5074C68.4031 6.46201 68.6175 6.48559 68.8079 6.57449C68.9984 6.66339 69.1542 6.81265 69.2512 6.99913C72.0599 11.0243 75.4515 14.635 77.6775 19.1097C80.4862 24.7294 83.6882 30.0963 86.806 35.5404C87.4474 36.5131 87.8625 37.6173 88.0208 38.7717Z" fill="#AECDE9"/>
<path d="M47.4165 53.199C48.9586 54.5041 50.1047 56.215 50.7252 58.138C51.3457 60.061 51.4158 62.1194 50.9274 64.0802C50.6044 65.5413 50.9977 67.3397 49.4528 68.4215C48.3012 66.1174 45.9419 65.2533 43.9617 64.01C37.7403 60.034 31.3222 56.332 25.0025 52.5035C24.5021 52.1555 24.0323 51.7654 23.5981 51.3374C23.1628 50.9651 22.3482 50.6771 22.8959 49.9325C23.3243 49.3354 23.9843 49.5672 24.6023 49.7358C30.9841 51.5127 37.5474 52.5568 44.1653 52.8477C45.2537 52.8969 46.293 53.4589 47.4165 53.199Z" fill="#AECDE9"/>
<path d="M119.077 39.9571C117.747 40.1462 116.394 39.8304 115.285 39.072C113.27 37.8286 110.875 37.3439 108.902 35.9811C111.191 34.2531 112.519 31.7242 114.035 29.4271C117.279 24.5098 120.032 19.3046 123.501 14.5137C124.961 12.4906 126.064 10.1725 127.595 8.19152C128.058 7.58037 128.55 6.59692 129.54 7.0184C130.712 7.51715 129.926 8.5568 129.722 9.18902C128.95 11.5915 128.051 13.9658 127.082 16.305C123.885 23.9999 121.21 31.9019 119.077 39.9571Z" fill="#AECDE9"/>
<path d="M154.636 54.4434C154.924 54.022 155.219 53.6075 155.514 53.186H155.704L155.893 53.1369C156.595 53.474 156.272 52.8067 156.413 52.596C157.137 52.8234 157.918 52.7961 158.625 52.5187C162.557 51.1137 166.721 50.4815 170.71 49.2663C173.715 48.353 176.734 47.5312 179.775 46.7444C180.512 46.5477 181.474 46.1543 181.952 47.1378C182.359 47.9737 181.657 48.4373 181.102 49.0063C179.359 50.6638 177.357 52.0257 175.175 53.0385C168.287 56.5508 161.504 60.281 154.44 63.435C153.802 63.6811 153.15 63.8875 152.488 64.0532C152.385 64.068 152.28 64.0455 152.193 63.99C152.193 63.8425 152.144 63.6949 152.123 63.5474L152.031 62.7607C152.087 61.9036 152.137 61.0466 152.193 60.1967C152.193 59.8033 152.839 59.4169 152.193 59.0165V58.2227C152.733 57.6045 153.632 57.1269 153.014 56.0661C153.12 55.6306 153.555 55.75 153.822 55.5955C154.671 55.6166 154.671 55.0546 154.636 54.4434Z" fill="#AECDE9"/>
<path d="M85.9555 149.17C89.2277 150.428 92.9142 150.484 95.8844 152.605C94.0798 153.708 92.9914 155.486 91.9381 157.193C87.3669 164.583 82.8588 172.015 77.8943 179.145C77.4239 179.847 77.0096 180.789 76.0125 180.241C75.1698 179.784 75.6684 178.913 75.8439 178.196C77.1009 173.188 79.7762 168.713 81.2789 163.803C82.7816 158.893 84.7126 154.151 85.9555 149.17Z" fill="#AECDE9"/>
<path d="M46.9977 140.993C50.5086 141.576 53.9002 142.883 57.5306 143.311C59.1947 143.508 61.1117 143.55 62.7338 144.407C58.317 146.767 53.4859 148.032 48.8234 149.753C44.3293 151.411 39.9336 153.322 35.4817 155.183C34.6672 155.52 33.7684 155.886 33.1715 155.288C32.4693 154.551 33.4173 153.848 33.8246 153.371C34.9506 152.085 36.1686 150.883 37.4689 149.774C40.7271 146.95 44.1678 144.295 46.9977 140.993Z" fill="#AECDE9"/>
<path d="M51.1902 35.0043C51.1902 35.1589 51.1411 35.3064 51.12 35.4609C50.804 35.6717 50.3335 35.7279 50.3265 36.2477C49.9052 36.339 49.8631 36.6762 49.8209 37.0134L49.519 37.6737C49.21 37.758 48.8168 37.758 49.0907 38.2849C49.0802 38.4111 49.0802 38.538 49.0907 38.6642L48.6974 38.8117H47.932C45.987 36.346 43.9506 33.9506 42.1109 31.4147C39.9551 28.4292 38.0171 25.2892 35.5313 22.5496C35.2294 22.2194 34.9134 21.7488 35.3628 21.257C35.8122 20.7653 36.2546 21.1095 36.6619 21.3202C40.2099 23.0575 43.588 25.1224 46.7524 27.4879C48.4797 28.8507 50.3757 29.9044 52.1592 31.1548C53.0229 31.7519 54.2658 31.9907 54.5397 33.2622L53.6689 33.3957L53.2476 33.3184C53.1142 33.0093 52.9808 32.9039 52.8684 33.3184C52.4417 33.3741 52.0454 33.5698 51.7417 33.8749C51.438 34.1799 51.2441 34.5772 51.1902 35.0043Z" fill="#AECDE9"/>
<path d="M158.696 44.0739C159.096 43.3714 158.288 43.0201 158.281 42.4511C158.281 42.3036 158.38 42.0016 158.022 42.1842L156.919 41.1516L157.13 41.0532L156.779 40.9689C156.273 40.5475 155.571 40.2665 155.515 39.4867L155.648 39.4446L155.508 39.3181C155.438 38.8053 155.122 38.721 154.686 38.8405L154.293 38.7L154.461 37.9975C156.644 37.7644 158.746 37.0443 160.613 35.8901C162.864 34.7563 165.23 33.8661 167.67 33.2348C168.494 32.9105 169.294 32.5278 170.064 32.0897C170.766 31.7455 171.742 31.1976 172.29 32.0125C172.838 32.8273 172.051 33.6562 171.525 34.1901C169.762 35.9955 167.93 37.7376 166.02 39.3814C163.9 41.0864 161.897 42.931 160.023 44.9028L159.602 44.4813C159.658 44.1933 159.468 44.0739 159.243 43.9825C159.005 43.7296 158.822 43.7577 158.689 44.0809L158.696 44.0739Z" fill="#AECDE9"/>
<path d="M169.101 102.491C167.069 103.734 164.819 104.578 162.472 104.978C160.688 105.365 161.77 103.686 161.355 103.032C161.408 103.02 161.458 102.997 161.502 102.965C161.545 102.933 161.582 102.893 161.61 102.846C161.637 102.799 161.655 102.748 161.662 102.694C161.669 102.64 161.665 102.586 161.65 102.534C161.65 101.986 161.728 101.431 161.763 100.883C162.107 100.672 161.952 100.328 161.994 100.033C162.037 99.7377 161.994 99.4919 161.994 99.2179C162.08 98.938 162.099 98.6422 162.052 98.3535C162.004 98.0647 161.891 97.7908 161.721 97.5531C161.721 97.2721 161.664 96.9981 161.629 96.7171C161.783 95.6173 161.783 94.5013 161.629 93.4015H161.791C164.262 92.9851 166.795 93.1364 169.199 93.844C168.328 95.249 168.841 96.8155 168.806 98.3188C168.679 101.55 168.679 101.557 165.526 101.684C164.716 101.68 163.925 101.925 163.258 102.386C165.344 102.815 167.233 101.726 169.101 102.491Z" fill="#AECDE9"/>
<path d="M35.811 101.677C35.5793 98.4601 35.2493 95.2638 34.0977 92.2151C36.5834 91.8217 39.013 91.1755 41.5971 91.3651C41.3934 93.9713 41.8218 96.6196 41.1266 99.1977C40.5087 99.1977 40.1927 99.6894 39.7222 99.9493C38.5215 100.652 37.5665 102.071 35.811 101.677Z" fill="#AECDE9"/>
<path d="M30.0104 134.819C31.8712 136.161 34.3078 136.077 36.2177 137.299C34.2165 138.571 31.8712 138.971 29.6733 139.68C28.3657 140.078 27.0267 140.365 25.6708 140.537C24.9335 140.643 23.9153 141.085 23.4659 140.074C23.0868 139.224 23.8381 138.669 24.4139 138.198C26.1273 136.828 27.8266 135.416 30.0104 134.819Z" fill="#AECDE9"/>
<path d="M172.885 135.606C174.335 134.764 175.481 133.482 176.157 131.946C177.983 133.155 179.829 134.321 181.613 135.585C182.182 135.985 183.095 136.498 182.645 137.362C182.266 138.065 181.437 137.664 180.784 137.503L172.885 135.606Z" fill="#AECDE9"/>
<path d="M157.185 74.3589C157.62 75.0614 158.049 75.7638 158.477 76.4663C158.483 76.6018 158.444 76.7354 158.365 76.8456C157.255 76.9088 156.111 77.6254 155.029 76.6419C155.675 75.8551 156.862 75.518 157.185 74.3589Z" fill="#1A1C1F"/>
<path d="M161.321 89.2637C161.945 89.5517 161.51 90.1137 161.637 90.5281C161.152 91.357 162.009 92.1719 161.637 92.9938C160.927 91.8066 161.44 90.507 161.321 89.2637Z" fill="#1A1C1F"/>
<path d="M141.912 37.9354L142.326 37.4437L143.029 37.0503H143.569C143.366 37.9846 143.001 38.6168 141.912 37.9354Z" fill="#1A1C1F"/>
<path d="M45.7335 42.0373C45.6763 42.1736 45.5777 42.2883 45.4517 42.3652C45.3256 42.4421 45.1785 42.4774 45.0313 42.4658C45.0115 42.2587 45.0665 42.0514 45.1863 41.8813C45.306 41.7112 45.4827 41.5896 45.6843 41.5386L45.7335 42.0373Z" fill="#1A1C1F"/>
<path d="M159.601 78.5785L159.643 79.7446C158.323 79.4636 159.004 78.4029 158.828 77.6372L159.601 78.5785Z" fill="#1A1C1F"/>
<path d="M152.797 65.3657C152.839 66.012 152.888 66.6583 152.93 67.3045C152.53 66.6793 151.765 66.1244 152.53 65.2744C152.623 65.2899 152.714 65.3208 152.797 65.3657Z" fill="#1A1C1F"/>
<path d="M47.8335 39.3047C47.8335 39.7051 47.8756 40.1196 47.4824 40.4005C47.6931 40.0634 47.3069 39.5365 47.8335 39.3047Z" fill="#1A1C1F"/>
<path d="M47.4886 71.3013C48.9281 71.7509 47.6361 72.081 47.4395 72.4533C47.4535 72.0037 47.4746 71.6525 47.4886 71.3013Z" fill="#AECDE9"/>
<path d="M156.392 52.6438L155.894 52.8053L155.852 52.7632C156.013 52.4822 156.182 52.2012 156.35 51.9272C156.842 52.152 156.589 52.3979 156.392 52.6438Z" fill="#1A1C1F"/>
<path d="M41.6185 90.0923C41.9275 90.5278 42.1452 90.9563 41.6185 91.3848C41.6115 90.9704 41.6115 90.5278 41.6185 90.0923Z" fill="#AECDE9"/>
<path d="M53.6055 33.4167L54.4762 33.2832L54.8624 33.7398C54.413 33.7539 53.9425 33.8311 53.6055 33.4167Z" fill="#1A1C1F"/>
<path d="M151.131 33.7053L150.99 33.6216H151.306L151.131 33.7053Z" fill="#1A1C1F"/>
<path d="M152.525 35.827L152.188 35.4688C152.278 35.5453 152.38 35.6069 152.489 35.6514C152.686 35.7006 152.707 35.7427 152.525 35.827Z" fill="#1A1C1F"/>
<path d="M159.193 49.237L159.608 48.6821L159.193 49.237Z" fill="#1A1C1F"/>
<path d="M160.165 47.6849L160.066 47.0527C160.684 47.1651 160.481 47.418 160.165 47.6849Z" fill="#1A1C1F"/>
<path d="M154.145 37.9191C154.043 37.8906 153.949 37.8379 153.871 37.7656L154.145 37.9191Z" fill="#1A1C1F"/>
<path d="M152.193 64.0161C152.281 64.0717 152.386 64.0941 152.488 64.0793C152.504 64.185 152.486 64.2928 152.439 64.3884C152.376 64.276 152.278 64.1426 152.193 64.0161Z" fill="#1A1C1F"/>
<path d="M143.556 37.0364H143.016L143.289 36.6079L143.556 37.0364Z" fill="#101113"/>
<path d="M158.827 77.6736L158.455 77.1538C158.75 77.203 158.827 77.4067 158.827 77.6736Z" fill="#1A1C1F"/>
<path d="M55.5707 34.1631L55.2617 33.8681C55.5145 33.8119 55.6339 33.8962 55.5707 34.1631Z" fill="#1A1C1F"/>
<path d="M150.493 33.37C150.374 33.377 150.254 33.377 150.135 33.37L150.331 33.103L150.493 33.37Z" fill="#1A1C1F"/>
<path d="M30.7556 128.616C30.8235 123.313 30.589 118.01 30.0534 112.734C29.941 111.75 30.5309 110.661 30.4115 109.565C34.414 110.97 38.5499 111.947 42.5383 113.499C47.2862 115.355 52.2354 116.647 57.2843 117.349C61.645 117.953 66.0898 118.164 70.3732 119.175C79.1646 121.247 88.1597 120.58 97.0564 121.493C100.287 121.816 103.573 120.995 106.887 121.416C111.802 122.055 116.718 120.791 121.633 120.657C125.428 120.488 129.209 120.101 132.959 119.498C137.271 118.88 141.554 118.044 145.845 117.264C147.46 116.969 149.075 116.625 150.655 116.197C151.287 116.028 152.059 115.136 152.396 115.305C154.397 116.386 155.907 114.834 157.663 114.539C161.595 113.836 165.19 111.813 169.256 111.631C171.25 111.539 171.566 111.891 171.201 113.865C170.386 118.952 168.692 123.858 166.194 128.363C165.302 129.895 164.72 131.658 162.445 132.143C158.477 132.993 154.545 133.92 150.507 134.615C142.432 136.02 134.427 137.559 126.197 138.079C119.997 138.465 113.776 139.132 107.575 139.273C98.9313 139.476 90.2592 140.432 81.5942 139.062C79.923 138.795 78.1464 138.205 76.5244 138.5C73.5892 139.027 70.8366 138.015 67.9857 137.938C63.6954 137.826 59.5103 136.533 55.2831 135.718C51.5591 135.15 47.8712 134.367 44.2376 133.372C39.6804 131.96 35.2355 130.218 30.7556 128.616Z" fill="white"/>
<path d="M62.7266 39.917C62.8709 40.1335 62.9821 40.3703 63.0566 40.6195C63.1479 41.3782 63.1339 41.3992 64.0186 41.2517C65.5283 40.9988 66.701 42.1228 68.0773 42.4319C69.601 42.7691 71.4689 43.05 72.8943 44.0686C73.5965 44.5955 74.2987 43.9141 75.0711 44.0686C77.8785 44.9011 80.8697 44.8816 83.6659 44.0124C86.566 42.9798 89.782 42.8393 92.4152 40.8583C93.6722 39.91 95.5611 40.0716 97.0637 39.2075C98.0105 38.7508 98.9132 38.2076 99.7602 37.5848C100.101 37.265 100.506 37.0216 100.949 36.8708C101.391 36.7201 101.861 36.6655 102.326 36.7107C102.791 36.7559 103.241 36.8999 103.646 37.133C104.052 37.3661 104.402 37.683 104.675 38.0625C105.299 38.8518 106.187 39.3884 107.175 39.5728C110.019 40.2753 112.343 42.7901 115.37 42.3827C116.62 42.2211 116.851 44.2513 118.045 43.0852C121.093 44.8905 124.365 44.5674 127.693 44.1951C130.113 43.9029 132.499 43.3831 134.821 42.6426C136.183 42.2211 137.721 40.6687 139.736 41.8488C140.501 42.2914 139.925 40.4439 140.593 39.917C141.227 40.3673 141.99 40.5997 142.767 40.5794C143.544 40.5592 144.294 40.2873 144.904 39.8046C145.754 39.2216 146.702 38.8071 147.544 38.2241C147.98 37.922 148.246 37.058 148.871 37.3741C149.496 37.6902 150.606 38.3084 150.655 38.8704C150.76 40.0716 151.708 40.4439 152.249 41.1955C152.417 41.4976 152.558 41.8488 153.007 41.5678C153.422 41.8207 154.594 41.329 153.99 42.5934C153.548 43.5066 154.735 43.5347 154.875 44.1389C154.777 44.3637 154.875 44.4199 155.086 44.3777C155.469 44.6265 155.793 44.956 156.035 45.343C156.278 45.73 156.433 46.1654 156.49 46.6186L156.364 47.026C155.711 47.7285 155.051 48.4309 154.391 49.1334C153.941 49.7305 152.649 49.8359 153.33 51.0793C152.179 51.6553 151.603 52.7371 150.929 53.7416C150.669 53.6854 150.564 53.7838 150.634 54.0507C149.349 55.9333 148.043 57.8159 148.871 60.2956C148.583 61.3704 147.839 62.403 148.759 63.5481L148.422 64.3489C148.113 64.665 147.937 64.9811 148.422 65.2972L149.082 66.5265C149.082 66.8286 148.935 67.1517 149.237 67.4046C148.984 67.8331 149.237 68.1984 149.412 68.5637C149.314 68.8236 149.503 68.8938 149.686 68.9571C150.283 70.0529 150.746 71.2541 151.933 71.8934C151.989 72.1673 151.785 72.5256 152.172 72.7012C152.361 73.1157 152.544 73.5301 152.733 73.9516L153.028 74.2607L153.07 74.3309L153.408 74.7805C153.548 76.0379 154.377 76.8387 155.079 77.8222C155.935 79.0234 156.055 80.7445 156.483 82.2407L156.715 82.6271C157.572 84.313 157.185 86.2729 157.944 87.9799C157.621 88.0993 157.319 88.2609 157.649 88.6262C157.979 88.9914 158.182 88.7104 158.351 88.4365C158.597 88.6402 159.664 88.2187 159.053 88.9001C158.267 89.8133 158.477 90.5088 158.835 91.3728C159.04 91.8769 159.132 92.4192 159.107 92.9625C159.081 93.5058 158.938 94.0371 158.688 94.5199C158.084 94.5761 157.782 94.843 157.986 95.4822C157.986 95.8967 157.986 96.3182 157.986 96.7326C157.986 97.1471 157.986 97.4351 158.042 97.7863C157.923 98.0743 157.965 98.2921 158.295 98.3834L158.737 98.545C158.232 98.8611 157.726 99.1702 158.218 99.8727C158.159 99.8869 158.105 99.9144 158.059 99.9529C158.013 99.9915 157.976 100.04 157.951 100.095C157.927 100.15 157.916 100.21 157.918 100.27C157.92 100.33 157.936 100.389 157.965 100.442L157.754 102.486C156.963 102.508 156.189 102.73 155.507 103.132C154.32 103.722 153.499 105.071 151.996 104.966C151.996 104.425 151.996 103.891 151.996 103.357C152.108 100.917 152.073 98.4728 151.891 96.0372C151.687 92.8691 151.245 89.715 150.887 86.6101C150.557 83.744 148.928 81.3626 148.19 78.6441C147.284 75.3284 145.044 72.5467 144.061 69.2099C143.254 66.4492 143.479 63.6464 143.781 60.9349C144.279 56.3688 146.589 52.4069 149.061 48.6347C150.206 46.8855 149.609 45.5649 148.598 44.4199C147.586 43.2748 145.712 42.7129 144.539 43.8719C142.285 46.0917 139.371 46.1128 136.681 46.6326C134.519 47.0541 133.058 48.9086 130.804 48.9227C128.81 48.9227 126.816 49.1053 124.814 49.1475C118.768 49.2599 113.088 47.6863 107.477 45.586C105.841 44.9818 104.296 44.5323 103.018 43.2397C102.428 42.6426 100.912 42.6707 100.526 43.1905C98.8754 45.2979 96.3475 45.2979 94.2058 46.2041C89.0517 48.4028 83.5044 48.8384 78.0554 49.1264C74.6983 49.3574 71.3394 48.7008 68.316 47.2227C64.9151 45.6637 61.3924 44.3856 57.7832 43.4013C56.4701 43.0149 55.3606 43.8157 54.4899 44.9537C53.6192 46.0917 53.233 47.026 54.0897 48.2905C55.9848 50.9711 57.537 53.8785 58.7101 56.9449C60.0969 60.6031 60.4895 64.5638 59.8476 68.4232C58.9839 73.2702 56.758 77.6466 54.9323 82.1494C53.4085 85.9779 52.8257 89.9257 52.4044 93.9509C52.187 97.1408 52.3473 100.345 52.8819 103.497C52.931 103.87 53.233 104.375 52.5027 104.692C51.8988 104.952 51.8005 104.516 51.4424 104.368C49.8512 103.625 48.1875 103.049 46.4779 102.647C45.4036 102.437 45.1859 102.071 45.1437 101.116C44.9542 97.1822 45.4036 93.2765 45.5159 89.3567C45.5651 87.5514 45.6915 85.7109 45.9021 83.9618C46.2115 82.6238 46.6831 81.3287 47.3065 80.1052C48.8979 76.4509 50.828 72.9537 53.0715 69.6595C54.1599 68.0087 53.9562 65.9435 54.532 63.8782C55.1078 61.813 53.7666 59.9233 54.532 57.9705C54.9182 56.9449 53.9071 56.3197 53.4717 55.6242C52.5589 54.1631 51.2037 52.8143 50.4102 51.4586C49.6167 50.1028 48.416 49.0632 47.454 47.8479C46.3796 46.4851 46.7518 45.326 48.1561 44.3988C48.3668 44.4409 48.4651 44.3988 48.3668 44.1599C48.43 44.0054 48.4932 43.8509 48.5494 43.6963C49.2516 43.5066 49.6448 43.1695 49.062 42.4529C49.1462 42.2066 49.3037 41.9919 49.5132 41.8375C49.7228 41.6831 49.9745 41.5963 50.2346 41.5889C51.33 41.6592 51.4564 40.6195 51.9831 40.0365C52.3202 39.8389 52.5652 39.5155 52.6642 39.1373C53.1417 37.5708 54.3776 37.3671 55.7398 38.0976C57.5515 39.0741 59.0682 40.8092 61.4837 40.4369C61.9211 40.3252 62.3399 40.15 62.7266 39.917Z" fill="#F7F7F7"/>
<path d="M30.7557 128.616C35.2357 130.218 39.6806 131.96 44.2237 133.372C47.8572 134.366 51.5452 135.15 55.2692 135.718C59.4823 136.512 63.6955 137.826 67.9718 137.938C70.8227 138.015 73.5894 139.027 76.5105 138.5C78.1325 138.205 79.9091 138.795 81.5803 139.062C90.2383 140.432 98.9104 139.476 107.561 139.273C113.762 139.132 119.983 138.465 126.183 138.078C134.413 137.559 142.418 135.971 150.493 134.615C154.51 133.913 158.442 132.993 162.431 132.143C164.706 131.658 165.288 129.895 166.18 128.363C168.678 123.858 170.372 118.952 171.187 113.864C171.552 111.89 171.236 111.539 169.242 111.631C165.176 111.813 161.581 113.857 157.649 114.539C155.921 114.834 154.383 116.386 152.382 115.304C152.059 115.136 151.273 116.007 150.641 116.197C149.061 116.625 147.446 116.969 145.831 117.264C141.54 118.044 137.257 118.88 132.946 119.498C129.195 120.101 125.414 120.488 121.619 120.657C116.704 120.791 111.789 122.062 106.873 121.416C103.559 120.994 100.273 121.816 97.0425 121.493C88.1598 120.608 79.1647 121.247 70.3593 119.175C66.0759 118.163 61.631 117.953 57.2704 117.349C52.2215 116.647 47.2723 115.355 42.5244 113.499C38.536 111.947 34.4001 110.991 30.3976 109.565C28.8106 109.748 29.0704 108.048 28.291 107.458C28.3064 107.279 28.3892 107.114 28.5227 106.994C29.1547 106.657 29.3935 107.528 29.9271 107.493C31.2894 107.324 32.462 107.985 33.7049 108.35C38.3815 109.755 43.1564 110.851 47.6785 112.635C50.733 113.836 53.8929 114.265 57.0036 114.904C61.8768 115.909 66.8343 116.393 71.7496 117.131C78.3257 118.052 84.9441 118.641 91.5795 118.894C97.3023 119.161 103.011 118.859 108.713 119.14C112.357 119.323 115.967 118.824 119.59 118.669C123.213 118.515 126.766 117.798 130.361 117.503C136.042 117.032 141.561 115.649 147.151 114.693C152.179 113.836 157.059 112.15 162.037 110.977C163.571 110.523 165.14 110.199 166.728 110.008C171.103 109.72 171.826 108.645 171.566 104.803C172.198 104.1 173.16 104.184 174.15 103.629C173.708 106.053 174.852 108.146 173.883 110.549C173.244 112.15 173.469 114.37 173.623 116.211C174.003 120.664 172.619 125.055 173.532 129.522C174.01 131.862 173.083 132.81 170.618 133.639C167.198 134.784 163.793 135.978 160.338 137.025C158.765 137.502 157.276 138.388 155.619 138.746C155.914 137.13 157.908 137.179 158.849 135.233C155.444 136.681 152.235 136.47 149.222 137.207C145 138.284 140.709 139.07 136.379 139.561C131.927 140.017 127.497 141.127 122.96 140.664C122.619 140.68 122.281 140.744 121.956 140.853C117.378 141.759 112.694 141.471 108.088 141.612C105.279 141.696 102.379 141.745 99.5494 141.893C94.5357 142.16 89.5502 141.816 84.5576 141.731C80.7377 141.668 76.9318 140.895 73.1048 140.699C68.0723 140.449 63.0682 139.794 58.1412 138.739C54.553 137.952 50.8103 137.727 47.3625 136.421C43.7813 135.065 39.498 135.486 36.6401 132.255C36.5706 132.182 36.4841 132.128 36.3885 132.098C36.2928 132.067 36.191 132.061 36.0924 132.079C34.2245 132.929 32.8201 131.482 31.177 131.124C30.2993 130.422 29.1266 129.768 30.7557 128.616Z" fill="#AECDE9"/>
<path d="M104.857 112.543C98.474 112.094 92.4282 112.087 86.4244 111.209C84.9077 110.984 83.3067 111.272 81.7408 111.089C80.6244 110.963 80.0626 110.387 80.1328 109.347C80.3084 106.334 80.5401 103.32 80.7788 100.313C80.7788 99.885 83.0329 98.2623 83.5244 98.3255C87.3303 98.8032 91.1361 98.5432 94.942 98.3747C100.461 98.1218 105.966 97.9391 111.444 96.9065C115.732 96.0845 120.143 96.149 124.406 97.0962C124.954 97.2156 125.319 97.4895 125.277 98.0585C125.052 100.868 125.923 103.552 126.056 106.306C126.126 107.71 126.407 109.235 125.621 110.52C124.701 112.045 123.156 111.005 121.92 111.223C116.155 112.129 110.32 112.185 104.857 112.543Z" fill="#F7F7F7"/>
<path d="M121.662 81.9574L122.168 79.4566C122.519 77.7988 123.123 76.5624 125.244 76.7661C127.517 76.9873 129.808 76.9378 132.069 76.6186C135.046 76.1831 141.9 79.8921 143.304 82.5755C143.672 83.423 143.767 84.364 143.575 85.2679C143.384 86.1718 142.916 86.9937 142.237 87.6193C139.905 89.544 137.012 90.106 134.225 90.2043C130.44 90.3378 126.641 90.682 122.856 90.4783C119.556 90.3027 116.206 90.1411 113.025 90.689C111.46 90.956 109.402 89.2349 108.11 91.5461C107.991 91.7708 107.246 90.5907 106.256 90.8787C103.237 91.7708 100.049 91.6936 96.9664 91.9113C92.2687 92.2345 87.5079 92.7964 82.7962 92.1712C78.583 91.6163 74.3699 91.251 70.2269 90.5556C68.8425 90.3769 67.5128 89.9024 66.3278 89.1642C65.1429 88.4261 64.1306 87.4416 63.3595 86.2775C62.0394 84.43 62.2641 83.5028 64.0617 82.133C68.0502 79.0351 72.9023 78.6206 77.5227 77.4194C77.6835 77.3565 77.8562 77.3299 78.0285 77.3415C78.2007 77.3531 78.3683 77.4026 78.5192 77.4865C78.6702 77.5704 78.8007 77.6866 78.9016 77.8268C79.0024 77.967 79.0711 78.1277 79.1026 78.2975C79.1939 78.6277 79.2782 79 79.3976 79.288C80.3666 81.9433 80.3596 81.9152 77.621 82.2384C76.5747 82.3648 75.374 82.5123 74.8684 83.5309C74.6086 84.0648 74.5103 85.2028 75.1282 85.5399C76.2307 86.1511 77.305 86.8325 78.7375 86.8465C80.9607 86.7478 83.1879 86.9105 85.3732 87.3312C87.4166 87.8159 89.8391 87.5139 92.0581 87.4436C95.885 87.3172 99.7119 87.1837 103.546 87.0924C109.346 86.9449 115.153 86.8817 120.932 86.4672C123.299 86.2916 125.644 85.4065 127.905 84.6057C128.832 84.2755 130.11 83.3904 129.66 82.2243C129.267 81.2057 128.045 80.8194 126.746 81.1776C125.138 81.6202 123.46 81.2268 121.662 81.9574Z" fill="#F7F7F7"/>
<path d="M171.588 104.782C171.848 108.624 171.125 109.699 166.75 109.987C165.162 110.178 163.593 110.502 162.059 110.956C157.081 112.13 152.229 113.816 147.173 114.673C141.555 115.628 136.064 117.012 130.384 117.482C126.788 117.777 123.214 118.501 119.612 118.648C116.01 118.796 112.379 119.302 108.735 119.119C103.033 118.838 97.3244 119.119 91.6016 118.873C84.9662 118.62 78.3478 118.032 71.7717 117.11C66.8564 116.373 61.8708 115.888 57.0257 114.883C53.915 114.244 50.7551 113.816 47.7006 112.614C43.1785 110.83 38.4036 109.713 33.727 108.329C32.4841 107.964 31.3115 107.304 29.9492 107.472V103.672C35.2859 105.47 40.3838 107.254 45.5168 108.891C48.7642 110.012 52.0931 110.881 55.4739 111.49C60.3892 112.256 65.2484 113.422 70.2199 113.984C73.1059 114.314 75.9989 114.054 78.899 114.42C82.8734 114.932 86.8969 115.403 90.8362 115.593C97.3575 115.93 103.892 115.93 110.413 115.593C112.815 115.459 115.174 115.115 117.555 114.932C121.248 114.651 124.942 114.111 128.642 114.111C132.379 114.061 136.108 113.747 139.8 113.169C141.984 112.86 144.147 112.375 146.316 111.968C147.482 112.832 148.634 114.118 150.206 113.127C151.292 112.571 152.249 111.793 153.015 110.844C159.18 108.716 165.254 106.355 171.588 104.782Z" fill="#F7F7F7"/>
<path d="M27.5614 98.3899C27.5614 101.291 26.8592 104.192 27.9125 107.108C28.2144 107.915 27.0909 108.836 27.2103 110.058C27.6105 113.886 27.6948 117.785 27.9125 121.599C27.9687 122.471 27.7931 122.815 26.7749 122.955C21.6138 123.658 16.4878 124.669 11.3267 125.147C9.68359 125.301 7.90705 125.027 6.17966 125.147C5.91699 125.123 5.66554 125.029 5.45177 124.875C5.238 124.72 5.0698 124.511 4.96487 124.269C4.52951 123.482 5.18255 123.412 5.40023 123.004C7.5068 119.064 10.5052 115.86 13.4403 112.58C14.8096 111.055 14.3461 109.967 12.7381 108.639C9.51507 105.948 6.24286 103.244 4.31183 99.3874C3.27259 97.3362 4.1433 95.8751 6.4184 95.8751C12.0133 96.005 17.6062 95.5388 23.1025 94.4842C25.5162 94.0844 27.9491 93.8101 30.3912 93.6623C30.967 93.6061 31.7956 93.571 32.0414 94.3016C32.2871 95.0321 31.6411 95.2991 31.0513 95.6152C30.4614 95.9313 30.0191 96.5143 29.2466 96.3738C28.2152 96.3073 27.1795 96.3711 26.164 96.5635C20.4973 97.9684 14.6972 98.4602 8.89012 98.8395C7.07144 98.9589 6.62204 99.5841 7.90705 100.877C10.1821 103.167 11.8885 105.97 14.4234 108C17.0777 110.107 17.3656 110.325 15.1888 112.875C13.0822 115.305 12.3168 118.712 9.33952 120.398C8.74266 120.735 8.79883 121.325 8.9182 121.866C9.03758 122.407 9.6204 122.414 10.0768 122.456C12.2255 122.674 14.29 122.182 16.4457 121.993C19.8303 121.684 22.8918 119.942 26.2764 119.562C26.9786 119.485 27.0699 118.923 27.0277 118.326C27.0393 118.185 27.0146 118.043 26.9559 117.914C26.8972 117.785 26.8065 117.674 26.6925 117.59C26.5784 117.506 26.4448 117.453 26.3043 117.435C26.1639 117.418 26.0213 117.437 25.8902 117.49C25.0546 117.729 24.1838 117.729 23.3272 117.968C20.1884 118.818 17.0426 119.766 13.7633 119.942C13.4684 118.34 14.8517 117.497 15.0624 116.226C15.5898 115.886 16.0185 115.414 16.3053 114.856C17.0526 113.658 17.9259 112.544 18.9104 111.533C19.2825 111.182 20.392 111.533 20.0409 110.437C19.8373 109.791 19.8724 109.131 19.0719 108.59C16.4668 106.805 13.8406 104.965 11.9938 102.31C11.4601 101.537 11.2214 100.905 12.696 100.806C17.7239 100.541 22.7081 99.7307 27.5614 98.3899Z" fill="#F7F7F7"/>
<path d="M31.1977 131.13C32.8198 131.489 34.2242 132.936 36.1131 132.086C36.2118 132.067 36.3135 132.073 36.4092 132.104C36.5048 132.135 36.5913 132.189 36.6608 132.261C39.5187 135.493 43.8021 135.071 47.3832 136.427C50.831 137.734 54.5737 137.958 58.1619 138.745C63.0964 139.794 68.1076 140.443 73.1466 140.684C76.9736 140.881 80.7794 141.653 84.5994 141.717C89.5919 141.801 94.5775 142.145 99.5911 141.878C102.4 141.731 105.314 141.681 108.13 141.597C112.736 141.457 117.42 141.745 121.998 140.839C122.322 140.729 122.66 140.666 123.002 140.649C127.538 141.112 131.969 140.003 136.421 139.546C140.751 139.056 145.042 138.269 149.264 137.193C152.277 136.455 155.486 136.666 158.891 135.219C157.95 137.158 155.956 137.108 155.661 138.731C154.903 138.541 154.151 138.366 153.814 139.37L153.288 139.434C153.096 139.382 152.895 139.383 152.704 139.438C152.513 139.492 152.341 139.598 152.206 139.743L151.244 139.883C150.542 139.883 149.889 139.665 149.313 140.199C145.802 140.979 142.291 141.604 138.78 142.307C132.011 143.655 125.109 143.136 118.29 144.203C113.053 144.955 107.746 145.092 102.477 144.611C99.542 144.379 96.5577 144.611 93.5874 144.611C90.2213 144.546 86.8605 144.312 83.518 143.908C80.2036 143.543 76.8893 143.206 73.575 143.206C68.2734 143.164 63.1825 141.913 58.0214 141.014C55.7463 140.614 53.4712 140.213 51.2172 139.729C48.3101 139.11 45.6769 137.705 42.8892 136.757C39.6802 135.668 36.408 134.748 33.2341 133.568C32.244 133.182 30.2779 133.21 31.1977 131.13Z" fill="#F7F7F7"/>
<path d="M182.866 123.629C181.377 123.482 179.867 123.257 178.4 123.187C176.153 123.082 175.872 121.873 176.216 120.208C176.873 116.711 177.078 113.144 176.827 109.594C176.644 106.173 177.248 102.773 176.771 99.4084C176.655 98.7728 176.403 98.1701 176.03 97.6423C175.658 97.1145 175.175 96.6744 174.615 96.3526C174.404 96.2192 173.955 96.3105 173.857 96.1489C173.4 95.3762 171.645 95.5307 172.157 94.2593C172.544 93.3039 173.716 93.7605 174.622 93.7746C176.865 93.7676 179.097 94.0822 181.251 94.7089C181.609 95.4465 181.953 96.1911 182.332 96.9146C182.466 97.1464 182.276 97.5047 183.034 97.4555C186.243 97.2518 189.354 98.4881 192.584 98.3828C193.806 98.3476 193.595 99.0852 193.153 99.7104C192.493 100.631 191.285 101.242 190.744 101.979C188.898 104.508 186.482 106.405 184.333 108.576C183.631 109.278 183.673 109.657 184.193 110.29C184.713 110.922 185.113 111.484 185.597 112.081C187.872 115.08 189.832 118.305 191.447 121.705C191.973 122.801 191.749 123.32 190.393 123.264C188.478 123.142 186.573 122.889 184.691 122.505C183.765 122.344 182.767 122.147 182.866 123.629ZM189.888 100.673C187.739 100.16 185.913 99.7034 184.074 99.2679C183.182 99.0642 182.669 99.4927 182.943 100.378C183.442 102 183.189 103.644 183.287 105.295C183.287 105.66 183.076 106.201 183.638 106.314C183.847 106.343 184.059 106.309 184.248 106.216C184.437 106.124 184.594 105.977 184.699 105.794C185.991 103.82 187.823 102.387 189.902 100.673H189.888ZM183.336 113.05C183.133 115.066 183.442 116.858 182.908 118.6C182.753 119.113 182.81 119.773 183.561 119.878C184.694 119.966 185.819 120.142 186.924 120.405C187.774 120.658 188.111 119.527 187.585 118.796C186.257 116.963 185.485 114.666 183.35 113.05H183.336Z" fill="#AECDE9"/>
<path d="M107.434 50.325C107.848 49.8754 108.262 49.5382 108.95 49.8543C113.81 52.0076 119.085 53.0584 124.398 52.9311C122.383 54.5146 120.534 56.2986 118.879 58.2558C118.377 56.9205 117.689 55.6625 116.836 54.5187C115.79 53.3175 114.301 53.1138 113.416 54.2447C111.162 57.0546 108.044 59.2182 106.493 62.6252C105.636 64.5078 104.196 66.3272 104.386 68.4135C104.534 69.9519 103.74 71.2234 103.852 72.6705C103.937 73.8155 102.897 74.6022 101.844 74.7779C99.9255 75.0731 97.9679 74.9944 96.0791 74.546C95.5385 74.4336 95.5525 74.1035 95.5314 73.5204C95.4682 72.2139 95.4682 70.3945 94.6677 69.7412C93.2634 68.6172 93.8672 67.5705 93.6917 66.3342C93.5765 65.7935 93.611 65.2316 93.7917 64.7092C93.9724 64.1868 94.2923 63.7236 94.7169 63.3698C97.9048 60.1384 101.037 56.8649 104.225 53.6125C104.534 53.5212 104.871 53.4509 104.744 52.9943C106.809 52.8609 107.848 51.8353 107.434 50.325ZM96.9007 67.1842C97.3782 67.8305 98.2629 67.6548 98.6421 68.3152C98.8949 68.7718 99.4988 69.8114 99.7867 68.9123C100.075 68.0131 102.343 67.5073 100.601 66.2007C100.131 65.8425 99.6673 64.5429 98.8739 65.5404C98.3051 66.278 97.4273 66.4887 96.9007 67.2193V67.1842Z" fill="#A9C9E5"/>
<path d="M132.278 71.0066C130.445 74.4206 127.271 74.4346 123.999 74.3433C123.107 74.3433 123.248 73.8586 123.178 73.3318C122.995 71.9268 123.739 70.3041 122.223 69.2083C122.876 68.5058 122.728 67.5083 123.423 66.8199C128.718 61.6005 133.921 56.2829 139.286 51.1408C140.81 49.6797 142.888 48.8859 144.974 47.8813C145.035 49.2558 144.556 50.5996 143.639 51.6255C141.399 53.9998 141.421 57.2452 139.988 59.9216C139.897 60.0902 139.834 60.4485 139.904 60.4977C141.435 61.4952 139.827 62.7526 139.602 62.9844C137.769 64.8881 136.316 67.1992 133.984 68.6041C133.942 67.7331 133.198 67.3257 132.692 66.841C131.393 65.5906 131.162 67.5434 130.333 67.7612C129.708 67.9438 129.631 68.5339 130.115 68.8289C131.063 69.3979 131.26 70.5992 132.278 71.0066Z" fill="#A9C9E5"/>
<path d="M106.907 72.6301C106.598 70.5227 106.366 68.0711 106.949 67.2773C108.276 65.486 108.473 63.1187 110.27 61.6575C111.478 60.646 112.335 59.2059 113.388 57.9906C114.441 56.7754 115.495 57.0774 116.092 58.4121C117.011 60.358 118.591 62.0439 119.308 63.8563C119.83 65.4812 120.201 67.1507 120.417 68.8438C120.902 71.7731 120.543 74.7726 120.361 77.5754C120.227 79.5634 119.132 82.0642 118.093 84.1857C117.629 85.127 116.59 84.8881 115.86 84.6633C114.933 84.4034 115.277 83.5534 115.509 82.9353C116.082 81.3371 116.515 79.6917 116.801 78.018C116.871 77.6878 117.054 77.3155 116.962 77.0275C115.958 73.8594 116.92 70.5297 116.127 67.3545C115.804 66.076 114.954 64.9942 113.634 64.9591C112.63 64.9591 112.363 66.2025 112.026 67.0314C111.32 68.8961 111.058 70.8995 111.26 72.883C111.499 75.742 111.506 78.594 111.661 81.446C111.661 81.8465 111.605 82.3452 111.808 82.6332C112.328 83.3357 113.121 84.2067 111.843 84.6563C110.923 84.9795 109.533 85.2183 109.28 83.434C108.747 79.6056 106.324 76.2197 106.907 72.6301Z" fill="#F7F7F7"/>
<path d="M71.0334 93.4786C70.8582 93.1162 70.7058 92.7431 70.577 92.3617C70.3944 91.5749 71.0966 91.5047 71.532 91.4134C72.4027 91.2448 72.2341 91.9473 72.0375 92.3196C71.4056 93.591 72.1288 93.7245 73.1119 93.7667C73.9896 93.8228 74.9165 94.2584 75.71 94.0617C77.8938 93.5208 77.8166 94.9328 78.0132 96.3236C78.589 100.363 75.4361 102.112 73.14 104.395C72.8451 104.683 72.5572 104.465 72.2271 104.395C69.7835 104.093 67.4663 103.046 64.812 103.791C64.1098 103.995 62.0032 104.332 61.0061 102.779C60.7533 102.372 59.9177 102.323 59.3419 102.14C58.4993 101.873 57.123 102.21 56.9896 101.1C56.8281 99.7306 56.3436 98.1992 57.9375 96.991C59.8639 95.4296 61.704 93.7646 63.4497 92.0035C63.6559 91.7543 63.9458 91.5889 64.2652 91.5385C64.5845 91.4881 64.9113 91.556 65.1841 91.7295C67.1017 92.4154 69.0542 92.9992 71.0334 93.4786Z" fill="#A9C9E5"/>
<path d="M91.9876 84.495C89.3685 84.8673 89.3614 84.8673 89.1789 82.2612C89.1435 80.8693 89.2565 79.4776 89.5159 78.1096C90.0145 74.8853 88.7716 71.7874 88.596 68.5982C88.5188 67.3197 87.943 64.9875 85.5415 64.8048C84.5023 64.7276 84.2073 65.1491 84.1933 66.0693C84.2111 71.4153 84.6667 76.7508 85.5556 82.0223C85.6258 82.5211 86.1103 82.9566 86.2577 83.4273C86.4052 83.8979 87.2478 84.4318 86.2577 84.7268C85.7311 84.8954 85.0851 85.4925 84.418 84.7268C83.8837 84.111 83.4778 83.3945 83.2243 82.6194C82.1218 79.5918 80.9211 76.5642 80.4155 73.382C79.9662 70.8109 80.0283 68.1764 80.5982 65.6294C81.1682 63.0824 82.2347 60.6729 83.7369 58.5388C84.3899 57.6045 85.0008 56.6351 85.5626 55.7852C92.2545 64.3974 93.8765 74.0634 91.9876 84.495Z" fill="#F7F7F7"/>
<path d="M27.5588 98.388C22.7079 99.7283 17.726 100.539 12.7005 100.805C11.2188 100.875 11.4576 101.507 11.9983 102.308C13.845 104.963 16.4712 106.804 19.0763 108.588C19.8768 109.129 19.8417 109.789 20.0454 110.435C20.3965 111.524 19.287 111.18 18.9148 111.531C17.928 112.542 17.0522 113.656 16.3027 114.854C16.009 115.394 15.5809 115.849 15.0598 116.175C15.0444 116.125 15.0232 116.078 14.9966 116.034C14.9966 116.034 14.9264 116.034 14.8913 116.034L15.0668 116.196C14.8562 117.467 13.4729 118.303 13.7678 119.912C17.047 119.736 20.1928 118.788 23.3316 117.938C24.1883 117.699 25.059 117.699 25.8946 117.46C26.0258 117.407 26.1683 117.388 26.3088 117.406C26.4492 117.423 26.5828 117.476 26.6969 117.56C26.811 117.644 26.9017 117.755 26.9604 117.884C27.019 118.013 27.0438 118.155 27.0322 118.296C27.0743 118.893 27.0322 119.455 26.2808 119.532C22.8892 119.912 19.8277 121.64 16.4502 121.963C14.3436 122.153 12.237 122.665 10.0813 122.427C9.60379 122.384 9.05609 122.462 8.92267 121.836C8.78925 121.211 8.74712 120.705 9.34398 120.368C12.3213 118.682 13.1147 115.275 15.1932 112.845C17.37 110.295 17.0821 110.098 14.4278 107.97C11.8929 105.94 10.2147 103.137 7.91151 100.847C6.6265 99.5541 7.07591 98.9289 8.89458 98.8095C14.7017 98.4302 20.5018 97.9314 26.1685 96.5335C27.184 96.3411 28.2197 96.2774 29.2511 96.3439C28.5629 96.9269 28.4295 97.9947 27.5588 98.388Z" fill="#AECDE9"/>
<path d="M182.864 123.629C182.766 122.146 183.763 122.343 184.661 122.505C186.542 122.895 188.447 123.155 190.363 123.284C191.718 123.341 191.943 122.821 191.417 121.725C189.802 118.325 187.842 115.1 185.567 112.101C185.104 111.504 184.661 110.893 184.163 110.31C183.664 109.727 183.629 109.277 184.303 108.596C186.452 106.425 188.868 104.528 190.714 102C191.255 101.297 192.463 100.651 193.123 99.7306C193.565 99.0984 193.776 98.3678 192.554 98.4029C189.324 98.5083 186.234 97.2719 183.004 97.4756C182.253 97.5248 182.443 97.1666 182.302 96.9348C181.916 96.2323 181.6 95.4666 181.221 94.729C184.163 95.0802 187.098 95.593 190.047 95.7265C191.915 95.8178 193.706 96.6397 195.7 96.0005C196.95 95.6001 197.034 96.7662 196.781 97.7566C196.198 100.054 194.457 101.606 192.996 103.264C191.348 105.178 189.536 106.945 187.583 108.547C187.049 108.975 186.698 109.579 187.639 110.71C188.671 111.954 190.174 112.712 190.995 114.222C191.936 115.922 193.102 117.489 193.994 119.252C194.521 120.269 195.154 121.227 195.882 122.111C197.034 123.516 195.918 123.699 195.18 124.113C191.95 125.912 188.615 124.521 185.35 124.268C184.577 124.162 183.538 124.443 182.864 123.629Z" fill="#F7F7F7"/>
<path d="M106.734 81.8392C102.767 82.5417 98.9608 81.3967 95.2603 81.9165C94.8811 81.1648 95.3445 80.7925 95.4358 80.3429C95.6535 79.3384 95.0496 77.7719 95.9203 77.4347C97.0509 76.9922 98.5325 77.3013 99.8386 77.4909C100.37 77.5724 100.909 77.6053 101.447 77.5893C103.434 77.519 105.316 77.526 105.618 80.2235C105.646 80.7363 106.243 81.1929 106.734 81.8392Z" fill="#F7F7F7"/>
<path d="M152.1 104.971C153.631 105.077 154.453 103.728 155.611 103.138C156.294 102.736 157.067 102.514 157.858 102.492C157.899 102.602 157.923 102.718 157.929 102.836C157.17 103.602 157.76 104.571 157.528 105.421C157.374 107.177 155.955 107.528 154.649 107.992C154.473 107.954 154.291 107.96 154.117 108.007C153.944 108.055 153.784 108.144 153.652 108.266L152.164 108.421L151.595 108.68C149.966 108.407 151.932 107.578 151.363 107.142C151.588 107.065 151.77 106.959 151.686 106.671L151.77 105.049C151.868 104.985 151.985 104.958 152.1 104.971Z" fill="#A9C9E5"/>
<path d="M74.7199 63.4056C73.1189 64.5014 71.4688 64.6068 71.3213 66.4753C71.2581 67.227 70.3663 66.8687 70.3382 66.4753C70.2259 64.9931 69.3271 64.5646 68.0702 64.3679C67.5365 64.2907 67.6138 63.82 67.6418 63.3915C67.6699 62.963 67.5997 62.4361 68.344 62.3589C68.9294 62.318 69.4811 62.0701 69.9005 61.6595C70.3199 61.249 70.5796 60.7026 70.6332 60.118C70.7174 59.6755 70.9632 59.2891 71.4337 59.3453C72.0376 59.4085 71.8199 59.9705 71.848 60.3358C71.9603 61.8882 72.5361 63.0965 74.7199 63.4056Z" fill="#F7F7F7"/>
<path d="M35.8109 101.677C37.5383 102.07 38.4933 100.651 39.7361 99.9486C40.1926 99.6886 40.5085 99.1758 41.1405 99.1969C41.3371 100.461 41.5267 101.719 41.7444 102.976C41.9621 104.234 42.0463 105.28 40.2066 104.606C38.9918 104.163 37.7349 103.833 36.5271 103.377C35.7688 103.082 35.6775 102.407 35.8109 101.677Z" fill="#F7F7F7"/>
<path d="M126.498 56.8667C126.852 57.9076 127.56 58.7906 128.5 59.3605C128.97 59.7117 128.289 60.3299 127.798 60.5617C126.737 61.0464 127.306 62.6691 126.491 62.8869C125.199 63.2732 126.133 61.2009 124.947 61.0815C124.488 60.9936 124.046 60.8373 123.634 60.6179C123.037 60.365 122.931 59.7187 123.465 59.5853C124.806 59.2691 125.726 58.7353 125.838 57.246C125.845 57.1477 126.154 57.0634 126.498 56.8667Z" fill="#F7F7F7"/>
<path d="M93.1797 55.0534C93.8046 53.8031 95.5601 54.0138 95.6935 52.4965C95.7286 52.1663 96.4659 52.1241 96.6204 52.637C96.7045 52.933 96.8506 53.2076 97.0492 53.4426C97.2478 53.6777 97.4942 53.8676 97.772 53.9997C98.7691 54.4985 98.3618 54.6039 97.8212 55.4047C96.48 57.3154 95.532 57.5613 94.2611 55.489C94.1276 55.2501 93.6642 55.2291 93.1797 55.0534Z" fill="#F7F7F7"/>
<path d="M132.28 71.0068C131.261 70.5994 131.065 69.3982 130.173 68.8432C129.681 68.5482 129.766 67.9581 130.391 67.7755C131.219 67.5296 131.451 65.6049 132.75 66.8553C133.256 67.34 134 67.7474 134.042 68.6184C133.782 69.6651 132.883 70.2271 132.28 71.0068Z" fill="#F7F7F7"/>
<path d="M153.078 110.878C152.312 111.828 151.355 112.605 150.269 113.161C148.696 114.152 147.545 112.866 146.379 112.002C147.116 111.251 148.141 111.918 148.942 111.468C149.209 111.63 149.272 111.405 149.363 111.237C150.634 111.82 151.765 110.534 153.078 110.878Z" fill="#AECDE9"/>
<path d="M71.8254 75.5166C69.6416 74.5262 69.7679 73.2687 71.053 71.8989C71.5164 71.4002 71.7551 71.9551 72.1273 72.1869C74.1777 73.5638 72.3239 74.4489 71.8254 75.5166Z" fill="#F7F7F7"/>
<path d="M169.1 102.492C167.232 101.727 165.343 102.815 163.293 102.415C163.959 101.954 164.751 101.709 165.561 101.712C168.714 101.586 168.714 101.579 168.84 98.3477C169.585 99.6894 169.065 101.108 169.1 102.492Z" fill="#F7F7F7"/>
<path d="M107.435 50.3252C107.849 51.8355 106.81 52.8611 104.76 52.9665L107.435 50.3252Z" fill="#F7F7F7"/>
<path d="M148.779 63.5742C147.859 62.4573 148.604 61.3965 148.892 60.3218C149.088 61.3895 150.268 62.5205 148.779 63.5742Z" fill="#1A1C1F"/>
<path d="M156.334 72.8682L157.177 74.3433C156.327 74.0834 155.07 75.0458 154.677 73.9851C154.375 73.114 156.285 74.0624 156.334 72.8682Z" fill="#1A1C1F"/>
<path d="M51.1895 35.0054C51.2482 34.6003 51.4332 34.224 51.7182 33.9301C52.0031 33.6363 52.3734 33.4398 52.7764 33.3687C53.5207 35.167 51.8074 34.5488 51.1895 35.0054Z" fill="#1A1C1F"/>
<path d="M52.0455 40.0142C51.5189 40.5973 51.3925 41.6369 50.2971 41.5667C50.1847 40.2671 50.8729 39.8737 52.0455 40.0142Z" fill="#1A1C1F"/>
<path d="M161.735 97.5537C161.905 97.7915 162.019 98.0654 162.066 98.3541C162.114 98.6428 162.094 98.9386 162.009 99.2185C161.719 99.1629 161.451 99.0255 161.237 98.8226C161.023 98.6197 160.872 98.3598 160.801 98.0735C160.716 97.6661 161.334 97.5959 161.735 97.5537Z" fill="#1A1C1F"/>
<path d="M159.754 80.5396C160.01 80.7192 160.199 80.9791 160.29 81.2781C160.382 81.5771 160.371 81.8982 160.26 82.1904C159.712 81.5862 159.284 80.8416 158.385 80.6168L159.754 80.5396Z" fill="#1A1C1F"/>
<path d="M153.077 56.0938C153.695 57.1545 152.796 57.6322 152.255 58.2503C152.003 57.3441 152.663 56.7751 153.077 56.0938Z" fill="#1A1C1F"/>
<path d="M161.664 93.4023C161.818 94.5022 161.818 95.6181 161.664 96.718C161.396 96.2066 161.256 95.6377 161.256 95.0602C161.256 94.4827 161.396 93.9138 161.664 93.4023Z" fill="#1A1C1F"/>
<path d="M153.851 68.6255L155.101 70.6205C153.444 70.7259 153.921 69.5106 153.851 68.6255Z" fill="#1A1C1F"/>
<path d="M153.353 51.0855C152.651 49.8772 153.964 49.7367 154.413 49.1396C155.186 50.39 154.132 50.671 153.353 51.0855Z" fill="#1A1C1F"/>
<path d="M160.486 83.8906C160.942 84.48 161.189 85.2039 161.189 85.9489C160.93 85.6769 160.733 85.3521 160.612 84.9968C160.491 84.6414 160.448 84.2641 160.486 83.8906Z" fill="#1A1C1F"/>
<path d="M153.781 139.356C154.118 138.352 154.87 138.527 155.628 138.717C155.422 138.999 155.135 139.212 154.805 139.326C154.475 139.44 154.118 139.451 153.781 139.356Z" fill="#AECDE9"/>
<path d="M49.1521 42.4302C49.7349 43.1326 49.3698 43.4839 48.6395 43.6735C48.6255 43.2029 48.5833 42.6901 49.1521 42.4302Z" fill="#1A1C1F"/>
<path d="M153.079 67.6851C153.626 67.7272 153.689 68.1768 153.781 68.5702C153.423 68.4999 152.994 69.0198 152.734 68.5702C152.636 68.3875 152.931 67.9871 153.079 67.6851Z" fill="#1A1C1F"/>
<path d="M157.555 105.421C157.787 104.571 157.197 103.602 157.956 102.836C157.871 103.7 158.37 104.662 157.555 105.421Z" fill="#1A1C1F"/>
<path d="M154.635 54.4434C154.67 55.0264 154.67 55.5884 153.848 55.5954C153.841 55.0545 153.869 54.5136 154.635 54.4434Z" fill="#1A1C1F"/>
<path d="M155.105 70.6343C155.695 70.9785 155.983 71.3367 155.105 71.5966C155.084 71.3016 155.098 70.9574 155.105 70.6343Z" fill="#1A1C1F"/>
<path d="M161.996 100.033C161.954 100.328 162.109 100.672 161.765 100.883C161.14 100.413 161.406 100.181 161.996 100.033Z" fill="#1A1C1F"/>
<path d="M152.102 104.97C151.995 104.963 151.89 104.99 151.8 105.048C151.8 104.465 151.596 103.839 152.13 103.362C152.123 103.896 152.109 104.43 152.102 104.97Z" fill="#1A1C1F"/>
<path d="M153.014 41.5669C152.565 41.8479 152.424 41.4967 152.256 41.1946C152.684 40.9558 153.077 40.8223 153.014 41.5669Z" fill="#1A1C1F"/>
<path d="M158.113 95.4873C157.874 94.848 158.176 94.5811 158.815 94.5249C158.836 95.0377 158.738 95.4451 158.113 95.4873Z" fill="#1A1C1F"/>
<path d="M149.273 140.187C149.849 139.653 150.537 139.849 151.204 139.87C150.942 140.094 150.623 140.241 150.283 140.297C149.943 140.353 149.594 140.315 149.273 140.187Z" fill="#AECDE9"/>
<path d="M49.0561 38.286C48.7472 37.7591 49.1755 37.7591 49.4845 37.6748L49.0561 38.286Z" fill="#1A1C1F"/>
<path d="M152.198 59.0449C152.837 59.4453 152.198 59.8317 152.198 60.2251C152.191 59.8317 152.198 59.4383 152.198 59.0449Z" fill="#1A1C1F"/>
<path d="M160.445 83.4688L160.487 83.8832L159.785 83.9464C159.792 83.4758 160.164 83.5249 160.445 83.4688Z" fill="#1A1C1F"/>
<path d="M50.3262 36.2482C50.3262 35.7284 50.8037 35.6722 51.1196 35.4614L50.3262 36.2482Z" fill="#1A1C1F"/>
<path d="M158.414 88.4434C158.224 88.7174 157.993 88.9703 157.712 88.6331C157.431 88.2959 157.712 88.1062 158.007 87.9868L158.414 88.4434Z" fill="#1A1C1F"/>
<path d="M152.199 72.7058C151.812 72.5302 152.016 72.1719 151.96 71.8979C152.037 72.1649 152.114 72.4389 152.199 72.7058Z" fill="#1A1C1F"/>
<path d="M159.663 104.606L159.214 104.908L159.115 104.761L159.649 104.592L159.663 104.606Z" fill="#1A1C1F"/>
<path d="M104.746 53.0381C104.873 53.4947 104.536 53.5649 104.227 53.6562L104.746 53.0381Z" fill="#F7F7F7"/>
<path d="M152.164 139.729C152.299 139.584 152.471 139.478 152.662 139.424C152.852 139.369 153.054 139.368 153.245 139.42C152.993 139.904 152.578 139.82 152.164 139.729Z" fill="#AECDE9"/>
<path d="M152.03 62.7881C152.03 63.048 152.093 63.3149 152.121 63.5748C151.756 63.35 151.721 63.0831 152.03 62.7881Z" fill="#1A1C1F"/>
<path d="M156.77 40.9697L157.121 41.0534L156.91 41.1511C156.872 41.1362 156.839 41.1115 156.815 41.0796C156.79 41.0477 156.774 41.0097 156.77 40.9697Z" fill="#1A1C1F"/>
<path d="M158.175 97.792L158.119 96.7383C158.265 96.8713 158.353 97.0564 158.363 97.2536C158.374 97.4508 158.306 97.6442 158.175 97.792Z" fill="#1A1C1F"/>
<path d="M49.7871 37.0426C49.8292 36.7054 49.8714 36.3401 50.2927 36.2769C50.2716 36.6351 50.1733 36.9372 49.7871 37.0426Z" fill="#1A1C1F"/>
<path d="M148.451 65.3028C147.959 64.9867 148.135 64.6706 148.451 64.3545V65.3028Z" fill="#1A1C1F"/>
<path d="M153.682 108.266C153.814 108.144 153.973 108.056 154.147 108.008C154.32 107.96 154.503 107.955 154.679 107.993C154.557 108.13 154.398 108.229 154.221 108.278C154.044 108.326 153.857 108.322 153.682 108.266Z" fill="#1A1C1F"/>
<path d="M149.264 67.4108C148.962 67.1579 149.081 66.8348 149.109 66.5327C149.159 66.8207 149.208 67.0877 149.264 67.4108Z" fill="#1A1C1F"/>
<path d="M153.078 74.2661L152.783 73.957L153.078 74.2661Z" fill="#1A1C1F"/>
<path d="M155.529 72.2788L155.916 72.7003L155.529 72.2788Z" fill="#1A1C1F"/>
<path d="M155.502 39.3193L155.643 39.4455L155.509 39.4876L155.502 39.3193Z" fill="#1A1C1F"/>
<path d="M158.098 100.448C158.069 100.395 158.053 100.336 158.051 100.276C158.049 100.216 158.06 100.156 158.085 100.101C158.109 100.046 158.146 99.9977 158.192 99.9592C158.238 99.9206 158.292 99.8932 158.351 99.8789L158.098 100.448Z" fill="#1A1C1F"/>
<path d="M158.872 98.5491L158.43 98.3887C158.551 98.3549 158.676 98.3385 158.802 98.3399L158.879 98.4166L158.872 98.5491Z" fill="#1A1C1F"/>
<path d="M154.287 38.7007L154.68 38.8412C154.484 39.0379 154.35 38.9325 154.287 38.7007Z" fill="#1A1C1F"/>
<path d="M161.65 102.533C161.665 102.585 161.669 102.639 161.662 102.693C161.655 102.747 161.637 102.799 161.61 102.845C161.582 102.892 161.545 102.932 161.502 102.964C161.458 102.996 161.408 103.019 161.355 103.031L161.65 102.533Z" fill="#1A1C1F"/>
<path d="M149.713 68.9632C149.53 68.9 149.341 68.8297 149.439 68.5698L149.713 68.9632Z" fill="#1A1C1F"/>
<path d="M153.437 74.8138L153.1 74.3643L153.437 74.8138Z" fill="#1A1C1F"/>
<path d="M48.6328 38.8404L49.026 38.6929C48.9628 38.9247 48.8575 39.0371 48.6328 38.8404Z" fill="#1A1C1F"/>
<path d="M159.65 104.592L159.756 104.417C159.756 104.48 159.7 104.543 159.665 104.606L159.65 104.592Z" fill="#1A1C1F"/>
<path d="M141 38.2861L141.414 38.0332L141 38.2861Z" fill="#1A1C1F"/>
<path d="M151.714 106.671C151.798 106.959 151.615 107.065 151.391 107.142L151.714 106.671Z" fill="#1A1C1F"/>
<path d="M158.801 98.3389L159.018 98.1914L158.878 98.4162L158.801 98.3389Z" fill="#1A1C1F"/>
<path d="M151.625 108.68L152.194 108.42L151.625 108.68Z" fill="#1A1C1F"/>
<path d="M149.33 111.238C149.238 111.406 149.175 111.631 148.908 111.47L149.33 111.238Z" fill="#1A1C1F"/>
<path d="M156.387 47.0232L156.513 46.6157C156.535 46.7221 156.547 46.8303 156.548 46.9389C156.548 46.974 156.443 46.9951 156.387 47.0232Z" fill="#1A1C1F"/>
<path d="M159.234 44.0249C159.459 44.1162 159.649 44.2356 159.592 44.5237L159.234 44.0249Z" fill="#1A1C1F"/>
<path d="M48.4509 44.1367C48.5492 44.3545 48.4509 44.4177 48.2402 44.3755C48.2511 44.3206 48.2763 44.2696 48.3133 44.2277C48.3503 44.1857 48.3978 44.1543 48.4509 44.1367Z" fill="#1A1C1F"/>
<path d="M155.091 44.3756C154.88 44.4177 154.782 44.3756 154.88 44.1367C154.932 44.1555 154.979 44.1873 155.016 44.229C155.053 44.2708 155.079 44.3212 155.091 44.3756Z" fill="#1A1C1F"/>
<path d="M155.887 53.1861L155.697 53.2352H155.508L155.866 52.7856L155.908 52.8278C155.889 52.9462 155.881 53.0662 155.887 53.1861Z" fill="#1A1C1F"/>
<path d="M158.694 44.0749V44.1241L158.455 43.8853L158.694 44.0749Z" fill="#1A1C1F"/>
<path d="M156.757 82.6325L156.525 82.2461L156.757 82.6325Z" fill="#1A1C1F"/>
<path d="M150.654 54.0568C150.584 53.7898 150.654 53.6915 150.949 53.7477L150.654 54.0568Z" fill="#1A1C1F"/>
<path d="M52.8027 33.3677C52.9151 32.9392 53.0485 33.0446 53.1819 33.3677C53.0558 33.3784 52.9289 33.3784 52.8027 33.3677Z" fill="#1A1C1F"/>
<path d="M157.994 42.1839C158.352 42.0013 158.226 42.3033 158.254 42.4509C158.192 42.4313 158.136 42.3967 158.09 42.3501C158.045 42.3035 158.012 42.2464 157.994 42.1839Z" fill="#1A1C1F"/>
<path d="M155.887 53.1854C155.873 53.0594 155.873 52.9322 155.887 52.8061L156.386 52.6445C156.274 52.8553 156.59 53.5226 155.887 53.1854Z" fill="white"/>
<path d="M189.901 100.672C187.795 102.386 185.99 103.819 184.712 105.8C184.608 105.983 184.451 106.13 184.262 106.223C184.073 106.315 183.86 106.349 183.652 106.32C183.09 106.208 183.322 105.667 183.301 105.301C183.202 103.672 183.455 102.028 182.957 100.384C182.683 99.4989 183.195 99.0704 184.087 99.2741C185.927 99.7026 187.753 100.159 189.901 100.672Z" fill="#F7F7F7"/>
<path d="M183.349 113.05C185.456 114.665 186.257 116.941 187.598 118.796C188.124 119.498 187.787 120.658 186.938 120.405C185.832 120.142 184.707 119.966 183.574 119.878C182.823 119.772 182.767 119.112 182.921 118.599C183.455 116.857 183.146 115.066 183.349 113.05Z" fill="#F7F7F7"/>
<path d="M96.9043 67.2212C97.4239 66.5187 98.3087 66.2799 98.8775 65.5774C99.671 64.5799 100.134 65.8794 100.605 66.2377C102.346 67.5794 100.064 68.0712 99.7903 68.9492C99.5165 69.8273 98.8985 68.8087 98.6457 68.3521C98.3087 67.6918 97.3888 67.8674 96.9043 67.2212Z" fill="#F7F7F7"/>
<path d="M15.0671 116.196L14.8906 116.035C14.9259 116.035 14.9754 116.035 14.9965 116.035C15.0232 116.079 15.0445 116.126 15.0601 116.175L15.0671 116.196Z" fill="#F7F7F7"/>
</svg>
