<svg width="32" height="35" viewBox="0 0 32 35" fill="none" xmlns="http://www.w3.org/2000/svg">
<path d="M20.315 0.609978C20.2387 0.69223 20.172 0.706745 20.2149 0.634171C20.2292 0.605141 20.2102 0.6003 20.172 0.614815C20.0767 0.653522 20.0767 0.701908 20.1673 0.77932C20.2102 0.818027 20.2626 0.822865 20.3007 0.798672C20.3341 0.774483 20.3245 0.793835 20.2721 0.837379C20.172 0.92931 20.0481 0.905117 20.0481 0.784157C20.0434 0.716423 20.0338 0.72126 19.9767 0.798672C19.9242 0.866409 19.9195 0.909954 19.9576 0.95834C20.0005 1.00672 19.9909 1.02124 19.9052 1.02124C19.8432 1.02124 19.767 0.982533 19.7289 0.934147C19.6955 0.890602 19.6669 0.87125 19.6717 0.90028C19.686 1.02608 19.6621 1.12284 19.6193 1.09381C19.5954 1.0793 19.5716 1.08897 19.5716 1.11317C19.5716 1.1422 19.5907 1.16639 19.6193 1.16639C19.6431 1.16639 19.6526 1.20026 19.6383 1.23896C19.6193 1.27767 19.5907 1.29702 19.5668 1.28735C19.543 1.27283 19.5144 1.31154 19.4954 1.37928C19.4763 1.45669 19.4429 1.49056 19.4 1.47121C19.3286 1.44217 19.3047 1.52927 19.3762 1.57281C19.3953 1.58733 19.4048 1.65506 19.3905 1.7228C19.3715 1.82441 19.3572 1.83408 19.2952 1.7857C19.2333 1.73248 19.2285 1.74215 19.2571 1.84376C19.2809 1.92601 19.2761 1.94536 19.2476 1.89698C19.1713 1.79053 19.1094 1.87279 19.1189 2.07116C19.1237 2.17277 19.1094 2.27921 19.0855 2.31308C19.0426 2.3663 19.1951 2.4921 19.3095 2.49694C19.3715 2.49694 19.3715 2.63241 19.3095 2.67595C19.2333 2.73402 19.1761 2.7195 19.2047 2.65176C19.219 2.61306 19.2094 2.555 19.1856 2.51629C19.1522 2.46307 19.1427 2.46791 19.1427 2.53564C19.1427 2.58403 19.1237 2.60822 19.0951 2.5937C19.0236 2.55016 19.0379 2.60338 19.1284 2.74853C19.2094 2.87433 19.2094 2.87917 19.1284 2.8453C19.0665 2.82111 19.0474 2.84046 19.0474 2.92271C19.0474 3.0098 19.0569 3.01464 19.0951 2.95658C19.138 2.88884 19.1665 2.92755 19.1427 3.02916C19.0808 3.32913 19.0569 3.7791 19.1046 3.7791C19.1904 3.7791 19.1332 3.87103 19.0379 3.89038L18.9283 3.90974L19.0379 3.91941C19.138 3.92425 19.1951 4.02102 19.0951 4.02102C19.0665 4.02102 19.0522 4.04521 19.0569 4.07424C19.076 4.14198 18.8997 4.18552 18.609 4.18552C18.4851 4.18552 18.3946 4.20004 18.4089 4.22423C18.4232 4.24358 18.3993 4.24842 18.3612 4.23391C18.3183 4.21939 18.2993 4.18069 18.3183 4.14682C18.3326 4.11779 18.304 4.1323 18.2516 4.18069C18.1944 4.23391 18.1372 4.24842 18.1229 4.22423C18.1086 4.1952 18.1229 4.16617 18.1515 4.15165C18.1944 4.13714 18.1849 4.11779 18.1229 4.09359C18.0705 4.0694 17.999 4.07908 17.9466 4.10811C17.8942 4.14198 17.8513 4.14682 17.8322 4.11779C17.7846 4.03553 17.7131 4.06456 17.7131 4.16617C17.7131 4.26777 17.6416 4.2968 17.594 4.21455C17.5797 4.18552 17.5225 4.16617 17.4701 4.16617C17.4224 4.16617 17.3795 4.14198 17.3795 4.11295C17.3795 4.07424 17.3605 4.07424 17.3224 4.10327C17.2556 4.15649 16.7886 4.14682 16.6409 4.08875C16.5551 4.05489 16.5551 4.05972 16.6123 4.1323C16.6695 4.20488 16.6647 4.21455 16.6028 4.21455C16.5599 4.21455 16.5123 4.19036 16.4932 4.16133C16.4741 4.12262 16.4408 4.14198 16.4026 4.21455L16.3407 4.32583L16.3073 4.21939C16.2835 4.14198 16.2502 4.12262 16.1787 4.14682C16.0071 4.20004 15.9261 4.20488 15.8689 4.15165C15.826 4.12262 15.807 4.12746 15.807 4.17101C15.807 4.22423 15.7975 4.22423 15.7593 4.16617C15.7307 4.11779 15.7117 4.11295 15.7117 4.15165C15.7117 4.1952 15.6783 4.20004 15.5878 4.16617C15.4305 4.10327 15.3638 4.10327 15.4067 4.17101C15.4305 4.20971 15.4162 4.21455 15.3495 4.17585C15.2828 4.13714 15.2399 4.14198 15.178 4.20004C15.0922 4.27745 14.8158 4.31616 14.7777 4.2581C14.7491 4.20488 14.6061 4.2581 14.5346 4.35003C14.4965 4.39841 14.4727 4.40325 14.4727 4.36938C14.4727 4.28713 14.2487 4.2968 14.2201 4.37906C14.2011 4.43228 14.2154 4.44196 14.2725 4.4226C14.3393 4.39357 14.344 4.39841 14.2821 4.46615C14.1963 4.56291 14.1391 4.53388 14.1391 4.39357C14.1391 4.31616 14.1248 4.30648 14.0819 4.35003C14.039 4.39357 14.0057 4.38873 13.9437 4.33067C13.8341 4.22907 13.7007 4.27261 13.7436 4.39357C13.7674 4.46615 13.7579 4.46615 13.6959 4.3839C13.6388 4.30648 13.6102 4.30164 13.5625 4.34519C13.5196 4.38873 13.4767 4.38873 13.4148 4.35486C13.3576 4.321 13.3004 4.321 13.2671 4.35003C13.2337 4.37422 13.167 4.37906 13.1146 4.3597C13.0621 4.34035 12.9573 4.34519 12.8763 4.36454C12.6905 4.4226 12.6476 4.41776 12.6857 4.3597C12.7 4.33067 12.6952 4.31132 12.6714 4.31132C12.6428 4.31132 12.6142 4.34519 12.5951 4.3839C12.5808 4.4226 12.5284 4.45647 12.476 4.45647C12.4236 4.45647 12.3664 4.48066 12.3521 4.50485C12.3283 4.54356 12.2997 4.54356 12.2568 4.50485C12.2234 4.47582 12.1615 4.47099 12.1138 4.4855C12.0662 4.50485 12.0138 4.49034 11.9899 4.45163C11.9661 4.41293 11.9471 4.40809 11.9471 4.44196C11.9471 4.48066 11.9185 4.48066 11.8327 4.44196C11.7469 4.39841 11.7088 4.33551 11.6897 4.19036C11.6468 3.90974 11.6564 3.77426 11.7088 3.70653C11.7326 3.6775 11.7421 3.63395 11.7279 3.61943C11.6659 3.55654 11.6707 3.17431 11.7326 3.12592C11.8089 3.06786 11.8422 2.85981 11.785 2.77272C11.766 2.73885 11.7612 2.68079 11.7707 2.64692C11.785 2.60822 11.7564 2.56951 11.6993 2.555C11.6468 2.54048 11.6182 2.50661 11.6373 2.47758C11.6802 2.40501 11.7374 2.40985 11.8327 2.50661C11.9089 2.58403 11.9089 2.58403 11.8756 2.47274C11.8518 2.40501 11.8375 2.31308 11.8422 2.25986C11.8422 2.21147 11.8089 2.16309 11.7564 2.14857C11.704 2.13406 11.6802 2.09535 11.6945 2.05664C11.7088 2.01794 11.6945 1.95504 11.6659 1.92117C11.623 1.87279 11.623 1.84376 11.6611 1.81956C11.6897 1.80021 11.704 1.75667 11.6897 1.71796C11.6754 1.67925 11.6897 1.66474 11.7374 1.68409C11.7755 1.69861 11.8041 1.67925 11.8041 1.63571C11.8041 1.597 11.766 1.56797 11.7231 1.57281C11.6754 1.57281 11.6421 1.54862 11.6516 1.51475C11.6611 1.44701 11.5849 1.43734 11.542 1.50507C11.5277 1.52927 11.5325 1.55346 11.5563 1.55346C11.5801 1.55346 11.5992 1.58733 11.5992 1.62119C11.5992 1.67925 11.5754 1.68409 11.4991 1.64055C11.4419 1.61152 11.3943 1.58733 11.3895 1.59216C11.38 1.597 11.3752 1.59216 11.3752 1.57765C11.3752 1.56313 11.3752 1.52927 11.3752 1.4954C11.3752 1.46637 11.4086 1.48088 11.4467 1.5341C11.4848 1.58249 11.5182 1.60184 11.5134 1.57765C11.4991 1.45185 11.5229 1.35508 11.5658 1.38411C11.6754 1.45185 11.604 1.3696 11.4658 1.26799C11.38 1.2051 11.3276 1.17606 11.3466 1.2051C11.38 1.25832 11.2466 1.32605 11.1846 1.28735C11.1608 1.27283 11.1512 1.22929 11.1655 1.19542C11.1798 1.15671 11.1655 1.11317 11.1322 1.08897C11.0988 1.06962 11.0845 1.07446 11.1084 1.10833C11.1227 1.13736 11.1179 1.17123 11.0893 1.19058C11.0655 1.2051 11.0416 1.19058 11.0416 1.15671C11.0416 1.11317 11.0273 1.11317 10.994 1.16639C10.9559 1.22445 10.9463 1.20993 10.9559 1.118C10.9702 1.00188 10.9559 0.997047 10.7462 0.997047C10.6175 1.00188 10.5175 0.982533 10.5175 0.963177C10.5175 0.943825 10.4841 0.924469 10.446 0.924469C10.4031 0.924469 10.3888 0.953503 10.4031 1.00672C10.4221 1.05994 10.4174 1.07446 10.3888 1.04059C10.3221 0.948662 10.1029 0.914795 10.0695 0.997047C10.0552 1.03575 10.0123 1.05511 9.96944 1.04059C9.93132 1.02124 9.89796 1.03575 9.89796 1.06962C9.89796 1.15671 9.69782 1.30186 9.60251 1.28735C9.55009 1.27767 9.53103 1.29219 9.54533 1.33573C9.55962 1.3696 9.61204 1.38895 9.67399 1.37444C9.73118 1.35992 9.68829 1.39863 9.57868 1.45669C9.46432 1.51475 9.38331 1.58249 9.3976 1.60184C9.4119 1.62119 9.39284 1.65022 9.35471 1.66474C9.32136 1.67925 9.27847 1.79538 9.25941 1.92117C9.24511 2.04697 9.20699 2.1776 9.1784 2.21147C9.14981 2.25018 9.13551 2.27921 9.15457 2.27921C9.16887 2.27921 9.15457 2.35662 9.11645 2.44855C9.06403 2.56467 9.05926 2.62757 9.09739 2.64692C9.13074 2.67112 9.13551 2.6566 9.11168 2.6179C9.08786 2.57919 9.09262 2.56467 9.12121 2.58403C9.15934 2.60822 9.16887 2.77272 9.13551 2.85981C9.13074 2.87433 9.12598 2.90336 9.13074 2.92271C9.13551 2.94206 9.10692 2.9711 9.06879 2.98561C9.01638 3.00496 9.01161 3.04851 9.04497 3.16463C9.06879 3.24688 9.07832 3.35332 9.06403 3.39687C9.04973 3.44042 9.05926 3.52751 9.08309 3.5904C9.11168 3.67266 9.10692 3.72588 9.05926 3.76942C8.97825 3.84684 9.02591 3.97264 9.12598 3.93877C9.18793 3.91941 9.19269 3.92425 9.14504 3.96296C9.10692 3.98715 9.08309 4.03553 9.08786 4.07424C9.10692 4.20488 9.08786 4.26777 9.0402 4.23874C9.01638 4.22423 8.99255 4.23391 8.99255 4.2581C8.99255 4.28713 9.02591 4.31132 9.06403 4.31132C9.10692 4.31132 9.12121 4.34035 9.10692 4.3839C9.08786 4.4226 9.04973 4.45647 9.01161 4.45647C8.97349 4.45647 8.9449 4.47582 8.9449 4.50485C8.9449 4.52905 8.86388 4.53872 8.76858 4.52421C8.41594 4.47582 7.41999 4.48066 7.41999 4.52905C7.41999 4.55324 7.40093 4.5484 7.3771 4.50969C7.34851 4.47099 7.30085 4.45647 7.22937 4.48066C7.15789 4.50485 7.13407 4.50002 7.15313 4.46131C7.17219 4.42744 7.14836 4.40809 7.09118 4.40809C7.02923 4.40809 6.99111 4.44196 6.99111 4.49034C6.99111 4.5484 6.97681 4.55808 6.95298 4.51937C6.92916 4.48066 6.85291 4.47582 6.70519 4.50485C6.56699 4.52905 6.46692 4.52421 6.4288 4.49518C6.38591 4.45647 6.33826 4.45647 6.26201 4.49518C6.20483 4.52421 6.12382 4.54356 6.08569 4.54356C6.04757 4.54356 5.93797 4.55808 5.84743 4.57743C5.75688 4.59678 5.64252 4.61614 5.59963 4.62098C5.55198 4.62098 5.51385 4.64033 5.51385 4.66452C5.51385 4.68871 5.48049 4.69839 5.44237 4.67904C5.40425 4.66452 5.3423 4.68387 5.30418 4.72258C5.25176 4.7758 5.2327 4.78064 5.21364 4.73226C5.19934 4.68871 5.18028 4.68871 5.11833 4.73709C5.07544 4.7758 4.9992 4.79032 4.94201 4.77096C4.88483 4.75161 4.84671 4.76129 4.84671 4.79999C4.84671 4.8387 4.82764 4.8387 4.78476 4.80483C4.71804 4.74677 4.49884 4.78064 4.53696 4.8387C4.54649 4.85805 4.46071 4.86289 4.34634 4.84354C4.23198 4.82419 4.10808 4.82902 4.07949 4.84838C4.04613 4.86773 3.96988 4.87257 3.90793 4.86289C3.85075 4.85322 3.79833 4.86289 3.79833 4.88225C3.79833 4.90644 3.74591 4.92095 3.6792 4.91611C3.61248 4.90644 3.56006 4.91611 3.56006 4.93547C3.56006 4.97901 3.38375 4.96934 3.34086 4.92579C3.28367 4.86773 3.22649 4.88708 3.22649 4.9645C3.22649 5.01772 3.19313 5.03223 3.11689 5.01288C3.04541 4.99353 2.9644 5.01772 2.87862 5.0903C2.77855 5.16771 2.70707 5.18706 2.59747 5.16287C2.4688 5.13868 2.45451 5.14352 2.47833 5.23061C2.49263 5.28383 2.4831 5.31286 2.45927 5.29834C2.39732 5.26448 2.07804 5.57897 2.10187 5.64671C2.11617 5.68057 2.05898 5.71444 1.98274 5.7338C1.88743 5.75315 1.84931 5.78218 1.86837 5.82089C1.88743 5.85476 1.86837 5.84508 1.83025 5.7967C1.74447 5.69509 1.69682 5.69025 1.73494 5.79186C1.74924 5.8354 1.72064 5.90314 1.65869 5.9612C1.55862 6.05797 1.51097 6.0241 1.61104 5.92249C1.64916 5.88379 1.6444 5.85959 1.60151 5.8354C1.56339 5.81121 1.55386 5.81605 1.57768 5.84992C1.59675 5.88379 1.58721 5.90798 1.55862 5.90798C1.5205 5.90798 1.51097 5.95152 1.53003 6.02894C1.55386 6.11603 1.5348 6.16441 1.46808 6.20795C1.3966 6.2515 1.38707 6.28053 1.42519 6.33375C1.46332 6.3773 1.46332 6.41117 1.41566 6.45471C1.36801 6.5031 1.35848 6.49342 1.38707 6.416C1.4109 6.33859 1.39184 6.34827 1.29653 6.45471C1.22505 6.52729 1.1488 6.57083 1.11545 6.55632C1.08209 6.53696 1.07256 6.5418 1.09639 6.56116C1.11545 6.58535 1.09639 6.63857 1.05826 6.68211C1.02014 6.72566 0.982017 6.85146 0.977252 6.96274C0.972486 7.07402 0.953425 7.16595 0.939129 7.16595C0.920067 7.16595 0.891475 7.2095 0.877179 7.26756C0.862883 7.32561 0.829526 7.35464 0.805699 7.34013C0.734219 7.29659 0.696097 7.44174 0.748515 7.57237C0.781873 7.65946 0.772342 7.70785 0.719923 7.75139C0.681801 7.78526 0.653209 7.85783 0.662739 7.91106C0.67227 7.96912 0.653209 8.03201 0.619851 8.06104C0.538841 8.12878 0.486422 9.10129 0.567433 9.10129C0.610321 9.10129 0.610321 9.11581 0.567433 9.15935C0.519779 9.20774 0.495952 9.20774 0.462595 9.14968C0.424472 9.09162 0.414942 9.10613 0.414942 9.2029C0.414942 9.27063 0.38635 9.35289 0.352992 9.38675C0.319635 9.4303 0.319635 9.43998 0.348227 9.42546C0.429238 9.37708 0.45783 9.48352 0.438768 9.75931C0.429238 9.88994 0.438768 10.0157 0.453064 10.0448C0.486422 10.098 0.476891 10.5818 0.438768 10.7076C0.424472 10.7512 0.434003 10.7996 0.462595 10.8189C0.486422 10.8334 0.510248 10.8866 0.505483 10.9302C0.505483 10.9979 0.495952 10.9931 0.462595 10.9157C0.419707 10.8189 0.410176 10.8721 0.391115 11.2786C0.38635 11.3463 0.367288 11.4285 0.348227 11.4624C0.329166 11.4914 0.3244 11.6076 0.338696 11.714C0.352992 11.8301 0.343462 11.8979 0.31487 11.8833C0.291043 11.864 0.271982 11.8833 0.267216 11.9172C0.267216 11.9511 0.257686 12.0237 0.248155 12.0769C0.238624 12.1301 0.248155 12.1833 0.276747 12.1978C0.305339 12.2172 0.305339 12.3188 0.276747 12.4688C0.25292 12.6043 0.248155 12.7107 0.271982 12.7204C0.295808 12.7301 0.295808 12.7833 0.276747 12.8413C0.25292 12.8994 0.238624 13.0058 0.24339 13.0784C0.248155 13.1558 0.238624 13.2139 0.219563 13.2139C0.200502 13.2139 0.17191 13.2478 0.157614 13.2913C0.133787 13.3542 0.148083 13.3639 0.224328 13.3445C0.300574 13.3252 0.31487 13.3349 0.276747 13.3784C0.205267 13.4655 0.224328 13.8429 0.300574 13.8429C0.348227 13.8429 0.348227 13.8767 0.291043 14.0171C0.25292 14.1138 0.24339 14.1767 0.267216 14.1574C0.295808 14.1429 0.319635 14.1477 0.319635 14.1767C0.319635 14.2009 0.291043 14.2348 0.262451 14.2445C0.214798 14.2638 0.219563 14.2832 0.271982 14.3219C0.3244 14.3557 0.329166 14.3848 0.291043 14.4235C0.229094 14.4864 0.262451 14.7283 0.3244 14.6848C0.348227 14.6702 0.352992 14.6944 0.338696 14.738C0.319635 14.7864 0.276747 14.8057 0.229094 14.7912C0.162379 14.767 0.162379 14.767 0.229094 14.8202C0.31487 14.8928 0.319635 15.4008 0.238624 15.5605C0.195736 15.6427 0.190971 15.996 0.229094 16.1411C0.233859 16.1653 0.224328 16.2282 0.200502 16.2766C0.18144 16.3201 0.186206 16.3879 0.214798 16.4217C0.271982 16.4943 0.238624 16.7024 0.157614 16.7556C0.124256 16.7798 0.129022 16.7943 0.17191 16.7943C0.224328 16.7943 0.224328 16.8088 0.176675 16.8669C0.133787 16.9152 0.133787 16.9394 0.17191 16.9394C0.233859 16.9394 0.24339 17.162 0.18144 17.2055C0.152848 17.2201 0.152848 17.2926 0.176675 17.3749C0.205267 17.4716 0.200502 17.5104 0.167144 17.491C0.138552 17.4716 0.129022 17.4958 0.138552 17.5491C0.148083 17.6023 0.186206 17.6362 0.214798 17.6313C0.305339 17.612 0.281512 17.7039 0.190971 17.7281C0.119491 17.7474 0.119491 17.7571 0.210032 17.7861C0.271982 17.8055 0.305339 17.8394 0.291043 17.8636C0.276747 17.8877 0.248155 17.8974 0.229094 17.8877C0.186206 17.8587 0.176675 17.941 0.157614 18.5458C0.148083 18.8361 0.129022 19.0973 0.114726 19.1264C0.105195 19.1602 0.119491 19.2183 0.152848 19.2473C0.200502 19.2909 0.219563 19.2909 0.24339 19.2376C0.257686 19.1989 0.295808 19.1651 0.329166 19.1651C0.362523 19.1651 0.329166 19.2231 0.257686 19.286C0.143318 19.3925 0.129022 19.4263 0.157614 19.5812C0.18144 19.7263 0.176675 19.7505 0.124256 19.7263C0.0861335 19.707 0.0956642 19.7215 0.143318 19.7602C0.229094 19.8328 0.25292 19.9392 0.176675 19.9392C0.129022 19.9392 0.138552 20.1811 0.190971 20.2634C0.210032 20.2924 0.190971 20.4037 0.152848 20.515C0.114726 20.6263 0.0956642 20.7472 0.114726 20.7859C0.129022 20.8295 0.114726 20.8924 0.0861335 20.9262C0.0384801 20.9795 0.0480108 21.0036 0.133787 21.0278C0.205267 21.052 0.219563 21.0714 0.176675 21.1004C0.138552 21.1246 0.124256 21.1972 0.138552 21.2988C0.152848 21.3907 0.148083 21.5117 0.124256 21.5746C0.0956642 21.652 0.100429 21.6907 0.148083 21.71C0.200502 21.7294 0.200502 21.7971 0.148083 22.0826C0.119491 22.2761 0.100429 22.4455 0.10996 22.4648C0.119491 22.4793 0.100429 22.5084 0.0718375 22.5181C0.0337148 22.5326 0.0432454 22.5471 0.0908988 22.5471C0.143318 22.5519 0.162379 22.5761 0.148083 22.6245C0.133787 22.6632 0.152848 22.7309 0.195736 22.7745C0.281512 22.8567 0.257686 22.939 0.148083 22.939C0.0956642 22.939 0.0766028 22.9825 0.0861335 23.0987C0.0956642 23.1857 0.0861335 23.2777 0.0670721 23.3067C0.0527761 23.3357 0.0527761 23.3744 0.0718375 23.3938C0.119491 23.447 0.114725 23.8583 0.0623068 23.8583C0.0384801 23.8583 0.0337148 23.8728 0.0480108 23.8921C0.0670721 23.9067 0.0575414 23.9502 0.0289494 23.9889C-0.0139386 24.0373 -0.00917327 24.0518 0.0432454 24.0518C0.0908988 24.0518 0.10996 24.1147 0.10996 24.3034C0.105195 24.4389 0.129022 24.5792 0.162379 24.6082C0.200502 24.6518 0.205267 24.6808 0.167144 24.7195C0.105195 24.7824 0.0861335 25.213 0.148083 25.213C0.17191 25.213 0.167144 25.242 0.138552 25.2759C0.0813681 25.3437 0.0908988 26.321 0.148083 26.4129C0.162379 26.442 0.157614 26.471 0.129022 26.4807C0.105195 26.4855 0.0766028 26.5968 0.0670721 26.7226C0.0575414 26.8484 0.0718375 26.9355 0.0908988 26.9258C0.114726 26.9113 0.129022 26.9742 0.119491 27.0613C0.114726 27.1532 0.129022 27.2548 0.148083 27.2887C0.17191 27.3274 0.162379 27.3661 0.124256 27.3903C0.0766028 27.4241 0.0766028 27.4483 0.133787 27.5161C0.17191 27.5645 0.176675 27.5887 0.148083 27.5741C0.0956642 27.5403 0.100429 27.908 0.152848 28.2031C0.176675 28.3338 0.167144 28.3579 0.119491 28.3289C0.0718375 28.2999 0.0718375 28.3096 0.124256 28.3725C0.162379 28.4208 0.176675 28.5031 0.157614 28.5757C0.138552 28.6434 0.148083 28.6966 0.176675 28.6966C0.200502 28.6966 0.224328 28.7208 0.224328 28.7499C0.224328 28.774 0.200502 28.7837 0.17191 28.7644C0.133787 28.7402 0.133787 28.7595 0.17191 28.8321C0.200502 28.8902 0.205267 28.9434 0.18144 28.9579C0.157614 28.9724 0.143318 29.0402 0.143318 29.1079C0.143318 29.1708 0.157614 29.2143 0.18144 29.2047C0.200502 29.1901 0.229094 29.1998 0.248155 29.2289C0.262451 29.253 0.257686 29.2772 0.229094 29.2772C0.205267 29.2772 0.190971 29.3256 0.200502 29.3885C0.257686 29.6788 0.281512 29.7611 0.319635 29.7611C0.343462 29.7611 0.352992 29.7949 0.338696 29.8336C0.319635 29.8724 0.286278 29.8917 0.257686 29.8724C0.224328 29.853 0.219563 29.882 0.24339 29.9594C0.262451 30.0223 0.276747 30.1046 0.271982 30.1336C0.271982 30.1675 0.271982 30.2449 0.271982 30.303C0.271982 30.3659 0.267216 30.5207 0.267216 30.6465C0.267216 30.8158 0.281512 30.8739 0.3244 30.8449C0.367288 30.8207 0.372054 30.8594 0.348227 30.99C0.3244 31.111 0.333931 31.1981 0.376819 31.2513C0.424472 31.3093 0.424472 31.319 0.381584 31.29C0.31487 31.2513 0.295808 31.319 0.352992 31.3771C0.372054 31.3964 0.391115 31.4593 0.391115 31.5174C0.39588 31.5755 0.448299 31.7303 0.505483 31.8609C0.586494 32.0351 0.60079 32.1028 0.557902 32.1319C0.515014 32.1561 0.52931 32.1899 0.60079 32.2383C0.667505 32.2867 0.691331 32.3399 0.67227 32.3931C0.653209 32.4464 0.681801 32.5189 0.74375 32.5867C0.800934 32.6447 0.829526 32.7125 0.810465 32.727C0.781873 32.7609 0.839057 32.7754 1.01061 32.7705C1.09162 32.7657 1.09162 32.7705 1.02014 32.7899C0.88671 32.8334 0.94866 32.9931 1.12974 33.0657C1.19169 33.0899 1.19169 33.0947 1.12974 33.0947C1.05826 33.0995 1.22505 33.2737 1.44902 33.4237C1.51097 33.4624 1.54909 33.5156 1.5348 33.535C1.5205 33.5592 1.55386 33.5882 1.60628 33.6076C1.65869 33.6269 1.75877 33.6947 1.82548 33.7624C1.8922 33.8301 1.97321 33.8688 2.01133 33.8543C2.04945 33.8398 2.08281 33.8495 2.08281 33.8785C2.08281 33.9075 2.10664 33.9124 2.13523 33.8979C2.15906 33.8785 2.22577 33.9027 2.27819 33.9511C2.32584 33.9946 2.36873 34.0091 2.36873 33.9801C2.36873 33.9559 2.40685 33.9366 2.44974 33.9463C2.49739 33.9559 2.55934 33.9656 2.58317 33.9656C2.61176 33.9704 2.59747 33.9946 2.55934 34.0188C2.50692 34.0527 2.52599 34.0672 2.64512 34.0672C2.72613 34.0672 2.79761 34.0866 2.79761 34.1059C2.79761 34.2366 3.7888 34.3575 3.93176 34.2462C3.97941 34.2075 4.00801 34.2124 4.0366 34.2656C4.08425 34.343 4.32252 34.3769 4.32252 34.3043C4.32252 34.2753 4.35588 34.2753 4.41306 34.3091C4.47977 34.343 4.51313 34.3382 4.53219 34.2946C4.54649 34.2511 4.57508 34.2607 4.62273 34.3236C4.69421 34.4156 4.77523 34.4398 4.72281 34.3527C4.70851 34.3236 4.76093 34.3382 4.84194 34.3769C4.93725 34.4301 4.98967 34.4398 4.98967 34.4011C4.98967 34.3672 5.05161 34.3527 5.15169 34.3672C5.24223 34.3769 5.30894 34.372 5.29941 34.3575C5.28988 34.343 5.31371 34.2946 5.34707 34.2462C5.38519 34.1882 5.41855 34.1785 5.44237 34.2075C5.45667 34.2366 5.44714 34.2607 5.42331 34.2607C5.39472 34.2607 5.37089 34.2946 5.37089 34.3382C5.37089 34.3914 5.39948 34.4059 5.48049 34.3769C5.53768 34.3575 5.61392 34.343 5.64728 34.343C5.67587 34.343 5.70447 34.3188 5.70447 34.2898C5.70447 34.2607 5.72353 34.2607 5.76165 34.2995C5.79977 34.3382 5.79977 34.372 5.75212 34.4301C5.6854 34.5123 5.71876 34.522 5.84266 34.4591C5.89031 34.4301 5.95226 34.4301 5.99039 34.4543C6.02851 34.4785 6.09522 34.4736 6.14288 34.4494C6.19053 34.4204 6.25725 34.4204 6.2906 34.4398C6.39544 34.5075 6.46215 34.4978 6.4288 34.4156C6.40497 34.3478 6.4145 34.343 6.47169 34.3865C6.50981 34.4156 6.63371 34.4446 6.75284 34.4494C7.62966 34.4833 7.82028 34.4833 8.03948 34.4543C8.17291 34.4349 8.29204 34.4398 8.30634 34.4591C8.33493 34.5075 9.19269 34.4833 9.2737 34.4349C9.3976 34.3527 9.65493 34.3188 9.67876 34.3769C9.69305 34.4059 9.69782 34.3865 9.68352 34.3285C9.66446 34.2462 9.68352 34.2317 9.80266 34.2317C9.8789 34.2317 9.94562 34.2511 9.94562 34.2704C9.94562 34.2946 9.96944 34.2995 9.99327 34.2849C10.0219 34.2704 10.0409 34.2124 10.0409 34.1543C10.0409 34.072 10.0552 34.0672 10.1124 34.1156C10.1505 34.1495 10.1744 34.193 10.1601 34.2124C10.1458 34.2366 10.2029 34.222 10.2792 34.1785C10.4269 34.1059 10.4936 34.1204 10.4936 34.2269C10.4936 34.2511 10.527 34.2849 10.5651 34.2946C10.6271 34.314 10.6271 34.3091 10.5699 34.2704C10.5175 34.2317 10.5413 34.2027 10.6842 34.1446C10.7796 34.1011 10.8939 34.0672 10.9273 34.0672C10.9654 34.0672 10.994 34.0479 10.994 34.0237C10.994 33.9995 11.0512 33.985 11.1179 33.9946C11.1894 33.9995 11.2513 33.9801 11.2656 33.9414C11.2799 33.9027 11.3276 33.8737 11.3752 33.8737C11.4276 33.8737 11.4801 33.8495 11.4944 33.8205C11.5134 33.7914 11.5611 33.7817 11.5992 33.7963C11.6754 33.8253 11.8518 33.7479 11.9089 33.6608C11.9328 33.6221 11.9471 33.6269 11.9471 33.6705C11.9471 33.743 12.0471 33.7285 12.1138 33.6414C12.1424 33.6076 12.2282 33.5689 12.3045 33.5543C12.3855 33.5447 12.4855 33.5205 12.538 33.506C12.5856 33.4866 12.6428 33.506 12.6666 33.5398C12.7 33.5931 12.7143 33.5834 12.7381 33.5011C12.7572 33.4382 12.8525 33.356 12.9764 33.2931C13.0955 33.2399 13.1765 33.1721 13.1622 33.1528C13.1289 33.0947 13.2671 32.9544 13.3576 32.9544C13.3957 32.9544 13.4243 32.9205 13.4243 32.8818C13.4243 32.8431 13.4481 32.8092 13.472 32.8092C13.5006 32.8092 13.5196 32.7754 13.5196 32.7318C13.5196 32.6931 13.5387 32.6689 13.5625 32.6834C13.5959 32.7076 13.6673 32.6109 13.6816 32.5189C13.6912 32.4657 13.9008 32.2625 13.9008 32.306C13.9056 32.3302 13.9485 32.2673 14.0009 32.1657C14.0533 32.0641 14.1153 31.9964 14.1391 32.0109C14.1629 32.0254 14.1725 31.9916 14.1629 31.9383C14.1534 31.8851 14.1772 31.8222 14.2201 31.8029C14.2582 31.7787 14.3011 31.6722 14.3107 31.5513C14.3202 31.4351 14.3488 31.319 14.3726 31.29C14.3964 31.261 14.406 31.1981 14.4012 31.1545C14.3917 31.1061 14.425 30.99 14.4775 30.8932C14.5442 30.7578 14.5537 30.6949 14.5156 30.6465C14.4727 30.6029 14.4775 30.5836 14.5156 30.5836C14.5489 30.5836 14.5585 30.5642 14.5442 30.5352C14.506 30.4723 14.6204 30.0949 14.6681 30.1239C14.6871 30.1385 14.7157 30.1288 14.73 30.1046C14.7443 30.0804 14.7252 30.0514 14.6871 30.032C14.6252 30.0078 14.6299 29.9836 14.711 29.8385C14.7586 29.7417 14.7824 29.6546 14.7634 29.6401C14.711 29.6111 14.7491 29.4321 14.8349 29.3063C14.8777 29.2385 14.8825 29.195 14.8491 29.1514C14.8206 29.1176 14.8206 29.0789 14.8444 29.0643C14.9063 29.0256 14.8539 28.7934 14.7872 28.7934C14.7586 28.7934 14.7777 28.7595 14.8253 28.7208C14.9159 28.6483 14.9159 28.6483 14.8158 28.6483C14.7014 28.6483 14.6824 28.5563 14.7586 28.4015C14.7872 28.3483 14.792 28.3096 14.7729 28.3144C14.6776 28.3289 14.6442 28.3047 14.711 28.2612C14.7634 28.2273 14.7634 28.2128 14.7205 28.2128C14.6871 28.2128 14.6681 28.1934 14.6871 28.1693C14.7014 28.1451 14.6824 28.0967 14.649 28.058C14.6156 28.0241 14.5918 27.9225 14.5966 27.8402C14.6014 27.7532 14.5823 27.6806 14.5585 27.6806C14.5346 27.6806 14.5251 27.6999 14.5394 27.7241C14.5585 27.7483 14.5251 27.758 14.4727 27.7435C14.3631 27.7144 14.3917 27.6322 14.5108 27.6322C14.5823 27.6274 14.5775 27.6177 14.4965 27.5548C14.4393 27.5112 14.406 27.429 14.406 27.3371C14.4107 27.2451 14.3917 27.1967 14.3536 27.2113C14.325 27.2258 14.2725 27.1919 14.244 27.1435C14.2058 27.0806 14.1486 27.0564 14.0724 27.0709C13.9819 27.0855 13.9628 27.0758 13.9819 27.008C13.9962 26.9548 13.9723 26.9064 13.9294 26.8919C13.8865 26.8726 13.8532 26.8871 13.8532 26.921C13.8532 26.9597 13.8341 26.95 13.8055 26.9064C13.7817 26.8677 13.7579 26.8532 13.7579 26.8726C13.7579 26.8968 13.7245 26.8823 13.6864 26.8435C13.6483 26.8 13.5768 26.7806 13.5244 26.7952C13.4672 26.8097 13.4053 26.771 13.3385 26.6742C13.2385 26.5339 13.2242 26.5339 12.8143 26.5291C12.5808 26.5291 12.3616 26.5484 12.3283 26.5678C12.2854 26.5919 12.2425 26.5823 12.2139 26.5387C12.1567 26.4662 11.928 26.5 11.9756 26.5726C11.9899 26.5968 12.0281 26.6016 12.0567 26.5871C12.09 26.5678 12.0995 26.5678 12.0805 26.5919C12.0328 26.6452 10.5985 26.6597 10.5318 26.6016C10.4984 26.5774 10.4317 26.5726 10.3888 26.5919C10.3411 26.6065 10.2935 26.6258 10.2792 26.6258C10.2649 26.6258 10.2077 26.6452 10.1505 26.6694C10.0838 26.6936 10.0314 26.6887 10.0123 26.6597C9.99327 26.6307 9.95991 26.6307 9.91702 26.6694C9.81219 26.7565 9.27847 26.7032 9.22128 26.6016C9.19746 26.5532 9.15934 26.5291 9.13551 26.5436C9.11168 26.5581 9.08309 26.5484 9.06403 26.5194C9.04497 26.4903 9.00684 26.4855 8.97825 26.5049C8.90201 26.5532 8.64944 26.5242 8.5732 26.4613C8.53508 26.4274 8.51602 26.4274 8.51602 26.4662C8.51602 26.5049 8.48742 26.5 8.43977 26.4516C8.40165 26.4081 8.34446 26.3742 8.32064 26.3742C8.29681 26.3742 8.27775 26.3549 8.27775 26.3258C8.27775 26.2629 8.00612 25.9872 7.94417 25.9872C7.92035 25.9872 7.89652 25.9581 7.89652 25.9243C7.89652 25.8952 7.83457 25.8372 7.75356 25.8033C7.67732 25.7646 7.6106 25.7162 7.6106 25.692C7.6106 25.663 7.56771 25.6001 7.51529 25.542C7.46764 25.4888 7.41046 25.3775 7.39616 25.3049C7.3771 25.2275 7.34851 25.1743 7.32945 25.1888C7.28656 25.213 7.05782 24.9663 7.07688 24.9082C7.08165 24.8888 7.06259 24.8743 7.034 24.8743C7.0054 24.8743 6.99111 24.8308 7.0054 24.7776C7.0197 24.7243 7.01017 24.6808 6.98634 24.6808C6.96251 24.6808 6.94345 24.6179 6.94345 24.5405C6.94345 24.4631 6.9101 24.3663 6.87197 24.3228C6.77667 24.226 6.78143 24.2018 6.92439 24.1486C7.07212 24.0905 7.02446 23.9841 6.87197 24.0228C6.7719 24.047 6.76237 24.0373 6.7719 23.9212C6.78143 23.8438 6.7719 23.7373 6.74808 23.6841C6.68613 23.5148 6.6623 23.0503 6.71472 22.9971C6.74331 22.968 6.74331 22.939 6.70995 22.9196C6.63371 22.8713 6.648 22.7455 6.72901 22.7455C6.76714 22.7455 6.80049 22.7213 6.80049 22.6922C6.80049 22.668 6.82432 22.6584 6.84815 22.6729C6.8815 22.6922 6.8958 22.6342 6.89104 22.5084C6.8815 22.3971 6.85768 22.31 6.83385 22.31C6.81479 22.31 6.81002 22.2907 6.82432 22.2616C6.83862 22.2326 6.81955 22.2132 6.78143 22.2132C6.68136 22.2132 6.68613 22.1503 6.79573 22.0487C6.87197 21.981 6.8815 21.9375 6.84338 21.8407C6.81955 21.7778 6.81479 21.6955 6.83385 21.6665C6.85291 21.6326 6.86244 21.5697 6.85291 21.5165C6.84815 21.4681 6.86244 21.4439 6.88627 21.4585C6.91486 21.473 6.94345 21.4536 6.96251 21.4149C6.97681 21.3762 6.96251 21.3423 6.92916 21.3423C6.8958 21.3375 6.90533 21.3133 6.95775 21.2746C7.00064 21.2407 7.03876 21.1875 7.03876 21.1536C7.03876 21.1246 7.06259 21.1004 7.09118 21.1004C7.11501 21.1004 7.13407 21.0617 7.12454 21.0133C7.11501 20.9601 7.1436 20.8827 7.18172 20.8343C7.2389 20.7617 7.2389 20.7424 7.19125 20.723C7.11977 20.6988 7.10071 20.7279 7.51053 20.2827C7.64396 20.1424 7.73926 20.0069 7.72973 19.9828C7.71544 19.9634 7.72497 19.9344 7.75356 19.915C7.77739 19.9005 7.80121 19.9199 7.80121 19.9634C7.80121 20.0069 7.82504 20.0263 7.84887 20.0118C7.87746 19.9924 7.89176 19.944 7.88699 19.9005C7.87746 19.8473 7.90129 19.8183 7.95371 19.8231C8.00136 19.8279 8.03472 19.8183 8.02995 19.7989C8.02042 19.707 8.04425 19.6489 8.08713 19.6731C8.11573 19.6876 8.13479 19.6779 8.13479 19.6489C8.13479 19.6199 8.15862 19.6102 8.19197 19.6296C8.22533 19.6537 8.23486 19.6392 8.22056 19.5908C8.2015 19.5425 8.24916 19.4941 8.37782 19.436C8.47789 19.3876 8.56367 19.3344 8.56367 19.3102C8.56367 19.2909 8.64944 19.2812 8.75428 19.2909C8.86865 19.3005 8.9449 19.2909 8.9449 19.257C8.9449 19.2328 8.92107 19.2231 8.89248 19.2425C8.85912 19.2618 8.85912 19.2376 8.89724 19.1651C8.9306 19.0973 8.97825 19.0731 9.02591 19.0877C9.06879 19.107 9.14981 19.0828 9.21175 19.0441C9.29753 18.9861 9.32612 18.9861 9.32612 19.0296C9.32612 19.0683 9.34042 19.0731 9.36425 19.0441C9.4119 18.9715 9.75977 18.8699 9.82172 18.9086C9.85507 18.928 9.85507 18.9135 9.81695 18.8699C9.77406 18.8119 9.80266 18.8022 10.0076 18.7877C10.1458 18.7828 10.365 18.7683 10.4936 18.7538C10.6271 18.7441 10.8272 18.7345 10.9463 18.7296C11.0655 18.7296 11.2132 18.7296 11.2799 18.7296C11.3466 18.7296 11.4419 18.7199 11.4944 18.7151C11.6373 18.6861 11.8518 18.7732 12.0519 18.928C12.1472 19.0054 12.252 19.0683 12.2806 19.0683C12.314 19.0683 12.4427 19.1796 12.5713 19.3102C12.7 19.4457 12.8143 19.5521 12.8286 19.5521C12.9097 19.5521 13.0431 19.7408 13.0431 19.857C13.0431 19.9295 13.0764 20.0021 13.1146 20.0166C13.1527 20.036 13.1717 20.0698 13.1527 20.0989C13.1384 20.1279 13.1479 20.1327 13.1765 20.1134C13.2099 20.094 13.2337 20.1037 13.2337 20.1327C13.2337 20.1618 13.2671 20.2247 13.3099 20.2634C13.3719 20.3311 13.391 20.3311 13.4291 20.2731C13.4624 20.215 13.472 20.215 13.472 20.2779C13.4767 20.3408 13.4815 20.3408 13.5339 20.2731C13.5673 20.2295 13.6197 20.2053 13.653 20.215C13.6816 20.2295 13.715 20.215 13.715 20.186C13.7198 20.1569 13.7245 20.1037 13.7341 20.0698C13.7388 20.0408 13.7102 19.9586 13.6721 19.8957C13.6197 19.8037 13.6197 19.7892 13.6673 19.8183C13.7102 19.8473 13.7102 19.8279 13.6578 19.765C13.6149 19.7166 13.5577 19.6005 13.5196 19.5134C13.4863 19.4312 13.4434 19.3586 13.4243 19.3586C13.4005 19.3586 13.3624 19.3005 13.3385 19.2231C13.3099 19.1506 13.2337 19.0344 13.167 18.9667C13.105 18.8941 13.0621 18.8216 13.0764 18.807C13.0955 18.7925 13.086 18.778 13.0574 18.778C13.0288 18.778 12.9907 18.7248 12.9764 18.657C12.9573 18.5893 12.924 18.5458 12.9001 18.5603C12.8715 18.5796 12.8668 18.6135 12.8811 18.6425C12.9001 18.6764 12.8906 18.6812 12.8572 18.6619C12.8286 18.6425 12.8048 18.599 12.8096 18.57C12.8239 18.4442 12.8001 18.3909 12.7333 18.3909C12.6952 18.3909 12.6619 18.3571 12.6619 18.3135C12.6619 18.2603 12.638 18.2458 12.5808 18.2651C12.5332 18.2845 12.5141 18.2845 12.5284 18.2651C12.5808 18.2168 12.2902 17.9942 12.2282 18.0329C12.1901 18.0571 12.1806 18.0426 12.1949 17.999C12.2139 17.9458 12.1853 17.9216 12.09 17.9168C12.0138 17.9119 11.8899 17.849 11.8089 17.7765L11.6659 17.6458L11.7946 17.4039C11.8613 17.2684 11.9804 17.0797 12.0519 16.9878C12.1281 16.8959 12.1853 16.7798 12.1853 16.7362C12.1853 16.6878 12.2187 16.6491 12.2568 16.6491C12.2949 16.6491 12.314 16.6201 12.3045 16.5862C12.2806 16.5233 12.4855 16.2621 12.557 16.2621C12.5808 16.2621 12.6333 16.2282 12.6666 16.1798C12.7286 16.1072 12.7238 16.1072 12.6142 16.1653L12.4951 16.2282L12.5856 16.1217C12.638 16.0685 12.7047 16.0201 12.7429 16.0201C12.7762 16.0201 12.8048 15.9766 12.8048 15.9185C12.8048 15.8653 12.8286 15.8363 12.8525 15.8508C12.8811 15.8653 12.9001 15.8556 12.9001 15.8218C12.9001 15.7879 12.9144 15.7782 12.9287 15.7927C12.9478 15.8121 13.0669 15.7347 13.1908 15.6282C13.3195 15.5218 13.4434 15.4444 13.472 15.4637C13.5006 15.4831 13.5196 15.4782 13.5149 15.4541C13.4958 15.3573 13.5244 15.2896 13.5816 15.2992C13.6673 15.3089 13.8532 15.2412 13.8532 15.1976C13.8532 15.1783 13.9294 15.1638 14.02 15.1734C14.1391 15.1879 14.1868 15.1686 14.1868 15.1202C14.1868 15.0815 14.2106 15.0525 14.244 15.0525C14.2725 15.0525 14.3393 15.0186 14.3869 14.9702C14.4393 14.9267 14.4727 14.917 14.4727 14.946C14.4727 15.0234 14.5489 15.0186 14.6252 14.9412C14.711 14.8493 14.9302 14.7912 15.2113 14.7815C15.4305 14.7718 15.9261 14.7235 15.9261 14.7138C15.9261 14.7138 16.0357 14.6993 16.1644 14.6848C16.3693 14.6606 16.8792 14.646 16.8792 14.6654C16.8792 14.6702 17.2318 14.7041 17.6559 14.738C17.98 14.7622 18.0658 14.7912 18.0229 14.8638C18.0038 14.888 18.0181 14.9073 18.0419 14.9073C18.0705 14.9073 18.0943 14.8783 18.0943 14.8444C18.0943 14.8009 18.1039 14.8009 18.1372 14.8493C18.1563 14.888 18.1896 14.9122 18.2087 14.9122C18.3755 14.888 18.3993 14.9122 18.2897 15.0089C18.2278 15.0621 18.1896 15.1202 18.2087 15.1347C18.2278 15.1541 18.2611 15.1444 18.2802 15.1057C18.3231 15.038 18.6471 15.0767 18.6948 15.1541C18.7091 15.1783 18.7615 15.1976 18.8139 15.1976C18.8616 15.1976 18.9044 15.2218 18.9044 15.2508C18.9044 15.275 18.9283 15.2847 18.9521 15.2702C19.0426 15.2121 19.1856 15.2944 19.157 15.3815C19.1427 15.425 19.1427 15.4492 19.1665 15.4299C19.1856 15.4105 19.2333 15.4299 19.2714 15.4782C19.3143 15.5266 19.3238 15.5315 19.3047 15.4879C19.2857 15.4492 19.3381 15.4831 19.4239 15.5702C19.5096 15.6524 19.5668 15.7444 19.5525 15.7734C19.5335 15.8073 19.5478 15.8169 19.5907 15.7976C19.6288 15.7831 19.6717 15.8073 19.686 15.8605C19.705 15.9089 19.7908 16.0008 19.8813 16.0685C19.9719 16.1363 20.0386 16.2137 20.0291 16.2427C20.0148 16.2766 20.0434 16.2911 20.0863 16.2766C20.1339 16.2669 20.2197 16.2814 20.2864 16.3104C20.4008 16.3588 20.4008 16.3588 20.253 16.3443C20.0767 16.325 20.0863 16.383 20.2673 16.4266C20.4103 16.4653 20.5342 16.5717 20.4913 16.6201C20.4722 16.6346 20.4961 16.6491 20.5437 16.6491C20.5866 16.6491 20.6104 16.6685 20.5961 16.6975C20.5819 16.7217 20.5914 16.7459 20.62 16.7459C20.6533 16.7459 20.6629 16.7798 20.6486 16.8233C20.6343 16.862 20.639 16.8814 20.6676 16.8669C20.6962 16.8523 20.7153 16.8717 20.7153 16.9201C20.7153 16.9636 20.7534 17.0314 20.8011 17.0701C20.8439 17.1088 20.8535 17.1233 20.8154 17.1039C20.7725 17.0797 20.7582 17.0894 20.782 17.1233C20.8011 17.1572 20.8439 17.1813 20.8773 17.1813C20.9821 17.1813 21.1775 17.3749 21.1108 17.4039C21.0774 17.4184 21.0489 17.4668 21.0489 17.5055C21.0489 17.5636 21.0727 17.5539 21.1442 17.4716C21.2013 17.4088 21.2395 17.3846 21.2395 17.4233C21.2395 17.4571 21.2728 17.5249 21.3157 17.5733C21.3634 17.6265 21.392 17.7474 21.3967 17.8829C21.3967 18.0039 21.4158 18.1006 21.4396 18.1006C21.4634 18.1006 21.4587 18.1442 21.4301 18.1974C21.4015 18.2506 21.392 18.3135 21.4015 18.3377C21.4158 18.3619 21.3967 18.4393 21.3634 18.5167C21.3252 18.5893 21.2776 18.7296 21.2633 18.8361C21.2442 18.9473 21.2109 19.0102 21.1823 18.9861C21.1537 18.9715 21.1442 18.9812 21.1632 19.0102C21.1775 19.0393 21.1728 19.0731 21.1442 19.0925C21.1156 19.1119 21.106 19.1457 21.1203 19.1699C21.1394 19.1941 21.1156 19.2473 21.0774 19.2909C21.0346 19.3296 21.0012 19.3973 21.0012 19.4409C21.0012 19.4796 20.9488 19.5763 20.8821 19.6586C20.8154 19.736 20.7629 19.8328 20.7629 19.8715C20.7629 19.915 20.7439 19.9344 20.72 19.915C20.6629 19.8812 20.5247 20.0747 20.5247 20.186C20.5247 20.2295 20.4865 20.2779 20.4341 20.2924C20.3722 20.3069 20.3388 20.3698 20.3245 20.4859C20.315 20.5827 20.3245 20.6456 20.3436 20.6359C20.3626 20.6214 20.3817 20.6408 20.3817 20.6795C20.3817 20.7714 20.5104 20.8246 20.5437 20.7472C20.558 20.7037 20.5771 20.7085 20.6104 20.7569C20.6438 20.8004 20.6676 20.8053 20.6867 20.7666C20.7057 20.7375 20.7343 20.723 20.7534 20.7327C20.8058 20.7617 20.9583 20.6359 20.9726 20.5488C20.9774 20.5101 21.0584 20.394 21.1489 20.2924C21.2442 20.1908 21.3062 20.0747 21.2966 20.0408C21.2824 20.0021 21.2966 19.9876 21.3252 20.0069C21.4015 20.0553 21.5254 19.8279 21.473 19.7312C21.4348 19.6683 21.4444 19.6586 21.5016 19.6779C21.554 19.7021 21.5683 19.6876 21.5444 19.6296C21.5254 19.5763 21.5397 19.5521 21.5921 19.5521C21.635 19.5521 21.6683 19.5134 21.6683 19.4651C21.6683 19.4167 21.7112 19.2957 21.7637 19.1893C21.8161 19.0828 21.859 18.9183 21.859 18.8167C21.859 18.6861 21.878 18.6329 21.9304 18.6329C21.9733 18.6329 22.0019 18.5893 22.0019 18.5216C22.0019 18.4587 22.0305 18.3667 22.0686 18.3135C22.1306 18.2313 22.1544 18.2313 22.2402 18.2845C22.2974 18.3232 22.3307 18.328 22.3117 18.299C22.2974 18.2651 22.326 18.2458 22.3879 18.2458C22.4785 18.2458 22.4832 18.2555 22.426 18.328C22.3641 18.4006 22.3784 18.4055 22.569 18.3764C22.6881 18.3619 22.7548 18.3667 22.7215 18.3861C22.6738 18.4151 22.6786 18.4345 22.7405 18.4587C22.8549 18.5022 22.8597 18.4974 22.8644 18.4006C22.8644 18.3329 22.8787 18.3377 22.9407 18.4248C22.9788 18.4877 23.0408 18.5361 23.0741 18.5361C23.1075 18.5361 23.1504 18.57 23.1647 18.6135C23.179 18.6522 23.2123 18.6764 23.2361 18.657C23.26 18.6425 23.3362 18.6861 23.4029 18.7538C23.4696 18.8216 23.5459 18.8748 23.5745 18.8748C23.6031 18.8748 23.6174 18.8941 23.6031 18.9183C23.5888 18.9425 23.6078 18.9764 23.6507 18.9909C23.6936 19.0054 23.7079 19.0006 23.6936 18.9667C23.6603 18.9135 23.9176 18.9619 23.9557 19.0199C23.97 19.0393 24.0177 19.049 24.0605 19.0441C24.1463 19.0296 24.1559 19.1119 24.0748 19.1796C24.0463 19.2038 24.0653 19.2086 24.1177 19.1941C24.1654 19.1748 24.2416 19.1893 24.2798 19.2231C24.3417 19.2764 24.3512 19.2764 24.3179 19.2135C24.2988 19.1748 24.3369 19.2038 24.4084 19.2812C24.499 19.3828 24.518 19.4312 24.4751 19.4554C24.4418 19.4796 24.4799 19.5086 24.5752 19.528C24.6848 19.5521 24.7134 19.5763 24.6657 19.6005C24.6181 19.6344 24.6372 19.6586 24.7325 19.7021C24.8039 19.736 24.8611 19.7795 24.8611 19.8037C24.8611 19.8279 24.885 19.8328 24.9183 19.8134C24.9517 19.7941 24.9564 19.7989 24.9374 19.8376C24.9183 19.8666 24.9326 19.9053 24.9755 19.9199C25.0184 19.9344 25.0374 19.9924 25.0279 20.0747C25.0184 20.1473 25.0184 20.1763 25.0327 20.1424C25.0708 20.0553 25.1423 20.0698 25.128 20.1666C25.1137 20.2537 25.352 20.6408 25.4759 20.7424C25.514 20.7714 25.5283 20.8295 25.514 20.8779C25.4949 20.9214 25.4997 20.9504 25.5235 20.9359C25.5473 20.9214 25.5759 20.9408 25.5902 20.9746C25.6045 21.0133 25.595 21.0569 25.5616 21.0714C25.5187 21.0859 25.5187 21.0956 25.5616 21.0956C25.595 21.1004 25.6093 21.1343 25.5902 21.1827C25.5664 21.2407 25.5807 21.2552 25.6379 21.2311C25.7236 21.1972 25.7332 21.2214 25.676 21.3665C25.6522 21.4197 25.6522 21.5214 25.676 21.5939C25.6998 21.681 25.6951 21.7294 25.6617 21.7294C25.6283 21.7294 25.6283 21.7488 25.6569 21.7875C25.6855 21.8213 25.6998 21.9036 25.6951 21.9713C25.6903 22.0391 25.7046 22.1213 25.7284 22.1503C25.7618 22.1939 25.7618 22.2132 25.7332 22.2132C25.6998 22.2132 25.6855 22.431 25.6855 22.7648C25.6903 23.1567 25.6712 23.3357 25.6283 23.3938C25.5902 23.4373 25.5855 23.4712 25.614 23.4712C25.6379 23.4712 25.6522 23.5148 25.6379 23.568C25.6236 23.6212 25.5902 23.6647 25.5569 23.6647C25.5187 23.6647 25.5235 23.6793 25.5616 23.7035C25.6045 23.7325 25.6045 23.7905 25.5712 23.9309C25.5426 24.0373 25.4997 24.2599 25.4711 24.4292C25.4425 24.6082 25.3948 24.7485 25.3567 24.7631C25.3186 24.7776 25.29 24.8259 25.29 24.8743C25.29 24.9276 25.2709 24.9808 25.2423 24.9953C25.2185 25.0098 25.1947 25.063 25.1947 25.1066C25.1947 25.2033 24.9183 25.5323 24.8754 25.4888C24.8611 25.4695 24.823 25.5033 24.7896 25.5662C24.7611 25.6243 24.7039 25.6678 24.661 25.6678C24.6133 25.663 24.5943 25.692 24.6086 25.7501C24.6276 25.8178 24.5943 25.842 24.4561 25.871C24.3322 25.8952 24.2988 25.9146 24.3465 25.9436C24.3941 25.9775 24.3894 25.9872 24.3226 25.9872C24.2702 25.9872 24.2512 26.0065 24.2702 26.0404C24.294 26.0791 24.2655 26.0888 24.1749 26.0742C24.1082 26.0597 24.051 26.0694 24.051 26.0936C24.051 26.1226 24.0177 26.1275 23.9748 26.113C23.9366 26.0984 23.9176 26.1033 23.9319 26.1323C23.9462 26.1613 23.9224 26.1807 23.8699 26.1807C23.8223 26.1807 23.7651 26.1952 23.746 26.2146C23.6936 26.2678 23.5268 26.2629 23.5268 26.2097C23.5268 26.1759 23.5125 26.1759 23.4887 26.2049C23.4553 26.2533 23.422 26.2629 23.2218 26.3065C23.1694 26.3162 23.117 26.3452 23.0979 26.3742C23.0598 26.4371 22.6595 26.4516 22.5738 26.3984C22.5309 26.3742 22.5213 26.3791 22.5452 26.4129C22.569 26.4516 22.5452 26.471 22.4832 26.471C22.4356 26.471 22.3784 26.442 22.3689 26.4081C22.3498 26.3694 22.3403 26.3694 22.3403 26.4081C22.3355 26.4468 22.2497 26.4565 22.04 26.4371C21.716 26.4081 21.716 26.4081 21.3348 26.4274C21.187 26.4371 21.0441 26.4274 21.0107 26.4033C20.9821 26.3839 20.9297 26.3839 20.9011 26.4033C20.8725 26.4178 20.8296 26.4033 20.8058 26.3694C20.7772 26.3258 20.7629 26.321 20.7629 26.3597C20.7629 26.3984 20.701 26.4129 20.5866 26.3984C20.4865 26.3887 20.315 26.3984 20.2054 26.4178C20.072 26.4468 20.0148 26.442 20.0338 26.4081C20.0529 26.3791 20.0243 26.3694 19.9624 26.3839C19.9052 26.3984 19.8575 26.3984 19.848 26.3742C19.8385 26.3549 19.7098 26.3549 19.5621 26.3742C19.4096 26.3887 19.2523 26.3839 19.2094 26.3597C19.157 26.3258 19.0951 26.3307 19.0379 26.3694C18.9902 26.3984 18.9283 26.4129 18.9044 26.3984C18.8568 26.3694 18.5232 26.6742 18.5232 26.7468C18.5232 26.771 18.4374 26.8339 18.3374 26.8871C18.2325 26.9355 18.1611 26.9935 18.1706 27.0129C18.1849 27.0371 18.1754 27.0516 18.1563 27.0516C18.0943 27.0516 17.7798 27.3612 17.7465 27.458C17.7274 27.5064 17.6893 27.5258 17.6607 27.5064C17.6273 27.487 17.6178 27.4919 17.6321 27.5209C17.6464 27.5451 17.6083 27.6709 17.5463 27.8015C17.4796 27.9322 17.4272 28.0628 17.4272 28.0967C17.4272 28.1305 17.3843 28.237 17.3271 28.3289C17.2747 28.4208 17.2413 28.5225 17.2556 28.5466C17.2747 28.5708 17.2652 28.6047 17.2413 28.6192C17.2175 28.6386 17.208 28.7257 17.2175 28.8224C17.2318 28.9531 17.2223 28.9869 17.1794 28.9579C17.1317 28.9337 17.1317 28.9386 17.1746 28.9869C17.208 29.0256 17.2128 29.0934 17.1889 29.1853C17.1651 29.2676 17.1651 29.3353 17.1937 29.3547C17.2175 29.3692 17.2318 29.4417 17.2271 29.5192C17.2223 29.5966 17.2032 29.6498 17.1889 29.6401C17.1699 29.6304 17.1556 29.6837 17.1556 29.7611C17.1556 29.8433 17.1746 29.9062 17.1937 29.9062C17.2128 29.9062 17.2223 29.9498 17.2128 30.003C17.2032 30.0562 17.2128 30.0998 17.2366 30.0998C17.2556 30.0998 17.289 30.1336 17.3033 30.1772C17.3224 30.2352 17.3128 30.2497 17.2604 30.2256C17.2032 30.2062 17.1985 30.2159 17.2318 30.2885C17.2604 30.3368 17.3128 30.3997 17.351 30.4384C17.3938 30.4723 17.4272 30.54 17.4272 30.5836C17.4272 30.632 17.451 30.6804 17.4796 30.69C17.5082 30.6997 17.5368 30.782 17.5463 30.8739C17.5654 31.1013 17.5654 31.1013 17.613 31.0287C17.6416 30.9803 17.6607 30.9949 17.675 31.0868C17.6893 31.1545 17.6798 31.2126 17.6607 31.2126C17.6035 31.2126 17.6035 31.3722 17.6607 31.4303C17.6798 31.4593 17.7369 31.5803 17.7846 31.7061C17.8322 31.8367 17.8847 31.9383 17.9085 31.9383C17.9323 31.9383 17.9752 31.9867 18.0086 32.0448C18.0753 32.1609 18.1896 32.1899 18.2468 32.1077C18.2707 32.0786 18.285 32.0786 18.285 32.1125C18.285 32.1415 18.2707 32.1803 18.2516 32.1996C18.1896 32.2625 18.2039 32.4706 18.2707 32.4706C18.304 32.4706 18.3326 32.4899 18.3326 32.5189C18.3326 32.5431 18.385 32.5673 18.4517 32.5673C18.5185 32.5673 18.5852 32.6012 18.5995 32.6399C18.6138 32.6786 18.6995 32.7221 18.7901 32.7415C18.8806 32.756 18.9521 32.7899 18.9521 32.8189C18.9521 32.8431 18.9712 32.8528 18.9902 32.8383C19.0141 32.8238 19.076 32.8576 19.1332 32.906C19.1904 32.9592 19.2571 33.0028 19.2857 33.0028C19.3286 33.0028 19.4429 33.0512 19.6193 33.1576C19.6574 33.177 19.7241 33.2108 19.7622 33.2302C19.8861 33.2882 20.0434 33.4527 20.0195 33.4963C20.0052 33.5156 20.0529 33.535 20.1291 33.535C20.2769 33.535 20.3912 33.5931 20.3865 33.6608C20.3865 33.685 20.4294 33.7043 20.4913 33.7043C20.6486 33.7092 20.9059 33.8834 20.9107 33.9946C20.9154 34.0672 20.9202 34.072 20.9393 34.014C20.9535 33.9511 20.9917 33.9414 21.1203 33.9704C21.2109 33.9898 21.2919 33.9946 21.3062 33.9801C21.3252 33.9656 21.3348 33.985 21.3348 34.0237C21.3395 34.072 21.3538 34.0672 21.3872 34.0043C21.4205 33.9511 21.4682 33.9269 21.5254 33.9463C21.6826 33.9946 21.8351 34.0285 21.9161 34.0285C21.9686 34.0237 21.9876 34.0527 21.9686 34.0962C21.9495 34.1543 21.9686 34.1591 22.0686 34.1156C22.1687 34.0769 22.2021 34.0817 22.2211 34.1398C22.2497 34.2124 22.488 34.2946 22.7596 34.3285C22.9073 34.343 23.0312 34.2607 22.9645 34.1833C22.9455 34.1591 22.9931 34.193 23.0646 34.2607C23.198 34.3769 23.2218 34.3817 23.9128 34.3817C24.4656 34.3817 24.6276 34.3672 24.6467 34.314C24.6657 34.2607 24.6896 34.2607 24.7801 34.3236C24.8421 34.3623 24.9231 34.3769 24.9803 34.3575C25.0327 34.343 25.1518 34.3285 25.2423 34.3333C25.9429 34.3672 26.0525 34.3575 26.1811 34.2559C26.2574 34.1978 26.2621 34.1978 26.2097 34.2607C26.1621 34.3236 26.2049 34.3333 26.5195 34.3285C26.7244 34.3236 26.9102 34.314 26.934 34.3091C26.9626 34.3043 26.996 34.2995 27.0198 34.3043C27.0389 34.3043 27.0532 34.2898 27.0532 34.2656C27.0532 34.2414 27.0961 34.2317 27.1485 34.2462C27.2009 34.2607 27.2438 34.2462 27.2438 34.2172C27.2438 34.1882 27.2676 34.164 27.2962 34.164C27.32 34.164 27.3296 34.1882 27.3153 34.2124C27.2962 34.2414 27.3963 34.2172 27.5392 34.164C27.6774 34.1108 27.9109 34.0527 28.0539 34.0382C28.4685 33.9995 28.4971 33.9898 28.5352 33.893C28.5543 33.8446 28.5733 33.8301 28.5733 33.8592C28.5781 33.9463 28.6972 33.9366 28.7687 33.8495C28.8021 33.8108 28.9117 33.7624 29.0165 33.7479C29.1452 33.7237 29.1928 33.6947 29.1785 33.6511C29.1499 33.5737 29.2262 33.5156 29.2691 33.5834C29.2881 33.6124 29.3215 33.6221 29.3453 33.6027C29.3691 33.5882 29.3787 33.5543 29.3596 33.5302C29.3453 33.5011 29.3739 33.4673 29.4311 33.4527C29.4883 33.4382 29.5312 33.3898 29.5312 33.3463C29.5312 33.2979 29.5836 33.2302 29.6503 33.1963C29.717 33.1624 29.7694 33.1141 29.7694 33.0899C29.7694 33.0705 29.7885 33.0512 29.8171 33.0512C29.9028 33.0512 30.0601 32.8576 30.0267 32.7947C30.0077 32.7609 30.0077 32.7512 30.0315 32.7705C30.0696 32.8092 30.1983 32.698 30.1983 32.6205C30.1983 32.5915 30.2412 32.4947 30.2936 32.398C30.346 32.3012 30.3889 32.1996 30.3889 32.1706C30.3889 32.1415 30.4366 32.0738 30.4985 32.0206C30.57 31.9577 30.5843 31.919 30.5462 31.9045C30.5128 31.8899 30.4842 31.8609 30.4842 31.8319C30.4842 31.8029 30.5128 31.8077 30.5557 31.8416C30.6177 31.8948 30.6415 31.8899 30.6987 31.8125C30.7368 31.7642 30.7558 31.6916 30.7463 31.6625C30.7368 31.6287 30.7606 31.5996 30.8035 31.5996C30.8654 31.5996 30.8702 31.5851 30.8273 31.5416C30.7463 31.4593 30.7558 31.4158 30.8512 31.4255C30.9131 31.4303 30.9417 31.3819 30.9655 31.2368C30.9989 31.0481 31.0704 30.811 31.1657 30.5981C31.1943 30.5352 31.2133 30.4239 31.2133 30.3417C31.2133 30.2643 31.2324 30.211 31.2562 30.2256C31.2753 30.2401 31.2943 30.2256 31.2943 30.2014C31.2943 30.1723 31.2657 30.1481 31.2371 30.1481C31.1943 30.1481 31.199 30.1336 31.2467 30.0998C31.2848 30.0756 31.2991 30.0417 31.28 30.0223C31.261 30.003 31.2848 29.9594 31.3325 29.9207C31.3753 29.882 31.3849 29.8627 31.3563 29.882C31.3229 29.8965 31.2943 29.8917 31.2943 29.8627C31.2943 29.8385 31.3134 29.8095 31.3372 29.7998C31.361 29.7901 31.3944 29.6982 31.4087 29.5917C31.423 29.4853 31.4421 29.3547 31.4564 29.3014C31.4659 29.2482 31.4802 29.1418 31.4802 29.0692C31.4849 28.9773 31.504 28.9434 31.5421 28.9676C31.5755 28.9869 31.5802 28.9821 31.5612 28.9434C31.5421 28.9144 31.5469 28.8563 31.5755 28.8224C31.6136 28.774 31.6136 28.7208 31.5802 28.6192C31.5517 28.5466 31.5421 28.4305 31.5564 28.3676C31.5755 28.2854 31.566 28.2612 31.5278 28.2902C31.4611 28.3289 31.5088 28.237 31.6184 28.1064C31.6708 28.0435 31.6803 27.9419 31.6613 27.6951C31.647 27.5112 31.6231 27.3274 31.6041 27.279C31.585 27.2355 31.5898 27.1967 31.6088 27.1967C31.6327 27.1967 31.6565 27.0855 31.6613 26.95C31.666 26.8145 31.6946 26.6742 31.7232 26.6403C31.7518 26.6016 31.7661 26.5291 31.747 26.4758C31.7232 26.3984 31.7375 26.3887 31.8233 26.4081C31.9138 26.4323 31.9186 26.4274 31.8709 26.3307C31.828 26.2533 31.828 26.2291 31.8709 26.2387C31.8995 26.2484 31.9281 26.2049 31.9376 26.142C31.9424 26.0839 31.9281 26.0355 31.9043 26.0355C31.8805 26.0355 31.8709 26.0162 31.89 25.992C31.9043 25.9678 31.8948 25.9339 31.8662 25.9146C31.8376 25.8952 31.8328 25.8565 31.8519 25.8275C31.9138 25.7307 31.9091 25.3582 31.8471 25.392C31.8138 25.4114 31.8185 25.3969 31.8519 25.3582C31.89 25.3146 31.8948 25.2662 31.8614 25.2082C31.828 25.1356 31.8328 25.1259 31.89 25.1453C31.9424 25.1695 31.9615 25.1404 31.9615 25.034C31.9615 24.9566 31.9329 24.8647 31.9043 24.8308C31.8566 24.7776 31.8566 24.7679 31.9043 24.7969C31.9424 24.8211 31.9615 24.7969 31.9615 24.734C31.9615 24.6856 31.9758 24.6034 31.9901 24.5647C32.0139 24.4969 31.9996 24.4921 31.8948 24.5356C31.828 24.5598 31.7709 24.5647 31.7709 24.5405C31.7709 24.5163 31.8138 24.4873 31.8662 24.4727C31.9424 24.4534 31.9615 24.4147 31.9519 24.2841C31.9424 24.197 31.9186 24.1099 31.8948 24.0954C31.8757 24.076 31.8805 24.0179 31.9091 23.9599C31.9424 23.9067 31.9472 23.8583 31.9234 23.8583C31.8805 23.8583 31.8852 23.418 31.9281 23.3406C31.9662 23.2728 31.9234 22.968 31.8709 22.9487C31.8423 22.939 31.8376 22.8906 31.8662 22.8132C31.8995 22.7261 31.8948 22.6439 31.8423 22.5181C31.7566 22.3148 31.7566 22.2955 31.8138 22.3342C31.8423 22.3487 31.8519 22.3052 31.8376 22.2326C31.8233 22.16 31.809 22.0778 31.8042 22.0487C31.7995 22.0197 31.7756 21.981 31.747 21.9616C31.7184 21.9375 31.7232 21.9229 31.7613 21.9229C31.8042 21.9229 31.809 21.8987 31.7804 21.8358C31.728 21.7391 31.7566 21.2456 31.8233 21.1682C31.8471 21.1391 31.8519 21.1004 31.8328 21.0811C31.7613 21.0133 31.747 20.7666 31.7899 20.4472C31.7947 20.394 31.7852 20.3118 31.7613 20.2682C31.7423 20.2247 31.7423 20.1327 31.7709 20.065C31.809 19.9586 31.8042 19.9392 31.7327 19.9392C31.6851 19.9392 31.6708 19.9247 31.7041 19.9005C31.7327 19.8812 31.7613 19.8328 31.7613 19.7941C31.7661 19.7554 31.7804 19.6489 31.7899 19.5618C31.809 19.4602 31.7995 19.407 31.7566 19.407C31.7184 19.407 31.7184 19.3925 31.7661 19.3634C31.8042 19.3393 31.8185 19.286 31.7947 19.2183C31.7709 19.136 31.7375 19.1215 31.6613 19.1457C31.5802 19.1699 31.5707 19.1651 31.6136 19.1167C31.6565 19.0731 31.6565 19.0344 31.6136 18.9715C31.5755 18.9038 31.5755 18.8651 31.6231 18.807C31.6756 18.749 31.6708 18.7054 31.6088 18.5796C31.5421 18.4442 31.5421 18.4345 31.6136 18.4587C31.6756 18.4829 31.6803 18.478 31.6279 18.4151C31.5945 18.3764 31.5374 18.3426 31.4992 18.3426C31.4611 18.3426 31.4468 18.3184 31.4611 18.2942C31.4802 18.2651 31.5135 18.2603 31.5421 18.2748C31.5755 18.299 31.585 18.2651 31.5612 18.178C31.5469 18.1055 31.5564 18.0039 31.585 17.9458C31.6279 17.8636 31.6279 17.8345 31.585 17.82C31.5564 17.8103 31.5326 17.7813 31.5326 17.7571C31.5326 17.7281 31.5517 17.7184 31.5755 17.7329C31.5993 17.7474 31.6184 17.7039 31.6184 17.6313C31.6184 17.5587 31.6422 17.491 31.6708 17.4813C31.6994 17.4716 31.7089 17.4378 31.6946 17.4136C31.6756 17.3846 31.6565 17.1862 31.647 16.9733C31.6422 16.712 31.6136 16.5766 31.5707 16.5475C31.5231 16.5137 31.5183 16.4895 31.5707 16.4072C31.6041 16.354 31.6088 16.3104 31.5898 16.3104C31.566 16.3104 31.5517 16.2088 31.5564 16.0782C31.5564 15.9524 31.5421 15.7879 31.5183 15.7105C31.4897 15.6234 31.4897 15.5653 31.5183 15.5411C31.5469 15.5266 31.5612 15.4734 31.5517 15.4299C31.5469 15.3815 31.5564 15.3331 31.5802 15.3186C31.5993 15.3041 31.5898 15.1734 31.5564 15.0283C31.5231 14.8831 31.5183 14.7767 31.5374 14.7912C31.5945 14.8251 31.5898 14.7864 31.5135 14.5928C31.4706 14.4912 31.4611 14.4235 31.4897 14.4235C31.5183 14.4235 31.5278 14.4041 31.5135 14.3848C31.4992 14.3606 31.5183 14.2832 31.5564 14.2106C31.5945 14.1429 31.6041 14.0945 31.5802 14.109C31.5517 14.1283 31.5326 14.1235 31.5278 14.0993C31.5088 13.8864 31.5135 13.7606 31.5469 13.78C31.566 13.7897 31.5802 13.7751 31.5802 13.751C31.5802 13.7219 31.5469 13.6977 31.5088 13.6977C31.4516 13.6977 31.4421 13.6542 31.4611 13.5042C31.4754 13.3687 31.4659 13.3107 31.423 13.3107C31.3801 13.3107 31.3801 13.301 31.4182 13.272C31.4754 13.2381 31.4849 12.2172 31.4278 12.1253C31.3896 12.0672 31.4135 11.6414 31.4564 11.5737C31.4754 11.5447 31.4706 11.5205 31.4468 11.5205C31.4182 11.5205 31.4087 11.4721 31.4278 11.414C31.4468 11.3318 31.4373 11.3173 31.3753 11.3415C31.3277 11.3608 31.2943 11.3511 31.2943 11.3269C31.2943 11.2979 31.3134 11.2786 31.3325 11.2786C31.3801 11.2786 31.3992 11.1866 31.3992 10.9254C31.3992 10.8286 31.4182 10.7463 31.4421 10.7463C31.4659 10.7463 31.4564 10.6931 31.4278 10.6254C31.3896 10.5383 31.3896 10.4851 31.423 10.4512C31.4849 10.3883 31.3992 10.0593 31.3277 10.1028C31.3039 10.1173 31.3086 10.0835 31.3372 10.0303C31.4087 9.89962 31.4039 9.87543 31.3134 9.87543C31.2657 9.87543 31.2467 9.8464 31.261 9.80769C31.2753 9.77382 31.261 9.71576 31.2324 9.68673C31.199 9.65286 31.199 9.63351 31.2276 9.63351C31.2562 9.63351 31.2705 9.52223 31.2562 9.34321C31.2419 9.15935 31.2562 9.02872 31.2896 8.98517C31.3372 8.92711 31.3277 8.89324 31.2467 8.81099C31.1704 8.73358 31.1561 8.69487 31.199 8.64165C31.261 8.56423 31.2753 8.32232 31.2276 8.23523C31.2086 8.2062 31.2181 8.182 31.2467 8.182C31.3086 8.182 31.261 7.97396 31.1943 7.94976C31.1704 7.94009 31.1514 7.90138 31.1514 7.86267C31.1514 7.82397 31.1275 7.79494 31.0942 7.79494C31.0513 7.79494 31.0513 7.78042 31.0894 7.74171C31.1275 7.70301 31.1228 7.65462 31.0751 7.56269C31.037 7.49012 31.0084 7.40303 31.0084 7.36916C31.0084 7.34013 30.9893 7.3111 30.9655 7.3111C30.9417 7.3111 30.9226 7.16595 30.9226 6.98209C30.9226 6.5418 30.9274 6.57083 30.7749 6.39181C30.6987 6.29988 30.6462 6.19828 30.6605 6.16441C30.6796 6.12086 30.6605 6.11119 30.5986 6.13538C30.5366 6.15957 30.5223 6.14989 30.5462 6.087C30.5843 5.99023 30.5414 5.85959 30.4747 5.85959C30.4461 5.85959 30.3841 5.81121 30.3365 5.75315C30.2841 5.69993 30.2412 5.6709 30.2412 5.69509C30.2364 5.71928 30.2221 5.67574 30.2031 5.59832C30.184 5.49672 30.1411 5.45317 30.0553 5.43866C29.9934 5.42898 29.9267 5.40479 29.9124 5.38544C29.8981 5.36608 29.8361 5.30802 29.7694 5.2548C29.6598 5.16287 29.6551 5.16287 29.7218 5.24996C29.7837 5.33221 29.7837 5.34189 29.7218 5.30318C29.5788 5.21125 29.4883 5.11449 29.5169 5.07094C29.5312 5.04191 29.5216 5.03707 29.493 5.05643C29.4644 5.07094 29.4311 5.0661 29.412 5.03707C29.3977 5.01288 29.3405 4.9645 29.2929 4.94031C29.2119 4.89676 29.2023 4.9016 29.2309 4.97417C29.25 5.0274 29.2262 5.01288 29.1642 4.94031C29.1118 4.87257 29.0594 4.78548 29.0451 4.74193C29.026 4.69839 28.9688 4.65001 28.9164 4.63549C28.8545 4.62098 28.8259 4.63065 28.8497 4.65968C28.864 4.69355 28.8545 4.69839 28.8211 4.67904C28.7925 4.65968 28.7068 4.63549 28.6353 4.62098C28.5638 4.60646 28.4637 4.58227 28.4113 4.56775C28.3589 4.5484 28.2922 4.53872 28.2588 4.54356C28.2302 4.55324 28.1921 4.53388 28.173 4.50485C28.1587 4.48066 28.1158 4.45647 28.0873 4.45647C28.0539 4.45647 28.0587 4.47582 28.1016 4.50485C28.1444 4.53388 28.1492 4.55324 28.1158 4.55324C28.0873 4.55324 28.0491 4.53388 28.0348 4.50969C28.0205 4.4855 27.9443 4.47099 27.8633 4.47582C27.768 4.48066 27.7203 4.46131 27.7203 4.41776C27.7203 4.37422 27.6727 4.3597 27.5774 4.36938C27.4964 4.37422 27.4153 4.3597 27.3963 4.33067C27.3439 4.24358 27.158 4.20488 27.0627 4.2581C27.0151 4.28229 26.9245 4.31132 26.8578 4.321C26.7959 4.33067 26.7244 4.35003 26.6958 4.36454C26.672 4.3839 26.5957 4.3839 26.529 4.37422C26.4623 4.36454 26.3622 4.35486 26.3003 4.35003C26.2288 4.35003 26.1954 4.32583 26.2145 4.28713C26.2288 4.23874 26.1764 4.22423 25.9905 4.22907C25.8523 4.23391 25.7284 4.2581 25.7094 4.28713C25.6855 4.31616 25.6712 4.31132 25.6712 4.27261C25.6712 4.24358 25.6474 4.21455 25.6188 4.21455C25.595 4.21455 25.5807 4.23391 25.595 4.2581C25.6236 4.30648 25.5187 4.3597 25.3996 4.3597C25.3615 4.3597 25.2948 4.39357 25.2519 4.44196C25.1804 4.51453 25.1709 4.50969 25.147 4.40325C25.128 4.34035 25.0851 4.29197 25.047 4.2968C24.9564 4.30648 24.7801 4.35003 24.6705 4.3839C24.6229 4.39841 24.5704 4.38873 24.5561 4.36454C24.5371 4.33551 24.4942 4.32583 24.4561 4.34519C24.4179 4.3597 24.3846 4.35003 24.3846 4.321C24.3846 4.25326 24.1797 4.22423 24.0463 4.27261C23.9176 4.32583 23.0932 4.3597 23.1218 4.31616C23.1313 4.2968 23.0884 4.26294 23.0265 4.23391C22.9312 4.18552 22.9169 4.19036 22.9312 4.26777C22.9407 4.31616 22.9312 4.36938 22.9026 4.3839C22.8787 4.40325 22.8597 4.36938 22.8597 4.31132C22.8597 4.22423 22.8359 4.21455 22.6691 4.23391C22.5499 4.24842 22.4642 4.22907 22.4308 4.19036C22.3593 4.10811 22.183 4.11779 22.2164 4.20004C22.2307 4.25326 22.2164 4.25326 22.1449 4.21455C22.0925 4.18552 22.0305 4.17101 22.0115 4.18552C21.9924 4.20004 21.9495 4.19036 21.9161 4.17101C21.878 4.14682 21.878 4.10327 21.9304 4.0065C21.9686 3.92909 21.9781 3.86619 21.9495 3.84684C21.9209 3.83232 21.9161 3.71136 21.9352 3.55654C21.9543 3.38235 21.9447 3.29527 21.9114 3.29527C21.8828 3.29527 21.8304 3.22753 21.7875 3.15011C21.7303 3.03883 21.7303 3.00496 21.7732 3.01464C21.8065 3.02432 21.8256 2.99529 21.8208 2.95658C21.7637 2.70499 21.7827 2.4292 21.8685 2.35662C21.959 2.27921 21.9924 2.10503 21.9066 2.15825C21.8733 2.1776 21.8637 2.14857 21.8876 2.06632C21.9114 1.95988 21.9018 1.94053 21.8065 1.94053C21.6636 1.94053 21.716 1.89698 21.878 1.88247C22.0019 1.87279 22.0019 1.86795 21.9161 1.79538C21.7875 1.69377 21.7637 1.58733 21.8542 1.51475C21.9209 1.46153 21.9209 1.45669 21.8399 1.46637C21.7684 1.47604 21.7303 1.42766 21.6636 1.23896C21.6207 1.10349 21.5778 1.02124 21.5778 1.05027C21.573 1.08414 21.492 1.03091 21.3967 0.938988C21.2681 0.822865 21.1823 0.77932 21.106 0.793835C21.0346 0.80835 20.9821 0.788998 20.9678 0.745453C20.944 0.687393 20.9345 0.687393 20.9011 0.740612C20.8678 0.788998 20.8582 0.788998 20.8582 0.740612C20.8582 0.697067 20.8344 0.69223 20.7677 0.730938C20.701 0.764805 20.6676 0.759968 20.6533 0.716423C20.6343 0.672874 20.62 0.672874 20.5676 0.716423C20.4961 0.788998 20.4294 0.798672 20.4294 0.735775C20.4294 0.711582 20.4722 0.682552 20.5294 0.668037C20.5914 0.648685 20.6152 0.619656 20.5961 0.585785C20.5676 0.54224 20.5485 0.54224 20.5199 0.590626C20.4913 0.639008 20.477 0.643845 20.477 0.595463C20.477 0.518047 20.4055 0.522888 20.315 0.609978ZM16.8315 5.76283C16.8125 5.79186 16.8601 5.80153 16.9459 5.79186C17.0269 5.78218 17.1032 5.78702 17.1174 5.80153C17.1699 5.85959 17.4272 5.84992 17.4272 5.7967C17.4272 5.76283 17.4606 5.77734 17.4939 5.82573C17.5511 5.8983 17.5797 5.90314 17.6607 5.85959C17.7179 5.83056 17.7608 5.82573 17.7608 5.84508C17.7608 5.86443 17.8132 5.90798 17.8799 5.94184C17.9466 5.97088 17.9895 5.97571 17.9752 5.95636C17.9371 5.89346 18.0943 5.82089 18.1944 5.84508C18.2468 5.85959 18.285 5.90314 18.285 5.94184C18.285 5.99991 18.2993 5.99991 18.3898 5.93701C18.4803 5.86927 18.4994 5.86927 18.5566 5.94668C18.5947 5.99023 18.6138 6.00474 18.6042 5.98055C18.5709 5.91282 18.7043 5.7338 18.7472 5.78218C18.7663 5.80153 18.752 5.8354 18.7138 5.85959C18.6376 5.90798 18.6805 5.92733 18.8234 5.90798C18.8949 5.90314 18.9044 5.92249 18.8806 5.99991C18.8616 6.06281 18.8711 6.10151 18.9044 6.10151C18.933 6.10151 18.9426 6.1257 18.9283 6.14989C18.9092 6.17892 18.8759 6.1886 18.852 6.17409C18.8282 6.15473 18.8091 6.17892 18.8091 6.22247C18.8091 6.26602 18.833 6.28537 18.8616 6.26602C18.8949 6.24666 18.9092 6.26118 18.8949 6.29988C18.8806 6.33859 18.8425 6.36278 18.8139 6.35311C18.7853 6.34827 18.7615 6.36278 18.7615 6.38697C18.7615 6.44503 18.9044 6.49342 18.9616 6.45471C18.995 6.4402 18.9998 6.44987 18.9807 6.48374C18.9569 6.51761 18.9044 6.52729 18.8473 6.50793C18.7615 6.48374 18.7567 6.48858 18.8139 6.55148C18.852 6.59019 18.914 6.60954 18.9521 6.59502C18.995 6.58051 18.9902 6.59986 18.933 6.64341C18.8854 6.68211 18.8568 6.74018 18.8759 6.76921C18.8949 6.80307 18.8806 6.82726 18.833 6.82726C18.7615 6.82726 18.7615 6.8321 18.8282 6.90468C18.8711 6.94339 18.9044 7.00145 18.9044 7.02564C18.9044 7.05467 18.9235 7.05951 18.9521 7.04499C18.9807 7.03048 18.9855 7.04983 18.9712 7.09337C18.9521 7.13208 18.9664 7.19498 18.995 7.23369C19.0379 7.28207 19.0331 7.3111 18.9759 7.35948C18.9235 7.40303 18.9187 7.4369 18.9521 7.48044C18.9807 7.51431 18.995 7.6014 18.9807 7.66914C18.9664 7.73688 18.9855 7.82397 19.0141 7.853C19.0474 7.88687 19.076 7.99815 19.0808 8.09975C19.0855 8.21587 19.138 8.35135 19.219 8.45779C19.3047 8.57391 19.3238 8.6223 19.2761 8.60294C19.2285 8.58843 19.1856 8.60294 19.1713 8.64649C19.157 8.68036 19.1618 8.70938 19.1808 8.70938C19.2666 8.69487 19.4 8.7239 19.3476 8.74809C19.3143 8.75777 19.2857 8.80131 19.2857 8.84002C19.2857 8.88357 19.3095 8.89808 19.3381 8.87873C19.3715 8.85938 19.3857 8.87389 19.3715 8.9126C19.3572 8.9513 19.3905 9.01904 19.4429 9.06259C19.5335 9.14484 19.543 9.14484 19.6002 9.06259C19.6478 8.99969 19.6574 8.99969 19.6478 9.05291C19.605 9.28031 19.5573 9.38675 19.5049 9.35773C19.4763 9.33837 19.4811 9.35773 19.5144 9.40127C19.5859 9.48836 19.7956 9.44481 19.7765 9.34805C19.767 9.31902 19.786 9.29483 19.8099 9.29483C19.8385 9.29483 19.8718 9.29483 19.8956 9.29483C19.9147 9.29483 19.929 9.32386 19.929 9.35289C19.929 9.38675 19.8956 9.41578 19.8575 9.41578C19.8194 9.41578 19.7813 9.45933 19.7717 9.51255C19.7622 9.56577 19.767 9.5948 19.786 9.57545C19.8099 9.5561 19.8575 9.56094 19.8909 9.5948C19.9433 9.63835 19.9671 9.63835 19.9957 9.5948C20.0148 9.56094 20.0624 9.54642 20.1006 9.56094C20.1387 9.57545 20.2102 9.5561 20.2626 9.51255C20.3579 9.43998 20.3579 9.43998 20.2626 9.46901C20.1863 9.4932 20.1816 9.48836 20.2387 9.44481C20.3388 9.37224 20.3817 9.37708 20.3817 9.46901C20.3817 9.50771 20.4055 9.52707 20.4294 9.51255C20.458 9.4932 20.4627 9.45933 20.4484 9.4303C20.4294 9.40127 20.4437 9.39159 20.4818 9.40127C20.5199 9.41578 20.5437 9.45449 20.5342 9.48836C20.5199 9.54158 20.5342 9.54158 20.5961 9.48836C20.6343 9.45449 20.7486 9.42062 20.8392 9.41095C20.9345 9.40127 21.0393 9.37224 21.0679 9.34321C21.1013 9.31902 21.1394 9.30934 21.1585 9.32386C21.1728 9.33837 21.1966 9.3045 21.2156 9.25128C21.2299 9.19322 21.2681 9.14968 21.2966 9.14968C21.3252 9.14968 21.3348 9.08678 21.3252 9.00452C21.3014 8.84002 21.3014 8.84002 21.4301 8.91743C21.5349 8.98517 21.5873 8.95614 21.5444 8.84002C21.5302 8.79648 21.492 8.77712 21.4587 8.79648C21.4301 8.81099 21.4491 8.78196 21.4968 8.7239C21.554 8.65616 21.5635 8.61746 21.5302 8.61746C21.4968 8.61746 21.4873 8.59327 21.5016 8.56907C21.5159 8.54004 21.5826 8.52069 21.6493 8.52069C21.7732 8.52069 21.8065 8.43844 21.6922 8.39489C21.6255 8.36586 21.6064 8.13362 21.6731 8.13362C21.6874 8.13362 21.6874 8.04169 21.6636 7.92557C21.6398 7.77558 21.6445 7.69333 21.6969 7.61108C21.7351 7.55302 21.7494 7.50463 21.7303 7.50947C21.6159 7.52883 21.6112 7.49012 21.716 7.40787C21.7827 7.35464 21.8161 7.3111 21.7875 7.31594C21.6779 7.33045 21.6683 7.30142 21.7446 7.16111C21.7827 7.07886 21.8018 7.0208 21.778 7.03531C21.7541 7.04983 21.7017 6.94339 21.6636 6.79823C21.6207 6.65308 21.6064 6.53696 21.6255 6.53696C21.6493 6.53696 21.6683 6.56116 21.6683 6.59019C21.6683 6.61438 21.6922 6.62405 21.7208 6.60954C21.7541 6.58535 21.7446 6.5418 21.6969 6.46439C21.6588 6.40633 21.6398 6.33859 21.6588 6.32408C21.6731 6.30472 21.6826 6.20312 21.6731 6.10151C21.6683 5.98055 21.6826 5.90798 21.716 5.90798C21.7446 5.90798 21.7541 5.87895 21.7398 5.84508C21.7208 5.81605 21.7494 5.8354 21.797 5.89346C21.878 5.99507 21.8923 5.99991 22.0162 5.93217C22.0877 5.89346 22.1354 5.88379 22.1211 5.90798C22.102 5.93701 22.1211 5.95636 22.1544 5.9612C22.1878 5.9612 22.3021 5.97088 22.407 5.98055C22.5118 5.99023 22.6309 5.97088 22.6691 5.93701C22.731 5.89346 22.731 5.89346 22.6786 5.96604C22.6214 6.03861 22.6357 6.04345 22.8835 6.03861C23.1456 6.0241 23.1504 6.02894 23.1265 6.14989C23.1122 6.21763 23.1122 6.24182 23.1265 6.20795C23.1408 6.17892 23.179 6.16441 23.2028 6.17892C23.2361 6.19828 23.2409 6.1886 23.2218 6.15473C23.1933 6.11603 23.2218 6.10635 23.3076 6.13054C23.3839 6.14989 23.4649 6.13538 23.5125 6.09667C23.5792 6.03861 23.5888 6.03861 23.5507 6.10151C23.5221 6.15957 23.5268 6.16441 23.5792 6.11119C23.6126 6.08216 23.6793 6.05313 23.727 6.05313C23.7746 6.05313 23.8127 6.02894 23.8127 5.99991C23.8127 5.97088 23.8366 5.96604 23.8747 5.99023C23.9605 6.04345 24.051 6.04829 24.051 5.99991C24.051 5.97571 24.0844 5.95636 24.1225 5.95636C24.1606 5.95636 24.194 5.97571 24.194 5.99507C24.194 6.06281 24.4037 6.03378 24.4656 5.95636C24.518 5.89346 24.5228 5.89346 24.5275 5.96604C24.5275 6.00958 24.5561 6.05313 24.5895 6.06764C24.6753 6.09667 24.7706 6.04829 24.7325 5.99023C24.7182 5.9612 24.7277 5.95636 24.7611 5.97571C24.7896 5.99507 24.8039 6.02894 24.7896 6.05313C24.7753 6.07248 24.7992 6.10151 24.8325 6.11603C24.8707 6.13054 24.9088 6.12086 24.9183 6.09184C24.9326 6.05797 24.9946 6.07248 25.0994 6.1257C25.2185 6.1886 25.2519 6.19344 25.209 6.14506C25.1613 6.087 25.1947 6.07732 25.4425 6.087C25.6045 6.09184 25.7475 6.12086 25.7665 6.14989C25.7904 6.1886 25.8237 6.18376 25.8761 6.13054C25.9714 6.03378 26.143 6.02894 26.1764 6.1257C26.1954 6.16441 26.2383 6.19828 26.2764 6.19828C26.3146 6.19828 26.3336 6.17892 26.3193 6.15957C26.305 6.13538 26.3574 6.11603 26.4384 6.11119C26.5481 6.11119 26.5766 6.1257 26.5576 6.17892C26.5242 6.26602 26.5528 6.26602 26.691 6.17409C26.7959 6.10635 26.8101 6.10635 26.8816 6.17409C26.9531 6.24666 26.9626 6.24666 27.0389 6.17409C27.1008 6.10635 27.1056 6.07248 27.0627 5.99991C27.0198 5.93701 27.0198 5.90314 27.0627 5.87895C27.0913 5.85959 27.1008 5.86443 27.0865 5.89346C27.0294 5.98539 27.2152 6.01442 27.2771 5.92733C27.3105 5.87895 27.3534 5.85959 27.3725 5.87895C27.3915 5.8983 27.3725 5.93701 27.3248 5.9612C27.2819 5.99023 27.2581 6.03378 27.2724 6.06281C27.2914 6.09184 27.2819 6.10151 27.2533 6.08216C27.2247 6.06764 27.1914 6.07248 27.1771 6.09667C27.1294 6.16925 27.2438 6.21279 27.3153 6.14989C27.3534 6.11603 27.4296 6.10151 27.4821 6.11603C27.5345 6.13054 27.5774 6.12086 27.5774 6.09667C27.5774 6.07248 27.6107 6.05313 27.6536 6.05313C27.6917 6.05313 27.7108 6.07248 27.6965 6.10151C27.6822 6.1257 27.6965 6.15473 27.7299 6.15473C27.849 6.16441 27.8871 6.17892 28.0205 6.24666C28.092 6.28053 28.1492 6.33375 28.1492 6.35794C28.1492 6.38697 28.1635 6.39665 28.1778 6.38214C28.1921 6.36278 28.2445 6.39181 28.2969 6.44503C28.3446 6.49342 28.459 6.5418 28.5447 6.5418C28.6257 6.54664 28.6591 6.55632 28.6162 6.57083C28.5018 6.59986 28.5066 6.6676 28.6257 6.70631C28.6782 6.72082 28.721 6.75953 28.721 6.78372C28.721 6.81275 28.702 6.81759 28.6734 6.80307C28.6496 6.78856 28.64 6.80307 28.6543 6.84662C28.6686 6.88532 28.7115 6.90468 28.7496 6.89016C28.7878 6.87565 28.8164 6.895 28.8164 6.93855C28.8164 6.98693 28.8497 7.01112 28.9069 6.99661C28.9593 6.98693 29.0117 7.01112 29.026 7.04983C29.0451 7.09821 29.0308 7.11273 28.9927 7.09337C28.9641 7.07402 28.9831 7.10305 29.0451 7.15143C29.1166 7.2095 29.1452 7.27239 29.1213 7.32561C29.107 7.374 29.1166 7.40787 29.1452 7.40787C29.1738 7.40787 29.1976 7.44174 29.1976 7.48044C29.1976 7.51915 29.2119 7.54818 29.2357 7.54818C29.3215 7.53366 29.3882 7.55786 29.3882 7.6014C29.3882 7.62559 29.3501 7.64979 29.2977 7.64979C29.2119 7.64979 29.2119 7.65946 29.2786 7.853C29.3167 7.95944 29.3358 8.0804 29.3215 8.11911C29.3072 8.15298 29.3119 8.182 29.331 8.182C29.3691 8.182 29.3739 8.2062 29.393 8.53037C29.4025 8.62713 29.4263 8.69487 29.4549 8.68036C29.4787 8.66584 29.4835 8.67552 29.4644 8.70938C29.4454 8.74325 29.4454 8.80615 29.4644 8.8497C29.5216 8.99485 29.5312 9.09162 29.4883 9.20774C29.4597 9.28031 29.4692 9.36256 29.5169 9.45449C29.574 9.57061 29.574 9.60448 29.5216 9.67222C29.4692 9.73512 29.4692 9.73996 29.5264 9.70609C29.5788 9.67706 29.5836 9.68189 29.5502 9.73512C29.4978 9.82221 29.493 10.4076 29.5455 10.4076C29.5693 10.4076 29.574 10.427 29.555 10.456C29.5407 10.4802 29.5597 10.577 29.5979 10.6738C29.6646 10.8286 29.6598 10.8576 29.5788 10.8528C29.5645 10.8528 29.5597 10.9254 29.5693 11.0221C29.5883 11.1576 29.5788 11.1866 29.5264 11.1528C29.474 11.1237 29.4692 11.1286 29.5121 11.1866C29.5407 11.2253 29.5645 11.3173 29.5693 11.3898C29.574 11.4624 29.5979 11.564 29.6265 11.6124C29.6932 11.7479 29.4978 11.8253 29.3262 11.7334C29.2548 11.6947 29.1976 11.685 29.1976 11.7092C29.1976 11.7334 29.2262 11.7672 29.2595 11.7769C29.2929 11.7914 29.2929 11.8059 29.2643 11.8059C29.2357 11.8108 29.1642 11.7672 29.1023 11.714C28.9831 11.6076 28.8878 11.5834 28.9403 11.6753C28.9641 11.7092 28.9545 11.714 28.9069 11.685C28.8688 11.6608 28.7449 11.6414 28.6257 11.6414C28.4494 11.6414 28.4018 11.6221 28.3636 11.5301C28.3398 11.4721 28.3017 11.4237 28.2779 11.4237C28.2588 11.4237 28.254 11.4479 28.2731 11.4818C28.2969 11.5156 28.2874 11.5205 28.2445 11.4963C28.2112 11.4769 28.1683 11.4866 28.1492 11.5205C28.1206 11.5689 28.092 11.5689 28.011 11.5108C27.9586 11.4721 27.9252 11.4237 27.9491 11.3995C27.9681 11.3753 27.9538 11.3753 27.9205 11.3947C27.8871 11.414 27.8728 11.4479 27.8823 11.4672C27.8966 11.4866 27.8299 11.5011 27.7394 11.5011C27.6488 11.5011 27.5774 11.4818 27.5774 11.4624C27.5774 11.3995 27.4439 11.4189 27.4201 11.4818C27.401 11.5301 27.382 11.5301 27.3486 11.4769C27.32 11.4382 27.2676 11.4237 27.2295 11.4382C27.1771 11.4576 27.158 11.4431 27.1723 11.3802C27.1866 11.2882 27.0294 11.2495 26.9769 11.3366C26.9531 11.3705 26.9674 11.3753 27.0055 11.3511C27.0436 11.3269 27.0579 11.3366 27.0436 11.3802C27.0294 11.4189 26.996 11.4431 26.9674 11.4382C26.934 11.4285 26.9245 11.4576 26.9436 11.506C26.9722 11.5785 26.9674 11.5834 26.9007 11.5205C26.8578 11.4818 26.834 11.4092 26.8435 11.3608C26.8483 11.3124 26.8292 11.2786 26.7863 11.2786C26.672 11.2786 26.3384 11.3947 26.3384 11.4334C26.3384 11.4576 26.3193 11.4721 26.2907 11.4721C26.2669 11.4721 26.2574 11.4431 26.2717 11.4044C26.286 11.3656 26.2717 11.3221 26.2383 11.2979C26.2002 11.2786 26.1907 11.2834 26.2145 11.3173C26.2335 11.3511 26.2288 11.3753 26.2002 11.3753C26.1764 11.3753 26.143 11.3463 26.1335 11.3124C26.1144 11.2689 26.0953 11.2689 26.062 11.3221C26.0382 11.356 25.9953 11.3753 25.9667 11.356C25.9381 11.3415 25.9 11.3511 25.8857 11.3802C25.8618 11.414 25.819 11.3995 25.7475 11.3318C25.6617 11.2544 25.6331 11.2447 25.5664 11.2979C25.5187 11.3318 25.4997 11.3802 25.5187 11.3995C25.5378 11.4237 25.5187 11.4189 25.4806 11.3995C25.4425 11.3753 25.352 11.3608 25.2757 11.3656C25.1709 11.3753 25.1423 11.3608 25.1613 11.3076C25.1804 11.264 25.1518 11.2398 25.0756 11.2398C24.9993 11.2398 24.9755 11.264 24.9898 11.3269C25.0041 11.3753 24.985 11.4092 24.9374 11.4092C24.8945 11.4092 24.8611 11.385 24.8611 11.356C24.8611 11.3269 24.8421 11.3269 24.8087 11.3608C24.7706 11.3995 24.7134 11.3995 24.6419 11.3753C24.58 11.3511 24.5275 11.3511 24.518 11.3753C24.5085 11.3995 24.4227 11.4334 24.3226 11.4479C24.1701 11.4721 24.1416 11.4624 24.1034 11.3656C24.0701 11.2834 24.0558 11.2737 24.0558 11.3366C24.051 11.385 24.0224 11.4237 23.9843 11.4237C23.9462 11.4237 23.9081 11.4527 23.8985 11.4818C23.8842 11.5253 23.8461 11.5205 23.7556 11.4624C23.6126 11.3656 23.4887 11.3753 23.4077 11.4866C23.3362 11.5834 23.2695 11.593 23.3029 11.5011C23.3219 11.4479 23.3076 11.4479 23.2171 11.4914C23.1551 11.5205 23.1075 11.564 23.1122 11.593C23.117 11.6172 23.0312 11.6414 22.9264 11.6414C22.7787 11.6463 22.712 11.6221 22.6691 11.5543C22.6357 11.4963 22.6357 11.4769 22.6643 11.4963C22.6929 11.5108 22.7167 11.5011 22.7167 11.4769C22.7167 11.3995 22.5833 11.414 22.5404 11.4914C22.5166 11.5301 22.4308 11.5737 22.345 11.593C22.2497 11.6076 22.1973 11.6027 22.2116 11.5737C22.2497 11.5156 22.1592 11.4576 22.0067 11.4431C21.9114 11.4285 21.9018 11.4382 21.9543 11.4721C22.0115 11.5108 22.0067 11.5253 21.9209 11.5495C21.859 11.5689 21.8065 11.6172 21.8065 11.6608C21.8018 11.7285 21.797 11.7285 21.778 11.6559C21.7684 11.6076 21.7303 11.5834 21.6874 11.6027C21.6493 11.6172 21.6064 11.5834 21.5778 11.5156C21.5349 11.414 21.4968 11.4624 21.5206 11.5882C21.5254 11.6124 21.492 11.6124 21.4444 11.593C21.2871 11.5301 21.1442 11.5253 21.1442 11.593C21.1442 11.6269 21.0917 11.6656 21.025 11.6753C20.9535 11.6898 20.9202 11.6801 20.9393 11.6511C20.9583 11.6221 20.9297 11.6124 20.8725 11.6269C20.8106 11.6463 20.7439 11.6172 20.6867 11.5543C20.6343 11.4866 20.5961 11.4721 20.5819 11.5108C20.5723 11.5447 20.5342 11.5689 20.4961 11.5689C20.458 11.5689 20.4294 11.5882 20.4294 11.6076C20.4294 11.6318 20.3817 11.6463 20.3245 11.6414C20.2435 11.6366 20.2149 11.6027 20.2197 11.5301C20.2244 11.4721 20.2054 11.4237 20.1863 11.4237C20.1625 11.4237 20.1434 11.4576 20.1434 11.5011C20.1434 11.5447 20.1196 11.5592 20.0863 11.5398C20.0577 11.5205 20.0005 11.5495 19.9624 11.5979C19.9147 11.6608 19.8861 11.6705 19.8718 11.6269C19.8575 11.5979 19.7956 11.5689 19.7336 11.5689C19.6669 11.5689 19.6288 11.5495 19.6431 11.5205C19.6621 11.4914 19.6288 11.4818 19.5621 11.4914C19.5001 11.506 19.4143 11.5156 19.3667 11.5156C19.319 11.5205 19.2952 11.5398 19.3095 11.5689C19.3238 11.593 19.3047 11.6172 19.2666 11.6172C19.2285 11.6172 19.1713 11.5785 19.1475 11.5301C19.0998 11.4527 19.0903 11.4527 19.0236 11.5398C18.9712 11.6076 18.9521 11.6172 18.9521 11.564C18.9473 11.5156 18.9378 11.5205 18.8997 11.5785C18.8759 11.6269 18.8091 11.6656 18.7567 11.6656C18.7043 11.6656 18.6138 11.6898 18.5613 11.7188C18.4803 11.7624 18.466 11.7624 18.4851 11.7043C18.5042 11.6608 18.4803 11.6366 18.4184 11.6318C18.3707 11.6269 18.3135 11.6559 18.2993 11.6947C18.2659 11.7866 18.1611 11.7817 18.1229 11.6801C18.0943 11.6076 18.0848 11.6076 18.0467 11.6656C18.0038 11.7285 17.999 11.7285 17.9943 11.6656C17.9895 11.6269 17.9895 11.5785 17.9943 11.5543C17.9943 11.535 17.9657 11.5205 17.9228 11.5205C17.8751 11.5205 17.8561 11.5495 17.8704 11.5882C17.8894 11.6366 17.8656 11.6511 17.7798 11.6414C17.6416 11.6269 17.594 11.5882 17.594 11.4866C17.594 11.3753 17.4748 11.3463 17.4701 11.4576C17.4653 11.506 17.4653 11.5592 17.4653 11.5737C17.4701 11.5882 17.4129 11.6027 17.3414 11.5979C17.2604 11.593 17.2175 11.5689 17.2271 11.5301C17.2318 11.4914 17.2175 11.4769 17.1889 11.4963C17.1651 11.5108 17.1413 11.4963 17.1413 11.4624C17.1365 11.4189 17.1174 11.4285 17.0746 11.4818C16.9935 11.593 16.9173 11.593 16.8839 11.4818C16.8458 11.3656 16.7219 11.3656 16.6838 11.4818C16.6695 11.5301 16.6409 11.5689 16.6171 11.5689C16.5933 11.5689 16.5408 11.5834 16.4932 11.6027C16.4455 11.6221 16.4217 11.6124 16.4408 11.5882C16.4551 11.5592 16.4265 11.5156 16.3741 11.4818C16.2978 11.4334 16.2835 11.4382 16.2835 11.5011C16.2835 11.5398 16.2597 11.5592 16.2359 11.5447C16.2073 11.5253 16.2025 11.4914 16.2168 11.4624C16.2359 11.4334 16.1501 11.4672 16.0357 11.5398C15.8451 11.6511 15.8117 11.6608 15.7593 11.593C15.7117 11.535 15.6831 11.5301 15.6259 11.5785C15.5878 11.6124 15.5068 11.6318 15.4496 11.6269C15.3876 11.6172 15.3257 11.6318 15.3114 11.6608C15.2923 11.6898 15.2494 11.6995 15.2113 11.685C15.1732 11.6656 15.1494 11.6366 15.1637 11.6172C15.178 11.5979 15.1541 11.564 15.1112 11.5495C15.0588 11.5301 15.0398 11.5398 15.0588 11.5882C15.0969 11.6898 14.8825 11.7721 14.7777 11.6947C14.7252 11.6559 14.711 11.6076 14.7348 11.564C14.7586 11.5253 14.7252 11.5398 14.6633 11.593C14.5871 11.6608 14.5489 11.6705 14.5346 11.6269C14.5203 11.5979 14.4917 11.5689 14.4679 11.5689C14.4393 11.5689 14.4346 11.5882 14.4489 11.6172C14.4632 11.6414 14.4489 11.6705 14.4155 11.6705C14.2535 11.6898 14.1201 11.6608 14.0819 11.6076C14.0581 11.564 14.0438 11.564 14.0438 11.6027C14.0438 11.6318 13.9771 11.6947 13.8961 11.7334C13.7484 11.8059 13.7484 11.8059 13.7674 11.6898C13.7817 11.6172 13.7674 11.564 13.7245 11.5495C13.6864 11.535 13.6626 11.5495 13.6673 11.5834C13.6816 11.714 13.6578 11.7382 13.5006 11.743C13.41 11.743 13.3433 11.7285 13.3576 11.7092C13.3671 11.6898 13.3528 11.6559 13.3242 11.6366C13.2909 11.6172 13.248 11.6414 13.2242 11.6898C13.186 11.7575 13.167 11.7624 13.1336 11.7092C13.1003 11.6559 13.0907 11.6559 13.0907 11.7043C13.0907 11.743 13.0574 11.7575 13.0002 11.7382C12.9525 11.7237 12.8858 11.743 12.8525 11.7866C12.7762 11.8833 12.6952 11.8301 12.7381 11.7043C12.7572 11.6366 12.7476 11.6172 12.7143 11.6366C12.6857 11.6559 12.6619 11.6463 12.6619 11.6172C12.6619 11.5882 12.6428 11.5785 12.6142 11.593C12.5904 11.6076 12.5666 11.5979 12.5666 11.564C12.5666 11.5301 12.5523 11.5205 12.538 11.535C12.5189 11.5543 12.5284 11.5979 12.557 11.6318C12.5999 11.6801 12.5999 11.6995 12.5523 11.6995C12.5237 11.6995 12.4427 11.714 12.3807 11.7334C12.3045 11.7624 12.2806 11.7575 12.2997 11.7188C12.3235 11.685 12.2949 11.6656 12.233 11.6656C12.1758 11.6656 12.1472 11.6414 12.1615 11.6172C12.2092 11.5398 12.1567 11.564 12.0853 11.6511C12.0471 11.6947 12.0424 11.7188 12.0662 11.7043C12.0948 11.685 12.1472 11.6898 12.1853 11.7188C12.2425 11.7527 12.233 11.7624 12.152 11.7624C12.0948 11.7624 12.0328 11.7382 12.0185 11.714C11.9995 11.6801 11.9661 11.6801 11.9328 11.7043C11.8518 11.7672 11.7136 11.7575 11.7421 11.685C11.7707 11.6027 11.6754 11.5543 11.6278 11.6269C11.6087 11.6608 11.5897 11.7092 11.5897 11.7334C11.5897 11.7575 11.5611 11.7866 11.5325 11.7963C11.4991 11.8108 11.4705 11.7817 11.4705 11.7382C11.4705 11.6753 11.4562 11.6656 11.4086 11.7043C11.3705 11.7382 11.318 11.7334 11.237 11.6898C11.1322 11.6366 11.1084 11.6414 11.0321 11.7334C10.9845 11.7914 10.9511 11.8059 10.9463 11.7721C10.9463 11.7285 10.8939 11.7237 10.751 11.743C10.6223 11.7672 10.5413 11.7575 10.5222 11.7188C10.5032 11.6898 10.4507 11.6753 10.4079 11.6947C10.3364 11.7188 10.3364 11.7334 10.4221 11.8446C10.5222 11.9753 10.5127 12.0527 10.3888 12.0527C10.3459 12.0527 10.3268 12.0817 10.3459 12.1253C10.3602 12.164 10.3507 12.1978 10.3268 12.1978C10.2983 12.1978 10.2792 12.1785 10.2792 12.1591C10.2792 12.1349 10.222 12.0914 10.1505 12.0575C10.079 12.0237 10.0409 11.985 10.0695 11.9656C10.141 11.9075 10.141 11.8108 10.0647 11.8108C10.0266 11.8108 9.99327 11.7866 9.99327 11.7527C9.99327 11.7237 9.94562 11.743 9.88367 11.8011C9.80266 11.8785 9.75977 11.893 9.72165 11.8543C9.69305 11.8253 9.67876 11.7721 9.68829 11.743C9.69782 11.714 9.65493 11.685 9.58822 11.685C9.5215 11.6801 9.46908 11.6947 9.46908 11.7237C9.46908 11.7479 9.45002 11.7575 9.42619 11.7382C9.40237 11.7237 9.36901 11.7334 9.34995 11.7624C9.3023 11.8398 9.16887 11.8204 9.19746 11.743C9.21652 11.6947 9.20222 11.6801 9.15457 11.6995C9.12121 11.714 9.08786 11.743 9.08786 11.7672C9.08786 11.7914 9.0545 11.8108 9.01161 11.8108C8.97349 11.8108 8.95443 11.7914 8.96872 11.7624C8.98302 11.7334 8.96396 11.7285 8.92583 11.743C8.88295 11.7575 8.84959 11.7914 8.84959 11.8204C8.84959 11.8446 8.83053 11.8495 8.80194 11.835C8.77811 11.8204 8.75428 11.8301 8.75428 11.8543C8.75428 11.9414 8.63038 11.9124 8.53984 11.8108C8.49219 11.7575 8.435 11.7285 8.40641 11.7479C8.37782 11.7624 8.37305 11.7527 8.39212 11.7237C8.41118 11.6898 8.38735 11.6753 8.3254 11.6801C8.27298 11.685 8.23009 11.714 8.23009 11.7479C8.23009 11.7817 8.19674 11.8108 8.15862 11.8108C8.12049 11.8108 8.10143 11.7817 8.11573 11.743C8.14908 11.6608 8.02042 11.6656 7.93464 11.7527C7.90129 11.7866 7.85363 11.7914 7.79645 11.7624C7.73926 11.7285 7.70591 11.7334 7.68685 11.7866C7.67255 11.8253 7.63443 11.8592 7.60107 11.8543C7.55818 11.8543 7.55342 11.8446 7.5963 11.8301C7.65825 11.8011 7.6249 11.6656 7.55342 11.6656C7.52959 11.6656 7.52482 11.6947 7.54389 11.7237C7.57248 11.7721 7.56295 11.7721 7.50576 11.7237C7.44381 11.6753 7.42475 11.6753 7.40569 11.7285C7.3914 11.7672 7.32468 11.8108 7.25797 11.8204C7.14836 11.8446 7.13883 11.8301 7.15313 11.7285C7.17219 11.6318 7.16266 11.6172 7.08641 11.6414C7.03876 11.6559 6.96728 11.6366 6.92916 11.593C6.87674 11.5447 6.84338 11.535 6.82432 11.5737C6.80526 11.6027 6.76237 11.6124 6.72901 11.5979C6.69566 11.5882 6.648 11.5979 6.61941 11.6269C6.55746 11.6898 6.39544 11.5495 6.44309 11.4721C6.45739 11.4479 6.44786 11.4237 6.42403 11.4237C6.39544 11.4237 6.37161 11.4672 6.37161 11.5156C6.37161 11.5689 6.34302 11.6269 6.31443 11.6463C6.28107 11.6656 6.26678 11.6656 6.28584 11.6414C6.3049 11.6221 6.30013 11.5737 6.26678 11.535C6.22389 11.4818 6.20483 11.4818 6.13811 11.5398C6.04757 11.6172 5.8236 11.6947 5.86172 11.6318C5.87602 11.6124 5.86172 11.5543 5.82836 11.5108C5.77595 11.4382 5.76642 11.4382 5.70923 11.5301C5.65205 11.6221 5.65681 11.6269 5.73782 11.5979C5.80454 11.5689 5.8093 11.5785 5.76642 11.6221C5.73782 11.6511 5.6854 11.6608 5.64728 11.6366C5.5758 11.593 5.38519 11.6076 5.27559 11.6656C5.15645 11.7285 4.83717 11.7672 4.87053 11.714C4.90865 11.6559 4.84194 11.6511 4.68945 11.7092C4.58461 11.7479 4.57508 11.743 4.58938 11.6366C4.59414 11.564 4.57508 11.5205 4.53219 11.5205C4.49407 11.5205 4.47024 11.535 4.47501 11.5543C4.47501 11.5785 4.45595 11.6463 4.42736 11.714C4.38923 11.8108 4.37494 11.8156 4.37494 11.743C4.37017 11.685 4.34634 11.6656 4.29869 11.685C4.26057 11.6995 4.19862 11.6656 4.1605 11.6076C4.09378 11.5156 4.08425 11.5108 4.05566 11.5834C4.04136 11.6269 4.00801 11.6559 3.98894 11.6414C3.96988 11.6269 3.927 11.6511 3.89364 11.6898C3.84598 11.7527 3.82692 11.7479 3.76021 11.6801C3.70779 11.6318 3.6792 11.6221 3.6649 11.6608C3.65537 11.6898 3.62678 11.7043 3.60295 11.685C3.57913 11.6705 3.56006 11.6947 3.56006 11.7334C3.56006 11.7817 3.53147 11.7963 3.48858 11.7817C3.45046 11.7624 3.4171 11.7769 3.4171 11.8059C3.4171 11.835 3.39328 11.8592 3.36469 11.8592C3.34086 11.8592 3.33133 11.835 3.34562 11.8108C3.35992 11.7817 3.34562 11.7624 3.30274 11.7624C3.26461 11.7624 3.22649 11.7914 3.21219 11.8204C3.1979 11.8688 3.17884 11.8688 3.11689 11.8156C3.05017 11.7624 3.03111 11.7624 3.00729 11.8301C2.99299 11.8737 2.95963 11.9075 2.93104 11.9075C2.90721 11.9075 2.90245 11.8833 2.92151 11.8543C2.94057 11.8156 2.91674 11.8108 2.85003 11.835C2.77378 11.8592 2.74519 11.8495 2.75472 11.8011C2.76902 11.685 2.74996 11.6172 2.7023 11.6172C2.67848 11.6172 2.65465 11.6511 2.65465 11.6898C2.65465 11.7866 2.54028 11.7817 2.44021 11.685C2.36873 11.6124 2.35443 11.6124 2.25436 11.714C2.18288 11.7817 2.13046 11.8011 2.10664 11.7672C2.09234 11.7382 2.08758 11.6947 2.10187 11.6705C2.11617 11.6463 2.09234 11.6124 2.04945 11.5979C1.97797 11.5689 1.97797 11.5592 2.04469 11.4866C2.10187 11.4334 2.1114 11.3802 2.07804 11.2834C2.03516 11.1479 2.04469 10.9205 2.10664 10.7802C2.1257 10.7318 2.12093 10.6157 2.09234 10.5238C2.05898 10.4125 2.05898 10.3496 2.09234 10.3302C2.12093 10.3109 2.1257 10.2335 2.10664 10.1464C2.05422 9.88994 2.04469 9.68189 2.08281 9.70609C2.10664 9.7206 2.1114 9.68673 2.09711 9.63351C2.08281 9.58029 2.09711 9.50288 2.13046 9.46417C2.15906 9.42546 2.17335 9.37224 2.15429 9.34321C2.13999 9.31902 2.15429 9.29483 2.18765 9.28999C2.23054 9.28999 2.2353 9.28031 2.19241 9.2658C2.15906 9.25128 2.14952 9.20774 2.16382 9.16903C2.17812 9.13032 2.16382 9.10129 2.13523 9.10129C2.10664 9.10129 2.08281 9.13516 2.08281 9.17871C2.08281 9.21741 2.06375 9.23677 2.03516 9.22225C2.00656 9.2029 2.02086 9.14484 2.06851 9.07226C2.11617 8.99001 2.15906 8.97066 2.17812 9.00452C2.2353 9.10129 2.27342 8.92711 2.22577 8.76744C2.19718 8.66584 2.20194 8.63197 2.24007 8.64649C2.30678 8.67068 2.31631 8.39005 2.25913 8.28845C2.2353 8.25458 2.2496 8.21587 2.29725 8.20136C2.35443 8.17717 2.36873 8.13362 2.34967 8.05621C2.33061 7.98847 2.34014 7.94009 2.36873 7.94009C2.39732 7.94009 2.40685 7.96912 2.38779 7.99815C2.36396 8.04169 2.36873 8.04653 2.40685 8.01266C2.43544 7.98363 2.46404 7.87235 2.4688 7.75623C2.47833 7.64495 2.50692 7.55302 2.53552 7.55302C2.56411 7.55302 2.61653 7.48044 2.64988 7.39335C2.70707 7.2482 2.95963 7.04015 3.05017 7.05951C3.08353 7.06918 3.10259 6.99177 3.0883 6.90952C3.08353 6.88532 3.10259 6.88049 3.12642 6.895C3.15025 6.91436 3.1836 6.90468 3.20266 6.87565C3.22173 6.84662 3.25508 6.84178 3.28367 6.85629C3.31227 6.87565 3.3218 6.86597 3.3075 6.84178C3.25985 6.76437 3.4314 6.6047 3.53624 6.62405C3.61725 6.64341 3.62201 6.63373 3.56006 6.55632C3.50288 6.4789 3.50288 6.47407 3.56006 6.52245C3.64108 6.59986 3.79833 6.6047 3.79833 6.53213C3.79833 6.5031 3.83645 6.48858 3.88887 6.5031C4.01277 6.53213 4.15097 6.44987 4.08902 6.3773C4.05566 6.33375 4.10331 6.31924 4.26533 6.3144C4.38923 6.30956 4.53219 6.30472 4.58461 6.29505C4.63703 6.29021 4.81811 6.29988 4.98967 6.3144C5.28988 6.34343 5.76642 6.27569 5.88078 6.1886C5.91414 6.16441 5.9475 6.16441 5.96179 6.19344C5.98562 6.22731 6.03327 6.22731 6.11428 6.19828C6.27154 6.13538 6.2906 6.13538 6.24771 6.20795C6.22389 6.24666 6.23818 6.2515 6.3049 6.22731C6.41927 6.17892 6.81479 6.17409 7.05306 6.22247C7.16742 6.24182 7.25797 6.23215 7.30085 6.19828C7.33898 6.16925 7.41046 6.15473 7.46764 6.17409C7.52006 6.1886 7.56295 6.18376 7.56295 6.15957C7.56295 6.13054 7.64396 6.13054 7.76309 6.14989C7.90129 6.17892 7.97753 6.17409 8.00136 6.13538C8.02519 6.09667 8.04425 6.11119 8.06807 6.16925C8.10143 6.25634 8.1062 6.25634 8.16815 6.16925C8.2015 6.12086 8.23009 6.10151 8.23009 6.13054C8.23009 6.15473 8.38259 6.17892 8.56843 6.18376C8.75428 6.1886 8.9163 6.20312 8.9306 6.21763C8.9449 6.22731 8.91154 6.29988 8.86865 6.37246C8.79717 6.4789 8.7924 6.50793 8.84482 6.52729C8.88771 6.5418 8.89248 6.55632 8.85435 6.58535C8.7924 6.61922 8.83529 6.77888 8.90677 6.77888C8.9306 6.77888 8.94013 6.75953 8.92583 6.73534C8.91154 6.71114 8.9306 6.68211 8.96872 6.6676C9.01638 6.64824 9.02591 6.66276 9.00684 6.71598C8.98778 6.76921 8.99731 6.78372 9.03067 6.75953C9.06879 6.73534 9.07832 6.74985 9.05926 6.79823C9.04497 6.84178 9.00208 6.87565 8.96872 6.87565C8.92583 6.87565 8.91154 6.95306 8.92583 7.17079C8.9449 7.39819 8.93536 7.45625 8.88771 7.42722C8.84006 7.39819 8.84482 7.41271 8.89248 7.47077C8.92583 7.51431 8.98302 7.55302 9.02114 7.55302C9.06879 7.55302 9.06879 7.57721 9.01638 7.68365C8.96872 7.77074 8.96396 7.83364 8.99255 7.86267C9.02114 7.8917 9.0402 7.94976 9.0402 7.99331C9.0402 8.05137 9.06879 8.07072 9.13074 8.05137C9.20699 8.03201 9.22128 8.04653 9.19746 8.12878C9.18316 8.182 9.18793 8.28361 9.20222 8.35135C9.22605 8.44811 9.25464 8.47231 9.32136 8.44811C9.42619 8.41425 9.48814 8.57875 9.40713 8.661C9.37378 8.69487 9.38331 8.71906 9.44049 8.74325C9.49291 8.76261 9.54056 8.75293 9.56439 8.71422C9.58822 8.67552 9.60728 8.67068 9.6311 8.70938C9.65017 8.73841 9.65017 8.78196 9.63587 8.81099C9.62157 8.83518 9.64063 8.85938 9.67876 8.85938C9.71688 8.85938 9.76453 8.83518 9.77883 8.81099C9.79789 8.78196 9.83125 8.77228 9.85507 8.79164C9.88367 8.80615 9.8789 8.8497 9.84078 8.89808C9.80266 8.94646 9.80266 8.96098 9.83601 8.94163C9.86461 8.92227 9.89796 8.93195 9.90749 8.96098C9.91702 8.99485 9.98374 9.02388 10.0552 9.03356C10.1267 9.03839 10.2315 9.06259 10.284 9.0771C10.3697 9.10613 10.384 9.09645 10.3602 9.03356C10.3316 8.96582 10.3459 8.96098 10.4221 9.00452C10.4793 9.03356 10.5175 9.03839 10.5175 9.00936C10.5175 8.98517 10.4889 8.95614 10.4603 8.94163C10.4269 8.93195 10.4126 8.90292 10.4364 8.88357C10.4555 8.85938 10.5032 8.88357 10.546 8.93679C10.5985 8.99969 10.6271 9.00936 10.6414 8.96582C10.6795 8.88357 10.7557 8.89324 10.7557 8.98517C10.7557 9.02388 10.7796 9.04323 10.8034 9.02872C10.832 9.0142 10.851 9.02388 10.851 9.05775C10.851 9.09162 10.8653 9.10129 10.8796 9.08678C10.8987 9.06742 10.8844 9.02388 10.851 8.98033C10.8177 8.94163 10.8129 8.90776 10.8415 8.90776C10.8653 8.90776 10.8987 8.87389 10.913 8.84002C10.932 8.79164 10.9177 8.77712 10.8701 8.79648C10.8367 8.81099 10.8034 8.79648 10.8034 8.76744C10.8034 8.73841 10.8701 8.71422 10.9511 8.71422C11.0321 8.71422 11.0845 8.69487 11.0655 8.66584C11.0512 8.63681 11.0559 8.61746 11.0845 8.61746C11.1084 8.61746 11.1465 8.661 11.1608 8.71906C11.1846 8.79648 11.2037 8.80615 11.2608 8.75777C11.318 8.71422 11.318 8.68519 11.2704 8.62713C11.237 8.58359 11.2323 8.56423 11.2608 8.58359C11.3323 8.62713 11.4896 8.44328 11.4562 8.35619C11.4372 8.3078 11.4515 8.29329 11.4991 8.31264C11.5468 8.33199 11.5658 8.30296 11.5658 8.21103C11.5658 8.1433 11.542 8.08524 11.5134 8.08524C11.4753 8.08524 11.4801 8.06104 11.5229 8.00782C11.5992 7.9159 11.6135 7.84332 11.6325 7.52399C11.6421 7.38851 11.6611 7.25304 11.6802 7.21917C11.704 7.1853 11.685 7.17563 11.6278 7.19498C11.5515 7.22401 11.5515 7.21917 11.6325 7.15627C11.704 7.10305 11.7088 7.06434 11.6754 6.99661C11.6373 6.92887 11.6468 6.88532 11.704 6.81759C11.7898 6.7305 11.8041 6.6047 11.7469 6.50793C11.7279 6.4789 11.7564 6.42084 11.8041 6.3773C11.8565 6.33375 11.8851 6.27085 11.8756 6.23699C11.8565 6.1886 11.928 6.16925 12.1663 6.16441C12.3712 6.15957 12.4998 6.13054 12.5237 6.09184C12.5523 6.04829 12.5666 6.05797 12.5666 6.1257C12.5666 6.19828 12.5761 6.20795 12.6094 6.15473C12.6333 6.12086 12.6714 6.10151 12.6952 6.11603C12.719 6.13054 12.8668 6.1257 13.024 6.10635C13.1813 6.08216 13.3099 6.08216 13.3195 6.10635C13.3433 6.17409 13.472 6.15957 13.472 6.087C13.472 6.04829 13.553 6.02894 13.7198 6.03378C13.858 6.03378 14.0104 6.01442 14.0629 5.98539C14.1296 5.94668 14.1582 5.94668 14.1772 5.99991C14.1915 6.04345 14.2058 6.04829 14.2344 6.00958C14.2582 5.96604 14.3011 5.96604 14.4012 6.00474C14.487 6.03861 14.5537 6.03861 14.5871 6.00958C14.6252 5.97571 14.7157 5.98055 14.8444 6.01442C15.0016 6.05313 15.0779 6.05313 15.178 6.00474C15.2494 5.96604 15.3495 5.93701 15.4019 5.93217C15.4543 5.92733 15.5115 5.91765 15.5354 5.91282C15.5544 5.90314 15.6259 5.8983 15.7021 5.89346C15.7736 5.89346 15.8451 5.86927 15.8594 5.84508C15.8785 5.82089 15.9213 5.81605 15.9547 5.8354C16.0405 5.89346 16.4265 5.90798 16.4265 5.85476C16.4265 5.83056 16.4884 5.82573 16.5694 5.84024C16.6743 5.86443 16.7172 5.84992 16.741 5.79186C16.7553 5.74831 16.7886 5.71444 16.8172 5.71444C16.8411 5.71444 16.8458 5.7338 16.8315 5.76283Z" fill="black"/>
</svg>
