<svg width="202" height="184" viewBox="0 0 202 184" fill="none" xmlns="http://www.w3.org/2000/svg">
<path d="M41.6116 90.0929C41.8363 89.1305 42.7983 88.2665 41.9978 87.1707C42.5876 83.8129 43.1213 80.4621 44.4976 77.2729C45.1647 75.7415 46.4006 74.5122 46.7025 72.8192L47.4047 72.4188C47.6083 72.0465 48.9004 71.7164 47.4609 71.2668C48.2945 70.4746 48.9544 69.5177 49.3989 68.4569C50.9508 67.3751 50.5505 65.5768 50.8665 64.1157C51.3565 62.1549 51.2872 60.0961 50.6667 58.1727C50.0461 56.2494 48.899 54.5386 47.3555 53.2344C47.0115 51.8295 45.6281 51.2184 44.7715 50.2279C42.2225 47.2845 42.0891 46.4205 44.5327 43.3999C44.7346 43.1214 44.902 42.8195 45.0313 42.5007C45.1777 42.5128 45.3242 42.4786 45.4501 42.403C45.5761 42.3274 45.6752 42.2142 45.7335 42.0793C46.1127 41.0115 47.3345 40.6743 47.84 39.74C47.8506 39.6068 47.8506 39.4729 47.84 39.3396C47.84 39.1851 47.84 39.0376 47.84 38.89H48.6054C48.8301 39.0867 48.9355 38.9743 48.9987 38.7425C48.9917 38.6162 48.9917 38.4895 48.9987 38.3632C49.5253 38.1384 49.9326 37.4219 50.6418 37.9558C50.6581 38.0036 50.6818 38.0487 50.712 38.0892C50.712 38.0892 50.7822 38.0892 50.8173 38.1244L50.6488 37.9487C50.5154 37.4078 50.375 36.8669 50.2416 36.326L51.1193 35.4761C51.1193 35.3215 51.1614 35.174 51.1895 35.0195C51.2963 35.0221 51.4023 35.0003 51.4994 34.9558C51.5965 34.9112 51.6821 34.8452 51.7498 34.7625C51.8175 34.6799 51.8655 34.5829 51.8901 34.4789C51.9147 34.3749 51.9152 34.2667 51.8917 34.1624C52.0054 34.1935 52.1251 34.1955 52.2398 34.1682C52.3544 34.1408 52.4604 34.085 52.5478 34.006C52.6353 33.9269 52.7014 33.827 52.7401 33.7157C52.7789 33.6043 52.7889 33.485 52.7694 33.3687C52.8956 33.3792 53.0225 33.3792 53.1486 33.3687L53.5699 33.4459C53.907 33.8674 54.3775 33.7831 54.8269 33.7691L55.2271 33.8955L55.5361 34.1905L55.6274 34.2819V34.4083C55.7327 34.5769 55.8029 34.8087 55.9574 34.893C57.9867 36.0029 60.1706 37.0004 59.033 40.014C57.7059 39.7962 56.8562 38.7215 55.7397 38.1173C54.3775 37.4149 53.1416 37.5975 52.6711 39.164C52.5782 39.5257 52.3558 39.8406 52.0462 40.0491C50.8735 39.9016 50.1854 40.295 50.2977 41.6016C50.0469 41.6095 49.8042 41.6918 49.6004 41.8382C49.3965 41.9845 49.2408 42.1883 49.1531 42.4235C48.6125 42.6904 48.6546 43.1962 48.6405 43.6739L48.458 44.1375C48.4049 44.1551 48.3574 44.1865 48.3204 44.2284C48.2834 44.2704 48.2582 44.3214 48.2473 44.3763C46.8991 45.3036 46.4918 46.4837 47.5451 47.8254C48.5071 49.0407 49.6517 49.989 50.5084 51.4361C51.3651 52.8832 52.615 54.1406 53.5629 55.6018C53.9983 56.3042 54.9673 56.9154 54.6232 57.948C53.921 59.9079 54.883 61.8397 54.7567 63.8347C54.7318 65.8039 54.2152 67.7357 53.254 69.4544C51.1474 72.9246 48.9706 76.3386 47.4187 80.1038C46.7997 81.3268 46.3283 82.619 46.0143 83.9534C45.7826 85.7025 45.6913 87.543 45.6281 89.3483C45.5088 93.1978 45.0804 97.0755 45.2419 100.904C45.2911 101.88 45.3683 102.414 46.6463 102.625C48.349 103.005 49.9994 103.59 51.5617 104.367C51.9409 104.529 52.0672 104.887 52.629 104.641C53.3663 104.332 53.0293 103.812 52.9801 103.447C52.4377 100.293 52.2797 97.0851 52.5096 93.8933C52.9239 89.8681 53.5208 85.9203 55.0446 82.0988C56.8492 77.589 59.0681 73.2126 59.9599 68.3656C60.5863 64.5884 60.211 60.7128 58.8715 57.1261C57.7951 54.0932 56.2887 51.2307 54.3985 48.6263C53.2469 47.0387 53.7525 45.8164 54.869 44.6222C55.9855 43.428 57.095 42.9854 58.6749 43.6879C62.4948 45.3668 66.708 46.1817 70.4296 48.1556C72.9294 49.4833 75.6609 49.2444 78.1959 49.0969C83.673 48.7808 89.2063 48.3453 94.3463 46.1817C96.4529 45.2825 98.9948 45.2474 100.666 43.1611C101.087 42.6342 102.548 42.6342 103.152 43.2383C104.437 44.5168 105.961 44.9594 107.618 45.5705C113.235 47.6779 118.916 49.2304 124.962 49.125C126.956 49.0899 128.95 48.9002 130.945 48.8862C133.192 48.8862 134.659 47.0176 136.822 46.6102C139.518 46.0974 142.44 46.0412 144.68 43.8354C145.887 42.6483 147.678 43.2102 148.738 44.4114C149.799 45.6127 150.297 46.9122 149.167 48.6263C146.716 52.4055 144.392 56.3534 143.893 60.9405C143.598 63.652 143.373 66.4479 144.195 69.2086C145.178 72.5453 147.418 75.3271 148.317 78.6427C149.019 81.3613 150.676 83.7426 151.006 86.6017C151.364 89.7347 151.807 92.8466 152.01 96.0147C152.193 98.4503 152.228 100.895 152.116 103.334C151.582 103.819 151.8 104.444 151.786 105.027C151.772 105.61 151.73 106.102 151.708 106.643L151.378 107.114C151.954 107.556 149.974 108.364 151.61 108.652L152.179 108.392L153.654 108.245C153.832 108.3 154.022 108.302 154.202 108.251C154.381 108.2 154.542 108.098 154.665 107.957C155.964 107.486 157.382 107.142 157.544 105.386C158.358 104.634 157.853 103.672 157.937 102.801C157.935 102.685 157.911 102.57 157.867 102.463C157.937 101.761 158.014 101.101 158.084 100.419L158.337 99.8502C157.846 99.1477 158.337 98.8316 158.857 98.5225V98.3891C158.899 98.3139 158.946 98.2412 158.997 98.1713L158.78 98.3118C158.65 98.3116 158.52 98.3257 158.393 98.3539C158.07 98.2556 158.035 98.0449 158.155 97.7639C158.285 97.6161 158.353 97.4227 158.342 97.2255C158.332 97.0283 158.244 96.8432 158.098 96.7102C158.098 96.2957 158.098 95.8742 158.098 95.4598C158.716 95.4176 158.801 95.0102 158.801 94.4974C160.015 92.5164 157.909 90.395 159.046 88.414L158.85 88.3508C158.861 88.2431 158.847 88.1343 158.809 88.0329C158.772 87.9315 158.711 87.8401 158.632 87.766C158.553 87.6919 158.458 87.637 158.355 87.6056C158.251 87.5742 158.142 87.5672 158.035 87.5851C156.849 86.117 157.698 84.143 156.778 82.6046L156.547 82.2253C155.985 80.3286 155.725 78.3125 154.307 76.7671C154.302 76.7013 154.283 76.6374 154.25 76.5802C154.217 76.523 154.172 76.474 154.117 76.437L153.885 75.9733L153.569 75.1655L153.457 74.7581L153.12 74.3085L153.078 74.2453L152.692 73.5428L152.221 72.7139C152.137 72.4469 152.06 72.173 151.982 71.906C150.789 71.2668 150.332 70.0656 149.735 68.9767L149.461 68.5763L149.335 68.1127C149.335 67.9582 149.335 67.8036 149.286 67.6491C149.246 67.6073 149.224 67.552 149.224 67.4945C149.224 67.437 149.246 67.3817 149.286 67.34C149.609 67.2838 150.065 67.2697 149.988 66.8272C149.911 66.3846 149.454 66.5111 149.124 66.483L148.956 66.0123C148.549 64.1157 150.262 62.205 148.956 60.3083C148.956 59.8868 148.956 59.4583 148.956 59.0368C150.522 58.2571 150.487 57.0769 149.77 55.7282C151.421 55.5596 152.095 54.6745 151.364 53.6208C151.364 52.258 152.572 51.8084 153.394 51.0779C154.391 50.7196 155.03 50.1436 154.686 48.9705L156.434 47.0176C156.49 47.0176 156.589 46.9684 156.596 46.9333C156.594 46.8247 156.582 46.7166 156.561 46.6102C156.503 46.1572 156.347 45.7223 156.105 45.3354C155.862 44.9485 155.539 44.6188 155.156 44.3693C155.144 44.3149 155.118 44.2645 155.082 44.2228C155.045 44.181 154.998 44.1493 154.946 44.1305C154.798 43.5263 153.618 43.4982 154.061 42.585C154.665 41.3276 153.492 41.8193 153.078 41.5594C153.127 40.8218 152.748 40.9553 152.319 41.1871C151.786 40.4425 150.915 40.0491 150.753 38.883C150.592 37.7169 148.647 37.2884 147.643 38.1806C146.759 38.7871 145.845 39.3475 144.904 39.8595C144.305 40.3267 143.57 40.5868 142.811 40.6007C142.051 40.6146 141.307 40.3816 140.691 39.9367C140.691 39.5223 140.691 39.1008 140.691 38.6863L141.119 38.3351L141.534 38.0822L142.032 37.9558C143.121 38.6582 143.486 38.0049 143.661 37.0496C145.768 35.6446 147.467 33.5372 150.255 33.3687C150.374 33.3757 150.494 33.3757 150.613 33.3687L151.112 33.6286L151.252 33.7129C151.744 34.2116 152.537 34.5418 152.305 35.4761L152.642 35.8343C153.008 36.0217 153.322 36.2969 153.556 36.6351C153.79 36.9734 153.937 37.3644 153.984 37.7731C154.066 37.8421 154.162 37.8946 154.264 37.9277C154.371 37.9441 154.475 37.9748 154.573 38.019L154.405 38.7215C154.468 38.9533 154.573 39.0586 154.798 38.862C155.774 38.7144 155.802 39.2834 155.641 39.9859L155.901 40.3793L156.891 40.9904C156.895 41.0307 156.911 41.069 156.936 41.1011C156.96 41.1333 156.993 41.1581 157.031 41.1731C157.396 41.5173 157.733 41.8755 158.134 42.1987C158.15 42.2625 158.183 42.321 158.228 42.3689C158.274 42.4168 158.331 42.4524 158.393 42.4726C158.464 42.7396 158.527 43.0135 158.59 43.2875C157.789 44.6222 159.032 43.9338 159.404 44.1094L159.728 44.566L160.142 44.9875C160.991 45.6899 160.472 46.3924 160.205 47.0949C160.205 47.3056 160.268 47.5164 160.296 47.7271C160.219 48.1205 160.17 48.5279 159.742 48.7246L159.327 49.2795C158.657 50.4181 157.685 51.3492 156.518 51.97C154.63 52.4969 153.822 53.8737 153.59 55.7071L153.19 56.1356C152.858 56.3762 152.604 56.7084 152.458 57.0914C152.312 57.4745 152.281 57.8918 152.369 58.2922C152.361 58.4179 152.333 58.5414 152.284 58.6575C151.055 59.4653 151.105 60.2942 152.235 61.1442C152.235 61.4182 152.235 61.6922 152.284 61.9731C151.378 62.2471 151.196 62.6756 151.582 63.6239C151.968 64.5723 152.635 65.4714 151.94 66.4338C151.707 66.6737 151.577 66.995 151.577 67.3295C151.577 67.6639 151.707 67.9852 151.94 68.2251C152.537 69.047 153.176 68.8082 153.885 68.5834L153.955 68.6396C153.899 69.8408 153.906 71.0069 155.156 71.6883L155.627 72.2924C155.578 72.749 155.711 73.2758 155.107 73.5077C154.342 73.7957 154.58 74.2101 155.072 74.4911C156.554 75.306 156.568 75.2849 155.177 76.6758C156.217 77.6522 157.361 76.9146 158.471 76.8584C158.519 76.8913 158.555 76.9401 158.572 76.9965C158.588 77.053 158.585 77.1134 158.562 77.1675C158.688 77.3361 158.808 77.5117 158.934 77.6873C159.11 78.3898 158.428 79.4786 159.749 79.7947L159.861 80.5885L158.316 80.6939C158.899 81.1927 159.819 80.996 159.72 81.8741C159.51 84.1571 160.5 86.2785 160.591 88.5194C160.542 89.1095 161.469 88.7091 161.406 89.3132C161.525 90.5566 161.013 91.8561 161.743 93.0433L161.911 93.4788H161.75C161.482 93.9902 161.342 94.5591 161.342 95.1366C161.342 95.7142 161.482 96.2831 161.75 96.7945C161.785 97.0755 161.813 97.3494 161.841 97.6304C161.441 97.6726 160.823 97.7428 160.907 98.1502C160.978 98.4365 161.13 98.6964 161.344 98.8993C161.558 99.1022 161.825 99.2396 162.115 99.2953C162.115 99.5692 162.115 99.8432 162.115 100.117C161.525 100.258 161.258 100.489 161.883 100.96L161.764 102.611L161.476 103.11C161.869 103.763 160.809 105.442 162.592 105.055C164.939 104.652 167.188 103.808 169.221 102.569C169.221 101.164 169.706 99.7589 168.961 98.4242C168.996 96.9209 168.484 95.3755 169.355 93.9495C170.387 91.7367 172.29 91.3012 174.474 91.4136C177.867 91.6073 181.245 92.0203 184.585 92.6499C188.652 93.395 192.782 93.7315 196.916 93.6544C198.152 93.6544 199.156 94.7292 200.595 94.09C201.129 93.8441 202.147 95.1437 201.361 95.8672C199.17 97.8903 198.643 100.981 196.6 102.997C194.971 104.613 193.882 106.741 191.769 107.915C190.638 108.547 190.582 109.383 191.495 110.584C194.165 114.118 196.575 117.842 198.706 121.725C200.033 124.099 197.639 127.134 194.311 127.464C191.235 127.766 188.251 126.987 185.224 126.762C182.745 126.558 180.309 125.982 177.83 125.553C175.997 125.237 175.941 125.687 175.808 127.359C175.674 129.031 176.854 130.429 176.278 132.03C175.605 133.571 174.459 134.858 173.006 135.704C171.272 136.407 169.376 136.547 167.655 137.369C165.814 138.215 163.839 138.731 161.82 138.893C160.858 138.992 160.289 139.989 159.194 140.228C156.87 140.85 154.58 141.594 152.333 142.455C149.068 142.989 145.719 143.235 142.573 144.169C140.817 144.689 138.943 144.387 137.314 145.272L127.061 146.023C126.893 145.925 126.717 145.735 126.563 145.749C123.417 145.988 121.002 148.756 117.617 148.271C117.111 148.201 116.915 148.854 117.455 149.304C115.953 149.304 114.738 150.231 113.348 150.596C111.311 150.737 109.549 151.643 107.73 152.444C105.729 153.322 103.742 154.495 101.41 154.06C99.5004 154.06 97.8994 152.83 96.0526 152.704C93.0824 150.596 89.3958 150.519 86.1236 149.262C86.7415 148.559 86.2851 148.131 85.6883 148.222C83.7572 148.538 82.1773 147.449 80.3797 147.154C78.9753 145.672 77.0513 145.665 75.2747 145.693C72.4184 145.715 69.5651 145.504 66.7431 145.061L62.881 144.506C61.259 143.642 59.3701 143.6 57.6778 143.403C54.0615 142.975 50.705 141.675 47.1449 141.085C43.7814 139.188 40.0106 138.479 36.3662 137.39C34.4492 136.175 32.0196 136.252 30.1588 134.91C28.8036 133.365 27.2166 131.883 28.4385 129.529C28.9159 128.609 27.8486 127.422 29.0775 126.516C29.2741 126.368 27.8697 125.111 27.1675 125.483C25.3699 126.418 23.3124 126.052 21.5499 126.888C19.4434 127.858 17.2666 126.642 15.174 127.26C14.7758 127.361 14.3727 127.441 13.9663 127.499H10.5325C7.92037 126.797 5.30119 127.963 2.66797 127.436C1.74809 127.253 1.72001 126.98 1.96577 126.235C3.77743 120.152 7.58332 115.424 12.1546 110.921C9.12112 109.031 6.96539 106.137 4.5358 103.51C2.61881 101.508 1.40402 99.0283 0.287531 96.5908C-0.583188 94.7362 0.617562 93.5912 2.62583 93.535C7.54119 93.3945 12.4565 93.6966 17.3719 92.8325C21.7787 91.9147 26.2621 91.4138 30.7627 91.3363C32.0056 91.3363 32.9184 92.1722 34.0841 92.2495C35.2497 95.2982 35.5727 98.5015 35.8045 101.726C35.643 102.428 35.7413 103.131 36.5067 103.419C37.7215 103.868 38.9714 104.206 40.1861 104.648C42.0189 105.351 41.9276 104.255 41.7169 103.025C41.5063 101.796 41.3167 100.504 41.1201 99.2461C41.8223 96.668 41.3939 94.0197 41.5905 91.4065C42.1312 90.971 41.9206 90.5214 41.6116 90.0929ZM159.65 104.592L159.117 104.76L159.215 104.908L159.664 104.606L159.756 104.416L159.65 104.592ZM104.767 53.0378L104.226 53.6629C102.4 55.1522 100.61 56.6484 102.4 59.3951C103.566 58.3695 104.177 56.6484 105.624 56.1146C110.335 54.3865 115.138 53.8034 119.983 55.7071C120.363 55.8546 120.538 56.4939 121.142 55.9108C122.188 54.8923 123.347 53.9861 124.8 52.7357C119.021 52.9956 113.832 52.1737 108.945 49.9258C108.243 49.6027 107.849 49.9258 107.442 50.3965L104.753 53.0518L104.767 53.0378ZM149.335 111.272L148.907 111.511C148.106 111.954 147.074 111.286 146.344 112.045C144.167 112.452 142.011 112.93 139.82 113.239C136.125 113.783 132.398 114.088 128.662 114.152C124.969 114.209 121.289 114.855 117.575 114.981C115.187 115.066 112.835 115.494 110.434 115.628C103.911 115.944 97.3772 115.93 90.8564 115.585C86.896 115.396 82.8654 114.925 78.9191 114.412C76.0261 114.047 73.126 114.307 70.247 113.977C65.2825 113.415 60.4163 112.242 55.501 111.49C52.2392 110.918 49.0256 110.098 45.888 109.038C40.6075 107.409 35.4112 105.526 29.9411 103.637V107.465C29.3653 107.507 29.0494 106.474 28.2067 107.184C29.0143 107.886 28.7123 109.579 30.4186 109.565C30.545 110.654 29.9482 111.743 30.0605 112.726C30.5962 118.001 30.8306 123.301 30.7627 128.602C29.1336 129.754 30.3133 130.415 31.2051 131.131C30.2922 133.203 32.2584 133.175 33.1923 133.519C36.3662 134.7 39.6314 135.627 42.8404 136.709C45.6492 137.657 48.2684 139.062 51.1684 139.68C53.4225 140.165 55.6976 140.565 57.9727 140.966C63.1338 141.865 68.2317 143.115 73.5263 143.157C76.8406 143.157 80.162 143.509 83.4693 143.86C86.8119 144.263 90.1726 144.498 93.5388 144.562C96.5091 144.562 99.4934 144.359 102.429 144.562C107.698 145.041 113.005 144.902 118.242 144.148C125.053 143.087 131.963 143.607 138.732 142.258C142.243 141.556 145.754 140.909 149.265 140.151C149.584 140.282 149.933 140.323 150.274 140.268C150.615 140.214 150.934 140.066 151.196 139.842L152.158 139.701C152.579 139.793 152.993 139.877 153.239 139.392L153.773 139.329C154.108 139.424 154.464 139.413 154.793 139.299C155.122 139.185 155.408 138.972 155.613 138.69C157.277 138.345 158.758 137.446 160.331 136.976C163.793 135.936 167.192 134.735 170.612 133.59C173.076 132.761 174.01 131.812 173.526 129.473C172.606 125.076 173.975 120.749 173.582 116.351C173.413 114.476 173.231 112.171 173.884 110.5C174.811 108.097 173.708 106.004 174.151 103.58C173.16 104.135 172.198 104.051 171.559 104.753C165.24 106.327 159.166 108.694 153.029 110.851C151.765 110.535 150.641 111.82 149.335 111.237V111.272ZM182.865 123.664C183.567 124.479 184.578 124.198 185.358 124.261C188.63 124.514 191.958 125.905 195.188 124.106C195.94 123.685 197.056 123.544 195.89 122.104C195.162 121.221 194.529 120.262 194.002 119.245C193.131 117.482 191.944 115.916 191.003 114.216C190.175 112.726 188.679 111.975 187.64 110.703C186.706 109.579 187.057 108.968 187.591 108.54C189.544 106.938 191.356 105.171 193.004 103.257C194.465 101.599 196.199 100.047 196.789 97.7498C197.042 96.7593 196.958 95.5932 195.708 95.9937C193.714 96.6399 191.923 95.811 190.055 95.7267C187.106 95.5862 184.171 95.0734 181.229 94.7222C179.075 94.0956 176.843 93.7809 174.6 93.7879C173.701 93.7879 172.493 93.3173 172.135 94.2726C171.623 95.5441 173.378 95.3895 173.835 96.1622C173.933 96.3238 174.382 96.2325 174.593 96.366C175.153 96.6877 175.636 97.1279 176.008 97.6557C176.38 98.1834 176.633 98.7861 176.749 99.4217C177.226 102.787 176.622 106.186 176.805 109.607C177.056 113.157 176.85 116.724 176.194 120.222C175.85 121.887 176.131 123.088 178.378 123.2C179.866 123.285 181.376 123.481 182.865 123.629V123.664ZM27.5537 98.3891C28.4314 97.9676 28.5649 96.9279 29.246 96.3449C30.0184 96.4854 30.4608 95.9023 31.0506 95.5862C31.6405 95.2701 32.2443 94.961 32.0407 94.2726C31.8371 93.5842 30.9664 93.5701 30.3906 93.6334C27.9539 93.8582 25.4752 94.09 23.1018 94.4974C17.591 95.4985 11.9971 95.969 6.39661 95.9023C4.12853 95.8532 3.24376 97.3073 4.29003 99.4147C6.2983 103.299 9.55648 106.095 12.927 108.715C14.3665 109.832 14.7808 111.097 13.4326 112.6C10.5325 115.866 7.49203 119.07 5.40652 123.004C5.18884 123.411 4.52176 123.481 4.96414 124.268C5.06875 124.51 5.23578 124.719 5.44805 124.874C5.66032 125.03 5.91016 125.126 6.17191 125.153C7.90633 125.041 9.68287 125.301 11.326 125.153C16.5714 124.661 21.7606 123.622 26.9919 122.919C27.8907 122.8 27.9539 122.484 27.9118 121.816C27.7012 117.897 27.6028 113.963 27.2096 110.064C27.0902 108.849 28.2138 107.915 27.9118 107.121C26.8164 104.198 27.5958 101.29 27.5537 98.3891ZM117.147 107.992C122.167 107.711 127.188 107.331 132.216 107.212C132.83 107.243 133.437 107.072 133.945 106.724C134.452 106.376 134.831 105.872 135.024 105.287C135.439 103.06 136.745 101.129 136.899 98.8527C137.124 95.4809 137.033 95.3404 133.655 95.523C131.296 95.6705 128.957 96.092 126.633 96.2255C122.42 96.5065 118.207 95.8461 113.994 96.5065C113.629 96.5552 113.258 96.5172 112.911 96.3956C112.564 96.274 112.251 96.0723 111.996 95.8067C111.742 95.5412 111.554 95.2194 111.447 94.8674C111.34 94.5154 111.318 94.1431 111.382 93.7809C111.543 92.2003 111.22 90.6549 111.304 89.1024C111.304 88.6318 111.438 88.5545 110.897 88.4C107.948 87.4797 107.386 86.4401 107.955 83.574C108.292 81.9584 110.251 80.1741 111.761 80.1109C113.867 80.0195 116.072 81.4245 116.627 83.2509C117.329 85.4356 116.43 87.6202 114.45 88.4281C113.966 88.6248 113.6 88.6529 113.629 89.2851C113.585 90.3162 113.615 91.3492 113.72 92.3759C113.895 93.247 113.797 94.4833 115.623 93.9635C116.725 93.6829 117.868 93.5949 119 93.7036C124.618 94.2515 130.235 93.254 135.853 93.1768C136.26 93.1768 136.436 93.0995 136.555 92.671C136.85 91.3714 135.684 88.3578 134.449 87.9855C132.475 87.3744 132.574 85.9624 133.044 84.5505C134.069 81.2489 133.852 77.8489 133.648 74.5403C133.311 69.1313 130.06 65.914 124.709 65.1202C123.066 64.8814 121.9 64.4177 121.683 62.5843C121.666 61.967 121.484 61.3655 121.156 60.8422C120.51 60.0905 121.051 58.8542 120.075 58.3344C117.266 56.8451 114.218 56.9716 111.241 57.2807C106.157 57.8145 104.739 58.8963 104.669 63.2587C104.619 66.4479 103.58 69.4685 103.721 72.6647C103.77 73.894 104.051 74.0205 105.125 73.9994C107.99 73.9432 110.855 73.9994 113.72 73.9994C115.595 74.0415 117.392 74.7019 118.923 72.5945C119.625 71.611 121.514 71.1895 123.031 71.0701C126.107 70.768 128.796 74.1961 127.609 76.8725C126.64 79.0361 124.8 79.6824 122.631 79.7877C120.65 79.858 119 79.1766 118.045 77.3853C117.722 76.7952 117.596 76.5072 116.802 76.5142C113.095 76.5142 109.38 76.5142 105.68 76.3597C103.742 76.2613 103.503 77.301 103.489 78.7481C103.489 79.0782 103.608 79.4084 103.587 79.7315C103.117 86.7562 102.281 93.7106 102.583 100.742C102.646 102.253 103.433 102.779 104.83 102.491C105.834 102.281 106.986 102.611 107.779 102.351C109.184 101.908 111.992 104.29 111.929 100.532C111.929 100.159 112.631 99.5973 113.074 99.4358C114.914 98.7965 116.901 98.649 118.446 99.9064C119.611 100.862 120.138 102.084 119.274 103.988C117.94 106.896 115.763 108.118 113.228 106.186C111.768 105.091 110.209 104.887 108.657 104.718C106.887 104.529 105.055 104.866 103.264 104.536C102.667 104.423 102.66 104.711 102.506 105.147C101.804 107.198 102.162 107.767 104.43 107.844C108.594 108.006 112.863 108.167 117.147 107.992ZM99.9919 95.6073C98.398 96.9701 96.9585 96.3098 95.5681 96.3098C91.4603 96.3098 91.4182 96.373 92.4995 100.356C92.8244 101.461 92.8964 102.626 92.7102 103.763C92.1344 106.629 89.8242 105.814 87.9212 105.744C85.8849 105.667 84.5016 104.29 84.6209 102.323C84.7543 100.145 86.2079 99.0002 88.1319 98.3118C88.8341 98.0659 89.5363 98.0449 89.0728 96.9069C88.6094 95.7689 89.6276 94.7995 90.1191 93.8792C90.3227 93.4999 91.4673 93.7106 91.8886 93.7177C94.1076 93.7598 96.3054 93.1135 98.4963 93.4577C99.8585 93.6755 100.203 92.9168 100.301 91.9264C100.533 89.5029 100.596 87.0583 100.877 84.6418C101.038 83.2368 100.603 82.8716 99.2406 83.1455C98.0258 83.3844 96.7689 83.3984 95.533 83.5249C93.279 83.7567 92.4855 83.0261 92.5346 80.7852C92.4648 80.2536 92.4648 79.7152 92.5346 79.1836C93.3351 76.6477 91.8886 76.6547 89.9927 76.5142C88.6796 76.4159 88.4128 77.006 88.2442 77.87C87.9677 78.8783 87.4021 79.7834 86.6172 80.4738C85.8323 81.1641 84.8624 81.6094 83.8274 81.7546C82.7967 81.8461 81.7603 81.6591 80.8265 81.213C79.8927 80.7669 79.0957 80.0782 78.5189 79.2187C77.5077 77.884 78.2871 75.9663 78.4767 74.4279C78.8208 71.618 82.1422 70.3676 85.2037 72.0887C87.1207 73.1775 88.799 74.6878 91.4462 74.1399C94.6623 73.4374 95.3153 74.3225 94.9572 77.6031C94.578 80.7782 94.8098 81.017 97.8994 80.6307C98.2371 80.5566 98.5869 80.5566 98.9246 80.6307C100.764 81.277 101.228 80.4129 101.221 78.741C101.163 76.3977 101.229 74.0529 101.417 71.7164C101.741 67.5879 101.244 63.4362 99.9568 59.5005C99.852 59.0645 99.6208 58.6693 99.2922 58.3644C98.9637 58.0595 98.5524 57.8584 98.1101 57.7864C96.0033 57.3127 93.8363 57.1658 91.685 57.3509C86.9873 57.8778 83.6168 60.2872 82.7461 64.7057C82.3458 66.7288 81.3417 67.0871 79.7547 67.052C77.7946 66.9922 75.8751 67.6183 74.3268 68.8222C71.7076 70.768 70.5771 73.4936 70.1768 76.4931C69.8327 79.0431 70.0504 81.6633 69.91 84.2203C69.8398 85.5058 70.4156 85.9413 71.5321 86.3277C74.5164 87.4025 77.613 86.8194 80.6606 87.1566C80.9288 87.1973 81.2029 87.151 81.443 87.0247C81.6831 86.8983 81.8764 86.6983 81.9947 86.4541C83.7502 83.5811 87.1488 84.1782 89.2343 86.0327C90.8143 87.4376 90.4351 90.2475 88.497 92.2284C86.559 94.2094 82.402 93.3173 81.6998 90.676C81.2504 88.976 79.7898 88.8425 78.7225 89.1446C76.596 89.6981 74.3521 89.5977 72.2834 88.8566C70.2681 88.2314 69.0603 88.983 68.302 90.964C67.045 94.2305 67.4874 97.4969 68.4494 100.665C69.0533 102.688 70.3313 104.325 72.789 104.634C76.2999 105.063 79.7758 106.039 83.2727 106.531C88.4409 107.233 93.7003 107.184 98.9176 107.451C99.4723 107.451 100.097 107.549 100.097 106.706C99.999 103.152 99.9919 99.6043 99.9919 95.6073ZM145.22 48.2399L144.806 47.9027C143.057 48.8791 141.063 49.5746 139.624 50.8812C135.6 54.5481 131.829 58.4819 127.911 62.2682C127.083 63.069 127.581 63.5818 128.206 63.7855C130.547 64.5556 132.605 66.0058 134.119 67.9511C135.797 66.5462 137.686 65.1834 139.153 63.4975C139.652 62.9285 141.302 61.9169 139.898 60.5471C139.806 60.4628 139.855 60.1257 139.947 59.9641C141.414 57.3158 141.351 54.0282 143.598 51.6539C144.434 50.7899 144.701 49.3919 145.22 48.2399ZM65.6547 90.0648C63.1268 92.3759 60.6972 94.8276 58.0148 96.949C56.463 98.1853 56.8071 99.6395 56.9756 101.023C57.1371 102.281 58.5274 101.93 59.4333 102.175C59.9085 102.223 60.3682 102.371 60.7815 102.611C62.6704 104.29 64.7137 103.819 66.7501 103.313C65.3036 98.9019 63.829 94.659 65.6547 90.0648ZM81.0257 74.6105C81.6717 77.8068 82.4301 78.5233 84.5367 78.1229C85.8568 77.884 85.4565 76.8584 85.3863 76.2051C85.2599 74.7721 83.371 74.1118 81.0257 74.5754V74.6105ZM124.477 75.2428C124.543 75.0286 124.55 74.801 124.498 74.5832C124.447 74.3654 124.338 74.1651 124.184 74.003C124.03 73.8408 123.835 73.7225 123.62 73.6602C123.405 73.5978 123.178 73.5937 122.961 73.6482C122.692 73.6504 122.426 73.7077 122.18 73.8164C121.934 73.9251 121.713 74.083 121.53 74.2803C121.347 74.4777 121.207 74.7104 121.117 74.9641C121.027 75.2178 120.99 75.4871 121.009 75.7556C121.009 77.034 121.865 77.013 122.638 77.006C123.74 76.9849 124.73 76.6828 124.477 75.2076V75.2428ZM87.3665 88.119C87.3103 87.6062 86.552 87.2901 85.7304 87.262C84.5999 87.262 84.5718 88.2454 84.4313 88.9971C84.1926 90.3247 85.4565 89.8119 85.9481 89.9454C86.7415 90.1281 87.3595 89.5661 87.3665 88.0839V88.119ZM112.091 83.1104C110.904 83.0331 110.862 83.8129 110.785 84.5715C110.721 85.274 110.876 85.9765 111.564 85.843C112.365 85.6533 113.607 85.6885 113.671 84.3889C113.734 83.0893 112.652 83.3773 112.091 83.0753V83.1104ZM89.3888 102.913C89.6908 102.913 90.4281 103.124 90.2455 101.901C90.1261 101.058 89.9857 100.665 89.0377 100.827C88.3355 100.953 87.4648 100.7 87.4578 101.887C87.4508 103.075 88.2934 102.913 89.3888 102.913ZM114.148 104.248C115.054 103.84 116.76 104.831 116.641 102.794C116.599 102.091 116.381 101.803 115.749 101.754C113.755 101.599 115.012 103.615 114.148 104.262V104.248Z" fill="black"/>
<path d="M46.7019 72.8193C46.3999 74.5122 45.1641 75.7415 44.497 77.2729C43.0926 80.4621 42.587 83.8129 41.9972 87.1707C36.169 85.9765 30.3408 84.7682 24.7443 82.703C21.9355 81.6844 19.1829 80.7852 16.318 80.0406C15.0309 79.5899 13.8399 78.9013 12.807 78.0105C11.6835 77.1746 12.0487 76.1419 13.5443 75.6713C15.9085 74.9562 18.3519 74.5362 20.819 74.4209C28.7679 73.9573 36.6886 73.1916 44.5953 72.3135C45.3115 72.2643 46.1191 72.1098 46.7019 72.8193Z" fill="#AECDE9"/>
<path d="M59.0345 39.9849C60.137 36.9924 57.9883 35.9738 55.9589 34.8639C55.8045 34.7796 55.7342 34.5478 55.6289 34.3792C58.1708 35.2151 60.2634 36.88 62.5385 38.2006C63.0019 38.4676 63.4935 39.0225 63.9429 38.9804C67.5592 38.6221 70.7542 40.4275 74.1949 40.8841C75.7467 41.0948 77.3056 41.5022 78.8926 41.151C81.7013 41.1018 84.2714 40.0481 86.9678 39.5283C87.3259 39.4581 87.9649 39.4159 88.0351 38.7696C89.6606 38.3708 91.2049 37.6935 92.5994 36.7676C92.796 36.6973 92.9996 36.6482 93.1822 36.5639C97.1987 34.6883 100.991 32.0611 105.822 32.9743C106.763 34.0771 107.142 35.7841 108.939 35.9808C110.906 37.3436 113.307 37.8283 115.322 39.0717C116.431 39.8301 117.784 40.1458 119.114 39.9568C120.736 40.5047 122.323 41.1861 124.079 41.165C125.701 41.9518 127.4 41.2283 128.896 40.9684C132.631 40.3221 136.199 38.7345 140.131 38.9733C140.292 38.9733 140.461 38.7696 140.629 38.6643C140.629 39.0787 140.629 39.5002 140.629 39.9147C139.962 40.4345 140.531 42.289 139.773 41.8464C137.771 40.6733 136.262 42.2188 134.857 42.6402C132.534 43.3909 130.146 43.9201 127.723 44.2208C124.43 44.5931 121.13 44.9233 118.082 43.1109C116.881 44.2489 116.678 42.2328 115.414 42.3663C112.317 42.7105 109.937 40.2589 107.065 39.43C106.14 39.2573 105.308 38.7589 104.719 38.025C104.444 37.6483 104.092 37.3341 103.687 37.1029C103.282 36.8718 102.833 36.729 102.369 36.6839C101.904 36.6388 101.436 36.6924 100.994 36.8412C100.552 36.99 100.146 37.2307 99.8039 37.5473C98.9614 38.1953 98.0611 38.7643 97.1145 39.2473C95.6048 40.1113 93.7229 39.9498 92.4589 40.8981C89.8327 42.8791 86.6097 43.0055 83.7096 44.0522C80.9133 44.9214 77.9222 44.9409 75.1148 44.1084C74.3704 43.9187 73.7104 44.6001 72.938 44.1084C71.5336 43.0898 69.6447 42.8088 68.1209 42.4646C66.7165 42.1555 65.4105 40.7155 64.1114 41.3758C62.8123 42.0361 63.0651 41.4601 63.0932 40.6733C63.0932 40.4415 62.8826 40.1956 62.7702 39.9709C62.8126 39.7513 62.806 39.5251 62.7509 39.3084C62.6957 39.0916 62.5933 38.8898 62.4511 38.7173C62.3088 38.5448 62.1302 38.4059 61.928 38.3105C61.7259 38.2151 61.5051 38.1656 61.2816 38.1655C60.1861 38.1655 59.8772 39.1841 59.5893 40.0832C59.3716 40.0552 59.2312 39.6899 59.0345 39.9849Z" fill="black"/>
<path d="M105.783 32.9752C100.973 32.062 97.181 34.6892 93.1434 36.5648C92.9608 36.6491 92.7572 36.6983 92.5605 36.7685C92.7782 32.2938 93.8736 27.9596 95.0533 23.6956C96.7432 17.145 97.9519 10.4796 98.6696 3.75255C98.8452 2.34761 99.9617 1.74349 100.334 0.598469C100.453 0.233186 100.931 0.296408 101.176 0.598469C101.682 1.30094 102.813 1.25879 102.862 2.47406C102.96 4.8765 103.269 7.26489 103.466 9.66031C103.782 13.6082 104.112 17.5631 104.533 21.4969C104.814 24.1452 104.617 26.8989 105.509 29.4699C105.93 30.65 105.699 31.8161 105.783 32.9752Z" fill="#AECDE9"/>
<path d="M66.5751 144.971C69.397 145.413 72.2504 145.625 75.1067 145.603C76.8833 145.603 78.8003 145.603 80.2117 147.064C78.6247 150.099 76.1249 152.375 73.6321 154.573C68.4991 159.118 63.2186 163.502 57.9592 167.92C56.3862 169.241 54.6869 170.407 53.0438 171.657C52.5733 172.016 52.1029 172.304 51.5622 171.882C51.0215 171.461 51.3304 170.899 51.5622 170.407C53.3317 166.515 55.9298 163.122 58.1487 159.505C60.8311 155.135 63.4503 150.731 66.0765 146.326C66.2852 145.891 66.4522 145.437 66.5751 144.971Z" fill="#AECDE9"/>
<path d="M155.522 72.278L155.052 71.6739C155.29 71.4561 155.936 71.4631 155.466 70.852C154.904 70.1495 154.392 69.3698 153.851 68.6251L153.781 68.5689C153.226 67.5714 152.601 66.588 152.791 65.3587C157.376 64.586 161.968 63.8694 166.539 63.0054C168.085 62.7084 169.651 62.5299 171.223 62.4715C175.956 62.317 180.668 61.9025 185.379 61.5443C186.025 61.4951 187.1 61.0455 187.282 62.1273C187.416 62.9562 186.58 63.2794 185.878 63.6236C179.839 66.5529 173.807 69.4962 168.162 73.1701C166.356 74.3121 164.301 74.9991 162.172 75.1721C160.838 75.2986 159.897 76.4928 158.513 76.4717C157.565 75.0176 157.039 73.3036 155.522 72.278Z" fill="#AECDE9"/>
<path d="M137.193 145.18C138.822 144.295 140.704 144.597 142.453 144.077C145.599 143.143 148.948 142.897 152.213 142.363C157.466 148.861 163.308 154.902 167.718 162.074C168.393 163.025 169.129 163.931 169.923 164.786C170.225 165.165 170.625 165.594 170.168 166.057C169.986 166.22 169.749 166.31 169.505 166.31C169.26 166.31 169.024 166.22 168.841 166.057C165.569 164.077 162.163 162.278 159.074 160.037C155.303 157.291 151.35 154.916 147.403 152.416C144.468 150.54 141.084 149.444 138.401 147.203C138.058 146.981 137.771 146.683 137.562 146.332C137.353 145.982 137.226 145.587 137.193 145.18Z" fill="#AECDE9"/>
<path d="M161.322 89.2647C161.385 88.6606 160.458 89.061 160.507 88.4709C160.761 88.3693 160.972 88.1849 161.108 87.9476C161.243 87.7103 161.294 87.4342 161.252 87.1643C161.158 84.8839 160.651 82.6395 159.756 80.5401L159.644 79.7463L159.602 78.5802C162.052 79.0649 164.517 78.805 166.961 78.6294C170.955 78.4139 174.958 78.4022 178.954 78.5942C182.465 78.7137 185.976 79.367 189.487 79.3459C190.174 79.3358 190.859 79.4185 191.523 79.5917C191.859 79.6902 192.154 79.8946 192.364 80.1743C192.574 80.4541 192.688 80.7943 192.689 81.1442C192.731 81.8045 192.169 81.9731 191.671 82.2611C189.564 83.4904 187.128 83.7574 184.817 84.3685C178.357 86.0544 171.806 87.4594 165.402 89.4614C164.159 89.8548 162.895 90.1639 161.638 90.5291C161.505 90.1147 161.94 89.5668 161.322 89.2647Z" fill="#AECDE9"/>
<path d="M140.572 38.6657C140.404 38.771 140.235 38.9888 140.074 38.9748C136.162 38.7359 132.595 40.3235 128.839 40.9698C127.343 41.2297 125.644 41.9532 124.021 41.1665C130.496 33.3691 138.199 26.8642 146.232 20.7246C148.296 19.1511 150.01 17.135 152.222 15.709C152.762 15.3648 153.226 14.8941 153.851 15.414C154.476 15.9338 154.125 16.5098 153.893 17.0999C152.601 20.3945 150.319 23.0849 148.479 26.0493C146.534 29.1824 144.483 32.2451 142.707 35.4835C142.361 36.0719 142.227 36.7612 142.328 37.4364L141.913 37.9281L141.415 38.0545L141.001 38.3074L140.572 38.6657Z" fill="#AECDE9"/>
<path d="M101.242 153.968C103.609 154.404 105.596 153.23 107.562 152.352C109.395 151.552 111.157 150.645 113.18 150.505C111.877 157.965 110.192 165.353 108.131 172.64C107.239 175.667 107.52 178.92 106.424 181.912C106.094 182.804 105.947 183.844 104.578 183.689C103.208 183.535 102.885 182.516 102.906 181.477C102.998 176.721 102.085 172.05 101.93 167.315C101.818 162.868 101.2 158.408 101.242 153.968Z" fill="#AECDE9"/>
<path d="M117.336 149.212C116.81 148.763 116.992 148.109 117.498 148.18C120.882 148.664 123.298 145.897 126.444 145.658C126.598 145.658 126.774 145.833 126.942 145.932C127.49 150.146 129.232 154.066 130.503 158.098C132.146 163.318 133.873 168.523 135.706 173.679C136.408 175.667 137.581 177.486 137.812 179.657C137.862 180.121 138.192 180.612 137.658 180.957C136.991 181.385 136.605 180.795 136.317 180.388C133.276 176.096 129.695 172.204 127.357 167.399C125.355 163.101 123.05 158.951 120.461 154.979C119.319 153.113 118.276 151.188 117.336 149.212Z" fill="#AECDE9"/>
<path d="M88.0204 38.7722C87.9502 39.4185 87.3182 39.4747 86.9531 39.5309C84.2567 40.0507 81.6656 41.1044 78.8779 41.1536C76.2727 33.307 73.6957 25.4534 71.0554 17.6139C70.1636 14.9586 69.1104 12.3594 68.1694 9.72519C67.955 9.07443 67.8068 8.40369 67.727 7.72315C67.6709 7.27358 67.5655 6.69755 68.1975 6.50789C68.4027 6.4625 68.6171 6.48608 68.8075 6.57498C68.998 6.66388 69.1538 6.81314 69.2508 6.99961C72.0596 11.0248 75.4512 14.6354 77.6771 19.1102C80.4859 24.7299 83.6949 30.0968 86.8056 35.5409C87.447 36.5136 87.8622 37.6178 88.0204 38.7722Z" fill="#AECDE9"/>
<path d="M47.4184 53.1993C48.9618 54.5034 50.1089 56.2142 50.7295 58.1376C51.3501 60.0609 51.4194 62.1198 50.9294 64.0805C50.6134 65.5416 51.0137 67.34 49.4618 68.4218C48.3102 66.1177 45.9508 65.2536 43.9707 64.0103C37.7492 60.0413 31.3312 56.3323 25.0465 52.5109C24.545 52.1643 24.0751 51.7741 23.6422 51.3448C23.2138 50.9654 22.3923 50.6844 22.94 49.9398C23.3683 49.3427 24.0284 49.5745 24.6533 49.7431C31.0193 51.5145 37.566 52.5562 44.1673 52.8481C45.2557 52.8972 46.2949 53.4592 47.4184 53.1993Z" fill="#AECDE9"/>
<path d="M119.077 39.9566C117.747 40.1457 116.394 39.8299 115.285 39.0715C113.27 37.8281 110.868 37.3434 108.902 35.9807C111.191 34.2526 112.519 31.7237 114.035 29.4266C117.272 24.5094 120.032 19.3041 123.494 14.5132C124.961 12.4901 126.064 10.172 127.595 8.19103C128.058 7.57988 128.55 6.59643 129.54 7.01791C130.712 7.51666 129.926 8.55632 129.722 9.18854C128.95 11.591 128.051 13.9653 127.082 16.3045C123.885 23.9994 121.21 31.9014 119.077 39.9566Z" fill="#AECDE9"/>
<path d="M152.136 58.6153C152.185 58.4992 152.213 58.3757 152.221 58.25C152.761 57.6319 153.66 57.1542 153.042 56.0935L153.442 55.665C154.299 55.8195 154.594 55.3699 154.72 54.5902C154.798 54.1336 154.805 53.4592 155.619 53.6067C155.85 53.577 156.061 53.4615 156.211 53.2832C156.36 53.1049 156.437 52.8769 156.427 52.6443C157.221 52.8909 158.077 52.8384 158.835 52.4968C162.641 51.0919 166.665 50.5299 170.527 49.3779C173.539 48.4857 176.552 47.6217 179.592 46.842C180.378 46.6382 181.348 46.2308 181.874 47.0246C182.534 48.0081 181.607 48.577 180.933 49.1952C178.525 51.3729 175.681 52.8902 172.858 54.3865C168.259 56.817 163.61 59.1632 158.905 61.4111C156.799 62.3946 154.833 63.6661 152.508 64.1086C151.954 63.4624 152.284 62.7037 152.164 62.0012C152.164 61.7202 152.164 61.4463 152.115 61.1723C152.164 60.2731 152.761 59.4583 152.136 58.6153Z" fill="#AECDE9"/>
<path d="M85.9555 149.17C89.2278 150.428 92.9143 150.484 95.8846 152.612C94.0799 153.708 92.9985 155.486 91.9382 157.193C87.3389 164.568 82.901 172.043 77.8944 179.145C77.4239 179.812 77.0166 180.788 76.0125 180.248C75.1698 179.784 75.6684 178.92 75.8439 178.203C77.0939 173.195 79.7762 168.72 81.2789 163.803C82.7816 158.886 84.7056 154.151 85.9555 149.17Z" fill="#AECDE9"/>
<path d="M46.9982 140.993C50.5092 141.583 53.8938 142.883 57.5311 143.311C59.1953 143.508 61.1123 143.55 62.7344 144.414C58.3176 146.767 53.4865 148.032 48.831 149.753C44.3369 151.404 39.9412 153.314 35.4893 155.176C34.6747 155.513 33.783 155.879 33.1861 155.295C32.4277 154.593 33.4319 153.891 33.8181 153.378C34.8762 152.024 36.0953 150.805 37.4484 149.746C40.7979 146.999 44.1684 144.288 46.9982 140.993Z" fill="#AECDE9"/>
<path d="M49.0497 38.2849C49.0427 38.4112 49.0427 38.5378 49.0497 38.6642L48.6564 38.8117H47.891C45.946 36.346 43.9096 33.9506 42.0699 31.4147C39.9141 28.4292 37.9761 25.2892 35.4903 22.5496C35.1884 22.2194 34.8724 21.7488 35.3218 21.257C35.7712 20.7653 36.2136 21.1095 36.6209 21.3202C40.1649 23.0719 43.5362 25.1533 46.6903 27.5371C48.4177 28.8929 50.3136 29.9466 52.0972 31.1969C52.9609 31.794 54.2038 32.0329 54.4776 33.3044L53.6069 33.4378L53.1856 33.3606C53.0522 33.0515 52.9187 32.9461 52.8064 33.3606C52.3429 33.4238 51.8163 33.4097 51.9497 34.1333C51.4582 34.2105 51.093 34.3932 51.2475 34.9903C51.2475 35.1448 51.1984 35.2923 51.1773 35.4469C50.8613 35.6576 50.3909 35.7138 50.3838 36.2336C49.7271 36.7533 49.2586 37.4737 49.0497 38.2849Z" fill="#AECDE9"/>
<path d="M160.01 44.9456L159.596 44.5241C159.659 44.2501 159.497 44.1377 159.273 44.0675L158.458 43.2456C158.395 42.9716 158.332 42.6977 158.262 42.4307C158.262 42.2832 158.36 41.9812 158.002 42.1568C157.63 41.8196 157.264 41.4543 156.899 41.1312L157.11 41.0328L156.759 40.9485L155.783 40.3936L155.523 40.0002C155.684 39.2977 155.656 38.7287 154.68 38.8763L154.287 38.7358L154.456 38.0333C156.638 37.8002 158.74 37.08 160.607 35.9259C162.858 34.7921 165.224 33.9019 167.664 33.2706C168.49 32.9549 169.288 32.5719 170.051 32.1255C170.754 31.7813 171.589 31.3317 172.158 31.9078C172.93 32.6805 172.102 33.5515 171.624 34.0152C169.909 35.8667 168.09 37.6187 166.175 39.2626C163.997 41.0186 161.937 42.9171 160.01 44.9456Z" fill="#AECDE9"/>
<path d="M161.645 102.534L161.765 100.883C162.109 100.672 161.954 100.328 161.996 100.04C162.038 99.7518 161.996 99.4919 161.996 99.2179C162.082 98.938 162.101 98.6422 162.054 98.3535C162.006 98.0647 161.893 97.7908 161.723 97.553C161.723 97.2721 161.666 96.9981 161.631 96.7171C161.785 95.6173 161.785 94.5013 161.631 93.4015H161.793C164.264 92.9851 166.797 93.1364 169.201 93.844C168.33 95.249 168.843 96.8155 168.808 98.3187C168.681 101.55 168.681 101.557 165.528 101.684C164.718 101.68 163.927 101.925 163.26 102.386C165.311 102.786 167.2 101.684 169.067 102.463C167.034 103.703 164.785 104.547 162.439 104.95C160.655 105.336 161.737 103.657 161.322 103.004C161.375 102.996 161.425 102.977 161.471 102.948C161.516 102.92 161.555 102.882 161.585 102.838C161.615 102.794 161.636 102.745 161.646 102.692C161.657 102.64 161.656 102.586 161.645 102.534Z" fill="#AECDE9"/>
<path d="M41.624 91.364C41.4274 93.9772 41.8417 96.6255 41.1535 99.2036C40.5356 99.2036 40.2196 99.6883 39.7491 99.9482C38.5063 100.651 37.5513 102.056 35.8239 101.683C35.5922 98.4589 35.2692 95.2557 34.1035 92.207C36.6103 91.8276 39.068 91.1603 41.624 91.364Z" fill="#B2CEE8"/>
<path d="M30.0148 134.819C31.8756 136.161 34.3052 136.084 36.2222 137.299C34.2209 138.578 31.8756 138.971 29.6778 139.687C28.3701 140.085 27.0312 140.372 25.6753 140.544C24.9379 140.65 23.9127 141.085 23.4633 140.081C23.0912 139.231 23.8355 138.676 24.4113 138.191C26.1247 136.828 27.831 135.416 30.0148 134.819Z" fill="#B2CEE8"/>
<path d="M172.885 135.613C174.338 134.767 175.484 133.48 176.157 131.939C177.983 133.147 179.836 134.32 181.62 135.585C182.189 135.985 183.102 136.498 182.645 137.362C182.266 138.064 181.444 137.671 180.784 137.51L172.885 135.613Z" fill="#B2CEE8"/>
<path d="M155.522 72.2788C157.039 73.3044 157.565 75.0184 158.478 76.4936C158.483 76.6268 158.444 76.7578 158.366 76.8659C157.256 76.9221 156.112 77.6597 155.072 76.6833C156.477 75.2783 156.477 75.3135 154.967 74.4986C154.476 74.2317 154.265 73.7961 155.002 73.5152C155.606 73.2623 155.473 72.7073 155.522 72.2788Z" fill="#1A1C1F"/>
<path d="M152.137 61.9312C152.256 62.6336 151.926 63.4274 152.481 64.0385C152.586 64.4671 152.684 64.8956 152.79 65.3241C152.6 66.5534 153.225 67.5368 153.78 68.5343C153.078 68.7591 152.432 68.998 151.835 68.1761C151.602 67.9362 151.471 67.6149 151.471 67.2804C151.471 66.946 151.602 66.6247 151.835 66.3848C152.537 65.3943 151.835 64.4038 151.477 63.5749C151.118 62.746 151.231 62.2051 152.137 61.9312Z" fill="#1A1C1F"/>
<path d="M155.62 53.6062C154.806 53.4586 154.799 54.133 154.721 54.5896C154.595 55.3694 154.3 55.8189 153.443 55.6644C153.675 53.8309 154.483 52.4541 156.371 51.9272C156.842 52.152 156.596 52.3979 156.371 52.6297C155.887 52.721 155.817 53.2268 155.62 53.6062Z" fill="#1A1C1F"/>
<path d="M141.914 37.9354L142.328 37.4437L143.031 37.0503H143.571C143.368 37.9846 143.002 38.6098 141.914 37.9354Z" fill="#1A1C1F"/>
<path d="M45.7315 42.0443C45.6732 42.1793 45.5741 42.2925 45.4482 42.3681C45.3222 42.4437 45.1757 42.4779 45.0293 42.4658C45.0293 42.0233 45.1908 41.658 45.6823 41.5386C45.6964 41.7072 45.7174 41.8758 45.7315 42.0443Z" fill="#1A1C1F"/>
<path d="M161.322 89.2637C161.94 89.5517 161.512 90.1137 161.638 90.5281C161.154 91.357 162.011 92.1719 161.638 92.9938C160.929 91.8066 161.442 90.507 161.322 89.2637Z" fill="#1A1C1F"/>
<path d="M159.603 78.5785L159.645 79.7446C158.325 79.4636 159.006 78.4029 158.83 77.6372L159.603 78.5785Z" fill="#1A1C1F"/>
<path d="M47.4898 71.3013C48.9293 71.7509 47.6372 72.081 47.4336 72.4533C47.4547 72.0037 47.4687 71.6525 47.4898 71.3013Z" fill="#AECDE9"/>
<path d="M53.6055 33.4167L54.4762 33.2832L54.8624 33.7398C54.413 33.7539 53.9425 33.8382 53.6055 33.4167Z" fill="#1A1C1F"/>
<path d="M47.8332 39.3047C47.8438 39.438 47.8438 39.5718 47.8332 39.7051C47.447 39.5716 47.5313 39.4382 47.8332 39.3047Z" fill="#1A1C1F"/>
<path d="M41.6113 90.0923C41.9203 90.5208 42.145 90.9493 41.6113 91.3848V90.0923Z" fill="#B2CEE8"/>
<path d="M151.133 33.7053L150.992 33.6216H151.308L151.133 33.7053Z" fill="#1A1C1F"/>
<path d="M152.523 35.827L152.186 35.4688C152.276 35.5453 152.378 35.6069 152.488 35.6514C152.684 35.7006 152.705 35.7427 152.523 35.827Z" fill="#1A1C1F"/>
<path d="M159.193 49.237L159.608 48.6821L159.193 49.237Z" fill="#1A1C1F"/>
<path d="M160.164 47.6849C160.164 47.4742 160.1 47.2635 160.072 47.0527C160.676 47.1792 160.451 47.418 160.164 47.6849Z" fill="#1A1C1F"/>
<path d="M158.829 77.6736C158.703 77.498 158.583 77.3224 158.457 77.1538C158.752 77.203 158.829 77.4067 158.829 77.6736Z" fill="#1A1C1F"/>
<path d="M154.146 37.9191C154.043 37.8862 153.948 37.8342 153.865 37.7656L154.146 37.9191Z" fill="#1A1C1F"/>
<path d="M143.556 37.0364H143.016L143.289 36.6079L143.556 37.0364Z" fill="#101113"/>
<path d="M55.5707 34.1631L55.2617 33.8681C55.5145 33.8119 55.6339 33.8962 55.5707 34.1631Z" fill="#1A1C1F"/>
<path d="M150.493 33.37C150.374 33.377 150.254 33.377 150.135 33.37L150.331 33.103L150.493 33.37Z" fill="#1A1C1F"/>
<path d="M30.7574 128.61C30.8253 123.309 30.5908 118.008 30.0552 112.734C29.9428 111.75 30.5397 110.662 30.4133 109.573C34.4158 110.978 38.5587 111.947 42.5472 113.507C47.2822 115.357 52.2168 116.649 57.2511 117.356C61.6117 117.96 66.0566 118.171 70.34 119.183C79.1315 121.29 88.1265 120.587 97.0233 121.501C100.253 121.824 103.54 120.967 106.854 121.423C110.821 121.978 114.768 121.065 118.721 120.77C123.201 120.426 127.716 120.342 132.154 119.709C137.954 118.887 143.691 117.637 149.463 116.59C150.573 116.387 151.808 115.122 152.363 115.368C154.428 116.274 155.923 114.834 157.651 114.539C161.583 113.837 165.178 111.821 169.244 111.631C171.238 111.54 171.554 111.898 171.189 113.872C170.279 118.933 168.623 123.831 166.274 128.406C164.869 131.103 162.833 132.326 159.898 132.86C156.647 133.45 153.353 133.991 150.158 134.763C146.072 135.747 141.901 136.007 137.807 136.871C133.848 137.576 129.845 138.008 125.827 138.163C119.416 138.585 113.005 139.041 106.587 139.259C101.019 139.442 95.4434 139.765 89.882 139.652C87.4244 139.603 84.9667 140.032 82.4318 139.224C80.5403 138.606 78.5432 138.379 76.5614 138.557C73.6333 138.88 70.8807 138.03 68.0298 137.952C63.7394 137.833 59.5543 136.548 55.3271 135.733C51.6195 135.03 47.8768 134.496 44.2816 133.379C39.6822 131.96 35.2444 130.211 30.7574 128.61Z" fill="white"/>
<path d="M59.0347 39.9855C59.2313 39.6694 59.3717 40.0557 59.5403 39.9855C60.6216 40.8846 61.6468 40.4913 62.7282 39.8871C62.8406 40.126 63.0583 40.3718 63.0512 40.5896C63.0512 41.3974 62.7001 41.9945 64.0694 41.2921C65.4387 40.5896 66.7097 42.135 68.114 42.4441C69.6378 42.7883 71.5056 43.0693 72.9311 44.0879C73.6333 44.6077 74.3355 43.9263 75.1079 44.0879C77.9153 44.9204 80.9065 44.9009 83.7027 44.0317C86.6028 42.9991 89.8259 42.8586 92.4521 40.8776C93.716 39.9293 95.5979 40.0909 97.1076 39.2268C98.04 38.7599 98.9283 38.2097 99.7619 37.5831C100.104 37.2664 100.51 37.0257 100.952 36.8769C101.394 36.7281 101.862 36.6745 102.327 36.7196C102.791 36.7647 103.24 36.9075 103.645 37.1387C104.05 37.3698 104.402 37.684 104.677 38.0607C105.266 38.7946 106.098 39.293 107.023 39.4657C109.895 40.2735 112.275 42.7462 115.372 42.402C116.608 42.2685 116.839 44.2846 118.04 43.1466C121.088 44.959 124.36 44.6288 127.681 44.2565C130.107 43.9448 132.498 43.4039 134.822 42.6408C136.185 42.2193 137.722 40.6739 139.738 41.847C140.496 42.2896 139.927 40.4421 140.594 39.9152C141.21 40.3602 141.954 40.5932 142.714 40.5792C143.474 40.5653 144.208 40.3052 144.808 39.838C145.749 39.326 146.663 38.7656 147.546 38.1591C148.578 37.295 150.453 37.6322 150.657 38.8615C150.86 40.0909 151.689 40.421 152.223 41.1656C152.391 41.4677 152.525 41.8189 152.981 41.5379C153.395 41.7979 154.568 41.3061 153.964 42.5635C153.522 43.4768 154.701 43.5049 154.849 44.109C154.751 44.3338 154.849 44.39 155.06 44.3478C155.442 44.5974 155.765 44.927 156.008 45.3139C156.25 45.7008 156.406 46.1357 156.464 46.5887L156.338 46.9961L154.589 48.949C154.062 49.5882 152.623 49.6514 153.297 51.0564C152.476 51.7588 151.303 52.2365 151.268 53.5993C150.25 53.9225 150.102 54.92 149.674 55.7067C149.084 56.7323 148.01 57.6385 148.859 59.0153C148.859 59.4368 148.859 59.8653 148.859 60.2868C148.347 62.1905 147.595 64.0942 148.859 65.9908L149.028 66.4615L149.196 67.3185C149.157 67.3603 149.135 67.4156 149.135 67.4731C149.135 67.5305 149.157 67.5858 149.196 67.6276C148.943 67.8102 148.958 67.9648 149.245 68.0912L149.372 68.5548C149.274 68.8148 149.463 68.885 149.646 68.9553C150.243 70.0441 150.699 71.2453 151.893 71.8845C151.942 72.1655 151.745 72.5168 152.131 72.6924L152.602 73.5213C152.561 73.6657 152.578 73.8205 152.65 73.9521C152.723 74.0837 152.844 74.1814 152.988 74.2238L153.03 74.287L153.367 74.7366L153.48 75.144C153.48 75.4671 153.339 75.8465 153.796 75.9518L154.027 76.4155L154.217 76.7456C155.621 78.291 155.895 80.3071 156.457 82.1968L156.689 82.5831C157.609 84.1215 156.759 86.0955 157.946 87.5636C157.981 87.95 157.243 88.0905 157.587 88.533C158.044 89.102 158.353 88.3153 158.76 88.3293L158.957 88.3925C157.819 90.3735 159.926 92.4949 158.711 94.4759C158.107 94.5321 157.798 94.799 158.009 95.4383C158.009 95.8527 158.009 96.2742 158.009 96.6887L158.065 97.7424C157.946 98.0234 157.981 98.2341 158.304 98.3324L158.76 98.501C158.255 98.8101 157.749 99.1262 158.241 99.8287C158.182 99.843 158.128 99.8704 158.082 99.909C158.036 99.9475 157.999 99.9962 157.974 100.051C157.95 100.106 157.939 100.166 157.941 100.226C157.943 100.286 157.959 100.345 157.988 100.398C157.918 101.1 157.84 101.76 157.77 102.442C156.981 102.461 156.21 102.681 155.53 103.081C154.343 103.671 153.522 105.013 152.019 104.922V103.313C152.131 100.873 152.096 98.4288 151.914 95.9932C151.71 92.8251 151.268 89.7132 150.91 86.5802C150.58 83.7211 148.958 81.3398 148.22 78.6212C147.321 75.3056 145.081 72.5238 144.098 69.1871C143.277 66.4264 143.501 63.6306 143.796 60.919C144.295 56.346 146.605 52.384 149.07 48.6048C150.2 46.8627 149.66 45.535 148.642 44.39C147.623 43.2449 145.791 42.6268 144.583 43.8139C142.329 46.0197 139.422 46.0759 136.725 46.5887C134.563 46.9961 133.095 48.8436 130.848 48.8647C128.854 48.8647 126.86 49.0684 124.865 49.1035C118.819 49.2089 113.132 47.6564 107.521 45.549C105.892 44.9379 104.34 44.4953 103.055 43.2168C102.451 42.6127 100.991 42.6127 100.569 43.1396C98.9122 45.247 96.3984 45.247 94.2497 46.1602C89.0815 48.3238 83.5483 48.7593 78.0992 49.0754C75.5643 49.2229 72.8328 49.4618 70.333 48.1341C66.6043 46.1602 62.4193 45.3242 58.5783 43.6383C56.9983 42.9359 55.8186 43.4416 54.7724 44.5726C53.7261 45.7036 53.1503 46.9891 54.3019 48.5767C56.1921 51.1811 57.6984 54.0436 58.7749 57.0765C60.1144 60.6632 60.4897 64.5388 59.8633 68.316C58.9996 73.163 56.7806 77.5394 54.9479 82.0493C53.4242 85.8707 52.8413 89.8185 52.413 93.8437C52.1831 97.0355 52.3411 100.243 52.8835 103.397C52.9326 103.763 53.2697 104.282 52.5324 104.591C51.9706 104.837 51.8302 104.479 51.465 104.317C49.9028 103.541 48.2523 102.956 46.5497 102.575C45.2998 102.365 45.2226 101.831 45.1453 100.854C44.9838 96.9907 45.4121 93.1272 45.5315 89.2987C45.5947 87.4934 45.686 85.6529 45.9177 83.9038C46.2316 82.5694 46.7031 81.2772 47.3221 80.0542C48.874 76.289 51.0578 72.875 53.1573 69.4048C54.1186 67.6861 54.6351 65.7544 54.66 63.7851C54.7864 61.7901 53.8104 59.8583 54.5266 57.8984C54.9058 56.8658 53.9017 56.2476 53.4663 55.5522C52.5534 54.091 51.2052 52.7423 50.4118 51.3865C49.6183 50.0308 48.4105 48.9911 47.4485 47.7759C46.3741 46.4201 46.7463 45.254 48.1507 44.3267C48.3614 44.3689 48.4597 44.3267 48.3614 44.0879L48.5439 43.6243C49.2461 43.4416 49.6393 43.0974 49.0565 42.3739C49.1414 42.1291 49.2994 41.9163 49.5091 41.7642C49.7189 41.6122 49.9702 41.5283 50.2292 41.5239C51.3246 41.5871 51.451 40.5475 51.9776 39.9714C52.3016 39.7864 52.5464 39.489 52.6658 39.1355C53.1363 37.569 54.3721 37.3512 55.7344 38.0888C56.879 38.693 57.7075 39.7677 59.0347 39.9855Z" fill="#F7F7F7"/>
<path d="M117.147 107.991C112.863 108.166 108.594 107.991 104.317 107.857C102.049 107.78 101.677 107.211 102.393 105.16C102.548 104.724 102.555 104.457 103.152 104.549C104.942 104.879 106.775 104.549 108.545 104.731C110.096 104.9 111.655 105.104 113.116 106.199C115.679 108.131 117.828 106.902 119.162 104.001C120.025 102.097 119.499 100.875 118.333 99.9194C116.788 98.662 114.822 98.8095 112.961 99.4487C112.491 99.6103 111.817 100.151 111.817 100.545C111.859 104.303 109.05 101.95 107.667 102.364C106.873 102.624 105.722 102.294 104.718 102.504C103.313 102.792 102.534 102.266 102.471 100.755C102.169 93.7307 103.004 86.706 103.475 79.7445C103.475 79.4214 103.377 79.0912 103.377 78.7611C103.377 77.314 103.629 76.2743 105.567 76.3727C109.268 76.5624 112.983 76.5624 116.69 76.5272C117.484 76.5272 117.61 76.8082 117.933 77.3983C118.888 79.1896 120.538 79.871 122.518 79.8007C124.695 79.7235 126.528 79.0491 127.497 76.8855C128.684 74.2091 125.994 70.781 122.919 71.0831C121.402 71.2306 119.527 71.624 118.811 72.6075C117.28 74.7149 115.482 74.0756 113.607 74.0124C110.743 73.9562 107.878 73.9351 105.013 74.0124C103.973 74.0124 103.693 73.907 103.608 72.6777C103.468 69.4815 104.507 66.4609 104.556 63.2717C104.626 58.9093 106.045 57.8275 111.129 57.2937C114.106 56.9846 117.161 56.8581 119.962 58.3474C120.938 58.8672 120.398 60.1035 121.044 60.8552C121.371 61.3785 121.553 61.98 121.57 62.5973C121.774 64.4448 122.975 64.8944 124.597 65.1332C129.947 65.927 133.199 69.1443 133.536 74.5533C133.739 77.8619 133.957 81.2619 132.932 84.5635C132.496 85.9684 132.398 87.3733 134.336 87.9985C135.537 88.3708 136.703 91.3844 136.443 92.684C136.344 93.1125 136.169 93.1827 135.741 93.1898C130.123 93.267 124.541 94.2645 118.888 93.7166C117.756 93.6079 116.613 93.6959 115.51 93.9765C113.685 94.4963 113.783 93.2741 113.607 92.389C113.503 91.3622 113.472 90.3292 113.516 89.2981C113.516 88.6659 113.853 88.6378 114.338 88.4411C116.318 87.6332 117.182 85.4486 116.515 83.2639C115.96 81.4375 113.783 80.0325 111.648 80.1239C110.139 80.1871 108.18 81.9714 107.842 83.587C107.239 86.4531 107.842 87.4927 110.785 88.413C111.325 88.5816 111.22 88.6588 111.192 89.1154C111.108 90.6679 111.431 92.2133 111.269 93.7939C111.205 94.1561 111.228 94.5284 111.334 94.8804C111.441 95.2324 111.629 95.5542 111.884 95.8197C112.138 96.0852 112.452 96.287 112.799 96.4086C113.146 96.5302 113.517 96.5681 113.881 96.5195C118.094 95.8591 122.308 96.5195 126.521 96.2385C128.873 96.0769 131.211 95.6554 133.543 95.536C136.92 95.3323 137.012 95.4939 136.787 98.8657C136.632 101.142 135.326 103.081 134.912 105.3C134.719 105.885 134.34 106.389 133.832 106.737C133.325 107.085 132.717 107.256 132.103 107.225C127.188 107.33 122.181 107.71 117.147 107.991Z" fill="#F7F7F7"/>
<path d="M99.9918 95.6079C99.9918 99.6049 99.9918 103.152 99.9918 106.7C99.9918 107.543 99.3669 107.473 98.8122 107.444C93.5949 107.178 88.3355 107.213 83.1673 106.524C79.6564 106.054 76.2086 105.056 72.6836 104.628C70.2259 104.318 68.9479 102.682 68.344 100.659C67.382 97.4905 66.9396 94.224 68.1966 90.9575C68.9549 88.9976 70.1627 88.246 72.178 88.8501C74.2467 89.5913 76.4906 89.6916 78.6171 89.1381C79.6844 88.8361 81.145 88.9696 81.5944 90.6695C82.2966 93.3108 86.4114 94.217 88.3916 92.222C90.3718 90.227 90.7089 87.4241 89.1289 86.0262C87.0224 84.1717 83.6448 83.5746 81.8893 86.4477C81.771 86.6919 81.5777 86.8918 81.3376 87.0182C81.0975 87.1446 80.8234 87.1908 80.5552 87.1502C77.5287 86.813 74.432 87.396 71.4267 86.3212C70.3102 85.9138 69.7344 85.4783 69.8046 84.2138C69.945 81.6358 69.7273 79.0156 70.0714 76.4867C70.4717 73.4872 71.6022 70.7616 74.2214 68.8157C75.781 67.6222 77.7083 67.0109 79.6704 67.0877C81.2714 67.0877 82.2615 66.7645 82.6617 64.7414C83.5325 60.3229 86.8749 57.9134 91.6006 57.3866C93.752 57.2015 95.919 57.3484 98.0257 57.8221C98.4681 57.8941 98.8793 58.0952 99.2079 58.4001C99.5364 58.705 99.7676 59.1002 99.8725 59.5361C101.16 63.4719 101.657 67.6236 101.333 71.7521C101.145 74.0886 101.079 76.4334 101.136 78.7767C101.136 80.4486 100.68 81.3126 98.8403 80.6664C98.5025 80.5923 98.1528 80.5923 97.8151 80.6664C94.7254 81.0527 94.4937 80.8139 94.8729 77.6387C95.2661 74.3582 94.6131 73.5082 91.3619 74.1756C88.7146 74.7235 87.0364 73.2132 85.1194 72.1244C82.0579 70.4033 78.7365 71.6607 78.3924 74.4636C78.2028 76.002 77.4234 77.9197 78.4345 79.2544C79.0114 80.1139 79.8083 80.8026 80.7421 81.2487C81.6759 81.6948 82.7124 81.8818 83.7431 81.7903C84.7781 81.6451 85.7479 81.1998 86.5328 80.5095C87.3177 79.8191 87.8834 78.914 88.1599 77.9057C88.3284 77.0416 88.5953 76.4516 89.9084 76.5499C91.8043 76.6904 93.2508 76.6834 92.4503 79.2193C92.3805 79.7509 92.3805 80.2893 92.4503 80.8209C92.4011 83.0618 93.1946 83.7924 95.4487 83.5605C96.6845 83.4341 97.9415 83.4201 99.1562 83.1812C100.519 82.9073 100.954 83.2444 100.792 84.6775C100.511 87.094 100.448 89.5385 100.217 91.9621C100.118 92.9525 99.7742 93.7112 98.4119 93.4934C96.2211 93.1492 94.0232 93.7955 91.8043 93.7534C91.383 93.7534 90.2384 93.5356 90.0348 93.9149C89.5432 94.8562 88.5321 95.7835 88.9885 96.9426C89.4449 98.1016 88.7217 98.1157 88.0476 98.3475C86.1446 99.05 84.6911 100.181 84.5366 102.359C84.4172 104.325 85.8005 105.702 87.8369 105.78C89.7398 105.85 92.0501 106.665 92.6259 103.799C92.8121 102.662 92.7401 101.497 92.4152 100.392C91.3338 96.4087 91.3759 96.3103 95.4838 96.3455C96.9584 96.3174 98.3979 96.9707 99.9918 95.6079Z" fill="#F7F7F7"/>
<path d="M30.7547 128.609C35.2417 130.211 39.6796 131.96 44.2228 133.365C47.818 134.482 51.5607 135.023 55.2683 135.718C59.4815 136.505 63.6946 137.825 67.971 137.938C70.8219 138.015 73.5885 138.865 76.5026 138.542C78.4844 138.365 80.4815 138.592 82.3729 139.209C84.8798 140.017 87.3655 139.589 89.8232 139.638C95.3846 139.75 100.96 139.427 106.528 139.244C112.946 139.027 119.357 138.542 125.768 138.149C129.787 137.994 133.789 137.562 137.748 136.856C141.842 136.006 146.013 135.746 150.099 134.749C153.294 133.976 156.588 133.435 159.839 132.845C162.774 132.311 164.817 131.089 166.215 128.391C168.564 123.817 170.22 118.919 171.13 113.857C171.495 111.883 171.179 111.525 169.185 111.616C165.119 111.806 161.524 113.85 157.592 114.525C155.864 114.82 154.369 116.26 152.304 115.354C151.75 115.108 150.514 116.372 149.404 116.576C143.632 117.623 137.895 118.873 132.095 119.695C127.657 120.327 123.142 120.397 118.662 120.756C114.709 121.051 110.763 121.964 106.795 121.409C103.481 120.952 100.195 121.809 96.9645 121.486C88.0818 120.601 79.0867 121.24 70.2812 119.168C65.9978 118.156 61.5529 117.946 57.1923 117.342C52.158 116.635 47.2233 115.343 42.4884 113.492C38.4999 111.933 34.357 110.984 30.3545 109.558C28.6482 109.558 28.9501 107.907 28.1426 107.177C28.9852 106.474 29.3012 107.5 29.877 107.458C31.2392 107.275 32.4189 107.95 33.6548 108.315C38.3314 109.72 43.1133 110.816 47.6284 112.593C50.683 113.801 53.8428 114.223 56.9536 114.862C61.8268 115.866 66.7843 116.351 71.6996 117.089C78.2752 118.014 84.8939 118.602 91.5296 118.852C97.2454 119.119 102.954 118.817 108.656 119.105C112.3 119.287 115.91 118.782 119.533 118.634C123.156 118.487 126.709 117.756 130.305 117.468C135.985 116.997 141.54 115.613 147.094 114.658C152.122 113.801 157.002 112.115 161.981 110.942C163.513 110.484 165.083 110.159 166.671 109.973C171.032 109.692 171.762 108.603 171.509 104.767C172.148 104.065 173.11 104.149 174.1 103.594C173.658 106.018 174.76 108.111 173.834 110.514C173.181 112.185 173.363 114.49 173.532 116.365C173.925 120.763 172.556 125.09 173.475 129.487C173.96 131.826 173.026 132.775 170.561 133.604C167.142 134.749 163.743 135.95 160.281 136.99C158.708 137.46 157.227 138.359 155.563 138.704C155.857 137.095 157.852 137.144 158.694 135.423C155.366 136.512 152.178 136.484 149.166 137.193C145.007 138.243 140.785 139.019 136.526 139.518C132.144 139.961 127.784 141.099 123.318 140.635C122.843 140.636 122.37 140.703 121.913 140.832C117.328 141.717 112.637 141.499 108.045 141.534C105.363 141.577 102.568 141.633 99.8997 141.787C94.8383 142.01 89.7688 141.973 84.7113 141.675C78.9814 141.422 73.2585 140.607 67.5286 140.13C64.2135 139.922 60.9235 139.419 57.6979 138.626C53.2811 137.425 48.6466 137.221 44.3562 135.592C41.7862 134.629 38.6333 134.995 36.7725 132.353C36.6883 132.25 36.5806 132.169 36.4583 132.116C36.3361 132.064 36.203 132.041 36.0703 132.051C34.2025 132.894 32.7911 131.468 31.155 131.096C30.3053 130.421 29.1256 129.761 30.7547 128.609Z" fill="#B2CEE8"/>
<path d="M171.582 104.782C171.834 108.618 171.104 109.7 166.743 109.988C165.155 110.174 163.585 110.499 162.053 110.957C157.074 112.13 152.222 113.816 147.166 114.673C141.549 115.628 136.058 117.012 130.377 117.483C126.782 117.771 123.208 118.501 119.605 118.649C116.003 118.797 112.373 119.302 108.728 119.12C103.026 118.832 97.3176 119.12 91.6018 118.867C84.9661 118.617 78.3475 118.029 71.7718 117.104C66.8565 116.401 61.8709 115.881 57.0258 114.877C53.9151 114.238 50.7552 113.816 47.7007 112.608C43.1856 110.831 38.4036 109.707 33.727 108.33C32.4912 107.964 31.3115 107.29 29.9492 107.473V103.616C35.4193 105.485 40.6155 107.388 45.896 109.018C49.0215 110.086 52.2233 110.915 55.4739 111.498C60.3893 112.25 65.2485 113.423 70.22 113.985C73.099 114.315 75.9991 114.055 78.8921 114.42C82.8665 114.933 86.8971 115.404 90.8294 115.593C97.3502 115.938 103.884 115.952 110.407 115.635C112.808 115.502 115.16 115.073 117.548 114.989C121.262 114.856 124.942 114.216 128.635 114.16C132.371 114.082 136.098 113.763 139.793 113.205C141.984 112.896 144.14 112.418 146.317 112.011C147.482 112.868 148.634 114.16 150.214 113.163C151.3 112.607 152.257 111.829 153.023 110.88C159.188 108.723 165.255 106.356 171.582 104.782Z" fill="#F7F7F7"/>
<path d="M27.5504 98.3891C27.5925 101.29 26.8131 104.198 27.9085 107.114C28.2104 107.908 27.0869 108.842 27.2063 110.057C27.5995 113.956 27.6978 117.89 27.9085 121.809C27.9506 122.477 27.9085 122.793 26.9886 122.912C21.7573 123.615 16.5681 124.654 11.3227 125.146C9.67253 125.301 7.90301 125.041 6.16859 125.146C5.90684 125.119 5.65699 125.023 5.44473 124.867C5.23246 124.712 5.06543 124.503 4.96082 124.261C4.51843 123.474 5.18552 123.404 5.4032 122.997C7.50978 119.063 10.5011 115.859 13.4433 112.579C14.7915 111.076 14.3772 109.811 12.9377 108.694C9.5672 106.081 6.31605 103.285 4.30075 99.4006C3.24044 97.3494 4.12521 95.8883 6.40733 95.8883C12.0078 95.9549 17.6018 95.4845 23.1125 94.4834C25.521 94.0759 27.9647 93.8441 30.4013 93.6193C30.9771 93.5631 31.8057 93.528 32.0514 94.2586C32.2972 94.9891 31.6512 95.2561 31.0613 95.5722C30.4715 95.8883 30.0291 96.4714 29.2567 96.3309C26.7429 96.1412 24.4186 97.1036 22.003 97.4618C17.6214 98.1151 13.1905 98.4664 8.77373 98.7544C6.82163 98.8808 6.941 99.8572 7.84683 100.756C10.1781 103.082 11.9266 105.941 14.5036 108.013C17.0807 110.085 17.3475 110.261 15.255 112.726C13.1624 115.192 12.3268 118.669 9.28633 120.404C8.71053 120.735 8.79479 121.353 8.94927 121.887C9.10376 122.421 9.65147 122.371 10.15 122.413C12.2566 122.631 14.3632 122.161 16.4698 121.95C19.8403 121.606 22.9229 119.948 26.3005 119.512C27.0027 119.421 27.0588 118.81 27.0027 118.255C27.0103 118.114 26.982 117.974 26.9205 117.847C26.859 117.721 26.7662 117.612 26.651 117.531C26.5358 117.45 26.4019 117.4 26.2619 117.385C26.122 117.371 25.9806 117.392 25.8511 117.447C25.0084 117.679 24.1447 117.693 23.2881 117.925C20.1563 118.775 17.0105 119.716 13.7453 119.899C13.4503 118.297 14.8337 117.454 15.0373 116.183C15.5591 115.861 15.9876 115.408 16.2802 114.869C16.9852 113.642 17.8599 112.521 18.8783 111.539C20.1352 110.486 20.3389 109.678 19.0257 108.652C17.0526 107.1 14.9881 105.646 13.1484 103.946C12.6795 103.596 12.298 103.143 12.0336 102.621C11.7692 102.1 11.6293 101.524 11.6246 100.939C17.008 100.651 22.346 99.7961 27.5504 98.3891Z" fill="#F7F7F7"/>
<path d="M31.1988 131.138C32.8138 131.51 34.2253 132.937 36.1142 132.094C36.2468 132.084 36.3799 132.106 36.5022 132.159C36.6244 132.211 36.7321 132.293 36.8164 132.396C38.6772 135.037 41.83 134.672 44.4 135.634C48.6904 137.236 53.3249 137.467 57.7417 138.669C60.9674 139.461 64.2573 139.965 67.5724 140.172C73.3023 140.65 79.0252 141.465 84.7551 141.717C89.8126 142.015 94.8821 142.052 99.9435 141.83C102.612 141.675 105.407 141.619 108.089 141.577C112.681 141.514 117.372 141.731 121.957 140.874C122.414 140.745 122.887 140.679 123.362 140.678C127.828 141.141 132.188 139.975 136.57 139.561C140.829 139.062 145.051 138.285 149.209 137.236C152.222 136.533 155.41 136.533 158.738 135.465C157.896 137.186 155.929 137.137 155.606 138.746C154.855 138.556 154.104 138.374 153.767 139.385L153.233 139.448C153.042 139.397 152.84 139.399 152.65 139.454C152.459 139.508 152.287 139.613 152.152 139.757L151.19 139.898C150.53 139.898 149.834 139.68 149.259 140.207C145.748 141.001 142.237 141.612 138.726 142.314C131.956 143.663 125.047 143.143 118.236 144.204C112.999 144.958 107.692 145.097 102.422 144.619C99.4871 144.387 96.5028 144.619 93.5325 144.619C90.1663 144.554 86.8056 144.32 83.463 143.916C80.1557 143.551 76.8343 143.214 73.52 143.214C68.2254 143.171 63.1275 141.921 57.9664 141.022C55.6913 140.622 53.4162 140.221 51.1622 139.736C48.2621 139.118 45.6289 137.713 42.8341 136.765C39.6251 135.683 36.3599 134.756 33.186 133.576C32.2521 133.182 30.286 133.21 31.1988 131.138Z" fill="#F7F7F7"/>
<path d="M182.866 123.629C181.377 123.482 179.867 123.257 178.4 123.187C176.153 123.074 175.872 121.873 176.216 120.208C176.873 116.711 177.078 113.144 176.827 109.594C176.644 106.173 177.248 102.773 176.771 99.4084C176.655 98.7728 176.403 98.1701 176.03 97.6423C175.658 97.1145 175.175 96.6744 174.615 96.3526C174.404 96.2192 173.955 96.3105 173.857 96.1489C173.4 95.3762 171.645 95.5307 172.157 94.2593C172.544 93.3039 173.723 93.7605 174.622 93.7746C176.865 93.7676 179.097 94.0822 181.251 94.7089C181.609 95.4465 181.953 96.1911 182.332 96.9146C182.466 97.1534 182.276 97.5047 183.034 97.4555C186.243 97.2588 189.354 98.4881 192.584 98.3828C193.806 98.3476 193.595 99.0852 193.153 99.7104C192.493 100.631 191.285 101.242 190.744 101.979C188.898 104.508 186.482 106.405 184.333 108.576C183.631 109.278 183.673 109.657 184.193 110.29C184.713 110.922 185.113 111.484 185.597 112.081C187.87 115.081 189.83 118.306 191.447 121.705C191.973 122.801 191.749 123.32 190.393 123.264C188.473 123.142 186.564 122.89 184.677 122.513C183.765 122.351 182.767 122.14 182.866 123.629ZM189.888 100.666L184.27 99.3381C183.329 99.1133 182.655 99.3381 182.957 100.42C183.428 102.05 183.196 103.686 183.294 105.337C183.294 105.695 183.083 106.243 183.659 106.342C183.868 106.364 184.078 106.325 184.265 106.23C184.451 106.135 184.607 105.989 184.713 105.808C185.998 103.813 187.837 102.387 189.902 100.666H189.888ZM183.273 112.945C183.369 113.988 183.357 115.038 183.238 116.078C182.641 118.6 182.803 120.391 186.117 120.215C186.566 120.215 187.114 120.63 187.563 120.215C187.759 120.016 187.869 119.747 187.869 119.467C187.869 119.187 187.759 118.919 187.563 118.719C186.201 116.9 185.443 114.68 183.273 112.945Z" fill="#AECDE9"/>
<path d="M27.5536 98.3895C22.3569 99.8021 17.026 100.664 11.649 100.961C11.6536 101.545 11.7936 102.121 12.0579 102.643C12.3223 103.164 12.7039 103.618 13.1727 103.967C15.0125 105.667 17.0769 107.121 19.0501 108.674C20.3632 109.699 20.1595 110.507 18.9026 111.561C17.8843 112.543 17.0096 113.664 16.3045 114.89C16.012 115.429 15.5835 115.882 15.0616 116.204L14.8861 116.113L15.0686 116.197C14.865 117.469 13.4817 118.304 13.7766 119.913C17.0418 119.73 20.1876 118.789 23.3194 117.939C24.1761 117.707 25.0398 117.693 25.8824 117.461C26.0119 117.406 26.1533 117.385 26.2933 117.4C26.4333 117.415 26.5672 117.465 26.6824 117.546C26.7976 117.626 26.8903 117.735 26.9519 117.862C27.0134 117.989 27.0417 118.129 27.034 118.269C27.0762 118.852 27.034 119.435 26.3318 119.527C22.9613 119.962 19.8787 121.634 16.5011 121.964C14.3945 122.175 12.288 122.667 10.1814 122.428C9.71794 122.386 9.14916 122.526 8.98063 121.901C8.81211 121.276 8.74189 120.749 9.31769 120.419C12.3582 118.684 13.1797 115.221 15.2863 112.741C17.3929 110.261 17.091 110.079 14.535 108.027C11.979 105.976 10.2095 103.11 7.87819 100.771C6.97236 99.8717 6.85299 98.8953 8.80508 98.7688C13.2219 98.4808 17.6527 98.1296 22.0344 97.4763C24.45 97.118 26.7742 96.1556 29.2881 96.3453C28.5648 96.9284 28.4314 97.9961 27.5536 98.3895Z" fill="#B2CEE8"/>
<path d="M182.864 123.629C182.766 122.139 183.763 122.35 184.661 122.512C186.543 122.896 188.448 123.154 190.363 123.284C191.718 123.341 191.943 122.821 191.417 121.725C189.8 118.326 187.84 115.101 185.567 112.101C185.104 111.504 184.661 110.893 184.163 110.31C183.664 109.727 183.629 109.277 184.303 108.596C186.452 106.425 188.868 104.528 190.714 102C191.255 101.297 192.463 100.651 193.123 99.7306C193.565 99.1054 193.776 98.3678 192.554 98.4029C189.324 98.5083 186.234 97.279 183.004 97.4756C182.253 97.5248 182.443 97.1736 182.302 96.9348C181.916 96.2323 181.6 95.4666 181.221 94.729C184.163 95.0802 187.098 95.593 190.047 95.7335C191.915 95.8178 193.706 96.6467 195.7 96.0005C196.95 95.6001 197.034 96.7662 196.781 97.7566C196.191 100.054 194.457 101.606 192.996 103.264C191.348 105.178 189.536 106.945 187.583 108.547C187.049 108.975 186.698 109.586 187.632 110.71C188.671 111.961 190.167 112.712 190.995 114.222C191.936 115.922 193.102 117.489 193.994 119.252C194.521 120.269 195.154 121.227 195.882 122.111C197.034 123.516 195.918 123.692 195.18 124.113C191.943 125.912 188.615 124.521 185.35 124.268C184.577 124.162 183.538 124.443 182.864 123.629Z" fill="#F7F7F7"/>
<path d="M145.217 48.239C144.698 49.3911 144.431 50.789 143.609 51.653C141.362 54.0274 141.425 57.3149 139.958 59.9632C139.867 60.1248 139.817 60.462 139.909 60.5463C141.313 61.9512 139.663 62.9276 139.164 63.4966C137.697 65.1826 135.808 66.5102 134.13 67.9503C132.613 66.0027 130.549 64.5522 128.203 63.7846C127.578 63.5809 127.08 63.0822 127.908 62.2673C131.826 58.481 135.632 54.5402 139.621 50.8803C141.025 49.5737 143.055 48.8783 144.803 47.9019L145.217 48.239Z" fill="#AECDE9"/>
<path d="M65.652 90.0645C63.8263 94.6586 65.3079 98.9015 66.7474 103.278C64.7111 103.819 62.6677 104.289 60.7788 102.575C60.3655 102.336 59.9058 102.187 59.4306 102.14C58.5247 101.894 57.1344 102.245 56.9729 100.988C56.8043 99.5829 56.4603 98.178 58.0121 96.9135C60.6945 94.8272 63.1241 92.3756 65.652 90.0645Z" fill="#AECDE9"/>
<path d="M107.435 50.3273C107.842 49.8848 108.242 49.5336 108.938 49.8567C113.853 52.1397 119.014 52.9616 124.793 52.6666C123.34 53.917 122.181 54.8231 121.135 55.8417C120.531 56.4248 120.355 55.7855 119.976 55.638C115.131 53.7343 110.328 54.3174 105.616 56.0454C104.17 56.5793 103.559 58.3003 102.393 59.326C100.603 56.5793 102.393 55.1111 104.219 53.5938C104.542 53.5025 104.858 53.4182 104.76 52.9686C106.417 53.3199 107.077 51.9009 108.004 51.0509C108.432 50.6645 107.821 50.4468 107.435 50.3273Z" fill="#AECDE9"/>
<path d="M152.11 104.971C153.634 105.063 154.456 103.721 155.621 103.131C156.302 102.731 157.073 102.511 157.861 102.492C157.906 102.599 157.93 102.713 157.932 102.829C157.18 103.595 157.763 104.571 157.538 105.414C157.377 107.17 155.958 107.521 154.659 107.985C154.48 107.947 154.294 107.953 154.118 108.003C153.942 108.054 153.78 108.146 153.648 108.273L152.174 108.421L151.605 108.68C149.99 108.392 151.949 107.585 151.373 107.142C151.598 107.065 151.787 106.966 151.703 106.671C151.703 106.131 151.752 105.597 151.78 105.056C151.876 104.988 151.994 104.958 152.11 104.971Z" fill="#AECDE9"/>
<path d="M35.8116 101.682C37.539 102.069 38.4939 100.657 39.7368 99.9474C40.1933 99.6875 40.5092 99.1747 41.1412 99.2028C41.3378 100.46 41.5274 101.725 41.7381 102.982C41.9487 104.239 42.04 105.279 40.2073 104.605C38.9925 104.162 37.7426 103.825 36.5278 103.375C35.8116 103.087 35.6782 102.413 35.8116 101.682Z" fill="#F7F7F7"/>
<path d="M81.0254 74.5751C83.3707 74.1325 85.2385 74.7718 85.4071 76.1837C85.4773 76.837 85.8775 77.8626 84.5574 78.1015C82.4298 78.4878 81.6714 77.7713 81.0254 74.5751Z" fill="#F7F7F7"/>
<path d="M124.479 75.2078C124.732 76.683 123.742 76.985 122.639 76.9991C121.867 76.9991 121.003 76.9991 121.01 75.7487C120.992 75.4802 121.029 75.2109 121.119 74.9572C121.208 74.7035 121.349 74.4708 121.532 74.2735C121.715 74.0761 121.936 73.9182 122.182 73.8095C122.428 73.7008 122.694 73.6436 122.963 73.6413C123.177 73.5892 123.401 73.594 123.612 73.6552C123.824 73.7164 124.016 73.8319 124.169 73.9902C124.322 74.1485 124.432 74.3441 124.486 74.5577C124.541 74.7713 124.538 74.9954 124.479 75.2078Z" fill="#F7F7F7"/>
<path d="M153.077 110.878C152.311 111.828 151.354 112.606 150.268 113.161C148.688 114.159 147.537 112.866 146.371 112.009C147.073 111.251 148.134 111.918 148.934 111.476C149.201 111.63 149.264 111.405 149.362 111.237C150.64 111.82 151.764 110.534 153.077 110.878Z" fill="#B2CEE8"/>
<path d="M159.756 80.5396C160.651 82.639 161.158 84.8834 161.252 87.1638C161.294 87.4337 161.243 87.7098 161.108 87.9471C160.973 88.1844 160.761 88.3689 160.508 88.4704C160.416 86.2296 159.426 84.1081 159.637 81.8251C159.714 80.947 158.794 81.1226 158.232 80.6449L159.756 80.5396Z" fill="#1A1C1F"/>
<path d="M87.363 88.084C87.363 89.5802 86.738 90.1281 85.9586 89.9104C85.467 89.7769 84.2031 90.2897 84.4418 88.962C84.5823 88.2104 84.6103 87.1918 85.7409 87.227C86.5484 87.2551 87.3068 87.5712 87.363 88.084Z" fill="#F7F7F7"/>
<path d="M112.092 83.0758C112.653 83.3778 113.777 83.153 113.693 84.3542C113.608 85.5555 112.365 85.6187 111.586 85.8083C110.884 85.9769 110.743 85.2042 110.807 84.5369C110.863 83.7571 110.905 82.9985 112.092 83.0758Z" fill="#F7F7F7"/>
<path d="M89.3881 102.913C88.2927 102.913 87.4501 103.089 87.4571 101.887C87.4641 100.686 88.3208 100.953 89.037 100.827C89.985 100.665 90.1254 101.058 90.2448 101.901C90.4274 103.138 89.6901 102.913 89.3881 102.913Z" fill="#F7F7F7"/>
<path d="M169.104 102.492C167.236 101.727 165.347 102.815 163.297 102.415C163.963 101.954 164.755 101.709 165.565 101.712C168.718 101.586 168.718 101.579 168.844 98.3477C169.589 99.6894 169.069 101.108 169.104 102.492Z" fill="#F7F7F7"/>
<path d="M114.148 104.263C115.012 103.616 113.741 101.6 115.749 101.769C116.381 101.818 116.599 102.092 116.641 102.808C116.761 104.846 115.054 103.855 114.148 104.263Z" fill="#F7F7F7"/>
<path d="M148.909 66.0053C147.631 64.1086 148.382 62.2049 148.909 60.3013C150.215 62.1698 148.502 64.1086 148.909 66.0053Z" fill="#1A1C1F"/>
<path d="M107.434 50.3252C107.813 50.4446 108.424 50.6624 107.988 51.0277C107.061 51.8776 106.401 53.2966 104.744 52.9454L107.434 50.3252Z" fill="#F7F7F7"/>
<path d="M148.901 59.0288C148.051 57.6239 149.126 56.7458 149.715 55.7202C150.432 57.069 150.467 58.2491 148.901 59.0288Z" fill="#1A1C1F"/>
<path d="M153.852 68.6255C154.393 69.3701 154.906 70.1288 155.467 70.8523C155.938 71.4634 155.292 71.4564 155.053 71.6742C153.782 70.9928 153.782 69.8267 153.852 68.6255Z" fill="#1A1C1F"/>
<path d="M149.721 55.7217C150.149 54.949 150.297 53.9514 151.315 53.6143C152.045 54.668 151.371 55.5531 149.721 55.7217Z" fill="#1A1C1F"/>
<path d="M152.135 58.6157C152.76 59.4587 152.135 60.2736 152.085 61.1025C150.969 60.2525 150.906 59.4236 152.135 58.6157Z" fill="#1A1C1F"/>
<path d="M52.0475 40.0205C51.5209 40.5965 51.3945 41.6362 50.299 41.573C50.1867 40.2664 50.8749 39.873 52.0475 40.0205Z" fill="#1A1C1F"/>
<path d="M161.735 97.5537C161.905 97.7915 162.019 98.0654 162.066 98.3541C162.114 98.6428 162.094 98.9386 162.009 99.2185C161.719 99.1629 161.451 99.0255 161.237 98.8226C161.023 98.6197 160.872 98.3598 160.801 98.0735C160.716 97.6661 161.334 97.5959 161.735 97.5537Z" fill="#1A1C1F"/>
<path d="M153.345 51.0854C152.643 49.6805 154.11 49.6173 154.637 48.978C154.981 50.1511 154.342 50.7272 153.345 51.0854Z" fill="#1A1C1F"/>
<path d="M49.0488 38.2862C49.236 37.4922 49.6714 36.7786 50.2917 36.249C50.4251 36.7899 50.5656 37.3308 50.699 37.8717C49.9827 37.373 49.5755 38.0895 49.0488 38.2862Z" fill="#1A1C1F"/>
<path d="M153.075 56.0938C153.693 57.1545 152.794 57.6322 152.254 58.2503C152.166 57.8499 152.197 57.4326 152.343 57.0495C152.489 56.6665 152.744 56.3343 153.075 56.0938Z" fill="#1A1C1F"/>
<path d="M161.664 93.4023C161.818 94.5022 161.818 95.6181 161.664 96.718C161.396 96.2066 161.256 95.6377 161.256 95.0602C161.256 94.4827 161.396 93.9138 161.664 93.4023Z" fill="#1A1C1F"/>
<path d="M153.781 139.357C154.118 138.346 154.87 138.528 155.621 138.718C155.417 139 155.131 139.213 154.802 139.328C154.473 139.442 154.116 139.452 153.781 139.357Z" fill="#B2CEE8"/>
<path d="M158.83 88.3794C158.423 88.3794 158.128 89.1521 157.658 88.5831C157.299 88.1405 158.051 88 158.016 87.6137C158.122 87.5958 158.232 87.6028 158.335 87.6342C158.439 87.6655 158.534 87.7204 158.613 87.7945C158.692 87.8687 158.752 87.96 158.79 88.0615C158.828 88.1629 158.841 88.2717 158.83 88.3794Z" fill="#1A1C1F"/>
<path d="M157.557 105.413C157.782 104.57 157.199 103.594 157.95 102.828C157.866 103.699 158.372 104.662 157.557 105.413Z" fill="#1A1C1F"/>
<path d="M49.1501 42.4229C49.733 43.1253 49.3748 43.4906 48.6375 43.6732C48.6235 43.2026 48.5814 42.6898 49.1501 42.4229Z" fill="#1A1C1F"/>
<path d="M149.245 67.3336L149.076 66.4766C149.406 66.4766 149.863 66.4766 149.94 66.8208C150.017 67.165 149.568 67.2774 149.245 67.3336Z" fill="#1A1C1F"/>
<path d="M51.9117 34.1546C51.7783 33.4521 52.3049 33.4521 52.7683 33.3818C52.7827 33.4943 52.7695 33.6086 52.7301 33.7149C52.6907 33.8212 52.6262 33.9164 52.542 33.9923C52.4578 34.0682 52.3565 34.1226 52.2468 34.1509C52.137 34.1792 52.022 34.1804 51.9117 34.1546Z" fill="#1A1C1F"/>
<path d="M158.471 43.2666L159.285 44.0885C158.913 43.9058 157.67 44.6083 158.471 43.2666Z" fill="#1A1C1F"/>
<path d="M161.996 100.041C161.954 100.329 162.109 100.673 161.765 100.883C161.14 100.413 161.406 100.181 161.996 100.041Z" fill="#1A1C1F"/>
<path d="M51.1913 35.0064C51.0649 34.4093 51.43 34.2267 51.8935 34.1494C51.917 34.2536 51.9165 34.3619 51.8919 34.4659C51.8673 34.5698 51.8193 34.6668 51.7516 34.7495C51.6839 34.8321 51.5983 34.8982 51.5012 34.9427C51.4041 34.9873 51.2981 35.0091 51.1913 35.0064Z" fill="#1A1C1F"/>
<path d="M152.109 104.97C151.999 104.962 151.89 104.992 151.8 105.055C151.8 104.472 151.596 103.847 152.13 103.362L152.109 104.97Z" fill="#1A1C1F"/>
<path d="M158.114 95.4873C157.868 94.848 158.177 94.5811 158.816 94.5249C158.837 95.0377 158.732 95.4451 158.114 95.4873Z" fill="#1A1C1F"/>
<path d="M153.014 41.5657C152.558 41.8466 152.424 41.4954 152.256 41.1933C152.684 40.9615 153.077 40.8281 153.014 41.5657Z" fill="#1A1C1F"/>
<path d="M149.264 140.18C149.839 139.653 150.535 139.85 151.195 139.871C150.932 140.095 150.613 140.242 150.273 140.297C149.932 140.352 149.583 140.311 149.264 140.18Z" fill="#B2CEE8"/>
<path d="M50.3262 36.2482C50.3262 35.7284 50.8037 35.6722 51.1196 35.4614L50.3262 36.2482Z" fill="#1A1C1F"/>
<path d="M158.175 97.792L158.119 96.7383C158.265 96.8713 158.353 97.0564 158.363 97.2536C158.374 97.4508 158.306 97.6442 158.175 97.792Z" fill="#1A1C1F"/>
<path d="M152.158 139.73C152.294 139.586 152.466 139.481 152.656 139.426C152.847 139.372 153.048 139.37 153.24 139.421C152.994 139.906 152.579 139.822 152.158 139.73Z" fill="#B2CEE8"/>
<path d="M156.771 40.9697L157.123 41.0534L156.912 41.1511C156.874 41.1362 156.841 41.1115 156.817 41.0796C156.792 41.0477 156.776 41.0097 156.771 40.9697Z" fill="#1A1C1F"/>
<path d="M153.67 108.273C153.802 108.146 153.964 108.054 154.14 108.003C154.316 107.953 154.502 107.947 154.681 107.985C154.559 108.126 154.398 108.228 154.218 108.279C154.039 108.331 153.848 108.328 153.67 108.273Z" fill="#1A1C1F"/>
<path d="M159.663 104.606L159.214 104.908L159.115 104.761L159.649 104.592L159.663 104.606Z" fill="#1A1C1F"/>
<path d="M153.864 76.0012C153.408 75.8677 153.52 75.5165 153.548 75.1934L153.864 76.0012Z" fill="#1A1C1F"/>
<path d="M153.076 74.2733C152.932 74.2309 152.811 74.1332 152.738 74.0016C152.666 73.87 152.649 73.7152 152.69 73.5708L153.076 74.2733Z" fill="#1A1C1F"/>
<path d="M152.197 72.7058C151.811 72.5302 152.008 72.1789 151.959 71.8979C152.036 72.1649 152.113 72.4389 152.197 72.7058Z" fill="#1A1C1F"/>
<path d="M104.765 53.0381C104.864 53.4877 104.548 53.572 104.225 53.6633L104.765 53.0381Z" fill="#F7F7F7"/>
<path d="M149.314 68.1057C149.026 67.9793 149.012 67.8247 149.265 67.6421C149.279 67.7896 149.293 67.9512 149.314 68.1057Z" fill="#1A1C1F"/>
<path d="M149.713 68.9702C149.53 68.9 149.341 68.8297 149.439 68.5698L149.713 68.9702Z" fill="#1A1C1F"/>
<path d="M161.643 102.533C161.659 102.584 161.664 102.639 161.658 102.692C161.652 102.746 161.635 102.798 161.608 102.845C161.581 102.892 161.545 102.932 161.501 102.964C161.458 102.997 161.408 103.019 161.355 103.031L161.643 102.533Z" fill="#1A1C1F"/>
<path d="M158.098 100.448C158.069 100.395 158.053 100.336 158.051 100.276C158.049 100.216 158.06 100.156 158.085 100.101C158.109 100.046 158.146 99.9977 158.192 99.9592C158.238 99.9206 158.292 99.8932 158.351 99.8789L158.098 100.448Z" fill="#1A1C1F"/>
<path d="M156.387 47.0232L156.513 46.6157C156.535 46.7221 156.547 46.8303 156.548 46.9389C156.541 46.974 156.443 46.9951 156.387 47.0232Z" fill="#1A1C1F"/>
<path d="M159.65 104.591L159.756 104.417C159.756 104.48 159.7 104.543 159.664 104.605L159.65 104.591Z" fill="#1A1C1F"/>
<path d="M154.285 76.7965L154.096 76.4663C154.15 76.5034 154.196 76.5524 154.228 76.6096C154.261 76.6668 154.281 76.7307 154.285 76.7965Z" fill="#1A1C1F"/>
<path d="M159.271 44.0679C159.496 44.1381 159.658 44.2505 159.594 44.5245L159.271 44.0679Z" fill="#1A1C1F"/>
<path d="M151.723 106.671C151.807 106.966 151.617 107.065 151.393 107.142L151.723 106.671Z" fill="#1A1C1F"/>
<path d="M158.87 98.5496L158.414 98.3822C158.541 98.3541 158.67 98.3401 158.8 98.3403L158.878 98.4171L158.87 98.5496Z" fill="#1A1C1F"/>
<path d="M151.625 108.68L152.194 108.42L151.625 108.68Z" fill="#1A1C1F"/>
<path d="M155.093 44.3756C154.882 44.4177 154.784 44.3756 154.882 44.1367C154.934 44.1555 154.981 44.1873 155.018 44.229C155.055 44.2708 155.081 44.3212 155.093 44.3756Z" fill="#1A1C1F"/>
<path d="M149.337 111.238C149.238 111.406 149.175 111.631 148.908 111.477L149.337 111.238Z" fill="#1A1C1F"/>
<path d="M48.4489 44.1367C48.5473 44.3615 48.4489 44.4177 48.2383 44.3756C48.2491 44.3207 48.2743 44.2696 48.3113 44.2277C48.3484 44.1857 48.3958 44.1543 48.4489 44.1367Z" fill="#1A1C1F"/>
<path d="M157.99 42.1778C158.348 42.0022 158.222 42.3043 158.25 42.4518C158.187 42.4316 158.131 42.3959 158.085 42.348C158.04 42.3002 158.007 42.2416 157.99 42.1778Z" fill="#1A1C1F"/>
<path d="M155.52 39.9644L155.779 40.3577L155.52 39.9644Z" fill="#1A1C1F"/>
<path d="M154.287 38.7007L154.68 38.8412C154.484 39.0379 154.35 38.9325 154.287 38.7007Z" fill="#1A1C1F"/>
<path d="M48.6309 38.8404L49.0241 38.6929C48.9609 38.9247 48.8556 39.0371 48.6309 38.8404Z" fill="#1A1C1F"/>
<path d="M141.002 38.2861L141.416 38.0332L141.002 38.2861Z" fill="#1A1C1F"/>
<path d="M50.7004 37.8994L50.8689 38.0738C50.8689 38.0738 50.7846 38.0738 50.7636 38.0389C50.7334 37.9986 50.7097 37.9539 50.6934 37.9064L50.7004 37.8994Z" fill="#1A1C1F"/>
<path d="M158.801 98.3392L159.018 98.1987C158.968 98.2686 158.921 98.3413 158.878 98.4165L158.801 98.3392Z" fill="#1A1C1F"/>
<path d="M156.757 82.6325L156.525 82.2461L156.757 82.6325Z" fill="#1A1C1F"/>
<path d="M52.8027 33.3677C52.9151 32.9392 53.0485 33.0446 53.1819 33.3677C53.0557 33.3782 52.9289 33.3782 52.8027 33.3677Z" fill="#1A1C1F"/>
<path d="M153.437 74.8138L153.1 74.3643L153.437 74.8138Z" fill="#1A1C1F"/>
<path d="M62.729 39.9153C61.6757 40.5194 60.6224 40.9128 59.541 40.0136C59.8289 39.1285 60.1449 38.0818 61.2403 38.1099C61.4639 38.11 61.6846 38.1595 61.8868 38.2549C62.089 38.3503 62.2676 38.4892 62.4098 38.6617C62.5521 38.8342 62.6545 39.0361 62.7096 39.2528C62.7648 39.4695 62.7714 39.6957 62.729 39.9153Z" fill="#101113"/>
<path d="M155.619 53.6069C155.816 53.2276 155.865 52.7218 156.42 52.6445C156.432 52.8764 156.357 53.1044 156.208 53.2829C156.06 53.4614 155.849 53.5771 155.619 53.6069Z" fill="white"/>
<path d="M189.901 100.666C187.837 102.387 185.997 103.813 184.719 105.794C184.613 105.975 184.458 106.122 184.271 106.216C184.084 106.311 183.874 106.35 183.666 106.328C183.09 106.23 183.322 105.682 183.301 105.323C183.202 103.687 183.434 102.05 182.964 100.406C182.662 99.3455 183.336 99.0996 184.277 99.3244L189.901 100.666Z" fill="#F7F7F7"/>
<path d="M183.273 112.944C185.45 114.679 186.208 116.899 187.557 118.69C187.753 118.89 187.862 119.158 187.862 119.438C187.862 119.718 187.753 119.987 187.557 120.186C187.107 120.629 186.56 120.186 186.11 120.186C182.796 120.362 182.599 118.571 183.231 116.049C183.351 115.018 183.365 113.978 183.273 112.944Z" fill="#F7F7F7"/>
<path d="M15.0673 116.196L14.8848 116.112L15.0603 116.203L15.0673 116.196Z" fill="#F7F7F7"/>
</svg>
