<svg width="40" height="30" viewBox="0 0 40 30" fill="none" xmlns="http://www.w3.org/2000/svg">
<path d="M14.6991 0.426884C14.6991 0.455967 14.6617 0.470509 14.6189 0.455967C14.5761 0.436577 14.5066 0.446272 14.4691 0.475357C14.4049 0.52383 14.1321 0.518984 13.7737 0.455967C13.6026 0.426884 13.5758 0.436577 13.6079 0.50444C13.624 0.548067 13.6133 0.581999 13.5812 0.581999C13.5491 0.581999 13.5223 0.557762 13.5223 0.528679C13.5223 0.499594 13.4902 0.485052 13.4474 0.499594C13.4047 0.514135 13.3565 0.50444 13.3405 0.470509C13.3298 0.436577 13.3137 0.45112 13.3137 0.499594C13.3084 0.577152 13.2977 0.581999 13.2281 0.518984C13.1479 0.446272 12.9714 0.460815 12.6665 0.572304C12.5916 0.596542 12.4044 0.611084 12.2546 0.601389C12.0193 0.591694 11.9711 0.601389 11.9711 0.664406C11.9711 0.737116 11.9658 0.737116 11.9016 0.659557C11.8481 0.596542 11.8053 0.586847 11.7037 0.620779C11.6288 0.645016 11.4951 0.659557 11.3988 0.649862C11.2864 0.640167 11.2223 0.654711 11.2009 0.708031C11.1795 0.761353 11.1474 0.766199 11.0832 0.737116C10.9762 0.683794 10.7943 0.717726 10.7943 0.785589C10.7943 0.814674 10.7569 0.819521 10.7087 0.804979C10.6606 0.790438 10.5964 0.790438 10.5643 0.809826C10.5322 0.829216 10.4413 0.848606 10.3664 0.853453C10.2915 0.863148 10.1952 0.872843 10.1524 0.887384C10.1097 0.897079 10.0027 0.921316 9.91174 0.945553C9.82616 0.964943 9.72987 0.994028 9.69778 1.00857C9.67103 1.02311 9.54801 1.03281 9.41963 1.02311C9.26451 1.01342 9.18962 1.03281 9.18962 1.07158C9.18962 1.10552 9.17358 1.11521 9.15218 1.10067C9.13613 1.08128 9.08264 1.09582 9.03985 1.12976C8.97031 1.17823 8.96496 1.17338 9.00241 1.12006C9.0345 1.06674 9.01311 1.06189 8.89008 1.09097C8.80449 1.11521 8.64402 1.1346 8.53704 1.13945C8.42471 1.1443 8.29099 1.18307 8.24285 1.22186C8.18935 1.26548 8.04493 1.31396 7.9219 1.33334C7.76143 1.35758 7.6919 1.39151 7.68655 1.44483C7.68655 1.52239 7.6812 1.52239 7.6491 1.44968C7.60096 1.34789 7.37095 1.41575 7.37095 1.52724C7.37095 1.56602 7.33351 1.59995 7.29072 1.59995C7.24793 1.59995 7.21048 1.57571 7.21048 1.55148C7.21048 1.46422 6.99652 1.49816 6.99117 1.58541C6.99117 1.63388 6.97513 1.64842 6.96443 1.61934C6.94838 1.58056 6.87884 1.57571 6.73977 1.6048C6.63279 1.62904 6.49906 1.63388 6.45092 1.61934C6.39743 1.6048 6.3279 1.60965 6.29045 1.63388C6.25301 1.65327 6.18882 1.67266 6.14603 1.68236C6.10324 1.6872 6.05509 1.70659 6.03905 1.73083C6.0016 1.77446 5.92137 1.79385 5.70206 1.80839C5.62182 1.81324 5.55229 1.83262 5.55229 1.85201C5.55229 1.90049 5.33833 1.95381 5.13506 1.9635C5.03878 1.9635 4.9425 1.99259 4.9211 2.02167C4.89971 2.05076 4.79273 2.08954 4.67505 2.10408C4.56272 2.12347 4.45039 2.14286 4.42899 2.1574C4.40225 2.17194 4.3755 2.1574 4.3648 2.12832C4.35411 2.10408 4.30596 2.09439 4.25247 2.10893C4.20433 2.12832 4.17759 2.1671 4.19898 2.19618C4.22038 2.22526 4.19898 2.23496 4.14549 2.21557C4.09735 2.20103 4.04921 2.21557 4.03316 2.2592C4.01712 2.29797 3.94758 2.32706 3.88339 2.32706C3.81385 2.32706 3.69083 2.37069 3.60524 2.41916C3.51431 2.47248 3.42872 2.50641 3.40198 2.49187C3.38058 2.47733 3.35919 2.49187 3.35919 2.51611C3.35919 2.54519 3.32174 2.56943 3.27895 2.56943C3.23616 2.56943 3.19872 2.58882 3.19872 2.6179C3.19872 2.64214 3.16127 2.66638 3.12383 2.66638C3.08104 2.66638 2.92592 2.76332 2.78684 2.88451C2.64777 3.00569 2.49799 3.09295 2.46055 3.0784C2.42311 3.06871 2.40706 3.0784 2.42311 3.10264C2.43915 3.13173 2.42846 3.15112 2.39636 3.15112C2.35892 3.15112 2.34822 3.18505 2.36427 3.22383C2.38566 3.27715 2.36427 3.29654 2.30008 3.28684C2.24124 3.27715 2.20915 3.30138 2.2145 3.35471C2.21984 3.40318 2.2038 3.43226 2.1824 3.41772C2.16101 3.40803 2.09147 3.44196 2.03263 3.49528C1.96844 3.5486 1.91495 3.56799 1.91495 3.53891C1.91495 3.50982 1.88821 3.50013 1.86146 3.51467C1.82937 3.53406 1.82402 3.56799 1.84006 3.59707C1.86146 3.62616 1.84541 3.6407 1.80797 3.62616C1.71704 3.60192 1.41749 3.86368 1.46028 3.9267C1.47633 3.95578 1.46563 3.97517 1.43889 3.97517C1.40679 3.97517 1.38005 3.95093 1.38005 3.92185C1.38005 3.84914 1.01631 4.21754 0.989569 4.32418C0.973522 4.37266 0.98422 4.42598 1.01097 4.44052C1.03771 4.45506 1.05911 4.50354 1.05911 4.54716C1.05911 4.61503 1.04841 4.61018 0.989569 4.53747C0.920032 4.45506 0.909334 4.45991 0.845146 4.61018C0.807703 4.70228 0.743514 4.79923 0.700722 4.82831C0.65793 4.86224 0.615138 4.94465 0.599091 5.01736C0.583044 5.09492 0.550949 5.19187 0.524204 5.23549C0.497459 5.28397 0.486761 5.33244 0.508157 5.34698C0.524204 5.36637 0.508157 5.41 0.476063 5.44878C0.43862 5.48756 0.422573 5.54572 0.443969 5.57481C0.460016 5.59904 0.449318 5.62328 0.417224 5.62328C0.379781 5.62328 0.363734 5.65722 0.38513 5.69599C0.401177 5.73477 0.390479 5.7687 0.363734 5.7687C0.256753 5.7687 0.176518 6.48127 0.2728 6.58791C0.315592 6.63639 0.320941 6.65093 0.2728 6.62669C0.240706 6.6073 0.197914 6.61215 0.176518 6.64123C0.160471 6.66547 0.176518 6.68971 0.213961 6.68971C0.267451 6.68971 0.2728 6.6994 0.213961 6.72849C0.176518 6.75272 0.149773 6.83513 0.155122 6.91269C0.160471 6.99025 0.155122 7.08719 0.144424 7.12597C0.133726 7.16475 0.155122 7.19384 0.192565 7.18414C0.278149 7.1696 0.2728 7.21323 0.181867 7.30048C0.139075 7.33926 0.112329 7.4362 0.117679 7.52346C0.128377 7.61071 0.112329 7.71251 0.0802354 7.74159C0.0481412 7.78522 0.0534902 7.82884 0.0962824 7.87732C0.133726 7.9161 0.144424 7.95003 0.117679 7.95003C0.0909334 7.95003 0.0748863 8.17301 0.0802354 8.44446C0.0855844 8.71592 0.0748863 8.96313 0.0481412 8.98737C0.0213961 9.01645 0.0213961 9.08432 0.0427922 9.13764C0.0641883 9.19096 0.0641883 9.27821 0.0427922 9.33153C-0.0160471 9.4818 0.0160471 10.2622 0.0855844 10.3398C0.123028 10.3786 0.133726 10.4222 0.112329 10.4416C0.0909334 10.461 0.0695373 10.5337 0.0641883 10.6064C0.0588393 10.6791 0.0534902 10.7373 0.0481412 10.7373C0.0374432 10.7373 0.0320941 10.8245 0.0267451 10.9263C0.0160471 11.0717 0.0374432 11.1202 0.112329 11.1396C0.224659 11.1638 0.230008 11.2269 0.117679 11.2656C0.0748863 11.2802 0.0534902 11.2753 0.0695373 11.2463C0.0855844 11.2172 0.0802354 11.1978 0.0481412 11.1978C-0.0160471 11.1978 -0.0160471 11.5759 0.0481412 11.6147C0.0748863 11.6292 0.0962824 11.6631 0.0962824 11.6874C0.0962824 11.7164 0.0748863 11.7213 0.0427922 11.7068C0.010698 11.6874 0.00534902 11.7164 0.0374432 11.7892C0.0588393 11.8522 0.0748863 12.1285 0.0641883 12.4096C0.0534902 12.778 0.0695373 12.9477 0.128377 13.0252C0.176518 13.098 0.181867 13.1367 0.139075 13.1464C0.0962824 13.161 0.0962824 13.1949 0.144424 13.2676C0.176518 13.3258 0.203263 13.4276 0.203263 13.4954C0.203263 13.5585 0.240706 13.6457 0.283498 13.6845C0.32629 13.7233 0.342338 13.7669 0.32629 13.7863C0.310243 13.8008 0.32629 13.8445 0.363734 13.8881C0.417224 13.9462 0.417224 13.9608 0.363734 13.9608C0.315592 13.9608 0.310243 13.9753 0.358385 14.0238C0.390479 14.0626 0.401177 14.1062 0.379781 14.1208C0.347687 14.1498 0.43862 14.1741 0.540251 14.1595C0.561647 14.1595 0.577695 14.1789 0.577695 14.208C0.577695 14.2371 0.540251 14.2468 0.49211 14.2322C0.411875 14.2032 0.411875 14.2129 0.497459 14.3292C0.5456 14.4019 0.561647 14.4407 0.529553 14.4261C0.454667 14.3825 0.454667 14.4164 0.5456 14.7121C0.583044 14.843 0.60444 14.9836 0.588393 15.0175C0.577695 15.0515 0.588393 15.1048 0.615138 15.1387C0.641883 15.1726 0.668628 15.2938 0.679326 15.415C0.690024 15.6768 0.780957 16.0839 0.855844 16.21C0.893287 16.273 0.887938 16.3118 0.845146 16.336C0.797005 16.3651 0.797005 16.3845 0.861193 16.4136C0.946777 16.4572 1.10725 16.9225 1.13934 17.2085C1.15004 17.3006 1.19283 17.4994 1.24097 17.6448C1.28377 17.7902 1.35865 18.0423 1.40679 18.2023C1.45493 18.3574 1.53517 18.5125 1.58331 18.5464C1.6582 18.5949 1.6582 18.6143 1.59936 18.6821C1.55122 18.7355 1.54587 18.7597 1.58866 18.7597C1.62075 18.7597 1.6475 18.7888 1.6475 18.8276C1.6475 18.8663 1.69029 18.91 1.74378 18.9197C1.82937 18.9391 1.82937 18.9439 1.74378 18.9488C1.6261 18.9536 1.62075 19.0118 1.73308 19.2057C1.78122 19.2929 1.79192 19.3365 1.75448 19.3172C1.70634 19.2881 1.70634 19.3075 1.75448 19.3899C1.78657 19.448 1.80262 19.5062 1.78657 19.5207C1.77053 19.5353 1.79727 19.5789 1.84006 19.6177C1.88286 19.6613 1.9096 19.7195 1.89355 19.7534C1.88286 19.7873 1.91495 19.8601 1.97379 19.9134C2.02728 19.9715 2.07542 20.0491 2.07542 20.0927C2.07542 20.1315 2.09682 20.1654 2.12891 20.1654C2.15566 20.1654 2.16101 20.1994 2.14496 20.2479C2.12356 20.2963 2.13426 20.3157 2.16635 20.2963C2.19845 20.2769 2.2145 20.3109 2.2038 20.3836C2.19845 20.4514 2.20915 20.5048 2.23054 20.5048C2.25194 20.5048 2.27333 20.5387 2.27333 20.5775C2.27333 20.6163 2.24659 20.6502 2.2145 20.6502C2.1824 20.6502 2.1931 20.6744 2.23589 20.6987C2.27868 20.7229 2.29473 20.7471 2.27333 20.7471C2.25194 20.7471 2.26264 20.7762 2.30008 20.815C2.33752 20.8538 2.38566 20.8732 2.40706 20.8586C2.43381 20.8489 2.4552 20.878 2.4552 20.9265C2.47125 21.1398 2.49265 21.2222 2.53544 21.2852C2.55683 21.3191 2.58358 21.3918 2.58893 21.4452C2.58893 21.4985 2.62102 21.5518 2.65312 21.5615C2.69056 21.5712 2.7173 21.6148 2.7173 21.6633C2.7173 21.7069 2.74405 21.7699 2.78149 21.8039C2.81894 21.8378 2.82428 21.862 2.80289 21.862C2.77614 21.862 2.78684 21.896 2.82428 21.9347C2.86173 21.9784 2.87777 22.022 2.86173 22.0365C2.84568 22.0559 2.88847 22.1238 2.95801 22.1917C3.02755 22.2595 3.07569 22.3322 3.05964 22.3565C3.04359 22.3759 3.08104 22.4437 3.13988 22.5019C3.20407 22.5601 3.25221 22.6328 3.25221 22.6667C3.25221 22.7491 3.40198 22.7927 3.43407 22.72C3.45012 22.6861 3.46082 22.6909 3.46082 22.7346C3.45547 22.7733 3.47152 22.8606 3.49291 22.9188C3.52501 23.0012 3.5464 23.0157 3.5785 22.9721C3.59989 22.9382 3.61059 23.0012 3.59989 23.1078C3.58385 23.2484 3.59989 23.3162 3.65338 23.3308C3.69618 23.3502 3.71222 23.3987 3.69618 23.4665C3.67478 23.5344 3.68548 23.5635 3.71757 23.5441C3.74967 23.5247 3.77106 23.5489 3.76571 23.5974C3.76036 23.6556 3.79246 23.675 3.88874 23.6653C3.97432 23.6604 4.00642 23.675 3.98502 23.7234C3.96363 23.7719 3.98502 23.7816 4.06526 23.7622C4.16689 23.738 4.17224 23.7525 4.14014 23.8785C4.11875 23.9561 4.11875 24.0046 4.14014 23.9852C4.15619 23.9658 4.22573 24.0046 4.28457 24.0724C4.3755 24.1791 4.38085 24.2033 4.31666 24.2421C4.25247 24.276 4.25247 24.2857 4.32201 24.2906C4.3648 24.2954 4.41294 24.2954 4.42899 24.2954C4.44504 24.2954 4.48783 24.3245 4.52527 24.3633C4.58411 24.4215 4.57876 24.4311 4.50923 24.4311C4.46643 24.4311 4.42899 24.4408 4.42899 24.4554C4.42899 24.5232 4.6697 24.7705 4.73389 24.7705C4.77133 24.7705 4.80342 24.8141 4.80342 24.8674C4.80342 24.9256 4.84087 24.9644 4.89971 24.9644C4.97459 24.9644 4.97994 24.9741 4.9104 25.0128C4.84087 25.0565 4.84087 25.0613 4.9104 25.0662C4.9532 25.071 5.01204 25.071 5.03343 25.0662C5.06018 25.0613 5.06553 25.0807 5.04413 25.1098C5.02808 25.134 5.04948 25.1728 5.09227 25.1873C5.14041 25.2019 5.17786 25.2504 5.17786 25.2891C5.17786 25.3279 5.22065 25.3522 5.27414 25.3473C5.43461 25.3328 5.4988 25.3522 5.4988 25.4055C5.4988 25.4297 5.4774 25.4394 5.44531 25.4249C5.41856 25.4103 5.39182 25.4152 5.39182 25.4443C5.39182 25.4685 5.43996 25.5073 5.4988 25.5218C5.55764 25.5364 5.60578 25.5848 5.60578 25.6188C5.60578 25.6624 5.63787 25.6769 5.68601 25.6624C5.78229 25.6285 5.78764 25.6624 5.70741 25.7981C5.65927 25.8854 5.65927 25.8951 5.7288 25.8708C5.78764 25.8514 5.82509 25.8757 5.85183 25.9435C5.87858 26.0211 5.89462 26.0308 5.93207 25.9775C5.96951 25.9241 5.98021 25.9241 5.98021 25.992C5.98021 26.0356 6.05509 26.1132 6.14068 26.1617C6.23161 26.2053 6.30115 26.2683 6.30115 26.2974C6.30115 26.3265 6.36534 26.3992 6.44022 26.4622C6.55255 26.5543 6.59 26.5592 6.65953 26.5058C6.73442 26.4525 6.74512 26.4574 6.71837 26.5543C6.69698 26.6125 6.70233 26.6513 6.72907 26.6367C6.75047 26.6222 6.78256 26.6609 6.80396 26.724C6.82001 26.787 6.91094 26.8694 7.01792 26.9179C7.16234 26.976 7.19979 27.0197 7.17304 27.0778C7.1463 27.1408 7.16234 27.1554 7.22653 27.1311C7.27467 27.1166 7.31746 27.1214 7.31746 27.1457C7.31746 27.1748 7.29607 27.1942 7.26397 27.1942C7.16769 27.1942 7.20513 27.2911 7.30677 27.2911C7.4191 27.296 7.59561 27.4123 7.54747 27.4511C7.51538 27.4802 7.70259 27.5044 7.80957 27.4898C7.83632 27.4898 7.84702 27.5092 7.83632 27.5432C7.83097 27.5771 7.85237 27.6013 7.88981 27.6062C7.9219 27.6062 7.97005 27.6207 7.99144 27.6401C8.01284 27.6595 8.06633 27.6498 8.11447 27.6159C8.18935 27.5674 8.18935 27.5674 8.13587 27.6304C8.04493 27.7371 8.14121 27.834 8.40332 27.897C8.42471 27.9067 8.45681 27.9164 8.48355 27.9213C8.50495 27.9261 8.56914 27.9358 8.62798 27.9407C8.70286 27.9455 8.72961 27.9746 8.71891 28.0376C8.70286 28.1103 8.72426 28.1249 8.80984 28.1006C8.89543 28.0812 8.92217 28.0958 8.91147 28.1539C8.90078 28.2121 8.92752 28.2315 8.99706 28.2218C9.0559 28.2121 9.07729 28.2267 9.0559 28.2606C9.02915 28.2945 9.0666 28.3042 9.15753 28.28C9.26451 28.2557 9.29125 28.2654 9.26986 28.3139C9.24846 28.3624 9.34474 28.4254 9.56405 28.5126C9.74057 28.5854 9.90104 28.6435 9.92244 28.6387C9.93849 28.6387 9.97593 28.6726 10.0027 28.7162C10.0348 28.7647 10.099 28.7889 10.1845 28.7744C10.2541 28.7599 10.3129 28.7744 10.3129 28.7986C10.3129 28.8277 10.3343 28.8326 10.3664 28.818C10.3932 28.8035 10.4787 28.8277 10.5536 28.8714C10.6285 28.915 10.6873 28.9392 10.6873 28.9247C10.6873 28.9101 10.7943 28.9295 10.9227 28.9635C11.0939 29.0119 11.1741 29.0119 11.2169 28.9731C11.2597 28.9344 11.2757 28.9344 11.2757 28.9828C11.2757 29.0168 11.2971 29.0265 11.3292 29.0119C11.356 28.9974 11.4576 29.0216 11.5539 29.0652C11.6609 29.1137 11.8641 29.1525 12.062 29.1525C12.2439 29.1574 12.3669 29.167 12.3348 29.1767C12.3028 29.1864 12.3723 29.2252 12.4846 29.2591C12.597 29.2979 12.7253 29.3173 12.7628 29.3028C12.7949 29.2931 12.827 29.3076 12.827 29.3416C12.827 29.3803 12.843 29.3803 12.8751 29.3319C12.9125 29.2785 12.9446 29.2785 13.0463 29.327C13.1372 29.3755 13.1746 29.3755 13.1907 29.3319C13.2228 29.2495 13.3084 29.2688 13.3084 29.3609C13.3084 29.4288 13.3191 29.4337 13.3565 29.3803C13.3886 29.3367 13.4421 29.327 13.5277 29.3561C13.5972 29.3755 13.6988 29.39 13.7523 29.3803C13.8005 29.3755 13.8433 29.3949 13.8433 29.4288C13.8433 29.4676 13.8593 29.4724 13.9128 29.4288C13.9556 29.3997 14.0037 29.3949 14.0251 29.4143C14.0465 29.4337 14.1 29.4046 14.1428 29.3561C14.1803 29.3028 14.2338 29.2785 14.2551 29.2979C14.2765 29.3173 14.2605 29.3512 14.2177 29.3755C14.1749 29.4046 14.1482 29.424 14.1642 29.4288C14.1803 29.4288 14.2391 29.4385 14.2979 29.4482C14.3568 29.4579 14.4691 29.4773 14.5547 29.4918C14.6349 29.5064 14.6991 29.5015 14.6991 29.4773C14.6991 29.453 14.8917 29.4385 15.127 29.4433C15.555 29.4482 15.6031 29.4385 15.5015 29.3464C15.464 29.3125 15.4694 29.2931 15.5229 29.2931C15.5657 29.2931 15.5924 29.3125 15.5764 29.3367C15.5603 29.3561 15.5764 29.3755 15.6031 29.3755C15.7047 29.3755 15.7422 29.3852 15.8385 29.4288C15.9026 29.4627 15.9294 29.4579 15.9294 29.4143C15.9294 29.3706 15.9454 29.3658 15.9722 29.4046C15.9936 29.4337 16.0524 29.4433 16.1113 29.4288C16.2022 29.3949 16.2022 29.39 16.122 29.3125C16.0685 29.2688 16.0471 29.2301 16.0738 29.2301C16.1006 29.2301 16.1647 29.2785 16.2182 29.3367C16.3145 29.4385 16.3199 29.4385 16.3894 29.3512C16.4322 29.3028 16.4643 29.2834 16.4643 29.3076C16.4643 29.3416 16.5659 29.3464 16.7745 29.3173C16.9404 29.2931 17.2239 29.264 17.395 29.2543C17.5715 29.2398 17.732 29.2058 17.7588 29.1719C17.7909 29.1234 17.8016 29.1234 17.8016 29.1816C17.8016 29.2398 17.8122 29.2398 17.8497 29.1913C17.8711 29.1574 17.9139 29.1331 17.9406 29.138C18.0797 29.1622 18.1278 29.1283 18.0957 29.0362C18.0744 28.9828 18.085 28.9392 18.1171 28.9392C18.1492 28.9392 18.176 28.978 18.176 29.0216C18.176 29.0943 18.1867 29.0943 18.2241 29.041C18.2509 29.0022 18.3097 28.9877 18.3525 29.0022C18.4006 29.0168 18.4488 29.0071 18.4648 28.9731C18.4916 28.9295 18.5023 28.9295 18.529 28.978C18.5451 29.0071 18.5879 29.0216 18.62 29.0022C18.6788 28.9683 18.8874 28.9392 19.096 28.9344C19.1549 28.9344 19.1763 28.9053 19.1549 28.8568C19.1335 28.8083 19.1442 28.7889 19.1763 28.8083C19.2083 28.8277 19.4116 28.7841 19.6256 28.7162C19.8449 28.6532 20.0588 28.5951 20.1016 28.5902C20.1444 28.5902 20.214 28.566 20.2514 28.5369C20.2835 28.5126 20.3156 28.5078 20.3156 28.5272C20.3156 28.5466 20.353 28.5369 20.3958 28.503C20.444 28.469 20.4921 28.4545 20.5135 28.469C20.567 28.5223 20.7489 28.406 20.7114 28.343C20.69 28.3091 20.69 28.2994 20.7168 28.3188C20.7382 28.3381 20.7917 28.3333 20.8344 28.3042C20.8719 28.2751 20.904 28.2654 20.904 28.2897C20.904 28.3091 20.9628 28.2751 21.0377 28.2121C21.1126 28.1491 21.1714 28.1152 21.1714 28.1346C21.1714 28.1588 21.2089 28.1491 21.2517 28.1152C21.2945 28.0861 21.3533 28.0715 21.3854 28.0909C21.4121 28.1055 21.4389 28.0861 21.4389 28.0473C21.4389 27.9794 21.5619 27.9455 21.7117 27.96C21.7331 27.9649 21.8347 27.8873 21.9417 27.7952C22.0487 27.7031 22.1343 27.6498 22.1343 27.6789C22.1343 27.708 22.2733 27.6353 22.4445 27.5141C22.6157 27.3929 22.7868 27.2911 22.8189 27.2911C22.8564 27.2911 22.8831 27.2717 22.8831 27.2475C22.8831 27.1893 23.5785 26.564 23.6534 26.5592C23.6855 26.5543 23.7283 26.5543 23.755 26.5592C23.7764 26.5592 23.7925 26.5301 23.7925 26.4913C23.7925 26.4525 23.8406 26.3943 23.8994 26.3604C23.9583 26.3265 24.0064 26.2828 24.0064 26.2635C24.0064 26.2053 24.2097 26.0308 24.2739 26.0308C24.3488 26.0308 24.5413 25.8514 24.4985 25.8127C24.4825 25.7981 24.5199 25.7739 24.5895 25.7545C24.6804 25.7351 24.6911 25.7157 24.6376 25.6866C24.5841 25.6527 24.5841 25.643 24.6483 25.643C24.7392 25.643 24.9265 25.4733 24.8783 25.4346C24.8676 25.42 24.8997 25.3958 24.9585 25.3812C25.0174 25.3618 25.103 25.2697 25.1511 25.168C25.1939 25.071 25.2313 25.0274 25.2313 25.0758C25.2367 25.1437 25.2527 25.1486 25.3062 25.1001C25.349 25.0662 25.3704 25.0031 25.3544 24.9547C25.3383 24.8868 25.3544 24.8723 25.4186 24.8965C25.4827 24.9159 25.5041 24.8965 25.5041 24.8189C25.5041 24.7656 25.5309 24.7317 25.5576 24.7462C25.5897 24.7608 25.6111 24.7511 25.6111 24.7268C25.6111 24.6978 25.6486 24.6735 25.6914 24.6735C25.7342 24.6735 25.7662 24.659 25.7609 24.6347C25.7502 24.5766 25.8839 24.3148 25.9481 24.276C25.9909 24.2518 25.9802 24.2179 25.9053 24.1694C25.8037 24.1015 25.809 24.0967 25.9695 24.1209C26.1246 24.1452 26.146 24.1306 26.2049 23.9706C26.2423 23.8785 26.2958 23.801 26.3225 23.801C26.3439 23.801 26.3546 23.7816 26.3332 23.7574C26.3172 23.7331 26.3332 23.6943 26.3653 23.6798C26.3921 23.6604 26.4081 23.6119 26.3921 23.5732C26.376 23.5344 26.3867 23.5198 26.4135 23.5344C26.4456 23.5489 26.467 23.5344 26.467 23.4908C26.467 23.452 26.4991 23.4083 26.5365 23.3987C26.59 23.3793 26.59 23.3696 26.5365 23.3696C26.4991 23.3647 26.467 23.3453 26.467 23.3211C26.467 23.292 26.5151 23.2823 26.5739 23.292C26.6488 23.3066 26.6809 23.2823 26.6809 23.2193C26.6809 23.1708 26.7184 23.1224 26.7612 23.103C26.804 23.0884 26.8414 23.0448 26.8414 23.0012C26.8414 22.9624 26.8628 22.9285 26.8895 22.9285C26.9484 22.9285 27.0661 22.6425 27.0286 22.5891C27.0126 22.5698 27.0393 22.5358 27.0875 22.5213C27.1409 22.5019 27.157 22.4583 27.1356 22.3952C27.1142 22.3322 27.1356 22.2838 27.2158 22.2401C27.371 22.1529 27.5528 21.8766 27.5154 21.7845C27.4993 21.7457 27.5047 21.7263 27.5368 21.7408C27.5689 21.7554 27.617 21.7554 27.6545 21.736C27.6972 21.7118 27.6919 21.6924 27.6277 21.673C27.5475 21.6439 27.5528 21.6342 27.6491 21.5809C27.7133 21.5421 27.7454 21.5373 27.724 21.5663C27.7079 21.5954 27.7186 21.6197 27.7454 21.6197C27.7775 21.6197 27.8042 21.5954 27.8042 21.5663C27.8042 21.5421 27.831 21.5324 27.8577 21.547C27.9059 21.576 27.9326 21.5082 27.9166 21.4112C27.9112 21.3773 27.9968 21.3579 28.0877 21.3724C28.1091 21.3724 28.1252 21.3531 28.1252 21.324C28.1252 21.2997 28.1466 21.2852 28.168 21.2997C28.1947 21.3143 28.2642 21.2803 28.3284 21.2319C28.3926 21.1785 28.4836 21.1301 28.537 21.1204C28.5905 21.1155 28.6654 21.0913 28.7082 21.0671C28.7724 21.0283 28.8312 21.0186 29.0773 20.9943C29.1147 20.9943 29.1308 20.9653 29.1147 20.941C29.0826 20.8974 29.2217 20.8732 29.4196 20.8877C29.4678 20.8926 29.5213 20.8732 29.5427 20.8441C29.5587 20.8198 29.6015 20.7956 29.6282 20.7956C29.6603 20.7956 29.6657 20.8198 29.6443 20.8538C29.6175 20.8926 29.6443 20.8974 29.7352 20.8732C29.8048 20.8538 29.9171 20.8247 29.9866 20.8101C30.0508 20.7956 30.1043 20.752 30.1043 20.718C30.1043 20.6793 30.1257 20.6502 30.1578 20.6502C30.1845 20.6502 30.2059 20.6647 30.2059 20.6841C30.1845 20.8198 30.2166 20.8441 30.3022 20.7665C30.3771 20.6987 30.3985 20.6987 30.4199 20.7568C30.452 20.8295 30.8639 20.8489 30.9388 20.7811C30.9601 20.7617 31.0029 20.7471 31.035 20.7471C31.0671 20.7471 31.0564 20.7714 31.0136 20.8005C30.9548 20.8392 30.9655 20.8392 31.0671 20.815C31.2704 20.7617 31.4951 20.752 31.4951 20.8005C31.4951 20.8247 31.5592 20.8198 31.6341 20.7908C31.7144 20.7665 31.7892 20.7568 31.8053 20.7665C31.816 20.7811 31.9123 20.7617 32.0193 20.718C32.1209 20.6793 32.2493 20.6599 32.3081 20.6744C32.3776 20.6987 32.3937 20.6841 32.3723 20.6356C32.3562 20.5872 32.383 20.5726 32.4686 20.5775C32.5381 20.5823 32.6237 20.5678 32.6611 20.5387C32.7039 20.5096 32.7253 20.5145 32.7253 20.5532C32.7253 20.5969 32.7521 20.592 32.8216 20.5387C32.8751 20.4951 32.966 20.4708 33.0302 20.4854C33.0891 20.4999 33.2014 20.4854 33.2656 20.4514C33.4047 20.3836 33.4314 20.3739 33.5598 20.3642C33.6079 20.3642 33.6347 20.3303 33.6186 20.2915C33.5972 20.243 33.6186 20.2333 33.6988 20.2527C33.7737 20.2672 33.8005 20.2575 33.7737 20.2236C33.7577 20.1945 33.8005 20.1606 33.8861 20.1461C33.9716 20.1267 34.0947 20.1024 34.1696 20.0879C34.2444 20.0733 34.4263 20.054 34.5707 20.0491C34.7205 20.0394 34.8382 20.0297 34.8382 20.02C34.8382 20.0152 34.9398 20.0006 35.0682 20.0006C35.1966 19.9958 35.3196 19.9619 35.3463 19.9279C35.3677 19.8891 35.4159 19.8794 35.4533 19.8988C35.4908 19.9182 35.5336 19.9085 35.555 19.8794C35.5764 19.8504 35.6673 19.8164 35.7529 19.8116C35.8385 19.8067 35.9187 19.7873 35.9347 19.768C35.9615 19.7389 36.1273 19.6952 36.2717 19.6856C36.2985 19.6807 36.2985 19.6613 36.2824 19.6322C36.2664 19.608 36.2985 19.5838 36.3573 19.5838C36.5071 19.5838 36.6355 19.5304 36.598 19.482C36.582 19.4577 36.6034 19.4383 36.6515 19.4383C36.6943 19.4383 36.7424 19.4093 36.7531 19.3753C36.7692 19.3414 36.7852 19.3511 36.7852 19.3996C36.7906 19.4771 36.8013 19.4771 36.8976 19.3899C36.9564 19.3365 37.0045 19.2735 37.0045 19.2493C37.0045 19.2299 37.1169 19.1814 37.2613 19.1475C37.4004 19.1136 37.5662 19.0409 37.6304 18.9875C37.6946 18.9391 37.7695 18.91 37.8016 18.9245C37.8283 18.9439 37.8604 18.8954 37.8711 18.8227C37.8818 18.7403 37.9139 18.6918 37.9567 18.7015C37.9995 18.7064 38.0155 18.6918 37.9941 18.6628C37.9781 18.6385 37.9995 18.5997 38.0476 18.5852C38.1171 18.5561 38.1225 18.5464 38.0637 18.5125C38.0155 18.4834 38.0316 18.4689 38.1225 18.4689C38.2295 18.4689 38.2455 18.4495 38.2241 18.3477C38.2027 18.2507 38.2134 18.2362 38.2669 18.275C38.3151 18.3137 38.3418 18.304 38.3685 18.2265C38.3846 18.1732 38.422 18.1392 38.4488 18.1538C38.4755 18.1683 38.513 18.1295 38.5344 18.0714C38.5558 18.0084 38.6734 17.8629 38.8018 17.7418C38.9302 17.6206 39.0372 17.4945 39.0372 17.4606C39.0372 17.4315 39.0586 17.4024 39.0907 17.4024C39.1174 17.4024 39.1388 17.3879 39.1388 17.3637C39.1335 17.3443 39.1388 17.3152 39.1442 17.2909C39.1495 17.2716 39.1602 17.2279 39.1656 17.194C39.1709 17.1649 39.203 17.1407 39.2351 17.1455C39.2672 17.1504 39.2886 17.1213 39.2832 17.0777C39.2725 17.0292 39.3421 16.8595 39.433 16.6996C39.6202 16.3699 39.6363 16.3215 39.6416 16.1179C39.6416 16.0306 39.6202 15.9773 39.5828 15.9822C39.5132 15.9967 39.4972 15.9337 39.556 15.8852C39.5721 15.8658 39.6202 15.8755 39.663 15.9046C39.7646 15.9822 39.7593 15.8513 39.6523 15.7252C39.5453 15.5992 39.5507 15.5459 39.6737 15.575C39.7593 15.5944 39.7753 15.5701 39.77 15.4199C39.77 15.3229 39.8128 15.0999 39.8609 14.9157C39.9037 14.7364 39.9465 14.4552 39.9465 14.2856C39.9465 14.1208 39.9519 13.9026 39.9626 13.8057C39.9679 13.6845 39.9519 13.6166 39.9037 13.5972C39.8449 13.5778 39.8449 13.5536 39.8877 13.5051C39.9198 13.4712 39.9305 13.4276 39.9091 13.413C39.893 13.3936 39.9037 13.3791 39.9358 13.3791C39.9733 13.3791 40 13.3355 40 13.2822C40 13.1416 39.8395 12.7974 39.77 12.7974C39.7272 12.7974 39.7272 12.7829 39.77 12.7441C39.8128 12.7053 39.8128 12.6471 39.786 12.5793C39.7593 12.5163 39.7539 12.4533 39.77 12.4387C39.7914 12.4242 39.7753 12.4096 39.7432 12.4096C39.7058 12.4096 39.6791 12.366 39.6791 12.3078C39.6791 12.2545 39.6577 12.2254 39.6256 12.24C39.5988 12.2545 39.5881 12.24 39.6042 12.1963C39.6202 12.1576 39.6042 12.08 39.5721 12.0218C39.54 11.9637 39.4972 11.857 39.4865 11.7892C39.4704 11.7164 39.4384 11.6389 39.4063 11.6147C39.3795 11.5856 39.3581 11.5177 39.3581 11.4547C39.3581 11.3917 39.3153 11.3044 39.2618 11.2559C39.1549 11.159 38.8553 10.713 38.9035 10.713C38.9195 10.713 38.8821 10.6694 38.8232 10.6161C38.7644 10.5628 38.7162 10.4949 38.7162 10.4707C38.7162 10.4416 38.6895 10.4222 38.6627 10.4222C38.6306 10.4222 38.4969 10.3252 38.3685 10.2041C38.2348 10.0829 38.1064 9.99078 38.085 10.0005C38.0637 10.0053 37.9513 9.91807 37.839 9.80173C37.7267 9.69024 37.5983 9.59814 37.5608 9.59814C37.5181 9.59814 37.4913 9.5836 37.4967 9.55936C37.5234 9.47696 37.4218 9.3073 37.3469 9.3073C37.3041 9.3073 37.2773 9.28791 37.2934 9.26367C37.3255 9.22489 37.2078 9.15218 37.0848 9.13764C37.058 9.13764 37.0366 9.10371 37.0473 9.06977C37.0527 9.03584 37.0366 9.0213 37.0099 9.04069C36.935 9.07947 36.689 8.87588 36.5927 8.69168C36.5445 8.59473 36.4696 8.53172 36.4108 8.53172C36.352 8.53172 36.3092 8.50748 36.3092 8.48324C36.3092 8.45416 36.2503 8.43477 36.1808 8.43477C36.1113 8.43477 36.0364 8.40084 36.0203 8.35721C36.0043 8.31843 35.9668 8.29419 35.9401 8.30873C35.9133 8.32328 35.8759 8.30389 35.8599 8.26026C35.8438 8.22148 35.8064 8.19724 35.7796 8.21179C35.7529 8.23118 35.7208 8.21663 35.7101 8.1924C35.678 8.10514 35.4854 8.10514 35.4159 8.18755C35.357 8.25541 35.3517 8.25541 35.3463 8.17301C35.3463 8.10999 35.3196 8.0906 35.2394 8.10999C35.1805 8.12453 35.1163 8.10999 35.0896 8.07606C35.0254 7.97427 34.6991 7.89186 34.6189 7.95488C34.56 7.9985 34.544 7.99366 34.544 7.93064C34.544 7.88701 34.5012 7.85308 34.4317 7.85308C34.3728 7.85308 34.3354 7.83369 34.3568 7.80945C34.3728 7.78037 34.2979 7.74644 34.1856 7.7319C34.0733 7.71251 33.9396 7.68827 33.8914 7.67373C33.8379 7.66403 33.7951 7.67373 33.7951 7.69796C33.7951 7.72705 33.747 7.73674 33.6882 7.7222C33.6293 7.70766 33.5812 7.66403 33.5812 7.62525C33.5812 7.57678 33.5598 7.57193 33.4795 7.61071C33.394 7.64949 33.3619 7.6398 33.3244 7.58163C33.2977 7.53315 33.2121 7.49437 33.1319 7.48468C33.057 7.47983 33.0035 7.48953 33.0195 7.51861C33.0356 7.54285 33.0142 7.5477 32.9714 7.53315C32.9232 7.51861 32.8858 7.47499 32.8858 7.4362C32.8858 7.39743 32.8537 7.38288 32.8056 7.39743C32.7628 7.41682 32.6879 7.40227 32.6451 7.36834C32.6023 7.33441 32.5328 7.31987 32.49 7.33441C32.4525 7.34895 32.3883 7.33441 32.3562 7.30533C32.3081 7.2617 32.2974 7.26655 32.3242 7.32472C32.3455 7.37319 32.3349 7.42166 32.3028 7.44105C32.2707 7.4556 32.2439 7.45075 32.2439 7.42166C32.2439 7.30048 32.0727 7.22292 31.8855 7.252C31.7465 7.27624 31.7037 7.27139 31.7304 7.22777C31.7572 7.18899 31.7304 7.17929 31.6341 7.19384C31.5592 7.20838 31.4844 7.19868 31.4737 7.17929C31.4576 7.1599 31.3399 7.14536 31.2062 7.15021C31.0725 7.15021 30.9601 7.13567 30.9601 7.11628C30.9601 7.09689 30.9281 7.09204 30.8906 7.10658C30.8478 7.12113 30.789 7.10174 30.7569 7.06296C30.7194 7.02418 30.6339 7.00479 30.559 7.01933C30.4787 7.02902 30.4252 7.01933 30.4252 6.9854C30.4252 6.95147 30.3985 6.94177 30.3718 6.95631C30.2915 6.99994 30.2059 6.77211 30.2862 6.72849C30.329 6.6994 30.3236 6.68971 30.2808 6.68971C30.2434 6.68971 30.2113 6.64608 30.2113 6.59276C30.2113 6.53944 30.238 6.49581 30.2648 6.49581C30.2969 6.49581 30.3183 6.44249 30.3183 6.37947C30.3183 6.31161 30.2969 6.24375 30.2648 6.22921C30.238 6.21466 30.2113 6.17104 30.2113 6.14195C30.2113 6.10802 30.2327 6.11287 30.2648 6.1565C30.2969 6.20012 30.3183 6.20497 30.3183 6.17104C30.3183 6.14195 30.2915 6.09833 30.2648 6.08378C30.2273 6.06439 30.2273 6.02562 30.2648 5.96745C30.2915 5.91897 30.3022 5.86565 30.2862 5.85111C30.2701 5.83657 30.2487 5.72023 30.238 5.58935C30.2059 5.20156 30.0883 4.87194 29.9973 4.92041C29.9759 4.93495 29.9599 4.90587 29.9652 4.8574C29.9652 4.81377 29.9385 4.77984 29.9064 4.78953C29.8689 4.79438 29.8369 4.77014 29.8369 4.73621C29.8369 4.70228 29.7887 4.64411 29.7352 4.60533C29.6764 4.5714 29.6443 4.51808 29.6603 4.48899C29.6817 4.46476 29.655 4.45506 29.6015 4.47445C29.532 4.49869 29.4999 4.4793 29.4785 4.41144C29.4624 4.36296 29.4036 4.30479 29.3501 4.29025C29.2966 4.27571 29.2003 4.17391 29.1308 4.06727C29.0666 3.96548 28.9971 3.87822 28.9757 3.87822C28.9489 3.87822 28.8794 3.8249 28.8098 3.76189C28.7403 3.69402 28.6494 3.63585 28.6066 3.62616C28.5638 3.61646 28.4461 3.56314 28.3445 3.50497C28.2428 3.44681 28.1359 3.41287 28.1091 3.42742C28.077 3.44196 28.0717 3.43226 28.0931 3.40318C28.1145 3.36925 28.0984 3.34501 28.0449 3.34501C27.9968 3.34501 27.97 3.32562 27.9861 3.30138C28.0021 3.28199 27.8417 3.17535 27.6331 3.07356C27.403 2.96207 27.1998 2.82149 27.1302 2.72454C27.0554 2.6276 27.0019 2.58882 26.9858 2.6276C26.9644 2.66638 26.9537 2.66153 26.9537 2.60821C26.9484 2.56458 26.8788 2.50641 26.7879 2.47733C26.7023 2.45309 26.6274 2.40462 26.6274 2.37553C26.6274 2.34645 26.606 2.33675 26.5739 2.3513C26.5472 2.36584 26.5205 2.35614 26.5205 2.32706C26.5205 2.29797 26.4937 2.28828 26.467 2.30282C26.4349 2.32221 26.4188 2.30767 26.4242 2.27374C26.4349 2.23981 26.3814 2.19618 26.3065 2.17679C26.2316 2.1574 26.2102 2.13801 26.253 2.13316C26.3011 2.12832 26.2851 2.10893 26.2049 2.07984C26.1193 2.05076 26.0551 2.05076 26.007 2.08954C25.9214 2.15255 25.809 2.09923 25.8465 2.00713C25.8679 1.9635 25.8358 1.93927 25.7662 1.93927C25.6914 1.93927 25.6646 1.91503 25.6807 1.8714C25.6967 1.83262 25.6753 1.789 25.6325 1.77446C25.5148 1.73568 25.4934 1.74052 25.5309 1.789C25.5469 1.81324 25.5362 1.84717 25.5095 1.86171C25.4827 1.87625 25.4507 1.85686 25.4293 1.81808C25.3918 1.73083 25.2527 1.72114 25.2206 1.80354C25.1939 1.8811 25.1244 1.83262 25.1083 1.71144C25.0976 1.65327 25.0548 1.62904 24.9746 1.63873C24.9104 1.64842 24.8676 1.63873 24.873 1.61449C24.8837 1.59026 24.8516 1.53693 24.8088 1.49816C24.7499 1.43999 24.6911 1.43029 24.5788 1.45938C24.4611 1.48846 24.4397 1.48361 24.4771 1.43999C24.5199 1.39636 24.4771 1.37697 24.322 1.37212C24.2097 1.36243 24.1134 1.38182 24.1134 1.40606C24.1134 1.43514 24.092 1.45453 24.0653 1.45453C24.0385 1.45453 24.0278 1.4109 24.0439 1.35758C24.0653 1.28972 24.0439 1.26063 23.985 1.26063C23.9369 1.26063 23.8994 1.2364 23.8994 1.21216C23.8994 1.18307 23.8834 1.16853 23.862 1.17338C23.8352 1.17823 23.7711 1.15884 23.7069 1.12976C23.5838 1.06674 22.9366 1.01826 22.9366 1.07643C22.9366 1.09097 22.8617 1.07643 22.7761 1.03281C22.5836 0.945553 22.3482 0.91647 22.3482 0.979485C22.3482 1.00372 22.3001 0.998875 22.2412 0.96979C22.1824 0.940706 22.1343 0.931011 22.1343 0.950401C22.1343 0.964943 22.0968 0.955248 22.054 0.921316C22.0005 0.877689 21.9738 0.877689 21.9738 0.91647C21.9738 0.96979 21.7919 0.964943 21.7277 0.906775C21.7063 0.892233 21.6475 0.897079 21.594 0.926165C21.5245 0.960096 21.4549 0.955248 21.38 0.91647C21.2891 0.872843 21.257 0.877689 21.2196 0.926165C21.1821 0.979485 21.1714 0.979485 21.1714 0.91647C21.1714 0.863148 21.1286 0.838911 21.0538 0.843758C20.9842 0.848606 20.9147 0.834063 20.8986 0.814674C20.8826 0.790438 20.6686 0.761353 20.4172 0.751657C19.7112 0.712879 19.4544 0.683794 19.3849 0.640167C19.3528 0.615931 19.2511 0.601389 19.1549 0.606236C19.0639 0.606236 18.9944 0.596542 19.0104 0.577152C19.0479 0.518984 18.8286 0.494747 18.7697 0.548067C18.7269 0.586847 18.7109 0.586847 18.7109 0.543221C18.7109 0.499594 18.6841 0.494747 18.62 0.52383C18.5665 0.548067 18.4702 0.562611 18.4006 0.552916C18.3311 0.543221 18.2883 0.552916 18.3044 0.572304C18.3365 0.615931 18.053 0.606236 17.9674 0.557762C17.9353 0.543221 17.9085 0.548067 17.9085 0.577152C17.9085 0.611084 17.8657 0.611084 17.7855 0.586847C17.7213 0.562611 17.5555 0.548067 17.4271 0.557762C17.2934 0.562611 17.165 0.557762 17.1383 0.543221C17.042 0.494747 16.5392 0.499594 16.4696 0.548067C16.4055 0.596542 16.3948 0.591694 16.4215 0.52383C16.4482 0.465662 16.4269 0.446272 16.3359 0.455967C16.2664 0.465662 16.1861 0.485052 16.1541 0.50444C16.122 0.518984 16.0845 0.514135 16.0631 0.489899C16.0417 0.455967 15.9829 0.455967 15.8973 0.485052C15.8224 0.514135 15.7101 0.533525 15.6459 0.528679C15.5336 0.528679 15.5336 0.52383 15.6352 0.480204C15.7154 0.446272 15.6887 0.441425 15.5389 0.465662C15.4212 0.480204 15.341 0.470509 15.357 0.45112C15.3891 0.402645 14.9238 0.407494 14.8756 0.455967C14.8596 0.470509 14.8114 0.460815 14.7687 0.43173C14.7205 0.392952 14.6991 0.392952 14.6991 0.426884ZM14.0893 1.53693C14.084 1.60965 14.1268 1.62419 14.3514 1.61934C14.6938 1.60965 14.8007 1.58541 14.8649 1.49816C14.9024 1.44483 14.9131 1.44483 14.9131 1.49331C14.9131 1.52724 14.9345 1.54663 14.9612 1.52724C14.988 1.5127 15.0254 1.52239 15.0415 1.54178C15.0735 1.5951 15.341 1.55632 15.341 1.50785C15.341 1.48846 15.3784 1.46907 15.4212 1.46907C15.464 1.46907 15.4854 1.48846 15.4694 1.5127C15.4533 1.53693 15.5122 1.54178 15.6031 1.52724C15.6887 1.5127 15.7796 1.52239 15.7957 1.55148C15.8117 1.57571 15.801 1.59995 15.7636 1.59995C15.7261 1.59995 15.7101 1.60965 15.7261 1.62419C15.7689 1.66297 15.9347 1.5951 15.9026 1.55148C15.8866 1.52724 15.8973 1.49816 15.9294 1.47877C15.9561 1.46422 15.9829 1.47877 15.9829 1.51755C15.9829 1.5951 16.2557 1.6048 16.3145 1.53209C16.3359 1.503 16.3894 1.5127 16.4482 1.55632C16.5392 1.62904 16.6301 1.63388 16.9457 1.58541C17.0152 1.57571 17.1704 1.6048 17.288 1.65327C17.486 1.73083 17.5074 1.73083 17.5769 1.65812C17.6411 1.58541 17.6464 1.58541 17.625 1.65327C17.6036 1.71144 17.625 1.72598 17.7267 1.70659C17.7962 1.6969 17.839 1.66297 17.8176 1.63388C17.8016 1.6048 17.8122 1.59995 17.8497 1.61934C17.9246 1.66297 18.7109 1.67266 18.8553 1.62904C18.9195 1.60965 18.9837 1.61934 19.0051 1.64842C19.0211 1.67266 19.1228 1.6969 19.2244 1.6969C19.3367 1.6969 19.4009 1.67751 19.3795 1.64842C19.3635 1.61934 19.3688 1.59995 19.4009 1.59995C19.4277 1.59995 19.4704 1.64358 19.4865 1.70175C19.5186 1.78415 19.5346 1.789 19.6095 1.73568C19.663 1.6969 19.6791 1.69205 19.6577 1.73083C19.6309 1.76961 19.6791 1.78415 19.8342 1.76961C19.9519 1.75991 20.0481 1.76961 20.0481 1.79385C20.0481 1.82293 20.1016 1.82293 20.1819 1.79385C20.2675 1.76476 20.3156 1.76476 20.3156 1.79385C20.3156 1.82293 20.3637 1.82293 20.4493 1.79385C20.5296 1.76476 20.5937 1.76476 20.6098 1.79385C20.6258 1.81808 20.674 1.82778 20.7168 1.80839C20.7596 1.79385 20.797 1.81324 20.797 1.84717C20.797 1.8811 20.8131 1.89079 20.8344 1.87625C20.8505 1.85686 20.8986 1.86656 20.9361 1.89564C21.0538 1.98289 21.6849 1.99744 21.7598 1.91503C21.8133 1.85686 21.8454 1.85686 21.9684 1.91018C22.054 1.95381 22.1503 1.9635 22.2252 1.93442C22.3161 1.90534 22.3482 1.91503 22.375 1.98774C22.3964 2.04591 22.4499 2.07015 22.5408 2.06045C22.6103 2.0556 22.6852 2.0653 22.7013 2.08954C22.712 2.10893 22.7654 2.11377 22.8136 2.09923C22.8724 2.075 22.8885 2.08469 22.8617 2.12832C22.8296 2.1671 22.8724 2.16225 22.9848 2.11377C23.0757 2.07015 23.1506 2.0556 23.1506 2.07984C23.1506 2.10408 23.2094 2.13801 23.2843 2.15255C23.3592 2.17194 23.418 2.20103 23.418 2.22042C23.418 2.23981 23.509 2.26404 23.6159 2.26889C23.7283 2.27859 23.8299 2.30282 23.8513 2.33191C23.8673 2.36099 23.9476 2.38523 24.0225 2.39492C24.1027 2.39977 24.1829 2.41916 24.199 2.43855C24.215 2.45309 24.2632 2.45309 24.306 2.43855C24.3488 2.42401 24.4664 2.47248 24.5681 2.54034C24.6697 2.61305 24.7767 2.66153 24.8034 2.64214C24.8302 2.6276 24.8676 2.63729 24.889 2.66638C24.9104 2.69546 24.9425 2.70515 24.9692 2.69061C24.996 2.67607 25.0441 2.69061 25.0869 2.72454C25.1244 2.75848 25.2153 2.79725 25.2848 2.8021C25.3544 2.8118 25.4453 2.85058 25.4881 2.88451C25.5255 2.92329 25.6058 2.96691 25.6646 2.98146C25.7235 2.996 25.7716 3.03478 25.7716 3.05902C25.7716 3.08325 25.8144 3.10264 25.8679 3.10264C25.9481 3.10264 25.9481 3.09295 25.8786 3.04932C25.809 3.00569 25.809 3.00084 25.8786 3.02024C25.9214 3.02993 25.9588 3.05902 25.9588 3.0881C25.9588 3.15112 26.1246 3.29654 26.1995 3.29654C26.2316 3.29654 26.2423 3.32077 26.2209 3.35471C26.1942 3.38864 26.2209 3.39833 26.2958 3.38379C26.376 3.3644 26.3974 3.37409 26.376 3.42257C26.36 3.46135 26.3707 3.49043 26.3921 3.49043C26.467 3.49528 26.8414 3.81521 26.8093 3.84429C26.7933 3.85883 26.82 3.86368 26.8681 3.85883C26.9163 3.85399 26.9805 3.81521 27.0126 3.77643C27.0554 3.72311 27.0607 3.72795 27.034 3.79582C27.0019 3.88792 27.2319 4.11575 27.3656 4.12059C27.3977 4.12059 27.4298 4.13998 27.4298 4.16907C27.4298 4.1933 27.4619 4.203 27.5047 4.18846C27.5421 4.17391 27.6224 4.21754 27.6812 4.28056C27.7347 4.34357 27.831 4.41144 27.8952 4.43082C27.9593 4.45021 28.0235 4.49869 28.0396 4.53747C28.0556 4.57625 28.0931 4.59564 28.1252 4.58109C28.1519 4.56655 28.1787 4.58594 28.1787 4.62472C28.1787 4.66835 28.2054 4.70228 28.2321 4.70228C28.2642 4.70228 28.2856 4.73136 28.2856 4.7653C28.2856 4.8574 28.4729 5.00282 28.5263 4.95919C28.5477 4.93495 28.537 4.96889 28.5049 5.0319C28.4461 5.1337 28.4568 5.47786 28.5317 5.68145C28.5477 5.72993 28.5424 5.79294 28.521 5.82687C28.4996 5.86081 28.4836 5.9626 28.4889 6.05955C28.5156 6.39402 28.5103 6.53944 28.4729 6.59276C28.4515 6.62669 28.4247 6.74303 28.414 6.84967C28.4033 6.9854 28.414 7.02418 28.4515 6.98055C28.4782 6.94177 28.4996 6.92723 28.4996 6.95631C28.4996 6.98055 28.4782 7.03872 28.4515 7.07265C28.4194 7.11628 28.4194 7.17929 28.4568 7.24231C28.4996 7.31502 28.4942 7.34895 28.414 7.40227C28.3605 7.4362 28.3391 7.46529 28.3712 7.46529C28.398 7.46529 28.4622 7.52346 28.5156 7.58648C28.5852 7.67373 28.5905 7.69796 28.5317 7.67858C28.4889 7.66403 28.4408 7.67373 28.4194 7.70281C28.3712 7.77552 28.4408 7.95972 28.5049 7.92579C28.5317 7.9064 28.5531 7.92094 28.5531 7.94518C28.5531 7.97427 28.5263 7.9985 28.4942 7.9985C28.4301 7.9985 28.5745 8.23118 28.7831 8.45901C28.8847 8.57049 28.9596 8.61412 29.0185 8.59473C29.0826 8.57049 29.0933 8.58019 29.0612 8.62866C29.0292 8.67714 29.0399 8.68683 29.104 8.66259C29.1629 8.64321 29.1789 8.6529 29.1629 8.69653C29.1254 8.78863 29.3982 8.84195 29.5052 8.76439C29.5748 8.71107 29.5801 8.71107 29.5427 8.76924C29.5106 8.82256 29.5213 8.83225 29.5855 8.80802C29.6389 8.78863 29.6978 8.81286 29.7299 8.86134C29.7834 8.93405 29.7887 8.93405 29.762 8.85164C29.7299 8.76439 29.7352 8.76439 29.8582 8.84195C29.9866 8.91466 30.0241 8.91466 30.2541 8.84195C30.3718 8.79832 30.7622 8.82256 30.7997 8.86618C30.8157 8.89042 30.9013 8.90981 30.9869 8.90981C31.0778 8.91466 31.265 8.93405 31.4148 8.96313C31.5592 8.98737 31.6983 8.99706 31.7197 8.98737C31.7465 8.97283 31.7625 8.98252 31.7625 9.00676C31.7625 9.031 31.8695 9.04554 32.0032 9.04069C32.153 9.04069 32.2493 9.06008 32.2653 9.09886C32.2814 9.13279 32.3295 9.14733 32.3723 9.13279C32.4151 9.11825 32.5007 9.14733 32.5595 9.19581C32.6237 9.24428 32.7467 9.28306 32.827 9.28791C32.9125 9.28791 33.0195 9.31699 33.0623 9.34608C33.1051 9.38001 33.2549 9.41394 33.3886 9.41879C33.5223 9.42364 33.6347 9.44302 33.6347 9.46241C33.6347 9.48665 33.6721 9.50119 33.7149 9.50119C33.7577 9.50119 33.7951 9.52543 33.7951 9.55451C33.7951 9.57875 33.8165 9.59329 33.8433 9.57875C33.8647 9.56421 33.977 9.59814 34.0947 9.64661C34.314 9.75326 34.4638 9.77265 34.4103 9.69509C34.3942 9.666 34.3996 9.64661 34.4263 9.64661C34.4531 9.64661 34.5012 9.69994 34.5333 9.7678C34.5975 9.88898 34.6724 9.92292 34.7259 9.8502C34.7687 9.78234 35.0896 9.84536 35.2554 9.94715C35.3357 10.0005 35.3998 10.0199 35.3998 9.99078C35.3998 9.96169 35.4266 9.93746 35.4587 9.93746C35.4908 9.93746 35.5015 9.98108 35.4801 10.0441C35.448 10.1217 35.4587 10.141 35.5229 10.1168C35.5817 10.0974 35.7047 10.1798 35.8919 10.3543C36.0471 10.4998 36.261 10.6597 36.3627 10.713C36.4696 10.7615 36.598 10.8585 36.6569 10.9215C36.7157 10.9942 36.7852 11.033 36.8334 11.0136C36.8922 10.9942 36.9083 11.0087 36.8815 11.0621C36.8548 11.1299 36.8869 11.159 37.058 11.222C37.3362 11.3238 37.4325 11.3723 37.4325 11.4159C37.4325 11.445 37.5715 11.6001 37.7427 11.7601C38.0209 12.0267 38.2937 12.4193 38.3258 12.6084C38.3525 12.7538 38.4969 13.2337 38.529 13.287C38.5879 13.3694 38.5986 13.573 38.5451 13.6021C38.5183 13.6166 38.5183 13.6554 38.5451 13.6845C38.62 13.7766 38.6681 13.922 38.6093 13.8881C38.5772 13.8735 38.5558 13.8929 38.5558 13.9366C38.5558 13.985 38.5825 13.9996 38.62 13.9802C38.6574 13.9559 38.6627 13.9656 38.6306 14.0141C38.5558 14.1256 38.5772 14.4164 38.6627 14.4843C38.7055 14.5231 38.7162 14.5376 38.6841 14.5231C38.5986 14.4843 38.4916 14.6103 38.5344 14.7024C38.5504 14.7412 38.5344 14.7897 38.5023 14.8091C38.4541 14.8382 38.4541 14.8576 38.5076 14.8866C38.5611 14.9157 38.5665 14.9303 38.5183 14.9303C38.4809 14.9303 38.4488 14.9836 38.4488 15.0515C38.4488 15.1193 38.4809 15.1726 38.5183 15.1726C38.5665 15.1726 38.5665 15.1823 38.513 15.2163C38.4755 15.2357 38.4488 15.2744 38.4541 15.2987C38.4595 15.3229 38.4381 15.4053 38.4006 15.4877C38.3632 15.5653 38.3472 15.6671 38.3578 15.7155C38.3739 15.7592 38.3578 15.7931 38.3258 15.7883C38.2937 15.7834 38.2616 15.8125 38.2562 15.8513C38.2562 15.89 38.2455 15.9628 38.2455 16.0064C38.2402 16.0549 38.1974 16.0936 38.1546 16.0936C38.0957 16.0936 38.0797 16.1276 38.1064 16.2148C38.1225 16.2827 38.1171 16.336 38.0957 16.336C38.0369 16.336 37.9353 16.5444 37.8871 16.7577C37.8657 16.845 37.8336 16.9177 37.8069 16.9177C37.7802 16.9177 37.6892 17.0098 37.5929 17.1213C37.502 17.2376 37.4111 17.32 37.3897 17.3055C37.3683 17.2909 37.3255 17.3394 37.288 17.4073C37.2506 17.48 37.1329 17.6012 37.0259 17.6739C36.919 17.7514 36.7745 17.892 36.705 17.9841C36.6248 18.0859 36.5766 18.1198 36.5766 18.0714C36.5766 18.0181 36.5445 17.9987 36.4643 18.0181C36.4001 18.0374 36.368 18.0714 36.3841 18.115C36.4001 18.1538 36.3948 18.1732 36.368 18.1586C36.3038 18.1198 36.1915 18.2507 36.245 18.2992C36.2664 18.3234 36.2503 18.3234 36.2129 18.304C36.1327 18.2604 35.924 18.3137 35.9561 18.3671C35.9882 18.4058 35.7796 18.5852 35.7422 18.5513C35.6887 18.5076 35.3196 18.6579 35.3357 18.7209C35.3517 18.7694 35.341 18.7694 35.2929 18.7258C35.2447 18.6821 35.1698 18.6918 34.988 18.7646C34.8596 18.813 34.7687 18.8324 34.7847 18.8082C34.8382 18.7306 34.7259 18.7549 34.6456 18.8373C34.6082 18.8809 34.5333 18.9003 34.4638 18.8857C34.3996 18.8712 34.33 18.8712 34.3086 18.8906C34.2338 18.9584 34.1054 18.9488 34.1375 18.876C34.1589 18.8227 34.1214 18.8324 34.0091 18.9051C33.9235 18.9584 33.7684 19.0069 33.6668 19.0118C33.5598 19.0166 33.4367 19.0554 33.3886 19.1039C33.3405 19.1523 33.2763 19.1766 33.2388 19.1669C33.2014 19.1523 33.1426 19.1766 33.1051 19.2154C33.073 19.2541 32.9928 19.2735 32.9232 19.259C32.8323 19.2396 32.8216 19.2493 32.8804 19.2832C32.9393 19.322 32.9125 19.3317 32.7735 19.3268C32.6611 19.322 32.597 19.3365 32.6023 19.3705C32.6076 19.4044 32.5702 19.4189 32.5114 19.4044C32.4525 19.3899 32.4044 19.4044 32.4044 19.4335C32.4044 19.4674 32.3509 19.4771 32.2653 19.4674C32.1904 19.4529 32.062 19.4674 31.9872 19.5014C31.816 19.5644 31.2811 19.5789 31.2811 19.5159C31.2811 19.4965 31.2223 19.511 31.1527 19.5498C31.0564 19.608 31.0136 19.6128 30.9601 19.5692C30.9067 19.5256 30.9013 19.5256 30.9281 19.5692C30.9495 19.6031 30.9388 19.6322 30.912 19.6322C30.8799 19.6322 30.8532 19.6128 30.8532 19.5935C30.8532 19.5741 30.8104 19.5547 30.7622 19.5498C30.7087 19.545 30.559 19.5207 30.4306 19.4965C30.2594 19.4626 30.1631 19.4674 30.0615 19.5159C29.9866 19.5498 29.901 19.5644 29.8743 19.5498C29.8476 19.5353 29.8048 19.5547 29.778 19.5886C29.7352 19.6468 29.7192 19.6468 29.6817 19.5838C29.6496 19.545 29.6122 19.5304 29.5908 19.5498C29.5694 19.5692 29.5213 19.5595 29.4785 19.5304C29.425 19.4868 29.3875 19.4917 29.3287 19.5353C29.2806 19.5692 29.2324 19.5838 29.211 19.5644C29.195 19.5498 29.1308 19.5741 29.0773 19.6177C28.981 19.6952 28.981 19.6952 29.0131 19.6177C29.0612 19.5014 28.9543 19.5159 28.8259 19.6371C28.767 19.7001 28.6975 19.7243 28.6547 19.7049C28.6119 19.6807 28.6012 19.6856 28.628 19.7195C28.6494 19.7534 28.6333 19.7777 28.5852 19.7777C28.537 19.7777 28.4996 19.797 28.4996 19.8213C28.4996 19.8455 28.4568 19.8601 28.4087 19.8552C28.3498 19.8552 28.3177 19.8794 28.3284 19.9231C28.3445 19.9812 28.3338 19.9812 28.2803 19.9376C28.2428 19.9037 28.1787 19.894 28.0984 19.9231C28.0289 19.9473 27.9593 19.9522 27.9433 19.9376C27.9273 19.9182 27.9112 19.9328 27.9112 19.9619C27.9112 19.9958 27.8631 20.02 27.8042 20.02C27.7454 20.02 27.6972 20.0491 27.6972 20.083C27.6972 20.1218 27.6331 20.18 27.5582 20.2139C27.4726 20.2575 27.4298 20.3109 27.4458 20.3642C27.4619 20.4224 27.4405 20.4369 27.3763 20.4224C27.2907 20.403 26.9751 20.7084 27.034 20.7617C27.05 20.7714 26.9858 20.8538 26.8949 20.9362C26.804 21.0186 26.7451 21.0864 26.7719 21.0864C26.7933 21.0864 26.7719 21.1107 26.7237 21.1398C26.6702 21.164 26.6274 21.2173 26.6274 21.2561C26.6274 21.2949 26.5686 21.3385 26.4991 21.3579C26.4081 21.3773 26.3814 21.4112 26.3974 21.4791C26.4135 21.5324 26.3974 21.5712 26.3653 21.5712C26.3279 21.5712 26.3172 21.5906 26.3332 21.6197C26.3493 21.6439 26.3386 21.6681 26.3118 21.6681C26.2798 21.6681 26.237 21.7554 26.2209 21.862C26.1995 21.9687 26.1674 22.0559 26.1407 22.0559C26.1139 22.0559 26.0925 22.0996 26.0925 22.148C26.0925 22.2013 26.0658 22.2595 26.039 22.2741C26.007 22.2934 25.9963 22.3274 26.0123 22.3516C26.0337 22.3759 26.023 22.3952 25.9909 22.3952C25.9588 22.3952 25.9481 22.4243 25.9642 22.4631C25.9802 22.497 25.9535 22.5407 25.9107 22.5552C25.809 22.594 25.7983 22.7152 25.8946 22.754C25.9267 22.7685 25.9107 22.7733 25.8572 22.7685C25.8037 22.7636 25.7449 22.7879 25.7288 22.8267C25.7128 22.8751 25.7288 22.8848 25.793 22.8654C25.8518 22.8461 25.8732 22.8509 25.8518 22.8848C25.8304 22.9091 25.7876 22.9236 25.7555 22.9139C25.6432 22.88 25.44 23.1175 25.4667 23.2484C25.4827 23.3356 25.4614 23.3793 25.3758 23.418C25.2634 23.4665 25.2634 23.4665 25.3704 23.3841C25.44 23.3356 25.4453 23.3114 25.3972 23.3259C25.3544 23.3356 25.2955 23.3938 25.2634 23.452C25.2367 23.5101 25.1939 23.5586 25.1725 23.5586C25.1458 23.5586 25.1297 23.5829 25.1297 23.6119C25.1297 23.641 25.0816 23.7186 25.0227 23.7913C24.9371 23.8882 24.9265 23.9222 24.9799 23.9561C25.0334 23.9852 25.0281 23.9949 24.9639 23.9949C24.8355 23.9949 24.5306 24.4021 24.6055 24.4699C24.6537 24.5136 24.6323 24.5281 24.5039 24.5281C24.4076 24.5281 24.2953 24.5717 24.215 24.6444C24.0278 24.8189 23.9262 24.9353 23.9369 24.9692C23.9422 24.9837 23.8941 25.0274 23.8246 25.0613C23.755 25.0952 23.6748 25.168 23.6427 25.2261C23.6159 25.2843 23.5036 25.3861 23.402 25.4491C23.2683 25.5315 23.2148 25.5994 23.2255 25.6672C23.2362 25.7206 23.2308 25.7351 23.2201 25.706C23.1934 25.6333 23.0971 25.6236 23.0971 25.6866C23.0971 25.7109 23.0543 25.7448 23.0008 25.7593C22.8885 25.7933 22.712 26.0502 22.7654 26.1035C22.7868 26.1277 22.7761 26.1277 22.7387 26.1132C22.6531 26.0647 22.5087 26.1277 22.5087 26.2101C22.5087 26.2538 22.4766 26.2732 22.4338 26.2586C22.3857 26.2392 22.3322 26.2828 22.2947 26.3749C22.2305 26.5058 22.1877 26.5349 22.054 26.5204C21.9791 26.5155 21.5994 26.8015 21.5994 26.8597C21.5994 26.8888 21.6208 26.8936 21.6528 26.8791C21.6849 26.8645 21.7063 26.8694 21.7063 26.8985C21.7063 26.9809 21.6101 27.0051 21.5833 26.9276C21.5352 26.8209 21.2677 26.8985 21.0003 27.0875C20.9521 27.1263 20.8879 27.1408 20.8612 27.1263C20.8344 27.1118 20.7756 27.136 20.7382 27.1796C20.6954 27.2232 20.5616 27.3008 20.4386 27.3493C20.3156 27.3977 20.1979 27.4608 20.1819 27.485C20.1658 27.5141 20.123 27.5335 20.0963 27.5335C20.0642 27.5335 20.0588 27.5092 20.0802 27.4802C20.1284 27.4074 19.8128 27.5577 19.7005 27.6595C19.647 27.708 19.5346 27.7419 19.4223 27.7371C19.2779 27.7322 19.2404 27.7468 19.2672 27.8001C19.2993 27.8825 19.1656 27.9019 19.1121 27.8243C19.0907 27.7952 19.0318 27.8049 18.9569 27.8486C18.8928 27.8873 18.8179 27.9067 18.8018 27.8873C18.7804 27.8728 18.7644 27.8825 18.7644 27.9116C18.7644 27.9407 18.7269 27.9552 18.6734 27.9358C18.6146 27.9164 18.5986 27.9213 18.6253 27.96C18.6734 28.0376 18.5879 28.0328 18.5076 27.96C18.4702 27.9261 18.4434 27.9213 18.4434 27.9504C18.4434 27.9746 18.3792 28.0037 18.299 28.0085C18.1813 28.0134 18.1706 28.0085 18.2295 27.9697C18.2776 27.9407 18.283 27.9213 18.2455 27.9213C18.2134 27.9213 18.1492 27.9504 18.1118 27.9794C18.0744 28.0134 17.9995 28.0473 17.946 28.057C17.8925 28.0667 17.7481 28.1103 17.625 28.1588C17.4806 28.2121 17.2827 28.2412 17.0687 28.2363C16.8869 28.2315 16.7478 28.246 16.7638 28.2703C16.7799 28.2897 16.7478 28.2945 16.6997 28.2751C16.6248 28.2509 16.6141 28.2606 16.6462 28.3333C16.6836 28.4205 16.6783 28.4205 16.5766 28.3381C16.5231 28.2945 16.4589 28.2751 16.4429 28.2994C16.4108 28.3478 15.9722 28.3381 15.8813 28.2848C15.8492 28.2703 15.8224 28.2751 15.8224 28.3042C15.8224 28.3284 15.8545 28.3624 15.8919 28.3721C15.924 28.3866 15.8652 28.3866 15.7582 28.3721C15.6352 28.3575 15.5229 28.3672 15.4747 28.406C15.4105 28.4545 15.3945 28.4545 15.3945 28.3963C15.3945 28.3381 15.341 28.3284 15.1431 28.343C14.5547 28.3866 14.2231 28.3915 14.2498 28.3527C14.2658 28.3284 14.2391 28.3236 14.1963 28.3381C14.1482 28.3527 14.1107 28.3915 14.1107 28.4157C14.1107 28.4496 14.084 28.4448 14.0412 28.4109C13.9984 28.3818 13.9503 28.3721 13.9342 28.3915C13.9128 28.406 13.8968 28.3915 13.8968 28.3527C13.8968 28.2994 13.8005 28.2848 13.426 28.2897C13.1693 28.2897 12.9179 28.2703 12.8644 28.246C12.8109 28.2267 12.6986 28.2024 12.6076 28.2024C12.5221 28.1976 12.4525 28.183 12.4525 28.1685C12.4525 28.1491 12.4097 28.1346 12.3616 28.1297C12.2118 28.1152 11.9979 28.0812 11.9872 28.0667C11.9765 28.0618 11.9551 28.0521 11.9337 28.0425C11.9069 28.0376 11.8481 28.0182 11.7946 27.9988C11.7465 27.9746 11.6555 27.9697 11.5967 27.9843C11.5378 27.9988 11.4737 27.9891 11.4576 27.96C11.4416 27.9358 11.3934 27.9261 11.3506 27.9407C11.3078 27.9552 11.2757 27.9455 11.2757 27.9164C11.2757 27.8873 11.2276 27.8776 11.1688 27.897C11.1099 27.9164 11.0618 27.9067 11.0618 27.8776C11.0618 27.8486 11.0297 27.8243 10.9869 27.8243C10.9441 27.8243 10.8746 27.7904 10.8264 27.7516C10.7408 27.6692 10.4894 27.6692 10.3664 27.7468C10.2969 27.7952 10.2969 27.7904 10.3611 27.7177C10.4252 27.6401 10.4145 27.6207 10.2327 27.5529C10.0669 27.4898 10.0187 27.4898 9.98128 27.5432C9.94384 27.5916 9.93849 27.5819 9.95988 27.5189C9.99198 27.4268 9.90639 27.4026 9.86895 27.4947C9.84755 27.5335 9.83685 27.5286 9.83685 27.4753C9.83151 27.4317 9.84755 27.3881 9.8743 27.3735C9.89569 27.3638 9.885 27.3638 9.84755 27.3687C9.74057 27.3929 9.45707 27.2717 9.45707 27.2039C9.45707 27.1602 9.41963 27.1505 9.35009 27.1699C9.27521 27.1893 9.24311 27.1796 9.25381 27.136C9.26451 27.0972 9.22707 27.0778 9.15218 27.0827C9.0666 27.0924 9.03985 27.0778 9.0666 27.0197C9.08264 26.9809 9.07729 26.9518 9.05055 26.9566C8.96496 26.976 8.78845 26.8888 8.63867 26.7482C8.48355 26.6076 8.41401 26.5834 8.37122 26.6464C8.36052 26.6706 8.36052 26.6609 8.36587 26.627C8.37657 26.5931 8.36052 26.5543 8.32843 26.5398C8.30168 26.5204 8.29634 26.4864 8.31238 26.4574C8.33378 26.4283 8.32308 26.4186 8.29634 26.4331C8.26424 26.4525 8.2268 26.4331 8.2054 26.3943C8.18935 26.3556 8.14121 26.3362 8.09307 26.3507C8.03423 26.3749 8.01819 26.3604 8.05028 26.2925C8.07168 26.2392 8.06633 26.2198 8.02888 26.2392C7.99679 26.2586 7.97539 26.2441 7.98074 26.2101C7.98074 26.1811 7.97539 26.152 7.95935 26.152C7.9433 26.152 7.85772 26.0938 7.77213 26.0211C7.68655 25.9435 7.56887 25.8854 7.51538 25.8854C7.46189 25.8854 7.42445 25.8611 7.43514 25.832C7.45654 25.769 6.50441 24.8674 6.41883 24.8674C6.38139 24.8674 6.35464 24.8383 6.35464 24.8044C6.35464 24.7656 6.3065 24.6978 6.24766 24.6493C6.18882 24.6008 6.14068 24.5378 6.14068 24.5039C6.14068 24.4408 5.86253 24.1888 5.78764 24.1888C5.69671 24.1839 5.43461 23.961 5.4881 23.927C5.54694 23.8931 5.45065 23.6556 5.38112 23.6556C5.35437 23.6556 5.33833 23.6265 5.33833 23.5877C5.33833 23.5538 5.30088 23.4956 5.25809 23.4617C5.2153 23.4277 5.16181 23.3162 5.14576 23.2145C5.12436 23.103 5.08157 23.0254 5.03878 23.0254C4.99599 23.0254 4.96389 22.9915 4.96389 22.9527C4.96389 22.9139 4.94785 22.88 4.9211 22.88C4.87831 22.88 4.69644 22.5261 4.69644 22.4437C4.69644 22.4146 4.659 22.3952 4.61086 22.3952C4.56807 22.3952 4.54667 22.371 4.56272 22.3468C4.57876 22.3177 4.56272 22.2983 4.52527 22.2983C4.48783 22.2983 4.4076 22.2644 4.35411 22.2256C4.27387 22.1723 4.26317 22.1383 4.30596 22.0996C4.3755 22.0365 4.31666 21.8863 4.14014 21.6439C4.02781 21.4985 4.02247 21.4791 4.00642 21.3579C4.00642 21.3191 3.96898 21.2561 3.93153 21.2222C3.8192 21.1204 3.79246 21.004 3.85665 20.941C3.90479 20.8974 3.90479 20.8877 3.862 20.9071C3.79781 20.941 3.74432 20.8053 3.70152 20.5048C3.68548 20.4127 3.64269 20.306 3.59989 20.2624C3.5571 20.2188 3.51966 20.1558 3.51966 20.1267C3.51966 20.0976 3.48221 20.054 3.43942 20.0346C3.39128 20.0103 3.35384 19.9085 3.34314 19.8019C3.33779 19.6952 3.3057 19.5741 3.27895 19.5353C3.24686 19.4965 3.19872 19.4189 3.16662 19.3656C3.13988 19.3123 3.07034 19.2735 3.02755 19.2735C2.97941 19.2784 2.92592 19.2493 2.90452 19.2105C2.88312 19.1572 2.90452 19.1426 2.97941 19.162C3.07569 19.1814 3.07569 19.1766 3.00615 19.0215C2.96336 18.9342 2.93127 18.8227 2.93127 18.7742C2.93127 18.7258 2.89382 18.6288 2.85638 18.5513C2.81359 18.4786 2.79754 18.4204 2.82428 18.4204C2.88312 18.4204 2.83498 18.1053 2.75475 17.926C2.7173 17.8484 2.67451 17.7902 2.65312 17.7902C2.62637 17.7902 2.61032 17.7466 2.61032 17.6981C2.61032 17.6448 2.58893 17.5915 2.56218 17.5769C2.53544 17.5624 2.52474 17.4848 2.53544 17.4073C2.54614 17.3152 2.52474 17.257 2.4766 17.2376C2.43381 17.2231 2.41241 17.1795 2.42846 17.1358C2.4445 17.097 2.43915 17.0631 2.41776 17.0631C2.39101 17.0631 2.36962 16.9371 2.37497 16.7868C2.37497 16.6317 2.35357 16.4911 2.32683 16.4717C2.29473 16.4572 2.26799 16.3796 2.25729 16.3069C2.24659 16.2294 2.2145 16.1615 2.1824 16.1518C2.15566 16.1421 2.12891 16.1033 2.12891 16.0694C2.12891 16.0355 2.09147 15.9918 2.04333 15.9773C1.96844 15.9531 1.96844 15.9337 2.02728 15.8658C2.09147 15.7931 2.09147 15.7883 2.00053 15.8173C1.92565 15.8464 1.91495 15.8416 1.95774 15.7931C2.02728 15.7155 2.02728 15.6477 1.95774 15.575C1.931 15.541 1.91495 15.4538 1.92565 15.3811C1.931 15.3084 1.91495 15.2502 1.88821 15.255C1.85611 15.2599 1.83472 15.2017 1.82937 15.1339C1.80797 14.6588 1.77588 14.368 1.74378 14.3486C1.67424 14.3001 1.6475 13.9123 1.71704 13.9123C1.75448 13.9123 1.73843 13.8881 1.69029 13.859C1.6368 13.8348 1.59401 13.7572 1.59401 13.6942C1.59401 13.6312 1.54052 13.5439 1.47633 13.5051C1.41214 13.4615 1.3854 13.4276 1.41749 13.4276C1.50308 13.4276 1.44959 13.0689 1.32121 12.7829C1.21423 12.5454 1.21958 12.1624 1.3426 11.954C1.38005 11.8813 1.3747 11.8473 1.30516 11.8037C1.26237 11.7698 1.23562 11.731 1.25167 11.7164C1.31586 11.6631 1.30516 11.2269 1.24097 11.1008C1.20888 11.033 1.19283 10.9506 1.20353 10.9166C1.21958 10.8875 1.19818 10.8585 1.16609 10.8585C1.11795 10.8585 1.11795 10.8342 1.17144 10.7761C1.23562 10.7082 1.23562 10.6985 1.17144 10.7373C1.1126 10.7664 1.10725 10.7615 1.14469 10.7082C1.17144 10.6694 1.19283 10.5579 1.19818 10.4561C1.19818 10.2962 1.18748 10.2816 1.0912 10.3059C1.00562 10.3252 0.994918 10.3204 1.05376 10.2816C1.12864 10.238 1.16074 9.77265 1.0912 9.70963C1.0805 9.69509 1.08585 9.63692 1.1126 9.5739C1.15004 9.4915 1.13934 9.45272 1.0805 9.43333C1.00562 9.40909 1.00562 9.39455 1.0805 9.32669C1.18748 9.23459 1.18748 9.23459 1.08585 9.09401C1.02166 9.01161 1.01097 8.90012 1.03771 8.59958C1.05376 8.39114 1.07515 8.09545 1.0805 7.95003C1.0805 7.78037 1.11795 7.65434 1.16609 7.61071C1.21423 7.57193 1.24097 7.49922 1.23028 7.45075C1.21958 7.40712 1.24097 7.36834 1.28377 7.36834C1.33726 7.36834 1.33191 7.3538 1.27307 7.31502C1.20888 7.27624 1.20888 7.25685 1.26237 7.23746C1.40144 7.18899 1.21958 7.0775 1.04841 7.11143C0.93073 7.13082 0.871891 7.12113 0.834448 7.06296C0.807703 7.01448 0.754212 6.98055 0.71142 6.98055C0.593742 6.98055 0.593742 6.82059 0.706071 6.6994C0.920032 6.47642 1.29446 6.63639 1.28377 6.94662C1.27842 7.04841 1.29981 7.12597 1.32121 7.12597C1.34795 7.12597 1.364 6.97086 1.35865 6.78666C1.35865 6.59761 1.3747 6.44734 1.40144 6.44734C1.42284 6.44734 1.42819 6.38917 1.41214 6.31161C1.3854 6.21951 1.39075 6.20012 1.42819 6.25344C1.47633 6.31161 1.48703 6.31161 1.51912 6.2389C1.53517 6.19527 1.54052 6.11772 1.52982 6.06924C1.51377 6.02077 1.53517 5.95775 1.57796 5.92382C1.61541 5.88989 1.6368 5.84142 1.62075 5.81718C1.60471 5.79294 1.63145 5.70084 1.68494 5.61359C1.73308 5.52633 1.78657 5.4003 1.79192 5.33729C1.80262 5.27427 1.85076 5.19187 1.89355 5.15309C1.931 5.11431 1.96844 5.05614 1.96844 5.02221C1.96844 4.94465 2.2145 4.75075 2.26264 4.78953C2.28403 4.80892 2.28938 4.79923 2.28403 4.77499C2.25729 4.69743 2.34287 4.50838 2.40171 4.50838C2.43381 4.50838 2.43915 4.48899 2.42311 4.45991C2.40706 4.43082 2.42846 4.42598 2.47125 4.44052C2.51939 4.45506 2.55683 4.44537 2.55683 4.42113C2.55683 4.39205 2.61032 4.35327 2.67451 4.33388C2.7387 4.31934 2.84033 4.26117 2.89917 4.21269C2.99545 4.13029 3.09708 4.09636 3.20941 4.11575C3.23081 4.11575 3.23616 4.09151 3.22011 4.05273C3.20407 4.0188 3.23081 3.97517 3.27895 3.95578C3.32709 3.94124 3.34849 3.90246 3.32709 3.86853C3.30035 3.82975 3.31639 3.8249 3.37523 3.84429C3.43407 3.86368 3.48221 3.83944 3.51966 3.78127C3.55175 3.72795 3.62664 3.68433 3.68013 3.68433C3.73897 3.68433 3.8406 3.63101 3.89944 3.56314C3.96363 3.50013 4.08665 3.43226 4.16689 3.41772C4.25782 3.39833 4.30596 3.3644 4.28992 3.33532C4.26852 3.30138 4.27922 3.29654 4.31666 3.31593C4.39155 3.35955 4.60016 3.30623 4.56272 3.24806C4.54132 3.21413 4.74993 3.16081 5.05483 3.12688C5.11902 3.11718 5.2046 3.09295 5.24204 3.07356C5.27949 3.04932 5.35972 3.02993 5.41856 3.02508C5.63787 3.01539 5.82509 2.95237 5.93742 2.85058C6.0337 2.76332 6.05509 2.75848 6.08184 2.82149C6.10324 2.86512 6.16208 2.88936 6.23696 2.87481C6.43488 2.85058 6.59535 2.82149 6.59535 2.8118C6.59535 2.80695 6.65419 2.79241 6.72907 2.78271C6.79861 2.77302 6.8735 2.74393 6.88954 2.72454C6.90559 2.70515 6.97513 2.68092 7.05001 2.67607C7.1249 2.67122 7.23188 2.65668 7.29072 2.64699C7.34956 2.63244 7.4191 2.62275 7.44049 2.62275C7.46724 2.6179 7.46724 2.59367 7.45119 2.56943C7.43514 2.54034 7.45119 2.52095 7.49933 2.52095C7.54212 2.52095 7.59026 2.55004 7.60631 2.57912C7.62236 2.6276 7.6491 2.62275 7.70259 2.55973C7.75074 2.50641 7.80423 2.49187 7.85237 2.52095C7.89516 2.54519 7.9433 2.55489 7.95935 2.54519C7.97539 2.5355 8.09842 2.51611 8.2268 2.49672C8.5103 2.45794 8.52634 2.44824 8.45146 2.36584C8.40867 2.31736 8.47285 2.30282 8.75635 2.29313C8.95427 2.29313 9.20032 2.25435 9.30195 2.21557C9.43033 2.1671 9.51056 2.16225 9.57475 2.19618C9.63894 2.23496 9.69778 2.22526 9.79406 2.1671C9.86895 2.12347 9.94384 2.10893 9.97058 2.13316C10.0241 2.18164 10.2594 2.14286 10.2594 2.08469C10.2594 2.06045 10.3129 2.0556 10.3825 2.07015C10.4466 2.08469 10.4841 2.08469 10.4627 2.06045C10.4413 2.04106 10.4573 1.99744 10.4948 1.95866C10.5429 1.91503 10.666 1.90534 10.896 1.91988C11.1099 1.93442 11.2223 1.91988 11.2223 1.88595C11.2223 1.85201 11.3025 1.83747 11.4362 1.85201C11.5539 1.86171 11.6555 1.85201 11.6662 1.82778C11.6716 1.80839 11.7465 1.80839 11.8267 1.83747C11.9337 1.87625 11.9658 1.8714 11.9551 1.82778C11.9497 1.79385 11.9818 1.7793 12.0246 1.789C12.1958 1.82293 12.4525 1.82778 12.4525 1.789C12.4525 1.74052 12.6879 1.70175 13.0944 1.6872C13.287 1.68236 13.4742 1.65812 13.517 1.62904C13.5651 1.5951 13.6079 1.6048 13.6561 1.66297C13.7202 1.74537 13.7363 1.74052 13.9021 1.59995C13.9984 1.52239 14.084 1.45453 14.0893 1.45453C14.0947 1.45453 14.0947 1.49331 14.0893 1.53693Z" fill="black"/>
<path d="M24.848 3.83518C24.8266 3.90789 24.7677 3.92728 24.5591 3.93213C24.42 3.93698 24.2863 3.93698 24.2649 3.93213C24.2435 3.93213 24.2382 3.96121 24.2542 3.99999C24.2756 4.03877 24.2596 4.0727 24.2275 4.0727C24.1954 4.0727 24.1419 4.12602 24.1045 4.19389C24.0724 4.2569 24.0242 4.30053 24.0028 4.28599C23.9761 4.27144 23.9547 4.28114 23.9547 4.31022C23.9547 4.33446 23.9814 4.37324 24.0082 4.38778C24.0403 4.40717 24.051 4.46534 24.0296 4.52351C23.9707 4.68347 23.9975 4.82889 24.1205 5.06641C24.1579 5.14397 24.2168 5.22637 24.2435 5.24091C24.2703 5.2603 24.2703 5.29908 24.2542 5.32817C24.2328 5.35725 24.2756 5.44935 24.3505 5.53175C24.4254 5.61416 24.4896 5.70626 24.4896 5.74019C24.4896 5.76927 24.5217 5.82744 24.5591 5.85652C24.5912 5.89046 24.6287 5.93893 24.6287 5.96317C24.6447 6.07466 24.6554 6.0795 24.7035 6.01164C24.7463 5.94862 24.757 5.94862 24.757 6.01649C24.757 6.06011 24.7945 6.12313 24.8373 6.15706C24.9015 6.20553 24.9068 6.23462 24.8587 6.28794C24.8212 6.32187 24.8105 6.3655 24.8319 6.38488C24.848 6.39943 24.864 6.38973 24.864 6.36065C24.864 6.32672 24.8854 6.30248 24.9122 6.30248C24.9389 6.30248 24.9603 6.38488 24.9603 6.48183C24.9603 6.68542 24.8266 7.02958 24.7463 7.02958C24.7196 7.02958 24.7142 7.05382 24.7356 7.0829C24.757 7.11683 24.741 7.13138 24.6982 7.11683C24.6554 7.10229 24.6019 7.12168 24.5698 7.15076C24.511 7.21378 24.0991 7.19439 24.1419 7.12653C24.1526 7.10714 24.067 7.05382 23.9493 7.00534C23.7621 6.92779 23.7247 6.92294 23.6765 6.98596C23.6337 7.03928 23.6284 7.03928 23.6498 6.97141C23.6712 6.92294 23.6444 6.88416 23.5749 6.86962C23.5214 6.85508 23.4733 6.8066 23.4733 6.76298C23.4733 6.69996 23.4412 6.68542 23.3556 6.70481C23.2807 6.7242 23.2005 6.70481 23.1416 6.65634C23.0881 6.61271 23.0453 6.59332 23.0453 6.61271C23.0453 6.6321 23.0079 6.61271 22.9598 6.57393C22.8581 6.48183 22.703 6.46729 22.7512 6.55454C22.7725 6.58847 22.7512 6.58363 22.7137 6.54C22.6067 6.42366 21.9809 6.14737 21.906 6.18614C21.8686 6.20553 21.8579 6.20553 21.8793 6.1813C21.9274 6.13282 21.5583 5.905 21.4888 5.93893C21.462 5.95832 21.4406 5.94378 21.4406 5.91954C21.4406 5.89046 21.3978 5.86622 21.3497 5.86622C21.2695 5.86622 21.2641 5.87591 21.3337 5.91469C21.4032 5.95347 21.3978 5.96317 21.323 5.96317C21.2695 5.96317 21.2267 5.94378 21.2267 5.91954C21.2267 5.89046 21.1144 5.85652 20.9753 5.83714C20.8309 5.82259 20.5901 5.75473 20.4404 5.68687C20.2692 5.61416 20.1141 5.58023 20.0499 5.59962C19.975 5.61901 19.9429 5.60931 19.9429 5.56084C19.9429 5.51236 19.9055 5.49782 19.8413 5.51236C19.7878 5.52691 19.7236 5.51236 19.7076 5.48328C19.6862 5.45904 19.638 5.4445 19.5952 5.46389C19.5524 5.47843 19.515 5.46389 19.515 5.43965C19.515 5.31847 18.7233 5.27 18.6164 5.38148C18.5736 5.42027 18.5575 5.42996 18.5736 5.40088C18.5896 5.36694 18.5522 5.32817 18.4826 5.30877C18.2847 5.24576 18.1777 5.24576 18.1777 5.30393C18.1777 5.33301 18.1563 5.32817 18.1296 5.28939C18.1028 5.25061 17.9638 5.21668 17.8033 5.20698C17.6482 5.19729 17.5091 5.1779 17.4931 5.1682C17.4824 5.15366 17.4235 5.16335 17.37 5.19244C17.3005 5.22637 17.2684 5.22152 17.2684 5.18759C17.2684 5.15851 17.2096 5.14881 17.124 5.1682C17.0437 5.18759 16.9528 5.20213 16.9207 5.19729C16.7602 5.1779 16.4179 5.13912 16.2735 5.12458C16.1826 5.11488 16.0863 5.09549 16.0595 5.08095C15.9739 5.04217 15.7493 5.0761 15.7279 5.13427C15.7118 5.17305 15.6797 5.16335 15.6316 5.10519C15.5942 5.05671 15.5567 5.04217 15.5567 5.0761C15.5567 5.10519 15.5139 5.12942 15.4658 5.12942C15.4123 5.12942 15.3053 5.13912 15.2251 5.15366C15.1395 5.1682 15.0753 5.15851 15.0753 5.13427C15.0753 5.11003 15.0593 5.09549 15.0379 5.09549C15.0111 5.10034 14.9844 5.09549 14.9683 5.09064C14.8881 5.05671 14.1767 5.06156 14.075 5.09549C13.9841 5.12458 13.9627 5.11973 13.9841 5.07126C14.0001 5.02763 13.9574 4.99855 13.8557 4.984C13.738 4.96946 13.7006 4.97916 13.722 5.02763C13.738 5.06156 13.722 5.09064 13.6899 5.09064C13.6525 5.09064 13.615 5.05671 13.599 5.01793C13.5722 4.96461 13.5401 4.95977 13.4706 4.9937C13.3422 5.05671 13.2941 5.05671 13.3369 4.9937C13.3583 4.96461 13.3155 4.96461 13.2192 4.99855C13.139 5.02278 12.9303 5.03732 12.7485 5.01793C12.572 5.00339 12.2671 5.01309 12.0692 5.03248C11.8659 5.05671 11.7054 5.05671 11.7054 5.03248C11.7054 5.01309 11.6787 4.9937 11.6466 4.9937C11.6198 4.9937 11.6038 5.01309 11.6198 5.03732C11.6519 5.08095 11.3149 5.07126 11.2294 5.02278C11.2026 5.00824 11.1652 5.03248 11.1491 5.0761C11.1224 5.13427 11.0956 5.13912 11.0582 5.10519C11.0154 5.06641 10.9459 5.06641 10.8282 5.09549C10.6249 5.15366 10.411 5.18759 10.1221 5.20698C9.79047 5.23122 9.56581 5.28454 9.56581 5.33786C9.56581 5.36694 9.51767 5.37179 9.45348 5.35725C9.38929 5.33786 9.35185 5.34271 9.3679 5.3621C9.38394 5.38633 9.21277 5.40572 8.99346 5.40572C8.73136 5.40088 8.56554 5.42511 8.5174 5.46389C8.43182 5.5463 8.28204 5.5463 8.28204 5.46389C8.28204 5.42027 8.27135 5.42027 8.23925 5.46389C8.21785 5.49297 8.13227 5.5366 8.04669 5.55599C7.94505 5.58023 7.90226 5.57053 7.92901 5.5366C7.9611 5.48328 7.88622 5.48813 7.73644 5.55114C7.68295 5.57053 7.65086 5.60446 7.66691 5.62385C7.68295 5.64324 7.65621 5.67233 7.61342 5.69172C7.57062 5.70626 7.53318 5.69656 7.53318 5.67233C7.53318 5.59962 7.42085 5.63355 7.22829 5.75473C7.13735 5.81775 7.01967 5.86622 6.97688 5.86622C6.92874 5.86622 6.8913 5.88561 6.8913 5.91469C6.8913 5.93893 6.85385 5.94378 6.80036 5.92924C6.74152 5.90985 6.72548 5.91469 6.75222 5.95347C6.77362 5.9874 6.75757 6.01164 6.70408 6.01164C6.64524 6.01164 6.62385 6.03588 6.63989 6.0795C6.67199 6.14737 6.53826 6.20553 6.34035 6.20553C6.28686 6.20553 6.17988 6.25885 6.09964 6.32672C6.01941 6.39458 5.93382 6.44305 5.90173 6.43336C5.87498 6.42366 5.8001 6.45759 5.74126 6.50607C5.64497 6.58847 5.62893 6.58847 5.57544 6.52061C5.4952 6.42366 5.48985 6.09889 5.57009 6.14252C5.60218 6.16191 5.60753 6.14737 5.58079 6.11343C5.53799 6.05042 5.65032 5.80805 5.70916 5.83714C5.73056 5.85168 5.768 5.8032 5.80545 5.74019C5.84824 5.65294 5.84824 5.63355 5.80545 5.65778C5.70381 5.7111 6.14778 5.27 6.3029 5.16335C6.50082 5.02278 6.58105 4.94522 6.53291 4.94522C6.51152 4.94522 6.53291 4.92099 6.5864 4.8919C6.63454 4.86282 6.66664 4.81919 6.64524 4.79496C6.62919 4.76587 6.66129 4.73194 6.72013 4.7174C6.8592 4.68832 6.91269 4.56713 6.83246 4.47988C6.80036 4.4411 6.78967 4.41202 6.81641 4.41202C6.84316 4.41202 6.82176 4.38778 6.76827 4.3587C6.72013 4.33446 6.65594 4.31992 6.63454 4.33446C6.6078 4.349 6.46338 4.36354 6.30825 4.36839C6.15848 4.37809 6.01941 4.39748 6.00336 4.42171C5.98731 4.44595 5.94987 4.44595 5.91777 4.43141C5.88033 4.41202 5.87498 4.4411 5.90173 4.51381C5.93917 4.62045 5.93917 4.62045 5.85359 4.5429C5.768 4.47019 5.74661 4.47019 5.60218 4.5332C5.5166 4.57683 5.43636 4.60591 5.42032 4.60591C5.27054 4.59137 4.86402 4.984 4.9496 5.06156C4.96565 5.0761 4.9603 5.09064 4.92821 5.09064C4.83727 5.09064 4.63401 5.27484 4.67145 5.32817C4.69285 5.3621 4.6661 5.36694 4.60726 5.34755C4.55377 5.33301 4.52703 5.33301 4.54842 5.35725C4.56982 5.37664 4.54842 5.42511 4.50563 5.46389C4.46284 5.50752 4.4361 5.56568 4.45214 5.59962C4.46819 5.63839 4.44144 5.67717 4.39865 5.69172C4.35586 5.70626 4.32377 5.75958 4.32377 5.8129C4.32377 5.86622 4.30237 5.92439 4.27028 5.93893C4.24353 5.95347 4.21679 6.02133 4.21679 6.0892C4.21679 6.1716 4.19539 6.20069 4.1526 6.17645C4.11515 6.15706 4.12585 6.18614 4.17934 6.23946C4.27562 6.33641 4.27562 6.34126 4.17934 6.33156C4.09376 6.32672 4.08306 6.37034 4.08306 6.66118C4.07771 6.98596 4.08306 6.99565 4.36121 7.32527C4.51633 7.50947 4.64471 7.67912 4.64471 7.70821C4.64471 7.73245 4.67145 7.75668 4.6982 7.75668C4.73029 7.75668 4.75169 7.78092 4.75169 7.81485C4.75169 7.89725 4.91216 8.04268 4.9817 8.01844C5.01914 8.00874 5.08868 8.06207 5.13682 8.14447C5.18496 8.22203 5.25984 8.28989 5.30264 8.28989C5.34543 8.28989 5.40962 8.32382 5.44706 8.3626C5.4845 8.40138 5.65567 8.46924 5.82684 8.51287C5.99801 8.55649 6.16918 8.62436 6.20127 8.65829C6.23337 8.69707 6.28686 8.72615 6.3136 8.72615C6.3457 8.72615 6.335 8.68737 6.29756 8.64375C6.23872 8.58073 6.25476 8.58073 6.36709 8.65344C6.44733 8.70676 6.51687 8.76978 6.51687 8.79886C6.51687 8.8231 6.54361 8.8134 6.57036 8.77462C6.6078 8.7213 6.62385 8.7213 6.62385 8.76493C6.62385 8.79886 6.64524 8.81825 6.67199 8.79886C6.69873 8.78432 6.75757 8.80371 6.79501 8.83764C6.83781 8.87642 6.93944 8.9152 7.02502 8.92974C7.27108 8.96852 7.34062 8.98791 7.38341 9.04123C7.41015 9.07031 7.4262 9.06546 7.4262 9.02669C7.4262 8.98306 7.4476 8.97821 7.52783 9.02669C7.60807 9.07031 7.65086 9.07031 7.73109 9.01699C7.81133 8.95882 7.81133 8.96367 7.7204 9.06062L7.61342 9.17695L7.7204 9.12848C7.84342 9.07031 7.87552 9.07516 8.27135 9.20119C8.42647 9.24966 8.55484 9.30783 8.54949 9.32722C8.54415 9.35146 8.57089 9.38539 8.61368 9.40963C8.66717 9.43871 8.66182 9.46295 8.58159 9.51627C8.51205 9.55989 8.49065 9.61321 8.5174 9.67138C8.54949 9.74894 8.5388 9.74894 8.45856 9.69077C8.40507 9.65684 8.37833 9.64715 8.39972 9.66653C8.42112 9.69077 8.41577 9.73924 8.38367 9.77802C8.35158 9.81195 8.33553 9.88466 8.35158 9.93799C8.36763 9.98646 8.34623 10.0543 8.30344 10.0883C8.21251 10.1561 8.20716 10.2773 8.29809 10.2773C8.34088 10.2773 8.34088 10.2918 8.28739 10.3209C8.19646 10.3742 8.18041 10.4906 8.15902 11.0917C8.15367 11.4455 8.16436 11.5521 8.22855 11.5861C8.29809 11.6249 8.29274 11.6394 8.20181 11.6636C8.07878 11.6927 8.06273 11.8721 8.16971 11.9884C8.20181 12.032 8.21251 12.0757 8.19111 12.0854C8.16436 12.0999 8.14832 12.2065 8.14832 12.3229C8.15367 12.4489 8.12692 12.5652 8.07343 12.6234C7.9932 12.7107 7.9932 12.7155 8.10553 12.6913C8.19646 12.667 8.21251 12.6816 8.19111 12.7446C8.17506 12.7882 8.13762 12.8464 8.11622 12.8755C8.08948 12.9046 8.08413 12.9433 8.10553 12.9579C8.12157 12.9773 8.10553 13.0209 8.07343 13.0597C8.03064 13.1033 8.03064 13.1372 8.06273 13.1566C8.08948 13.176 8.10553 13.2293 8.09483 13.2826C8.08413 13.336 8.08948 13.3796 8.11087 13.3796C8.13227 13.3796 8.14832 13.462 8.14832 13.5589C8.14832 13.6607 8.18576 13.8837 8.23925 14.0534C8.28739 14.223 8.31414 14.3975 8.29274 14.4363C8.27669 14.4799 8.28739 14.4993 8.31949 14.4799C8.35158 14.4606 8.36228 14.4945 8.34623 14.572C8.32484 14.6884 8.03599 14.9307 7.92366 14.9307C7.89691 14.9307 7.78993 14.9938 7.69365 15.0762C7.52783 15.2119 7.45829 15.241 7.36201 15.2264C7.33527 15.2264 7.31922 15.2458 7.31922 15.2701C7.31922 15.2991 7.34596 15.3185 7.37806 15.3185C7.41015 15.3185 7.4262 15.3476 7.41015 15.3767C7.39945 15.4106 7.33527 15.4349 7.27643 15.4252C7.1641 15.4106 7.13735 15.4446 7.1534 15.6094C7.1534 15.653 7.1427 15.6578 7.12665 15.6239C7.08921 15.5512 6.59175 15.8275 6.44733 16.0069C6.38849 16.0796 6.31895 16.128 6.29221 16.1135C6.27081 16.099 6.24941 16.1426 6.24941 16.2104C6.24941 16.2783 6.22267 16.3365 6.19057 16.3365C6.15848 16.3365 6.14243 16.3704 6.15848 16.4092C6.17988 16.448 6.16383 16.4916 6.13708 16.511C6.10499 16.5255 6.08894 16.5788 6.10499 16.6273C6.12104 16.6806 6.09429 16.7291 6.0515 16.7437C6.00336 16.763 5.98196 16.8115 5.99801 16.8697C6.01406 16.923 6.00871 16.9666 5.98731 16.9666C5.96592 16.9666 5.94452 17.0393 5.93917 17.1314C5.92847 17.2817 5.91243 17.3738 5.83754 17.8973C5.82149 18.0185 5.83219 18.0815 5.87498 18.0815C5.91243 18.0815 5.90708 18.1106 5.85359 18.1542C5.73056 18.2706 5.768 18.7844 5.90708 18.8813C5.96057 18.9201 6.0301 18.954 6.0515 18.954C6.07825 18.954 6.07825 18.9783 6.05685 19.0122C6.0301 19.051 5.99801 19.0364 5.94987 18.9783C5.84824 18.8522 5.80545 18.9153 5.88033 19.0801C5.93382 19.2061 5.94987 19.8363 5.90708 20.1756C5.89638 20.2531 5.90708 20.3113 5.92312 20.3113C5.94452 20.3113 5.96057 20.4519 5.96057 20.6264C5.96057 20.9221 5.97127 20.9511 6.14243 21.0869C6.24407 21.1693 6.41523 21.2614 6.52756 21.2905C6.63989 21.3195 6.73083 21.3632 6.73083 21.3826C6.73083 21.4019 6.79501 21.4116 6.8699 21.3971C6.96618 21.3826 6.99293 21.3923 6.96618 21.431C6.93944 21.4747 6.95549 21.4795 7.03037 21.4504C7.08386 21.431 7.21224 21.4165 7.30317 21.4213C7.4476 21.4262 7.47434 21.4165 7.44225 21.3438C7.4155 21.2662 7.42085 21.2662 7.49039 21.3438C7.55458 21.4213 7.59202 21.431 7.77389 21.3826C7.90226 21.3535 8.00924 21.3486 8.07343 21.3777C8.13227 21.4068 8.18041 21.4068 8.19646 21.3826C8.21785 21.3583 8.37833 21.3486 8.56554 21.3583C8.79555 21.3777 8.95067 21.3583 9.0523 21.3098C9.14324 21.2711 9.25557 21.2565 9.34115 21.2711C9.42139 21.2905 9.5979 21.305 9.73698 21.305C9.8814 21.305 9.99373 21.3195 9.99373 21.3389C9.99373 21.3583 10.0526 21.3535 10.1275 21.3292C10.2291 21.2953 10.2505 21.3002 10.2237 21.3583C10.2023 21.4068 10.2237 21.4165 10.2826 21.3971C10.3307 21.3826 10.3682 21.3438 10.3682 21.3195C10.3682 21.2905 10.4003 21.2953 10.4484 21.3292C10.4965 21.368 10.5821 21.3729 10.6731 21.3535C10.7586 21.3292 10.871 21.305 10.9298 21.2953C10.9886 21.2856 11.0475 21.2565 11.0528 21.2274C11.0689 21.1984 11.0956 21.1984 11.1438 21.2323C11.2187 21.2905 11.5556 21.242 11.5129 21.179C11.5022 21.1547 11.5556 21.1256 11.6359 21.1063C11.7161 21.0869 11.8766 20.9851 11.9836 20.8736C12.1708 20.6894 12.2082 20.6312 12.1922 20.544C12.1922 20.5246 12.2243 20.5197 12.2724 20.5391C12.3152 20.5537 12.3473 20.5488 12.342 20.5246C12.3366 20.5003 12.3366 20.4713 12.342 20.4567C12.3633 20.4082 12.4115 20.0447 12.4061 19.9574C12.4061 19.9138 12.4329 19.875 12.4596 19.875C12.4917 19.875 12.4917 19.8363 12.4543 19.7781C12.4115 19.7102 12.4115 19.6811 12.4543 19.6811C12.4864 19.6811 12.5024 19.6617 12.4864 19.6375C12.465 19.6133 12.481 19.5842 12.5131 19.5745C12.5559 19.56 12.5452 19.526 12.4864 19.4727C12.4329 19.4291 12.4168 19.3903 12.4489 19.3903C12.481 19.3903 12.5024 19.337 12.4971 19.2691C12.4917 19.2013 12.465 19.1479 12.4382 19.1479C12.4115 19.1479 12.4168 19.1188 12.4489 19.0801C12.5185 19.0025 12.5024 18.8329 12.4115 18.7504C12.374 18.7165 12.3473 18.6729 12.3473 18.6438C12.3473 18.6196 12.3847 18.639 12.4275 18.6923C12.5078 18.7795 12.5131 18.7747 12.4757 18.6196C12.4596 18.5323 12.4382 18.3578 12.4382 18.2318C12.4329 18.1106 12.4061 17.9943 12.374 17.9749C12.342 17.9506 12.3473 17.9361 12.3901 17.9361C12.4596 17.9361 12.481 17.7131 12.4061 17.6743C12.3847 17.6598 12.3313 17.4853 12.2992 17.2817C12.2617 17.083 12.2082 16.9182 12.1815 16.9182C12.1547 16.9182 12.1333 16.8842 12.1333 16.8406C12.1333 16.7049 11.7643 16.1426 11.7589 16.2735C11.7589 16.2928 11.7161 16.2395 11.6733 16.1523C11.6252 16.0699 11.5503 15.9972 11.5075 15.9972C11.4647 15.9972 11.4487 15.9729 11.4647 15.9487C11.4808 15.9196 11.4594 15.9002 11.4166 15.9002C11.3738 15.9002 11.3256 15.8566 11.3042 15.8033C11.2882 15.7499 11.2133 15.6675 11.1491 15.6191C11.0796 15.5706 10.9833 15.464 10.9352 15.3767C10.887 15.2894 10.8014 15.1925 10.7426 15.1586C10.6838 15.1295 10.6356 15.081 10.6356 15.0568C10.6356 15.0083 10.4751 14.8871 10.4056 14.8823C10.3789 14.8823 10.3789 14.9017 10.3949 14.9307C10.411 14.955 10.3949 14.9647 10.3521 14.9501C10.3093 14.9356 10.2612 14.8823 10.2451 14.829C10.2237 14.7562 10.2344 14.7369 10.2933 14.7562C10.427 14.8047 10.3735 14.7465 10.1756 14.6448C10.074 14.5866 9.99908 14.5236 10.0151 14.4993C10.0365 14.4751 9.94559 14.4169 9.81721 14.3733C9.64069 14.3151 9.5872 14.2715 9.59255 14.1939C9.5979 14.1406 9.63535 14.0776 9.67814 14.0534C9.73698 14.0194 9.73698 14.0098 9.67814 14.0098C9.62465 14.0098 9.6193 13.9952 9.66744 13.9467C9.71023 13.8983 9.69953 13.8546 9.61395 13.7771C9.55511 13.7189 9.52302 13.651 9.53906 13.6268C9.55511 13.6026 9.54976 13.5686 9.52302 13.5541C9.49627 13.5396 9.48022 13.3796 9.48557 13.2002C9.49092 13.016 9.46953 12.8512 9.43743 12.8318C9.39464 12.8028 9.39464 12.7834 9.43743 12.7688C9.50697 12.7397 9.46953 12.4974 9.38394 12.4489C9.34115 12.4198 9.34115 12.4101 9.38929 12.4101C9.42139 12.4101 9.44278 12.3713 9.43208 12.3229C9.42673 12.2793 9.44278 12.2162 9.46953 12.1823C9.49627 12.1484 9.49627 12.1144 9.46418 12.0999C9.43743 12.0805 9.42673 11.9981 9.44278 11.9109C9.45883 11.7994 9.44278 11.7218 9.38394 11.6685C9.29836 11.5909 9.26626 11.5134 9.34115 11.5521C9.36255 11.5667 9.37859 11.4746 9.37859 11.3437C9.37859 11.1595 9.36255 11.1207 9.29836 11.1401C9.23952 11.1595 9.24487 11.1401 9.3144 11.0674C9.38929 10.985 9.39999 10.9414 9.3572 10.8687C9.3251 10.8154 9.3144 10.7669 9.3251 10.7523C9.34115 10.7426 9.3572 10.6069 9.37324 10.4518C9.38394 10.2967 9.41604 10.1561 9.44278 10.1367C9.46953 10.1222 9.48557 10.0592 9.48022 9.99615C9.47488 9.93799 9.49092 9.87497 9.51232 9.86528C9.53906 9.85073 9.54441 9.79741 9.52837 9.74409C9.50697 9.67623 9.52837 9.64715 9.5872 9.64715C9.64069 9.64715 9.66209 9.62291 9.64604 9.59867C9.63 9.56959 9.67279 9.5502 9.74768 9.5502C9.81721 9.5502 9.88675 9.56959 9.89745 9.59382C9.90815 9.61806 10.0098 9.65684 10.1221 9.67623C10.2719 9.70047 10.32 9.69562 10.2933 9.65199C10.2719 9.62291 10.2826 9.59867 10.3093 9.59867C10.3414 9.59867 10.3682 9.61806 10.3682 9.6423C10.3682 9.67138 10.4698 9.68592 10.5928 9.68108C10.7158 9.67623 10.8228 9.69562 10.8335 9.7247C10.8442 9.75863 10.9405 9.76348 11.0903 9.74409C11.2561 9.71986 11.347 9.72955 11.3845 9.76833C11.438 9.8265 12.0264 9.8265 12.128 9.76833C12.1547 9.75379 12.1922 9.76348 12.2136 9.79257C12.235 9.8265 12.2778 9.8265 12.342 9.79257C12.3954 9.76833 12.4489 9.75863 12.465 9.76833C12.4757 9.78287 12.5827 9.80226 12.7003 9.8168C12.8127 9.8265 12.8822 9.82165 12.8448 9.80226C12.8073 9.78287 12.7966 9.73924 12.8234 9.70531C12.8555 9.65684 12.9036 9.66169 13.0373 9.7247C13.1817 9.78772 13.2192 9.79257 13.2941 9.7344C13.3583 9.69077 13.3743 9.69077 13.3422 9.72955C13.3155 9.77318 13.3369 9.79257 13.4118 9.79257C13.4652 9.79257 13.5294 9.76348 13.5401 9.72955C13.5615 9.68592 13.5829 9.68592 13.6204 9.73924C13.6578 9.78287 13.722 9.79257 13.8236 9.76833C13.9734 9.7344 14.3478 9.7247 14.5671 9.74894C14.626 9.75863 14.7437 9.74409 14.8292 9.7247C14.963 9.69562 14.979 9.70047 14.9202 9.75863C14.872 9.8168 14.8774 9.83619 14.9469 9.86043C15.0646 9.89921 15.1609 9.84104 15.07 9.78772C15.0111 9.75379 15.0165 9.74409 15.0914 9.74409C15.1395 9.74409 15.1823 9.76348 15.1823 9.78772C15.1823 9.80711 15.4016 9.8265 15.6637 9.82165C15.9311 9.8168 16.1451 9.83134 16.1451 9.85558C16.1451 9.87497 16.2307 9.88466 16.3323 9.87497C16.434 9.86043 16.5195 9.87497 16.5195 9.90405C16.5195 9.92829 16.5516 9.92344 16.5944 9.88951C16.6372 9.86043 16.7175 9.83619 16.7709 9.84104C16.9689 9.86043 17.1133 9.84104 17.0812 9.79741C17.0651 9.77318 17.0758 9.73924 17.1079 9.71986C17.1347 9.70531 17.1614 9.71501 17.1614 9.73924C17.1614 9.8168 17.2844 9.80226 17.5626 9.69562L17.814 9.59867L17.7873 9.69562C17.7659 9.77802 17.7712 9.78772 17.8301 9.74409C17.8675 9.71501 17.921 9.69562 17.9424 9.70047C18.0601 9.71986 18.1242 9.69077 18.1296 9.60837C18.1349 9.55505 18.151 9.56474 18.1777 9.64715C18.1991 9.71501 18.2205 9.73924 18.2259 9.70531C18.2312 9.67138 18.258 9.65684 18.2901 9.67623C18.3222 9.69077 18.3703 9.67623 18.397 9.6423C18.4238 9.60352 18.4452 9.59867 18.4452 9.62776C18.4452 9.66653 18.5147 9.67138 18.6752 9.6423C18.7982 9.62291 19.0175 9.61806 19.162 9.6326C19.3492 9.65199 19.4348 9.6423 19.4669 9.59382C19.5043 9.5405 19.5257 9.53566 19.5578 9.58898C19.5952 9.63745 19.6166 9.63745 19.6755 9.57444C19.7503 9.49203 19.9429 9.47264 19.9429 9.5502C19.9429 9.58413 19.975 9.58413 20.0445 9.5502C20.1141 9.51627 20.1943 9.51627 20.2853 9.5502C20.3815 9.57928 20.4243 9.57928 20.4243 9.54535C20.4243 9.51627 20.4457 9.50657 20.4725 9.52596C20.4992 9.5405 20.5367 9.53081 20.5581 9.50657C20.5741 9.47749 20.6222 9.46779 20.665 9.48718C20.7078 9.50173 20.7453 9.49203 20.7453 9.46779C20.7453 9.41447 20.772 9.40963 21.1732 9.39024C21.3337 9.38054 21.5155 9.35146 21.5797 9.31753C21.6386 9.28844 21.7616 9.2739 21.8472 9.28359C21.9328 9.29329 22.0237 9.30298 22.0451 9.30298C22.0718 9.30783 22.0772 9.32722 22.0611 9.35146C22.0451 9.37569 22.0665 9.40963 22.1146 9.42417C22.1788 9.4484 22.1949 9.43386 22.1681 9.37085C22.136 9.28844 22.1414 9.28844 22.2109 9.37085C22.2751 9.4484 22.2911 9.4484 22.4784 9.33207C22.6977 9.19634 22.7512 9.1818 22.6923 9.26905C22.6656 9.31268 22.6816 9.30783 22.7458 9.2642C22.7939 9.22543 22.826 9.16726 22.81 9.13333C22.7939 9.09455 22.81 9.08001 22.8528 9.09455C22.8849 9.10424 22.9865 9.06062 23.0774 8.99275C23.163 8.92489 23.27 8.86672 23.3128 8.86672C23.3556 8.86188 23.4626 8.85703 23.5482 8.85218C23.6337 8.84733 23.7407 8.79886 23.7889 8.75039C23.837 8.69707 23.9119 8.65344 23.9547 8.65344C24.0082 8.65344 24.0296 8.61466 24.0189 8.5468C24.0028 8.44985 24.0135 8.445 24.1365 8.49833C24.2061 8.52741 24.2542 8.57588 24.2328 8.60497C24.2168 8.63405 24.2382 8.6292 24.281 8.60012C24.3238 8.57104 24.4307 8.5468 24.5217 8.5468C24.618 8.5468 24.7517 8.51771 24.8159 8.47894C24.8854 8.43531 24.987 8.39168 25.0405 8.37229C25.094 8.35291 25.1315 8.28989 25.1315 8.21233C25.1315 8.12023 25.1529 8.09115 25.2117 8.11539C25.2812 8.13478 25.2812 8.12508 25.2384 8.04752C25.1636 7.91664 25.1689 7.9021 25.3133 7.9021C25.3882 7.9021 25.4631 7.87787 25.4792 7.85363C25.5059 7.81485 25.538 7.8197 25.5915 7.85848C25.6343 7.88756 25.6664 7.89241 25.6664 7.86817C25.6664 7.84393 25.752 7.75183 25.8536 7.65974C25.9552 7.56764 26.0408 7.46099 26.0408 7.42706C26.0408 7.39798 26.0889 7.32527 26.1478 7.27195C26.2066 7.21863 26.2387 7.175 26.2227 7.175C26.2013 7.175 26.228 7.12168 26.2762 7.05382C26.335 6.97141 26.3403 6.93263 26.3029 6.93263C26.2655 6.93263 26.2922 6.89386 26.351 6.84054C26.4152 6.79206 26.4527 6.73874 26.4313 6.71935C26.4099 6.70481 26.442 6.66118 26.4955 6.62241C26.5811 6.56424 26.5864 6.53515 26.5383 6.43336C26.4848 6.32672 26.4901 6.30733 26.5918 6.28309C26.7041 6.25401 26.7041 6.24916 26.6131 6.18614C26.5597 6.14737 26.5169 6.10859 26.5222 6.09889C26.5276 6.09404 26.5008 6.02618 26.4687 5.95347C26.4099 5.84198 26.4152 5.8129 26.5169 5.71595C26.6292 5.60931 26.6238 5.4445 26.5169 5.37664C26.4901 5.3621 26.4687 5.28939 26.4634 5.20698C26.4527 4.95492 26.1906 4.47988 26.0729 4.48957C26.0248 4.49442 25.9927 4.48473 25.998 4.46534C26.0087 4.3587 25.9766 4.31022 25.9071 4.33446C25.8536 4.35385 25.8268 4.32961 25.8268 4.2666C25.8268 4.20358 25.7894 4.16965 25.7199 4.16965C25.661 4.16965 25.5701 4.12602 25.5219 4.0727C25.4685 4.01938 25.3989 3.97576 25.3615 3.97576C25.324 3.97576 25.2919 3.95152 25.2919 3.92728C25.2919 3.8982 25.2598 3.87881 25.2277 3.87881C25.1903 3.87881 25.094 3.84973 25.0138 3.81095C24.8854 3.74793 24.8694 3.75278 24.848 3.83518Z" fill="black"/>
<path d="M29.3783 10.3738C29.3569 10.4029 29.3195 10.4126 29.2927 10.398C29.266 10.3787 29.2446 10.4029 29.2446 10.4465C29.2446 10.4901 29.2232 10.5095 29.1911 10.495C29.159 10.4804 29.1536 10.4998 29.1697 10.5386C29.1857 10.5822 29.1804 10.6162 29.1483 10.6162C29.1162 10.6162 29.0841 10.5968 29.0734 10.5677C29.0627 10.5386 28.9985 10.5483 28.9129 10.5871C28.8327 10.6258 28.7578 10.6404 28.7364 10.6258C28.7204 10.6065 28.7204 10.6307 28.7418 10.6792C28.7578 10.7228 28.7471 10.7906 28.715 10.8246C28.6562 10.8973 28.5866 11.5274 28.6401 11.6001C28.6776 11.6534 28.699 12.0315 28.6669 11.9976C28.6187 11.9588 28.485 12.1672 28.4315 12.3562C28.3834 12.5404 28.3513 12.7634 28.3085 13.3063C28.2657 13.8685 28.239 14.0091 28.1748 14.0866C28.1373 14.1206 28.1266 14.1545 28.1534 14.1545C28.1801 14.1545 28.1641 14.1787 28.1213 14.203C28.0571 14.2417 28.0571 14.2514 28.148 14.2514C28.2122 14.2514 28.2336 14.266 28.1962 14.2902C28.1587 14.3096 28.1427 14.4695 28.1534 14.7022C28.1587 14.9058 28.1427 15.09 28.1159 15.1045C28.0838 15.119 28.0785 15.1724 28.0945 15.2257C28.1159 15.2838 28.1052 15.3178 28.0571 15.3178C28.0036 15.3178 28.009 15.3323 28.0678 15.3662C28.1373 15.405 28.1373 15.4147 28.0571 15.4147C28.0036 15.4147 27.9769 15.4389 27.9929 15.4777C28.0036 15.5117 28.025 15.6619 28.0357 15.8073C28.0464 15.9479 28.0678 16.1272 28.0838 16.1999C28.0945 16.2775 28.0838 16.3356 28.0624 16.3356C27.9876 16.3356 28.009 16.4326 28.0945 16.5101C28.1908 16.6022 28.2015 16.6943 28.1106 16.6459C28.0731 16.6313 28.1266 16.6895 28.239 16.7767C28.3459 16.8688 28.4369 16.9609 28.4422 16.99C28.4476 17.0142 28.4743 17.0336 28.5011 17.0288C28.5278 17.0191 28.5439 17.0336 28.5332 17.0579C28.5225 17.1015 28.945 17.402 29.0146 17.402C29.0413 17.402 29.0199 17.3778 28.9771 17.3535C28.9343 17.3293 28.9236 17.305 28.9557 17.305C28.9878 17.305 29.052 17.3438 29.1002 17.3923C29.1536 17.4408 29.2446 17.4795 29.3141 17.4747C29.3783 17.4698 29.4478 17.4844 29.4639 17.5086C29.4799 17.5329 29.5281 17.528 29.5709 17.4892C29.6458 17.4262 30.063 17.402 30.1272 17.4602C30.1486 17.4795 30.2235 17.4747 30.2983 17.4456C30.3786 17.4165 30.416 17.4214 30.3946 17.4505C30.3411 17.5329 31.106 17.4602 31.3147 17.3632C31.3681 17.339 31.443 17.3293 31.4805 17.339C31.5179 17.3535 31.5821 17.3341 31.6249 17.305C31.6891 17.2566 31.7051 17.2566 31.7051 17.3099C31.7105 17.3535 31.7319 17.3487 31.7854 17.2857C31.8282 17.2323 31.8656 17.2178 31.8656 17.2469C31.8656 17.2905 31.9405 17.3002 32.101 17.2905C32.24 17.2808 32.3256 17.2954 32.3096 17.3196C32.2935 17.3438 32.331 17.3487 32.4005 17.3293C32.4807 17.305 32.5075 17.3099 32.4861 17.3487C32.4594 17.3826 32.4807 17.3923 32.5289 17.3729C32.6305 17.339 32.6359 17.2954 32.5503 17.2178C32.5182 17.1887 32.5021 17.1499 32.5182 17.1354C32.5342 17.1209 32.5877 17.1403 32.6359 17.1839C32.684 17.2275 32.7215 17.242 32.7215 17.213C32.7215 17.1839 32.8017 17.1596 32.898 17.1596C32.9889 17.1596 33.1066 17.1354 33.1494 17.1112C33.2082 17.0772 33.2082 17.0627 33.1601 17.0627C33.1226 17.0627 33.1066 17.0385 33.1226 17.0142C33.144 16.9803 33.1868 16.9803 33.2564 17.0142C33.4115 17.0869 33.4864 17.0724 33.7431 16.9221C33.8715 16.8446 33.9945 16.7913 34.0159 16.801C34.0373 16.8155 34.0587 16.7913 34.0587 16.7476C34.0587 16.704 34.0855 16.6846 34.1122 16.6992C34.1443 16.7137 34.1657 16.6943 34.1657 16.6507C34.1657 16.6022 34.2031 16.578 34.262 16.5828C34.4278 16.6022 34.8076 16.4423 34.8504 16.3356C34.8878 16.2484 35.1874 16.0157 35.2462 16.0303C35.2676 16.04 35.289 16.0157 35.289 15.9818C35.289 15.943 35.3371 15.8655 35.396 15.8025C35.4816 15.7152 35.4869 15.6813 35.4388 15.6474C35.3853 15.6183 35.3853 15.6086 35.4388 15.6086C35.4762 15.6086 35.4923 15.5844 35.4762 15.5601C35.4602 15.531 35.4709 15.5117 35.5083 15.5117C35.5457 15.5117 35.5618 15.4971 35.5404 15.4826C35.5243 15.468 35.5511 15.4099 35.6099 15.3565C35.733 15.2354 35.7704 15.0609 35.7009 14.9445C35.6527 14.8718 35.6581 14.867 35.7223 14.9155C35.7864 14.9591 35.7971 14.9397 35.8025 14.7797C35.8078 14.678 35.7864 14.5907 35.7597 14.5907C35.733 14.5907 35.7544 14.518 35.8078 14.4308C35.9041 14.266 35.9041 14.1545 35.8078 14.0963C35.7651 14.0721 35.7704 14.0575 35.8292 14.0575C35.9041 14.0575 35.9095 13.9945 35.8934 13.6068C35.872 13.1511 35.8506 12.9524 35.8025 12.7682C35.7704 12.6277 35.5243 12.2787 35.4388 12.2496C35.3906 12.2302 35.3853 12.2205 35.4334 12.2205C35.4709 12.2157 35.4869 12.1817 35.4709 12.143C35.4495 12.1042 35.4174 12.08 35.396 12.0945C35.3692 12.109 35.3371 12.08 35.3157 12.0363C35.2783 11.9345 34.845 11.634 34.738 11.634C34.6952 11.634 34.599 11.5904 34.5241 11.5371C34.4492 11.4838 34.3636 11.4401 34.3262 11.4401C34.2941 11.4401 34.2834 11.4159 34.2994 11.3917C34.3155 11.3626 34.2941 11.3432 34.2513 11.3432C34.2085 11.3432 34.155 11.2996 34.1389 11.2463C34.1229 11.193 34.0801 11.1493 34.048 11.1493C34.0159 11.1493 33.8127 11.0718 33.5933 10.9797C33.374 10.8876 33.1708 10.81 33.1333 10.81C33.0959 10.81 32.9996 10.7567 32.914 10.6889C32.7749 10.5822 32.577 10.5386 32.3524 10.5677C32.3096 10.5725 32.2614 10.5483 32.24 10.5192C32.2186 10.4901 32.0796 10.4611 31.9298 10.4562C31.7854 10.4514 31.673 10.432 31.6891 10.4077C31.6998 10.3883 31.6623 10.3738 31.6035 10.3738C31.5393 10.3738 31.4912 10.3932 31.4912 10.4174C31.4912 10.4368 31.4323 10.4514 31.3574 10.4465C31.2826 10.4368 31.2237 10.4562 31.2237 10.4853C31.2237 10.5241 31.2077 10.5241 31.1809 10.495C31.1381 10.4368 31.0686 10.4271 30.5444 10.4029C30.3144 10.3932 30.1539 10.4029 30.1539 10.432C30.1539 10.4562 30.1325 10.4611 30.1004 10.4465C30.0202 10.4029 29.6779 10.3883 29.7046 10.432C29.7206 10.4514 29.7099 10.4707 29.6779 10.4707C29.6511 10.4707 29.619 10.4417 29.603 10.4077C29.5869 10.3641 29.5602 10.3641 29.4906 10.4174C29.4157 10.4756 29.4051 10.4756 29.4371 10.4029C29.4746 10.3156 29.4318 10.2963 29.3783 10.3738ZM30.8439 11.92C30.9135 11.9539 31.0151 11.9733 31.0686 11.9588C31.1221 11.9442 31.1702 11.9491 31.1702 11.9636C31.1702 11.983 31.2719 11.9927 31.3949 11.9879C31.5179 11.9879 31.673 12.0024 31.7426 12.0266C31.8175 12.0509 31.8656 12.0509 31.8656 12.0218C31.8656 11.9927 31.8924 11.9733 31.9191 11.9733C31.9512 11.9733 31.9726 12.0073 31.9726 12.0509C31.9726 12.0993 32.0047 12.1187 32.0475 12.1042C32.0903 12.0897 32.1331 12.0945 32.1438 12.1187C32.1545 12.1478 32.2347 12.1672 32.3203 12.172C32.5182 12.1817 32.7749 12.2593 32.7589 12.3126C32.7535 12.332 32.7589 12.3514 32.7749 12.3465C32.791 12.3465 32.8605 12.3756 32.9354 12.4096C33.0103 12.4483 33.0905 12.4774 33.1119 12.4823C33.1333 12.4823 33.1708 12.5065 33.1922 12.5356C33.2136 12.5647 33.3847 12.6568 33.5719 12.7392C33.8341 12.8555 33.9303 12.8797 34.0106 12.8409C34.0855 12.807 34.1122 12.8119 34.1229 12.8555C34.1389 12.9912 34.1496 13.0203 34.2727 13.2432C34.3422 13.3693 34.4171 13.4614 34.4438 13.4468C34.5027 13.4129 34.4973 13.4614 34.4331 13.5777C34.4011 13.6262 34.3957 13.6698 34.4224 13.6698C34.4492 13.6698 34.4706 13.757 34.4652 13.8637C34.4545 13.9994 34.4759 14.0575 34.5294 14.0575C34.5669 14.0575 34.5829 14.0818 34.5669 14.106C34.5455 14.1351 34.5187 14.1448 34.4973 14.1351C34.4759 14.1254 34.4545 14.1787 34.4492 14.2563C34.4278 14.518 34.4117 14.5907 34.3743 14.5907C34.3529 14.5907 34.3101 14.6586 34.2727 14.7361C34.2352 14.8185 34.1336 14.9639 34.0534 15.0609C33.9678 15.153 33.9089 15.2499 33.925 15.2693C33.9357 15.2838 33.9143 15.3032 33.8768 15.3032C33.7485 15.3032 33.4703 15.4244 33.5024 15.468C33.5185 15.4923 33.4596 15.5117 33.3687 15.5117C33.2564 15.5117 33.2136 15.531 33.235 15.5747C33.2564 15.6231 33.2189 15.6328 33.0959 15.6183C33.0103 15.6086 32.898 15.6231 32.8552 15.6571C32.807 15.6958 32.7749 15.6958 32.7749 15.6668C32.7749 15.6377 32.6519 15.6813 32.4968 15.754C32.3256 15.8412 32.1865 15.88 32.1384 15.8558C32.0903 15.8364 31.9726 15.8219 31.8817 15.8219C31.7854 15.8267 31.7051 15.817 31.7051 15.8025C31.7051 15.754 31.443 15.754 31.304 15.8025C31.2291 15.8267 31.1702 15.8316 31.1702 15.8073C31.1702 15.7879 30.9937 15.7782 30.7851 15.7831C30.5711 15.7879 30.3946 15.7976 30.3946 15.8025C30.3946 15.8073 30.3304 15.8219 30.2502 15.8316C30.1646 15.8364 30.1004 15.8267 30.1004 15.8025C30.1004 15.7782 30.0576 15.7685 30.0095 15.7879C29.9293 15.8122 29.9239 15.8073 29.9827 15.7492C30.0362 15.6958 30.0255 15.6668 29.9293 15.594C29.8597 15.5456 29.8437 15.5117 29.8865 15.5262C29.9988 15.5553 30.0255 15.3226 29.9132 15.2887C29.8704 15.2693 29.849 15.2402 29.8651 15.216C29.8811 15.1917 29.9186 15.1869 29.9507 15.2014C29.9934 15.2257 29.9988 15.1627 29.972 14.9979C29.9507 14.867 29.9239 14.455 29.9132 14.0818C29.9025 13.7086 29.8704 13.3256 29.8437 13.2287C29.8169 13.1269 29.8116 13.0203 29.833 12.9864C29.8865 12.9185 29.8597 12.6131 29.7902 12.3514C29.7581 12.2448 29.7581 12.1817 29.7848 12.1963C29.8116 12.2108 29.833 12.1769 29.833 12.1284C29.833 11.9976 29.94 11.9297 30.2128 11.8958C30.3411 11.8764 30.4535 11.857 30.4642 11.8521C30.5016 11.8231 30.7209 11.8618 30.8439 11.92Z" fill="black"/>
</svg>
