<svg width="43" height="84" viewBox="0 0 43 84" fill="none" xmlns="http://www.w3.org/2000/svg">
<path d="M21.7285 0.0557938C21.702 0.0831757 21.5169 0.124237 21.3184 0.144775C21.12 0.165314 20.948 0.220139 20.9348 0.268059C20.915 0.32283 20.8356 0.35704 20.743 0.35704C20.657 0.35704 20.4983 0.459694 20.3924 0.589767C20.2932 0.719841 20.0617 0.993721 19.8765 1.21279C19.354 1.83577 19.1754 2.13696 19.1159 2.50664C19.0828 2.70517 19.0167 2.86264 18.9572 2.86264C18.8513 2.86264 18.6926 3.61571 18.7852 3.69786C18.8117 3.72524 18.7191 3.97167 18.5868 4.25236C18.4479 4.5262 18.3354 4.82061 18.3354 4.90961C18.3354 4.99861 18.2627 5.2382 18.1701 5.44358C18.0378 5.73796 17.9981 6.05975 17.9717 6.84019C17.9518 7.63432 17.9121 7.88758 17.8063 7.99712C17.6476 8.16142 17.6343 8.48322 17.7666 8.62014C17.8394 8.69544 17.8328 8.79811 17.7269 9.03772C17.6409 9.20886 17.6013 9.40737 17.6277 9.48952C17.6608 9.56483 17.6079 9.90713 17.5219 10.2426C17.3962 10.7081 17.3565 11.1394 17.3565 12.0636C17.3565 12.8167 17.3036 13.5081 17.2309 13.8778C17.1581 14.2064 17.0986 14.6377 17.0986 14.8363C17.0986 15.3908 16.7811 15.5893 16.6091 15.1443C16.4239 14.6925 16.1858 14.2612 16.1065 14.2612C16.0668 14.2612 16.0072 14.1174 15.9808 13.9326C15.8551 13.2001 15.7228 12.7414 15.5906 12.5771C15.498 12.4676 15.4715 12.3443 15.5178 12.2348C15.5839 12.0431 15.5707 11.9678 15.3591 11.4543C15.2731 11.2626 15.1606 10.9341 15.1011 10.7287C15.0283 10.4959 14.9291 10.3316 14.8233 10.3042C14.7241 10.2768 14.691 10.2152 14.7307 10.1263C14.8696 9.81818 14.658 8.68172 14.3603 8.2162C14.228 7.99713 14.1751 7.7849 14.1751 7.42892C14.1751 6.94285 14.0362 6.61422 13.8312 6.61422C13.7452 6.61422 13.7254 6.50472 13.7386 6.24458C13.765 5.97073 13.7386 5.88175 13.6394 5.88175C13.5666 5.88175 13.4806 5.75168 13.4211 5.53945C13.3682 5.36146 13.302 5.17657 13.2624 5.15604C13.2227 5.12865 13.1632 5.01231 13.1367 4.88908C13.0507 4.55363 12.4885 3.75948 12.171 3.52671C11.7345 3.22549 11.5956 3.19126 10.9474 3.18442C10.3786 3.17757 10.3389 3.19126 10.0942 3.45825C9.94205 3.6294 9.83622 3.8416 9.83622 3.97852C9.83622 4.10175 9.78331 4.27977 9.7304 4.38246C9.14835 5.42989 9.11528 5.58053 9.29386 6.53212C9.32032 6.66904 9.30048 7.05923 9.25418 7.39468C9.20126 7.72329 9.16158 8.14091 9.16158 8.29836C9.16819 8.72966 9.35339 9.33208 9.47906 9.33208C9.55181 9.33208 9.57166 9.40054 9.53859 9.53746C9.51213 9.66068 9.55843 9.86608 9.6378 10.0304C9.7304 10.2289 9.79654 10.5849 9.80977 11.0915C9.82961 11.516 9.87591 11.9267 9.92882 12.0157C9.96851 12.1047 10.0016 12.269 10.0016 12.3854C10.0016 12.5155 10.0346 12.6798 10.0743 12.7688C10.2331 13.07 10.405 13.7135 10.4513 14.1105C10.4778 14.3365 10.5439 14.6104 10.6035 14.7131C10.663 14.8157 10.7093 15.1512 10.7093 15.4661C10.7093 15.7742 10.7424 16.1027 10.7688 16.1986C10.8019 16.2944 10.8019 16.4245 10.7622 16.4861C10.7027 16.582 10.6432 16.5614 10.4844 16.3971C9.75024 15.6988 9.65764 15.6304 9.49229 15.6783C9.36 15.7331 9.30048 15.6715 9.19465 15.3839C9.12189 15.1854 9.02929 15.0279 8.983 15.0279C8.94992 15.0279 8.91685 14.9321 8.91685 14.8089C8.91685 14.6514 8.82425 14.535 8.60599 14.3844C8.43402 14.2612 8.15622 14.0285 7.99748 13.8573C7.83874 13.693 7.66678 13.5561 7.60725 13.5561C7.54772 13.5561 7.44189 13.4602 7.36252 13.337C7.28315 13.2137 7.13764 13.0974 7.03843 13.07C6.9326 13.0426 6.68788 12.844 6.49607 12.6387C6.31087 12.4333 6.08599 12.2553 6.00662 12.2553C5.92725 12.2553 5.79496 12.1869 5.72221 12.0979C5.64945 12.0089 5.41134 11.8583 5.2063 11.7419C4.99465 11.6392 4.8293 11.5091 4.8293 11.468C4.8293 11.427 4.67717 11.3243 4.49859 11.2421C4.28032 11.1394 4.14142 11.0094 4.08851 10.8519C4.02898 10.6739 3.94961 10.6123 3.79748 10.6123C3.60567 10.6123 3.19559 10.4685 2.78552 10.2426C2.11087 9.87975 1.02615 10.4753 0.867406 11.3037C0.840949 11.4269 0.768194 11.7556 0.708666 12.0362C0.582997 12.5839 0.602839 13.1795 0.741737 13.4534C0.781422 13.5492 0.827721 13.7272 0.827721 13.8709C0.827721 14.001 0.946776 14.3776 1.07906 14.7199C1.21796 15.0485 1.3304 15.3702 1.3304 15.425C1.3304 15.4866 1.40315 15.5688 1.49575 15.6236C1.58835 15.6783 1.66111 15.7673 1.66111 15.8426C1.66111 15.9111 1.82646 16.137 2.0315 16.3355C2.22993 16.5409 2.48788 16.8969 2.60032 17.1365C2.71937 17.3692 2.86489 17.6774 2.94426 17.828C3.17575 18.2661 3.23528 18.4235 3.28819 18.6563C3.31465 18.7795 3.46016 19.0465 3.61229 19.2587C3.77103 19.4641 3.92977 19.7311 3.96284 19.8543C3.99591 19.9776 4.11496 20.183 4.22079 20.313C4.32662 20.45 4.41922 20.6348 4.41922 20.7306C4.41922 20.8265 4.47874 20.9223 4.54489 20.9497C4.61103 20.9771 4.80284 21.292 4.98142 21.6548C5.14678 22.0245 5.33859 22.3531 5.39811 22.3874C5.61638 22.5243 6.29103 24.1125 6.29764 24.4959C6.29764 24.6944 6.36378 24.9204 6.43654 25.0162C6.50929 25.1052 6.60189 25.4064 6.63496 25.7145C6.67465 26.1184 6.73418 26.2964 6.87969 26.4059C7.12441 26.6045 7.2567 26.8715 7.2567 27.1727C7.2567 27.3096 7.31622 27.5081 7.38898 27.6108C7.45512 27.7135 7.48819 27.8367 7.46174 27.8847C7.42205 27.9531 7.64693 28.6445 7.84536 29.0348C7.91811 29.1717 7.98426 29.6236 8.12977 30.9243C8.14961 31.0954 8.19591 31.3145 8.24882 31.3966C8.50677 31.9238 8.66551 32.3825 8.7052 32.7179C8.73166 32.937 8.79118 33.2999 8.83748 33.5395C8.96977 34.2446 9.18142 35.5795 9.24756 36.134C9.28063 36.4216 9.34678 36.7297 9.39969 36.8255C9.4526 36.9214 9.49229 37.1883 9.49229 37.428C9.49229 37.6607 9.56504 38.0988 9.66426 38.3932C9.76347 38.6876 9.83622 38.982 9.83622 39.0505C9.83622 39.1121 9.92882 39.3722 10.0479 39.6118C10.1669 39.8651 10.2595 40.1321 10.2595 40.2279C10.2595 40.3169 10.3191 40.4333 10.3852 40.4949C10.4513 40.5565 10.5109 40.6935 10.5109 40.803C10.5109 40.9057 10.5836 41.1316 10.6762 41.2959C10.8085 41.5355 10.8284 41.6382 10.7622 41.8231C10.7225 41.9532 10.6762 42.1859 10.6762 42.3296C10.6762 42.4871 10.6167 42.6857 10.5506 42.7678C10.4844 42.8637 10.4249 43.0348 10.4249 43.1649C10.4249 43.2881 10.3654 43.4729 10.2926 43.5824C10.0942 43.8837 10.0677 44.1781 10.2331 44.2876C10.3389 44.3561 10.3521 44.3972 10.286 44.4245C10.1537 44.4862 10.1471 44.7326 10.2794 44.8764C10.3521 44.9517 10.3389 44.9859 10.2132 45.0338C9.98174 45.1296 9.94866 45.2255 9.98835 45.5952C10.0148 45.7663 9.99496 46.047 9.94866 46.1908C9.88252 46.3756 9.88252 46.5263 9.94205 46.6837C9.98174 46.8138 10.0016 46.9781 9.96851 47.0465C9.93544 47.1218 9.90237 47.2108 9.90237 47.245C9.88252 47.3888 9.74363 47.4299 9.67748 47.2999C9.57166 47.1013 9.14174 47.1766 8.82426 47.4573C8.69859 47.5668 8.54646 47.6421 8.49355 47.6147C8.43402 47.5942 8.34142 47.7037 8.27528 47.8544C8.21575 48.0118 8.10992 48.2583 8.04378 48.4157C7.97764 48.5732 7.91811 48.9018 7.91811 49.1483C7.91811 49.3947 7.91811 49.6822 7.91811 49.778C7.91811 49.8739 7.91811 50.3121 7.92473 50.7571C7.93134 51.3116 7.89827 51.7018 7.79906 52.0236C7.67339 52.4138 7.66678 52.5781 7.73953 52.9135C7.79244 53.1395 7.83213 53.6666 7.83874 54.0979C7.84536 54.7003 7.87843 54.8988 7.99087 54.981C8.08347 55.0563 8.0967 55.1179 8.04378 55.2001C7.99087 55.2617 7.93796 55.5013 7.9115 55.7272C7.85197 56.3434 8.19591 56.8431 8.983 57.2676C9.55843 57.5688 9.56504 57.5893 9.62457 57.9864C9.65764 58.2191 9.62457 58.6573 9.55843 59.0475C9.22772 60.9575 9.20788 61.5258 9.50552 61.6079C9.59811 61.6353 9.57827 61.649 9.43937 61.6627C9.12189 61.6832 9.05575 61.7654 9.05575 62.1898C9.05575 62.6759 8.95654 64.1957 8.8904 64.6407C8.85733 64.8461 8.87055 64.9967 8.93008 65.0377C9.00284 65.0788 9.00284 65.3732 8.93008 66.2563C8.81103 67.6529 8.81103 67.961 8.8904 68.5976C8.92347 68.8989 8.91685 69.2274 8.85071 69.4602C8.71181 69.9942 8.68536 70.5693 8.78457 70.891C8.85071 71.1101 8.8441 71.3155 8.74489 71.7536C8.6589 72.1096 8.6126 72.6778 8.61922 73.2392C8.61922 73.7389 8.62583 74.6495 8.63906 75.2725C8.6589 77.5179 8.60599 78.6475 8.4737 79.024C8.42079 79.1336 8.43402 79.4554 8.4737 79.8045C8.53323 80.1947 8.52662 80.5233 8.46709 80.8519C8.40756 81.16 8.40095 81.5228 8.44725 81.9199C8.48032 82.2485 8.48693 82.5908 8.45386 82.6866C8.42079 82.7825 8.4274 83.0426 8.4737 83.2548C8.53323 83.5218 8.52662 83.6861 8.45386 83.7957C8.36126 83.9394 8.50677 83.9531 11.7411 83.9531H15.1209L15.154 83.7615C15.1805 83.6519 15.2135 83.3781 15.24 83.1658C15.3128 82.447 15.6435 82.0842 16.285 81.9883C16.7216 81.9199 17.1515 81.9609 17.3896 82.091C17.5219 82.1595 17.7468 82.2895 17.8989 82.3648C18.2164 82.536 18.5405 82.8989 18.5471 83.0906C18.5471 83.159 18.6 83.2754 18.6463 83.3233C18.7323 83.4123 18.7323 83.4671 18.6463 83.6108C18.5868 83.7067 18.5603 83.8162 18.5868 83.8641C18.6198 83.9189 22.1055 83.9531 27.9921 83.9531H37.3512L37.2917 82.5976C37.2586 81.7761 37.1924 81.1874 37.1329 81.1189C37.08 81.0505 37.0271 80.6465 37.0139 80.2015C36.994 79.7703 36.9477 79.2705 36.8948 79.0925C36.8088 78.8392 36.8221 78.6544 36.8948 78.2779C37.0006 77.7713 36.9477 77.4974 36.4781 76.4705C36.3392 76.1419 36.3392 76.0871 36.4517 75.69C36.5707 75.2861 36.5773 74.759 36.4715 74.5673C36.3789 74.403 36.3326 74.0402 36.2797 73.2392C36.2466 72.7874 36.1937 72.3424 36.154 72.2465C36.1143 72.137 36.1342 71.9727 36.2135 71.8221C36.3061 71.6304 36.3128 71.514 36.2466 71.3155C36.1937 71.1717 36.154 70.8911 36.154 70.7131C36.154 70.5214 36.1143 70.2954 36.0614 70.2064C36.0217 70.1106 35.9754 69.871 35.9754 69.6725C35.9754 69.4739 35.8895 68.4402 35.8035 67.3654C35.6712 65.914 35.5918 65.3937 35.5058 65.3184C35.4331 65.2499 35.4066 65.1609 35.4463 65.0583C35.5389 64.8392 35.4992 64.3394 35.3603 64.0793C35.195 63.7233 35.1421 62.8539 35.2743 62.5869C35.3934 62.3541 35.3669 62.094 35.2346 62.094C35.2016 62.094 35.109 61.7106 35.0362 61.2587C34.9502 60.7932 34.8378 60.136 34.7717 59.7869C34.6857 59.4035 34.6724 59.116 34.7121 59.027C34.8312 58.8216 35.3405 59.3351 35.7043 60.0539C36.0482 60.7111 36.531 61.2862 36.7758 61.3341C36.8684 61.3546 36.9742 61.471 37.0271 61.6353C37.08 61.7927 37.1858 61.9981 37.2718 62.1008C37.4107 62.2719 37.4306 62.272 37.5298 62.1282C37.6025 62.0255 37.6554 62.005 37.6951 62.0734C37.7282 62.1351 37.7282 62.2103 37.7017 62.2651C37.6753 62.3062 37.7943 62.4979 37.9795 62.6691C38.6079 63.2989 38.9981 63.648 39.0841 63.648C39.137 63.648 39.3288 63.737 39.5206 63.8397C39.7058 63.9492 39.977 64.1067 40.1225 64.182C40.2945 64.2847 40.5789 64.3257 41.0154 64.3394C41.7364 64.3394 41.9745 64.2162 42.2192 63.7096C42.3846 63.3673 42.4706 62.4636 42.3383 62.2993C42.2854 62.2377 42.2721 62.1419 42.3052 62.094C42.3383 62.0392 42.2986 61.9502 42.2192 61.8886C42.1465 61.827 42.0472 61.6147 42.0009 61.3957C41.8819 60.8274 41.8753 60.8069 41.8157 60.7453C41.7827 60.7111 41.7562 60.5742 41.7562 60.4441C41.7562 60.1497 41.6173 59.7458 41.4784 59.6568C41.4189 59.6226 41.3792 59.561 41.3726 59.5267C41.3726 59.4925 41.2734 59.2392 41.1543 58.9859C40.9824 58.582 40.612 58.137 40.3606 58.0206C40.268 57.9864 40.0035 57.4798 40.0035 57.3497C40.0035 57.2881 39.8976 57.0964 39.7587 56.9253C39.6331 56.7541 39.4942 56.5077 39.4479 56.3913C39.4082 56.2612 39.1899 55.9394 38.9584 55.6656C38.0854 54.6387 37.9994 54.5155 37.9994 54.3512C37.9994 54.1184 39.2627 52.9409 39.6463 52.8245C39.7389 52.7903 39.8447 52.715 39.8712 52.6465C39.8976 52.5781 40.0035 52.5164 40.1159 52.5164C40.2548 52.5164 40.3805 52.4206 40.5194 52.2152C40.6252 52.0509 40.7443 51.914 40.7839 51.914C40.9162 51.914 41.8687 50.8939 42.1597 50.4421C42.5301 49.8602 42.6822 49.3125 42.6293 48.7991C42.5565 48.1624 42.4309 47.8475 42.2589 47.8475C42.1729 47.8475 42.0869 47.779 42.0605 47.69C42.0009 47.4983 41.7099 47.3204 41.3395 47.2314C41.1808 47.1972 40.903 47.1287 40.731 47.0876C40.5392 47.0328 40.4069 47.0328 40.3739 47.0876C40.3408 47.1287 40.2813 47.1287 40.2151 47.0671C40.1424 46.9986 39.9307 47.0329 39.4545 47.1972C39.0973 47.3204 38.6542 47.4368 38.469 47.471C38.0854 47.5326 37.252 47.9365 37.0866 48.135C37.0271 48.2103 36.9213 48.2719 36.8353 48.2719C36.7493 48.2719 36.6435 48.3336 36.5839 48.402C36.5244 48.4705 36.4318 48.5321 36.3855 48.5252C36.1871 48.4979 36.0879 48.5526 35.5918 48.9223C35.3074 49.1414 35.0296 49.3125 34.9635 49.3125C34.9039 49.3125 34.7452 49.3742 34.6129 49.4426C34.388 49.5659 34.3616 49.5521 34.1235 49.3125C33.9912 49.1756 33.7398 48.9223 33.5745 48.758C33.2239 48.402 32.9395 48.2719 32.5427 48.2719C32.1921 48.2719 32.0334 48.1145 31.9606 47.69C31.9342 47.512 31.8548 47.2656 31.7754 47.1561C31.7027 47.026 31.6696 46.8274 31.6828 46.5947C31.7093 46.403 31.6894 46.1428 31.663 46.0265C31.6299 45.9032 31.6299 45.7321 31.663 45.6362C31.7027 45.513 31.6828 45.4035 31.5638 45.2803C31.4315 45.1228 31.4249 45.0612 31.5043 44.8627C31.5902 44.6778 31.577 44.5888 31.4976 44.3971C31.2794 43.9385 31.3323 43.5071 31.6365 43.0827C31.7887 42.8636 32.04 42.5966 32.1789 42.4803C32.331 42.357 32.5824 42.138 32.7477 41.9805C32.9065 41.8162 33.1247 41.6245 33.2306 41.5561C33.3298 41.4808 33.4157 41.3301 33.4157 41.2206C33.4157 41.111 33.4885 40.981 33.5811 40.9262C33.6737 40.8715 33.7465 40.7962 33.7465 40.7483C33.7465 40.5839 34.2491 40.1321 34.732 39.8788C34.9899 39.735 35.3074 39.557 35.4331 39.4886C35.6646 39.3653 36.2532 38.6876 36.2532 38.5438C36.2532 38.5096 36.3723 38.3521 36.5112 38.2015C36.6435 38.0578 36.7691 37.8182 36.789 37.6813C36.8154 37.4827 36.875 37.4142 37.08 37.3526C37.2189 37.3115 37.338 37.2226 37.338 37.1541C37.338 37.0857 37.5099 36.8461 37.7216 36.6201C37.9332 36.4011 38.1383 36.1477 38.178 36.0519C38.2176 35.956 38.3433 35.7575 38.4425 35.6138C38.5417 35.47 38.6872 35.1825 38.7402 34.9634C38.8791 34.4705 39.1569 33.8475 39.3156 33.6558C39.4346 33.512 39.8249 32.1292 39.8646 31.6842C39.8976 31.3898 40.0035 30.8832 40.063 30.7874C40.1688 30.5888 40.149 29.7331 40.0233 29.5961C39.9506 29.5071 39.9175 29.3908 39.9373 29.3223C40.0035 29.1375 39.772 28.2064 39.6265 28.1037C39.5603 28.049 39.5008 27.9394 39.4876 27.8436C39.4545 27.6725 39.1039 27.4465 38.7865 27.3917C38.4293 27.3301 37.6356 27.3644 37.543 27.4465C37.4769 27.5082 37.4107 27.5081 37.3578 27.4534C37.3181 27.4123 37.1395 27.4465 36.9146 27.5492C36.7162 27.6451 36.445 27.734 36.3326 27.7477C35.8167 27.8162 35.5786 27.9189 35.4066 28.1654C35.3074 28.3023 35.1288 28.4529 35.0164 28.5008C34.9106 28.5419 34.765 28.6993 34.7187 28.8363C34.6526 29.0143 34.5666 29.0964 34.4343 29.0964C34.2028 29.0964 33.7332 29.3908 33.3165 29.7947C32.3972 30.6915 32.1921 30.7531 31.9739 30.1918C31.8879 29.9932 31.8217 29.6646 31.8217 29.4729C31.8217 29.2744 31.7556 28.9869 31.6828 28.8226C31.6101 28.6651 31.5175 28.2612 31.491 27.9258C31.458 27.5972 31.3852 27.1932 31.3191 27.0358C31.2265 26.8099 31.2265 26.7277 31.3124 26.5839C31.3852 26.4538 31.3984 26.358 31.3323 26.2416C31.2926 26.1526 31.2463 25.6803 31.2463 25.1874C31.2463 24.5918 31.2066 24.1879 31.114 23.9414C30.995 23.6196 30.995 23.558 31.114 23.3253C31.2132 23.1062 31.2198 22.9624 31.1471 22.4353C31.0809 21.9698 31.0809 21.7028 31.1537 21.4084C31.2066 21.1893 31.286 20.6211 31.3257 20.1487C31.3984 19.4025 31.3918 19.2656 31.286 19.1903C31.114 19.0602 31.1272 18.9986 31.3521 18.9644C31.5506 18.937 31.5506 18.9849 31.4249 17.6842C31.3654 17.1228 31.372 16.9311 31.4513 16.8901C31.577 16.8148 31.6233 16.6162 31.7424 15.781C31.7953 15.425 31.868 15.0964 31.9143 15.0279C31.9672 14.9663 31.9805 14.8294 31.954 14.7267C31.9209 14.6171 31.8813 14.2201 31.8548 13.8367C31.8283 13.4533 31.7953 13.0905 31.7688 13.0221C31.749 12.9536 31.7887 12.8167 31.8548 12.7208C31.9474 12.5634 31.9606 12.1526 31.9474 10.5849C31.9408 9.52375 31.9209 8.64748 31.9143 8.64748C31.9077 8.64748 31.8879 8.31886 31.8746 7.91495C31.8416 6.86067 31.6894 5.86805 31.5175 5.55997C31.4315 5.41621 31.2 5.20397 30.995 5.10129C30.7635 4.97806 30.6047 4.83428 30.5783 4.71105C30.5254 4.48514 29.7052 3.9854 29.5531 4.0881C29.4935 4.12232 29.4208 4.15656 29.3679 4.15656C28.8652 4.19079 28.0715 4.66312 28.0715 4.93696C28.0715 4.99172 27.9789 5.11497 27.8598 5.2245C27.6416 5.42303 27.5754 5.75847 27.754 5.75847C27.8135 5.75847 27.7209 5.88175 27.5556 6.01867C27.3902 6.16244 27.2249 6.36092 27.1852 6.47729C27.1587 6.57999 27.0463 6.87437 26.9339 7.12766C26.828 7.38097 26.7354 7.69593 26.7354 7.83286C26.7354 7.96977 26.6296 8.42159 26.4907 8.84604C26.2394 9.62648 26.1468 10.0441 26.1005 10.626C26.0806 10.7971 26.0343 11.023 25.9814 11.112C25.9417 11.2079 25.8954 11.4338 25.8954 11.6118C25.8954 11.8035 25.8227 12.0294 25.7301 12.1526C25.6375 12.2759 25.5647 12.4881 25.5647 12.625C25.5647 12.7688 25.5317 12.9263 25.492 12.9673C25.3861 13.0974 25.234 13.8504 25.1811 14.5213C25.1546 14.8499 25.0885 15.2402 25.029 15.3839C24.9628 15.5209 24.8702 15.9385 24.8107 16.2876C24.6784 17.116 24.5329 17.4103 24.2617 17.4103C23.9773 17.4103 23.9046 17.1708 24.1295 16.9722C24.2683 16.8627 24.3146 16.7326 24.3146 16.404C24.3146 16.1712 24.2617 15.9316 24.2154 15.8769C24.1294 15.7879 24.1294 15.7331 24.2154 15.603C24.2882 15.473 24.2882 15.4113 24.2088 15.3292C23.9575 15.069 23.8252 14.7883 23.898 14.6582C23.9575 14.5555 23.9906 14.5693 24.0501 14.7473C24.1096 14.9047 24.1427 14.9253 24.1757 14.8363C24.2683 14.5624 24.3279 14.1722 24.3146 13.8231C24.3146 13.6245 24.3477 13.4397 24.4006 13.4054C24.5065 13.337 24.4403 12.4813 24.2617 11.6529C24.1691 11.2284 24.1691 11.0299 24.2353 10.804C24.3609 10.4137 24.4072 8.03133 24.3014 7.77803C24.2353 7.63427 24.2353 7.54528 24.308 7.44944C24.3742 7.36044 24.3808 7.22351 24.3279 6.95651C24.275 6.7169 24.275 6.53212 24.3279 6.42943C24.4205 6.25143 24.3609 6.10077 24.189 6.10077C24.017 6.10077 24.0501 5.96385 24.2551 5.82693C24.4271 5.7037 24.4403 5.66953 24.3477 5.40253C24.275 5.18346 24.275 5.00547 24.3279 4.71794C24.3874 4.45094 24.3874 4.22501 24.3279 3.9854C24.275 3.79372 24.2419 3.58147 24.2551 3.51301C24.2882 3.2734 24.1361 2.34924 23.9641 1.70571C23.7987 1.08958 23.4416 0.576126 23.1902 0.576126C23.1307 0.576126 23.0646 0.514511 23.0381 0.439209C23.0117 0.37075 22.9455 0.336479 22.9058 0.363861C22.8529 0.398094 22.7537 0.37072 22.6809 0.309105C22.5619 0.206421 22.0328 -0.0195236 21.8939 -0.0263748C21.8013 0.00101471 21.7616 0.0284119 21.7285 0.0557938ZM21.9203 2.67097C21.9732 2.81474 21.9931 2.97221 21.96 3.02697C21.9335 3.06805 21.9931 3.38978 22.0923 3.71838C22.251 4.25237 22.2576 4.36874 22.165 4.66312C22.0989 4.86849 22.0791 5.12865 22.1254 5.32719C22.1849 5.69003 22.218 6.36092 22.1783 6.78537C22.1717 6.92229 22.1849 7.73013 22.2113 8.5585C22.2444 9.38686 22.2643 10.1673 22.251 10.2837C22.218 10.7081 22.2246 11.1052 22.2841 11.3791C22.3172 11.5228 22.3106 11.6734 22.2643 11.7008C22.165 11.7624 22.2047 12.8577 22.3304 13.3917C22.3965 13.6793 22.3965 13.8573 22.3502 13.9736C22.2907 14.0763 22.2907 14.179 22.3502 14.2817C22.4098 14.4049 22.4032 14.5077 22.3304 14.6446C22.2643 14.7815 22.2444 15.247 22.2775 16.2944C22.3039 17.0954 22.3304 17.8143 22.337 17.8827C22.3436 17.9512 22.4627 18.2798 22.595 18.6152C22.7339 18.9439 22.9058 19.3409 22.9654 19.4846C23.0976 19.8132 23.2895 19.9844 23.6929 20.1487C23.8583 20.224 24.0038 20.3199 24.0038 20.3678C24.0038 20.5252 24.3742 20.5595 24.5131 20.4225C24.5858 20.3541 24.7909 20.2857 24.9496 20.2788C25.115 20.2583 25.2737 20.2241 25.3068 20.1898C25.3398 20.1556 25.4258 20.1282 25.4986 20.1282C25.6904 20.1213 25.9087 19.7722 26.0145 19.293C26.0674 19.067 26.2261 18.6426 26.365 18.3688C26.6164 17.869 26.6627 17.6636 26.8413 16.6778C26.8809 16.4176 27 16.0959 27.0926 15.959C27.2183 15.7947 27.2447 15.6852 27.1918 15.5756C27.0331 15.2881 27.3241 13.9874 27.8268 12.6798C27.8863 12.536 27.8929 12.358 27.8532 12.2485C27.8003 12.1047 27.8202 12.0225 27.9194 11.9541C27.9855 11.8925 28.0517 11.783 28.0517 11.6871C28.0715 11.0847 28.217 10.3111 28.3493 10.1673C28.4419 10.0646 28.5213 9.79762 28.5609 9.4827C28.594 9.20886 28.6469 8.95559 28.6866 8.92821C28.7263 8.90767 28.7792 8.68858 28.8123 8.45581C28.8454 8.19566 28.9446 7.92181 29.057 7.79174C29.1562 7.66167 29.2687 7.45632 29.3017 7.3194C29.3877 6.96342 29.5994 7.01816 29.5994 7.39468C29.5994 7.58637 29.6324 7.68223 29.6854 7.64799C29.7515 7.60693 29.7581 7.73697 29.7184 8.03135C29.6854 8.31888 29.692 8.51743 29.7581 8.59273C29.811 8.65434 29.8309 8.7639 29.811 8.82552C29.778 8.92821 29.6854 11.824 29.6854 12.7414C29.692 12.8783 29.7383 13.0495 29.7846 13.1111C29.8507 13.2001 29.8507 13.3165 29.7846 13.5492C29.7317 13.7204 29.692 14.0079 29.692 14.1722C29.692 14.3365 29.6721 14.6103 29.6523 14.7746C29.6324 14.9389 29.5795 15.4798 29.5531 15.9864C29.5266 16.4861 29.4671 16.9379 29.4274 16.9859C29.3282 17.1091 29.3083 17.7868 29.3943 18.4714C29.4472 18.8685 29.5002 19.0397 29.6126 19.1013C29.7052 19.1424 29.7713 19.2382 29.7713 19.3067C29.7713 19.4025 29.7184 19.4093 29.5729 19.3477C29.3877 19.2793 29.3745 19.293 29.315 19.6353C29.1959 20.3062 29.2157 23.3321 29.3414 23.7155C29.4009 23.9072 29.4671 24.5644 29.4935 25.1874C29.52 25.8035 29.5597 26.3717 29.5928 26.4402C29.6192 26.5086 29.6457 26.7482 29.6523 26.9742C29.6589 27.1932 29.7118 27.4808 29.7515 27.6245C29.8044 27.7546 29.8904 28.0558 29.9433 28.2954C30.0028 28.5282 30.102 28.8157 30.1682 28.9253C30.2409 29.0553 30.2608 29.1649 30.2013 29.2607C30.1483 29.3634 30.1682 29.5003 30.2872 29.7331C30.3732 29.9042 30.446 30.1233 30.446 30.1986C30.446 30.2739 30.5187 30.4314 30.6113 30.5546C30.7039 30.6778 30.7767 30.8558 30.7767 30.9516C30.7767 31.0475 30.8362 31.205 30.9156 31.2871C31.0346 31.424 31.0346 31.4788 30.942 31.6842C30.7502 32.0812 30.7502 32.4646 30.942 32.581C31.1537 32.7179 31.1603 32.8411 30.9685 32.7658C30.8759 32.7384 30.9354 32.8412 31.1008 33.026C31.3455 33.293 31.4513 33.3477 31.7358 33.3477C31.9209 33.3477 32.1458 33.293 32.2384 33.2382C32.331 33.1766 32.5559 33.0739 32.7411 33.0123C33.0718 32.8891 33.3694 32.6905 33.7531 32.3277C33.8721 32.225 34.0375 32.136 34.1235 32.136C34.3219 32.136 34.7915 31.6705 34.7915 31.472C34.7915 31.3624 34.9833 31.2323 35.4198 31.0201C35.7638 30.8558 36.0482 30.6778 36.0482 30.6162C36.0482 30.5546 36.1143 30.4861 36.2069 30.4519C36.2929 30.4245 36.4252 30.3286 36.5046 30.2328C36.5906 30.137 36.7493 30.0617 36.8485 30.0617C36.9543 30.0617 37.166 29.9864 37.3181 29.8974C37.457 29.8015 37.6091 29.7399 37.6488 29.7673C37.748 29.8358 37.7348 30.4382 37.6157 30.5615C37.5628 30.6162 37.5099 30.8284 37.4967 31.027C37.457 31.5747 37.2983 32.3072 37.166 32.581C37.0998 32.7111 37.0469 32.8891 37.0469 32.9849C37.0469 33.0807 36.9411 33.2588 36.8154 33.4025C36.498 33.7311 36.3789 33.9639 36.3789 34.2925C36.3789 34.45 36.326 34.58 36.2532 34.6006C36.1871 34.6348 36.1276 34.6895 36.1276 34.7306C36.1276 34.7649 35.9953 34.9497 35.8365 35.1277C35.6778 35.3057 35.5455 35.5111 35.5455 35.5658C35.5455 35.6275 35.3339 35.8876 35.0891 36.1477C34.8378 36.4079 34.6328 36.6544 34.6328 36.7091C34.6328 36.7502 34.5732 36.7981 34.5071 36.7981C34.4409 36.7981 34.3814 36.8323 34.3814 36.8734C34.3814 36.9487 34.1235 37.2363 33.429 37.9072C33.2636 38.0715 33.1313 38.2358 33.1313 38.27C33.1313 38.3111 33.0784 38.3453 33.0123 38.3453C32.9461 38.3453 32.8205 38.4411 32.7279 38.5644C32.6353 38.6876 32.5361 38.7834 32.5096 38.7834C32.4104 38.7834 31.7887 39.4543 31.7887 39.5775C31.7887 39.6392 31.6167 39.7966 31.4117 39.9198C31.1603 40.0773 31.0346 40.2143 31.0346 40.3375C31.0346 40.5086 30.7502 40.8852 30.6775 40.7962C30.6378 40.762 30.2674 41.0632 29.8375 41.5013C29.6192 41.7204 29.4274 41.8231 28.9512 41.9668C28.7395 42.0353 28.508 42.1654 28.4287 42.2681C28.3295 42.3776 28.1839 42.4392 28.045 42.4255C27.9061 42.405 27.7606 42.4597 27.6614 42.5693C27.5754 42.6719 27.463 42.7541 27.3969 42.7541C27.3307 42.7541 27.1654 42.8773 27.0198 43.0142C26.8876 43.158 26.742 43.2539 26.7024 43.2333C26.6627 43.2059 26.5833 43.2402 26.5172 43.3018C26.4576 43.3634 26.3452 43.4387 26.2658 43.4729C26.1798 43.5003 26.1137 43.603 26.1137 43.692C26.1137 43.781 26.074 43.8905 26.0277 43.9316C25.9219 44.0412 26.0343 44.3971 26.2195 44.5546C26.3783 44.6915 27.5887 44.7189 27.7209 44.582C27.7739 44.5272 27.9326 44.4861 28.0715 44.4861C28.4419 44.4861 29.2157 44.2329 29.3216 44.0822C29.3877 43.9864 29.4605 43.9796 29.6192 44.048C29.8706 44.1439 29.9632 44.4382 29.8375 44.7531C29.7184 45.0612 29.6986 45.9512 29.8044 46.273C29.8639 46.4715 29.8639 46.5741 29.8044 46.6631C29.7515 46.7247 29.6854 46.9507 29.6523 47.1629C29.6126 47.4642 29.6457 47.6284 29.7713 47.8886C29.8706 48.0871 29.9235 48.313 29.897 48.4226C29.8639 48.5458 29.9301 48.8128 30.0624 49.114C30.3269 49.7096 30.3269 49.8397 30.0954 49.8397C29.9896 49.8465 29.4935 49.8739 28.9843 49.9081C28.0715 49.9629 27.0595 49.9698 25.148 49.9356C23.1439 49.8945 22.2576 49.9287 21.9798 50.0451C21.7351 50.1546 21.6822 50.1478 21.5036 50.0245C21.2258 49.8192 19.3474 49.7302 19.2085 49.9218C19.1225 50.0314 19.0895 50.0314 18.9506 49.8944C18.8315 49.7849 18.6198 49.7301 18.1635 49.7096C17.5219 49.6754 16.8803 49.5659 16.1329 49.3536C15.2731 49.114 14.9093 49.0524 14.3537 49.0524C13.7849 49.0456 12.4621 48.7854 12.3232 48.6485C12.2835 48.6074 12.2372 48.224 12.2372 47.7927C12.2372 47.3683 12.1975 46.7727 12.1512 46.4646C12.085 46.047 12.0917 45.8622 12.171 45.7116C12.257 45.5541 12.257 45.4856 12.1776 45.4103C12.052 45.2803 12.0454 44.938 12.1578 44.8695C12.2636 44.8011 12.2636 44.4793 12.1578 44.4793C12.1181 44.4793 12.052 44.3492 12.0057 44.1849C11.9131 43.8769 12.0057 43.3018 12.2041 42.9253C12.3033 42.7267 12.3562 42.7062 12.7994 42.7336C13.0639 42.7541 13.3219 42.802 13.3814 42.8568C13.4343 42.8979 13.8709 42.9184 14.3603 42.9115L15.2466 42.8773L15.498 42.4734C15.8683 41.871 15.8419 41.4876 15.4252 41.0905C14.8564 40.5634 14.7439 40.5086 14.0759 40.5018C13.732 40.4949 13.4145 40.447 13.355 40.406C13.2954 40.3649 13.2227 40.3443 13.1698 40.3717C13.0772 40.4333 12.5877 40.18 12.4422 40.002C12.3695 39.8993 12.343 39.8993 12.2835 39.9952C12.2306 40.0705 12.1644 39.961 12.0652 39.6392C11.9792 39.379 11.9065 39.1052 11.9065 39.0162C11.9065 38.9272 11.8535 38.7766 11.7874 38.6739C11.6551 38.4686 11.4898 37.38 11.4898 36.7639C11.4898 36.538 11.4369 36.3463 11.3641 36.2778C11.2913 36.2162 11.2649 36.0862 11.2913 35.9356C11.3244 35.8055 11.298 35.6754 11.2583 35.6411C11.2054 35.6069 11.1921 35.3741 11.2054 35.0592C11.2384 34.6621 11.212 34.4979 11.1194 34.3883C11.0532 34.313 10.9606 34.094 10.9209 33.9023C10.8813 33.7106 10.8151 33.4983 10.7821 33.4162C10.7556 33.3272 10.7622 33.2451 10.8085 33.2177C10.8614 33.1835 10.8614 33.0396 10.8085 32.8C10.7688 32.5947 10.7225 32.2661 10.7358 32.0539C10.7358 31.7527 10.7093 31.691 10.6035 31.7116C10.4976 31.7321 10.4447 31.6431 10.3918 31.3076C10.3587 31.068 10.286 30.8079 10.2397 30.7257C10.1868 30.6367 10.1537 30.4245 10.1537 30.2534C10.1537 30.0754 10.0942 29.8289 10.028 29.7125C9.80315 29.3086 9.79654 29.2744 9.90898 29.0554C10.0346 28.8021 9.94205 28.3502 9.61796 27.604C9.51213 27.3644 9.28725 26.7346 9.11528 26.2143C8.94331 25.6871 8.73166 25.1874 8.63906 25.0847C8.55307 24.9888 8.48032 24.8108 8.48032 24.6808C8.48032 24.5575 8.32819 24.0852 8.14961 23.647C7.95118 23.1747 7.83213 22.7776 7.8652 22.6886C7.89827 22.6133 7.8652 22.4832 7.79244 22.3942C7.7263 22.3189 7.62048 22.1272 7.54111 21.9903C7.47496 21.8465 7.29638 21.6001 7.15748 21.4563C7.01859 21.2989 6.89953 21.1003 6.89953 21.0182C6.89953 20.936 6.80693 20.7649 6.68788 20.6553C6.56882 20.5458 6.47622 20.4157 6.47622 20.361C6.47622 20.1761 5.82804 18.8822 5.65607 18.7316C5.56347 18.6426 5.3915 18.3482 5.26583 18.0812C5.14016 17.8074 4.91528 17.3213 4.75654 16.9996C4.5978 16.6778 4.47213 16.3355 4.47213 16.2397C4.47213 15.9316 4.12819 15.4045 3.32788 14.494C3.103 14.2338 2.84504 13.378 2.92441 13.1521C2.9641 13.0426 2.99056 13.0426 3.11622 13.1727C3.20221 13.248 3.28819 13.3096 3.31465 13.3096C3.33449 13.3096 3.53953 13.4807 3.76441 13.6998C4.28032 14.1995 4.85575 14.535 5.13355 14.5008C5.39811 14.4734 5.55024 14.5693 5.55024 14.7883C5.55024 14.8773 5.60977 14.9527 5.67591 14.9527C5.74205 14.9527 5.80158 15.0074 5.80158 15.0554C5.80158 15.117 5.94048 15.2881 6.11906 15.4455C6.28441 15.5893 6.62835 15.8974 6.87307 16.1096C7.1178 16.3287 7.34929 16.5066 7.38898 16.5066C7.44189 16.5066 7.47496 16.5477 7.47496 16.6093C7.47496 16.7189 7.70646 16.9927 8.55969 17.8553C8.85733 18.1565 9.14174 18.4099 9.19465 18.4099C9.23433 18.4099 9.36 18.5194 9.45922 18.67C9.57827 18.8275 9.72378 18.9301 9.83622 18.9301C9.95528 18.9301 10.1008 19.0328 10.2132 19.1903C10.3191 19.3272 10.458 19.4504 10.5241 19.4504C10.5836 19.4504 10.6895 19.5052 10.7556 19.5737C10.8548 19.6764 11.1723 19.7448 11.4501 19.7174C11.503 19.7106 11.5758 19.6216 11.6154 19.5257C11.6683 19.4231 11.8271 19.293 11.9726 19.2382C12.3761 19.1013 12.5877 18.6358 12.7729 17.4925C12.8986 16.6984 12.9052 16.4724 12.8258 16.1301C12.7597 15.8426 12.7531 15.6783 12.806 15.6098C12.8721 15.5345 12.8589 15.4524 12.7795 15.336C12.7134 15.247 12.6803 15.0758 12.7068 14.9458C12.7332 14.8225 12.7002 14.5761 12.6472 14.3844C12.5877 14.2064 12.515 13.8778 12.4819 13.6587C12.3827 13.0631 12.3298 12.8715 12.2372 12.7619C12.1975 12.7072 12.1313 12.4196 12.0983 12.1047C12.0718 11.7966 12.0255 11.5091 11.9991 11.4543C11.9726 11.4133 11.9395 11.3174 11.9263 11.2352C11.8866 10.9751 11.7411 10.2357 11.6485 9.81129C11.5427 9.31154 11.4964 8.88712 11.4369 7.8876C11.3972 7.18247 11.4765 6.79221 11.6551 6.85383C11.708 6.87437 11.7279 6.90863 11.7146 6.92917C11.6948 6.95656 11.7411 7.0387 11.8072 7.12084C11.8668 7.20985 11.9329 7.47682 11.9461 7.72327C11.9792 8.25042 12.1181 8.64747 12.3298 8.80492C12.4224 8.87338 12.4819 9.03087 12.4819 9.20886C12.4819 9.37317 12.5216 9.53062 12.5679 9.55116C12.6208 9.57854 12.6539 9.69492 12.6539 9.81129C12.6539 9.92768 12.7068 10.0509 12.7597 10.0851C12.8655 10.1604 13.1169 10.8108 13.2491 11.3653C13.2888 11.557 13.355 11.7898 13.4013 11.8856C13.4476 11.9815 13.5335 12.2896 13.6129 12.5771C13.9569 13.8641 14.1156 14.3365 14.3537 14.8636C14.4926 15.1717 14.6315 15.4456 14.6513 15.4661C14.6778 15.4935 14.7704 15.692 14.8432 15.9179C14.9424 16.1781 15.0945 16.3834 15.2797 16.5203C15.4384 16.623 15.5575 16.7599 15.5376 16.8147C15.5178 16.8695 15.6765 17.0475 15.8948 17.2187C16.2255 17.4856 16.338 17.5267 16.6025 17.4925C16.7745 17.4651 17.0258 17.3692 17.1515 17.2734C17.3367 17.1365 17.4095 17.1159 17.4624 17.2049C17.6343 17.4925 18.1039 17.6089 18.4082 17.4445C18.6728 17.3008 19.0432 16.5614 19.1424 15.9727C19.3143 14.8842 19.3143 14.7062 19.1424 14.5008L18.977 14.3159L19.149 14.2612C19.3342 14.2201 19.4665 13.8778 19.3739 13.7272C19.3408 13.6861 19.4003 13.4602 19.4995 13.2412C19.6384 12.9194 19.6583 12.8235 19.5723 12.7208C19.4797 12.6113 19.4863 12.4881 19.5723 12.091C19.6318 11.824 19.6715 11.3722 19.6649 11.0915C19.6583 10.8177 19.698 10.537 19.7509 10.4686C19.8104 10.4001 19.8236 10.2357 19.7906 10.0714C19.7178 9.70175 19.7178 9.6196 19.817 9.01031C19.8699 8.71593 19.9757 8.31207 20.0683 8.10669C20.2602 7.66855 20.2866 7.34675 20.1543 7.03868C20.0816 6.87437 20.0948 6.71692 20.2403 6.28562C20.3329 5.9844 20.4123 5.6695 20.4123 5.58051C20.4123 5.49151 20.5049 5.25187 20.6239 5.03964C20.7496 4.80003 20.8356 4.51254 20.8356 4.29347C20.8356 3.9101 21.411 2.54771 21.6028 2.4724C21.7946 2.3971 21.8079 2.41082 21.9203 2.67097ZM14.2809 58.226C14.4992 58.4177 15.6765 58.534 16.1065 58.4177C16.2917 58.3561 16.4239 58.3629 16.4769 58.4177C16.5298 58.4724 16.9134 58.5409 17.3433 58.582C17.7666 58.6162 18.3288 58.6778 18.5802 58.7052C18.8315 58.7326 19.1887 58.7668 19.3739 58.7805C19.5591 58.801 19.8765 58.8764 20.0816 58.9448C20.3329 59.0407 20.6835 59.0749 21.1068 59.068C21.5499 59.0475 21.7814 59.0749 21.8409 59.1434C21.9666 59.3077 22.3833 59.3761 22.5751 59.2734C22.6809 59.2118 22.7603 59.205 22.7934 59.2666C22.8198 59.3077 22.9323 59.3556 23.0381 59.3556C23.1439 59.3556 23.349 59.4172 23.4746 59.4857C23.6069 59.5541 23.8913 59.6157 24.1096 59.6157C24.4271 59.6157 24.5131 59.5815 24.5528 59.4446C24.5792 59.3487 24.6586 59.2734 24.7247 59.2734C24.7909 59.2734 24.9165 59.1981 25.0158 59.0954C25.1745 58.9311 25.2009 58.9311 25.3332 59.0543C25.4192 59.1296 25.525 59.1912 25.578 59.1912C25.6375 59.1912 25.6772 59.3008 25.6772 59.4514C25.6772 59.6911 25.697 59.7116 26.0013 59.7116C26.246 59.7116 26.3518 59.6568 26.4444 59.5199C26.5502 59.3556 26.5965 59.335 26.7024 59.4309C26.7685 59.4925 27.0132 59.5335 27.2249 59.5335C27.4498 59.5267 27.9326 59.513 28.303 59.5267C28.6734 59.5267 29.1959 59.4994 29.4737 59.4857C29.7515 59.4583 30.1087 59.4309 30.2674 59.424C30.4261 59.4172 30.5915 59.3556 30.6246 59.2939C30.7172 59.1502 30.8494 59.1639 30.8494 59.3213C30.8494 59.4446 30.8825 59.4309 31.1669 59.3213C31.3852 59.2255 31.5902 59.1981 31.8746 59.2324C32.0995 59.2666 32.2583 59.3213 32.2318 59.3419C32.2054 59.3693 32.2252 59.4309 32.2649 59.4857C32.3046 59.5404 32.3641 59.8896 32.3839 60.273C32.4104 60.6426 32.4831 61.1697 32.5691 61.4299C32.6551 61.69 32.7213 62.1556 32.7213 62.4637C32.7279 62.7717 32.7543 63.0661 32.794 63.1277C32.8271 63.1824 32.8271 63.2852 32.8006 63.3536C32.7742 63.4221 32.8271 63.6412 32.9197 63.8397C33.0454 64.093 33.0784 64.2984 33.0454 64.5448C33.0057 64.8118 33.0255 64.935 33.1181 65.0035C33.3298 65.161 33.4488 65.6949 33.3827 66.1673C33.3298 66.5712 33.3099 66.6055 33.0983 66.6055C32.9726 66.6055 32.7543 66.5644 32.6088 66.5096C32.417 66.4412 32.2847 66.4412 32.1194 66.5096C31.8746 66.6123 31.7953 66.6123 30.8957 66.5644C30.3269 66.5301 29.5597 66.5096 29.229 66.5301C29.1364 66.5301 28.938 66.5712 28.7858 66.626C28.5874 66.6876 28.4419 66.6876 28.2699 66.6055C28.0847 66.5302 27.9591 66.5301 27.7606 66.5986C27.5622 66.6671 27.4498 66.6602 27.2447 66.5575C27.0265 66.4343 26.6627 66.4138 25.0356 66.4206C23.6135 66.4206 23.0249 66.3864 22.8728 66.3111C22.7405 66.2426 22.4958 66.2152 22.1783 66.2426C21.788 66.2837 21.583 66.2495 21.2258 66.0989C20.9679 65.9962 20.7033 65.9346 20.6239 65.9619C20.5578 65.9893 20.4321 65.9824 20.3594 65.9345C20.1477 65.825 19.7575 65.914 19.7509 66.092C19.7443 66.1673 19.7178 66.1331 19.6847 66.0167C19.6318 65.8387 19.5789 65.7976 19.3143 65.7976C19.149 65.7976 18.9638 65.7429 18.9109 65.6881C18.8513 65.6333 18.7521 65.5854 18.686 65.5854C18.6198 65.5854 18.4677 65.5238 18.3553 65.4622C18.2296 65.3937 17.9187 65.2979 17.674 65.2431C17.0126 65.1199 16.6488 65.0172 16.338 64.8529C16.1858 64.7776 15.9874 64.716 15.9014 64.716C15.8088 64.716 15.531 64.6544 15.2929 64.5859C15.0482 64.5106 14.8167 64.4558 14.7836 64.4763C14.7439 64.4832 14.6117 64.4216 14.4728 64.3394C14.314 64.2299 14.1553 64.1957 13.9569 64.2299C13.7981 64.2573 13.646 64.2368 13.6261 64.1957C13.5931 64.1546 13.4608 64.1203 13.3153 64.1203C13.183 64.1203 12.8589 64.0587 12.6076 63.9834C12.343 63.9081 12.0321 63.8739 11.8734 63.8944C11.3575 63.9971 11.3376 63.9698 11.3509 62.7101C11.3575 61.6969 11.3839 61.5463 11.5361 61.3272C11.7014 61.0876 11.7345 60.8 11.6684 60.0128C11.6485 59.869 11.708 59.5268 11.7874 59.2461C11.8602 58.9722 11.9065 58.6641 11.88 58.582C11.8469 58.493 11.8734 58.3492 11.9131 58.2534C11.9991 58.1096 12.085 58.0891 13.0838 58.1165C13.8047 58.1028 14.1883 58.1438 14.2809 58.226ZM12.8721 68.7208C12.9581 68.7893 13.1301 68.8509 13.2491 68.8509C13.5402 68.8509 14.109 69.3712 14.1156 69.6382C14.1156 69.782 14.1685 69.8436 14.2809 69.8436C14.4066 69.8436 14.4463 69.9052 14.4463 70.0627C14.4463 70.1996 14.4992 70.2817 14.572 70.2817C15.0283 70.2817 14.7439 71.4935 14.1024 72.2397C13.7915 72.6025 13.5071 72.7052 12.8986 72.6915C12.2504 72.671 11.9065 72.582 11.5361 72.3287C11.1855 72.0891 11.1524 72.0001 11.1194 71.1717C11.0995 70.8431 11.0665 70.5556 11.0334 70.535C11.0069 70.5008 11.0135 70.405 11.0665 70.3091C11.1194 70.2133 11.126 70.0353 11.0995 69.8915C11.04 69.5972 11.1921 69.0563 11.3972 68.8372C11.6485 68.5908 12.6076 68.5155 12.8721 68.7208ZM29.2224 74.8206C29.7713 75.0808 30.2145 75.4231 30.3137 75.6764C30.3732 75.8133 30.4658 75.9365 30.5055 75.9365C30.5584 75.9365 30.6444 76.0666 30.7172 76.2309C30.8693 76.6006 30.9817 77.6617 30.8759 77.6617C30.7569 77.6617 30.5915 78.3121 30.6576 78.4832C30.6973 78.6133 30.6775 78.627 30.4923 78.579C30.2939 78.5243 30.2674 78.5448 30.2674 78.7639C30.2674 79.0651 30.0425 79.3048 29.7647 79.3048C29.6391 79.3048 29.4869 79.3663 29.434 79.4348C29.3811 79.5032 29.262 79.5649 29.1694 79.5649C29.0769 79.5649 28.8784 79.6265 28.7197 79.7018C28.3625 79.873 28.1509 79.8114 28.2302 79.5444C28.2567 79.4348 28.2567 79.3869 28.2104 79.4417C28.0847 79.6265 27.8929 79.6265 27.668 79.4417C27.5424 79.339 27.3109 79.1678 27.1521 79.0446C26.9603 78.9008 26.8677 78.7776 26.9008 78.6817C26.9272 78.6064 26.8743 78.4901 26.795 78.4216C26.6428 78.3121 26.4709 77.9355 26.2791 77.2988C26.1931 77.0318 26.1931 76.936 26.3055 76.7923C26.3981 76.6554 26.4047 76.5595 26.3386 76.4089C26.2195 76.1419 26.2989 75.8544 26.5635 75.5395C26.6825 75.4026 26.795 75.2108 26.8214 75.1081C26.9272 74.6426 28.4617 74.4578 29.2224 74.8206Z" fill="black"/>
</svg>
