<svg width="202" height="184" viewBox="0 0 202 184" fill="none" xmlns="http://www.w3.org/2000/svg">
<path d="M10.5509 127.5C7.93415 126.798 5.31036 127.957 2.6725 127.437C1.75804 127.254 1.71584 126.987 1.96907 126.243C3.78392 120.152 7.59651 115.425 12.1829 110.922C9.13702 109.032 6.97749 106.131 4.54362 103.511C2.62326 101.509 1.40633 99.022 0.287876 96.5915C-0.584377 94.744 0.618488 93.613 2.64436 93.5498C7.56837 93.3952 12.4924 93.7114 17.4164 92.8052C21.8304 91.8839 26.322 91.3829 30.8308 91.3089C32.0759 91.3089 32.9903 92.1519 34.158 92.2221C35.3116 95.2708 35.6422 98.4741 35.8744 101.691C35.7126 102.394 35.804 103.096 36.5778 103.391C37.7947 103.848 39.0539 104.178 40.2708 104.621C42.1138 105.323 42.0224 104.227 41.8113 102.991C41.6003 101.755 41.4104 100.476 41.2064 99.2117C41.9098 96.6336 41.4807 93.9853 41.6847 91.3792C42.2193 90.9507 42.0083 90.5222 41.6847 90.0866C41.8957 89.1242 42.8805 88.2602 42.0646 87.1644C42.6554 83.8066 43.19 80.4558 44.5758 77.2666C45.237 75.7352 46.4751 74.5059 46.7775 72.8129L47.481 72.4125C47.685 72.0402 48.9722 71.7101 47.5302 71.2605C48.3653 70.4683 49.0264 69.5114 49.4717 68.4506C51.0192 67.3688 50.6253 65.5775 50.9489 64.1094C51.4397 62.1486 51.3704 60.0898 50.7487 58.1664C50.127 56.2431 48.9779 54.5322 47.4317 53.2281C46.8338 51.8232 45.5676 50.9802 44.5547 49.9476C42.557 47.9175 42.4444 46.063 44.1608 43.8291C45.1385 42.5717 45.6943 40.9701 47.3895 40.3168C48.0085 40.092 47.5654 39.2912 47.8819 38.8486C49.12 38.9329 49.0496 37.7176 49.6124 37.1276C51.0614 35.6173 51.392 32.6739 54.5364 33.2851C57.3923 35.0693 60.2552 36.7974 63.0901 38.6449C63.6697 39.0177 64.3605 39.179 65.0456 39.1015C67.8101 38.7643 70.2158 40.0569 72.7833 40.6329C74.8074 41.139 76.9002 41.3146 78.9805 41.1527C81.7943 41.0754 84.3829 40.0639 87.0841 39.53C87.4428 39.4598 88.09 39.4317 88.1462 38.7713C89.7741 38.3712 91.3209 37.6939 92.7185 36.7693C92.9085 36.7061 93.1124 36.6499 93.3024 36.5656C97.319 34.69 101.125 32.0698 105.964 32.976C106.914 34.0718 107.272 35.7859 109.08 35.9755C111.05 37.3805 113.456 37.83 115.482 39.0804C116.595 39.8381 117.953 40.1514 119.287 39.9585C120.905 40.5205 122.502 41.1668 124.253 41.1668C125.963 41.8692 127.644 41.0965 129.283 40.8787C131.752 40.5416 134.151 39.2279 136.549 39.0734C138.744 38.9329 140.721 38.8416 142.535 37.5771C144.435 35.8421 146.861 34.9429 148.979 33.5309C150.259 32.6739 151.596 33.3202 152.44 34.7813C153.101 35.9123 153.952 36.9379 154.719 38.0057C154.677 38.1391 154.564 38.3428 154.606 38.385C156.714 40.3735 158.616 42.5692 160.283 44.939C161.169 46.8638 160.381 48.4514 159.157 49.8563C158.356 50.8046 157.103 51.3525 156.667 52.6662C156.112 52.7505 156.055 53.2562 155.858 53.6426C152.7 56.4946 151.87 60.0491 152.707 64.1023L153.024 65.3949C152.97 66.3987 153.263 67.3904 153.854 68.2047C155.612 71.134 157.23 74.1476 158.904 77.1261C159.228 77.6178 159.284 78.2781 159.847 78.6223C160.325 80.7298 160.726 82.8372 161.296 84.8884C161.816 86.764 160.719 88.78 161.894 90.5713C161.57 91.5478 162.091 92.475 162.084 93.4304C161.76 96.9427 162.787 100.455 161.683 103.967C161.38 104.958 162.077 105.274 162.85 105.035C165.087 104.333 167.402 103.883 169.371 102.534C169.371 101.129 169.864 99.7245 169.111 98.3898C169.146 96.8865 168.633 95.3411 169.505 93.908C170.581 91.5969 172.6 91.2527 174.844 91.3792C178.174 91.5893 181.489 91.9999 184.769 92.6085C188.849 93.3596 192.995 93.6985 197.143 93.62C198.374 93.62 199.387 94.6737 200.815 94.0556C201.356 93.8308 202.362 95.1233 201.553 95.8469C199.373 97.7927 198.866 100.806 196.854 102.808C195.187 104.466 194.041 106.609 191.93 107.887C190.798 108.59 190.763 109.376 191.677 110.564C194.346 114.101 196.758 117.824 198.894 121.705C200.181 123.988 197.874 127.135 194.674 127.402C190.65 127.739 186.69 126.882 182.75 126.313C181.041 126.06 179.233 126.039 177.559 125.456C176.223 125.006 176.068 125.898 175.927 127.114C175.73 128.842 176.891 130.317 176.42 131.989C175.743 133.525 174.595 134.806 173.142 135.649C171.411 136.351 169.505 136.492 167.781 137.321C165.938 138.167 163.959 138.683 161.936 138.845C160.972 138.943 160.403 139.934 159.305 140.18C156.977 140.802 154.683 141.545 152.433 142.406C149.162 142.94 145.806 143.186 142.655 144.12C140.896 144.633 139.018 144.331 137.386 145.223L127.116 145.975C126.947 145.877 126.772 145.687 126.617 145.701C123.472 145.947 121.039 148.701 117.655 148.223C117.149 148.153 116.952 148.806 117.493 149.256C115.988 149.256 114.771 150.176 113.378 150.548C111.338 150.689 109.573 151.588 107.751 152.389C105.739 153.274 103.755 154.44 101.42 154.011C99.5136 154.011 97.9028 152.782 96.0598 152.648C93.0773 150.541 89.3843 150.471 86.1063 149.206C86.7323 148.504 86.2681 148.082 85.6702 148.174C83.7357 148.469 82.153 147.408 80.3522 147.099C78.9454 145.624 77.018 145.617 75.2383 145.645C72.3793 145.667 69.5232 145.455 66.6987 145.013L62.8228 144.451C61.1978 143.594 59.3056 143.551 57.6174 143.348C53.9947 142.919 50.6253 141.62 47.0659 141.037C43.6965 139.133 39.9121 138.438 36.2683 137.335C34.355 136.112 31.9141 136.204 30.05 134.862C28.6994 133.317 27.1307 131.841 28.3195 129.488C28.8049 128.526 27.6935 127.156 29.1003 126.432C28.8843 126.048 28.5529 125.741 28.1529 125.554C27.7529 125.368 27.3044 125.311 26.8705 125.393C22.5866 126.481 18.162 126.657 13.8219 127.402L10.5509 127.5ZM79.9161 69.8626C80.1779 69.8403 80.4305 69.756 80.6532 69.6168C80.8758 69.4775 81.062 69.2872 81.1963 69.0618C88.3291 65.8234 93.6752 60.0702 100.013 55.7149C101.125 54.9492 102.18 54.2608 103.594 54.4785L96.6296 61.6929C97.1807 61.6156 97.7091 61.4222 98.1796 61.1255C98.6502 60.8288 99.0521 60.4355 99.3589 59.9718C100.125 58.9529 100.99 58.0118 101.94 57.162C102.848 56.2979 103.671 56.045 104.839 57.0004C107.019 58.7917 109.453 60.2809 111.437 62.297C112.661 63.5474 113.786 63.9899 115.123 62.5639C117.113 64.9804 120.047 66.0763 122.537 67.7973C122.361 68.001 122.206 68.2258 122.009 68.4155C121.158 69.2163 119.794 69.8977 119.59 70.832C119.421 71.6187 120.835 72.4758 121.615 73.2555C122.185 73.8385 122.565 74.6604 121.186 75.2224C118.837 76.1129 116.36 76.6204 113.85 76.7257C112.984 76.803 112.745 76.9505 112.83 77.8848C113.293 81.9749 113.492 86.0904 113.427 90.206L128.425 75.5174L130.035 76.6133C131.442 78.0182 132.849 79.3599 134.256 80.7087C134.566 80.9967 134.685 81.9591 135.424 81.1934C136.001 80.6033 135.304 79.5777 135.262 79.5637C133.018 79.093 132.167 76.6765 130.141 75.9319C130.225 75.1873 128.917 75.2294 129.227 74.3865C131.105 72.7582 132.792 70.9224 134.256 68.9142C135.403 68.3874 136.148 69.3076 137.07 69.6518C137.991 69.996 138.807 70.8741 140.186 70.3051C138.779 69.0407 136.838 69.1039 135.726 67.7762C136.563 66.3292 137.837 65.2544 138.983 64.0813C140.13 62.9081 140.446 62.023 140.158 60.4706C140.127 60.2684 140.161 60.0616 140.256 59.8805C141.705 57.2252 141.663 53.9517 143.921 51.5844C144.392 51.0623 144.75 50.4495 144.974 49.7838C145.197 49.118 145.282 48.4135 145.223 47.7138C136.465 52.2658 130.837 59.9788 124.19 66.4767C123.318 67.2143 122.678 66.5258 122.08 66.0552C120.11 64.4536 118.197 62.7817 116.255 61.1379L117.268 59.8875C117.479 59.8875 117.683 59.8875 117.887 59.8875C118.788 59.8875 119.857 61.2925 120.342 60.3793C120.828 59.466 118.9 59.5574 118.513 58.6793C120.539 56.7967 122.234 54.5558 125.027 53.0104C124.669 52.9289 124.308 52.8656 123.944 52.8207C118.802 52.8207 113.814 52.1182 109.123 49.8774C108.419 49.5472 108.032 49.9336 107.603 50.3269C104.888 48.9642 102.194 47.9737 99.373 50.1303C98.8353 50.4409 98.2579 50.6772 97.6566 50.8327L91.4453 53.2703C93.2883 53.6988 95.0258 52.8277 96.9743 53.3124C96.8054 53.4935 96.6219 53.6603 96.4256 53.8112C93.3024 55.6025 90.158 57.3727 87.0559 59.1991C86.5424 59.5012 85.3466 59.5644 85.7827 60.4214C86.2188 61.2784 86.9996 60.316 87.5765 60.1334C89.3421 59.5855 91.0936 58.883 92.8592 58.2157C92.7678 59.4871 91.7689 59.7611 91.1147 60.3231C87.696 63.1329 84.2422 65.9428 80.7954 68.7527L79.5785 69.5746L79.1423 70.1646C79.487 70.3894 79.7121 70.1717 79.888 69.8555L79.9161 69.8626ZM181.597 94.7159C179.439 94.0909 177.203 93.774 174.956 93.7746C174.049 93.7746 172.846 93.311 172.487 94.2663C171.974 95.5378 173.733 95.3832 174.19 96.156C174.288 96.3175 174.731 96.2262 174.949 96.3597C175.51 96.6814 175.994 97.1216 176.367 97.6494C176.74 98.1771 176.993 98.7798 177.109 99.4154C177.587 102.78 176.982 106.18 177.165 109.601C177.417 113.151 177.211 116.718 176.553 120.215C176.209 121.88 176.49 123.082 178.741 123.194C180.211 123.264 181.723 123.489 183.215 123.636C185.719 124.739 188.483 124.241 191.037 124.873C192.845 125.322 194.252 124.557 195.757 124.03C196.284 123.847 197.241 123.426 196.671 122.548C195.018 120.005 193.478 117.392 191.846 114.821C191.079 113.619 190.242 112.151 188.659 111.589C187.189 111.069 186.753 109.412 187.956 108.484C189.93 106.905 191.751 105.144 193.393 103.223C194.856 101.572 196.601 100.013 197.185 97.7154C197.431 96.725 197.34 95.5659 196.095 95.9663C194.097 96.5985 192.303 95.7836 190.425 95.6923C187.449 95.5659 184.516 95.0601 181.569 94.7089L181.597 94.7159ZM155.894 138.74C157.554 138.381 159.045 137.496 160.621 137.019C164.081 135.972 167.493 134.778 170.919 133.633C173.388 132.804 174.316 131.855 173.838 129.516C172.931 125.048 174.309 120.658 173.937 116.204C173.782 114.364 173.55 112.144 174.19 110.542C175.146 108.14 174.021 106.047 174.457 103.616C173.465 104.178 172.509 104.087 171.868 104.796C165.538 106.356 159.432 108.695 153.291 110.894L146.587 112.018C144.751 112.72 142.76 112.769 140.868 113.085C133.229 114.357 125.463 114.378 117.754 114.982C115.369 115.172 113.012 115.523 110.6 115.685C104.066 116.009 97.52 115.993 90.9881 115.635C87.0911 115.432 83.1378 114.87 79.2127 114.504C76.2583 114.23 73.2757 114.266 70.3213 113.999C65.341 113.542 60.4733 112.313 55.5493 111.54C52.1505 110.93 48.8039 110.059 45.5395 108.934C40.3974 107.297 35.2976 105.52 29.9445 103.722V107.522C29.3958 107.522 29.1496 106.679 28.5376 107.023C28.4055 107.141 28.3226 107.304 28.3055 107.48C29.1144 108.098 28.8542 109.798 30.4158 109.587C30.5424 110.683 29.9445 111.772 30.057 112.755C30.5938 118.032 30.8286 123.335 30.7604 128.638C29.1285 129.79 30.3032 130.443 31.2036 131.153C30.2891 133.26 32.2517 133.197 33.1943 133.548C36.3738 134.728 39.6448 135.656 42.8594 136.738C45.6732 137.679 48.2969 139.084 51.2021 139.709C53.4601 140.194 55.7392 140.594 58.0183 140.994C63.1885 141.887 68.2954 143.102 73.6063 143.186C76.9265 143.186 80.2467 143.537 83.5669 143.889C86.8871 144.24 90.2565 144.591 93.6541 144.591C96.6226 144.591 99.6121 144.387 102.552 144.591C107.833 145.07 113.152 144.93 118.401 144.177C125.224 143.116 132.139 143.636 138.92 142.287C142.437 141.585 145.954 140.931 149.471 140.18C149.791 140.311 150.141 140.351 150.482 140.297C150.823 140.242 151.143 140.095 151.406 139.871L152.369 139.723C152.784 139.821 153.199 139.906 153.453 139.421L153.98 139.358C154.324 139.469 154.694 139.469 155.037 139.358C155.381 139.247 155.68 139.03 155.894 138.74ZM27.6161 98.3828C28.3969 98.1369 28.404 97.315 28.8119 96.7882C29.5154 96.2613 30.4228 96.2121 31.1262 95.601C31.5905 95.1936 32.301 94.9618 32.097 94.2733C31.893 93.5849 31.0207 93.5709 30.4439 93.6341C28.01 93.8518 25.5621 94.0837 23.1493 94.4981C17.6265 95.499 12.0204 95.9695 6.40771 95.9031C4.13563 95.8539 3.26338 97.308 4.29742 99.4154C6.25999 103.272 9.53094 105.976 12.7386 108.66C14.3354 109.988 14.7996 111.083 13.442 112.608C10.5509 115.867 7.49803 119.07 5.40884 123.011C5.19078 123.419 4.54362 123.489 4.97272 124.276C5.07846 124.517 5.24712 124.726 5.46115 124.881C5.67517 125.035 5.92673 125.129 6.18965 125.154C7.92712 125.027 9.7068 125.294 11.3528 125.154C16.5371 124.676 21.6721 123.651 26.8283 122.955C27.8482 122.822 28.0171 122.47 27.9608 121.599C27.7216 117.75 27.6372 113.872 27.2574 110.058C27.1378 108.835 28.2633 107.95 27.9608 107.114C26.8845 104.192 27.6231 101.291 27.6161 98.3828ZM158.166 102.492C158.166 97.7927 159.214 93.2126 159.333 88.5271C158.081 89.1804 157.751 88.0986 157.997 87.1714C158.334 85.8578 156.731 84.8251 157.673 83.5537C155.809 81.4954 156.09 78.5381 154.353 76.2621C152.777 74.2038 151.764 71.6187 150.224 69.4411C149.69 68.8224 149.39 68.0375 149.373 67.2213C149.429 65.992 148.789 64.9312 148.761 63.6247C148.712 61.5173 149.724 59.4099 148.824 57.3024C150.744 54.5769 152.426 51.6335 154.641 49.1749C157.118 46.4282 157.336 46.5055 154.958 43.8361C154.62 43.4568 153.938 43.2882 154.255 42.5436C154.302 42.4518 154.325 42.3493 154.321 42.246C154.317 42.1428 154.286 42.0423 154.231 41.9546C154.177 41.8668 154.1 41.7946 154.009 41.7452C153.919 41.6958 153.816 41.6707 153.713 41.6725C152.046 41.4899 151.539 40.2676 151.019 38.947C150.498 37.6263 149.056 37.4507 147.832 38.0548C146.172 38.8767 145.019 40.7102 142.831 40.5064C141.797 40.4081 140.453 39.537 140.348 41.5882C140.348 41.7147 139.961 41.9395 139.933 41.9184C138.125 40.394 136.5 42.2345 135.079 42.6209C132.816 43.3186 130.502 43.8377 128.157 44.1733C124.781 44.5105 121.411 44.9882 118.309 43.0775C117.064 44.1874 116.705 42.1994 115.446 42.3329C112.415 42.6419 110.107 40.2255 107.28 39.4387C106.35 39.2706 105.512 38.7714 104.923 38.0338C103.678 36.3197 101.469 36.1863 99.8372 37.6263C99.0456 38.2419 98.1922 38.7739 97.2908 39.2139C95.7925 40.0709 93.9777 39.9866 92.613 40.8296C88.8919 43.0985 84.6783 43.506 80.6547 44.5597C79.0439 44.9741 77.7003 44.1171 76.1879 44.1944C73.9088 44.3068 71.7141 43.6535 69.5546 42.9581C67.8664 42.4101 66.1711 41.8763 64.4829 41.3424C64.0473 41.1201 63.6369 40.8516 63.2589 40.5416C63.1604 40.1763 62.9775 39.8391 62.5555 40.0779C59.7769 41.5461 58.0324 39.2771 56.0276 38.1953C54.3253 37.3172 53.4601 37.4226 52.7567 39.1788C52.3747 40.1964 51.6513 41.0504 50.7097 41.5953C48.8738 42.5647 48.508 44.658 47.1152 45.9646C46.7002 46.351 47.1785 46.9551 47.4458 47.4328C48.2969 48.9712 49.8586 49.8563 50.7378 51.5563C51.5609 53.1368 53.1717 54.5628 54.0158 56.2909C54.262 56.7896 55.2398 56.9934 54.7826 57.9276C53.9103 59.8173 54.9584 61.8053 54.8248 63.8003C54.7923 65.8973 54.2336 67.9527 53.1998 69.7783C51.0027 73.1031 49.0762 76.5985 47.4388 80.231C46.9393 81.4463 46.1304 82.8512 46.1374 83.8909C46.1374 85.7102 45.7224 87.4805 45.7224 89.2999C45.7224 93.2126 45.1808 97.1254 45.3777 101.059C45.4199 101.958 45.5254 102.422 46.6791 102.626C48.3864 103.025 50.05 103.592 51.6453 104.319C51.9829 104.452 52.0111 105.021 52.6934 104.705C53.3757 104.389 53.1717 103.932 53.1225 103.539C52.7356 100.364 52.3065 97.2167 52.6371 93.9923C53.0592 89.8899 53.6641 85.8859 55.2187 82.0012C56.9984 77.5546 59.1931 73.2485 60.0513 68.4647C60.7047 64.6112 60.3261 60.6536 58.9539 56.9934C57.7847 53.9221 56.2294 51.0116 54.3253 48.3319C53.3898 46.927 53.8892 45.9506 54.7966 44.8196C55.7041 43.6886 56.8084 42.9862 58.145 43.4147C61.6853 44.4198 65.1463 45.6854 68.4994 47.201C71.5229 48.6886 74.8861 49.3526 78.249 49.1257C83.7287 48.8096 89.2858 48.4233 94.4279 46.2105C96.5382 45.2973 99.0846 45.2762 100.759 43.2039C101.223 42.6209 102.749 42.6349 103.263 43.2039C104.571 44.6089 106.217 45.0163 107.899 45.6415C113.456 47.6997 119.076 49.3154 125.076 49.1538C127.137 49.0976 129.198 49.0695 131.266 48.9361C133.454 48.7885 134.861 47.0815 136.95 46.6671C139.637 46.1332 142.578 46.1824 144.829 43.9204C146.01 42.7333 147.825 43.1758 148.908 44.3911C149.788 45.3886 150.695 46.5898 149.668 48.2476C147.298 52.0761 144.892 55.9748 144.224 60.4987C143.696 63.3733 143.761 66.3253 144.414 69.1742C145.3 72.532 147.41 75.3559 148.571 78.5942C149.457 81.0669 150.843 83.4483 151.23 85.9912C152.172 92.3134 152.953 98.6357 152.341 105.014C151.968 106.187 151.842 107.438 151.195 108.526C151.764 108.934 152.081 108.47 152.461 108.414C157.181 107.669 157.174 107.662 157.933 103.124C157.99 102.907 158.067 102.695 158.166 102.492ZM118.865 73.691C116.924 71.2816 115.074 68.7738 113.048 66.4978C110.712 63.8495 107.624 62.0441 105.007 59.733C103.319 58.2438 102.25 58.8268 101.603 60.0772C99.8513 63.449 96.3764 64.9945 94.0199 67.699C92.1065 69.8907 89.954 71.8716 87.8508 74.0212C90.2917 74.0212 92.409 74.0212 94.5263 74.0212C96.8899 74.0212 97.4174 74.3935 97.2556 76.6835C96.9532 80.793 97.9591 84.8392 97.6918 88.9416C97.6355 90.0375 97.9942 90.466 99.3237 90.6697C102.447 91.1474 105.437 89.6651 108.574 90.3325C108.968 90.4168 111.275 90.9507 111.155 88.492C110.987 84.79 111.113 81.081 110.579 77.393C110.389 76.0654 110.853 75.2084 112.393 74.7588C114.49 74.1125 116.769 75.0257 118.879 73.6981L118.865 73.691ZM137.548 89.068C136.038 87.8578 134.412 86.799 132.694 85.9069C130.999 84.9094 129.48 83.6028 127.855 82.4789C126.546 81.5657 125.745 81.8256 125.041 83.3921C123.824 86.0685 122.987 88.9135 121.433 91.4354C121.102 91.9692 120.729 92.7139 121.01 93.1634C121.418 93.7605 122.333 93.5217 122.931 93.311C124.598 92.742 125.372 93.3531 125.695 94.9758C126.202 97.4766 128.017 99.3943 128.854 101.755C129.015 102.211 129.332 102.633 129.93 102.422C131.97 101.719 134.151 101.804 136.261 101.424C137.344 101.235 137.457 100.785 137.119 99.872C136.472 98.1088 135.811 96.3597 135.325 94.5262C134.312 90.9296 134.235 90.9717 137.548 89.0751V89.068ZM71.482 89.1594C72.3191 89.5387 73.0858 89.8618 73.7963 90.2271C74.5067 90.5924 75.2031 91.3019 74.7318 92.2291C73.5079 94.6527 73.2335 97.3993 72.0307 99.8228C71.5101 100.877 71.904 101.291 72.9873 101.467C74.9991 101.79 77.0742 101.691 79.0298 102.373C79.7332 102.626 80.0849 102.26 80.2608 101.67C80.9009 99.5629 82.6384 98.0315 83.0745 95.882C83.5106 93.7324 84.3477 92.475 86.8238 93.3461C87.4498 93.5638 88.5964 93.6622 88.0196 92.3345C86.6127 89.0821 85.1144 85.8718 83.6513 82.6405C83.2152 81.6711 82.6102 81.7835 81.745 82.1698C79.3393 83.2305 77.7777 85.4855 75.3368 86.497C73.8853 87.1191 72.5743 88.027 71.482 89.1664V89.1594ZM67.1981 88.78C63.892 91.7725 60.6773 94.6737 57.4837 97.596C56.928 98.1018 56.7803 101.537 57.2375 101.593C59.2986 101.832 61.0079 102.998 62.9564 103.56C64.9049 104.122 66.6565 103.096 68.5346 103.679C69.7938 104.073 71.2147 103.939 72.4738 104.473C73.1772 104.782 73.3883 104.319 73.6204 103.707C73.1157 103.703 72.613 103.642 72.1221 103.525C69.1114 102.373 69.0903 102.738 69.8993 99.7526C70.462 97.6873 71.271 95.6853 71.904 93.6411C72.4386 91.9271 71.8267 90.8734 70.0962 91.1474C68.0774 91.4775 67.592 90.4589 67.1981 88.7871V88.78ZM84.3407 73.7332L67.7538 88.197C67.8802 88.3276 68.0502 88.4076 68.2316 88.4218C68.4129 88.4361 68.5933 88.3836 68.7386 88.2743C73.339 85.8648 77.2571 82.4016 81.8294 79.9149C83.8272 78.8261 84.1789 78.6294 85.1356 80.7227C86.3595 83.4062 87.5694 86.0966 88.8004 88.8152C91.3257 86.9958 92.7185 84.2561 94.9906 82.3454C95.1889 82.2095 95.3352 82.0105 95.4055 81.7808C95.4757 81.5511 95.4659 81.3044 95.3775 81.081C94.9765 79.8868 95.1805 78.6294 95.1805 77.4001C95.1805 76.6203 95.3916 76.1426 93.9847 76.1637C92.1488 76.1637 90.2706 76.4447 88.4557 76.1637C86.8871 75.9811 84.6643 76.6835 84.3407 73.7402V73.7332ZM111.599 92.1378C110.818 92.3275 110.241 91.5899 109.404 91.8568C106.238 92.8684 102.932 92.7701 99.6895 92.5593C97.1361 92.4048 95.0891 92.749 93.4571 94.9266C92.3249 96.2274 91.1201 97.4633 89.8485 98.6286C87.4076 101.2 84.9878 103.799 82.357 106.602H85.2411C84.2211 105.695 84.1578 105.091 85.3114 104.305C88.5542 102.092 91.7689 99.8088 94.8851 97.4063C96.1864 96.4018 96.7773 96.7882 97.4034 98.0105C98.3319 99.8088 99.3026 101.586 100.358 103.567C103.924 99.4013 107.849 95.9312 111.599 92.1449V92.1378ZM98.5359 107.445C100.168 107.733 100.47 107.255 99.6825 105.864C98.6695 104.087 97.727 102.253 96.8688 100.399C96.1653 98.9026 95.2368 98.6567 94.055 99.6964C92.3502 101.185 90.54 102.549 88.6386 103.778C87.6538 104.48 87.3584 105.042 88.8004 105.506C89.947 105.878 90.2987 106.567 89.7289 107.712C89.4687 108.252 89.4687 108.92 89.2365 109.482C88.4909 111.238 89.4546 111.673 90.9389 111.94C95.2509 112.699 95.2931 112.748 96.714 108.688C97.0728 107.705 97.4948 107.178 98.5359 107.452V107.445ZM114.658 113.69C115.629 113.69 116.593 113.69 117.557 113.69C118.759 113.647 119.329 113.064 118.844 111.877C118.14 110.233 118.731 109.404 120.434 109.173C121.214 109.067 121.679 108.667 120.968 107.971C118.823 105.864 116.628 103.848 114.455 101.79C113.667 101.045 112.984 101.305 112.443 102.078C110.923 104.255 109.432 106.447 107.948 108.653C107.195 109.777 107.758 110.1 108.862 110.058C110.079 109.981 111.12 110.121 111.071 111.723C111.015 113.535 111.985 114.048 113.624 113.76C113.967 113.708 114.312 113.685 114.658 113.69ZM72.5723 74.2249L72.108 73.6981L62.6047 81.65L63.0619 82.1628C66.4433 79.7799 69.624 77.1251 72.5723 74.2249ZM74.4294 65.5635C74.3801 64.9242 73.951 65.1279 73.7259 65.2544C71.1608 66.5516 68.605 67.8769 66.0585 69.2304C65.9611 69.3169 65.8873 69.4268 65.8442 69.5497C65.8011 69.6726 65.7902 69.8045 65.8123 69.9328C66.0234 70.3403 66.354 70.1646 66.6635 69.9328C68.9873 68.5313 71.4168 67.3124 73.9299 66.287C74.1972 66.1676 74.5208 65.9639 74.4294 65.5635Z" fill="black"/>
<path d="M46.7837 72.8194C46.4812 74.5124 45.2431 75.7417 44.5819 77.2731C43.1751 80.4623 42.6616 83.8131 42.0707 87.1709C36.2322 85.9767 30.4008 84.7614 24.7874 82.7032C22.0159 81.6846 19.2163 80.7854 16.3463 80.0408C15.0582 79.5873 13.8656 78.8989 12.8291 78.0107C11.6966 77.1677 12.0624 76.1351 13.5325 75.6715C15.903 74.9541 18.353 74.5318 20.8271 74.4141C28.7899 73.9574 36.7176 73.1918 44.6452 72.3066C45.3909 72.2645 46.2068 72.1029 46.7837 72.8194Z" fill="#AECDE9"/>
<path d="M105.972 32.9819C101.161 32.0758 97.3551 34.696 93.3104 36.5715C93.1205 36.6558 92.9165 36.712 92.7266 36.7753C92.9376 32.3005 94.0349 27.9663 95.2167 23.6953C96.9129 17.1455 98.1238 10.4797 98.8394 3.75225C99.0152 2.34731 100.134 1.74319 100.507 0.605191C100.626 0.232883 101.104 0.296106 101.351 0.605191C101.857 1.30766 102.99 1.26551 103.039 2.48078C103.144 4.88322 103.447 7.27161 103.644 9.66703C103.96 13.6149 104.291 17.5768 104.713 21.5036C104.994 24.1519 104.797 26.9056 105.698 29.4836C106.127 30.6568 105.888 31.8229 105.972 32.9819Z" fill="#AECDE9"/>
<path d="M66.6979 144.97C69.5224 145.412 72.3785 145.624 75.2375 145.602C77.0172 145.602 78.9305 145.602 80.3514 147.056C78.7687 150.091 76.2645 152.367 73.7673 154.565C68.6253 159.11 63.3355 163.494 58.0668 167.912C56.4911 169.233 54.7888 170.399 53.1428 171.649C52.6715 172.015 52.2002 172.303 51.6515 171.881C51.1028 171.46 51.4264 170.905 51.6515 170.406C53.4171 166.514 56.0198 163.122 58.2497 159.504C60.9298 155.134 63.5535 150.73 66.1844 146.325C66.4013 145.892 66.5733 145.438 66.6979 144.97Z" fill="#AECDE9"/>
<path d="M158.932 77.0828C157.258 74.1044 155.64 71.0908 153.881 68.1615C153.291 67.3471 152.998 66.3554 153.051 65.3516C157.651 64.5719 162.266 63.8553 166.852 62.9913C168.403 62.6965 169.974 62.5204 171.551 62.4645C176.306 62.3099 181.034 61.8955 185.775 61.5302C186.394 61.481 187.357 61.1368 187.59 61.9868C187.822 62.8368 187.013 63.2301 186.288 63.5744C180.093 66.3942 174.089 69.6161 168.315 73.2192C166.537 74.277 164.554 74.9472 162.498 75.1862C161.117 75.3614 159.848 76.0362 158.932 77.0828Z" fill="#AECDE9"/>
<path d="M137.436 145.18C139.068 144.288 140.953 144.59 142.704 144.077C145.856 143.143 149.211 142.897 152.482 142.363C157.744 148.861 163.596 154.902 168.014 162.067C168.665 162.959 169.37 163.81 170.124 164.617C170.455 165.031 171.003 165.495 170.504 166.022C170.004 166.549 169.505 166.254 169.005 165.931C165.038 163.374 160.818 161.259 157.047 158.316C154.276 156.131 151.075 154.459 148.05 152.591C145.026 150.722 141.544 149.43 138.667 147.189C138.318 146.973 138.025 146.68 137.812 146.331C137.598 145.982 137.469 145.587 137.436 145.18Z" fill="#AECDE9"/>
<path d="M161.92 90.5279C160.745 88.7366 161.843 86.7205 161.322 84.8449C160.752 82.7797 160.351 80.6301 159.873 78.5789C162.328 79.0636 164.797 78.8037 167.252 78.6281C171.251 78.4091 175.259 78.3974 179.26 78.593C182.777 78.7124 186.294 79.3657 189.853 79.3446C190.539 79.3349 191.223 79.4176 191.886 79.5905C192.223 79.6879 192.519 79.892 192.73 80.172C192.94 80.452 193.054 80.7927 193.054 81.1429C193.096 81.8032 192.54 81.9859 192.027 82.2598C189.213 83.7842 186.005 84.1284 182.974 84.9152C177.206 86.4114 171.388 87.725 165.69 89.4601C164.445 89.8465 163.193 90.1696 161.92 90.5279Z" fill="#AECDE9"/>
<path d="M142.54 37.5827C140.725 38.8471 138.748 38.9384 136.554 39.0789C134.155 39.2335 131.756 40.5471 129.287 40.8843C127.648 41.102 125.967 41.8607 124.258 41.1723C130.68 33.3608 138.376 26.9333 146.374 20.8007C148.484 19.178 150.257 17.0987 152.55 15.6516C153.035 15.3496 153.45 14.9492 154.027 15.3355C154.604 15.7219 154.456 16.3611 154.217 16.9793C152.894 20.3511 150.538 23.0908 148.681 26.1114C146.824 29.132 144.946 32.3282 143.004 35.398C142.602 36.0511 142.438 36.8228 142.54 37.5827Z" fill="#AECDE9"/>
<path d="M101.42 153.968C103.791 154.397 105.774 153.23 107.751 152.345C109.587 151.545 111.352 150.645 113.378 150.505C111.971 157.944 110.466 165.376 108.321 172.661C107.427 175.681 107.709 178.934 106.611 181.926C106.281 182.825 106.119 183.851 104.747 183.682C103.376 183.514 103.073 182.502 103.087 181.456C103.186 176.714 102.264 172.043 102.109 167.301C101.997 162.861 101.378 158.408 101.42 153.968Z" fill="#AECDE9"/>
<path d="M117.542 149.212C117.014 148.763 117.197 148.109 117.704 148.18C121.087 148.657 123.521 145.904 126.666 145.658C126.82 145.658 126.996 145.833 127.165 145.932C127.721 150.146 129.458 154.066 130.731 158.098C132.377 163.32 134.115 168.511 135.944 173.672C136.647 175.66 137.822 177.472 138.054 179.65C138.096 180.114 138.441 180.605 137.906 180.95C137.238 181.385 136.851 180.795 136.556 180.388C133.51 176.103 129.922 172.204 127.587 167.399C125.579 163.101 123.268 158.951 120.672 154.979C119.528 153.113 118.483 151.188 117.542 149.212Z" fill="#AECDE9"/>
<path d="M88.1819 38.7763C88.1256 39.4366 87.4785 39.4788 87.1197 39.535C84.4186 40.0688 81.8089 41.0804 79.0162 41.1577C76.2447 32.728 73.6209 24.2352 70.4836 15.911C69.4644 13.5143 68.6135 11.0497 67.9372 8.53505C67.7895 7.87473 67.3815 6.88425 68.3311 6.54004C69.0979 6.25905 69.4144 7.15821 69.8717 7.65696C75.2599 13.5366 78.6645 20.6667 82.3927 27.5719C83.9191 30.3818 85.7059 33.0512 87.2042 35.8892C87.7134 36.7796 88.0455 37.76 88.1819 38.7763Z" fill="#AECDE9"/>
<path d="M47.5028 53.1993C49.0489 54.5034 50.198 56.2142 50.8197 58.1375C51.4414 60.0609 51.5108 62.1198 51.0199 64.0805C50.6964 65.5486 51.0903 67.3399 49.5427 68.4217C49.5575 68.1474 49.4914 67.8747 49.3527 67.6375C49.2139 67.4003 49.0085 67.2089 48.7619 67.087C42.7499 63.1345 36.6113 59.388 30.3461 55.8476C28.0952 54.5761 25.9708 53.0377 23.8465 51.5766C23.34 51.2253 22.4888 50.7266 22.9672 49.9468C23.4455 49.1671 24.163 49.6588 24.8313 49.8485C28.5347 50.8159 32.2931 51.5595 36.0861 52.0753C39.8635 52.6232 43.6832 52.9253 47.5028 53.1993Z" fill="#AECDE9"/>
<path d="M119.293 39.9644C117.959 40.1573 116.601 39.844 115.487 39.0863C113.461 37.8359 111.056 37.3583 109.086 35.9814C111.386 34.2604 112.716 31.7666 114.235 29.4274C117.478 24.5101 120.235 19.3048 123.71 14.521C125.18 12.4979 126.278 10.1727 127.818 8.16369C128.283 7.55254 128.775 6.56909 129.767 6.99057C130.942 7.48932 130.154 8.52897 129.95 9.15417C129.176 11.5636 128.276 13.938 127.305 16.2772C124.082 23.9759 121.405 31.8911 119.293 39.9644Z" fill="#AECDE9"/>
<path d="M152.736 64.0664C151.899 60.0132 152.736 56.4587 155.888 53.6067C156.121 53.5768 156.335 53.4593 156.485 53.278C156.635 53.0967 156.711 52.8651 156.696 52.6302C157.42 52.8721 158.207 52.8447 158.912 52.553C162.852 51.148 167.023 50.5228 171.018 49.3076C174.029 48.3873 177.061 47.5795 180.1 46.7787C180.838 46.589 181.809 46.1675 182.28 47.1861C182.674 48.0361 181.971 48.4857 181.415 49.0477C179.495 50.9865 177.103 52.2298 174.754 53.4311C168.113 56.8451 161.557 60.4557 154.72 63.4623C154.072 63.7046 153.409 63.9064 152.736 64.0664Z" fill="#AECDE9"/>
<path d="M86.1073 149.163C89.3853 150.427 93.0783 150.483 96.0608 152.605C93.4792 154.445 91.9458 157.143 90.4334 159.77C86.5786 166.401 82.3439 172.78 78.039 179.123C77.5817 179.825 77.1737 180.774 76.1678 180.247C75.3026 179.797 75.788 178.926 75.9779 178.217C77.2652 173.356 79.7624 168.958 81.331 164.209C82.963 159.215 84.5175 154.192 86.1073 149.163Z" fill="#AECDE9"/>
<path d="M47.0778 140.993C50.5949 141.576 53.9925 142.876 57.6292 143.304C59.2893 143.508 61.2097 143.55 62.8346 144.407C58.3749 146.704 53.5282 147.969 48.8926 149.781C44.3696 151.551 39.8676 153.406 35.3587 155.225C34.606 155.527 33.797 155.822 33.2484 155.288C32.5449 154.621 33.4664 154.038 33.797 153.525C34.7818 152.015 36.2239 150.926 37.5674 149.767C40.7962 146.943 44.243 144.288 47.0778 140.993Z" fill="#AECDE9"/>
<path d="M54.5761 33.2905C51.4599 32.6793 51.1293 35.6227 49.652 37.133C49.0893 37.7231 49.1596 38.9383 47.9216 38.854C45.9731 36.3884 43.9332 33.9929 42.0902 31.45C39.9306 28.4645 37.9892 25.3315 35.499 22.5849C35.2036 22.2547 34.88 21.7841 35.3302 21.2994C35.7804 20.8146 36.2306 21.1518 36.6386 21.3626C40.2005 23.1008 43.5918 25.168 46.768 27.5373C48.4984 28.893 50.4047 29.9538 52.1914 31.1971C53.0567 31.8012 54.2806 32.0331 54.5761 33.2905Z" fill="#AECDE9"/>
<path d="M160.289 44.9443C158.623 42.5745 156.721 40.3787 154.613 38.3902C154.571 38.3481 154.683 38.1444 154.725 38.0109C157.197 37.7383 159.57 36.8915 161.654 35.5382C163.849 34.2246 166.374 34.07 168.604 33.0234C169.469 32.6159 170.313 32.1383 171.207 31.794C171.422 31.6746 171.669 31.6253 171.914 31.653C172.158 31.6807 172.388 31.7841 172.571 31.9486C172.965 32.4052 172.628 32.8758 172.395 33.2763C171.101 35.5382 168.942 36.9642 167.078 38.6712C164.813 40.7505 162.358 42.6402 160.289 44.9443Z" fill="#AECDE9"/>
<path d="M169.398 102.491C167.428 103.839 165.114 104.324 162.877 104.992C162.103 105.23 161.407 104.914 161.709 103.924C162.792 100.411 161.786 96.8991 162.11 93.3867C164.59 93.028 167.118 93.1907 169.531 93.8644C168.659 95.2693 169.172 96.8429 169.137 98.3461C169.004 101.57 169.004 101.585 165.852 101.711C165.04 101.703 164.246 101.949 163.58 102.413C165.634 102.814 167.526 101.732 169.398 102.491Z" fill="#AECDE9"/>
<path d="M41.7056 91.3632C41.5016 93.9693 41.9307 96.6177 41.2273 99.1957C40.6082 99.1957 40.2987 99.6804 39.8204 99.9403C38.5753 100.643 37.6257 102.048 35.8882 101.675C35.6561 98.4581 35.3255 95.2549 34.1719 92.2061C36.6761 91.8198 39.1451 91.1735 41.7056 91.3632Z" fill="#AECDE9"/>
<path d="M30.0638 134.817C31.9279 136.159 34.3688 136.068 36.2821 137.29C34.1371 138.203 31.9466 139.005 29.7191 139.692C28.4012 140.056 27.0621 140.337 25.7095 140.535C25.0061 140.641 23.951 141.083 23.5078 140.065C23.135 139.215 23.8877 138.66 24.4645 138.189C26.1808 136.819 27.8831 135.414 30.0638 134.817Z" fill="#AECDE9"/>
<path d="M173.191 135.606C174.645 134.763 175.792 133.482 176.469 131.946C178.446 133.295 180.437 134.629 182.392 136.006C182.821 136.315 183.314 136.709 182.997 137.411C182.779 137.854 182.294 137.804 181.893 137.72C178.988 137.018 176.09 136.308 173.191 135.606Z" fill="#AECDE9"/>
<path d="M47.5707 71.3013C49.0128 71.7509 47.7255 72.081 47.5215 72.4533C47.5356 72.0038 47.5567 71.6455 47.5707 71.3013Z" fill="#AECDE9"/>
<path d="M41.6926 90.0923C42.0091 90.5278 42.2202 90.9563 41.6926 91.3848C41.6855 90.9704 41.6926 90.5278 41.6926 90.0923Z" fill="#AECDE9"/>
<path d="M30.8094 128.616C30.8776 123.313 30.6428 118.01 30.106 112.733C29.9934 111.75 30.5914 110.661 30.4647 109.565C33.1448 109.867 35.4872 111.293 38.0969 111.918C39.138 112.171 40.5097 111.827 41.1147 112.452C42.7185 114.11 44.878 114.054 46.7421 114.735C50.7535 116.172 54.9333 117.088 59.1787 117.461C62.4529 117.698 65.7106 118.125 68.9353 118.739C73.9929 119.8 79.0014 120.783 84.1786 120.727C85.7095 120.654 87.2434 120.673 88.772 120.783C91.8038 121.135 94.8496 121.402 97.9166 121.528C99.7596 121.598 101.645 121.043 103.467 121.212C107.354 121.624 111.275 121.601 115.158 121.142C117.352 120.773 119.568 120.538 121.791 120.439C125.363 120.369 128.929 120.119 132.476 119.688C137.013 119.217 141.508 118.233 145.982 117.32C148.17 116.871 150.371 116.049 152.446 115.634C154.522 115.22 156.561 114.798 158.63 114.405C162.351 113.702 165.769 111.813 169.645 111.637C171.172 111.567 171.889 111.946 171.58 113.576C170.599 119.051 168.716 124.325 166.009 129.185C164.7 131.475 162.857 132.262 160.62 132.767C157.047 133.575 153.396 134.053 149.851 134.875C145.883 135.802 141.839 136.006 137.892 136.849C133.935 137.57 129.932 138.011 125.913 138.169C119.582 138.605 113.209 139.019 106.843 139.251C101.265 139.455 95.6797 139.701 90.1015 139.631C87.5691 139.595 85.0087 140.045 82.4411 139.16C80.5658 138.614 78.605 138.421 76.6589 138.591C73.7327 138.745 70.9682 138.015 68.1052 137.938C63.8143 137.825 59.6219 136.533 55.3802 135.718C51.6731 135.015 47.9168 134.481 44.3223 133.372C39.75 131.96 35.3043 130.218 30.8094 128.616Z" fill="white"/>
<path d="M152.361 104.971C152.973 98.5715 152.192 92.2353 151.249 85.9482C150.862 83.4052 149.477 81.0309 148.59 78.5512C147.43 75.3128 145.319 72.4889 144.433 69.1311C143.78 66.2822 143.715 63.3303 144.243 60.4556C144.911 55.9036 147.317 52.026 149.688 48.2046C150.715 46.5467 149.807 45.3455 148.928 44.348C147.845 43.1327 146.03 42.6902 144.848 43.8773C142.604 46.1393 139.657 46.0901 136.97 46.624C134.859 47.0385 133.452 48.7314 131.286 48.893C129.218 49.0264 127.157 49.0545 125.096 49.1107C119.095 49.2864 113.475 47.7058 107.918 45.5984C106.216 44.9873 104.591 44.6079 103.282 43.203C102.769 42.6551 101.242 42.641 100.778 43.203C99.111 45.2753 96.5576 45.3104 94.4473 46.2095C89.2771 48.4083 83.72 48.8087 78.2684 49.1248C74.9055 49.3516 71.5423 48.6877 68.5189 47.2C65.1657 45.6844 61.7047 44.4189 58.1644 43.4137C56.8278 42.9922 55.7164 43.7228 54.816 44.8187C53.9156 45.9145 53.4092 46.9261 54.3447 48.331C56.2488 51.0107 57.8041 53.9211 58.9733 56.9924C60.3455 60.6527 60.7241 64.6102 60.0707 68.4637C59.2125 73.2475 57.0178 77.5537 55.2381 82.0003C53.6835 85.885 53.0786 89.889 52.6565 93.9914C52.3259 97.2087 52.755 100.363 53.1419 103.538C53.1911 103.931 53.3881 104.374 52.7128 104.704C52.0375 105.034 52.0094 104.451 51.6647 104.318C50.0621 103.594 48.3914 103.032 46.6774 102.639C45.5237 102.435 45.4182 101.936 45.376 101.072C45.1791 97.1385 45.7066 93.2257 45.7207 89.313C45.7207 87.4936 46.1498 85.7234 46.1357 83.904C46.1357 82.8643 46.9376 81.4594 47.4371 80.2441C49.067 76.6075 50.9865 73.1074 53.177 69.7774C54.2108 67.9518 54.7695 65.8964 54.802 63.7994C54.9356 61.8043 53.8875 59.8164 54.7598 57.9267C55.217 56.9573 54.2392 56.7887 53.993 56.29C53.1489 54.5619 51.5381 53.1359 50.715 51.5553C49.8358 49.8554 48.2741 48.9702 47.423 47.4318C47.1557 46.9542 46.6774 46.35 47.0924 45.9637C48.4992 44.6571 48.851 42.5637 50.6869 41.5943C51.6364 41.0532 52.3676 40.1988 52.755 39.1778C53.4584 37.4217 54.3447 37.3163 55.9908 38.2155C57.9955 39.2973 59.74 41.5662 62.5186 40.0981C62.9477 39.8733 63.1306 40.1964 63.222 40.5617C63.6001 40.8717 64.0104 41.1402 64.446 41.3625C66.1342 41.8964 67.8295 42.4303 69.5177 42.9782C71.6772 43.6807 73.8719 44.3269 76.1511 44.2145C77.6634 44.1373 79.007 44.9943 80.6178 44.5798C84.6766 43.5261 88.8902 43.1187 92.5761 40.8497C93.9408 40.0067 95.7556 40.091 97.2539 39.234C98.1553 38.794 99.0087 38.262 99.8004 37.6465C101.432 36.2064 103.641 36.3399 104.886 38.0539C105.475 38.7916 106.313 39.2908 107.243 39.4588C110.056 40.2105 112.378 42.6621 115.409 42.353C116.669 42.2195 117.027 44.2075 118.272 43.0976C121.389 45.0083 124.758 44.5025 128.12 44.1935C130.47 43.8516 132.789 43.3255 135.056 42.6199C136.463 42.2476 138.102 40.4072 139.91 41.9175C139.91 41.9175 140.318 41.7137 140.325 41.5873C140.43 39.5361 141.774 40.4072 142.808 40.5055C144.961 40.7092 146.149 38.8758 147.809 38.0539C149.033 37.4498 150.475 37.6254 150.996 38.946C151.517 40.2667 152.023 41.489 153.69 41.6716C153.794 41.6698 153.896 41.6948 153.987 41.7443C154.077 41.7937 154.154 41.8658 154.208 41.9536C154.263 42.0414 154.294 42.1418 154.298 42.2451C154.302 42.3483 154.279 42.4509 154.232 42.5427C153.915 43.2873 154.598 43.4559 154.935 43.8352C157.313 46.5046 157.095 46.4273 154.619 49.174C152.403 51.6326 150.722 54.5759 148.801 57.3015C149.702 59.4089 148.689 61.5163 148.738 63.6237C148.738 64.9303 149.441 65.9911 149.35 67.2204C149.367 68.0366 149.668 68.8215 150.201 69.4402C151.742 71.6178 152.755 74.2029 154.33 76.2611C156.068 78.5371 155.786 81.4945 157.65 83.5528C156.708 84.8242 158.312 85.8569 157.974 87.1705C157.728 88.0977 158.058 89.1795 159.311 88.5262C159.191 93.2117 158.108 97.7918 158.143 102.491C157.35 102.517 156.577 102.739 155.892 103.138C154.752 103.728 153.894 105.083 152.361 104.971Z" fill="#F5F5F5"/>
<path d="M30.8093 128.616C35.3042 130.218 39.7499 131.96 44.3081 133.372C47.9026 134.482 51.6589 135.03 55.366 135.718C59.5866 136.512 63.8072 137.826 68.0911 137.938C70.954 138.015 73.7185 138.746 76.6448 138.591C78.5908 138.421 80.5516 138.614 82.4269 139.16C84.9945 140.045 87.555 139.596 90.0873 139.631C95.6655 139.701 101.251 139.455 106.829 139.252C113.16 139.02 119.547 138.605 125.899 138.17C129.915 138.016 133.916 137.579 137.871 136.863C141.839 136.02 145.883 135.817 149.83 134.889C153.347 134.053 157.026 133.576 160.599 132.782C162.836 132.276 164.679 131.489 165.987 129.199C168.672 124.324 170.528 119.037 171.481 113.555C171.791 111.926 171.073 111.546 169.547 111.617C165.671 111.792 162.252 113.682 158.531 114.384C156.463 114.778 154.36 115.22 152.348 115.614C150.336 116.007 148.071 116.85 145.883 117.299C141.41 118.213 136.915 119.196 132.377 119.667C128.831 120.098 125.265 120.349 121.692 120.418C119.469 120.518 117.254 120.752 115.059 121.121C111.177 121.58 107.255 121.603 103.368 121.191C101.546 121.023 99.661 121.578 97.818 121.507C94.7792 121.381 91.7333 121.114 88.6734 120.763C87.1448 120.652 85.6109 120.633 84.08 120.706C78.9028 120.763 73.8943 119.779 68.8367 118.718C65.6236 118.106 62.3777 117.679 59.1153 117.44C54.8699 117.068 50.6901 116.152 46.6787 114.714C44.7864 114.012 42.6269 114.089 41.0512 112.431C40.4463 111.806 39.0746 112.15 38.0335 111.898C35.4238 111.272 33.1095 109.846 30.4013 109.544C28.8116 109.727 29.0718 108.027 28.291 107.437C28.3081 107.261 28.391 107.098 28.5231 106.98C29.1562 106.636 29.4024 107.507 29.93 107.479C31.2947 107.303 32.4764 107.971 33.7145 108.336C38.3993 109.741 43.1826 110.837 47.7127 112.621C50.7726 113.822 53.9381 114.244 57.0613 114.89C61.936 115.895 66.9093 116.379 71.8333 117.117C78.4211 118.036 85.0512 118.622 91.6981 118.873C97.4311 119.14 103.15 118.838 108.862 119.126C112.513 119.309 116.128 118.81 119.758 118.655C123.388 118.501 126.947 117.784 130.549 117.489C136.239 117.019 141.768 115.635 147.368 114.679C152.404 113.822 157.293 112.136 162.28 110.963C163.816 110.509 165.388 110.185 166.979 109.994C171.362 109.706 172.079 108.631 171.826 104.789C172.466 104.086 173.423 104.17 174.414 103.608C173.978 106.039 175.118 108.132 174.147 110.535C173.507 112.136 173.739 114.356 173.894 116.197C174.267 120.65 172.888 125.041 173.795 129.508C174.274 131.848 173.345 132.796 170.876 133.625C167.45 134.77 164.039 135.964 160.578 137.011C159.002 137.488 157.511 138.374 155.851 138.725C156.146 137.116 158.151 137.165 159.087 135.212C155.675 136.652 152.46 136.442 149.443 137.179C145.211 138.256 140.91 139.042 136.57 139.533C132.11 139.996 127.672 141.092 123.127 140.635C122.783 140.655 122.443 140.719 122.114 140.825C117.528 141.717 112.836 141.443 108.222 141.584C105.408 141.675 102.503 141.71 99.668 141.865C94.6455 142.132 89.6441 141.78 84.6427 141.703C80.8935 141.64 77.1653 140.853 73.3879 140.671C68.2975 140.441 63.2346 139.795 58.2501 138.739C54.6556 137.959 50.9063 137.727 47.4524 136.421C43.8649 135.065 39.567 135.486 36.7111 132.255C36.64 132.182 36.5521 132.128 36.4552 132.098C36.3583 132.067 36.2553 132.061 36.1554 132.079C34.2842 132.929 32.8774 131.482 31.2314 131.124C30.3521 130.422 29.1773 129.768 30.8093 128.616Z" fill="#AECDE9"/>
<path d="M118.879 73.697C116.769 75.0247 114.504 74.1325 112.408 74.7366C110.867 75.1862 110.403 76.0432 110.593 77.3709C111.128 81.0589 111.001 84.7679 111.17 88.4699C111.289 90.9285 108.982 90.3947 108.588 90.3104C105.451 89.6079 102.461 91.1252 99.3382 90.6475C98.0087 90.4438 97.6499 90.0153 97.7062 88.9195C97.9454 84.8171 97.0028 80.7708 97.2701 76.6614C97.4319 74.3714 96.9043 73.992 94.5408 73.999C92.4305 73.999 90.3202 73.999 87.8652 73.999C89.9755 71.8916 92.0858 69.8896 94.0343 67.6768C96.3697 64.9793 99.8868 63.455 101.603 60.0621C102.25 58.8117 103.32 58.2286 105.008 59.7179C107.625 62.029 110.713 63.8343 113.048 66.4826C115.074 68.8148 116.924 71.3016 118.879 73.697Z" fill="white"/>
<path d="M171.892 104.782C172.145 108.624 171.428 109.699 167.045 109.987C165.454 110.178 163.883 110.502 162.346 110.956C157.359 112.13 152.498 113.816 147.434 114.673C141.806 115.628 136.305 117.012 130.615 117.482C127.013 117.777 123.433 118.501 119.824 118.648C116.215 118.796 112.579 119.302 108.928 119.119C103.216 118.831 97.4972 119.119 91.7642 118.866C85.1172 118.615 78.4872 118.029 71.8994 117.11C66.9754 116.373 61.981 115.888 57.1274 114.883C54.0041 114.237 50.8387 113.816 47.7788 112.614C43.2487 110.83 38.4654 109.713 33.7805 108.329C32.5425 107.964 31.3607 107.297 29.9961 107.472V103.672C35.3492 105.47 40.4491 107.247 45.5911 108.884C48.8464 110.008 52.1835 110.879 55.5728 111.49C60.4968 112.263 65.3575 113.492 70.3448 113.949C73.2992 114.216 76.2817 114.181 79.2361 114.455C83.1613 114.82 87.1146 115.382 91.0116 115.586C97.5434 115.943 104.09 115.959 110.623 115.635C113.036 115.508 115.392 115.157 117.777 114.932C125.515 114.328 133.252 114.307 140.892 113.036C142.784 112.72 144.775 112.678 146.611 111.968C147.771 112.832 148.925 114.118 150.501 113.12C151.589 112.569 152.548 111.793 153.314 110.844C159.455 108.68 165.547 106.341 171.892 104.782Z" fill="#F7F8F9"/>
<path d="M27.6172 98.3815C27.6172 101.29 26.9138 104.191 27.9619 107.106C28.2644 107.914 27.1389 108.827 27.2584 110.049C27.6594 113.885 27.7438 117.777 27.9619 121.591C28.0182 122.462 27.8493 122.813 26.8294 122.947C21.6521 123.649 16.5171 124.668 11.3539 125.146C9.70085 125.293 7.9282 125.026 6.19073 125.146C5.92782 125.121 5.67626 125.027 5.46223 124.872C5.24821 124.718 5.07954 124.509 4.9738 124.267C4.54471 123.481 5.19186 123.41 5.40993 123.003C7.52022 119.062 10.5239 115.859 13.4712 112.578C14.8359 111.054 14.3716 109.958 12.7678 108.63C9.53906 105.947 6.26811 103.243 4.32664 99.386C3.27853 97.3348 4.15079 95.8737 6.43693 95.8737C12.0496 95.9401 17.6557 95.4696 23.1786 94.4687C25.5913 94.0543 28.0393 93.8225 30.4731 93.6047C31.0499 93.5485 31.88 93.5134 32.1262 94.2439C32.3724 94.9745 31.6197 95.1642 31.1555 95.5716C30.452 96.1828 29.5376 96.2319 28.8412 96.7588C28.0955 95.9228 27.1881 96.2811 26.351 96.4918C20.604 97.8968 14.7374 98.3674 8.85673 98.7959C8.34323 98.7959 7.65387 98.5711 7.38656 99.2315C7.30391 99.5358 7.3147 99.8579 7.41755 100.156C7.5204 100.454 7.71056 100.714 7.96338 100.903C10.3902 103.011 11.987 105.961 14.5264 107.984C17.0658 110.007 17.4034 110.239 15.3142 112.691C13.225 115.142 12.395 118.641 9.34913 120.369C8.75825 120.706 8.83563 121.31 8.97631 121.851C9.117 122.392 9.67974 122.35 10.1651 122.399C12.3176 122.617 14.4209 122.132 16.5382 121.928C19.9217 121.598 23.0027 119.919 26.3862 119.498C27.0896 119.413 27.1529 118.837 27.0896 118.24C27.0973 118.1 27.069 117.959 27.0073 117.833C26.9457 117.706 26.8528 117.597 26.7374 117.517C26.6219 117.436 26.4878 117.386 26.3476 117.371C26.2074 117.356 26.0657 117.377 25.936 117.432C25.0919 117.671 24.2267 117.685 23.3755 117.91C20.2312 118.76 17.0798 119.708 13.8159 119.884C13.4994 118.275 14.8992 117.439 15.1102 116.168C15.6236 115.841 16.0449 115.389 16.3342 114.854C17.0828 113.657 17.9577 112.543 18.9439 111.532C19.3167 111.18 20.4281 111.532 20.0764 110.436C19.8724 109.79 19.9076 109.129 19.1127 108.588C16.496 106.797 13.8652 104.964 12.0151 102.308C11.4805 101.536 11.2484 100.903 12.7186 100.805C17.7582 100.541 22.754 99.7279 27.6172 98.3815Z" fill="#F7F8F9"/>
<path d="M124.19 66.4762C130.837 59.9784 136.465 52.2653 145.208 47.7344C145.272 48.4387 145.189 49.1485 144.965 49.8194C144.741 50.4903 144.381 51.1077 143.907 51.6331C141.649 54.0004 141.691 57.2528 140.242 59.9292C140.147 60.1103 140.113 60.3172 140.144 60.5193C140.432 62.0718 140.144 62.9288 138.969 64.13C137.794 65.3312 136.549 66.3849 135.712 67.7898L130.085 65.1837C130.345 66.4481 131.154 66.4833 131.682 66.8556C132.575 67.4878 133.961 67.558 134.235 68.9278C132.771 70.936 131.084 72.7718 129.205 74.4001C128.6 74.5546 128.164 74.0559 127.623 73.9083C127.461 74.7232 128.157 75.0182 128.411 75.531L113.385 90.1424C113.45 86.0267 113.25 81.9112 112.787 77.8211C112.703 76.8868 112.942 76.7393 113.807 76.662C116.318 76.5568 118.795 76.0492 121.144 75.1587C122.551 74.5687 122.143 73.7538 121.573 73.1918C120.792 72.4121 119.379 71.5551 119.547 70.7683C119.751 69.834 121.116 69.1526 121.967 68.3518C122.164 68.1622 122.319 67.9374 122.495 67.7336C123.979 68.4361 125.126 69.7849 126.954 70.1993C126.399 68.4923 123.993 68.4923 124.19 66.4762ZM117.275 84.9441C117.733 83.0123 116.614 81.3124 116.572 79.4789C116.572 79.3454 116.15 79.1347 115.925 79.1347C115.594 79.1347 115.503 79.493 115.559 79.7388C115.939 81.5231 116.213 83.3565 117.275 84.9441Z" fill="#AACAE5"/>
<path d="M31.254 131.132C32.8789 131.49 34.2858 132.937 36.178 132.087C36.2779 132.069 36.3809 132.075 36.4778 132.106C36.5747 132.136 36.6626 132.19 36.7337 132.263C39.5896 135.494 43.8876 135.073 47.4751 136.428C50.9289 137.735 54.6782 137.967 58.2727 138.747C63.2871 139.81 68.3808 140.459 73.5019 140.685C77.2512 140.868 80.9794 141.655 84.7568 141.718C89.7582 141.795 94.7596 142.147 99.7821 141.88C102.596 141.725 105.515 141.69 108.336 141.599C112.95 141.458 117.642 141.732 122.229 140.84C122.557 140.733 122.897 140.67 123.241 140.65C127.786 141.107 132.224 140.011 136.684 139.547C141.024 139.057 145.325 138.271 149.557 137.194C152.574 136.457 155.789 136.667 159.201 135.227C158.265 137.159 156.26 137.11 155.965 138.74C155.205 138.55 154.46 138.374 154.115 139.379L153.587 139.442C153.396 139.389 153.194 139.388 153.003 139.442C152.812 139.495 152.64 139.6 152.504 139.744L151.54 139.892C150.837 139.892 150.183 139.674 149.606 140.201C146.089 140.987 142.572 141.606 139.055 142.308C132.273 143.657 125.359 143.137 118.536 144.198C113.287 144.952 107.968 145.091 102.687 144.612C99.7469 144.38 96.7573 144.612 93.7889 144.612C90.3913 144.577 87.0359 144.261 83.7017 143.91C80.3674 143.559 77.0613 143.207 73.7411 143.207C68.4302 143.158 63.3233 141.908 58.1531 141.016C55.874 140.615 53.5949 140.215 51.3369 139.73C48.4317 139.105 45.7939 137.7 42.9942 136.759C39.7795 135.67 36.5086 134.75 33.3291 133.569C32.3021 133.176 30.3395 133.204 31.254 131.132Z" fill="#F7F8F9"/>
<path d="M183.188 123.628C181.696 123.48 180.184 123.256 178.714 123.185C176.463 123.073 176.181 121.872 176.526 120.207C177.184 116.71 177.389 113.142 177.138 109.593C176.955 106.172 177.56 102.772 177.082 99.4068C176.966 98.7713 176.713 98.1686 176.34 97.6408C175.967 97.113 175.483 96.6729 174.922 96.3511C174.704 96.2176 174.261 96.309 174.163 96.1474C173.705 95.3747 171.947 95.5292 172.46 94.2578C172.84 93.3024 174.022 93.759 174.929 93.766C177.176 93.7655 179.412 94.0824 181.57 94.7073C181.928 95.4098 182.273 96.1895 182.653 96.9061C182.787 97.1449 182.653 97.4399 183.356 97.468C186.557 97.6015 189.744 98.0792 192.937 98.3602C194.154 98.4655 193.95 99.0626 193.507 99.7019C192.846 100.629 191.636 101.24 191.094 101.978C189.244 104.507 186.824 106.403 184.665 108.574C183.997 109.277 184.011 109.656 184.531 110.288C185.052 110.92 185.453 111.482 185.938 112.079C188.214 115.08 190.177 118.305 191.798 121.703C192.325 122.799 192.093 123.312 190.742 123.263C188.823 123.141 186.915 122.887 185.031 122.504C184.081 122.342 183.089 122.146 183.188 123.628ZM190.222 100.664L184.594 99.3296C183.645 99.1048 182.991 99.3788 183.3 100.432C183.75 101.992 183.525 103.565 183.638 105.125C183.638 105.539 183.328 106.172 184.011 106.319C184.219 106.344 184.431 106.306 184.618 106.21C184.805 106.113 184.959 105.963 185.059 105.778C186.325 103.797 188.182 102.385 190.229 100.664H190.222ZM183.596 112.957C183.596 114.166 183.631 115.065 183.596 115.929C183.532 117.081 183.019 118.366 183.385 119.336C183.898 120.685 185.699 119.406 186.663 120.291C187.141 120.727 187.598 120.481 187.936 120.151C188.107 119.974 188.205 119.739 188.212 119.494C188.218 119.248 188.132 119.009 187.971 118.823C186.571 116.962 185.811 114.7 183.596 112.957Z" fill="#AECDE9"/>
<path d="M124.19 66.4754C123.993 68.4774 126.399 68.5196 126.969 70.2055C125.14 69.791 123.993 68.4353 122.509 67.7398C120.019 66.0188 117.086 64.9299 115.095 62.5064C112.985 60.7783 110.966 58.9941 108.813 57.3503C107.224 56.135 105.817 54.5404 103.566 54.4491C102.159 54.2313 101.097 54.9198 99.9853 55.6854C93.6544 60.0618 88.3013 65.815 81.1685 69.0323L80.7676 68.7022C84.2144 65.8923 87.6682 63.0824 91.0869 60.2726C91.7411 59.7317 92.7399 59.4577 92.8314 58.1652C91.0306 58.8325 89.3142 59.535 87.5486 60.0829C86.9718 60.2655 86.1418 61.1507 85.7549 60.3709C85.368 59.5912 86.5146 59.4507 87.0281 59.1486C90.1302 57.3222 93.2745 55.552 96.3978 53.7607C96.5941 53.6098 96.7776 53.443 96.9465 53.2619C94.998 52.7772 93.2605 53.6483 91.4175 53.2198L97.678 50.726C98.2793 50.5705 98.8567 50.3342 99.3944 50.0236C102.208 47.867 104.909 48.8575 107.625 50.2202C109.58 51.8851 112.204 52.0818 114.708 53.2619C112.816 54.0136 111.261 52.6016 109.531 53.3673C112.345 55.552 115.489 56.992 118.535 58.5726C118.922 59.4507 120.849 59.3313 120.364 60.2726C119.878 61.2139 118.809 59.7808 117.909 59.7808C117.705 59.7808 117.501 59.7808 117.29 59.7808C116.086 59.0433 114.754 58.5359 113.365 58.2846C113.955 59.8932 115.475 60.097 116.277 61.0312C118.218 62.675 120.131 64.3469 122.101 65.9485C122.678 66.5245 123.318 67.213 124.19 66.4754Z" fill="#F5F5F5"/>
<path d="M137.549 89.0737C134.236 90.9422 134.313 90.9282 135.27 94.5318C135.755 96.3653 136.416 98.1144 137.063 99.8776C137.401 100.791 137.289 101.24 136.205 101.43C134.095 101.809 131.935 101.704 129.874 102.428C129.276 102.638 128.96 102.217 128.798 101.76C127.961 99.3999 126.146 97.4822 125.64 94.9814C125.316 93.3587 124.542 92.7476 122.875 93.3166C122.277 93.5273 121.363 93.7662 120.955 93.1691C120.645 92.7195 121.046 91.9749 121.377 91.441C122.932 88.9191 123.769 86.0741 124.986 83.3977C125.689 81.8312 126.526 81.5713 127.799 82.4845C129.424 83.6085 130.944 84.9151 132.639 85.9126C134.376 86.8015 136.021 87.8603 137.549 89.0737Z" fill="#F7F8F9"/>
<path d="M71.4805 89.1651C72.576 88.0383 73.8868 87.1425 75.3353 86.5308C77.7762 85.5192 79.3378 83.2643 81.7435 82.2036C82.6087 81.8172 83.2137 81.7048 83.6498 82.6743C85.1129 85.9056 86.6112 89.1159 88.0181 92.3683C88.5949 93.696 87.4483 93.5976 86.8223 93.3799C84.3462 92.5088 83.5091 93.7732 83.073 95.9158C82.6369 98.0583 80.8994 99.6248 80.2593 101.704C80.0834 102.266 79.7528 102.631 79.0283 102.407C77.0727 101.704 74.9976 101.824 72.9858 101.5C71.9025 101.325 71.5086 100.91 72.0291 99.8566C73.232 97.4331 73.5063 94.6864 74.7303 92.2629C75.2016 91.3357 74.5685 90.6824 73.7948 90.2609C73.021 89.8394 72.3176 89.5655 71.4805 89.1651Z" fill="#F7F8F9"/>
<path d="M15.1028 116.196C14.8918 117.468 13.492 118.304 13.8085 119.912C17.0724 119.737 20.2238 118.788 23.3681 117.938C24.2193 117.713 25.0845 117.699 25.9286 117.461C26.0583 117.406 26.2 117.384 26.3402 117.399C26.4804 117.414 26.6145 117.464 26.73 117.545C26.8454 117.626 26.9383 117.734 26.9999 117.861C27.0616 117.988 27.0899 118.128 27.0822 118.268C27.1244 118.866 27.0822 119.442 26.3788 119.526C22.9953 119.947 19.9143 121.633 16.5308 121.956C14.4205 122.16 12.3102 122.659 10.1577 122.427C9.69345 122.378 9.13071 122.504 8.96892 121.879C8.80713 121.254 8.75086 120.734 9.34174 120.397C12.3876 118.669 13.1965 115.199 15.3068 112.719C17.4171 110.239 17.1076 110.071 14.519 108.012C11.9304 105.954 10.3828 103.095 7.95598 100.932C7.70317 100.743 7.51301 100.482 7.41016 100.184C7.30731 99.8861 7.29651 99.564 7.37917 99.2597C7.64647 98.5993 8.33584 98.8592 8.84934 98.8241C14.73 98.3956 20.5966 97.939 26.3436 96.52C27.1807 96.3093 28.0881 95.951 28.8338 96.787C28.4258 97.3138 28.4187 98.1357 27.6379 98.3816C22.7702 99.729 17.7696 100.542 12.7252 100.805C11.248 100.875 11.4802 101.508 12.0218 102.308C13.8718 104.964 16.5027 106.797 19.1194 108.588C19.9143 109.129 19.8791 109.79 20.0831 110.436C20.4348 111.525 19.3234 111.181 18.9506 111.532C17.962 112.543 17.0847 113.657 16.3338 114.854C16.0396 115.394 15.6108 115.849 15.0888 116.175C15.0763 116.125 15.0549 116.077 15.0255 116.035C15.0255 116.035 14.9551 116.035 14.9199 116.035L15.1028 116.196Z" fill="#AECDE9"/>
<path d="M67.1978 88.7861C67.5917 90.458 68.0771 91.4766 70.0959 91.1534C71.8264 90.8795 72.4384 91.9332 71.9038 93.6472C71.2707 95.6914 70.4969 97.6934 69.899 99.7587C69.09 102.744 69.1111 102.379 72.1218 103.531C72.6127 103.648 73.1154 103.71 73.6201 103.714C73.388 104.325 73.191 104.788 72.4735 104.479C71.2144 103.945 69.7935 104.079 68.5343 103.685C66.6562 103.102 64.8413 104.1 62.9561 103.566C61.071 103.032 59.2983 101.838 57.2373 101.599C56.7449 101.543 56.9278 98.0868 57.4835 97.6021C60.677 94.6798 63.8917 91.7786 67.1978 88.7861Z" fill="#AACAE5"/>
<path d="M183.185 123.629C183.087 122.146 184.079 122.343 184.986 122.505C186.87 122.895 188.779 123.155 190.698 123.284C192.049 123.334 192.281 122.821 191.753 121.725C190.133 118.326 188.17 115.102 185.894 112.101C185.429 111.504 184.986 110.893 184.487 110.31C183.987 109.727 183.952 109.27 184.62 108.596C186.78 106.425 189.2 104.528 191.05 102C191.591 101.297 192.801 100.651 193.463 99.7236C193.906 99.0984 194.11 98.4872 192.893 98.3818C189.699 98.1008 186.513 97.6232 183.312 97.4897C182.609 97.4897 182.763 97.1666 182.609 96.9277C182.222 96.2253 181.905 95.4596 181.525 94.729C184.473 95.0802 187.406 95.586 190.36 95.7265C192.239 95.8178 194.032 96.6327 196.03 96.0005C197.275 95.6001 197.367 96.7591 197.12 97.7496C196.537 100.047 194.792 101.606 193.329 103.257C191.686 105.178 189.866 106.94 187.891 108.518C186.682 109.446 187.118 111.104 188.595 111.623C190.178 112.185 191.015 113.653 191.781 114.855C193.413 117.405 194.954 120.018 196.607 122.582C197.177 123.46 196.22 123.881 195.692 124.064C194.187 124.591 192.78 125.357 190.972 124.907C188.454 124.233 185.704 124.731 183.185 123.629Z" fill="#F5F5F5"/>
<path d="M84.3427 73.7397C84.6663 76.6831 86.8891 75.9806 88.4578 76.1914C90.2726 76.4442 92.1508 76.1914 93.9868 76.1914C95.3936 76.1914 95.1755 76.648 95.1826 77.4277C95.1826 78.657 94.9786 79.9144 95.3795 81.1086C95.4679 81.332 95.4778 81.5787 95.4075 81.8084C95.3372 82.0381 95.191 82.2372 94.9927 82.3731C92.7206 84.2838 91.3278 87.0234 88.8025 88.8428C87.5715 86.1242 86.3616 83.4338 85.1376 80.7504C84.1809 78.643 83.8292 78.8537 81.8315 79.9425C77.2592 82.4293 73.3411 85.8924 68.7407 88.3019C68.5953 88.4112 68.415 88.4637 68.2336 88.4495C68.0522 88.4352 67.8823 88.3553 67.7559 88.2246L84.3427 73.7397ZM93.3255 77.6244C91.8979 78.5 90.7621 79.7784 90.0616 81.2983C89.5974 82.1272 88.1131 83.2582 88.9502 83.7569C90.2304 84.5226 90.0124 82.5065 90.6877 81.8954C91.2456 81.2924 91.7671 80.6567 92.2493 79.9917C92.5883 79.6973 92.8598 79.3336 93.0455 78.9251C93.2313 78.5166 93.3267 78.073 93.3255 77.6244Z" fill="#AACAE5"/>
<path d="M111.597 92.1443C107.848 95.9306 103.923 99.4008 100.343 103.58C99.2874 101.6 98.3167 99.8223 97.3882 98.024C96.7621 96.8017 96.1712 96.4153 94.8699 97.4198C91.7537 99.8223 88.539 102.105 85.2962 104.318C84.1426 105.105 84.2059 105.723 85.2259 106.615H82.3418C84.9726 103.805 87.3924 101.213 89.8333 98.6421C91.1049 97.4768 92.3097 96.2409 93.4419 94.9401C95.0739 92.7625 97.1209 92.4183 99.6743 92.5728C102.917 92.7765 106.223 92.8749 109.389 91.8703C110.24 91.5964 110.817 92.334 111.597 92.1443Z" fill="#AACAE5"/>
<path d="M98.537 107.451C97.496 107.177 97.0669 107.704 96.7081 108.73C95.3013 112.79 95.245 112.741 90.933 111.982C89.4487 111.715 88.485 111.28 89.2307 109.523C89.4628 108.961 89.4628 108.294 89.7231 107.753C90.2929 106.608 89.9411 105.92 88.7946 105.547C87.3877 105.084 87.648 104.494 88.6328 103.819C90.5342 102.591 92.3443 101.227 94.0492 99.738C95.2309 98.6632 96.1594 98.9091 96.8629 100.44C97.7281 102.295 98.6707 104.128 99.6766 105.906C100.471 107.261 100.169 107.739 98.537 107.451Z" fill="#F5F5F5"/>
<path d="M114.66 113.687C114.316 113.659 113.97 113.659 113.626 113.687C111.987 113.975 111.016 113.462 111.073 111.65C111.122 110.048 110.081 109.908 108.864 109.985C107.759 110.055 107.197 109.732 107.949 108.58C109.434 106.375 110.925 104.183 112.444 102.005C112.986 101.232 113.668 100.973 114.456 101.717C116.63 103.775 118.824 105.813 120.97 107.899C121.673 108.601 121.216 108.995 120.435 109.1C118.733 109.332 118.17 110.161 118.845 111.805C119.331 112.992 118.761 113.575 117.558 113.617C116.595 113.617 115.631 113.617 114.66 113.617V113.687Z" fill="#F5F5F5"/>
<path d="M118.533 58.6566C115.487 57.0761 112.35 55.636 109.529 53.4513C111.26 52.6856 112.814 54.0976 114.707 53.346C112.202 52.1658 109.579 51.941 107.623 50.3043C108.052 49.9109 108.453 49.5245 109.142 49.8547C113.834 52.0675 118.822 52.8191 123.964 52.798C124.328 52.8429 124.689 52.9062 125.047 52.9877C122.254 54.5331 120.559 56.774 118.533 58.6566Z" fill="#AACAE5"/>
<path d="M103.566 54.4419C105.816 54.5051 107.223 56.1278 108.813 57.3431C110.966 58.9868 113.034 60.7711 115.095 62.4992C113.758 63.9041 112.633 63.4826 111.409 62.2322C109.425 60.2162 106.991 58.7199 104.811 56.9357C103.643 55.9803 102.82 56.2332 101.912 57.0972C100.962 57.947 100.097 58.8882 99.3309 59.9071C99.0241 60.3708 98.6221 60.764 98.1516 61.0607C97.681 61.3575 97.1527 61.5509 96.6016 61.6281L103.566 54.4419Z" fill="#AACAE5"/>
<path d="M152.361 104.971C153.895 105.084 154.718 103.728 155.914 103.138C156.599 102.739 157.372 102.517 158.165 102.492C158.078 102.672 158.007 102.861 157.954 103.054C157.194 107.592 157.201 107.599 152.481 108.343C152.101 108.399 151.778 108.863 151.215 108.456C151.862 107.395 151.989 106.145 152.361 104.971Z" fill="#AACAE5"/>
<path d="M35.8755 101.677C37.613 102.063 38.5626 100.651 39.8077 99.9415C40.272 99.6816 40.5815 99.1688 41.2146 99.1969C41.4185 100.461 41.6085 101.719 41.8195 102.976C42.0305 104.234 42.122 105.28 40.279 104.606C39.0621 104.163 37.8029 103.833 36.586 103.377C35.8333 103.082 35.7419 102.407 35.8755 101.677Z" fill="#F5F5F5"/>
<path d="M72.5735 74.2241C69.6319 77.1234 66.4582 79.7782 63.0842 82.162L62.627 81.6492L72.1092 73.6973L72.5735 74.2241Z" fill="#F5F5F5"/>
<path d="M134.25 68.9351C133.976 67.5301 132.59 67.5301 131.696 66.8628C131.169 66.4905 130.36 66.4554 130.1 65.1909L135.727 67.7971C136.838 69.1247 138.78 69.0615 140.187 70.326C138.78 70.895 137.992 70.0239 137.071 69.6727C136.149 69.3214 135.396 68.4082 134.25 68.9351Z" fill="#F5F5F5"/>
<path d="M74.4297 65.5621C74.5212 65.9625 74.1976 66.1662 73.9022 66.2646C71.3891 67.2899 68.9596 68.5089 66.6358 69.9104C66.3262 70.1211 65.9956 70.2967 65.7846 69.9104C65.7624 69.7821 65.7734 69.6502 65.8165 69.5273C65.8596 69.4044 65.9333 69.2944 66.0308 69.2079C68.5772 67.8592 71.133 66.5339 73.6982 65.232C73.9514 65.1266 74.3805 64.9229 74.4297 65.5621Z" fill="#F5F5F5"/>
<path d="M153.346 110.879C152.58 111.828 151.621 112.604 150.533 113.155C148.957 114.152 147.803 112.867 146.643 112.003L153.346 110.879Z" fill="#AECDE9"/>
<path d="M130.133 75.9517C132.159 76.6963 133.01 79.1128 135.254 79.5834C135.296 79.5834 135.992 80.6231 135.416 81.2131C134.712 81.9788 134.557 81.0164 134.248 80.7284C132.841 79.3797 131.434 78.0029 130.027 76.633C130.07 76.4083 130.133 76.2186 130.133 75.9517Z" fill="#F5F5F5"/>
<path d="M169.397 102.492C167.526 101.733 165.634 102.815 163.58 102.414C164.246 101.95 165.04 101.704 165.852 101.712C169.004 101.586 169.004 101.571 169.137 98.3472C169.89 99.6889 169.362 101.108 169.397 102.492Z" fill="#F5F5F5"/>
<path d="M116.277 61.1373C115.461 60.203 113.956 59.9993 113.365 58.3906C114.755 58.642 116.086 59.1493 117.29 59.8869L116.277 61.1373Z" fill="#AECDE9"/>
<path d="M130.133 75.9523C130.097 76.1841 130.069 76.4089 130.034 76.6547L128.423 75.5167C128.17 75.0039 127.474 74.7089 127.635 73.894C128.177 74.0416 128.613 74.5403 129.218 74.3858C128.909 75.2849 130.217 75.2077 130.133 75.9523Z" fill="#F5F5F5"/>
<path d="M154.049 139.356C154.394 138.351 155.139 138.527 155.899 138.717C155.692 138.999 155.405 139.211 155.074 139.325C154.743 139.44 154.386 139.45 154.049 139.356Z" fill="#AECDE9"/>
<path d="M79.5508 69.5455L80.7677 68.7236L81.1687 69.0538C81.0344 69.2793 80.8482 69.4695 80.6255 69.6088C80.4029 69.748 80.1502 69.8323 79.8884 69.8546L79.5508 69.5455Z" fill="#F5F5F5"/>
<path d="M149.535 140.178C150.112 139.651 150.801 139.848 151.47 139.869C151.207 140.093 150.887 140.24 150.546 140.295C150.205 140.35 149.855 140.309 149.535 140.178Z" fill="#AECDE9"/>
<path d="M79.8871 69.8545C79.7112 70.1706 79.5002 70.3884 79.1133 70.1355L79.5494 69.5454L79.8871 69.8545Z" fill="#F5F5F5"/>
<path d="M152.432 139.722C152.567 139.577 152.74 139.473 152.931 139.419C153.122 139.366 153.324 139.366 153.515 139.42C153.262 139.904 152.847 139.82 152.432 139.722Z" fill="#AECDE9"/>
<path d="M156.696 52.6299C156.71 52.8648 156.634 53.0963 156.484 53.2777C156.334 53.459 156.12 53.5765 155.887 53.6063C156.084 53.22 156.161 52.7142 156.696 52.6299Z" fill="white"/>
<path d="M117.277 84.9423C116.215 83.3547 115.94 81.5213 115.56 79.737C115.504 79.4912 115.596 79.1259 115.926 79.1329C116.151 79.1329 116.566 79.3437 116.573 79.4771C116.616 81.3106 117.734 83.0105 117.277 84.9423Z" fill="#F5F5F5"/>
<path d="M190.228 100.666C188.181 102.387 186.324 103.799 185.051 105.78C184.951 105.964 184.797 106.115 184.61 106.211C184.423 106.308 184.212 106.346 184.003 106.32C183.299 106.173 183.658 105.541 183.63 105.126C183.518 103.567 183.743 101.993 183.292 100.434C182.983 99.38 183.637 99.1061 184.587 99.3309L190.228 100.666Z" fill="#F7F8F9"/>
<path d="M183.595 112.957C185.817 114.699 186.577 116.982 187.963 118.823C188.124 119.008 188.21 119.248 188.204 119.493C188.197 119.739 188.099 119.973 187.928 120.15C187.59 120.48 187.133 120.726 186.654 120.291C185.691 119.406 183.89 120.684 183.376 119.335C183.011 118.366 183.524 117.081 183.587 115.928C183.595 115.05 183.595 114.151 183.595 112.957Z" fill="#F7F8F9"/>
<path d="M15.1038 116.197L14.9199 116.035C14.9553 116.035 15.0048 116.035 15.026 116.035C15.0556 116.078 15.0772 116.125 15.0897 116.176L15.1038 116.197Z" fill="#F7F8F9"/>
<path d="M93.3219 77.624C93.3231 78.0726 93.2276 78.5162 93.0419 78.9247C92.8562 79.3332 92.5846 79.697 92.2456 79.9913C91.7635 80.6564 91.242 81.2921 90.684 81.895C89.9806 82.5062 90.2268 84.5223 88.9465 83.7566C88.1095 83.2578 89.5937 82.1269 90.058 81.2979C90.7584 79.7781 91.8942 78.4996 93.3219 77.624Z" fill="#F5F5F5"/>
</svg>
