<svg width="111" height="24" viewBox="0 0 111 24" fill="none" xmlns="http://www.w3.org/2000/svg">
<path d="M27.2948 23.7949H30.1412L30.9143 21.7198H36.3436L37.1343 23.7949H39.9807L34.9731 11.1634H32.2497L27.2948 23.7949ZM31.7401 19.3017L33.6026 14.213H33.6377L35.5178 19.3017H31.7401Z" fill="black"/>
<path d="M43.1946 23.7949H45.7774V15.4401L51.1188 23.7949H54.0355V11.1634H51.4527V19.5363L46.0937 11.1634H43.1946V23.7949Z" fill="black"/>
<path d="M58.1631 23.7949H60.746V15.4401L66.0874 23.7949H69.0041V11.1634H66.4212V19.5363L61.0622 11.1634H58.1631V23.7949Z" fill="black"/>
<path d="M78.2622 23.9754C81.1613 23.9754 83.5685 21.9543 83.5685 18.6882V11.1634H80.9856V18.1649C80.9856 19.9333 80.0544 21.4491 78.2622 21.4491C76.4525 21.4491 75.5212 19.9333 75.5212 18.1649V11.1634H72.9384V18.6882C72.9384 21.9543 75.3455 23.9754 78.2622 23.9754Z" fill="black"/>
<path d="M86.2424 23.7949H89.0888L89.8619 21.7198H95.2912L96.0818 23.7949H98.9282L93.9207 11.1634H91.1973L86.2424 23.7949ZM90.6877 19.3017L92.5502 14.213H92.5853L94.4653 19.3017H90.6877Z" fill="black"/>
<path d="M102.142 23.7949H110.769V21.3408H104.725V11.1634H102.142V23.7949Z" fill="black"/>
<path d="M30.6574 6.67157C31.9242 6.67157 32.9395 5.95181 32.9395 4.7799C32.9395 3.48804 31.7535 3.25735 30.846 3.0082C30.0554 2.78674 29.2377 2.64833 29.2377 1.86398C29.2377 1.30109 29.7409 0.77512 30.5585 0.77512C31.2773 0.77512 31.7355 1.16268 31.9512 1.84552L32.7239 1.62406C32.4184 0.562884 31.6547 0 30.5495 0C29.3186 0 28.3662 0.793575 28.3662 1.85475C28.3662 3.13739 29.4624 3.43267 30.3968 3.69105C31.1965 3.90328 32.068 4.00478 32.068 4.79836C32.068 5.46275 31.475 5.87799 30.6663 5.87799C29.9116 5.87799 29.2557 5.49043 29.0401 4.74299L28.2225 4.97368C28.5279 6.07177 29.4983 6.67157 30.6574 6.67157Z" fill="black"/>
<path d="M35.6522 6.63465C36.4878 6.63465 36.9909 6.32092 37.3683 5.89645V6.57006H38.1769V2.00239H37.3683V2.68524C36.9909 2.24231 36.4878 1.9378 35.6522 1.9378C34.4392 1.9378 33.5138 2.96206 33.5138 4.29084C33.5138 5.60116 34.4392 6.63465 35.6522 6.63465ZM35.8409 5.90567C34.9783 5.90567 34.3134 5.19515 34.3134 4.29084C34.3134 3.37731 34.9783 2.66678 35.8409 2.66678C36.7034 2.66678 37.3683 3.37731 37.3683 4.29084C37.3683 5.19515 36.7034 5.90567 35.8409 5.90567Z" fill="black"/>
<path d="M41.1449 6.63465C41.9805 6.63465 42.4836 6.32092 42.861 5.89645V6.57006H43.6696V2.00239H42.861V2.68524C42.4836 2.24231 41.9805 1.9378 41.1449 1.9378C39.9319 1.9378 39.0065 2.96206 39.0065 4.29084C39.0065 5.60116 39.9319 6.63465 41.1449 6.63465ZM41.3336 5.90567C40.471 5.90567 39.8061 5.19515 39.8061 4.29084C39.8061 3.37731 40.471 2.66678 41.3336 2.66678C42.1961 2.66678 42.861 3.37731 42.861 4.29084C42.861 5.19515 42.1961 5.90567 41.3336 5.90567Z" fill="black"/>
<path d="M46.9161 6.67157C48.183 6.67157 49.1983 5.95181 49.1983 4.7799C49.1983 3.48804 48.0123 3.25735 47.1048 3.0082C46.3141 2.78674 45.4965 2.64833 45.4965 1.86398C45.4965 1.30109 45.9996 0.77512 46.8173 0.77512C47.5361 0.77512 47.9943 1.16268 48.2099 1.84552L48.9826 1.62406C48.6771 0.562884 47.9134 0 46.8083 0C45.5774 0 44.625 0.793575 44.625 1.85475C44.625 3.13739 45.7211 3.43267 46.6555 3.69105C47.4552 3.90328 48.3267 4.00478 48.3267 4.79836C48.3267 5.46275 47.7337 5.87799 46.9251 5.87799C46.1704 5.87799 45.5145 5.49043 45.2988 4.74299L44.4812 4.97368C44.7867 6.07177 45.7571 6.67157 46.9161 6.67157Z" fill="black"/>
<path d="M53.6548 3.26658C54.113 3.01743 54.4455 2.58373 54.4455 1.86398C54.4455 0.692071 53.574 0.110731 52.4868 0.110731H50.0878V6.57006H52.6126C53.6728 6.57006 54.6072 5.97949 54.6072 4.7799C54.6072 3.98633 54.1849 3.50649 53.6548 3.26658ZM50.9234 0.858168H52.4868C53.0708 0.858168 53.6279 1.12577 53.6279 1.91934C53.6279 2.70369 53.0888 2.97129 52.4868 2.97129H50.9234V0.858168ZM52.5946 5.82262H50.9234V3.65414H52.5946C53.1427 3.65414 53.7716 3.94942 53.7716 4.73377C53.7716 5.52734 53.1427 5.82262 52.5946 5.82262Z" fill="black"/>
<path d="M58.3857 6.66234C60.1737 6.66234 61.5574 5.17669 61.5574 3.3404C61.5574 1.5041 60.1737 0.018455 58.3857 0.018455C56.5887 0.018455 55.2051 1.5041 55.2051 3.3404C55.2051 5.17669 56.5887 6.66234 58.3857 6.66234ZM58.3857 5.8134C57.0559 5.8134 56.0496 4.71531 56.0496 3.3404C56.0496 1.96548 57.0559 0.867396 58.3857 0.867396C59.7065 0.867396 60.7128 1.96548 60.7128 3.3404C60.7128 4.71531 59.7065 5.8134 58.3857 5.8134Z" fill="black"/>
<path d="M65.4227 6.66234C67.2107 6.66234 68.5943 5.17669 68.5943 3.3404C68.5943 1.5041 67.2107 0.018455 65.4227 0.018455C63.6257 0.018455 62.242 1.5041 62.242 3.3404C62.242 5.17669 63.6257 6.66234 65.4227 6.66234ZM65.4227 5.8134C64.0929 5.8134 63.0866 4.71531 63.0866 3.3404C63.0866 1.96548 64.0929 0.867396 65.4227 0.867396C66.7435 0.867396 67.7498 1.96548 67.7498 3.3404C67.7498 4.71531 66.7435 5.8134 65.4227 5.8134Z" fill="black"/>
<path d="M69.5755 6.57006H70.4201V1.6056L72.5675 5.51811H73.2324L75.3797 1.59638V6.57006H76.2333V0.110731H75.254L72.9089 4.49385L70.5459 0.110731H69.5755V6.57006Z" fill="black"/>
<path d="M77.777 1.11654C78.0466 1.11654 78.2622 0.895079 78.2622 0.61825C78.2622 0.369104 78.0466 0.147642 77.777 0.147642C77.5164 0.147642 77.3008 0.369104 77.3008 0.61825C77.3008 0.895079 77.5164 1.11654 77.777 1.11654ZM77.3907 6.57006H78.1813V2.00239H77.3907V6.57006Z" fill="black"/>
<path d="M15.5828 23.7159C16.0244 23.9037 16.4976 24.0002 16.9756 24H19.2638C20.3504 24 21.3924 23.5566 22.1607 22.7675C22.929 21.9783 23.3606 20.9079 23.3606 19.7919V4.21634C23.3604 3.66349 23.2542 3.11609 23.048 2.60541C22.8418 2.09472 22.5397 1.63076 22.159 1.23999C21.7782 0.849232 21.3263 0.539328 20.8289 0.327977C20.3316 0.116626 19.7986 0.00796661 19.2603 0.00820244H4.09682C3.01028 0.00820244 1.96824 0.451559 1.19993 1.24074C0.431628 2.02992 0 3.10028 0 4.21634V19.7919C0.000463551 20.9072 0.431908 21.9768 1.19957 22.7657C1.96723 23.5545 3.00833 23.9981 4.0942 23.9991H6.37809C6.8563 23.9979 7.32958 23.8998 7.77083 23.7105C7.83867 23.6844 7.90501 23.6543 7.96955 23.6205C8.21825 23.4951 8.45132 23.3393 8.66373 23.1566C9.54875 22.4363 10.7866 20.8987 10.9494 17.882C11.0676 16.518 9.95143 15.3086 8.48778 15.3086H6.92083C5.30399 15.3086 3.97252 14.1405 3.77818 12.6344C3.77398 12.6149 3.77106 12.595 3.76943 12.5751C3.75892 12.5175 3.75892 12.4555 3.75892 12.3952C3.75192 12.3539 3.75192 12.3116 3.75192 12.2703V12.2586C3.75192 12.2055 3.7668 12.1597 3.77381 12.1093C3.78081 12.059 3.77381 12.0095 3.78081 11.9573C3.78781 11.9052 3.79657 11.8512 3.80532 11.8027C3.81407 11.7541 3.81845 11.7029 3.82983 11.6534C3.84121 11.604 3.85697 11.5518 3.8701 11.5042C3.88323 11.4565 3.88936 11.4106 3.90686 11.3612C3.92293 11.3158 3.9412 11.2689 3.95763 11.2268L3.96201 11.2155C3.97952 11.1706 3.9944 11.1283 4.01454 11.0806C4.03467 11.033 4.06093 10.9835 4.08194 10.9431C4.10295 10.9026 4.12134 10.8523 4.14672 10.8127C4.17211 10.7731 4.20275 10.7246 4.22901 10.6832C4.25527 10.6419 4.27628 10.6023 4.30517 10.56C4.33405 10.5178 4.36995 10.4773 4.39971 10.4386C4.42947 10.4 4.45311 10.3649 4.48725 10.3253C4.52139 10.2858 4.56253 10.2462 4.59492 10.2111C4.62731 10.1761 4.65795 10.1464 4.69209 10.1086C4.72623 10.0709 4.77875 10.0313 4.81377 10.0016C4.84878 9.97197 4.87505 9.94049 4.91706 9.91172C4.95908 9.88295 5.00986 9.84878 5.04662 9.8218C5.08339 9.79483 5.11578 9.76785 5.16042 9.73908C5.20507 9.71031 5.25847 9.68063 5.29961 9.65725C5.34075 9.63387 5.37052 9.61139 5.42216 9.58532C5.4738 9.55925 5.52722 9.53586 5.58061 9.51249C5.62 9.4945 5.65852 9.47382 5.69966 9.45674C5.75306 9.43336 5.81434 9.41537 5.87474 9.3938C5.91238 9.38121 5.94827 9.36682 5.98679 9.35423C6.04719 9.33715 6.10847 9.32366 6.16975 9.30837C6.21177 9.30028 6.25028 9.28769 6.29143 9.2787C6.36233 9.26521 6.43499 9.25622 6.50852 9.24633C6.54179 9.24273 6.5733 9.23284 6.60744 9.23284C6.66434 9.22475 6.7335 9.22745 6.78252 9.22475C6.83154 9.22205 6.87969 9.21666 6.93046 9.21666C7.02763 9.21666 7.12305 9.22385 7.21846 9.23104L7.292 9.23824C7.38391 9.24813 7.46707 9.26072 7.55461 9.2769H7.57562C8.03427 9.36355 8.46847 9.55368 8.84692 9.83357C9.22536 10.1135 9.53862 10.4761 9.7641 10.8954C9.35905 10.023 8.72167 9.2863 7.92578 8.77067C8.01942 8.49992 8.14402 8.24155 8.29694 8.00097C8.30745 7.98209 8.3197 7.96321 8.33196 7.94522C8.37573 7.87599 8.423 7.80945 8.47115 7.74471L8.52017 7.68176C8.57007 7.61792 8.61996 7.55408 8.67424 7.49474C8.68287 7.4862 8.69105 7.4772 8.69875 7.46776C8.80585 7.3519 8.91893 7.24204 9.03752 7.13866C9.06554 7.11528 9.09005 7.09011 9.11806 7.06763C9.16796 7.02716 9.23274 6.98221 9.27038 6.95163C9.30802 6.92106 9.34829 6.89499 9.39556 6.86172C9.44283 6.82845 9.4901 6.79608 9.54175 6.76461L9.69757 6.67469C9.74309 6.64861 9.78861 6.62344 9.83588 6.59826L9.84542 6.59352C9.92171 6.55561 9.99607 6.51867 10.0801 6.48586C10.1178 6.46968 10.1545 6.45349 10.1939 6.43821C10.2841 6.40404 10.3742 6.37077 10.4688 6.34199L10.5905 6.30872C10.6657 6.28804 10.7428 6.26826 10.8216 6.25208C10.8627 6.24308 10.9065 6.23409 10.9503 6.2269C11.0308 6.21251 11.1096 6.20082 11.1971 6.19093C11.2356 6.18644 11.2741 6.17655 11.3127 6.17655C11.4361 6.16666 11.5543 6.15856 11.6838 6.15856C11.8134 6.15856 11.9421 6.16576 12.069 6.17745C12.1066 6.18104 12.1522 6.18824 12.1942 6.19363C12.2782 6.20442 12.3614 6.21521 12.4445 6.2305C12.4927 6.23859 12.54 6.25118 12.5872 6.26287C12.6616 6.27815 12.7343 6.29614 12.8078 6.31682C12.856 6.3303 12.905 6.34649 12.9531 6.36268C13.0223 6.38426 13.0897 6.40943 13.1571 6.43461L13.1682 6.43895C13.2124 6.45628 13.2554 6.47314 13.3007 6.49306C13.3654 6.52123 13.4294 6.5512 13.4924 6.58297C13.5405 6.60455 13.5834 6.62883 13.6281 6.65221C13.6902 6.68638 13.7515 6.72234 13.8119 6.75921C13.8539 6.78529 13.8959 6.81046 13.9371 6.83744C13.9984 6.8779 14.057 6.92286 14.1165 6.96782C14.1533 6.9948 14.1901 7.02087 14.226 7.04964C14.2925 7.1036 14.3546 7.16114 14.4177 7.21779C14.4431 7.23937 14.4676 7.26095 14.4921 7.28433C14.5765 7.36518 14.6569 7.45042 14.7328 7.5397C14.7556 7.56667 14.7766 7.59544 14.7985 7.62242C14.8501 7.68536 14.9018 7.7501 14.9499 7.81754C14.9779 7.85621 15.0024 7.89577 15.0287 7.93533C15.0672 7.99558 15.1057 8.05312 15.1416 8.11517C15.1679 8.15833 15.1906 8.20419 15.2151 8.24825C15.2432 8.30759 15.2817 8.37953 15.3027 8.42808C15.3237 8.47664 15.3447 8.52519 15.364 8.57285C15.3894 8.63489 15.413 8.69693 15.4349 8.75988C15.4524 8.80843 15.4638 8.85069 15.483 8.91004C15.5023 8.96939 15.5172 9.02873 15.532 9.08987L15.5373 9.10516C15.5487 9.15731 15.5609 9.20857 15.5714 9.26072C15.7055 9.92174 15.6517 10.6084 15.4165 11.2389C15.7911 10.6358 16.0151 9.94705 16.0687 9.23374C16.2073 9.21771 16.3467 9.21021 16.4862 9.21126C18.2239 9.23914 19.6254 10.6365 19.6035 12.3017C19.5816 13.967 18.1722 15.3158 16.4346 15.3158H14.8694C13.4031 15.3158 12.287 16.5198 12.4051 17.8874C12.5662 20.9041 13.8075 22.4417 14.6899 23.1611C14.9021 23.3448 15.1356 23.5009 15.385 23.6259C15.4493 23.6595 15.5153 23.6896 15.5828 23.7159Z" fill="black"/>
</svg>
