<svg width="189" height="30" viewBox="0 0 189 30" fill="none" xmlns="http://www.w3.org/2000/svg">
<path d="M29.5702 5.43029V24.5707C29.5669 25.9393 29.0209 27.2508 28.052 28.2174C27.0831 29.184 25.7704 29.7268 24.4017 29.7268H21.5041C20.9011 29.7271 20.304 29.6092 19.7465 29.3796C19.6612 29.3457 19.5781 29.3067 19.4976 29.2628C19.1824 29.1102 18.8872 28.9193 18.6187 28.6944C17.5064 27.8094 15.9393 25.9289 15.7365 22.2139C15.5859 20.5361 16.9963 19.052 18.8431 19.052H20.8281C23.0221 19.052 24.8012 17.3988 24.8227 15.3646C24.8442 13.3304 23.0866 11.5974 20.8895 11.5636C20.7148 11.5628 20.5403 11.5741 20.3672 11.5974C20.3015 12.4721 20.0196 13.3168 19.5467 14.0556C19.7337 13.5595 19.8304 13.034 19.8325 12.5038C19.8305 12.2098 19.8007 11.9165 19.7434 11.6281L19.6973 11.4376C19.6986 11.4315 19.6986 11.4252 19.6973 11.4192C19.6789 11.3423 19.6604 11.2717 19.6358 11.1979C19.6113 11.1242 19.5959 11.075 19.5744 11.0105C19.5529 10.9459 19.516 10.8568 19.4853 10.7831C19.4545 10.7093 19.4361 10.6632 19.4085 10.6049L19.2886 10.3683C19.2579 10.3129 19.2272 10.2546 19.1964 10.2023C19.1657 10.1501 19.1012 10.0548 19.052 9.98416L18.9537 9.83667C18.8922 9.7537 18.8277 9.67688 18.7601 9.59699L18.6802 9.49559C18.5819 9.38496 18.4794 9.28254 18.3729 9.18831L18.2777 9.10534L18.0349 8.89947L17.8966 8.79806C17.8229 8.74275 17.7491 8.69052 17.6693 8.63828C17.5894 8.58604 17.5648 8.57375 17.5125 8.54302L17.2821 8.41089L17.11 8.32485L16.8703 8.21731C16.8089 8.18965 16.7505 8.16814 16.689 8.14663L16.434 8.05752L16.2496 8.00221C16.1585 7.97716 16.0662 7.95665 15.9731 7.94076C15.9147 7.92539 15.8532 7.91003 15.7949 7.90081L15.4876 7.85472C15.4323 7.85472 15.3831 7.83935 15.3278 7.83628C15.168 7.82092 15.0205 7.8117 14.8423 7.8117C14.6641 7.8117 14.535 7.8117 14.3752 7.83321L14.2277 7.85164C14.1233 7.85164 14.0188 7.8793 13.9205 7.89774C13.8656 7.90472 13.8112 7.91498 13.7576 7.92846C13.6593 7.9469 13.5609 7.97148 13.4503 7.99607C13.3397 8.02065 13.3489 8.02065 13.2967 8.03908C13.1788 8.07256 13.0629 8.11257 12.9495 8.15892C12.9003 8.17429 12.8542 8.1958 12.805 8.21423C12.7006 8.25725 12.5992 8.30334 12.4978 8.35251C12.3964 8.40167 12.381 8.41396 12.3257 8.44777L12.129 8.55839C12.0656 8.5941 12.0041 8.63307 11.9447 8.67515L11.7849 8.78885C11.7187 8.83221 11.6551 8.87941 11.5944 8.93019C11.5575 8.95785 11.5268 8.98858 11.4899 9.0193C11.3388 9.1461 11.1942 9.28045 11.0566 9.42184L11.0259 9.45564C10.9583 9.52939 10.8938 9.60621 10.8323 9.68303L10.7708 9.76292C10.7094 9.84281 10.651 9.9227 10.5926 10.0087C10.5926 10.0303 10.5619 10.0518 10.5496 10.0763C10.3563 10.3718 10.1995 10.6896 10.0825 11.0228C11.0859 11.6572 11.8892 12.5627 12.3994 13.6346C12.1154 13.1178 11.7198 12.6707 11.2415 12.3258C10.7631 11.9808 10.214 11.7467 9.63392 11.6404H9.60626C9.50179 11.622 9.39117 11.6066 9.28055 11.5943H9.18836C9.06853 11.5943 8.94869 11.5943 8.8227 11.5943H8.63834C8.56152 11.5943 8.48777 11.5943 8.41402 11.5943L8.29111 11.5974C8.19893 11.5974 8.10674 11.6189 8.01763 11.6342C7.92852 11.6496 7.91623 11.6619 7.86399 11.6711L7.63353 11.7295L7.49219 11.7787C7.41537 11.8032 7.33855 11.8248 7.2648 11.8555L7.11423 11.9231L6.9145 12.0122L6.76086 12.1013C6.70248 12.1351 6.64102 12.1658 6.58571 12.2027C6.5304 12.2396 6.48738 12.2703 6.44129 12.3041C6.3952 12.3379 6.33067 12.3779 6.27844 12.4178L6.14631 12.5315C6.09407 12.5745 6.04183 12.6145 5.99267 12.6606L5.86975 12.7865C5.82981 12.8296 5.77757 12.8787 5.73455 12.9279L5.62393 13.0692C5.58706 13.1153 5.54404 13.1645 5.50717 13.2167C5.47029 13.269 5.44264 13.3151 5.40884 13.3673C5.37504 13.4195 5.33816 13.4718 5.30436 13.5271C5.27056 13.5824 5.25212 13.6346 5.22447 13.6869C5.19682 13.7391 5.16301 13.7975 5.13843 13.8559C5.11385 13.9143 5.09541 13.9665 5.0739 14.0187C5.05239 14.071 5.02474 14.1386 5.00323 14.2C4.98172 14.2615 4.9725 14.3168 4.95714 14.3752C4.94177 14.4336 4.92026 14.4981 4.9049 14.5626C4.88954 14.6271 4.88646 14.6825 4.87417 14.7439C4.86188 14.8054 4.85266 14.8699 4.84344 14.9344C4.83423 14.9989 4.84344 15.0573 4.84344 15.1188C4.84344 15.1802 4.84344 15.2478 4.84344 15.3093C4.84344 15.3585 4.84344 15.4107 4.84344 15.4629C4.84344 15.5152 4.84344 15.6135 4.84344 15.6873C4.84344 15.7118 4.84344 15.7364 4.84344 15.761C5.08927 17.6047 6.76701 19.0458 8.81041 19.0458H10.7862C12.6299 19.0458 14.0403 20.53 13.8928 22.2077C13.6869 25.9135 12.1198 27.8032 11.0075 28.6882C10.7396 28.9124 10.4455 29.1033 10.1317 29.2567C10.0498 29.3 9.9657 29.3389 9.87974 29.3734C9.32908 29.6016 8.73964 29.7216 8.14362 29.7268H5.26134C3.89243 29.7268 2.57937 29.1841 1.60996 28.2176C0.640558 27.251 0.0939106 25.9396 0.0898438 24.5707V5.43029C0.0898438 4.05872 0.634697 2.74333 1.60454 1.77349C2.57439 0.803642 3.88978 0.258789 5.26134 0.258789H24.3987C25.0778 0.258789 25.7503 0.392554 26.3777 0.652446C27.0051 0.912338 27.5752 1.29327 28.0555 1.77349C28.5357 2.2537 28.9166 2.82381 29.1765 3.45124C29.4364 4.07868 29.5702 4.75116 29.5702 5.43029ZM39.5106 25.0132H44.1751L45.4411 21.7038H54.3337L55.6274 25.0132H60.2919L52.0875 4.86797H47.6228L39.5106 25.0132ZM46.7931 17.8474L49.8444 9.73219H49.9028L52.9756 17.8474H46.7931ZM68.0322 25.0132H72.2635V11.6896L81.0117 25.0132H85.7899V4.86797H81.5586V18.2223L72.7828 4.86797H68.0322V25.0132ZM95.0297 25.0132H99.261V11.6896L108.009 25.0132H112.787V4.86797H108.556V18.2223L99.7772 4.86797H95.0297V25.0132ZM130.428 25.302C135.179 25.302 139.121 22.0786 139.121 16.8703V4.86797H134.89V16.0345C134.89 18.8553 133.354 21.2582 130.428 21.2582C127.503 21.2582 125.939 18.8399 125.939 16.0345V4.86797H121.708V16.8703C121.708 22.0786 125.65 25.302 130.428 25.302ZM145.97 25.0132H150.632L151.898 21.7038H160.79L162.087 25.0132H166.749L158.55 4.86797H154.086L145.97 25.0132ZM153.253 17.8474L156.304 9.73219H156.359L159.432 17.8474H153.253ZM174.492 25.0132H188.627V21.1015H178.723V4.86797H174.492V25.0132Z" fill="#FF9200"/>
</svg>
