<svg width="152" height="24" viewBox="0 0 152 24" fill="none" xmlns="http://www.w3.org/2000/svg">
<path d="M23.9635 4.22552V19.7771C23.9609 20.8891 23.5224 21.9546 22.7442 22.74C21.966 23.5254 20.9116 23.9665 19.8123 23.9664H17.4849C17.0006 23.9667 16.521 23.8709 16.0732 23.6843C16.0047 23.6568 15.938 23.6251 15.8733 23.5895C15.6201 23.4654 15.383 23.3103 15.1674 23.1276C14.274 22.4085 13.0153 20.8806 12.8524 17.8622C12.7314 16.499 13.8643 15.2931 15.3476 15.2931H16.9419C18.7041 15.2931 20.1331 13.9499 20.1504 12.2972C20.1677 10.6444 18.7559 9.23628 16.9913 9.20882C16.851 9.20822 16.7108 9.2174 16.5717 9.23628C16.519 9.94699 16.2926 10.6333 15.9127 11.2336C16.0629 10.8305 16.1406 10.4035 16.1423 9.97279C16.1407 9.73385 16.1167 9.4956 16.0707 9.26124L16.0337 9.10645C16.0348 9.10152 16.0348 9.09641 16.0337 9.09147C16.0189 9.02906 16.0041 8.97164 15.9843 8.91172C15.9646 8.8518 15.9522 8.81185 15.935 8.75942C15.9177 8.70699 15.8881 8.63459 15.8634 8.57467C15.8387 8.51475 15.8239 8.4773 15.8017 8.42986L15.7054 8.23762C15.6807 8.19268 15.6561 8.14525 15.6314 8.1028C15.6067 8.06036 15.5549 7.98297 15.5154 7.92554L15.4364 7.8057C15.3871 7.7383 15.3352 7.67588 15.2809 7.61097L15.2168 7.52858C15.1378 7.4387 15.0555 7.35548 14.9699 7.27891L14.8934 7.2115L14.6985 7.04423L14.5874 6.96184C14.5282 6.9169 14.4689 6.87446 14.4048 6.83202C14.3406 6.78957 14.3209 6.77959 14.2789 6.75462L14.0938 6.64726L13.9556 6.57736L13.7631 6.48998C13.7137 6.46751 13.6668 6.45003 13.6175 6.43255L13.4126 6.36015L13.2645 6.31521C13.1913 6.29485 13.1172 6.27819 13.0424 6.26528C12.9955 6.2528 12.9461 6.24031 12.8993 6.23282L12.6524 6.19537C12.608 6.19537 12.5685 6.18289 12.5241 6.18039C12.3958 6.16791 12.2773 6.16042 12.1342 6.16042C11.991 6.16042 11.8873 6.16042 11.759 6.1779L11.6405 6.19288C11.5566 6.19288 11.4727 6.21535 11.3937 6.23033C11.3497 6.236 11.306 6.24434 11.2629 6.25529C11.184 6.27027 11.105 6.29024 11.0161 6.31022C10.9273 6.33019 10.9347 6.33019 10.8927 6.34517C10.798 6.37237 10.7049 6.40488 10.6138 6.44254C10.5743 6.45502 10.5373 6.4725 10.4978 6.48748C10.4139 6.52243 10.3325 6.55988 10.251 6.59983C10.1696 6.63977 10.1572 6.64976 10.1128 6.67722L9.95486 6.7671C9.90391 6.79612 9.85449 6.82779 9.80678 6.86198L9.67844 6.95435C9.62527 6.98959 9.57417 7.02794 9.52542 7.0692C9.4958 7.09167 9.47112 7.11663 9.4415 7.1416C9.32014 7.24462 9.20399 7.35378 9.09351 7.46866L9.06883 7.49612C9.01453 7.55604 8.9627 7.61846 8.91334 7.68087L8.86398 7.74578C8.81462 7.8107 8.76773 7.87561 8.72083 7.94552C8.72083 7.96299 8.69615 7.98047 8.68628 8.00044C8.531 8.2405 8.40503 8.4987 8.31114 8.76941C9.11706 9.28487 9.76225 10.0206 10.172 10.8916V10.8916C9.94389 10.4716 9.62618 10.1084 9.24198 9.82811C8.85778 9.54785 8.41671 9.35762 7.9508 9.27123H7.92859C7.84467 9.25625 7.75582 9.24377 7.66697 9.23378H7.59293C7.49668 9.23378 7.40042 9.23378 7.29923 9.23378H7.15115C7.08945 9.23378 7.03022 9.23378 6.97098 9.23378L6.87226 9.23628C6.79822 9.23628 6.72418 9.25376 6.6526 9.26624C6.58103 9.27872 6.57116 9.28871 6.5292 9.2962L6.3441 9.34363L6.23056 9.38358C6.16886 9.40355 6.10716 9.42103 6.04793 9.446L5.92699 9.50092L5.76657 9.57332L5.64317 9.64573C5.59627 9.67319 5.54691 9.69816 5.50249 9.72812C5.45806 9.75808 5.42351 9.78304 5.38649 9.81051C5.34947 9.83797 5.29764 9.87042 5.25568 9.90288L5.14956 9.99526C5.1076 10.0302 5.06564 10.0627 5.02615 10.1001L4.92743 10.2025C4.89535 10.2374 4.85339 10.2774 4.81884 10.3173L4.72999 10.4322C4.70037 10.4696 4.66582 10.5096 4.6362 10.552C4.60658 10.5945 4.58437 10.6319 4.55722 10.6743C4.53007 10.7168 4.50046 10.7592 4.47331 10.8042C4.44616 10.8491 4.43135 10.8916 4.40914 10.934C4.38693 10.9764 4.35978 11.0239 4.34003 11.0713C4.32029 11.1187 4.30548 11.1612 4.28821 11.2036C4.27093 11.2461 4.24872 11.301 4.23144 11.3509C4.21416 11.4009 4.20676 11.4458 4.19442 11.4932C4.18208 11.5407 4.1648 11.5931 4.15246 11.6455C4.14012 11.698 4.13765 11.7429 4.12778 11.7928C4.11791 11.8428 4.11051 11.8952 4.1031 11.9476C4.0957 12.0001 4.1031 12.0475 4.1031 12.0974C4.1031 12.1474 4.1031 12.2023 4.1031 12.2522C4.1031 12.2922 4.1031 12.3346 4.1031 12.3771C4.1031 12.4195 4.1031 12.4994 4.1031 12.5593C4.1031 12.5793 4.1031 12.5993 4.1031 12.6192C4.30055 14.1172 5.6481 15.2881 7.28936 15.2881H8.87632C10.3572 15.2881 11.49 16.494 11.3715 17.8572C11.2062 20.8681 9.94746 22.4036 9.05402 23.1226C8.83886 23.3047 8.60267 23.4598 8.35062 23.5845C8.28484 23.6196 8.21729 23.6513 8.14824 23.6793C7.70595 23.8647 7.23252 23.9622 6.75379 23.9664H4.43876C3.33925 23.9665 2.2846 23.5255 1.50597 22.7402C0.727352 21.9549 0.288285 20.8893 0.285019 19.7771V19.7771V4.22552C0.285019 3.11113 0.722644 2.04237 1.50162 1.25437C2.2806 0.466375 3.33712 0.0236816 4.43876 0.0236816H19.8098C20.3553 0.0236816 20.8954 0.132366 21.3994 0.343528C21.9033 0.55469 22.3612 0.864196 22.7469 1.25437C23.1327 1.64455 23.4386 2.10776 23.6474 2.61755C23.8561 3.12734 23.9635 3.67373 23.9635 4.22552V4.22552ZM31.9477 20.1366H35.6942L36.7111 17.4477H43.8536L44.8927 20.1366H48.6392L42.0495 3.76864H38.4634L31.9477 20.1366ZM37.797 14.3144L40.2478 7.72082H40.2947L42.7627 14.3144H37.797ZM54.8562 20.1366H58.2547V9.31118L65.2813 20.1366H69.1191V3.76864H65.7206V14.619L58.6718 3.76864H54.8562V20.1366ZM76.5405 20.1366H79.939V9.31118L86.9656 20.1366H90.8034V3.76864H87.4049V14.619L80.3537 3.76864H76.5405V20.1366ZM104.973 20.3713C108.788 20.3713 111.955 17.7523 111.955 13.5205V3.76864H108.556V12.8414C108.556 15.1333 107.322 17.0857 104.973 17.0857C102.623 17.0857 101.367 15.1209 101.367 12.8414V3.76864H97.9682V13.5205C97.9682 17.7523 101.135 20.3713 104.973 20.3713V20.3713ZM117.456 20.1366H121.2L122.217 17.4477H129.359L130.401 20.1366H134.145L127.56 3.76864H123.974L117.456 20.1366ZM123.305 14.3144L125.756 7.72082H125.8L128.269 14.3144H123.305ZM140.364 20.1366H151.718V16.9584H143.763V3.76864H140.364V20.1366Z" fill="black"/>
</svg>
