<svg width="125" height="26" viewBox="0 0 125 26" fill="none" xmlns="http://www.w3.org/2000/svg">
<path d="M26.0437 5.34489V20.9049C26.0437 23.2277 24.1887 25.1009 21.8886 25.1009H19.5637C19.069 25.1009 18.5991 25.001 18.1539 24.8262C18.0797 24.8012 18.0302 24.7762 17.956 24.7263C17.7087 24.6014 17.4614 24.4515 17.2388 24.2517C16.3484 23.5274 15.087 22.0039 14.9139 18.9818C14.7902 17.6331 15.928 16.4093 17.4119 16.4093H18.9948C20.7509 16.4093 22.1854 15.0605 22.2101 13.3872C22.2348 11.7138 20.8251 10.3651 19.0443 10.3401C18.8959 10.3401 18.7722 10.3401 18.6238 10.3651C18.5744 11.0644 18.3518 11.7637 17.956 12.3631C18.1044 11.9635 18.1786 11.5389 18.1786 11.1143C18.1786 10.8646 18.1539 10.6398 18.1044 10.39C18.1044 10.3401 18.0797 10.2901 18.0797 10.2402C18.0797 10.2402 18.0797 10.2402 18.0797 10.2152C18.055 10.1653 18.055 10.0903 18.0302 10.0404C18.0055 9.99042 18.0055 9.94047 17.9808 9.89052C17.956 9.84057 17.9313 9.76564 17.9066 9.71569C17.8819 9.66574 17.8571 9.61578 17.8571 9.56583L17.7582 9.391C17.7335 9.34105 17.7087 9.2911 17.684 9.26612C17.6593 9.24114 17.6098 9.14124 17.5603 9.09129L17.4861 8.96641C17.4367 8.89148 17.3872 8.84153 17.3377 8.7666C17.313 8.74162 17.2883 8.71665 17.2635 8.69167C17.1893 8.59177 17.0904 8.51684 17.0162 8.44191C16.9915 8.41694 16.9667 8.39196 16.942 8.36698L16.7441 8.19215L16.6452 8.11722C16.5957 8.06727 16.5215 8.0423 16.4721 7.99234C16.4226 7.94239 16.3979 7.94239 16.3484 7.91742L16.1505 7.81751L16.0022 7.74259L15.829 7.61771C15.7796 7.59273 15.7301 7.56775 15.6806 7.56775C15.6312 7.56775 15.557 7.5178 15.4828 7.49283L15.3344 7.44287C15.2602 7.4179 15.186 7.39292 15.1118 7.39292L14.9634 7.36795C14.8892 7.34297 14.7902 7.34297 14.716 7.34297L14.5924 7.31799C14.4687 7.31799 14.345 7.29302 14.1967 7.29302C14.0483 7.29302 13.9493 7.29302 13.8257 7.31799L13.702 7.34297C13.6278 7.34297 13.5289 7.36795 13.4547 7.36795L13.331 7.39292C13.2568 7.4179 13.1826 7.4179 13.0837 7.44287L12.96 7.46785C12.8611 7.49283 12.7621 7.5178 12.6879 7.56775L12.5643 7.61771C12.4901 7.64268 12.3912 7.69263 12.317 7.74259L12.1686 7.81751C12.1191 7.84249 12.0696 7.86747 12.0202 7.91742C11.9707 7.94239 11.9212 7.96737 11.8718 8.01732L11.7481 8.11722C11.6986 8.16718 11.6492 8.19215 11.5997 8.2421L11.5255 8.31703C11.4018 8.41694 11.2782 8.54182 11.1792 8.64172L11.1545 8.6667C11.105 8.71665 11.0556 8.79158 11.0061 8.8665L10.9566 8.91646C10.9072 8.99138 10.8577 9.04134 10.8082 9.11626C10.8082 9.14124 10.7835 9.16622 10.7835 9.16622C10.6351 9.41598 10.5115 9.66574 10.4125 9.94047C11.2287 10.465 11.8718 11.1893 12.2675 12.0634C11.7976 11.2142 10.9814 10.6148 10.0415 10.44H10.0168C9.9426 10.415 9.84366 10.415 9.74473 10.39H9.6458C9.54687 10.39 9.44794 10.39 9.34901 10.39H9.20061C9.15114 10.39 9.07694 10.39 9.02748 10.39H8.92855L8.70595 10.415L8.58229 10.44C8.53282 10.465 8.45862 10.465 8.38442 10.4899L8.26076 10.5399L8.08763 10.5898L7.96396 10.6398L7.81557 10.7147L7.6919 10.7897L7.54351 10.8646C7.49404 10.8896 7.46931 10.9145 7.41984 10.9395L7.29618 11.0394L7.19725 11.1393C7.14778 11.1643 7.12305 11.2142 7.07358 11.2392C7.02412 11.2642 6.99938 11.3142 6.97465 11.3391C6.94992 11.3641 6.90045 11.4141 6.87572 11.464C6.85098 11.514 6.82625 11.5389 6.77679 11.5889C6.72732 11.6388 6.70259 11.6638 6.67785 11.7138C6.65312 11.7637 6.62839 11.7887 6.60366 11.8386L6.52946 11.9635C6.50472 12.0135 6.47999 12.0385 6.45526 12.0884C6.43053 12.1384 6.40579 12.1883 6.38106 12.2383C6.35633 12.2882 6.35633 12.3132 6.33159 12.3631C6.30686 12.4131 6.28213 12.463 6.28213 12.513C6.28213 12.5629 6.2574 12.6129 6.23266 12.6629C6.20793 12.7128 6.20793 12.7628 6.1832 12.8127C6.15846 12.8627 6.1832 12.8627 6.1832 12.9126C6.1832 12.9626 6.15846 13.0125 6.15846 13.0625C6.15846 13.1124 6.15846 13.1624 6.15846 13.2123C6.15846 13.2623 6.15846 13.3122 6.15846 13.3622C6.15846 13.4121 6.15846 13.4371 6.15846 13.4871C6.15846 13.537 6.15846 13.6119 6.15846 13.6619C6.15846 13.6869 6.15846 13.7118 6.15846 13.7118C6.35633 15.2104 7.71664 16.3843 9.34901 16.3843H10.9319C12.4159 16.3843 13.5536 17.5831 13.4299 18.9568C13.2568 21.9789 11.9954 23.5024 11.105 24.2267C10.8824 24.4016 10.6598 24.5764 10.4125 24.7013C10.3383 24.7263 10.2889 24.7762 10.2147 24.8012C9.76947 25.001 9.27481 25.0759 8.80488 25.0759H6.47999C4.17983 25.0759 2.32487 23.2027 2.32487 20.88V5.34489C2.32487 3.02212 4.17983 1.14893 6.47999 1.14893H21.8886C24.164 1.14893 26.0437 3.02212 26.0437 5.34489Z" fill="black"/>
<path d="M42.3179 4.94519H45.9042L49.9604 21.3794H46.3494L45.7311 18.682H38.5338L37.0993 21.3794H33.1915L42.3179 4.94519ZM45.1127 15.535L43.604 8.96632H43.5546L40.1414 15.535H45.1127Z" fill="black"/>
<path d="M51.2959 9.76562H54.5607L55.7479 17.733L59.6062 9.76562H63.0193L64.4538 17.708L67.9412 9.76562H71.5769L65.8142 21.3795H62.5247L60.8923 13.587L56.9598 21.3795H53.5219L51.2959 9.76562Z" fill="black"/>
<path d="M71.3048 15.56C71.849 12.1632 74.4459 9.54077 77.6365 9.54077C79.3183 9.54077 80.4066 10.1901 81.1238 11.2641L81.3464 9.76555H84.6359L82.8304 21.3794H79.5409L79.7635 19.9558C78.7989 20.9548 77.5623 21.6042 75.732 21.6042C72.7888 21.6042 70.7854 18.9567 71.3048 15.56ZM80.456 15.56C80.7528 13.7617 79.6646 12.413 77.9333 12.413C76.3009 12.413 74.8169 13.7617 74.5201 15.56C74.2481 17.3583 75.3116 18.707 76.9439 18.707C78.6505 18.707 80.1345 17.4332 80.456 15.56Z" fill="black"/>
<path d="M87.4802 9.76561H90.7697L90.5471 11.2642C91.7095 9.94044 93.2924 9.51585 95.2216 9.54083L94.6775 13.0125C94.1333 12.7128 93.6634 12.6129 93.0698 12.6129C91.4375 12.6129 90.1019 13.9366 89.7804 15.8847L88.9147 21.3794H85.6252L87.4802 9.76561Z" fill="black"/>
<path d="M95.2464 15.56C95.7905 12.1633 98.3874 9.54081 101.504 9.54081C103.21 9.54081 104.348 10.2651 105.065 11.2642L106.252 3.77136H109.542L106.772 21.3794H103.482L103.705 19.9058C102.74 20.8799 101.454 21.6042 99.7477 21.6042C96.7303 21.6042 94.7022 18.9568 95.2464 15.56ZM104.373 15.56C104.67 13.7618 103.581 12.4131 101.9 12.4131C100.218 12.4131 98.7584 13.7618 98.4616 15.56C98.1896 17.3583 99.2531 18.707 100.935 18.707C102.567 18.707 104.101 17.3583 104.373 15.56Z" fill="black"/>
<path d="M109.295 18.4572L112.213 17.5581C112.46 18.5572 113.252 19.2065 114.489 19.2065C115.676 19.2065 116.541 18.6571 116.665 17.8079C116.863 16.4092 113.994 17.0836 112.04 16.2094C111.075 15.7598 110.259 14.8857 110.507 13.2872C110.878 11.1143 113.178 9.44092 115.849 9.44092C118.347 9.44092 119.856 10.7896 120.103 12.6378L117.234 13.4121C117.184 12.488 116.566 11.8886 115.527 11.8886C114.464 11.8886 113.648 12.488 113.549 13.2123C113.351 14.7858 116.467 14.1614 118.223 14.9606C119.336 15.4352 120.078 16.3093 119.856 17.8828C119.46 20.3554 117.259 21.879 114.019 21.879C111.694 21.829 109.616 20.4304 109.295 18.4572Z" fill="black"/>
</svg>
