<svg width="96" height="93" viewBox="0 0 96 93" fill="none" xmlns="http://www.w3.org/2000/svg">
<path d="M39.3647 0.185417C39.0814 0.289803 38.1568 0.565681 37.3142 0.811737C33.4296 1.93017 32.1993 2.80254 31.4313 4.97229L31.2375 5.52405L29.5076 6.67229C28.5532 7.29861 27.7703 7.80563 27.7703 7.78326C27.7703 7.76836 27.9045 7.53722 28.076 7.28371C28.4936 6.63502 28.9111 5.73282 29.2168 4.82317C29.4853 4.01044 30.2607 1.03542 30.2085 0.990685C30.1936 0.975777 29.8208 1.18455 29.3809 1.44551C26.048 3.45123 23.9379 5.53896 23.0729 7.70125C22.6032 8.86442 22.5137 9.83372 22.7747 10.8328L22.9313 11.4144L22.6107 11.6903C21.8725 12.3166 20.5527 13.5693 19.8891 14.2701C19.3001 14.8965 19.2106 14.971 19.3299 14.7175C19.7549 13.8451 20.165 12.3166 20.3142 11.064C20.4484 9.85609 20.3738 7.73853 20.1277 5.90431L20.083 5.58369L19.2405 6.64993C17.9058 8.34248 17.3168 9.14029 16.7203 10.0574C15.6317 11.7276 15.3111 12.5701 15.0874 14.3372C14.8861 15.9702 15.2216 18.289 15.7211 18.6991C15.833 18.7886 15.8777 18.7811 16.0641 18.6469C16.1834 18.5574 16.3027 18.4829 16.3251 18.4829C16.3475 18.4829 16.1163 18.8259 15.8106 19.2434C15.2365 20.0487 13.9689 22.0469 13.4992 22.8969C13.3426 23.1803 13.2084 23.404 13.201 23.404C13.186 23.404 13.2084 23.225 13.2531 23.0088C13.2904 22.8 13.3277 22.0171 13.3277 21.279C13.3277 19.3254 13.201 18.6842 12.0378 14.9934C11.7321 14.039 11.4637 13.2859 11.4413 13.3158C11.3891 13.3754 10.7031 15.4855 10.1439 17.2899C9.77857 18.4754 9.30883 20.3171 9.15971 21.1671C9.07769 21.6219 9.0255 22.2781 9.0255 22.9939C9.0255 24.2391 9.15225 24.9325 9.59216 25.9689C9.84568 26.5579 10.7702 28.2729 10.8523 28.3101C10.8821 28.3251 10.8224 28.5562 10.718 28.8321C10.3974 29.6597 9.68164 31.8294 9.53252 32.4036C9.45795 32.7018 9.37594 32.9479 9.34611 32.9479C9.31629 32.9479 9.27155 32.7913 9.24172 32.59C9.16716 32.0606 8.49611 30.122 8.04874 29.1303C7.83251 28.6457 7.49698 28.0417 7.31057 27.7733C7.12417 27.5049 6.58732 26.6549 6.11759 25.8869C5.03644 24.0899 4.87986 24.0303 4.87986 25.3799C4.87986 25.7079 4.84258 26.4983 4.8053 27.1321C4.45486 32.4558 4.65617 34.551 5.68513 36.5641C6.11013 37.3843 6.82592 38.1448 7.63119 38.6146C8.17549 38.9352 8.17549 38.9426 8.13075 39.2111C8.01891 39.9045 7.85488 41.9848 7.81014 43.2523L7.7654 44.6541L7.40005 43.9681C6.9154 43.0734 6.02811 41.6418 5.45398 40.8514C4.61889 39.6883 4.11933 39.1365 3.28424 38.4655C2.82941 38.1001 2.22546 37.6154 1.94958 37.3918C1.21142 36.7878 1.06975 36.8326 1.25615 37.5931C1.3158 37.8466 1.53949 38.9948 1.74826 40.1431C2.32239 43.3493 2.70265 44.7361 3.43336 46.287C4.34301 48.2181 5.81934 49.7317 7.72066 50.701L8.14567 50.9098L8.22768 51.5287C8.40663 52.7739 8.79435 54.7647 9.05532 55.7936C9.12988 56.0844 9.18208 56.3305 9.17462 56.3379C9.15971 56.3528 9.04041 56.2037 8.9062 56.0173C8.47374 55.4134 7.62373 54.6155 6.89303 54.1234C6.50531 53.8625 5.68513 53.2958 5.06626 52.8559C3.29915 51.6032 0.525449 49.7988 0.368869 49.7988C0.257027 49.7988 0.40615 50.1567 1.18905 51.8046C2.38204 54.3247 3.68687 56.8822 4.24608 57.8142C5.59565 60.0735 7.54917 61.6393 10.0843 62.5116C10.5093 62.6533 10.979 62.7726 11.1207 62.7726C11.3667 62.7726 11.3891 62.795 11.5755 63.2423C11.8588 63.9209 13.4545 67.0524 13.8198 67.6415C14.1479 68.1783 14.133 68.1858 13.626 67.7981C12.8132 67.1792 11.1878 66.277 9.83822 65.688C8.83163 65.2481 8.10839 65.0095 6.8632 64.7112C6.33381 64.5845 5.43162 64.3086 4.86495 64.1147C3.33643 63.5704 3.27678 63.6748 4.34301 64.9796C4.73819 65.4717 5.40925 66.3217 5.81934 66.8735C6.78864 68.1634 7.63865 69.1029 8.69742 70.0573C10.815 71.9661 11.7395 72.5327 13.5887 73.0621C15.1097 73.502 15.9001 73.5766 17.1378 73.4275L17.8014 73.3455L17.9953 73.599C18.7409 74.5534 20.5229 76.4025 22.0664 77.8266L22.6628 78.3784L21.5295 77.8043C20.2545 77.163 20.0606 77.1108 17.5926 76.7604C13.9764 76.2459 10.1588 75.9328 9.70401 76.1043C9.59216 76.1564 9.60708 76.1937 9.85313 76.4249C10.3825 76.9319 13.5589 79.2433 14.7518 79.9964C15.6988 80.5929 16.601 81.0328 17.7791 81.4727C19.8817 82.2556 20.7317 82.4122 22.5585 82.36C24.0646 82.3152 24.5567 82.2258 25.7572 81.7486L26.6221 81.4056L27.651 82.0468C28.7695 82.7477 30.5813 83.7617 31.3493 84.1196C32.6019 84.7012 32.7436 84.7758 32.4677 84.7311C32.3261 84.7087 31.4239 84.6714 30.4695 84.6416C28.0984 84.5819 27.5392 84.649 23.744 85.3947C22.6181 85.6183 21.0672 85.9091 20.2992 86.0508C18.6514 86.3416 18.547 86.4236 19.4865 86.692C19.8071 86.7815 20.9927 87.1469 22.1111 87.4973C25.9436 88.6903 26.6892 88.8245 29.3361 88.832C31.0361 88.832 31.3269 88.817 32.0427 88.6605C33.7576 88.3026 34.9208 87.7508 35.9647 86.8113C36.427 86.3938 36.6283 86.2521 36.7476 86.2819C36.8296 86.2969 37.4112 86.4534 38.03 86.6249C38.6489 86.7964 39.7002 87.0499 40.3638 87.1841C41.02 87.3183 41.5792 87.4451 41.6015 87.4675C41.6165 87.4824 41.4599 87.542 41.2436 87.5942C40.252 87.8477 37.5603 89.1078 33.5862 91.1732C31.3344 92.3438 30.6484 92.7539 30.7752 92.8359C31.0063 92.985 34.8462 92.8359 37.0533 92.5899C39.7748 92.2916 43.2717 91.0763 44.7033 89.928C45.2327 89.503 45.7845 88.9513 46.3437 88.2951L46.6121 87.9745H48.1406H49.6766L50.7428 88.996C52.5845 90.7556 52.8753 90.9122 56.1784 91.9114C58.0722 92.4855 58.6389 92.575 62.2999 92.8285C65.5881 93.0596 65.7969 93.0596 65.7969 92.8136C65.7969 92.6271 63.821 91.5609 62.5907 91.0837C62.203 90.9346 61.5617 90.6065 61.174 90.353C60.16 89.6969 59.3174 89.242 58.3034 88.7947C57.3788 88.392 54.8959 87.5271 54.6722 87.5271C54.5977 87.5271 54.538 87.5048 54.538 87.4675C54.538 87.4376 54.881 87.3482 55.306 87.2736C56.2082 87.1096 58.0648 86.6473 59.1459 86.3192C59.5635 86.1925 59.9139 86.103 59.9288 86.1179C59.9363 86.1328 59.9959 86.2447 60.0556 86.3714C60.4284 87.0947 62.9262 88.3846 64.6039 88.7127C65.9087 88.9736 68.6899 88.9513 70.1214 88.6828C71.4114 88.4293 75.982 87.035 76.6829 86.6697C76.9886 86.5131 76.9737 86.2968 76.668 86.1925C76.2802 86.0732 73.6706 85.5438 71.8364 85.2232C68.8539 84.6938 67.9815 84.5894 66.4679 84.5894C65.1333 84.5894 64.8052 84.6267 63.053 84.9547C62.9411 84.9771 63.0232 84.9175 63.2245 84.828C64.999 84.0525 67.7429 82.5389 69.5026 81.3534C70.375 80.7644 70.4048 80.7569 70.3153 80.988C70.1364 81.4205 70.3451 81.6815 71.1057 81.9648C71.9706 82.2929 72.7982 82.4122 74.1478 82.4122C75.4973 82.4122 76.0342 82.3302 77.4658 81.8977C78.7706 81.5025 79.7772 81.0477 81.0149 80.2946C83.0803 79.042 85.9285 77.0885 86.3685 76.6113C86.5921 76.3727 86.5325 76.2161 86.1895 76.149C85.7496 76.067 80.9031 76.4323 79.1061 76.6858C76.9066 76.9915 74.9008 77.6253 73.4022 78.4977L72.9921 78.7363L73.4022 78.3784C75.0201 76.9692 76.6232 75.3363 78.0548 73.6437C78.4575 73.1665 78.4873 73.1441 78.6439 73.2411C79.3373 73.6735 81.2535 73.5319 83.2369 72.8981C84.2211 72.5849 84.8399 72.2569 85.8913 71.5038C88.3518 69.7441 89.2913 68.7972 90.7601 66.6051C91.379 65.6805 91.8786 65.084 92.4378 64.6292C92.9597 64.1967 93.0939 63.9954 92.9299 63.8836C92.7882 63.7866 92.4751 63.8463 91.3343 64.1893C90.8049 64.3459 89.8803 64.5994 89.2838 64.7559C88.1729 65.0393 87.3527 65.3226 86.3759 65.7774C85.0338 66.3963 83.2443 67.4998 82.1333 68.3946C81.5294 68.8792 81.5145 68.8867 81.686 68.6108C82.6031 67.127 84.0421 64.3906 84.5492 63.1603C84.661 62.8919 84.7654 62.7502 84.825 62.7726C85.3842 62.9665 87.472 62.1686 89.0005 61.1695C89.9101 60.5656 91.2075 59.3204 91.6922 58.5599C92.6093 57.1208 95.1966 51.9686 95.6663 50.6414C95.8825 50.03 95.7707 50.0225 94.8685 50.5594C93.8172 51.1931 90.5439 53.3704 89.5821 54.0862C88.6948 54.7498 87.6062 55.8011 87.0992 56.502C86.9053 56.7629 86.7487 56.9568 86.7487 56.9419C86.7487 56.9195 86.8457 56.5243 86.9724 56.0546C87.2408 55.0033 87.5913 53.2883 87.7926 51.9611C87.8821 51.4094 87.9566 50.9546 87.9641 50.9546C87.9715 50.9471 88.1132 50.9024 88.2847 50.8576C88.7172 50.7309 90.1487 49.8585 90.693 49.3888C91.6325 48.5611 92.3036 47.6664 92.9448 46.369C93.6606 44.93 94.1154 43.3493 94.5777 40.6874C94.7418 39.733 94.9878 38.5251 95.1146 38.0106C95.4352 36.6983 95.3532 36.5567 94.6001 37.183C93.6382 37.9957 90.9391 40.9111 90.0294 42.1264C89.4777 42.8646 88.9558 43.7817 88.6128 44.6019L88.3369 45.2506L88.2922 43.6326C88.2474 42.2159 88.1132 40.3891 87.9715 39.2707C87.9268 38.9426 87.9343 38.9277 88.0759 38.965C88.3667 39.0396 88.9259 38.6817 89.6641 37.951C90.2904 37.3247 90.4246 37.1457 90.7154 36.5268C91.3045 35.2891 91.6102 34.0812 91.7444 32.4483C91.8711 30.8751 91.8338 29.5851 91.558 26.0882C91.379 23.8439 91.4983 23.911 90.5216 25.4992C88.9558 28.0566 87.7702 30.3009 87.4123 31.4194C87.2781 31.8518 87.2408 32.165 87.211 33.2685C87.1961 33.9992 87.1663 34.5882 87.1514 34.5733C87.1364 34.5584 87.0097 34.0738 86.8606 33.5071C86.525 32.2023 85.8242 30.0027 85.3395 28.75C85.0935 28.1088 85.0189 27.8329 85.1009 27.9075C85.4364 28.2132 85.8167 27.9075 86.3386 26.8935C86.7264 26.1404 87.2036 24.761 87.39 23.8513C87.6062 22.7627 87.4496 21.5921 86.704 18.8184C86.3237 17.4017 85.3097 14.2776 85.1829 14.121C84.9369 13.8228 84.579 14.4864 83.7663 16.7307C83.4009 17.7522 83.3114 18.3039 83.2294 20.2798C83.1698 21.6369 83.1623 22.4719 83.2219 23.1505C83.2592 23.6798 83.2891 24.1198 83.2816 24.1347C83.2667 24.1496 83.0728 23.8066 82.8491 23.3816C81.9917 21.786 80.7167 19.7952 79.5983 18.3039C79.0092 17.5136 78.9868 17.3719 79.5535 17.961C79.7176 18.1324 80.0158 18.3934 80.2171 18.5425L80.5825 18.811L80.754 18.6096C81.1119 18.1921 81.3281 16.9767 81.3281 15.3886C81.3281 12.8013 80.6719 11.1684 78.5171 8.37976C78.0921 7.828 76.3846 5.73282 76.146 5.47185C76.0789 5.39729 76.1162 7.06001 76.243 10.2885C76.3101 12.1302 76.4145 12.9802 76.6456 13.6736C76.7873 14.0912 77.3167 15.2171 77.6149 15.7241C77.7267 15.9105 77.764 15.9925 77.6969 15.918C76.8842 14.9188 74.7219 12.7491 73.5289 11.7127C73.2754 11.4965 73.253 11.4592 73.3574 11.3548C73.5662 11.1535 73.6557 10.6315 73.6557 9.68459C73.6557 8.60345 73.5587 8.13371 73.2008 7.41045C72.5522 6.10563 71.0311 4.35342 69.4653 3.10825C68.5333 2.37009 66.7065 1.18455 66.4903 1.18455C66.2666 1.18455 66.4828 2.37754 67.1017 4.45781C67.5789 6.06834 67.892 6.68721 68.8464 7.92493C69.182 8.35739 69.2118 8.4245 69.0328 8.3052C68.9135 8.23064 68.3469 7.91003 67.7727 7.58941C66.4679 6.87361 65.4091 6.26221 65.3197 6.18019C65.2824 6.14291 65.2227 5.90431 65.1854 5.64335C65.0438 4.6144 64.2012 3.36176 63.0903 2.5192C62.0464 1.72885 61.0622 1.34113 57.4534 0.282349C56.3051 -0.0531769 56.1038 -0.0755463 56.1038 0.140678C56.1038 0.46875 58.1095 3.13807 59.3622 4.46526C60.3911 5.56133 61.8078 6.35168 63.2916 6.67229C63.7688 6.76923 63.9328 6.86617 65.3644 7.87275C66.2144 8.46924 66.9078 8.97626 66.8929 8.99117C66.878 8.99863 66.4828 8.98371 66.0205 8.94643C64.999 8.86441 64.0968 8.93897 62.9039 9.2074C61.8227 9.44599 60.3091 9.90082 59.4218 10.2438C57.5205 10.982 57.7367 11.1013 61.8078 11.5486C62.9561 11.6754 63.9477 11.7947 64.0074 11.8096C64.067 11.832 64.7381 11.8767 65.4912 11.9214C67.0122 12.0109 69.3535 11.914 70.196 11.7425L70.6807 11.6381L71.5381 12.339C72.0079 12.7193 72.6118 13.2337 72.8802 13.4723L73.3649 13.9197L72.6938 13.7408C71.3443 13.3829 70.539 13.3008 68.332 13.3083C66.1026 13.3158 65.6328 13.3754 65.5881 13.6811C65.5583 13.9048 65.7447 14.0315 66.7662 14.4789C67.2806 14.7026 68.4513 15.2469 69.3758 15.6868C71.0311 16.4772 72.6715 17.1557 73.4916 17.3943C74.118 17.5732 75.5048 17.7969 76.3697 17.8566L77.1452 17.9088L77.9281 18.9303C78.3531 19.4969 78.9123 20.2575 79.1658 20.6154C79.561 21.1895 79.5983 21.2566 79.4044 21.1298C77.7566 20.0412 74.1254 18.7215 72.3881 18.5798C71.8214 18.5351 71.6947 18.5947 71.8289 18.8482C71.978 19.1167 77.2645 23.5904 78.3307 24.3434C79.8592 25.432 81.6338 26.4461 82.3048 26.6176L82.6404 26.6996L82.9908 27.4974C83.3487 28.3027 84.2882 30.7408 84.2882 30.8601C84.2882 30.8974 83.9079 30.5395 83.4531 30.0623C82.4018 28.9886 81.5592 28.3474 80.1425 27.5347C78.0399 26.3268 76.6829 25.7377 76.6829 26.0285C76.6829 26.1851 77.0482 26.7145 77.5851 27.3185C78.4798 28.3474 79.5684 29.958 80.5154 31.6729C80.754 32.0979 81.0671 32.6198 81.2237 32.8286C82.1184 34.0365 83.8035 35.6694 85.0487 36.5418C85.4141 36.8027 85.7645 37.0413 85.8242 37.0861C85.9882 37.1979 86.3088 39.4497 86.5176 41.8953C86.5474 42.283 86.5698 42.6111 86.5623 42.626C86.5549 42.6335 86.4356 42.3352 86.3014 41.9549C85.9807 41.0155 85.4961 40.0984 84.9965 39.472C84.4746 38.8233 80.3439 34.551 80.232 34.551C80.0754 34.551 80.1724 35.0132 80.7018 36.8251C81.8053 40.5756 82.5285 42.5514 83.468 44.3931C84.2136 45.8694 85.1233 47.2116 86.0777 48.2554L86.4728 48.6879L86.4207 49.2993C86.3014 50.6488 85.8018 53.8997 85.7049 53.8997C85.675 53.8997 85.6303 53.691 85.6079 53.43C85.4663 51.9164 84.6163 50.0002 82.5882 46.63C81.7456 45.2208 81.3206 44.6392 81.1715 44.669C80.9851 44.7063 80.9776 45.3624 81.1193 47.7484C81.3728 52.1252 81.5965 54.5484 81.8426 55.5028C82.1781 56.8598 83.1399 58.9923 83.7737 59.7976L83.9825 60.066L83.55 61.1397C82.8491 62.8695 81.5294 65.6209 81.5294 65.345C81.5294 65.3002 81.5667 64.7858 81.604 64.1967C81.7531 61.9822 81.3206 58.9923 80.4781 56.4721C80.15 55.4805 79.889 55.0182 79.6654 55.0182C79.464 55.0182 79.3895 55.1971 79.3298 55.8756C79.2627 56.6436 79.0092 57.9634 78.5097 60.1629C77.6895 63.7568 77.5403 64.7858 77.6 66.5603C77.6447 67.895 77.7267 68.3498 78.189 69.6845L78.4276 70.3704L77.7864 71.213C77.1228 72.0854 75.7136 73.7556 75.557 73.8525C75.4899 73.8898 75.4824 73.8525 75.5197 73.7257C75.6166 73.3678 75.8627 71.8169 75.9373 71.0564C76.0491 69.9305 76.0267 67.4253 75.9 65.7924C75.8329 65.0169 75.7732 64.3384 75.7583 64.3011C75.7434 64.2564 75.475 64.7485 75.1544 65.3823C74.282 67.127 73.1412 69.1998 72.5671 70.102C71.1131 72.3911 70.7776 73.6437 70.5986 77.424L70.5539 78.4753L70.0916 78.8108C69.0776 79.5714 66.7662 81.1148 66.6543 81.1148C66.632 81.1148 66.7512 80.8986 66.9153 80.6376C67.7355 79.3477 68.5556 77.2376 68.9583 75.3885C69.1223 74.6503 69.4504 72.5178 69.4056 72.4731C69.3535 72.4134 65.3569 76.4249 64.2087 77.685C62.0166 80.1008 61.0547 81.756 60.8385 83.5082L60.7863 83.9258L59.7723 84.2688C58.9521 84.5446 56.9165 85.1411 56.7972 85.1411C56.7823 85.1411 57.1029 84.8056 57.513 84.3955C59.0639 82.8446 60.5402 80.5854 60.8981 79.2135C61.1442 78.2442 61.2486 78.2815 60.0034 78.9078C59.0192 79.3924 58.0946 79.7876 56.1411 80.5332C55.813 80.66 55.142 80.9657 54.6499 81.2192C53.8446 81.6293 53.6806 81.7486 53.002 82.4196C51.7643 83.6574 50.7279 85.1933 50.7055 85.8122L50.6981 86.0881L50.1463 86.1403C49.7789 86.1698 48.9595 86.1834 48.1406 86.1831C47.0985 86.1827 46.0571 86.1597 45.9485 86.1179C45.8292 86.0732 45.7248 85.9091 45.5981 85.5811C45.3595 84.9398 44.8972 84.0153 44.6064 83.5903C44.2187 83.0161 43.3612 82.2109 42.6603 81.756C41.8998 81.2565 41.0051 80.824 39.7002 80.3319C37.948 79.6758 36.3002 78.9227 35.4577 78.4157L35.2116 78.2591L35.2638 78.5126C35.6441 80.2201 37.0309 82.3898 39.0664 84.4552C39.5213 84.9175 39.8419 85.2754 39.7822 85.2604C39.7151 85.2381 39.1932 85.1039 38.6191 84.9547C38.0449 84.8056 37.1204 84.5372 36.5612 84.3508L35.5471 84.0227L35.4949 83.553C35.2862 81.6964 34.6971 80.578 32.7212 78.356C32.0129 77.5657 27.0173 72.3762 26.9874 72.406C26.9203 72.4656 27.3528 74.8218 27.6212 75.8731C28.2252 78.274 28.9111 79.9367 29.8357 81.249C29.9401 81.3981 29.8953 81.3832 29.4778 81.1446C28.844 80.7793 27.0545 79.6012 26.3313 79.0644C25.9137 78.7587 25.7572 78.6021 25.7944 78.5201C25.8168 78.4604 25.8765 78.1472 25.9137 77.8415C26.1225 76.3876 25.6751 74.106 24.7506 71.899C24.3778 71.0117 24.1168 70.527 23.3637 69.2818C22.8716 68.4766 21.6712 66.2472 21.0896 65.0616C20.933 64.7485 20.769 64.4875 20.7168 64.4875C20.5826 64.4875 20.5378 65.4941 20.5378 68.5511C20.5378 72.2867 20.59 72.8534 21.1045 74.4042C21.1791 74.6205 19.5462 72.7937 18.5023 71.474L17.8611 70.6762L18.0475 70.2512C18.4426 69.3564 18.8229 67.2239 18.8229 65.8818C18.8229 64.5919 18.5545 62.959 17.7492 59.3651C17.2571 57.1656 16.9812 55.7041 16.944 55.0927C16.929 54.8392 16.8918 54.7497 16.7874 54.7348C16.6904 54.7125 16.5861 54.8541 16.3698 55.3313C15.8926 56.3528 15.3558 58.4182 14.8935 60.9831C14.6325 62.4594 14.6176 64.0551 14.8562 65.3823C14.9457 65.852 14.9979 66.2472 14.9904 66.2621C14.9755 66.2696 14.5803 65.5165 14.1106 64.5845C13.3575 63.0858 12.5448 61.259 12.254 60.4463L12.1645 60.1778L12.6194 59.6708C13.3948 58.8283 14.3716 56.6585 14.6102 55.2568C14.9159 53.4598 15.49 45.4594 15.3483 45.012C15.2887 44.8181 15.1545 44.8479 14.901 45.1164C14.0584 46.0186 11.7545 50.1269 11.2623 51.5958C11.0014 52.3787 10.7777 53.5791 10.718 54.4739C10.6957 54.8989 10.6584 55.2344 10.6435 55.2195C10.5242 55.0927 9.89787 51.469 9.71892 49.8585L9.62945 49.0532L9.82331 48.9041C10.3676 48.4716 12.7685 45.012 13.3128 43.8712C13.9466 42.544 16.3027 35.0505 16.1983 34.7225C16.1536 34.6031 15.1247 35.5426 13.6409 37.0562C11.0238 39.7106 10.4496 40.6352 9.58471 43.5357C9.37594 44.2216 9.64436 40.6128 9.96497 38.4431L10.1216 37.3396L10.4273 37.183C10.9492 36.922 12.1049 36.0198 12.8431 35.304C14.2225 33.9694 15.1918 32.7317 17.0185 29.9654C17.6523 29.0036 18.4948 27.7733 18.8975 27.2364C19.3001 26.6996 19.6655 26.1851 19.7102 26.1031C19.8295 25.8869 19.8146 25.7154 19.6804 25.7154C19.3747 25.7154 16.5861 27.2812 14.7966 28.4667C13.9093 29.0483 12.7014 30.1444 12.1049 30.9049C11.9259 31.136 11.7172 31.397 11.6501 31.4865C11.4115 31.7773 12.7387 28.1834 13.2531 27.1321C13.4023 26.8413 13.4545 26.7891 13.7825 26.7071C14.2597 26.5878 15.5124 25.9838 16.5115 25.3799C18.1295 24.4031 19.6506 23.2623 21.1716 21.8829C21.6637 21.4355 22.469 20.7346 22.9611 20.3246C24.2659 19.2434 24.5791 18.9377 24.5493 18.7513C24.5194 18.5276 24.1988 18.5202 23.2593 18.7066C20.8361 19.1987 18.6738 20.0711 16.8918 21.2864C16.5115 21.5474 16.1834 21.7636 16.1685 21.7636C16.0492 21.7636 18.5619 18.2965 18.8677 18.0281C18.9795 17.9311 19.2405 17.8938 19.9786 17.864C22.126 17.7671 23.9826 17.2079 26.7265 15.8359C27.405 15.5004 28.4787 14.9934 29.1124 14.7175C29.7462 14.4416 30.38 14.1285 30.5142 14.0315C31.2076 13.5096 30.3875 13.2636 27.9567 13.2636C25.8317 13.2636 23.9453 13.5245 22.7076 13.9943C22.5436 14.0539 23.8782 12.8758 24.8028 12.1377C25.3098 11.735 25.5931 11.5561 25.6751 11.5859C26.0703 11.7425 27.1216 11.9289 27.9567 12.0035C29.1572 12.1004 30.4024 12.0184 33.3625 11.6605C34.5331 11.5114 36.0243 11.3548 36.6805 11.3026C37.8511 11.2057 38.2463 11.1087 38.1866 10.9298C38.0673 10.5644 35.5993 9.62495 33.7353 9.23722C32.2739 8.93897 30.216 8.86442 29.1124 9.08064C28.926 9.11793 28.7695 9.14029 28.7545 9.13284C28.7471 9.11792 29.3883 8.60345 30.1787 7.99204L31.6177 6.86617L32.4379 6.78413C34.2274 6.60519 35.4726 5.91923 37.2471 4.15211C38.2463 3.15298 39.141 2.09421 39.7002 1.2442C40.17 0.54332 40.2743 0.259979 40.1401 0.0959473C40.0283 -0.0382614 39.991 -0.0308151 39.3647 0.185417Z" fill="#FBB14B"/>
<path fill-rule="evenodd" clip-rule="evenodd" d="M47.0301 34.0652C47.6343 33.0186 49.1448 33.0186 49.749 34.0652L51.0121 36.253C51.6163 37.2995 50.8611 38.6076 49.6527 38.6076H47.1264C45.918 38.6076 45.1628 37.2995 45.767 36.253L47.0301 34.0652ZM44.4436 43.2612C43.8394 42.2147 42.3289 42.2147 41.7247 43.2613L40.4615 45.449C39.8573 46.4956 40.6126 47.8037 41.821 47.8037H44.3472C45.5557 47.8037 46.3109 46.4956 45.7067 45.449L44.4436 43.2612ZM39.1381 52.4577C38.5338 51.4112 37.0233 51.4112 36.4191 52.4577L35.156 54.6455C34.5518 55.6921 35.3071 57.0002 36.5155 57.0002H39.0417C40.2501 57.0002 41.0054 55.6921 40.4012 54.6455L39.1381 52.4577ZM47.0301 52.4577C47.6343 51.4112 49.1448 51.4112 49.749 52.4577L51.0121 54.6455C51.6163 55.6921 50.8611 57.0002 49.6527 57.0002H47.1264C45.918 57.0002 45.1628 55.6921 45.767 54.6455L47.0301 52.4577ZM55.0545 43.2612C54.4503 42.2147 52.9398 42.2147 52.3356 43.2613L51.0725 45.449C50.4683 46.4956 51.2235 47.8037 52.4319 47.8037H54.9582C56.1666 47.8037 56.9219 46.4956 56.3176 45.449L55.0545 43.2612ZM60.3599 52.4577C59.7557 51.4112 58.2452 51.4112 57.641 52.4577L56.3779 54.6455C55.7737 55.6921 56.529 57.0002 57.7374 57.0002H60.2636C61.472 57.0002 62.2273 55.6921 61.6231 54.6455L60.3599 52.4577Z" fill="#DDDDDD"/>
</svg>
