<svg width="185" height="39" viewBox="0 0 185 39" fill="none" xmlns="http://www.w3.org/2000/svg">
<path d="M44.7333 38.6668H49.3983L50.6653 35.2946H59.5633L60.8591 38.6668H65.5241L57.3172 18.1405H52.8538L44.7333 38.6668ZM52.0187 31.3653L55.0711 23.0961H55.1287L58.2099 31.3653H52.0187Z" fill="black"/>
<path d="M73.3934 38.6668H78.2599L82.3489 25.4126L86.4092 38.6668H91.2757L96.9773 18.1405H92.4275L88.6841 32.9487L84.3358 18.1405H80.3332L75.985 32.9487L72.2415 18.1405H67.6917L73.3934 38.6668Z" fill="black"/>
<path d="M99.14 38.6668H103.805L105.072 35.2946H113.97L115.266 38.6668H119.931L111.724 18.1405H107.261L99.14 38.6668ZM106.425 31.3653L109.478 23.0961H109.535L112.617 31.3653H106.425Z" fill="black"/>
<path d="M141.237 38.6668L137.091 30.8081C139.222 29.8111 140.777 27.7585 140.777 24.8262C140.777 20.5743 137.552 18.1405 133.952 18.1405H125.198V38.6668H129.374V31.4826H133.146L136.601 38.6668H141.237ZM129.374 21.9232H133.52C135.334 21.9232 136.544 23.1548 136.544 24.8848C136.544 26.6149 135.334 27.7878 133.52 27.7878H129.374V21.9232Z" fill="black"/>
<path d="M146.833 38.6668H154.637C160.022 38.6668 164.802 35.0014 164.802 28.3743C164.802 21.7472 160.022 18.1111 154.637 18.1111L146.833 18.1405V38.6668ZM151.066 34.4442V22.363L154.464 22.3337C157.805 22.3337 160.569 24.1811 160.569 28.3743C160.569 32.5675 157.805 34.4442 154.464 34.4442H151.066Z" fill="black"/>
<path d="M177.427 38.9893C181.66 38.9893 185 36.4675 185 32.6262C185 28.4623 181.199 27.4946 178.492 26.7322C176.304 26.1164 174.201 25.7352 174.201 24.0051C174.201 22.7735 175.325 21.6299 177.225 21.6299C178.953 21.6299 179.989 22.5096 180.479 24.0638L184.338 22.9202C183.359 19.636 180.853 17.7886 177.139 17.7886C173.05 17.7886 169.853 20.4277 169.853 24.0051C169.853 28.0811 173.251 29.3126 176.131 30.0751C178.377 30.6615 180.594 30.9548 180.594 32.7435C180.594 34.0923 179.356 35.06 177.455 35.06C175.67 35.06 174.173 34.1217 173.683 32.4796L169.594 33.6525C170.573 36.966 173.539 38.9893 177.427 38.9893Z" fill="black"/>
<path d="M50.2442 10.8413C52.3204 10.8413 53.9844 9.67169 53.9844 7.76734C53.9844 5.66806 52.0406 5.29319 50.5534 4.88833C49.2576 4.52845 47.9176 4.30353 47.9176 3.02896C47.9176 2.11428 48.7422 1.25957 50.0822 1.25957C51.2602 1.25957 52.0112 1.88935 52.3646 2.99897L53.631 2.6391C53.1303 0.914687 51.8787 0 50.0675 0C48.0501 0 46.4892 1.28956 46.4892 3.01397C46.4892 5.09826 48.2857 5.57809 49.8171 5.99795C51.1277 6.34283 52.556 6.50777 52.556 7.79733C52.556 8.87696 51.5842 9.55173 50.2589 9.55173C49.022 9.55173 47.947 8.92195 47.5936 7.70736L46.2536 8.08224C46.7543 9.86663 48.3446 10.8413 50.2442 10.8413Z" fill="black"/>
<path d="M58.4301 10.7813C59.7996 10.7813 60.6242 10.2715 61.2427 9.58172V10.6764H62.5679V3.25389H61.2427V4.36351C60.6242 3.64375 59.7996 3.14892 58.4301 3.14892C56.4422 3.14892 54.9255 4.81335 54.9255 6.97262C54.9255 9.10189 56.4422 10.7813 58.4301 10.7813ZM58.7394 9.59672C57.3257 9.59672 56.2361 8.44211 56.2361 6.97262C56.2361 5.48812 57.3257 4.33352 58.7394 4.33352C60.153 4.33352 61.2427 5.48812 61.2427 6.97262C61.2427 8.44211 60.153 9.59672 58.7394 9.59672Z" fill="black"/>
<path d="M67.4321 10.7813C68.8015 10.7813 69.6262 10.2715 70.2446 9.58172V10.6764H71.5699V3.25389H70.2446V4.36351C69.6262 3.64375 68.8015 3.14892 67.4321 3.14892C65.4442 3.14892 63.9275 4.81335 63.9275 6.97262C63.9275 9.10189 65.4442 10.7813 67.4321 10.7813ZM67.7413 9.59672C66.3277 9.59672 65.238 8.44211 65.238 6.97262C65.238 5.48812 66.3277 4.33352 67.7413 4.33352C69.155 4.33352 70.2446 5.48812 70.2446 6.97262C70.2446 8.44211 69.155 9.59672 67.7413 9.59672Z" fill="black"/>
<path d="M76.8905 10.8413C78.9668 10.8413 80.6308 9.67169 80.6308 7.76734C80.6308 5.66806 78.687 5.29319 77.1998 4.88833C75.9039 4.52845 74.5639 4.30353 74.5639 3.02896C74.5639 2.11428 75.3886 1.25957 76.7286 1.25957C77.9066 1.25957 78.6576 1.88935 79.011 2.99897L80.2773 2.6391C79.7767 0.914687 78.525 0 76.7138 0C74.6965 0 73.1356 1.28956 73.1356 3.01397C73.1356 5.09826 74.9321 5.57809 76.4635 5.99795C77.774 6.34283 79.2024 6.50777 79.2024 7.79733C79.2024 8.87696 78.2305 9.55173 76.9053 9.55173C75.6683 9.55173 74.5934 8.92195 74.24 7.70736L72.9 8.08224C73.4007 9.86663 74.991 10.8413 76.8905 10.8413Z" fill="black"/>
<path d="M87.9346 5.30819C88.6856 4.90332 89.2304 4.19856 89.2304 3.02896C89.2304 1.12462 87.8021 0.179938 86.0203 0.179938H82.0887V10.6764H86.2265C87.964 10.6764 89.4955 9.71668 89.4955 7.76734C89.4955 6.47779 88.8034 5.69805 87.9346 5.30819ZM83.4581 1.39452H86.0203C86.9774 1.39452 87.8904 1.82937 87.8904 3.11893C87.8904 4.3935 87.0069 4.82835 86.0203 4.82835H83.4581V1.39452ZM86.197 9.46177H83.4581V5.93797H86.197C87.0952 5.93797 88.126 6.41781 88.126 7.69237C88.126 8.98193 87.0952 9.46177 86.197 9.46177Z" fill="black"/>
<path d="M95.688 10.8263C98.6183 10.8263 100.886 8.41212 100.886 5.42814C100.886 2.44416 98.6183 0.0299894 95.688 0.0299894C92.743 0.0299894 90.4753 2.44416 90.4753 5.42814C90.4753 8.41212 92.743 10.8263 95.688 10.8263ZM95.688 9.44677C93.5087 9.44677 91.8594 7.66238 91.8594 5.42814C91.8594 3.19391 93.5087 1.40952 95.688 1.40952C97.8526 1.40952 99.5018 3.19391 99.5018 5.42814C99.5018 7.66238 97.8526 9.44677 95.688 9.44677Z" fill="black"/>
<path d="M107.221 10.8263C110.151 10.8263 112.419 8.41212 112.419 5.42814C112.419 2.44416 110.151 0.0299894 107.221 0.0299894C104.276 0.0299894 102.008 2.44416 102.008 5.42814C102.008 8.41212 104.276 10.8263 107.221 10.8263ZM107.221 9.44677C105.042 9.44677 103.392 7.66238 103.392 5.42814C103.392 3.19391 105.042 1.40952 107.221 1.40952C109.385 1.40952 111.035 3.19391 111.035 5.42814C111.035 7.66238 109.385 9.44677 107.221 9.44677Z" fill="black"/>
<path d="M114.027 10.6764H115.411V2.60911L118.93 8.96693H120.02L123.539 2.59411V10.6764H124.938V0.179938H123.333L119.49 7.3025L115.617 0.179938H114.027V10.6764Z" fill="black"/>
<path d="M127.468 1.81438C127.91 1.81438 128.263 1.4545 128.263 1.00466C128.263 0.599794 127.91 0.239918 127.468 0.239918C127.041 0.239918 126.688 0.599794 126.688 1.00466C126.688 1.4545 127.041 1.81438 127.468 1.81438ZM126.835 10.6764H128.131V3.25389H126.835V10.6764Z" fill="black"/>
<path d="M25.5386 38.5383C26.2623 38.8435 27.0379 39.0004 27.8211 39H31.5714C33.3521 39 35.0599 38.2795 36.3191 36.9971C37.5782 35.7147 38.2856 33.9754 38.2856 32.1618V6.85156C38.2853 5.95317 38.1111 5.06365 37.7732 4.23379C37.4353 3.40393 36.9402 2.64998 36.3162 2.01499C35.6922 1.38 34.9515 0.876408 34.1364 0.532963C33.3213 0.189517 32.4477 0.0129457 31.5656 0.013329H6.71426C4.93353 0.013329 3.22573 0.733783 1.96656 2.0162C0.707393 3.29862 0 5.03795 0 6.85156V32.1618C0.00075971 33.9743 0.707852 35.7123 1.96597 36.9942C3.22408 38.2761 4.93034 38.997 6.70996 38.9985H10.453C11.2367 38.9966 12.0124 38.8372 12.7356 38.5295C12.8467 38.4871 12.9555 38.4383 13.0612 38.3834C13.4688 38.1795 13.8508 37.9264 14.1989 37.6294C15.6494 36.459 17.678 33.9605 17.9449 29.0583C18.1385 26.8417 16.3093 24.8764 13.9106 24.8764H11.3425C8.69267 24.8764 6.51054 22.9784 6.19204 20.5309C6.18515 20.4992 6.18036 20.4669 6.17769 20.4345C6.16048 20.341 6.16048 20.2402 6.16048 20.1423C6.149 20.0751 6.149 20.0064 6.149 19.9392V19.9202C6.149 19.834 6.17339 19.7594 6.18487 19.6776C6.19634 19.5958 6.18487 19.5154 6.19635 19.4307C6.20782 19.3459 6.22217 19.2583 6.23652 19.1794C6.25086 19.1005 6.25804 19.0172 6.27669 18.9368C6.29534 18.8564 6.32116 18.7717 6.34268 18.6943C6.3642 18.6168 6.37424 18.5423 6.40294 18.4619C6.42926 18.3882 6.45921 18.312 6.48613 18.2435L6.49332 18.2252C6.52202 18.1522 6.5464 18.0835 6.5794 18.0061C6.6124 17.9286 6.65544 17.8482 6.68987 17.7825C6.7243 17.7167 6.75443 17.6349 6.79604 17.5706C6.83764 17.5063 6.88786 17.4274 6.9309 17.3602C6.97394 17.293 7.00837 17.2287 7.05571 17.16C7.10306 17.0914 7.16188 17.0256 7.21066 16.9628C7.25944 16.9 7.29817 16.843 7.35413 16.7787C7.41008 16.7144 7.47751 16.6501 7.53059 16.5931C7.58367 16.5361 7.63389 16.4879 7.68984 16.4265C7.74579 16.3652 7.83187 16.3009 7.88926 16.2527C7.94664 16.2044 7.98968 16.1533 8.05855 16.1065C8.12741 16.0598 8.21062 16.0043 8.27088 15.9604C8.33114 15.9166 8.38422 15.8728 8.45739 15.826C8.53055 15.7792 8.61807 15.731 8.6855 15.693C8.75293 15.655 8.80171 15.6185 8.88635 15.5761C8.97098 15.5338 9.05853 15.4958 9.14603 15.4578C9.21059 15.4286 9.27372 15.395 9.34114 15.3672C9.42866 15.3292 9.52909 15.3 9.62808 15.2649C9.68977 15.2445 9.74859 15.2211 9.81172 15.2006C9.91071 15.1729 10.0111 15.1509 10.1116 15.1261C10.1804 15.113 10.2436 15.0925 10.311 15.0779C10.4272 15.056 10.5463 15.0414 10.6668 15.0253C10.7213 15.0194 10.7729 15.0034 10.8289 15.0034C10.9222 14.9902 11.0355 14.9946 11.1158 14.9902C11.1962 14.9858 11.2751 14.9771 11.3583 14.9771C11.5175 14.9771 11.6739 14.9888 11.8303 15.0004L11.9508 15.0121C12.1015 15.0282 12.2377 15.0487 12.3812 15.075H12.4156C13.1673 15.2158 13.8789 15.5247 14.4992 15.9795C15.1194 16.4344 15.6328 17.0237 16.0023 17.7051C15.3385 16.2874 14.2939 15.0902 12.9895 14.2523C13.143 13.8124 13.3472 13.3925 13.5978 13.0016C13.615 12.9709 13.6351 12.9402 13.6552 12.911C13.7269 12.7985 13.8044 12.6904 13.8833 12.5852L13.9637 12.4829C14.0454 12.3791 14.1272 12.2754 14.2162 12.1789C14.2303 12.1651 14.2437 12.1504 14.2563 12.1351C14.4319 11.9468 14.6172 11.7683 14.8115 11.6003C14.8575 11.5623 14.8976 11.5214 14.9435 11.4849C15.0253 11.4191 15.1315 11.3461 15.1932 11.2964C15.2549 11.2467 15.3209 11.2044 15.3983 11.1503C15.4758 11.0962 15.5533 11.0436 15.6379 10.9925L15.8933 10.8464C15.9679 10.804 16.0425 10.7631 16.12 10.7222L16.1356 10.7145C16.2606 10.6529 16.3825 10.5928 16.5202 10.5395C16.5819 10.5132 16.6422 10.4869 16.7067 10.4621C16.8545 10.4066 17.0023 10.3525 17.1572 10.3057L17.3567 10.2517C17.48 10.2181 17.6063 10.1859 17.7354 10.1596C17.8028 10.145 17.8746 10.1304 17.9463 10.1187C18.0783 10.0953 18.2074 10.0763 18.3509 10.0603C18.414 10.053 18.4771 10.0369 18.5403 10.0369C18.7425 10.0208 18.9362 10.0077 19.1486 10.0077C19.3609 10.0077 19.5718 10.0194 19.7798 10.0383C19.8415 10.0442 19.9161 10.0559 19.985 10.0646C20.1227 10.0822 20.259 10.0997 20.3953 10.1246C20.4742 10.1377 20.5517 10.1582 20.6291 10.1772C20.7511 10.202 20.8702 10.2312 20.9907 10.2648C21.0696 10.2867 21.1499 10.313 21.2288 10.3393C21.3422 10.3744 21.4526 10.4153 21.5631 10.4562L21.5813 10.4633C21.6537 10.4915 21.7242 10.5188 21.7984 10.5512C21.9046 10.597 22.0093 10.6457 22.1126 10.6973C22.1915 10.7324 22.2618 10.7719 22.335 10.8098C22.4368 10.8654 22.5373 10.9238 22.6362 10.9837C22.7051 11.0261 22.774 11.067 22.8414 11.1108C22.9418 11.1766 23.038 11.2497 23.1355 11.3227C23.1958 11.3665 23.256 11.4089 23.3148 11.4557C23.4239 11.5433 23.5257 11.6369 23.629 11.7289C23.6706 11.764 23.7108 11.799 23.751 11.837C23.8893 11.9684 24.021 12.1069 24.1455 12.252C24.1828 12.2958 24.2173 12.3426 24.2531 12.3864C24.3378 12.4887 24.4224 12.5939 24.5013 12.7035C24.5472 12.7663 24.5874 12.8306 24.6304 12.8949C24.6936 12.9928 24.7567 13.0863 24.8155 13.1871C24.8585 13.2573 24.8958 13.3318 24.936 13.4034C24.9819 13.4998 25.0451 13.6167 25.0795 13.6956C25.1139 13.7745 25.1484 13.8534 25.1799 13.9309C25.2215 14.0317 25.2603 14.1325 25.2961 14.2348C25.3248 14.3137 25.3435 14.3824 25.375 14.4788C25.4066 14.5752 25.431 14.6717 25.4554 14.771L25.464 14.7959C25.4826 14.8806 25.5027 14.9639 25.5199 15.0487C25.7396 16.1228 25.6514 17.2386 25.266 18.2632C25.88 17.2831 26.2471 16.164 26.3348 15.0048C26.562 14.9788 26.7905 14.9666 27.0192 14.9683C29.867 15.0136 32.1639 17.2842 32.128 19.9903C32.0922 22.6964 29.7823 24.8881 26.9345 24.8881H24.3693C21.9663 24.8881 20.137 26.8446 20.3307 29.067C20.5947 33.9692 22.6291 36.4678 24.0752 37.6367C24.423 37.9353 24.8056 38.189 25.2143 38.3922C25.3198 38.4467 25.428 38.4955 25.5386 38.5383Z" fill="black"/>
</svg>
