<svg width="202" height="184" viewBox="0 0 202 184" fill="none" xmlns="http://www.w3.org/2000/svg">
<path d="M101.374 154.163C99.469 154.163 97.8589 152.929 96.0097 152.803C93.0355 150.688 89.3442 150.61 86.0676 149.348C86.6864 148.643 86.2294 148.213 85.6317 148.305C83.6982 148.615 82.1162 147.53 80.3162 147.234C78.91 145.746 76.9834 145.739 75.2046 145.767C72.3445 145.789 69.4874 145.577 66.6617 145.133L62.7946 144.576C61.1704 143.709 59.279 143.667 57.5845 143.469C53.9635 143.039 50.6026 141.735 47.0378 141.143C43.6699 139.24 39.8942 138.528 36.245 137.435C34.3326 136.209 31.8928 136.293 30.0295 134.947C28.6795 133.396 27.1116 131.916 28.2999 129.554C28.785 128.588 27.6741 127.214 29.0803 126.495C28.8597 126.117 28.5274 125.817 28.1294 125.636C27.7314 125.456 27.2873 125.403 26.8585 125.487C22.5695 126.558 18.161 126.777 13.8228 127.503L10.5463 127.601C7.93067 126.896 5.30806 128.067 2.67138 127.538C1.7503 127.355 1.72218 127.08 1.96827 126.333C3.7823 120.228 7.59317 115.484 12.1704 110.965C9.13299 109.076 6.97443 106.165 4.54166 103.528C2.62216 101.519 1.40578 99.0307 0.287827 96.5846C-0.584033 94.7236 0.61829 93.5816 2.63623 93.5182C7.55802 93.3772 12.4798 93.6803 17.4016 92.8132C21.8139 91.891 26.3034 91.3906 30.81 91.3188C32.0545 91.3188 32.9685 92.1506 34.1357 92.2281C35.3029 95.2875 35.6263 98.502 35.8583 101.738C35.6966 102.443 35.788 103.147 36.5614 103.436C37.7708 103.888 39.0294 104.226 40.2458 104.67C42.0879 105.375 41.9965 104.282 41.7856 103.042C41.5746 101.801 41.3778 100.511 41.1809 99.2492C41.884 96.6621 41.4551 94.0046 41.652 91.3822C42.1863 90.9452 41.9684 90.5152 41.652 90.0781C41.877 89.1194 42.8402 88.2523 42.0387 87.1527C42.6293 83.7831 43.1637 80.4206 44.5418 77.2202C45.2097 75.6835 46.4472 74.4499 46.7496 72.751L47.4527 72.3492C47.6566 71.9756 48.9503 71.6443 47.5089 71.1931C48.3436 70.3981 49.0044 69.4379 49.4495 68.3734C50.9964 67.2878 50.6026 65.4832 50.926 64.0169C51.4167 62.0493 51.3473 59.9833 50.7259 58.0532C50.1045 56.1231 48.9559 54.4063 47.4105 53.0976C47.073 51.6878 45.6808 51.0745 44.823 50.0805C42.2707 47.1269 42.1371 46.2598 44.584 43.2286C44.79 42.9429 44.9601 42.6327 45.0902 42.3052C45.2368 42.3173 45.3835 42.283 45.5096 42.2071C45.6358 42.1312 45.735 42.0176 45.7933 41.8822C46.0886 40.705 47.6425 40.564 47.9027 39.3374V39.133L47.9448 38.6818H48.7112C48.9362 38.8792 49.0417 38.7664 49.105 38.5338C49.0945 38.4071 49.0945 38.2798 49.105 38.1531L49.5339 37.5399C49.6323 37.3213 49.7308 37.0958 49.8362 36.8772C50.2229 36.7715 50.3214 36.4684 50.3425 36.1089L51.1862 35.2559L51.2565 34.7977C51.8753 34.3395 53.5909 34.9598 52.8456 33.1693C52.972 33.1764 53.0988 33.1764 53.2252 33.1693L53.6471 33.2398C53.9846 33.6628 54.4557 33.5782 54.9057 33.5641L55.3064 33.691L55.6158 33.987L55.7072 34.0787V34.2056C55.8267 34.8118 56.4947 34.692 56.783 34.9951C57.8798 36.1441 60.0032 36.6164 59.49 38.8863C61.8032 37.554 62.3024 37.6808 62.8157 39.7604C62.42 39.9687 62.0086 40.1455 61.5852 40.2891C59.0611 40.8953 57.6548 38.7805 55.7846 37.8571C54.4416 37.1521 53.2112 37.3636 52.7401 38.9356C52.6482 39.2954 52.4249 39.6074 52.1143 39.8097C50.9401 39.6687 50.2511 40.0635 50.3636 41.3676C50.1079 41.3807 49.8621 41.4703 49.6578 41.6248C49.4535 41.7794 49.3001 41.9918 49.2175 42.2347C48.6761 42.4955 48.7183 43.003 48.7042 43.4824C48.648 43.6375 48.5847 43.7926 48.5214 43.9477C48.4682 43.9653 48.4207 43.9968 48.3836 44.0389C48.3466 44.081 48.3213 44.1322 48.3105 44.1873C46.9605 45.1178 46.5527 46.3021 47.6074 47.6485C48.5706 48.868 49.7167 49.8408 50.5745 51.2648C51.4323 52.6888 52.6838 53.9999 53.633 55.4521C54.069 56.157 55.0393 56.7703 54.6947 57.8065C53.9916 59.7733 54.9479 61.7118 54.8283 63.7138C54.8034 65.69 54.2862 67.6285 53.3237 69.3532C51.2143 72.8356 49.0347 76.2615 47.4808 80.0399C46.8579 81.2658 46.3857 82.563 46.0746 83.9029C45.8496 85.6582 45.7441 87.5122 45.6879 89.3238C45.5683 93.1868 45.1324 97.0357 45.3011 100.92C45.3433 101.9 45.4277 102.428 46.7074 102.64C48.4114 103.025 50.0636 103.612 51.6292 104.388C52.0088 104.55 52.1354 104.903 52.6979 104.67C53.4362 104.353 53.1127 103.824 53.0494 103.465C51.9667 97.9099 52.6698 92.3903 53.3096 86.8707C53.3832 85.9322 53.8142 85.058 54.5132 84.4294C55.2122 83.8007 56.1256 83.4658 57.0642 83.4941C57.3666 83.4941 57.5916 83.8677 57.9783 83.5434C59.8275 81.9785 62.197 81.4921 64.3766 80.6109C69.1156 78.6583 74.1288 77.4106 78.7834 75.3874C77.3772 71.9544 76.1467 68.4862 78.0029 64.8135C74.7827 64.2989 71.6749 63.7702 68.6304 63.3402C65.9727 62.9736 63.4766 61.7259 60.7345 61.8599C59.9048 61.9022 59.7993 61.444 59.6236 60.7602C59.272 59.4349 59.5532 58.011 58.9204 56.7421C57.5142 53.8448 56.1994 50.8912 54.3221 48.283C53.2182 46.7321 53.8721 45.569 54.8916 44.4411C55.9111 43.3132 57.1064 42.7775 58.6954 43.4824C62.5766 45.1672 66.7953 45.999 70.5078 47.9798C73.0038 49.3051 75.7459 49.0866 78.2842 48.9315C83.7614 48.5931 89.3231 48.2266 94.4558 45.999C96.5651 45.0826 99.1245 45.0755 100.784 42.9749C101.199 42.4462 102.668 42.4321 103.273 43.0383C104.56 44.3283 106.085 44.7795 107.745 45.3928C113.37 47.5075 119.037 49.0795 125.083 48.9597C127.087 48.9174 129.084 48.7341 131.081 48.7271C133.338 48.7271 134.8 46.852 136.966 46.429C139.659 45.9073 142.591 45.8862 144.834 43.6516C146.015 42.4955 147.829 42.9819 148.898 44.2085C149.868 45.3152 150.782 46.8097 149.418 48.2477C148.896 48.9574 148.464 49.7293 148.131 50.5458C146.556 53.2879 144.848 56.0301 144.44 59.2728C144.356 59.9777 144.201 59.7733 143.646 59.8508C141.364 60.1313 139.113 60.6269 136.924 61.3312C133.591 62.4802 130.076 63.453 126.623 64.3553C125.358 64.6725 125.034 65.0602 125.104 66.3784C125.259 69.0642 125.484 71.8416 124.085 74.3159C123.466 75.4015 123.818 75.5355 124.788 76.0923C126.335 76.9947 128.065 76.332 129.492 76.9947C131.559 77.9393 133.802 78.2353 135.883 79.046C139.258 80.3572 142.978 79.8778 146.374 81.1114C147.908 81.7857 149.34 82.6732 150.628 83.7479C151.535 84.4034 151.176 85.7146 151.281 86.7861C151.591 89.9371 152.027 93.067 152.245 96.2392C152.402 98.6162 152.432 101 152.336 103.38C151.802 103.866 152.02 104.494 152.006 105.072C151.992 105.65 151.956 106.158 151.928 106.7L151.598 107.173C152.174 107.617 150.192 108.434 151.83 108.716L152.399 108.456L153.883 108.308C154.06 108.362 154.25 108.364 154.429 108.313C154.607 108.262 154.767 108.159 154.888 108.019C156.196 107.546 157.616 107.201 157.771 105.438C158.587 104.684 158.081 103.718 158.165 102.844C158.162 102.728 158.138 102.614 158.095 102.506C158.172 101.801 158.242 101.138 158.313 100.455L158.566 99.8836V99.792C158.734 99.3338 158.91 98.8756 159.086 98.3822L159.227 98.1636L159.009 98.3046C158.362 97.9451 158.875 97.0992 158.306 96.6974C158.306 96.2815 158.306 95.8656 158.306 95.4426C158.931 95.4003 159.009 94.9914 159.009 94.4769C159.135 93.9552 159.29 93.4406 159.395 92.9119C159.684 91.5021 157.806 89.9371 159.613 88.5766L158.643 88.3722L158.186 87.9422C157.623 87.2372 158.186 86.5323 158.228 85.7851C158.229 85.6863 158.208 85.5885 158.169 85.498C158.129 85.4075 158.071 85.3264 157.998 85.26C157.925 85.1935 157.839 85.1431 157.745 85.1122C157.652 85.0812 157.553 85.0703 157.455 85.0802C157.49 84.2131 157.806 83.2897 156.984 82.5777L156.752 82.197C156.189 80.2937 155.929 78.2706 154.509 76.7197C154.504 76.6537 154.485 76.5896 154.452 76.5322C154.419 76.4748 154.373 76.4256 154.319 76.3884L154.087 75.9232C153.981 75.6553 153.876 75.3804 153.777 75.1125C153.735 74.9786 153.7 74.8446 153.658 74.7036C153.616 74.5627 153.433 74.4076 153.327 74.2525L153.278 74.189L152.892 73.4841C152.737 73.2021 152.575 72.9272 152.42 72.6523L152.181 71.8416C150.993 71.2001 150.529 69.9947 149.931 68.895L149.657 68.5003C149.474 68.1337 149.228 67.7953 149.481 67.3371C149.432 67.0411 149.376 66.745 149.327 66.456L149.123 65.9273C149.053 65.3704 149.285 64.7148 148.652 64.3201C148.773 64.19 148.855 64.0289 148.89 63.8546C148.925 63.6803 148.91 63.4998 148.849 63.3332C148.785 63.0935 148.715 62.8609 148.652 62.6282C151.246 62.2899 148.546 60.9223 149.123 60.1962C149.123 59.4913 149.081 58.7864 149.053 58.0814C149.657 58.0814 150.332 58.0814 150.459 57.3765C150.585 56.6716 149.847 56.9818 149.495 56.8408C149.678 55.5508 149.728 55.4803 150.515 55.586C150.712 55.5836 150.909 55.5552 151.099 55.5014C151.31 55.4239 151.274 55.2829 151.042 55.3111C150.854 55.3599 150.672 55.4309 150.501 55.5226V54.9939L150.796 54.2889L150.916 53.8801L151.169 53.584C151.872 52.576 152.42 51.4692 153.574 50.9123C154.565 50.5528 155.205 49.9748 154.86 48.7976L156.611 46.8379C156.667 46.8379 156.773 46.7885 156.773 46.7533C156.771 46.6466 156.76 46.5404 156.738 46.436C156.681 45.98 156.526 45.5418 156.284 45.1521C156.041 44.7624 155.716 44.4307 155.331 44.1803C155.319 44.1257 155.293 44.0752 155.257 44.0333C155.22 43.9913 155.173 43.9595 155.12 43.9406L154.938 43.4683C154.938 42.996 154.938 42.4955 154.431 42.2276C154.346 41.9799 154.187 41.7642 153.976 41.6093C153.765 41.4543 153.512 41.3676 153.25 41.3606C153.285 39.8802 152.498 39.3022 151.141 39.3797C150.403 37.2649 149.242 36.849 147.499 38.1038L147.084 38.414L145.874 38.6113C145.46 37.7725 144.349 38.4492 143.948 37.7795C143.245 36.6305 145.558 37.3777 145.01 36.2216C145.01 36.1723 145.01 36.0877 145.01 36.0243C145.959 35.7564 146.205 34.5228 147.253 34.3959H147.337C147.488 34.4054 147.637 34.3659 147.764 34.2834C147.891 34.2009 147.987 34.0796 148.04 33.9377L148.335 33.6487L148.736 33.5218L149.165 33.2187L150.325 33.1411C150.206 34.7131 151.366 34.3183 152.231 34.3888C152.28 34.6779 152.336 34.9739 152.385 35.27C152.913 35.9749 152.8 36.8702 152.807 37.702L152.645 37.8782L152.821 37.709L154.502 38.5197C154.577 38.7793 154.737 39.0059 154.957 39.1631C155.176 39.3204 155.442 39.3991 155.711 39.3868V39.7886C155.584 41.0222 156.414 41.3112 157.363 41.4522L158.207 42.0162C158.225 42.0789 158.258 42.1362 158.304 42.1829C158.349 42.2297 158.405 42.2644 158.467 42.284C158.538 42.5519 158.601 42.8268 158.664 43.1017C157.863 44.4411 159.107 43.7503 159.48 43.9265L159.803 44.3847L160.225 44.8147C160.235 44.9415 160.258 45.0667 160.295 45.1883L160.626 45.6395C161.076 46.2175 159.986 46.3444 160.281 46.9224C160.281 47.1339 160.345 47.3454 160.373 47.5569C160.295 47.9516 160.246 48.3605 159.817 48.5579L159.402 49.1148C158.733 50.2587 157.759 51.1934 156.59 51.8146C154.699 52.3433 153.89 53.725 153.658 55.5649L153.257 56.0019C152.926 56.2428 152.672 56.575 152.526 56.9579C152.38 57.3409 152.348 57.7582 152.435 58.159C152.435 58.4198 152.435 58.6806 152.435 58.9415C151.879 59.3503 151.928 59.7662 152.435 60.1821L152.357 62.2617C151.928 62.311 151.443 62.4309 151.45 62.9032C151.457 63.3755 151.949 63.4812 152.378 63.5164L152.449 63.9464L152.695 64.3201C152.695 64.6161 152.758 64.9122 152.786 65.2083C152.547 65.6786 152.338 66.1636 152.16 66.6604C151.64 68.4086 152.16 68.9021 154.038 68.5144L154.108 68.5708C153.998 69.1398 154.052 69.7283 154.264 70.2676C154.476 70.8069 154.836 71.2746 155.303 71.6161L155.781 72.2364C155.781 72.7862 155.613 73.5546 155.894 73.8507C157.188 75.1759 156.154 75.8668 155.261 76.5717C156.365 77.6079 157.511 76.8819 158.629 76.8184L159.093 77.6502C159.269 78.3552 158.587 79.4478 159.909 79.765C159.951 80.0258 159.986 80.2937 160.021 80.5616C159.445 81.8868 160.197 83.1628 160.232 84.4669C160.232 85.3551 160.316 86.4548 161.441 86.8918C162.018 87.6673 160.211 88.5837 161.589 89.3168C161.709 90.5645 161.195 91.8686 161.927 93.06L162.095 93.497H161.934C161.665 94.0102 161.525 94.5811 161.525 95.1606C161.525 95.7402 161.665 96.3111 161.934 96.8243L162.025 97.6631C161.624 97.7054 161.005 97.7759 161.09 98.1848C161.161 98.472 161.313 98.7329 161.527 98.9365C161.741 99.1401 162.009 99.278 162.299 99.3338C162.299 99.6087 162.299 99.8837 162.299 100.159C161.709 100.3 161.441 100.532 162.067 101.004C162.032 101.554 161.99 102.111 161.948 102.661L161.659 103.162C162.06 103.817 160.991 105.502 162.777 105.114C165.128 104.713 167.38 103.866 169.415 102.619C169.415 101.209 169.9 99.7991 169.155 98.4597C169.19 96.9512 168.676 95.4003 169.548 93.9693C170.624 91.643 172.642 91.2976 174.885 91.4245C178.214 91.6354 181.527 92.0474 184.806 92.6581C188.874 93.4189 193.008 93.7591 197.146 93.6732C198.383 93.6732 199.388 94.7518 200.83 94.1103C201.364 93.8636 202.384 95.1677 201.596 95.8938C199.402 97.924 198.875 101.033 196.829 103.049C195.198 104.67 194.108 106.806 191.992 107.983C190.86 108.618 190.803 109.457 191.717 110.662C194.39 114.21 196.803 117.946 198.938 121.842C200.225 124.147 197.947 127.298 194.72 127.573C190.698 127.912 186.732 127.052 182.767 126.481C181.058 126.227 179.286 126.199 177.578 125.621C176.242 125.169 176.073 126.065 175.94 127.27C175.743 129.004 176.896 130.492 176.432 132.162C175.758 133.709 174.61 135 173.155 135.849C171.426 136.554 169.52 136.695 167.798 137.52C165.954 138.368 163.977 138.886 161.955 139.049C160.991 139.148 160.422 140.149 159.325 140.389C156.998 141.013 154.705 141.759 152.456 142.623C149.186 143.159 145.832 143.406 142.682 144.343C140.925 144.865 139.047 144.562 137.416 145.45L127.151 146.204C126.982 146.106 126.806 145.915 126.651 145.93C123.508 146.176 121.076 148.94 117.694 148.46C117.187 148.39 116.991 149.045 117.532 149.496C116.027 149.496 114.811 150.42 113.419 150.794C111.38 150.934 109.615 151.837 107.794 152.647C105.727 153.423 103.744 154.6 101.374 154.163ZM159.859 104.614L159.325 104.783L159.423 104.931L159.873 104.628L159.965 104.437L159.859 104.614ZM149.102 111.522C148.3 111.966 147.267 111.296 146.535 112.058C144.693 112.763 142.71 112.812 140.819 113.122C133.183 114.398 125.421 114.419 117.715 115.033C115.331 115.223 112.976 115.568 110.571 115.695C104.041 116.02 97.4975 116.005 90.9684 115.653C87.0731 115.455 83.1075 114.99 79.1912 114.483C76.2311 114.095 73.2569 114.363 70.3038 114.032C65.3328 113.475 60.4603 112.304 55.5385 111.543C52.2706 110.966 49.0507 110.144 45.9058 109.083C40.6254 107.448 35.4224 105.558 29.9451 103.662V107.504C29.3897 107.546 29.1506 106.665 28.5389 107.003C28.4052 107.123 28.3222 107.29 28.3069 107.469C29.1155 108.089 28.8553 109.788 30.4162 109.583C30.5428 110.676 29.9451 111.769 30.0506 112.763C30.5906 118.053 30.8254 123.37 30.7537 128.687C29.1225 129.843 30.3037 130.506 31.1967 131.225C30.2826 133.304 32.2443 133.276 33.1865 133.621C36.3646 134.806 39.634 135.736 42.8473 136.822C45.6597 137.774 48.2823 139.183 51.1862 139.804C53.4432 140.29 55.7213 140.699 57.9994 141.094C63.1672 141.996 68.2719 143.251 73.5733 143.3C76.9018 143.367 80.2247 143.602 83.5294 144.005C86.8763 144.41 90.2415 144.645 93.6121 144.71C96.5862 144.71 99.5745 144.506 102.513 144.71C107.789 145.193 113.103 145.055 118.348 144.301C125.175 143.23 132.086 143.758 138.864 142.398C142.38 141.693 145.896 141.044 149.411 140.283C149.732 140.411 150.081 140.45 150.422 140.394C150.763 140.338 151.082 140.19 151.345 139.966L152.308 139.825C152.723 139.916 153.138 140.001 153.384 139.515L153.918 139.451C154.253 139.546 154.609 139.536 154.938 139.423C155.267 139.31 155.554 139.098 155.76 138.817C157.427 138.471 158.91 137.569 160.485 137.097C163.952 136.053 167.355 134.848 170.779 133.699C173.247 132.867 174.175 131.923 173.704 129.568C172.797 125.085 174.168 120.679 173.795 116.21C173.64 114.363 173.415 112.135 174.055 110.528C175.004 108.117 173.879 106.017 174.379 103.296C173.38 104.261 172.347 104 171.728 104.762C169.78 104.762 168.17 105.883 166.384 106.418C164.908 106.862 163.431 107.525 161.814 107.06C161.034 107.06 160.689 107.525 160.619 108.251L153.278 110.923C151.992 110.577 150.867 111.867 149.559 111.282L149.102 111.522ZM183.104 123.717C183.483 124.009 183.942 124.176 184.419 124.197C187.077 124.436 189.728 124.711 192.371 125.043C194.031 125.254 195.142 124.14 196.449 123.499C196.773 123.337 196.815 122.963 196.569 122.611C194.86 120.101 193.356 117.45 191.732 114.892C190.965 113.686 190.121 112.213 188.539 111.649C187.077 111.134 186.641 109.464 187.836 108.533C189.814 106.951 191.636 105.183 193.278 103.253C194.734 101.597 196.478 100.032 197.061 97.7336C197.314 96.7326 197.23 95.5695 195.978 95.9713C193.981 96.6128 192.189 95.788 190.311 95.6964C187.358 95.5624 184.426 95.0479 181.48 94.6954C179.324 94.0666 177.089 93.7508 174.843 93.7578C173.936 93.7578 172.733 93.2855 172.375 94.2442C171.862 95.5201 173.619 95.3651 174.076 96.1405C174.175 96.3026 174.618 96.211 174.836 96.3449C175.396 96.6678 175.88 97.1095 176.253 97.6391C176.626 98.1687 176.879 98.7736 176.994 99.4113C177.472 102.788 176.868 106.2 177.051 109.633C177.302 113.195 177.096 116.775 176.439 120.284C176.094 121.955 176.376 123.167 178.625 123.273C180.102 123.372 181.614 123.569 183.104 123.717ZM27.5967 98.3892C28.4686 97.9662 28.6022 96.923 29.2842 96.3379C30.0647 96.4788 30.5006 95.8938 31.0912 95.5765C31.6818 95.2593 32.2865 94.9492 32.0826 94.2583C31.8787 93.5675 31.0068 93.5534 30.4303 93.6168C27.9848 93.7779 25.5489 94.0626 23.132 94.4698C17.6221 95.5343 12.0147 96.0069 6.40491 95.8797C4.13386 95.8303 3.262 97.2895 4.29557 99.4043C6.25726 103.274 9.53377 105.988 12.7329 108.688C14.322 110.021 14.7931 111.12 13.436 112.643C10.5463 115.928 7.49474 119.142 5.40649 123.097C5.18853 123.506 4.53463 123.576 4.97056 124.366C5.07564 124.609 5.24405 124.819 5.45811 124.974C5.67216 125.129 5.92393 125.223 6.18695 125.247C7.91661 125.127 9.70251 125.395 11.3408 125.247C16.593 124.753 21.7961 123.71 27.0272 123.005C27.9342 122.885 27.9905 122.561 27.9553 121.891C27.7374 117.965 27.6389 114.017 27.2522 110.105C27.1327 108.879 28.2577 107.99 27.9553 107.151C26.8585 104.219 27.6319 101.301 27.5967 98.3892ZM85.6809 80.766C85.9973 78.9825 85.1888 77.763 83.0513 78.045C81.9333 78.2001 81.0193 77.1145 79.7537 78.0027C77.5907 79.5624 75.5244 81.2527 73.5663 83.0641C68.2695 87.8153 62.9985 92.5947 57.7533 97.4023C56.4103 98.6289 56.6002 101.724 58.0416 101.893C60.2423 102.139 61.9087 103.761 64.1797 103.888C65.3469 103.951 66.2891 103.274 67.5547 103.57C72.9265 104.825 72.9616 104.712 76.9834 100.842C78.0803 99.792 79.0928 98.6641 80.2388 97.6561C82.8685 95.3157 85.1255 92.8485 84.4575 88.9079C84.4716 88.3565 84.5761 87.8111 84.7669 87.2936C85.2538 85.1354 85.5596 82.9401 85.6809 80.7308V80.766ZM85.8427 65.3845C81.1318 65.307 80.0209 66.1881 80.2177 69.7198C80.3092 71.3059 81.5748 72.4761 81.5396 74.1045C81.5396 74.5274 82.1583 74.8094 82.6927 74.76C84.0989 74.5979 85.3856 75.1407 86.7426 75.2817C89.5973 75.5848 92.466 75.324 95.3277 75.3733C99.3916 75.4438 103.477 75.6341 107.548 75.183C110.551 74.7245 113.576 74.428 116.611 74.2948C120.661 74.2948 121.35 73.5899 121.758 69.5929C122.144 65.8216 121.104 64.7571 117.265 64.7712C113.862 64.7712 110.487 65.3281 107.063 65.1448C104.443 64.9003 101.811 64.8061 99.1807 64.8629C94.73 65.1237 90.2934 65.4127 85.8427 65.3493V65.3845ZM113.777 61.451C114.572 61.6061 115.69 61.9304 115.423 60.9576C115.008 59.4843 114.72 57.7924 114.016 56.587C112.512 54.1621 111.07 51.6525 108.342 50.0805C104.004 47.5639 99.694 47.9657 95.5175 49.8127C91.341 51.6596 88.9645 55.1701 87.0801 59.1388C86.6512 60.0411 85.6106 61.0633 85.8075 61.7612C86.0676 62.7128 87.502 62.0079 88.4231 62.2405C89.0489 62.3956 89.1824 63.6504 90.0191 62.9454C91.3762 61.8246 93.0425 62.0713 94.5894 61.9303C97.4018 61.6625 100.271 62.1841 103.027 61.9303C106.669 61.5426 110.388 62.593 113.777 61.4158V61.451ZM86.2153 107.159C86.9289 106.618 87.6916 106.146 88.4934 105.749C92.9582 104.036 96.544 100.814 100.728 98.6007C104.911 96.3872 108.68 93.0881 112.378 89.9794C113.784 88.8022 115.071 87.0469 114.171 84.7277C113.734 83.3578 113.384 81.9617 113.123 80.5475C110.515 83.628 107.288 85.6723 104.531 88.2594C103.568 89.1617 102.464 90.2896 100.96 90.3319C100.123 90.3319 99.9471 90.2261 100.06 90.8676C100.193 91.7065 99.5112 91.8757 99.1666 92.0308C95.5245 93.7296 92.5082 96.6057 88.5356 97.6702C88.0343 97.7811 87.587 98.0633 87.2702 98.4683C86.9534 98.8733 86.7868 99.3761 86.7989 99.8907C86.5669 102.224 85.8708 104.522 86.2153 107.159ZM113.201 78.186C110.852 77.8829 108.884 78.8909 106.978 78.5737C104.623 78.186 103.076 79.1588 101.452 80.5686C98.5198 83.1134 95.6933 85.764 91.8824 87.1597C90.7433 87.5756 88.6551 87.8646 88.4934 89.352C88.2684 91.3117 87.7411 93.2362 87.7129 95.2311C87.7129 96.0488 87.9942 96.0488 88.5075 95.8444C89.2106 95.5554 89.9137 95.1395 90.6168 94.8505C93.8652 93.5322 96.5089 91.213 99.476 89.4789C104.623 86.4971 108.884 82.6482 113.201 78.186ZM88.2332 107.321L96.7339 107.913C97.2782 107.978 97.8299 107.885 98.3229 107.645C103.655 104.899 108.725 101.669 113.468 97.9944C116.168 95.8797 115.964 93.6098 115.416 90.9452C115.212 89.9583 114.663 89.7045 114.101 90.1838C108.075 95.3933 101.339 99.5946 94.6527 103.866C92.7543 105.1 90.7012 106.031 88.2614 107.321H88.2332ZM116.477 97.5785C111.696 101.907 106.774 106.038 100.503 108.272C103.027 108.272 105.424 108.533 107.857 108.054C109.559 107.708 111.408 108.103 112.744 106.411C113.447 105.481 114.769 105.001 115.556 104.113C116.196 103.408 117.518 103.232 117.476 101.998C117.469 100.497 117.609 98.9461 116.505 97.5785H116.477ZM131.243 59.2869C133.795 58.8287 136.34 58.5185 138.668 57.4259C139.631 56.9677 141.121 57.3695 141.48 55.9032C141.995 54.1423 142.845 52.4979 143.983 51.0604C144.697 50.1003 145.113 48.9502 145.178 47.7543C139.132 49.9748 135.539 54.9939 131.292 59.2869H131.243ZM101.262 78.623C100.088 77.3824 98.9768 78.9121 97.6901 78.7781C95.0464 78.5032 92.3675 78.5173 89.7028 78.4257C88.866 78.4257 88.6832 79.0248 89.1332 79.476C90.4551 80.7942 89.9348 81.8375 89.1332 83.2051C88.8961 83.6593 88.7848 84.1689 88.8108 84.6809C88.8367 85.1929 88.9991 85.6886 89.2809 86.1164C89.759 86.7368 90.7293 86.3138 91.2637 85.9543C94.7732 83.7394 98.1299 81.2901 101.311 78.623H101.262ZM118.432 85.3057C120.309 83.4659 122.046 81.7318 123.825 80.0399C124.662 79.2434 124.373 78.6301 123.466 78.4891C121.533 78.1155 122.327 77.326 123.136 76.332C121.026 77.192 119.065 78.0379 116.632 77.5093C117.778 80.2091 117.912 82.7187 118.432 85.3057ZM115.205 51.9274C116.316 54.1691 117.666 56.2557 118.059 59.0613C120.288 56.735 122.165 54.4581 125.231 52.6042C121.877 52.6361 118.525 52.4123 115.205 51.9345V51.9274ZM118.123 103.782L116.196 105.594L114.178 107.49C119.065 106.989 119.065 106.989 118.123 103.782Z" fill="black"/>
<path d="M144.94 36.0287C144.94 36.0921 144.94 36.1767 144.94 36.2261C145.489 37.3822 143.19 36.635 143.879 37.7841C144.279 38.4538 145.39 37.7841 145.805 38.6159C145.158 40.6886 143.485 40.2515 141.966 40.1951C141.305 40.1951 140.215 39.4055 140.469 41.0692C140.469 41.2455 140.096 42.1196 139.702 41.6614C138.901 40.7238 137.909 41.2525 137.424 41.5416C135.835 42.4862 134.049 42.8458 132.369 43.3463C130.555 43.8891 128.438 43.6847 126.61 44.0513C123.636 44.5941 121.091 43.6847 118.335 43.3463C117.153 43.1912 116.816 42.035 115.438 42.2042C112.393 42.592 110.122 40.0188 107.268 39.335C106.345 39.1696 105.511 38.6827 104.912 37.9603C103.506 36.1415 101.397 36.0287 99.6879 37.5796C98.9445 38.1482 98.1515 38.6484 97.3184 39.0742C95.7364 40.0329 93.8029 39.8637 92.3193 40.9071C89.7319 42.7612 86.5889 42.9586 83.7343 43.9385C80.8797 44.9184 77.8633 44.5941 74.9243 43.9385C74.2634 43.7975 73.6798 44.4249 72.9626 43.9385C71.5564 42.9374 69.672 42.592 68.1533 42.2959C66.6346 41.9998 65.608 40.8436 64.0963 41.1115C63.2175 41.2666 63.2315 41.2384 63.1401 40.4771C63.0668 40.2264 62.9553 39.9886 62.8096 39.7721C62.2612 37.6572 61.7972 37.5655 59.4839 38.8979C59.9972 36.6279 57.8738 36.1556 56.7769 35.0065C56.4887 34.7033 55.8207 34.8232 55.7012 34.2169C58.2464 35.0558 60.3417 36.7266 62.6198 38.052C63.0909 38.3269 63.576 38.8768 64.026 38.8345C67.6471 38.4749 70.8462 40.2867 74.2915 40.745C75.8454 40.9564 77.4063 41.3653 78.9953 41.0128C81.8078 40.9635 84.3812 39.906 87.0811 39.3844C87.4397 39.3139 88.0866 39.2786 88.1499 38.623C89.7775 38.2227 91.3237 37.543 92.7201 36.6138C92.917 36.5433 93.1209 36.494 93.3037 36.4094C97.3255 34.5271 101.122 31.8905 105.96 32.807C106.902 33.9138 107.282 35.6269 109.082 35.8242C111.05 37.1919 113.455 37.6783 115.473 38.9261C116.583 39.6872 117.938 40.0041 119.27 39.8144C120.894 40.3643 122.483 41.0481 124.241 41.0269C125.956 41.7319 127.63 40.9635 129.268 40.7309C131.75 40.3784 134.155 39.1306 136.559 38.905C138.725 38.7076 140.778 38.7428 142.529 37.354C143.274 36.8042 143.717 35.648 144.94 36.0287Z" fill="black"/>
<path d="M46.7706 72.7241C46.4683 74.4231 45.2308 75.6568 44.5628 77.1936C43.1566 80.3942 42.6504 83.7569 42.0597 87.1267C36.2239 85.9282 30.3881 84.7157 24.7843 82.643C21.9718 81.6208 19.2156 80.7185 16.3469 79.9712C15.0581 79.5189 13.8655 78.8278 12.8313 77.9338C11.7063 77.0949 12.072 76.0586 13.5696 75.5863C15.9368 74.8686 18.3835 74.4472 20.8538 74.3314C28.8131 73.8661 36.7442 73.0977 44.6613 72.2165C45.3784 72.1672 46.187 72.0121 46.7706 72.7241Z" fill="#AECDE9"/>
<path d="M105.925 32.7418C101.109 31.8254 97.312 34.4618 93.2691 36.344C93.0863 36.4286 92.8824 36.4779 92.6855 36.5484C92.9035 32.058 94.0004 27.7086 95.1816 23.4297C96.8737 16.8562 98.0839 10.1674 98.8026 3.41681C98.9784 2.00696 100.096 1.40072 100.469 0.251691C100.589 -0.114871 101.067 -0.0514274 101.313 0.251691C101.819 0.956619 102.951 0.914323 103 2.13385C103.099 4.5447 103.408 6.94145 103.605 9.34525C103.921 13.3069 104.252 17.2757 104.674 21.2233C104.955 23.8809 104.758 26.6442 105.651 29.2242C106.073 30.4155 105.841 31.5787 105.925 32.7418Z" fill="#AECDE9"/>
<path d="M66.6576 145.124C69.4833 145.568 72.3404 145.78 75.2005 145.758C76.9793 145.758 78.8988 145.758 80.3121 147.225C78.7231 150.27 76.22 152.554 73.731 154.76C68.5842 159.321 63.2967 163.72 58.0304 168.154C56.4555 169.479 54.7539 170.649 53.1086 171.904C52.6375 172.264 52.1665 172.553 51.6251 172.13C51.0837 171.707 51.393 171.15 51.6251 170.649C53.3969 166.744 55.9984 163.339 58.2203 159.709C60.9062 155.324 63.5288 150.904 66.1584 146.485C66.3674 146.048 66.5346 145.592 66.6576 145.124Z" fill="#AECDE9"/>
<path d="M155.71 72.1815L155.232 71.5611C155.492 71.3566 156.118 71.3566 155.654 70.7504C155.091 70.0454 154.578 69.2629 154.037 68.5156L153.966 68.4592C153.418 67.4581 152.785 66.4782 152.982 65.2445C157.573 64.4691 162.172 63.75 166.749 62.8758C168.293 62.5742 169.859 62.3951 171.432 62.3401C176.178 62.185 180.889 61.762 185.614 61.4095C186.26 61.3602 187.336 60.909 187.512 61.9946C187.646 62.8335 186.809 63.1508 186.106 63.4962C180.059 66.443 174.019 69.3898 168.359 73.0768C166.554 74.2239 164.498 74.9134 162.369 75.0859C161.033 75.2128 160.091 76.4113 158.705 76.3901C157.756 74.9379 157.236 73.2037 155.71 72.1815Z" fill="#AECDE9"/>
<path d="M137.371 145.344C139.002 144.456 140.887 144.759 142.637 144.238C145.787 143.3 149.141 143.053 152.411 142.518C157.67 149.038 163.52 155.101 167.935 162.298C168.61 163.251 169.347 164.158 170.143 165.012C170.445 165.392 170.846 165.822 170.396 166.288C170.216 166.457 169.979 166.552 169.732 166.552C169.485 166.552 169.247 166.457 169.067 166.288C165.552 163.828 161.488 162.171 158.113 159.401C155.04 156.877 151.476 155.037 148.136 152.894C145.028 150.899 141.512 149.651 138.58 147.367C138.235 147.148 137.946 146.851 137.736 146.5C137.526 146.149 137.401 145.753 137.371 145.344Z" fill="#AECDE9"/>
<path d="M161.525 89.227C160.119 88.5221 161.954 87.5774 161.377 86.8019C161.323 84.6156 160.845 82.4608 159.971 80.4572C159.971 80.1893 159.901 79.9214 159.859 79.6605L159.816 78.4903C162.27 78.9767 164.738 78.7159 167.185 78.5396C171.185 78.3234 175.193 78.3117 179.194 78.5044C182.71 78.6242 186.225 79.2799 189.741 79.2587C190.426 79.249 191.11 79.332 191.773 79.5055C192.109 79.6043 192.404 79.8093 192.615 80.0901C192.825 80.3709 192.939 80.7123 192.94 81.0634C192.982 81.7261 192.42 81.8953 191.921 82.1844C189.811 83.4181 187.371 83.6859 185.058 84.2993C178.583 86.0053 172.022 87.4152 165.61 89.4244C164.366 89.8192 163.1 90.1294 161.841 90.496C161.708 90.08 162.151 89.5302 161.525 89.227Z" fill="#AECDE9"/>
<path d="M142.489 37.2857C140.703 38.6956 138.685 38.6392 136.52 38.8366C134.115 39.0621 131.71 40.3099 129.228 40.6623C127.59 40.895 125.917 41.6492 124.201 40.9584C130.677 33.0914 138.383 26.5849 146.448 20.438C148.466 18.9083 150.076 16.864 152.298 15.5387C152.881 15.1792 153.345 14.5236 154.076 15.151C154.695 15.6868 154.301 16.2648 154.076 16.8499C152.79 20.156 150.47 22.8418 148.655 25.8377C146.736 29.0028 144.838 32.1821 142.869 35.319C142.515 35.9091 142.38 36.6058 142.489 37.2857Z" fill="#AECDE9"/>
<path d="M101.373 154.159C103.743 154.596 105.725 153.419 107.701 152.538C109.536 151.727 111.301 150.825 113.326 150.684C112.022 158.17 110.335 165.584 108.271 172.896C107.378 175.934 107.659 179.198 106.562 182.201C106.239 183.103 106.084 184.139 104.713 183.984C103.342 183.829 103.018 182.807 103.04 181.764C103.138 176.991 102.217 172.304 102.062 167.552C101.95 163.09 101.331 158.614 101.373 154.159Z" fill="#AECDE9"/>
<path d="M117.489 149.386C116.962 148.935 117.145 148.28 117.651 148.35C121.033 148.829 123.466 146.066 126.609 145.819C126.763 145.819 126.939 145.996 127.108 146.094C127.663 150.324 129.4 154.264 130.673 158.304C132.318 163.544 134.054 168.753 135.883 173.932C136.586 175.927 137.76 177.753 137.992 179.931C138.034 180.396 138.379 180.889 137.844 181.235C137.176 181.672 136.783 181.08 136.494 180.678C133.45 176.371 129.864 172.459 127.523 167.637C125.519 163.325 123.212 159.163 120.618 155.181C119.476 153.305 118.431 151.371 117.489 149.386Z" fill="#AECDE9"/>
<path d="M88.1389 38.561C88.0756 39.2166 87.4357 39.266 87.0701 39.3224C84.3702 39.844 81.7757 40.9014 78.9843 40.9508C76.3758 33.0767 73.7954 25.1956 71.1516 17.3286C70.2587 14.664 69.204 12.0558 68.2619 9.41231C68.0472 8.75927 67.8988 8.08618 67.8189 7.40327C67.7626 6.95212 67.6572 6.37408 68.29 6.18375C68.4954 6.1382 68.7101 6.16186 68.9008 6.25108C69.0915 6.34029 69.2475 6.49007 69.3446 6.67719C72.1571 10.7164 75.5531 14.3398 77.782 18.8301C80.5945 24.4696 83.8006 29.8552 86.9225 35.3184C87.5647 36.2945 87.9804 37.4026 88.1389 38.561Z" fill="#AECDE9"/>
<path d="M47.4812 53.0446C49.0266 54.3532 50.1753 56.07 50.7967 58.0001C51.4181 59.9302 51.4874 61.9963 50.9968 63.9639C50.6733 65.4301 51.0671 67.2347 49.5202 68.3203C48.3671 66.0082 46.0047 65.1411 44.0219 63.8934C37.7923 59.9105 31.3658 56.1885 25.073 52.3537C24.5708 52.0059 24.1002 51.6144 23.6668 51.1835C23.2379 50.8029 22.4152 50.5209 22.9636 49.7737C23.3925 49.1745 24.0535 49.4071 24.6792 49.5763C31.0564 51.3534 37.6136 52.401 44.2258 52.6991C45.3156 52.7414 46.3562 53.3054 47.4812 53.0446Z" fill="#AECDE9"/>
<path d="M119.239 39.7559C117.907 39.9456 116.553 39.6288 115.442 38.8677C113.424 37.62 111.019 37.1336 109.051 35.766C111.343 34.0319 112.672 31.4942 114.191 29.189C117.432 24.2546 120.195 19.031 123.669 14.2234C125.131 12.1932 126.235 9.86698 127.768 7.87909C128.232 7.2658 128.724 6.2789 129.715 6.70186C130.889 7.20236 130.102 8.24565 129.898 8.88009C129.125 11.2909 128.225 13.6736 127.254 16.021C124.053 23.7428 121.375 31.6724 119.239 39.7559Z" fill="#AECDE9"/>
<path d="M152.301 62.2091L152.378 60.1296C152.427 59.7207 153.025 59.3118 152.378 58.8889C152.378 58.6281 152.378 58.3672 152.378 58.1064C152.92 57.4861 153.82 57.0067 153.201 55.9493L153.602 55.5123C154.459 55.6674 154.755 55.2162 154.881 54.4337C154.959 53.9755 154.966 53.2988 155.781 53.4468C156.012 53.417 156.224 53.3011 156.374 53.1222C156.523 52.9433 156.601 52.7144 156.59 52.4811C157.385 52.7285 158.243 52.6758 159.001 52.3331C162.812 50.9232 166.841 50.3593 170.708 49.2032C173.725 48.3079 176.741 47.4409 179.786 46.6584C180.573 46.454 181.543 46.0451 182.071 46.8417C182.732 47.8286 181.803 48.3996 181.128 49.0128C178.717 51.2052 175.876 52.7278 173.043 54.2293C168.437 56.6684 163.79 59.0228 159.079 61.2786C156.969 62.2655 154.994 63.5343 152.673 63.9925C152.571 64.0074 152.466 63.9849 152.378 63.9291L152.308 63.4991L152.301 62.2091Z" fill="#AECDE9"/>
<path d="M86.0688 149.343C89.3453 150.605 93.0366 150.661 96.0108 152.797C94.2038 153.897 93.114 155.681 92.0593 157.394C87.482 164.809 82.9681 172.268 77.997 179.423C77.526 180.127 77.1111 181.072 76.1127 180.522C75.269 180.064 75.7682 179.19 75.944 178.471C77.2025 173.445 79.8814 168.961 81.3861 164.027C82.8907 159.092 84.8243 154.341 86.0688 149.343Z" fill="#AECDE9"/>
<path d="M47.0558 141.142C50.5713 141.734 53.9603 143.038 57.6025 143.468C59.2689 143.665 61.1884 143.708 62.8125 144.575C58.39 146.936 53.5525 148.205 48.8909 149.933C44.391 151.589 39.9895 153.507 35.5317 155.375C34.7161 155.713 33.8232 156.08 33.2255 155.495C32.4662 154.79 33.4716 154.085 33.8583 153.57C34.9179 152.212 36.1386 150.988 37.4934 149.926C40.8473 147.169 44.2222 144.455 47.0558 141.142Z" fill="#AECDE9"/>
<path d="M49.8441 36.8243C49.7386 37.0428 49.6402 37.2684 49.5418 37.4869C49.2324 37.5715 48.8387 37.5715 49.1129 38.1002C49.1024 38.2269 49.1024 38.3542 49.1129 38.4809L48.7191 38.6289H47.9527C46.0051 36.1546 43.9661 33.7508 42.1239 31.206C39.9654 28.2101 38.0248 25.0591 35.5358 22.3099C35.2334 21.9785 34.917 21.5062 35.367 21.0128C35.817 20.5193 36.26 20.8648 36.6678 21.0762C40.2129 22.8254 43.5863 24.9047 46.7434 27.2866C48.473 28.6472 50.3715 29.7045 52.1574 30.9593C53.0222 31.5585 54.2667 31.7982 54.5409 33.0741L53.669 33.208L53.2472 33.1375C53.1136 32.8203 52.98 32.7146 52.8675 33.1375C52.4563 33.1844 52.0737 33.372 51.7843 33.6686C51.4949 33.9652 51.3162 34.3527 51.2785 34.7659C51.2785 34.921 51.2292 35.0761 51.2082 35.2241C50.8918 35.4356 50.4207 35.492 50.4136 36.0136C49.9144 36.1476 49.9144 36.4859 49.8441 36.8243Z" fill="#AECDE9"/>
<path d="M158.686 43.0708C158.623 42.7958 158.559 42.5209 158.489 42.253C158.489 42.105 158.587 41.8018 158.229 41.9851L157.385 41.4211C157.322 40.3848 156.141 40.4553 155.733 39.7574V39.3556C155.895 38.2699 155.03 38.6506 154.523 38.4884L154.692 37.7835C156.816 37.556 158.865 36.868 160.697 35.7673C162.946 34.5881 165.328 33.6817 167.791 33.0672C168.613 32.7647 169.406 32.3896 170.161 31.9463C170.906 31.5868 171.834 31.0228 172.439 31.7489C173.043 32.475 172.277 33.4127 171.771 33.9343C170.006 35.7673 168.164 37.5367 166.237 39.1864C164.107 40.9112 162.092 42.7739 160.205 44.7627L159.783 44.3327C159.846 44.0577 159.684 43.9449 159.459 43.8744L158.686 43.0708Z" fill="#AECDE9"/>
<path d="M161.864 102.549C161.907 101.999 161.949 101.443 161.984 100.893C162.328 100.681 162.174 100.336 162.216 100.047C162.258 99.7577 162.216 99.4969 162.216 99.222C162.301 98.9411 162.321 98.6443 162.274 98.3545C162.226 98.0648 162.112 97.7899 161.942 97.5513L161.85 96.7124C162.005 95.6087 162.005 94.4889 161.85 93.3852H162.012C164.486 92.9674 167.023 93.1192 169.429 93.8293C168.558 95.2391 169.071 96.8111 169.036 98.3197C168.909 101.562 168.909 101.569 165.752 101.696C164.941 101.693 164.149 101.939 163.481 102.401C165.534 102.803 167.426 101.696 169.296 102.479C167.262 103.726 165.009 104.573 162.659 104.974C160.873 105.362 161.956 103.677 161.541 103.022C161.594 103.014 161.645 102.996 161.691 102.967C161.737 102.939 161.776 102.901 161.807 102.857C161.837 102.813 161.858 102.762 161.868 102.709C161.878 102.656 161.877 102.602 161.864 102.549Z" fill="#AECDE9"/>
<path d="M35.8592 101.695C35.6272 98.459 35.3038 95.2445 34.1367 92.1852C36.6326 91.8045 39.0582 91.1348 41.6525 91.3392C41.4557 93.9616 41.8775 96.6192 41.1815 99.2063C40.5628 99.2063 40.2464 99.6927 39.7753 99.9535C38.5731 100.665 37.6169 102.075 35.8592 101.695Z" fill="#B2CEE8"/>
<path d="M30.0428 134.941C31.9059 136.287 34.3456 136.203 36.2579 137.429C34.2542 138.712 31.9059 139.107 29.7053 139.826C28.396 140.225 27.0554 140.513 25.6978 140.686C24.9596 140.792 23.9331 141.229 23.4902 140.221C23.1105 139.368 23.8558 138.811 24.4323 138.325C26.1478 136.957 27.8562 135.54 30.0428 134.941Z" fill="#B2CEE8"/>
<path d="M173.115 135.74C174.57 134.89 175.717 133.599 176.392 132.053C178.22 133.265 180.076 134.442 181.861 135.711C182.431 136.113 183.345 136.628 182.888 137.495C182.508 138.2 181.686 137.805 181.025 137.643L173.115 135.74Z" fill="#B2CEE8"/>
<path d="M155.723 72.1777C157.249 73.1999 157.769 74.934 158.683 76.4073C158.688 76.5409 158.649 76.6725 158.571 76.7809C157.453 76.8444 156.307 77.5704 155.203 76.5342C156.096 75.8293 157.13 75.1243 155.836 73.8132C155.555 73.496 155.752 72.7276 155.723 72.1777Z" fill="#1A1C1E"/>
<path d="M155.836 53.447C155.02 53.2989 155.013 53.9757 154.936 54.4339C154.809 55.2164 154.514 55.6675 153.656 55.5124C153.888 53.6726 154.697 52.2909 156.588 51.7622C157.059 51.9878 156.813 52.2345 156.588 52.4671C156.103 52.5588 156.033 53.0663 155.836 53.447Z" fill="#1A1C1E"/>
<path d="M153.003 65.2508C152.806 66.4844 153.439 67.4643 153.988 68.4653C152.11 68.853 151.59 68.3595 152.11 66.6113C152.288 66.1146 152.497 65.6295 152.736 65.1592C152.83 65.1747 152.92 65.2057 153.003 65.2508Z" fill="#1A1C1E"/>
<path d="M154.675 37.8082L154.506 38.5132L152.826 37.7025C152.826 36.8707 152.932 36.0107 152.404 35.2705C153.607 35.6864 153.663 37.1738 154.675 37.8082Z" fill="#1A1C1E"/>
<path d="M152.238 34.37C151.373 34.2995 150.213 34.6942 150.333 33.1222C151.451 32.798 151.655 33.8765 152.238 34.37Z" fill="#1A1C1E"/>
<path d="M161.532 89.2266C162.157 89.5156 161.721 90.0795 161.848 90.4954C161.363 91.3272 162.228 92.145 161.848 92.9697C161.138 91.7784 161.651 90.4743 161.532 89.2266Z" fill="#1A1C1E"/>
<path d="M45.7812 41.8503C45.7229 41.9857 45.6237 42.0993 45.4976 42.1752C45.3714 42.2511 45.2248 42.2854 45.0782 42.2733C45.0584 42.0654 45.1134 41.8574 45.2333 41.6867C45.3533 41.516 45.5302 41.394 45.732 41.3428C45.7461 41.512 45.7672 41.6811 45.7812 41.8503Z" fill="#1A1C1E"/>
<path d="M159.824 78.5047L159.866 79.6749C158.545 79.3929 159.227 78.3284 159.051 77.5601L159.824 78.5047Z" fill="#1A1C1E"/>
<path d="M53.6699 33.1867L54.5417 33.0527L54.9284 33.5109C54.4785 33.525 54.0074 33.6096 53.6699 33.1867Z" fill="#1A1C1E"/>
<path d="M47.5543 71.2017C48.9956 71.6528 47.7019 71.9841 47.498 72.3577C47.5191 71.9418 47.5402 71.5541 47.5543 71.2017Z" fill="#AECDE9"/>
<path d="M41.6738 90.0493C41.9902 90.4864 42.2082 90.9164 41.6738 91.3534V90.0493Z" fill="#B2CEE8"/>
<path d="M159.412 49.0605L159.826 48.5044L159.412 49.0605Z" fill="#1A1C1E"/>
<path d="M152.404 63.897C152.492 63.9526 152.597 63.9751 152.699 63.9603C152.714 64.0662 152.697 64.1742 152.65 64.27L152.404 63.897Z" fill="#1A1C1E"/>
<path d="M160.38 47.4968C160.38 47.2856 160.317 47.0745 160.289 46.8633C160.893 46.99 160.668 47.2293 160.38 47.4968Z" fill="#1A1C1E"/>
<path d="M160.625 45.5891L160.309 45.1245C160.533 45.1949 160.716 45.2864 160.625 45.5891Z" fill="#1A1C1E"/>
<path d="M47.8936 39.0952V39.2994L47.7461 39.0952H47.8936Z" fill="#1A1C1E"/>
<path d="M147.264 34.3934H147.18L147.222 34.2456L147.264 34.3934Z" fill="#1A1C1E"/>
<path d="M148.238 33.6564L147.943 33.945C147.901 33.7057 147.999 33.6071 148.238 33.6564Z" fill="#1A1C1E"/>
<path d="M55.6351 33.927L55.3262 33.6313C55.5789 33.575 55.6982 33.6595 55.6351 33.927Z" fill="#1A1C1E"/>
<path d="M149.057 33.2208L148.629 33.5235C148.72 33.3334 148.797 33.1363 149.057 33.2208Z" fill="#1A1C1E"/>
<path d="M30.7957 128.71C30.8674 123.393 30.6326 118.076 30.0926 112.786C29.9872 111.792 30.5848 110.671 30.4582 109.607C34.466 111.017 38.6144 111.99 42.608 113.555C47.3482 115.415 52.2897 116.712 57.3312 117.418C61.6976 118.024 66.1483 118.235 70.4373 119.25C79.2403 121.365 88.2471 120.66 97.1556 121.577C100.39 121.901 103.68 121.041 106.999 121.506C110.972 122.056 114.923 121.14 118.882 120.843C123.368 120.498 127.889 120.413 132.332 119.779C138.14 118.954 143.892 117.7 149.664 116.649C150.782 116.445 152.013 115.176 152.568 115.423C154.635 116.332 156.133 114.887 157.862 114.591C161.8 113.886 165.4 111.863 169.471 111.672C171.468 111.581 171.784 111.94 171.418 113.921C170.508 119.001 168.85 123.916 166.497 128.506C165.09 131.213 163.051 132.44 160.112 132.975C156.857 133.567 153.559 134.11 150.36 134.886C146.268 135.873 142.092 136.133 137.992 137C134.029 137.709 130.021 138.142 125.997 138.297C119.578 138.72 113.158 139.179 106.732 139.397C101.156 139.58 95.5736 139.905 90.0049 139.792C87.544 139.743 85.0831 140.173 82.5449 139.362C80.6509 138.742 78.6512 138.514 76.6669 138.692C73.7278 139.017 70.9787 138.164 68.124 138.086C63.828 137.966 59.6375 136.676 55.4047 135.858C51.6923 135.154 47.9447 134.618 44.3447 133.497C39.7323 132.073 35.2886 130.318 30.7957 128.71Z" fill="white"/>
<path d="M62.8056 39.7114C62.9513 39.9279 63.0628 40.1657 63.1361 40.4163C63.2275 41.1776 63.2134 41.2058 64.0923 41.0507C65.604 40.7829 66.736 41.9601 68.1493 42.235C69.5625 42.5099 71.5383 42.8765 72.9586 43.8775C73.6617 44.385 74.2593 43.7576 74.9203 43.8775C77.8593 44.5119 80.946 44.808 83.7303 43.8775C86.5146 42.947 89.7278 42.7003 92.3153 40.8463C93.7637 39.803 95.7324 39.9722 97.3144 39.0135C98.1475 38.5878 98.9405 38.0876 99.6839 37.519C101.428 35.9682 103.53 36.1092 104.908 37.8997C105.507 38.622 106.341 39.1089 107.263 39.2743C110.118 39.9792 112.389 42.5311 115.434 42.1434C116.84 41.9742 117.149 43.1303 118.331 43.2853C121.087 43.6449 123.632 44.5542 126.606 43.9903C128.434 43.6519 130.551 43.8563 132.365 43.2853C134.045 42.7848 135.831 42.4253 137.42 41.4807C137.905 41.1917 138.897 40.663 139.698 41.6006C140.092 42.0588 140.493 41.1847 140.465 41.0084C140.211 39.4082 141.322 40.1907 141.962 40.1907C143.481 40.2471 145.154 40.6842 145.801 38.6117L147.011 38.4143C147.292 38.5059 147.369 38.3156 147.425 38.1041C149.169 36.8494 150.329 37.2582 151.067 39.38C151.771 40.085 151.953 41.2904 153.177 41.3609C153.438 41.3679 153.691 41.4547 153.902 41.6096C154.113 41.7645 154.272 41.9802 154.358 42.228C153.76 42.9329 154.133 43.2853 154.864 43.4686L155.047 43.9409C154.949 44.1665 155.047 44.2229 155.258 44.1806C155.641 44.4303 155.966 44.7609 156.209 45.1493C156.452 45.5377 156.607 45.9745 156.664 46.4293L156.538 46.8382L154.787 48.7979C154.26 49.4394 152.825 49.5028 153.5 50.9127C152.347 51.4836 151.771 52.5763 151.096 53.5843C150.835 53.5279 150.73 53.6266 150.8 53.8945C150.758 54.0284 150.723 54.1624 150.681 54.3034C150.4 54.4584 150.175 54.6417 150.385 55.0083C150.385 55.1634 150.385 55.3185 150.385 55.4735V55.5299C149.598 55.4242 149.549 55.5299 149.366 56.7847C148.332 56.9116 148.593 57.4896 148.944 58.0536C148.944 58.7585 148.993 59.4634 149.014 60.1683C148.262 60.8733 148.803 61.8108 148.543 62.6004C148.227 62.7131 148.22 62.9458 148.311 63.2066C148.403 63.4674 148.557 63.4392 148.74 63.3123C148.802 63.479 148.816 63.6595 148.781 63.8338C148.747 64.008 148.664 64.1692 148.543 64.2992C147.903 65.0676 148.635 65.4342 149.014 65.9065L149.218 66.4352C149.218 66.7383 149.071 67.0625 149.373 67.3163C149.12 67.7463 149.373 68.1129 149.549 68.4794C149.45 68.7403 149.64 68.8108 149.823 68.8742C150.421 69.9739 150.885 71.1793 152.073 71.8208C152.129 72.0957 151.925 72.4552 152.312 72.6315C152.467 72.9064 152.628 73.1813 152.783 73.4633C152.742 73.6082 152.759 73.7636 152.832 73.8956C152.904 74.0277 153.026 74.1257 153.17 74.1682L153.219 74.2317L153.549 74.6828C153.592 74.8238 153.627 74.9577 153.669 75.0917C153.634 75.4159 153.521 75.7966 153.978 75.9023L154.21 76.3676L154.4 76.6989C155.806 78.2497 156.081 80.2729 156.643 82.1762L156.875 82.5568C157.698 83.2618 157.381 84.1923 157.346 85.0593C157.149 85.7643 157.48 85.9546 158.12 85.7643C158.12 86.4692 157.515 87.1741 158.078 87.9213C157.782 87.9989 157.55 88.1751 157.761 88.4782C158.056 88.9012 158.317 88.6615 158.535 88.3513L159.505 88.5558C157.698 89.9163 159.575 91.4601 159.287 92.8911C159.181 93.4198 159.027 93.9344 158.9 94.456C158.295 94.5195 157.993 94.7803 158.197 95.4218C158.197 95.8447 158.197 96.2606 158.197 96.6765C158.018 97.7002 158.101 98.7526 158.436 99.7359V99.8276C158.378 99.8419 158.323 99.8694 158.277 99.9081C158.231 99.9468 158.194 99.9956 158.17 100.051C158.145 100.106 158.134 100.166 158.136 100.226C158.138 100.286 158.154 100.345 158.183 100.399C158.113 101.103 158.042 101.766 157.965 102.45C157.175 102.47 156.404 102.691 155.722 103.091C154.534 103.684 153.711 105.03 152.207 104.931V103.324C152.302 100.944 152.272 98.5601 152.115 96.1831C151.897 93.0109 151.461 89.881 151.152 86.73C151.046 85.6585 151.405 84.3474 150.498 83.6918C149.21 82.6171 147.778 81.7296 146.244 81.0553C142.848 79.8217 139.129 80.3011 135.754 78.9899C133.644 78.1792 131.43 77.8832 129.362 76.9386C127.956 76.2759 126.205 76.9386 124.659 76.0363C123.695 75.4794 123.344 75.3313 123.955 74.2598C125.362 71.7856 125.13 69.0081 124.975 66.3224C124.905 64.9901 125.228 64.6164 126.494 64.2992C130.073 63.4533 133.588 62.4805 136.949 61.3385C139.138 60.6343 141.389 60.1386 143.671 59.8582C144.226 59.7806 144.374 59.9569 144.465 59.2801C144.873 56.0375 146.575 53.2953 148.157 50.5531C148.489 49.7367 148.921 48.9647 149.443 48.2551C150.807 46.8452 149.893 45.3226 148.923 44.2158C147.854 42.9893 146.04 42.5029 144.859 43.659C142.602 45.8936 139.684 45.9147 136.991 46.4364C134.826 46.8593 133.363 48.7203 131.106 48.7344C129.109 48.7344 127.112 48.9248 125.109 48.9671C119.062 49.0869 113.381 47.4938 107.77 45.4001C106.139 44.7868 104.585 44.3357 103.298 43.0457C102.693 42.4394 101.224 42.4535 100.809 42.9822C99.1496 45.097 96.5902 45.097 94.4809 46.0064C89.32 48.2128 83.7584 48.6005 78.3093 48.9389C75.771 49.0939 73.0289 49.3125 70.5328 47.9872C66.7993 46.0064 62.6088 45.1675 58.7627 43.4757C57.1737 42.7707 55.9925 43.2924 54.9589 44.4344C53.9253 45.5764 53.2855 46.7254 54.3894 48.2762C56.2667 50.9056 57.5745 53.8593 58.9877 56.7354C59.6065 58.0042 59.3252 59.4282 59.6908 60.7534C59.8666 61.4584 59.9721 61.8954 60.8018 61.8531C63.5439 61.7192 66.04 62.9669 68.6977 63.3335C71.7774 63.7635 74.85 64.2922 78.0702 64.8068C76.214 68.4794 77.4304 71.9477 78.8507 75.3807C74.1961 77.4038 69.1829 78.6515 64.4439 80.6042C62.3345 81.4854 59.8947 81.9717 58.0455 83.5367C57.6588 83.861 57.4338 83.4732 57.1315 83.4873C56.1929 83.4591 55.2795 83.794 54.5805 84.4226C53.8815 85.0512 53.4505 85.9254 53.3769 86.8639C52.737 92.3835 52.0339 97.9031 53.1167 103.458C53.18 103.817 53.5034 104.346 52.7652 104.663C52.2027 104.896 52.0621 104.544 51.6964 104.381C50.1308 103.605 48.4786 103.018 46.7746 102.633C45.5231 102.422 45.4387 101.928 45.3684 100.913C45.1997 97.029 45.6356 93.1589 45.7551 89.3171C45.8114 87.5054 45.9168 85.6515 46.1418 83.8962C46.453 82.5562 46.9252 81.2591 47.5481 80.0332C49.1019 76.2548 51.2886 72.8288 53.3909 69.3465C54.3534 67.6218 54.8707 65.6832 54.8956 63.7071C55.0151 61.7051 54.0448 59.7665 54.762 57.7998C55.1417 56.7636 54.1362 56.1291 53.7003 55.4453C52.7652 53.9932 51.4644 52.6256 50.6418 51.2581C49.8191 49.8905 48.6379 48.8613 47.6746 47.6418C46.5989 46.2742 46.9715 45.1111 48.3777 44.1806C48.5887 44.2229 48.6871 44.1806 48.5887 43.9409C48.652 43.7858 48.7152 43.6308 48.7715 43.4757C49.4746 43.2853 49.8683 42.947 49.2848 42.228C49.3691 41.9808 49.5268 41.7653 49.7366 41.6103C49.9464 41.4554 50.1985 41.3684 50.459 41.3609C51.5558 41.4314 51.6824 40.3881 52.2097 39.803C52.4793 39.5842 52.6635 39.2773 52.73 38.9359C53.2011 37.364 54.4315 37.1595 55.7745 37.8574C57.6518 38.7809 59.058 40.8956 61.5752 40.2401C61.9985 40.0964 62.4099 39.9197 62.8056 39.7114Z" fill="#F7F7F7"/>
<path d="M30.7914 128.71C35.2843 130.318 39.7279 132.073 44.2771 133.483C47.877 134.604 51.6246 135.146 55.337 135.844C59.5557 136.634 63.7744 137.959 68.0564 138.072C70.911 138.149 73.6813 139.002 76.5992 138.678C78.5836 138.5 80.5833 138.728 82.4772 139.348C84.9873 140.158 87.4764 139.728 89.9373 139.778C95.5059 139.891 101.089 139.566 106.664 139.383C113.091 139.165 119.51 138.678 125.93 138.283C129.953 138.128 133.961 137.694 137.925 136.986C142.024 136.133 146.2 135.873 150.293 134.872C153.492 134.096 156.789 133.553 160.045 132.961C162.984 132.425 165.03 131.199 166.429 128.492C168.782 123.902 170.441 118.986 171.351 113.907C171.716 111.926 171.4 111.567 169.403 111.658C165.332 111.849 161.732 113.9 157.795 114.577C156.065 114.873 154.567 116.318 152.5 115.408C151.945 115.162 150.714 116.431 149.596 116.635C143.824 117.685 138.072 118.94 132.265 119.765C127.821 120.399 123.3 120.47 118.814 120.829C114.856 121.125 110.904 122.042 106.932 121.492C103.613 121.027 100.322 121.887 97.0879 121.562C88.1935 120.674 79.1867 121.316 70.3696 119.236C66.0806 118.221 61.6299 118.01 57.2636 117.403C52.222 116.698 47.2805 115.401 42.5404 113.54C38.5467 111.975 34.3983 111.024 30.3906 109.593C28.8016 109.769 29.0617 108.07 28.2812 107.478C28.2966 107.299 28.3796 107.133 28.5133 107.013C29.1461 106.674 29.3851 107.556 29.9195 107.513C31.2835 107.337 32.4648 108.007 33.7023 108.373C38.385 109.783 43.1662 110.883 47.6942 112.666C50.7527 113.879 53.9168 114.302 57.0316 114.943C61.9112 115.951 66.8751 116.438 71.7969 117.178C78.3812 118.106 85.0085 118.697 91.6529 118.947C97.3762 119.215 103.093 118.912 108.809 119.201C112.451 119.384 116.065 118.877 119.693 118.729C123.321 118.581 126.879 117.855 130.486 117.559C136.167 117.086 141.693 115.697 147.29 114.739C152.325 113.879 157.211 112.187 162.196 111.01C163.731 110.55 165.302 110.225 166.893 110.037C171.266 109.755 171.998 108.662 171.737 104.813C172.356 104.045 173.39 104.313 174.388 103.347C173.889 106.068 175.014 108.169 174.065 110.58C173.425 112.187 173.65 114.415 173.805 116.261C174.177 120.731 172.806 125.136 173.713 129.62C174.184 131.974 173.256 132.919 170.788 133.751C167.364 134.9 163.961 136.105 160.495 137.148C158.92 137.621 157.436 138.523 155.77 138.868C156.065 137.254 158.069 137.304 158.906 135.576C155.573 136.662 152.381 136.641 149.364 137.353C145.201 138.406 140.973 139.185 136.708 139.686C132.321 140.13 127.955 141.272 123.483 140.807C123.007 140.805 122.534 140.872 122.077 141.004C117.485 141.893 112.788 141.674 108.19 141.709C105.504 141.752 102.706 141.808 100.034 141.963C94.9659 142.187 89.8898 142.149 84.8256 141.85C79.0812 141.597 73.3578 140.779 67.6204 140.299C64.301 140.091 61.0067 139.586 57.7769 138.791C53.3543 137.586 48.7137 137.381 44.4177 135.746C41.8513 134.78 38.6944 135.146 36.8311 132.496C36.7468 132.393 36.6389 132.311 36.5165 132.258C36.3941 132.205 36.2609 132.183 36.128 132.193C34.2577 133.039 32.8445 131.594 31.2062 131.234C30.3414 130.529 29.1601 129.867 30.7914 128.71Z" fill="#B2CEE8"/>
<path d="M171.81 104.804C172.07 108.653 171.339 109.738 166.966 110.027C165.375 110.215 163.804 110.541 162.269 111C157.284 112.178 152.425 113.87 147.363 114.73C141.738 115.688 136.24 117.077 130.559 117.549C126.952 117.846 123.373 118.572 119.766 118.72C116.159 118.868 112.524 119.375 108.882 119.192C103.165 118.903 97.4489 119.192 91.7255 118.938C85.0812 118.688 78.4539 118.097 71.8696 117.169C66.9478 116.464 61.9557 115.942 57.1042 114.934C53.9895 114.292 50.8254 113.87 47.7669 112.657C43.2388 110.873 38.4577 109.745 33.7749 108.364C32.5375 107.997 31.3562 107.327 29.9922 107.504V103.633C35.4694 105.509 40.6725 107.419 45.9529 109.055C49.0855 110.123 52.2937 110.955 55.5504 111.543C60.4722 112.304 65.3307 113.475 70.3157 114.032C73.2688 114.363 76.243 114.095 79.2031 114.483C83.1194 114.99 87.085 115.456 90.9803 115.653C97.5094 116.006 104.052 116.02 110.583 115.695C112.988 115.568 115.343 115.223 117.727 115.033C125.461 114.419 133.195 114.398 140.831 113.122C142.722 112.812 144.705 112.756 146.547 112.058C147.714 112.918 148.868 114.215 150.45 113.214C151.537 112.656 152.495 111.876 153.262 110.923L160.708 108.293C161.629 108.427 161.348 107.341 161.903 107.102C163.52 107.567 164.997 106.904 166.474 106.46C168.252 105.924 169.863 104.818 171.81 104.804Z" fill="#F7F7F7"/>
<path d="M85.6883 80.7255C85.5696 82.9226 85.2686 85.1061 84.7883 87.2531C84.5975 87.7705 84.493 88.3159 84.4789 88.8674C85.1328 92.8079 82.8758 95.2752 80.2602 97.6156C79.1282 98.6236 78.1017 99.7303 77.0048 100.802C72.983 104.672 72.9478 104.785 67.5761 103.53C66.2894 103.234 65.3683 103.911 64.2011 103.847C61.9301 103.72 60.2637 102.099 58.0629 101.852C56.6567 101.683 56.4317 98.5884 57.7747 97.3618C63.0339 92.5589 68.3049 87.7795 73.5877 83.0236C75.5458 81.2121 77.6121 79.5219 79.7751 77.9622C81.0407 77.074 81.9547 78.1596 83.0727 78.0045C85.1961 77.7225 86.0047 78.9561 85.6883 80.7255Z" fill="#AECDE9"/>
<path d="M27.6015 98.3885C27.6015 101.3 26.8984 104.218 27.953 107.144C28.2554 107.947 27.1304 108.871 27.2499 110.097C27.6437 114.01 27.7421 117.957 27.953 121.884C27.9882 122.589 27.953 122.878 27.0249 122.998C21.7938 123.702 16.5907 124.746 11.3385 125.239C9.69317 125.394 7.9143 125.126 6.18464 125.239C5.92162 125.215 5.66985 125.121 5.45579 124.966C5.24174 124.811 5.07332 124.601 4.96825 124.358C4.53232 123.569 5.18621 123.498 5.40418 123.089C7.51352 119.142 10.5158 115.92 13.4548 112.628C14.8259 111.105 14.3548 110.006 12.7517 108.673C9.52443 105.974 6.24792 103.26 4.31435 99.3895C3.27375 97.3311 4.14561 95.8649 6.4237 95.8649C12.0283 95.9958 17.6309 95.5279 23.1367 94.4691C25.5541 94.0714 27.99 93.7961 30.435 93.6443C31.0116 93.5879 31.8413 93.5527 32.0873 94.2858C32.3334 95.0189 31.6866 95.2868 31.096 95.604C30.5053 95.9212 30.0694 96.5063 29.289 96.3654C26.7718 96.1821 24.4445 97.1408 22.0258 97.5003C17.6384 98.1559 13.2017 98.5083 8.77913 98.7974C6.8315 98.9242 6.944 99.897 7.85102 100.806C10.1854 103.14 11.9361 106.009 14.5165 108.088C17.097 110.168 17.3712 110.344 15.2689 112.818C13.1666 115.293 12.3369 118.782 9.29943 120.523C8.71585 120.855 8.80022 121.475 8.9549 122.011C9.10959 122.546 9.65802 122.497 10.1572 122.539C12.2666 122.758 14.3759 122.286 16.4853 122.067C19.8602 121.729 22.9398 120.065 26.3288 119.628C27.032 119.536 27.0882 118.923 27.032 118.366C27.0396 118.225 27.0113 118.084 26.9497 117.957C26.8881 117.83 26.7952 117.721 26.6798 117.64C26.5645 117.559 26.4304 117.508 26.2903 117.494C26.1501 117.479 26.0085 117.5 25.8788 117.555C25.0351 117.788 24.1703 117.802 23.3125 118.035C20.1766 118.888 17.0266 119.832 13.7572 120.016C13.4548 118.408 14.847 117.563 15.0509 116.287C15.5937 115.953 16.036 115.478 16.3306 114.912C17.0385 113.684 17.9142 112.562 18.9321 111.578C20.1907 110.52 20.3946 109.717 19.0797 108.68C17.104 107.123 15.0298 105.663 13.1947 103.957C12.7255 103.61 12.3434 103.157 12.0786 102.636C11.8138 102.115 11.6736 101.539 11.6689 100.954C17.0532 100.647 22.3919 99.787 27.6015 98.3885Z" fill="#F7F7F7"/>
<path d="M85.8505 65.3384C90.3013 65.4019 94.7379 65.1128 99.2097 64.859C101.842 64.788 104.476 64.868 107.099 65.0987C110.523 65.282 113.898 64.7321 117.301 64.7251C121.14 64.7251 122.18 65.7755 121.794 69.5471C121.386 73.5302 120.697 74.2281 116.647 74.2493C113.612 74.3825 110.587 74.679 107.584 75.1375C103.513 75.5887 99.4277 75.3984 95.3637 75.3279C92.502 75.2785 89.6333 75.5394 86.7787 75.2362C85.4216 75.0952 84.1279 74.5313 82.7287 74.7145C82.1944 74.778 81.5616 74.4819 81.5756 74.0589C81.5756 72.4304 80.3452 71.239 80.2538 69.674C80.0288 66.1421 81.1397 65.2609 85.8505 65.3384ZM99.1042 70.2732C99.3925 71.2602 98.9074 72.938 100.735 72.9592C102.669 72.9592 102.486 71.3307 102.613 70.0829C102.767 68.5531 101.572 67.9186 100.433 67.9045C99.1042 67.8904 98.816 69.0254 99.1042 70.2873V70.2732ZM89.3028 70.9218C89.4013 69.6247 89.2255 68.5249 87.5029 68.4121C85.5834 68.2923 85.724 69.8573 85.7521 70.8443C85.7802 71.8312 86.0263 73.4315 87.5169 73.361C87.8103 73.3637 88.1001 73.2966 88.3627 73.1653C88.6252 73.034 88.8529 72.8421 89.0272 72.6055C89.2015 72.3688 89.3173 72.0941 89.3652 71.8039C89.4131 71.5137 89.3918 71.2162 89.3028 70.9359V70.9218ZM110.931 70.2168C110.851 70.5183 110.837 70.8335 110.889 71.1409C110.942 71.4483 111.06 71.7407 111.236 71.9983C111.411 72.2558 111.64 72.4724 111.906 72.6334C112.173 72.7943 112.471 72.8958 112.78 72.931C114.284 73.1072 114.221 71.3236 114.299 70.4636C114.397 69.392 114.214 67.7283 112.569 67.7071C111.029 67.6719 111.043 69.0818 110.931 70.2098V70.2168Z" fill="#F7F7F7"/>
<path d="M31.2387 131.245C32.8559 131.604 34.2692 133.049 36.1605 132.203C36.2934 132.194 36.4267 132.216 36.549 132.269C36.6714 132.322 36.7793 132.403 36.8637 132.507C38.7269 135.157 41.8839 134.791 44.4502 135.756C48.7533 137.364 53.3939 137.596 57.8094 138.802C61.0393 139.598 64.3336 140.102 67.653 140.311C73.3904 140.79 79.1138 141.608 84.8582 141.862C89.9224 142.16 94.9985 142.198 100.067 141.974C102.738 141.819 105.537 141.763 108.223 141.721C112.821 141.657 117.518 141.876 122.109 141.016C122.566 140.883 123.04 140.816 123.515 140.818C127.987 141.283 132.354 140.113 136.741 139.697C141.006 139.197 145.233 138.417 149.397 137.364C152.413 136.659 155.605 136.659 158.938 135.587C158.102 137.314 156.126 137.265 155.802 138.879C155.05 138.682 154.298 138.499 153.96 139.514L153.426 139.577C153.235 139.526 153.034 139.528 152.845 139.582C152.655 139.637 152.484 139.743 152.35 139.888L151.387 140.029C150.684 140.029 150.023 139.81 149.453 140.346C145.938 141.135 142.422 141.756 138.907 142.461C132.129 143.821 125.217 143.293 118.39 144.364C113.146 145.118 107.831 145.256 102.556 144.773C99.6165 144.54 96.6283 144.773 93.6541 144.773C90.2836 144.708 86.9184 144.473 83.5715 144.068C80.2668 143.665 76.9438 143.43 73.6154 143.363C68.3139 143.314 63.2093 142.059 58.0414 141.157C55.7633 140.762 53.4853 140.353 51.2283 139.866C48.3244 139.246 45.6877 137.836 42.8893 136.884C39.6761 135.799 36.4066 134.868 33.2286 133.684C32.2864 133.296 30.3247 133.324 31.2387 131.245Z" fill="#F7F7F7"/>
<path d="M113.764 61.4108C110.34 62.5881 106.656 61.5377 103 61.8902C100.25 62.1581 97.3747 61.6364 94.5623 61.8902C93.0154 62.0312 91.349 61.7844 89.992 62.9053C89.1553 63.6103 89.0217 62.3414 88.396 62.2004C87.4749 61.9677 86.0405 62.6727 85.7804 61.721C85.5835 61.016 86.6241 60.0009 87.053 59.0985C88.9233 55.1295 91.3912 51.5412 95.4904 49.7717C99.5895 48.0022 103.977 47.5229 108.315 50.0396C111.043 51.6258 112.485 54.1214 113.989 56.5465C114.735 57.752 115.002 59.4439 115.396 60.9173C115.677 61.8902 114.594 61.5659 113.764 61.4108Z" fill="#F7F7F7"/>
<path d="M183.103 123.709C181.612 123.561 180.1 123.335 178.631 123.265C176.381 123.159 176.1 121.947 176.444 120.276C177.102 116.766 177.307 113.187 177.056 109.625C176.873 106.192 177.478 102.78 177 99.4031C176.884 98.7653 176.631 98.1605 176.258 97.6309C175.885 97.1013 175.402 96.6596 174.841 96.3367C174.623 96.2028 174.18 96.2944 174.082 96.1323C173.625 95.3568 171.867 95.5119 172.38 94.236C172.767 93.2773 173.941 93.7355 174.848 93.7496C177.094 93.7426 179.329 94.0584 181.485 94.6872C181.844 95.4273 182.189 96.1746 182.568 96.9006C182.702 97.1333 182.568 97.4293 183.271 97.4575C186.463 97.5915 189.649 98.0708 192.848 98.3528C194.057 98.4585 193.853 99.0577 193.41 99.7062C192.749 100.63 191.54 101.243 190.999 101.983C189.149 104.521 186.731 106.424 184.579 108.602C183.876 109.307 183.918 109.688 184.439 110.322C184.959 110.957 185.36 111.521 185.845 112.12C188.121 115.13 190.083 118.366 191.702 121.778C192.229 122.877 192.004 123.399 190.647 123.342C188.729 123.22 186.821 122.965 184.938 122.581C184.003 122.426 183.004 122.222 183.103 123.709ZM190.063 100.651C188.003 100.157 186.175 99.7062 184.333 99.2903C183.447 99.093 182.927 99.5089 183.194 100.404C183.686 102.025 183.44 103.675 183.539 105.339C183.539 105.705 183.321 106.255 183.89 106.354C184.056 106.366 184.223 106.34 184.378 106.278C184.533 106.216 184.672 106.119 184.783 105.994C186.154 103.901 188.123 102.42 190.063 100.651ZM183.51 113.051C183.447 115.165 183.194 117.083 183.201 118.916C183.201 121.101 185.676 119.303 186.625 120.403C187.033 120.875 187.539 120.495 187.863 120.149C187.994 119.985 188.065 119.781 188.065 119.571C188.065 119.361 187.994 119.157 187.863 118.993C186.534 117.09 185.739 114.749 183.51 113.051Z" fill="#AECDE9"/>
<path d="M86.221 107.157C85.8764 104.542 86.5725 102.222 86.8045 99.8749C86.7925 99.3604 86.9591 98.8576 87.2759 98.4525C87.5926 98.0475 88.0399 97.7654 88.5412 97.6544C92.5138 96.5829 95.5302 93.7068 99.1723 92.015C99.5168 91.8599 100.199 91.6907 100.065 90.8519C99.9528 90.2104 100.129 90.3373 100.965 90.3161C102.47 90.2738 103.574 89.1459 104.537 88.2436C107.293 85.6566 110.521 83.6123 113.129 80.5317C113.39 81.9459 113.74 83.3421 114.177 84.712C115.077 87.0312 113.797 88.7864 112.384 89.9637C108.685 93.0724 104.959 96.308 100.733 98.5849C96.5075 100.862 92.999 104.02 88.4991 105.733C87.6967 106.135 86.934 106.611 86.221 107.157Z" fill="#F7F7F7"/>
<path d="M113.213 78.1844C108.867 82.6466 104.606 86.4955 99.5019 89.4632C96.5347 91.1974 93.8769 93.5166 90.6426 94.8348C89.9395 95.1308 89.2364 95.5397 88.5333 95.8287C88.02 96.0331 87.7247 96.0332 87.7388 95.2154C87.7388 93.2205 88.2942 91.296 88.5192 89.3363C88.6809 87.8419 90.7692 87.5599 91.9082 87.144C95.7191 85.7342 98.5456 83.0977 101.478 80.553C103.102 79.1431 104.649 78.1703 107.004 78.558C108.924 78.8823 110.892 77.8813 113.213 78.1844Z" fill="#F7F7F7"/>
<path d="M88.2598 107.312C90.6855 106.022 92.7527 105.091 94.6511 103.879C101.338 99.6068 108.073 95.4195 114.099 90.196C114.662 89.7167 115.21 89.9704 115.414 90.9573C115.962 93.6079 116.166 95.8918 113.466 98.0066C108.732 101.677 103.672 104.905 98.3494 107.65C97.8564 107.89 97.3047 107.983 96.7604 107.918L88.2598 107.312Z" fill="#F7F7F7"/>
<path d="M15.0943 116.253C14.8904 117.529 13.4982 118.368 13.8005 119.982C17.07 119.799 20.22 118.855 23.3559 118.002C24.2137 117.769 25.0785 117.755 25.9222 117.522C26.0519 117.467 26.1935 117.446 26.3336 117.46C26.4738 117.475 26.6078 117.526 26.7232 117.607C26.8386 117.688 26.9315 117.797 26.9931 117.924C27.0547 118.051 27.083 118.192 27.0753 118.333C27.1175 118.918 27.0753 119.503 26.3722 119.595C22.9902 120.032 19.9106 121.71 16.5286 122.034C14.4193 122.252 12.3099 122.739 10.2006 122.506C9.73655 122.464 9.16703 122.605 8.99828 121.977C8.82953 121.35 8.75922 120.821 9.34281 120.49C12.3803 118.749 13.2029 115.274 15.3122 112.785C17.4216 110.297 17.1192 110.121 14.5599 108.055C12.0006 105.99 10.2287 103.121 7.89439 100.773C6.98738 99.8638 6.87488 98.891 8.8225 98.7641C13.2451 98.4751 17.6817 98.1227 22.0692 97.4671C24.4879 97.1076 26.8152 96.1489 29.3323 96.3321C28.6292 96.9172 28.5167 97.9605 27.6449 98.3835C22.4363 99.7915 17.0976 100.661 11.7123 100.978C11.7169 101.563 11.8572 102.138 12.122 102.659C12.3868 103.181 12.7689 103.633 13.2381 103.981C15.0732 105.687 17.1474 107.146 19.1231 108.704C20.4379 109.74 20.234 110.543 18.9755 111.601C17.9575 112.585 17.0819 113.708 16.3739 114.935C16.082 115.479 15.6528 115.936 15.1294 116.26L14.9537 116.169L15.0943 116.253Z" fill="#B2CEE8"/>
<path d="M183.096 123.713C182.997 122.225 183.996 122.43 184.896 122.585C186.779 122.976 188.686 123.238 190.605 123.367C191.962 123.424 192.187 122.902 191.66 121.802C190.041 118.391 188.078 115.155 185.803 112.145C185.339 111.546 184.896 110.932 184.396 110.347C183.897 109.762 183.862 109.311 184.537 108.627C186.689 106.449 189.107 104.546 190.956 102.008C191.498 101.303 192.707 100.654 193.368 99.731C193.811 99.0966 194.015 98.4833 192.806 98.3775C189.606 98.0956 186.421 97.6162 183.229 97.4823C182.526 97.4823 182.674 97.158 182.526 96.9254C182.139 96.2205 181.823 95.4521 181.443 94.7119C184.389 95.0644 187.321 95.579 190.274 95.7129C192.152 95.8046 193.945 96.6293 195.942 95.9878C197.193 95.586 197.277 96.7492 197.024 97.7502C196.441 100.048 194.697 101.613 193.242 103.27C191.599 105.199 189.777 106.967 187.799 108.55C186.597 109.48 187.033 111.151 188.503 111.665C190.085 112.229 190.928 113.703 191.695 114.908C193.319 117.467 194.824 120.118 196.532 122.627C196.778 122.98 196.736 123.332 196.413 123.515C195.105 124.157 193.994 125.271 192.335 125.059C189.691 124.728 187.04 124.453 184.382 124.213C183.913 124.181 183.464 124.006 183.096 123.713Z" fill="#F7F7F7"/>
<path d="M116.507 97.5708C117.61 98.9384 117.47 100.489 117.519 101.977C117.561 103.224 116.239 103.386 115.6 104.091C114.798 104.987 113.49 105.459 112.787 106.389C111.451 108.081 109.602 107.686 107.901 108.032C105.489 108.511 103.071 108.265 100.547 108.25C106.804 106.03 111.726 101.899 116.507 97.5708Z" fill="#F7F7F7"/>
<path d="M131.287 59.2831C135.506 54.9689 139.126 49.971 145.25 47.7505C145.185 48.9465 144.769 50.0966 144.055 51.0566C142.917 52.4941 142.067 54.1385 141.552 55.8994C141.165 57.3657 139.675 56.9639 138.74 57.4221C136.398 58.5147 133.839 58.8249 131.287 59.2831Z" fill="#AECDE9"/>
<path d="M101.303 78.6199C98.1354 81.2855 94.793 83.7347 91.2982 85.9512C90.7639 86.3107 89.7937 86.7336 89.3156 86.1133C89.0338 85.6855 88.8715 85.1898 88.8455 84.6778C88.8195 84.1658 88.9309 83.6562 89.1679 83.202C89.9765 81.8344 90.4967 80.7911 89.1679 79.4729C88.718 79.0217 88.9008 78.3944 89.7374 78.4226C92.402 78.5142 95.0807 78.5001 97.7243 78.775C99.0179 78.909 100.129 77.3793 101.303 78.6199Z" fill="#F7F7F7"/>
<path d="M118.425 85.2965C117.905 82.7024 117.771 80.1928 116.625 77.5C119.058 78.0287 121.033 77.1828 123.128 76.3228C122.32 77.3167 121.525 78.1062 123.459 78.4798C124.366 78.6561 124.654 79.2341 123.817 80.0307C122.039 81.7296 120.302 83.4637 118.425 85.2965Z" fill="#AECDE9"/>
<path d="M115.201 51.9253C118.52 52.4149 121.872 52.6505 125.227 52.6302C122.162 54.4842 120.305 56.7611 118.056 59.0874C117.662 56.2536 116.312 54.167 115.201 51.9253Z" fill="#AECDE9"/>
<path d="M152.303 104.981C153.829 105.08 154.652 103.733 155.819 103.141C156.5 102.741 157.272 102.52 158.061 102.5C158.105 102.607 158.129 102.722 158.132 102.838C157.379 103.606 157.963 104.586 157.738 105.432C157.583 107.194 156.163 107.547 154.855 108.012C154.677 107.974 154.492 107.98 154.317 108.03C154.141 108.081 153.981 108.174 153.85 108.301L152.367 108.449L151.797 108.71C150.18 108.428 152.142 107.61 151.565 107.166C151.79 107.089 151.98 106.99 151.895 106.694C151.895 106.151 151.945 105.608 151.973 105.065C152.073 105.006 152.187 104.977 152.303 104.981Z" fill="#F7F7F7"/>
<path d="M35.8637 101.687C37.5932 102.067 38.5494 100.658 39.7938 99.9456C40.2508 99.6848 40.5672 99.1702 41.2 99.1984C41.3968 100.46 41.5867 101.729 41.8046 102.991C42.0226 104.253 42.1069 105.296 40.2649 104.619C39.0486 104.175 37.7901 103.837 36.5808 103.386C35.8215 103.097 35.7301 102.42 35.8637 101.687Z" fill="#F7F7F7"/>
<path d="M153.283 110.919C152.516 111.872 151.558 112.652 150.47 113.21C148.888 114.211 147.735 112.914 146.568 112.054C147.271 111.292 148.333 111.962 149.135 111.518C149.402 111.673 149.465 111.447 149.563 111.278C150.843 111.863 151.968 110.573 153.283 110.919Z" fill="#F7F7F7"/>
<path d="M118.124 103.776C119.038 106.983 119.038 106.983 114.18 107.484L116.197 105.588L118.124 103.776Z" fill="#F7F7F7"/>
<path d="M159.959 80.4678C160.833 82.4712 161.311 84.626 161.365 86.8121C160.24 86.3751 160.184 85.2754 160.156 84.3872C160.135 83.069 159.383 81.7719 159.959 80.4678Z" fill="#1A1C1E"/>
<path d="M169.328 102.504C167.458 101.735 165.567 102.828 163.514 102.426C164.181 101.964 164.974 101.718 165.785 101.721C168.941 101.594 168.941 101.587 169.068 98.3447C169.813 99.6911 169.293 101.115 169.328 102.504Z" fill="#F7F7F7"/>
<path d="M154.046 68.5107C154.587 69.258 155.1 70.0193 155.663 70.7454C156.127 71.3516 155.501 71.3516 155.241 71.556C154.774 71.2145 154.413 70.7468 154.202 70.2076C153.99 69.6683 153.936 69.0797 154.046 68.5107Z" fill="#1A1C1E"/>
<path d="M153.217 41.3593C151.958 41.2888 151.81 40.0481 151.107 39.3784C152.464 39.3009 153.28 39.8789 153.217 41.3593Z" fill="#1A1C1E"/>
<path d="M51.25 34.7836C51.2847 34.3679 51.4619 33.977 51.7516 33.6776C52.0413 33.3781 52.4255 33.1885 52.8389 33.1411C53.5842 34.9457 51.8687 34.3254 51.25 34.7836Z" fill="#1A1C1E"/>
<path d="M149.008 58.0589C148.656 57.4668 148.396 56.9169 149.429 56.79C149.781 56.931 150.505 56.5433 150.393 57.3258C150.28 58.1083 149.612 58.073 149.008 58.0589Z" fill="#1A1C1E"/>
<path d="M52.12 39.8024C51.5927 40.3875 51.4661 41.4308 50.3694 41.3603C50.2569 40.0562 50.9459 39.6614 52.12 39.8024Z" fill="#1A1C1E"/>
<path d="M161.943 97.541C162.114 97.7796 162.227 98.0545 162.275 98.3442C162.322 98.634 162.302 98.9308 162.217 99.2117C161.927 99.1558 161.659 99.018 161.445 98.8144C161.231 98.6108 161.079 98.3499 161.008 98.0627C160.923 97.6538 161.542 97.5833 161.943 97.541Z" fill="#1A1C1E"/>
<path d="M153.547 50.9102C152.844 49.5003 154.306 49.4369 154.834 48.7954C155.178 49.9726 154.538 50.5507 153.547 50.9102Z" fill="#1A1C1E"/>
<path d="M148.619 62.5931C148.879 61.8036 148.338 60.859 149.09 60.1611C148.514 60.8872 151.213 62.2548 148.619 62.5931Z" fill="#1A1C1E"/>
<path d="M153.274 55.9468C153.893 57.0042 152.993 57.4835 152.452 58.1039C152.365 57.7031 152.397 57.2858 152.543 56.9028C152.689 56.5198 152.943 56.1877 153.274 55.9468Z" fill="#1A1C1E"/>
<path d="M155.73 39.7559C156.138 40.4608 157.319 40.3832 157.382 41.4195C156.419 41.2785 155.603 40.9895 155.73 39.7559Z" fill="#1A1C1E"/>
<path d="M161.872 93.3813C162.026 94.485 162.026 95.6049 161.872 96.7086C161.603 96.1954 161.463 95.6245 161.463 95.045C161.463 94.4654 161.603 93.8946 161.872 93.3813Z" fill="#1A1C1E"/>
<path d="M158.571 99.7874C158.236 98.8041 158.154 97.7517 158.332 96.728C158.881 97.1298 158.332 97.9758 159.035 98.3353L159.113 98.4128C158.909 98.871 158.74 99.3292 158.571 99.7874Z" fill="#1A1C1E"/>
<path d="M153.98 139.495C154.318 138.48 155.07 138.663 155.822 138.861C155.616 139.142 155.33 139.354 155 139.467C154.671 139.58 154.315 139.59 153.98 139.495Z" fill="#B2CEE8"/>
<path d="M152.297 62.2017V63.4564C151.868 63.4564 151.376 63.3084 151.369 62.8431C151.362 62.3779 151.868 62.251 152.297 62.2017Z" fill="#1A1C1E"/>
<path d="M161.889 107.103C161.333 107.343 161.614 108.428 160.693 108.294C160.764 107.568 161.108 107.11 161.889 107.103Z" fill="#1A1C1E"/>
<path d="M154.906 43.4707C154.203 43.2874 153.802 42.9561 154.4 42.23C154.934 42.4979 154.892 43.0054 154.906 43.4707Z" fill="#1A1C1E"/>
<path d="M149.097 65.889C148.717 65.4167 147.986 65.0501 148.626 64.2817C149.259 64.6765 149.055 65.3321 149.097 65.889Z" fill="#1A1C1E"/>
<path d="M49.2113 42.23C49.7949 42.9349 49.4293 43.2874 48.6981 43.4777C48.684 43.0054 48.6419 42.4908 49.2113 42.23Z" fill="#1A1C1E"/>
<path d="M157.772 105.439C157.997 104.593 157.413 103.613 158.166 102.845C158.081 103.719 158.587 104.685 157.772 105.439Z" fill="#1A1C1E"/>
<path d="M152.39 58.8896C153.023 59.3126 152.39 59.7215 152.39 60.1303C151.87 59.7144 151.87 59.2985 152.39 58.8896Z" fill="#1A1C1E"/>
<path d="M154.488 38.4893C154.966 38.6725 155.859 38.2707 155.698 39.3563C155.428 39.3687 155.163 39.2899 154.943 39.1327C154.724 38.9754 154.564 38.7488 154.488 38.4893Z" fill="#1A1C1E"/>
<path d="M158.676 43.0679L159.492 43.8926C159.119 43.7094 157.875 44.4143 158.676 43.0679Z" fill="#1A1C1E"/>
<path d="M152.303 104.979C152.194 104.979 152.087 105.008 151.993 105.064C151.993 104.486 151.789 103.858 152.324 103.372L152.303 104.979Z" fill="#1A1C1E"/>
<path d="M158.191 85.8193C157.552 85.9744 157.221 85.8193 157.418 85.1144C157.516 85.1045 157.615 85.1154 157.709 85.1464C157.802 85.1773 157.888 85.2277 157.961 85.2942C158.034 85.3606 158.092 85.4417 158.132 85.5322C158.172 85.6227 158.192 85.7205 158.191 85.8193Z" fill="#1A1C1E"/>
<path d="M158.624 88.4046C158.406 88.7148 158.146 88.9545 157.851 88.5315C157.64 88.2284 157.851 88.0522 158.167 87.9746L158.624 88.4046Z" fill="#1A1C1E"/>
<path d="M149.467 140.329C150.036 139.793 150.732 139.99 151.4 140.011C151.137 140.235 150.818 140.383 150.477 140.439C150.137 140.495 149.787 140.457 149.467 140.329Z" fill="#B2CEE8"/>
<path d="M162.212 100.045C162.17 100.334 162.324 100.679 161.98 100.891C161.354 100.419 161.621 100.186 162.212 100.045Z" fill="#1A1C1E"/>
<path d="M148.834 63.293C148.651 63.4199 148.489 63.4411 148.405 63.1873C148.321 62.9335 148.321 62.6938 148.637 62.5811C148.7 62.8207 148.771 63.0534 148.834 63.293Z" fill="#1A1C1E"/>
<path d="M158.322 95.4706C158.083 94.8291 158.385 94.5683 159.025 94.5049C159.046 95.0195 158.947 95.4283 158.322 95.4706Z" fill="#1A1C1E"/>
<path d="M50.3926 36.0205C50.3926 35.4988 50.8707 35.4424 51.1871 35.231L50.3926 36.0205Z" fill="#1A1C1E"/>
<path d="M49.1147 38.0714C48.8058 37.5435 49.2341 37.5435 49.543 37.459L49.1147 38.0714Z" fill="#1A1C1E"/>
<path d="M153.285 74.1829C153.141 74.1404 153.02 74.0426 152.947 73.9107C152.875 73.7789 152.858 73.6237 152.899 73.479L153.285 74.1829Z" fill="#1A1C1E"/>
<path d="M49.8496 36.8275C49.8918 36.4891 49.934 36.1225 50.3558 36.0591C50.3347 36.4186 50.2363 36.7217 49.8496 36.8275Z" fill="#1A1C1E"/>
<path d="M152.359 139.872C152.493 139.727 152.665 139.622 152.854 139.567C153.044 139.513 153.245 139.511 153.435 139.562C153.189 140.049 152.774 139.964 152.359 139.872Z" fill="#B2CEE8"/>
<path d="M154.072 75.9161C153.615 75.7822 153.728 75.4297 153.763 75.1055C153.861 75.3733 153.988 75.6483 154.072 75.9161Z" fill="#1A1C1E"/>
<path d="M153.883 108.304C154.014 108.177 154.174 108.084 154.349 108.033C154.525 107.983 154.71 107.977 154.888 108.015C154.767 108.156 154.607 108.258 154.428 108.309C154.25 108.361 154.06 108.359 153.883 108.304Z" fill="#1A1C1E"/>
<path d="M159.882 104.623L159.432 104.926L159.334 104.778L159.868 104.609L159.882 104.623Z" fill="#1A1C1E"/>
<path d="M152.402 72.6134C152.015 72.4372 152.219 72.0777 152.163 71.8027L152.402 72.6134Z" fill="#1A1C1E"/>
<path d="M150.467 55.5362V55.4799C150.633 55.3822 150.813 55.3087 151 55.2617C151.232 55.2617 151.267 55.3743 151.056 55.4518C150.865 55.506 150.666 55.5345 150.467 55.5362Z" fill="#1A1C1E"/>
<path d="M149.452 67.302C149.149 67.0483 149.269 66.724 149.297 66.4209C149.346 66.7099 149.402 66.9778 149.452 67.302Z" fill="#1A1C1E"/>
<path d="M149.91 68.8605C149.728 68.7971 149.538 68.7268 149.636 68.4663L149.91 68.8605Z" fill="#1A1C1E"/>
<path d="M161.861 102.539C161.876 102.591 161.88 102.646 161.873 102.7C161.866 102.754 161.848 102.805 161.821 102.852C161.793 102.899 161.756 102.94 161.713 102.972C161.669 103.004 161.619 103.027 161.566 103.039L161.861 102.539Z" fill="#1A1C1E"/>
<path d="M158.301 100.448C158.273 100.395 158.256 100.336 158.254 100.276C158.252 100.215 158.263 100.155 158.288 100.1C158.312 100.045 158.349 99.9965 158.395 99.9579C158.441 99.9193 158.495 99.8917 158.554 99.8774L158.301 100.448Z" fill="#1A1C1E"/>
<path d="M150.464 54.9852C150.254 54.6191 150.464 54.4361 150.759 54.2812L150.464 54.9852Z" fill="#1A1C1E"/>
<path d="M150.851 53.8914C150.781 53.6239 150.851 53.5254 151.146 53.5817L150.851 53.8914Z" fill="#1A1C1E"/>
<path d="M156.962 82.573L156.73 82.1929L156.962 82.573Z" fill="#1A1C1E"/>
<path d="M159.861 104.608L159.967 104.432C159.967 104.495 159.91 104.558 159.875 104.622L159.861 104.608Z" fill="#1A1C1E"/>
<path d="M153.637 74.723L153.307 74.2725L153.637 74.723Z" fill="#1A1C1E"/>
<path d="M151.926 106.694C152.01 106.989 151.82 107.088 151.596 107.165L151.926 106.694Z" fill="#1A1C1E"/>
<path d="M159.018 98.3327L159.235 98.1919L159.095 98.4101L159.018 98.3327Z" fill="#1A1C1E"/>
<path d="M151.822 108.714L152.391 108.454L151.822 108.714Z" fill="#1A1C1E"/>
<path d="M156.584 46.838L156.71 46.4297C156.732 46.5363 156.744 46.6447 156.745 46.7535C156.745 46.7887 156.64 46.8098 156.584 46.838Z" fill="#1A1C1E"/>
<path d="M149.52 111.278C149.422 111.447 149.359 111.672 149.092 111.517L149.52 111.278Z" fill="#1A1C1E"/>
<path d="M159.482 43.8662C159.707 43.9366 159.869 44.0492 159.805 44.3237L159.482 43.8662Z" fill="#1A1C1E"/>
<path d="M155.29 44.1846C155.079 44.2269 154.981 44.1846 155.079 43.9453C155.132 43.9642 155.178 43.996 155.215 44.0378C155.252 44.0797 155.278 44.1302 155.29 44.1846Z" fill="#1A1C1E"/>
<path d="M48.5173 43.9453C48.6155 44.1706 48.5173 44.2269 48.3066 44.1846C48.3175 44.1296 48.3427 44.0785 48.3797 44.0364C48.4167 43.9944 48.4642 43.9629 48.5173 43.9453Z" fill="#1A1C1E"/>
<path d="M158.195 41.9917C158.553 41.8086 158.427 42.1113 158.455 42.2591C158.393 42.2395 158.337 42.2049 158.292 42.1582C158.246 42.1115 158.213 42.0543 158.195 41.9917Z" fill="#1A1C1E"/>
<path d="M48.6914 38.6219L49.0846 38.4741C49.0214 38.7064 48.9161 38.819 48.6914 38.6219Z" fill="#1A1C1E"/>
<path d="M147.436 38.1094C147.38 38.3205 147.302 38.5106 147.021 38.4191L147.436 38.1094Z" fill="#1A1C1E"/>
<path d="M154.486 76.7175L154.297 76.3867C154.351 76.4239 154.397 76.473 154.43 76.5303C154.462 76.5876 154.482 76.6516 154.486 76.7175Z" fill="#1A1C1E"/>
<path d="M152.816 37.6877L152.641 37.8566L152.802 37.6807L152.816 37.6877Z" fill="#1A1C1E"/>
<path d="M52.8809 33.1393C52.9932 32.7099 53.1266 32.8155 53.2599 33.1393C53.1337 33.1463 53.0071 33.1463 52.8809 33.1393Z" fill="#1A1C1E"/>
<path d="M155.83 53.4423C156.027 53.0617 156.076 52.5541 156.639 52.4766C156.649 52.7099 156.572 52.9388 156.422 53.1177C156.273 53.2966 156.061 53.4125 155.83 53.4423Z" fill="white"/>
<path d="M99.0979 70.288C98.8096 69.0262 99.0979 67.8913 100.427 67.9195C101.566 67.9195 102.761 68.568 102.606 70.0977C102.48 71.3454 102.662 72.9879 100.729 72.9738C98.901 72.9526 99.3861 71.2749 99.0979 70.288Z" fill="#1A1C1E"/>
<path d="M89.2939 70.9478C89.3855 71.229 89.409 71.528 89.3624 71.8201C89.3158 72.1121 89.2004 72.3889 89.0258 72.6273C88.8513 72.8657 88.6225 73.059 88.3586 73.1911C88.0946 73.3232 87.8031 73.3903 87.5081 73.3869C86.0176 73.4574 85.7645 71.8995 85.7434 70.8703C85.7223 69.8411 85.5746 68.3185 87.494 68.4383C89.2165 68.5511 89.3923 69.6508 89.2939 70.9478Z" fill="#1A1C1E"/>
<path d="M110.906 70.2168C111.019 69.1101 111.005 67.6861 112.544 67.7073C114.19 67.7073 114.372 69.392 114.274 70.4635C114.197 71.3235 114.274 73.107 112.755 72.9308C112.446 72.8956 112.148 72.7941 111.882 72.6332C111.616 72.4722 111.387 72.2556 111.211 71.9981C111.036 71.7406 110.918 71.4482 110.865 71.1408C110.813 70.8334 110.827 70.5183 110.906 70.2168Z" fill="#1A1C1E"/>
<path d="M190.07 100.659C188.13 102.428 186.161 103.909 184.79 105.974C184.679 106.099 184.54 106.196 184.385 106.258C184.23 106.32 184.063 106.346 183.897 106.334C183.328 106.235 183.567 105.685 183.546 105.319C183.447 103.683 183.693 102.034 183.201 100.384C182.934 99.4889 183.454 99.073 184.34 99.2704C186.182 99.7145 188.01 100.166 190.07 100.659Z" fill="#F7F7F7"/>
<path d="M183.51 113.057C185.71 114.756 186.505 117.096 187.89 119C188.021 119.164 188.093 119.368 188.093 119.578C188.093 119.788 188.021 119.992 187.89 120.156C187.567 120.501 187.06 120.861 186.653 120.41C185.703 119.31 183.243 121.114 183.229 118.922C183.222 117.089 183.51 115.179 183.51 113.057Z" fill="#F7F7F7"/>
<path d="M15.0869 116.257L14.9043 116.173L15.0799 116.264L15.0869 116.257Z" fill="#F7F7F7"/>
</svg>
