<svg width="77" height="26" viewBox="0 0 77 26" fill="none" xmlns="http://www.w3.org/2000/svg">
<path d="M20.2109 0.0405273H4.732C3.62283 0.0411844 2.55927 0.481138 1.77497 1.26374C0.99067 2.04635 0.549762 3.1076 0.549104 4.21437V19.6598C0.548777 20.208 0.656748 20.7509 0.866842 21.2575C1.07694 21.764 1.38503 22.2242 1.77352 22.6119C2.162 22.9995 2.62325 23.307 3.13089 23.5166C3.63853 23.7262 4.1826 23.834 4.732 23.8336H7.06329C7.55114 23.8331 8.03415 23.7371 8.48492 23.5509C8.55381 23.5244 8.62103 23.4937 8.68624 23.4592C8.94144 23.3354 9.18021 23.1805 9.39706 22.9979C10.2968 22.2861 11.5643 20.7659 11.7308 17.7676C11.8476 16.416 10.7118 15.2156 9.21563 15.2156H7.62001C5.96723 15.2156 4.60773 14.06 4.41138 12.5645C4.41138 12.5472 4.41138 12.5273 4.41138 12.5075C4.41138 12.448 4.41138 12.386 4.41138 12.3264C4.41138 12.2669 4.41138 12.2421 4.41138 12.2024C4.41138 12.1504 4.41138 12.0983 4.41138 12.0487C4.41138 11.9991 4.41138 11.947 4.41138 11.8974C4.41138 11.8478 4.42878 11.7932 4.43624 11.7436C4.44369 11.694 4.45115 11.6444 4.46109 11.5948C4.47103 11.5452 4.49092 11.4956 4.50334 11.446C4.51577 11.3964 4.52571 11.3518 4.54062 11.3047C4.55554 11.2576 4.58039 11.2104 4.59779 11.1608C4.61519 11.1112 4.6301 11.0716 4.64998 11.0269C4.66986 10.9823 4.6972 10.9352 4.71957 10.8905C4.74194 10.8459 4.76182 10.8037 4.78668 10.7616C4.81153 10.7194 4.84136 10.6748 4.86869 10.6326C4.89603 10.5904 4.9184 10.5508 4.94823 10.5111L5.04516 10.3896C5.07747 10.3499 5.10232 10.3152 5.13463 10.278C5.16915 10.2389 5.20565 10.2017 5.24399 10.1664C5.27878 10.1267 5.30861 10.0969 5.3434 10.0622C5.3782 10.0275 5.42542 9.99277 5.46767 9.95805C5.50992 9.92333 5.53478 9.89605 5.57206 9.86629C5.60934 9.83653 5.65905 9.80429 5.70378 9.77453C5.74852 9.74477 5.78083 9.71749 5.8206 9.69269L5.96226 9.61085L6.08653 9.53893L6.24808 9.46701L6.36986 9.41245C6.42951 9.38765 6.49165 9.37029 6.55378 9.35045L6.66811 9.31077L6.85451 9.26613C6.89676 9.26613 6.93653 9.24381 6.97878 9.23637C7.02103 9.22893 7.12791 9.21405 7.19998 9.20413L7.30188 9.19173C7.35905 9.19173 7.42118 9.19173 7.48083 9.19173C7.54048 9.19173 7.58024 9.19173 7.63244 9.19173C7.73185 9.19173 7.82878 9.19173 7.92571 9.20661H8.00027C8.08975 9.20661 8.17922 9.22893 8.26372 9.24629H8.28609C8.75486 9.33326 9.19852 9.52268 9.58525 9.80095C9.97198 10.0792 10.2922 10.4395 10.5229 10.8558V10.8558C10.1095 9.99044 9.45889 9.25958 8.64647 8.74781C8.74267 8.4796 8.86943 8.22331 9.02425 7.98397L9.06153 7.92941C9.10627 7.86245 9.15349 7.79549 9.2032 7.73101L9.25291 7.66901C9.30261 7.60453 9.35481 7.54253 9.40948 7.48301L9.43434 7.45573C9.54272 7.3397 9.65809 7.23038 9.77981 7.12837L9.86182 7.05893L10.0159 6.94237L10.1452 6.85309L10.2943 6.75885C10.344 6.72661 10.3987 6.69933 10.4533 6.66957L10.5925 6.59269C10.6745 6.55301 10.759 6.51581 10.8411 6.48109L10.9579 6.43397C11.0498 6.39925 11.1418 6.36701 11.2387 6.33725L11.363 6.30501L11.6115 6.24797L11.7433 6.22317C11.8253 6.20829 11.9098 6.19837 11.9918 6.18845L12.1111 6.17357C12.2354 6.17357 12.3596 6.15621 12.4889 6.15621C12.6181 6.15621 12.7523 6.15621 12.8816 6.17357L13.0108 6.19093L13.2593 6.22813C13.309 6.22813 13.3563 6.24797 13.4035 6.25789L13.6272 6.31245L13.7763 6.35957L13.9851 6.42901L14.1317 6.48853C14.1988 6.51581 14.2634 6.54557 14.3256 6.57533L14.4647 6.64477L14.6536 6.75141L14.7804 6.82829L14.9643 6.95725L15.0762 7.03909C15.1433 7.09365 15.2079 7.15069 15.2725 7.20773L15.3471 7.27221C15.4342 7.35051 15.5171 7.43329 15.5956 7.52021C15.6204 7.54749 15.6403 7.57477 15.6627 7.60205C15.7174 7.66469 15.7688 7.73008 15.8168 7.79797C15.8466 7.83517 15.8715 7.87485 15.8988 7.91205C15.9262 7.94925 15.9759 8.02861 16.0131 8.09061L16.0877 8.22453C16.12 8.28157 16.1498 8.34357 16.1797 8.40309C16.2095 8.46261 16.2244 8.49981 16.2418 8.54693L16.3164 8.73293C16.3338 8.78253 16.3512 8.83213 16.3661 8.88173C16.381 8.93133 16.4009 8.99829 16.4158 9.05781C16.4155 9.06359 16.4155 9.06939 16.4158 9.07517C16.4158 9.12725 16.4406 9.17685 16.4506 9.22893C16.5854 9.8838 16.5302 10.5635 16.2915 11.1881C16.6737 10.5916 16.9025 9.91007 16.9576 9.20413C17.0975 9.18237 17.2386 9.16911 17.3801 9.16445C19.1522 9.18925 20.5838 10.5681 20.5614 12.2272C20.539 13.8864 19.1 15.2181 17.3304 15.2181H15.7248C14.2336 15.2181 13.0903 16.416 13.2121 17.77C13.3762 20.7609 14.6462 22.296 15.5434 23.0004C15.7613 23.1808 15.9999 23.3348 16.2542 23.4592C16.3196 23.4941 16.3868 23.5255 16.4555 23.5534C16.9065 23.7387 17.3895 23.8339 17.8772 23.8336H20.2109C21.3199 23.8336 22.3834 23.3942 23.1678 22.612C23.9522 21.8298 24.3932 20.7688 24.3938 19.6623V4.21437C24.3925 3.1078 23.9514 2.04693 23.1672 1.26447C22.3831 0.482004 21.3199 0.04184 20.2109 0.0405273V0.0405273ZM22.1992 6.93741H17.4944V6.26781H22.1968L22.1992 6.93741ZM22.1992 5.00797H17.4944V4.33837H22.1968L22.1992 5.00797ZM22.1992 3.02397H17.4944V2.35437H22.1968L22.1992 3.02397ZM44.1228 15.2528C44.1228 18.0255 41.9357 19.64 38.9607 19.64H32.4415V4.35573H38.5854C41.5827 4.35573 43.7052 5.94789 43.7052 8.72053C43.7279 9.322 43.5948 9.91914 43.3188 10.4543C43.0428 10.9895 42.6332 11.4447 42.1295 11.7759C42.753 12.1109 43.27 12.6135 43.6219 13.2267C43.9738 13.8399 44.1464 14.5393 44.1203 15.2454L44.1228 15.2528ZM35.6128 10.7293H38.5953C39.6019 10.7293 40.5836 10.2928 40.5836 8.91645C40.5836 7.54005 39.577 7.10605 38.5953 7.10605H35.6128V10.7293ZM40.949 15.0272C40.949 13.6756 39.8554 13.1944 38.8712 13.1944H35.6128V16.8822H38.8712C39.8554 16.8822 40.949 16.4234 40.949 15.0272ZM45.8253 15.8778V3.26453H48.8873V15.3124C48.8873 16.4234 49.6329 16.8599 50.4183 16.8599C50.6254 16.864 50.8319 16.8346 51.0297 16.7731L51.3378 19.4366C50.7702 19.5898 50.186 19.6731 49.5981 19.6846C47.314 19.6772 45.8253 18.2784 45.8253 15.8778V15.8778ZM52.0586 14.2212C52.0339 13.0635 52.3554 11.9248 52.982 10.9502C53.6085 9.97564 54.5119 9.20939 55.5767 8.74921C56.6415 8.28902 57.8196 8.15577 58.9606 8.36645C60.1017 8.57712 61.1539 9.12217 61.9832 9.93208C62.8126 10.742 63.3813 11.78 63.6169 12.9138C63.8525 14.0476 63.7443 15.2257 63.3062 16.2979C62.868 17.37 62.1197 18.2877 61.1567 18.9337C60.1937 19.5797 59.0597 19.9249 57.8993 19.9252C56.3692 19.9332 54.8977 19.3387 53.8042 18.2708C52.7107 17.2029 52.0835 15.7477 52.0586 14.2212V14.2212ZM60.5661 14.241C60.5661 12.5844 59.383 11.3617 57.8918 11.384C56.4006 11.3617 55.2225 12.5844 55.2225 14.241C55.2225 15.8976 56.4006 17.1004 57.8918 17.088C59.383 17.1004 60.5661 15.8778 60.5661 14.241V14.241ZM65.0994 22.544L67.2642 20.7113C68.0098 21.6711 68.9691 22.3704 70.4579 22.3704C71.9466 22.3704 73.6069 21.3437 73.6069 19.0968V18.2784C72.8414 19.2407 71.6185 19.8284 70.0851 19.8284C67.1548 19.8284 64.99 17.3856 64.99 14.2212C64.99 11.0567 67.1548 8.63373 70.0851 8.63373C70.7512 8.61086 71.4138 8.73837 72.0236 9.00676C72.6335 9.27514 73.1746 9.67747 73.6069 10.1837V8.82965H76.6688V18.891C76.6688 23.107 73.6715 25.091 70.4355 25.091C68.221 25.1108 66.188 24.0841 65.0994 22.544ZM73.6069 14.2311C73.6069 12.5496 72.3816 11.3047 70.8083 11.3047C69.2351 11.3047 68.052 12.5447 68.052 14.2311C68.052 15.9175 69.2276 17.1451 70.8158 17.1451C72.4039 17.1451 73.6019 15.9001 73.6019 14.2212L73.6069 14.2311Z" fill="black"/>
</svg>
