<svg width="9" height="13" viewBox="0 0 9 13" fill="none" xmlns="http://www.w3.org/2000/svg">
<path fill-rule="evenodd" clip-rule="evenodd" d="M7.88372 1.63609H1.11628V11.3639H7.88372V1.63609ZM1.11628 0.5C0.499775 0.5 0 1.00865 0 1.63609V11.3639C0 11.9914 0.499775 12.5 1.11628 12.5H7.88372C8.50022 12.5 9 11.9914 9 11.3639V1.63609C9 1.00865 8.50022 0.5 7.88372 0.5H1.11628Z" fill="white"/>
<path fill-rule="evenodd" clip-rule="evenodd" d="M1.74308 5.13238V1.63609H2.57848V4.09947L3.0663 3.59979C3.22942 3.43271 3.4939 3.43271 3.65702 3.59979L4.14484 4.09947V1.63609H4.56254H4.98024V5.13238C4.98024 5.30543 4.87847 5.46144 4.72239 5.52766C4.5663 5.59388 4.38664 5.55728 4.26718 5.43491L3.36166 4.50739L2.45614 5.43491C2.33668 5.55728 2.15702 5.59388 2.00093 5.52766C1.84485 5.46144 1.74308 5.30543 1.74308 5.13238Z" fill="white"/>
</svg>
