<svg width="202" height="184" viewBox="0 0 202 184" fill="none" xmlns="http://www.w3.org/2000/svg">
<path d="M47.8335 39.297V38.8404H48.6059C48.9546 39.0429 49.346 39.1605 49.7486 39.1837C50.1511 39.2069 50.5535 39.135 50.9231 38.9739C51.1549 38.9036 51.8149 38.6577 51.4498 38.4049C50.1226 37.4987 51.4498 36.3958 51.0917 35.4545L51.1549 35.0049C52.5101 34.9557 53.3809 33.5016 54.8274 33.7405L55.2347 33.8669L55.5366 34.162L55.6279 34.2603V34.3797C55.8386 35.0822 56.4073 35.0049 56.948 34.9628C56.7725 35.9322 57.4536 36.3045 58.0224 36.9086C58.5912 37.5127 59.8481 36.6627 59.6866 37.8218C59.5532 38.735 58.2822 37.9904 57.8258 38.6648C57.7837 38.721 57.7415 38.7701 57.7064 38.8263L56.4916 38.6296L56.0773 38.2854C55.0591 37.3863 54.0409 37.0912 53.0297 38.2854C52.9712 38.2996 52.9175 38.3293 52.8743 38.3713C52.831 38.4133 52.7999 38.4661 52.784 38.5243C52.0818 38.6788 53.114 39.3953 52.4399 39.5499C50.9021 39.3181 50.249 40.0416 50.2982 41.5308C50.0401 41.5444 49.7922 41.6364 49.5877 41.7946C49.3832 41.9527 49.2318 42.1695 49.1536 42.416C48.9687 42.5327 48.8295 42.7095 48.7592 42.9166C48.6889 43.1237 48.6918 43.3487 48.7674 43.5539L48.4584 44.1229C48.4053 44.1405 48.3578 44.1719 48.3208 44.2139C48.2838 44.2558 48.2586 44.3069 48.2478 44.3618C46.9065 45.289 46.4922 46.4692 47.5456 47.8109C48.5076 49.0262 49.6522 49.9745 50.5088 51.4216C51.3655 52.8687 52.6154 54.1261 53.5634 55.5872C53.9988 56.2897 55.01 56.9079 54.6237 57.9335C53.9215 59.8863 55.2698 61.7198 54.6237 63.8482C54.0479 65.8081 54.2235 68.063 53.2755 69.468C50.9837 72.81 49.0178 76.3644 47.4051 80.0823C46.7796 81.3049 46.3079 82.6002 46.0007 83.9388C45.783 85.6809 45.6707 87.5284 45.6145 89.3268C45.5021 93.2465 45.0598 97.1593 45.2423 101.093C45.2845 102.048 45.5092 102.407 46.5835 102.617C48.3035 103.013 49.9787 103.582 51.5832 104.317C51.9413 104.472 52.0396 104.893 52.6365 104.641C53.3387 104.324 53.0649 103.819 53.0157 103.446C52.4813 100.294 52.321 97.0897 52.5382 93.8998C52.9595 89.8747 53.5424 85.9268 55.0732 82.0984C56.8708 77.5955 59.0897 73.2121 59.9886 68.3721C60.6227 64.5823 60.2522 60.6924 58.9142 57.0905C57.7941 54.0027 56.2509 51.0854 54.3288 48.4221C53.2334 46.8696 53.8654 45.7176 54.8906 44.5866C55.9158 43.4556 57.1025 42.9288 58.6895 43.6312C62.4954 45.3101 66.7086 46.1461 70.4092 48.12C72.8459 49.4336 75.5494 49.251 77.979 49.0964C83.716 48.7241 89.5232 48.2816 94.9301 45.9704C96.8823 45.1415 99.1785 45.0713 100.667 43.1254C101.06 42.6056 102.563 42.5775 103.16 43.1746C104.431 44.4742 105.969 44.9167 107.612 45.5209C113.23 47.6283 118.91 49.1948 124.956 49.0824C126.951 49.0824 128.945 48.8646 130.939 48.8576C133.193 48.8576 134.654 46.989 136.816 46.5746C139.506 46.0477 142.434 46.0266 144.674 43.8068C145.854 42.6478 147.673 43.1044 148.733 44.3548C149.793 45.6052 150.341 46.8485 149.196 48.5696C146.732 52.3418 144.414 56.2967 143.916 60.8768C143.614 63.5883 143.396 66.3842 144.204 69.1449C145.18 72.4816 147.42 75.2633 148.326 78.579C149.063 81.2975 150.692 83.6789 151.022 86.545C151.38 89.685 151.823 92.804 152.026 95.9721C152.209 98.4077 152.244 100.852 152.131 103.292C151.598 103.769 151.815 104.395 151.801 104.978L151.717 106.6L151.394 107.071C151.963 107.507 149.99 108.336 151.633 108.609L152.195 108.357L153.69 108.195C153.864 108.251 154.05 108.255 154.226 108.206C154.402 108.158 154.56 108.059 154.68 107.921C155.987 107.45 157.405 107.106 157.567 105.35C158.374 104.591 157.876 103.636 157.96 102.765C157.954 102.647 157.93 102.531 157.89 102.421L158.1 100.377L158.353 99.8076C157.868 99.1051 158.353 98.796 158.873 98.4799V98.3464L159.013 98.1287L158.795 98.2692C158.67 98.2682 158.544 98.2848 158.423 98.3183C158.093 98.227 158.051 98.0093 158.17 97.7212C158.237 97.6489 158.288 97.564 158.322 97.4715C158.355 97.379 158.369 97.2807 158.364 97.1826C158.359 97.0844 158.334 96.9883 158.291 96.8998C158.248 96.8114 158.188 96.7324 158.114 96.6675V95.4172C158.732 95.375 158.816 94.9746 158.774 94.4548C158.908 93.942 159.055 93.4221 159.161 92.9023C159.448 91.4974 157.574 89.9309 159.378 88.5751L158.409 88.3714L157.96 87.9429C157.391 87.2404 157.96 86.538 158.002 85.7933C158.003 85.6942 157.982 85.5961 157.942 85.5054C157.902 85.4147 157.843 85.3335 157.77 85.2672C157.696 85.2008 157.609 85.1508 157.515 85.1204C157.421 85.09 157.321 85.08 157.222 85.0909C157.258 84.2268 157.574 83.3066 156.759 82.5971C156.675 82.4707 156.597 82.3442 156.52 82.2178C155.958 80.3211 155.699 78.305 154.28 76.7596C154.276 76.6938 154.256 76.6299 154.223 76.5727C154.191 76.5155 154.145 76.4665 154.091 76.4294L153.859 75.9658L153.55 75.158L153.431 74.7505L153.101 74.301L153.051 74.2307L152.756 73.9216L152.195 72.6712L151.956 71.8634C150.769 71.2242 150.313 70.0229 149.709 68.9271L149.435 68.5337C149.252 68.1684 149.007 67.8312 149.259 67.3746L149.105 66.4966L148.817 65.7941C148.859 65.2672 148.986 64.7193 148.431 64.3891C148.375 64.0379 149.302 63.7288 148.48 63.3354L148.431 62.7032C151.015 62.366 148.319 61.0103 148.894 60.2797V59.0153C149.21 58.8326 149.14 58.6992 148.838 58.6008C148.803 58.5516 148.733 58.5095 148.733 58.4673C148.753 58.3716 148.782 58.2776 148.817 58.1864C149.421 58.1864 150.095 58.1864 150.221 57.4839C150.348 56.7814 149.611 57.0905 149.259 56.957C149.259 55.7628 150.2 55.0323 150.664 54.0699L150.973 53.7397C151.675 52.7352 152.223 51.6323 153.374 51.0774C154.372 50.7191 155.011 50.1431 154.666 48.97L156.408 47.0241C156.464 46.989 156.569 46.9679 156.569 46.9328C156.568 46.8265 156.556 46.7207 156.534 46.6167C156.477 46.1625 156.322 45.7262 156.08 45.338C155.837 44.9498 155.513 44.6191 155.13 44.3688C155.118 44.3145 155.092 44.2641 155.055 44.2223C155.018 44.1805 154.972 44.1488 154.919 44.13L154.617 43.561C154.69 43.3555 154.692 43.1314 154.622 42.9249C154.552 42.7184 154.414 42.5416 154.231 42.423C154.146 42.1761 153.987 41.9611 153.776 41.8068C153.565 41.6524 153.312 41.5659 153.051 41.5589C153.086 40.0838 152.3 39.5077 150.945 39.592C150.207 37.4846 149.056 37.0631 147.307 38.3135L146.893 38.6226L145.685 38.8193C145.271 37.9834 144.161 38.6577 143.761 37.9974C143.059 36.8454 145.369 37.59 144.822 36.445C144.807 36.3778 144.807 36.3084 144.822 36.2413C145.77 35.9813 146.015 34.745 147.062 34.6186H147.146C147.295 34.6217 147.442 34.5799 147.567 34.4984C147.692 34.417 147.79 34.2998 147.848 34.162C147.939 34.0636 148.038 33.9723 148.136 33.8739L148.536 33.7475L148.965 33.4454L150.13 33.3682C150.053 34.4359 150.467 34.731 151.408 34.176L151.801 34.3446C151.812 34.4013 151.838 34.454 151.877 34.4973C151.915 34.5405 151.964 34.5727 152.019 34.5905C152.075 34.8855 152.139 35.1876 152.195 35.4896C152.714 36.2272 152.609 37.0842 152.616 37.9131L152.447 38.0887L152.623 37.9202L154.245 38.3276C154.273 38.4544 154.287 38.584 154.287 38.7139C154.36 38.9739 154.52 39.2012 154.739 39.3583C154.959 39.5154 155.226 39.5929 155.495 39.578V39.9784C155.355 41.1023 155.987 41.3271 156.899 41.2077L157.995 42.1701C158.013 42.2326 158.046 42.2897 158.091 42.3363C158.137 42.3829 158.193 42.4175 158.255 42.437C158.325 42.704 158.388 42.9779 158.458 43.2519C157.651 44.5936 158.894 43.8982 159.266 44.0738L159.589 44.5374L160.01 44.9589C160.023 45.0848 160.046 45.2094 160.08 45.3312L160.41 45.7808C160.86 46.3568 159.771 46.5254 160.066 47.0593C160.066 47.27 160.13 47.4807 160.158 47.6915C160.08 48.0849 160.031 48.4923 159.603 48.689L159.189 49.2439C158.522 50.3855 157.549 51.3175 156.38 51.9344C154.308 52.3207 153.922 54.0418 153.452 55.6715L153.051 56.107C152.721 56.3471 152.467 56.6781 152.321 57.0597C152.176 57.4414 152.144 57.8572 152.23 58.2566C152.23 58.5165 152.23 58.7764 152.23 59.0363C151.682 59.4438 151.724 59.8582 152.23 60.2727C152.181 61.1016 152.131 61.9305 152.089 62.7594C151.787 62.7594 151.303 62.6751 151.296 63.0404C151.289 63.4057 151.787 63.5532 152.174 63.5954L152.244 64.0239L152.49 64.3962C152.49 64.6912 152.553 64.9862 152.581 65.2813C152.075 65.6606 152.258 66.2718 152.11 66.7705C151.57 68.5197 151.998 68.9552 153.831 68.5759L153.908 68.632C153.795 69.1991 153.847 69.7868 154.059 70.3249C154.271 70.863 154.633 71.3288 155.102 71.6667C155.256 71.8774 155.418 72.0812 155.579 72.2849C155.832 73.1419 154.842 73.5283 154.779 74.3361C155.383 74.2448 156.078 74.0762 156.289 74.7716C156.59 75.7761 155.46 76.029 155.102 76.6472C156.162 77.6377 157.307 76.9071 158.416 76.8509L158.88 77.6798C159.055 78.3823 158.374 79.4711 159.694 79.7872C159.736 80.0472 159.771 80.3141 159.807 80.581C159.231 81.9017 159.982 83.1731 160.017 84.4727C160.017 85.3578 160.101 86.4537 161.225 86.8892C161.801 87.6619 159.996 88.5751 161.372 89.3057C161.492 90.549 160.986 91.8486 161.71 93.0358L161.878 93.4713H161.717C161.448 93.9827 161.308 94.5516 161.308 95.1291C161.308 95.7067 161.448 96.2755 161.717 96.787L161.808 97.6229C161.408 97.6721 160.79 97.7353 160.874 98.1427C160.946 98.4286 161.098 98.6881 161.311 98.8909C161.525 99.0936 161.792 99.2313 162.082 99.2877C162.082 99.5617 162.082 99.8357 162.082 100.11C161.492 100.25 161.225 100.482 161.85 100.953C161.815 101.501 161.773 102.055 161.738 102.603L161.443 103.102C161.843 103.755 160.776 105.434 162.559 105.048C164.907 104.648 167.156 103.804 169.188 102.561C169.188 101.156 169.673 99.7514 168.928 98.4167C168.963 96.9134 168.451 95.368 169.321 93.942C170.396 91.6238 172.411 91.2796 174.651 91.4061C177.976 91.6185 181.284 92.0314 184.559 92.6424C188.633 93.3866 192.77 93.7255 196.911 93.654C198.14 93.654 199.151 94.7006 200.576 94.0895C201.117 93.8577 202.121 95.1572 201.314 95.8738C199.137 97.8196 198.631 100.833 196.623 102.835C194.959 104.5 193.814 106.643 191.708 107.914C190.577 108.617 190.542 109.403 191.455 110.59C194.117 114.129 196.525 117.852 198.659 121.732C199.944 124.015 197.641 127.169 194.446 127.436C190.43 127.773 186.476 126.909 182.544 126.34C180.837 126.094 179.033 126.066 177.362 125.483C176.027 125.033 175.873 125.925 175.732 127.141C175.536 128.869 176.695 130.344 176.224 132.016C175.548 133.552 174.402 134.833 172.952 135.676C171.224 136.378 169.321 136.519 167.601 137.347C165.761 138.196 163.786 138.712 161.766 138.872C160.804 138.97 160.235 139.968 159.139 140.206C156.815 140.829 154.525 141.572 152.279 142.433C149.014 142.967 145.664 143.213 142.518 144.147C140.763 144.667 138.888 144.365 137.259 145.25L127.007 146.002C126.838 145.904 126.67 145.714 126.508 145.728C123.369 145.974 120.947 148.727 117.562 148.25C117.057 148.18 116.86 148.833 117.401 149.282C115.898 149.282 114.683 150.203 113.293 150.575C111.256 150.715 109.494 151.615 107.675 152.415C105.674 153.3 103.687 154.467 101.355 154.038C99.4523 154.038 97.8443 152.809 96.0045 152.675C93.0272 150.568 89.3406 150.498 86.0683 149.24C86.6933 148.538 86.2298 148.109 85.633 148.201C83.7019 148.503 82.122 147.428 80.3243 147.133C78.9199 145.651 76.9959 145.644 75.2193 145.672C72.3653 145.694 69.5142 145.482 66.6946 145.039L62.8255 144.478C61.2104 143.62 59.3145 143.578 57.6292 143.382C54.0128 142.953 50.6493 141.647 47.0961 141.064C43.7326 139.16 39.9548 138.464 36.3173 137.369C34.4074 136.146 31.9707 136.231 30.1099 134.889C28.7687 133.343 27.1957 131.875 28.3825 129.515C28.867 128.553 27.7645 127.19 29.1689 126.466C28.9527 126.054 28.6059 125.725 28.1829 125.53C27.7598 125.336 27.2843 125.287 26.8306 125.391C22.5472 126.459 18.1373 126.684 13.7977 127.401L10.5325 127.499C7.92031 126.832 5.30109 127.955 2.66784 127.436C1.75498 127.253 1.71284 126.986 1.96564 126.234C3.7071 120.32 7.78689 114.995 12.2459 110.977C9.11405 109.031 6.95829 106.13 4.52165 103.51C2.61868 101.508 1.40387 99.0068 0.287373 96.5903C-0.583357 94.7358 0.617408 93.6048 2.63975 93.5416C7.55516 93.387 12.4706 93.7031 17.386 92.7969C21.792 91.8745 26.2761 91.3758 30.777 91.3077C32.0199 91.3077 32.9327 92.1437 34.0984 92.2209C35.257 95.2696 35.58 98.4659 35.8118 101.683C35.6503 102.386 35.7415 103.088 36.514 103.383C37.7217 103.84 38.9787 104.17 40.1935 104.612C42.0333 105.315 41.942 104.219 41.7313 102.983C41.5207 101.746 41.324 100.468 41.1274 99.2035C41.8296 96.6254 41.4013 93.9841 41.6049 91.3709C42.1456 90.9424 41.9279 90.5139 41.6049 90.0854C41.9079 89.6008 42.0963 89.0534 42.156 88.4849C42.2156 87.9165 42.1448 87.3419 41.949 86.8049C42.7776 83.4892 43.1006 80.0682 44.6665 76.9141C45.3687 75.5514 46.4571 74.3853 46.6889 72.8047L47.3911 72.4113C47.5947 72.032 48.8797 71.7089 47.4402 71.2523C48.2775 70.4481 48.9398 69.4795 49.3853 68.4073C50.9231 67.3325 50.5299 65.5342 50.8529 64.066C51.3429 62.1053 51.2737 60.0464 50.6531 58.1231C50.0325 56.1997 48.8854 54.4889 47.3419 53.1848C47.0049 51.7798 45.6145 51.1687 44.7578 50.1782C42.2158 47.2349 42.0754 46.3708 44.5191 43.3502C44.6989 43.0686 44.845 42.7668 44.9544 42.4511C45.1008 42.4631 45.2473 42.4289 45.3733 42.3533C45.4993 42.2777 45.5984 42.1645 45.6566 42.0296C45.9516 40.8565 47.5034 40.716 47.7632 39.4937L47.8335 39.297ZM159.652 104.577L159.118 104.746L159.217 104.893L159.673 104.591L159.757 104.402L159.652 104.577ZM104.768 52.9881L104.227 53.6063L101.418 56.079L101.727 56.6128C103.51 55.9432 105.485 56.0013 107.226 56.7744C109.754 57.8773 112.303 59.0715 114.213 61.0524C115.125 62.0008 115.336 61.7549 116.017 61.1016C118.826 58.3901 121.157 55.2149 124.746 52.9178C124.178 52.8071 123.603 52.7343 123.025 52.7001C118.058 52.8673 113.124 51.8386 108.637 49.7005C108.546 49.6584 108.349 49.8481 108.195 49.9253C108.079 49.919 107.964 49.9485 107.865 50.0096C107.577 49.9043 107.471 50.0799 107.408 50.3117L104.726 52.953L104.768 52.9881ZM148.908 111.454C148.108 111.904 147.083 111.237 146.345 111.988C144.52 112.691 142.532 112.74 140.643 113.056C133.018 114.328 125.265 114.349 117.569 114.96C115.189 115.149 112.836 115.494 110.428 115.62C103.906 115.948 97.3707 115.932 90.8503 115.571C86.9601 115.367 83.0138 114.805 79.0955 114.44C76.1462 114.166 73.1689 114.201 70.2197 113.934C65.2481 113.485 60.3888 112.255 55.4734 111.476C52.0814 110.865 48.741 109.996 45.4811 108.876C40.348 107.233 35.257 105.455 29.9133 103.657V107.457C29.3655 107.493 29.1198 106.622 28.5089 106.959C28.3806 107.082 28.2987 107.246 28.2771 107.422C29.0847 108.033 28.8249 109.733 30.3837 109.53C30.5101 110.626 29.9133 111.714 30.0256 112.698C30.5613 117.974 30.7957 123.277 30.7278 128.581C29.0987 129.733 30.2714 130.393 31.1702 131.095C30.2573 133.168 32.2165 133.147 33.1574 133.491C36.3314 134.671 39.5966 135.598 42.8057 136.68C45.6145 137.628 48.2337 139.033 51.1338 139.652C53.3879 140.136 55.663 140.537 57.9381 140.937C63.0993 141.836 68.1973 143.087 73.4919 143.136C76.816 143.202 80.1347 143.436 83.4351 143.838C86.78 144.242 90.1431 144.476 93.5117 144.541C96.475 144.541 99.4593 144.337 102.402 144.541C107.671 145.025 112.978 144.888 118.215 144.133C125.027 143.066 131.929 143.585 138.698 142.237C142.209 141.534 145.72 140.881 149.231 140.129C149.552 140.257 149.901 140.295 150.241 140.24C150.581 140.184 150.9 140.036 151.162 139.813L152.124 139.673C152.539 139.771 152.953 139.848 153.206 139.364L153.733 139.307C154.07 139.399 154.426 139.386 154.756 139.271C155.086 139.156 155.373 138.943 155.579 138.661C157.236 138.303 158.725 137.418 160.298 136.94C163.753 135.893 167.159 134.699 170.578 133.554C173.043 132.725 173.97 131.777 173.492 129.438C172.58 124.97 173.963 120.58 173.591 116.091C173.436 114.25 173.212 112.031 173.844 110.429C174.792 108.026 173.668 105.933 174.11 103.51C173.12 104.065 172.158 103.973 171.526 104.683C169.94 104.945 168.396 105.418 166.934 106.088C165.256 106.706 163.521 107.493 161.618 106.994C160.839 106.994 160.495 107.457 160.424 108.181L153.079 110.864C151.801 110.52 150.671 111.806 149.365 111.223L148.908 111.454ZM181.252 94.6936C179.098 94.067 176.866 93.7524 174.623 93.7593C173.724 93.7593 172.516 93.2887 172.158 94.244C171.646 95.5155 173.401 95.361 173.858 96.1337C173.956 96.2952 174.398 96.2039 174.616 96.3374C175.176 96.6592 175.659 97.0993 176.031 97.6271C176.404 98.1548 176.656 98.7576 176.772 99.3931C177.249 102.765 176.645 106.158 176.828 109.579C177.091 113.127 176.897 116.694 176.252 120.193C175.908 121.865 176.189 123.066 178.436 123.172C179.911 123.242 181.413 123.467 182.902 123.614C183.28 123.905 183.739 124.072 184.215 124.092C186.869 124.331 189.517 124.605 192.157 124.935C193.814 125.146 194.924 124.036 196.23 123.396C196.553 123.235 196.595 122.863 196.349 122.511C194.643 120.011 193.14 117.369 191.518 114.784C190.753 113.583 189.91 112.115 188.33 111.553C186.869 111.04 186.434 109.375 187.628 108.448C189.603 106.871 191.423 105.109 193.063 103.186C194.516 101.536 196.258 99.9762 196.841 97.6861C197.093 96.6886 197.009 95.5295 195.759 95.93C193.765 96.5692 191.974 95.7473 190.1 95.656C187.122 95.5576 184.194 95.0448 181.252 94.6936ZM27.5679 98.3745C28.4386 97.946 28.565 96.9134 29.2462 96.3304C30.0186 96.4709 30.461 95.8878 31.0508 95.5717C31.6407 95.2556 32.2516 94.9535 32.0409 94.2581C31.8303 93.5626 30.9666 93.5556 30.3908 93.6188C27.9479 93.781 25.515 94.0694 23.1019 94.4829C17.5992 95.544 11.9991 96.0149 6.39653 95.8878C4.12842 95.8386 3.25769 97.2927 4.28992 99.365C6.24907 103.222 9.52835 105.926 12.7163 108.617C14.3103 109.944 14.7738 111.033 13.4185 112.557C10.5325 115.852 7.48494 119.069 5.3994 122.996C5.18172 123.403 4.53569 123.474 4.96404 124.26C5.0696 124.502 5.23797 124.711 5.45162 124.865C5.66527 125.02 5.91639 125.114 6.17885 125.139C7.91328 125.012 9.68986 125.286 11.333 125.139C16.5082 124.661 21.6343 123.635 26.7814 122.947C27.7996 122.806 27.9682 122.462 27.912 121.591C27.6732 117.742 27.589 113.864 27.2098 110.05C27.0834 108.827 28.2069 107.907 27.912 107.099C26.8376 104.177 27.582 101.276 27.5679 98.3745ZM72.3754 90.9705C74.6927 93.4081 77.5857 95.2415 79.587 97.9952C81.497 100.658 84.6218 101.859 87.0374 103.903C89.4529 105.947 91.6298 108.385 95.3234 107.12C95.49 107.086 95.6619 107.088 95.8278 107.126C95.9936 107.163 96.1496 107.236 96.2854 107.338C97.7951 108.673 97.3457 106.699 97.8864 106.418C96.3696 104.704 96.7278 102.526 96.3977 100.517C96.3205 100.046 95.8149 99.646 95.4779 99.2315C93.3454 96.6518 90.8992 94.3486 88.196 92.3755C85.9297 90.5573 83.326 89.206 80.535 88.3995C77.7262 87.697 75.0578 86.2921 72.3895 85.2033C70.1775 84.2901 68.0358 82.6884 65.9081 81.3046C64.6793 80.5038 64.0473 80.848 63.9279 82.3512C63.5911 86.6979 63.4926 91.0597 63.633 95.4172C63.6989 96.5645 64.0436 97.6785 64.6371 98.6626C65.7677 100.665 67.6987 101.641 69.3138 103.011C73.8781 106.874 79.3483 107.106 85.4996 107.057C82.122 104.591 80.3805 101.437 78.0281 98.8311C75.9215 96.506 73.7728 94.1738 72.1928 91.4131L72.3754 90.9705ZM116.151 72.9312C115.708 71.7932 116.516 70.3601 115.793 68.8428C114.206 65.5201 112.127 62.7102 108.897 60.8979C106.245 59.3652 103.206 58.6332 100.147 58.7905C98.0409 58.9239 95.85 59.0925 93.8277 60.4553C89.7619 63.1668 86.2509 66.0751 85.6821 71.3225C85.4012 74.0059 85.6821 76.7526 86.9952 78.9373C89.0085 82.1703 91.9817 84.6927 95.4989 86.1516C97.8162 87.1702 100.211 86.6223 102.521 87.128C104.206 87.4933 106.032 86.264 107.703 85.6107C111.509 84.1355 116.958 78.4807 116.151 72.9171V72.9312ZM117.387 107.352C120.848 106.397 124.226 107.078 127.337 105.554C130.101 104.129 132.657 102.333 134.935 100.215C135.845 99.4047 136.476 98.3281 136.739 97.1382C137.339 94.7009 137.473 92.172 137.132 89.685C136.802 87.2264 137.666 84.7677 136.915 82.274C136.606 81.2765 136.873 79.9699 135.04 81.2765C130.616 84.4235 125.588 86.4958 120.49 88.259C118.145 89.0739 115.722 89.8396 113.812 91.3007C110.519 93.8155 107.191 96.4006 104.866 99.9621C104.276 100.868 105.07 106.362 105.934 106.938C106.049 107.015 106.188 107.049 106.327 107.036C108.476 106.727 110.624 106.959 112.766 106.938C113.63 106.938 114.318 105.729 113.967 105.224C113.265 104.17 114.093 104.142 114.536 103.762C116.453 102.112 118.426 100.545 120.245 98.7609C123.348 95.7192 126.705 92.9515 129.956 90.0714C127.44 94.757 124.112 98.9577 120.125 102.477C118.625 103.685 117.645 105.422 117.387 107.331V107.352ZM145.109 47.825C142.225 49.1228 139.562 50.865 137.217 52.9881C131.473 58.4603 126.283 64.4945 120.259 69.6717C119.774 70.0862 119.156 70.613 119.486 71.2101C120.188 72.4043 119.591 73.4931 119.423 74.596C118.559 80.2157 116.045 84.9504 110.744 87.3458C107.893 88.6313 106.453 90.7668 104.979 93.1341C104.81 93.4011 104.445 93.6469 104.831 93.9982C105.47 94.5601 105.407 93.7382 105.646 93.5556C108.869 91.1251 111.804 88.2239 115.617 86.7066C117.671 85.8547 119.507 84.5509 120.989 82.8921C126.993 76.5208 133.039 70.1915 138.986 63.7639C139.738 62.9561 141.002 61.9516 139.899 60.4623C139.815 60.357 139.899 60.0549 140.011 59.8863C141.416 57.2169 141.416 53.9434 143.691 51.5832C144.564 50.5123 145.062 49.1849 145.109 47.8039V47.825ZM73.9835 82.6041C77.1153 82.5409 78.7795 84.845 81.5742 85.0347C83.2946 85.1471 85.5417 86.3413 87.1919 87.6268C88.842 88.9123 89.5723 88.4206 90.3588 87.1491C86.6793 83.9107 82.8944 80.8269 82.8944 74.9262L73.9835 82.6041ZM63.7453 103.545C62.5446 100.84 60.0518 98.6696 60.6697 95.3258C60.7329 95.0027 60.1992 95.101 60.115 95.1713C59.0406 96.1126 57.6924 96.9275 57.0393 98.1146C56.5267 99.0489 56.5127 101.346 57.1868 101.479C59.4619 101.908 61.2736 103.699 63.7453 103.545ZM97.6547 96.3795L98.0268 96.1056C97.6477 95.1081 97.3246 94.0895 96.8612 93.1201C96.6716 92.6986 96.4539 91.9821 95.7026 92.6073C95.211 93.0147 94.6703 93.3097 95.4147 94.0122C96.159 94.7147 96.9033 95.5928 97.6547 96.3795Z" fill="black"/>
<path d="M57.7053 38.8131C57.7053 38.7569 57.7826 38.7078 57.8247 38.6516C58.2882 37.9491 59.5521 38.7218 59.6856 37.8086C59.8471 36.6495 58.555 37.4574 58.0213 36.8954C57.4877 36.3334 56.7714 35.919 56.947 34.9496C59.0957 36.2421 61.2444 37.5206 63.3791 38.8202C64.6501 39.5858 66.0545 38.9255 67.4308 39.1925C70.352 39.7544 73.0906 41.4333 76.1241 41.0119C77.1282 40.8714 77.9498 42.1569 78.8767 41.1453C81.6855 41.0891 84.2556 40.0354 86.952 39.5156C87.3102 39.4453 87.9562 39.4102 88.0194 38.7569C89.6449 38.3581 91.1892 37.6808 92.5837 36.7549C92.7818 36.6986 92.9765 36.6306 93.1665 36.5512C97.1831 34.6756 100.982 32.0484 105.806 32.9616C106.747 34.0644 107.126 35.7714 108.924 35.9681C110.897 37.3309 113.292 37.8226 115.307 39.059C116.415 39.8199 117.768 40.1381 119.099 39.9511C120.721 40.492 122.308 41.1734 124.063 41.1523C125.777 41.8548 127.448 41.0891 129.084 40.8573C131.563 40.5061 133.964 39.2627 136.366 39.0379C138.529 38.8412 140.579 38.8763 142.328 37.4925C143.107 37.0078 143.542 35.8557 144.764 36.2351C144.75 36.3022 144.75 36.3716 144.764 36.4388C145.312 37.5838 143.016 36.8392 143.704 37.9912C144.104 38.6516 145.214 37.9912 145.628 38.8131C145.277 40.5552 143.816 40.4429 142.587 40.485C141.562 40.5271 140.235 39.5648 140.123 41.5949C140.123 41.7213 139.744 41.9532 139.715 41.9321C137.904 40.4288 136.275 42.2412 134.856 42.6346C132.601 43.3366 130.293 43.8534 127.954 44.18C124.583 44.5031 121.311 44.8824 118.024 43.2668C117.428 42.9717 116.494 42.2341 115.265 42.3536C112.231 42.6486 109.942 40.19 107.112 39.4664C106.19 39.3095 105.357 38.8227 104.767 38.0966C104.493 37.6986 104.135 37.3649 103.719 37.1188C103.303 36.8726 102.838 36.7199 102.357 36.6711C101.877 36.6224 101.391 36.6787 100.934 36.8363C100.477 36.9939 100.06 37.2489 99.711 37.5838C98.9444 38.2277 98.097 38.7685 97.1901 39.1925C95.6734 39.9441 93.8336 39.9511 92.5345 40.8081C89.157 43.0209 85.2106 43.2106 81.5591 44.4188C79.6843 45.044 77.8024 44.3415 75.9415 44.2713C73.6612 44.203 71.4115 43.7272 69.2987 42.8664C67.8943 42.2693 66.3705 41.9953 64.9099 41.5457C64.2077 41.342 63.0983 42.3325 62.8946 40.8433C62.8946 40.6817 63.2036 40.3867 62.9859 40.1408C62.6488 39.7544 62.4031 40.2813 62.1713 40.2743C60.4931 40.3234 58.5199 41.1875 57.7053 38.8131Z" fill="black"/>
<path d="M46.7037 72.804C46.4719 74.3845 45.3554 75.5506 44.6813 76.9134C43.1154 80.0675 42.7924 83.4885 41.9638 86.8041C34.9746 85.9432 28.1283 84.1696 21.5999 81.5286C20.2792 80.9631 18.8917 80.5689 17.471 80.3555C15.6312 80.1448 14.5147 78.6907 12.9278 78.0865C12.6652 77.9711 12.4513 77.7675 12.3231 77.5109C12.1949 77.2543 12.1603 76.9609 12.2256 76.6816C12.3168 75.9791 12.8926 75.8316 13.4052 75.6771C15.9714 74.9348 18.6157 74.4963 21.284 74.3705C27.4352 73.9841 33.5655 73.3378 39.7027 72.825C41.9849 72.6494 44.3724 71.8627 46.7037 72.804Z" fill="#AECDE9"/>
<path d="M105.789 32.9606C100.986 32.0474 97.1869 34.6746 93.1492 36.5502C92.9592 36.6297 92.7646 36.6977 92.5664 36.754C92.7771 32.2792 93.9146 27.952 95.0662 23.688C96.7403 17.1367 97.9465 10.4746 98.6756 3.75201C98.8511 2.34707 99.9466 1.73592 100.333 0.597926C100.452 0.232643 100.902 0.302889 101.182 0.597926C101.821 1.30039 102.643 1.82022 102.748 2.895C103.282 8.14946 104.061 13.3899 104.314 18.6514C104.462 21.7844 105.185 24.8541 105.073 28.0504C105.038 29.5466 105.859 31.2607 105.789 32.9606Z" fill="#AECDE9"/>
<path d="M66.5814 144.955C69.4011 145.398 72.2521 145.609 75.1062 145.587C76.8827 145.587 78.7998 145.587 80.2112 147.048C78.561 150.02 76.1314 152.352 73.6386 154.558C68.5055 159.11 63.1968 163.465 57.9795 167.891C56.4358 169.256 54.7928 170.506 53.0641 171.628C52.5655 171.93 52.1231 172.274 51.5754 171.867C51.0277 171.459 51.3226 170.89 51.5754 170.391C53.3449 166.5 55.9431 163.114 58.1621 159.496C60.8445 155.12 63.4707 150.708 66.0969 146.297C66.3029 145.867 66.4652 145.417 66.5814 144.955Z" fill="#AECDE9"/>
<path d="M155.53 72.264C155.368 72.0603 155.207 71.8566 155.052 71.6458C155.312 71.4421 155.93 71.4421 155.467 70.838C154.905 70.1355 154.392 69.3558 153.859 68.6112L153.781 68.555C153.234 67.5575 152.602 66.581 152.798 65.3587C157.384 64.579 161.969 63.7712 166.562 63.0336C168.513 62.6807 170.486 62.4601 172.467 62.3733C176.516 62.289 180.552 62.0103 184.573 61.5373C184.984 61.4882 185.398 61.4882 185.809 61.5373C186.357 61.6005 187.213 61.2212 187.305 62.1485C187.389 62.8509 186.792 63.2303 186.216 63.5042C184.306 64.4245 182.396 65.3517 180.458 66.2298C176.245 68.1265 172.425 70.6272 168.521 73.0016C166.659 74.1796 164.552 74.9149 162.362 75.1511C160.958 75.2846 159.947 76.5139 158.5 76.4858C157.566 75.0106 157.047 73.2826 155.53 72.264Z" fill="#AECDE9"/>
<path d="M137.195 145.166C138.824 144.281 140.706 144.583 142.455 144.064C145.601 143.129 148.95 142.883 152.215 142.35C158.332 149.416 164.153 156.722 169.588 164.316C169.946 164.814 170.817 165.355 170.1 166.065C169.546 166.62 169.04 165.931 168.499 165.671C161.73 162.363 156 157.439 149.589 153.582C146.78 151.903 143.81 150.533 141.008 148.861C139.484 147.955 137.518 147.365 137.195 145.166Z" fill="#AECDE9"/>
<path d="M159.757 80.524L159.645 79.7302L159.729 78.8732C165.515 79.0348 171.28 78.1708 177.066 78.4939C181.637 78.7327 186.195 79.386 190.759 79.365C191.217 79.3401 191.667 79.4857 192.024 79.7737C192.381 80.0617 192.618 80.4717 192.69 80.9244C192.915 81.9852 191.988 82.0414 191.286 82.3856C188.575 83.8397 185.528 84.1417 182.628 84.9004C176.877 86.3966 171.062 87.7103 165.374 89.4454C164.132 89.8317 162.868 90.1478 161.611 90.5131C161.484 90.0987 161.92 89.5367 161.295 89.2487C159.89 88.5462 161.723 87.6049 161.147 86.8322C161.096 84.6593 160.623 82.5171 159.757 80.524Z" fill="#AECDE9"/>
<path d="M142.307 37.4914C140.524 38.8963 138.508 38.8401 136.346 39.0368C133.944 39.2616 131.542 40.5049 129.064 40.8562C127.428 41.088 125.756 41.8396 124.043 41.1512C130.524 33.3679 138.199 26.8209 146.261 20.7234C148.276 19.1991 149.884 17.1619 152.103 15.8413C152.686 15.4901 153.149 14.8297 153.879 15.4549C154.497 15.9888 154.132 16.5789 153.879 17.1479C152.405 20.3371 150.368 23.161 148.473 26.1114C146.506 29.2374 144.653 32.4336 142.686 35.5525C142.338 36.1348 142.204 36.8206 142.307 37.4914Z" fill="#AECDE9"/>
<path d="M101.244 153.953C103.611 154.381 105.598 153.25 107.564 152.33C109.397 151.529 111.159 150.63 113.182 150.49C111.777 157.936 110.246 165.361 108.126 172.653C107.248 175.68 107.515 178.926 106.419 181.918C106.089 182.817 105.921 183.836 104.559 183.674C103.196 183.513 102.887 182.487 102.908 181.441C103.007 176.692 102.087 172.027 101.932 167.286C101.82 162.846 101.202 158.407 101.244 153.953Z" fill="#AECDE9"/>
<path d="M117.338 149.199C116.812 148.749 116.994 148.096 117.5 148.166C120.884 148.644 123.307 145.89 126.446 145.645C126.607 145.645 126.776 145.82 126.944 145.918C127.499 150.133 129.234 154.06 130.505 158.085C132.155 163.312 133.875 168.51 135.708 173.666C136.41 175.717 137.534 177.635 137.85 179.841C137.913 180.269 138.053 180.67 137.639 180.943C137.077 181.323 136.691 180.894 136.431 180.522C133.77 176.715 130.519 173.343 128.335 169.17C126.151 164.998 124.297 160.895 121.734 157.067C120.13 154.524 118.663 151.898 117.338 149.199Z" fill="#AECDE9"/>
<path d="M88.0182 38.7557C87.955 39.409 87.316 39.4581 86.9509 39.5143C84.2544 40.0342 81.6633 41.0879 78.8756 41.1441C76.2774 33.2975 73.6933 25.4439 71.0601 17.6114C70.0629 14.6329 68.8973 11.7107 67.8861 8.73922C67.6474 8.03675 67.2541 6.9409 68.1951 6.55454C69.0307 6.20331 69.3467 7.25701 69.8382 7.80493C75.3716 14.0007 78.8475 21.4469 82.6955 28.6893C83.9314 31.0215 85.4412 33.2413 86.8175 35.5243C87.4668 36.4917 87.8782 37.5989 88.0182 38.7557Z" fill="#AECDE9"/>
<path d="M47.4196 53.1846C48.9631 54.4887 50.1102 56.1995 50.7308 58.1228C51.3514 60.0462 51.4206 62.1051 50.9307 64.0658C50.6076 65.5339 51.0009 67.3323 49.4631 68.407C49.5263 67.7046 49.0768 67.3533 48.5221 67.0021C42.4481 62.9208 36.2336 59.1415 29.8716 55.587C27.7607 54.3208 25.7147 52.9493 23.7414 51.4776C23.2569 51.1404 22.667 50.6416 23.0392 49.9321C23.4114 49.2227 24.0925 49.616 24.6823 49.7776C28.5148 50.7987 32.4114 51.5614 36.3459 52.0606C40.0606 52.5453 43.7261 52.9879 47.4196 53.1846Z" fill="#AECDE9"/>
<path d="M119.081 39.9504C117.75 40.1374 116.397 39.8192 115.289 39.0583C113.274 37.822 110.879 37.3302 108.906 35.9674C111.125 34.3658 112.417 31.9704 113.871 29.7857C117.192 24.6858 120.036 19.2979 123.624 14.3314C125.029 12.3715 126.138 10.1166 127.599 8.14269C128.055 7.53154 128.554 6.55511 129.544 6.96957C130.717 7.46832 129.951 8.52202 129.734 9.13317C128.364 12.9405 126.925 16.7268 125.387 20.464C123.919 24.0185 122.845 27.6994 121.609 31.3241C120.64 34.1621 119.552 36.9649 119.081 39.9504Z" fill="#AECDE9"/>
<path d="M152.196 59.0154C152.196 58.7555 152.196 58.4956 152.196 58.2357C152.737 57.6245 153.635 57.1398 153.017 56.0861L153.418 55.6506C154.281 55.8122 154.569 55.3556 154.703 54.5758C154.773 54.1262 154.78 53.4519 155.595 53.5924C155.825 53.5626 156.036 53.4471 156.186 53.2689C156.336 53.0906 156.413 52.8625 156.402 52.63C156.93 52.7645 157.478 52.7931 158.017 52.7143C163.031 50.8527 168.417 50.3259 173.423 48.3801C175.699 47.502 178.212 47.2421 180.621 46.7152C181.091 46.6169 181.653 46.4623 181.899 47.0313C182.037 47.3089 182.075 47.6258 182.006 47.928C181.936 48.2302 181.765 48.4992 181.52 48.6891C179.586 50.4537 177.417 51.9407 175.074 53.1077C168.052 56.7394 160.959 60.2026 153.881 63.7149C153.427 63.8814 152.956 63.9992 152.477 64.0661C152.374 64.0809 152.269 64.0585 152.182 64.0029L152.112 63.5744L152.027 62.7385C152.069 61.9096 152.119 61.0807 152.168 60.2517C152.231 59.8443 152.828 59.4369 152.196 59.0154Z" fill="#AECDE9"/>
<path d="M85.9563 149.155C89.2285 150.413 92.9151 150.469 95.8924 152.59C93.3154 154.431 91.7845 157.135 90.2748 159.756C86.4267 166.387 82.1995 172.772 77.902 179.116C77.4456 179.818 77.0383 180.759 76.0341 180.239C75.1704 179.79 75.655 178.919 75.8446 178.202C77.1436 173.285 79.6926 168.824 81.2796 164.012C82.8596 159.109 84.3974 154.108 85.9563 149.155Z" fill="#AECDE9"/>
<path d="M46.998 140.979C50.509 141.562 53.9006 142.868 57.531 143.297C59.1952 143.493 61.1122 143.535 62.7273 144.393C58.241 146.574 53.5663 148.345 48.7605 149.682C47.5031 150.035 46.3021 150.565 45.1933 151.256C42.0334 153.3 38.0589 153.258 34.9482 155.386C34.6888 155.573 34.3736 155.666 34.0544 155.649C33.7352 155.633 33.4312 155.508 33.1927 155.295C32.5958 154.67 33.3261 154.185 33.628 153.693C34.6041 152.085 36.1138 150.968 37.4972 149.759C40.7273 146.928 44.1681 144.28 46.998 140.979Z" fill="#AECDE9"/>
<path d="M51.1895 34.992L51.1263 35.4415C49.7219 36.144 49.4691 37.7035 48.6405 38.8274H47.8681C44.1979 33.9617 40.5254 29.0983 36.8506 24.2372C36.2186 23.3872 34.8423 22.3686 35.5515 21.4765C36.2607 20.5844 37.4755 21.8277 38.3603 22.2843C43.7111 25.0942 48.3386 28.9859 53.4928 32.0767C53.7462 32.1853 53.9694 32.354 54.1431 32.5682C54.3168 32.7823 54.4358 33.0356 54.4899 33.306C53.0293 33.1655 51.6249 33.1515 51.1895 34.992Z" fill="#AECDE9"/>
<path d="M158.482 43.2519C158.411 42.9779 158.348 42.7039 158.278 42.437C158.278 42.2895 158.376 41.9944 158.018 42.1701L156.951 41.1796L157.105 41.0953C157.105 41.0391 157.063 40.9688 157.014 40.9407L155.525 39.9503V39.5499C155.715 38.44 154.788 38.8825 154.318 38.6858C154.318 38.5559 154.304 38.4263 154.275 38.2995C154.373 38.2234 154.45 38.1245 154.5 38.0115C155.531 37.9453 156.538 37.6755 157.463 37.2177C161.81 35.4334 166.171 33.7053 170.524 31.9351C171.121 31.6963 171.788 31.4364 172.266 31.9351C172.743 32.4339 172.266 33.1995 171.929 33.5859C170.272 35.3351 168.572 37.042 166.803 38.6718C164.549 40.7792 162.091 42.6337 160.047 44.9448L159.626 44.5233C159.696 44.2494 159.535 44.13 159.303 44.0597L158.482 43.2519Z" fill="#AECDE9"/>
<path d="M169.105 102.476C167.073 103.719 164.823 104.563 162.476 104.963C160.692 105.349 161.774 103.671 161.359 103.017C161.412 103.005 161.462 102.982 161.506 102.95C161.549 102.918 161.586 102.878 161.614 102.831C161.641 102.784 161.659 102.733 161.666 102.679C161.673 102.625 161.669 102.571 161.654 102.519C161.654 101.971 161.732 101.416 161.767 100.868C162.118 100.657 161.956 100.313 161.998 100.025C162.041 99.7367 161.998 99.4768 161.998 99.2029C162.084 98.923 162.103 98.6272 162.056 98.3384C162.008 98.0497 161.895 97.7758 161.725 97.538L161.633 96.7021C161.787 95.6022 161.787 94.4863 161.633 93.3864H161.795C164.302 92.8806 166.752 93.3864 169.203 93.829C168.332 95.2339 168.845 96.8004 168.81 98.3037C168.683 101.535 168.683 101.542 165.53 101.669C164.72 101.665 163.929 101.91 163.262 102.371C165.348 102.799 167.237 101.711 169.105 102.476Z" fill="#AECDE9"/>
<path d="M41.6319 91.35C41.4283 93.9632 41.8566 96.6045 41.1544 99.1825C40.5365 99.1825 40.2275 99.6742 39.75 99.9342C38.5071 100.637 37.5591 102.042 35.8247 101.662C35.593 98.4449 35.27 95.2487 34.1113 92.2C36.6182 91.8769 39.0899 91.2727 41.6319 91.35Z" fill="#AECDE9"/>
<path d="M30.0092 134.804C31.87 136.146 34.3067 136.062 36.2166 137.284C34.0741 138.191 31.8875 138.991 29.6651 139.679C28.3488 140.041 27.0123 140.325 25.6625 140.529C24.9603 140.628 23.907 141.07 23.4647 140.052C23.0925 139.202 23.8438 138.647 24.4197 138.176C26.133 136.813 27.8324 135.401 30.0092 134.804Z" fill="#AECDE9"/>
<path d="M172.887 135.591C174.337 134.748 175.483 133.467 176.159 131.931C178.132 133.28 180.119 134.615 182.072 135.998C182.5 136.301 182.991 136.701 182.675 137.403C182.458 137.853 181.973 137.804 181.573 137.712C178.673 137.003 175.78 136.293 172.887 135.591Z" fill="#AECDE9"/>
<path d="M155.529 72.2642C157.046 73.2827 157.565 75.0108 158.478 76.479C158.487 76.6126 158.447 76.7448 158.366 76.8513C157.256 76.9075 156.112 77.638 155.052 76.6476C155.41 76.0294 156.54 75.7765 156.238 74.772C156.028 74.0695 155.332 74.2451 154.729 74.3364C154.792 73.5075 155.782 73.1212 155.529 72.2642Z" fill="#1A1C1E"/>
<path d="M155.62 53.5915C154.806 53.451 154.799 54.1254 154.728 54.5749C154.595 55.3547 154.307 55.8113 153.443 55.6497C153.914 54.0059 154.3 52.299 156.372 51.9126C156.842 52.1374 156.596 52.3833 156.372 52.6151C155.887 52.7064 155.817 53.2122 155.62 53.5915Z" fill="#1A1C1E"/>
<path d="M152.799 65.3596C152.602 66.5819 153.234 67.5583 153.782 68.5558C151.949 68.9351 151.521 68.4996 152.061 66.7505C152.209 66.2517 152.026 65.6406 152.532 65.2612C152.627 65.2755 152.717 65.3089 152.799 65.3596Z" fill="#1A1C1E"/>
<path d="M51.1895 34.991C51.6248 33.1505 53.0292 33.1646 54.4828 33.277C54.6092 33.4245 54.7356 33.579 54.869 33.7265C53.4154 33.4877 52.5447 34.9418 51.1895 34.991Z" fill="#1A1C1E"/>
<path d="M154.483 38.0117C154.433 38.1247 154.356 38.2236 154.258 38.2997L152.636 37.8923C152.636 37.0633 152.734 36.2063 152.215 35.4688C153.416 35.8902 153.472 37.3724 154.483 38.0117Z" fill="#1A1C1E"/>
<path d="M151.408 34.1486C150.467 34.7035 150.053 34.4085 150.13 33.3407C150.818 33.2002 151.324 33.3688 151.408 34.1486Z" fill="#1A1C1E"/>
<path d="M161.323 89.2505C161.948 89.5385 161.513 90.1005 161.639 90.5149C161.155 91.3439 162.019 92.1587 161.639 92.9806C160.937 91.7934 161.443 90.4939 161.323 89.2505Z" fill="#1A1C1E"/>
<path d="M45.7413 42.0292C45.683 42.1641 45.584 42.2774 45.458 42.353C45.332 42.4286 45.1855 42.4628 45.0391 42.4507C45.0193 42.2436 45.0743 42.0362 45.1941 41.8662C45.3139 41.6961 45.4905 41.5745 45.6922 41.5234L45.7413 42.0292Z" fill="#1A1C1E"/>
<path d="M159.729 78.8744L159.645 79.7314C158.325 79.4505 159.006 78.3897 158.83 77.624L159.729 78.8744Z" fill="#1A1C1E"/>
<path d="M56.9451 34.9483C56.4044 34.9904 55.8357 35.0888 55.625 34.3652C56.0323 34.6392 56.7415 34.2247 56.9451 34.9483Z" fill="#1A1C1E"/>
<path d="M47.4886 71.2529C48.9281 71.7025 47.6431 72.0327 47.4395 72.412C47.4535 72.0046 47.4746 71.6393 47.4886 71.2529Z" fill="#AECDE9"/>
<path d="M41.6184 90.0869C41.9343 90.5154 42.152 90.9439 41.6184 91.3724C41.6113 90.972 41.6184 90.5154 41.6184 90.0869Z" fill="#AECDE9"/>
<path d="M159.193 49.2224L159.608 48.6675L159.193 49.2224Z" fill="#1A1C1E"/>
<path d="M152.193 64.002C152.281 64.0575 152.386 64.0799 152.488 64.0652C152.504 64.1708 152.486 64.2786 152.439 64.3743L152.193 64.002Z" fill="#1A1C1E"/>
<path d="M160.162 47.6698C160.162 47.4591 160.105 47.2483 160.07 47.0376C160.681 47.164 160.45 47.4169 160.162 47.6698Z" fill="#1A1C1E"/>
<path d="M160.418 45.7601L160.102 45.3105C160.326 45.3667 160.509 45.4581 160.418 45.7601Z" fill="#1A1C1E"/>
<path d="M47.8358 39.2971V39.4948L47.6875 39.29L47.8358 39.2971Z" fill="#1A1C1E"/>
<path d="M152.02 34.5623C151.965 34.5445 151.916 34.5123 151.878 34.4691C151.84 34.4258 151.814 34.3731 151.803 34.3164L152.02 34.5623Z" fill="#1A1C1E"/>
<path d="M147.067 34.6131H146.982L147.025 34.4648L147.067 34.6131Z" fill="#1A1C1E"/>
<path d="M148.05 33.8658C147.952 33.9642 147.854 34.0555 147.762 34.1539C147.713 33.915 147.811 33.8167 148.05 33.8658Z" fill="#1A1C1E"/>
<path d="M55.5715 34.1485L55.2695 33.8535C55.5153 33.7973 55.6347 33.8816 55.5715 34.1485Z" fill="#1A1C1E"/>
<path d="M148.868 33.4382L148.439 33.7403C148.538 33.5506 148.608 33.368 148.868 33.4382Z" fill="#1A1C1E"/>
<path d="M30.7574 128.601C30.8253 123.298 30.5908 117.995 30.0552 112.718C29.9428 111.735 30.5397 110.611 30.4133 109.55C33.0887 109.852 35.413 111.321 38.0392 111.897C39.0293 112.107 40.3916 111.897 40.848 112.339C42.6246 114.109 44.991 114.102 47.0695 114.847C50.9521 116.224 54.9942 117.099 59.0982 117.453C62.3592 117.696 65.6039 118.123 68.8167 118.732C73.8656 119.778 78.8652 120.783 84.0334 120.712C85.5642 120.712 87.1372 120.656 88.6258 120.769C91.7928 121.001 94.9456 121.584 98.1407 121.534C100.128 121.534 102.094 120.909 104.095 121.162C107.286 121.569 110.514 121.584 113.708 121.204C116.311 120.791 118.934 120.514 121.566 120.375C125.358 120.326 129.08 119.848 132.801 119.511C136.523 119.174 140.153 117.931 143.854 117.523C147.786 117.095 151.466 115.76 155.342 115.156C159.885 114.454 164.063 112.156 168.684 111.686C171.296 111.426 171.626 111.819 171.092 114.362C170.074 119.223 168.733 123.972 166.177 128.271C165.391 129.599 164.962 131.369 163.27 131.875C159.836 132.907 156.388 134.102 152.814 134.34C148.685 134.614 144.655 135.626 140.666 136.37C134.338 137.441 127.954 138.145 121.545 138.478C112.62 139.096 103.688 139.693 94.7209 139.489C90.3603 139.398 86.0066 140.002 81.6249 139.082C79.9268 138.692 78.1917 138.488 76.4497 138.471C71.5904 138.562 66.8225 137.811 62.0475 137.164C58.6699 136.715 55.4117 135.619 52.013 135.155C49.3753 134.783 46.7745 134.183 44.2397 133.364C39.6964 131.903 35.2445 130.203 30.7574 128.601Z" fill="white"/>
<path d="M57.7097 38.8122C58.5242 41.1866 60.5185 40.3226 62.1265 40.3436C62.3583 40.3436 62.604 39.8238 62.9411 40.2102C63.1588 40.449 62.8287 40.744 62.8498 40.9126C63.0534 42.3667 64.191 41.3763 64.8651 41.6151C66.3257 42.0647 67.8214 42.3176 69.2539 42.9357C71.3667 43.7966 73.6164 44.2724 75.8967 44.3407C77.7716 44.4109 79.6535 45.1134 81.5143 44.4882C85.1658 43.2799 89.1121 43.0833 92.4897 40.8775C93.7888 40.0205 95.6286 40.0135 97.1453 39.2618C98.0733 38.8198 98.9377 38.2551 99.7154 37.5829C100.061 37.2422 100.478 36.9811 100.935 36.8179C101.392 36.6548 101.88 36.5934 102.363 36.6383C102.847 36.6831 103.314 36.833 103.734 37.0774C104.154 37.3219 104.515 37.655 104.792 38.0536C105.382 38.7797 106.216 39.2665 107.138 39.4234C109.946 40.1259 112.257 42.6056 115.29 42.3105C116.519 42.1911 117.453 42.9287 118.05 43.2237C121.336 44.8254 124.608 44.4601 127.979 44.137C130.318 43.8104 132.627 43.2936 134.882 42.5915C136.286 42.2122 137.929 40.3998 139.741 41.8891C139.741 41.8891 140.141 41.6783 140.148 41.5519C140.261 39.5217 141.588 40.4841 142.613 40.442C143.842 40.3998 145.302 40.5122 145.653 38.7701L146.861 38.5734C147.149 38.6647 147.219 38.4751 147.276 38.2643C149.024 37.0139 150.176 37.4214 150.913 39.5428C151.615 40.2031 151.798 41.4395 153.02 41.5097C153.281 41.5167 153.533 41.6032 153.744 41.7575C153.955 41.9119 154.114 42.1269 154.199 42.3738C153.701 42.9638 153.743 43.3713 154.585 43.5118L154.887 44.0808C154.789 44.3055 154.887 44.3617 155.098 44.3196C155.481 44.5699 155.805 44.9006 156.048 45.2888C156.29 45.677 156.445 46.1133 156.502 46.5675L156.376 46.9749L154.635 48.9208C154.101 49.56 152.668 49.6232 153.343 51.0282C152.191 51.6042 151.615 52.686 150.941 53.6905C150.681 53.6343 150.576 53.7327 150.646 53.9996C150.176 54.962 149.242 55.6926 149.242 56.8868C148.216 57.0062 148.469 57.5541 148.82 58.1442C148.785 58.2355 148.757 58.3294 148.736 58.4252C148.736 58.4673 148.806 58.5094 148.841 58.5586C148.877 58.6078 148.884 58.8326 148.898 58.9731V60.2445C148.153 60.947 148.694 61.8813 148.434 62.6681C148.048 62.9069 147.893 63.1317 148.483 63.3003C149.305 63.6937 148.378 64.0028 148.434 64.354C147.809 65.0565 148.378 65.3936 148.82 65.7589L149.108 66.4614C149.108 66.7634 148.961 67.0866 149.263 67.3395C149.01 67.768 149.263 68.1333 149.438 68.4985C149.34 68.7655 149.53 68.8287 149.712 68.8919C150.316 69.9878 150.772 71.189 151.959 71.8282C152.015 72.1092 151.812 72.4605 152.198 72.6361L152.76 73.8865L153.055 74.1956L153.104 74.2658L153.434 74.7154C153.476 74.8559 153.511 74.9893 153.553 75.1228C153.518 75.446 153.406 75.8253 153.862 75.9307L154.094 76.3943L154.284 76.7244C155.688 78.2699 155.962 80.2859 156.524 82.1826C156.601 82.3091 156.678 82.4355 156.762 82.5619C157.577 83.2644 157.261 84.1917 157.226 85.0557C157.029 85.7582 157.359 85.9478 158.005 85.7582C157.963 86.4606 157.394 87.1631 157.963 87.9077C157.661 87.992 157.429 88.1606 157.64 88.4627C157.935 88.8842 158.195 88.6453 158.412 88.3362L159.381 88.54C157.577 89.8957 159.452 91.4341 159.164 92.8671C159.058 93.387 158.911 93.9068 158.778 94.4196C158.174 94.4828 157.872 94.7427 158.118 95.382V96.6324L158.174 97.6861C158.054 97.9741 158.096 98.1919 158.426 98.2832L158.869 98.4447C158.363 98.7609 157.865 99.0699 158.349 99.7724C158.292 99.7879 158.238 99.816 158.193 99.8548C158.147 99.8936 158.111 99.942 158.087 99.9966C158.063 100.051 158.051 100.11 158.053 100.17C158.054 100.23 158.069 100.288 158.096 100.341L157.886 102.386C157.081 102.374 156.294 102.62 155.639 103.088C154.543 103.791 153.602 104.95 152.128 104.9V103.292C152.24 100.852 152.205 98.4076 152.022 95.9721C151.819 92.8039 151.376 89.685 151.018 86.5449C150.688 83.6789 149.059 81.2975 148.322 78.579C147.416 75.2633 145.176 72.4815 144.2 69.1448C143.392 66.3841 143.61 63.5883 143.912 60.8768C144.411 56.3107 146.721 52.3418 149.193 48.5695C150.337 46.8204 149.74 45.4997 148.729 44.3547C147.718 43.2097 145.85 42.6477 144.67 43.8068C142.416 46.0266 139.502 46.0477 136.813 46.5745C134.65 46.989 133.189 48.8435 130.935 48.8575C128.941 48.8575 126.947 49.0472 124.953 49.0823C118.907 49.1947 113.226 47.6212 107.608 45.5208C105.972 44.9167 104.427 44.4741 103.156 43.1746C102.559 42.5775 101.05 42.6056 100.663 43.1254C99.1817 45.0993 96.9066 45.1696 94.9334 46.0125C89.5264 48.3237 83.6982 48.7662 77.9822 49.1385C75.5526 49.2931 72.8491 49.4757 70.4125 48.1621C66.7119 46.146 62.4987 45.3101 58.6647 43.6452C57.0777 42.9428 55.905 43.4696 54.8658 44.6006C53.8265 45.7316 53.2086 46.8836 54.304 48.4361C56.226 51.0994 57.7692 54.0167 58.8894 57.1045C60.2274 60.7064 60.5978 64.5963 59.9637 68.3861C59.093 73.2262 56.8741 77.6096 55.0483 82.1124C53.5175 85.9408 52.9417 89.8887 52.5134 93.9138C52.2962 97.1037 52.4565 100.308 52.9909 103.46C53.04 103.833 53.342 104.338 52.6117 104.655C52.0148 104.907 51.9095 104.486 51.5584 104.331C49.9659 103.591 48.3026 103.015 46.5938 102.61C45.5194 102.4 45.2947 102.041 45.2526 101.086C45.07 97.1522 45.5124 93.2395 45.6248 89.3197C45.681 87.5214 45.7933 85.6739 46.011 83.9318C46.3182 82.5932 46.7899 81.2978 47.4154 80.0752C49.0326 76.3568 51.0031 72.8024 53.2998 69.4609C54.2478 68.056 54.0723 65.8081 54.6481 63.8412C55.266 61.7338 53.8897 59.8793 54.6481 57.9264C55.0343 56.9008 54.0231 56.2756 53.5877 55.5802C52.6749 54.119 51.3196 52.7703 50.5332 51.4145C49.7467 50.0588 48.5319 49.0191 47.5699 47.8038C46.4955 46.4481 46.9098 45.282 48.2721 44.3547C48.4827 44.3969 48.581 44.3547 48.4827 44.1159L48.7917 43.5469C49.6273 43.4064 49.6624 42.999 49.1779 42.4089C49.2625 42.1633 49.4202 41.9495 49.6299 41.7963C49.8395 41.6431 50.091 41.5578 50.3506 41.5519C51.6005 41.4676 51.7971 40.2523 52.4923 39.5709C53.1945 39.4164 52.1623 38.6999 52.8364 38.5453L53.0822 38.3065C54.0933 37.1053 55.1115 37.4003 56.1297 38.3065C56.1929 38.5172 56.2631 38.7069 56.544 38.6156L57.7097 38.8122Z" fill="#F7F7F7"/>
<path d="M30.7569 128.602C35.244 130.203 39.6959 131.903 44.2322 133.365C46.7764 134.183 49.3866 134.78 52.0336 135.149C55.4323 135.612 58.6905 136.708 62.0681 137.158C66.8431 137.804 71.611 138.563 76.4703 138.465C78.2123 138.481 79.9474 138.686 81.6455 139.076C86.0272 139.996 90.3809 139.392 94.7415 139.483C103.709 139.687 112.641 139.09 121.566 138.472C127.975 138.138 134.359 137.435 140.687 136.364C144.675 135.62 148.706 134.608 152.835 134.334C156.409 134.095 159.857 132.929 163.29 131.868C164.983 131.363 165.397 129.592 166.198 128.265C168.761 123.966 170.102 119.217 171.113 114.356C171.647 111.813 171.317 111.419 168.704 111.679C164.063 112.15 159.885 114.44 155.363 115.15C151.486 115.754 147.807 117.088 143.875 117.517C140.174 117.924 136.565 119.161 132.822 119.505C129.079 119.849 125.358 120.32 121.587 120.369C118.943 120.499 116.309 120.769 113.694 121.177C110.5 121.556 107.271 121.542 104.081 121.135C102.08 120.882 100.113 121.472 98.1262 121.507C94.9311 121.556 91.8063 120.973 88.6113 120.741C87.1227 120.629 85.5497 120.664 84.0189 120.685C78.8507 120.755 73.851 119.751 68.8022 118.704C65.594 118.096 62.354 117.669 59.0978 117.426C54.9882 117.085 50.9389 116.221 47.048 114.855C44.9414 114.11 42.6031 114.117 40.8265 112.347C40.356 111.883 38.9937 112.115 38.0177 111.904C35.3914 111.328 33.1023 109.86 30.3918 109.558C28.8048 109.741 29.0646 108.041 28.2852 107.451C28.3067 107.274 28.3886 107.11 28.5169 106.987C29.1489 106.65 29.3946 107.521 29.9213 107.486C30.8713 107.566 31.8116 107.736 32.7301 107.991C34.8367 108.49 36.7256 109.396 38.762 110.008C42.0553 110.97 45.4751 111.518 48.5928 112.993C49.7847 113.522 51.0406 113.893 52.3285 114.096C57.3633 114.981 62.4051 115.859 67.468 116.597C75.4585 117.796 83.5082 118.561 91.5816 118.887C97.2976 119.09 103.006 118.887 108.708 119.133C112.353 119.315 115.962 118.816 119.585 118.662C123.209 118.507 126.762 117.791 130.357 117.496C136.038 117.025 141.557 115.641 147.147 114.686C152.175 113.829 157.055 112.143 162.034 110.97C163.567 110.515 165.136 110.191 166.724 110C171.099 109.712 171.822 108.638 171.562 104.795C172.194 104.093 173.156 104.177 174.147 103.622C173.704 106.046 174.849 108.139 173.88 110.541C173.248 112.143 173.472 114.363 173.627 116.203C173.999 120.657 172.616 125.047 173.529 129.55C174.006 131.889 173.079 132.838 170.614 133.667C167.195 134.812 163.789 136.006 160.334 137.053C158.761 137.53 157.273 138.415 155.615 138.774C155.91 137.158 157.905 137.207 158.621 135.739C158.237 135.684 157.846 135.684 157.462 135.739C153.158 137.179 148.537 136.898 144.219 138.254C142.316 138.858 140.3 138.872 138.334 139.16C134.052 139.91 129.732 140.419 125.393 140.684C122.856 140.763 120.324 140.971 117.809 141.31C114.557 141.639 111.286 141.737 108.02 141.605C105.211 141.605 102.403 141.787 99.664 141.9C94.6292 142.11 89.6084 141.759 84.5877 141.752C80.9854 141.752 77.3901 140.881 73.7808 140.733C68.5328 140.511 63.3131 139.844 58.1779 138.738C54.5896 137.966 50.8399 137.734 47.3851 136.42C43.8038 135.058 39.5134 135.479 36.6554 132.248C36.5831 132.177 36.4953 132.124 36.3989 132.094C36.3026 132.063 36.2004 132.056 36.1007 132.072C34.2328 132.922 32.8214 131.482 31.1853 131.117C30.3005 130.414 29.1278 129.754 30.7569 128.602Z" fill="#AECDE9"/>
<path d="M116.153 72.9167C116.961 78.4802 111.512 84.1562 107.727 85.6103C106.02 86.2636 104.216 87.4929 102.545 87.1276C100.213 86.6218 97.8187 87.1697 95.5225 86.1512C92.0075 84.6842 89.0391 82.1543 87.0329 78.9157C85.7058 76.7311 85.4389 73.9985 85.7198 71.301C86.2886 66.0325 89.7996 63.1453 93.8653 60.4338C95.9087 59.071 98.1207 58.9024 100.185 58.769C103.244 58.6117 106.283 59.3437 108.935 60.8764C112.165 62.6887 114.243 65.4986 115.83 68.8213C116.518 70.3456 115.711 71.7787 116.153 72.9167ZM103.83 66.0887C104.946 66.0887 106.027 66.0255 107.088 66.0887C107.713 66.1379 108.211 66.2011 108.253 65.3862C108.269 65.2453 108.251 65.1027 108.202 64.9698C108.152 64.8369 108.073 64.7173 107.969 64.6205C107.866 64.5237 107.741 64.4524 107.605 64.4121C107.469 64.3719 107.326 64.3639 107.186 64.3887C103.191 64.6837 99.1599 63.9883 95.1784 64.7118C94.3639 64.8594 92.8191 64.5222 93.1702 65.8709C93.3878 66.6787 94.8484 67.1143 96.0211 66.6998C96.3285 66.5639 96.6483 66.458 96.9761 66.3837C98.7035 66.18 100.445 65.9341 102.004 67.023C102.411 67.3039 103.127 67.4585 102.854 68.1961C102.629 68.8213 102.032 68.4771 101.611 68.5052C99.504 68.6527 97.3974 68.8002 95.2908 68.8705C94.5394 68.8705 93.9917 69.1866 94.0549 69.882C94.1181 70.5774 94.7571 70.4018 95.347 70.3597C96.9812 70.2155 98.6226 70.1686 100.262 70.2192C101.147 70.2543 102.671 69.6221 102.818 70.5564C103.029 71.9613 101.33 72.0597 100.326 72.5303C99.9303 72.6407 99.5211 72.6928 99.1108 72.6849C98.0224 72.8324 96.934 72.9518 95.8596 73.1696C95.5831 73.2174 95.3313 73.3585 95.1461 73.5694C94.9608 73.7802 94.8533 74.0482 94.8414 74.3286C94.8319 74.4303 94.8447 74.5329 94.879 74.6291C94.9132 74.7254 94.9679 74.813 95.0395 74.8859C95.111 74.9588 95.1975 75.0152 95.2931 75.0512C95.3887 75.0872 95.4909 75.1019 95.5928 75.0943C97.8679 75.0943 99.1389 76.6327 100.508 78.0587C102.088 79.6744 103.787 81.1145 106.126 81.5711C106.702 81.6905 107.221 81.9645 107.439 81.1988C107.476 81.0812 107.487 80.9569 107.47 80.8347C107.453 80.7126 107.41 80.5956 107.343 80.4923C107.276 80.3889 107.187 80.3016 107.082 80.2367C106.977 80.1718 106.859 80.1309 106.737 80.117C103.415 79.3372 101.59 76.6046 99.1108 74.4972C101.217 74.0687 103.324 73.5419 104.244 71.8138C104.946 70.451 105.648 70.0857 106.954 70.163C107.6 70.163 108.52 70.3386 108.527 69.3692C108.534 68.3998 107.643 68.4349 106.968 68.5403C105.185 68.8705 104.23 68.0626 103.83 66.0887Z" fill="#F7F7F7"/>
<path d="M72.192 91.3781C73.772 94.1388 75.9278 96.471 78.0274 98.7961C80.3797 101.409 82.1212 104.556 85.4988 107.022C79.3475 107.071 73.8773 106.839 69.313 102.976C67.698 101.571 65.802 100.63 64.6364 98.6275C64.0428 97.6435 63.6981 96.5295 63.6322 95.3821C63.4918 91.0247 63.5903 86.6629 63.9271 82.3162C64.0465 80.813 64.6785 80.4687 65.9073 81.2696C68.0139 82.6745 70.1767 84.255 72.3887 85.1683C75.057 86.2711 77.6903 87.6409 80.5342 88.3645C83.3279 89.1815 85.9318 90.5449 88.1952 92.3756C90.9067 94.3517 93.3601 96.6597 95.4981 99.2457C95.8352 99.6602 96.3408 100.061 96.418 100.531C96.7481 102.54 96.418 104.746 97.9067 106.432C97.366 106.713 97.8154 108.687 96.3057 107.352C96.1699 107.25 96.0139 107.177 95.848 107.14C95.6822 107.102 95.5103 107.101 95.3437 107.134C91.6501 108.399 89.4873 105.989 87.0577 103.917C84.6281 101.845 81.5173 100.672 79.6073 98.0094C77.606 95.1995 74.6919 93.3942 72.3957 90.9847C72.3561 90.9098 72.295 90.8486 72.2201 90.8091C72.0025 90.5492 71.848 90.0153 71.4267 90.3033C71.216 90.4438 71.4898 90.8512 71.8199 91.0058L72.192 91.3781Z" fill="#F7F7F7"/>
<path d="M117.388 107.331C117.644 105.412 118.63 103.666 120.14 102.456C124.127 98.9365 127.456 94.7359 129.971 90.0502C126.72 92.9304 123.363 95.67 120.26 98.7398C118.441 100.524 116.468 102.091 114.551 103.741C114.108 104.121 113.259 104.149 113.982 105.202C114.333 105.708 113.645 106.909 112.781 106.916C110.64 106.916 108.491 106.706 106.342 107.015C106.204 107.028 106.065 106.994 105.949 106.916C105.085 106.34 104.292 100.847 104.882 99.941C107.206 96.3795 110.499 93.7944 113.828 91.2796C115.738 89.8184 118.16 89.0527 120.506 88.2379C125.604 86.4747 130.631 84.4024 135.055 81.2553C136.888 79.9487 136.621 81.2553 136.93 82.2528C137.681 84.7115 136.818 87.1701 137.148 89.6639C137.488 92.1508 137.355 94.6798 136.754 97.1171C136.491 98.307 135.86 99.3836 134.95 100.194C132.672 102.312 130.116 104.108 127.352 105.533C124.227 107.057 120.85 106.376 117.388 107.331Z" fill="#F7F7F7"/>
<path d="M171.59 104.767C171.85 108.61 171.127 109.684 166.752 109.972C165.164 110.163 163.595 110.487 162.061 110.942C157.083 112.115 152.231 113.801 147.175 114.658C141.557 115.613 136.066 116.997 130.385 117.468C126.79 117.763 123.216 118.486 119.613 118.634C116.011 118.781 112.381 119.287 108.736 119.105C103.034 118.824 97.3255 119.062 91.6096 118.859C83.5362 118.533 75.4864 117.768 67.496 116.569C62.4331 115.831 57.3913 114.953 52.3565 114.068C51.0685 113.865 49.8126 113.494 48.6208 112.965C45.4749 111.49 42.0552 110.942 38.7899 109.979C36.7536 109.382 34.8436 108.462 32.758 107.963C31.8395 107.708 30.8992 107.538 29.9492 107.458V103.657C35.293 105.456 40.3839 107.233 45.517 108.877C48.7655 109.994 52.0941 110.863 55.4743 111.476C60.3897 112.255 65.2419 113.485 70.2205 113.934C73.1697 114.201 76.1471 114.166 79.0963 114.44C83.0146 114.805 86.961 115.367 90.8512 115.571C97.3716 115.932 103.906 115.948 110.429 115.62C112.837 115.494 115.189 115.15 117.57 114.96C125.294 114.349 133.018 114.328 140.644 113.056C142.533 112.74 144.52 112.698 146.346 111.989C147.512 112.853 148.663 114.138 150.236 113.148C151.322 112.592 152.279 111.814 153.045 110.865L160.489 108.244C161.415 108.378 161.128 107.296 161.682 107.057C163.585 107.542 165.32 106.769 166.998 106.151C168.461 105.488 170.005 105.023 171.59 104.767Z" fill="#F7F7F7"/>
<path d="M27.5684 98.3756C27.5684 101.277 26.8662 104.178 27.9195 107.093C28.2144 107.901 27.0909 108.821 27.2173 110.044C27.6105 113.872 27.6948 117.736 27.9195 121.585C27.9757 122.456 27.8071 122.8 26.789 122.941C21.6207 123.643 16.4947 124.655 11.3405 125.133C9.69033 125.287 7.92078 125.013 6.18634 125.133C5.92389 125.108 5.67276 125.014 5.45911 124.859C5.24546 124.705 5.07709 124.496 4.97153 124.255C4.54319 123.468 5.18922 123.397 5.4069 122.99C7.51351 119.056 10.5119 115.846 13.4541 112.565C14.8164 111.041 14.353 109.952 12.7519 108.625C9.53585 105.934 6.25656 103.23 4.32551 99.3731C3.28625 97.3219 4.15698 95.8607 6.43211 95.8958C12.0232 96.0182 17.6114 95.5449 23.1024 94.4839C25.5161 94.0821 27.949 93.8055 30.3912 93.655C30.9671 93.5988 31.7957 93.5637 32.0414 94.2942C32.2872 95.0248 31.6412 95.2917 31.0513 95.6078C30.4615 95.924 30.0191 96.507 29.2467 96.3665C28.2176 96.2965 27.1837 96.3603 26.171 96.5562C20.5534 97.9611 14.8375 98.4037 9.1075 98.8392C8.51765 98.8884 7.7031 98.5582 7.39413 99.2185C7.0009 100.005 7.60479 100.813 8.09633 101.242C10.8419 103.665 12.7168 106.939 15.7012 109.067C17.1758 110.114 17.0143 110.851 15.9329 111.877C15.6942 112.109 15.6099 112.509 15.3641 112.727C12.9134 114.926 12.3798 118.628 9.34625 120.37C8.74938 120.714 8.81258 121.297 8.93195 121.845C9.05133 122.393 9.63416 122.379 10.1046 122.421C12.2534 122.639 14.353 122.147 16.4666 121.957C19.8512 121.641 22.9128 119.913 26.2974 119.527C26.9996 119.45 27.0839 118.881 27.0488 118.284C27.0577 118.143 27.0308 118.002 26.9707 117.874C26.9105 117.747 26.8191 117.636 26.7048 117.554C26.5906 117.471 26.4572 117.418 26.3172 117.401C26.1772 117.384 26.0351 117.402 25.9042 117.455C25.0615 117.693 24.1978 117.7 23.3411 117.932C20.2023 118.782 17.0564 119.738 13.7842 119.906C13.4822 118.305 14.8656 117.462 15.0832 116.19C15.5974 115.856 16.0179 115.397 16.3051 114.855C17.0526 113.656 17.9285 112.542 18.9173 111.533C19.2824 111.182 20.3919 111.533 20.0478 110.437C19.8372 109.791 19.8723 109.137 19.0788 108.589C16.4666 106.805 13.8403 104.972 11.9936 102.309C11.4599 101.544 11.2282 100.904 12.6958 100.806C17.7269 100.539 22.7139 99.7239 27.5684 98.3756Z" fill="#F7F7F7"/>
<path d="M145.107 47.8032C145.059 49.1753 144.566 50.4945 143.702 51.5614C141.427 53.9217 141.455 57.1812 140.023 59.8646C139.924 60.0332 139.826 60.3352 139.91 60.4406C141.013 61.9298 139.749 62.9344 138.998 63.7422C133.05 70.1698 127.004 76.499 121 82.8704C119.518 84.5292 117.682 85.8329 115.628 86.6848C111.815 88.2021 108.88 91.1033 105.657 93.5339C105.418 93.7165 105.481 94.5384 104.842 93.9764C104.456 93.6252 104.842 93.3793 104.99 93.1124C106.465 90.7451 107.904 88.6096 110.755 87.3241C116.057 84.9286 118.57 80.194 119.434 74.5743C119.603 73.4714 120.136 72.3826 119.497 71.1884C119.167 70.5913 119.785 70.0644 120.27 69.65C126.295 64.4728 131.505 58.4105 137.228 52.9664C139.569 50.8445 142.227 49.1023 145.107 47.8032Z" fill="#A9C9E5"/>
<path d="M31.2013 131.117C32.8234 131.482 34.2348 132.923 36.1167 132.073C36.2164 132.056 36.3186 132.064 36.4149 132.094C36.5113 132.125 36.5991 132.178 36.6714 132.248C39.5294 135.48 43.8198 135.058 47.4011 136.421C50.8559 137.734 54.6057 137.966 58.1939 138.739C63.3398 139.829 68.5689 140.48 73.8249 140.685C77.4342 140.832 81.0295 141.696 84.6318 141.703C89.6525 141.703 94.6733 142.062 99.7081 141.851C102.475 141.739 105.277 141.549 108.064 141.556C111.33 141.689 114.601 141.59 117.853 141.261C120.369 140.923 122.9 140.714 125.437 140.636C129.762 140.369 134.068 139.86 138.336 139.111C140.302 138.823 142.318 138.809 144.221 138.205C148.539 136.849 153.16 137.13 157.464 135.69C157.848 135.636 158.239 135.636 158.623 135.69C157.921 137.158 155.912 137.095 155.617 138.725C154.859 138.535 154.115 138.36 153.771 139.371L153.244 139.427C153.053 139.376 152.851 139.378 152.661 139.433C152.47 139.487 152.298 139.592 152.163 139.736L151.201 139.877C150.498 139.877 149.845 139.659 149.269 140.193C145.758 140.973 142.247 141.598 138.736 142.3C131.967 143.649 125.065 143.129 118.253 144.197C113.016 144.952 107.709 145.089 102.44 144.605C99.4974 144.373 96.5131 144.605 93.5498 144.605C90.1812 144.54 86.8181 144.306 83.4732 143.902C80.1728 143.5 76.8541 143.265 73.53 143.2C68.2354 143.15 63.1374 141.9 57.9762 141.001C55.7011 140.601 53.426 140.2 51.1719 139.715C48.2718 139.097 45.6385 137.692 42.8438 136.744C39.6347 135.662 36.3695 134.735 33.1955 133.555C32.2476 133.168 30.2884 133.189 31.2013 131.117Z" fill="#F7F7F7"/>
<path d="M182.87 123.613C181.381 123.465 179.878 123.241 178.404 123.17C176.157 123.065 175.876 121.864 176.22 120.192C176.877 116.694 177.082 113.127 176.831 109.578C176.648 106.157 177.252 102.764 176.775 99.3918C176.659 98.7562 176.407 98.1535 176.034 97.6257C175.662 97.0979 175.179 96.6578 174.619 96.336C174.401 96.2026 173.959 96.2939 173.861 96.1323C173.404 95.3596 171.649 95.5141 172.161 94.2427C172.547 93.2873 173.727 93.7439 174.626 93.758C176.869 93.751 179.101 94.0656 181.255 94.6923C181.613 95.3947 181.957 96.1745 182.343 96.898C182.47 97.1298 182.28 97.4881 183.045 97.4389C186.254 97.2352 189.365 98.4715 192.595 98.3662C193.817 98.331 193.606 99.0686 193.164 99.6938C192.511 100.614 191.296 101.225 190.755 101.97C188.909 104.492 186.5 106.388 184.344 108.559C183.642 109.261 183.684 109.641 184.204 110.273C184.724 110.905 185.131 111.467 185.608 112.064C187.884 115.062 189.844 118.287 191.458 121.688C191.991 122.784 191.76 123.304 190.404 123.248C188.489 123.125 186.584 122.872 184.703 122.489C183.769 122.334 182.771 122.131 182.87 123.613ZM183.502 107.007C185.392 104.677 187.527 102.557 189.871 100.684C187.764 100.179 185.966 99.7289 184.148 99.3145C183.291 99.1178 182.68 99.455 182.961 100.368C183.558 102.293 183.08 104.316 183.502 107.007ZM183.368 113.041C183.123 115.022 183.488 116.75 182.947 118.429C182.771 118.984 182.807 119.988 183.607 119.834C185.012 119.539 186.282 121.014 187.645 120.079C187.793 119.928 187.88 119.727 187.888 119.515C187.895 119.303 187.824 119.096 187.687 118.934C186.304 117.024 185.503 114.692 183.368 113.041Z" fill="#AECDE9"/>
<path d="M27.5682 98.3742C22.7159 99.7221 17.7313 100.537 12.7026 100.805C11.228 100.875 11.4597 101.507 12.0004 102.308C13.8472 104.97 16.4734 106.804 19.0856 108.588C19.8791 109.136 19.844 109.789 20.0546 110.436C20.3987 111.531 19.2892 111.18 18.9241 111.531C17.9329 112.54 17.0546 113.655 16.3049 114.854C16.0119 115.392 15.5865 115.847 15.069 116.175C15.0542 116.124 15.0304 116.077 14.9988 116.034C14.9988 116.034 14.9286 116.034 14.8934 116.034L15.076 116.196C14.8583 117.467 13.475 118.303 13.7769 119.912C17.0492 119.743 20.1951 118.788 23.3339 117.938C24.1906 117.706 25.0543 117.699 25.897 117.46C26.0279 117.408 26.17 117.389 26.31 117.407C26.45 117.424 26.5833 117.476 26.6976 117.559C26.8119 117.642 26.9033 117.752 26.9635 117.88C27.0236 118.008 27.0505 118.148 27.0415 118.289C27.0766 118.886 27.0415 119.455 26.2902 119.533C22.8985 119.919 19.8369 121.64 16.4594 121.963C14.3528 122.153 12.2461 122.666 10.0974 122.427C9.61991 122.385 9.06517 122.476 8.92473 121.851C8.78429 121.226 8.74216 120.72 9.33903 120.376C12.3725 118.633 12.9062 114.931 15.3569 112.733C15.6027 112.515 15.6869 112.115 15.9257 111.883C17.0071 110.829 17.1686 110.091 15.694 109.073C12.7096 106.965 10.8347 103.671 8.08911 101.247C7.61162 100.819 7.00772 100.011 7.38691 99.2242C7.72397 98.5639 8.51044 98.8941 9.10029 98.8449C14.8303 98.4094 20.5602 97.9598 26.1638 96.5619C27.1765 96.366 28.2103 96.3022 29.2394 96.3722C28.5653 96.9131 28.4389 97.9457 27.5682 98.3742Z" fill="#AECDE9"/>
<path d="M182.865 123.614C182.767 122.132 183.764 122.336 184.663 122.491C186.543 122.885 188.448 123.151 190.365 123.284C191.72 123.341 191.952 122.821 191.418 121.725C189.804 118.324 187.844 115.099 185.568 112.101C185.112 111.504 184.663 110.893 184.164 110.31C183.666 109.727 183.63 109.277 184.305 108.596C186.46 106.425 188.869 104.528 190.716 102.007C191.256 101.262 192.471 100.651 193.124 99.7306C193.567 99.0984 193.777 98.3678 192.555 98.4029C189.325 98.5083 186.236 97.2719 183.005 97.4756C182.254 97.5248 182.444 97.1666 182.303 96.9348C181.91 96.2323 181.601 95.4666 181.215 94.729C184.157 95.0802 187.085 95.593 190.034 95.7265C191.909 95.8178 193.7 96.6397 195.694 96.0005C196.944 95.6001 197.028 96.7591 196.776 97.7566C196.193 100.047 194.451 101.606 192.998 103.257C191.358 105.18 189.538 106.942 187.563 108.518C186.362 109.446 186.797 111.111 188.265 111.623C189.845 112.185 190.688 113.653 191.453 114.855C193.075 117.405 194.578 120.046 196.284 122.582C196.53 122.933 196.488 123.284 196.165 123.467C194.859 124.106 193.749 125.216 192.092 125.005C189.452 124.675 186.804 124.401 184.15 124.162C183.676 124.116 183.227 123.925 182.865 123.614Z" fill="#F7F7F7"/>
<path d="M108.231 49.9252C108.386 49.8479 108.582 49.6582 108.674 49.7004C113.16 51.8384 118.095 52.8671 123.062 52.6999C123.64 52.7342 124.214 52.8069 124.782 52.9177C121.194 55.2148 118.842 58.3899 116.054 61.1014C115.352 61.7618 115.162 62.0006 114.249 61.0523C112.339 59.0713 109.79 57.8771 107.262 56.7742C105.522 56.0011 103.547 55.9431 101.764 56.6127L101.455 56.0788L104.222 53.6061C104.538 53.5148 104.861 53.4375 104.769 52.9879V52.9528C105.626 52.9959 106.466 52.7042 107.112 52.1393C107.758 51.5744 108.16 50.7805 108.231 49.9252Z" fill="#A9C9E5"/>
<path d="M73.9824 82.6037L82.8583 74.9258C82.8583 80.8406 86.6431 83.9103 90.3227 87.1487C89.5362 88.4202 88.7357 88.8768 87.1558 87.6264C85.5758 86.376 83.2936 85.1467 81.5381 85.0343C78.7785 84.8446 77.1142 82.5405 73.9824 82.6037Z" fill="#A9C9E5"/>
<path d="M63.743 103.545C61.2713 103.7 59.4596 101.908 57.1844 101.48C56.4822 101.346 56.5244 99.0492 57.037 98.115C57.69 96.9278 59.0383 96.1129 60.1126 95.1716C60.1969 95.1014 60.7306 95.003 60.6674 95.3262C60.0494 98.698 62.5422 100.841 63.743 103.545Z" fill="#A9C9E5"/>
<path d="M152.101 104.957C153.604 105.006 154.545 103.854 155.612 103.144C156.267 102.676 157.054 102.43 157.859 102.442C157.9 102.552 157.924 102.668 157.929 102.786C157.178 103.552 157.761 104.521 157.536 105.371C157.375 107.127 155.956 107.479 154.65 107.942C154.475 107.905 154.294 107.911 154.122 107.958C153.949 108.006 153.791 108.094 153.66 108.216L152.164 108.378L151.603 108.631C149.959 108.357 151.933 107.528 151.364 107.092C151.589 107.015 151.771 106.91 151.687 106.621L151.771 104.999C151.872 104.944 151.99 104.929 152.101 104.957Z" fill="#A9C9E5"/>
<path d="M35.8109 101.662C37.5453 102.055 38.4933 100.636 39.7362 99.9339C40.1997 99.674 40.5086 99.1612 41.1406 99.1823C41.3372 100.447 41.5268 101.704 41.7445 102.962C41.9622 104.219 42.0464 105.266 40.2067 104.591C38.9919 104.149 37.7349 103.819 36.5271 103.362C35.7688 103.067 35.6775 102.393 35.8109 101.662Z" fill="#F7F7F7"/>
<path d="M153.078 110.863C152.312 111.813 151.355 112.59 150.269 113.146C148.696 114.137 147.545 112.851 146.379 111.987C147.116 111.236 148.141 111.903 148.942 111.453C149.209 111.615 149.272 111.39 149.363 111.222C150.634 111.805 151.765 110.519 153.078 110.863Z" fill="#AECDE9"/>
<path d="M48.6426 38.8263C49.4712 37.7024 49.6889 36.1218 51.1284 35.4404C51.4514 36.3817 50.1593 37.4846 51.4865 38.3908C51.8516 38.6437 51.1916 38.8895 50.9598 38.9598C50.5902 39.121 50.1878 39.1929 49.7853 39.1697C49.3827 39.1465 48.9913 39.0289 48.6426 38.8263Z" fill="#1A1C1E"/>
<path d="M159.76 80.5254C160.633 82.5219 161.11 84.6691 161.164 86.8476C160.041 86.4121 159.984 85.3162 159.956 84.4311C159.935 83.1175 159.184 81.839 159.76 80.5254Z" fill="#1A1C1E"/>
<path d="M169.102 102.477C167.234 101.711 165.345 102.8 163.295 102.4C163.961 101.939 164.753 101.694 165.563 101.697C168.716 101.571 168.716 101.564 168.842 98.3325C169.587 99.6742 169.067 101.093 169.102 102.477Z" fill="#F7F7F7"/>
<path d="M97.6526 96.379C96.9082 95.5923 96.199 94.7774 95.4126 94.0328C94.6261 93.2882 95.2089 93.0142 95.7005 92.6279C96.4518 92.0027 96.6695 92.7192 96.8591 93.1407C97.3015 94.1101 97.6456 95.1286 98.0247 96.1261L97.6526 96.379Z" fill="#A9C9E5"/>
<path d="M108.229 49.926C108.157 50.7826 107.755 51.5776 107.107 52.1427C106.46 52.7078 105.618 52.9987 104.76 52.9537L107.435 50.3124L107.892 50.0103C107.992 49.9477 108.11 49.9183 108.229 49.926Z" fill="#F7F7F7"/>
<path d="M153.859 68.6104C154.393 69.355 154.905 70.1136 155.467 70.8372C155.93 71.4413 155.312 71.4413 155.053 71.645C154.584 71.3071 154.222 70.8413 154.01 70.3032C153.798 69.7651 153.746 69.1774 153.859 68.6104Z" fill="#1A1C1E"/>
<path d="M52.4392 39.5787C51.737 40.2811 51.5474 41.4753 50.2975 41.5596C50.2483 40.0704 50.9014 39.3469 52.4392 39.5787Z" fill="#1A1C1E"/>
<path d="M153.017 41.5521C151.76 41.4818 151.612 40.2455 150.91 39.5852C152.265 39.5009 153.08 40.0769 153.017 41.5521Z" fill="#1A1C1E"/>
<path d="M148.823 58.1856C148.472 57.5956 148.219 57.0476 149.244 56.9282C149.595 57.0617 150.319 56.6753 150.206 57.4551C150.094 58.2348 149.427 58.1997 148.823 58.1856Z" fill="#1A1C1E"/>
<path d="M153.353 51.0703C152.651 49.6654 154.112 49.6021 154.645 48.9629C154.989 50.136 154.35 50.712 153.353 51.0703Z" fill="#1A1C1E"/>
<path d="M148.432 62.7101C148.691 61.9234 148.151 60.9821 148.895 60.2866C148.319 61.0172 151.016 62.373 148.432 62.7101Z" fill="#1A1C1E"/>
<path d="M161.741 97.5391C161.911 97.7768 162.024 98.0507 162.072 98.3395C162.119 98.6282 162.1 98.924 162.014 99.2039C161.725 99.1474 161.458 99.0098 161.244 98.807C161.03 98.6042 160.879 98.3447 160.807 98.0589C160.722 97.6514 161.34 97.5882 161.741 97.5391Z" fill="#1A1C1E"/>
<path d="M153.084 56.0864C153.702 57.1401 152.803 57.6248 152.262 58.236C152.176 57.8366 152.208 57.4208 152.354 57.0391C152.5 56.6575 152.753 56.3265 153.084 56.0864Z" fill="#1A1C1E"/>
<path d="M161.666 93.3872C161.82 94.487 161.82 95.603 161.666 96.7029C161.398 96.1914 161.258 95.6225 161.258 95.045C161.258 94.4675 161.398 93.8986 161.666 93.3872Z" fill="#1A1C1E"/>
<path d="M155.523 39.9512L157.012 40.9416C157.061 40.9416 157.075 41.04 157.103 41.0962L156.949 41.1805C156.015 41.2999 155.383 41.0962 155.523 39.9512Z" fill="#1A1C1E"/>
<path d="M161.68 107.056C161.125 107.295 161.413 108.377 160.486 108.243C160.557 107.52 160.901 107.063 161.68 107.056Z" fill="#1A1C1E"/>
<path d="M153.779 139.35C154.123 138.338 154.868 138.514 155.626 138.704C155.42 138.985 155.133 139.198 154.803 139.313C154.473 139.429 154.116 139.442 153.779 139.35Z" fill="#AECDE9"/>
<path d="M152.196 59.0151C152.828 59.4366 152.196 59.8441 152.196 60.2515C151.677 59.837 151.677 59.4226 152.196 59.0151Z" fill="#1A1C1E"/>
<path d="M157.569 105.406C157.793 104.556 157.211 103.586 157.962 102.821C157.878 103.692 158.376 104.647 157.569 105.406Z" fill="#1A1C1E"/>
<path d="M154.289 38.6855C154.76 38.8822 155.693 38.4397 155.497 39.5496C155.227 39.5645 154.961 39.487 154.741 39.3299C154.522 39.1728 154.362 38.9455 154.289 38.6855Z" fill="#1A1C1E"/>
<path d="M158.48 43.252L159.288 44.0738C158.916 43.9053 157.673 44.6077 158.48 43.252Z" fill="#1A1C1E"/>
<path d="M148.825 65.8209C148.382 65.4276 147.814 65.0693 148.439 64.416C148.993 64.7462 148.867 65.2941 148.825 65.8209Z" fill="#1A1C1E"/>
<path d="M152.04 62.7376L152.124 63.5735C151.738 63.5314 151.239 63.4681 151.246 63.0186C151.253 62.569 151.738 62.7727 152.04 62.7376Z" fill="#1A1C1E"/>
<path d="M49.156 42.416C49.6405 43.0061 49.6054 43.4135 48.7698 43.554C48.6942 43.3488 48.6913 43.1238 48.7616 42.9167C48.8319 42.7095 48.9711 42.5328 49.156 42.416Z" fill="#1A1C1E"/>
<path d="M152.102 104.956C151.995 104.946 151.889 104.973 151.8 105.033C151.8 104.45 151.596 103.825 152.13 103.347L152.102 104.956Z" fill="#1A1C1E"/>
<path d="M157.994 85.8503C157.348 86.0048 157.018 85.8503 157.215 85.1478C157.313 85.1369 157.413 85.147 157.507 85.1774C157.602 85.2078 157.688 85.2578 157.762 85.3241C157.836 85.3905 157.894 85.4717 157.934 85.5623C157.974 85.653 157.995 85.7512 157.994 85.8503Z" fill="#1A1C1E"/>
<path d="M158.416 88.428C158.198 88.7371 157.938 88.9759 157.643 88.5545C157.433 88.2524 157.643 88.0838 157.966 87.9995L158.416 88.428Z" fill="#1A1C1E"/>
<path d="M154.584 43.554C153.741 43.4135 153.699 43.0061 154.198 42.416C154.381 42.5346 154.518 42.7114 154.589 42.9179C154.659 43.1244 154.657 43.3485 154.584 43.554Z" fill="#1A1C1E"/>
<path d="M149.275 140.144C149.851 139.61 150.539 139.806 151.206 139.828C150.944 140.051 150.625 140.198 150.285 140.254C149.945 140.31 149.596 140.272 149.275 140.144Z" fill="#AECDE9"/>
<path d="M158.121 95.4727C157.875 94.8334 158.177 94.5735 158.781 94.5103C158.837 95.0301 158.739 95.4305 158.121 95.4727Z" fill="#1A1C1E"/>
<path d="M161.996 100.026C161.954 100.314 162.116 100.658 161.765 100.869C161.14 100.398 161.406 100.166 161.996 100.026Z" fill="#1A1C1E"/>
<path d="M152.201 72.7058C151.814 72.5302 152.018 72.1789 151.962 71.8979L152.201 72.7058Z" fill="#1A1C1E"/>
<path d="M152.164 139.715C152.3 139.571 152.472 139.466 152.662 139.411C152.853 139.357 153.054 139.355 153.245 139.406C152.993 139.891 152.578 139.814 152.164 139.715Z" fill="#AECDE9"/>
<path d="M159.672 104.591L159.216 104.893L159.117 104.746L159.651 104.577L159.672 104.591Z" fill="#1A1C1E"/>
<path d="M149.266 67.3961C148.964 67.1433 149.083 66.8201 149.111 66.5181C149.16 66.8061 149.217 67.0871 149.266 67.3961Z" fill="#1A1C1E"/>
<path d="M158.177 97.7769L158.121 96.7231C158.195 96.788 158.255 96.867 158.298 96.9554C158.341 97.0439 158.366 97.14 158.371 97.2382C158.376 97.3363 158.362 97.4346 158.328 97.5271C158.295 97.6196 158.244 97.7045 158.177 97.7769Z" fill="#1A1C1E"/>
<path d="M148.485 63.3349C147.896 63.1663 148.05 62.9415 148.436 62.7026C148.45 62.9134 148.464 63.1241 148.485 63.3349Z" fill="#1A1C1E"/>
<path d="M153.691 108.252C153.822 108.13 153.981 108.042 154.153 107.994C154.325 107.946 154.507 107.941 154.681 107.978C154.561 108.115 154.403 108.214 154.227 108.263C154.052 108.312 153.865 108.308 153.691 108.252Z" fill="#1A1C1E"/>
<path d="M104.766 52.9883C104.858 53.4379 104.535 53.5151 104.219 53.6064L104.766 52.9883Z" fill="#F7F7F7"/>
<path d="M153.869 75.988C153.412 75.8545 153.524 75.5033 153.56 75.1802C153.658 75.4541 153.784 75.7211 153.869 75.988Z" fill="#1A1C1E"/>
<path d="M158.099 100.433C158.071 100.38 158.056 100.322 158.055 100.262C158.053 100.202 158.065 100.143 158.089 100.088C158.113 100.034 158.15 99.9854 158.195 99.9466C158.24 99.9079 158.294 99.8797 158.351 99.8643L158.099 100.433Z" fill="#1A1C1E"/>
<path d="M158.87 98.536L158.428 98.3744C158.549 98.3408 158.674 98.3243 158.8 98.3252L158.877 98.4025L158.87 98.536Z" fill="#1A1C1E"/>
<path d="M158.803 98.3246L159.02 98.1841L158.88 98.4019L158.803 98.3246Z" fill="#1A1C1E"/>
<path d="M161.654 102.52C161.669 102.572 161.673 102.626 161.666 102.68C161.659 102.734 161.641 102.785 161.614 102.832C161.586 102.879 161.549 102.919 161.506 102.951C161.462 102.983 161.412 103.006 161.359 103.018L161.654 102.52Z" fill="#1A1C1E"/>
<path d="M156.766 82.6181C156.682 82.4916 156.605 82.3652 156.527 82.2388C156.591 82.3652 156.682 82.4916 156.766 82.6181Z" fill="#1A1C1E"/>
<path d="M154.287 76.7799L154.098 76.4497C154.152 76.4868 154.198 76.5358 154.23 76.593C154.263 76.6502 154.283 76.7141 154.287 76.7799Z" fill="#1A1C1E"/>
<path d="M159.65 104.579L159.756 104.402L159.672 104.593L159.65 104.579Z" fill="#1A1C1E"/>
<path d="M153.437 74.7709L153.107 74.3213L153.437 74.7709Z" fill="#1A1C1E"/>
<path d="M149.719 68.9481C149.536 68.8849 149.347 68.8216 149.445 68.5547L149.719 68.9481Z" fill="#1A1C1E"/>
<path d="M151.716 106.657C151.8 106.945 151.617 107.05 151.393 107.127L151.716 106.657Z" fill="#1A1C1E"/>
<path d="M148.902 59.0155C148.902 58.875 148.867 58.7416 148.846 58.6011C149.148 58.6994 149.218 58.8329 148.902 59.0155Z" fill="#1A1C1E"/>
<path d="M151.631 108.666L152.193 108.413L151.631 108.666Z" fill="#1A1C1E"/>
<path d="M150.658 54.0421C150.588 53.7752 150.658 53.6768 150.953 53.733L150.658 54.0421Z" fill="#1A1C1E"/>
<path d="M149.328 111.223C149.236 111.392 149.173 111.617 148.906 111.455L149.328 111.223Z" fill="#1A1C1E"/>
<path d="M107.898 50.0098L107.441 50.3119C107.505 50.0801 107.61 49.9045 107.898 50.0098Z" fill="#A9C9E5"/>
<path d="M156.387 47.0178L156.513 46.6104C156.535 46.7143 156.547 46.8202 156.548 46.9265C156.548 46.9265 156.443 46.9827 156.387 47.0178Z" fill="#1A1C1E"/>
<path d="M159.273 44.0527C159.505 44.123 159.667 44.2424 159.597 44.5164L159.273 44.0527Z" fill="#1A1C1E"/>
<path d="M155.095 44.3619C154.884 44.404 154.786 44.3619 154.884 44.123C154.936 44.1419 154.983 44.1736 155.02 44.2154C155.057 44.2571 155.082 44.3075 155.095 44.3619Z" fill="#1A1C1E"/>
<path d="M48.4509 44.123C48.5492 44.3478 48.4509 44.404 48.2402 44.3619C48.2511 44.307 48.2763 44.2559 48.3133 44.214C48.3503 44.172 48.3978 44.1406 48.4509 44.123Z" fill="#1A1C1E"/>
<path d="M157.994 42.1704C158.352 41.9948 158.226 42.2898 158.254 42.4373C158.192 42.4177 158.136 42.3831 158.09 42.3366C158.045 42.29 158.012 42.2329 157.994 42.1704Z" fill="#1A1C1E"/>
<path d="M147.239 38.2861C147.182 38.4969 147.112 38.6865 146.824 38.5952L147.239 38.2861Z" fill="#1A1C1E"/>
<path d="M56.4905 38.6157C56.2096 38.707 56.1394 38.5174 56.0762 38.3066L56.4905 38.6157Z" fill="#1A1C1E"/>
<path d="M53.0329 38.2861L52.7871 38.525C52.803 38.4668 52.8342 38.414 52.8774 38.372C52.9206 38.33 52.9743 38.3003 53.0329 38.2861Z" fill="#1A1C1E"/>
<path d="M152.626 37.8918L152.449 38.0613L152.619 37.8848L152.626 37.8918Z" fill="#1A1C1E"/>
<path d="M153.082 74.2515L152.787 73.9424L153.082 74.2515Z" fill="#1A1C1E"/>
<path d="M155.621 53.5918C155.818 53.2124 155.867 52.7067 156.429 52.6294C156.439 52.8619 156.362 53.09 156.213 53.2683C156.063 53.4466 155.852 53.562 155.621 53.5918Z" fill="white"/>
<path d="M103.826 66.0896C104.226 68.0636 105.181 68.8995 106.986 68.5834C107.688 68.478 108.552 68.4569 108.545 69.4123C108.538 70.3676 107.618 70.2412 106.972 70.2061C105.652 70.1288 104.978 70.4941 104.262 71.8569C103.363 73.585 101.235 74.1118 99.1284 74.5403C101.607 76.6477 103.433 79.3803 106.754 80.16C106.877 80.174 106.995 80.2149 107.099 80.2798C107.204 80.3447 107.293 80.4319 107.36 80.5353C107.427 80.6387 107.471 80.7557 107.488 80.8778C107.504 81 107.494 81.1243 107.457 81.2418C107.239 82.0075 106.719 81.7336 106.143 81.6141C103.819 81.1365 102.12 79.6964 100.526 78.1018C99.1214 76.6969 97.8574 75.1163 95.6104 75.1374C95.5086 75.145 95.4063 75.1303 95.3108 75.0943C95.2152 75.0583 95.1286 75.0019 95.0571 74.929C94.9856 74.8561 94.9308 74.7685 94.8966 74.6722C94.8624 74.576 94.8496 74.4734 94.859 74.3717C94.871 74.0913 94.9785 73.8233 95.1637 73.6125C95.3489 73.4016 95.6007 73.2605 95.8772 73.2126C96.9516 72.9949 98.04 72.8755 99.1284 72.7279C99.5387 72.7359 99.948 72.6838 100.343 72.5734C101.347 72.1027 103.047 71.9693 102.836 70.5995C102.689 69.6652 101.165 70.2974 100.28 70.2623C98.6402 70.2117 96.9989 70.2586 95.3646 70.4028C94.7818 70.4449 94.1428 70.6697 94.0726 69.9251C94.0023 69.1805 94.5571 68.9416 95.3084 68.9135C97.415 68.8433 99.5217 68.6958 101.628 68.5483C102.05 68.5483 102.646 68.8644 102.871 68.2392C103.145 67.5367 102.429 67.347 102.021 67.0661C100.463 65.9772 98.7211 66.2231 96.9937 66.4268C96.665 66.5102 96.3451 66.6255 96.0387 66.771C94.8661 67.1855 93.4055 66.771 93.1878 65.9421C92.8367 64.5934 94.3815 64.9306 95.1961 64.783C99.1776 64.0806 103.208 64.783 107.204 64.4599C107.343 64.4351 107.487 64.4431 107.623 64.4833C107.758 64.5236 107.883 64.5949 107.987 64.6917C108.09 64.7885 108.17 64.9081 108.219 65.041C108.269 65.1739 108.286 65.3164 108.271 65.4574C108.229 66.2512 107.73 66.1599 107.105 66.1599C106.031 66.0264 104.943 66.0896 103.826 66.0896Z" fill="#1A1C1E"/>
<path d="M71.7991 90.9719C71.4691 90.8525 71.1953 90.4451 71.4059 90.2695C71.8272 89.9815 71.9817 90.5153 72.1994 90.7753L71.7991 90.9719Z" fill="#0F1012"/>
<path d="M72.194 91.3769L71.8008 90.9414L72.201 90.7798C72.2759 90.8194 72.337 90.8806 72.3766 90.9554L72.194 91.3769Z" fill="#0F1012"/>
<path d="M183.5 107.008C183.079 104.297 183.557 102.295 182.96 100.342C182.679 99.4285 183.29 99.0913 184.146 99.288C185.965 99.7024 187.784 100.152 189.869 100.658C187.524 102.539 185.389 104.668 183.5 107.008Z" fill="#F7F7F7"/>
<path d="M183.365 113.042C185.471 114.693 186.3 117.025 187.683 118.922C187.82 119.083 187.892 119.29 187.884 119.502C187.876 119.714 187.79 119.915 187.641 120.067C186.279 121.001 185.022 119.526 183.604 119.821C182.803 119.989 182.768 118.985 182.944 118.416C183.484 116.751 183.119 115.023 183.365 113.042Z" fill="#F7F7F7"/>
<path d="M15.0742 116.183L14.8906 116.021C14.9259 116.021 14.9754 116.021 14.9965 116.021C15.0283 116.063 15.0522 116.111 15.0671 116.162L15.0742 116.183Z" fill="#F7F7F7"/>
</svg>
