<svg width="70" height="64" viewBox="0 0 70 64" fill="none" xmlns="http://www.w3.org/2000/svg">
<g clip-path="url(#clip0)">
<path d="M3.64257 44.3476C2.7416 44.1154 1.83578 44.5064 0.925096 44.3231C0.606965 44.2596 0.594822 44.1667 0.682248 43.9077C1.3088 41.7918 2.62503 40.145 4.20597 38.5788C3.1593 37.9239 2.41133 36.9148 1.57107 36.001C0.905668 35.3071 0.485541 34.4397 0.0994125 33.5967C-0.201719 32.9517 0.213551 32.5559 0.910525 32.5339C2.61046 32.485 4.3104 32.5925 6.02248 32.2773C7.54621 31.9563 9.09699 31.7829 10.6536 31.7593C11.0834 31.7593 11.3991 32.0501 11.8023 32.077C12.2005 33.1374 12.3147 34.2491 12.3948 35.3682C12.339 35.6125 12.3705 35.8569 12.6377 35.9595C13.0578 36.1183 13.4925 36.2331 13.9126 36.3895C14.5489 36.6216 14.5173 36.2527 14.4444 35.8226C14.3716 35.3926 14.3036 34.9455 14.2356 34.5057C14.4784 33.609 14.3303 32.6903 14.3983 31.7813C14.5829 31.6323 14.5076 31.4832 14.3983 31.3342C14.4687 30.997 14.8111 30.6989 14.5294 30.3153C14.7334 29.1474 14.918 27.9819 15.394 26.8726C15.6247 26.3399 16.0521 25.9123 16.1565 25.3235L16.3994 25.1842C16.4674 25.0547 16.9142 24.9399 16.4164 24.7835C16.7061 24.5044 16.9344 24.1673 17.0866 23.7939C17.6233 23.4201 17.4849 22.7922 17.5966 22.2839C17.7655 21.6019 17.7413 20.886 17.5267 20.2171C17.3121 19.5482 16.9157 18.9531 16.3824 18.4992C16.1784 18.0105 15.7413 17.7222 15.394 17.363C14.7019 16.6495 14.7262 16.0582 15.2143 15.2275C15.5907 14.5849 16.3338 14.2502 16.5378 13.5171C16.9604 13.544 16.9409 13.1262 17.1328 12.9234C17.6185 12.3932 17.7423 11.3645 18.8327 11.582C19.8187 12.2026 20.8071 12.8159 21.7857 13.4463C21.9872 13.5749 22.2261 13.6309 22.4633 13.6051C23.4153 13.4952 24.2458 13.9325 25.1346 14.1353C25.8337 14.3145 26.5574 14.3765 27.2765 14.3186C28.2479 14.2917 29.1416 13.9423 30.0717 13.7542C30.1956 13.7297 30.419 13.7175 30.4408 13.4903C31.0023 13.3516 31.5355 13.116 32.0169 12.7939C32.0858 12.7754 32.1532 12.7518 32.2185 12.7231C33.6076 12.0707 34.9214 11.1593 36.5898 11.4745C36.9176 11.8557 37.0415 12.4518 37.6656 12.5178C38.3456 13.0065 39.1761 13.1629 39.8755 13.5978C40.2601 13.8613 40.7288 13.9703 41.1893 13.9032C41.7454 14.0987 42.2967 14.3259 42.9038 14.3235C43.4939 14.5678 44.0743 14.299 44.6402 14.2233C45.495 14.106 46.3207 13.6515 47.1512 13.5953C47.9065 13.5416 48.5913 13.5196 49.2154 13.07C49.8711 12.4616 50.7187 12.1611 51.4472 11.6602C51.8722 11.3694 52.3773 11.5844 52.6007 12.0585C52.8319 12.4558 53.095 12.8333 53.3876 13.1873C53.3876 13.2557 53.3463 13.3657 53.3876 13.3901C54.1304 14.0551 54.7894 14.8092 55.3498 15.6355C55.6533 16.305 55.3862 16.8572 54.9612 17.3459C54.6795 17.6733 54.2545 17.8712 54.1015 18.3232C53.9097 18.3526 53.8903 18.5261 53.8223 18.6604C52.7319 19.6549 52.4453 20.8888 52.7343 22.3011L52.8436 22.7482C52.8276 23.0971 52.9285 23.4412 53.1301 23.7255C53.7373 24.7444 54.2958 25.7926 54.8738 26.8311L55.2453 27.4566C55.2435 28.0443 55.3608 28.6263 55.5902 29.1669C55.9108 29.9537 55.4421 30.7869 55.9059 31.5052C55.7942 31.8448 55.9739 32.1674 55.9715 32.4997C55.8549 33.7213 56.2143 34.943 55.8355 36.1647C55.7262 36.5068 55.9618 36.6216 56.2337 36.541C57.0084 36.3113 57.8025 36.1281 58.4922 35.6736C58.4801 35.1849 58.6646 34.6963 58.3999 34.2222C58.3999 33.7018 58.2324 33.1643 58.5335 32.6683C58.8905 31.8986 59.5486 31.7496 60.3063 31.7886C61.4799 31.8563 62.648 32 63.8033 32.2187C65.2093 32.4803 66.6382 32.5974 68.0677 32.5681C68.4951 32.5681 68.8424 32.9395 69.3378 32.7196C69.5248 32.6365 69.8745 33.0861 69.6025 33.3377C68.8424 34.0414 68.6627 35.119 67.956 35.8202C67.3926 36.3822 67.0138 37.1201 66.2852 37.5306C65.8918 37.7529 65.8748 38.0437 66.1929 38.459C67.1143 39.6893 67.947 40.9843 68.6846 42.3342C69.129 43.1308 68.3421 44.2376 67.2275 44.3182C65.8189 44.4209 64.4347 44.1277 63.0505 43.9249C62.4482 43.8369 61.8557 43.6805 61.2534 43.6219C60.809 43.5706 60.8066 43.8222 60.7677 44.2181C60.69 44.8191 61.098 45.3322 60.9353 45.9137C60.7023 46.4484 60.3058 46.8943 59.8036 47.1867C59.2062 47.4311 58.5481 47.4799 57.9531 47.7683C57.3169 48.0638 56.6336 48.2433 55.935 48.2985C55.6023 48.3327 55.4056 48.6796 55.0268 48.7627C54.223 48.9792 53.4311 49.2377 52.6542 49.5373C51.5249 49.723 50.3665 49.8109 49.2786 50.1334C48.6715 50.3143 48.023 50.2092 47.4596 50.5171L43.9141 50.7785C43.8558 50.7467 43.7951 50.6808 43.7416 50.6832C42.6537 50.7663 41.8183 51.729 40.6478 51.5604C40.4729 51.5359 40.4049 51.7656 40.5919 51.922C40.0722 51.922 39.6521 52.2421 39.1712 52.3716C38.467 52.418 37.8574 52.7307 37.2285 53.0117C36.5339 53.3172 35.8491 53.7252 35.0428 53.5737C34.3847 53.5737 33.8286 53.1461 33.1899 53.1021C32.1626 52.3691 30.8877 52.3422 29.756 51.9049C29.9697 51.6605 29.8119 51.5115 29.6055 51.5433C28.9376 51.6532 28.3912 51.2721 27.7695 51.1743C27.2838 50.6563 26.6184 50.6539 26.004 50.6637C25.0162 50.6712 24.0294 50.5977 23.0534 50.4438L21.7177 50.2507C21.1568 49.9502 20.5035 49.9355 19.9182 49.8671C18.67 49.7181 17.5068 49.266 16.2755 49.0608C15.1123 48.3987 13.8058 48.1568 12.5478 47.7756C11.8873 47.3504 11.0446 47.3798 10.401 46.9131C9.9299 46.378 9.39078 45.8649 9.80362 45.0439C9.97118 44.7092 9.58749 44.2352 10.0732 43.981C9.87405 43.7367 9.6312 43.5486 9.2985 43.6341C7.81712 44.0128 6.29204 44.0763 4.79367 44.3329L3.64257 44.3476ZM36.2012 18.4479C36.1478 18.5163 36.0919 18.5847 36.0385 18.6555C35.6621 18.983 35.2857 19.3079 34.9578 19.5962C35.2565 20.1582 35.6378 19.887 35.9292 19.9188C37.2972 20.0718 38.6428 20.3851 39.9386 20.8521C40.1815 20.9352 40.366 21.0232 40.5822 20.8008C41.3763 19.9872 42.083 19.0905 43.2244 18.3697C41.6896 18.3355 40.3733 18.3061 39.096 17.8981C38.5398 17.7197 38.0323 17.3874 37.4276 17.3679C37.3865 17.3631 37.345 17.3735 37.311 17.3972C37.2139 17.3679 37.175 17.429 37.1483 17.5047L36.2303 18.4137L36.2012 18.4479ZM39.2417 25.8048L38.977 25.8268L39.2465 25.8073C39.0595 26.4694 39.5719 26.8775 39.8633 27.3271C40.0503 27.6129 40.621 27.5861 40.8347 27.3808C41.148 27.0754 40.6842 26.9263 40.4899 26.7651C40.0819 26.4255 39.6569 26.1176 39.2417 25.7975V25.8048ZM63.2423 43.0037C63.473 43.2896 63.8325 43.1918 64.1044 43.2114C65.2361 43.2993 66.3872 43.7831 67.5043 43.1576C67.7642 43.0135 68.1503 42.9646 67.7472 42.4613C67.4952 42.1539 67.2762 41.8205 67.0939 41.4668C66.7952 40.8535 66.3824 40.3087 66.0569 39.7174C65.7728 39.1994 65.2555 38.9355 64.8961 38.4957C64.5707 38.1023 64.6946 37.8922 64.8791 37.7431C65.5537 37.1849 66.18 36.5702 66.7515 35.9057C67.2542 35.3291 67.8564 34.7891 68.058 33.9901C68.1454 33.6456 68.1163 33.24 67.684 33.3793C66.9943 33.6016 66.3751 33.3158 65.7267 33.284C64.7067 33.2376 63.694 33.0592 62.6765 32.937C61.9314 32.7204 61.1596 32.611 60.384 32.6121C60.0707 32.6121 59.6555 32.4484 59.5316 32.7807C59.3543 33.2229 59.9615 33.1691 60.1217 33.4379C60.1533 33.4941 60.3087 33.4624 60.384 33.5088C60.5771 33.6211 60.7436 33.7743 60.8719 33.9579C61.0002 34.1414 61.0873 34.3508 61.1271 34.5716C61.2923 35.7445 61.0858 36.9246 61.1466 38.1145C61.2398 39.3484 61.1753 40.5891 60.9547 41.8065C60.8357 42.3855 60.9328 42.8058 61.71 42.8424C62.2054 42.8669 62.7275 42.9451 63.2423 42.9964V43.0037ZM53.8198 48.2569C54.393 48.1323 54.9078 47.8245 55.4518 47.6583C56.6466 47.2943 57.8244 46.8789 59.0071 46.4806C59.8595 46.1923 60.1776 45.8649 60.0149 45.0488C59.7016 43.4948 60.1776 41.9677 60.0465 40.4064C59.993 39.7687 59.9153 38.9941 60.1363 38.437C60.4642 37.6014 60.0756 36.8733 60.2286 36.0303C59.8862 36.2234 59.5535 36.194 59.3325 36.4384C57.1469 36.993 55.0414 37.8018 52.9213 38.5592L50.6045 38.9502C50.2111 39.1725 49.7643 39.0332 49.3636 39.1261C47.8051 39.4738 46.2146 39.6564 44.6183 39.6709C42.4861 39.7271 40.3612 40.0423 38.2266 40.1743C35.9717 40.3021 33.7117 40.3103 31.456 40.1987C30.062 40.1401 28.6438 39.9544 27.2425 39.7931C26.2711 39.6758 25.2755 39.7736 24.2992 39.6514C22.5993 39.4388 20.8993 39.0552 19.1994 38.7791C18.0714 38.5744 16.9589 38.2911 15.87 37.9313C14.0365 37.362 12.2272 36.6949 10.3355 36.0401V37.3742C10.1436 37.3888 10.061 37.0834 9.84976 37.2031C9.80414 37.2441 9.77552 37.3008 9.76962 37.362C10.0489 37.577 9.95904 38.1658 10.4982 38.095C10.5419 38.4761 10.3355 38.8549 10.3743 39.1969C10.5596 41.0323 10.6406 42.8768 10.6172 44.7214C10.0538 45.1221 10.4593 45.3493 10.7702 45.5961C10.452 46.3291 11.132 46.3096 11.455 46.4293C12.5527 46.8422 13.6843 47.1623 14.7941 47.5386C15.7655 47.8684 16.6689 48.3571 17.6719 48.5721C18.4539 48.7407 19.2407 48.88 20.0275 49.0193C21.81 49.332 23.5731 49.7669 25.4066 49.784C26.5562 49.8071 27.7039 49.8886 28.8453 50.0284C29.9989 50.1554 31.1572 50.2727 32.3278 50.2727C33.3769 50.2727 34.4333 50.1921 35.4702 50.2727C37.2698 50.4416 39.083 50.3932 40.8712 50.1286C43.2292 49.7621 45.6164 49.9429 47.9575 49.4713C49.1717 49.227 50.386 49.0022 51.6002 48.7383C51.7109 48.7828 51.8316 48.7961 51.9493 48.7767C52.067 48.7573 52.1772 48.706 52.268 48.6283L52.6007 48.5795C52.744 48.6137 52.8873 48.6405 52.9747 48.472L53.1569 48.4524C53.2739 48.4929 53.4005 48.4959 53.5193 48.4609C53.638 48.4259 53.7431 48.3546 53.8198 48.2569ZM9.53406 34.2174C9.83276 34.0683 9.8789 33.7091 10.1145 33.5063C10.3816 33.5552 10.5346 33.3548 10.7386 33.2425C10.9426 33.1301 11.1514 33.0274 11.081 32.7855C11.0106 32.5436 10.7094 32.5412 10.5103 32.5632C9.66571 32.6146 8.82432 32.71 7.98955 32.8491C6.08701 33.223 4.15028 33.3917 2.21219 33.3524C1.42779 33.3353 1.1218 33.8411 1.48365 34.5619C2.18062 35.9179 3.30744 36.888 4.47311 37.7993C4.97094 38.1903 5.1118 38.6276 4.64796 39.1505C3.64257 40.2964 2.59103 41.4155 1.86735 42.7789C1.79206 42.9206 1.56621 42.9475 1.71678 43.2212C1.75285 43.3055 1.81097 43.3784 1.88494 43.4322C1.95891 43.486 2.04599 43.5186 2.13691 43.5266C2.73431 43.485 3.35115 43.5779 3.91698 43.5266C5.73106 43.3555 7.52813 42.9939 9.33735 42.7496C9.6482 42.7081 9.66763 42.5957 9.65548 42.366C9.5802 41.0026 9.5462 39.6343 9.41263 38.2782C9.36892 37.8531 9.75748 37.533 9.65548 37.2545C9.27907 36.238 9.53892 35.2265 9.53406 34.2174ZM52.6007 36.5068C52.472 36.9148 52.4307 37.3497 52.149 37.8067C52.3919 37.748 52.5133 37.7065 52.6347 37.6845C54.2594 37.4182 54.257 37.4182 54.5192 35.8422C54.5378 35.7742 54.5622 35.708 54.5921 35.6443C54.5921 34.0097 54.9564 32.4166 54.9976 30.7869C54.5557 31.0312 54.4828 30.6452 54.5289 30.2982C54.5848 29.8828 54.0991 29.5139 54.4561 29.0961C53.7785 28.451 53.8174 27.4761 53.39 26.6869C52.7367 25.4652 51.8236 24.4121 51.4326 23.0218C51.1266 21.937 51.6755 20.9303 51.3792 19.9041C52.0956 18.8828 52.71 17.7808 53.5964 16.8841C53.917 16.5567 54.2618 16.2586 53.9437 15.7333C53.713 15.357 53.0306 15.2275 53.3001 14.5678C53.2484 14.531 53.1897 14.5052 53.1277 14.4921C52.5133 14.4652 52.3093 14.0351 52.1272 13.5343C51.9645 13.0847 51.4472 13.0456 51.0247 13.241C50.4248 13.5294 50.0071 14.2184 49.2033 14.0718C48.8779 14.0058 48.4747 13.7835 48.4577 14.4212C48.4577 14.5238 48.3655 14.6289 48.2708 14.5654C47.6126 14.1353 47.0565 14.6924 46.5514 14.8757C46.0098 15.0736 45.3371 15.3643 44.9049 15.3375C43.5571 15.2935 42.151 15.8261 40.8153 15.0565C40.5462 14.8503 40.2185 14.7364 39.8804 14.7315C38.8264 14.8195 38.0274 13.9985 37.0487 13.7322C36.7316 13.6707 36.4442 13.5037 36.2328 13.2582C35.7471 12.6204 35.0185 12.574 34.426 13.1115C34.192 13.3409 33.9098 13.5146 33.6003 13.6198C32.5269 13.9496 31.5677 14.5751 30.4433 14.795C30.1009 14.861 29.7609 15.0174 29.4209 15.12C28.9352 15.2715 28.4034 15.3057 27.9152 15.4792C27.347 15.682 26.8078 15.379 26.2444 15.3888C25.479 15.3918 24.7208 15.2398 24.0151 14.9416C23.4412 14.7201 22.8519 14.5413 22.252 14.4065C21.9387 14.3283 21.9266 14.3674 21.7979 14.0596C21.759 13.9643 21.7032 13.869 21.5939 13.9276C20.6055 14.4676 19.9935 13.6466 19.282 13.2557C18.7963 12.9869 18.3883 13.048 18.1892 13.5953C18.0744 13.9521 17.8333 14.2538 17.5116 14.4432C16.8948 14.7828 16.7564 15.5158 16.2707 15.9556C16.1444 16.068 16.2342 16.3075 16.3702 16.4663C16.8049 16.9818 17.3173 17.4705 17.6598 18.0423C18.1455 18.8706 19.0853 19.5083 18.857 20.686C18.7599 21.1893 18.9468 21.7 18.9396 22.2229C18.957 22.8684 18.7983 23.5065 18.4806 24.0676C17.7108 25.3039 16.9385 26.5379 16.3872 27.8866C16.2075 28.324 15.921 28.8053 15.9355 29.2182C15.9574 29.8144 15.7923 30.3764 15.7874 30.9677C15.7874 32.3262 15.6028 33.6871 15.6538 35.0554C15.666 35.4195 15.7024 35.6223 16.1614 35.7005C16.7592 35.8142 17.3339 36.0282 17.8613 36.3333C17.9161 36.3724 17.98 36.3966 18.0468 36.4034C18.1137 36.4103 18.1811 36.3996 18.2426 36.3724C18.4539 36.3015 18.3567 36.1281 18.3446 36.0157C18.211 34.9113 18.0653 33.8166 18.1794 32.6927C18.3252 31.2658 18.5243 29.873 19.0634 28.5194C19.6705 26.9777 20.4307 25.4799 20.7294 23.8233C20.9579 22.4826 20.8288 21.1049 20.3554 19.8308C19.974 18.7796 19.4476 17.7877 18.7914 16.8841C18.381 16.3099 18.6287 15.8823 18.9906 15.4889C19.1333 15.2981 19.3374 15.1629 19.5681 15.1063C19.7987 15.0497 20.0418 15.0753 20.2558 15.1786C21.606 15.7797 23.085 16.0582 24.3842 16.7619C25.2342 17.2237 26.1594 17.1382 27.0021 17.0869C28.9182 16.9696 30.8585 16.8279 32.6678 16.0631C33.4085 15.7504 34.2657 15.704 34.8534 15.01C34.9694 14.9226 35.1104 14.8754 35.2553 14.8754C35.4002 14.8754 35.5412 14.9226 35.6572 15.01C36.1041 15.4987 36.6796 15.638 37.2576 15.8554C39.1761 16.5762 41.1189 17.1333 43.1879 17.0771C43.9019 17.0576 44.6135 17.0454 45.3274 16.9989C46.0851 16.9476 46.566 16.3539 47.2921 16.2097C48.2198 16.024 49.2349 16.0411 50.012 15.2544C50.42 14.839 51.0465 15.01 51.4181 15.4205C51.724 15.7675 52.0349 16.1853 51.6803 16.7619C50.8595 18.0936 50.029 19.4496 49.8007 21.0232C49.618 22.0231 49.6411 23.0501 49.8687 24.0407C50.1771 25.2111 50.9032 26.1933 51.3039 27.3222C51.6099 28.1798 52.0908 29.0081 52.2219 29.8902C52.54 32.0794 52.812 34.2833 52.6007 36.5068ZM50.2233 16.7766L50.0727 16.6569C47.2047 18.0081 45.478 20.6713 43.3191 22.582C43.9383 23.276 44.5139 23.9283 45.1016 24.5734C45.3444 24.847 45.5581 24.957 45.8811 24.5734C46.5878 23.7353 47.3649 22.9559 48.1105 22.152C48.2384 22.004 48.3297 21.8277 48.3769 21.6375C48.4242 21.4473 48.4261 21.2485 48.3825 21.0574C48.3663 20.9885 48.374 20.916 48.4043 20.8521C48.9094 19.931 48.89 18.7899 49.6623 17.9641C49.9488 17.6611 50.0411 17.1773 50.2233 16.7766ZM23.2428 33.2498C23.0728 34.2271 23.4857 35.2411 23.6775 36.2747C23.7188 36.4921 23.7091 36.8562 24.0199 36.8391C24.4036 36.8171 24.9039 36.8147 25.086 36.4262C25.2919 36.0779 25.3604 35.6646 25.2779 35.268C24.6683 33.1496 24.9403 31.0752 25.6227 29.0276C25.6737 28.8786 25.8365 28.7027 25.5985 28.6098C25.4115 28.5365 25.3556 28.7124 25.256 28.8688C24.9816 29.3355 24.7096 29.8462 24.0054 29.4674C23.7625 29.3355 23.6192 29.4674 23.5197 29.7778C23.2161 30.887 23.2015 32.011 23.2428 33.2498ZM34.3386 20.7739C34.2147 20.9865 33.4012 20.642 33.6659 21.1991C33.8504 21.5949 33.7387 21.7293 33.627 22.0225C33.5153 22.3157 33.5032 22.6529 34.0666 22.6407C34.834 22.6187 35.6087 22.5283 36.3785 22.7262C36.6213 22.7897 37.0342 22.8459 37.0342 22.3377C37.0324 22.3069 37.0379 22.2762 37.0502 22.248C37.0625 22.2198 37.0813 22.1949 37.1049 22.1754C37.1286 22.1558 37.1565 22.1422 37.1865 22.1356C37.2164 22.129 37.2474 22.1296 37.277 22.1373C37.3184 22.1554 37.3548 22.1833 37.3832 22.2186C37.4115 22.2539 37.4309 22.2956 37.4397 22.3401C37.3936 22.9852 37.8866 23.0389 38.314 23.1489C38.8826 23.3131 39.4291 23.547 39.9411 23.8453C40.0892 23.9259 40.2738 24.1336 40.4268 23.8624C40.5239 23.684 40.6016 23.469 40.3053 23.3444C40.2331 23.3144 40.1682 23.2687 40.1155 23.2106C40.0628 23.1526 40.0234 23.0835 40.0002 23.0084C39.977 22.9333 39.9706 22.8539 39.9813 22.776C39.9921 22.6981 40.0198 22.6235 40.0625 22.5576C40.4413 21.9639 40.0625 21.8466 39.6448 21.6658C37.9594 20.9572 36.1842 20.7984 34.3386 20.7739ZM43.5085 24.1116C43.1005 24.395 43.2802 25.128 42.6537 25.3015C42.2481 25.4139 42.2821 25.6216 42.5905 25.8708C43.5741 26.6698 44.1278 27.7742 44.7155 28.8639C45.1453 29.658 45.2522 30.5401 45.529 31.3757C45.5897 31.559 45.648 31.6958 45.8593 31.6347C46.0244 31.5883 46.2065 31.5785 46.2138 31.3024C46.2138 30.9384 46.2138 30.5303 46.0098 30.286C45.5873 29.7802 45.8714 29.3453 46.0487 28.9201C46.1093 28.7784 46.1588 28.6322 46.1968 28.4828C46.4397 27.5274 45.733 26.9337 45.3177 26.2569C44.807 25.4679 44.1991 24.7471 43.5085 24.1116ZM28.3014 22.8459C28.191 23.0314 28.1315 23.243 28.1289 23.4592C27.8691 25.0596 27.7112 25.2135 26.1546 25.519C25.9459 25.5445 25.7352 25.5494 25.5256 25.5336C25.4115 25.5336 25.086 25.6778 25.222 25.8293C25.4649 26.1176 25.5645 26.7113 26.2177 26.467C26.6306 26.3131 27.1114 26.3522 27.534 26.2227C28.1581 26.0174 28.5393 26.2837 28.9376 26.7113C29.9819 27.8499 31.0553 28.9641 32.1286 30.0758C33.032 31.0108 33.9476 31.9352 34.8753 32.8491C35.0112 32.9835 35.0234 33.4404 35.3318 33.196C35.6402 32.9517 35.3148 32.7074 35.1302 32.5217C34.4916 31.8717 33.814 31.2584 33.2142 30.567C31.9441 29.1254 30.5987 27.7571 29.2169 26.4352C28.6171 25.861 28.6268 25.3162 28.8453 24.6931C29.1149 23.9479 29.1756 23.2931 28.3014 22.8459ZM22.2496 31.7471C21.3923 32.5314 20.6274 33.2131 19.8842 33.9193C19.4787 34.3004 19.5928 35.3853 20.0494 35.4195C20.8144 35.4879 21.3753 36.0768 22.1622 36.1183C22.5726 36.1378 22.7401 35.9497 22.6673 35.7298C22.2496 34.469 22.3419 33.1618 22.2496 31.7471ZM29.6273 24.2142C30.4943 23.596 31.473 23.2882 32.4443 22.9925C32.8815 22.8581 33.2725 22.8288 33.0248 22.2082C32.9689 22.0665 32.9179 21.8075 33.1389 21.6975C33.4012 21.5656 33.525 21.3286 33.3356 21.1453C33.2379 21.0452 33.1136 20.9753 32.9775 20.9441C32.8415 20.913 32.6994 20.9217 32.5682 20.9694C31.4657 21.3188 30.3607 21.6413 29.3262 22.1911C29.0275 22.3524 29.0032 22.499 29.1683 22.626C29.705 23.0414 29.5715 23.618 29.6273 24.2142ZM41.403 35.8275C41.5577 35.8227 41.708 35.7744 41.8367 35.688C41.9655 35.6016 42.0676 35.4807 42.1316 35.3389C42.3258 34.9699 42.5055 34.7329 42.9815 34.9162C43.0342 34.9419 43.0921 34.9552 43.1507 34.955C43.2094 34.9548 43.2671 34.9411 43.3197 34.9149C43.3722 34.8887 43.4181 34.8507 43.4537 34.804C43.4894 34.7572 43.514 34.7028 43.5255 34.6449C43.6955 33.6529 43.5668 32.6683 43.4089 31.6909C43.3604 31.3879 43.2147 31.1021 42.8382 31.4466C42.7314 31.5394 42.5954 31.5125 42.4643 31.5394C42.0174 31.6372 41.624 31.8229 41.7843 32.4386C41.9161 32.9848 41.9294 33.5531 41.8231 34.105C41.7394 34.6914 41.5995 35.2682 41.4054 35.8275H41.403ZM25.8413 20.2169C25.6883 20.9157 25.5256 21.5974 25.4018 22.2864C25.358 22.5307 25.3119 22.6529 25.0326 22.6969C24.3964 22.7971 23.8184 23.1856 23.1384 23.1074C22.8956 23.078 22.7086 23.3102 22.9223 23.5056C23.3351 23.8892 23.6265 24.6223 24.4304 24.1849C24.5858 24.1018 24.8092 24.1507 24.9841 24.0872C25.6373 23.8575 26.4751 23.8111 26.3804 22.7726C26.3691 22.6759 26.3842 22.5779 26.4241 22.4892C26.8661 21.568 26.7496 20.7862 25.8413 20.2169ZM27.0167 21.463C26.8637 22.196 26.7034 22.929 26.548 23.6889C26.5116 23.8672 26.5601 24.0872 26.2857 24.1214C25.6203 24.1995 25.0302 24.654 24.3429 24.5343C24.1827 24.5074 24.1219 24.5343 24.1147 24.6638C24.1147 24.891 24.8432 25.5019 25.0423 25.3968C25.5013 25.1989 26.0137 25.2087 26.463 25.0572C27.0798 24.8544 27.602 24.6565 27.7477 23.7524C27.8934 22.7702 27.9978 21.9981 27.0167 21.463ZM30.3559 26.3839C30.6837 26.7578 31.014 27.1316 31.3394 27.5079C31.4535 27.6374 31.5434 27.7522 31.7474 27.6178C32.5998 27.0363 33.5857 26.792 34.5765 26.4988C34.1321 26.3937 33.8286 25.7657 33.2287 26.2373C33.1 26.3399 32.6872 26.1738 32.6192 25.9197C32.6074 25.8609 32.609 25.8003 32.6239 25.7423C32.6388 25.6843 32.6665 25.6304 32.7051 25.5848C32.7437 25.5391 32.7921 25.5029 32.8466 25.4788C32.9011 25.4547 32.9604 25.4434 33.0199 25.4457C33.3842 25.4457 33.4279 25.2795 33.389 24.9888C32.2638 25.1443 31.2089 25.6295 30.3559 26.3839ZM41.3933 27.6911C41.1739 28.08 40.8206 28.3747 40.4 28.5194C40.1572 28.6172 39.9823 28.7198 40.2665 29.0081C40.6877 29.4641 41.0175 29.9975 41.2379 30.5792C41.4807 31.1656 41.7381 30.7087 41.9664 30.6109C42.0126 30.5914 41.9446 30.3495 41.9664 30.2176C41.9883 30.0856 41.828 29.939 42.0684 29.8828C42.107 29.8678 42.1484 29.8614 42.1898 29.8641C42.2311 29.8668 42.2713 29.8786 42.3076 29.8986C42.344 29.9187 42.3755 29.9464 42.4 29.98C42.4246 30.0135 42.4415 30.0521 42.4497 30.093C42.4811 30.2281 42.5234 30.3605 42.576 30.4888C42.6561 30.6403 42.797 30.7722 42.9767 30.7062C43.2559 30.6061 43.0349 30.4277 42.9912 30.3006C42.6509 29.3272 42.1087 28.4376 41.4006 27.6911H41.3933ZM46.0293 32.1967C45.7233 32.1747 45.563 32.2382 45.6383 32.5094C45.9006 33.4428 45.6213 34.3664 45.5581 35.29C45.5341 35.4126 45.5548 35.5398 45.6163 35.6484C45.6778 35.757 45.7761 35.8396 45.8933 35.8813C46.1143 35.9839 46.2721 35.7469 46.3498 35.5661C46.4183 35.375 46.5368 35.206 46.6928 35.077C46.8489 34.9479 47.0366 34.8637 47.2362 34.8331C47.6223 34.7696 47.5495 34.3444 47.7899 34.1709C47.6078 34.0194 47.5714 33.7067 47.2532 33.6994C46.7068 33.6823 46.6485 33.2327 46.6315 32.8588C46.6267 32.3751 46.294 32.2993 46.0366 32.1967H46.0293ZM29.0639 31.2193C29.2604 30.5732 29.5414 29.9561 29.8993 29.3844C29.977 29.2598 30.1737 29.14 29.9989 28.9641C29.671 28.6196 29.3359 28.2824 29.0008 27.9452C28.9828 27.9208 28.9588 27.9014 28.9312 27.889C28.9036 27.8767 28.8732 27.8717 28.8431 27.8747C28.8131 27.8776 28.7842 27.8884 28.7595 27.9059C28.7348 27.9234 28.715 27.947 28.7021 27.9746C28.4592 28.4632 27.7307 28.7955 28.2504 29.5359C28.3189 29.6164 28.3702 29.7102 28.4011 29.8115C28.432 29.9128 28.4419 30.0194 28.4301 30.1247C28.3329 30.6329 28.5855 30.9726 29.0712 31.2193H29.0639ZM40.6672 22.1447C40.5628 22.1202 40.536 22.2204 40.4802 22.2937C40.4553 22.3275 40.4377 22.3662 40.4286 22.4072C40.4195 22.4482 40.4191 22.4907 40.4273 22.5319C40.4355 22.5732 40.4523 22.6122 40.4765 22.6465C40.5006 22.6808 40.5317 22.7096 40.5676 22.7311C40.7394 22.8764 40.871 23.0638 40.9497 23.2753C41.0284 23.4867 41.0515 23.715 41.0169 23.9381C40.9659 24.6369 41.5026 24.8422 42.0441 24.9399C42.3647 24.9985 42.6245 24.8422 42.7921 24.4659C43.0155 23.9552 43.0349 23.618 42.491 23.315C42.1073 23.1 41.7964 22.7604 41.4322 22.5136C41.1897 22.3706 40.9363 22.2473 40.6745 22.1447H40.6672ZM28.7021 33.1398C28.7361 33.4575 28.2164 33.4795 28.3742 33.8362C28.6899 34.5301 28.2115 34.9552 27.7501 35.2533C27.5437 35.3877 27.4927 35.4366 27.5437 35.6272C27.7314 36.1929 27.9755 36.7381 28.2722 37.2545C28.285 37.288 28.3044 37.3186 28.3292 37.3444C28.354 37.3703 28.3837 37.3909 28.4165 37.405C28.4493 37.4191 28.4846 37.4265 28.5203 37.4267C28.556 37.4268 28.5914 37.4198 28.6243 37.4059C28.7749 37.3522 28.7773 37.2398 28.7263 37.1201C28.5248 36.6314 28.8793 36.3504 29.1586 36.0816C29.331 35.9155 29.4476 35.8129 29.3359 35.5539C29.0433 34.7744 28.8333 33.9661 28.7093 33.1423L28.7021 33.1398ZM47.4694 35.2827C47.3326 35.3098 47.2038 35.3679 47.0928 35.4526C46.9817 35.5373 46.8912 35.6463 46.8282 35.7713C46.6898 36.067 46.4518 36.5043 46.0511 36.3504C45.24 36.0474 45.206 36.6314 45.0433 37.1176C44.9559 37.3791 44.8515 37.6356 44.7373 37.941C45.308 37.9753 45.7694 37.7456 46.2575 37.6845C46.5084 37.6724 46.7461 37.5679 46.9253 37.3908C47.1044 37.2137 47.2125 36.9764 47.2289 36.7242C47.3066 36.2673 47.3868 35.7958 47.4766 35.2851L47.4694 35.2827ZM32.964 29.2133C33.2215 29.702 33.6926 29.9073 34.0374 30.2909C34.4478 30.7624 35.0088 30.3593 35.4945 30.413C35.6087 30.4277 35.6257 30.2005 35.5771 30.1125C35.3779 29.7533 35.4411 29.3795 35.4532 28.9959C35.4654 28.666 35.3148 28.5927 35.0282 28.6025C34.3021 28.6287 33.5944 28.8397 32.9713 29.2158L32.964 29.2133ZM38.6127 25.5629C37.9934 25.3333 37.5053 24.7982 36.9128 25.194C36.5286 25.4968 36.2511 25.9156 36.1211 26.3888C36.0312 26.6331 36.1065 26.6673 36.3056 26.6967C37.0858 26.8459 37.8369 27.1206 38.5301 27.5103C38.6297 26.7773 38.3626 26.3741 37.5951 26.445C37.5717 26.4475 37.5481 26.4475 37.5247 26.445C37.3717 26.445 37.2454 26.401 37.2357 26.2007C37.226 26.0003 37.4106 26.0174 37.5199 25.9563C37.8234 25.8097 38.2168 25.8977 38.6127 25.5629ZM27.8497 29.6996C27.0385 31.1167 27.0847 32.6316 27.1915 34.1685C27.2061 34.3786 27.2547 34.6132 27.5267 34.6572C27.687 34.6791 27.7817 34.5472 27.8521 34.4275C27.9784 34.2125 27.8788 34.0708 27.7137 33.9022C27.4344 33.6163 27.2474 33.2205 27.5655 32.8857C28.5102 31.8864 27.8594 30.7649 27.8424 29.6996H27.8497ZM31.7352 38.7229C31.2495 38.2049 30.7298 37.7969 30.334 37.2569C29.9382 36.7169 29.671 36.9197 29.4962 37.3986C29.3723 37.7407 29.2533 38.0339 28.6996 37.9239C29.586 39.087 30.7444 38.5055 31.7182 38.7278L31.7352 38.7229ZM39.1761 35.593C39.9046 34.3444 40.0139 33.4159 39.6278 32.3066C39.1812 32.8118 38.5854 33.1595 37.9279 33.2986C38.6418 33.9168 38.9527 34.6547 39.1591 35.593H39.1761ZM26.599 27.1902C26.1497 26.9703 25.783 27.4932 25.3629 27.2269C24.5979 26.7382 24.5931 26.7382 24.3381 27.652C24.2774 27.8695 24.0661 28.0381 24.0588 28.2091C24.0442 28.4534 23.6047 28.7662 24.1025 28.9763C24.5324 29.1571 24.7606 28.9275 24.8311 28.5439C24.9331 28.0307 25.2512 27.9135 25.6592 28.0918C25.9749 28.2287 26.072 28.1138 26.191 27.8622C26.31 27.6105 26.4703 27.393 26.582 27.1902H26.599ZM46.7141 28.7784C46.2527 29.5407 46.3231 29.6092 46.5732 30.4375C46.7967 31.1705 46.6 32.0379 47.1852 32.6829C47.1974 32.6976 47.1852 32.7416 47.1852 32.7513C47.3188 32.8564 46.8404 33.1618 47.3431 33.1667C47.7948 33.1667 47.6151 32.8662 47.6078 32.678C47.5284 31.3353 47.2204 30.0162 46.6971 28.7784H46.7141ZM31.4657 32.6389C31.6867 32.6389 31.7717 32.6658 31.8275 32.6389C32.1238 32.4801 32.5561 32.5852 32.7212 32.1796C32.8912 31.7349 32.3205 31.8791 32.2355 31.6152C32.2112 31.5272 32.1189 31.4588 32.0874 31.3708C31.9902 31.0972 31.8445 30.7844 31.5628 30.7869C31.2811 30.7893 31.3005 31.19 31.1767 31.4075C31.0792 31.5986 31.019 31.8068 30.9994 32.0208C30.9799 32.0918 30.9767 32.1663 30.9899 32.2387C31.0031 32.3111 31.0324 32.3796 31.0756 32.4391C31.1188 32.4985 31.1748 32.5474 31.2394 32.582C31.304 32.6166 31.3755 32.6361 31.4487 32.6389H31.4657ZM39.4019 38.525L39.4797 38.6765C40.1596 38.613 40.842 38.5568 41.5244 38.4786C41.6799 38.4615 41.9591 38.525 41.8863 38.1976C41.7624 37.6527 40.7425 37.296 40.3102 37.6552C39.9726 37.9239 39.6861 38.2391 39.3849 38.525H39.4019ZM26.3926 38.1219C26.1267 37.7725 25.926 37.3777 25.8 36.9564C25.7587 36.8122 25.647 36.5557 25.4722 36.7609C25.1516 37.1347 24.7266 37.2056 24.3065 37.3302C24.2239 37.3571 24.0977 37.3791 24.1389 37.5012C24.1555 37.5429 24.181 37.5804 24.2138 37.6108C24.2466 37.6413 24.2857 37.6639 24.3284 37.6772C24.9695 37.7505 25.545 38.1952 26.3756 38.1219H26.3926ZM42.3647 37.8238C42.7396 37.2124 43.0358 36.5555 43.2462 35.8691C43.2924 35.7249 43.4891 35.5172 43.1855 35.4122C43.1372 35.3888 43.0842 35.3767 43.0306 35.3768C42.9769 35.3768 42.924 35.389 42.8757 35.4125C42.8274 35.436 42.785 35.4701 42.7516 35.5124C42.7182 35.5546 42.6947 35.6039 42.6828 35.6565C42.6373 35.9755 42.4786 36.2671 42.236 36.4775C41.5754 37.0175 41.9616 37.3595 42.3477 37.8238H42.3647ZM34.7101 35.8886C34.392 35.7322 34.2244 35.5856 34.0229 35.5661C33.4352 35.5026 32.828 35.2118 32.2574 35.6345C32.0874 35.7616 31.8737 35.9082 32.1044 36.1403C32.2695 36.3064 32.4783 36.7194 32.6993 36.453C33.2069 35.8226 33.9014 36.0401 34.6931 35.8886H34.7101ZM37.5854 30.176C37.736 30.176 37.923 30.2518 38.0056 30.0392C38.0541 29.9195 38.1877 29.8217 38.0906 29.6556C37.9643 29.4381 36.6043 28.7296 36.3421 28.754C36.2352 28.754 36.1429 28.7931 36.1502 28.9055C36.1891 29.4968 36.8035 29.5798 37.0925 29.9561C37.1454 30.0361 37.2199 30.0993 37.3072 30.1382C37.3945 30.1772 37.491 30.1903 37.5854 30.176ZM37.464 37.1665C37.8426 37.0497 38.1798 36.8258 38.4354 36.5214C38.6783 36.2502 38.5957 36.0743 38.2776 35.9497C37.9133 35.8104 37.549 35.6541 37.1483 35.4855C37.1483 35.7298 37.1483 35.9741 37.1483 36.194C37.1556 36.5532 37.5417 36.7731 37.464 37.1592V37.1665ZM34.2657 32.8295C34.2147 33.0902 34.2536 33.3605 34.3759 33.5959C34.4982 33.8314 34.6966 34.0178 34.9384 34.1245C35.3245 34.3469 35.6159 34.1929 35.8976 33.9364C36.2643 33.6016 36.2789 33.5014 36.0555 32.937C35.3294 33.8753 35.3294 33.8753 34.2657 32.8295ZM36.5072 24.8812C35.7446 24.8128 35.0768 24.6711 34.3944 24.7884C34.2754 24.8104 34.1516 24.8031 34.1637 24.9741C34.1637 25.106 34.2803 25.0645 34.358 25.0987C35.0598 25.4066 35.7471 25.5507 36.5072 24.8812ZM35.4702 37.726C35.7398 37.5379 36.2571 37.9508 36.3153 37.3473C36.3542 36.9417 35.8976 36.7731 35.6985 36.7682C35.2735 36.7682 34.7854 37.0834 34.7417 37.4548C34.6907 37.8702 35.2274 37.5525 35.4702 37.726ZM39.4044 31.2951C39.1979 30.9701 39.0401 30.7062 38.8652 30.4521C38.7754 30.3226 38.6224 30.2322 38.5398 30.4326C38.3917 30.7624 38.076 30.9213 37.8526 31.1656C37.8008 31.2099 37.7626 31.2681 37.7424 31.3334C37.7222 31.3987 37.7208 31.4685 37.7384 31.5345C37.8259 31.7373 37.9424 31.5492 38.0639 31.5223C38.467 31.4319 38.8798 31.383 39.4044 31.2951ZM31.3904 33.7922C31.286 33.8454 31.2008 33.93 31.1464 34.0342C31.092 34.1384 31.0712 34.2571 31.0868 34.3737C31.1063 34.579 31.1767 34.9259 31.3685 34.8942C31.7911 34.8258 31.4584 34.3224 31.7182 34.0659C31.8567 33.929 31.4802 33.9437 31.3952 33.7922H31.3904ZM33.9986 37.318C33.8965 37.1715 33.8048 37.018 33.7242 36.8586C33.6319 36.6436 33.4692 36.6803 33.3186 36.7291C33.2409 36.7536 33.1365 36.8464 33.1316 36.9173C33.1146 37.0981 33.2943 37.1469 33.4182 37.186C33.5857 37.2422 33.7266 37.4255 33.9986 37.318Z" fill="black"/>
<path d="M16.1526 25.3238C16.0482 25.9126 15.6208 26.3402 15.3901 26.8729C14.9044 27.9822 14.7295 29.1476 14.5255 30.3156C12.5123 29.8855 10.4894 29.4873 8.55389 28.7616C7.59851 28.404 6.62589 28.095 5.63971 27.8356C5.19456 27.6777 4.78271 27.4373 4.42547 27.127C4.03691 26.8362 4.16562 26.477 4.68289 26.3133C5.50144 26.0654 6.34728 25.9202 7.20122 25.8809C9.94783 25.7196 12.6847 25.4533 15.4192 25.1478C15.6718 25.1307 15.951 25.077 16.1526 25.3238Z" fill="#AECDE9"/>
<path d="M36.5845 11.467C34.9235 11.1518 33.6097 12.0632 32.2133 12.7155C32.148 12.7442 32.0806 12.7679 32.0117 12.7864C32.087 11.2324 32.4658 9.72242 32.8738 8.2393C33.46 5.96216 33.8772 3.64436 34.1221 1.30502C34.1828 0.816351 34.5641 0.603778 34.6976 0.207953C34.7389 0.080898 34.8943 0.105332 34.9915 0.207953C35.2125 0.45229 35.4942 0.633099 35.533 1.00938C35.7176 2.83457 35.9871 4.65732 36.0746 6.48985C36.1256 7.57959 36.3757 8.6449 36.3344 9.75663C36.3247 10.2771 36.6064 10.8732 36.5845 11.467Z" fill="#AECDE9"/>
<path d="M23.0248 50.4189C24.0008 50.5729 24.9876 50.6464 25.9754 50.6388C26.5898 50.6388 27.2528 50.6388 27.7409 51.1495C27.1921 52.2026 26.3276 52.9943 25.4679 53.759C23.6927 55.3423 21.8567 56.8572 20.0499 58.3965C19.5172 58.8729 18.9489 59.3075 18.35 59.6964C18.18 59.8015 18.027 59.9212 17.8376 59.7795C17.6482 59.6378 17.7502 59.4398 17.8376 59.2664C18.4496 57.9127 19.3457 56.735 20.1131 55.4767C21.0432 53.9545 21.9514 52.4201 22.8597 50.8856C22.9291 50.7356 22.9844 50.5794 23.0248 50.4189Z" fill="#AECDE9"/>
<path d="M54.8697 26.8088C54.2918 25.7704 53.7332 24.7222 53.1261 23.7033C52.9245 23.419 52.8235 23.0748 52.8395 22.7259C54.4472 22.5573 56.0208 22.1957 57.6066 21.905C58.1421 21.8036 58.6844 21.7424 59.2289 21.7217C60.873 21.668 62.5049 21.5214 64.1393 21.3967C64.353 21.3796 64.6881 21.2599 64.7658 21.5604C64.8435 21.861 64.5594 21.9905 64.3117 22.1102C62.1737 23.0902 60.1018 24.21 58.1093 25.4625C57.4961 25.8322 56.8113 26.0654 56.101 26.1466C55.6236 26.2074 55.1852 26.4431 54.8697 26.8088Z" fill="#AECDE9"/>
<path d="M47.4473 50.4925C48.0107 50.1846 48.6615 50.2897 49.2662 50.1089C50.3542 49.7864 51.5125 49.6984 52.6418 49.5127C54.4534 51.7777 56.4739 53.8766 58.0014 56.3688C58.2277 56.677 58.471 56.9723 58.73 57.2533C58.8441 57.3975 59.0335 57.5587 58.8611 57.742C58.6887 57.9252 58.5163 57.8226 58.3438 57.7126C56.9742 56.8233 55.5147 56.0878 54.2154 55.0616C53.2586 54.3017 52.1537 53.7202 51.1094 53.0702C50.0652 52.4203 48.8631 51.9707 47.8698 51.1913C47.75 51.1161 47.6494 51.0138 47.576 50.8924C47.5026 50.7711 47.4585 50.6341 47.4473 50.4925Z" fill="#AECDE9"/>
<path d="M55.9008 31.4835C55.437 30.7652 55.9008 29.932 55.5851 29.1452C55.3557 28.6046 55.2384 28.0226 55.2403 27.4349C57.2413 27.4959 59.2327 27.1905 61.2362 27.3029C62.8147 27.3884 64.3932 27.6132 65.9693 27.6059C66.128 27.5966 66.2844 27.647 66.4082 27.7472C66.5321 27.8474 66.6145 27.9904 66.6395 28.1483C66.7173 28.5173 66.3967 28.5368 66.1538 28.6565C65.2165 29.1623 64.1625 29.2674 63.1595 29.5313C61.1682 30.0517 59.1598 30.5086 57.1928 31.1121C56.7726 31.2465 56.3404 31.3613 55.9008 31.4835Z" fill="#AECDE9"/>
<path d="M49.2101 13.0722C48.5859 13.5218 47.9011 13.5437 47.1459 13.5975C46.3153 13.6537 45.4896 14.1082 44.6348 14.2254C44.069 14.3012 43.4886 14.5651 42.8984 14.3256C45.1156 11.6086 47.7724 9.37292 50.5312 7.23986C51.2597 6.67544 51.8741 5.95465 52.6634 5.45132C52.8309 5.34381 52.9742 5.20698 53.1734 5.33892C53.3725 5.47086 53.3288 5.6981 53.2389 5.91067C52.7532 7.0615 51.981 8.03884 51.3326 9.08705C50.6842 10.1353 50.043 11.2494 49.3728 12.3147C49.233 12.5406 49.1754 12.8084 49.2101 13.0722Z" fill="#AECDE9"/>
<path d="M35.0124 53.5488C35.8308 53.7003 36.5157 53.3045 37.1981 52.9868C37.8319 52.7059 38.4414 52.3931 39.1408 52.3467C38.6551 54.9342 38.1257 57.5169 37.3923 60.0531C37.0888 61.1062 37.1811 62.235 36.8022 63.2759C36.6881 63.5911 36.6298 63.9454 36.1587 63.8867C35.6875 63.8281 35.5807 63.4738 35.588 63.1097C35.6196 61.458 35.3038 59.8356 35.2504 58.1863C35.2116 56.6421 34.9979 55.0979 35.0124 53.5488Z" fill="#AECDE9"/>
<path d="M40.5812 51.898C40.4015 51.7416 40.4622 51.5119 40.6371 51.5363C41.8076 51.7049 42.643 50.7423 43.7309 50.6592C43.7844 50.6592 43.8451 50.7227 43.9034 50.7545C44.0952 52.2205 44.6951 53.5863 45.1346 54.9864C45.7029 56.8026 46.3027 58.6083 46.9341 60.4033C47.177 61.0948 47.5825 61.7276 47.6626 62.4826C47.6772 62.6439 47.7962 62.8149 47.6117 62.9347C47.3809 63.0861 47.245 62.8809 47.1454 62.7416C46.0939 61.2487 44.8553 59.8927 44.0491 58.2214C43.3554 56.7275 42.5577 55.2847 41.6619 53.904C41.2678 53.2544 40.9071 52.5848 40.5812 51.898Z" fill="#AECDE9"/>
<path d="M30.4448 13.4826C30.4229 13.7099 30.2019 13.727 30.0756 13.7465C29.1455 13.9347 28.2421 14.2841 27.2805 14.3109C26.3795 11.5841 25.5004 8.85246 24.5776 6.13055C24.2327 5.09456 23.8296 4.07812 23.4799 3.04214C23.3949 2.7978 23.2613 2.41908 23.5843 2.27981C23.9073 2.14053 23.9826 2.52414 24.1526 2.71228C26.0784 4.88932 27.3096 7.48662 28.6307 10.0424C29.0387 10.834 29.5511 11.5915 30.0271 12.3587C30.2537 12.6943 30.397 13.0797 30.4448 13.4826Z" fill="#AECDE9"/>
<path d="M16.3997 18.4989C16.9331 18.9528 17.3294 19.5479 17.544 20.2168C17.7586 20.8857 17.7829 21.6016 17.614 22.2837C17.5023 22.7919 17.6407 23.4198 17.104 23.7937C17.1283 23.5493 16.9729 23.4296 16.781 23.305C14.6949 21.8976 12.5506 20.588 10.3577 19.3516C9.59998 18.924 8.90058 18.3743 8.19146 17.8856C8.02633 17.7683 7.79076 17.6071 7.94862 17.3676C8.10647 17.1282 8.29832 17.2259 8.49988 17.2943C9.85983 17.6999 11.2611 17.8832 12.655 18.1177C13.9057 18.3254 15.1563 18.3596 16.3997 18.4989Z" fill="#AECDE9"/>
<path d="M41.1839 13.8959C40.7234 13.963 40.2546 13.8541 39.8701 13.5905C39.1707 13.1556 38.3401 12.9895 37.6602 12.5106C38.4543 11.9119 38.9132 11.0323 39.4378 10.2309C40.5598 8.52054 41.5117 6.71001 42.7114 5.04363C43.2165 4.33994 43.6002 3.53363 44.1272 2.8446C44.2875 2.62959 44.4575 2.28996 44.8023 2.439C45.2054 2.61493 44.9383 2.97899 44.863 3.19156C44.3919 4.51586 43.8916 5.8304 43.3622 7.13027C42.8547 8.36661 42.4831 9.64693 42.0557 10.9077C41.7206 11.8851 41.3417 12.86 41.1839 13.8959Z" fill="#AECDE9"/>
<path d="M54.096 18.3038C54.3447 18.3888 54.6156 18.3801 54.8585 18.2794C56.2184 17.7907 57.6561 17.5708 59.0355 17.1506C60.0724 16.8329 61.1191 16.5495 62.1682 16.2709C62.4256 16.2025 62.7583 16.0681 62.9259 16.4053C63.0935 16.7425 62.7923 16.894 62.5762 17.0968C61.4057 18.1401 59.9802 18.7607 58.6251 19.4937C57.4108 20.1486 56.1966 20.779 54.9483 21.3483C54.2198 21.6781 53.5423 22.1375 52.736 22.2792C52.447 20.8694 52.736 19.6355 53.824 18.641C53.9029 18.629 53.9745 18.5877 54.0248 18.5254C54.0751 18.463 54.1005 18.384 54.096 18.3038Z" fill="#AECDE9"/>
<path d="M29.7273 51.8799C30.859 52.3172 32.1339 52.3392 33.1611 53.0771C32.2723 53.7148 31.7429 54.6555 31.2184 55.5669C29.8876 57.8735 28.4256 60.0945 26.9394 62.3008C26.7815 62.5452 26.6407 62.8726 26.291 62.6918C25.9947 62.5354 26.1623 62.2324 26.2279 61.9832C26.6723 60.2948 27.5344 58.7653 28.0759 57.1136C28.6418 55.3739 29.176 53.6318 29.7273 51.8799Z" fill="#AECDE9"/>
<path d="M16.2532 49.0361C17.4674 49.2414 18.6404 49.6934 19.8959 49.8424C20.4715 49.9109 21.1345 49.9255 21.6954 50.2261C20.1444 50.9829 18.5286 51.5971 16.8676 52.061C16.5016 52.1646 16.1511 52.3174 15.8258 52.5155C14.6528 53.2803 13.203 53.3414 12.0155 54.0646C11.9325 54.1161 11.835 54.1392 11.7379 54.1304C11.6407 54.1216 11.5489 54.0814 11.4764 54.0157C11.3015 53.8276 11.4764 53.6712 11.5905 53.5271C12.1491 52.7061 12.9626 52.1588 13.679 51.5039C14.5484 50.7001 15.5174 49.9866 16.2532 49.0361Z" fill="#AECDE9"/>
<path d="M18.842 11.5744C17.7589 11.357 17.6472 12.3856 17.142 12.9158C16.9502 13.1186 16.9696 13.5365 16.5471 13.5096C15.0778 11.7552 13.8393 9.82743 12.4186 8.03399C12.2729 7.85074 12.0107 7.67971 12.1758 7.43293C12.3409 7.18615 12.6154 7.40849 12.7999 7.51356C14.1186 8.24657 15.4567 8.97958 16.6199 9.95692C17.0473 10.321 17.5913 10.5482 18.0551 10.8683C18.3611 11.0735 18.757 11.1591 18.842 11.5744Z" fill="#AECDE9"/>
<path d="M55.3367 15.628C54.7763 14.8016 54.1173 14.0475 53.3745 13.3825C53.3405 13.3581 53.3745 13.2481 53.3745 13.1797C53.95 13.2799 54.4697 13.0111 54.9336 12.7814C55.9898 12.251 57.089 11.8121 58.2193 11.4693C58.552 11.3692 58.8556 11.1664 59.1907 11.0393C59.2561 11.0069 59.3302 10.997 59.4017 11.0112C59.4733 11.0253 59.5382 11.0626 59.5865 11.1175C59.6837 11.2494 59.6133 11.3936 59.538 11.5182C59.2834 11.918 58.978 12.2827 58.6297 12.6031C57.5393 13.6171 56.3397 14.5211 55.3367 15.628Z" fill="#AECDE9"/>
<path d="M58.5271 32.6434C58.226 33.1321 58.4009 33.6769 58.3936 34.1974C58.3329 35.2871 58.3329 35.292 57.1793 35.3702C56.9189 35.3832 56.6669 35.4677 56.4508 35.6145C57.1793 35.7489 57.8326 35.3849 58.481 35.6438C57.7913 36.0983 56.9972 36.2816 56.2225 36.5112C55.9505 36.5919 55.7149 36.477 55.8242 36.135C56.2031 34.9255 55.8437 33.6916 55.9602 32.4699C56.8186 32.348 57.6927 32.4071 58.5271 32.6434Z" fill="#AECDE9"/>
<path d="M14.3954 31.7739C14.3274 32.6828 14.4731 33.6015 14.2326 34.4983C14.0189 34.4983 13.9097 34.6693 13.7469 34.7597C13.3171 35.004 12.9868 35.4927 12.3894 35.3608C12.3093 34.2417 12.1951 33.13 11.7969 32.0696C12.6638 31.9449 13.5162 31.7299 14.3954 31.7739Z" fill="#AECDE9"/>
<path d="M10.38 46.8887C11.0235 47.3554 11.8662 47.326 12.5268 47.7512C11.7866 48.0689 11.0303 48.347 10.261 48.5844C9.80571 48.71 9.34351 48.8088 8.87675 48.88C8.6339 48.9142 8.2672 49.0682 8.11664 48.7163C7.98793 48.4207 8.24535 48.2276 8.44448 48.0615C9.03946 47.5875 9.62715 47.0964 10.38 46.8887Z" fill="#AECDE9"/>
<path d="M59.791 47.1622C60.2932 46.8698 60.6897 46.4238 60.9227 45.8892C61.6051 46.3583 62.2923 46.8225 62.9675 47.3039C63.1156 47.4089 63.2856 47.5482 63.1763 47.7925C63.101 47.9489 62.9335 47.9318 62.795 47.9001C61.7921 47.6533 60.7915 47.4065 59.791 47.1622Z" fill="#AECDE9"/>
<path d="M16.4232 24.7837C16.9211 24.9401 16.4742 25.0549 16.4062 25.1844C16.4111 25.0451 16.4184 24.9181 16.4232 24.7837Z" fill="#AECDE9"/>
<path d="M14.3924 31.3345C14.4993 31.4835 14.5746 31.6326 14.3924 31.7816C14.39 31.6423 14.39 31.4835 14.3924 31.3345Z" fill="#AECDE9"/>
<path d="M10.6364 44.7309C10.6599 42.8863 10.5788 41.0418 10.3936 39.2065C10.3547 38.8644 10.5611 38.4734 10.5174 38.1045C11.4427 38.2096 12.2465 38.7202 13.1548 38.9206C13.4947 38.9939 13.9683 38.9206 14.1261 39.0745C14.7406 39.6902 15.5589 39.6878 16.2778 39.9468C17.6209 40.4244 19.0186 40.729 20.4378 40.8533C21.5657 40.9365 22.6878 41.085 23.7988 41.298C25.5449 41.662 27.2739 42.0114 29.0613 41.987C29.5907 41.987 30.1347 41.9675 30.6495 42.0065C31.7448 42.0872 32.8352 42.29 33.9401 42.2729C34.6274 42.2729 35.3074 42.0579 35.9995 42.1434C37.1021 42.2851 38.2178 42.29 39.3216 42.158C40.2227 42.0143 41.1305 41.9181 42.0415 41.8697C43.3529 41.8526 44.64 41.6865 45.9271 41.5692C47.2142 41.4519 48.4697 41.0194 49.7495 40.8802C51.1095 40.7287 52.382 40.2644 53.7225 40.0543C55.2938 39.81 56.7387 39.011 58.3366 38.8473C59.24 38.7569 59.3518 38.8937 59.1672 39.7782C58.8151 41.469 58.3585 43.1256 57.4673 44.6161C57.154 45.1414 56.9816 45.7791 56.1874 45.9477C54.8372 46.2336 53.5015 46.5585 52.1367 46.8004C49.2736 47.3087 46.4322 47.8535 43.5156 48.0441C41.3931 48.1834 39.2682 48.3398 37.1433 48.4522C34.6857 48.5841 32.2208 48.5841 29.7607 48.5645C28.3692 48.5645 26.9922 48.2787 25.6031 48.1638C23.9906 48.0294 22.3587 47.961 20.7608 47.5383C19.85 47.2938 18.9233 47.1142 17.9874 47.0008C17.0733 46.8865 16.1728 46.681 15.2991 46.3875C13.7279 45.8793 12.1882 45.288 10.6364 44.7309Z" fill="white"/>
<path d="M52.6016 36.507C52.8129 34.2835 52.5409 32.0796 52.2203 29.8928C52.0892 29.0107 51.6083 28.1824 51.3023 27.3248C50.9016 26.196 50.1755 25.2137 49.8671 24.0434C49.6396 23.0528 49.6164 22.0257 49.7991 21.0258C50.0274 19.4425 50.8579 18.0938 51.6788 16.7646C52.0333 16.1879 51.7225 15.7701 51.4165 15.4232C51.0449 15.0005 50.4184 14.8416 50.0104 15.257C49.2357 16.0438 48.2182 16.0267 47.2905 16.2124C46.5619 16.3565 46.0763 16.9454 45.3259 17.0016C44.6119 17.048 43.9003 17.0602 43.1864 17.0798C41.1173 17.136 39.1745 16.5789 37.256 15.8581C36.678 15.6406 36.1025 15.5038 35.6556 15.0127C35.5397 14.9252 35.3986 14.878 35.2537 14.878C35.1088 14.878 34.9678 14.9252 34.8518 15.0127C34.2714 15.7066 33.4142 15.7457 32.6662 16.0658C30.857 16.8305 28.9166 16.9723 27.0005 17.0895C26.1579 17.1409 25.2326 17.2264 24.3826 16.7646C23.0785 16.0609 21.5996 15.7872 20.2542 15.1813C20.0402 15.0779 19.7972 15.0524 19.5665 15.1089C19.3358 15.1655 19.1318 15.3007 18.989 15.4916C18.6271 15.885 18.3794 16.3126 18.7899 16.8867C19.446 17.7903 19.9725 18.7823 20.3538 19.8334C20.8276 21.1066 20.9575 22.4834 20.7302 23.8235C20.4315 25.4874 19.6738 26.9852 19.0594 28.5294C18.5203 29.883 18.3309 31.2757 18.1754 32.7026C18.0613 33.8242 18.207 34.9212 18.3406 36.0256C18.3406 36.138 18.4499 36.3115 18.2386 36.3824C18.1771 36.4095 18.1096 36.4202 18.0428 36.4134C17.976 36.4065 17.9121 36.3824 17.8573 36.3433C17.3299 36.0381 16.7552 35.8242 16.1574 35.7104C15.6984 35.6322 15.6717 35.4294 15.6498 35.0654C15.5988 33.6971 15.7761 32.3361 15.7834 30.9776C15.7834 30.3863 15.9534 29.8244 15.9315 29.2282C15.917 28.8153 16.2035 28.3339 16.3832 27.8965C16.9345 26.5478 17.7067 25.3139 18.4766 24.0776C18.7985 23.5143 18.9599 22.8726 18.9428 22.2231C18.9428 21.7002 18.7631 21.1895 18.8603 20.6862C19.0886 19.5085 18.1536 18.8708 17.663 18.0425C17.3182 17.4707 16.8058 16.982 16.3662 16.4665C16.2302 16.3077 16.1404 16.0682 16.2667 15.9558C16.7572 15.516 16.8956 14.783 17.5246 14.4483C17.8508 14.2612 18.0966 13.9591 18.2143 13.6004C18.4134 13.0531 18.8214 12.992 19.3071 13.2608C20.0187 13.6517 20.6306 14.4825 21.619 13.9327C21.7283 13.8741 21.7842 13.9694 21.823 14.0647C21.9517 14.3725 21.9639 14.3334 22.2771 14.4116C22.877 14.5464 23.4663 14.7252 24.0402 14.9467C24.746 15.2449 25.5042 15.3969 26.2696 15.3938C26.833 15.3938 27.3721 15.687 27.9404 15.4843C28.4261 15.3108 28.9482 15.2766 29.446 15.1251C29.786 15.0225 30.126 14.8661 30.4684 14.8001C31.5904 14.5802 32.5496 13.9547 33.6254 13.6248C33.935 13.5197 34.2171 13.346 34.4511 13.1166C35.0485 12.5791 35.7746 12.628 36.2579 13.2632C36.4694 13.5088 36.7568 13.6758 37.0739 13.7372C38.0453 13.9987 38.8515 14.8245 39.9055 14.7366C40.2437 14.7415 40.5714 14.8554 40.8404 15.0615C42.1761 15.8385 43.5822 15.3059 44.93 15.3425C45.3647 15.3572 46.035 15.0787 46.5765 14.8807C47.0768 14.6975 47.6378 14.1477 48.2959 14.5704C48.3906 14.634 48.4829 14.5289 48.4829 14.4263C48.4829 13.7886 48.903 14.0109 49.2284 14.0769C50.0322 14.2357 50.4427 13.5344 51.0498 13.2461C51.4723 13.0433 51.9896 13.0898 52.1523 13.5393C52.3344 14.0402 52.5384 14.4703 53.1528 14.4971C53.2148 14.5103 53.2735 14.5361 53.3253 14.5729C53.0557 15.2326 53.7381 15.3621 53.9688 15.7384C54.2869 16.2637 53.9421 16.5618 53.6215 16.8892C52.7351 17.7859 52.1207 18.8879 51.4043 19.9092C51.7055 20.9354 51.1615 21.9421 51.4578 23.0269C51.8488 24.4245 52.7619 25.4898 53.4151 26.692C53.8425 27.4812 53.8037 28.4561 54.4812 29.1011C54.1242 29.5189 54.6099 29.8879 54.5541 30.3033C54.5079 30.638 54.5808 31.0167 55.0228 30.7919C54.9815 32.4217 54.6075 34.0147 54.6172 35.6493C54.3396 35.6453 54.0681 35.7309 53.8425 35.8937C53.4467 36.1234 53.1237 36.529 52.6016 36.507Z" fill="#F5F5F5"/>
<path d="M10.6361 44.7311C12.1879 45.2882 13.7275 45.8795 15.2963 46.3877C16.1732 46.6818 17.077 46.8873 17.9944 47.001C18.9302 47.1144 19.857 47.294 20.7677 47.5385C22.3656 47.9612 23.9976 48.0272 25.6101 48.164C26.9992 48.2789 28.3761 48.555 29.7676 48.5647C32.2277 48.5843 34.6926 48.5843 37.1502 48.4523C39.2751 48.34 41.4001 48.1836 43.5226 48.0443C46.4367 47.8537 49.2805 47.3113 52.1437 46.8006C53.5085 46.5563 54.8441 46.2338 56.1944 45.9479C56.9836 45.7793 57.1658 45.1416 57.4742 44.6163C58.3679 43.1258 58.8244 41.4692 59.1741 39.7784C59.3587 38.8939 59.247 38.7571 58.3436 38.8475C56.7383 39.0112 55.2934 39.8077 53.7295 40.0545C52.3889 40.2646 51.1164 40.7289 49.7565 40.8803C48.4767 41.0196 47.2284 41.4497 45.934 41.5694C44.6397 41.6891 43.3526 41.8528 42.0485 41.8699C41.1336 41.9146 40.2216 42.0076 39.3164 42.1485C38.2126 42.2804 37.0969 42.2755 35.9943 42.1338C35.3022 42.0483 34.6222 42.2511 33.9349 42.2633C32.83 42.2804 31.7493 42.0776 30.6443 41.997C30.1295 41.9579 29.5855 41.9701 29.0561 41.9774C27.2687 42.0019 25.5397 41.6525 23.7936 41.2884C22.6842 41.0756 21.5637 40.9272 20.4374 40.8437C19.0164 40.7239 17.6161 40.4234 16.2701 39.9494C15.5416 39.6904 14.7329 39.6929 14.1185 39.0771C13.9558 38.9159 13.4823 38.9965 13.1471 38.9232C12.2389 38.7229 11.4472 38.2122 10.5098 38.1071C9.96096 38.1707 10.0508 37.5818 9.78125 37.3741C9.78715 37.3129 9.81577 37.2562 9.86139 37.2153C10.08 37.0956 10.1625 37.401 10.3471 37.3863C10.8182 37.3277 11.2238 37.5574 11.6536 37.6844C13.271 38.1731 14.9223 38.5543 16.4863 39.1749C17.5427 39.5951 18.6355 39.7417 19.7113 39.9641C21.3967 40.3135 23.1112 40.4821 24.8111 40.7386C27.0853 41.0604 29.3743 41.2651 31.6691 41.3519C33.6484 41.4448 35.6227 41.3519 37.5946 41.4374C38.855 41.501 40.1033 41.3275 41.3564 41.2762C42.6094 41.2249 43.8383 40.9708 45.0816 40.8681C47.0463 40.7069 48.9551 40.2231 50.8881 39.8908C52.6269 39.5927 54.3147 39.0063 56.0365 38.6007C56.5663 38.4403 57.1092 38.3275 57.6587 38.2635C59.1741 38.1609 59.4218 37.787 59.3295 36.4505C59.5505 36.2062 59.8832 36.2355 60.2256 36.0425C60.0727 36.8854 60.4685 37.6136 60.1334 38.4492C59.9124 39.0063 59.9901 39.7808 60.0435 40.4186C60.1746 41.9676 59.6987 43.4948 60.0119 45.061C60.1746 45.877 59.8565 46.2044 59.0041 46.4928C57.8214 46.891 56.6436 47.3064 55.4488 47.6705C54.9048 47.8366 54.39 48.1445 53.8169 48.2691C53.9189 47.7071 54.6086 47.7242 54.9 47.1256C53.7489 47.497 52.6464 47.4921 51.6045 47.7389C50.1421 48.1065 48.6577 48.3791 47.1604 48.555C45.6208 48.7138 44.0884 49.0974 42.5196 48.9386C42.4007 48.9453 42.2832 48.9675 42.1699 49.0045C40.5865 49.3149 38.9643 49.2367 37.3761 49.2611C36.446 49.2611 35.4794 49.2929 34.559 49.3491C32.7984 49.4517 31.0499 49.3491 29.3038 49.3124C27.871 49.2806 26.4358 49.0461 25.0005 48.919C23.3589 48.7724 21.6881 48.6747 20.0999 48.2838C18.8589 47.9734 17.5645 47.9246 16.3721 47.4701C15.1312 46.9985 13.6498 47.1451 12.6639 46.0212C12.6392 45.9961 12.6089 45.9775 12.5754 45.9668C12.542 45.9562 12.5065 45.9539 12.472 45.9601C11.826 46.2558 11.3379 45.7524 10.7721 45.6278C10.4782 45.359 10.0727 45.1318 10.6361 44.7311Z" fill="#AECDE9"/>
<path d="M59.3399 36.4403C59.4322 37.7768 59.1845 38.1506 57.6691 38.2532C57.1195 38.3172 56.5766 38.4301 56.0469 38.5904C54.3251 38.996 52.647 39.5824 50.8985 39.8805C48.9557 40.2128 47.0566 40.6966 45.092 40.8579C43.8486 40.9605 42.6125 41.2122 41.3667 41.2659C40.1209 41.3197 38.8654 41.4907 37.605 41.4272C35.633 41.3294 33.6587 41.4272 31.6795 41.3417C29.3846 41.2548 27.0956 41.0501 24.8215 40.7284C23.1215 40.4718 21.3973 40.3032 19.7216 39.9538C18.6458 39.7315 17.553 39.5849 16.4966 39.1646C14.9327 38.544 13.2813 38.1555 11.6639 37.6742C11.2341 37.5471 10.8285 37.3174 10.3574 37.3761V36.0396C12.2565 36.6944 14.0584 37.3614 15.8919 37.9307C16.9809 38.2906 18.0934 38.5739 19.2214 38.7786C20.9213 39.0547 22.6067 39.4383 24.3212 39.6508C25.2926 39.773 26.281 39.6753 27.2645 39.7926C28.6657 39.9587 30.084 40.1395 31.4779 40.1982C33.7336 40.3097 35.9936 40.3016 38.2485 40.1737C40.3832 40.0418 42.5081 39.7266 44.6403 39.6704C46.2366 39.6559 47.827 39.4733 49.3855 39.1255C49.7862 39.0327 50.2331 39.1719 50.6265 38.9496C51.0296 39.2477 51.4279 39.6973 51.9719 39.3528C52.3473 39.1594 52.6783 38.8888 52.9433 38.5587C55.0487 37.8037 57.1542 36.9949 59.3399 36.4403Z" fill="#F5F5F5"/>
<path d="M9.53449 34.2171C9.53449 35.2262 9.29164 36.2378 9.65348 37.2518C9.75791 37.5303 9.36935 37.8504 9.41064 38.2755C9.5442 39.6316 9.5782 40.9999 9.65348 42.3633C9.66563 42.593 9.65348 42.7054 9.33535 42.7469C7.52613 42.9912 5.72906 43.3528 3.91498 43.5239C3.34672 43.5776 2.73231 43.4848 2.13491 43.5239C2.04399 43.5159 1.95691 43.4833 1.88294 43.4295C1.80897 43.3757 1.75085 43.3028 1.71478 43.2185C1.56421 42.9448 1.79006 42.9179 1.86535 42.7762C2.59389 41.4104 3.63085 40.2938 4.64839 39.1527C5.11223 38.6298 4.97137 38.1925 4.47353 37.8015C3.31029 36.8926 2.18591 35.9226 1.4865 34.5738C1.12223 33.8628 1.42822 33.3522 2.21505 33.3644C4.15331 33.402 6.09005 33.2317 7.9924 32.8561C8.82718 32.7171 9.66857 32.6217 10.5132 32.5703C10.7123 32.5507 10.9989 32.5385 11.0839 32.7926C11.1689 33.0467 10.9454 33.1396 10.7414 33.2495C10.5375 33.3595 10.3845 33.5623 10.1173 33.5159C9.76072 33.4919 9.40253 33.5132 9.05122 33.5794C7.09144 34.0681 5.08794 34.2391 3.07959 34.371C2.45061 34.4126 2.29519 34.63 2.73717 35.0796C3.524 35.8761 4.11412 36.8511 4.9908 37.5572C5.90877 38.2902 6.01076 38.3659 5.25551 39.2529C4.5391 40.0983 4.26469 41.2809 3.23258 41.8697C3.02616 41.987 3.04559 42.1922 3.08687 42.3804C3.12816 42.5685 3.32972 42.5685 3.48757 42.5856C4.23069 42.6614 4.94466 42.4903 5.6902 42.4244C6.86073 42.3169 7.91955 41.7109 9.09008 41.5814C9.33293 41.5521 9.3645 41.3591 9.34992 41.1489C9.35419 41.0998 9.34577 41.0505 9.32549 41.0056C9.3052 40.9608 9.27374 40.922 9.23416 40.893C9.19457 40.864 9.14821 40.8457 9.09956 40.8401C9.05092 40.8344 9.00164 40.8415 8.95651 40.8606C8.66752 40.9412 8.36639 40.9437 8.07012 41.0243C6.98458 41.32 5.89663 41.6523 4.76252 41.7109C4.66053 41.1538 5.13894 40.8631 5.21179 40.4184C5.39236 40.302 5.53968 40.1403 5.63921 39.9492C5.89767 39.5327 6.19971 39.1453 6.54017 38.7935C6.66888 38.6714 7.05258 38.7935 6.93116 38.4124C6.86073 38.1876 6.87045 37.9579 6.59603 37.7698C5.69263 37.1491 4.78438 36.5114 4.14812 35.5854C3.96113 35.3166 3.88341 35.0967 4.39097 35.0625C6.13078 34.9684 7.85535 34.6849 9.53449 34.2171Z" fill="#F5F5F5"/>
<path d="M10.7896 45.606C11.3482 45.7306 11.8363 46.2339 12.4895 45.9383C12.524 45.932 12.5595 45.9343 12.593 45.945C12.6264 45.9556 12.6567 45.9743 12.6814 45.9993C13.6673 47.1233 15.1487 46.9767 16.3897 47.4483C17.5821 47.9027 18.8764 47.9516 20.1174 48.2619C21.7056 48.6577 23.3764 48.7506 25.0181 48.8972C26.4533 49.0242 27.8885 49.2588 29.3213 49.2906C31.0674 49.3297 32.8159 49.4298 34.5766 49.3272C35.497 49.271 36.4635 49.2515 37.3936 49.2393C38.9818 49.2148 40.6041 49.293 42.1874 48.9827C42.3007 48.9457 42.4182 48.9235 42.5371 48.9167C44.1059 49.0756 45.6383 48.6919 47.1779 48.5331C48.6752 48.3573 50.1596 48.0847 51.6221 47.717C52.6639 47.4727 53.7664 47.4727 54.9175 47.1037C54.6261 47.7024 53.9461 47.6853 53.8344 48.2472C53.5721 48.1837 53.3123 48.1202 53.1957 48.472L53.0136 48.4916C52.9474 48.4743 52.8778 48.4752 52.812 48.4941C52.7463 48.513 52.6868 48.5493 52.6396 48.5991L52.3069 48.648C52.064 48.648 51.8382 48.5747 51.6391 48.7579C50.4248 49.0316 49.2106 49.2466 47.9963 49.4909C45.6553 49.9625 43.2681 49.7817 40.91 50.1482C39.1219 50.4129 37.3087 50.4613 35.5091 50.2924C34.4721 50.2044 33.4157 50.2924 32.3666 50.2924C31.1961 50.2777 30.0377 50.1677 28.8842 50.048C27.7428 49.9083 26.5951 49.8267 25.4455 49.8037C23.612 49.7866 21.8489 49.3517 20.0664 49.0389C19.2796 48.8996 18.4927 48.7604 17.7108 48.5918C16.7078 48.3767 15.7971 47.8881 14.833 47.5582C13.7232 47.1795 12.5915 46.8619 11.4939 46.4489C11.1514 46.3194 10.4715 46.3292 10.7896 45.606Z" fill="#F5F5F5"/>
<path d="M63.2434 42.9958C62.7285 42.9445 62.2064 42.8663 61.6989 42.8419C60.9217 42.8052 60.8246 42.385 60.9436 41.8059C61.1707 40.5894 61.2417 39.3486 61.1549 38.114C61.0942 36.9241 61.3006 35.7439 61.1354 34.5711C61.0956 34.3503 61.0085 34.1409 60.8802 33.9573C60.7519 33.7738 60.5854 33.6205 60.3923 33.5082C60.317 33.4618 60.1495 33.4936 60.1301 33.4374C59.9698 33.1686 59.3626 33.2224 59.5399 32.7801C59.6711 32.4478 60.0791 32.6066 60.3923 32.6115C61.1679 32.6105 61.9397 32.7199 62.6848 32.9365C62.8087 33.1808 62.9277 33.452 63.0588 33.7037C63.1001 33.7794 63.0297 33.948 63.2409 33.9187C64.3338 33.7746 65.3707 34.2583 66.4563 34.2168C66.6092 34.2168 66.8448 34.1386 66.8861 34.3487C66.8881 34.513 66.8282 34.6718 66.7185 34.7934C66.5073 35.0671 66.1114 35.2455 65.9608 35.458C65.3343 36.3474 64.5037 37.0071 63.7461 37.7646C63.5566 37.9576 63.4886 38.0846 63.6562 38.3021C63.8238 38.5196 63.9695 38.7224 64.1419 38.9276C64.9531 39.9818 65.647 41.1223 66.211 42.3288C66.3931 42.7075 66.313 42.8883 65.8443 42.8688C65.1825 42.8263 64.5245 42.7381 63.8748 42.6049C63.5518 42.5487 63.2094 42.4803 63.2434 42.9958ZM65.6719 35.0011C64.9555 34.8325 64.3605 34.7006 63.7655 34.554C63.4619 34.4807 63.1802 34.5051 63.2798 34.8961C63.4352 35.4874 63.3648 36.0786 63.3964 36.6699C63.3964 36.7774 63.3381 36.9412 63.4984 36.9656C63.5555 36.9734 63.6136 36.968 63.6683 36.9498C63.723 36.9316 63.7728 36.901 63.8141 36.8605C64.2925 36.1544 64.953 35.6193 65.6646 35.0011H65.6719ZM63.3842 39.2843C63.3842 39.7046 63.3964 40.0174 63.3842 40.3179C63.3624 40.7162 63.1875 41.1657 63.3138 41.5029C63.4886 41.972 64.1128 41.5298 64.4455 41.8377C64.6082 41.9867 64.7685 41.9012 64.885 41.7888C64.9442 41.7269 64.9783 41.6449 64.9805 41.559C64.9828 41.4732 64.953 41.3895 64.8972 41.3246C64.4139 40.6819 64.1492 39.8903 63.3842 39.2843Z" fill="#AECDE9"/>
<path d="M50.2245 16.7765C50.0424 17.1772 49.9501 17.661 49.6635 17.9639C48.8913 18.7898 48.9107 19.9186 48.4056 20.852C48.3752 20.9159 48.3675 20.9883 48.3837 21.0572C48.4273 21.2484 48.4255 21.4471 48.3782 21.6374C48.3309 21.8276 48.2396 22.0039 48.1117 22.1519C47.3662 22.9557 46.589 23.7352 45.8824 24.5732C45.5594 24.9569 45.3505 24.8469 45.1028 24.5732C44.5151 23.9282 43.9396 23.2758 43.3203 22.5819C45.4792 20.6712 47.2059 18.0079 50.0739 16.6567L50.2245 16.7765Z" fill="#AECDE9"/>
<path d="M5.2109 40.4111C5.13805 40.8557 4.65964 41.1441 4.76163 41.7036C5.89573 41.645 6.98369 41.3127 8.06922 41.017C8.3655 40.9364 8.66663 40.9339 8.95562 40.8533C9.00075 40.8342 9.05002 40.8271 9.09867 40.8328C9.14732 40.8384 9.19368 40.8566 9.23327 40.8857C9.27285 40.9147 9.30431 40.9535 9.32459 40.9983C9.34488 41.0432 9.3533 41.0925 9.34903 41.1416C9.3636 41.3518 9.34903 41.5448 9.08919 41.5741C7.91623 41.7036 6.85741 42.3071 5.68931 42.4171C4.96077 42.483 4.23223 42.6614 3.48668 42.5783C3.32155 42.5612 3.13212 42.5905 3.08598 42.3731C3.03984 42.1556 3.02527 41.9797 3.23169 41.8624C4.2638 41.2736 4.53821 40.091 5.25462 39.2456C6.00987 38.3586 5.90788 38.2902 4.98991 37.5499C4.11323 36.8437 3.53282 35.8688 2.73628 35.0723C2.2943 34.6227 2.44972 34.4053 3.0787 34.3637C5.08705 34.2318 7.09055 34.0607 9.05033 33.5721C9.40164 33.5059 9.75982 33.4846 10.1164 33.5085C9.87359 33.7089 9.83473 34.0681 9.53603 34.2171C7.85688 34.6849 6.13232 34.9684 4.39251 35.0625C3.88252 35.087 3.96024 35.3069 4.14966 35.5854C4.78592 36.5114 5.69417 37.1492 6.59757 37.7698C6.87198 37.9579 6.86227 38.1876 6.9327 38.4124C7.05412 38.7935 6.67042 38.6714 6.54171 38.7935C6.2004 39.1452 5.89754 39.5326 5.63832 39.9493C5.53675 40.1371 5.38869 40.2953 5.20848 40.4086C5.20418 40.3911 5.19678 40.3746 5.18662 40.3597C5.18662 40.3597 5.16233 40.3597 5.15019 40.3597L5.2109 40.4111Z" fill="#AECDE9"/>
<path d="M63.2421 42.9964C63.2081 42.4808 63.5505 42.5492 63.8638 42.6054C64.5135 42.7386 65.1716 42.8268 65.8333 42.8693C66.302 42.8888 66.3821 42.708 66.2 42.3293C65.636 41.1229 64.9421 39.9823 64.1309 38.9282C63.9682 38.7229 63.8176 38.5079 63.6452 38.3026C63.4728 38.0974 63.5457 37.9581 63.7351 37.7651C64.4831 37.0077 65.3233 36.348 65.9499 35.4586C66.1004 35.246 66.4963 35.0676 66.7075 34.794C66.8172 34.6724 66.8771 34.5135 66.8751 34.3493C66.8338 34.1391 66.5983 34.21 66.4453 34.2173C65.3597 34.2589 64.3228 33.7751 63.23 33.9192C63.0187 33.9461 63.0891 33.78 63.0478 33.7042C62.9143 33.4599 62.805 33.1936 62.6738 32.937C63.6914 33.0592 64.7041 33.2375 65.724 33.284C66.3724 33.3157 66.9917 33.6016 67.6814 33.3793C68.1136 33.24 68.1428 33.6456 68.0554 33.9901C67.8538 34.7891 67.2515 35.3291 66.7488 35.9057C66.1773 36.5702 65.551 37.1849 64.8765 37.7431C64.6919 37.8922 64.5681 38.1023 64.8935 38.4957C65.2529 38.9281 65.7702 39.192 66.0543 39.7174C66.3797 40.3087 66.7828 40.8535 67.0912 41.4668C67.2736 41.8205 67.4926 42.1538 67.7445 42.4613C68.1428 42.9646 67.7567 43.0135 67.5017 43.1576C66.3821 43.7831 65.231 43.2993 64.1018 43.2114C63.8322 43.1845 63.4728 43.2822 63.2421 42.9964Z" fill="#F5F5F5"/>
<path d="M37.4321 17.3604C38.0368 17.3799 38.5444 17.7122 39.1005 17.8906C40.3706 18.2986 41.6868 18.3279 43.2289 18.3621C42.0875 19.0805 41.3808 19.9796 40.5867 20.7933C40.3706 21.0156 40.1763 20.9277 39.9432 20.8446C38.6449 20.3778 37.2969 20.0654 35.9265 19.9137C35.6375 19.8819 35.2562 20.158 34.9551 19.5911C35.2829 19.3028 35.6593 18.9779 36.0357 18.6504C36.1499 18.6285 36.2665 18.6089 36.1985 18.4428L36.2325 18.4086C36.5267 18.4171 36.8133 18.3141 37.0356 18.12C37.2578 17.9258 37.3993 17.6546 37.4321 17.3604Z" fill="#AECDE9"/>
<path d="M23.2428 33.2494C23.2015 32.0106 23.2161 30.8867 23.5294 29.7774C23.6192 29.4597 23.7552 29.3351 24.015 29.4671C24.7193 29.8409 24.9864 29.3351 25.2657 28.8684C25.358 28.7121 25.4211 28.5361 25.6081 28.6094C25.851 28.7023 25.6834 28.8782 25.6324 29.0272C24.95 31.0748 24.678 33.1492 25.2876 35.2676C25.37 35.6642 25.3016 36.0775 25.0957 36.4258C24.9136 36.8143 24.4133 36.8167 24.0296 36.8387C23.7188 36.8558 23.7285 36.4917 23.6872 36.2743C23.4759 35.2407 23.0704 34.2316 23.2428 33.2494Z" fill="#EFEDED"/>
<path d="M34.3388 20.7739C36.1893 20.7984 37.9596 20.9572 39.6328 21.6658C40.0578 21.8466 40.4294 21.9639 40.0505 22.5576C40.0079 22.6235 39.9802 22.6981 39.9694 22.776C39.9586 22.8539 39.9651 22.9333 39.9883 23.0084C40.0114 23.0835 40.0508 23.1526 40.1035 23.2106C40.1563 23.2687 40.2211 23.3144 40.2934 23.3444C40.5897 23.469 40.512 23.684 40.4148 23.8624C40.2691 24.1336 40.0845 23.9259 39.9291 23.8452C39.4171 23.547 38.8707 23.3131 38.302 23.1489C37.8746 23.0389 37.3816 22.9852 37.4278 22.3401C37.419 22.2956 37.3996 22.2539 37.3712 22.2186C37.3429 22.1833 37.3065 22.1554 37.2651 22.1373C37.2354 22.1296 37.2044 22.129 37.1745 22.1356C37.1446 22.1422 37.1167 22.1558 37.093 22.1754C37.0693 22.1949 37.0506 22.2198 37.0383 22.248C37.026 22.2762 37.0205 22.3069 37.0222 22.3377C37.0222 22.8459 36.6142 22.7897 36.3665 22.7262C35.5967 22.5283 34.822 22.6187 34.0546 22.6407C33.4912 22.6407 33.4961 22.345 33.6151 22.0225C33.7341 21.7 33.8385 21.5949 33.6539 21.1991C33.4014 20.6469 34.2149 20.9865 34.3388 20.7739Z" fill="#EFEDED"/>
<path d="M43.5078 24.1113C44.1984 24.7468 44.8063 25.4676 45.317 26.2566C45.7323 26.9334 46.4414 27.5272 46.1961 28.4825C46.1581 28.6319 46.1086 28.7782 46.048 28.9199C45.8707 29.345 45.5866 29.7799 46.0091 30.2857C46.2131 30.53 46.2204 30.9381 46.2131 31.3022C46.2131 31.5783 46.0237 31.588 45.8586 31.6345C45.6473 31.6955 45.589 31.5587 45.5283 31.3755C45.2514 30.5398 45.1446 29.6651 44.7147 28.8637C44.127 27.7739 43.5733 26.6646 42.5898 25.8706C42.2814 25.6262 42.2474 25.4136 42.6529 25.3012C43.2795 25.1278 43.0998 24.3948 43.5078 24.1113Z" fill="#EFEDED"/>
<path d="M28.2995 22.8457C29.1737 23.2831 29.113 23.9379 28.8435 24.7027C28.6249 25.3257 28.6152 25.8706 29.215 26.4448C30.5968 27.7666 31.9422 29.1325 33.2123 30.5765C33.8121 31.2607 34.4897 31.8739 35.1284 32.5312C35.3129 32.7193 35.6723 32.9344 35.3299 33.2056C34.9875 33.4768 35.0094 32.993 34.8734 32.8586C33.9473 31.9448 33.0318 31.0204 32.1268 30.0854C31.0534 28.9737 29.98 27.8595 28.9357 26.7209C28.5375 26.2835 28.1562 26.0172 27.5321 26.2322C27.1095 26.369 26.6287 26.3299 26.2158 26.4765C25.5626 26.7209 25.4873 26.1271 25.2202 25.8388C25.0842 25.6873 25.4096 25.5432 25.5237 25.5432C25.7334 25.559 25.944 25.5541 26.1527 25.5285C27.7094 25.2231 27.8672 25.0692 28.1271 23.4688C28.1279 23.2493 28.1874 23.034 28.2995 22.8457Z" fill="#F5F5F5"/>
<path d="M22.2492 31.7471C22.3464 33.1618 22.2492 34.469 22.6669 35.7298C22.7398 35.9497 22.5722 36.1378 22.1618 36.1183C21.375 36.0767 20.814 35.4879 20.049 35.4195C19.5925 35.3804 19.4783 34.3004 19.8839 33.9192C20.627 33.2155 21.392 32.5314 22.2492 31.7471Z" fill="#AECDE9"/>
<path d="M29.6272 24.2142C29.5689 23.618 29.7025 23.0413 29.1682 22.6284C29.0031 22.5014 29.0274 22.3548 29.3261 22.1935C30.3606 21.6364 31.4656 21.3139 32.5681 20.9718C32.6993 20.9241 32.8414 20.9154 32.9774 20.9465C33.1135 20.9777 33.2378 21.0476 33.3355 21.1477C33.5249 21.331 33.4011 21.568 33.1388 21.6999C32.9178 21.8099 32.9688 22.0689 33.0246 22.2106C33.2675 22.8312 32.8814 22.8605 32.4442 22.9949C31.4753 23.2881 30.4966 23.596 29.6272 24.2142Z" fill="#EFEDED"/>
<path d="M41.4043 35.8277C41.5995 35.2669 41.7402 34.6883 41.8244 34.1002C41.9307 33.5484 41.9174 32.98 41.7856 32.4338C41.6253 31.8181 42.0284 31.6324 42.4655 31.5347C42.587 31.5078 42.7327 31.5347 42.8395 31.4418C43.216 31.1071 43.3617 31.3929 43.4102 31.6861C43.5681 32.6635 43.6968 33.6408 43.5268 34.6402C43.5153 34.698 43.4907 34.7524 43.455 34.7992C43.4194 34.846 43.3735 34.8839 43.321 34.9101C43.2684 34.9363 43.2107 34.95 43.152 34.9503C43.0934 34.9505 43.0355 34.9372 42.9828 34.9114C42.4971 34.7281 42.3271 34.9651 42.1328 35.3341C42.0696 35.4768 41.9678 35.5988 41.839 35.6861C41.7101 35.7733 41.5595 35.8224 41.4043 35.8277Z" fill="#EFEDED"/>
<path d="M25.8411 20.2168C26.7494 20.7861 26.866 21.568 26.424 22.4891C26.384 22.5778 26.3689 22.6758 26.3803 22.7726C26.475 23.811 25.6371 23.8574 24.9839 24.0871C24.809 24.1506 24.5856 24.1017 24.4302 24.1848C23.6264 24.6222 23.3349 23.8892 22.9221 23.5056C22.7084 23.3101 22.893 23.078 23.1382 23.1073C23.8255 23.1855 24.3962 22.797 25.0325 22.6968C25.3117 22.6528 25.3579 22.5307 25.4016 22.2863C25.5254 21.5973 25.6881 20.9156 25.8411 20.2168Z" fill="#F5F5F5"/>
<path d="M27.0159 21.4629C27.9873 21.998 27.8926 22.7701 27.7444 23.7645C27.5987 24.6686 27.0766 24.8665 26.4598 25.0693C26.0008 25.2208 25.4884 25.211 25.0391 25.4089C24.8278 25.5018 24.1017 24.8909 24.1114 24.6759C24.1114 24.5415 24.1794 24.5195 24.3397 24.5464C25.0391 24.6661 25.6292 24.2117 26.2825 24.1335C26.5569 24.0993 26.5083 23.8892 26.5448 23.701C26.7123 22.9362 26.8629 22.1861 27.0159 21.4629Z" fill="#EFEDED"/>
<path d="M30.3555 26.3839C31.2085 25.6295 32.2634 25.1443 33.3886 24.9888C33.4275 25.2795 33.3886 25.4457 33.0195 25.4457C32.96 25.4434 32.9007 25.4547 32.8462 25.4788C32.7917 25.5029 32.7433 25.5391 32.7047 25.5848C32.6661 25.6304 32.6384 25.6843 32.6235 25.7423C32.6086 25.8003 32.607 25.861 32.6188 25.9197C32.6868 26.164 33.1045 26.3399 33.2284 26.2373C33.8282 25.7633 34.1317 26.3937 34.5762 26.4988C33.5853 26.792 32.5994 27.0363 31.747 27.6178C31.543 27.7571 31.4531 27.6374 31.339 27.5079C31.0209 27.1316 30.6906 26.7553 30.3555 26.3839Z" fill="#EFEDED"/>
<path d="M41.4004 27.6909C42.1156 28.4379 42.6637 29.3302 43.0081 30.3078C43.0518 30.4348 43.2728 30.6132 42.9935 30.7134C42.8138 30.7793 42.673 30.6474 42.5928 30.4959C42.5402 30.3676 42.498 30.2352 42.4665 30.1001C42.4584 30.0592 42.4414 30.0207 42.4169 29.9871C42.3924 29.9535 42.3608 29.9258 42.3245 29.9058C42.2882 29.8857 42.248 29.874 42.2066 29.8712C42.1653 29.8685 42.1239 29.8749 42.0853 29.8899C41.8424 29.9461 42.0076 30.1147 41.9833 30.2247C41.959 30.3346 42.0221 30.5985 41.9833 30.6181C41.7404 30.7158 41.4976 31.1727 41.2547 30.5863C41.0344 30.0046 40.7045 29.4712 40.2833 29.0152C39.9992 28.7196 40.1668 28.617 40.4169 28.5265C40.835 28.3779 41.1848 28.0808 41.4004 27.6909Z" fill="#EFEDED"/>
<path d="M46.0375 32.1964C46.2949 32.299 46.6204 32.3748 46.6398 32.861C46.6568 33.2348 46.7151 33.6844 47.2615 33.7015C47.5796 33.7015 47.616 34.0216 47.7982 34.1731C47.5553 34.3466 47.6306 34.7717 47.2445 34.8352C47.0448 34.8658 46.8571 34.9501 46.7011 35.0791C46.5451 35.2081 46.4266 35.3771 46.3581 35.5682C46.2804 35.749 46.1152 35.9861 45.9015 35.8834C45.7844 35.8418 45.6861 35.7591 45.6246 35.6505C45.563 35.542 45.5424 35.4148 45.5664 35.2921C45.6295 34.3685 45.9088 33.4449 45.6465 32.5116C45.5713 32.2379 45.7315 32.1744 46.0375 32.1964Z" fill="#EFEDED"/>
<path d="M29.072 31.2195C28.5863 30.9752 28.3434 30.6331 28.4382 30.1249C28.45 30.0196 28.4401 29.913 28.4092 29.8117C28.3783 29.7104 28.327 29.6165 28.2584 29.536C27.7388 28.803 28.4576 28.4585 28.7101 27.9747C28.7231 27.9472 28.7429 27.9236 28.7676 27.9061C28.7923 27.8886 28.8211 27.8778 28.8512 27.8749C28.8813 27.8719 28.9117 27.8768 28.9393 27.8892C28.9669 27.9016 28.9909 27.9209 29.0088 27.9454C29.344 28.2826 29.6791 28.6198 30.007 28.9643C30.1818 29.1451 29.9851 29.2599 29.9074 29.3846C29.5494 29.9563 29.2685 30.5734 29.072 31.2195Z" fill="#EFEDED"/>
<path d="M40.6754 22.1449C40.9398 22.2471 41.1956 22.3705 41.4404 22.5138C41.8047 22.7582 42.1155 23.1002 42.4992 23.3153C43.0335 23.6182 43.0237 23.9554 42.8003 24.4661C42.6328 24.8424 42.3729 24.9987 42.0524 24.9401C41.5181 24.8424 40.9741 24.6371 41.0251 23.9383C41.0598 23.7152 41.0366 23.4869 40.9579 23.2755C40.8792 23.064 40.7476 22.8766 40.5759 22.7313C40.5399 22.7098 40.5089 22.681 40.4847 22.6467C40.4605 22.6124 40.4438 22.5734 40.4356 22.5322C40.4273 22.4909 40.4278 22.4484 40.4369 22.4074C40.446 22.3664 40.4635 22.3277 40.4884 22.2939C40.5564 22.2206 40.571 22.1131 40.6754 22.1449Z" fill="#EFEDED"/>
<path d="M28.7099 33.1421C28.8361 33.967 29.0486 34.7762 29.3438 35.5561C29.4555 35.8151 29.3438 35.9178 29.1665 36.0839C28.8872 36.3527 28.5327 36.6312 28.7342 37.1223C28.7852 37.2421 28.7828 37.3545 28.6322 37.4082C28.5993 37.4221 28.5639 37.4291 28.5282 37.4289C28.4925 37.4288 28.4572 37.4214 28.4244 37.4073C28.3915 37.3932 28.3619 37.3726 28.3371 37.3467C28.3123 37.3208 28.2929 37.2903 28.2801 37.2567C27.9834 36.7404 27.7393 36.1952 27.5516 35.6294C27.5006 35.4389 27.5516 35.3851 27.758 35.2556C28.2194 34.9575 28.6978 34.5226 28.3821 33.8385C28.2194 33.4817 28.7439 33.4597 28.7099 33.1421Z" fill="#EFEDED"/>
<path d="M47.4767 35.2847C47.3868 35.8051 47.3067 36.262 47.2338 36.7311C47.2174 36.9833 47.1093 37.2206 46.9301 37.3977C46.751 37.5748 46.5133 37.6793 46.2624 37.6914C45.7767 37.7525 45.3129 37.9821 44.7422 37.9479C44.8563 37.6425 44.9607 37.386 45.0482 37.1245C45.2109 36.6359 45.2449 36.0543 46.056 36.3573C46.4567 36.5064 46.6947 36.0739 46.8331 35.7782C46.8958 35.652 46.9864 35.5418 47.0979 35.4563C47.2095 35.3707 47.339 35.312 47.4767 35.2847Z" fill="#E3E2E2"/>
<path d="M32.9707 29.2153C33.5933 28.8405 34.3001 28.6304 35.0252 28.6045C35.3118 28.6045 35.4623 28.668 35.4502 28.9979C35.4502 29.3717 35.3749 29.7553 35.574 30.1145C35.6226 30.2025 35.6056 30.4297 35.4915 30.415C35.0058 30.3613 34.4545 30.7644 34.0344 30.2929C33.7114 29.9093 33.2281 29.6869 32.9707 29.2153Z" fill="#EFEDED"/>
<path d="M38.6126 25.5628C38.2241 25.8975 37.8306 25.8071 37.5125 25.9611C37.4032 26.0124 37.2162 25.9831 37.2284 26.2054C37.2405 26.4277 37.3644 26.4351 37.5174 26.4497C37.5408 26.4523 37.5644 26.4523 37.5878 26.4497C38.3552 26.3789 38.6223 26.7723 38.5228 27.515C37.8295 27.1253 37.0784 26.8506 36.2983 26.7014C36.0991 26.6721 36.0239 26.6501 36.1137 26.3935C36.2437 25.9203 36.5212 25.5015 36.9054 25.1987C37.4979 24.8005 37.9861 25.3331 38.6126 25.5628Z" fill="#E3E2E2"/>
<path d="M27.8433 29.6992C27.8603 30.7645 28.5112 31.8763 27.5592 32.8756C27.2411 33.2103 27.4281 33.6086 27.7074 33.892C27.8725 34.0606 27.9721 34.2023 27.8458 34.4174C27.7753 34.5371 27.6806 34.6617 27.5204 34.647C27.2484 34.6079 27.1998 34.3734 27.1852 34.1584C27.0784 32.641 27.0322 31.1164 27.8433 29.6992Z" fill="#E3E2E2"/>
<path d="M31.7192 38.7277C30.7478 38.5102 29.587 39.0918 28.6836 37.9311C29.2446 38.0411 29.3563 37.7479 29.4801 37.4058C29.655 36.9171 29.9318 36.7339 30.318 37.2641C30.7041 37.7943 31.2408 38.2048 31.7192 38.7277Z" fill="#E3E2E2"/>
<path d="M39.1599 35.593C38.9534 34.6547 38.6426 33.9168 37.9141 33.2986C38.5716 33.1595 39.1674 32.8118 39.614 32.3066C39.9977 33.4159 39.8787 34.3444 39.1599 35.593Z" fill="#EFEDED"/>
<path d="M52.6021 36.5067C53.1243 36.5238 53.4473 36.1231 53.8285 35.8763C54.0541 35.7135 54.3256 35.6279 54.6032 35.632C54.5733 35.6957 54.5489 35.7619 54.5304 35.8299C54.2681 37.4059 54.2705 37.4059 52.6459 37.6722C52.5147 37.6942 52.386 37.7357 52.1602 37.7944C52.4321 37.3497 52.4734 36.9147 52.6021 36.5067Z" fill="#AECDE9"/>
<path d="M26.5819 27.1902C26.4581 27.393 26.2978 27.6178 26.1788 27.8622C26.0598 28.1065 25.9627 28.2287 25.647 28.0918C25.239 27.9135 24.9184 28.0308 24.8188 28.5439C24.7436 28.9275 24.5153 29.1572 24.0903 28.9763C23.5924 28.7662 24.032 28.4559 24.0466 28.2091C24.0466 28.0381 24.2651 27.8695 24.3259 27.652C24.5687 26.7382 24.5857 26.7431 25.3507 27.2269C25.7659 27.4883 26.1326 26.9703 26.5819 27.1902Z" fill="#EFEDED"/>
<path d="M46.6962 28.7783C47.2173 30.0198 47.5221 31.3422 47.5972 32.6877C47.5972 32.8636 47.7842 33.1764 47.3325 33.1764C46.8298 33.1764 47.3082 32.8661 47.1746 32.761C47.1746 32.761 47.1746 32.7073 47.1746 32.6926C46.5894 32.0476 46.7861 31.1899 46.5627 30.4471C46.3053 29.6091 46.2348 29.5407 46.6962 28.7783Z" fill="#E3E2E2"/>
<path d="M12.3849 35.3608C12.9823 35.4976 13.3126 35.004 13.7424 34.7597C13.9003 34.6693 14.0095 34.4909 14.2281 34.4983C14.2961 34.9381 14.3617 35.3779 14.437 35.8152C14.5122 36.2526 14.5414 36.6142 13.9051 36.3821C13.485 36.2257 13.0503 36.1109 12.6302 35.9521C12.3703 35.8519 12.3388 35.6149 12.3849 35.3608Z" fill="#F5F5F5"/>
<path d="M31.4497 32.6387C31.3755 32.6374 31.3025 32.619 31.2365 32.5848C31.1704 32.5507 31.113 32.5018 31.0687 32.4419C31.0244 32.3819 30.9943 32.3126 30.9808 32.2391C30.9673 32.1657 30.9707 32.0901 30.9907 32.0181C31.0103 31.8042 31.0705 31.596 31.168 31.4048C31.2918 31.1874 31.253 30.7891 31.5541 30.7842C31.8553 30.7793 31.9815 31.0945 32.0787 31.3682C32.1102 31.4537 32.2025 31.5221 32.2268 31.6125C32.3045 31.8764 32.8752 31.7323 32.7125 32.1769C32.5595 32.5825 32.1151 32.4775 31.8188 32.6363C31.7557 32.6656 31.6707 32.6387 31.4497 32.6387Z" fill="#EFEDED"/>
<path d="M39.3848 38.5251C39.6859 38.2343 39.9725 37.924 40.293 37.6552C40.7253 37.2961 41.7501 37.6552 41.8691 38.1977C41.942 38.5251 41.6627 38.4615 41.5073 38.4787C40.8249 38.5568 40.1425 38.613 39.4625 38.6766L39.3848 38.5251Z" fill="#E3E2E2"/>
<path d="M26.375 38.1216C25.5444 38.1949 24.9689 37.7575 24.3108 37.6769C24.2682 37.6637 24.229 37.641 24.1962 37.6106C24.1635 37.5801 24.1379 37.5427 24.1214 37.501C24.0801 37.3788 24.2064 37.3568 24.2889 37.3299C24.7091 37.2053 25.134 37.1345 25.4546 36.7606C25.6294 36.5554 25.7412 36.812 25.7824 36.9561C25.9084 37.3774 26.1091 37.7723 26.375 38.1216Z" fill="#E3E2E2"/>
<path d="M42.3479 37.8235C41.9618 37.3592 41.5757 37.0098 42.2192 36.4943C42.4618 36.2839 42.6205 35.9923 42.666 35.6733C42.6779 35.6207 42.7014 35.5714 42.7348 35.5292C42.7682 35.4869 42.8106 35.4528 42.8589 35.4293C42.9072 35.4058 42.9601 35.3936 43.0138 35.3936C43.0674 35.3935 43.1204 35.4056 43.1687 35.429C43.482 35.534 43.2756 35.7417 43.2294 35.8859C43.0177 36.5664 42.7215 37.2174 42.3479 37.8235Z" fill="#E3E2E2"/>
<path d="M34.6931 35.8883C33.9014 36.0373 33.2068 35.8223 32.6823 36.4527C32.4613 36.719 32.2525 36.3061 32.0873 36.14C31.8566 35.9078 32.0703 35.7612 32.2403 35.6342C32.811 35.2115 33.4181 35.5022 34.0058 35.5658C34.1977 35.5853 34.3749 35.7319 34.6931 35.8883Z" fill="#EFEDED"/>
<path d="M37.5862 30.1756C37.4929 30.1884 37.3979 30.1745 37.312 30.1357C37.2261 30.0968 37.1528 30.0344 37.1005 29.9557C36.8115 29.5794 36.1971 29.4963 36.1582 28.905C36.1582 28.7926 36.2432 28.7609 36.3501 28.7535C36.6123 28.7291 37.9723 29.4377 38.0986 29.6551C38.1957 29.8213 38.0621 29.919 38.0136 30.0388C37.9237 30.244 37.7367 30.1609 37.5862 30.1756Z" fill="#E3E2E2"/>
<path d="M37.4637 37.1586C37.5414 36.7676 37.1577 36.5526 37.1602 36.1812C37.1602 35.9516 37.1602 35.7194 37.1602 35.4727C37.5682 35.6412 37.9251 35.7976 38.2894 35.9369C38.6075 36.0615 38.6974 36.2374 38.4473 36.5086C38.189 36.8167 37.8473 37.0425 37.4637 37.1586Z" fill="#EFEDED"/>
<path d="M39.2432 25.7974C39.6584 26.1174 40.0834 26.4253 40.4866 26.7576C40.6808 26.9189 41.1447 27.0679 40.8314 27.3733C40.6226 27.5786 40.0519 27.6177 39.86 27.3196C39.5686 26.87 39.0562 26.462 39.2432 25.7998V25.7974Z" fill="#E3E2E2"/>
<path d="M34.264 32.8296C35.3277 33.8754 35.3277 33.8754 36.0538 32.9371C36.2772 33.5015 36.2626 33.6017 35.8959 33.9364C35.6142 34.193 35.3228 34.3469 34.9367 34.1246C34.6949 34.0179 34.4965 33.8314 34.3742 33.596C34.2519 33.3606 34.2131 33.0902 34.264 32.8296Z" fill="#E3E2E2"/>
<path d="M36.5064 24.8814C35.7463 25.5509 35.0493 25.4067 34.3572 25.0989C34.2795 25.0647 34.1702 25.0989 34.1629 24.9743C34.1508 24.8032 34.2746 24.8106 34.3936 24.7886C35.076 24.6713 35.7439 24.813 36.5064 24.8814Z" fill="#E3E2E2"/>
<path d="M35.4702 37.7262C35.2274 37.5527 34.6907 37.8704 34.7417 37.455C34.7854 37.0836 35.2735 36.7562 35.6985 36.7684C35.8976 36.7684 36.3542 36.9419 36.3153 37.3475C36.257 37.951 35.7398 37.5381 35.4702 37.7262Z" fill="#E3E2E2"/>
<path d="M39.4048 31.2947C38.8802 31.3826 38.4674 31.4315 38.0642 31.539C37.9428 31.5659 37.8214 31.754 37.7388 31.5512C37.7212 31.4851 37.7226 31.4154 37.7428 31.3501C37.763 31.2848 37.8012 31.2266 37.853 31.1823C38.0764 30.9379 38.3921 30.7742 38.5402 30.4493C38.6301 30.2489 38.7831 30.3393 38.8656 30.4688C39.0405 30.7058 39.1983 30.9697 39.4048 31.2947Z" fill="#EFEDED"/>
<path d="M52.9418 38.5615C52.6768 38.8917 52.3458 39.1622 51.9704 39.3556C51.4264 39.7001 51.0281 39.2506 50.625 38.9525L52.9418 38.5615Z" fill="#AECDE9"/>
<path d="M58.4872 35.6491C57.8388 35.3901 57.1856 35.7542 56.457 35.6198C56.6731 35.4729 56.9251 35.3884 57.1856 35.3755C58.3415 35.2973 58.3415 35.2924 58.3998 34.2026C58.6597 34.6669 58.4751 35.1653 58.4872 35.6491Z" fill="#E3E2E2"/>
<path d="M31.3965 33.792C31.4815 33.9435 31.8579 33.9288 31.7244 34.0657C31.4645 34.3222 31.7972 34.8255 31.3747 34.894C31.1828 34.9257 31.1124 34.5788 31.093 34.3735C31.0773 34.2569 31.0981 34.1382 31.1525 34.034C31.2069 33.9298 31.2922 33.8452 31.3965 33.792Z" fill="#E3E2E2"/>
<path d="M37.4336 17.3603C37.4003 17.6537 37.2588 17.9239 37.0371 18.1175C36.8155 18.3111 36.5297 18.4141 36.2363 18.4061L37.1567 17.4971L37.3194 17.3896C37.3528 17.3665 37.3933 17.3561 37.4336 17.3603Z" fill="#E3E2E2"/>
<path d="M33.999 37.3177C33.7294 37.4252 33.5885 37.242 33.4185 37.1858C33.2947 37.1467 33.115 37.0978 33.132 36.917C33.132 36.8461 33.2413 36.7533 33.319 36.7289C33.4695 36.68 33.6322 36.6433 33.7245 36.8584C33.8052 37.0178 33.8969 37.1713 33.999 37.3177Z" fill="#E3E2E2"/>
<path d="M53.1836 48.4693C53.3002 48.1175 53.56 48.181 53.8223 48.2445C53.7509 48.3426 53.6516 48.4165 53.5376 48.4567C53.4236 48.4968 53.3002 48.5012 53.1836 48.4693Z" fill="#AECDE9"/>
<path d="M51.625 48.7451C51.8241 48.5618 52.0621 48.6303 52.2929 48.6352C52.202 48.7128 52.0918 48.7641 51.9741 48.7835C51.8564 48.8029 51.7357 48.7896 51.625 48.7451Z" fill="#AECDE9"/>
<path d="M39.2461 25.7998L38.9766 25.8194L39.2413 25.7974L39.2461 25.7998Z" fill="#E3E2E2"/>
<path d="M52.625 48.5964C52.6722 48.5466 52.7317 48.5103 52.7974 48.4914C52.8632 48.4725 52.9328 48.4716 52.999 48.4889C52.9115 48.6575 52.7683 48.6306 52.625 48.5964Z" fill="#AECDE9"/>
<path d="M36.2018 18.4478C36.2698 18.6139 36.1532 18.6334 36.0391 18.6554C36.0925 18.5772 36.1483 18.5088 36.2018 18.4478Z" fill="#E3E2E2"/>
<path d="M54.0957 18.3032C54.1 18.3845 54.0737 18.4644 54.0219 18.527C53.9701 18.5895 53.8967 18.63 53.8164 18.6404C53.8844 18.506 53.9111 18.3325 54.0957 18.3032Z" fill="white"/>
<path d="M37.317 17.3898L37.1543 17.4973C37.181 17.4216 37.2199 17.3605 37.317 17.3898Z" fill="#AECDE9"/>
<path d="M65.6629 35.0018C64.9513 35.62 64.2908 36.1551 63.8075 36.8612C63.7663 36.9017 63.7164 36.9323 63.6617 36.9505C63.607 36.9687 63.5489 36.9741 63.4918 36.9663C63.3315 36.9419 63.3971 36.7782 63.3898 36.6706C63.3582 36.0793 63.4286 35.4881 63.2732 34.8968C63.1712 34.5058 63.4529 34.4814 63.7589 34.5547C64.3539 34.7013 64.9465 34.8332 65.6629 35.0018Z" fill="#F5F5F5"/>
<path d="M63.3824 39.2847C64.1498 39.8906 64.4145 40.6847 64.8905 41.3249C64.9464 41.3899 64.9761 41.4735 64.9739 41.5594C64.9716 41.6453 64.9375 41.7272 64.8784 41.7891C64.7618 41.9015 64.6015 41.987 64.4388 41.838C64.1061 41.5301 63.482 41.9724 63.3071 41.5032C63.1808 41.1661 63.3557 40.7165 63.3776 40.3182C63.3824 40.0128 63.3824 39.7049 63.3824 39.2847Z" fill="#F5F5F5"/>
<path d="M5.2111 40.4112L5.15039 40.355C5.16253 40.355 5.17953 40.355 5.18682 40.355C5.19698 40.3698 5.20438 40.3864 5.20867 40.4038L5.2111 40.4112Z" fill="#F5F5F5"/>
<path d="M23.1816 44.4307C23.1816 44.2108 23.1816 43.8687 23.1816 43.5291C23.1816 43.3703 23.2084 43.2848 23.3905 43.3214C23.6479 43.3629 23.9126 43.3727 24.17 43.4191C24.3099 43.4399 24.442 43.4969 24.5533 43.5847C24.6646 43.6724 24.7512 43.7879 24.8047 43.9196C24.8581 44.0513 24.8765 44.1947 24.8581 44.3358C24.8396 44.4768 24.7849 44.6106 24.6994 44.7239C24.6339 44.8168 24.6217 44.851 24.6994 44.9267C24.8091 45.0243 24.8834 45.1558 24.9107 45.3005C25.037 45.9041 24.7577 46.207 24.1506 46.1191C23.9223 46.0873 23.6916 46.0409 23.4609 46.0262C23.3079 46.0262 23.2594 45.948 23.2521 45.8112C23.2351 45.3909 23.2108 44.9731 23.1816 44.4307ZM23.5168 44.1326C23.5386 44.697 23.4099 44.5846 24.0025 44.6555C24.0307 44.6592 24.0593 44.6592 24.0875 44.6555C24.3085 44.6433 24.4833 44.5749 24.5076 44.3134C24.5337 44.1985 24.5146 44.078 24.4544 43.9769C24.3942 43.8758 24.2976 43.8021 24.1846 43.771C24.0559 43.7368 23.9175 43.7417 23.7863 43.7123C23.5799 43.6684 23.4658 43.7123 23.5095 43.9567C23.5169 44.015 23.5193 44.0739 23.5168 44.1326ZM23.7159 44.9292C23.5581 44.8876 23.5338 44.9756 23.5386 45.1393C23.5629 45.7648 23.5581 45.7648 24.0826 45.8234C24.306 45.8503 24.5246 45.8503 24.5902 45.5791C24.6046 45.5146 24.606 45.4479 24.5941 45.3829C24.5822 45.318 24.5574 45.2561 24.5211 45.201C24.4847 45.146 24.4377 45.0989 24.3828 45.0627C24.3279 45.0265 24.2662 45.0018 24.2016 44.9902C24.0409 44.9611 23.8788 44.9407 23.7159 44.9292Z" fill="#332F31"/>
<path d="M39.341 43.8446C39.4766 43.833 39.6128 43.8578 39.7357 43.9167C39.8586 43.9755 39.9638 44.0661 40.0404 44.1793C40.0914 44.2575 40.2249 44.3504 40.0914 44.4505C39.9578 44.5507 39.8485 44.5605 39.7635 44.3821C39.707 44.283 39.6177 44.207 39.5112 44.1673C39.4047 44.1276 39.2878 44.1266 39.1807 44.1647C39.0926 44.1763 39.0108 44.2168 38.948 44.28C38.8852 44.3432 38.8449 44.4255 38.8334 44.5141C38.8091 44.7218 38.9451 44.8366 39.1224 44.9001C39.2997 44.9636 39.4187 44.9856 39.5692 45.0223C40.0549 45.1469 40.2395 45.3204 40.2589 45.6576C40.2697 45.873 40.2122 46.0863 40.0949 46.2667C39.9775 46.4472 39.8062 46.5855 39.6057 46.6618C39.4936 46.7104 39.3723 46.7337 39.2502 46.7301C39.1282 46.7265 39.0085 46.696 38.8995 46.6408C38.7904 46.5856 38.6947 46.507 38.6191 46.4106C38.5435 46.3142 38.4898 46.2023 38.4618 46.0827C38.423 45.9483 38.4618 45.8921 38.5784 45.8384C38.695 45.7846 38.7557 45.8091 38.8213 45.9337C38.8574 46.0277 38.918 46.1102 38.9968 46.1725C39.0755 46.2349 39.1695 46.2748 39.2688 46.288C39.3681 46.3013 39.4692 46.2874 39.5614 46.2478C39.6535 46.2082 39.7334 46.1445 39.7927 46.0632C39.841 46.0138 39.8755 45.9523 39.8925 45.8851C39.9095 45.8179 39.9084 45.7474 39.8894 45.6808C39.8704 45.6141 39.8341 45.5538 39.7842 45.5059C39.7343 45.458 39.6727 45.4244 39.6057 45.4083C39.4429 45.3521 39.2681 45.3228 39.1005 45.2715C38.6343 45.1249 38.423 44.8439 38.4764 44.453C38.5298 44.062 38.8747 43.8421 39.341 43.8446Z" fill="#332F31"/>
<path d="M45.4123 46.0825C45.2753 46.1013 45.1359 46.0763 45.0139 46.011C44.8918 45.9456 44.7933 45.8433 44.7323 45.7184C44.6911 45.6304 44.6085 45.5156 44.7566 45.4472C44.9048 45.3788 44.9849 45.3079 45.0748 45.5205C45.1646 45.7331 45.3686 45.7648 45.575 45.7355C45.6822 45.7337 45.7869 45.7031 45.8783 45.6468C45.9697 45.5905 46.0444 45.5106 46.0947 45.4154C46.1213 45.3762 46.1375 45.3308 46.1416 45.2834C46.1456 45.2361 46.1375 45.1886 46.118 45.1453C46.0985 45.1021 46.0682 45.0647 46.0301 45.0366C45.992 45.0086 45.9473 44.991 45.9004 44.9854C45.7329 44.9365 45.558 44.9194 45.388 44.8803C44.9485 44.7826 44.7518 44.5798 44.7348 44.2157C44.731 44.0292 44.7844 43.8461 44.8878 43.6913C44.9913 43.5365 45.1397 43.4176 45.3127 43.3508C45.4998 43.2628 45.7134 43.2514 45.9087 43.3188C46.1039 43.3863 46.2655 43.5274 46.3594 43.7124C46.4055 43.8052 46.5075 43.9176 46.3375 44.0056C46.1676 44.0936 46.1287 44.052 46.0413 43.9103C46.0052 43.8457 45.955 43.7903 45.8945 43.7481C45.834 43.7059 45.7648 43.6781 45.692 43.6668C45.6193 43.6555 45.5449 43.661 45.4746 43.6829C45.4042 43.7048 45.3398 43.7424 45.286 43.793C45.2189 43.8425 45.1669 43.91 45.136 43.9877C45.1051 44.0655 45.0965 44.1504 45.1112 44.2328C45.1262 44.3053 45.1632 44.3713 45.2172 44.4217C45.2711 44.472 45.3393 44.5042 45.4123 44.5138C45.6187 44.5651 45.83 44.5944 46.0364 44.6531C46.5221 44.7948 46.6654 45.2493 46.3278 45.6475C46.2136 45.78 46.0732 45.8871 45.9156 45.962C45.7579 46.0368 45.5866 46.0779 45.4123 46.0825Z" fill="#332F31"/>
<path d="M30.0289 45.6692C30.0289 45.9306 30.0289 46.1945 30.0289 46.4559C30.0289 46.7174 29.8953 46.7589 29.7277 46.6099C29.6063 46.5024 29.531 46.5463 29.4193 46.5879C29.2664 46.6552 29.0952 46.6676 28.9343 46.6231C28.7734 46.5787 28.6326 46.48 28.5353 46.3435C28.3835 46.1643 28.2822 45.9473 28.242 45.7152C28.2019 45.4831 28.2243 45.2445 28.307 45.0241C28.4722 44.5355 28.9457 44.3815 29.4266 44.6234C29.5189 44.6698 29.582 44.7749 29.7059 44.6234C29.7763 44.533 29.9949 44.511 29.9973 44.7602C29.9973 45.0632 29.9973 45.3638 29.9973 45.6667L30.0289 45.6692ZM28.5718 45.5543C28.5727 45.6591 28.5958 45.7624 28.6398 45.8573C28.676 45.9847 28.7552 46.0954 28.8638 46.1703C28.9724 46.2453 29.1036 46.2797 29.2347 46.2678C29.3619 46.2369 29.4758 46.1655 29.5593 46.0643C29.6429 45.963 29.6918 45.8373 29.6986 45.7058C29.7148 45.5897 29.7066 45.4715 29.6743 45.3589C29.643 45.2119 29.5598 45.0814 29.4401 44.9916C29.3204 44.9017 29.1724 44.8586 29.0235 44.8702C28.7418 44.902 28.5596 45.1707 28.562 45.5543H28.5718Z" fill="#332F31"/>
<path d="M32.07 46.7324C32.019 46.7572 31.9634 46.7711 31.9068 46.7732C31.8502 46.7753 31.7938 46.7657 31.7411 46.7448C31.6884 46.7239 31.6406 46.6923 31.6007 46.6519C31.5607 46.6115 31.5295 46.5632 31.509 46.5101C31.4046 46.3024 31.2661 46.1143 31.1374 45.9139C31.108 45.8628 31.062 45.8235 31.0072 45.8026C30.9523 45.7817 30.892 45.7804 30.8363 45.7991C30.6979 45.8284 30.7416 45.9506 30.7392 46.0434C30.7392 46.1998 30.7392 46.3562 30.7392 46.5101C30.7392 46.664 30.7392 46.7227 30.5716 46.7105C30.404 46.6982 30.4138 46.642 30.4113 46.5248C30.3968 45.6549 30.3781 44.7867 30.3555 43.9201C30.3555 43.8175 30.3555 43.7515 30.4866 43.754C30.6177 43.7564 30.6833 43.7882 30.6857 43.9348C30.6857 44.3453 30.7125 44.7533 30.7343 45.1565C30.7343 45.2347 30.6882 45.3471 30.8096 45.3788C30.8632 45.4028 30.9231 45.4084 30.9802 45.3947C31.0372 45.381 31.0882 45.3488 31.1253 45.3031C31.2346 45.154 31.3681 45.0196 31.4604 44.8633C31.5163 44.7646 31.6073 44.6911 31.7151 44.6575C31.8229 44.6239 31.9393 44.6328 32.0408 44.6825C31.8563 44.9268 31.6911 45.1711 31.5017 45.3715C31.47 45.4001 31.4447 45.4352 31.4273 45.4743C31.4099 45.5135 31.401 45.5559 31.401 45.5987C31.401 45.6416 31.4099 45.684 31.4273 45.7231C31.4447 45.7623 31.47 45.7973 31.5017 45.826C31.6911 46.1143 31.8684 46.4148 32.07 46.7324Z" fill="#332F31"/>
<path d="M42.2834 45.325C42.2616 45.6451 42.2373 45.9651 42.2154 46.2877C42.2154 46.3659 42.2154 46.4489 42.0965 46.4489C41.9775 46.4489 41.9265 46.5125 41.89 46.3707C41.8536 46.229 41.7807 46.3292 41.7297 46.3707C41.0012 46.8765 40.5519 46.3536 40.4766 45.7917C40.4369 45.5405 40.4645 45.2832 40.5568 45.0464C40.5961 44.9303 40.6601 44.8243 40.7444 44.7356C40.8287 44.647 40.9312 44.578 41.0447 44.5333C41.1582 44.4886 41.2801 44.4694 41.4018 44.477C41.5234 44.4846 41.642 44.5189 41.7492 44.5773C41.8415 44.6189 41.924 44.7166 41.9653 44.5187C41.9872 44.4136 42.1159 44.4551 42.196 44.4625C42.2762 44.4698 42.2689 44.5627 42.2689 44.6262C42.2689 44.8705 42.2689 45.0953 42.2689 45.3274L42.2834 45.325ZM40.7948 45.5302C40.7948 45.8992 41.0061 46.1704 41.2805 46.1728C41.4655 46.1555 41.637 46.0677 41.7598 45.9273C41.8826 45.787 41.9474 45.6047 41.941 45.4178C41.9456 45.3396 41.9346 45.2613 41.9085 45.1874C41.8825 45.1136 41.8421 45.0457 41.7895 44.9879C41.737 44.93 41.6735 44.8833 41.6028 44.8506C41.532 44.8178 41.4555 44.7997 41.3776 44.7972C41.2049 44.8169 41.047 44.9045 40.9382 45.0409C40.8295 45.1773 40.7788 45.3515 40.7972 45.5253L40.7948 45.5302Z" fill="#332F31"/>
<path d="M44.4167 44.8877C44.3875 45.2664 44.3657 45.6476 44.3244 46.0239C44.3025 46.2291 44.152 46.2926 43.999 46.1558C43.8872 46.0532 43.846 46.1412 43.7828 46.1803C43.149 46.5541 42.6511 46.3 42.5807 45.5572C42.5514 45.3733 42.5673 45.1849 42.627 45.0086C42.6866 44.8323 42.7883 44.6733 42.9231 44.5456C43.0153 44.4582 43.1267 44.3938 43.2482 44.3577C43.3697 44.3216 43.4979 44.3148 43.6225 44.3379C43.8071 44.3648 43.9747 44.509 44.1714 44.3135C44.2491 44.2329 44.4142 44.2744 44.4142 44.4772C44.4142 44.6116 44.4142 44.7484 44.4142 44.8853L44.4167 44.8877ZM42.9013 45.3764C42.9013 45.7331 43.0931 45.9872 43.387 45.9897C43.5721 45.9778 43.7458 45.8954 43.8726 45.7592C43.9994 45.623 44.0698 45.4433 44.0694 45.2567C44.0743 45.1812 44.0641 45.1056 44.0393 45.0343C44.0145 44.963 43.9757 44.8974 43.9251 44.8415C43.8745 44.7856 43.8133 44.7406 43.745 44.709C43.6768 44.6775 43.6029 44.6602 43.5278 44.658C43.3518 44.6718 43.1879 44.754 43.071 44.8871C42.954 45.0203 42.8932 45.194 42.9013 45.3715V45.3764Z" fill="#332F31"/>
<path d="M32.1745 45.6352C32.1745 45.0512 32.5072 44.6432 33.0051 44.6261C33.1309 44.6242 33.2559 44.6472 33.3729 44.694C33.4899 44.7407 33.5966 44.8102 33.6868 44.8985C33.777 44.9868 33.8491 45.0921 33.8988 45.2085C33.9485 45.3248 33.9749 45.4499 33.9765 45.5766C33.9943 45.7719 33.9679 45.9688 33.8994 46.1524C33.8308 46.3361 33.7219 46.5017 33.5806 46.637C33.5114 46.7095 33.4277 46.7665 33.3351 46.8043C33.2425 46.8421 33.143 46.8599 33.0431 46.8564C32.9432 46.853 32.8451 46.8284 32.7553 46.7843C32.6655 46.7401 32.5859 46.6775 32.5218 46.6003C32.2875 46.3352 32.1632 45.9898 32.1745 45.6352ZM33.6316 45.6572C33.6446 45.4905 33.5925 45.3254 33.4864 45.1967C33.3803 45.0681 33.2285 44.9861 33.0634 44.9682C32.7501 44.9682 32.5145 45.2369 32.5048 45.623C32.4978 45.8088 32.546 45.9926 32.6432 46.1508C32.6852 46.2271 32.7468 46.2908 32.8215 46.3351C32.8963 46.3795 32.9815 46.4028 33.0682 46.4028C33.155 46.4028 33.2402 46.3795 33.3149 46.3351C33.3896 46.2908 33.4512 46.2271 33.4932 46.1508C33.5944 46.0066 33.6471 45.8336 33.6438 45.6572H33.6316Z" fill="#332F31"/>
<path d="M27.3417 45.5695C27.1693 45.5572 26.9944 45.5524 26.8196 45.5304C26.6447 45.5084 26.6253 45.5963 26.6714 45.738C26.6994 45.8338 26.7505 45.921 26.8202 45.992C26.8899 46.063 26.976 46.1155 27.0708 46.1448C27.1656 46.1741 27.2661 46.1792 27.3634 46.1599C27.4607 46.1405 27.5517 46.0971 27.6282 46.0337C27.7205 45.9628 27.7642 45.9628 27.8395 46.0337C27.8582 46.0481 27.8733 46.0666 27.8836 46.0877C27.894 46.1089 27.8994 46.1322 27.8994 46.1559C27.8994 46.1795 27.894 46.2028 27.8836 46.224C27.8733 46.2452 27.8582 46.2637 27.8395 46.278C27.6981 46.4135 27.5134 46.4938 27.3184 46.5045C27.1235 46.5153 26.9311 46.4558 26.7758 46.3367C26.5623 46.1674 26.4102 45.9321 26.343 45.667C26.2758 45.402 26.2974 45.1221 26.4043 44.8707C26.4578 44.7326 26.5517 44.6141 26.6735 44.5307C26.7953 44.4474 26.9394 44.4032 27.0867 44.404C27.2629 44.3972 27.437 44.4433 27.5871 44.5364C27.7371 44.6295 27.8563 44.7654 27.9294 44.9268C28.0265 45.1199 28.1309 45.3569 28.0289 45.5401C27.9269 45.7234 27.7108 45.5401 27.5432 45.5695C27.4753 45.5743 27.4072 45.5743 27.3393 45.5695H27.3417ZM27.7181 45.2665C27.6088 44.8951 27.4315 44.7412 27.1547 44.7338C27.0537 44.7308 26.9542 44.7595 26.8702 44.816C26.7862 44.8725 26.7218 44.954 26.686 45.049C26.6423 45.1492 26.6398 45.2103 26.7758 45.2152C27.0818 45.2176 27.3878 45.2396 27.7181 45.2567V45.2665Z" fill="#332F31"/>
<path d="M35.8549 45.7622C35.8549 46.0456 35.8549 46.329 35.8549 46.61C35.8549 46.6809 35.8864 46.7811 35.7723 46.7982C35.697 46.7982 35.5853 46.8397 35.5562 46.7639C35.493 46.5831 35.4323 46.6662 35.3376 46.7322C35.2696 46.7841 35.1912 46.8207 35.1078 46.8393C35.0244 46.858 34.938 46.8582 34.8545 46.8401C34.771 46.822 34.6924 46.786 34.624 46.7344C34.5557 46.6829 34.4992 46.6171 34.4585 46.5416C34.331 46.3324 34.2661 46.0906 34.2715 45.8452C34.2715 45.5349 34.2715 45.2222 34.2545 44.9094C34.2545 44.7897 34.2351 44.6798 34.4196 44.6651C34.6042 44.6504 34.5775 44.7946 34.5799 44.9094C34.5799 45.1538 34.5799 45.3981 34.5969 45.6424C34.5992 45.7489 34.6089 45.855 34.6261 45.9601C34.6722 46.2044 34.7596 46.4023 35.0389 46.4145C35.3182 46.4268 35.4396 46.2093 35.5027 45.9747C35.5622 45.6295 35.5745 45.2776 35.5392 44.929C35.5392 44.8044 35.5003 44.6846 35.7116 44.6846C35.9229 44.6846 35.8622 44.8215 35.8646 44.929C35.8646 45.2124 35.8646 45.4958 35.8646 45.7768L35.8549 45.7622Z" fill="#332F31"/>
<path d="M36.5248 45.6574C36.5248 45.5304 36.5248 45.4131 36.5248 45.2763C36.5248 45.0955 36.5102 44.9635 36.2819 45.0002C36.1484 45.0222 36.1216 44.9366 36.1192 44.8218C36.1168 44.707 36.1726 44.6581 36.2795 44.6752C36.4981 44.7119 36.5223 44.5872 36.4981 44.4187C36.4981 44.3111 36.4374 44.1743 36.6365 44.1743C36.8356 44.1743 36.8478 44.2769 36.8308 44.4187C36.8016 44.663 36.9279 44.6996 37.1222 44.663C37.2412 44.6459 37.3238 44.663 37.3286 44.8194C37.3335 44.9757 37.2558 45.0051 37.1319 44.988C36.8891 44.9537 36.8381 45.0735 36.8551 45.2909C36.8721 45.5084 36.8551 45.7796 36.8551 46.0239C36.8551 46.2243 36.9352 46.3782 37.1635 46.3562C37.2776 46.344 37.3432 46.3318 37.3505 46.4784C37.3578 46.625 37.365 46.7227 37.1975 46.7741C37.1275 46.7952 37.0538 46.8009 36.9813 46.7909C36.9089 46.7808 36.8395 46.7553 36.7778 46.7159C36.7161 46.6765 36.6635 46.6242 36.6236 46.5626C36.5837 46.5009 36.5575 46.4314 36.5466 46.3587C36.515 46.1264 36.5076 45.8913 36.5248 45.6574Z" fill="#332F31"/>
<path d="M26.1854 44.5702C26.1854 44.6508 26.2145 44.7339 26.0639 44.7364C25.6827 44.7364 25.5515 44.8903 25.5491 45.2739C25.5491 45.5451 25.571 45.8188 25.5807 46.0924C25.5807 46.1731 25.6244 46.2855 25.4738 46.2732C25.3694 46.2732 25.2577 46.2732 25.2553 46.112C25.2407 45.5647 25.2115 45.0173 25.2043 44.4725C25.2001 44.4384 25.2074 44.404 25.2249 44.3746C25.2424 44.3452 25.2692 44.3225 25.301 44.3101C25.3328 44.2978 25.3678 44.2965 25.4004 44.3064C25.4331 44.3163 25.4615 44.337 25.4811 44.365C25.5855 44.5556 25.673 44.4383 25.7774 44.3992C26.0664 44.2892 26.1854 44.3479 26.1854 44.5702Z" fill="#332F31"/>
<path d="M23.5171 44.1321C23.5219 44.0744 23.5219 44.0163 23.5171 43.9586C23.4734 43.7143 23.5875 43.6727 23.7939 43.7143C23.9251 43.7436 24.0635 43.7387 24.1922 43.7729C24.3052 43.804 24.4018 43.8778 24.462 43.9788C24.5222 44.0799 24.5412 44.2005 24.5152 44.3153C24.4909 44.5768 24.316 44.6452 24.0951 44.6574C24.0668 44.6611 24.0383 44.6611 24.0101 44.6574C23.4102 44.5914 23.5389 44.6965 23.5171 44.1321Z" fill="#F6F6F6"/>
<path d="M23.715 44.9287C23.8777 44.937 24.0398 44.9542 24.2007 44.98C24.2653 44.9916 24.327 45.0163 24.3819 45.0525C24.4368 45.0887 24.4838 45.1358 24.5201 45.1908C24.5565 45.2459 24.5813 45.3078 24.5932 45.3727C24.6051 45.4377 24.6037 45.5044 24.5892 45.5689C24.5237 45.8499 24.3051 45.8499 24.0817 45.8132C23.5571 45.7546 23.562 45.7546 23.5377 45.1291C23.5328 44.9752 23.5547 44.8872 23.715 44.9287Z" fill="#F6F6F6"/>
<path d="M28.5605 45.5547C28.5605 45.1711 28.7403 44.9023 29.0122 44.8583C29.1611 44.8467 29.3092 44.8898 29.4289 44.9797C29.5485 45.0695 29.6318 45.2001 29.6631 45.347C29.6953 45.4596 29.7036 45.5778 29.6874 45.6939C29.6805 45.8254 29.6317 45.9511 29.5481 46.0524C29.4645 46.1536 29.3507 46.225 29.2235 46.2559C29.0924 46.2678 28.9612 46.2334 28.8526 46.1584C28.744 46.0835 28.6647 45.9728 28.6285 45.8454C28.5863 45.7542 28.5631 45.6553 28.5605 45.5547Z" fill="#F6F6F6"/>
<path d="M40.7971 45.5255C40.7873 45.4381 40.795 45.3496 40.8196 45.2652C40.8443 45.1808 40.8854 45.1022 40.9405 45.0339C40.9957 44.9657 41.0638 44.9092 41.1409 44.8677C41.218 44.8263 41.3026 44.8007 41.3896 44.7925C41.4675 44.795 41.544 44.8131 41.6148 44.8458C41.6855 44.8786 41.749 44.9253 41.8015 44.9831C41.8541 45.041 41.8945 45.1088 41.9205 45.1827C41.9466 45.2565 41.9576 45.3349 41.953 45.4131C41.9594 45.6 41.8946 45.7822 41.7718 45.9226C41.649 46.0629 41.4775 46.1507 41.2925 46.1681C41.0059 46.1656 40.7971 45.8944 40.7971 45.5255Z" fill="#F6F6F6"/>
<path d="M42.9013 45.3712C42.8924 45.1948 42.9516 45.0218 43.0666 44.8884C43.1815 44.755 43.3433 44.6714 43.5181 44.6553C43.5932 44.6574 43.667 44.6748 43.7353 44.7063C43.8036 44.7378 43.8648 44.7829 43.9154 44.8387C43.9659 44.8946 44.0047 44.9602 44.0295 45.0315C44.0543 45.1029 44.0646 45.1785 44.0596 45.2539C44.06 45.4405 43.9896 45.6203 43.8628 45.7565C43.736 45.8927 43.5624 45.9751 43.3772 45.9869C43.0931 45.982 42.8964 45.7279 42.9013 45.3712Z" fill="#F6F6F6"/>
<path d="M33.6431 45.6569C33.649 45.8304 33.6006 46.0013 33.5047 46.1456C33.4627 46.222 33.4011 46.2857 33.3264 46.33C33.2516 46.3743 33.1665 46.3977 33.0797 46.3977C32.9929 46.3977 32.9078 46.3743 32.833 46.33C32.7583 46.2857 32.6967 46.222 32.6547 46.1456C32.5575 45.9875 32.5093 45.8037 32.5163 45.6179C32.5163 45.2318 32.7591 44.9557 33.0748 44.963C33.2409 44.981 33.3935 45.0636 33.4997 45.1933C33.6059 45.3231 33.6574 45.4895 33.6431 45.6569Z" fill="#F6F6F6"/>
<path d="M27.7189 45.2565C27.3886 45.2394 27.0826 45.2174 26.7767 45.2052C26.6407 45.2052 26.6431 45.1392 26.6868 45.0391C26.7226 44.944 26.787 44.8625 26.871 44.806C26.9551 44.7495 27.0545 44.7208 27.1555 44.7239C27.4421 44.7312 27.6096 44.8851 27.7189 45.2565Z" fill="#F6F6F6"/>
</g>
<defs>
<clipPath id="clip0">
<rect width="69.8182" height="64" fill="white"/>
</clipPath>
</defs>
</svg>
