<svg width="111" height="30" viewBox="0 0 111 30" fill="none" xmlns="http://www.w3.org/2000/svg">
<path d="M46.7799 21.6234C47.7385 20.9692 48.4233 19.9768 48.4233 18.4655C48.4233 15.6008 46.2092 13.9542 43.0821 13.9542H36.6682V29.7437H43.4702C46.5744 29.7437 48.857 28.0745 48.857 25.2098C48.857 23.4504 47.9668 22.2775 46.7799 21.6234ZM39.9779 16.7963H43.0821C44.1093 16.7963 45.1592 17.2249 45.1592 18.6685C45.1592 20.0895 44.1321 20.5407 43.0821 20.5407H39.9779V16.7963ZM43.3789 26.9016H39.9779V23.0895H43.3789C44.406 23.0895 45.5473 23.5858 45.5473 24.9843C45.5473 26.4279 44.406 26.9016 43.3789 26.9016Z" fill="black"/>
<path d="M60.0369 29.9692C63.8031 29.9692 66.9302 27.4429 66.9302 23.3602V13.9542H63.5749V22.7061C63.5749 24.9166 62.3651 26.8113 60.0369 26.8113C57.6859 26.8113 56.4761 24.9166 56.4761 22.7061V13.9542H53.1208V23.3602C53.1208 27.4429 56.2479 29.9692 60.0369 29.9692Z" fill="black"/>
<path d="M72.0595 29.7437H75.4148V13.9542H72.0595V29.7437Z" fill="black"/>
<path d="M80.7609 29.7437H91.9682V26.676H84.1162V13.9542H80.7609V29.7437Z" fill="black"/>
<path d="M96.2832 29.7437H102.469C106.737 29.7437 110.526 26.9241 110.526 21.8264C110.526 16.7286 106.737 13.9316 102.469 13.9316L96.2832 13.9542V29.7437ZM99.6385 26.4956V17.2023L102.332 17.1798C104.98 17.1798 107.171 18.6008 107.171 21.8264C107.171 25.0519 104.98 26.4956 102.332 26.4956H99.6385Z" fill="black"/>
<path d="M39.8266 8.33946C41.4724 8.33946 42.7914 7.43976 42.7914 5.97488C42.7914 4.36005 41.2506 4.07168 40.0717 3.76025C39.0446 3.48342 37.9824 3.31041 37.9824 2.32997C37.9824 1.62637 38.6361 0.968899 39.6982 0.968899C40.632 0.968899 41.2273 1.45335 41.5074 2.3069L42.5112 2.03008C42.1144 0.703606 41.1222 0 39.6866 0C38.0875 0 36.8502 0.991968 36.8502 2.31844C36.8502 3.92174 38.2742 4.29084 39.4881 4.61381C40.527 4.8791 41.6592 5.00598 41.6592 5.99795C41.6592 6.82843 40.8888 7.34749 39.8383 7.34749C38.8578 7.34749 38.0058 6.86304 37.7257 5.92874L36.6635 6.21711C37.0603 7.58971 38.3209 8.33946 39.8266 8.33946Z" fill="black"/>
<path d="M46.3153 8.29332C47.4008 8.29332 48.0545 7.90114 48.5447 7.37056V8.21258H49.5952V2.50299H48.5447V3.35654C48.0545 2.80289 47.4008 2.42225 46.3153 2.42225C44.7396 2.42225 43.5374 3.70258 43.5374 5.36355C43.5374 7.00145 44.7396 8.29332 46.3153 8.29332ZM46.5605 7.38209C45.4399 7.38209 44.5762 6.49393 44.5762 5.36355C44.5762 4.22163 45.4399 3.33348 46.5605 3.33348C47.681 3.33348 48.5447 4.22163 48.5447 5.36355C48.5447 6.49393 47.681 7.38209 46.5605 7.38209Z" fill="black"/>
<path d="M53.4508 8.29332C54.5364 8.29332 55.19 7.90114 55.6802 7.37056V8.21258H56.7307V2.50299H55.6802V3.35654C55.19 2.80289 54.5364 2.42225 53.4508 2.42225C51.8751 2.42225 50.6729 3.70258 50.6729 5.36355C50.6729 7.00145 51.8751 8.29332 53.4508 8.29332ZM53.696 7.38209C52.5754 7.38209 51.7117 6.49393 51.7117 5.36355C51.7117 4.22163 52.5754 3.33348 53.696 3.33348C54.8165 3.33348 55.6802 4.22163 55.6802 5.36355C55.6802 6.49393 54.8165 7.38209 53.696 7.38209Z" fill="black"/>
<path d="M60.9482 8.33946C62.594 8.33946 63.9129 7.43976 63.9129 5.97488C63.9129 4.36005 62.3722 4.07168 61.1933 3.76025C60.1662 3.48342 59.104 3.31041 59.104 2.32997C59.104 1.62637 59.7576 0.968899 60.8198 0.968899C61.7536 0.968899 62.3488 1.45335 62.629 2.3069L63.6328 2.03008C63.2359 0.703606 62.2438 0 60.8081 0C59.209 0 57.9718 0.991968 57.9718 2.31844C57.9718 3.92174 59.3958 4.29084 60.6097 4.61381C61.6485 4.8791 62.7807 5.00598 62.7807 5.99795C62.7807 6.82843 62.0103 7.34749 60.9599 7.34749C59.9794 7.34749 59.1273 6.86304 58.8472 5.92874L57.785 6.21711C58.1819 7.58971 59.4425 8.33946 60.9482 8.33946Z" fill="black"/>
<path d="M69.7024 4.08322C70.2977 3.77179 70.7295 3.22967 70.7295 2.32997C70.7295 0.865089 69.5973 0.138414 68.185 0.138414H65.0685V8.21258H68.3484C69.7257 8.21258 70.9396 7.47437 70.9396 5.97488C70.9396 4.98291 70.391 4.38312 69.7024 4.08322ZM66.1541 1.07271H68.185C68.9437 1.07271 69.6674 1.40721 69.6674 2.39918C69.6674 3.37961 68.967 3.71411 68.185 3.71411H66.1541V1.07271ZM68.3251 7.27828H66.1541V4.56767H68.3251C69.0371 4.56767 69.8541 4.93677 69.8541 5.91721C69.8541 6.90918 69.0371 7.27828 68.3251 7.27828Z" fill="black"/>
<path d="M75.8482 8.32792C78.171 8.32792 79.9685 6.47086 79.9685 4.1755C79.9685 1.88013 78.171 0.0230687 75.8482 0.0230687C73.5138 0.0230687 71.7163 1.88013 71.7163 4.1755C71.7163 6.47086 73.5138 8.32792 75.8482 8.32792ZM75.8482 7.26675C74.1207 7.26675 72.8135 5.89414 72.8135 4.1755C72.8135 2.45685 74.1207 1.08424 75.8482 1.08424C77.564 1.08424 78.8713 2.45685 78.8713 4.1755C78.8713 5.89414 77.564 7.26675 75.8482 7.26675Z" fill="black"/>
<path d="M84.9899 8.32792C87.3126 8.32792 89.1101 6.47086 89.1101 4.1755C89.1101 1.88013 87.3126 0.0230687 84.9899 0.0230687C82.6554 0.0230687 80.8579 1.88013 80.8579 4.1755C80.8579 6.47086 82.6554 8.32792 84.9899 8.32792ZM84.9899 7.26675C83.2624 7.26675 81.9551 5.89414 81.9551 4.1755C81.9551 2.45685 83.2624 1.08424 84.9899 1.08424C86.7057 1.08424 88.013 2.45685 88.013 4.1755C88.013 5.89414 86.7057 7.26675 84.9899 7.26675Z" fill="black"/>
<path d="M90.3848 8.21258H91.4819V2.00701L94.2716 6.89764H95.1353L97.925 1.99547V8.21258H99.0338V0.138414H97.7616L94.7151 5.61731L91.6454 0.138414H90.3848V8.21258Z" fill="black"/>
<path d="M101.039 1.39568C101.389 1.39568 101.67 1.11885 101.67 0.772812C101.67 0.46138 101.389 0.184552 101.039 0.184552C100.701 0.184552 100.421 0.46138 100.421 0.772812C100.421 1.11885 100.701 1.39568 101.039 1.39568ZM100.537 8.21258H101.564V2.50299H100.537V8.21258Z" fill="black"/>
<path d="M20.2435 29.6448C20.8171 29.8796 21.4319 30.0003 22.0528 30H25.0254C26.4369 30 27.7906 29.4458 28.7887 28.4593C29.7868 27.4729 30.3476 26.1349 30.3476 24.7398V5.27043C30.3473 4.57936 30.2092 3.89511 29.9414 3.25676C29.6735 2.6184 29.2811 2.03844 28.7865 1.54999C28.2918 1.06154 27.7047 0.67416 27.0586 0.409971C26.4125 0.145783 25.7201 0.00995826 25.0209 0.010253H5.32214C3.91062 0.010253 2.55691 0.564449 1.55882 1.55092C0.560724 2.5374 0 3.87534 0 5.27043V24.7398C0.000602193 26.134 0.561087 27.471 1.55835 28.4571C2.55561 29.4432 3.90809 29.9977 5.31873 29.9989H8.28571C8.90694 29.9974 9.52178 29.8748 10.095 29.6381C10.1831 29.6054 10.2693 29.5679 10.3532 29.5257C10.6762 29.3689 10.979 29.1741 11.255 28.9457C12.4047 28.0454 14.0127 26.1234 14.2242 22.3525C14.3777 20.6475 12.9278 19.1357 11.0264 19.1357H8.99077C6.89035 19.1357 5.16065 17.6757 4.90819 15.793C4.90274 15.7686 4.89894 15.7438 4.89682 15.7188C4.88318 15.6469 4.88318 15.5694 4.88318 15.4941C4.87408 15.4424 4.87408 15.3895 4.87408 15.3378V15.3232C4.87408 15.2569 4.89341 15.1996 4.90251 15.1366C4.91161 15.0737 4.90251 15.0119 4.91161 14.9467C4.9207 14.8815 4.93208 14.8141 4.94345 14.7534C4.95482 14.6927 4.96051 14.6286 4.97529 14.5668C4.99007 14.505 5.01054 14.4398 5.0276 14.3802C5.04466 14.3206 5.05262 14.2633 5.07536 14.2015C5.09623 14.1448 5.11997 14.0862 5.14131 14.0335L5.14701 14.0194C5.16975 13.9632 5.18909 13.9104 5.21524 13.8508C5.2414 13.7912 5.27551 13.7294 5.30281 13.6788C5.3301 13.6283 5.35398 13.5653 5.38696 13.5159C5.41994 13.4664 5.45974 13.4057 5.49386 13.354C5.52797 13.3023 5.55527 13.2529 5.59279 13.2C5.63032 13.1472 5.67695 13.0966 5.71561 13.0483C5.75428 13 5.78498 12.9561 5.82933 12.9067C5.87368 12.8572 5.92713 12.8078 5.96921 12.7639C6.01129 12.7201 6.05109 12.683 6.09544 12.6358C6.13979 12.5886 6.20802 12.5391 6.25351 12.502C6.299 12.465 6.33312 12.4256 6.3877 12.3897C6.44229 12.3537 6.50825 12.311 6.55601 12.2773C6.60377 12.2435 6.64585 12.2098 6.70385 12.1738C6.76185 12.1379 6.83121 12.1008 6.88466 12.0716C6.93811 12.0423 6.97678 12.0142 7.04387 11.9816C7.11096 11.9491 7.18035 11.9198 7.24971 11.8906C7.30088 11.8681 7.35092 11.8423 7.40437 11.8209C7.47374 11.7917 7.55334 11.7692 7.63181 11.7422C7.68071 11.7265 7.72733 11.7085 7.77737 11.6928C7.85584 11.6714 7.93545 11.6546 8.01505 11.6355C8.06964 11.6254 8.11967 11.6096 8.17312 11.5984C8.26524 11.5815 8.35962 11.5703 8.45515 11.5579C8.49836 11.5534 8.5393 11.5411 8.58365 11.5411C8.65757 11.5309 8.74741 11.5343 8.8111 11.5309C8.87478 11.5276 8.93733 11.5208 9.00328 11.5208C9.12951 11.5208 9.25347 11.5298 9.37743 11.5388L9.47295 11.5478C9.59236 11.5602 9.70039 11.5759 9.81411 11.5961H9.84141C10.4372 11.7044 11.0013 11.9421 11.4929 12.292C11.9846 12.6418 12.3915 13.0952 12.6844 13.6193C12.1582 12.5287 11.3302 11.6079 10.2963 10.9633C10.4179 10.6249 10.5798 10.3019 10.7785 10.0012C10.7921 9.97761 10.808 9.95401 10.824 9.93153C10.8808 9.84498 10.9422 9.76181 11.0048 9.68089L11.0685 9.60221C11.1333 9.5224 11.1981 9.4426 11.2686 9.36842C11.2798 9.35775 11.2904 9.34649 11.3004 9.3347C11.4396 9.18988 11.5865 9.05255 11.7405 8.92333C11.7769 8.89411 11.8088 8.86263 11.8452 8.83454C11.91 8.78396 11.9941 8.72776 12.043 8.68954C12.0919 8.65133 12.1443 8.61873 12.2057 8.57715C12.2671 8.53556 12.3285 8.4951 12.3956 8.45576L12.598 8.34336C12.6571 8.31077 12.7163 8.27929 12.7777 8.24782L12.7901 8.2419C12.8892 8.19451 12.9858 8.14833 13.095 8.10733C13.1439 8.0871 13.1916 8.06686 13.2428 8.04776C13.3599 8.00505 13.4771 7.96346 13.5999 7.92749L13.758 7.88591C13.8558 7.86005 13.9558 7.83533 14.0582 7.8151C14.1116 7.80386 14.1685 7.79262 14.2253 7.78362C14.33 7.76564 14.4323 7.75103 14.546 7.73867C14.5961 7.73305 14.6461 7.72068 14.6962 7.72068C14.8565 7.70832 15.01 7.6982 15.1783 7.6982C15.3466 7.6982 15.5138 7.70719 15.6787 7.72181C15.7276 7.7263 15.7867 7.73529 15.8413 7.74204C15.9505 7.75553 16.0585 7.76901 16.1666 7.78812C16.2291 7.79824 16.2905 7.81397 16.3519 7.82858C16.4486 7.84769 16.543 7.87017 16.6385 7.89602C16.7011 7.91288 16.7647 7.93311 16.8273 7.95334C16.9171 7.98032 17.0047 8.01179 17.0923 8.04326L17.1067 8.04869C17.1641 8.07035 17.22 8.09142 17.2788 8.11632C17.3629 8.15154 17.4459 8.189 17.5278 8.22872C17.5903 8.25569 17.6461 8.28604 17.7041 8.31526C17.7848 8.35797 17.8644 8.40293 17.9429 8.44901C17.9975 8.48161 18.0521 8.51308 18.1055 8.5468C18.1851 8.59738 18.2613 8.65358 18.3386 8.70977C18.3864 8.74349 18.4342 8.77609 18.4808 8.81206C18.5672 8.87949 18.648 8.95143 18.7298 9.02224C18.7628 9.04921 18.7947 9.07619 18.8265 9.10541C18.9362 9.20648 19.0406 9.31302 19.1392 9.42462C19.1688 9.45834 19.1961 9.49431 19.2245 9.52802C19.2916 9.6067 19.3587 9.68763 19.4213 9.77193C19.4576 9.82026 19.4895 9.86971 19.5236 9.91917C19.5736 9.99447 19.6237 10.0664 19.6703 10.144C19.7044 10.1979 19.734 10.2552 19.7658 10.3103C19.8022 10.3845 19.8523 10.4744 19.8796 10.5351C19.9068 10.5958 19.9341 10.6565 19.9592 10.7161C19.9921 10.7936 20.0228 10.8712 20.0513 10.9498C20.074 11.0105 20.0888 11.0634 20.1138 11.1375C20.1388 11.2117 20.1582 11.2859 20.1775 11.3623L20.1843 11.3814C20.1991 11.4466 20.215 11.5107 20.2287 11.5759C20.4028 12.4022 20.3329 13.2605 20.0274 14.0486C20.5141 13.2947 20.8051 12.4338 20.8746 11.5422C21.0547 11.5221 21.2358 11.5128 21.4171 11.5141C23.6744 11.5489 25.4951 13.2956 25.4667 15.3772C25.4382 17.4587 23.6073 19.1447 21.35 19.1447H19.3166C17.4118 19.1447 15.9619 20.6497 16.1154 22.3593C16.3246 26.1302 17.9372 28.0522 19.0835 28.9513C19.3592 29.181 19.6624 29.3762 19.9864 29.5324C20.07 29.5744 20.1558 29.6119 20.2435 29.6448Z" fill="black"/>
</svg>
