<svg width="114" height="24" viewBox="0 0 114 24" fill="none" xmlns="http://www.w3.org/2000/svg">
<path d="M23.5943 4.22552V19.7771C23.591 20.8893 23.1537 21.9549 22.3782 22.7402C21.6028 23.5255 20.5523 23.9665 19.4573 23.9664H17.1565C16.6741 23.9672 16.1963 23.8714 15.7504 23.6843C15.6817 23.6563 15.6144 23.6246 15.5489 23.5895C15.2978 23.4648 15.0626 23.3097 14.8483 23.1276C13.9585 22.4085 12.7048 20.8806 12.5402 17.8622C12.4222 16.499 13.548 15.2931 15.0253 15.2931H16.6059C18.361 15.2931 19.7842 13.9499 19.8014 12.2972C19.8186 10.6444 18.4077 9.23628 16.6649 9.20882C16.5236 9.20627 16.3823 9.21378 16.2421 9.23129C16.1876 9.94197 15.9613 10.628 15.5833 11.2286C15.8194 10.5997 15.874 9.91552 15.7406 9.25625C15.7406 9.20382 15.7185 9.15389 15.7062 9.10146C15.7062 9.10146 15.7062 9.10146 15.7062 9.08648C15.6915 9.02407 15.6742 8.96664 15.657 8.90672C15.6398 8.8468 15.6251 8.80686 15.6079 8.75443C15.5907 8.702 15.5612 8.6296 15.5366 8.56968C15.512 8.50976 15.4948 8.47231 15.4727 8.42487C15.4506 8.37744 15.4137 8.30503 15.3817 8.24511C15.3498 8.18519 15.335 8.15274 15.308 8.1103L15.19 7.93553C15.163 7.89558 15.1384 7.85564 15.1089 7.81569C15.0794 7.77575 15.0081 7.68587 14.9565 7.62095C14.9049 7.55604 14.9147 7.56603 14.8901 7.53856C14.8131 7.45048 14.731 7.36711 14.6443 7.2889L14.5706 7.22149L14.3764 7.05422L14.2657 6.97183C14.2068 6.92689 14.1453 6.88444 14.0838 6.842L13.9609 6.75961C13.9019 6.72216 13.8405 6.68721 13.7766 6.65226L13.6414 6.58235L13.4349 6.48998C13.3857 6.46751 13.339 6.45003 13.2899 6.43255L13.0834 6.36015C13.0342 6.34184 12.9851 6.32686 12.9359 6.31521C12.8622 6.29274 12.7884 6.27526 12.7147 6.26029C12.6409 6.24531 12.6188 6.23532 12.5697 6.22783C12.5205 6.22034 12.4025 6.20286 12.3238 6.19038C12.2821 6.19038 12.2403 6.1779 12.1985 6.1754C12.0707 6.16292 11.9527 6.15543 11.8101 6.15543C11.6675 6.15543 11.5643 6.15543 11.434 6.1729L11.3185 6.18788C11.2349 6.19787 11.153 6.21035 11.0727 6.22533C11.0309 6.22533 10.9866 6.24031 10.9424 6.2503C10.8981 6.26029 10.7875 6.28525 10.6966 6.30522C10.6572 6.30522 10.6155 6.3252 10.5737 6.34018C10.4803 6.36777 10.3884 6.40027 10.2984 6.43755C10.259 6.45003 10.2197 6.46751 10.1828 6.48249C10.0993 6.51744 10.0157 6.55489 9.93702 6.59483L9.7969 6.67223L9.63958 6.76211C9.58796 6.79207 9.54126 6.82453 9.4921 6.85698C9.44294 6.88944 9.40607 6.9169 9.36674 6.94936C9.32741 6.98181 9.26349 7.02176 9.21187 7.0642L9.13076 7.13661C9.01422 7.24102 8.90344 7.35187 8.79891 7.46866L8.77433 7.49612C8.72025 7.55604 8.66863 7.61846 8.61947 7.68087C8.60226 7.70334 8.58506 7.72332 8.57031 7.74578C8.52115 7.8107 8.47198 7.87561 8.42774 7.94552C8.41485 7.96287 8.40334 7.98123 8.39332 8.00044C8.23885 8.24098 8.11263 8.49906 8.01723 8.76941C8.82126 9.28398 9.46486 10.0199 9.87311 10.8916V10.8916C9.64586 10.4716 9.32944 10.1084 8.94678 9.82811C8.56413 9.54785 8.12484 9.35762 7.66081 9.27123H7.63868C7.55265 9.25625 7.46662 9.24377 7.37567 9.23378H7.30192C7.20606 9.23378 7.11019 9.23378 7.01187 9.23378C6.96025 9.23378 6.91108 9.23378 6.86192 9.23378C6.81276 9.23378 6.74393 9.23378 6.68494 9.23378C6.62594 9.23378 6.61857 9.23378 6.58416 9.24876C6.51041 9.24876 6.43667 9.26624 6.36538 9.27872C6.2941 9.2912 6.28672 9.30119 6.24494 9.30868L6.05812 9.35612L5.9475 9.39606C5.88605 9.41604 5.8246 9.43351 5.7656 9.45848L5.64516 9.51341L5.48538 9.58581L5.36002 9.65821C5.31577 9.68567 5.26661 9.71064 5.22236 9.7406C5.17812 9.77056 5.1437 9.79553 5.10437 9.82299C5.06504 9.85045 5.01588 9.88291 4.97409 9.91537L4.87085 10.0077C4.82906 10.0427 4.78728 10.0751 4.74795 10.1126L4.64962 10.215C4.61767 10.2499 4.57588 10.2899 4.54147 10.3298C4.50705 10.3698 4.48247 10.4047 4.45297 10.4447C4.42348 10.4846 4.3866 10.522 4.35711 10.5645C4.32761 10.6069 4.30549 10.6444 4.28091 10.6868C4.25633 10.7293 4.22191 10.7717 4.19733 10.8167C4.17275 10.8616 4.15308 10.904 4.13096 10.9465C4.10884 10.9889 4.08426 11.0364 4.06459 11.0838C4.04493 11.1312 4.02772 11.1737 4.01051 11.2161C3.99331 11.2586 3.97364 11.3135 3.95644 11.3634C3.93923 11.4133 3.93185 11.4583 3.91711 11.5057C3.90236 11.5532 3.88761 11.6056 3.87778 11.658C3.86794 11.7104 3.86303 11.7554 3.85319 11.8053C3.84336 11.8553 3.83599 11.9077 3.82861 11.9601C3.82124 12.0125 3.82861 12.06 3.82861 12.1099C3.82861 12.1598 3.82861 12.2148 3.82861 12.2647C3.82861 12.3046 3.82861 12.3471 3.82861 12.3895C3.82497 12.4502 3.82497 12.5111 3.82861 12.5718C3.82743 12.5917 3.82743 12.6118 3.82861 12.6317C4.02526 14.1297 5.36985 15.3006 7.00203 15.3006H8.5826C10.0575 15.3006 11.1857 16.5065 11.0677 17.8697C10.9055 20.8806 9.65188 22.416 8.75958 23.1351C8.54619 23.3179 8.31178 23.4738 8.06148 23.5994C7.9968 23.6346 7.93033 23.6663 7.86237 23.6943C7.41459 23.8766 6.93627 23.969 6.45387 23.9664H4.14817C3.0529 23.9671 2.00212 23.5263 1.22649 22.7409C0.450863 21.9555 0.0137739 20.8895 0.0111694 19.7771V19.7771V4.22552C0.0111694 3.11113 0.447031 2.04237 1.22287 1.25437C1.99871 0.466375 3.05097 0.0236816 4.14817 0.0236816H19.4573C20.0006 0.0236816 20.5385 0.132366 21.0404 0.343528C21.5424 0.55469 21.9984 0.864196 22.3826 1.25437C22.7667 1.64455 23.0715 2.10776 23.2794 2.61755C23.4873 3.12734 23.5943 3.67373 23.5943 4.22552V4.22552ZM41.7376 11.7554C42.268 11.4019 42.6996 10.9153 42.9907 10.3428C43.2818 9.77031 43.4225 9.1312 43.3993 8.48729C43.3993 5.51629 41.1648 3.81108 38.0111 3.81108H31.5413V20.1741H38.4019C41.5336 20.1741 43.8343 18.4439 43.8343 15.4729C43.8615 14.7162 43.6795 13.9669 43.3089 13.3099C42.9383 12.6529 42.394 12.1144 41.7376 11.7554ZM34.8745 6.76211H38.0062C39.0435 6.76211 40.1005 7.20651 40.1005 8.702C40.1005 10.1975 39.0656 10.6419 38.0062 10.6419H34.8795L34.8745 6.76211ZM38.3159 17.248H34.8745V13.2758H38.3159C39.3508 13.2758 40.5036 13.7901 40.5036 15.2407C40.5085 16.7387 39.3458 17.2255 38.311 17.2255L38.3159 17.248ZM57.1032 20.4287C60.901 20.4287 64.0548 17.8097 64.0548 13.5754V3.83855H60.665V12.8789C60.665 15.1708 59.436 17.1232 57.0959 17.1232C54.7557 17.1232 53.5046 15.1608 53.5046 12.8789V3.80609H50.1222V13.5555C50.1222 17.7898 53.2759 20.4087 57.0983 20.4087L57.1032 20.4287ZM71.2152 20.194H74.6001V3.80609H71.2103L71.2152 20.194ZM81.9916 20.194H93.2989V16.9933H85.3715V3.80609H81.9867L81.9916 20.194ZM99.6261 20.194H105.867C110.171 20.194 113.994 17.2705 113.994 11.9851C113.994 6.69969 110.171 3.8011 105.867 3.8011L99.6285 3.82606L99.6261 20.194ZM103.011 16.8261V7.17156L105.727 7.14909C108.399 7.14909 110.609 8.62211 110.609 11.9651C110.609 15.3081 108.397 16.8061 105.727 16.8061L103.011 16.8261Z" fill="black"/>
</svg>
