<svg width="330" height="341" viewBox="0 0 330 341" fill="none" xmlns="http://www.w3.org/2000/svg">
<path fill-rule="evenodd" clip-rule="evenodd" d="M294.01 0H0V341H329.579V0H294.01ZM294.01 0C305.425 0 315.386 8.94723 315.975 20.941L329.552 297.513C330.221 311.147 318.436 322.096 304.875 320.439L41.3868 288.249C28.7986 286.711 20.1061 274.899 22.3916 262.435L57.5694 70.5995C59.1337 62.0687 65.5663 55.251 73.9977 53.1878L288.731 0.641046C290.506 0.206772 292.274 0 294.01 0Z" fill="white"/>
<path d="M40.3552 164.474L3.95611 216.954C-4.24666 228.78 0.841749 245.196 14.2813 250.264L23.9546 253.912L40.3552 164.474Z" fill="#FF9200"/>
<path d="M150.297 301.555L251.127 339.577C263.97 344.42 278.049 336.421 280.523 322.877L281.49 317.582L150.297 301.555Z" fill="#FF9200"/>
<path d="M320.148 105.957L325.946 74.2185C327.536 65.5161 323.863 57.3724 317.528 52.5708L320.148 105.957Z" fill="#FF9200"/>
</svg>
