<svg width="16" height="17" viewBox="0 0 16 17" fill="none" xmlns="http://www.w3.org/2000/svg">
<path d="M6.464 7.90441C6.504 7.64041 6.592 7.40841 6.704 7.20841C6.816 7.00841 6.976 6.84041 7.176 6.71241C7.368 6.59241 7.608 6.53641 7.904 6.52841C8.088 6.53641 8.256 6.56841 8.408 6.63241C8.568 6.70441 8.712 6.80041 8.824 6.92041C8.936 7.04041 9.024 7.18441 9.096 7.34441C9.168 7.50441 9.2 7.68041 9.208 7.85641H10.64C10.624 7.48041 10.552 7.13641 10.416 6.82441C10.28 6.51241 10.096 6.24041 9.856 6.01641C9.616 5.79241 9.328 5.61641 8.992 5.48841C8.656 5.36041 8.288 5.30441 7.88 5.30441C7.36 5.30441 6.904 5.39241 6.52 5.57641C6.136 5.76041 5.816 6.00041 5.56 6.31241C5.304 6.62441 5.112 6.98441 4.992 7.40041C4.872 7.81641 4.8 8.24841 4.8 8.71241V8.92841C4.8 9.39241 4.864 9.82441 4.984 10.2404C5.104 10.6564 5.296 11.0164 5.552 11.3204C5.808 11.6244 6.128 11.8724 6.512 12.0484C6.896 12.2244 7.352 12.3204 7.872 12.3204C8.248 12.3204 8.6 12.2564 8.928 12.1364C9.256 12.0164 9.544 11.8484 9.792 11.6324C10.04 11.4164 10.24 11.1684 10.384 10.8804C10.528 10.5924 10.616 10.2884 10.624 9.96041H9.192C9.184 10.1284 9.144 10.2804 9.072 10.4244C9 10.5684 8.904 10.6884 8.784 10.7924C8.664 10.8964 8.528 10.9764 8.368 11.0324C8.216 11.0884 8.056 11.1044 7.888 11.1124C7.6 11.1044 7.36 11.0484 7.176 10.9284C6.976 10.8004 6.816 10.6324 6.704 10.4324C6.592 10.2324 6.504 9.99241 6.464 9.72841C6.424 9.46441 6.4 9.19241 6.4 8.92841V8.71241C6.4 8.43241 6.424 8.16841 6.464 7.90441ZM8 0.816406C3.584 0.816406 0 4.40041 0 8.81641C0 13.2324 3.584 16.8164 8 16.8164C12.416 16.8164 16 13.2324 16 8.81641C16 4.40041 12.416 0.816406 8 0.816406ZM8 15.2164C4.472 15.2164 1.6 12.3444 1.6 8.81641C1.6 5.28841 4.472 2.41641 8 2.41641C11.528 2.41641 14.4 5.28841 14.4 8.81641C14.4 12.3444 11.528 15.2164 8 15.2164Z" fill="white"/>
</svg>
