<svg width="231" height="38" viewBox="0 0 231 38" fill="none" xmlns="http://www.w3.org/2000/svg">
<path d="M46.5005 37.6753H54.3449C59.7578 37.6753 64.5628 34.1039 64.5628 27.6468C64.5628 21.1896 59.7578 17.6468 54.3449 17.6468L46.5005 17.6753V37.6753ZM50.7556 33.561V21.7896L54.1712 21.761C57.5289 21.761 60.3078 23.561 60.3078 27.6468C60.3078 31.7325 57.5289 33.561 54.1712 33.561H50.7556Z" fill="black"/>
<path d="M70.51 37.6753H84.8093V33.9325H74.7651V29.4468H84.6067V25.8182H74.7651V21.4182H84.8093V17.6753H70.51V37.6753Z" fill="black"/>
<path d="M103.724 27.3896C104.94 26.561 105.808 25.3039 105.808 23.3896C105.808 19.761 103.001 17.6753 99.0351 17.6753H90.9012V37.6753H99.5271C103.464 37.6753 106.358 35.561 106.358 31.9325C106.358 29.7039 105.23 28.2182 103.724 27.3896ZM95.0984 21.2753H99.0351C100.338 21.2753 101.669 21.8182 101.669 23.6468C101.669 25.4468 100.367 26.0182 99.0351 26.0182H95.0984V21.2753ZM99.4114 34.0753H95.0984V29.2468H99.4114C100.714 29.2468 102.161 29.8753 102.161 31.6468C102.161 33.4753 100.714 34.0753 99.4114 34.0753Z" fill="black"/>
<path d="M117.125 37.6753H121.38V21.361H127.95V17.6753H110.554V21.361H117.125V37.6753Z" fill="black"/>
<path d="M144.386 37.6753H148.641V29.7325H158.483V26.0468H148.641V21.4182H158.685V17.6753H144.386V37.6753Z" fill="black"/>
<path d="M173.088 37.961C177.864 37.961 181.83 34.761 181.83 29.5896V17.6753H177.575V28.761C177.575 31.561 176.041 33.961 173.088 33.961C170.107 33.961 168.573 31.561 168.573 28.761V17.6753H164.318V29.5896C164.318 34.761 168.283 37.961 173.088 37.961Z" fill="black"/>
<path d="M188.278 37.6753H192.533V24.4468L201.333 37.6753H206.138V17.6753H201.883V30.9325L193.054 17.6753H188.278V37.6753Z" fill="black"/>
<path d="M212.938 37.6753H220.782C226.195 37.6753 231 34.1039 231 27.6468C231 21.1896 226.195 17.6468 220.782 17.6468L212.938 17.6753V37.6753ZM217.193 33.561V21.7896L220.608 21.761C223.966 21.761 226.745 23.561 226.745 27.6468C226.745 31.7325 223.966 33.561 220.608 33.561H217.193Z" fill="black"/>
<path d="M50.5059 10.5633C52.593 10.5633 54.2656 9.4237 54.2656 7.56818C54.2656 5.52273 52.3117 5.15747 50.8167 4.76299C49.5142 4.41234 48.1672 4.19318 48.1672 2.9513C48.1672 2.06006 48.9961 1.22727 50.3431 1.22727C51.5272 1.22727 52.2821 1.84091 52.6374 2.92208L53.9104 2.57143C53.4071 0.891234 52.1489 0 50.3283 0C48.3004 0 46.7314 1.25649 46.7314 2.93669C46.7314 4.96753 48.5373 5.43506 50.0767 5.84416C51.394 6.18019 52.8298 6.34091 52.8298 7.5974C52.8298 8.64935 51.8529 9.30682 50.5207 9.30682C49.2773 9.30682 48.1968 8.69318 47.8416 7.50974L46.4946 7.875C46.9978 9.61364 48.5965 10.5633 50.5059 10.5633Z" fill="black"/>
<path d="M58.7345 10.5049C60.1111 10.5049 60.94 10.0081 61.5617 9.33604V10.4026H62.8939V3.17045H61.5617V4.25162C60.94 3.55032 60.1111 3.06818 58.7345 3.06818C56.7363 3.06818 55.2117 4.68993 55.2117 6.79383C55.2117 8.86851 56.7363 10.5049 58.7345 10.5049ZM59.0454 9.35065C57.6244 9.35065 56.529 8.22565 56.529 6.79383C56.529 5.3474 57.6244 4.2224 59.0454 4.2224C60.4664 4.2224 61.5617 5.3474 61.5617 6.79383C61.5617 8.22565 60.4664 9.35065 59.0454 9.35065Z" fill="black"/>
<path d="M67.7834 10.5049C69.16 10.5049 69.9889 10.0081 70.6105 9.33604V10.4026H71.9427V3.17045H70.6105V4.25162C69.9889 3.55032 69.16 3.06818 67.7834 3.06818C65.7851 3.06818 64.2605 4.68993 64.2605 6.79383C64.2605 8.86851 65.7851 10.5049 67.7834 10.5049ZM68.0942 9.35065C66.6732 9.35065 65.5779 8.22565 65.5779 6.79383C65.5779 5.3474 66.6732 4.2224 68.0942 4.2224C69.5152 4.2224 70.6105 5.3474 70.6105 6.79383C70.6105 8.22565 69.5152 9.35065 68.0942 9.35065Z" fill="black"/>
<path d="M77.2911 10.5633C79.3782 10.5633 81.0508 9.4237 81.0508 7.56818C81.0508 5.52273 79.0969 5.15747 77.6019 4.76299C76.2994 4.41234 74.9524 4.19318 74.9524 2.9513C74.9524 2.06006 75.7813 1.22727 77.1283 1.22727C78.3124 1.22727 79.0673 1.84091 79.4226 2.92208L80.6955 2.57143C80.1923 0.891234 78.9341 0 77.1135 0C75.0856 0 73.5166 1.25649 73.5166 2.93669C73.5166 4.96753 75.3224 5.43506 76.8618 5.84416C78.1792 6.18019 79.615 6.34091 79.615 7.5974C79.615 8.64935 78.6381 9.30682 77.3059 9.30682C76.0625 9.30682 74.982 8.69318 74.6267 7.50974L73.2798 7.875C73.783 9.61364 75.3816 10.5633 77.2911 10.5633Z" fill="black"/>
<path d="M88.3927 5.17208C89.1476 4.7776 89.6952 4.09091 89.6952 2.9513C89.6952 1.09578 88.2594 0.175324 86.4684 0.175324H82.5163V10.4026H86.6756C88.4223 10.4026 89.9617 9.46753 89.9617 7.56818C89.9617 6.31169 89.266 5.55195 88.3927 5.17208ZM83.8929 1.35877H86.4684C87.4305 1.35877 88.3483 1.78247 88.3483 3.03896C88.3483 4.28084 87.4601 4.70455 86.4684 4.70455H83.8929V1.35877ZM86.646 9.21916H83.8929V5.78571H86.646C87.549 5.78571 88.5851 6.25325 88.5851 7.49513C88.5851 8.75162 87.549 9.21916 86.646 9.21916Z" fill="black"/>
<path d="M96.1865 10.5487C99.1321 10.5487 101.412 8.19643 101.412 5.28896C101.412 2.38149 99.1321 0.0292204 96.1865 0.0292204C93.2261 0.0292204 90.9466 2.38149 90.9466 5.28896C90.9466 8.19643 93.2261 10.5487 96.1865 10.5487ZM96.1865 9.20455C93.9958 9.20455 92.338 7.46591 92.338 5.28896C92.338 3.11201 93.9958 1.37338 96.1865 1.37338C98.3624 1.37338 100.02 3.11201 100.02 5.28896C100.02 7.46591 98.3624 9.20455 96.1865 9.20455Z" fill="black"/>
<path d="M107.779 10.5487C110.725 10.5487 113.004 8.19643 113.004 5.28896C113.004 2.38149 110.725 0.0292204 107.779 0.0292204C104.819 0.0292204 102.54 2.38149 102.54 5.28896C102.54 8.19643 104.819 10.5487 107.779 10.5487ZM107.779 9.20455C105.589 9.20455 103.931 7.46591 103.931 5.28896C103.931 3.11201 105.589 1.37338 107.779 1.37338C109.955 1.37338 111.613 3.11201 111.613 5.28896C111.613 7.46591 109.955 9.20455 107.779 9.20455Z" fill="black"/>
<path d="M114.621 10.4026H116.012V2.54221L119.55 8.73701H120.645L124.183 2.5276V10.4026H125.589V0.175324H123.976L120.112 7.11526L116.22 0.175324H114.621V10.4026Z" fill="black"/>
<path d="M128.132 1.76786C128.576 1.76786 128.932 1.41721 128.932 0.978896C128.932 0.584415 128.576 0.233766 128.132 0.233766C127.703 0.233766 127.348 0.584415 127.348 0.978896C127.348 1.41721 127.703 1.76786 128.132 1.76786ZM127.496 10.4026H128.798V3.17045H127.496V10.4026Z" fill="black"/>
<path d="M25.6716 37.5501C26.3991 37.8475 27.1787 38.0003 27.9661 38H31.7358C33.5258 38 35.2425 37.298 36.5083 36.0485C37.774 34.799 38.4851 33.1042 38.4851 31.3371V6.67588C38.4847 5.80052 38.3097 4.93381 37.97 4.12523C37.6303 3.31665 37.1326 2.58203 36.5054 1.96332C35.8781 1.34462 35.1336 0.853936 34.3142 0.519297C33.4949 0.184658 32.6168 0.0126138 31.7301 0.0129872H6.74924C4.95923 0.0129872 3.24253 0.714969 1.97681 1.9645C0.711078 3.21404 0 4.90877 0 6.67588V31.3371C0.000763668 33.1031 0.711539 34.7966 1.97621 36.0456C3.24088 37.2947 4.95602 37.9971 6.74491 37.9986H10.5075C11.2953 37.9967 12.075 37.8414 12.8019 37.5416C12.9137 37.5002 13.023 37.4527 13.1293 37.3992C13.539 37.2006 13.923 36.9539 14.2729 36.6646C15.7309 35.5242 17.7701 33.0897 18.0383 28.3132C18.233 26.1534 16.3943 24.2386 13.983 24.2386H11.4016C8.73796 24.2386 6.54445 22.3892 6.2243 20.0045C6.21738 19.9735 6.21256 19.9421 6.20988 19.9105C6.19257 19.8194 6.19257 19.7212 6.19257 19.6258C6.18103 19.5603 6.18103 19.4934 6.18103 19.4279V19.4094C6.18103 19.3254 6.20555 19.2528 6.21709 19.1731C6.22862 19.0933 6.21709 19.015 6.22862 18.9325C6.24016 18.8499 6.25458 18.7645 6.269 18.6876C6.28343 18.6107 6.29064 18.5296 6.30938 18.4513C6.32813 18.3729 6.35409 18.2904 6.37572 18.2149C6.39736 18.1395 6.40745 18.0669 6.43629 17.9886C6.46276 17.9167 6.49286 17.8425 6.51992 17.7757L6.52715 17.7579C6.55599 17.6867 6.58051 17.6198 6.61368 17.5444C6.64685 17.4689 6.69011 17.3906 6.72472 17.3265C6.75933 17.2625 6.78962 17.1827 6.83144 17.1201C6.87326 17.0575 6.92374 16.9806 6.967 16.9151C7.01027 16.8496 7.04488 16.787 7.09247 16.72C7.14006 16.6531 7.19919 16.5891 7.24822 16.5278C7.29725 16.4666 7.33619 16.4111 7.39244 16.3485C7.44868 16.2858 7.51646 16.2232 7.56982 16.1676C7.62318 16.1121 7.67365 16.0651 7.7299 16.0053C7.78614 15.9455 7.87267 15.8829 7.93036 15.8359C7.98804 15.7889 8.03131 15.7391 8.10053 15.6936C8.16975 15.648 8.2534 15.5939 8.31397 15.5512C8.37454 15.5085 8.42789 15.4658 8.50144 15.4202C8.57499 15.3746 8.66296 15.3277 8.73075 15.2907C8.79853 15.2536 8.84756 15.218 8.93265 15.1768C9.01772 15.1355 9.10572 15.0984 9.19367 15.0614C9.25857 15.033 9.32203 15.0002 9.38981 14.9732C9.47778 14.9362 9.57873 14.9077 9.67823 14.8735C9.74025 14.8536 9.79937 14.8308 9.86283 14.8109C9.96234 14.7838 10.0633 14.7625 10.1642 14.7383C10.2335 14.7254 10.2969 14.7055 10.3647 14.6913C10.4815 14.6699 10.6012 14.6557 10.7223 14.64C10.7771 14.6343 10.8291 14.6187 10.8853 14.6187C10.979 14.6059 11.093 14.6101 11.1737 14.6059C11.2545 14.6016 11.3338 14.593 11.4175 14.593C11.5775 14.593 11.7347 14.6044 11.8919 14.6158L12.0131 14.6272C12.1645 14.6429 12.3015 14.6628 12.4457 14.6884H12.4803C13.2359 14.8256 13.9512 15.1267 14.5747 15.5698C15.1982 16.013 15.7142 16.5872 16.0857 17.2511C15.4184 15.8697 14.3684 14.7033 13.0572 13.8869C13.2115 13.4582 13.4167 13.0491 13.6686 12.6682C13.686 12.6383 13.7061 12.6084 13.7263 12.5799C13.7984 12.4703 13.8763 12.365 13.9556 12.2625L14.0364 12.1628C14.1186 12.0617 14.2008 11.9606 14.2902 11.8667C14.3044 11.8531 14.3179 11.8389 14.3306 11.824C14.507 11.6405 14.6933 11.4666 14.8887 11.3029C14.9349 11.2659 14.9752 11.226 15.0214 11.1904C15.1036 11.1263 15.2103 11.0552 15.2723 11.0068C15.3343 10.9584 15.4007 10.9171 15.4785 10.8644C15.5564 10.8117 15.6343 10.7605 15.7194 10.7106L15.9761 10.5683C16.0511 10.527 16.1261 10.4871 16.2039 10.4472L16.2197 10.4397C16.3453 10.3797 16.4678 10.3212 16.6063 10.2693C16.6683 10.2437 16.7289 10.218 16.7938 10.1938C16.9423 10.1397 17.0909 10.087 17.2466 10.0415L17.4471 9.98881C17.5711 9.95607 17.698 9.92475 17.8278 9.89912C17.8956 9.88488 17.9677 9.87065 18.0398 9.85926C18.1725 9.83648 18.3023 9.81797 18.4465 9.80231C18.5099 9.79519 18.5734 9.77953 18.6368 9.77953C18.8402 9.76387 19.0349 9.75106 19.2483 9.75106C19.4617 9.75106 19.6737 9.76245 19.8829 9.78096C19.9449 9.78665 20.0199 9.79804 20.0891 9.80658C20.2275 9.82367 20.3645 9.84075 20.5015 9.86495C20.5809 9.87777 20.6587 9.8977 20.7366 9.91621C20.8592 9.94041 20.9789 9.96888 21.1 10.0016C21.1793 10.023 21.2601 10.0486 21.3394 10.0742C21.4533 10.1084 21.5644 10.1483 21.6754 10.1881L21.6937 10.195C21.7665 10.2224 21.8374 10.2491 21.9119 10.2807C22.0187 10.3253 22.1239 10.3727 22.2278 10.423C22.3071 10.4572 22.3778 10.4956 22.4513 10.5327C22.5537 10.5868 22.6547 10.6437 22.7542 10.7021C22.8234 10.7434 22.8926 10.7832 22.9604 10.8259C23.0613 10.89 23.158 10.9612 23.256 11.0324C23.3166 11.0751 23.3772 11.1164 23.4363 11.1619C23.5459 11.2474 23.6483 11.3385 23.7521 11.4282C23.7939 11.4623 23.8343 11.4965 23.8747 11.5335C24.0138 11.6615 24.1462 11.7965 24.2713 11.9379C24.3088 11.9806 24.3434 12.0261 24.3795 12.0688C24.4645 12.1685 24.5496 12.271 24.629 12.3778C24.6751 12.439 24.7155 12.5016 24.7587 12.5643C24.8222 12.6597 24.8857 12.7508 24.9448 12.849C24.988 12.9174 25.0255 12.99 25.0659 13.0597C25.1121 13.1537 25.1755 13.2676 25.2101 13.3445C25.2447 13.4213 25.2794 13.4982 25.3111 13.5737C25.3529 13.6719 25.3918 13.7701 25.4279 13.8698C25.4567 13.9467 25.4755 14.0136 25.5072 14.1076C25.5389 14.2015 25.5635 14.2955 25.588 14.3923L25.5966 14.4165C25.6154 14.4991 25.6356 14.5802 25.6529 14.6628C25.8737 15.7094 25.7851 16.7966 25.3976 17.7949C26.0148 16.84 26.3838 15.7495 26.472 14.6201C26.7004 14.5947 26.9301 14.5828 27.1599 14.5845C30.0226 14.6286 32.3314 16.8411 32.2954 19.4777C32.2593 22.1144 29.9375 24.25 27.0748 24.25H24.4963C22.0807 24.25 20.2419 26.1563 20.4366 28.3217C20.702 33.0982 22.747 35.5327 24.2006 36.6717C24.5502 36.9626 24.9348 37.2098 25.3457 37.4077C25.4517 37.4609 25.5605 37.5085 25.6716 37.5501Z" fill="black"/>
</svg>
