<svg width="153" height="25" viewBox="0 0 153 25" fill="none" xmlns="http://www.w3.org/2000/svg">
<path d="M24.1482 4.35028V19.8994C24.1485 20.451 24.0407 20.9974 23.8309 21.5071C23.6211 22.0169 23.3134 22.4801 22.9255 22.8704C22.5375 23.2606 22.0769 23.5701 21.5699 23.7813C21.0629 23.9925 20.5194 24.1012 19.9706 24.1012H17.6384C17.1509 24.1007 16.6682 24.004 16.2178 23.8166C16.1489 23.7899 16.0818 23.759 16.0166 23.7242C15.7613 23.6002 15.5226 23.4442 15.3063 23.2598C14.4072 22.5433 13.1405 21.0129 12.9766 17.9944C12.8549 16.6337 13.9949 15.4279 15.4851 15.4279H17.0821C18.8554 15.4279 20.2935 14.0822 20.3109 12.4169C20.3283 10.7517 18.9026 9.35854 17.1318 9.33357C16.9891 9.33151 16.8464 9.33818 16.7046 9.35355C16.6515 10.0643 16.4237 10.7506 16.0414 11.3509C16.1923 10.9477 16.2705 10.5208 16.2724 10.0901C16.27 9.85021 16.2451 9.61114 16.1979 9.37602C16.1979 9.32608 16.1756 9.27615 16.1631 9.22372C16.1642 9.21795 16.1642 9.21202 16.1631 9.20625C16.1482 9.14633 16.1333 9.08641 16.1135 9.02898C16.0936 8.97156 16.0812 8.92912 16.0638 8.87669C16.0464 8.82426 16.0166 8.75186 15.9918 8.69194C15.9669 8.63202 15.952 8.59457 15.9297 8.54713L15.8353 8.36488C15.8105 8.31994 15.7881 8.275 15.7608 8.23256C15.7335 8.19011 15.6863 8.11272 15.6465 8.0528L15.5671 7.93546C15.5174 7.86721 15.4652 7.8023 15.4106 7.74072C15.3882 7.71325 15.3684 7.6833 15.346 7.65833C15.2665 7.56845 15.1837 7.48523 15.0976 7.40867C15.0731 7.38488 15.0474 7.36238 15.0206 7.34126L14.8244 7.17398L14.7127 7.09159C14.6531 7.04665 14.5935 7.00421 14.5289 6.96177C14.4643 6.91932 14.4444 6.90934 14.4022 6.88437L14.2159 6.77702L14.0768 6.70711L13.8955 6.61973C13.8459 6.59726 13.7987 6.57728 13.749 6.55981C13.6993 6.54233 13.6124 6.50987 13.5404 6.48741L13.3914 6.44247C13.3185 6.42249 13.244 6.40502 13.1678 6.39004L13.0213 6.35508C12.9368 6.3401 12.8524 6.33012 12.7729 6.32013L12.6438 6.30265C12.5146 6.30265 12.3954 6.28518 12.2513 6.28518C12.1073 6.28518 12.003 6.28518 11.8738 6.30265L11.7546 6.31763C11.6702 6.31763 11.5857 6.33761 11.5062 6.35259L11.3746 6.37755C11.2951 6.39253 11.2157 6.415 11.1262 6.43498L11.0021 6.46743C10.9052 6.49739 10.8133 6.52985 10.7214 6.5648L10.6047 6.61224C10.5202 6.64719 10.4358 6.68464 10.3563 6.72459L10.2147 6.80198C10.1617 6.82861 10.1096 6.85857 10.0583 6.89186C10.007 6.92088 9.95725 6.95254 9.90924 6.98673L9.78009 7.07661C9.72793 7.11406 9.67577 7.15151 9.6261 7.19395L9.54165 7.26386C9.42002 7.36655 9.30473 7.47661 9.19642 7.59342C9.18945 7.60295 9.18107 7.61137 9.17159 7.61838C9.11695 7.6783 9.06479 7.74072 9.01511 7.80563L8.96544 7.86805C8.91577 7.93296 8.86858 8.00037 8.82139 8.06778C8.82139 8.08775 8.79655 8.10523 8.78662 8.1252C8.62986 8.36497 8.50306 8.62324 8.4091 8.89417C9.22013 9.40963 9.8694 10.1454 10.2818 11.0163V11.0163C10.0526 10.5961 9.73301 10.2325 9.3463 9.95221C8.95959 9.6719 8.51553 9.48187 8.04648 9.39599H8.02413C7.93968 9.38101 7.85027 9.36853 7.76086 9.35854H7.68635C7.58948 9.35854 7.49014 9.35854 7.39079 9.35854H7.24177C7.18139 9.35475 7.12084 9.35475 7.06046 9.35854H6.96112L6.74007 9.391L6.61588 9.42096C6.55379 9.43594 6.4917 9.44842 6.42961 9.46839L6.31536 9.50584L6.13157 9.56826L6.00987 9.62568L5.84843 9.69808L5.72424 9.77049L5.58267 9.85038C5.54294 9.87534 5.5032 9.9078 5.46594 9.93526L5.33431 10.0251L5.22751 10.1175C5.18529 10.1525 5.14306 10.1874 5.10332 10.2249C5.06359 10.2623 5.03627 10.2923 5.00398 10.3272C4.97169 10.3622 4.92947 10.4021 4.8947 10.4421C4.85992 10.482 4.83757 10.517 4.80528 10.5544C4.773 10.5919 4.73822 10.6343 4.7109 10.6743C4.68358 10.7142 4.65875 10.7567 4.63143 10.7966L4.54698 10.9289C4.52214 10.9714 4.50228 11.0138 4.48241 11.0563C4.46254 11.0987 4.43273 11.1461 4.41286 11.1961C4.39299 11.246 4.37809 11.2834 4.36071 11.3284C4.34332 11.3733 4.32097 11.4258 4.30358 11.4757C4.2862 11.5256 4.27874 11.5706 4.26384 11.6155C4.24894 11.6604 4.23652 11.7154 4.2241 11.7678C4.21168 11.8202 4.2092 11.8652 4.19927 11.9151C4.18933 11.965 4.18188 12.0175 4.17443 12.0699C4.16698 12.1223 4.17443 12.1698 4.17443 12.2222C4.17443 12.2746 4.17443 12.3245 4.17443 12.377C4.17443 12.4194 4.17443 12.4619 4.17443 12.5043C4.17443 12.5467 4.17443 12.6266 4.17443 12.6866C4.17443 12.704 4.17443 12.724 4.17443 12.744C4.37312 14.242 5.72921 15.4129 7.37837 15.4129H8.97538C10.4656 15.4129 11.6056 16.6213 11.4889 17.9819C11.3225 20.9954 10.0558 22.5283 9.15668 23.2473C8.94267 23.4325 8.70656 23.5902 8.4538 23.7167C8.38757 23.7511 8.31959 23.7819 8.25014 23.8091C7.79968 23.9965 7.317 24.0932 6.82948 24.0937H4.49979C3.3929 24.0937 2.33119 23.6524 1.54757 22.8665C0.76395 22.0807 0.322395 21.0145 0.319764 19.9018V19.9018V4.35028C0.319437 3.7984 0.427334 3.25186 0.637285 2.74192C0.847235 2.23198 1.15512 1.76864 1.54334 1.3784C1.93155 0.988155 2.39249 0.678662 2.89978 0.467616C3.40707 0.25657 3.95077 0.14811 4.49979 0.148438H19.9681C20.5171 0.14811 21.0609 0.25657 21.5681 0.467616C22.0754 0.678662 22.5364 0.988155 22.9246 1.3784C23.3128 1.76864 23.6207 2.23198 23.8306 2.74192C24.0406 3.25186 24.1485 3.7984 24.1482 4.35028ZM35.3247 3.94333L41.7127 3.92086C45.7065 3.92086 49.4866 6.82944 48.667 12.1348C47.8474 17.4402 44.0225 20.3737 39.4476 20.3737H32.7417L35.3247 3.94333ZM39.6761 16.9908C42.3833 16.9908 44.6956 15.4928 45.2321 12.1348C45.7686 8.77682 43.7617 7.29881 41.0521 7.29881L38.2753 7.32378L36.7454 16.9908H39.6761ZM62.1111 14.4342C62.0776 14.781 62.0229 15.1253 61.9472 15.4653H52.8197C52.8303 15.8109 52.9089 16.151 53.051 16.4659C53.193 16.7808 53.3958 17.0643 53.6476 17.2999C53.8993 17.5356 54.195 17.7187 54.5176 17.8388C54.8402 17.9588 55.1832 18.0134 55.5269 17.9994C56.1038 18.0027 56.6755 17.8902 57.2086 17.6685C57.7417 17.4469 58.2255 17.1206 58.6315 16.7086L60.5887 18.3989C59.8827 19.142 59.0299 19.7285 58.085 20.1206C57.1401 20.5127 56.1241 20.7019 55.1022 20.6758C51.7642 20.6284 49.36 17.907 49.9436 14.2919C50.231 12.6199 51.1 11.105 52.3957 10.0175C53.6913 8.93005 55.3293 8.34078 57.0171 8.35489C60.2658 8.35489 62.367 10.7966 62.1111 14.4342ZM59.2624 13.3532C59.0761 11.6879 57.9311 10.9139 56.6024 10.9139C55.2239 10.9139 53.848 11.7353 53.1923 13.3532H59.2624ZM66.8972 18.8932L66.6637 20.3712H63.3729L66.1496 2.76991H69.443L68.2881 10.2349C69.361 9.2362 70.6699 8.54464 72.2098 8.54464C75.2672 8.54464 77.3212 11.1511 76.8095 14.554C76.2979 17.957 73.8912 20.5834 70.4811 20.5834C68.7426 20.5809 67.5976 19.8769 66.8972 18.8932ZM73.4566 14.5266C73.7372 12.744 72.7338 11.4058 71.0524 11.4058C69.3709 11.4058 67.8559 12.744 67.5752 14.5515C67.2946 16.3591 68.3924 17.6948 70.0738 17.6948C71.7553 17.6948 73.1784 16.3566 73.4566 14.5266V14.5266ZM79.8322 16.2393L80.5773 11.618H78.0936L78.5605 8.75435H81.0119L81.5484 5.3764H84.8045L84.268 8.75435H87.4645L86.9976 11.618H83.8234L83.1702 15.6775C82.984 16.8984 83.6148 17.6249 84.8517 17.6249C85.3138 17.6204 85.7717 17.5359 86.2053 17.3752L85.7856 20.0491C85.045 20.2879 84.2733 20.4149 83.4956 20.4261C80.7884 20.4187 79.4124 18.681 79.8322 16.2393V16.2393ZM97.5954 3.94333H109.127L108.66 7.01919H100.539L99.9549 10.8191H107.823L107.326 13.8475H99.488L98.4622 20.3712H95.0298L97.5954 3.94333ZM109.433 14.7862L110.389 8.75435H113.682L112.771 14.4342C112.42 16.5913 113.307 17.6948 114.802 17.6948C116.437 17.6948 117.604 16.4465 117.929 14.3868L118.841 8.75435H122.154L120.314 20.3712H117.045L117.279 18.9631H117.231C116.758 19.465 116.185 19.862 115.55 20.1285C114.915 20.3951 114.231 20.5254 113.543 20.511C110.836 20.511 108.827 18.4937 109.435 14.7862H109.433ZM124.958 8.75435H128.249L128.038 10.115C128.994 9.13612 130.292 8.57164 131.657 8.54214C134.483 8.54214 136.42 10.6543 135.837 14.3393L134.88 20.3712H131.567L132.476 14.6289C132.804 12.4694 131.965 11.3658 130.469 11.3658C128.882 11.3658 127.621 12.6816 127.318 14.6764L126.406 20.3712H123.115L124.958 8.75435ZM137.752 14.5515C138.288 11.1486 140.903 8.54214 144.03 8.54214C145.734 8.54214 146.879 9.27116 147.602 10.2573L148.794 2.76741H152.112L149.333 20.3712H146.027L146.261 18.8932C145.749 19.4341 145.132 19.8632 144.449 20.1536C143.765 20.4439 143.029 20.5894 142.287 20.5809C139.249 20.5809 137.218 17.9545 137.754 14.5515H137.752ZM146.926 14.5515C147.229 12.744 146.131 11.4058 144.443 11.4058C142.754 11.4058 141.308 12.744 140.998 14.5515C140.687 16.3591 141.792 17.6948 143.481 17.6948C145.108 17.6948 146.648 16.3566 146.929 14.5515H146.926Z" fill="black"/>
</svg>
