<svg width="243" height="38" viewBox="0 0 243 38" fill="none" xmlns="http://www.w3.org/2000/svg">
<path d="M46.502 37.6753H60.8018V33.9325H50.7572V29.4468H60.5991V25.8182H50.7572V21.4182H60.8018V17.6753H46.502V37.6753Z" fill="black"/>
<path d="M66.8938 37.6753H71.149V24.4468L79.9489 37.6753H84.7541V17.6753H80.4989V30.9325L71.6701 17.6753H66.8938V37.6753Z" fill="black"/>
<path d="M96.7647 37.6753H101.02V21.361H107.591V17.6753H90.1937V21.361H96.7647V37.6753Z" fill="black"/>
<path d="M113.049 37.6753H127.348V33.9325H117.304V29.4468H127.146V25.8182H117.304V21.4182H127.348V17.6753H113.049V37.6753Z" fill="black"/>
<path d="M149.564 37.6753L145.396 30.0182C147.538 29.0468 149.101 27.0468 149.101 24.1896C149.101 20.0468 145.859 17.6753 142.24 17.6753H133.44V37.6753H137.638V30.6753H141.43L144.903 37.6753H149.564ZM137.638 21.361H141.806C143.63 21.361 144.846 22.561 144.846 24.2468C144.846 25.9325 143.63 27.0753 141.806 27.0753H137.638V21.361Z" fill="black"/>
<path d="M155.189 37.6753H159.387V30.8468H163.642C167.26 30.8468 170.502 28.4753 170.502 24.2468C170.502 20.0468 167.26 17.6753 163.642 17.6753H155.189V37.6753ZM159.387 27.2468V21.2753H163.352C165.176 21.2753 166.392 22.5039 166.392 24.2468C166.392 26.0182 165.176 27.2468 163.352 27.2468H159.387Z" fill="black"/>
<path d="M192.355 37.6753L188.186 30.0182C190.328 29.0468 191.892 27.0468 191.892 24.1896C191.892 20.0468 188.65 17.6753 185.031 17.6753H176.231V37.6753H180.429V30.6753H184.221L187.694 37.6753H192.355ZM180.429 21.361H184.597C186.421 21.361 187.636 22.561 187.636 24.2468C187.636 25.9325 186.421 27.0753 184.597 27.0753H180.429V21.361Z" fill="black"/>
<path d="M197.782 37.6753H202.037V17.6753H197.782V37.6753Z" fill="black"/>
<path d="M215.504 37.9896C219.759 37.9896 223.117 35.5325 223.117 31.7896C223.117 27.7325 219.296 26.7896 216.575 26.0468C214.375 25.4468 212.262 25.0753 212.262 23.3896C212.262 22.1896 213.391 21.0753 215.301 21.0753C217.038 21.0753 218.08 21.9325 218.572 23.4468L222.451 22.3325C221.467 19.1325 218.949 17.3325 215.214 17.3325C211.104 17.3325 207.891 19.9039 207.891 23.3896C207.891 27.361 211.307 28.561 214.201 29.3039C216.459 29.8753 218.688 30.161 218.688 31.9039C218.688 33.2182 217.443 34.161 215.533 34.161C213.738 34.161 212.233 33.2468 211.741 31.6468L207.63 32.7896C208.615 36.0182 211.596 37.9896 215.504 37.9896Z" fill="black"/>
<path d="M228.7 37.6753H243V33.9325H232.955V29.4468H242.797V25.8182H232.955V21.4182H243V17.6753H228.7V37.6753Z" fill="black"/>
<path d="M50.5075 10.5633C52.5946 10.5633 54.2673 9.4237 54.2673 7.56818C54.2673 5.52273 52.3134 5.15747 50.8183 4.76299C49.5157 4.41234 48.1687 4.19318 48.1687 2.9513C48.1687 2.06006 48.9977 1.22727 50.3447 1.22727C51.5289 1.22727 52.2838 1.84091 52.639 2.92208L53.9121 2.57143C53.4088 0.891234 52.1506 0 50.3299 0C48.3019 0 46.7329 1.25649 46.7329 2.93669C46.7329 4.96753 48.5388 5.43506 50.0782 5.84416C51.3956 6.18019 52.8315 6.34091 52.8315 7.5974C52.8315 8.64935 51.8545 9.30682 50.5223 9.30682C49.2789 9.30682 48.1983 8.69318 47.8431 7.50974L46.496 7.875C46.9993 9.61364 48.598 10.5633 50.5075 10.5633Z" fill="black"/>
<path d="M58.7364 10.5049C60.113 10.5049 60.9419 10.0081 61.5636 9.33604V10.4026H62.8958V3.17045H61.5636V4.25162C60.9419 3.55032 60.113 3.06818 58.7364 3.06818C56.738 3.06818 55.2134 4.68993 55.2134 6.79383C55.2134 8.86851 56.738 10.5049 58.7364 10.5049ZM59.0472 9.35065C57.6262 9.35065 56.5308 8.22565 56.5308 6.79383C56.5308 5.3474 57.6262 4.2224 59.0472 4.2224C60.4683 4.2224 61.5636 5.3474 61.5636 6.79383C61.5636 8.22565 60.4683 9.35065 59.0472 9.35065Z" fill="black"/>
<path d="M67.7855 10.5049C69.1621 10.5049 69.9911 10.0081 70.6128 9.33604V10.4026H71.945V3.17045H70.6128V4.25162C69.9911 3.55032 69.1621 3.06818 67.7855 3.06818C65.7872 3.06818 64.2625 4.68993 64.2625 6.79383C64.2625 8.86851 65.7872 10.5049 67.7855 10.5049ZM68.0964 9.35065C66.6753 9.35065 65.5799 8.22565 65.5799 6.79383C65.5799 5.3474 66.6753 4.2224 68.0964 4.2224C69.5174 4.2224 70.6128 5.3474 70.6128 6.79383C70.6128 8.22565 69.5174 9.35065 68.0964 9.35065Z" fill="black"/>
<path d="M77.2935 10.5633C79.3807 10.5633 81.0533 9.4237 81.0533 7.56818C81.0533 5.52273 79.0994 5.15747 77.6044 4.76299C76.3018 4.41234 74.9547 4.19318 74.9547 2.9513C74.9547 2.06006 75.7837 1.22727 77.1307 1.22727C78.3149 1.22727 79.0698 1.84091 79.4251 2.92208L80.6981 2.57143C80.1948 0.891234 78.9366 0 77.1159 0C75.088 0 73.5189 1.25649 73.5189 2.93669C73.5189 4.96753 75.3248 5.43506 76.8642 5.84416C78.1817 6.18019 79.6175 6.34091 79.6175 7.5974C79.6175 8.64935 78.6405 9.30682 77.3083 9.30682C76.0649 9.30682 74.9843 8.69318 74.6291 7.50974L73.2821 7.875C73.7853 9.61364 75.384 10.5633 77.2935 10.5633Z" fill="black"/>
<path d="M88.3954 5.17208C89.1504 4.7776 89.6981 4.09091 89.6981 2.9513C89.6981 1.09578 88.2622 0.175324 86.4711 0.175324H82.5189V10.4026H86.6784C88.425 10.4026 89.9645 9.46753 89.9645 7.56818C89.9645 6.31169 89.2688 5.55195 88.3954 5.17208ZM83.8955 1.35877H86.4711C87.4333 1.35877 88.351 1.78247 88.351 3.03896C88.351 4.28084 87.4629 4.70455 86.4711 4.70455H83.8955V1.35877ZM86.6488 9.21916H83.8955V5.78571H86.6488C87.5517 5.78571 88.5879 6.25325 88.5879 7.49513C88.5879 8.75162 87.5517 9.21916 86.6488 9.21916Z" fill="black"/>
<path d="M96.1895 10.5487C99.1352 10.5487 101.415 8.19643 101.415 5.28896C101.415 2.38149 99.1352 0.0292204 96.1895 0.0292204C93.229 0.0292204 90.9494 2.38149 90.9494 5.28896C90.9494 8.19643 93.229 10.5487 96.1895 10.5487ZM96.1895 9.20455C93.9987 9.20455 92.3409 7.46591 92.3409 5.28896C92.3409 3.11201 93.9987 1.37338 96.1895 1.37338C98.3655 1.37338 100.023 3.11201 100.023 5.28896C100.023 7.46591 98.3655 9.20455 96.1895 9.20455Z" fill="black"/>
<path d="M107.783 10.5487C110.728 10.5487 113.008 8.19643 113.008 5.28896C113.008 2.38149 110.728 0.0292204 107.783 0.0292204C104.822 0.0292204 102.543 2.38149 102.543 5.28896C102.543 8.19643 104.822 10.5487 107.783 10.5487ZM107.783 9.20455C105.592 9.20455 103.934 7.46591 103.934 5.28896C103.934 3.11201 105.592 1.37338 107.783 1.37338C109.959 1.37338 111.617 3.11201 111.617 5.28896C111.617 7.46591 109.959 9.20455 107.783 9.20455Z" fill="black"/>
<path d="M114.625 10.4026H116.016V2.54221L119.554 8.73701H120.649L124.187 2.5276V10.4026H125.593V0.175324H123.98L120.116 7.11526L116.223 0.175324H114.625V10.4026Z" fill="black"/>
<path d="M128.136 1.76786C128.58 1.76786 128.936 1.41721 128.936 0.978896C128.936 0.584415 128.58 0.233766 128.136 0.233766C127.707 0.233766 127.352 0.584415 127.352 0.978896C127.352 1.41721 127.707 1.76786 128.136 1.76786ZM127.5 10.4026H128.802V3.17045H127.5V10.4026Z" fill="black"/>
<path d="M25.6724 37.5501C26.3999 37.8475 27.1796 38.0003 27.967 38H31.7368C33.5269 38 35.2437 37.298 36.5094 36.0485C37.7752 34.799 38.4863 33.1042 38.4863 31.3371V6.67588C38.4859 5.80052 38.3109 4.93381 37.9712 4.12523C37.6315 3.31665 37.1338 2.58203 36.5065 1.96332C35.8793 1.34462 35.1347 0.853936 34.3153 0.519297C33.4959 0.184658 32.6178 0.0126138 31.7311 0.0129872H6.74945C4.95938 0.0129872 3.24264 0.714969 1.97687 1.9645C0.711101 3.21404 0 4.90877 0 6.67588V31.3371C0.000763692 33.1031 0.711562 34.7966 1.97627 36.0456C3.24098 37.2947 4.95618 37.9971 6.74512 37.9986H10.5078C11.2956 37.9967 12.0754 37.8414 12.8023 37.5416C12.9141 37.5002 13.0234 37.4527 13.1297 37.3992C13.5394 37.2006 13.9234 36.9539 14.2734 36.6646C15.7314 35.5242 17.7707 33.0897 18.0389 28.3132C18.2336 26.1534 16.3948 24.2386 13.9835 24.2386H11.402C8.73823 24.2386 6.54466 22.3892 6.22449 20.0045C6.21757 19.9735 6.21275 19.9421 6.21007 19.9105C6.19277 19.8194 6.19277 19.7212 6.19277 19.6258C6.18123 19.5603 6.18123 19.4934 6.18123 19.4279V19.4094C6.18123 19.3254 6.20574 19.2528 6.21728 19.1731C6.22882 19.0933 6.21728 19.015 6.22882 18.9325C6.24036 18.8499 6.25478 18.7645 6.2692 18.6876C6.28362 18.6107 6.29083 18.5296 6.30958 18.4513C6.32833 18.3729 6.35429 18.2904 6.37592 18.2149C6.39756 18.1395 6.40765 18.0669 6.4365 17.9886C6.46296 17.9167 6.49306 17.8425 6.52013 17.7757L6.52735 17.7579C6.5562 17.6867 6.58071 17.6198 6.61388 17.5444C6.64706 17.4689 6.69032 17.3906 6.72493 17.3265C6.75955 17.2625 6.78983 17.1827 6.83165 17.1201C6.87348 17.0575 6.92396 16.9806 6.96722 16.9151C7.01049 16.8496 7.0451 16.787 7.09269 16.72C7.14028 16.6531 7.19941 16.5891 7.24845 16.5278C7.29748 16.4666 7.33642 16.4111 7.39267 16.3485C7.44891 16.2858 7.5167 16.2232 7.57006 16.1676C7.62342 16.1121 7.67389 16.0651 7.73014 16.0053C7.78639 15.9455 7.87292 15.8829 7.9306 15.8359C7.98829 15.7889 8.03156 15.7391 8.10078 15.6936C8.17001 15.648 8.25365 15.5939 8.31423 15.5512C8.3748 15.5085 8.42816 15.4658 8.50171 15.4202C8.57526 15.3746 8.66324 15.3277 8.73102 15.2907C8.7988 15.2536 8.84784 15.218 8.93293 15.1768C9.018 15.1355 9.106 15.0984 9.19396 15.0614C9.25886 15.033 9.32232 15.0002 9.3901 14.9732C9.47807 14.9362 9.57903 14.9077 9.67854 14.8735C9.74055 14.8536 9.79968 14.8308 9.86314 14.8109C9.96265 14.7838 10.0636 14.7625 10.1646 14.7383C10.2338 14.7254 10.2972 14.7055 10.365 14.6913C10.4818 14.6699 10.6015 14.6557 10.7227 14.64C10.7775 14.6343 10.8294 14.6187 10.8857 14.6187C10.9794 14.6059 11.0933 14.6101 11.1741 14.6059C11.2549 14.6016 11.3342 14.593 11.4178 14.593C11.5779 14.593 11.7351 14.6044 11.8923 14.6158L12.0134 14.6272C12.1649 14.6429 12.3019 14.6628 12.4461 14.6884H12.4807C13.2363 14.8256 13.9517 15.1267 14.5752 15.5698C15.1986 16.013 15.7147 16.5872 16.0862 17.2511C15.4189 15.8697 14.3688 14.7033 13.0576 13.8869C13.2119 13.4582 13.4171 13.0491 13.6691 12.6682C13.6864 12.6383 13.7066 12.6084 13.7268 12.5799C13.7989 12.4703 13.8768 12.365 13.9561 12.2625L14.0368 12.1628C14.119 12.0617 14.2012 11.9606 14.2907 11.8667C14.3049 11.8531 14.3184 11.8389 14.331 11.824C14.5075 11.6405 14.6938 11.4666 14.8892 11.3029C14.9353 11.2659 14.9757 11.226 15.0219 11.1904C15.1041 11.1263 15.2108 11.0552 15.2728 11.0068C15.3348 10.9584 15.4011 10.9171 15.479 10.8644C15.5569 10.8117 15.6348 10.7605 15.7199 10.7106L15.9766 10.5683C16.0516 10.527 16.1266 10.4871 16.2045 10.4472L16.2202 10.4397C16.3459 10.3797 16.4684 10.3212 16.6068 10.2693C16.6688 10.2437 16.7294 10.218 16.7943 10.1938C16.9429 10.1397 17.0914 10.087 17.2472 10.0415L17.4476 9.98881C17.5716 9.95607 17.6986 9.92475 17.8284 9.89912C17.8961 9.88488 17.9682 9.87065 18.0404 9.85926C18.173 9.83648 18.3028 9.81797 18.4471 9.80231C18.5105 9.79519 18.574 9.77953 18.6374 9.77953C18.8408 9.76387 19.0355 9.75106 19.2489 9.75106C19.4624 9.75106 19.6744 9.76245 19.8835 9.78096C19.9455 9.78665 20.0205 9.79804 20.0897 9.80658C20.2282 9.82367 20.3652 9.84075 20.5022 9.86495C20.5815 9.87777 20.6594 9.8977 20.7373 9.91621C20.8598 9.94041 20.9795 9.96888 21.1007 10.0016C21.18 10.023 21.2608 10.0486 21.3401 10.0742C21.454 10.1084 21.5651 10.1483 21.6761 10.1881L21.6944 10.195C21.7672 10.2224 21.8381 10.2491 21.9126 10.2807C22.0194 10.3253 22.1246 10.3727 22.2285 10.423C22.3078 10.4572 22.3785 10.4956 22.452 10.5327C22.5544 10.5868 22.6554 10.6437 22.7549 10.7021C22.8241 10.7434 22.8933 10.7832 22.9611 10.8259C23.0621 10.89 23.1587 10.9612 23.2568 11.0324C23.3173 11.0751 23.3779 11.1164 23.437 11.1619C23.5466 11.2474 23.649 11.3385 23.7529 11.4282C23.7947 11.4623 23.8351 11.4965 23.8755 11.5335C24.0146 11.6615 24.1469 11.7965 24.2721 11.9379C24.3096 11.9806 24.3442 12.0261 24.3802 12.0688C24.4653 12.1685 24.5504 12.271 24.6297 12.3778C24.6759 12.439 24.7163 12.5016 24.7595 12.5643C24.823 12.6597 24.8864 12.7508 24.9456 12.849C24.9888 12.9174 25.0263 12.99 25.0667 13.0597C25.1129 13.1537 25.1763 13.2676 25.2109 13.3445C25.2455 13.4213 25.2802 13.4982 25.3119 13.5737C25.3537 13.6719 25.3926 13.7701 25.4287 13.8698C25.4575 13.9467 25.4763 14.0136 25.508 14.1076C25.5397 14.2015 25.5643 14.2955 25.5888 14.3923L25.5974 14.4165C25.6162 14.4991 25.6364 14.5802 25.6537 14.6628C25.8745 15.7094 25.7859 16.7966 25.3984 17.7949C26.0156 16.84 26.3847 15.7495 26.4728 14.6201C26.7012 14.5947 26.9309 14.5828 27.1608 14.5845C30.0235 14.6286 32.3325 16.8411 32.2964 19.4777C32.2604 22.1144 29.9384 24.25 27.0757 24.25H24.497C22.0814 24.25 20.2426 26.1563 20.4373 28.3217C20.7026 33.0982 22.7477 35.5327 24.2014 36.6717C24.551 36.9626 24.9356 37.2098 25.3465 37.4077C25.4525 37.4609 25.5613 37.5085 25.6724 37.5501Z" fill="black"/>
</svg>
