<svg width="208" height="24" viewBox="0 0 208 24" fill="none" xmlns="http://www.w3.org/2000/svg">
<path d="M24.0357 4.22553V19.7771C24.0324 20.8893 23.5914 21.9549 22.8092 22.7402C22.0271 23.5255 20.9677 23.9665 19.8632 23.9665H17.5352C17.0487 23.9667 16.5669 23.8709 16.1171 23.6843C16.0486 23.6563 15.9815 23.6246 15.9163 23.5895C15.6631 23.4648 15.4259 23.3097 15.2097 23.1276C14.3098 22.4085 13.0454 20.8806 12.8818 17.8622C12.7628 16.499 13.8982 15.2931 15.3882 15.2931H16.9824C18.75 15.2931 20.188 13.9499 20.2053 12.2972C20.2227 10.6444 18.817 9.23628 17.0344 9.20882C16.8926 9.208 16.751 9.21717 16.6105 9.23628C16.5556 9.94696 16.3273 10.633 15.9461 11.2336C16.1842 10.6047 16.2392 9.92051 16.1047 9.26125L16.0675 9.10646C16.0686 9.10152 16.0686 9.09641 16.0675 9.09148C16.0527 9.02906 16.0378 8.97164 16.0179 8.91172C16.0044 8.86001 15.9879 8.80915 15.9684 8.75942C15.9476 8.69661 15.9236 8.63494 15.8965 8.57467C15.8766 8.52474 15.8568 8.4773 15.8345 8.42987C15.8122 8.38243 15.775 8.31003 15.7428 8.25011C15.7105 8.19019 15.6957 8.15773 15.6684 8.11529C15.6411 8.07285 15.5915 7.99545 15.5519 7.93803C15.5122 7.8806 15.5023 7.85814 15.4725 7.81819C15.4428 7.77824 15.3709 7.68836 15.3188 7.62345L15.2519 7.54106C15.1742 7.45297 15.0914 7.3696 15.004 7.2914L14.9271 7.22399C14.8651 7.16657 14.8007 7.11164 14.7337 7.05671L14.6197 6.97433L14.4387 6.8445L14.3098 6.7671L14.1238 6.65975L13.985 6.58984L13.7867 6.48998C13.7371 6.46751 13.69 6.45003 13.6429 6.43255L13.4346 6.36015C13.385 6.34184 13.3354 6.32686 13.2859 6.31521C13.2116 6.29309 13.1363 6.27476 13.0603 6.26029C13.0127 6.25103 12.9647 6.24436 12.9165 6.24031C12.8322 6.22533 12.7479 6.21535 12.6685 6.20286C12.6264 6.20286 12.5843 6.19038 12.5396 6.18788C12.4132 6.1754 12.2917 6.16791 12.1504 6.16791C12.0091 6.16791 11.9025 6.16791 11.7711 6.18539L11.6545 6.20037C11.5703 6.20037 11.4835 6.22284 11.4066 6.23782C11.3624 6.24349 11.3185 6.25183 11.2752 6.26278C11.1959 6.27776 11.1166 6.29774 11.0273 6.31771C10.9876 6.31771 10.9455 6.33768 10.9033 6.35266C10.8084 6.38025 10.7149 6.41275 10.6232 6.45003C10.5835 6.46251 10.5463 6.47999 10.5092 6.49497C10.4249 6.52992 10.3406 6.56737 10.2612 6.60732L10.1199 6.68472L9.96125 6.77459C9.90919 6.80455 9.8596 6.83701 9.8125 6.86947L9.68358 6.96184C9.634 6.99679 9.57945 7.03424 9.52987 7.07669L9.44806 7.14909C9.3267 7.25097 9.21162 7.36019 9.10345 7.47615L9.07865 7.50361C9.02163 7.56353 8.97205 7.62595 8.91999 7.68836L8.8704 7.75328C8.82082 7.81819 8.77371 7.8831 8.72909 7.95301L8.6919 8.00793C8.5369 8.24856 8.41042 8.50664 8.31506 8.7769C9.12537 9.29221 9.77431 10.0279 10.1869 10.899C9.95767 10.4791 9.63852 10.1159 9.25259 9.8356C8.86665 9.55534 8.42359 9.36511 7.95557 9.27872H7.93326C7.84897 9.26374 7.75972 9.25126 7.67047 9.24127H7.59609C7.4994 9.24127 7.40271 9.24127 7.30354 9.24127C7.25148 9.24127 7.2019 9.24127 7.15231 9.24127C7.10273 9.24127 7.03083 9.24127 6.97381 9.24127C6.91679 9.24127 6.90687 9.24127 6.87216 9.25625C6.79779 9.25625 6.72341 9.27373 6.65151 9.28621L6.53003 9.31617L6.34161 9.36361L6.22757 9.40356C6.16559 9.42353 6.10361 9.441 6.04411 9.46597L5.92263 9.5209L5.76396 9.5933C5.71933 9.61577 5.67966 9.64074 5.63752 9.6657L5.4962 9.74809C5.45654 9.77306 5.41935 9.80302 5.37968 9.83048C5.34001 9.85794 5.29043 9.8904 5.24828 9.92286C5.20614 9.95531 5.17886 9.98278 5.14416 10.0152C5.10945 10.0477 5.05738 10.0826 5.0202 10.1201L4.92103 10.2225C4.88632 10.2574 4.84665 10.2974 4.81194 10.3373C4.77723 10.3772 4.75244 10.4122 4.72269 10.4521C4.69294 10.4921 4.65575 10.5295 4.626 10.572C4.59625 10.6144 4.57394 10.6519 4.54667 10.6943C4.5194 10.7368 4.48965 10.7792 4.46485 10.8241C4.44006 10.8691 4.42023 10.9115 4.39792 10.954C4.3756 10.9964 4.35081 11.0438 4.3285 11.0913C4.30618 11.1387 4.29379 11.1812 4.27643 11.2236C4.25908 11.266 4.23677 11.321 4.21941 11.3709C4.20206 11.4208 4.19462 11.4658 4.18222 11.5132C4.16983 11.5607 4.15247 11.6131 4.14256 11.6655C4.13168 11.7141 4.12341 11.7633 4.11776 11.8128C4.1069 11.864 4.09862 11.9156 4.09297 11.9676C4.09297 12.02 4.09297 12.0675 4.09297 12.1174C4.09297 12.1673 4.09297 12.2223 4.09297 12.2722C4.09297 12.3121 4.09297 12.3546 4.09297 12.397C4.09297 12.4395 4.09297 12.5194 4.10537 12.5793C4.10418 12.5992 4.10418 12.6192 4.10537 12.6392C4.30371 14.1372 5.65983 15.3081 7.30602 15.3081H8.90015C10.3877 15.3081 11.5256 16.514 11.4066 17.8771C11.2405 20.8881 9.97613 22.4235 9.07865 23.1426C8.86252 23.3247 8.62527 23.4798 8.37208 23.6044C8.306 23.6396 8.23814 23.6713 8.16879 23.6993C7.71698 23.8804 7.23446 23.9712 6.7482 23.9665H4.42023C3.31576 23.9665 2.25634 23.5255 1.4742 22.7402C0.692057 21.9549 0.251008 20.8893 0.247726 19.7771V4.22553C0.248383 3.11133 0.688196 2.04296 1.47055 1.2551C2.2529 0.467249 3.31381 0.0243431 4.42023 0.0236816H19.8632C20.9696 0.0243431 22.0305 0.467249 22.8129 1.2551C23.5952 2.04296 24.035 3.11133 24.0357 4.22553ZM32.0559 20.1691H43.5272V17.1057H35.4698V13.4331H43.3611V10.4621H35.4698V6.86198H43.5272V3.8011H32.0559V20.1691ZM50.4244 20.1691H53.8382V9.34114L60.8965 20.1691H64.7517V3.8011H61.3378V14.6515L54.2696 3.8011H50.4244V20.1691ZM76.3866 20.1691H79.8054V6.81704H85.0762V3.8011H71.1282V6.81704H76.399L76.3866 20.1691ZM91.4577 20.1691H102.929V17.1057H94.8715V13.4331H102.765V10.4621H94.8715V6.86198H102.929V3.8011H91.4577V20.1691ZM122.76 20.1691L119.416 13.9025C121.134 13.1061 122.391 11.4708 122.391 9.13142C122.391 5.74099 119.79 3.7986 116.887 3.7986H109.826V20.1691H113.193V14.4268H116.235L119.021 20.1691H122.76ZM113.193 6.81704H116.537C118 6.81704 118.974 7.79822 118.974 9.17886C118.974 10.5595 118 11.4833 116.537 11.4833H113.193V6.81704ZM129.285 20.1691H132.652V14.5791H136.066C138.969 14.5791 141.57 12.6392 141.57 9.17886C141.57 5.71852 138.969 3.7986 136.066 3.7986H129.285V20.1691ZM132.652 11.6331V6.73964H135.835C137.298 6.73964 138.275 7.7383 138.275 9.17137C138.275 10.6044 137.296 11.6331 135.835 11.6331H132.652ZM161.099 20.1691L157.754 13.9025C159.472 13.1086 160.729 11.4708 160.729 9.13142C160.729 5.74099 158.128 3.8011 155.225 3.8011H148.165V20.1691H151.531V14.4268H154.573L157.36 20.1691H161.099ZM151.531 6.81704H154.876C156.338 6.81704 157.313 7.79822 157.313 9.17886C157.313 10.5595 156.338 11.4833 154.876 11.4833H151.531V6.81704ZM167.463 20.1691H170.877V3.8011H167.463V20.1691ZM183.694 20.4187C187.105 20.4187 189.8 18.4214 189.8 15.3456C189.8 12.025 186.734 11.2511 184.552 10.6444C182.787 10.1451 181.081 9.84796 181.081 8.46981C181.081 7.48614 181.988 6.57486 183.52 6.57486C184.914 6.57486 185.752 7.27642 186.143 8.51475L189.255 7.60348C188.476 4.99199 186.456 3.51898 183.461 3.51898C180.164 3.51898 177.585 5.62364 177.585 8.4773C177.585 11.7229 180.325 12.7091 182.648 13.3183C184.458 13.7852 186.245 14.0198 186.245 15.4454C186.245 16.5215 185.253 17.2929 183.714 17.2929C182.276 17.2929 181.069 16.5439 180.672 15.2357L177.375 16.1694C178.165 18.8134 180.558 20.4262 183.684 20.4262L183.694 20.4187ZM196.278 20.1691H207.75V17.1057H199.692V13.4331H207.589V10.4621H199.692V6.86198H207.75V3.8011H196.278V20.1691Z" fill="black"/>
</svg>
