<svg width="61" height="56" viewBox="0 0 61 56" fill="none" xmlns="http://www.w3.org/2000/svg">
<path fill-rule="evenodd" clip-rule="evenodd" d="M25.9098 4.47969C23.3488 6.93638 21.22 9.04703 21.1793 9.17011C21.1267 9.32902 22.0943 9.39366 24.5264 9.39366H27.9472L27.8267 16.2484C27.6949 23.7341 27.4897 27.1697 26.8726 32.2093C25.6589 42.1245 23.5959 47.9015 19.1286 53.8948L17.615 55.9256L24.1403 55.9782C27.7293 56.0073 33.602 56.0073 37.191 55.9782L43.7163 55.9256L42.2027 53.8948C39.4064 50.1434 37.8136 47.0089 36.5336 42.7385C34.6295 36.3866 33.727 28.5444 33.5087 16.4533L33.3815 9.40307L36.9061 9.34843L40.431 9.2936L35.5557 4.6404C32.8744 2.08125 30.6549 -0.00698724 30.6234 1.75715e-05C30.592 0.00722252 28.471 2.02301 25.9098 4.47969ZM9.9315 21.8522L5.47535 26.1051L8.47344 26.1606L11.4715 26.216L11.3568 29.8631C11.1508 36.4124 10.1816 41.344 8.14197 46.2189C6.50072 50.1422 3.51176 53.8276 0.626811 55.4853L0 55.8453L0.595449 55.7295C1.71688 55.5111 5.55673 53.4853 7.15571 52.2685C12.2293 48.407 15.629 42.5902 16.9576 35.4968C17.3935 33.1694 17.7597 29.5135 17.7625 27.4613L17.7642 26.2156L20.7264 26.1604L23.6888 26.1051L19.2269 21.8522C16.7728 19.5132 14.6802 17.5993 14.5764 17.5993C14.4726 17.5993 12.3826 19.5132 9.9315 21.8522ZM42.0951 21.8522L37.6245 26.1051L40.5958 26.1604L43.567 26.2156L43.569 27.4613C43.5724 29.4702 43.9581 33.3563 44.364 35.4722C46.0775 44.4035 50.793 51.0254 57.9315 54.5246C60.5401 55.8033 61.9478 56.2272 60.2763 55.2307C59.6962 54.8849 58.6184 53.9991 57.8814 53.2624C53.0013 48.3848 50.3327 40.513 49.9826 29.9632L49.8582 26.216L52.864 26.1606L55.8698 26.1051L51.4043 21.8522C48.9483 19.5132 46.8549 17.5993 46.7523 17.5993C46.6497 17.5993 44.5539 19.5132 42.0951 21.8522Z" fill="black"/>
</svg>
