<svg width="55" height="55" viewBox="0 0 55 55" fill="none" xmlns="http://www.w3.org/2000/svg">
<path fill-rule="evenodd" clip-rule="evenodd" d="M34.1935 0.444811C33.6712 0.7354 33.2489 1.18567 32.9551 1.76468C32.5185 2.62502 32.5092 2.78529 32.5092 9.39372V16.1441L25.5242 16.2026C17.7848 16.2677 17.7661 16.2707 16.8209 17.5892C16.3608 18.2309 16.3592 18.2549 16.3028 25.3793L16.2463 32.5257H9.29831C1.51075 32.5257 1.38849 32.5448 0.483503 33.9055L0 34.6322L0.0552856 43.8798C0.108392 52.7697 0.125829 53.148 0.506885 53.6663C0.724857 53.963 1.26583 54.3843 1.7089 54.6028C2.50371 54.9947 2.85286 55 27.6405 55C52.676 55 52.769 54.9986 53.4869 54.5923C53.8832 54.3682 54.3857 53.9469 54.6037 53.6559C54.9952 53.1334 55 52.8194 55 27.4985C55 2.18105 54.9952 1.86345 54.6037 1.33077C54.3857 1.03407 53.8447 0.612776 53.4017 0.394342C52.6302 0.0140532 52.222 -0.00270409 43.7911 0.000253058C35.0456 0.00360449 34.9808 0.00656259 34.1935 0.444811ZM48.9562 11.6285V16.9514H43.9032H38.8502V11.6285V6.30568H43.9032H48.9562V11.6285ZM48.8571 27.4985V33.2157L43.4574 33.2681L38.0576 33.3206V27.4985V21.6765L43.4574 21.729L48.8571 21.7814V27.4985ZM33.3018 27.8928V33.3143H27.9516H22.6014V27.8928V22.4714H27.9516H33.3018V27.8928ZM33.3018 43.3686V48.6914H27.5553H21.8087V43.3686V38.0457H27.5553H33.3018V43.3686ZM48.9562 43.3686V48.6914H43.5069H38.0576V43.3686V38.0457H43.5069H48.9562V43.3686ZM17.053 43.7628V48.6914H11.6037H6.15435V43.7628V38.8343H11.6037H17.053V43.7628Z" fill="black"/>
</svg>
