<svg width="44" height="55" viewBox="0 0 44 55" fill="none" xmlns="http://www.w3.org/2000/svg">
<path d="M42.511 13.6661L38.4545 16.0061C38.2294 16.136 37.9618 16.1711 37.7108 16.1039C37.4597 16.0367 37.2456 15.8726 37.1157 15.6477C36.9857 15.4228 36.9505 15.1555 37.0178 14.9047C37.085 14.6538 37.2493 14.4399 37.4744 14.3101L41.5309 11.9701C41.756 11.8402 42.0235 11.805 42.2746 11.8722C42.5257 11.9394 42.7397 12.1036 42.8697 12.3285C42.9997 12.5534 43.0349 12.8206 42.9676 13.0715C42.9003 13.3224 42.7361 13.5362 42.511 13.6661Z" fill="black"/>
<path d="M5.52661 35.002L1.47008 37.342C1.24498 37.4718 0.977474 37.507 0.726406 37.4398C0.475337 37.3726 0.261273 37.2085 0.131303 36.9836C0.00134305 36.7587 -0.0338758 36.4914 0.0333944 36.2406C0.100665 35.9897 0.264914 35.7758 0.49001 35.646L4.54654 33.306C4.77164 33.1761 5.03915 33.141 5.29022 33.2082C5.54128 33.2754 5.75535 33.4395 5.88532 33.6644C6.01528 33.8893 6.0505 34.1566 5.98323 34.4074C5.91596 34.6583 5.75171 34.8722 5.52661 35.002Z" fill="black"/>
<path d="M1.47008 11.97L5.52661 14.3101C5.75171 14.4399 5.91596 14.6538 5.98323 14.9047C6.0505 15.1555 6.01528 15.4228 5.88532 15.6477C5.75535 15.8726 5.54128 16.0367 5.29022 16.1039C5.03915 16.1711 4.77164 16.1359 4.54654 16.0061L0.49001 13.6661C0.264914 13.5363 0.100665 13.3224 0.0333944 13.0715C-0.0338758 12.8207 0.00134305 12.5534 0.131303 12.3285C0.261263 12.1036 0.475322 11.9395 0.726392 11.8722C0.977461 11.805 1.24498 11.8402 1.47008 11.97Z" fill="black"/>
<path d="M38.4545 33.306L42.511 35.646C42.7361 35.7759 42.9003 35.9898 42.9676 36.2406C43.0349 36.4915 42.9997 36.7587 42.8697 36.9836C42.7397 37.2086 42.5257 37.3727 42.2746 37.4399C42.0235 37.5071 41.756 37.4719 41.5309 37.342L37.4744 35.002C37.2493 34.8722 37.085 34.6583 37.0178 34.4074C36.9505 34.1566 36.9857 33.8893 37.1157 33.6644C37.2456 33.4395 37.4597 33.2754 37.7108 33.2082C37.9618 33.141 38.2294 33.1761 38.4545 33.306Z" fill="black"/>
<path d="M14.8555 45.4141V48.2278C14.8629 49.9835 15.5661 51.6647 16.8112 52.9035C18.0564 54.1424 19.742 54.8379 21.4992 54.8379C23.2564 54.8379 24.942 54.1424 26.1872 52.9035C27.4323 51.6647 28.1355 49.9835 28.1429 48.2278V45.4141H14.8555ZM23.3664 50.1558H19.6319C19.3719 50.1558 19.1227 50.0526 18.9389 49.869C18.7551 49.6853 18.6518 49.4362 18.6518 49.1765C18.6518 48.9168 18.7551 48.6678 18.9389 48.4841C19.1227 48.3005 19.3719 48.1973 19.6319 48.1973H23.3665C23.6264 48.1973 23.8757 48.3005 24.0595 48.4841C24.2433 48.6678 24.3466 48.9168 24.3466 49.1765C24.3466 49.4362 24.2433 49.6853 24.0595 49.869C23.8757 50.0526 23.6264 50.1558 23.3665 50.1558H23.3664Z" fill="black"/>
<path d="M21.5027 9.27246C18.7845 9.27132 16.1228 10.048 13.8325 11.5106C11.5422 12.9733 9.719 15.0607 8.57862 17.526C7.43823 19.9913 7.02835 22.7313 7.39744 25.422C7.76653 28.1127 8.89916 30.6415 10.6614 32.7094C13.1935 35.7361 14.6547 39.5133 14.8182 43.4547H28.1872C28.3507 39.5133 29.8119 35.7361 32.344 32.7094C34.1063 30.6415 35.2389 28.1127 35.608 25.422C35.9771 22.7313 35.5672 19.9913 34.4268 17.526C33.2864 15.0607 31.4632 12.9733 29.1729 11.5106C26.8826 10.048 24.2209 9.27132 21.5027 9.27246ZM28.4226 20.6225L20.582 28.4564C20.4455 28.5928 20.2835 28.701 20.1051 28.7749C19.9268 28.8487 19.7356 28.8867 19.5426 28.8867C19.3495 28.8867 19.1583 28.8487 18.98 28.7749C18.8017 28.701 18.6396 28.5928 18.5031 28.4564L14.5828 24.5395C14.3088 24.2637 14.1554 23.8907 14.1561 23.5021C14.1568 23.1135 14.3116 22.741 14.5866 22.4662C14.8616 22.1914 15.2344 22.0368 15.6234 22.036C16.0123 22.0353 16.3857 22.1887 16.6617 22.4624L19.5426 25.3408L26.3437 18.5455C26.6198 18.2717 26.9931 18.1184 27.382 18.1191C27.771 18.1198 28.1438 18.2745 28.4188 18.5493C28.6938 18.8241 28.8486 19.1965 28.8493 19.5851C28.85 19.9737 28.6966 20.3468 28.4226 20.6225Z" fill="black"/>
<path d="M22.4836 0.97923V5.65925C22.4836 5.91895 22.3803 6.16803 22.1965 6.35167C22.0127 6.53531 21.7634 6.63848 21.5035 6.63848C21.2436 6.63848 20.9943 6.53531 20.8105 6.35167C20.6267 6.16803 20.5234 5.91895 20.5234 5.65925V0.97923C20.5234 0.719522 20.6267 0.470451 20.8105 0.28681C20.9943 0.103169 21.2436 0 21.5035 0C21.7634 0 22.0127 0.103169 22.1965 0.28681C22.3803 0.470451 22.4836 0.719522 22.4836 0.97923Z" fill="black"/>
</svg>
