<svg width="50" height="48" viewBox="0 0 50 48" fill="none" xmlns="http://www.w3.org/2000/svg">
<path fill-rule="evenodd" clip-rule="evenodd" d="M24.3598 0.132985C23.7114 0.468434 23.5382 0.989078 23.5891 2.45079C23.6316 3.67791 23.6678 3.80291 24.0849 4.15821C24.66 4.64804 25.3361 4.64804 25.9112 4.15821C26.346 3.78782 26.3612 3.72317 26.3612 2.25654C26.3612 0.949211 26.3167 0.694131 26.04 0.42015C25.6205 0.00465091 24.8592 -0.125431 24.3598 0.132985ZM7.75822 7.20869C6.92285 7.37975 6.44591 8.26539 6.77403 9.03603C7.03255 9.64324 8.50699 11.0459 8.91401 11.0718C9.9638 11.1386 10.5647 10.6558 10.5647 9.74568C10.5647 9.2217 10.4417 8.99982 9.75035 8.27571C8.92027 7.40644 8.33171 7.09116 7.75822 7.20869ZM41.4188 7.31924C41.1636 7.42645 40.6123 7.87864 40.1932 8.324C39.5567 9.00077 39.4315 9.23489 39.4315 9.74838C39.4315 10.6556 40.0336 11.1385 41.0821 11.0718C41.4892 11.0459 42.9636 9.64324 43.2221 9.03603C43.697 7.92057 42.5609 6.8391 41.4188 7.31924ZM22.1871 11.2862C20.7508 11.613 19.125 12.2552 17.8616 12.9947C15.5963 14.3208 12.5709 17.8736 12.6847 19.0744L12.7297 19.5509L14.0127 19.6351C15.5867 19.7385 16.6051 20.1883 17.3615 21.1144C17.6581 21.4775 18.423 22.7989 19.0616 24.0508C20.338 26.5535 20.7102 26.9357 21.8709 26.9349C22.64 26.9342 23.0061 26.7012 24.3633 25.3482C26.028 23.6889 27.2694 23.3583 27.8682 24.4152C28.0637 24.7602 28.0684 24.9092 27.8961 25.3212C27.7826 25.5923 27.547 25.859 27.3724 25.9139C27.1977 25.9687 26.4193 26.6104 25.6423 27.3396C23.9632 28.9156 23.388 29.202 21.8709 29.2174C19.6507 29.2401 18.5561 28.3049 16.8437 24.9217C16.2329 23.7149 15.5984 22.6074 15.4339 22.4606C14.965 22.0423 14.2253 21.8237 13.644 21.9317C13.0469 22.0428 11.9468 22.9503 11.5967 23.6209C11.0194 24.7267 11.5779 28.3272 12.6553 30.4431C13.7465 32.5865 15.4175 34.529 17.2389 35.7714C18.2327 36.4493 18.8977 36.6163 20.6217 36.6213C21.7671 36.6246 21.9812 36.6703 22.2655 36.9728C22.699 37.4334 22.6804 38.0763 22.2214 38.5034C21.9249 38.7791 21.6553 38.8487 20.8831 38.8487C19.6162 38.8487 19.3851 39.0863 19.3851 40.3884C19.3851 41.1179 19.4646 41.4472 19.7176 41.7656L20.0498 42.1841H24.9817H29.9136L30.2624 41.8166C30.5479 41.5156 30.6111 41.2585 30.6111 40.3984C30.6111 39.0426 30.4281 38.8487 29.149 38.8487C28.3457 38.8487 28.1274 38.7858 27.7974 38.4588C27.355 38.0209 27.292 37.4724 27.6311 37.0128C27.8256 36.7491 28.1232 36.6918 29.6888 36.617C31.7478 36.5185 32.0023 36.4173 33.7769 34.9928C35.686 33.4606 37.3195 31.0147 38.1498 28.4453C38.6973 26.7514 38.7832 23.3799 38.3271 21.4884C37.6741 18.7793 36.3472 16.5377 34.2672 14.6299C32.791 13.2758 31.1929 12.3459 29.2028 11.6828C27.7871 11.2109 27.4384 11.1588 25.399 11.1148C23.8936 11.0822 22.8353 11.1386 22.1871 11.2862ZM0.820902 23.3618C-0.0989847 23.7578 -0.27844 24.7988 0.449002 25.5192C0.894833 25.9608 0.985604 25.9835 2.30562 25.9835C3.62563 25.9835 3.7164 25.9608 4.16223 25.5192C4.93121 24.7576 4.73812 23.7619 3.74126 23.3493C3.0499 23.0632 1.49927 23.0699 0.820902 23.3618ZM46.2198 23.3561C45.2558 23.7713 45.0776 24.7702 45.8339 25.5192C46.2798 25.9608 46.3705 25.9835 47.6905 25.9835C49.0106 25.9835 49.1013 25.9608 49.5472 25.5192C50.2895 24.784 50.0951 23.7503 49.14 23.3552C48.4422 23.0663 46.8911 23.0669 46.2198 23.3561ZM32.9437 23.8321C33.3792 24.2634 33.4291 24.5612 33.1529 25.0807C32.9034 25.5504 32.7055 25.6606 32.1062 25.6634C31.4479 25.6665 30.8677 24.9992 31.0097 24.402C31.2323 23.4667 32.2669 23.1617 32.9437 23.8321ZM19.8561 45.0192C19.5628 45.2545 19.4873 45.4789 19.4775 46.1445C19.4669 46.8664 19.5246 47.0267 19.9153 47.3596L20.3653 47.7432H24.9981H29.6309L30.0809 47.3599C30.4661 47.0316 30.5309 46.8582 30.5309 46.1546C30.5309 45.4824 30.4619 45.2773 30.1522 45.0291C29.7985 44.7453 29.4612 44.7254 24.9981 44.7254C20.5906 44.7254 20.1942 44.7481 19.8561 45.0192Z" fill="black"/>
</svg>
