<svg width="158" height="25" viewBox="0 0 158 25" fill="none" xmlns="http://www.w3.org/2000/svg">
<path d="M24.2577 4.32782V19.8794C24.257 20.9934 23.8189 22.0615 23.0396 22.8489C22.2603 23.6364 21.2037 24.0787 20.102 24.0787H17.7859C17.3013 24.0795 16.8213 23.9837 16.3735 23.7966C16.3044 23.7686 16.2368 23.7369 16.171 23.7017C15.9188 23.5771 15.6825 23.422 15.4673 23.2399C14.5709 22.5208 13.3141 20.9929 13.1487 17.9745C13.0302 16.6138 14.1611 15.4054 15.6451 15.4054H17.2328C18.9958 15.4054 20.4254 14.0622 20.4427 12.4094C20.46 10.7567 19.0476 9.33858 17.2871 9.31111C17.1452 9.30857 17.0032 9.31608 16.8624 9.33358C16.8073 10.0442 16.58 10.7301 16.2006 11.3309C16.4379 10.7012 16.4927 10.0161 16.3587 9.35605C16.3587 9.30362 16.3364 9.25369 16.3241 9.20126V9.18628C16.3093 9.12636 16.292 9.06644 16.2747 9.00652C16.2574 8.9466 16.2426 8.90666 16.2253 8.85673C16.208 8.80679 16.1784 8.73189 16.1512 8.66948C16.1241 8.60706 16.1117 8.57211 16.0895 8.52467C16.0673 8.47724 16.0302 8.40483 15.9981 8.34491C15.966 8.28499 15.9512 8.25254 15.9241 8.2101L15.8105 8.03283C15.7833 7.99289 15.7586 7.95294 15.729 7.91549C15.6994 7.87804 15.6278 7.78317 15.5759 7.71826C15.5537 7.69079 15.5339 7.66333 15.5092 7.63587C15.4313 7.54837 15.3489 7.46504 15.2623 7.3862L15.1882 7.3188L14.9932 7.15152L14.8821 7.07163C14.8228 7.02669 14.7611 6.98175 14.6993 6.9418L14.5709 6.86191L14.3858 6.75455C14.3413 6.73208 14.2944 6.70712 14.2475 6.68715C14.2006 6.66717 14.1191 6.62473 14.0549 6.59727C13.9907 6.5698 13.9586 6.55732 13.9092 6.53984L13.7018 6.46744C13.6524 6.45246 13.603 6.43498 13.5536 6.4225C13.4797 6.40038 13.4047 6.38205 13.3289 6.36758C13.2818 6.35412 13.234 6.34329 13.1857 6.33512C13.1018 6.32014 13.0178 6.31015 12.9388 6.29767C12.8968 6.29767 12.8548 6.28519 12.8129 6.28269C12.6845 6.27021 12.5659 6.26272 12.4227 6.26272C12.2795 6.26272 12.1758 6.26272 12.0449 6.28019L11.9289 6.29517C11.8449 6.30516 11.7626 6.31764 11.682 6.33262C11.64 6.33262 11.5955 6.3476 11.5511 6.35759C11.5067 6.36758 11.3955 6.39254 11.3165 6.41252L11.1931 6.44747C11.0992 6.47493 11.0079 6.50988 10.914 6.54484L10.8005 6.58978C10.7165 6.62473 10.6326 6.66218 10.5535 6.70213L10.4128 6.77952L10.2548 6.8694C10.2029 6.90186 10.156 6.93182 10.1066 6.96677C10.0572 7.00172 10.0202 7.02419 9.98068 7.05665L9.82512 7.17149L9.74364 7.2439C9.62334 7.34641 9.50875 7.4556 9.40042 7.57096L9.37573 7.59842C9.31893 7.65834 9.26955 7.72075 9.2177 7.78567L9.16831 7.84808C9.1214 7.913 9.07201 7.98041 9.02757 8.04781L8.993 8.10274C8.8349 8.3431 8.70481 8.60113 8.60533 8.8717C9.40923 9.38494 10.0537 10.117 10.4646 10.9839C10.2362 10.5641 9.91835 10.2009 9.53399 9.92064C9.14963 9.64039 8.70843 9.4501 8.24236 9.36354H8.22014C8.13371 9.34607 8.04729 9.33358 7.95593 9.3236H7.88185C7.78556 9.3236 7.68926 9.31111 7.59049 9.31111C7.53863 9.31111 7.48925 9.31111 7.43987 9.31111H7.26208L7.16085 9.32609C7.08677 9.32609 7.01269 9.34357 6.94109 9.35605L6.82009 9.38851C6.75836 9.38851 6.69416 9.41597 6.63243 9.43345L6.51885 9.4734C6.45959 9.49337 6.39539 9.51085 6.3386 9.53581L6.21761 9.59074C6.16329 9.6157 6.10896 9.63817 6.05711 9.66564L5.93118 9.73554L5.79043 9.81793C5.75093 9.8429 5.71389 9.87286 5.67438 9.90032C5.63487 9.92778 5.58549 9.96024 5.54351 9.9927L5.43981 10.0851C5.39783 10.12 5.35585 10.1525 5.31635 10.1899L5.21758 10.2923C5.18548 10.3272 5.1435 10.3672 5.10893 10.4071C5.07436 10.4471 5.04967 10.482 5.02004 10.522C4.99041 10.5619 4.95337 10.5994 4.92374 10.6418C4.89411 10.6843 4.87189 10.7242 4.8472 10.7642C4.8225 10.8041 4.78793 10.849 4.76324 10.894C4.73855 10.9389 4.7188 10.9814 4.69657 11.0238C4.67435 11.0663 4.64966 11.1137 4.62744 11.1611C4.60521 11.2086 4.59287 11.251 4.57558 11.2959C4.5583 11.3409 4.53608 11.3908 4.51879 11.4407C4.50151 11.4907 4.4941 11.5356 4.48175 11.5831C4.46941 11.6305 4.45212 11.6829 4.44224 11.7354C4.43141 11.784 4.42317 11.8331 4.41755 11.8827C4.40673 11.9338 4.39849 11.9855 4.39286 12.0374C4.39286 12.0899 4.39286 12.1373 4.39286 12.1872C4.39286 12.2372 4.39286 12.2921 4.39286 12.342C4.39286 12.382 4.39286 12.4269 4.39286 12.4669C4.39286 12.5068 4.39286 12.5892 4.40521 12.6491C4.40378 12.6766 4.40461 12.7042 4.40768 12.7315C4.60521 14.2295 5.95587 15.4004 7.59543 15.4004H9.18313C10.6647 15.4004 11.798 16.6088 11.6795 17.9695C11.5116 20.9854 10.2523 22.5208 9.3461 23.2399C9.13084 23.422 8.89454 23.5771 8.64237 23.7017C8.57679 23.7374 8.50918 23.7691 8.4399 23.7966C7.99282 23.9834 7.51372 24.0793 7.02998 24.0787H4.72127C3.61977 24.0787 2.56338 23.6363 1.7845 22.8488C1.00562 22.0612 0.568054 20.9931 0.568054 19.8794V19.8794V4.32782C0.568054 3.21386 1.00554 2.14548 1.78435 1.35755C2.56316 0.569624 3.61954 0.126638 4.72127 0.125977H20.102C21.2039 0.126638 22.2606 0.569543 23.0398 1.3574C23.819 2.14525 24.257 3.21363 24.2577 4.32782V4.32782ZM40.7322 11.3184V13.87H43.9002V15.0409C43.1842 16.3966 41.7273 17.2379 39.7371 17.2379C36.8704 17.2379 34.7987 15.0409 34.7987 12.0924C34.7987 9.30862 36.7889 7.09909 39.6334 7.09909C40.4423 7.07199 41.2434 7.2665 41.9519 7.66205C42.6604 8.0576 43.25 8.63947 43.6582 9.34607L46.7793 7.66333C45.4385 5.27654 43.1496 3.68618 39.6557 3.68618C37.4751 3.68353 35.3824 4.55548 33.8368 6.11077C32.2912 7.66606 31.4188 9.77771 31.411 11.9825V12.1024C31.411 16.7561 34.9493 20.521 39.668 20.521C43.3002 20.521 46.3744 18.651 47.3472 15.1657V11.3209L40.7322 11.3184ZM67.0515 20.2789L63.7206 14.0123C65.4342 13.2159 66.6836 11.5781 66.6836 9.24121C66.6836 5.85077 64.0934 3.90839 61.202 3.90839H54.1697V20.2789H57.5229V14.5366H60.5526L63.328 20.2789H67.0515ZM57.5229 6.92433H60.8538C62.3107 6.92433 63.2835 7.908 63.2835 9.28615C63.2835 10.6643 62.3107 11.603 60.8538 11.603H57.5229V6.92433ZM80.8594 20.511C81.9405 20.5133 83.0115 20.3001 84.0111 19.8835C85.0106 19.4669 85.9192 18.8551 86.6847 18.0832C87.4502 17.3113 88.0577 16.3943 88.4724 15.3847C88.8871 14.3752 89.1009 13.2929 89.1016 12.1997V12.0924C89.1273 9.88623 88.2854 7.76008 86.7611 6.18139C85.2368 4.60269 83.1548 3.70069 80.9729 3.6737H80.8668C79.7843 3.66976 78.7117 3.88164 77.7103 4.29722C76.7089 4.7128 75.7984 5.32392 75.0308 6.09563C74.2632 6.86734 73.6537 7.78449 73.2369 8.79462C72.8202 9.80475 72.6046 10.888 72.6023 11.9825V12.1024C72.5899 13.1963 72.791 14.282 73.1939 15.2973C73.5968 16.3127 74.1937 17.2377 74.9505 18.0196C75.7073 18.8015 76.6091 19.4249 77.6044 19.8541C78.5996 20.2833 79.6688 20.5099 80.7507 20.521L80.8594 20.511ZM80.8371 17.1431C78.1062 17.1431 76.0024 14.9211 76.0024 12.0924C76.0024 9.26368 78.1087 7.04167 80.8371 7.04167C83.5656 7.04167 85.6941 9.26368 85.6941 12.0924C85.6941 14.9211 83.5878 17.1431 80.8371 17.1431ZM98.3907 20.2789H102.3L105.584 9.70808L108.855 20.2789H112.764L117.342 3.90839H113.688L110.673 15.7275L107.179 3.91837H103.969L100.472 15.7275L97.4648 3.91837H93.8104L98.3907 20.2789ZM128.226 20.2789H131.626V6.92433H136.876V3.90839H122.977V6.92433H128.226V20.2789ZM143.237 20.2789H146.634V13.7526H153.943V20.2789H157.343V3.90839H153.946V10.4845H146.634V3.90839H143.237V20.2789Z" fill="black"/>
</svg>
