<svg width="191" height="38" viewBox="0 0 191 38" fill="none" xmlns="http://www.w3.org/2000/svg">
<path d="M57.377 26.7325V29.8468H61.3481V31.2753C60.4496 32.9325 58.6234 33.961 56.1306 33.961C52.5363 33.961 49.9565 31.2753 49.9565 27.6753C49.9565 24.2753 52.4494 21.561 56.0147 21.561C58.3626 21.561 59.9858 22.6182 61.0583 24.3039L64.9714 22.2468C63.2902 19.3325 60.4206 17.3896 56.0437 17.3896C50.2174 17.3896 45.6956 21.9896 45.6956 27.6753C45.6956 33.361 50.1305 37.961 56.0437 37.961C60.5945 37.961 64.4497 35.6753 65.6671 31.4182V26.7325H57.377Z" fill="black"/>
<path d="M87.8573 37.6753L83.6833 30.0182C85.8283 29.0468 87.3936 27.0468 87.3936 24.1896C87.3936 20.0468 84.1471 17.6753 80.5238 17.6753H71.712V37.6753H75.915V30.6753H79.7122L83.1906 37.6753H87.8573ZM75.915 21.361H80.089C81.9152 21.361 83.1326 22.561 83.1326 24.2468C83.1326 25.9325 81.9152 27.0753 80.089 27.0753H75.915V21.361Z" fill="black"/>
<path d="M102.657 37.961C108.455 37.961 112.977 33.361 112.977 27.6753C112.977 21.9896 108.455 17.3896 102.657 17.3896C96.8312 17.3896 92.3093 21.9896 92.3093 27.6753C92.3093 33.361 96.8312 37.961 102.657 37.961ZM102.628 33.8468C99.2081 33.8468 96.5703 31.1325 96.5703 27.6753C96.5703 24.2182 99.2081 21.5039 102.628 21.5039C106.078 21.5039 108.716 24.2182 108.716 27.6753C108.716 31.1325 106.078 33.8468 102.628 33.8468Z" fill="black"/>
<path d="M122.134 37.6753H127.033L131.149 24.761L135.236 37.6753H140.134L145.874 17.6753H141.294L137.526 32.1039L133.149 17.6753H129.12L124.743 32.1039L120.974 17.6753H116.395L122.134 37.6753Z" fill="black"/>
<path d="M157.012 37.6753H161.273V21.361H167.853V17.6753H150.432V21.361H157.012V37.6753Z" fill="black"/>
<path d="M173.318 37.6753H177.579V29.7039H186.739V37.6753H191V17.6753H186.739V25.7039H177.579V17.6753H173.318V37.6753Z" fill="black"/>
<path d="M50.5761 10.5633C52.6661 10.5633 54.341 9.4237 54.341 7.56818C54.341 5.52273 52.3845 5.15747 50.8874 4.76299C49.583 4.41234 48.2342 4.19318 48.2342 2.9513C48.2342 2.06006 49.0642 1.22727 50.4131 1.22727C51.5989 1.22727 52.3548 1.84091 52.7106 2.92208L53.9853 2.57143C53.4813 0.891234 52.2214 0 50.3983 0C48.3676 0 46.7964 1.25649 46.7964 2.93669C46.7964 4.96753 48.6047 5.43506 50.1463 5.84416C51.4655 6.18019 52.9033 6.34091 52.9033 7.5974C52.9033 8.64935 51.925 9.30682 50.5909 9.30682C49.3459 9.30682 48.2638 8.69318 47.9081 7.50974L46.5592 7.875C47.0632 9.61364 48.664 10.5633 50.5761 10.5633Z" fill="black"/>
<path d="M58.8162 10.5049C60.1947 10.5049 61.0247 10.0081 61.6473 9.33604V10.4026H62.9813V3.17045H61.6473V4.25162C61.0247 3.55032 60.1947 3.06818 58.8162 3.06818C56.8151 3.06818 55.2884 4.68993 55.2884 6.79383C55.2884 8.86851 56.8151 10.5049 58.8162 10.5049ZM59.1274 9.35065C57.7045 9.35065 56.6076 8.22565 56.6076 6.79383C56.6076 5.3474 57.7045 4.2224 59.1274 4.2224C60.5504 4.2224 61.6473 5.3474 61.6473 6.79383C61.6473 8.22565 60.5504 9.35065 59.1274 9.35065Z" fill="black"/>
<path d="M67.8776 10.5049C69.2561 10.5049 70.0862 10.0081 70.7087 9.33604V10.4026H72.0427V3.17045H70.7087V4.25162C70.0862 3.55032 69.2561 3.06818 67.8776 3.06818C65.8766 3.06818 64.3498 4.68993 64.3498 6.79383C64.3498 8.86851 65.8766 10.5049 67.8776 10.5049ZM68.1889 9.35065C66.7659 9.35065 65.6691 8.22565 65.6691 6.79383C65.6691 5.3474 66.7659 4.2224 68.1889 4.2224C69.6118 4.2224 70.7087 5.3474 70.7087 6.79383C70.7087 8.22565 69.6118 9.35065 68.1889 9.35065Z" fill="black"/>
<path d="M77.3985 10.5633C79.4885 10.5633 81.1635 9.4237 81.1635 7.56818C81.1635 5.52273 79.2069 5.15747 77.7098 4.76299C76.4054 4.41234 75.0566 4.19318 75.0566 2.9513C75.0566 2.06006 75.8866 1.22727 77.2355 1.22727C78.4213 1.22727 79.1772 1.84091 79.533 2.92208L80.8077 2.57143C80.3037 0.891234 79.0438 0 77.2207 0C75.19 0 73.6188 1.25649 73.6188 2.93669C73.6188 4.96753 75.4271 5.43506 76.9687 5.84416C78.2879 6.18019 79.7257 6.34091 79.7257 7.5974C79.7257 8.64935 78.7474 9.30682 77.4134 9.30682C76.1683 9.30682 75.0862 8.69318 74.7305 7.50974L73.3816 7.875C73.8856 9.61364 75.4864 10.5633 77.3985 10.5633Z" fill="black"/>
<path d="M88.5155 5.17208C89.2715 4.7776 89.8199 4.09091 89.8199 2.9513C89.8199 1.09578 88.3821 0.175324 86.5886 0.175324H82.631V10.4026H86.7961C88.5452 10.4026 90.0867 9.46753 90.0867 7.56818C90.0867 6.31169 89.3901 5.55195 88.5155 5.17208ZM84.0095 1.35877H86.5886C87.5521 1.35877 88.4711 1.78247 88.4711 3.03896C88.4711 4.28084 87.5817 4.70455 86.5886 4.70455H84.0095V1.35877ZM86.7665 9.21916H84.0095V5.78571H86.7665C87.6707 5.78571 88.7082 6.25325 88.7082 7.49513C88.7082 8.75162 87.6707 9.21916 86.7665 9.21916Z" fill="black"/>
<path d="M96.3202 10.5487C99.2699 10.5487 101.553 8.19643 101.553 5.28896C101.553 2.38149 99.2699 0.0292204 96.3202 0.0292204C93.3557 0.0292204 91.073 2.38149 91.073 5.28896C91.073 8.19643 93.3557 10.5487 96.3202 10.5487ZM96.3202 9.20455C94.1265 9.20455 92.4663 7.46591 92.4663 5.28896C92.4663 3.11201 94.1265 1.37338 96.3202 1.37338C98.4991 1.37338 100.159 3.11201 100.159 5.28896C100.159 7.46591 98.4991 9.20455 96.3202 9.20455Z" fill="black"/>
<path d="M107.929 10.5487C110.879 10.5487 113.162 8.19643 113.162 5.28896C113.162 2.38149 110.879 0.0292204 107.929 0.0292204C104.965 0.0292204 102.682 2.38149 102.682 5.28896C102.682 8.19643 104.965 10.5487 107.929 10.5487ZM107.929 9.20455C105.736 9.20455 104.075 7.46591 104.075 5.28896C104.075 3.11201 105.736 1.37338 107.929 1.37338C110.108 1.37338 111.768 3.11201 111.768 5.28896C111.768 7.46591 110.108 9.20455 107.929 9.20455Z" fill="black"/>
<path d="M114.78 10.4026H116.174V2.54221L119.716 8.73701H120.813L124.356 2.5276V10.4026H125.764V0.175324H124.148L120.279 7.11526L116.381 0.175324H114.78V10.4026Z" fill="black"/>
<path d="M128.31 1.76786C128.755 1.76786 129.111 1.41721 129.111 0.978896C129.111 0.584415 128.755 0.233766 128.31 0.233766C127.881 0.233766 127.525 0.584415 127.525 0.978896C127.525 1.41721 127.881 1.76786 128.31 1.76786ZM127.673 10.4026H128.977V3.17045H127.673V10.4026Z" fill="black"/>
<path d="M25.7073 37.5501C26.4358 37.8475 27.2165 38.0003 28.005 38H31.78C33.5725 38 35.2915 37.298 36.559 36.0485C37.8265 34.799 38.5386 33.1042 38.5386 31.3371V6.67588C38.5382 5.80052 38.3629 4.93381 38.0228 4.12523C37.6826 3.31665 37.1843 2.58203 36.5561 1.96332C35.928 1.34462 35.1824 0.853936 34.3619 0.519297C33.5414 0.184658 32.6621 0.0126138 31.7742 0.0129872H6.75862C4.96612 0.0129872 3.24704 0.714969 1.97955 1.9645C0.712067 3.21404 0 4.90877 0 6.67588V31.3371C0.00076473 33.1031 0.712529 34.7966 1.97895 36.0456C3.24538 37.2947 4.96291 37.9971 6.75429 37.9986H10.5221C11.311 37.9967 12.0918 37.8414 12.8197 37.5416C12.9316 37.5002 13.0411 37.4527 13.1475 37.3992C13.5578 37.2006 13.9423 36.9539 14.2928 36.6646C15.7528 35.5242 17.7948 33.0897 18.0634 28.3132C18.2584 26.1534 16.4171 24.2386 14.0025 24.2386H11.4174C8.7501 24.2386 6.55355 22.3892 6.23295 20.0045C6.22602 19.9735 6.22119 19.9421 6.21851 19.9105C6.20118 19.8194 6.20118 19.7212 6.20118 19.6258C6.18963 19.5603 6.18963 19.4934 6.18963 19.4279V19.4094C6.18963 19.3254 6.21418 19.2528 6.22573 19.1731C6.23728 19.0933 6.22573 19.015 6.23728 18.9325C6.24884 18.8499 6.26328 18.7645 6.27772 18.6876C6.29216 18.6107 6.29938 18.5296 6.31816 18.4513C6.33693 18.3729 6.36292 18.2904 6.38459 18.2149C6.40625 18.1395 6.41636 18.0669 6.44524 17.9886C6.47174 17.9167 6.50188 17.8425 6.52899 17.7757L6.53622 17.7579C6.56511 17.6867 6.58966 17.6198 6.62287 17.5444C6.65609 17.4689 6.69941 17.3906 6.73407 17.3265C6.76873 17.2625 6.79906 17.1827 6.84094 17.1201C6.88282 17.0575 6.93336 16.9806 6.97669 16.9151C7.02001 16.8496 7.05467 16.787 7.10233 16.72C7.14999 16.6531 7.2092 16.5891 7.2583 16.5278C7.3074 16.4666 7.34639 16.4111 7.40271 16.3485C7.45903 16.2858 7.52691 16.2232 7.58034 16.1676C7.63378 16.1121 7.68432 16.0651 7.74064 16.0053C7.79697 15.9455 7.88361 15.8829 7.94138 15.8359C7.99915 15.7889 8.04247 15.7391 8.11179 15.6936C8.18111 15.648 8.26487 15.5939 8.32552 15.5512C8.38618 15.5085 8.43961 15.4658 8.51326 15.4202C8.58692 15.3746 8.67501 15.3277 8.74288 15.2907C8.81076 15.2536 8.85986 15.218 8.94506 15.1768C9.03025 15.1355 9.11838 15.0984 9.20646 15.0614C9.27144 15.033 9.33498 15.0002 9.40286 14.9732C9.49095 14.9362 9.59204 14.9077 9.69169 14.8735C9.75379 14.8536 9.813 14.8308 9.87654 14.8109C9.97619 14.7838 10.0773 14.7625 10.1784 14.7383C10.2477 14.7254 10.3112 14.7055 10.3791 14.6913C10.4961 14.6699 10.6159 14.6557 10.7373 14.64C10.7921 14.6343 10.8441 14.6187 10.9004 14.6187C10.9943 14.6059 11.1084 14.6101 11.1893 14.6059C11.2701 14.6016 11.3496 14.593 11.4333 14.593C11.5936 14.593 11.751 14.6044 11.9085 14.6158L12.0298 14.6272C12.1814 14.6429 12.3186 14.6628 12.463 14.6884H12.4977C13.2543 14.8256 13.9706 15.1267 14.595 15.5698C15.2193 16.013 15.7361 16.5872 16.108 17.2511C15.4398 15.8697 14.3883 14.7033 13.0753 13.8869C13.2298 13.4582 13.4354 13.0491 13.6877 12.6682C13.705 12.6383 13.7252 12.6084 13.7454 12.5799C13.8176 12.4703 13.8956 12.365 13.975 12.2625L14.0559 12.1628C14.1382 12.0617 14.2205 11.9606 14.3101 11.8667C14.3243 11.8531 14.3378 11.8389 14.3505 11.824C14.5272 11.6405 14.7138 11.4666 14.9094 11.3029C14.9556 11.2659 14.9961 11.226 15.0423 11.1904C15.1246 11.1263 15.2314 11.0552 15.2935 11.0068C15.3556 10.9584 15.4221 10.9171 15.5001 10.8644C15.578 10.8117 15.656 10.7605 15.7412 10.7106L15.9983 10.5683C16.0734 10.527 16.1485 10.4871 16.2265 10.4472L16.2422 10.4397C16.3681 10.3797 16.4907 10.3212 16.6294 10.2693C16.6915 10.2437 16.7521 10.218 16.8171 10.1938C16.9659 10.1397 17.1146 10.087 17.2706 10.0415L17.4713 9.98881C17.5955 9.95607 17.7226 9.92475 17.8526 9.89912C17.9205 9.88488 17.9927 9.87065 18.0649 9.85926C18.1977 9.83648 18.3277 9.81797 18.4721 9.80231C18.5357 9.79519 18.5992 9.77953 18.6627 9.77953C18.8664 9.76387 19.0613 9.75106 19.2751 9.75106C19.4888 9.75106 19.7011 9.76245 19.9105 9.78096C19.9726 9.78665 20.0477 9.79804 20.117 9.80658C20.2556 9.82367 20.3928 9.84075 20.53 9.86495C20.6095 9.87777 20.6874 9.8977 20.7654 9.91621C20.8882 9.94041 21.008 9.96888 21.1294 10.0016C21.2088 10.023 21.2897 10.0486 21.3691 10.0742C21.4832 10.1084 21.5944 10.1483 21.7056 10.1881L21.7239 10.195C21.7968 10.2224 21.8678 10.2491 21.9424 10.2807C22.0493 10.3253 22.1547 10.3727 22.2587 10.423C22.3381 10.4572 22.4089 10.4956 22.4825 10.5327C22.5851 10.5868 22.6861 10.6437 22.7858 10.7021C22.8551 10.7434 22.9244 10.7832 22.9923 10.8259C23.0934 10.89 23.1902 10.9612 23.2884 11.0324C23.349 11.0751 23.4097 11.1164 23.4689 11.1619C23.5786 11.2474 23.6812 11.3385 23.7851 11.4282C23.827 11.4623 23.8675 11.4965 23.9079 11.5335C24.0472 11.6615 24.1797 11.7965 24.305 11.9379C24.3426 11.9806 24.3772 12.0261 24.4134 12.0688C24.4986 12.1685 24.5838 12.271 24.6632 12.3778C24.7094 12.439 24.7498 12.5016 24.7932 12.5643C24.8567 12.6597 24.9202 12.7508 24.9795 12.849C25.0228 12.9174 25.0603 12.99 25.1008 13.0597C25.147 13.1537 25.2105 13.2676 25.2452 13.3445C25.2798 13.4213 25.3145 13.4982 25.3463 13.5737C25.3882 13.6719 25.4271 13.7701 25.4632 13.8698C25.4921 13.9467 25.5109 14.0136 25.5427 14.1076C25.5744 14.2015 25.599 14.2955 25.6236 14.3923L25.6322 14.4165C25.651 14.4991 25.6712 14.5802 25.6885 14.6628C25.9096 15.7094 25.8209 16.7966 25.4329 17.7949C26.051 16.84 26.4205 15.7495 26.5088 14.6201C26.7375 14.5947 26.9675 14.5828 27.1977 14.5845C30.0643 14.6286 32.3764 16.8411 32.3403 19.4777C32.3042 22.1144 29.9791 24.25 27.1125 24.25H24.5303C22.1114 24.25 20.2701 26.1563 20.465 28.3217C20.7308 33.0982 22.7786 35.5327 24.2343 36.6717C24.5843 36.9626 24.9695 37.2098 25.3809 37.4077C25.4871 37.4609 25.596 37.5085 25.7073 37.5501Z" fill="black"/>
</svg>
