<svg width="138" height="26" viewBox="0 0 138 26" fill="none" xmlns="http://www.w3.org/2000/svg">
<path d="M44.4461 12.6129H51.4016L51.0316 15.1355H51.007L50.8343 16.2095C49.3297 19.6811 46.148 21.5793 42.3002 21.5793C37.6879 21.5793 34.5801 17.8079 35.3201 13.1624C36.06 8.51686 40.0311 4.74548 44.9394 4.74548C48.1212 4.74548 50.5137 6.46883 51.4756 9.11628L48.1952 10.7397C47.6279 9.21619 46.296 8.21715 44.3968 8.21715C41.659 8.21715 39.2418 10.44 38.8225 13.1624C38.3785 15.8848 40.1051 18.1076 42.8182 18.1076C44.8161 18.1076 46.3453 17.4083 47.3812 15.8098L47.4799 15.1605H44.0515L44.4461 12.6129Z" fill="black"/>
<path d="M54.09 9.7656H57.3705L57.0745 11.6888C58.1844 10.39 59.9109 9.61575 61.9088 9.64072L61.3662 13.0375C59.9356 12.2882 57.0252 12.8626 56.4332 15.6599L55.5206 21.3794H52.2402L54.09 9.7656Z" fill="black"/>
<path d="M62.0322 15.5601C62.5748 12.2133 65.5346 9.51587 69.0123 9.51587C72.1941 9.51587 74.6606 12.2133 74.118 15.5601C73.5753 18.8819 70.9362 21.5793 67.1131 21.5793C63.882 21.5793 61.4896 18.9068 62.0322 15.5601ZM70.9115 15.5601C71.1582 13.9366 70.0976 12.6628 68.519 12.6628C66.8912 12.6628 65.4606 13.9616 65.2139 15.5601C64.9673 17.1585 66.0772 18.4323 67.6064 18.4323C69.259 18.4573 70.6649 17.1585 70.9115 15.5601Z" fill="black"/>
<path d="M75.4745 9.76562H78.7796L80.0128 16.9088L83.5892 9.76562H87.3136L88.7442 16.7839L92.0246 9.76562H95.6504L89.9528 21.3545H86.5737L84.9705 13.8367L81.1474 21.3545H77.6203L75.4745 9.76562Z" fill="black"/>
<path d="M97.4509 17.2335L98.1909 12.6129H96.0944L96.563 9.76568H98.6348L99.1775 6.39392H102.458L101.915 9.76568H105.023L104.579 12.6129H101.471L100.83 16.6591C100.657 17.8829 101.225 18.6072 102.458 18.6072C102.902 18.6072 103.346 18.5073 103.79 18.3574L103.346 21.0298C102.532 21.2796 101.767 21.4045 101.077 21.4045C98.4129 21.4045 97.0563 19.6562 97.4509 17.2335Z" fill="black"/>
<path d="M108.303 3.79639H111.584L110.375 11.464C111.263 10.2901 112.521 9.64077 114.124 9.64077C116.714 9.64077 118.712 11.8137 118.169 15.3353L117.232 21.3545H113.952L114.84 15.5851C115.16 13.512 114.297 12.4131 112.842 12.4131C111.214 12.4131 110.079 13.537 109.759 15.4352L108.846 21.3295H105.566L108.303 3.79639Z" fill="black"/>
<path d="M125.125 13.1623L121.401 4.97021H125.298L127.813 10.39L131.686 4.97021H135.879L129.639 13.1623L133.511 21.3545H129.639L126.925 15.9347L122.93 21.3545H118.687L125.125 13.1623Z" fill="black"/>
<path d="M25.9721 5.34489V20.9049C25.9721 23.2277 24.1222 25.1009 21.8284 25.1009H19.5099C19.0166 25.1009 18.548 25.001 18.104 24.8262C18.03 24.8012 17.9807 24.7762 17.9067 24.7263C17.66 24.6014 17.4134 24.4515 17.1914 24.2517C16.3035 23.5274 15.0456 22.0039 14.8729 18.9818C14.7496 17.6331 15.8842 16.4093 17.3641 16.4093H18.9426C20.6938 16.4093 22.1244 15.0606 22.149 13.3872C22.1737 11.7138 20.7678 10.3651 18.9919 10.3401C18.8439 10.3401 18.7206 10.3401 18.5726 10.3651C18.5233 11.0644 18.3013 11.7637 17.9067 12.3631C18.0547 11.9635 18.1287 11.5389 18.1287 11.1143C18.1287 10.8646 18.104 10.6398 18.0547 10.39C18.0547 10.3401 18.03 10.2901 18.03 10.2402C18.03 10.2402 18.03 10.2402 18.03 10.2152C18.0053 10.1653 18.0053 10.0903 17.9807 10.0404C17.956 9.99043 17.956 9.94047 17.9313 9.89052C17.9067 9.84057 17.882 9.76564 17.8574 9.71569C17.8327 9.66574 17.808 9.61579 17.808 9.56583L17.7094 9.391C17.6847 9.34105 17.66 9.2911 17.6354 9.26612C17.6107 9.24115 17.5614 9.14124 17.512 9.09129L17.4381 8.96641C17.3887 8.89148 17.3394 8.84153 17.2901 8.7666C17.2654 8.74163 17.2407 8.71665 17.2161 8.69167C17.1421 8.59177 17.0434 8.51684 16.9694 8.44191C16.9448 8.41694 16.9201 8.39196 16.8954 8.36699L16.6981 8.19215L16.5994 8.11723C16.5501 8.06727 16.4761 8.0423 16.4268 7.99235C16.3775 7.94239 16.3528 7.94239 16.3035 7.91742L16.1061 7.81751L15.9582 7.74259L15.7855 7.61771C15.7362 7.59273 15.6868 7.56775 15.6375 7.56775C15.5882 7.56775 15.5142 7.5178 15.4402 7.49283L15.2922 7.44287C15.2182 7.4179 15.1442 7.39292 15.0702 7.39292L14.9222 7.36795C14.8482 7.34297 14.7496 7.34297 14.6756 7.34297L14.5523 7.31799C14.4289 7.31799 14.3056 7.29302 14.1576 7.29302C14.0096 7.29302 13.911 7.29302 13.7877 7.31799L13.6643 7.34297C13.5903 7.34297 13.4917 7.36795 13.4177 7.36795L13.2944 7.39292C13.2204 7.4179 13.1464 7.4179 13.0477 7.44287L12.9244 7.46785C12.8257 7.49283 12.7271 7.5178 12.6531 7.56775L12.5297 7.61771C12.4557 7.64268 12.3571 7.69263 12.2831 7.74259L12.1351 7.81751C12.0858 7.84249 12.0364 7.86747 11.9871 7.91742C11.9378 7.94239 11.8885 7.96737 11.8391 8.01732L11.7158 8.11723C11.6665 8.16718 11.6171 8.19215 11.5678 8.24211L11.4938 8.31703C11.3705 8.41694 11.2472 8.54182 11.1485 8.64172L11.1238 8.6667C11.0745 8.71665 11.0252 8.79158 10.9759 8.86651L10.9265 8.91646C10.8772 8.99139 10.8279 9.04134 10.7785 9.11627C10.7785 9.14124 10.7539 9.16622 10.7539 9.16622C10.6059 9.41598 10.4826 9.66574 10.3839 9.94047C11.1978 10.465 11.8391 11.1893 12.2338 12.0634C11.7651 11.2142 10.9512 10.6148 10.0139 10.44H9.98926C9.91526 10.415 9.81661 10.415 9.71795 10.39H9.61929C9.52063 10.39 9.42197 10.39 9.32331 10.39H9.17532C9.12599 10.39 9.05199 10.39 9.00266 10.39H8.904L8.68202 10.415L8.5587 10.44C8.50937 10.465 8.43537 10.465 8.36138 10.4899L8.23805 10.5399L8.0654 10.5899L7.94207 10.6398L7.79408 10.7147L7.67076 10.7897L7.52277 10.8646C7.47344 10.8896 7.44878 10.9145 7.39945 10.9395L7.27612 11.0394L7.17746 11.1393C7.12813 11.1643 7.10347 11.2142 7.05414 11.2392C7.00481 11.2642 6.98014 11.3142 6.95548 11.3391C6.93081 11.3641 6.88148 11.4141 6.85682 11.464C6.83215 11.514 6.80749 11.5389 6.75816 11.5889C6.70883 11.6388 6.68417 11.6638 6.6595 11.7138C6.63484 11.7637 6.61017 11.7887 6.58551 11.8386L6.51151 11.9635C6.48685 12.0135 6.46218 12.0385 6.43752 12.0884C6.41285 12.1384 6.38819 12.1883 6.36352 12.2383C6.33886 12.2882 6.33886 12.3132 6.31419 12.3631C6.28953 12.4131 6.26486 12.463 6.26486 12.513C6.26486 12.563 6.2402 12.6129 6.21553 12.6629C6.19087 12.7128 6.19087 12.7628 6.1662 12.8127C6.14154 12.8627 6.1662 12.8627 6.1662 12.9126C6.1662 12.9626 6.14154 13.0125 6.14154 13.0625C6.14154 13.1124 6.14154 13.1624 6.14154 13.2123C6.14154 13.2623 6.14154 13.3122 6.14154 13.3622C6.14154 13.4121 6.14154 13.4371 6.14154 13.4871C6.14154 13.537 6.14154 13.6119 6.14154 13.6619C6.14154 13.6869 6.14154 13.7118 6.14154 13.7118C6.33886 15.2104 7.69542 16.3843 9.32331 16.3843H10.9019C12.3818 16.3843 13.5163 17.5831 13.393 18.9568C13.2204 21.9789 11.9624 23.5024 11.0745 24.2267C10.8525 24.4016 10.6305 24.5764 10.3839 24.7013C10.3099 24.7263 10.2606 24.7762 10.1866 24.8012C9.74261 25.001 9.24931 25.0759 8.78068 25.0759H6.46218C4.16835 25.0759 2.31848 23.2027 2.31848 20.88V5.34489C2.31848 3.02212 4.16835 1.14893 6.46218 1.14893H21.8284C24.0976 1.14893 25.9721 3.02212 25.9721 5.34489Z" fill="black"/>
</svg>
