<svg width="214" height="39" viewBox="0 0 214 39" fill="none" xmlns="http://www.w3.org/2000/svg">
<path d="M57.1022 27.436V30.6322H61.0543V32.0984C60.16 33.7991 58.3426 34.8547 55.8618 34.8547C52.2847 34.8547 49.7173 32.0984 49.7173 28.4036C49.7173 24.9141 52.1981 22.1284 55.7464 22.1284C58.083 22.1284 59.6985 23.2134 60.7658 24.9435L64.6602 22.8322C62.9871 19.8412 60.1312 17.8472 55.7752 17.8472C49.9769 17.8472 45.4767 22.5683 45.4767 28.4036C45.4767 34.239 49.8903 38.96 55.7752 38.96C60.3043 38.96 64.141 36.6141 65.3526 32.245V27.436H57.1022Z" fill="black"/>
<path d="M87.4365 38.6668L83.2825 30.8081C85.4172 29.8111 86.975 27.7585 86.975 24.8262C86.975 20.5743 83.744 18.1405 80.1381 18.1405H71.3685V38.6668H75.5514V31.4826H79.3304L82.7921 38.6668H87.4365ZM75.5514 21.9232H79.7054C81.5228 21.9232 82.7344 23.1548 82.7344 24.8848C82.7344 26.6149 81.5228 27.7878 79.7054 27.7878H75.5514V21.9232Z" fill="black"/>
<path d="M102.166 38.96C107.935 38.96 112.435 34.239 112.435 28.4036C112.435 22.5683 107.935 17.8472 102.166 17.8472C96.3674 17.8472 91.8672 22.5683 91.8672 28.4036C91.8672 34.239 96.3674 38.96 102.166 38.96ZM102.137 34.7375C98.7329 34.7375 96.1078 31.9517 96.1078 28.4036C96.1078 24.8555 98.7329 22.0698 102.137 22.0698C105.57 22.0698 108.195 24.8555 108.195 28.4036C108.195 31.9517 105.57 34.7375 102.137 34.7375Z" fill="black"/>
<path d="M121.549 38.6668H126.424L130.52 25.4126L134.588 38.6668H139.463L145.175 18.1405H140.617L136.867 32.9487L132.511 18.1405H128.501L124.145 32.9487L120.395 18.1405H115.837L121.549 38.6668Z" fill="black"/>
<path d="M156.26 38.6668H160.501V21.9232H167.049V18.1405H149.712V21.9232H156.26V38.6668Z" fill="black"/>
<path d="M172.488 38.6668H176.729V30.4856H185.845V38.6668H190.085V18.1405H185.845V26.3803H176.729V18.1405H172.488V38.6668Z" fill="black"/>
<path d="M195.509 38.6668H200.528L204.769 31.6585L208.981 38.6668H214L207.509 28.4036L213.798 18.1405H208.779L204.74 25.1487L200.73 18.1405H195.711L201.999 28.4036L195.509 38.6668Z" fill="black"/>
<path d="M50.3339 10.8413C52.4138 10.8413 54.0808 9.67169 54.0808 7.76734C54.0808 5.66806 52.1336 5.29319 50.6437 4.88833C49.3455 4.52845 48.0031 4.30353 48.0031 3.02896C48.0031 2.11428 48.8292 1.25957 50.1716 1.25957C51.3517 1.25957 52.1041 1.88935 52.4581 2.99897L53.7267 2.6391C53.2252 0.914687 51.9713 0 50.1569 0C48.1359 0 46.5722 1.28956 46.5722 3.01397C46.5722 5.09826 48.3719 5.57809 49.9061 5.99795C51.219 6.34283 52.6499 6.50777 52.6499 7.79733C52.6499 8.87696 51.6763 9.55173 50.3486 9.55173C49.1095 9.55173 48.0326 8.92195 47.6786 7.70736L46.3362 8.08224C46.8378 9.86663 48.4309 10.8413 50.3339 10.8413Z" fill="black"/>
<path d="M58.5345 10.7813C59.9063 10.7813 60.7324 10.2715 61.352 9.58172V10.6764H62.6796V3.25389H61.352V4.36351C60.7324 3.64375 59.9063 3.14892 58.5345 3.14892C56.543 3.14892 55.0236 4.81335 55.0236 6.97262C55.0236 9.10189 56.543 10.7813 58.5345 10.7813ZM58.8442 9.59672C57.4281 9.59672 56.3365 8.44211 56.3365 6.97262C56.3365 5.48812 57.4281 4.33352 58.8442 4.33352C60.2604 4.33352 61.352 5.48812 61.352 6.97262C61.352 8.44211 60.2604 9.59672 58.8442 9.59672Z" fill="black"/>
<path d="M67.5525 10.7813C68.9244 10.7813 69.7505 10.2715 70.37 9.58172V10.6764H71.6977V3.25389H70.37V4.36351C69.7505 3.64375 68.9244 3.14892 67.5525 3.14892C65.561 3.14892 64.0416 4.81335 64.0416 6.97262C64.0416 9.10189 65.561 10.7813 67.5525 10.7813ZM67.8623 9.59672C66.4461 9.59672 65.3545 8.44211 65.3545 6.97262C65.3545 5.48812 66.4461 4.33352 67.8623 4.33352C69.2784 4.33352 70.37 5.48812 70.37 6.97262C70.37 8.44211 69.2784 9.59672 67.8623 9.59672Z" fill="black"/>
<path d="M77.0278 10.8413C79.1078 10.8413 80.7747 9.67169 80.7747 7.76734C80.7747 5.66806 78.8275 5.29319 77.3376 4.88833C76.0395 4.52845 74.6971 4.30353 74.6971 3.02896C74.6971 2.11428 75.5232 1.25957 76.8655 1.25957C78.0457 1.25957 78.798 1.88935 79.152 2.99897L80.4207 2.6391C79.9191 0.914687 78.6652 0 76.8508 0C74.8298 0 73.2662 1.28956 73.2662 3.01397C73.2662 5.09826 75.0659 5.57809 76.6 5.99795C77.9129 6.34283 79.3438 6.50777 79.3438 7.79733C79.3438 8.87696 78.3702 9.55173 77.0426 9.55173C75.8034 9.55173 74.7266 8.92195 74.3725 7.70736L73.0301 8.08224C73.5317 9.86663 75.1249 10.8413 77.0278 10.8413Z" fill="black"/>
<path d="M88.0916 5.30819C88.8439 4.90332 89.3897 4.19856 89.3897 3.02896C89.3897 1.12462 87.9588 0.179938 86.1739 0.179938H82.2352V10.6764H86.3804C88.1211 10.6764 89.6552 9.71668 89.6552 7.76734C89.6552 6.47779 88.9619 5.69805 88.0916 5.30819ZM83.6071 1.39452H86.1739C87.1327 1.39452 88.0473 1.82937 88.0473 3.11893C88.0473 4.3935 87.1622 4.82835 86.1739 4.82835H83.6071V1.39452ZM86.3509 9.46177H83.6071V5.93797H86.3509C87.2507 5.93797 88.2833 6.41781 88.2833 7.69237C88.2833 8.98193 87.2507 9.46177 86.3509 9.46177Z" fill="black"/>
<path d="M95.8588 10.8263C98.7944 10.8263 101.066 8.41212 101.066 5.42814C101.066 2.44416 98.7944 0.0299894 95.8588 0.0299894C92.9085 0.0299894 90.6368 2.44416 90.6368 5.42814C90.6368 8.41212 92.9085 10.8263 95.8588 10.8263ZM95.8588 9.44677C93.6756 9.44677 92.0234 7.66238 92.0234 5.42814C92.0234 3.19391 93.6756 1.40952 95.8588 1.40952C98.0273 1.40952 99.6795 3.19391 99.6795 5.42814C99.6795 7.66238 98.0273 9.44677 95.8588 9.44677Z" fill="black"/>
<path d="M107.412 10.8263C110.348 10.8263 112.62 8.41212 112.62 5.42814C112.62 2.44416 110.348 0.0299894 107.412 0.0299894C104.462 0.0299894 102.19 2.44416 102.19 5.42814C102.19 8.41212 104.462 10.8263 107.412 10.8263ZM107.412 9.44677C105.229 9.44677 103.577 7.66238 103.577 5.42814C103.577 3.19391 105.229 1.40952 107.412 1.40952C109.581 1.40952 111.233 3.19391 111.233 5.42814C111.233 7.66238 109.581 9.44677 107.412 9.44677Z" fill="black"/>
<path d="M114.23 10.6764H115.617V2.60911L119.143 8.96693H120.234L123.76 2.59411V10.6764H125.161V0.179938H123.553L119.703 7.3025L115.824 0.179938H114.23V10.6764Z" fill="black"/>
<path d="M127.696 1.81438C128.138 1.81438 128.492 1.4545 128.492 1.00466C128.492 0.599794 128.138 0.239918 127.696 0.239918C127.268 0.239918 126.914 0.599794 126.914 1.00466C126.914 1.4545 127.268 1.81438 127.696 1.81438ZM127.062 10.6764H128.36V3.25389H127.062V10.6764Z" fill="black"/>
<path d="M25.5842 38.5383C26.3091 38.8435 27.0862 39.0004 27.8708 39H31.6277C33.4117 39 35.1225 38.2795 36.3839 36.9971C37.6453 35.7147 38.354 33.9754 38.354 32.1618V6.85156C38.3536 5.95317 38.1792 5.06365 37.8407 4.23379C37.5021 3.40393 37.0062 2.64998 36.381 2.01499C35.7559 1.38 35.0139 0.876408 34.1973 0.532963C33.3808 0.189517 32.5057 0.0129457 31.622 0.013329H6.72625C4.94234 0.013329 3.23149 0.733783 1.97007 2.0162C0.708656 3.29862 0 5.03795 0 6.85156V32.1618C0.000761067 33.9743 0.709116 35.7123 1.96948 36.9942C3.22984 38.2761 4.93914 38.997 6.72194 38.9985H10.4717C11.2568 38.9966 12.0339 38.8372 12.7583 38.5295C12.8697 38.4871 12.9786 38.4383 13.0846 38.3834C13.4929 38.1795 13.8756 37.9264 14.2243 37.6294C15.6773 36.459 17.7096 33.9605 17.9769 29.0583C18.1709 26.8417 16.3385 24.8764 13.9354 24.8764H11.3628C8.70819 24.8764 6.52216 22.9784 6.2031 20.5309C6.1962 20.4992 6.1914 20.4669 6.18872 20.4345C6.17148 20.341 6.17148 20.2402 6.17148 20.1423C6.15998 20.0751 6.15998 20.0064 6.15998 19.9392V19.9202C6.15998 19.834 6.18441 19.7594 6.19591 19.6776C6.20741 19.5958 6.19591 19.5154 6.20741 19.4307C6.21891 19.3459 6.23328 19.2583 6.24765 19.1794C6.26202 19.1005 6.26921 19.0172 6.28789 18.9368C6.30658 18.8564 6.33245 18.7717 6.35401 18.6943C6.37556 18.6168 6.38562 18.5423 6.41437 18.4619C6.44074 18.3882 6.47074 18.312 6.49771 18.2435L6.50492 18.2252C6.53366 18.1522 6.55809 18.0835 6.59115 18.0061C6.62421 17.9286 6.66732 17.8482 6.70182 17.7825C6.73631 17.7167 6.76649 17.6349 6.80817 17.5706C6.84985 17.5063 6.90015 17.4274 6.94327 17.3602C6.98639 17.293 7.02088 17.2287 7.06831 17.16C7.11574 17.0914 7.17467 17.0256 7.22353 16.9628C7.2724 16.9 7.3112 16.843 7.36725 16.7787C7.42331 16.7144 7.49086 16.6501 7.54403 16.5931C7.59721 16.5361 7.64752 16.4879 7.70357 16.4265C7.75962 16.3652 7.84585 16.3009 7.90334 16.2527C7.96083 16.2044 8.00395 16.1533 8.07294 16.1065C8.14192 16.0598 8.22528 16.0043 8.28565 15.9604C8.34601 15.9166 8.39919 15.8728 8.47249 15.826C8.54578 15.7792 8.63346 15.731 8.70101 15.693C8.76856 15.655 8.81742 15.6185 8.90222 15.5761C8.987 15.5338 9.0747 15.4958 9.16236 15.4578C9.22703 15.4286 9.29027 15.395 9.35782 15.3672C9.44549 15.3292 9.5461 15.3 9.64527 15.2649C9.70707 15.2445 9.766 15.2211 9.82923 15.2006C9.9284 15.1729 10.029 15.1509 10.1296 15.1261C10.1986 15.113 10.2618 15.0925 10.3294 15.0779C10.4458 15.056 10.5651 15.0414 10.6858 15.0253C10.7404 15.0194 10.7922 15.0034 10.8482 15.0034C10.9417 14.9902 11.0552 14.9946 11.1357 14.9902C11.2162 14.9858 11.2952 14.9771 11.3786 14.9771C11.5381 14.9771 11.6948 14.9888 11.8514 15.0004L11.9721 15.0121C12.1231 15.0282 12.2596 15.0487 12.4033 15.075H12.4378C13.1908 15.2158 13.9037 15.5247 14.525 15.9795C15.1464 16.4344 15.6607 17.0237 16.0309 17.7051C15.3659 16.2874 14.3194 15.0902 13.0127 14.2523C13.1665 13.8124 13.371 13.3925 13.6221 13.0016C13.6393 12.9709 13.6595 12.9402 13.6796 12.911C13.7514 12.7985 13.8291 12.6904 13.9081 12.5852L13.9886 12.4829C14.0705 12.3791 14.1524 12.2754 14.2415 12.1789C14.2557 12.1651 14.2691 12.1504 14.2818 12.1351C14.4576 11.9468 14.6433 11.7683 14.838 11.6003C14.884 11.5623 14.9242 11.5214 14.9702 11.4849C15.0521 11.4191 15.1585 11.3461 15.2203 11.2964C15.2821 11.2467 15.3482 11.2044 15.4258 11.1503C15.5034 11.0962 15.581 11.0436 15.6658 10.9925L15.9217 10.8464C15.9964 10.804 16.0711 10.7631 16.1487 10.7222L16.1644 10.7145C16.2897 10.6529 16.4118 10.5928 16.5497 10.5395C16.6115 10.5132 16.6719 10.4869 16.7366 10.4621C16.8846 10.4066 17.0326 10.3525 17.1879 10.3057L17.3876 10.2517C17.5112 10.2181 17.6377 10.1859 17.7671 10.1596C17.8346 10.145 17.9065 10.1304 17.9783 10.1187C18.1106 10.0953 18.2399 10.0763 18.3836 10.0603C18.4469 10.053 18.5101 10.0369 18.5734 10.0369C18.776 10.0208 18.97 10.0077 19.1827 10.0077C19.3955 10.0077 19.6067 10.0194 19.8151 10.0383C19.8769 10.0442 19.9517 10.0559 20.0207 10.0646C20.1586 10.0822 20.2952 10.0997 20.4317 10.1246C20.5107 10.1377 20.5884 10.1582 20.666 10.1772C20.7881 10.202 20.9074 10.2312 21.0282 10.2648C21.1072 10.2867 21.1877 10.313 21.2667 10.3393C21.3803 10.3744 21.4909 10.4153 21.6016 10.4562L21.6198 10.4633C21.6924 10.4915 21.763 10.5188 21.8373 10.5512C21.9437 10.597 22.0486 10.6457 22.1521 10.6973C22.2311 10.7324 22.3015 10.7719 22.3748 10.8098C22.4769 10.8654 22.5775 10.9238 22.6767 10.9837C22.7456 11.0261 22.8146 11.067 22.8822 11.1108C22.9828 11.1766 23.0791 11.2497 23.1768 11.3227C23.2372 11.3665 23.2975 11.4089 23.3565 11.4557C23.4657 11.5433 23.5677 11.6369 23.6712 11.7289C23.7129 11.764 23.7531 11.799 23.7934 11.837C23.932 11.9684 24.0639 12.1069 24.1886 12.252C24.226 12.2958 24.2605 12.3426 24.2964 12.3864C24.3812 12.4887 24.466 12.5939 24.5451 12.7035C24.591 12.7663 24.6313 12.8306 24.6744 12.8949C24.7376 12.9928 24.8009 13.0863 24.8598 13.1871C24.9029 13.2573 24.9403 13.3318 24.9805 13.4034C25.0265 13.4998 25.0898 13.6167 25.1243 13.6956C25.1588 13.7745 25.1932 13.8534 25.2249 13.9309C25.2665 14.0317 25.3054 14.1325 25.3413 14.2348C25.37 14.3137 25.3887 14.3824 25.4203 14.4788C25.452 14.5752 25.4764 14.6717 25.5008 14.771L25.5094 14.7959C25.5281 14.8806 25.5482 14.9639 25.5655 15.0487C25.7855 16.1228 25.6972 17.2386 25.3111 18.2632C25.9262 17.2831 26.294 16.164 26.3818 15.0048C26.6094 14.9788 26.8384 14.9666 27.0674 14.9683C29.9203 15.0136 32.2213 17.2842 32.1854 19.9903C32.1495 22.6964 29.8355 24.8881 26.9826 24.8881H24.4128C22.0055 24.8881 20.173 26.8446 20.367 29.067C20.6315 33.9692 22.6695 36.4678 24.1182 37.6367C24.4666 37.9353 24.8499 38.189 25.2594 38.3922C25.365 38.4467 25.4734 38.4955 25.5842 38.5383Z" fill="black"/>
</svg>
