<svg width="151" height="30" viewBox="0 0 151 30" fill="none" xmlns="http://www.w3.org/2000/svg">
<path d="M45.2976 21.1046V23.5632H48.4327V24.691C47.7233 25.9993 46.2817 26.8113 44.3136 26.8113C41.476 26.8113 39.4394 24.691 39.4394 21.8489C39.4394 19.1647 41.4074 17.0219 44.2221 17.0219C46.0757 17.0219 47.3572 17.8565 48.2039 19.1873L51.2932 17.5632C49.966 15.2625 47.7005 13.7286 44.245 13.7286C39.6453 13.7286 36.0754 17.3602 36.0754 21.8489C36.0754 26.3377 39.5767 29.9692 44.245 29.9692C47.8378 29.9692 50.8813 28.1647 51.8424 24.8038V21.1046H45.2976Z" fill="black"/>
<path d="M69.361 29.7437L66.0658 23.6986C67.7592 22.9316 68.9949 21.3527 68.9949 19.0971C68.9949 15.8264 66.4319 13.9542 63.5714 13.9542H56.6147V29.7437H59.9329V24.2174H62.9307L65.6767 29.7437H69.361ZM59.9329 16.864H63.2282C64.6698 16.864 65.631 17.8113 65.631 19.1422C65.631 20.473 64.6698 21.3753 63.2282 21.3753H59.9329V16.864Z" fill="black"/>
<path d="M81.0453 29.9692C85.6221 29.9692 89.192 26.3377 89.192 21.8489C89.192 17.3602 85.6221 13.7286 81.0453 13.7286C76.4457 13.7286 72.8758 17.3602 72.8758 21.8489C72.8758 26.3377 76.4457 29.9692 81.0453 29.9692ZM81.0224 26.7211C78.3221 26.7211 76.2397 24.5783 76.2397 21.8489C76.2397 19.1196 78.3221 16.9768 81.0224 16.9768C83.7456 16.9768 85.8281 19.1196 85.8281 21.8489C85.8281 24.5783 83.7456 26.7211 81.0224 26.7211Z" fill="black"/>
<path d="M96.4214 29.7437H100.289L103.538 19.5482L106.765 29.7437H110.632L115.163 13.9542H111.548L108.573 25.3452L105.117 13.9542H101.936L98.481 25.3452L95.5061 13.9542H91.8904L96.4214 29.7437Z" fill="black"/>
<path d="M123.957 29.7437H127.321V16.864H132.516V13.9542H118.762V16.864H123.957V29.7437Z" fill="black"/>
<path d="M136.83 29.7437H140.194V23.4504H147.426V29.7437H150.789V13.9542H147.426V20.2925H140.194V13.9542H136.83V29.7437Z" fill="black"/>
<path d="M39.9285 8.33946C41.5785 8.33946 42.9008 7.43976 42.9008 5.97488C42.9008 4.36005 41.3562 4.07168 40.1743 3.76025C39.1445 3.48342 38.0796 3.31041 38.0796 2.32997C38.0796 1.62637 38.7349 0.968899 39.7998 0.968899C40.7359 0.968899 41.3327 1.45335 41.6136 2.3069L42.62 2.03008C42.2221 0.703606 41.2274 0 39.7881 0C38.1849 0 36.9445 0.991968 36.9445 2.31844C36.9445 3.92174 38.3721 4.29084 39.5891 4.61381C40.6306 4.8791 41.7657 5.00598 41.7657 5.99795C41.7657 6.82843 40.9934 7.34749 39.9402 7.34749C38.9572 7.34749 38.103 6.86304 37.8222 5.92874L36.7573 6.21711C37.1551 7.58971 38.4189 8.33946 39.9285 8.33946Z" fill="black"/>
<path d="M46.4338 8.29332C47.5221 8.29332 48.1774 7.90114 48.6689 7.37056V8.21258H49.7221V2.50299H48.6689V3.35654C48.1774 2.80289 47.5221 2.42225 46.4338 2.42225C44.854 2.42225 43.6487 3.70258 43.6487 5.36355C43.6487 7.00145 44.854 8.29332 46.4338 8.29332ZM46.6796 7.38209C45.5562 7.38209 44.6902 6.49393 44.6902 5.36355C44.6902 4.22163 45.5562 3.33348 46.6796 3.33348C47.8029 3.33348 48.6689 4.22163 48.6689 5.36355C48.6689 6.49393 47.8029 7.38209 46.6796 7.38209Z" fill="black"/>
<path d="M53.5876 8.29332C54.6759 8.29332 55.3312 7.90114 55.8227 7.37056V8.21258H56.8758V2.50299H55.8227V3.35654C55.3312 2.80289 54.6759 2.42225 53.5876 2.42225C52.0078 2.42225 50.8025 3.70258 50.8025 5.36355C50.8025 7.00145 52.0078 8.29332 53.5876 8.29332ZM53.8333 7.38209C52.7099 7.38209 51.844 6.49393 51.844 5.36355C51.844 4.22163 52.7099 3.33348 53.8333 3.33348C54.9567 3.33348 55.8227 4.22163 55.8227 5.36355C55.8227 6.49393 54.9567 7.38209 53.8333 7.38209Z" fill="black"/>
<path d="M61.1041 8.33946C62.7541 8.33946 64.0764 7.43976 64.0764 5.97488C64.0764 4.36005 62.5317 4.07168 61.3498 3.76025C60.3201 3.48342 59.2552 3.31041 59.2552 2.32997C59.2552 1.62637 59.9105 0.968899 60.9754 0.968899C61.9115 0.968899 62.5083 1.45335 62.7892 2.3069L63.7956 2.03008C63.3977 0.703606 62.403 0 60.9637 0C59.3605 0 58.1201 0.991968 58.1201 2.31844C58.1201 3.92174 59.5477 4.29084 60.7647 4.61381C61.8062 4.8791 62.9413 5.00598 62.9413 5.99795C62.9413 6.82843 62.169 7.34749 61.1158 7.34749C60.1328 7.34749 59.2786 6.86304 58.9977 5.92874L57.9328 6.21711C58.3307 7.58971 59.5945 8.33946 61.1041 8.33946Z" fill="black"/>
<path d="M69.8807 4.08322C70.4775 3.77179 70.9105 3.22967 70.9105 2.32997C70.9105 0.865089 69.7754 0.138414 68.3594 0.138414H65.235V8.21258H68.5232C69.9041 8.21258 71.1211 7.47437 71.1211 5.97488C71.1211 4.98291 70.5711 4.38312 69.8807 4.08322ZM66.3233 1.07271H68.3594C69.12 1.07271 69.8456 1.40721 69.8456 2.39918C69.8456 3.37961 69.1434 3.71411 68.3594 3.71411H66.3233V1.07271ZM68.4998 7.27828H66.3233V4.56767H68.4998C69.2137 4.56767 70.0328 4.93677 70.0328 5.91721C70.0328 6.90918 69.2137 7.27828 68.4998 7.27828Z" fill="black"/>
<path d="M76.0422 8.32792C78.3709 8.32792 80.173 6.47086 80.173 4.1755C80.173 1.88013 78.3709 0.0230687 76.0422 0.0230687C73.7018 0.0230687 71.8997 1.88013 71.8997 4.1755C71.8997 6.47086 73.7018 8.32792 76.0422 8.32792ZM76.0422 7.26675C74.3103 7.26675 72.9997 5.89414 72.9997 4.1755C72.9997 2.45685 74.3103 1.08424 76.0422 1.08424C77.7624 1.08424 79.0731 2.45685 79.0731 4.1755C79.0731 5.89414 77.7624 7.26675 76.0422 7.26675Z" fill="black"/>
<path d="M85.2073 8.32792C87.536 8.32792 89.3381 6.47086 89.3381 4.1755C89.3381 1.88013 87.536 0.0230687 85.2073 0.0230687C82.8669 0.0230687 81.0648 1.88013 81.0648 4.1755C81.0648 6.47086 82.8669 8.32792 85.2073 8.32792ZM85.2073 7.26675C83.4754 7.26675 82.1648 5.89414 82.1648 4.1755C82.1648 2.45685 83.4754 1.08424 85.2073 1.08424C86.9275 1.08424 88.2381 2.45685 88.2381 4.1755C88.2381 5.89414 86.9275 7.26675 85.2073 7.26675Z" fill="black"/>
<path d="M90.616 8.21258H91.716V2.00701L94.5127 6.89764H95.3787L98.1755 1.99547V8.21258H99.2872V0.138414H98.0116L94.9574 5.61731L91.8798 0.138414H90.616V8.21258Z" fill="black"/>
<path d="M101.298 1.39568C101.649 1.39568 101.93 1.11885 101.93 0.772812C101.93 0.46138 101.649 0.184552 101.298 0.184552C100.958 0.184552 100.677 0.46138 100.677 0.772812C100.677 1.11885 100.958 1.39568 101.298 1.39568ZM100.795 8.21258H101.824V2.50299H100.795V8.21258Z" fill="black"/>
<path d="M20.2952 29.6448C20.8703 29.8796 21.4867 30.0003 22.1092 30H25.0894C26.5046 30 27.8617 29.4458 28.8624 28.4593C29.863 27.4729 30.4252 26.1349 30.4252 24.7398V5.27043C30.4249 4.57936 30.2865 3.89511 30.018 3.25676C29.7494 2.6184 29.356 2.03844 28.8601 1.54999C28.3642 1.06154 27.7756 0.67416 27.1278 0.409971C26.4801 0.145783 25.7859 0.00995826 25.0849 0.010253H5.33575C3.92062 0.010253 2.56345 0.564449 1.56281 1.55092C0.562158 2.5374 0 3.87534 0 5.27043V24.7398C0.000603734 26.134 0.562522 27.471 1.56233 28.4571C2.56214 29.4432 3.91809 29.9977 5.33233 29.9989H8.3069C8.92972 29.9974 9.54613 29.8748 10.1208 29.6381C10.2092 29.6054 10.2956 29.5679 10.3796 29.5257C10.7035 29.3689 11.0071 29.1741 11.2837 28.9457C12.4364 28.0454 14.0485 26.1234 14.2606 22.3525C14.4145 20.6475 12.9609 19.1357 11.0546 19.1357H9.01377C6.90797 19.1357 5.17386 17.6757 4.92075 15.793C4.91528 15.7686 4.91147 15.7438 4.90935 15.7188C4.89567 15.6469 4.89567 15.5694 4.89567 15.4941C4.88655 15.4424 4.88655 15.3895 4.88655 15.3378V15.3232C4.88655 15.2569 4.90593 15.1996 4.91505 15.1366C4.92417 15.0737 4.91505 15.0119 4.92417 14.9467C4.93329 14.8815 4.94469 14.8141 4.95609 14.7534C4.96749 14.6927 4.97319 14.6286 4.98802 14.5668C5.00284 14.505 5.02336 14.4398 5.04046 14.3802C5.05756 14.3206 5.06554 14.2633 5.08835 14.2015C5.10927 14.1448 5.13307 14.0862 5.15446 14.0335L5.16017 14.0194C5.18298 13.9632 5.20236 13.9104 5.22858 13.8508C5.2548 13.7912 5.28901 13.7294 5.31637 13.6788C5.34373 13.6283 5.36768 13.5653 5.40074 13.5159C5.4338 13.4664 5.47371 13.4057 5.50791 13.354C5.54211 13.3023 5.56948 13.2529 5.6071 13.2C5.64472 13.1472 5.69147 13.0966 5.73023 13.0483C5.769 13 5.79978 12.9561 5.84424 12.9067C5.88871 12.8572 5.9423 12.8078 5.98448 12.7639C6.02666 12.7201 6.06657 12.683 6.11103 12.6358C6.1555 12.5886 6.2239 12.5391 6.26951 12.502C6.31511 12.465 6.34932 12.4256 6.40404 12.3897C6.45877 12.3537 6.5249 12.311 6.57278 12.2773C6.62067 12.2435 6.66285 12.2098 6.721 12.1738C6.77914 12.1379 6.84869 12.1008 6.90227 12.0716C6.95586 12.0423 6.99462 12.0142 7.06189 11.9816C7.12915 11.9491 7.19872 11.9198 7.26825 11.8906C7.31956 11.8681 7.36972 11.8423 7.42331 11.8209C7.49286 11.7917 7.57266 11.7692 7.65133 11.7422C7.70036 11.7265 7.7471 11.7085 7.79727 11.6928C7.87594 11.6714 7.95574 11.6546 8.03555 11.6355C8.09028 11.6254 8.14044 11.6096 8.19403 11.5984C8.28638 11.5815 8.38101 11.5703 8.47678 11.5579C8.5201 11.5534 8.56115 11.5411 8.60561 11.5411C8.67972 11.5309 8.76979 11.5343 8.83364 11.5309C8.89748 11.5276 8.96019 11.5208 9.02631 11.5208C9.15287 11.5208 9.27714 11.5298 9.40141 11.5388L9.49718 11.5478C9.6169 11.5602 9.72521 11.5759 9.83922 11.5961H9.86658C10.4639 11.7044 11.0294 11.9421 11.5223 12.292C12.0152 12.6418 12.4232 13.0952 12.7169 13.6193C12.1893 12.5287 11.3592 11.6079 10.3226 10.9633C10.4446 10.6249 10.6069 10.3019 10.806 10.0012C10.8197 9.97761 10.8357 9.95401 10.8516 9.93153C10.9086 9.84498 10.9702 9.76181 11.0329 9.68089L11.0968 9.60221C11.1618 9.5224 11.2267 9.4426 11.2974 9.36842C11.3087 9.35775 11.3193 9.34649 11.3294 9.3347C11.4688 9.18988 11.6161 9.05255 11.7706 8.92333C11.8071 8.89411 11.839 8.86263 11.8755 8.83454C11.9405 8.78396 12.0248 8.72776 12.0738 8.68954C12.1229 8.65133 12.1753 8.61873 12.2369 8.57715C12.2985 8.53556 12.36 8.4951 12.4273 8.45576L12.6302 8.34336C12.6895 8.31077 12.7488 8.27929 12.8104 8.24782L12.8228 8.2419C12.9222 8.19451 13.019 8.14833 13.1285 8.10733C13.1775 8.0871 13.2254 8.06686 13.2767 8.04776C13.3941 8.00505 13.5115 7.96346 13.6347 7.92749L13.7931 7.88591C13.8912 7.86005 13.9915 7.83533 14.0941 7.8151C14.1477 7.80386 14.2047 7.79262 14.2617 7.78362C14.3666 7.76564 14.4692 7.75103 14.5833 7.73867C14.6334 7.73305 14.6836 7.72068 14.7337 7.72068C14.8945 7.70832 15.0484 7.6982 15.2172 7.6982C15.3859 7.6982 15.5535 7.70719 15.7188 7.72181C15.7678 7.7263 15.8271 7.73529 15.8818 7.74204C15.9913 7.75553 16.0996 7.76901 16.2079 7.78812C16.2706 7.79824 16.3322 7.81397 16.3938 7.82858C16.4907 7.84769 16.5853 7.87017 16.6811 7.89602C16.7438 7.91288 16.8076 7.93311 16.8703 7.95334C16.9604 7.98032 17.0482 8.01179 17.136 8.04326L17.1504 8.04869C17.208 8.07035 17.264 8.09142 17.323 8.11632C17.4073 8.15154 17.4906 8.189 17.5726 8.22872C17.6353 8.25569 17.6912 8.28604 17.7494 8.31526C17.8303 8.35797 17.9101 8.40293 17.9888 8.44901C18.0435 8.48161 18.0982 8.51308 18.1518 8.5468C18.2316 8.59738 18.308 8.65358 18.3855 8.70977C18.4334 8.74349 18.4813 8.77609 18.5281 8.81206C18.6147 8.87949 18.6957 8.95143 18.7777 9.02224C18.8108 9.04921 18.8427 9.07619 18.8747 9.10541C18.9846 9.20648 19.0893 9.31302 19.1882 9.42462C19.2178 9.45834 19.2452 9.49431 19.2737 9.52802C19.341 9.6067 19.4082 9.68763 19.4709 9.77193C19.5074 9.82026 19.5393 9.86971 19.5735 9.91917C19.6237 9.99447 19.6739 10.0664 19.7206 10.144C19.7548 10.1979 19.7845 10.2552 19.8164 10.3103C19.8529 10.3845 19.903 10.4744 19.9304 10.5351C19.9578 10.5958 19.9851 10.6565 20.0102 10.7161C20.0433 10.7936 20.0741 10.8712 20.1026 10.9498C20.1254 11.0105 20.1402 11.0634 20.1653 11.1375C20.1903 11.2117 20.2097 11.2859 20.2291 11.3623L20.236 11.3814C20.2508 11.4466 20.2667 11.5107 20.2804 11.5759C20.455 12.4022 20.3849 13.2605 20.0786 14.0486C20.5665 13.2947 20.8583 12.4338 20.928 11.5422C21.1086 11.5221 21.2902 11.5128 21.4718 11.5141C23.735 11.5489 25.5603 13.2956 25.5318 15.3772C25.5033 17.4587 23.6677 19.1447 21.4046 19.1447H19.366C17.4563 19.1447 16.0027 20.6497 16.1566 22.3593C16.3664 26.1302 17.9831 28.0522 19.1323 28.9513C19.4087 29.181 19.7127 29.3762 20.0376 29.5324C20.1214 29.5744 20.2074 29.6119 20.2952 29.6448Z" fill="black"/>
</svg>
