<svg width="70" height="70" viewBox="0 0 70 70" fill="none" xmlns="http://www.w3.org/2000/svg">
<rect width="70" height="70" rx="16" fill="#00CD92"/>
<path d="M45.0205 34.785L38.5 40H29.75V38.25H36.8637C37.022 38.2499 37.1773 38.2069 37.3131 38.1256C37.4488 38.0442 37.56 37.9275 37.6347 37.788C37.7094 37.6485 37.7449 37.4913 37.7373 37.3332C37.7297 37.1751 37.6794 37.022 37.5917 36.8902L36.0378 34.5592C35.719 34.0794 35.2864 33.6859 34.7786 33.4139C34.2708 33.1418 33.7036 32.9996 33.1275 33H19.25C18.7859 33 18.3408 33.1844 18.0126 33.5126C17.6844 33.8408 17.5 34.2859 17.5 34.75V45.25C17.5 46.1783 17.8687 47.0685 18.5251 47.7249C19.1815 48.3813 20.0717 48.75 21 48.75H37.8682C38.6166 48.7502 39.3563 48.5904 40.0378 48.2813C40.7193 47.9722 41.3269 47.5211 41.8197 46.958L52.5 34.75L49.959 33.903C49.1277 33.6259 48.2402 33.5614 47.3775 33.7155C46.5148 33.8696 45.7045 34.2373 45.0205 34.785ZM47.7015 24.9325C48.4907 24.1187 48.979 22.9935 48.979 21.751C48.979 20.5085 48.4907 19.3832 47.7015 18.5695C47.3024 18.153 46.8232 17.8214 46.2927 17.5946C45.7622 17.3679 45.1914 17.2507 44.6145 17.25C44.6145 17.25 42.4375 17.2447 40.25 19.5005C38.0625 17.2447 35.8855 17.25 35.8855 17.25C35.3088 17.2507 34.7381 17.3678 34.2077 17.5942C33.6773 17.8207 33.198 18.1518 32.7985 18.5678C32.0092 19.3833 31.521 20.5068 31.521 21.7493C31.521 22.9918 32.0092 24.1188 32.7985 24.9307L40.25 33L47.7015 24.9325Z" fill="white"/>
</svg>
