<svg width="14" height="15" viewBox="0 0 14 15" fill="none" xmlns="http://www.w3.org/2000/svg">
<path d="M13 0.0849609H0.996875C0.446875 0.0849609 0 0.538086 0 1.09434V13.0756C0 13.6318 0.446875 14.085 0.996875 14.085H13C13.55 14.085 14 13.6318 14 13.0756V1.09434C14 0.538086 13.55 0.0849609 13 0.0849609ZM4.23125 12.085H2.15625V5.40371H4.23438V12.085H4.23125ZM3.19375 4.49121C2.52812 4.49121 1.99063 3.95059 1.99063 3.28809C1.99063 2.62559 2.52812 2.08496 3.19375 2.08496C3.85625 2.08496 4.39687 2.62559 4.39687 3.28809C4.39687 3.95371 3.85938 4.49121 3.19375 4.49121ZM12.0094 12.085H9.93437V8.83496C9.93437 8.05996 9.91875 7.06309 8.85625 7.06309C7.775 7.06309 7.60938 7.90684 7.60938 8.77871V12.085H5.53438V5.40371H7.525V6.31621H7.55312C7.83125 5.79121 8.50938 5.23809 9.51875 5.23809C11.6187 5.23809 12.0094 6.62246 12.0094 8.42246V12.085Z" fill="white"/>
</svg>
