<svg width="24" height="25" viewBox="0 0 24 25" fill="none" xmlns="http://www.w3.org/2000/svg">
<path d="M12 2.88544C9.243 2.88544 7 5.12844 7 7.88544V10.8854H6C5.46957 10.8854 4.96086 11.0962 4.58579 11.4712C4.21071 11.8463 4 12.355 4 12.8854V20.8854C4 21.4159 4.21071 21.9246 4.58579 22.2996C4.96086 22.6747 5.46957 22.8854 6 22.8854H18C18.5304 22.8854 19.0391 22.6747 19.4142 22.2996C19.7893 21.9246 20 21.4159 20 20.8854V12.8854C20 12.355 19.7893 11.8463 19.4142 11.4712C19.0391 11.0962 18.5304 10.8854 18 10.8854H17V7.88544C17 5.12844 14.757 2.88544 12 2.88544ZM9 7.88544C9 6.23144 10.346 4.88544 12 4.88544C13.654 4.88544 15 6.23144 15 7.88544V10.8854H9V7.88544ZM13 18.6084V20.8854H11V18.6084C10.6504 18.4082 10.3697 18.1068 10.1948 17.7438C10.02 17.3808 9.95928 16.9734 10.0207 16.5752C10.0821 16.177 10.2627 15.8068 10.5388 15.5134C10.8148 15.2199 11.1733 15.017 11.567 14.9314C11.8594 14.8668 12.1626 14.8686 12.4542 14.9367C12.7459 15.0049 13.0185 15.1376 13.252 15.3251C13.4855 15.5126 13.6739 15.7502 13.8034 16.0202C13.9328 16.2903 14 16.586 14 16.8854C13.9994 17.2352 13.9067 17.5786 13.7311 17.8811C13.5556 18.1836 13.3034 18.4344 13 18.6084Z" fill="black"/>
</svg>
