<svg width="120" height="42" viewBox="0 0 120 42" fill="none" xmlns="http://www.w3.org/2000/svg">
<path d="M29.5102 41.4186C28.6801 41.419 27.858 41.2548 27.091 40.9354C26.9738 40.8907 26.8591 40.8396 26.7474 40.7825C26.3141 40.5699 25.9086 40.3044 25.54 39.992C24.0073 38.7687 21.8512 36.1541 21.5714 31.0241C21.3661 28.6984 23.3048 26.651 25.8518 26.651H28.5705C31.5889 26.651 34.037 24.3574 34.075 21.5256C34.113 18.6938 31.6786 16.3177 28.6602 16.2703C28.4179 16.2685 28.1757 16.2812 27.9349 16.3085C27.842 17.5215 27.4529 18.6927 26.8021 19.7183C27.2106 18.6461 27.3041 17.4784 27.0713 16.3544C27.053 16.2657 27.0317 16.1785 27.012 16.0898L27.0028 16.0639C26.977 15.9599 26.9511 15.859 26.9177 15.758C26.8842 15.6571 26.8645 15.5853 26.8341 15.5027C26.796 15.3957 26.755 15.2901 26.7109 15.1846C26.6774 15.1036 26.6409 15.021 26.6044 14.9385C26.568 14.8559 26.501 14.7336 26.4524 14.6327C26.4098 14.5577 26.3703 14.4798 26.3247 14.4064C26.2623 14.3009 26.1954 14.203 26.1285 14.1005C26.0829 14.0333 26.0403 13.966 25.9917 13.9002C25.908 13.7856 25.8183 13.6755 25.7286 13.5684C25.6906 13.5226 25.6541 13.4736 25.6146 13.4278C25.4826 13.2759 25.3431 13.131 25.1964 12.9935C25.1538 12.9538 25.1112 12.9171 25.0672 12.8804C24.9577 12.784 24.8497 12.6862 24.7341 12.5944C24.6718 12.5455 24.6079 12.5012 24.5441 12.4553C24.4407 12.3788 24.3388 12.3024 24.2324 12.2336C24.1609 12.1877 24.0879 12.1449 24.0149 12.1005C23.91 12.0379 23.8036 11.9767 23.6956 11.9186C23.6181 11.8788 23.5435 11.8376 23.4599 11.8009C23.3504 11.7468 23.2394 11.6959 23.1269 11.6479C23.0418 11.6112 22.9612 11.5807 22.8775 11.5486C22.7605 11.5057 22.6434 11.4629 22.5232 11.4262C22.4396 11.3987 22.3545 11.3712 22.2708 11.3483C22.1431 11.3131 22.0169 11.2825 21.8876 11.2565C21.8055 11.2366 21.7234 11.2152 21.6398 11.2015C21.4953 11.1755 21.3509 11.1571 21.2049 11.1388C21.1319 11.1296 21.0529 11.1174 20.9875 11.1113C20.767 11.0914 20.5435 11.0791 20.3184 11.0791C20.0934 11.0791 19.8881 11.0929 19.6737 11.1097C19.6068 11.1097 19.5399 11.1265 19.473 11.1342C19.3209 11.151 19.1841 11.1709 19.0442 11.1953C18.9682 11.2076 18.8921 11.2229 18.8207 11.2382C18.6838 11.2657 18.55 11.2993 18.4192 11.3345L18.2079 11.3911C18.0437 11.44 17.887 11.4966 17.7304 11.5547C17.662 11.5807 17.5981 11.6082 17.5328 11.6357C17.3807 11.6938 17.2469 11.7596 17.1085 11.8268C17.0264 11.8697 16.9473 11.9125 16.8683 11.9568L16.5976 12.1097C16.5079 12.1632 16.4258 12.2183 16.3437 12.2749C16.2616 12.3314 16.1916 12.3758 16.1262 12.4278C16.0608 12.4798 15.9483 12.5562 15.8616 12.625C15.813 12.6632 15.7704 12.7061 15.7218 12.7458C15.5158 12.9216 15.3193 13.1084 15.1333 13.3054C15.1199 13.3215 15.1057 13.3368 15.0907 13.3513C14.9964 13.4522 14.9098 13.5608 14.8231 13.6694L14.738 13.7764C14.6543 13.8865 14.5722 13.9996 14.4962 14.1174C14.4749 14.1479 14.4536 14.1801 14.4354 14.2122C14.1697 14.6213 13.9533 15.0606 13.7906 15.521C15.1731 16.3979 16.2803 17.6506 16.9838 19.1342C16.5922 18.4212 16.048 17.8044 15.3907 17.3285C14.7333 16.8526 13.9791 16.5292 13.1824 16.3819H13.1459C12.9939 16.3544 12.8494 16.333 12.6897 16.3161L12.562 16.3039C12.3963 16.2917 12.2305 16.2794 12.0618 16.2794C11.9736 16.2794 11.8899 16.2886 11.8048 16.2932C11.7196 16.2978 11.5995 16.2932 11.5007 16.307C11.4414 16.307 11.3866 16.3238 11.3288 16.3299C11.2011 16.3467 11.0749 16.362 10.9517 16.385C10.8803 16.4002 10.8134 16.4216 10.7404 16.4354C10.6339 16.4614 10.5275 16.4843 10.4226 16.5134C10.3557 16.5348 10.2933 16.5593 10.228 16.5807C10.123 16.6174 10.0166 16.6479 9.92384 16.6877C9.85237 16.7168 9.78547 16.7519 9.71704 16.7825C9.62429 16.8223 9.53153 16.862 9.44182 16.9064C9.35211 16.9507 9.30041 16.9889 9.22894 17.0287C9.15748 17.0684 9.06472 17.1189 8.98717 17.1678C8.90962 17.2168 8.85336 17.2626 8.7895 17.3085C8.72563 17.3544 8.63744 17.4125 8.56446 17.4614C8.49147 17.5103 8.44585 17.5639 8.38503 17.6143C8.32421 17.6648 8.23297 17.732 8.17367 17.7963C8.11437 17.8605 8.06115 17.9109 8.00489 17.9706C7.94863 18.0302 7.87716 18.0975 7.81786 18.1648C7.75855 18.232 7.7175 18.2917 7.6658 18.3574C7.6141 18.4232 7.55176 18.492 7.50158 18.5639C7.4514 18.6357 7.41491 18.703 7.36929 18.7733C7.32367 18.8437 7.27045 18.9262 7.22636 18.9935C7.18226 19.0608 7.15033 19.1464 7.11383 19.2152C7.07734 19.284 7.03172 19.3681 6.99675 19.4492C6.96178 19.5302 6.93593 19.6021 6.90552 19.6785C6.87511 19.755 6.84013 19.8421 6.80972 19.9262C6.77931 20.0103 6.76867 20.0883 6.74586 20.1694C6.72305 20.2504 6.69568 20.3391 6.67591 20.4232C6.65614 20.5073 6.64854 20.5944 6.63334 20.677C6.61813 20.7596 6.60293 20.8513 6.59076 20.94C6.5786 21.0287 6.59076 21.1128 6.5786 21.1984C6.56643 21.284 6.54058 21.362 6.54058 21.4522V21.4721C6.54058 21.5424 6.54058 21.6143 6.55275 21.6846C6.55275 21.7871 6.55275 21.8926 6.57099 21.9905C6.57382 22.0244 6.5789 22.0581 6.5862 22.0914C6.92376 24.6525 9.23654 26.6388 12.045 26.6388H14.7668C17.3092 26.6388 19.2479 28.6953 19.0427 31.0149C18.7598 36.1449 16.6098 38.7596 15.0725 39.9843C14.7035 40.2951 14.2987 40.56 13.8667 40.7733C13.7546 40.8308 13.6393 40.8818 13.5215 40.9262C12.755 41.2482 11.9329 41.415 11.1023 41.4171H7.13512C5.24895 41.4154 3.44054 40.6611 2.10711 39.3196C0.773669 37.9781 0.0242427 36.1593 0.0234375 34.2626V7.77639C0.0234375 5.87851 0.773183 4.05836 2.10774 2.71636C3.44229 1.37435 5.25234 0.620425 7.13968 0.620425H33.4789C34.4138 0.620023 35.3397 0.804799 36.2036 1.1642C37.0675 1.52361 37.8525 2.0506 38.5139 2.71509C39.1753 3.37958 39.7 4.16856 40.0582 5.03698C40.4163 5.9054 40.6008 6.83625 40.6012 7.77639V34.2626C40.6012 36.1605 39.8515 37.9807 38.517 39.3227C37.1824 40.6647 35.3723 41.4186 33.485 41.4186H29.5102ZM84.8756 39.1051C83.4793 37.6417 82.6996 35.6921 82.6996 33.664C82.6996 31.6359 83.4793 29.6863 84.8756 28.2229C85.5704 27.5129 86.3989 26.9491 87.3125 26.5643C88.2262 26.1795 89.2069 25.9813 90.1975 25.9813C91.1881 25.9813 92.1688 26.1795 93.0825 26.5643C93.9962 26.9491 94.8246 27.5129 95.5195 28.2229C96.9085 29.6901 97.6832 31.6383 97.6832 33.664C97.6832 35.6897 96.9085 37.6379 95.5195 39.1051C94.8246 39.8151 93.9962 40.3789 93.0825 40.7637C92.1688 41.1486 91.1881 41.3467 90.1975 41.3467C89.2069 41.3467 88.2262 41.1486 87.3125 40.7637C86.3989 40.3789 85.5704 39.8151 84.8756 39.1051ZM85.9673 29.3192C84.8636 30.4966 84.249 32.0536 84.249 33.6716C84.249 35.2897 84.8636 36.8466 85.9673 38.0241C86.5165 38.5912 87.1731 39.042 87.8983 39.3498C88.6235 39.6576 89.4027 39.8161 90.1899 39.8161C90.9771 39.8161 91.7563 39.6576 92.4816 39.3498C93.2068 39.042 93.8634 38.5912 94.4125 38.0241C95.5169 36.847 96.132 35.2899 96.132 33.6716C96.132 32.0534 95.5169 30.4963 94.4125 29.3192C93.8634 28.7521 93.2068 28.3013 92.4816 27.9935C91.7563 27.6857 90.9771 27.5272 90.1899 27.5272C89.4027 27.5272 88.6235 27.6857 87.8983 27.9935C87.1731 28.3013 86.5165 28.7521 85.9673 29.3192ZM68.198 39.1051C66.8017 37.6417 66.0221 35.6921 66.0221 33.664C66.0221 31.6359 66.8017 29.6863 68.198 28.2229C68.8929 27.5129 69.7213 26.9491 70.635 26.5643C71.5487 26.1795 72.5294 25.9813 73.52 25.9813C74.5106 25.9813 75.4913 26.1795 76.405 26.5643C77.3186 26.9491 78.1471 27.5129 78.8419 28.2229C80.2309 29.6901 81.0056 31.6383 81.0056 33.664C81.0056 35.6897 80.2309 37.6379 78.8419 39.1051C78.1471 39.8151 77.3186 40.3789 76.405 40.7637C75.4913 41.1486 74.5106 41.3467 73.52 41.3467C72.5294 41.3467 71.5487 41.1486 70.635 40.7637C69.7213 40.3789 68.8929 39.8151 68.198 39.1051ZM69.2898 29.3192C68.1861 30.4966 67.5714 32.0536 67.5714 33.6716C67.5714 35.2897 68.1861 36.8466 69.2898 38.0241C69.8389 38.5912 70.4955 39.042 71.2207 39.3498C71.946 39.6576 72.7252 39.8161 73.5124 39.8161C74.2996 39.8161 75.0788 39.6576 75.804 39.3498C76.5292 39.042 77.1858 38.5912 77.735 38.0241C78.8387 36.8466 79.4533 35.2897 79.4533 33.6716C79.4533 32.0536 78.8387 30.4966 77.735 29.3192C77.1858 28.7521 76.5292 28.3013 75.804 27.9935C75.0788 27.6857 74.2996 27.5272 73.5124 27.5272C72.7252 27.5272 71.946 27.6857 71.2207 27.9935C70.4955 28.3013 69.8389 28.7521 69.2898 29.3192ZM118.346 41.1388V30.57H119.811V41.1311L118.346 41.1388ZM113.912 41.1388V28.8635L108.418 38.6984H107.166L101.691 28.885V41.1311H100.121V26.1923H101.903L107.801 36.8804L113.677 26.1923H115.46V41.1311L113.912 41.1388ZM54.1191 41.1388V26.1923H59.6783C60.8306 26.1478 61.9627 26.506 62.8821 27.2061C63.3125 27.563 63.6525 28.0177 63.874 28.5326C64.0956 29.0475 64.1923 29.608 64.1563 30.1678C64.1563 31.7611 63.4842 32.8773 62.1401 33.5164C62.8676 33.77 63.493 34.2551 63.9216 34.8983C64.3502 35.5415 64.5586 36.3077 64.5152 37.0807C64.5482 37.653 64.444 38.2249 64.2114 38.7483C63.9788 39.2717 63.6246 39.7313 63.1786 40.0883C62.2469 40.7993 61.1013 41.1683 59.9322 41.1342L54.1191 41.1388ZM55.6685 39.7733H59.8911C60.6723 39.7913 61.4372 39.5476 62.0656 39.0807C62.3789 38.833 62.6269 38.5118 62.7878 38.1452C62.9488 37.7786 63.0177 37.3779 62.9885 36.9782C63.0156 36.5821 62.9456 36.1854 62.7847 35.8228C62.6238 35.4603 62.3768 35.143 62.0656 34.8987C61.437 34.4319 60.6723 34.1878 59.8911 34.2045H55.6685V39.7733ZM55.6685 32.9675H59.6783C60.4407 32.9986 61.1911 32.769 61.8071 32.3161C62.1004 32.0637 62.3298 31.7447 62.4763 31.3855C62.6227 31.0263 62.6821 30.6372 62.6494 30.2504C62.6824 29.8654 62.6225 29.4781 62.4748 29.1214C62.3271 28.7647 62.0959 28.4491 61.801 28.2015C61.1812 27.7575 60.4326 27.5327 59.6722 27.5623H55.6685V32.9675ZM118.431 28.0929C118.343 28.0097 118.272 27.9088 118.225 27.7966C118.177 27.6844 118.153 27.5635 118.155 27.4415C118.155 27.3229 118.179 27.2056 118.227 27.0972C118.275 26.9887 118.344 26.8914 118.431 26.8116C118.602 26.6416 118.833 26.5463 119.073 26.5463C119.313 26.5463 119.544 26.6416 119.715 26.8116C119.799 26.893 119.866 26.9908 119.912 27.0991C119.958 27.2074 119.981 27.3239 119.981 27.4415C119.98 27.6216 119.926 27.7973 119.826 27.9469C119.727 28.0965 119.586 28.2132 119.42 28.2827C119.255 28.3521 119.073 28.3712 118.898 28.3374C118.722 28.3037 118.56 28.2186 118.431 28.0929ZM102.199 15.096L105.984 14.0256C106.44 15.5256 107.822 16.3834 109.481 16.3834C111.241 16.3834 112.387 15.4996 112.387 14.2672C112.387 12.6311 110.334 12.3635 108.256 11.8207C105.593 11.1235 102.446 9.99657 102.446 6.2718C102.438 3.00269 105.397 0.589844 109.179 0.589844C112.615 0.589844 114.934 2.2718 115.84 5.27945L112.27 6.32379C112.109 5.65574 111.718 5.06637 111.167 4.65962C110.616 4.25287 109.94 4.05487 109.258 4.10055C107.499 4.10055 106.46 5.14489 106.46 6.27027C106.46 7.85284 108.405 8.19993 110.43 8.76263C112.936 9.45987 116.453 10.3437 116.453 14.1495C116.453 17.6663 113.362 19.9599 109.445 19.9599C105.846 19.9599 103.101 18.1112 102.195 15.0822L102.199 15.096ZM54.3122 15.096L58.0969 14.0256C58.553 15.5256 59.9352 16.3834 61.5942 16.3834C63.3535 16.3834 64.4985 15.4996 64.4985 14.2672C64.4985 12.6311 62.4472 12.3635 60.3686 11.8207C57.7046 11.1235 54.5585 9.99657 54.5585 6.2718C54.5585 3.00422 57.5175 0.591373 61.3007 0.591373C64.7387 0.591373 67.0561 2.27333 67.9638 5.28098L64.392 6.32532C64.2315 5.65724 63.8413 5.06772 63.2903 4.66091C62.7394 4.25409 62.0633 4.05616 61.3813 4.10208C59.622 4.10208 58.5819 5.14642 58.5819 6.2718C58.5819 7.85437 60.5267 8.20146 62.5537 8.76416C65.058 9.4614 68.5751 10.3452 68.5751 14.151C68.5751 17.6678 65.4853 19.9614 61.5668 19.9614C57.9692 19.9614 55.223 18.1128 54.3168 15.0837L54.3122 15.096ZM86.1042 13.0317C86.1042 9.13877 88.7424 6.16171 92.2594 6.16171C94.259 6.16171 95.6168 6.88342 96.6037 8.06385V6.40636H100.334V19.6709H96.6037V18.0088C96.0717 18.6379 95.4037 19.1364 94.6507 19.4661C93.8978 19.7958 93.0798 19.9479 92.2594 19.9109C88.7408 19.9109 86.1027 16.9094 86.1027 13.0302L86.1042 13.0317ZM89.8083 13.0317C89.8083 15.096 91.2741 16.6235 93.1931 16.6235C94.1011 16.6202 94.9707 16.2546 95.6108 15.6069C96.2509 14.9592 96.6091 14.0825 96.6067 13.1694C96.6067 13.1235 96.6067 13.0776 96.6067 13.0317C96.6259 12.5799 96.5564 12.1288 96.4022 11.704C96.248 11.2792 96.012 10.8891 95.7079 10.556C95.4038 10.2229 95.0373 9.95332 94.6296 9.76262C94.2218 9.57192 93.7807 9.46385 93.3314 9.44458H93.1961C91.2756 9.44458 89.8083 10.9736 89.8083 13.0348V13.0317ZM69.8752 13.0317C69.8752 9.13877 72.5134 6.16171 76.0304 6.16171C78.03 6.16171 79.3894 6.88342 80.3747 8.06385V6.40636H84.1046V19.6709H80.3747V18.0088C79.8428 18.638 79.1748 19.1365 78.4218 19.4662C77.6688 19.7959 76.8509 19.948 76.0304 19.9109C72.5118 19.9109 69.8737 16.9094 69.8737 13.0302L69.8752 13.0317ZM73.5793 13.0317C73.5793 15.096 75.0451 16.6235 76.9641 16.6235C77.872 16.6206 78.7416 16.2553 79.3818 15.6079C80.0219 14.9605 80.3801 14.0839 80.3777 13.1709C80.3777 13.1235 80.3777 13.0776 80.3777 13.0317C80.3981 12.5787 80.3293 12.126 80.1751 11.6997C80.021 11.2735 79.7845 10.8821 79.4795 10.548C79.1744 10.214 78.8067 9.94384 78.3974 9.75316C77.9882 9.56248 77.5455 9.45501 77.0948 9.43694H76.958C75.0375 9.43694 73.5717 10.966 73.5717 13.0272L73.5793 13.0317Z" fill="white"/>
</svg>
