<svg width="236" height="80" viewBox="0 0 236 80" fill="none" xmlns="http://www.w3.org/2000/svg">
<path d="M58.0326 79.8329C56.4 79.8337 54.7832 79.5133 53.2748 78.8902C53.0443 78.8029 52.8187 78.7033 52.599 78.5918C51.7469 78.177 50.9494 77.659 50.2246 77.0493C47.2102 74.6625 42.9697 69.5607 42.4195 59.551C42.0158 55.0131 45.8286 51.0182 50.8376 51.0182H56.1845C62.1205 51.0182 66.9352 46.5429 67.0099 41.0174C67.0847 35.4919 62.297 30.8556 56.3609 30.7631C55.8844 30.7596 55.4081 30.7845 54.9345 30.8377C54.7517 33.2045 53.9864 35.4897 52.7066 37.4909C53.51 35.3988 53.6938 33.1205 53.2359 30.9272C53.2 30.7541 53.1582 30.5841 53.1193 30.411L53.1014 30.3603C53.0505 30.1574 52.9997 29.9605 52.9339 29.7636C52.8681 29.5667 52.8292 29.4265 52.7694 29.2653C52.6947 29.0565 52.6139 28.8506 52.5272 28.6448C52.4614 28.4866 52.3896 28.3255 52.3179 28.1644C52.2461 28.0033 52.1145 27.7646 52.0188 27.5677C51.9351 27.4215 51.8573 27.2694 51.7676 27.1262C51.645 26.9203 51.5134 26.7294 51.3819 26.5295C51.2921 26.3982 51.2084 26.2669 51.1127 26.1386C50.9482 25.9149 50.7718 25.7 50.5954 25.4912C50.5206 25.4017 50.4488 25.3062 50.3711 25.2167C50.1116 24.9205 49.8371 24.6377 49.5487 24.3694C49.465 24.2918 49.3812 24.2202 49.2945 24.1486C49.0792 23.9607 48.8669 23.7697 48.6396 23.5907C48.517 23.4952 48.3914 23.4087 48.2658 23.3192C48.0625 23.17 47.8621 23.0208 47.6528 22.8866C47.5122 22.7971 47.3687 22.7135 47.2251 22.627C47.0188 22.5047 46.8095 22.3854 46.5971 22.272C46.4446 22.1944 46.2981 22.1139 46.1336 22.0423C45.9183 21.9368 45.7 21.8374 45.4787 21.7439C45.3112 21.6723 45.1528 21.6126 44.9883 21.55C44.758 21.4664 44.5278 21.3829 44.2915 21.3113C44.127 21.2576 43.9596 21.2039 43.7951 21.1591C43.5439 21.0905 43.2957 21.0308 43.0415 20.9801C42.88 20.9413 42.7185 20.8996 42.5541 20.8727C42.27 20.822 41.9859 20.7862 41.6988 20.7504C41.5552 20.7325 41.3997 20.7086 41.2712 20.6967C40.8375 20.6579 40.3979 20.634 39.9554 20.634C39.5128 20.634 39.1091 20.6609 38.6874 20.6937C38.5558 20.6937 38.4243 20.7265 38.2927 20.7414C37.9936 20.7743 37.7245 20.813 37.4494 20.8608C37.2998 20.8846 37.1503 20.9145 37.0098 20.9443C36.7406 20.998 36.4775 21.0637 36.2203 21.1323L35.8046 21.2427C35.4817 21.3381 35.1736 21.4485 34.8656 21.5619C34.731 21.6126 34.6054 21.6663 34.4769 21.72C34.1778 21.8334 33.9147 21.9617 33.6425 22.093C33.481 22.1765 33.3255 22.26 33.17 22.3466L32.6377 22.6449C32.4613 22.7493 32.2998 22.8568 32.1383 22.9671C31.9768 23.0775 31.8393 23.1641 31.7107 23.2655C31.5821 23.3669 31.3608 23.5161 31.1904 23.6504C31.0947 23.725 31.0109 23.8085 30.9152 23.8861C30.5101 24.2291 30.1238 24.5936 29.7579 24.978C29.7316 25.0093 29.7037 25.0392 29.6742 25.0675C29.4888 25.2644 29.3183 25.4763 29.1479 25.6881L28.9804 25.897C28.8159 26.1118 28.6545 26.3325 28.5049 26.5623C28.4631 26.6219 28.4212 26.6846 28.3853 26.7473C27.8629 27.5455 27.4373 28.4028 27.1174 29.3011C29.8362 31.0121 32.0136 33.4565 33.3973 36.3512V36.3512C32.6271 34.9599 31.5569 33.7566 30.2641 32.8279C28.9713 31.8992 27.488 31.2684 25.9212 30.9809H25.8494C25.5504 30.9272 25.2663 30.8854 24.9523 30.8526L24.7011 30.8287C24.3751 30.8048 24.0492 30.781 23.7172 30.781C23.5438 30.781 23.3793 30.7989 23.2118 30.8078C23.0444 30.8168 22.8081 30.8078 22.6138 30.8347C22.4971 30.8347 22.3895 30.8675 22.2758 30.8794C22.0246 30.9122 21.7764 30.9421 21.5342 30.9868C21.3937 31.0167 21.2621 31.0584 21.1185 31.0853C20.9092 31.136 20.6999 31.1808 20.4935 31.2374C20.362 31.2792 20.2393 31.327 20.1108 31.3687C19.9044 31.4403 19.6951 31.5 19.5127 31.5776C19.3721 31.6343 19.2405 31.7029 19.106 31.7625C18.9235 31.8401 18.7411 31.9177 18.5647 32.0042C18.3883 32.0907 18.2866 32.1653 18.146 32.2429C18.0055 32.3205 17.8231 32.4189 17.6706 32.5144C17.518 32.6099 17.4074 32.6994 17.2818 32.7889C17.1562 32.8784 16.9827 32.9918 16.8392 33.0872C16.6957 33.1827 16.606 33.2871 16.4863 33.3856C16.3667 33.484 16.1873 33.6153 16.0707 33.7406C15.954 33.8659 15.8494 33.9644 15.7387 34.0807C15.6281 34.1971 15.4875 34.3284 15.3709 34.4596C15.2543 34.5909 15.1735 34.7073 15.0719 34.8356C14.9702 34.9639 14.8476 35.0981 14.7489 35.2383C14.6502 35.3786 14.5784 35.5098 14.4887 35.6471C14.399 35.7843 14.2943 35.9454 14.2076 36.0767C14.1209 36.208 14.0581 36.3751 13.9863 36.5093C13.9146 36.6436 13.8248 36.8077 13.7561 36.9658C13.6873 37.1239 13.6364 37.2641 13.5766 37.4133C13.5168 37.5625 13.448 37.7326 13.3882 37.8967C13.3284 38.0607 13.3075 38.2129 13.2626 38.371C13.2178 38.5292 13.1639 38.7022 13.1251 38.8663C13.0862 39.0304 13.0712 39.2004 13.0413 39.3616C13.0114 39.5227 12.9815 39.7017 12.9576 39.8747C12.9337 40.0478 12.9576 40.2119 12.9337 40.3789C12.9098 40.546 12.8589 40.6982 12.8589 40.8742V40.913C12.8589 41.0502 12.8589 41.1905 12.8828 41.3277C12.8828 41.5276 12.8828 41.7335 12.9187 41.9244C12.9243 41.9906 12.9343 42.0564 12.9486 42.1213C13.6125 47.1187 18.161 50.9943 23.6843 50.9943H29.0372C34.0373 50.9943 37.8501 55.0071 37.4464 59.5331C36.8902 69.5428 32.6617 74.6446 29.6383 77.0344C28.9127 77.6407 28.1165 78.1576 27.2669 78.5739C27.0464 78.686 26.8198 78.7856 26.5881 78.8723C25.0807 79.5005 23.4639 79.826 21.8303 79.83H14.0282C10.3187 79.8268 6.76218 78.3548 4.13975 75.7374C1.51733 73.1199 0.0434537 69.571 0.0418701 65.8701V14.1896C0.0418701 10.4865 1.51637 6.93495 4.141 4.31641C6.76562 1.69787 10.3254 0.226785 14.0372 0.226785H65.8377C67.6763 0.226001 69.4972 0.586539 71.1962 1.28781C72.8952 1.98909 74.4391 3.01737 75.7398 4.31394C77.0405 5.61051 78.0725 7.14998 78.7768 8.84446C79.4812 10.5389 79.8441 12.3552 79.8449 14.1896V65.8701C79.8449 69.5733 78.3704 73.1248 75.7458 75.7433C73.1212 78.3619 69.5614 79.8329 65.8496 79.8329H58.0326ZM166.918 75.3189C164.172 72.4634 162.638 68.6593 162.638 64.702C162.638 60.7448 164.172 56.9407 166.918 54.0852C168.284 52.7 169.914 51.5999 171.71 50.849C173.507 50.098 175.436 49.7113 177.384 49.7113C179.332 49.7113 181.261 50.098 183.058 50.849C184.855 51.5999 186.484 52.7 187.851 54.0852C190.583 56.9481 192.106 60.7494 192.106 64.702C192.106 68.6547 190.583 72.456 187.851 75.3189C186.484 76.7041 184.855 77.8042 183.058 78.5551C181.261 79.306 179.332 79.6928 177.384 79.6928C175.436 79.6928 173.507 79.306 171.71 78.5551C169.914 77.8042 168.284 76.7041 166.918 75.3189V75.3189ZM169.065 56.2244C166.894 58.5218 165.685 61.5598 165.685 64.717C165.685 67.8742 166.894 70.9121 169.065 73.2095C170.145 74.3161 171.436 75.1957 172.862 75.7962C174.289 76.3968 175.821 76.7062 177.369 76.7062C178.917 76.7062 180.45 76.3968 181.876 75.7962C183.303 75.1957 184.594 74.3161 185.674 73.2095C187.846 70.9128 189.055 67.8746 189.055 64.717C189.055 61.5594 187.846 58.5212 185.674 56.2244C184.594 55.1178 183.303 54.2383 181.876 53.6377C180.45 53.0371 178.917 52.7277 177.369 52.7277C175.821 52.7277 174.289 53.0371 172.862 53.6377C171.436 54.2383 170.145 55.1178 169.065 56.2244V56.2244ZM134.119 75.3189C131.372 72.4634 129.839 68.6593 129.839 64.702C129.839 60.7448 131.372 56.9407 134.119 54.0852C135.485 52.7 137.114 51.5999 138.911 50.849C140.708 50.098 142.637 49.7113 144.585 49.7113C146.533 49.7113 148.462 50.098 150.259 50.849C152.056 51.5999 153.685 52.7 155.052 54.0852C157.783 56.9481 159.307 60.7494 159.307 64.702C159.307 68.6547 157.783 72.456 155.052 75.3189C153.685 76.7041 152.056 77.8042 150.259 78.5551C148.462 79.306 146.533 79.6928 144.585 79.6928C142.637 79.6928 140.708 79.306 138.911 78.5551C137.114 77.8042 135.485 76.7041 134.119 75.3189V75.3189ZM136.266 56.2244C134.095 58.5218 132.886 61.5598 132.886 64.717C132.886 67.8742 134.095 70.9121 136.266 73.2095C137.346 74.3161 138.637 75.1957 140.063 75.7962C141.49 76.3968 143.022 76.7062 144.57 76.7062C146.118 76.7062 147.651 76.3968 149.077 75.7962C150.503 75.1957 151.795 74.3161 152.875 73.2095C155.045 70.9121 156.254 67.8742 156.254 64.717C156.254 61.5598 155.045 58.5218 152.875 56.2244C151.795 55.1178 150.503 54.2383 149.077 53.6377C147.651 53.0371 146.118 52.7277 144.57 52.7277C143.022 52.7277 141.49 53.0371 140.063 53.6377C138.637 54.2383 137.346 55.1178 136.266 56.2244ZM232.743 79.287V58.6649H235.623V79.2721L232.743 79.287ZM224.023 79.287V55.3353L213.219 74.5253H210.755L199.989 55.3771V79.2721H196.9V50.1231H200.405L212.005 70.9779L223.56 50.1231H227.068V79.2721L224.023 79.287ZM106.43 79.287V50.1231H117.363C119.629 50.0363 121.856 50.7353 123.664 52.1012C124.51 52.7977 125.179 53.6848 125.615 54.6895C126.05 55.6942 126.241 56.7878 126.17 57.8802C126.17 60.9891 124.848 63.167 122.205 64.4141C123.635 64.9088 124.865 65.8554 125.708 67.1104C126.551 68.3654 126.961 69.8604 126.876 71.3687C126.941 72.4854 126.736 73.6014 126.278 74.6226C125.821 75.6439 125.124 76.5406 124.247 77.2373C122.415 78.6245 120.162 79.3447 117.862 79.278L106.43 79.287ZM109.477 76.6227H117.782C119.318 76.6577 120.822 76.1823 122.058 75.2712C122.674 74.788 123.162 74.1612 123.479 73.4459C123.795 72.7306 123.931 71.9486 123.873 71.1688C123.927 70.3959 123.789 69.6218 123.472 68.9144C123.156 68.207 122.67 67.5878 122.058 67.1112C120.822 66.2005 119.318 65.7241 117.782 65.7567H109.477V76.6227ZM109.477 63.3431H117.363C118.862 63.4037 120.338 62.9556 121.55 62.0721C122.127 61.5796 122.578 60.9571 122.866 60.2563C123.154 59.5554 123.271 58.7962 123.206 58.0413C123.271 57.2902 123.153 56.5345 122.863 55.8384C122.572 55.1424 122.118 54.5266 121.538 54.0434C120.319 53.1771 118.846 52.7386 117.351 52.7963H109.477V63.3431ZM232.911 53.8316C232.737 53.6692 232.598 53.4723 232.504 53.2534C232.411 53.0346 232.364 52.7986 232.367 52.5606C232.367 52.3292 232.415 52.1004 232.509 51.8887C232.602 51.677 232.739 51.4872 232.911 51.3314C233.247 50.9998 233.7 50.8138 234.173 50.8138C234.645 50.8138 235.099 50.9998 235.435 51.3314C235.601 51.4904 235.733 51.6813 235.823 51.8925C235.913 52.1038 235.959 52.3311 235.958 52.5606C235.956 52.9119 235.851 53.2549 235.655 53.5467C235.459 53.8386 235.181 54.0664 234.856 54.2019C234.531 54.3374 234.173 54.3746 233.828 54.3087C233.482 54.2429 233.163 54.0769 232.911 53.8316V53.8316ZM200.988 28.4717L208.431 26.3833C209.328 29.3101 212.047 30.9838 215.309 30.9838C218.769 30.9838 221.024 29.2594 221.024 26.8547C221.024 23.6623 216.987 23.1402 212.899 22.081C207.663 20.7206 201.472 18.5217 201.472 11.2539C201.457 4.8751 207.277 0.167114 214.714 0.167114C221.472 0.167114 226.033 3.44898 227.815 9.31756L220.794 11.3553C220.477 10.0518 219.709 8.90179 218.625 8.10814C217.541 7.31448 216.211 6.92815 214.87 7.01727C211.41 7.01727 209.367 9.05501 209.367 11.2509C209.367 14.3388 213.192 15.0161 217.175 16.114C222.103 17.4745 229.02 19.199 229.02 26.6249C229.02 33.487 222.941 37.9623 215.237 37.9623C208.159 37.9623 202.761 34.3552 200.979 28.4449L200.988 28.4717ZM106.81 28.4717L114.253 26.3833C115.15 29.3101 117.868 30.9838 121.131 30.9838C124.591 30.9838 126.843 29.2594 126.843 26.8547C126.843 23.6623 122.809 23.1402 118.721 22.081C113.481 20.7206 107.294 18.5217 107.294 11.2539C107.294 4.87809 113.114 0.170098 120.554 0.170098C127.315 0.170098 131.873 3.45196 133.658 9.32054L126.633 11.3583C126.318 10.0547 125.55 8.90443 124.467 8.11065C123.383 7.31686 122.054 6.93065 120.712 7.02025C117.252 7.02025 115.207 9.05799 115.207 11.2539C115.207 14.3418 119.032 15.0191 123.018 16.117C127.943 17.4775 134.86 19.2019 134.86 26.6279C134.86 33.49 128.784 37.9653 121.077 37.9653C114.002 37.9653 108.601 34.3582 106.819 28.4479L106.81 28.4717ZM169.334 24.444C169.334 16.848 174.522 11.039 181.439 11.039C185.372 11.039 188.042 12.4473 189.983 14.7505V11.5164H197.319V37.3984H189.983V34.1553C188.937 35.3829 187.623 36.3555 186.142 36.9988C184.661 37.6421 183.053 37.939 181.439 37.8668C174.519 37.8668 169.331 32.0102 169.331 24.441L169.334 24.444ZM176.619 24.444C176.619 28.4717 179.502 31.4523 183.275 31.4523C185.061 31.4459 186.772 30.7325 188.03 29.4687C189.289 28.2049 189.994 26.4942 189.989 24.7125C189.989 24.623 189.989 24.5335 189.989 24.444C190.027 23.5624 189.89 22.6821 189.587 21.8532C189.283 21.0244 188.819 20.2633 188.221 19.6133C187.623 18.9634 186.903 18.4373 186.101 18.0652C185.299 17.6931 184.431 17.4822 183.548 17.4447H183.281C179.505 17.4447 176.619 20.4282 176.619 24.4499V24.444ZM137.417 24.444C137.417 16.848 142.605 11.039 149.522 11.039C153.455 11.039 156.128 12.4473 158.066 14.7505V11.5164H165.402V37.3984H158.066V34.1553C157.02 35.3831 155.706 36.3558 154.225 36.9991C152.745 37.6424 151.136 37.9392 149.522 37.8668C142.602 37.8668 137.414 32.0102 137.414 24.441L137.417 24.444ZM144.702 24.444C144.702 28.4717 147.585 31.4523 151.358 31.4523C153.144 31.4467 154.854 30.7339 156.113 29.4706C157.372 28.2073 158.077 26.4969 158.072 24.7155C158.072 24.623 158.072 24.5335 158.072 24.444C158.112 23.5599 157.977 22.6766 157.674 21.8449C157.37 21.0133 156.905 20.2496 156.305 19.5977C155.705 18.9459 154.982 18.4188 154.177 18.0467C153.373 17.6747 152.502 17.465 151.616 17.4297H151.346C147.57 17.4297 144.687 20.4133 144.687 24.435L144.702 24.444Z" fill="black"/>
</svg>
