<svg width="47" height="16" viewBox="0 0 47 16" fill="none" xmlns="http://www.w3.org/2000/svg">
<path d="M11.5008 15.9664C11.1773 15.9665 10.8569 15.9024 10.558 15.7778C10.5123 15.7604 10.4676 15.7404 10.424 15.7181C10.2552 15.6352 10.0971 15.5316 9.95348 15.4096C9.35611 14.9323 8.51576 13.9119 8.40671 11.91C8.32671 11.0024 9.08231 10.2034 10.075 10.2034H11.1346C12.311 10.2034 13.2651 9.30836 13.2799 8.20326C13.2947 7.09817 12.3459 6.17089 11.1696 6.15239C11.0751 6.15169 10.9807 6.15667 10.8869 6.16731C10.8506 6.64067 10.699 7.09772 10.4454 7.49796C10.6046 7.07955 10.641 6.62387 10.5503 6.18521C10.5431 6.1506 10.5349 6.11659 10.5271 6.08198L10.5236 6.07184C10.5135 6.03126 10.5034 5.99188 10.4904 5.9525C10.4774 5.91312 10.4697 5.88507 10.4578 5.85285C10.443 5.81108 10.427 5.76991 10.4098 5.72873C10.3968 5.69711 10.3825 5.66489 10.3683 5.63267C10.3541 5.60044 10.328 5.55271 10.3091 5.51333C10.2925 5.48409 10.2771 5.45365 10.2593 5.42501C10.235 5.38384 10.2089 5.34565 10.1828 5.30567C10.1651 5.27942 10.1485 5.25316 10.1295 5.2275C10.0969 5.18275 10.0619 5.13979 10.027 5.09802C10.0122 5.08012 9.99793 5.06102 9.98252 5.04312C9.9311 4.98388 9.8767 4.92732 9.81955 4.87366C9.80295 4.85814 9.78636 4.84382 9.76917 4.8295C9.7265 4.79191 9.68443 4.75372 9.63939 4.71792C9.61509 4.69882 9.5902 4.68152 9.56531 4.66362C9.52501 4.63378 9.4853 4.60395 9.44382 4.5771C9.41597 4.5592 9.38752 4.54249 9.35907 4.52518C9.31818 4.50072 9.2767 4.47685 9.23462 4.45418C9.2044 4.43866 9.17536 4.42255 9.14276 4.40823C9.10009 4.38715 9.05683 4.36726 9.01298 4.34856C8.97979 4.33424 8.94838 4.32231 8.91578 4.30977C8.87015 4.29307 8.82452 4.27636 8.7777 4.26204C8.74511 4.2513 8.71192 4.24056 8.67932 4.23161C8.62954 4.21788 8.58035 4.20595 8.52998 4.1958C8.49798 4.18805 8.46598 4.17969 8.43338 4.17432C8.37708 4.16418 8.32078 4.15702 8.26389 4.14986C8.23544 4.14628 8.20463 4.1415 8.17914 4.13912C8.09321 4.13136 8.0061 4.12659 7.91839 4.12659C7.83068 4.12659 7.75067 4.13196 7.66711 4.13852C7.64104 4.13852 7.61496 4.14508 7.58888 4.14807C7.52962 4.15463 7.47628 4.16239 7.42176 4.17194C7.39213 4.17671 7.3625 4.18268 7.33465 4.18864C7.28131 4.19938 7.22916 4.21251 7.17819 4.22624L7.09582 4.24831C7.03181 4.26741 6.97077 4.28949 6.90973 4.31216C6.88306 4.32231 6.85817 4.33305 6.83269 4.34379C6.77342 4.36646 6.72127 4.39212 6.66734 4.41838C6.63534 4.43508 6.60452 4.45179 6.57371 4.46909L6.46822 4.52876C6.43325 4.54965 6.40125 4.57113 6.36925 4.59321C6.33725 4.61529 6.30999 4.63259 6.2845 4.65288C6.25902 4.67317 6.21517 4.703 6.18139 4.72985C6.16242 4.74477 6.14583 4.76148 6.12686 4.77699C6.04658 4.8456 5.97002 4.9185 5.89752 4.99539C5.89231 5.00165 5.88677 5.00762 5.88092 5.01329C5.84418 5.05267 5.8104 5.09504 5.77662 5.1374L5.74343 5.17917C5.71084 5.22213 5.67884 5.26629 5.6492 5.31224C5.64091 5.32417 5.63261 5.3367 5.6255 5.34923C5.52197 5.50888 5.43762 5.68034 5.37422 5.86001C5.91303 6.20219 6.34454 6.69107 6.61875 7.27002C6.4661 6.99177 6.25403 6.7511 5.99783 6.56536C5.74162 6.37963 5.44767 6.25346 5.13717 6.19595H5.12295C5.06368 6.18521 5.00738 6.17686 4.94516 6.1703L4.89538 6.16552C4.83078 6.16075 4.76618 6.15597 4.7004 6.15597C4.66603 6.15597 4.63344 6.15955 4.60025 6.16134C4.56706 6.16313 4.52024 6.16134 4.48172 6.16671C4.45861 6.16671 4.43727 6.17328 4.41475 6.17567C4.36497 6.18223 4.31578 6.1882 4.26778 6.19715C4.23993 6.20311 4.21385 6.21147 4.18541 6.21684C4.14392 6.22698 4.10244 6.23593 4.06155 6.24727C4.03547 6.25562 4.01117 6.26517 3.98569 6.27352C3.9448 6.28785 3.90331 6.29978 3.86716 6.31529C3.83931 6.32663 3.81323 6.34036 3.78657 6.35229C3.75042 6.3678 3.71426 6.38332 3.6793 6.40062C3.64433 6.41793 3.62418 6.43284 3.59633 6.44836C3.56848 6.46387 3.53233 6.48356 3.5021 6.50266C3.47188 6.52175 3.44995 6.53965 3.42506 6.55756C3.40017 6.57546 3.3658 6.59813 3.33735 6.61723C3.30891 6.63632 3.29113 6.65721 3.26742 6.6769C3.24372 6.69659 3.20816 6.72284 3.18505 6.7479C3.16193 6.77296 3.14119 6.79266 3.11926 6.81593C3.09734 6.8392 3.06948 6.86545 3.04637 6.89171C3.02326 6.91796 3.00726 6.94124 2.98711 6.96689C2.96696 6.99255 2.94266 7.0194 2.9231 7.04745C2.90355 7.07549 2.88932 7.10175 2.87154 7.1292C2.85377 7.15665 2.83302 7.18887 2.81584 7.21512C2.79865 7.24138 2.78621 7.27479 2.77198 7.30164C2.75776 7.3285 2.73998 7.36131 2.72635 7.39294C2.71272 7.42457 2.70264 7.45261 2.69079 7.48245C2.67894 7.51228 2.66531 7.54629 2.65346 7.57911C2.6416 7.61193 2.63745 7.64236 2.62857 7.67399C2.61968 7.70561 2.60901 7.74022 2.6013 7.77304C2.5936 7.80586 2.59064 7.83987 2.58471 7.87209C2.57878 7.90431 2.57286 7.94012 2.56812 7.97473C2.56338 8.00933 2.56812 8.04215 2.56338 8.07557C2.55863 8.10898 2.54856 8.13942 2.54856 8.17462V8.18238C2.54856 8.20983 2.54856 8.23787 2.5533 8.26532C2.5533 8.3053 2.5533 8.34647 2.56041 8.38466C2.56151 8.39791 2.56349 8.41106 2.56634 8.42404C2.6979 9.42352 3.59929 10.1986 4.69388 10.1986H5.75469C6.74557 10.1986 7.50117 11.0012 7.42117 11.9064C7.31094 13.9083 6.47296 14.9287 5.87381 15.4067C5.73001 15.5279 5.57222 15.6313 5.40385 15.7146C5.36016 15.737 5.31525 15.7569 5.26933 15.7742C4.9706 15.8999 4.6502 15.965 4.32645 15.9658H2.78028C2.04516 15.9651 1.34034 15.6707 0.820642 15.1473C0.300943 14.6238 0.00885874 13.914 0.00854492 13.1738V2.83771C0.00854492 2.09707 0.300753 1.38677 0.820888 0.863062C1.34102 0.339354 2.04648 0.0451372 2.78206 0.0451372H13.0476C13.412 0.0449804 13.7728 0.117088 14.1095 0.257343C14.4462 0.397598 14.7522 0.603254 15.01 0.862568C15.2677 1.12188 15.4722 1.42978 15.6118 1.76867C15.7514 2.10757 15.8233 2.47083 15.8235 2.83771V13.1738C15.8235 13.9144 15.5313 14.6247 15.0111 15.1484C14.491 15.6722 13.7856 15.9664 13.05 15.9664H11.5008ZM33.0791 15.0636C32.5349 14.4925 32.2311 13.7316 32.2311 12.9402C32.2311 12.1487 32.5349 11.3879 33.0791 10.8168C33.3499 10.5398 33.6728 10.3198 34.0289 10.1696C34.385 10.0194 34.7672 9.94205 35.1533 9.94205C35.5394 9.94205 35.9216 10.0194 36.2777 10.1696C36.6338 10.3198 36.9567 10.5398 37.2275 10.8168C37.7689 11.3894 38.0708 12.1497 38.0708 12.9402C38.0708 13.7307 37.7689 14.491 37.2275 15.0636C36.9567 15.3406 36.6338 15.5606 36.2777 15.7108C35.9216 15.861 35.5394 15.9383 35.1533 15.9383C34.7672 15.9383 34.385 15.861 34.0289 15.7108C33.6728 15.5606 33.3499 15.3406 33.0791 15.0636ZM33.5046 11.2447C33.0745 11.7042 32.8349 12.3117 32.8349 12.9432C32.8349 13.5746 33.0745 14.1822 33.5046 14.6417C33.7187 14.863 33.9746 15.0389 34.2572 15.159C34.5399 15.2791 34.8436 15.341 35.1504 15.341C35.4572 15.341 35.7608 15.2791 36.0435 15.159C36.3262 15.0389 36.5821 14.863 36.7961 14.6417C37.2265 14.1823 37.4663 13.5747 37.4663 12.9432C37.4663 12.3117 37.2265 11.704 36.7961 11.2447C36.5821 11.0233 36.3262 10.8474 36.0435 10.7273C35.7608 10.6072 35.4572 10.5453 35.1504 10.5453C34.8436 10.5453 34.5399 10.6072 34.2572 10.7273C33.9746 10.8474 33.7187 11.0233 33.5046 11.2447ZM26.5791 15.0636C26.0349 14.4925 25.7311 13.7316 25.7311 12.9402C25.7311 12.1487 26.0349 11.3879 26.5791 10.8168C26.85 10.5398 27.1728 10.3198 27.5289 10.1696C27.885 10.0194 28.2673 9.94205 28.6533 9.94205C29.0394 9.94205 29.4216 10.0194 29.7778 10.1696C30.1339 10.3198 30.4567 10.5398 30.7276 10.8168C31.2689 11.3894 31.5708 12.1497 31.5708 12.9402C31.5708 13.7307 31.2689 14.491 30.7276 15.0636C30.4567 15.3406 30.1339 15.5606 29.7778 15.7108C29.4216 15.861 29.0394 15.9383 28.6533 15.9383C28.2673 15.9383 27.885 15.861 27.5289 15.7108C27.1728 15.5606 26.85 15.3406 26.5791 15.0636ZM27.0047 11.2447C26.5745 11.7042 26.3349 12.3117 26.3349 12.9432C26.3349 13.5746 26.5745 14.1822 27.0047 14.6417C27.2187 14.863 27.4746 15.0389 27.7572 15.159C28.0399 15.2791 28.3436 15.341 28.6504 15.341C28.9572 15.341 29.2609 15.2791 29.5435 15.159C29.8262 15.0389 30.0821 14.863 30.2961 14.6417C30.7263 14.1822 30.9658 13.5746 30.9658 12.9432C30.9658 12.3117 30.7263 11.7042 30.2961 11.2447C30.0821 11.0233 29.8262 10.8474 29.5435 10.7273C29.2609 10.6072 28.9572 10.5453 28.6504 10.5453C28.3436 10.5453 28.0399 10.6072 27.7572 10.7273C27.4746 10.8474 27.2187 11.0233 27.0047 11.2447ZM46.1241 15.8572V11.7328H46.6948V15.8542L46.1241 15.8572ZM44.396 15.8572V11.0668L42.2548 14.9048H41.7665L39.633 11.0752V15.8542H39.0208V10.0244H39.7154L42.0142 14.1954L44.3041 10.0244H44.9993V15.8542L44.396 15.8572ZM21.092 15.8572V10.0244H23.2586C23.7078 10.007 24.149 10.1468 24.5073 10.42C24.6751 10.5593 24.8076 10.7367 24.8939 10.9377C24.9802 11.1386 25.018 11.3573 25.0039 11.5758C25.0039 12.1976 24.742 12.6332 24.2181 12.8826C24.5016 12.9815 24.7454 13.1709 24.9125 13.4219C25.0795 13.6729 25.1607 13.9719 25.1438 14.2735C25.1567 14.4969 25.1161 14.7201 25.0254 14.9243C24.9347 15.1286 24.7967 15.3079 24.6229 15.4472C24.2597 15.7247 23.8133 15.8687 23.3576 15.8554L21.092 15.8572ZM21.6959 15.3243H23.3416C23.646 15.3313 23.9442 15.2362 24.1891 15.054C24.3112 14.9574 24.4078 14.832 24.4706 14.689C24.5333 14.5459 24.5602 14.3895 24.5488 14.2335C24.5593 14.079 24.5321 13.9241 24.4693 13.7827C24.4066 13.6412 24.3104 13.5173 24.1891 13.422C23.9441 13.2399 23.6461 13.1446 23.3416 13.1511H21.6959V15.3243ZM21.6959 12.6684H23.2586C23.5558 12.6805 23.8482 12.5909 24.0883 12.4142C24.2026 12.3157 24.292 12.1912 24.3491 12.051C24.4062 11.9109 24.4294 11.759 24.4166 11.6081C24.4295 11.4578 24.4061 11.3067 24.3486 11.1675C24.291 11.0283 24.2009 10.9051 24.0859 10.8085C23.8444 10.6352 23.5526 10.5475 23.2563 10.559H21.6959V12.6684ZM46.1573 10.7661C46.1227 10.7336 46.0953 10.6942 46.0767 10.6505C46.0581 10.6067 46.0488 10.5595 46.0494 10.5119C46.0494 10.4656 46.059 10.4199 46.0776 10.3775C46.0962 10.3352 46.1233 10.2972 46.1573 10.2661C46.2239 10.1997 46.3137 10.1625 46.4074 10.1625C46.501 10.1625 46.5909 10.1997 46.6575 10.2661C46.6904 10.2979 46.7165 10.336 46.7343 10.3783C46.7522 10.4205 46.7613 10.466 46.7612 10.5119C46.7608 10.5822 46.7399 10.6508 46.701 10.7091C46.6622 10.7675 46.6071 10.8131 46.5428 10.8402C46.4784 10.8673 46.4075 10.8747 46.339 10.8615C46.2704 10.8484 46.2072 10.8152 46.1573 10.7661ZM39.831 5.69413L41.306 5.27643C41.4838 5.8618 42.0225 6.19655 42.6691 6.19655C43.3547 6.19655 43.8016 5.85166 43.8016 5.37071C43.8016 4.73224 43.0015 4.62782 42.1914 4.41599C41.1537 4.14389 39.927 3.70412 39.927 2.25055C39.924 0.974801 41.0773 0.0332031 42.5511 0.0332031C43.8905 0.0332031 44.7942 0.689577 45.1474 1.86329L43.756 2.27084C43.6931 2.01014 43.5409 1.78014 43.3261 1.62141C43.1113 1.46268 42.8478 1.38541 42.5819 1.40323C41.8963 1.40323 41.4915 1.81078 41.4915 2.24996C41.4915 2.86754 42.2495 3.00299 43.0389 3.22258C44.0155 3.49468 45.3863 3.83957 45.3863 5.32477C45.3863 6.69718 44.1815 7.59224 42.6548 7.59224C41.2521 7.59224 40.1824 6.87082 39.8292 5.68876L39.831 5.69413ZM21.1672 5.69413L22.6423 5.27643C22.8201 5.8618 23.3588 6.19655 24.0053 6.19655C24.691 6.19655 25.1373 5.85166 25.1373 5.37071C25.1373 4.73224 24.3378 4.62782 23.5277 4.41599C22.4894 4.14389 21.2632 3.70412 21.2632 2.25055C21.2632 0.975397 22.4165 0.0337998 23.891 0.0337998C25.2309 0.0337998 26.1341 0.690173 26.4879 1.86389L25.0958 2.27144C25.0332 2.01072 24.8811 1.78067 24.6664 1.62191C24.4517 1.46315 24.1882 1.38591 23.9224 1.40383C23.2367 1.40383 22.8313 1.81138 22.8313 2.25055C22.8313 2.86814 23.5893 3.00359 24.3793 3.22318C25.3554 3.49527 26.7261 3.84017 26.7261 5.32536C26.7261 6.69778 25.5219 7.59284 23.9947 7.59284C22.5925 7.59284 21.5222 6.87142 21.169 5.68935L21.1672 5.69413ZM33.558 4.88858C33.558 3.36937 34.5862 2.20759 35.9569 2.20759C36.7362 2.20759 37.2655 2.48923 37.6501 2.94989V2.30306H39.1038V7.47946H37.6501V6.83085C37.4427 7.07636 37.1824 7.27088 36.8889 7.39954C36.5955 7.52819 36.2767 7.58758 35.9569 7.57314C34.5856 7.57314 33.5574 6.40182 33.5574 4.88798L33.558 4.88858ZM35.0016 4.88858C35.0016 5.69413 35.5729 6.29023 36.3208 6.29023C36.6747 6.28897 37.0136 6.14628 37.2631 5.89352C37.5126 5.64077 37.6522 5.29862 37.6513 4.94228C37.6513 4.92438 37.6513 4.90648 37.6513 4.88858C37.6587 4.71227 37.6316 4.5362 37.5715 4.37043C37.5114 4.20466 37.4195 4.05243 37.3009 3.92244C37.1824 3.79245 37.0396 3.68724 36.8807 3.61282C36.7218 3.5384 36.5498 3.49623 36.3747 3.48871H36.322C35.5735 3.48871 35.0016 4.08541 35.0016 4.88977V4.88858ZM27.2328 4.88858C27.2328 3.36937 28.261 2.20759 29.6318 2.20759C30.4111 2.20759 30.9409 2.48923 31.3249 2.94989V2.30306H32.7786V7.47946H31.3249V6.83085C31.1176 7.07639 30.8573 7.27094 30.5638 7.3996C30.2703 7.52826 29.9515 7.58762 29.6318 7.57314C28.2604 7.57314 27.2322 6.40182 27.2322 4.88798L27.2328 4.88858ZM28.6765 4.88858C28.6765 5.69413 29.2478 6.29023 29.9957 6.29023C30.3495 6.28913 30.6884 6.14657 30.9379 5.89391C31.1874 5.64125 31.3271 5.29917 31.3261 4.94288C31.3261 4.92438 31.3261 4.90648 31.3261 4.88858C31.3341 4.71176 31.3072 4.53511 31.2471 4.36877C31.1871 4.20243 31.0949 4.04969 30.976 3.91933C30.8571 3.78896 30.7138 3.68354 30.5543 3.60913C30.3948 3.53472 30.2223 3.49278 30.0466 3.48573H29.9933C29.2448 3.48573 28.6735 4.08243 28.6735 4.88679L28.6765 4.88858Z" fill="#999999"/>
</svg>
