<svg width="16" height="16" viewBox="0 0 16 16" fill="none" xmlns="http://www.w3.org/2000/svg">
<path d="M15.2817 2.66034V12.505C15.2819 12.8542 15.2128 13.1999 15.0783 13.5226C14.9439 13.8453 14.7467 14.1385 14.4981 14.3855C14.2494 14.6325 13.9542 14.8286 13.6292 14.9624C13.3043 15.0962 12.9559 15.1651 12.6041 15.1654H11.1068C10.7942 15.165 10.4846 15.1038 10.1957 14.9852C10.1516 14.9682 10.1085 14.9487 10.0667 14.9267C9.90296 14.8482 9.74989 14.7494 9.61116 14.6327C9.03456 14.179 8.22221 13.21 8.11709 11.2989C8.03904 10.4374 8.77015 9.67396 9.72585 9.67396H10.75C11.8873 9.67396 12.8096 8.82196 12.8207 7.76762C12.8319 6.71329 11.9176 5.83125 10.7771 5.81544C10.6856 5.81413 10.5941 5.81836 10.5032 5.82809C10.4697 6.27817 10.3235 6.71284 10.0779 7.09266C10.1738 6.83994 10.224 6.57236 10.226 6.3023C10.2245 6.15045 10.2085 5.99908 10.1782 5.85022C10.1744 5.81735 10.1669 5.78501 10.1559 5.75379V5.74273C10.1464 5.70479 10.1368 5.66685 10.1241 5.6305C10.1113 5.59414 10.1033 5.56727 10.0922 5.53407C10.081 5.50088 10.0619 5.45504 10.046 5.4171C10.0301 5.37916 10.0205 5.35545 10.0062 5.32542L9.94566 5.21003C9.92973 5.18158 9.9154 5.15312 9.89787 5.12625C9.88035 5.09938 9.85009 5.05038 9.8246 5.01244L9.77363 4.93815C9.74178 4.89599 9.70833 4.8549 9.67329 4.81485C9.65895 4.79746 9.64621 4.77849 9.63187 4.76269C9.58201 4.70688 9.52882 4.6541 9.47259 4.60462C9.45728 4.58912 9.44077 4.57485 9.42321 4.56194L9.29738 4.45603L9.2257 4.40387C9.18747 4.37541 9.14924 4.34854 9.10783 4.32167C9.06641 4.2948 9.05367 4.28847 9.02659 4.27267L8.90713 4.2047L8.81793 4.16044L8.70643 4.09721C8.67458 4.08298 8.64431 4.07034 8.61246 4.05927C8.5806 4.04821 8.52485 4.02766 8.47866 4.01343L8.38309 3.98498C8.33637 3.97233 8.28858 3.96127 8.23973 3.95178L8.14576 3.92965C8.0916 3.92017 8.03744 3.91384 7.98647 3.90752L7.91002 3.89646C7.82719 3.89646 7.75073 3.88539 7.65835 3.88539C7.57748 3.88333 7.49657 3.88703 7.41624 3.89646L7.33978 3.90594C7.28611 3.90844 7.23279 3.91585 7.1805 3.92807L7.09608 3.94388C7.04511 3.95336 6.99414 3.96759 6.9368 3.98023L6.85715 4.00078C6.79503 4.01975 6.7361 4.0403 6.67716 4.06243L6.6023 4.09246C6.54814 4.11459 6.49399 4.13831 6.44302 4.1636L6.35223 4.2126C6.31824 4.22946 6.28479 4.24843 6.25188 4.26951C6.21938 4.28823 6.188 4.30882 6.1579 4.33115L6.07507 4.38806C6.04162 4.41177 6.00817 4.43548 5.97632 4.46235L5.92216 4.50661C5.84415 4.57163 5.77021 4.64131 5.70076 4.71527C5.69628 4.7213 5.69091 4.72663 5.68483 4.73107C5.64978 4.76901 5.61634 4.80853 5.58448 4.84963L5.55262 4.88914C5.52077 4.93024 5.4905 4.97292 5.46024 5.0156C5.46024 5.02825 5.44431 5.03931 5.43794 5.05196C5.3374 5.20377 5.25609 5.36728 5.19583 5.53882C5.71636 5.86471 6.13286 6.33067 6.39682 6.88242C6.24966 6.61649 6.04465 6.38644 5.79667 6.20898C5.5487 6.03153 5.264 5.91113 4.96327 5.85654H4.94894C4.89478 5.84706 4.83744 5.83915 4.7801 5.83283H4.43923C4.40054 5.82967 4.36165 5.82967 4.32295 5.83283H4.25924L4.11748 5.85338L4.03784 5.87235C3.99802 5.88183 3.95819 5.88973 3.91837 5.90238L3.8451 5.92609L3.72723 5.96561L3.64918 6.00197L3.54565 6.04781L3.46601 6.09365L3.37522 6.14423C3.34973 6.16004 3.32425 6.18059 3.30035 6.19797L3.21593 6.25488L3.14744 6.31337C3.12036 6.3355 3.09329 6.35763 3.0678 6.38134C3.04231 6.40505 3.02479 6.42402 3.00409 6.44615C2.98338 6.46828 2.9563 6.49357 2.934 6.51886C2.9117 6.54415 2.89737 6.56628 2.87666 6.58999C2.85513 6.61419 2.83493 6.63952 2.81613 6.66586L2.76516 6.74332L2.71101 6.8271C2.69508 6.85397 2.68233 6.88084 2.66959 6.90771C2.65685 6.93459 2.63773 6.96462 2.62499 6.99623L2.59154 7.08001C2.58039 7.10846 2.56606 7.14166 2.55491 7.17327C2.54376 7.20489 2.53898 7.23334 2.52942 7.26179C2.51986 7.29025 2.5119 7.32502 2.50394 7.35822C2.49597 7.39141 2.49438 7.41987 2.48801 7.45148C2.48164 7.48309 2.47686 7.51629 2.47208 7.54948C2.46969 7.58158 2.46969 7.61381 2.47208 7.64591V7.74391V7.97628C2.59951 8.9247 3.46919 9.66606 4.52684 9.66606H5.55103C6.50673 9.66606 7.23784 10.4311 7.16298 11.2926C7.05626 13.2005 6.24391 14.1711 5.66731 14.6263C5.52988 14.7429 5.37848 14.8422 5.21653 14.9219C5.17406 14.9437 5.13046 14.9632 5.08592 14.9804C4.79703 15.0991 4.48748 15.1603 4.17482 15.1606H2.68074C1.97087 15.1606 1.28997 14.8812 0.78742 14.3837C0.284867 13.8861 0.00168764 13.2111 4.73819e-07 12.5066V2.66034C-0.000208762 2.31119 0.0688823 1.96541 0.203329 1.64276C0.337775 1.3201 0.534944 1.02689 0.783578 0.77985C1.03221 0.532815 1.32744 0.336798 1.65241 0.202991C1.97738 0.0691844 2.32572 0.000207991 2.67756 4.70213e-07H12.6009C12.9527 -0.000207174 13.3012 0.0683581 13.6263 0.201781C13.9514 0.335205 14.2469 0.530873 14.4958 0.777615C14.7448 1.02436 14.9423 1.31734 15.0771 1.63984C15.2119 1.96233 15.2814 2.30803 15.2817 2.65718V2.66034Z" fill="black"/>
</svg>
