<svg width="202" height="184" viewBox="0 0 202 184" fill="none" xmlns="http://www.w3.org/2000/svg">
<path d="M46.9988 140.994C43.6352 139.09 39.8573 138.395 36.2128 137.299C34.3028 136.084 31.8731 136.161 30.0123 134.819C28.7202 133.246 27.0349 131.791 28.2778 129.417C28.7553 128.497 27.688 127.261 28.98 126.396C29.1345 126.291 27.695 125.034 27.0138 125.392C22.8006 127.619 18.2362 126.846 13.8263 127.401L10.5329 127.499C7.92769 126.797 5.30844 127.956 2.67514 127.429C1.76929 127.246 1.70609 126.987 1.9308 126.235C3.74251 120.152 7.5485 115.417 12.1199 110.914C9.10039 109.024 6.93757 106.13 4.50792 103.51C2.61897 101.508 1.40414 99.0353 0.28762 96.5908C-0.583124 94.7292 0.61766 93.5701 2.61897 93.521C7.53445 93.3875 12.4499 93.6825 17.4146 92.8185C21.8212 91.8995 26.305 91.4009 30.8058 91.3293C32.0487 91.3293 32.9616 92.1652 34.1272 92.2425C35.1459 95.2882 35.7136 98.4665 35.8125 101.677C35.6581 102.379 35.7423 103.082 36.5148 103.37C37.6594 103.819 38.825 104.213 40.0258 104.592C41.5566 105.098 42.1325 104.634 41.7673 102.969C41.4724 101.733 41.346 100.454 41.1494 99.1969C41.8516 96.6189 41.4232 93.9705 41.6269 91.3644C42.0622 91.2028 41.992 90.971 41.7392 90.6619C41.339 89.4396 42.94 88.3789 42.0131 87.1496C42.5959 83.7918 43.1436 80.441 44.52 77.2518C45.1801 75.7204 46.416 74.4841 46.7179 72.7911C48.1996 71.4283 48.6981 69.4685 49.7023 67.8177C51.1067 66.8553 50.7065 65.2115 50.9593 63.933C51.4189 61.9929 51.3343 59.9635 50.7148 58.0683C50.0953 56.1732 48.9649 54.4859 47.4482 53.1923C46.8935 51.7873 45.5873 50.9655 44.5902 49.9188C42.5959 47.8114 42.6451 46.1676 44.0706 43.7722C45.159 41.9247 47.3078 40.9623 47.8976 38.8549C49.1405 38.9462 49.0422 37.7029 49.618 37.1339C51.0927 35.6516 51.3876 32.6662 54.5335 33.2984C57.5179 35.1178 60.5164 36.9091 63.4797 38.7706C63.9475 39.0525 64.4974 39.1665 65.0386 39.0937C67.7773 38.8057 70.1858 40.0421 72.763 40.6392C74.7822 41.1537 76.8724 41.3317 78.9495 41.166C81.7583 41.0958 84.3354 40.0702 87.0319 39.5363C87.3901 39.466 88.0361 39.438 88.0993 38.7847C89.7233 38.3812 91.2668 37.7042 92.6637 36.7826C92.862 36.724 93.0566 36.6536 93.2465 36.5719C97.2561 34.6963 101.055 32.0761 105.886 32.9893C106.841 34.0781 107.199 35.7992 109.004 35.9888C110.97 37.3938 113.372 37.8433 115.387 39.0867C116.499 39.845 117.854 40.1606 119.186 39.9718C120.801 40.5198 122.395 41.1871 124.151 41.1801C125.857 41.8825 127.529 41.1098 129.165 40.885C131.643 40.5479 134.038 39.2483 136.44 39.0727C138.623 38.9181 140.611 38.876 142.401 37.5483C144.29 35.7921 146.748 34.9492 148.855 33.5302C150.119 32.6802 151.46 33.3195 152.296 34.7946C152.967 35.9058 153.699 36.9798 154.486 38.0119C154.444 38.1384 154.332 38.3421 154.374 38.3842C156.47 40.3838 158.367 42.581 160.041 44.9453C160.996 46.8982 160.125 48.4576 158.896 49.8626C158.096 50.8039 156.832 51.3237 156.425 52.6233C155.863 52.7076 155.814 53.2063 155.617 53.5927C152.499 56.4588 151.6 59.9922 152.471 64.0524L152.787 65.3379C152.744 66.3407 153.035 67.3293 153.616 68.1478C155.315 70.8664 156.867 73.6762 158.482 76.458C158.629 77.2585 159.019 77.9944 159.599 78.5654C160.076 80.6728 160.483 82.7802 161.052 84.8314C161.565 86.707 160.483 88.7231 161.642 90.5144C161.319 91.4908 161.839 92.4181 161.832 93.3734C161.502 96.8858 162.534 100.398 161.431 103.91C161.122 104.873 161.811 105.224 162.597 104.985C164.823 104.283 167.126 103.826 169.099 102.484C169.064 101.08 169.584 99.6746 168.84 98.3399C168.875 96.8366 168.362 95.2912 169.233 93.8582C170.265 91.6454 172.168 91.2169 174.352 91.3222C177.748 91.5164 181.128 91.9294 184.471 92.5586C188.537 93.3074 192.668 93.644 196.802 93.5631C198.038 93.5631 199.042 94.6309 200.474 93.9986C201.022 93.7598 202.033 95.0594 201.247 95.7829C199.056 97.806 198.529 100.897 196.486 102.913C194.857 104.529 193.761 106.657 191.655 107.83C190.517 108.469 190.475 109.305 191.388 110.5C194.052 114.038 196.462 117.761 198.599 121.641C199.885 123.931 197.602 127.106 194.386 127.345C190.313 127.647 186.311 126.79 182.308 126.214C180.567 125.968 178.853 125.511 177.112 125.343C175.827 125.195 175.82 125.912 175.707 127.05C175.476 128.785 176.669 130.26 176.192 131.967C175.516 133.503 174.37 134.784 172.92 135.627C171.192 136.365 169.289 136.463 167.569 137.299C165.726 138.148 163.748 138.667 161.726 138.83C160.771 138.929 160.195 139.919 159.107 140.158C156.781 140.78 154.488 141.523 152.239 142.385C148.974 142.919 145.618 143.171 142.465 144.099C140.716 144.611 138.848 144.33 137.219 145.202L126.974 145.953C126.805 145.855 126.623 145.665 126.468 145.679C123.357 146.016 120.907 148.679 117.529 148.201C117.023 148.131 116.827 148.791 117.368 149.234C115.865 149.234 114.643 150.161 113.253 150.533C111.223 150.667 109.461 151.573 107.635 152.374C105.627 153.252 103.639 154.425 101.315 153.989C99.4049 153.989 97.8039 152.76 95.957 152.627C92.9797 150.519 89.293 150.449 86.0278 149.192C86.6246 148.524 86.1893 148.054 85.5854 148.152C83.6543 148.475 82.0743 147.365 80.2766 147.098C78.8722 145.595 76.9552 145.609 75.1716 145.63C72.3173 145.65 69.4662 145.436 66.6467 144.991L62.7775 144.429C61.1624 143.572 59.2664 143.53 57.5811 143.333C53.8945 142.876 50.559 141.591 46.9988 140.994ZM181.255 94.7081C179.092 94.0889 176.854 93.7744 174.605 93.7739C173.699 93.7739 172.498 93.3453 172.161 94.2867C171.67 95.5651 173.446 95.3825 173.903 96.1693C173.994 96.3238 174.478 96.2114 174.661 96.3589C175.226 96.7768 175.703 97.3022 176.064 97.905C176.426 98.5077 176.665 99.1759 176.768 99.8713C177.203 103.025 176.578 106.158 176.81 109.341C177.118 112.827 176.931 116.339 176.255 119.772C175.714 122.28 176.079 122.582 178.586 123.165C179.991 123.488 181.444 123.453 182.863 123.643C183.565 124.451 184.576 124.177 185.363 124.233C188.635 124.493 191.957 125.877 195.194 124.085C195.945 123.664 197.062 123.523 195.896 122.083C195.167 121.2 194.534 120.241 194.007 119.224C193.143 117.461 191.935 115.902 191.009 114.195C190.194 112.691 188.684 111.947 187.645 110.682C186.606 109.418 187.069 108.933 187.603 108.505C189.557 106.903 191.368 105.136 193.017 103.222C194.47 101.571 196.212 100.019 196.795 97.7217C197.048 96.7312 196.963 95.5651 195.713 95.9656C193.726 96.6118 191.928 95.7829 190.061 95.6986C187.125 95.5722 184.19 95.0594 181.255 94.7081ZM155.617 138.739C157.274 138.388 158.763 137.495 160.329 137.018C163.784 135.978 167.189 134.791 170.602 133.639C173.088 132.796 174.001 131.897 173.516 129.529C172.625 125.132 173.959 120.805 173.573 116.414C173.404 114.539 173.229 112.235 173.882 110.549C174.801 108.146 173.706 106.053 174.205 103.348C173.207 104.304 172.175 104.051 171.564 104.803C165.244 106.383 159.163 108.736 153.026 110.9L146.362 111.996C144.192 112.41 142.029 112.902 139.838 113.225C136.088 113.806 132.3 114.116 128.505 114.152C124.944 114.152 121.384 114.693 117.824 114.939C115.366 115.108 112.944 115.494 110.465 115.642C103.938 115.958 97.3987 115.944 90.873 115.6C86.9757 115.403 83.0082 114.946 79.0969 114.433C76.1406 114.047 73.1702 114.3 70.2139 113.97C65.2493 113.422 60.383 112.256 55.4675 111.49C52.2696 110.923 49.1176 110.123 46.0368 109.095C40.714 107.444 35.5036 105.533 29.9491 103.658V107.479C29.3943 107.528 29.1415 106.678 28.5447 107.001C28.4834 107.054 28.4332 107.119 28.3971 107.191C28.3609 107.263 28.3395 107.342 28.334 107.423C29.0924 108.125 28.8677 109.734 30.4406 109.572C30.567 110.668 29.9842 111.75 30.0895 112.74C30.6251 118.024 30.8595 123.334 30.7917 128.644C29.1626 129.796 30.3774 130.436 31.2411 131.138C30.3353 133.246 32.2945 133.182 33.2284 133.534C36.4024 134.714 39.6747 135.641 42.8838 136.723C45.6927 137.664 48.3049 139.069 51.2121 139.694C53.4662 140.172 55.7413 140.586 58.0165 140.98C63.1778 141.865 68.2688 143.129 73.5705 143.171C76.8948 143.234 80.2137 143.469 83.5138 143.874C86.8561 144.281 90.2172 144.515 93.5836 144.576C96.5469 144.576 99.5313 144.373 102.467 144.576C107.736 145.054 113.043 144.917 118.28 144.169C125.092 143.101 132.002 143.628 138.771 142.272C142.282 141.57 145.793 140.916 149.304 140.165C149.624 140.293 149.973 140.331 150.314 140.275C150.654 140.22 150.972 140.072 151.235 139.849L152.197 139.708C152.619 139.807 153.026 139.884 153.279 139.399L153.805 139.343C154.133 139.433 154.48 139.424 154.803 139.317C155.126 139.209 155.409 139.008 155.617 138.739ZM28.7904 96.7874C29.4926 96.2606 30.3985 96.2044 31.1007 95.5932C31.5712 95.1858 32.2804 94.961 32.0698 94.2726C31.8591 93.5842 31.0024 93.5701 30.4196 93.6334C27.9024 93.787 25.3946 94.0683 22.9059 94.4763C17.5298 95.4945 12.0644 95.9652 6.59349 95.8813C4.12872 95.8813 3.25798 97.244 4.36045 99.3936C6.31962 103.229 9.59193 105.92 12.787 108.596C14.374 109.924 14.8375 111.019 13.4892 112.551C10.5329 115.866 7.49232 119.07 5.39973 123.011C5.18906 123.418 4.52898 123.488 4.96435 124.275C5.07022 124.517 5.23976 124.726 5.45493 124.879C5.6701 125.033 5.92283 125.125 6.1862 125.146C7.91365 125.013 9.69727 125.294 11.3334 125.146C16.5157 124.668 21.6349 123.643 26.7821 122.954C27.8073 122.814 27.9618 122.456 27.9056 121.592C27.6669 117.742 27.5756 113.864 27.2034 110.05C27.077 108.842 28.1935 107.893 27.9056 107.149C26.7891 104.22 27.5756 101.304 27.5545 98.3891C28.341 98.1362 28.348 97.2932 28.7904 96.7874ZM159.802 88.4562C158.047 88.681 157.696 88.5967 157.696 88.1401C157.822 85.3302 156.881 82.7311 155.919 80.1811C155.617 79.3873 155.919 78.1931 155.385 77.9121C153.56 76.9497 153.524 74.9969 152.661 73.5358C151.186 71.035 149.248 68.8222 148.497 65.8086C148.272 64.9024 148.609 64.1578 148.497 63.35C148.202 61.376 148.174 58.9314 148.841 57.3087C150.084 54.3022 152.408 51.689 154.458 49.0758C155.378 47.8816 157.359 47.0387 155.947 45.2755C155.027 44.1234 154.486 42.4656 153.482 41.8263C152.155 41.0255 151.27 40.3231 150.737 38.876C150.498 38.2227 149.613 37.7029 148.911 37.3657C148.209 37.0285 148.096 38.026 147.556 38.1946C145.73 38.7636 144.62 40.9623 142.296 40.4636C141.411 40.2739 140.189 39.6627 140.189 41.4611C140.189 41.7561 139.887 42.0722 139.663 41.9036C137.774 40.4987 136.152 42.2548 134.747 42.7115C132.486 43.4576 130.15 43.9523 127.781 44.1866C124.502 44.4676 121.166 45.0155 118.133 43.0767C116.96 44.1726 116.686 42.2338 115.472 42.3743C112.375 42.7044 109.994 40.2669 107.122 39.438C106.194 39.2705 105.358 38.7712 104.77 38.033C104.498 37.6528 104.15 37.3343 103.746 37.0987C103.343 36.863 102.895 36.7154 102.43 36.6656C101.966 36.6159 101.496 36.665 101.052 36.8099C100.608 36.9548 100.2 37.1921 99.8543 37.5062C99.0201 38.1718 98.1187 38.7486 97.1648 39.2272C95.6481 40.028 93.8504 40.007 92.4951 40.8499C88.9068 43.0767 84.8129 43.4631 80.8946 44.5027C79.2303 44.9523 77.6785 44.1796 76.0423 44.2288C73.7723 44.1905 71.5265 43.7555 69.4064 42.9433C67.7211 42.3883 66.0428 41.7912 64.3294 41.3487C63.5289 41.1379 63.4867 41.2925 63.1427 40.4495C63.0303 40.1685 62.8126 39.8946 62.5458 40.0421C59.6737 41.6156 57.9112 39.2413 55.8537 38.1173C54.4493 37.3376 53.2976 37.5132 52.7078 39.1008C52.3743 40.1296 51.6712 40.9981 50.7346 41.5383C48.8175 42.5007 48.4524 44.6081 47.0479 45.8936C46.5494 46.3432 47.0901 47.0597 47.4201 47.5515C48.3541 48.9564 49.6672 49.996 50.6011 51.5064C51.5351 53.0167 53.0238 54.5621 53.9296 56.2831C54.2035 56.81 55.1093 57.112 54.695 58.1306C54.1473 59.5356 54.695 60.9405 54.9127 62.3454C55.2532 64.7974 54.7025 67.2901 53.3608 69.3701C51.2542 72.8825 48.9158 76.3456 47.3991 80.2092C46.9005 81.4736 46.0789 82.8434 46.0929 84.0376C46.0929 85.7376 45.6927 87.3744 45.6716 89.0603C45.6295 92.973 45.1379 96.8858 45.2784 100.827C45.3205 101.866 45.3907 102.534 46.76 102.653C48.1293 102.772 49.4987 103.356 49.0914 105.329C48.7613 106.945 50.1236 107.549 51.198 107.837C55.4223 108.979 59.7469 109.711 64.1117 110.022C69.7294 110.359 75.4033 110.324 81.0069 111.216C84.195 111.729 87.5305 111.504 90.6483 112.235C94.981 113.246 99.3417 112.867 103.674 113.12C107.775 113.352 111.925 112.628 116.054 112.551C116.897 112.551 117.213 111.602 118.014 111.905C119.151 112.333 120.324 112.08 121.468 111.975C127.234 111.476 132.992 110.886 138.757 110.422C144.262 109.987 149.655 108.863 155.069 107.844C155.751 107.763 156.381 107.439 156.843 106.93C157.305 106.422 157.568 105.763 157.583 105.077C157.724 102.154 158.363 99.2672 158.019 96.3238C157.955 95.7899 157.724 95.1226 158.363 94.6379C159.507 93.7598 159.346 92.5937 158.861 91.4768C158.377 90.3599 158.447 89.4256 159.767 88.4562H159.802ZM54.8285 63.7714C54.7863 63.7293 54.7372 63.645 54.7021 63.652C54.6091 63.6791 54.5196 63.7169 54.4352 63.7644C54.4774 63.8066 54.5265 63.8909 54.5616 63.8909C54.6559 63.8643 54.7458 63.8241 54.8285 63.7714Z" fill="black"/>
<path d="M46.6958 72.8127C46.3939 74.5057 45.158 75.742 44.4979 77.2734C43.0935 80.4626 42.5738 83.8134 41.991 87.1712C36.1626 85.977 30.3413 84.7617 24.7447 82.7035C21.9358 81.6849 19.1831 80.7858 16.3181 80.0411C15.0323 79.5876 13.8417 78.8992 12.807 78.011C11.6835 77.1751 12.0487 76.1354 13.5444 75.6648C15.9094 74.9531 18.3525 74.5332 20.8193 74.4144C28.7683 73.9578 36.6823 73.1921 44.5962 72.307C45.3054 72.2648 46.12 72.1033 46.6958 72.8127Z" fill="#AECDE9"/>
<path d="M105.779 32.9819C100.976 32.0687 97.1772 34.6889 93.1395 36.5645C92.9496 36.6463 92.7549 36.7166 92.5566 36.7753C92.7743 32.3005 93.8698 27.9593 95.0495 23.6953C96.7405 17.1453 97.9469 10.4796 98.6589 3.75225C98.8344 2.34731 99.9509 1.74319 100.323 0.605191C100.442 0.232883 100.927 0.296106 101.166 0.605191C101.671 1.30766 102.802 1.26551 102.858 2.48078C102.956 4.88322 103.265 7.27161 103.455 9.66703C103.778 13.6149 104.108 17.5768 104.522 21.5036C104.81 24.1519 104.607 26.9056 105.505 29.4836C105.934 30.6568 105.702 31.8229 105.779 32.9819Z" fill="#AECDE9"/>
<path d="M66.5784 144.97C69.3978 145.415 72.2489 145.629 75.1032 145.609C76.8868 145.609 78.8039 145.574 80.2083 147.077C78.6143 150.091 76.1214 152.374 73.6286 154.579C68.4954 159.117 63.2148 163.501 57.9622 167.926C56.3893 169.247 54.6829 170.413 53.0467 171.664C52.5833 172.022 52.1128 172.31 51.5651 171.888C51.0173 171.467 51.3404 170.905 51.5651 170.406C53.3346 166.514 55.9328 163.129 58.1518 159.511C60.8343 155.141 63.4535 150.737 66.0798 146.333C66.2889 145.895 66.4559 145.439 66.5784 144.97Z" fill="#AECDE9"/>
<path d="M158.484 76.4725C156.869 73.6626 155.317 70.8527 153.618 68.1623C153.037 67.3438 152.746 66.3551 152.789 65.3524C157.375 64.5797 161.974 63.8702 166.539 63.0062C168.083 62.7014 169.649 62.5251 171.222 62.4793C176.033 62.3739 180.801 61.7768 185.59 61.538C186.187 61.538 187.149 61.1235 187.296 62.1211C187.408 62.8797 186.692 63.245 186.039 63.526C179.93 66.4764 173.821 69.4057 168.126 73.1358C166.321 74.2788 164.265 74.9659 162.136 75.1378C160.809 75.2994 159.861 76.4936 158.484 76.4725Z" fill="#AECDE9"/>
<path d="M137.189 145.18C138.819 144.309 140.701 144.59 142.435 144.077C145.588 143.15 148.944 142.897 152.21 142.363C157.469 148.861 163.312 154.902 167.722 162.074C168.397 163.025 169.133 163.931 169.927 164.786C170.229 165.158 170.629 165.593 170.172 166.05C169.989 166.213 169.751 166.304 169.505 166.304C169.259 166.304 169.022 166.213 168.838 166.05C165.566 164.069 162.16 162.264 159.077 160.023C155.307 157.283 151.353 154.909 147.407 152.408C144.471 150.54 141.087 149.437 138.404 147.196C138.061 146.975 137.773 146.678 137.563 146.329C137.352 145.979 137.224 145.586 137.189 145.18Z" fill="#AECDE9"/>
<path d="M161.643 90.5279C160.484 88.7366 161.566 86.7205 161.053 84.8449C160.484 82.7797 160.077 80.6301 159.6 78.5789C162.05 79.0636 164.515 78.8037 166.966 78.6281C170.96 78.4091 174.964 78.3974 178.96 78.593C182.407 78.7054 185.841 79.0777 189.282 79.2954C189.837 79.3376 190.392 79.2954 190.939 79.3657C191.358 79.3896 191.757 79.5514 192.075 79.8258C192.392 80.1002 192.61 80.4719 192.695 80.883C192.92 81.9016 192.049 82.1685 191.375 82.4565C188.713 83.5875 185.855 84.0863 183.068 84.7887C177.162 86.2639 171.221 87.5986 165.407 89.432C164.164 89.8465 162.914 90.1696 161.643 90.5279Z" fill="#AECDE9"/>
<path d="M142.297 37.5403C140.507 38.8679 138.519 38.9452 136.336 39.0646C133.934 39.2402 131.539 40.5398 129.061 40.877C127.425 41.1018 125.753 41.8534 124.047 41.172C130.507 33.3184 138.232 26.8487 146.272 20.7021C148.336 19.1216 150.071 17.1125 152.276 15.6795C152.753 15.3704 153.161 14.977 153.743 15.3423C154.326 15.7076 154.2 16.3609 153.954 16.979C152.634 20.3368 150.338 23.1045 148.449 26.1111C146.49 29.2371 144.622 32.4333 142.663 35.5523C142.322 36.1555 142.194 36.8554 142.297 37.5403Z" fill="#AECDE9"/>
<path d="M101.246 153.968C103.606 154.404 105.593 153.231 107.566 152.353C109.399 151.552 111.161 150.646 113.184 150.512C111.894 157.975 110.209 165.363 108.135 172.647C107.257 175.675 107.524 178.92 106.429 181.913C106.105 182.812 105.951 183.844 104.582 183.69C103.212 183.535 102.896 182.517 102.917 181.47C103.009 176.721 102.096 172.05 101.941 167.308C101.822 162.869 101.204 158.408 101.246 153.968Z" fill="#AECDE9"/>
<path d="M88.0212 38.7771C87.958 39.4304 87.319 39.4796 86.9539 39.5287C84.2574 40.0626 81.6592 41.0882 78.8714 41.1585C76.2732 33.3049 73.6961 25.4513 71.0558 17.6117C70.164 14.9564 69.1107 12.3573 68.1697 9.72301C67.952 9.07316 67.8037 8.40207 67.7273 7.72098C67.6711 7.2714 67.5658 6.69537 68.1908 6.50571C68.3967 6.4609 68.6118 6.48552 68.8023 6.57573C68.9928 6.66595 69.1482 6.81669 69.2441 7.00446C72.0529 11.0226 75.4516 14.6333 77.6706 19.108C80.4795 24.7277 83.6886 30.0946 86.7994 35.5387C87.4434 36.5133 87.8609 37.6199 88.0212 38.7771Z" fill="#AECDE9"/>
<path d="M117.34 149.212C116.828 148.77 116.996 148.109 117.502 148.18C120.879 148.657 123.33 145.995 126.441 145.658C126.595 145.658 126.778 145.833 126.946 145.932C127.494 150.146 129.229 154.066 130.5 158.098C132.15 163.318 133.87 168.516 135.71 173.679C136.412 175.667 137.585 177.479 137.817 179.657C137.859 180.121 138.196 180.612 137.662 180.95C136.995 181.385 136.602 180.788 136.314 180.388C133.273 176.096 129.699 172.197 127.361 167.392C125.357 163.097 123.053 158.949 120.465 154.979C119.323 153.113 118.28 151.188 117.34 149.212Z" fill="#AECDE9"/>
<path d="M47.4203 53.2121C48.937 54.5057 50.0674 56.193 50.6869 58.0881C51.3064 59.9832 51.391 62.0127 50.9313 63.9528C50.6785 65.2313 51.0648 66.8751 49.6744 67.8374C43.214 63.4189 36.4939 59.4078 29.7245 55.4881C27.4851 54.3154 25.3801 52.9022 23.4467 51.2732C23.0535 50.908 22.4075 50.6621 22.8288 49.9667C22.9635 49.7576 23.1709 49.606 23.4108 49.5411C23.6508 49.4763 23.9063 49.5027 24.1279 49.6154C27.0702 50.8728 30.2793 50.929 33.3269 51.7228C35.5529 52.3269 37.9334 52.2286 40.2366 52.6993C42.5399 53.1699 45.0257 53.0716 47.4203 53.2121Z" fill="#AECDE9"/>
<path d="M119.081 39.9649C117.748 40.1536 116.393 39.838 115.282 39.0798C113.266 37.8364 110.865 37.3517 108.898 35.9819C111.188 34.3451 112.585 31.8795 113.94 29.6105C118.266 22.3891 122.802 15.3082 127.472 8.31166C127.719 7.97747 127.994 7.66491 128.294 7.37738C128.638 7.0121 129.038 6.72408 129.565 6.96995C130.267 7.27903 130.042 7.79184 129.923 8.37488C129.34 11.2199 128.041 13.805 126.945 16.4462C125.077 20.9491 123.49 25.5362 122.03 30.1654C120.962 33.4108 119.663 36.586 119.081 39.9649Z" fill="#AECDE9"/>
<path d="M152.473 64.0663C151.602 60.006 152.473 56.4726 155.619 53.6066C155.851 53.5768 156.063 53.4603 156.213 53.2805C156.363 53.1007 156.439 52.8709 156.426 52.6372C157.222 52.8916 158.083 52.8389 158.842 52.4896C162.648 51.0847 166.672 50.5157 170.534 49.3707C173.546 48.4785 176.559 47.6145 179.599 46.8278C180.386 46.6311 181.348 46.2236 181.882 47.0174C182.542 48.0079 181.608 48.5769 180.934 49.188C178.525 51.3657 175.681 52.883 172.851 54.3793C168.259 56.8098 163.61 59.1631 158.905 61.404C156.792 62.3593 154.804 63.6448 152.473 64.0663Z" fill="#AECDE9"/>
<path d="M85.9563 149.17C89.2215 150.428 92.9082 150.491 95.8855 152.605C93.0767 154.643 91.5599 157.656 89.8606 160.501C86.0265 166.908 81.9934 173.181 77.7614 179.32C77.305 179.974 76.8626 180.725 75.9848 180.248C75.2265 179.833 75.5986 179.046 75.7601 178.386C77.0311 173.314 79.7347 168.776 81.2585 163.796C82.7823 158.815 84.6993 154.144 85.9563 149.17Z" fill="#AECDE9"/>
<path d="M46.999 140.993C50.5101 141.59 53.8948 142.876 57.5322 143.311C59.1965 143.508 61.1135 143.55 62.7286 144.407C58.3117 146.767 53.5436 148.215 48.7967 149.69C45.7631 150.638 43.179 152.605 40.1173 153.441C38.418 153.905 36.6063 154.221 35.1387 155.345C34.8588 155.559 34.5144 155.671 34.1622 155.663C33.81 155.656 33.4708 155.529 33.2005 155.302C32.4983 154.6 33.3972 154.038 33.7413 153.539C34.8086 152.106 36.0707 150.83 37.4911 149.746C40.8822 147.079 44.0611 144.153 46.999 140.993Z" fill="#AECDE9"/>
<path d="M54.4859 33.2899C51.361 32.6577 51.0661 35.6432 49.5704 37.1254C48.9946 37.6944 49.0929 38.9377 47.85 38.8464C43.5454 33.9291 40.0414 28.3094 35.9966 23.1884C35.5542 22.6264 34.6414 22.1277 35.2944 21.3198C35.9475 20.512 36.5795 21.3198 37.1131 21.657C40.891 23.7996 44.7813 25.7735 48.1028 28.6817C49.3176 29.7424 50.9116 30.3747 52.2388 31.3019C53.0955 31.8498 54.2331 32.0957 54.4859 33.2899Z" fill="#AECDE9"/>
<path d="M160.014 44.944C158.34 42.5798 156.443 40.3826 154.347 38.383C154.305 38.3408 154.417 38.1371 154.46 38.0107C156.304 37.8124 158.088 37.2335 159.698 36.3107C162.454 34.9322 165.337 33.8241 168.307 33.0021C169.276 32.7141 170.14 32.0327 171.116 31.7727C172.092 31.5128 172.773 31.836 172.204 33.1004C171.572 34.3204 170.689 35.3928 169.613 36.2475C166.425 39.1487 162.914 41.7267 160.014 44.944Z" fill="#AECDE9"/>
<path d="M169.099 102.491C167.126 103.833 164.823 104.318 162.597 104.992C161.81 105.231 161.122 104.88 161.431 103.917C162.526 100.405 161.501 96.8927 161.831 93.3804C164.302 92.9579 166.837 93.1215 169.233 93.8581C168.362 95.263 168.875 96.8365 168.839 98.3398C168.72 101.571 168.72 101.578 165.567 101.705C164.757 101.703 163.966 101.948 163.299 102.407C165.349 102.815 167.238 101.726 169.099 102.491Z" fill="#AECDE9"/>
<path d="M41.6281 91.3632C41.4245 93.9694 41.8458 96.6177 41.1506 99.1957C40.5397 99.1957 40.2237 99.6875 39.7462 99.9474C38.4962 100.65 37.5483 102.055 35.8208 101.675C35.7163 98.4521 35.139 95.2616 34.1074 92.2061C36.6143 91.8198 39.0721 91.1735 41.6281 91.3632Z" fill="#AECDE9"/>
<path d="M30.0131 134.817C31.874 136.159 34.3037 136.082 36.2137 137.297C34.2124 138.569 31.874 138.969 29.6761 139.678C28.3684 140.076 27.0294 140.363 25.6735 140.535C24.9361 140.641 23.9179 141.076 23.4685 140.072C23.0893 139.222 23.8337 138.667 24.4165 138.189C26.1299 136.826 27.8293 135.414 30.0131 134.817Z" fill="#AECDE9"/>
<path d="M172.893 135.606C174.343 134.763 175.489 133.482 176.165 131.946C177.984 133.147 179.83 134.313 181.607 135.571C182.176 135.978 183.089 136.484 182.653 137.348C182.281 138.05 181.453 137.671 180.799 137.509C178.166 136.863 175.554 136.238 172.893 135.606Z" fill="#AECDE9"/>
<path d="M41.7178 90.7168C41.9706 90.9908 42.0408 91.2226 41.6055 91.4193C41.6406 91.1593 41.6757 90.9697 41.7178 90.7168Z" fill="#AECDE9"/>
<path d="M159.768 88.4558C158.448 89.4252 158.413 90.3525 158.883 91.4553C159.354 92.5582 159.529 93.7383 158.385 94.6164C157.746 95.1011 157.978 95.7685 158.041 96.3024C158.385 99.2457 157.746 102.133 157.605 105.055C157.59 105.742 157.327 106.4 156.865 106.909C156.403 107.417 155.773 107.742 155.091 107.823C149.677 108.841 144.284 109.93 138.779 110.401C133.014 110.865 127.256 111.455 121.491 111.953C120.346 112.059 119.173 112.312 118.036 111.883C117.235 111.581 116.919 112.508 116.077 112.529C111.948 112.607 107.797 113.33 103.697 113.098C99.3639 112.845 95.0031 113.225 90.6705 112.213C87.5527 111.511 84.2172 111.707 81.0291 111.195C75.4114 110.303 69.7937 110.338 64.1339 110C59.7695 109.694 55.4449 108.967 51.2202 107.83C50.1107 107.542 48.7484 106.938 49.1136 105.322C49.5208 103.32 48.1796 102.765 46.7822 102.646C45.3848 102.526 45.3778 101.859 45.3005 100.819C45.1601 96.8784 45.6516 92.9656 45.6938 89.0529C45.6938 87.367 46.1362 85.7302 46.1151 84.0302C46.1151 82.836 46.9227 81.4662 47.4212 80.2018C48.938 76.3382 51.2483 72.9031 53.383 69.3627C54.7247 67.2827 55.2754 64.7899 54.9349 62.338C54.7313 60.9331 54.1695 59.479 54.7172 58.1232C55.1315 57.1046 54.2257 56.8026 53.9518 56.2757C53.0459 54.5547 51.5994 53.0865 50.6233 51.4989C49.6472 49.9114 48.3762 48.949 47.4423 47.544C47.1122 47.0523 46.5715 46.3358 47.0701 45.8862C48.4535 44.6077 48.8186 42.5003 50.6654 41.559C51.6127 41.0241 52.3263 40.1549 52.6668 39.1215C53.2566 37.5339 54.3942 37.3583 55.8127 38.138C57.8701 39.2619 59.6327 41.6503 62.5048 40.0628C62.7716 39.9152 62.9893 40.1892 63.1016 40.4702C63.4457 41.3132 63.4879 41.1727 64.2884 41.3694C66.0018 41.8119 67.6801 42.409 69.3654 42.964C71.4855 43.7762 73.7313 44.2112 76.0013 44.2495C77.6374 44.2003 79.1893 44.9519 80.8536 44.5234C84.7719 43.4838 88.8658 43.1185 92.4541 40.8706C93.8094 40.0276 95.607 40.0487 97.1238 39.2479C98.0777 38.7693 98.979 38.1925 99.8133 37.5268C100.159 37.2128 100.567 36.9755 101.011 36.8306C101.455 36.6857 101.925 36.6365 102.389 36.6863C102.854 36.7361 103.302 36.8837 103.705 37.1193C104.109 37.355 104.457 37.6735 104.729 38.0537C105.317 38.7919 106.153 39.2912 107.081 39.4586C109.953 40.2595 112.334 42.7251 115.431 42.395C116.645 42.2685 116.919 44.2073 118.092 43.0974C121.125 45.0362 124.461 44.5024 127.74 44.2073C130.109 43.973 132.445 43.4783 134.706 42.7321C136.16 42.2755 137.747 40.5123 139.622 41.9243C139.846 42.0929 140.148 41.7768 140.148 41.4817C140.148 39.6834 141.363 40.2946 142.255 40.4842C144.579 40.983 145.689 38.7843 147.515 38.2153C148.055 38.0467 148.259 37.0913 148.87 37.3864C149.481 37.6814 150.457 38.2434 150.696 38.8967C151.229 40.3437 152.1 41.0462 153.441 41.847C154.445 42.4512 154.986 44.1441 155.906 45.2961C157.31 47.0593 155.337 47.9023 154.417 49.0965C152.374 51.7308 150.05 54.3229 148.8 57.3294C148.133 58.9521 148.161 61.3967 148.456 63.3707C148.575 64.1785 148.238 64.9231 148.456 65.8293C149.207 68.8288 151.145 71.0416 152.62 73.5564C153.483 75.0176 153.519 76.9704 155.344 77.9328C155.871 78.2138 155.576 79.408 155.878 80.2018C156.84 82.7517 157.781 85.3509 157.655 88.1608C157.648 88.5963 157.999 88.6806 159.768 88.4558ZM149.235 81.677C148.618 79.0462 147.612 76.5223 146.251 74.1887C143.751 70.1214 143.259 65.6185 143.828 61.0314C144.397 56.4443 146.798 52.6018 149.059 48.682C150.099 46.9048 150.007 45.3734 148.512 44.1792C147.016 42.985 145.436 42.9429 144.039 44.2354C143.021 45.2206 141.709 45.8449 140.303 46.0127C137.826 46.138 135.417 46.8611 133.281 48.1201C130.816 49.6725 127.923 48.956 125.233 49.1457C124.243 49.2159 123.274 49.8903 122.312 49.4899C119.279 48.2184 115.866 48.6399 112.86 47.3825C109.595 46.0267 105.838 45.8722 103.029 43.1677C102.615 42.8748 102.106 42.7458 101.602 42.8055C101.097 42.8651 100.633 43.1092 100.298 43.4908C99.6003 44.3098 98.6847 44.914 97.6575 45.2329C93.5004 46.0548 89.6944 48.092 85.3547 48.3378C79.5474 48.675 73.8876 50.0659 68.1295 47.1226C65.0608 45.5561 61.5357 44.5375 58.1581 43.4487C56.7536 42.9921 55.6863 43.6102 54.7804 44.6569C53.8746 45.7036 53.2075 46.7643 54.1695 48.3238C55.8083 50.8483 57.2183 53.5142 58.3828 56.2898C60.0402 60.1823 60.5282 64.4736 59.7872 68.6392C58.8673 73.5986 56.5359 78.0733 54.7242 82.7307C54.003 84.2713 53.6154 85.947 53.5866 87.6479C57.6173 84.8381 61.957 84.536 66.4231 85.6389C68.4244 86.1306 70.6364 86.819 71.8512 88.4488C73.6138 90.7599 75.6853 92.9094 76.7667 95.7334C77.0445 96.6534 77.5658 97.4811 78.2753 98.1291C78.9849 98.7771 79.8563 99.2211 80.7974 99.4143C83.4041 99.9491 86.1061 99.7818 88.6271 98.9296C90.9584 98.1007 92.4962 96.6325 92.5033 93.5979C92.5033 91.083 91.8853 88.6384 92.089 86.1447C92.089 85.8005 91.7027 85.2455 92.3558 85.1261C93.0089 85.0067 93.0229 85.66 93.1353 86.0885C93.1567 86.3573 93.1567 86.6275 93.1353 86.8963C93.2017 89.3291 93.5865 91.7427 94.2799 94.0755C94.4695 94.6164 94.5959 95.8177 95.6843 95.4805C96.3865 95.2346 96.5901 94.4338 96.5621 93.626C96.5269 92.0805 96.5621 90.5281 96.5621 88.7438C97.6013 89.6359 98.5142 88.9967 99.4411 88.9124C99.3779 92.1437 100.712 94.9887 100.909 98.0445C100.972 99.0701 101.674 100.032 101.948 101.065C102.18 101.929 103.051 102.098 103.198 101.62C103.563 100.398 105.052 99.7234 104.834 98.3817C104.703 96.8493 104.656 95.311 104.694 93.7735C104.455 89.2777 104.483 89.2707 107.503 88.0343C108.113 87.7814 108.415 87.4442 108.479 88.6525C108.458 90.4919 108.547 92.331 108.745 94.1598C108.907 95.1292 109.3 96.0986 110.613 95.8738C111.772 95.6772 111.793 94.7569 111.793 93.8648C111.793 91.0549 111.793 88.3012 111.751 85.5195C111.751 84.9996 111.919 84.7116 112.397 84.7187C112.72 84.7187 113.099 85.091 112.945 85.372C112.242 86.8752 112.755 88.4277 112.881 89.8959C113.071 92.0876 113.366 94.483 114.784 96.2181C116.891 98.775 123.26 98.5503 125.458 96.0776C126.94 94.4127 128.45 92.7549 129.791 90.9776C134.671 84.5641 141.075 81.5084 149.256 81.677H149.235ZM144.32 89.2285C144.509 88.238 143.779 88.4136 143.294 88.4417C140.801 88.5963 139.018 90.1066 137.754 91.9541C136.48 94.019 134.768 95.7791 132.74 97.1102C132.277 97.3912 131.862 97.8618 131.968 98.1428C132.164 98.6908 132.775 98.775 133.372 98.5994C135.359 98.0094 136.588 96.5693 137.859 95.0098C139.446 93.0499 140.668 90.4648 143.596 90.0925C144.32 90.0504 144.362 89.7132 144.341 89.2285H144.32ZM61.0933 89.8116C60.4754 89.65 59.8644 89.9591 59.8644 90.4227C59.8644 91.1252 60.37 91.2446 60.9739 91.357C62.6422 91.5939 64.2279 92.2331 65.5944 93.2195C66.9608 94.2058 68.067 95.5097 68.8176 97.0189C69.5233 98.3831 70.7053 99.4406 72.1391 99.9903C72.6658 100.166 73.6067 100.798 73.9087 99.8217C73.943 99.6527 73.9411 99.4782 73.9032 99.3099C73.8653 99.1416 73.7922 98.9833 73.6887 98.8452C73.5852 98.7072 73.4537 98.5927 73.3028 98.5092C73.1519 98.4256 72.9851 98.375 72.8132 98.3606C71.3105 98.1218 70.7487 96.9065 70.0044 95.7615C67.8556 92.5933 65.2574 90.0363 61.0933 89.8116ZM114.7 100.349C114.7 100.847 115.115 100.967 115.452 101.185C119.033 103.461 122.818 103.397 126.687 102.161C127.122 102.02 127.747 101.936 127.53 101.29C127.312 100.644 126.771 100.714 126.167 100.833C122.656 101.536 119.258 101.634 116.013 99.8358C115.898 99.7566 115.765 99.707 115.626 99.6912C115.487 99.6755 115.346 99.6941 115.215 99.7453C115.085 99.7966 114.969 99.8791 114.878 99.9855C114.787 100.092 114.724 100.219 114.693 100.356L114.7 100.349ZM85.5163 104.915C87.8802 104.221 90.0113 102.898 91.6817 101.086C91.9064 100.847 92.0187 100.222 91.7238 100.215C91.2955 100.215 90.9795 99.5126 90.3966 100.138C88.4094 102.323 85.7901 103.306 82.9391 103.727C82.3071 103.826 81.7875 103.931 82.0684 104.676C82.2791 105.245 82.7706 105.252 83.3885 105.125C84.0065 104.999 84.6947 103.868 85.5092 104.922L85.5163 104.915ZM143.688 93.8437C143.562 93.8812 143.448 93.9498 143.356 94.0432C143.264 94.1365 143.197 94.2515 143.161 94.3776C142.943 95.0098 143.07 95.8949 143.512 96.0705C144.905 96.5853 146.172 97.3925 147.227 98.4379C147.613 98.8453 148.069 98.3114 148.491 98.2271C148.912 98.1428 148.554 97.7705 148.491 97.5738C148.168 96.4147 145.029 93.8859 143.681 93.8507L143.688 93.8437ZM98.7459 98.1428C98.5844 97.5949 98.6827 96.8995 98.0437 96.773C97.2502 96.6185 97.1098 97.2085 96.9202 97.8689C96.4989 99.2738 97.0115 100.896 96.0143 102.224C95.6843 102.66 96.1758 102.927 96.541 103.13C97.18 103.503 97.3696 103.039 97.6154 102.603C98.3948 101.213 98.0086 99.5197 98.76 98.1498L98.7459 98.1428ZM110.803 104.107C111.077 103.32 111.716 104.507 111.969 103.756C112.021 103.644 112.048 103.523 112.046 103.399C112.044 103.276 112.014 103.155 111.959 103.046C111.903 102.936 111.824 102.84 111.725 102.766C111.627 102.692 111.514 102.641 111.393 102.618C109.834 102.4 109.356 101.128 108.781 100.018C108.486 99.4494 108.226 99.1684 107.58 99.1825C107.349 99.1564 107.116 99.2125 106.922 99.3409C106.728 99.4693 106.586 99.6619 106.519 99.8849C106.456 100.089 106.126 100.503 106.519 100.384C108.043 99.9271 107.776 101.346 108.043 101.901C108.313 102.452 108.702 102.937 109.181 103.319C109.661 103.702 110.22 103.973 110.817 104.114L110.803 104.107ZM61.7112 96.773C61.7311 96.6703 61.7278 96.5644 61.7016 96.4631C61.6753 96.3618 61.6268 96.2676 61.5595 96.1875C61.4921 96.1074 61.4078 96.0433 61.3126 96C61.2173 95.9567 61.1136 95.9352 61.009 95.9371C59.3518 95.9722 58.2493 97.1032 57.0837 98.0796C56.9643 98.1779 57.0345 98.6135 57.1398 98.8312C57.3716 99.3019 57.8421 99.2387 58.2213 99.0912C58.9235 98.8172 59.4361 98.2412 60.2787 98.3887C61.4865 98.5924 61.4865 97.623 61.7112 96.773Z" fill="#F7F7F7"/>
<path d="M30.7502 128.637C30.818 123.327 30.5835 118.017 30.048 112.733C29.9426 111.743 30.5255 110.661 30.3991 109.565C34.4017 110.97 38.5447 111.946 42.5333 113.499C47.2673 115.353 52.2025 116.645 57.2376 117.348C61.5984 117.952 66.0364 118.163 70.3269 119.175C79.1116 121.247 88.1139 120.58 97.0109 121.493C100.241 121.816 103.535 120.959 106.842 121.423C110.809 121.971 114.749 120.896 118.709 120.804C123.218 120.699 127.691 120.179 132.136 119.666C137.95 118.999 143.68 117.629 149.452 116.583C150.562 116.379 151.798 115.114 152.345 115.36C154.417 116.266 155.913 114.833 157.633 114.531C161.565 113.829 165.161 111.813 169.234 111.63C171.221 111.539 171.544 111.89 171.179 113.857C170.359 118.946 168.662 123.854 166.165 128.363C165.28 129.887 164.697 131.651 162.422 132.142C158.455 132.985 154.529 133.927 150.484 134.608C142.402 136.013 134.39 137.544 126.16 138.071C119.959 138.472 113.738 139.125 107.544 139.272C98.8929 139.476 90.2206 140.431 81.5623 139.055C79.891 138.795 78.1074 138.191 76.4853 138.5C73.6764 139.026 71.0712 138.05 68.3607 137.966C63.9297 137.825 59.6041 136.561 55.2433 135.718C51.4865 135.015 47.6735 134.453 44.0079 133.28C39.577 131.84 35.1741 130.196 30.7502 128.637Z" fill="white"/>
<path d="M30.7488 128.638C35.1727 130.198 39.5756 131.841 44.0417 133.281C47.6932 134.454 51.5062 134.988 55.2771 135.719C59.6378 136.562 63.9635 137.826 68.3944 137.967C71.105 138.051 73.7172 139.028 76.519 138.501C78.1411 138.192 79.9247 138.796 81.596 139.056C90.2473 140.461 98.9196 139.477 107.578 139.273C113.771 139.126 119.993 138.473 126.194 138.072C134.423 137.545 142.436 135.965 150.518 134.609C154.535 133.907 158.46 132.986 162.456 132.143C164.731 131.652 165.314 129.888 166.199 128.364C168.696 123.855 170.392 118.947 171.212 113.858C171.578 111.891 171.255 111.54 169.267 111.631C165.194 111.814 161.599 113.858 157.667 114.532C155.946 114.835 154.451 116.268 152.379 115.361C151.831 115.116 150.595 116.38 149.486 116.584C143.714 117.63 137.984 119 132.169 119.668C127.724 120.18 123.251 120.7 118.743 120.806C114.783 120.897 110.843 121.972 106.876 121.424C103.561 120.96 100.268 121.817 97.0447 121.494C88.1687 120.609 79.1664 121.248 70.3606 119.176C66.0701 118.164 61.6321 117.954 57.2714 117.349C52.2363 116.646 47.3011 115.354 42.567 113.5C38.5785 111.947 34.4354 110.992 30.4328 109.566C28.8528 109.728 29.0775 108.084 28.3262 107.416C28.3317 107.336 28.3531 107.257 28.3893 107.185C28.4254 107.112 28.4756 107.048 28.5368 106.995C29.1548 106.672 29.4076 107.522 29.9413 107.473C31.3036 107.297 32.4762 107.964 33.7192 108.33C38.3959 109.735 43.1709 110.83 47.6932 112.615C50.7478 113.816 53.9078 114.237 57.0186 114.884C61.8919 115.888 66.8495 116.373 71.765 117.111C78.3414 118.03 84.96 118.616 91.5955 118.867C97.3115 119.134 103.021 118.832 108.73 119.12C112.367 119.302 115.976 118.803 119.6 118.649C123.223 118.494 126.776 117.778 130.379 117.483C136.053 117.012 141.579 115.628 147.162 114.673C152.189 113.816 157.07 112.13 162.049 110.957C163.582 110.503 165.151 110.178 166.739 109.988C171.107 109.7 171.837 108.625 171.578 104.782C172.188 104.017 173.221 104.283 174.218 103.328C173.719 106.033 174.815 108.126 173.895 110.528C173.242 112.214 173.417 114.518 173.586 116.394C173.972 120.784 172.638 125.112 173.53 129.509C174.014 131.876 173.101 132.776 170.615 133.619C167.203 134.771 163.797 135.958 160.342 136.997C158.776 137.475 157.288 138.367 155.63 138.718C155.932 137.11 157.919 137.152 158.769 135.431C155.434 136.513 152.246 136.492 149.233 137.201C145.004 138.258 140.712 139.042 136.383 139.547C131.931 140.011 127.5 141.107 122.963 140.65C122.622 140.667 122.284 140.731 121.959 140.84C117.374 141.732 112.683 141.542 108.09 141.542C105.408 141.578 102.613 141.634 99.9448 141.795C94.8831 142.012 89.8137 141.972 84.756 141.676C79.0259 141.423 73.3029 140.615 67.5728 140.13C64.2573 139.926 60.9669 139.423 57.7419 138.627C53.3249 137.426 48.6974 137.222 44.3998 135.592C41.8297 134.637 38.6838 134.995 36.8159 132.361C36.7338 132.256 36.6263 132.173 36.5036 132.12C36.3808 132.067 36.2467 132.046 36.1137 132.059C34.2458 132.895 32.8414 131.455 31.1982 131.097C30.3345 130.429 29.1197 129.79 30.7488 128.638Z" fill="#AECDE9"/>
<path d="M171.585 104.781C171.845 108.623 171.115 109.698 166.747 109.986C165.159 110.177 163.59 110.501 162.056 110.956C157.078 112.129 152.225 113.815 147.17 114.672C141.552 115.627 136.061 117.011 130.387 117.482C126.784 117.777 123.21 118.5 119.608 118.648C116.005 118.795 112.375 119.301 108.737 119.118C103.028 118.83 97.3195 119.118 91.6035 118.865C84.9679 118.615 78.3493 118.029 71.773 117.109C66.8575 116.372 61.8718 115.887 57.0265 114.882C53.9157 114.236 50.7558 113.815 47.7011 112.613C43.1789 110.829 38.4039 109.705 33.7271 108.328C32.4842 107.963 31.3115 107.296 29.9492 107.471V103.65C35.4686 105.525 40.7141 107.436 46.0369 109.087C49.1201 110.115 52.2744 110.916 55.4746 111.482C60.3901 112.248 65.2565 113.414 70.2211 113.962C73.1774 114.292 76.1478 114.039 79.1041 114.426C83.0154 114.939 86.9829 115.395 90.8802 115.592C97.4059 115.936 103.945 115.95 110.472 115.634C112.951 115.508 115.387 115.121 117.831 114.932C121.391 114.686 124.952 114.159 128.512 114.145C132.324 114.099 136.129 113.778 139.895 113.182C142.086 112.859 144.248 112.368 146.418 111.953C147.493 113.035 148.735 114.011 150.259 113.133C151.355 112.596 152.316 111.818 153.068 110.857C159.184 108.715 165.259 106.361 171.585 104.781Z" fill="#F7F7F7"/>
<path d="M27.5629 98.3806C27.5629 101.296 26.7975 104.211 27.914 107.14C28.2019 107.885 27.0854 108.833 27.2118 110.042C27.598 113.877 27.6893 117.734 27.914 121.583C27.9701 122.447 27.8157 122.805 26.7904 122.946C21.6222 123.648 16.503 124.66 11.3418 125.138C9.69859 125.292 7.92199 125.011 6.19455 125.138C5.93117 125.117 5.67844 125.024 5.46327 124.871C5.2481 124.718 5.07856 124.509 4.9727 124.267C4.53732 123.48 5.1974 123.41 5.40807 123.002C7.5147 119.068 10.5132 115.858 13.4484 112.584C14.8177 111.053 14.3543 109.957 12.7462 108.63C9.5441 105.953 6.27179 103.263 4.31964 99.4272C3.22419 97.2917 4.09493 95.8868 6.5597 95.8868C12.0306 95.9707 17.496 95.5 22.8721 94.4819C25.3608 94.0738 27.8686 93.7925 30.3858 93.6389C30.9686 93.5897 31.7902 93.5546 32.036 94.2781C32.2817 95.0017 31.5374 95.1913 31.0669 95.5988C30.3647 96.2099 29.4518 96.2661 28.7566 96.793C28.0965 95.9851 27.2328 96.3153 26.4604 96.4698C24.9225 96.7719 23.4268 97.3409 21.8749 97.5235C17.6055 98.0293 13.315 98.3946 9.03148 98.8091C7.00911 99.0058 6.58778 99.652 8.04136 101.078C10.3376 103.319 12.0159 106.108 14.5649 108.103C17.1139 110.098 17.3316 110.287 15.3022 112.669C13.2728 115.05 12.3459 118.605 9.34748 120.396C8.75762 120.747 8.79273 121.316 8.90509 121.864C9.01744 122.412 9.6073 122.419 10.0637 122.468C12.2125 122.686 14.277 122.194 16.4258 122.005C19.8175 121.695 22.8861 119.96 26.2568 119.581C26.959 119.497 27.0503 118.949 27.0151 118.345C27.0275 118.204 27.0036 118.062 26.9458 117.933C26.888 117.804 26.7982 117.692 26.6849 117.608C26.5716 117.523 26.4386 117.469 26.2985 117.451C26.1584 117.432 26.0159 117.45 25.8846 117.502C25.0419 117.741 24.1782 117.734 23.3215 117.972C20.1826 118.836 17.0016 119.757 13.7574 119.967C13.4484 118.352 14.8388 117.509 15.0494 116.23C15.5813 115.889 16.0146 115.414 16.3064 114.853C17.0051 113.622 17.8805 112.501 18.9046 111.524C20.2247 110.442 20.4143 109.711 19.031 108.637C16.5241 106.698 13.8276 104.963 12.0089 102.314C11.4611 101.521 11.3067 100.909 12.7111 100.818C17.7382 100.573 22.7211 99.7555 27.5629 98.3806Z" fill="#F7F7F7"/>
<path d="M31.2 131.132C32.8222 131.49 34.2266 132.93 36.1155 132.094C36.2485 132.081 36.3826 132.102 36.5054 132.155C36.6281 132.208 36.7356 132.291 36.8177 132.396C38.6856 135.031 41.8315 134.672 44.4016 135.628C48.6992 137.229 53.3267 137.461 57.7437 138.662C60.9687 139.458 64.2591 139.962 67.5746 140.166C73.3047 140.65 79.0277 141.458 84.7578 141.711C89.8155 142.007 94.8849 142.047 99.9466 141.83C102.615 141.669 105.41 141.613 108.092 141.578C112.685 141.514 117.376 141.732 121.961 140.875C122.285 140.766 122.623 140.702 122.965 140.685C127.501 141.142 131.932 140.046 136.384 139.583C140.714 139.077 145.006 138.293 149.235 137.236C152.247 136.534 155.435 136.534 158.771 135.466C157.921 137.187 155.962 137.145 155.632 138.754C154.881 138.571 154.129 138.395 153.785 139.4L153.259 139.456C153.067 139.407 152.866 139.409 152.676 139.463C152.486 139.518 152.314 139.622 152.177 139.765L151.215 139.906C150.548 139.906 149.86 139.695 149.284 140.222C145.773 141.002 142.262 141.627 138.751 142.329C131.982 143.685 125.072 143.158 118.26 144.226C113.023 144.974 107.716 145.111 102.446 144.633C99.5112 144.402 96.5268 144.633 93.5635 144.633C90.1971 144.572 86.8361 144.338 83.4938 143.931C80.1936 143.526 76.8748 143.291 73.5505 143.228C68.2488 143.186 63.1577 141.922 57.9965 141.037C55.7213 140.643 53.4461 140.229 51.192 139.751C48.2849 139.126 45.6586 137.721 42.8638 136.78C39.6547 135.698 36.3824 134.771 33.2084 133.59C32.2534 133.176 30.2942 133.204 31.2 131.132Z" fill="#F7F7F7"/>
<path d="M182.864 123.628C181.46 123.439 180.02 123.474 178.588 123.151C176.081 122.582 175.716 122.266 176.256 119.758C176.942 116.326 177.138 112.814 176.839 109.326C176.608 106.144 177.233 103.004 176.797 99.857C176.694 99.1616 176.455 98.4934 176.094 97.8907C175.732 97.2879 175.256 96.7625 174.691 96.3447C174.508 96.1971 174.023 96.3447 173.932 96.155C173.476 95.3682 171.699 95.5509 172.191 94.2724C172.549 93.3311 173.728 93.7455 174.634 93.7596C176.884 93.7601 179.122 94.0746 181.284 94.6939C181.642 95.4315 181.986 96.1761 182.366 96.8996C182.492 97.1384 182.366 97.4194 183.068 97.4475C186.263 97.581 189.444 98.0587 192.632 98.3467C193.847 98.4521 193.636 99.0492 193.194 99.6954C192.541 100.616 191.333 101.227 190.792 101.964C188.938 104.493 186.53 106.39 184.374 108.561C183.707 109.263 183.721 109.642 184.234 110.275C184.746 110.907 185.16 111.469 185.638 112.066C187.91 115.065 189.868 118.29 191.48 121.69C192.014 122.779 191.789 123.305 190.434 123.249C188.518 123.127 186.613 122.874 184.732 122.49C183.77 122.35 182.773 122.139 182.864 123.628ZM189.886 100.644C187.836 100.173 186.108 99.8008 184.395 99.3793C183.545 99.1686 182.675 99.1475 182.956 100.285C183.37 101.992 183.208 103.692 183.293 105.392C183.293 105.702 183.138 106.137 183.538 106.285C183.737 106.349 183.952 106.344 184.148 106.271C184.344 106.199 184.51 106.062 184.62 105.884C185.961 103.875 187.836 102.393 189.893 100.644H189.886ZM183.279 112.944C183.375 113.984 183.363 115.032 183.243 116.07C182.654 118.585 182.794 120.39 186.123 120.215C186.565 120.215 187.113 120.636 187.569 120.215C187.763 120.014 187.872 119.746 187.872 119.466C187.872 119.187 187.763 118.919 187.569 118.718C186.207 116.906 185.455 114.686 183.279 112.944Z" fill="#AECDE9"/>
<path d="M15.0692 116.189C14.8585 117.467 13.4681 118.296 13.7771 119.926C17.0494 119.715 20.2023 118.795 23.3412 117.931C24.1979 117.692 25.0616 117.699 25.9043 117.46C26.0357 117.408 26.1782 117.391 26.3182 117.409C26.4583 117.428 26.5913 117.482 26.7046 117.566C26.8179 117.651 26.9077 117.763 26.9655 117.892C27.0233 118.021 27.0472 118.162 27.0349 118.303C27.0349 118.907 26.9927 119.455 26.2765 119.54C22.8848 119.919 19.8161 121.647 16.4455 121.963C14.3389 122.153 12.2322 122.665 10.0835 122.427C9.59893 122.377 9.05121 122.427 8.92481 121.823C8.79841 121.218 8.77735 120.706 9.3672 120.354C12.3657 118.584 13.2083 115.135 15.322 112.627C17.4356 110.119 17.0915 110.014 14.5846 108.061C12.0777 106.108 10.3714 103.291 8.06109 101.037C6.60751 99.6316 7.02884 98.9642 9.05121 98.7676C13.3347 98.3531 17.6252 97.9878 21.8947 97.482C23.4466 97.2994 24.9423 96.7304 26.4801 96.4283C27.2526 96.2738 28.1163 95.9436 28.7764 96.7515C28.3691 97.2783 28.362 98.1002 27.5826 98.3461C22.7371 99.7292 17.7495 100.554 12.7168 100.805C11.2632 100.875 11.4387 101.507 12.0145 102.301C13.8543 104.963 16.5508 106.698 19.0367 108.623C20.4411 109.698 20.2304 110.429 18.9103 111.51C17.8861 112.487 17.0108 113.609 16.3121 114.84C16.0164 115.378 15.5887 115.833 15.0692 116.161C15.0537 116.111 15.0325 116.064 15.006 116.02C15.006 116.02 14.9357 116.02 14.9006 116.02L15.0692 116.189Z" fill="#AECDE9"/>
<path d="M182.864 123.629C182.773 122.139 183.77 122.35 184.669 122.505C186.549 122.895 188.454 123.155 190.371 123.284C191.726 123.341 191.951 122.814 191.417 121.725C189.804 118.325 187.847 115.1 185.574 112.101C185.111 111.504 184.662 110.893 184.17 110.31C183.678 109.727 183.643 109.27 184.31 108.596C186.466 106.425 188.875 104.528 190.729 102C191.269 101.297 192.477 100.651 193.13 99.7306C193.573 99.1054 193.783 98.4872 192.568 98.3818C189.38 98.0938 186.199 97.6161 183.004 97.4827C182.302 97.4827 182.45 97.1736 182.302 96.9348C181.916 96.2323 181.6 95.4666 181.221 94.729C184.156 95.0802 187.091 95.593 190.041 95.7335C191.908 95.8178 193.706 96.6467 195.693 96.0005C196.943 95.6001 197.028 96.7662 196.775 97.7566C196.192 100.054 194.45 101.606 192.997 103.257C191.348 105.171 189.537 106.938 187.583 108.54C187.049 108.968 186.663 109.572 187.625 110.717C188.587 111.862 190.174 112.698 190.988 114.23C191.915 115.937 193.095 117.496 193.987 119.259C194.514 120.276 195.147 121.234 195.876 122.118C197.028 123.523 195.911 123.699 195.174 124.12C191.936 125.912 188.615 124.528 185.343 124.268C184.577 124.162 183.538 124.436 182.864 123.629Z" fill="#F7F7F7"/>
<path d="M35.8122 101.677C37.5396 102.07 38.4876 100.651 39.7375 99.9486C40.194 99.6886 40.51 99.1758 41.142 99.1969C41.3386 100.454 41.465 101.733 41.7599 102.969C42.1531 104.634 41.5492 105.077 40.0184 104.592C38.8457 104.213 37.68 103.819 36.5074 103.37C35.77 103.068 35.6858 102.4 35.8122 101.677Z" fill="#F7F7F7"/>
<path d="M153.082 110.879C152.329 111.84 151.369 112.618 150.273 113.155C148.749 114.033 147.506 113.057 146.432 111.975L153.082 110.879Z" fill="#F7F7F7"/>
<path d="M169.099 102.491C167.238 101.726 165.349 102.815 163.299 102.407C163.966 101.948 164.757 101.703 165.567 101.705C168.72 101.578 168.72 101.571 168.839 98.3398C169.584 99.6886 169.064 101.108 169.099 102.491Z" fill="#F7F7F7"/>
<path d="M153.785 139.356C154.129 138.352 154.881 138.528 155.632 138.71C155.427 138.994 155.14 139.207 154.81 139.323C154.48 139.438 154.122 139.45 153.785 139.356Z" fill="#AECDE9"/>
<path d="M149.27 140.18C149.845 139.653 150.533 139.849 151.201 139.863C150.938 140.087 150.619 140.234 150.279 140.29C149.939 140.346 149.59 140.307 149.27 140.18Z" fill="#AECDE9"/>
<path d="M152.164 139.722C152.3 139.579 152.473 139.475 152.663 139.421C152.853 139.366 153.054 139.364 153.245 139.413C152.993 139.898 152.585 139.821 152.164 139.722Z" fill="#AECDE9"/>
<path d="M156.423 52.6372C156.435 52.8709 156.359 53.1007 156.209 53.2805C156.059 53.4603 155.847 53.5768 155.615 53.6066C155.812 53.2202 155.889 52.7215 156.423 52.6372Z" fill="white"/>
<path d="M54.8338 63.7783C54.7465 63.8247 54.6547 63.8624 54.56 63.8907C54.56 63.8907 54.4757 63.8064 54.4336 63.7643C54.5179 63.7167 54.6075 63.679 54.7004 63.6519C54.7004 63.6519 54.7706 63.7291 54.8338 63.7783Z" fill="#F7F7F7"/>
<path d="M149.255 81.6769C141.074 81.5084 134.67 84.5641 129.839 90.9706C128.498 92.7478 126.988 94.4057 125.506 96.0705C123.308 98.5432 116.946 98.768 114.833 96.211C113.428 94.49 113.119 92.0945 112.93 89.8888C112.803 88.4206 112.298 86.8682 112.993 85.3649C113.126 85.0839 112.768 84.7186 112.445 84.7116C111.968 84.7116 111.792 84.9926 111.799 85.5124C111.841 88.3223 111.841 91.076 111.841 93.8577C111.841 94.7499 111.841 95.6701 110.661 95.8668C109.348 96.0916 108.955 95.1222 108.794 94.1528C108.596 92.3239 108.506 90.4849 108.527 88.6454C108.463 87.4372 108.162 87.7744 107.551 88.0273C104.545 89.2636 104.517 89.2706 104.742 93.7664C104.705 95.3039 104.751 96.8423 104.882 98.3746C105.1 99.7163 103.611 100.391 103.246 101.613C103.099 102.091 102.228 101.922 101.996 101.058C101.722 100.025 101.02 99.063 100.957 98.0374C100.76 94.9817 99.426 92.1367 99.4892 88.9053C98.5623 88.9896 97.6494 89.6078 96.6102 88.7367C96.6102 90.521 96.6102 92.0735 96.6102 93.6189C96.6102 94.4267 96.4697 95.2276 95.7324 95.4734C94.651 95.8387 94.5246 94.6375 94.328 94.0685C93.6346 91.7357 93.2498 89.3221 93.1834 86.8893C93.2048 86.6204 93.2048 86.3503 93.1834 86.0814C93.071 85.6529 93.1202 84.9926 92.4039 85.119C91.6876 85.2455 92.1581 85.8215 92.1371 86.1376C91.9334 88.6314 92.5514 91.0549 92.5514 93.5908C92.5514 96.6255 91.0065 98.0936 88.6752 98.9225C86.1542 99.7747 83.4522 99.942 80.8455 99.4072C79.9044 99.2141 79.033 98.77 78.3234 98.122C77.6139 97.4741 77.0926 96.6463 76.8148 95.7263C75.7544 92.9164 73.6829 90.7528 71.8993 88.4417C70.6634 86.826 68.4725 86.1376 66.4712 85.6318C62.0051 84.529 57.6655 84.8451 53.6348 87.6409C53.6635 85.9399 54.0511 84.2643 54.7724 82.7236C56.5841 78.0663 58.9154 73.5915 59.8353 68.6321C60.5764 64.4666 60.0883 60.1753 58.4309 56.2827C57.2664 53.5072 55.8564 50.8412 54.2176 48.3167C53.2556 46.7853 53.8735 45.7527 54.8285 44.6498C55.7835 43.547 56.8017 42.985 58.2062 43.4416C61.5838 44.5304 65.1089 45.549 68.1776 47.1155C73.9357 50.0589 79.5956 48.668 85.4028 48.3308C89.7425 48.0849 93.5485 46.0478 97.7056 45.2259C98.7328 44.9069 99.6484 44.3028 100.346 43.4837C100.681 43.1022 101.146 42.8581 101.65 42.7984C102.154 42.7388 102.663 42.8678 103.078 43.1606C105.837 45.837 109.608 45.9705 112.908 47.3754C115.914 48.6258 119.327 48.2043 122.36 49.4828C123.322 49.8832 124.291 49.2089 125.281 49.1386C127.971 48.9489 130.864 49.6655 133.329 48.113C135.465 46.854 137.875 46.1309 140.351 46.0056C141.767 45.8364 143.088 45.2043 144.108 44.2073C145.512 42.9147 147.113 42.978 148.581 44.1511C150.048 45.3242 150.168 46.8767 149.129 48.6539C146.867 52.5526 144.452 56.4373 143.897 61.0033C143.342 65.5693 143.82 70.0932 146.32 74.1605C147.667 76.5058 148.656 79.0392 149.255 81.6769ZM108.232 49.9465C106.827 50.2204 106.237 51.52 105.332 52.3981C104.924 52.7985 105.423 53.0584 105.809 53.1989C108.218 54.9129 110.725 56.4583 112.34 59.1207C112.866 60.0058 113.295 60.912 113.744 61.8322C114.046 62.4434 114.39 62.7103 115.071 62.0711C118.224 59.0926 120.851 55.5873 124.369 52.8898C121.622 52.9005 118.878 52.6843 116.167 52.2435C113.498 51.8501 110.984 50.7121 108.442 49.6936C108.435 49.6725 108.316 49.8551 108.232 49.9465ZM89.272 76.3522C94.4965 76.1134 99.6788 77.4481 104.924 76.7807C106.982 76.5208 109.095 76.6473 111.104 76.015C112.677 75.5163 113.913 74.9333 113.913 72.7064C113.842 69.0395 112.438 65.8222 111.413 62.4434C110.465 59.3104 108.358 57.4418 105.732 55.6645C100.922 52.4121 99.5805 53.4237 96.3784 56.7253C91.2453 62.0359 88.8507 68.59 88.8437 75.994C87.9027 76.1064 87.1724 75.9589 87.2356 74.7576C87.2356 74.1605 87.1443 73.5986 86.3789 73.8444C85.0588 74.2729 83.6192 74.2027 82.4536 75.2494C79.1766 78.2091 75.8528 81.0962 72.4821 83.9108C70.9794 85.1612 70.7687 86.0182 72.7349 86.8471C73.5004 87.1632 73.7672 87.9219 74.2096 88.512C75.9882 90.8743 77.5422 93.3977 78.8512 96.0494C79.5534 97.4544 80.2556 97.6581 81.3932 96.4217C83.066 94.4992 84.8478 92.6744 86.73 90.9565C89.4546 88.5962 91.5683 86.1517 90.1287 82.2178C90.0502 81.7528 90.0502 81.2779 90.1287 80.8129C90.1287 78.003 90.1287 78.003 87.3901 77.9117C87.2497 76.4927 88.324 76.5138 89.2439 76.3522H89.272ZM145.154 47.832C142.345 49.237 139.796 50.4452 137.732 52.5596C133.238 57.1468 128.652 61.6426 124.13 66.1945C123.231 67.0937 121.806 67.747 122.725 69.5453C123.027 70.1635 122.318 70.7957 121.595 71.0275C120.907 71.3395 120.179 71.5523 119.432 71.6597C117.101 71.7159 116.743 73.1139 117.03 74.9824C117.192 76.0221 116.855 76.6613 115.795 76.7667C113.927 76.9423 114.144 78.1716 114.39 79.4501C114.587 80.6232 115.043 81.9369 114.713 82.9625C114.046 85.0699 114.671 86.9455 114.594 88.9615C114.866 88.909 115.125 88.8031 115.357 88.65C115.588 88.4969 115.787 88.2996 115.942 88.0694C123.919 80.1456 131.573 71.9126 139.227 63.6797C139.593 63.2464 139.852 62.7335 139.983 62.1822C140.115 61.6308 140.116 61.0563 139.986 60.5046C139.952 60.3032 139.984 60.0964 140.077 59.9145C141.531 57.2591 141.482 53.9716 143.75 51.6043C144.575 50.5127 145.054 49.1988 145.126 47.832H145.154ZM101.273 87.5074V87.374C101.905 87.4372 102.537 87.5425 103.169 87.5496C106.181 87.5496 107.263 86.6293 106.989 84.0372C106.876 82.9625 106.708 81.8877 106.61 80.8059C106.525 79.8786 106.006 79.134 104.995 79.4009C103.162 79.8716 101.308 79.6187 99.4752 79.7803C99.1732 79.7803 99.1522 79.998 99.0187 80.2228C98.1901 81.6278 98.6044 83.2083 98.3165 84.6554C97.8531 86.9384 98.9415 87.5426 100.887 87.5145L101.273 87.5074ZM120.752 69.2433C120.092 67.1921 118.14 66.4826 116.609 65.3446C116.398 65.19 115.31 64.4173 115.394 65.6536C115.444 67.1676 115.845 68.6492 116.567 69.9809C117.192 70.9292 119.214 69.6788 120.612 69.3346C120.651 69.3176 120.689 69.2964 120.724 69.2714L120.752 69.2433ZM88.4785 66.5879C87.2637 66.9743 83.9001 70.7465 83.865 71.6527C83.8469 71.7915 83.8707 71.9325 83.9333 72.0576C83.9958 72.1828 84.0943 72.2864 84.2161 72.3552C84.7989 72.7064 87.4252 72.0391 87.5727 71.4069C87.9238 69.8123 88.1836 68.2317 88.4785 66.5879ZM112.74 80.0191C111.542 80.3324 110.324 80.567 109.095 80.7216C108.253 80.7848 108.253 81.1782 108.302 81.7542C108.351 82.3302 107.972 83.11 108.66 83.1591C109.959 83.1591 111.392 83.4753 112.557 82.7447C113.723 82.0141 112.592 80.9464 112.747 80.0191H112.74ZM96.5189 84.0302C96.891 80.8972 96.891 80.9042 94.0611 80.9675C93.6481 80.9942 93.2335 80.9563 92.8322 80.8551C92.4039 80.7216 91.9264 80.6092 91.8 81.0869C91.649 81.6872 91.6346 82.3137 91.7579 82.9203C91.8983 83.5806 92.4601 83.3277 92.9235 83.2083C93.5396 82.9858 94.2066 82.945 94.8452 83.0907C95.4838 83.2364 96.0672 83.5625 96.5259 84.0302H96.5189ZM94.3771 84.5992C93.8856 87.0298 94.7352 88.6595 95.0161 90.3735C95.3422 88.4273 95.1235 86.4287 94.3841 84.5992H94.3771ZM102.579 94.1738C102.797 92.5371 103.19 90.8652 101.877 89.3971C102.417 90.9706 101.821 92.6284 102.586 94.1738H102.579ZM110.416 89.9169C110.633 88.3363 111.153 86.7277 109.952 85.2595C110.282 86.7979 109.545 88.4277 110.423 89.9169H110.416Z" fill="black"/>
<path d="M144.342 89.2282C144.342 89.7129 144.342 90.0501 143.639 90.1344C140.683 90.4997 139.489 93.0847 137.902 95.0516C136.631 96.6111 135.402 98.0512 133.415 98.6413C132.818 98.8169 132.207 98.7326 132.011 98.1847C131.905 97.9037 132.32 97.433 132.783 97.152C134.811 95.8209 136.523 94.0608 137.797 91.9959C139.061 90.1133 140.845 88.603 143.337 88.4836C143.801 88.4133 144.531 88.2377 144.342 89.2282Z" fill="black"/>
<path d="M61.0909 89.8114C65.262 90.0362 67.8602 92.6213 69.9669 95.7613C70.7182 96.9064 71.28 98.1216 72.7757 98.3605C72.9476 98.3749 73.1144 98.4255 73.2653 98.509C73.4162 98.5926 73.5477 98.7071 73.6512 98.8451C73.7547 98.9831 73.8278 99.1415 73.8657 99.3098C73.9036 99.4781 73.9054 99.6525 73.8711 99.8216C73.5692 100.798 72.6282 100.166 72.1016 99.9902C70.6809 99.4332 69.5123 98.3766 68.8152 97.0187C68.0672 95.5131 66.9654 94.2115 65.6041 93.2254C64.2429 92.2392 62.6629 91.5981 60.9996 91.3569C60.3957 91.2445 59.8971 91.125 59.8901 90.4226C59.855 89.9589 60.4659 89.6499 61.0909 89.8114Z" fill="black"/>
<path d="M114.692 100.356C114.723 100.219 114.787 100.092 114.879 99.9853C114.971 99.8789 115.088 99.7967 115.219 99.746C115.35 99.6954 115.491 99.6778 115.631 99.6948C115.771 99.7118 115.904 99.7629 116.019 99.8436C119.263 101.642 122.697 101.537 126.173 100.841C126.777 100.722 127.332 100.673 127.535 101.298C127.739 101.923 127.128 102 126.693 102.169C122.809 103.405 119.024 103.468 115.457 101.192C115.106 100.975 114.678 100.855 114.692 100.356Z" fill="black"/>
<path d="M85.5088 104.922C84.6943 103.868 84.1044 104.992 83.4022 105.132C82.7 105.273 82.2927 105.252 82.082 104.683C81.8012 103.938 82.3208 103.833 82.9528 103.735C85.8038 103.313 88.423 102.33 90.4103 100.145C90.9931 99.4986 91.3091 100.215 91.7374 100.222C92.0324 100.222 91.92 100.854 91.6953 101.093C90.0191 102.908 87.8803 104.231 85.5088 104.922Z" fill="black"/>
<path d="M143.679 93.8516C145.027 93.8867 148.159 96.4156 148.489 97.5817C148.545 97.7784 148.875 98.1577 148.489 98.235C148.102 98.3122 147.611 98.8531 147.225 98.4457C146.17 97.4003 144.903 96.5931 143.51 96.0784C143.068 95.9028 142.941 95.0177 143.159 94.3854C143.194 94.2601 143.26 94.1456 143.351 94.0524C143.442 93.9591 143.554 93.8901 143.679 93.8516Z" fill="black"/>
<path d="M98.7592 98.1501C98.0078 99.5199 98.394 101.213 97.6005 102.611C97.3548 103.046 97.1652 103.51 96.5262 103.138C96.161 102.927 95.6695 102.667 95.9995 102.231C96.9966 100.904 96.484 99.3021 96.9054 97.8761C97.0949 97.2158 97.2354 96.6257 98.0289 96.7802C98.696 96.9067 98.5977 97.6021 98.7592 98.1501Z" fill="black"/>
<path d="M110.816 104.114C110.228 103.972 109.678 103.703 109.205 103.326C108.732 102.948 108.347 102.472 108.078 101.929C107.811 101.374 108.078 99.9555 106.554 100.412C106.14 100.531 106.47 100.117 106.554 99.9133C106.62 99.6903 106.763 99.4977 106.956 99.3693C107.15 99.2408 107.383 99.1847 107.614 99.2108C108.26 99.2108 108.52 99.4778 108.815 100.047C109.391 101.157 109.868 102.428 111.427 102.646C111.548 102.669 111.662 102.72 111.76 102.794C111.858 102.869 111.938 102.964 111.993 103.074C112.049 103.184 112.079 103.305 112.08 103.428C112.082 103.551 112.056 103.673 112.003 103.784C111.729 104.514 111.09 103.327 110.816 104.114Z" fill="black"/>
<path d="M61.7103 96.773C61.4856 97.623 61.4856 98.5924 60.2497 98.3816C59.4071 98.2411 58.8453 98.8172 58.1922 99.0841C57.8271 99.2316 57.3426 99.2948 57.1108 98.8242C57.0055 98.6064 56.9353 98.1709 57.0547 98.0725C58.2203 97.0961 59.3228 95.9651 60.98 95.93C61.0876 95.9235 61.1953 95.9418 61.2948 95.9836C61.3942 96.0254 61.4826 96.0896 61.5532 96.1711C61.6238 96.2526 61.6747 96.3493 61.702 96.4537C61.7292 96.5581 61.7321 96.6673 61.7103 96.773Z" fill="black"/>
<path d="M189.893 100.644C187.835 102.393 185.96 103.875 184.626 105.884C184.517 106.063 184.351 106.199 184.155 106.271C183.959 106.344 183.744 106.349 183.545 106.285C183.145 106.137 183.313 105.702 183.299 105.393C183.215 103.693 183.376 101.993 182.962 100.286C182.681 99.1477 183.552 99.1688 184.402 99.3795C186.087 99.801 187.842 100.173 189.893 100.644Z" fill="#F7F7F7"/>
<path d="M183.278 112.943C185.468 114.685 186.22 116.905 187.568 118.697C187.762 118.897 187.871 119.165 187.871 119.445C187.871 119.724 187.762 119.992 187.568 120.193C187.112 120.635 186.564 120.193 186.122 120.193C182.793 120.368 182.653 118.563 183.242 116.048C183.361 115.017 183.373 113.977 183.278 112.943Z" fill="#F7F7F7"/>
<path d="M15.0681 116.189L14.8926 116.035C14.9277 116.035 14.9768 116.035 14.9979 116.035C15.0244 116.079 15.0457 116.126 15.0611 116.175L15.0681 116.189Z" fill="#F7F7F7"/>
<path d="M145.126 47.8315C145.034 49.2179 144.522 50.5434 143.659 51.6319C141.383 53.9992 141.44 57.2868 139.986 59.9421C139.893 60.124 139.861 60.3308 139.895 60.5322C140.025 61.0839 140.024 61.6584 139.892 62.2098C139.761 62.7611 139.502 63.274 139.136 63.7073C131.482 71.9402 123.828 80.1732 115.851 88.097C115.696 88.3272 115.497 88.5245 115.266 88.6776C115.034 88.8307 114.775 88.9366 114.503 88.9891C114.58 86.9731 113.955 85.0623 114.622 82.9901C114.952 81.9645 114.496 80.6508 114.299 79.4777C114.088 78.1782 113.871 76.9699 115.704 76.7943C116.764 76.6889 117.108 76.0497 116.939 75.01C116.652 73.1415 117.01 71.7436 119.341 71.6874C120.088 71.58 120.816 71.3671 121.504 71.0551C122.206 70.8233 122.908 70.1911 122.634 69.5729C121.743 67.7746 123.168 67.1213 124.039 66.2222C128.561 61.6702 133.168 57.1744 137.641 52.5873C139.74 50.4447 142.31 49.2154 145.126 47.8315Z" fill="#AECDE9"/>
<path d="M88.7871 75.9936C88.7871 68.5896 91.1887 62.0355 96.3219 56.7249C99.524 53.4233 100.865 52.4117 105.675 55.6642C108.302 57.4414 110.408 59.31 111.356 62.443C112.353 65.8218 113.758 69.0391 113.856 72.706C113.898 74.9329 112.648 75.5159 111.047 76.0147C109.039 76.6469 106.925 76.5204 104.868 76.7803C99.6223 77.4828 94.4399 76.0779 89.2155 76.3518L88.7871 75.9936ZM101.427 71.0763C106.644 70.992 108.147 67.5218 107.88 62.8715C107.754 60.5885 104.159 57.7856 101.56 57.9542C98.583 58.1439 95.3177 62.9417 95.6056 66.721C95.8303 69.8962 97.6631 71.2449 101.42 71.0552L101.427 71.0763Z" fill="#F7F7F7"/>
<path d="M88.7876 75.995L89.244 76.3532C88.3241 76.5148 87.2497 76.4937 87.3129 77.8916C90.0867 77.99 90.0867 77.99 90.0516 80.7928C89.973 81.2578 89.973 81.7327 90.0516 82.1978C91.456 86.1316 89.3493 88.5762 86.6528 90.9365C84.7707 92.6544 82.9888 94.4791 81.316 96.4017C80.1925 97.638 79.4692 97.4413 78.774 96.0293C77.465 93.3776 75.911 90.8542 74.1324 88.4919C73.69 87.9018 73.4302 87.1431 72.6578 86.827C70.6916 86.0122 70.9022 85.1411 72.405 83.8907C75.7943 81.0808 79.1181 78.1937 82.3764 75.2293C83.542 74.1756 84.9816 74.2458 86.3017 73.8243C87.0671 73.5785 87.1865 74.1404 87.1584 74.7375C87.1163 75.9598 87.8466 76.1074 88.7876 75.995Z" fill="#AECDE9"/>
<path d="M108.231 49.9465C108.316 49.8551 108.435 49.6725 108.477 49.6936C110.984 50.7122 113.498 51.8502 116.201 52.2435C118.913 52.6843 121.656 52.9005 124.403 52.8898C120.892 55.5873 118.259 59.0926 115.106 62.071C114.404 62.7103 114.081 62.4433 113.779 61.8322C113.329 60.912 112.901 60.0058 112.374 59.1207C110.78 56.4583 108.252 54.9059 105.844 53.1989C106.785 52.2365 108.252 51.6324 108.231 49.9465Z" fill="#AECDE9"/>
<path d="M101.245 87.5082H100.852C98.907 87.5082 97.8186 86.9322 98.282 84.6491C98.584 83.2021 98.1697 81.6566 98.9842 80.2166C99.1177 79.9918 99.1387 79.7951 99.4407 79.774C101.273 79.6124 103.127 79.8653 104.96 79.3947C105.971 79.1348 106.491 79.8794 106.575 80.7996C106.674 81.8814 106.842 82.9562 106.954 84.031C107.228 86.6231 106.147 87.5433 103.134 87.5433C102.502 87.5433 101.87 87.4309 101.238 87.3677L101.245 87.5082Z" fill="#F7F7F7"/>
<path d="M120.726 69.2707C120.684 69.2972 120.639 69.3184 120.592 69.3339C119.188 69.6781 117.173 70.9285 116.548 69.9802C115.828 68.6575 115.424 67.186 115.368 65.6811C115.284 64.4447 116.372 65.2174 116.583 65.372C118.114 66.51 120.08 67.2195 120.726 69.2707Z" fill="#F7F7F7"/>
<path d="M88.4788 66.5884C88.1768 68.2322 87.917 69.8127 87.5729 71.3722C87.4255 72.0044 84.7641 72.6717 84.2164 72.3205C84.0946 72.2517 83.9961 72.1481 83.9335 72.0229C83.871 71.8978 83.8472 71.7568 83.8653 71.618C83.9074 70.747 87.271 66.9747 88.4788 66.5884Z" fill="#F7F7F7"/>
<path d="M112.748 80.0181C112.594 80.9453 113.78 81.9779 112.566 82.7296C111.351 83.4812 109.967 83.1792 108.668 83.144C107.966 83.144 108.359 82.2589 108.31 81.7391C108.261 81.2193 108.261 80.7697 109.104 80.7065C110.332 80.5566 111.55 80.3266 112.748 80.0181Z" fill="#F7F7F7"/>
<path d="M96.5275 84.0304C96.0693 83.5641 95.4872 83.2388 94.85 83.0931C94.2128 82.9474 93.5473 82.9875 92.9321 83.2085C92.4897 83.328 91.9069 83.5809 91.7664 82.9205C91.6432 82.3139 91.6576 81.6874 91.8086 81.0871C91.935 80.6094 92.4125 80.7218 92.8408 80.8553C93.2421 80.9565 93.6567 80.9944 94.0697 80.9677C96.9067 80.9045 96.9067 80.8974 96.5275 84.0304Z" fill="#F7F7F7"/>
<path d="M108.232 49.9463C108.232 51.6392 106.785 52.2363 105.809 53.1987C105.423 53.0582 104.924 52.7983 105.332 52.3979C106.237 51.5198 106.813 50.2273 108.232 49.9463Z" fill="#F7F7F7"/>
<path d="M94.3844 84.5991C95.1261 86.428 95.3473 88.4265 95.0234 90.3734C94.7426 88.6594 93.8929 87.0297 94.3844 84.5991Z" fill="#AECDE9"/>
<path d="M102.587 94.1743C101.8 92.6288 102.418 90.971 101.885 89.3975C103.226 90.8656 102.805 92.5375 102.587 94.1743Z" fill="#AECDE9"/>
<path d="M110.422 89.9176C109.552 88.4284 110.282 86.7987 109.959 85.2603C111.16 86.7565 110.64 88.3371 110.422 89.9176Z" fill="#AECDE9"/>
<path d="M101.42 71.0556C97.6635 71.2453 95.8026 69.8755 95.592 66.7003C95.3041 62.921 98.5694 58.1232 101.547 57.9335C104.152 57.7649 107.747 60.5678 107.867 62.8508C108.141 67.5011 106.638 70.9713 101.42 71.0556ZM100.788 60.631C102.01 61.0784 103.102 61.8222 103.966 62.7956C104.83 63.7691 105.439 64.9418 105.739 66.2086C106.441 64.5999 107.052 63.2934 105.844 61.9938C104.636 60.6942 103.021 60.1603 100.788 60.631Z" fill="#151719"/>
<path d="M100.789 60.6314C103.022 60.1608 104.574 60.7017 105.845 62.0364C107.116 63.3711 106.414 64.6074 105.74 66.2512C105.446 64.9767 104.84 63.7954 103.976 62.8141C103.111 61.8329 102.016 61.0827 100.789 60.6314Z" fill="#F7F7F7"/>
</svg>
