<svg width="93" height="31" viewBox="0 0 93 31" fill="none" xmlns="http://www.w3.org/2000/svg">
<g clip-path="url(#clip0)">
<path d="M26.1166 7.24163L27.3851 8.18403L28.6536 7.24163H26.1166ZM29.0765 7.41523L27.3851 8.68003L25.6937 7.41523C25.6937 7.44003 25.6937 7.44003 25.6937 7.46483V9.47363C25.6937 9.59763 25.7932 9.69683 25.9176 9.69683H28.8526C28.977 9.69683 29.0765 9.59763 29.0765 9.47363V7.46483C29.0765 7.44003 29.0765 7.44003 29.0765 7.41523ZM29.0765 7.41523L27.3851 8.68003L25.6937 7.41523C25.6937 7.44003 25.6937 7.44003 25.6937 7.46483V9.47363C25.6937 9.59763 25.7932 9.69683 25.9176 9.69683H28.8526C28.977 9.69683 29.0765 9.59763 29.0765 9.47363V7.46483C29.0765 7.44003 29.0765 7.44003 29.0765 7.41523ZM28.6785 7.24163H26.1166L27.3851 8.18403L28.6785 7.24163ZM27.9323 4.56323H13.6801C11.5659 4.56323 9.8248 6.27443 9.8248 8.40723V22.5928C9.8248 24.7008 11.541 26.4368 13.6801 26.4368H15.8192C16.2669 26.4368 16.7146 26.3376 17.1374 26.1888C17.1374 26.1888 17.2121 26.164 17.3116 26.1144C17.5354 25.9904 17.7593 25.8664 17.9583 25.6928C18.7791 25.048 19.9481 23.6344 20.0973 20.8816C20.1968 19.6416 19.1522 18.5256 17.7841 18.5256H16.3415C16.3415 18.5256 16.3415 18.5256 16.3166 18.5256C16.3166 18.5256 16.3166 18.5256 16.2918 18.5256C14.7745 18.5256 13.5309 17.4592 13.3319 16.0952C13.3319 16.0704 13.3319 16.0704 13.3319 16.0456C13.3319 15.996 13.3319 15.9464 13.3319 15.872C13.3319 15.8224 13.3319 15.7976 13.3319 15.748C13.3319 15.6984 13.3319 15.6488 13.3319 15.5992C13.3319 15.5496 13.3319 15.5 13.3319 15.4504C13.3319 15.4008 13.3568 15.3512 13.3568 15.3016C13.3568 15.252 13.3568 15.2024 13.3816 15.1776C13.3816 15.128 13.4065 15.0784 13.4314 15.0288C13.4314 14.9792 13.4562 14.9544 13.4562 14.9048C13.4811 14.8552 13.4811 14.8056 13.506 14.7808C13.5309 14.7312 13.5309 14.7064 13.5557 14.6568C13.5806 14.6072 13.6055 14.5824 13.6304 14.5328C13.6552 14.4832 13.6801 14.4584 13.6801 14.4088C13.705 14.3592 13.7299 14.3344 13.7547 14.2848C13.7796 14.26 13.8045 14.2104 13.8293 14.1856C13.8542 14.136 13.8791 14.1112 13.9288 14.0864C13.9537 14.0616 13.9786 14.012 14.0035 13.9872C14.0283 13.9624 14.0781 13.9128 14.1029 13.888C14.1278 13.8632 14.1527 13.8136 14.2024 13.7888C14.2273 13.764 14.2771 13.7144 14.3268 13.6896C14.3517 13.6648 14.4014 13.64 14.4263 13.6152C14.476 13.5904 14.5009 13.5656 14.5507 13.5408C14.5755 13.516 14.6253 13.4912 14.6502 13.4664C14.6999 13.4416 14.7496 13.4168 14.7745 13.392C14.8243 13.3672 14.8491 13.3424 14.8989 13.3176C14.9486 13.2928 14.9984 13.268 15.0481 13.2432C15.0979 13.2184 15.1227 13.2184 15.1725 13.1936C15.2222 13.1688 15.272 13.144 15.3466 13.144C15.3715 13.144 15.4212 13.1192 15.4461 13.1192C15.4958 13.0944 15.5705 13.0944 15.6202 13.0696C15.6699 13.0696 15.6948 13.0448 15.7446 13.0448C15.8192 13.0448 15.8689 13.02 15.9435 13.02C15.9684 13.02 15.9933 13.02 16.043 13.02C16.0928 13.02 16.1425 13.02 16.2171 13.02C16.2669 13.02 16.3166 13.02 16.3664 13.02C16.4659 13.02 16.5405 13.02 16.64 13.02C16.6649 13.02 16.6897 13.02 16.7146 13.02C16.7892 13.02 16.8887 13.0448 16.9633 13.0448H16.9882C17.8836 13.2184 18.6298 13.764 19.0527 14.5328C18.5303 13.3176 17.3613 12.6232 17.3364 12.5984C17.4359 12.3504 17.5354 12.1272 17.6847 11.904C17.6847 11.8792 17.7095 11.8792 17.7095 11.8544C17.7593 11.8048 17.7841 11.7304 17.8339 11.6808C17.8588 11.656 17.8588 11.6312 17.8836 11.6312C17.9334 11.5816 17.9831 11.5072 18.0329 11.4576L18.0577 11.4328C18.1572 11.3336 18.2567 11.2344 18.3811 11.1352C18.406 11.1104 18.4308 11.0856 18.4557 11.0608C18.5055 11.036 18.5552 10.9864 18.605 10.9616C18.6547 10.9368 18.6796 10.912 18.7293 10.8872C18.7791 10.8624 18.8288 10.8376 18.8786 10.788C18.9283 10.7632 18.978 10.7384 19.0278 10.7136C19.0775 10.6888 19.1024 10.664 19.1522 10.6392C19.2268 10.6144 19.3014 10.5648 19.376 10.54C19.4009 10.5152 19.4506 10.5152 19.4755 10.4904C19.5501 10.4656 19.6496 10.416 19.7242 10.3912C19.774 10.3912 19.7989 10.3664 19.8486 10.3664C19.9232 10.3416 19.9978 10.3416 20.0725 10.3168C20.1222 10.3168 20.1471 10.292 20.1968 10.292C20.2714 10.2672 20.3461 10.2672 20.4207 10.2672C20.4456 10.2672 20.4953 10.2672 20.5202 10.2424C20.6445 10.2424 20.744 10.2176 20.8684 10.2176C20.9928 10.2176 21.1171 10.2176 21.2166 10.2424C21.2664 10.2424 21.2912 10.2424 21.341 10.2672C21.4156 10.2672 21.4902 10.292 21.5648 10.292C21.6146 10.292 21.6643 10.3168 21.6892 10.3168C21.7638 10.3416 21.8384 10.3416 21.8882 10.3664C21.9379 10.3664 21.9877 10.3912 22.0374 10.416C22.112 10.4408 22.1618 10.4656 22.2364 10.4904C22.2862 10.5152 22.3359 10.5152 22.3608 10.54C22.4105 10.5648 22.4851 10.5896 22.5349 10.6144C22.5846 10.6392 22.6095 10.664 22.6592 10.6888C22.709 10.7136 22.7836 10.7632 22.8334 10.788C22.8831 10.8128 22.908 10.8376 22.9577 10.8624C23.0075 10.912 23.0821 10.9368 23.1318 10.9864C23.1567 11.0112 23.2064 11.036 23.2313 11.0608C23.3059 11.1104 23.3557 11.16 23.4054 11.2096C23.4303 11.2344 23.4552 11.2592 23.4801 11.2592C23.5547 11.3336 23.6293 11.408 23.7039 11.4824C23.7288 11.5072 23.7537 11.532 23.7537 11.5568C23.8034 11.6064 23.8531 11.6808 23.9029 11.7304C23.9278 11.7552 23.9526 11.8048 23.9775 11.8296C24.0024 11.8792 24.0521 11.9288 24.077 12.0032C24.1019 12.0528 24.1267 12.0776 24.1516 12.1272C24.1765 12.1768 24.2014 12.2264 24.2262 12.3008C24.2511 12.3504 24.276 12.4 24.276 12.4248C24.3009 12.4744 24.3257 12.5488 24.3506 12.5984C24.3755 12.648 24.3755 12.6976 24.4004 12.7472C24.4252 12.7968 24.4252 12.8464 24.4501 12.9208C24.4501 12.9208 24.4501 12.9208 24.4501 12.9456C24.4501 12.9952 24.475 13.0448 24.475 13.0944C24.5247 13.2928 24.5496 13.516 24.5496 13.7392C24.5496 14.136 24.475 14.5328 24.3257 14.88C24.8729 14.0368 24.9227 13.1936 24.9476 13.0448C25.0719 13.02 25.1963 13.02 25.3455 13.02C26.9871 13.0448 28.2805 14.3096 28.2805 15.8472C28.2557 17.36 26.9374 18.6 25.2958 18.6H23.8283C22.4603 18.6 21.4156 19.6912 21.5151 20.956C21.6643 23.7088 22.8334 25.0976 23.6542 25.7672C23.8531 25.9408 24.077 26.0648 24.3009 26.1888C24.4252 26.2384 24.475 26.2632 24.475 26.2632C24.8978 26.4368 25.3207 26.5112 25.7932 26.5112H27.9323C30.0465 26.5112 31.7876 24.8 31.7876 22.6672V8.40723C31.7627 6.27443 30.0465 4.56323 27.9323 4.56323ZM29.5739 9.47363C29.5739 9.87043 29.2506 10.2176 28.8277 10.2176H25.9176C25.5196 10.2176 25.1714 9.89523 25.1714 9.47363V7.46483C25.1714 7.06803 25.4948 6.72083 25.9176 6.72083H28.8526C29.2506 6.72083 29.5988 7.04323 29.5988 7.46483V9.47363H29.5739ZM27.3851 8.68003L25.6937 7.41523C25.6937 7.44003 25.6937 7.44003 25.6937 7.46483V9.47363C25.6937 9.59763 25.7932 9.69683 25.9176 9.69683H28.8526C28.977 9.69683 29.0765 9.59763 29.0765 9.47363V7.46483C29.0765 7.44003 29.0765 7.44003 29.0765 7.41523L27.3851 8.68003ZM28.6785 7.24163H26.1166L27.3851 8.18403L28.6785 7.24163ZM26.1166 7.24163L27.3851 8.18403L28.6536 7.24163H26.1166ZM29.0765 7.41523L27.3851 8.68003L25.6937 7.41523C25.6937 7.44003 25.6937 7.44003 25.6937 7.46483V9.47363C25.6937 9.59763 25.7932 9.69683 25.9176 9.69683H28.8526C28.977 9.69683 29.0765 9.59763 29.0765 9.47363V7.46483C29.0765 7.44003 29.0765 7.44003 29.0765 7.41523ZM29.0765 7.41523L27.3851 8.68003L25.6937 7.41523C25.6937 7.44003 25.6937 7.44003 25.6937 7.46483V9.47363C25.6937 9.59763 25.7932 9.69683 25.9176 9.69683H28.8526C28.977 9.69683 29.0765 9.59763 29.0765 9.47363V7.46483C29.0765 7.44003 29.0765 7.44003 29.0765 7.41523ZM26.1166 7.24163L27.3851 8.18403L28.6536 7.24163H26.1166Z" fill="black"/>
<path d="M39.1998 8.48157H42.7069L47.4079 17.0872L52.1089 8.48157H55.616V23.0888H52.5317V13.7144L48.5769 20.7328H46.214L42.2841 13.7392V23.0888H39.1998V8.48157V8.48157Z" fill="black"/>
<path d="M66.4606 23.0888L63.9484 17.98H61.2124V23.0888H58.1779V8.48157H64.5454C67.157 8.48157 69.52 10.2176 69.52 13.2432C69.52 15.3264 68.4007 16.7896 66.8337 17.5088L69.8433 23.1136H66.4606V23.0888ZM61.2124 15.3512H64.222C65.5403 15.3512 66.4108 14.508 66.4108 13.2928C66.4108 12.0528 65.5403 11.1848 64.222 11.1848H61.2124V15.3512Z" fill="black"/>
<path d="M79.8174 23.0888L77.3052 17.98H74.5692V23.0888H71.5347V8.48157H77.9021C80.5138 8.48157 82.8767 10.2176 82.8767 13.2432C82.8767 15.3264 81.7574 16.7896 80.1905 17.5088L83.2001 23.1136H79.8174V23.0888ZM74.5692 15.3512H77.5788C78.8971 15.3512 79.7676 14.508 79.7676 13.2928C79.7676 12.0528 78.8971 11.1848 77.5788 11.1848H74.5692V15.3512Z" fill="black"/>
</g>
<defs>
<clipPath id="clip0">
<rect width="93" height="31" fill="white"/>
</clipPath>
</defs>
</svg>
