<svg width="72" height="72" viewBox="0 0 72 72" fill="none" xmlns="http://www.w3.org/2000/svg">
<rect width="72" height="72" rx="14" fill="#EBF7FE"/>
<path d="M58 35.5C58 23.6259 48.3741 14 36.5 14C24.6259 14 15 23.6259 15 35.5C15 47.3741 24.6259 57 36.5 57" stroke="black" stroke-width="2"/>
<path d="M47 51.5V45H53.5" stroke="black" stroke-width="2" stroke-linecap="round" stroke-linejoin="round"/>
<path d="M57.5 55.5L47.5 45.5" stroke="black" stroke-width="2" stroke-linecap="round" stroke-linejoin="round"/>
<path d="M19 48.5C27.6667 47 45.5 38.7 47.5 17.5" stroke="black" stroke-width="2" stroke-linecap="round" stroke-linejoin="round"/>
<path d="M24.5 17.9981C30.3333 17.6648 41.6 19.9981 42 33.9981C45 32.4963 50.5 29.4963 57.5 32.4963" stroke="black" stroke-width="2" stroke-linecap="round" stroke-linejoin="round"/>
<path d="M23.4999 18C22.3332 24.5 22.2999 38.7 31.4999 43.5C33.1666 44.6667 36.1 48.9 34.5 56.5" stroke="black" stroke-width="2" stroke-linecap="round" stroke-linejoin="round"/>
</svg>
