<svg width="40" height="32" viewBox="0 0 40 32" fill="none" xmlns="http://www.w3.org/2000/svg">
<path d="M39.74 0.509476C39.77 0.518642 39.79 0.546141 39.78 0.564474C39.765 0.582808 39.805 0.596558 39.865 0.596558C39.975 0.591974 39.975 0.601139 39.98 1.32528C39.985 1.82027 39.97 2.06776 39.93 2.09068C39.89 2.11818 39.895 2.12735 39.935 2.12735C39.985 2.12735 40 3.52522 40 8.72257C40 14.612 39.99 15.3224 39.92 15.3728C39.87 15.414 39.86 15.4415 39.9 15.4645C39.96 15.5011 39.74 15.7395 39.65 15.7395C39.62 15.7395 39.6 15.7578 39.6 15.7853C39.6 15.8082 39.56 15.8678 39.51 15.9136C39.465 15.9594 39.395 16.0511 39.355 16.1153C39.315 16.184 39.27 16.2344 39.25 16.2299C39.215 16.2207 38.885 16.4544 38.785 16.5553C38.75 16.5919 38.65 16.6882 38.56 16.7707C38.47 16.8578 38.365 16.9998 38.325 17.0869C38.25 17.2473 38.15 17.3069 38.15 17.1923C38.145 17.1557 38.13 17.1602 38.085 17.2061C38.05 17.2427 37.98 17.3069 37.93 17.3436C37.84 17.4032 37.835 17.4032 37.875 17.3436C37.905 17.2886 37.9 17.2886 37.85 17.3298C37.815 17.3573 37.76 17.3711 37.725 17.3619C37.695 17.3482 37.635 17.3711 37.6 17.4123C37.565 17.449 37.485 17.4811 37.42 17.4811C37.355 17.4811 37.305 17.4948 37.31 17.5132C37.32 17.5361 37.285 17.6002 37.235 17.6644C37.19 17.724 37.15 17.7606 37.15 17.7377C37.15 17.7148 37.11 17.7286 37.06 17.7698C37.01 17.8156 36.95 17.834 36.935 17.8156C36.915 17.8019 36.9 17.8111 36.9 17.8386C36.9 17.8706 36.865 17.8936 36.825 17.8936C36.785 17.8936 36.75 17.9211 36.75 17.9486C36.75 17.9852 36.71 17.9669 36.665 17.9165C36.605 17.8477 36.595 17.8431 36.615 17.9027C36.63 17.944 36.605 18.0173 36.56 18.0677C36.46 18.1686 36.165 18.3198 36.11 18.2923C36.09 18.2785 36.03 18.2877 35.975 18.306C35.92 18.3244 35.825 18.3244 35.76 18.3015C35.68 18.274 35.65 18.2785 35.65 18.329C35.65 18.3656 35.615 18.3977 35.575 18.3977C35.465 18.3977 35.425 18.3794 35.435 18.3381C35.445 18.3198 35.415 18.306 35.37 18.306C35.325 18.306 35.225 18.2648 35.14 18.2098C35.06 18.1548 34.99 18.1181 34.985 18.1273C34.89 18.2923 34.845 18.3381 34.745 18.384C34.68 18.416 34.58 18.5031 34.525 18.581C34.47 18.6544 34.385 18.7185 34.335 18.7185C34.26 18.7185 34.23 18.769 34.245 18.8652C34.245 18.8835 34.2 18.911 34.145 18.9248C34.06 18.9523 34.055 18.966 34.11 19.0256C34.16 19.0806 34.155 19.1035 34.095 19.1494C34.05 19.1769 34.025 19.2227 34.035 19.2548C34.045 19.2823 34.035 19.3189 34.015 19.3281C33.96 19.3602 33.96 19.1723 34.015 19.0944C34.05 19.0485 34.03 19.0485 33.93 19.0944C33.785 19.1539 33.76 19.2227 33.88 19.2227C33.935 19.2227 33.95 19.2502 33.92 19.3235C33.9 19.3831 33.87 19.4381 33.855 19.4518C33.785 19.4977 33.645 19.9102 33.68 19.9606C33.705 20.0018 33.68 20.0064 33.605 19.9881C33.495 19.9652 33.495 19.9652 33.58 20.0522C33.625 20.0981 33.64 20.1393 33.61 20.1393C33.585 20.1393 33.57 20.1806 33.585 20.231C33.6 20.286 33.585 20.3227 33.555 20.3227C33.52 20.3227 33.51 20.341 33.525 20.3685C33.565 20.4281 33.34 20.781 33.26 20.781C33.195 20.781 33.18 20.8589 33.195 21.0697C33.2 21.1476 33.175 21.2026 33.13 21.221C33.085 21.2347 33.05 21.2897 33.05 21.3355C33.05 21.3814 33.025 21.4226 32.995 21.4226C32.965 21.4226 32.955 21.4639 32.975 21.5143C32.995 21.5739 32.98 21.6151 32.93 21.6335C32.89 21.6472 32.865 21.6839 32.88 21.716C32.91 21.7893 32.58 22.1101 32.475 22.1101C32.435 22.1101 32.36 22.1514 32.315 22.1972C32.27 22.2476 32.215 22.2797 32.19 22.2659C32.17 22.2522 32.15 22.2751 32.15 22.3163C32.15 22.3576 32.195 22.4034 32.25 22.4172C32.33 22.4355 32.34 22.4538 32.295 22.5043C32.25 22.5547 32.25 22.5684 32.295 22.5684C32.33 22.5684 32.34 22.5913 32.325 22.6143C32.31 22.6372 32.315 22.6601 32.34 22.6601C32.37 22.6601 32.415 22.7197 32.44 22.7976C32.47 22.8709 32.555 22.9855 32.63 23.0497C32.705 23.1138 32.735 23.1642 32.7 23.1642C32.655 23.1642 32.665 23.1917 32.73 23.2376C32.78 23.2742 32.79 23.2926 32.75 23.2742C32.685 23.2422 32.685 23.2467 32.75 23.3292C32.79 23.3751 32.86 23.4484 32.905 23.4851C32.95 23.5217 32.985 23.5859 32.99 23.6226C32.99 23.6592 33.005 23.7738 33.025 23.8746C33.085 24.2275 33.09 24.2871 33.04 24.3421C33.01 24.3742 33.015 24.4063 33.05 24.4246C33.08 24.4384 33.09 24.475 33.07 24.498C33.015 24.585 33.015 24.8371 33.07 24.9013C33.11 24.9517 33.11 24.9609 33.065 24.9334C33.025 24.915 33 24.9288 33 24.97C33 25.0617 32.84 25.3642 32.795 25.3642C32.775 25.3642 32.735 25.4329 32.7 25.52C32.65 25.6621 32.495 25.7721 32.3 25.8042C32.26 25.8133 32.22 25.8362 32.21 25.8637C32.2 25.8867 32.16 25.8958 32.12 25.8821C32.08 25.8683 32.05 25.8867 32.05 25.9325C32.05 25.9967 31.92 26.0333 31.775 26.0058C31.745 26.0012 31.565 25.9921 31.375 25.9829C31.18 25.9737 30.955 25.9462 30.865 25.9187C30.67 25.8683 30.65 25.8867 30.7 26.0517C30.725 26.125 30.735 26.235 30.73 26.2992C30.72 26.3633 30.73 26.4046 30.75 26.3954C30.77 26.3816 30.805 26.4504 30.825 26.5466C30.845 26.6383 30.88 26.73 30.905 26.7437C30.93 26.7575 30.96 26.8125 30.975 26.8675C30.995 26.9591 30.955 26.9866 30.825 26.9729C30.795 26.9683 30.82 27.0004 30.87 27.037C30.945 27.0875 30.955 27.1195 30.91 27.1608C30.875 27.1929 30.87 27.2387 30.9 27.2937C30.935 27.3487 30.925 27.3808 30.87 27.3991C30.815 27.4175 30.795 27.4633 30.81 27.5412C30.825 27.6054 30.81 27.6741 30.78 27.7016C30.745 27.7245 30.725 27.807 30.73 27.8849C30.735 27.9583 30.72 28.0133 30.7 27.9995C30.675 27.9858 30.645 27.9949 30.625 28.0224C30.61 28.0454 30.625 28.0683 30.66 28.0683C30.7 28.0683 30.69 28.0912 30.635 28.1187C30.585 28.1462 30.51 28.1553 30.465 28.1416C30.405 28.1187 30.4 28.1278 30.44 28.1737C30.475 28.2103 30.475 28.2562 30.45 28.2974C30.42 28.3341 30.4 28.3478 30.4 28.3249C30.4 28.2974 30.355 28.3249 30.295 28.3799C30.24 28.4349 30.175 28.4716 30.145 28.4578C30.12 28.4395 30.1 28.4624 30.1 28.5083C30.1 28.5587 30.07 28.577 30 28.5587C29.95 28.5449 29.895 28.5587 29.885 28.5862C29.865 28.6412 29.65 28.6733 29.25 28.6824C29.1 28.6824 28.965 28.7007 28.945 28.7191C28.93 28.742 28.83 28.7145 28.725 28.6641C28.5 28.5587 28.375 28.5449 28.43 28.6274C28.475 28.6916 28.495 29.3516 28.45 29.3516C28.425 29.3516 28.4 29.4845 28.385 29.6678C28.38 29.7457 28.18 29.9474 28.105 29.9474C28.075 29.9474 28.05 29.9795 28.05 30.0161C28.05 30.0757 27.98 30.1078 27.935 30.0757C27.93 30.0711 27.86 30.117 27.785 30.1765C27.705 30.2407 27.635 30.2865 27.62 30.282C27.61 30.2774 27.535 30.2911 27.455 30.314C27.335 30.3461 27.3 30.337 27.285 30.2774C27.265 30.2178 27.26 30.2178 27.255 30.2911C27.25 30.3553 27.21 30.3828 27.125 30.3874C27.055 30.392 27.015 30.3782 27.03 30.3553C27.045 30.3324 27.02 30.3278 26.98 30.3415C26.93 30.3599 26.9 30.3461 26.9 30.3095C26.9 30.259 26.89 30.259 26.86 30.3003C26.815 30.3645 26.6 30.3278 26.6 30.259C26.6 30.2315 26.565 30.227 26.52 30.2407C26.48 30.2545 26.46 30.2499 26.475 30.2224C26.49 30.1949 26.48 30.1765 26.455 30.1765C26.425 30.1765 26.4 30.1949 26.4 30.2224C26.4 30.2453 26.35 30.2636 26.285 30.2545C26.21 30.2499 26.18 30.2682 26.19 30.314C26.25 30.5432 26.265 30.6211 26.255 30.7036C26.25 30.754 26.245 30.864 26.235 30.9419C26.23 31.084 26.195 31.1161 26.075 31.0932C26.045 31.0886 26.05 31.1115 26.085 31.1436C26.13 31.1848 26.115 31.2353 26.01 31.3728C25.935 31.469 25.845 31.5423 25.815 31.5286C25.78 31.5194 25.75 31.5423 25.75 31.579C25.75 31.6248 25.72 31.6432 25.675 31.6248C25.63 31.6111 25.6 31.6248 25.6 31.6615C25.6 31.6982 25.565 31.7394 25.52 31.7532C25.48 31.7669 25.46 31.799 25.475 31.8265C25.49 31.854 25.455 31.8723 25.39 31.8769C25.14 31.8815 24.825 31.9273 24.785 31.9594C24.76 31.9823 24.665 31.9823 24.565 31.964C24.47 31.9411 24.355 31.9365 24.32 31.9502C24.28 31.964 24.25 31.9502 24.25 31.9227C24.25 31.8952 24.2 31.8723 24.135 31.8723C24.07 31.8723 23.93 31.8311 23.82 31.7852C23.715 31.7348 23.61 31.7073 23.595 31.7165C23.575 31.7257 23.55 31.7027 23.53 31.6661C23.515 31.6294 23.475 31.5973 23.44 31.5973C23.405 31.5973 23.31 31.5423 23.225 31.469C23.06 31.3315 22.94 31.2582 22.735 31.1803C22.66 31.1528 22.6 31.1115 22.6 31.0886C22.6 31.0703 22.57 31.0611 22.53 31.0748C22.49 31.0886 22.42 31.0382 22.36 30.9465C22.3 30.864 22.195 30.7357 22.125 30.6624C22.055 30.589 22 30.5019 22 30.4653C22 30.392 21.87 30.3828 21.825 30.4561C21.805 30.4836 21.755 30.4928 21.715 30.479C21.675 30.4653 21.66 30.4744 21.675 30.4974C21.69 30.5249 21.67 30.5432 21.625 30.5432C21.58 30.5432 21.56 30.5661 21.575 30.589C21.59 30.6119 21.57 30.6349 21.525 30.6349C21.45 30.6349 21.175 30.7907 21.075 30.8915C21.05 30.919 20.945 30.9832 20.855 31.029C20.76 31.0794 20.64 31.1436 20.595 31.1803C20.545 31.2169 20.41 31.2765 20.29 31.3132C20.17 31.3453 20 31.4415 19.905 31.5194C19.81 31.6019 19.75 31.6432 19.77 31.6111C19.785 31.5836 19.71 31.6019 19.6 31.6477C19.49 31.6982 19.375 31.7257 19.35 31.7119C19.32 31.6982 19.3 31.7027 19.3 31.7257C19.3 31.7898 19.075 31.8173 18.97 31.7669C18.91 31.7348 18.87 31.7394 18.83 31.7852C18.8 31.8219 18.72 31.8586 18.65 31.8632C18.58 31.8723 18.495 31.9044 18.465 31.9273C18.43 31.9548 18.365 31.9594 18.32 31.9457C18.275 31.9273 18.205 31.9411 18.165 31.9686C18.12 32.0052 18.08 32.0098 18.045 31.9777C18.015 31.9502 17.915 31.9457 17.8 31.964C17.685 31.9823 17.585 31.9777 17.555 31.9502C17.52 31.9182 17.475 31.9227 17.42 31.9686C17.37 32.0052 17.345 32.0098 17.365 31.9823C17.385 31.9457 17.33 31.9273 17.185 31.9273C16.82 31.9182 16.75 31.9044 16.805 31.8448C16.835 31.8082 16.815 31.7944 16.73 31.8036C16.665 31.8127 16.545 31.7852 16.47 31.7486C16.335 31.6844 15.86 31.5698 15.795 31.5882C15.775 31.5927 15.77 31.5561 15.785 31.5103C15.8 31.4644 15.78 31.4094 15.745 31.3911C15.705 31.3682 15.695 31.3728 15.72 31.4094C15.795 31.5194 15.595 31.5103 15.45 31.4003C15.37 31.3361 15.255 31.2719 15.205 31.2536C15.15 31.2398 15.09 31.1848 15.075 31.139C15.06 31.0932 15.015 31.0611 14.98 31.0748C14.945 31.0886 14.875 31.0428 14.83 30.9786C14.78 30.9099 14.715 30.864 14.685 30.8732C14.6 30.9007 14.435 30.7403 14.515 30.7082C14.55 30.699 14.53 30.6853 14.475 30.6853C14.365 30.6807 14.215 30.4011 14.275 30.314C14.29 30.2911 14.285 30.2682 14.255 30.2682C14.225 30.2682 14.21 30.1674 14.215 30.0161C14.225 29.8786 14.215 29.7916 14.19 29.8236C14.165 29.8603 14.15 29.8465 14.15 29.7778C14.15 29.6449 14.01 29.5257 13.9 29.5578C13.85 29.5716 13.595 29.5532 13.34 29.5166C13.08 29.4753 12.81 29.457 12.735 29.4661C12.66 29.4799 12.6 29.4707 12.6 29.4432C12.6 29.3745 12.45 29.3882 12.45 29.4524C12.45 29.4891 12.425 29.4799 12.4 29.4341C12.37 29.3882 12.29 29.3607 12.21 29.3607C11.995 29.3653 11.3 28.9803 11.3 28.8566C11.3 28.8291 11.27 28.7787 11.23 28.742C11.19 28.7053 11.15 28.6366 11.14 28.5908C11.13 28.5449 11.085 28.4762 11.04 28.4441C10.94 28.3799 10.835 28.0774 10.825 27.8437C10.82 27.752 10.78 27.6741 10.735 27.6466C10.685 27.6237 10.65 27.5779 10.65 27.5412C10.65 27.4954 10.595 27.4816 10.45 27.4954C10.265 27.5091 10.25 27.5045 10.275 27.422C10.295 27.3716 10.285 27.335 10.255 27.335C10.225 27.335 10.2 27.367 10.2 27.4083C10.2 27.4633 10.175 27.4725 10.11 27.4495C10.065 27.4312 9.99 27.4083 9.95 27.4037C9.91 27.3991 9.82 27.3716 9.75 27.3441C9.655 27.312 9.605 27.3166 9.55 27.3625C9.485 27.4129 9.43 27.3945 9.175 27.2204C8.88 27.0141 8.835 26.9958 8.71 27.0095C8.64 27.0187 8.305 26.7712 8.23 26.6566C8.2 26.6108 8.205 26.5971 8.245 26.62C8.275 26.6383 8.3 26.6291 8.3 26.5971C8.3 26.565 8.25 26.5558 8.175 26.565C8.075 26.5833 8.06 26.5787 8.105 26.5283C8.15 26.4779 8.145 26.4641 8.085 26.4641C7.96 26.4641 7.74 26.2625 7.73 26.1387C7.725 26.0517 7.7 26.0333 7.61 26.0379C7.545 26.0471 7.505 26.0333 7.52 26.0104C7.535 25.9875 7.505 25.9187 7.45 25.8546C7.395 25.7904 7.35 25.7217 7.35 25.6988C7.35 25.6758 7.325 25.6346 7.29 25.6025C7.23 25.5475 7.205 25.4696 7.175 25.2725C7.17 25.2083 7.155 25.1579 7.15 25.1579C7.145 25.1579 7.13 25.1167 7.12 25.0663C7.09 24.9013 7.075 24.8371 7.035 24.7821C7.015 24.7546 7.025 24.7225 7.055 24.7134C7.145 24.6859 7.17 24.475 7.135 24.1267C7.115 23.9526 7.09 23.9159 6.97 23.8746C6.765 23.8105 6.68 23.7555 6.585 23.6226C6.54 23.563 6.5 23.5309 6.5 23.5538C6.5 23.5767 6.45 23.5446 6.39 23.4805C6.33 23.4209 6.24 23.3247 6.19 23.2742C6.135 23.2192 6.085 23.1413 6.08 23.0955C6.075 23.0542 6.035 22.9992 5.995 22.9717C5.94 22.9397 5.94 22.9213 5.99 22.903C6.065 22.8755 6.07 22.7518 5.995 22.7518C5.97 22.7518 5.96 22.7701 5.975 22.7976C5.99 22.8251 5.985 22.8434 5.96 22.8434C5.935 22.8434 5.915 22.7426 5.915 22.6188C5.92 22.4676 5.89 22.3713 5.835 22.3163C5.785 22.2751 5.76 22.2247 5.775 22.2064C5.785 22.1834 5.775 22.1009 5.75 22.0184C5.715 21.9084 5.72 21.8443 5.765 21.7939C5.815 21.7389 5.81 21.7297 5.745 21.7526C5.675 21.7755 5.665 21.7343 5.665 21.4776C5.665 21.2989 5.685 21.1568 5.72 21.1339C5.76 21.1064 5.76 21.0881 5.72 21.0743C5.66 21.0514 5.685 20.8726 5.745 20.8726C5.765 20.8726 5.775 20.7947 5.765 20.7031C5.75 20.5197 5.93 20.0018 6.01 20.0018C6.04 20.0018 6.05 19.9743 6.035 19.9377C6.02 19.9056 6.03 19.8552 6.055 19.8323C6.125 19.7681 6.025 19.5527 5.855 19.406C5.78 19.3373 5.72 19.2502 5.73 19.2089C5.735 19.1631 5.715 19.1448 5.66 19.1631C5.605 19.186 5.59 19.1723 5.615 19.1173C5.63 19.076 5.625 19.0302 5.605 19.021C5.58 19.0073 5.55 18.9294 5.53 18.8514C5.515 18.7735 5.455 18.6544 5.4 18.581C5.345 18.5123 5.3 18.4298 5.3 18.4023C5.3 18.3748 5.275 18.3519 5.25 18.3519C5.22 18.3519 5.2 18.3198 5.2 18.2831C5.2 18.2465 5.16 18.1777 5.11 18.1319C5.02 18.0494 5.01 18.0494 4.85 18.1777C4.755 18.2465 4.635 18.306 4.585 18.306C4.535 18.306 4.505 18.3244 4.525 18.3473C4.58 18.4344 4.45 18.4435 4.36 18.361C4.3 18.306 4.235 18.2877 4.17 18.306C4.12 18.3244 4.035 18.3198 3.985 18.2969C3.94 18.274 3.875 18.2694 3.85 18.2831C3.79 18.3152 3.5 18.1823 3.39 18.0677C3.345 18.0173 3.32 17.944 3.335 17.9027C3.355 17.8431 3.345 17.8477 3.285 17.9165C3.24 17.9669 3.2 17.9852 3.2 17.9486C3.2 17.9211 3.165 17.8936 3.125 17.8936C3.085 17.8936 3.05 17.8706 3.05 17.8386C3.05 17.8111 3.035 17.8019 3.015 17.8156C3 17.834 2.94 17.8156 2.89 17.7698C2.84 17.7286 2.8 17.7102 2.8 17.7331C2.8 17.7515 2.76 17.7194 2.705 17.6598C2.655 17.6002 2.62 17.5269 2.635 17.4994C2.645 17.4673 2.635 17.4307 2.605 17.4123C2.575 17.3986 2.55 17.4077 2.55 17.4307C2.55 17.4582 2.515 17.4811 2.47 17.4811C2.43 17.4811 2.41 17.4582 2.425 17.4352C2.44 17.4077 2.43 17.3894 2.4 17.3894C2.37 17.3894 2.295 17.339 2.23 17.2748C2.165 17.2107 2.08 17.1602 2.035 17.1602C1.99 17.1602 1.94 17.1373 1.925 17.1144C1.905 17.0869 1.87 17.0823 1.84 17.0961C1.805 17.1144 1.8 17.1052 1.82 17.0777C1.835 17.0503 1.805 17.0044 1.745 16.9723C1.56 16.8807 1.3 16.6469 1.335 16.5965C1.355 16.569 1.34 16.5644 1.3 16.5873C1.265 16.6057 1.225 16.6057 1.205 16.5828C1.135 16.4865 0.735001 16.2024 0.700001 16.2207C0.68 16.2299 0.635002 16.184 0.595001 16.1153C0.555 16.0511 0.485001 15.9594 0.435001 15.9136C0.389999 15.8678 0.350002 15.8082 0.350002 15.7853C0.350002 15.7578 0.330002 15.7395 0.299999 15.7395C0.275002 15.7395 0.195 15.6845 0.125 15.6203C0.0300026 15.5332 0.0100021 15.4874 0.0499992 15.4645C0.0950012 15.4415 0.0950012 15.4232 0.0550003 15.4003C0.0149994 15.3774 0 13.3883 0 8.19092V1.01821L0.110001 1.04571C0.174999 1.05946 0.25 1.07321 0.285 1.07321C0.315002 1.07321 0.355 1.10987 0.370003 1.15571C0.395 1.21987 0.440002 1.23362 0.580002 1.21987C0.73 1.20154 0.755001 1.21071 0.740002 1.28404C0.725002 1.37112 0.850002 1.40778 0.905003 1.33445C0.959999 1.26571 1.215 1.28404 1.275 1.36195C1.305 1.4032 1.375 1.42612 1.43 1.42153C1.48 1.41237 1.565 1.43528 1.61 1.47653C1.675 1.52695 1.7 1.53153 1.7 1.4857C1.7 1.43987 1.715 1.43987 1.775 1.4857C1.815 1.51778 1.85 1.52695 1.85 1.5132C1.85 1.49486 1.915 1.51778 2 1.56361C2.08 1.60486 2.15 1.65986 2.15 1.68278C2.15 1.70111 2.195 1.71486 2.25 1.70569C2.35 1.69194 2.9 2.04943 2.9 2.12735C2.9 2.15026 2.93 2.15943 2.97 2.14568C3.01 2.13193 3.055 2.14568 3.08 2.17776C3.105 2.21443 3.095 2.22359 3.05 2.19609C3.01 2.17318 2.995 2.17776 3.02 2.20984C3.04 2.23734 3.085 2.25109 3.125 2.23734C3.165 2.21901 3.21 2.24193 3.23 2.27859C3.245 2.32442 3.29 2.33817 3.34 2.32442C3.385 2.30609 3.41 2.31067 3.39 2.33359C3.35 2.37484 3.5 2.6315 3.56 2.6315C3.6 2.6315 3.755 2.73691 3.925 2.88816C3.985 2.93857 4.055 2.97524 4.08 2.96607C4.105 2.96149 4.17 3.02107 4.225 3.10357C4.295 3.19982 4.37 3.25023 4.44 3.24565C4.5 3.24565 4.55 3.2594 4.55 3.28231C4.55 3.30065 4.585 3.31898 4.63 3.31898C4.67 3.31898 4.695 3.33731 4.675 3.36023C4.66 3.38773 4.7 3.42898 4.76 3.46106C4.89 3.52064 5.1 3.7223 5.1 3.78646C5.1 3.80938 5.125 3.81396 5.15 3.80021C5.18 3.78646 5.2 3.78646 5.2 3.80938C5.2 3.86438 5.43 4.09812 5.485 4.09812C5.555 4.09812 5.705 4.25854 5.67 4.2952C5.655 4.30895 5.71 4.35478 5.795 4.39603C5.88 4.4327 5.95 4.4877 5.95 4.51061C5.95 4.53353 6.01 4.57019 6.08 4.58394C6.155 4.60228 6.195 4.63894 6.18 4.67102C6.165 4.70769 6.19 4.74435 6.23 4.7581C6.28 4.77644 6.29 4.76727 6.27 4.7306C6.245 4.69852 6.255 4.69394 6.295 4.71686C6.33 4.73519 6.35 4.79019 6.335 4.83602C6.32 4.88643 6.325 4.91393 6.345 4.90477C6.365 4.89102 6.495 4.98726 6.635 5.12018C6.86 5.33559 7.345 5.74349 7.64 5.97265C7.705 6.02307 7.8 6.05515 7.855 6.04598C7.91 6.03682 7.95 6.05515 7.95 6.09182C7.95 6.1239 7.985 6.16515 8.03 6.1789C8.075 6.19723 8.1 6.22015 8.085 6.23848C8.065 6.25223 8.12 6.32556 8.2 6.39889C8.355 6.5318 8.395 6.60513 8.285 6.54555C8.255 6.52722 8.275 6.56388 8.335 6.62347C8.425 6.71513 8.435 6.7518 8.385 6.79763C8.335 6.84346 8.345 6.84804 8.415 6.82055C8.485 6.79763 8.515 6.81596 8.535 6.89388C8.555 6.96721 8.575 6.97637 8.605 6.93054C8.64 6.88471 8.65 6.88013 8.65 6.93054C8.65 6.96262 8.67 6.98096 8.695 6.96262C8.755 6.93054 8.9 7.06345 8.9 7.14595C8.9 7.17803 8.955 7.23762 9.025 7.27887C9.095 7.32011 9.14 7.3797 9.12 7.40719C9.1 7.43928 9.105 7.44386 9.145 7.42553C9.175 7.40719 9.215 7.42553 9.235 7.47594C9.25 7.52177 9.3 7.59511 9.335 7.63635C9.375 7.6776 9.395 7.73718 9.375 7.7601C9.36 7.7876 9.37 7.81052 9.4 7.81052C9.43 7.81052 9.445 7.82885 9.425 7.85176C9.41 7.87468 9.42 7.90676 9.445 7.9251C9.515 7.96176 9.785 8.33759 9.825 8.44758C9.855 8.54383 10.055 8.62174 10.145 8.57133C10.17 8.553 10.205 8.56216 10.225 8.58966C10.24 8.61258 10.3 8.63549 10.36 8.63549C10.415 8.63549 10.52 8.66299 10.59 8.69966C10.665 8.73632 10.82 8.78674 10.935 8.81424C11.055 8.84632 11.15 8.89215 11.15 8.91507C11.15 8.94257 11.185 8.95173 11.23 8.93798C11.275 8.91965 11.345 8.9334 11.38 8.9609C11.415 8.9884 11.525 9.01131 11.625 9.01131C11.72 9.01131 11.8 9.03423 11.8 9.05715C11.8 9.08923 11.82 9.08923 11.86 9.06173C11.93 9.01131 12.015 9.01131 12.31 9.06631C12.415 9.08465 12.5 9.12131 12.5 9.15339C12.5 9.18548 12.515 9.19006 12.54 9.16256C12.585 9.10298 12.68 9.08006 12.965 9.0709C13.1 9.0709 13.215 9.08006 13.23 9.10298C13.245 9.12589 13.28 9.12589 13.31 9.11215C13.34 9.09381 13.53 9.07548 13.735 9.0709C13.94 9.06173 14.12 9.0434 14.135 9.02965C14.155 9.0159 14.21 9.03881 14.265 9.08006C14.34 9.13964 14.355 9.14423 14.325 9.09381C14.285 9.03423 14.295 9.03423 14.365 9.08465C14.41 9.12131 14.47 9.13506 14.5 9.11673C14.53 9.0984 14.59 9.11215 14.63 9.14423C14.67 9.17173 14.72 9.18548 14.735 9.16714C14.755 9.14881 14.74 9.11673 14.7 9.09381C14.635 9.05715 14.64 9.04798 14.71 9.04798C14.755 9.04798 14.805 9.02048 14.82 8.9884C14.845 8.94715 14.855 8.94715 14.88 8.99298C14.895 9.02048 14.93 9.03881 14.955 9.02048C14.98 9.00673 15 9.02506 15 9.05715C15 9.09381 15.025 9.08465 15.055 9.03423C15.11 8.95173 15.325 8.92882 15.375 9.00215C15.405 9.0434 15.59 8.97465 15.655 8.89674C15.705 8.83257 16.18 8.80507 16.29 8.86007C16.35 8.89215 16.52 8.92423 16.66 8.9334C16.805 8.94715 16.93 8.97465 16.94 8.99757C16.95 9.02048 17.045 9.00673 17.155 8.96548C17.315 8.91048 17.38 8.9059 17.455 8.94715C17.53 8.99298 17.55 8.9884 17.55 8.94715C17.55 8.9059 17.565 8.91048 17.6 8.95632C17.625 8.99757 17.74 9.02506 17.91 9.02965C18.055 9.03423 18.22 9.04798 18.275 9.06173C18.33 9.07548 18.43 9.0984 18.5 9.11673C18.585 9.13506 18.725 9.10298 18.915 9.02506C19.075 8.9609 19.245 8.91048 19.3 8.91048C19.355 8.91048 19.4 8.89215 19.4 8.86924C19.4 8.84632 19.455 8.81424 19.525 8.80049C19.595 8.78216 19.645 8.75466 19.63 8.73174C19.615 8.71341 19.635 8.69507 19.675 8.69507C19.715 8.69507 19.75 8.71341 19.75 8.73632C19.75 8.75924 19.77 8.76382 19.8 8.75007C19.825 8.73632 19.85 8.68132 19.85 8.63549C19.85 8.57591 19.875 8.55758 19.925 8.57133C19.97 8.58966 20 8.57133 20 8.5255C20 8.48425 20.025 8.45217 20.055 8.45217C20.08 8.45217 20.09 8.47966 20.07 8.50716C20.04 8.553 20.05 8.553 20.105 8.51633C20.145 8.48883 20.215 8.4705 20.26 8.47508C20.31 8.48425 20.35 8.4705 20.35 8.44758C20.35 8.42008 20.375 8.4155 20.4 8.42925C20.425 8.443 20.475 8.443 20.51 8.42467C20.545 8.40633 20.63 8.388 20.7 8.388C20.77 8.38342 20.845 8.36967 20.875 8.35592C20.9 8.33759 20.975 8.333 21.035 8.33759C21.1 8.34217 21.15 8.32842 21.15 8.31009C21.15 8.28717 21.21 8.27342 21.285 8.27342C21.365 8.26884 21.56 8.26425 21.72 8.25967C21.915 8.2505 22.025 8.26884 22.04 8.3055C22.055 8.34675 22.085 8.34675 22.155 8.31009C22.23 8.278 22.275 8.278 22.33 8.31467C22.385 8.3605 22.405 8.35592 22.425 8.30092C22.465 8.21384 22.795 8.27342 22.88 8.38342C22.915 8.42925 23.005 8.45217 23.105 8.45217C23.26 8.443 23.5 8.4705 23.79 8.5255C23.855 8.53466 23.895 8.56216 23.88 8.58508C23.865 8.60341 23.93 8.64466 24.025 8.67216C24.215 8.72257 24.245 8.69966 24.11 8.60799C24.04 8.55758 24.05 8.553 24.185 8.59883C24.275 8.63091 24.35 8.68132 24.35 8.71799C24.35 8.75007 24.37 8.76841 24.395 8.75466C24.42 8.73632 24.45 8.75007 24.46 8.77757C24.47 8.80965 24.615 8.83715 24.785 8.84632C24.96 8.8509 25.145 8.89215 25.215 8.9334C25.285 8.97007 25.39 9.0159 25.455 9.02506C25.76 9.08006 25.85 9.10298 25.85 9.13506C25.85 9.15798 25.905 9.16256 25.975 9.14881C26.045 9.13964 26.1 9.14881 26.1 9.17173C26.1 9.19464 26.205 9.20839 26.335 9.20381C26.47 9.19923 26.605 9.21756 26.64 9.24047C26.67 9.26797 26.7 9.26797 26.7 9.24964C26.7 9.22673 26.785 9.21298 26.885 9.22214C26.99 9.23131 27.135 9.24506 27.21 9.24506C27.29 9.24964 27.35 9.26339 27.35 9.27714C27.35 9.29089 27.495 9.30006 27.67 9.30006C27.875 9.30006 27.98 9.28631 27.96 9.25422C27.945 9.23131 27.975 9.24047 28.025 9.27714C28.08 9.31839 28.105 9.32297 28.08 9.28631C28.06 9.25881 28.065 9.23131 28.095 9.23131C28.12 9.23131 28.15 9.24964 28.16 9.27714C28.17 9.30464 28.225 9.29547 28.305 9.25881C28.38 9.22673 28.465 9.21298 28.5 9.23131C28.545 9.25881 28.54 9.27256 28.47 9.29089C28.39 9.30922 28.395 9.31381 28.49 9.31839C28.585 9.32297 28.6 9.30464 28.575 9.22673C28.55 9.15339 28.56 9.13506 28.635 9.14881C28.685 9.15339 28.775 9.12589 28.84 9.08465C28.905 9.04798 29 9.02048 29.055 9.03423C29.11 9.04798 29.15 9.03423 29.15 9.00673C29.15 8.97465 29.175 8.96548 29.2 8.97923C29.23 8.99298 29.25 8.98382 29.25 8.95632C29.25 8.92882 29.3 8.9059 29.36 8.91048C29.425 8.91507 29.49 8.91507 29.51 8.91048C29.535 8.9059 29.57 8.89674 29.59 8.89215C29.615 8.89215 29.67 8.8509 29.72 8.80507C29.78 8.75007 29.79 8.72716 29.74 8.72716C29.7 8.72257 29.71 8.69966 29.77 8.65841C29.825 8.62174 29.85 8.58966 29.82 8.58966C29.755 8.58966 30.05 8.3605 30.12 8.3605C30.15 8.35592 30.24 8.27342 30.325 8.17717C30.405 8.08092 30.5 7.99843 30.535 7.99384C30.57 7.99384 30.625 7.94801 30.655 7.88843C30.69 7.83343 30.735 7.77385 30.76 7.7601C30.785 7.74635 30.81 7.70052 30.815 7.66385C30.83 7.57677 31.03 7.34761 31.065 7.3797C31.08 7.39345 31.105 7.36136 31.125 7.31095C31.14 7.25595 31.18 7.22387 31.205 7.23762C31.23 7.25595 31.25 7.23762 31.25 7.20095C31.25 7.12762 31.75 6.66472 31.9 6.60055C31.95 6.57763 32.03 6.48139 32.07 6.38514C32.12 6.27056 32.28 6.11015 32.535 5.90849C32.75 5.73891 32.94 5.56016 32.96 5.51433C32.98 5.46392 33.02 5.43184 33.05 5.45017C33.08 5.46392 33.085 5.44558 33.07 5.40892C33.055 5.36767 33.065 5.33559 33.095 5.33559C33.17 5.33559 33.475 5.06518 33.475 5.00101C33.48 4.96893 33.505 4.9506 33.535 4.95518C33.605 4.96893 34.05 4.59311 34.05 4.52436C34.05 4.48311 34.225 4.38686 34.225 4.42811C34.225 4.43728 34.29 4.39603 34.37 4.34103C34.45 4.28145 34.53 4.24479 34.55 4.25854C34.57 4.27229 34.6 4.23562 34.615 4.1852C34.63 4.13021 34.665 4.10271 34.69 4.11646C34.72 4.13021 34.755 4.11187 34.77 4.07062C34.785 4.03396 34.78 4.01562 34.75 4.02938C34.72 4.04313 34.7 4.04313 34.7 4.02479C34.7 3.96979 34.87 3.87355 34.975 3.86896C35.06 3.86896 35.06 3.8598 35 3.82313C34.94 3.78646 34.945 3.7773 35.03 3.7773C35.085 3.7773 35.175 3.73605 35.225 3.68563C35.275 3.63522 35.34 3.59855 35.365 3.60772C35.39 3.6123 35.49 3.55272 35.585 3.47481C35.68 3.39231 35.83 3.27315 35.915 3.2044C36.005 3.13565 36.155 3.02107 36.25 2.94316C36.345 2.86983 36.5 2.77816 36.585 2.7415C36.675 2.70483 36.75 2.64525 36.75 2.60858C36.75 2.57192 36.84 2.47567 36.95 2.39775C37.06 2.31526 37.15 2.22359 37.15 2.18693C37.15 2.15485 37.175 2.12735 37.205 2.12735C37.285 2.12735 37.41 1.99902 37.38 1.9486C37.36 1.92569 37.425 1.88444 37.515 1.85694C37.605 1.82944 37.765 1.73319 37.865 1.64611C37.97 1.55445 38.075 1.49486 38.1 1.50861C38.125 1.52236 38.16 1.50861 38.18 1.48112C38.2 1.44445 38.195 1.43987 38.16 1.4582C38.125 1.47653 38.1 1.46737 38.1 1.44445C38.1 1.41695 38.155 1.39403 38.22 1.39403C38.285 1.39403 38.365 1.36195 38.4 1.32528C38.435 1.28862 38.495 1.25654 38.53 1.25654C38.57 1.25654 38.6 1.2382 38.6 1.21071C38.6 1.18779 38.69 1.14196 38.8 1.11446C38.98 1.06404 38.99 1.05488 38.91 0.999878C38.835 0.94488 38.835 0.940296 38.935 0.95863C39.01 0.967796 39.05 0.954046 39.05 0.912798C39.05 0.853216 39.19 0.775301 39.265 0.793634C39.29 0.798218 39.3 0.775301 39.29 0.743219C39.255 0.651556 39.48 0.514059 39.605 0.546141C39.68 0.569057 39.7 0.564474 39.68 0.527809C39.64 0.472811 39.645 0.472811 39.74 0.509476ZM20.935 9.48339C20.805 9.50172 20.7 9.52922 20.7 9.54755C20.705 9.58422 21.035 9.73546 21.125 9.73546C21.165 9.73546 21.3 9.78588 21.43 9.85004C21.56 9.91421 21.695 9.96462 21.73 9.96462C21.815 9.96462 21.82 10.0196 21.735 10.1021C21.685 10.1571 21.69 10.1571 21.76 10.1113C21.815 10.07 21.85 10.0655 21.875 10.1021C21.89 10.1296 21.93 10.1388 21.955 10.125C21.98 10.1067 22 10.1205 22 10.1479C22 10.18 22.035 10.1892 22.08 10.1754C22.135 10.1571 22.155 10.1663 22.135 10.2121C22.095 10.3084 22.66 10.7254 22.76 10.6704C22.78 10.6567 22.8 10.6704 22.8 10.6933C22.8 10.7208 22.835 10.7438 22.875 10.7438C22.915 10.7438 22.95 10.7667 22.95 10.7942C22.95 10.8171 22.97 10.8308 22.99 10.8171C23.015 10.8033 23.105 10.8629 23.185 10.95C23.27 11.0371 23.35 11.0967 23.365 11.0829C23.375 11.0692 23.405 11.115 23.42 11.1792C23.44 11.2433 23.475 11.2846 23.5 11.2708C23.525 11.2571 23.595 11.2937 23.66 11.3533C23.725 11.4083 23.86 11.4954 23.965 11.5412C24.075 11.5871 24.205 11.665 24.255 11.7108C24.31 11.7612 24.375 11.7887 24.4 11.775C24.425 11.7612 24.435 11.775 24.42 11.8117C24.405 11.8575 24.46 11.9171 24.595 11.9858C24.705 12.0408 24.78 12.1096 24.765 12.1325C24.75 12.16 24.76 12.1646 24.785 12.1508C24.815 12.1325 24.865 12.1508 24.9 12.1875C24.935 12.2241 24.99 12.2562 25.02 12.2562C25.05 12.2562 25.13 12.3158 25.2 12.3937C25.27 12.467 25.35 12.5312 25.385 12.5312C25.415 12.5312 25.46 12.5725 25.475 12.6229C25.49 12.6733 25.545 12.7145 25.585 12.7145C25.63 12.7145 25.65 12.7283 25.635 12.7466C25.615 12.7604 25.66 12.8154 25.735 12.8612C25.815 12.907 25.86 12.9437 25.835 12.9437C25.815 12.9437 25.895 13.0262 26.005 13.127C26.12 13.2279 26.235 13.3104 26.265 13.3104C26.295 13.3104 26.28 13.3379 26.225 13.3699C26.14 13.4295 26.14 13.4341 26.245 13.4616C26.31 13.4754 26.34 13.4662 26.315 13.4387C26.295 13.4066 26.31 13.402 26.345 13.4204C26.38 13.4433 26.4 13.5166 26.39 13.5854C26.38 13.6724 26.41 13.7458 26.475 13.8008C26.655 13.952 26.9 14.2637 26.92 14.3737C26.935 14.4332 26.945 14.4837 26.955 14.4882C26.96 14.4974 26.97 14.5203 26.975 14.5478C26.98 14.5707 26.995 14.6074 27 14.6257C27.005 14.6487 27.01 14.6762 27.005 14.6945C27.005 14.7174 27.035 14.7311 27.075 14.7311C27.12 14.7311 27.135 14.7586 27.115 14.8091C27.095 14.8549 27.105 14.8732 27.135 14.8549C27.19 14.8228 27.25 15.0153 27.25 15.217C27.25 15.272 27.28 15.3499 27.31 15.382C27.385 15.4507 27.395 15.4828 27.42 15.744C27.44 15.9365 27.37 16.2894 27.31 16.3353C27.29 16.349 27.27 16.3903 27.26 16.4269C27.25 16.4636 27.22 16.5048 27.195 16.5094C27.17 16.5186 27.16 16.5461 27.18 16.569C27.195 16.5919 27.18 16.6103 27.145 16.6103C27.11 16.6103 27.1 16.624 27.115 16.6423C27.135 16.6561 27.1 16.6928 27.035 16.7248C26.975 16.7523 26.93 16.8028 26.94 16.8348C26.945 16.8669 26.91 16.8853 26.865 16.8761C26.815 16.8669 26.78 16.8853 26.79 16.9173C26.795 16.9494 26.765 16.9769 26.725 16.9769C26.685 16.9769 26.65 16.9998 26.65 17.0273C26.65 17.0548 26.615 17.0686 26.58 17.0548C26.53 17.0365 26.515 17.0503 26.535 17.0961C26.555 17.1419 26.535 17.1511 26.48 17.1327C26.435 17.1144 26.39 17.1327 26.37 17.174C26.355 17.2107 26.285 17.2565 26.21 17.2748C26.135 17.2932 26.03 17.339 25.98 17.3802C25.925 17.4215 25.9 17.4307 25.92 17.3986C25.97 17.3207 25.87 17.3298 25.78 17.4169C25.735 17.4536 25.7 17.4673 25.7 17.4444C25.7 17.4215 25.645 17.3986 25.575 17.3986C25.505 17.3986 25.45 17.4215 25.45 17.4444C25.45 17.4673 25.415 17.4536 25.37 17.4123C25.315 17.3665 25.275 17.3527 25.255 17.3848C25.235 17.4123 25.195 17.4169 25.15 17.3894C25.04 17.3252 24.94 17.3344 24.98 17.3986C25 17.4307 24.955 17.4077 24.885 17.3482C24.77 17.2519 24.75 17.2473 24.75 17.3161C24.75 17.3848 24.735 17.3802 24.605 17.2932C24.52 17.2336 24.415 17.2015 24.355 17.2198C24.295 17.2336 24.215 17.2061 24.15 17.1511C24.075 17.0869 24.03 17.0732 24.005 17.1098C23.965 17.1648 23.925 17.1327 23.555 16.7753C23.435 16.6561 23.25 16.5278 23.14 16.4865C23.035 16.4499 22.95 16.3903 22.95 16.3536C22.95 16.3169 22.935 16.294 22.91 16.294C22.78 16.3124 22.69 16.2803 22.715 16.2253C22.735 16.184 22.72 16.1657 22.685 16.1794C22.6 16.2069 22.29 16.0236 22.325 15.9686C22.34 15.9411 22.33 15.9228 22.295 15.9228C22.225 15.9228 22.05 15.7486 22.05 15.6799C22.05 15.6524 22.035 15.6432 22.02 15.6615C22.005 15.6753 21.935 15.6432 21.87 15.5882C21.8 15.5332 21.695 15.4461 21.635 15.3957C21.575 15.3453 21.515 15.3041 21.5 15.3041C21.485 15.2995 21.425 15.2766 21.36 15.2445C21.3 15.2124 21.25 15.1986 21.25 15.217C21.25 15.2307 21.215 15.2216 21.175 15.1895C21.135 15.1574 21.115 15.1116 21.135 15.0841C21.155 15.0566 21.135 15.0474 21.085 15.0657C21.035 15.0795 21 15.0749 21 15.0474C21 15.0199 20.98 15.0107 20.955 15.0245C20.93 15.0382 20.9 15.0199 20.88 14.9832C20.865 14.9466 20.82 14.9145 20.775 14.9145C20.735 14.9145 20.7 14.8916 20.7 14.8686C20.7 14.8411 20.655 14.8228 20.6 14.8228C20.545 14.8228 20.5 14.8091 20.5 14.7861C20.5 14.7678 20.43 14.7174 20.35 14.6762C20.265 14.6349 20.2 14.6166 20.2 14.6441C20.2 14.667 20.155 14.6624 20.105 14.6303C20.05 14.5982 20.02 14.557 20.035 14.5341C20.05 14.5112 20.01 14.5203 19.945 14.5524C19.88 14.5845 19.81 14.6074 19.79 14.6028C19.77 14.5982 19.74 14.6395 19.72 14.6945C19.685 14.7999 19.625 14.8778 19.485 14.997C19.44 15.0382 19.275 15.1849 19.13 15.3132C18.98 15.4461 18.835 15.5561 18.805 15.5561C18.78 15.5561 18.75 15.5928 18.74 15.634C18.73 15.689 18.68 15.7165 18.6 15.7165C18.52 15.7165 18.455 15.7578 18.415 15.8311C18.38 15.8953 18.35 15.9274 18.35 15.909C18.35 15.8907 18.3 15.9136 18.24 15.9686C18.18 16.019 18.11 16.0603 18.09 16.0603C18.065 16.0603 18.055 16.0786 18.075 16.1015C18.11 16.1565 18 16.3811 17.94 16.3811C17.915 16.3811 17.905 16.3994 17.92 16.4224C17.935 16.4407 17.905 16.4957 17.85 16.5415C17.795 16.5873 17.75 16.6103 17.75 16.5873C17.75 16.569 17.79 16.5232 17.835 16.4911C17.895 16.4499 17.905 16.4315 17.86 16.4269C17.765 16.4269 17.665 16.5323 17.69 16.6057C17.705 16.6423 17.69 16.6561 17.66 16.6378C17.63 16.6194 17.58 16.6515 17.55 16.7019C17.52 16.7523 17.475 16.7844 17.455 16.7707C17.43 16.7569 17.4 16.7798 17.38 16.8165C17.365 16.8532 17.32 16.8715 17.275 16.8578C17.235 16.844 17.2 16.8486 17.2 16.8715C17.2 16.9403 16.945 17.1648 16.9 17.1373C16.87 17.1236 16.865 17.1373 16.875 17.174C16.89 17.2061 16.85 17.2611 16.775 17.2977C16.705 17.3298 16.65 17.3848 16.65 17.4123C16.65 17.4948 16.365 17.724 16.305 17.6919C16.27 17.6736 16.25 17.6965 16.25 17.7515C16.25 17.8156 16.225 17.8386 16.175 17.8202C16.135 17.8019 16.1 17.8156 16.1 17.8477C16.1 17.8752 16.08 17.889 16.055 17.8706C16.025 17.8569 15.915 17.9302 15.805 18.0356C15.69 18.1365 15.6 18.2052 15.6 18.1869C15.6 18.1686 15.56 18.1869 15.51 18.2281C15.46 18.274 15.395 18.2923 15.37 18.274C15.345 18.251 15.34 18.2556 15.36 18.2785C15.385 18.3015 15.285 18.3931 15.145 18.4756C15.01 18.5627 14.88 18.6635 14.865 18.7002C14.85 18.7369 14.815 18.7644 14.79 18.7644C14.76 18.7644 14.695 18.8148 14.64 18.8789C14.585 18.9431 14.5 18.9935 14.45 18.9935C14.385 18.9935 14.365 19.0164 14.38 19.0623C14.4 19.0989 14.385 19.131 14.355 19.131C14.325 19.131 14.3 19.1081 14.3 19.0806C14.3 19.0577 14.275 19.0485 14.25 19.0623C14.22 19.0806 14.21 19.1127 14.23 19.1356C14.245 19.1631 14.23 19.1769 14.195 19.1677C14.12 19.1539 13.795 19.4335 13.84 19.4748C13.865 19.4977 13.77 19.516 13.685 19.5023C13.665 19.5023 13.65 19.5298 13.65 19.5664C13.65 19.6031 13.63 19.6306 13.605 19.626C13.58 19.6168 13.52 19.6535 13.475 19.7039C13.43 19.7543 13.41 19.7681 13.43 19.7314C13.47 19.6535 13.175 19.8414 12.995 20.0064C12.925 20.0706 12.835 20.1118 12.795 20.1027C12.755 20.0889 12.74 20.0981 12.76 20.1164C12.795 20.1485 12.545 20.3685 12.48 20.3685C12.46 20.3685 12.395 20.4097 12.335 20.4647C12.275 20.5152 12.125 20.6114 12.005 20.6756C11.885 20.7443 11.72 20.8543 11.635 20.9276C11.55 20.9964 11.45 21.056 11.42 21.056C11.385 21.056 11.35 21.0835 11.335 21.1201C11.32 21.1568 11.24 21.198 11.155 21.2164C11.07 21.2301 10.92 21.3172 10.815 21.4043C10.71 21.496 10.54 21.6014 10.44 21.6472C10.335 21.693 10.265 21.7434 10.29 21.7664C10.31 21.7893 10.3 21.7893 10.27 21.7755C10.24 21.7572 10.135 21.7847 10.035 21.8305C9.935 21.8764 9.865 21.8947 9.88 21.8626C9.895 21.8351 9.875 21.8489 9.83 21.8993C9.79 21.9451 9.735 21.968 9.71 21.9543C9.645 21.9176 9.495 21.9726 9.525 22.0139C9.535 22.0322 9.455 22.0414 9.345 22.0368C9.185 22.0276 9.15 22.0414 9.17 22.0964C9.245 22.2751 9.26 22.3851 9.2 22.3851C9.17 22.3851 9.155 22.4034 9.175 22.4263C9.215 22.4905 9.015 22.5363 8.86 22.4997C8.785 22.4859 8.69 22.4309 8.65 22.3851C8.61 22.3393 8.54 22.2934 8.505 22.2843C8.465 22.2751 8.38 22.2247 8.32 22.1697C8.265 22.1101 8.11 22.023 7.98 21.9726C7.77 21.8855 7.675 21.7893 7.8 21.7893C7.825 21.7893 7.85 21.7664 7.85 21.7343C7.85 21.7068 7.805 21.7205 7.745 21.7709C7.66 21.8443 7.635 21.8443 7.595 21.7893C7.475 21.6243 7.405 21.4776 7.435 21.4501C7.455 21.4364 7.44 21.4226 7.41 21.4226C7.375 21.4226 7.35 21.3905 7.35 21.3539C7.35 21.253 7.15 21.0606 7.07 21.0881C7.03 21.1018 7 21.0835 7 21.0376C7 20.9964 6.98 20.9643 6.955 20.9643C6.895 20.9643 6.835 21.1293 6.87 21.1843C6.885 21.2072 6.905 21.4364 6.92 21.7022C6.935 21.9634 6.96 22.2293 6.98 22.2934C7 22.3576 7.015 22.463 7.02 22.5363C7.02 22.6051 7.05 22.6509 7.08 22.6418C7.11 22.6326 7.125 22.6738 7.11 22.7563C7.095 22.8434 7.11 22.8892 7.155 22.8892C7.19 22.8892 7.29 22.9626 7.38 23.0497C7.485 23.1551 7.555 23.1963 7.575 23.1597C7.605 23.123 7.625 23.1276 7.655 23.1688C7.69 23.2238 7.7 23.2238 7.7 23.1688C7.7 23.1184 7.715 23.1184 7.775 23.1642C7.82 23.1963 7.84 23.2605 7.825 23.3063C7.805 23.3567 7.815 23.3934 7.845 23.3934C7.875 23.3934 7.9 23.3705 7.9 23.343C7.9 23.3155 7.945 23.3017 8 23.3155C8.055 23.3292 8.1 23.3155 8.1 23.288C8.1 23.2513 8.12 23.2559 8.16 23.2926C8.195 23.3247 8.295 23.3476 8.385 23.3476C8.475 23.3476 8.55 23.3659 8.55 23.3888C8.55 23.4484 9.465 23.4163 9.59 23.3522C9.65 23.3201 9.7 23.3155 9.7 23.3384C9.7 23.3659 9.79 23.3797 9.895 23.3797C10.005 23.3797 10.085 23.3613 10.07 23.3384C10.055 23.3201 10.09 23.3017 10.15 23.3017C10.21 23.3017 10.245 23.288 10.235 23.2651C10.22 23.2467 10.345 23.233 10.51 23.2376C10.715 23.2376 10.82 23.2192 10.835 23.178C10.85 23.1459 10.9 23.1184 10.945 23.1184C10.995 23.1184 11.08 23.0772 11.14 23.0267C11.2 22.9763 11.275 22.9351 11.31 22.9351C11.35 22.9351 11.45 22.8709 11.545 22.7976C11.635 22.7197 11.795 22.6188 11.895 22.5684C12 22.5226 12.11 22.4493 12.145 22.4126C12.185 22.3713 12.245 22.3393 12.28 22.3393C12.32 22.3393 12.35 22.3209 12.35 22.2934C12.35 22.2705 12.38 22.2522 12.41 22.2614C12.445 22.2659 12.47 22.243 12.465 22.2155C12.455 22.1834 12.465 22.1605 12.49 22.1651C12.555 22.1834 12.9 22.0459 12.9 22.0047C12.9 21.9818 12.935 21.9772 12.98 21.9909C13.025 22.0093 13.09 22.0001 13.12 21.9818C13.15 21.9589 13.28 21.9039 13.41 21.858C13.62 21.7847 13.71 21.7114 13.72 21.583C13.725 21.5601 13.775 21.528 13.835 21.5143C13.9 21.5005 13.99 21.4593 14.04 21.4226C14.29 21.2347 14.44 21.166 14.615 21.1568C14.72 21.1476 14.83 21.1614 14.86 21.1797C14.895 21.1935 14.99 21.2164 15.075 21.2255C15.155 21.2347 15.23 21.2622 15.24 21.2851C15.25 21.3126 15.3 21.331 15.355 21.331C15.435 21.331 15.44 21.3447 15.39 21.418C15.355 21.4685 15.31 21.496 15.29 21.4868C15.27 21.473 15.25 21.4868 15.25 21.5097C15.25 21.5739 15.315 21.5739 15.385 21.5097C15.42 21.4776 15.45 21.4776 15.47 21.5051C15.525 21.5876 14.99 22.1468 14.8 22.2109C14.705 22.2384 14.61 22.2614 14.585 22.2568C14.565 22.2522 14.55 22.2888 14.55 22.3438C14.55 22.4172 14.53 22.4309 14.435 22.4034C14.375 22.3897 14.34 22.3897 14.36 22.408C14.4 22.4493 14.26 22.5868 14.135 22.628C14.08 22.6463 14.06 22.683 14.08 22.7151C14.105 22.7518 14.09 22.7563 14.035 22.738C13.985 22.7243 13.95 22.7288 13.95 22.7518C13.95 22.7793 13.91 22.7976 13.86 22.7976C13.785 22.7976 13.615 22.9167 13.25 23.2192C13.18 23.2788 13.01 23.3751 12.875 23.4347C12.735 23.4942 12.59 23.5676 12.55 23.5996C12.51 23.6271 12.395 23.6776 12.3 23.7142C11.95 23.8288 11.7 23.9434 11.7 23.9892C11.7 24.0167 11.67 24.035 11.63 24.035C11.59 24.035 11.55 24.058 11.54 24.0809C11.525 24.1267 11.375 24.1634 11.115 24.1909C11.06 24.1955 10.95 24.2367 10.88 24.278C10.81 24.3192 10.68 24.3559 10.595 24.3559C10.505 24.3559 10.41 24.3834 10.38 24.42C10.35 24.4567 10.21 24.498 10.075 24.5117C9.315 24.585 9.275 24.5896 9.35 24.5438C9.39 24.5209 9.405 24.4842 9.385 24.4659C9.37 24.4475 9.315 24.4613 9.27 24.4934C9.175 24.5713 8.835 24.5575 8.65 24.4705C8.44 24.3696 8.26 24.3513 8.23 24.4292C8.215 24.4659 8.22 24.4934 8.24 24.4934C8.26 24.4934 8.275 24.5713 8.27 24.6675C8.27 24.7592 8.31 24.915 8.36 25.0113C8.41 25.1075 8.44 25.2038 8.425 25.2267C8.41 25.2542 8.43 25.2725 8.47 25.2725C8.515 25.2725 8.55 25.3 8.55 25.3367C8.55 25.3733 8.59 25.4329 8.64 25.465C8.69 25.4971 8.745 25.5613 8.765 25.6071C8.78 25.6483 8.815 25.6804 8.835 25.6804C8.91 25.6621 9.05 25.74 9.02 25.7812C9.005 25.8042 9.015 25.8225 9.045 25.8225C9.07 25.8225 9.105 25.795 9.115 25.7629C9.13 25.7308 9.145 25.7354 9.145 25.7858C9.15 25.8271 9.175 25.8775 9.21 25.8958C9.245 25.9142 9.25 25.9096 9.23 25.8775C9.16 25.7721 9.31 25.8225 9.445 25.9462C9.595 26.0837 9.78 26.1892 9.91 26.2029C9.95 26.2121 10.025 26.2487 10.07 26.2946C10.18 26.3908 10.205 26.3954 10.165 26.2992C10.14 26.2396 10.15 26.2304 10.23 26.2717C10.385 26.3404 10.795 26.3679 10.865 26.3083C10.9 26.2808 10.98 26.2625 11.05 26.2671C11.17 26.2762 11.34 26.2808 11.59 26.2762C11.65 26.2717 11.845 26.2075 12.015 26.1342C12.185 26.0562 12.335 25.9967 12.35 25.9967C12.365 25.9967 12.395 25.9692 12.415 25.9325C12.44 25.8958 12.475 25.8775 12.5 25.8912C12.525 25.905 12.555 25.8958 12.575 25.8683C12.59 25.8454 12.65 25.8225 12.705 25.8225C12.755 25.8225 12.8 25.7996 12.8 25.7767C12.8 25.7492 12.855 25.7308 12.92 25.7308C13.09 25.7308 13.28 25.6575 13.4 25.5475C13.455 25.4971 13.5 25.465 13.5 25.4788C13.5 25.4925 13.56 25.465 13.635 25.4238C13.765 25.3458 13.77 25.3458 13.735 25.4238C13.68 25.5567 13.77 25.5108 13.84 25.3733C13.885 25.2679 13.93 25.2404 14.04 25.2496C14.115 25.2542 14.19 25.2358 14.21 25.2083C14.23 25.1809 14.265 25.1579 14.285 25.1534C14.305 25.1534 14.365 25.135 14.41 25.1167C14.455 25.0984 14.52 25.0754 14.56 25.0663C14.755 25.025 14.85 24.9838 14.85 24.9379C14.85 24.9104 14.865 24.9059 14.885 24.9196C14.9 24.9379 14.97 24.9059 15.035 24.8509C15.095 24.7959 15.165 24.7638 15.18 24.7821C15.195 24.7959 15.305 24.7592 15.425 24.6996C15.54 24.64 15.65 24.6034 15.67 24.6171C15.69 24.6354 15.735 24.6034 15.78 24.5438C15.835 24.475 15.89 24.4521 15.955 24.4705C16.005 24.4888 16.05 24.4796 16.05 24.4521C16.05 24.4292 16.01 24.4017 15.96 24.388C15.91 24.3788 15.95 24.3559 16.06 24.3375C16.17 24.3146 16.25 24.2734 16.25 24.2367C16.25 24.1771 16.475 24.058 16.555 24.0717C16.575 24.0763 16.64 24.0259 16.7 23.9663C16.765 23.9021 16.86 23.8517 16.91 23.8517C16.965 23.8517 17 23.8196 17 23.7601C17 23.7096 17.02 23.6684 17.05 23.6684C17.075 23.6684 17.14 23.6226 17.2 23.5676C17.255 23.5126 17.3 23.4851 17.3 23.5034C17.3 23.5217 17.335 23.5034 17.38 23.4667C17.465 23.3888 17.825 23.3613 17.775 23.4392C17.76 23.4621 17.795 23.4851 17.85 23.4851C17.93 23.4851 17.95 23.5034 17.93 23.5584C17.915 23.5951 17.92 23.6134 17.945 23.5996C18.02 23.563 18.06 23.7371 18.02 23.9205C18 24.0259 18.01 24.1084 18.055 24.1542C18.13 24.2413 18.165 24.4934 18.095 24.4934C18.07 24.4934 18.05 24.5255 18.05 24.5667C18.05 24.6813 17.735 25.0892 17.645 25.0892C17.6 25.0892 17.55 25.1304 17.535 25.1809C17.52 25.2313 17.485 25.2725 17.45 25.2725C17.42 25.2725 17.41 25.245 17.425 25.2129C17.445 25.1854 17.43 25.19 17.39 25.2313C17.355 25.2725 17.3 25.2954 17.265 25.2863C17.235 25.2771 17.195 25.2863 17.18 25.3138C17.16 25.3413 17.115 25.3504 17.075 25.3321C17.02 25.3138 17.01 25.3275 17.035 25.3917C17.055 25.4421 17.05 25.4604 17.015 25.4421C16.985 25.4238 16.945 25.4421 16.93 25.4833C16.915 25.52 16.87 25.5475 16.83 25.5383C16.79 25.5292 16.725 25.5567 16.69 25.5979C16.595 25.7079 15.87 26.0562 15.825 26.015C15.8 25.9967 15.8 26.0196 15.815 26.0608C15.835 26.1158 15.825 26.1296 15.77 26.1112C15.73 26.0975 15.665 26.1112 15.625 26.1433C15.585 26.1754 15.55 26.1846 15.55 26.1708C15.55 26.1296 15.13 26.3358 15.11 26.3816C15.1 26.4046 15.06 26.4183 15.02 26.4183C14.98 26.4183 14.95 26.4412 14.95 26.4687C14.95 26.4916 14.93 26.5054 14.905 26.4871C14.88 26.4733 14.83 26.4916 14.79 26.5237C14.755 26.5604 14.695 26.5787 14.66 26.565C14.625 26.5558 14.57 26.5558 14.535 26.5696C14.5 26.5787 14.46 26.5879 14.445 26.5833C14.43 26.5833 14.38 26.6062 14.335 26.6383C14.29 26.675 14.23 26.6887 14.2 26.6704C14.175 26.6566 14.15 26.6658 14.15 26.6979C14.15 26.73 14.095 26.7437 14 26.73C13.915 26.7162 13.85 26.73 13.845 26.7575C13.845 26.7896 13.83 26.785 13.82 26.7529C13.785 26.6796 13.65 26.73 13.68 26.8033C13.695 26.8446 13.655 26.8583 13.54 26.8537C13.45 26.8446 13.275 26.8858 13.15 26.9362C12.945 27.0187 12.88 27.0325 12.66 27.0554C12.625 27.0554 12.61 27.0829 12.63 27.115C12.655 27.147 12.645 27.1516 12.595 27.1241C12.495 27.0691 12.4 27.06 12.4 27.1104C12.4 27.1333 12.37 27.1516 12.33 27.1516C12.29 27.1516 12.22 27.1837 12.18 27.225C12.135 27.2616 12.02 27.3075 11.915 27.3212C11.815 27.3395 11.675 27.3762 11.605 27.4083C11.54 27.4404 11.465 27.4587 11.44 27.445C11.38 27.4083 11.39 27.5091 11.47 27.6466C11.54 27.7749 11.805 27.9766 11.895 27.9766C11.925 27.9766 11.935 28.0087 11.92 28.0454C11.9 28.0866 11.935 28.1324 12.02 28.1645C12.12 28.2103 12.135 28.2333 12.095 28.2837C12.05 28.3341 12.055 28.3387 12.115 28.3158C12.16 28.302 12.235 28.3203 12.275 28.3616C12.32 28.4028 12.42 28.4349 12.5 28.4349C12.58 28.4349 12.7 28.4533 12.775 28.4808C12.98 28.5541 13.675 28.5541 13.77 28.4853C13.815 28.4533 13.885 28.4349 13.93 28.4533C13.97 28.467 14.07 28.4487 14.145 28.412C14.225 28.3753 14.3 28.357 14.315 28.3753C14.335 28.3891 14.385 28.3845 14.435 28.3616C14.535 28.3249 14.66 28.302 14.835 28.2928C14.9 28.2883 14.95 28.2562 14.95 28.2195C14.95 28.1737 14.98 28.1645 15.05 28.1828C15.105 28.2012 15.15 28.192 15.15 28.1645C15.15 28.137 15.175 28.1141 15.205 28.1141C15.235 28.1141 15.29 28.082 15.33 28.0454C15.375 28.0087 15.45 27.9766 15.505 27.9766C15.555 27.9766 15.6 27.9537 15.6 27.9262C15.6 27.9033 15.62 27.8895 15.645 27.9079C15.67 27.9216 15.71 27.9079 15.73 27.8804C15.75 27.8483 15.835 27.8391 15.96 27.8574C16.11 27.8804 16.19 27.8666 16.29 27.8024C16.365 27.752 16.47 27.7016 16.525 27.6879C16.765 27.6237 17.08 27.5091 17.145 27.4587C17.2 27.4129 17.21 27.422 17.18 27.5091C17.155 27.5779 17.165 27.6099 17.205 27.6099C17.24 27.6099 17.25 27.5962 17.235 27.5824C17.18 27.532 17.345 27.3625 17.46 27.3487C17.525 27.3441 17.625 27.3258 17.685 27.312C17.75 27.2983 17.8 27.3075 17.8 27.335C17.8 27.3579 17.835 27.3808 17.875 27.3808C17.925 27.3808 17.95 27.3487 17.94 27.2983C17.93 27.257 17.955 27.225 17.985 27.2295C18.02 27.2387 18.085 27.1929 18.13 27.1287C18.175 27.0645 18.23 27.0279 18.255 27.0416C18.28 27.0554 18.3 27.0416 18.3 27.0095C18.3 26.982 18.34 26.9683 18.395 26.982C18.46 26.9958 18.485 26.9866 18.47 26.9454C18.435 26.8721 18.685 26.7941 19.03 26.7666C19.175 26.7575 19.315 26.7346 19.345 26.7208C19.375 26.7025 19.42 26.6979 19.445 26.7162C19.47 26.73 19.525 26.7116 19.565 26.675C19.605 26.6383 19.73 26.5696 19.845 26.5237C19.955 26.4779 20.05 26.4275 20.05 26.4091C20.05 26.3862 20.08 26.3725 20.12 26.3725C20.16 26.3725 20.245 26.3129 20.31 26.2442C20.475 26.0562 20.985 25.7171 21.05 25.7538C21.075 25.7675 21.1 25.7583 21.1 25.7354C21.1 25.7079 21.15 25.6942 21.21 25.7033C21.275 25.7125 21.355 25.6988 21.385 25.6758C21.43 25.6438 21.45 25.6438 21.45 25.6758C21.45 25.6988 21.495 25.7125 21.555 25.6988C21.615 25.6804 21.68 25.6988 21.7 25.7308C21.725 25.7675 21.805 25.7996 21.885 25.8087C22.04 25.8271 22.15 25.9325 22.15 26.0608C22.15 26.1708 21.93 26.4687 21.805 26.5329C21.75 26.5558 21.615 26.6612 21.5 26.7575C21.385 26.8537 21.24 26.9362 21.185 26.9408C21.115 26.9454 21.07 26.9866 21.05 27.06C21.03 27.1333 20.99 27.17 20.935 27.1608C20.885 27.1516 20.85 27.1791 20.85 27.2204C20.85 27.2616 20.825 27.28 20.8 27.2662C20.775 27.2525 20.75 27.2708 20.75 27.312C20.75 27.3487 20.71 27.3991 20.66 27.4129C20.615 27.4312 20.545 27.4816 20.51 27.5229C20.475 27.5687 20.415 27.5962 20.375 27.5824C20.335 27.5641 20.3 27.5779 20.3 27.6054C20.3 27.6329 20.23 27.6558 20.15 27.6558C20.065 27.6558 20 27.6741 20 27.7016C20 27.7245 19.965 27.7474 19.92 27.7474C19.88 27.7474 19.86 27.7658 19.875 27.7933C19.89 27.8162 19.865 27.8437 19.815 27.8437C19.675 27.8529 19.635 27.862 19.45 27.9445C19.355 27.9858 19.295 28.0179 19.325 28.0224C19.4 28.0224 19.06 28.2058 18.98 28.2058C18.945 28.2058 18.86 28.247 18.795 28.302C18.635 28.4303 18.435 28.5037 18.41 28.4395C18.375 28.3433 18.31 28.3891 18.34 28.4899C18.355 28.5541 18.35 28.577 18.31 28.5541C18.275 28.5358 18.25 28.5403 18.25 28.5633C18.25 28.6274 18.06 28.6641 18.03 28.5999C18.02 28.5724 18.005 28.5908 18.005 28.6366C18 28.687 17.985 28.7099 17.97 28.6962C17.95 28.6778 17.875 28.6962 17.805 28.7328C17.615 28.8291 16.7 29.0399 16.59 29.017C16.54 29.0032 16.51 29.0124 16.53 29.0353C16.545 29.0582 16.51 29.0766 16.455 29.0766C16.4 29.0766 16.345 29.0949 16.325 29.1178C16.31 29.1453 16.255 29.1545 16.2 29.1453C16.15 29.1362 15.985 29.1866 15.84 29.2599C15.695 29.3378 15.53 29.3974 15.47 29.3974C15.415 29.3974 15.35 29.4157 15.32 29.4386C15.295 29.4616 15.225 29.4891 15.16 29.4982L15.05 29.512L15.155 29.6953C15.285 29.9199 15.435 30.0528 15.565 30.062C15.62 30.0665 15.695 30.1078 15.73 30.149C15.77 30.1995 15.82 30.2178 15.86 30.1949C15.91 30.1674 15.91 30.1765 15.855 30.2361C15.795 30.3049 15.795 30.314 15.87 30.2865C15.915 30.2728 15.95 30.282 15.95 30.314C15.95 30.3415 15.97 30.3553 16 30.337C16.025 30.3232 16.09 30.3507 16.145 30.4011C16.205 30.4561 16.34 30.5111 16.45 30.5249C16.56 30.5432 16.665 30.5707 16.68 30.5936C16.69 30.6119 16.735 30.6211 16.775 30.6028C16.815 30.589 16.85 30.5982 16.85 30.6257C16.85 30.6486 16.97 30.6715 17.11 30.6715C17.255 30.6715 17.475 30.6807 17.595 30.6899C17.715 30.7036 17.835 30.6899 17.87 30.6578C17.9 30.6303 17.975 30.6074 18.035 30.6028C18.1 30.6028 18.22 30.5982 18.305 30.5936C18.385 30.5936 18.445 30.5707 18.43 30.5524C18.42 30.534 18.485 30.5203 18.58 30.5203C18.675 30.5249 18.765 30.5111 18.78 30.4882C18.795 30.4699 18.86 30.4515 18.93 30.4515C18.995 30.4515 19.05 30.4378 19.05 30.4149C19.05 30.3965 19.18 30.3782 19.335 30.369C19.52 30.3599 19.725 30.314 19.9 30.2361C20.05 30.172 20.205 30.1215 20.24 30.1261C20.275 30.1307 20.295 30.1124 20.29 30.0803C20.275 30.0299 20.375 29.9932 20.55 29.984C20.59 29.9795 20.685 29.9153 20.755 29.842C20.85 29.7411 20.915 29.7136 20.995 29.732C21.07 29.7503 21.14 29.7228 21.225 29.6357L21.345 29.5166L21.245 29.3653C21.1 29.1499 20.95 28.7557 21.01 28.7557C21.045 28.7557 21.045 28.7374 21.01 28.6962C20.955 28.632 20.95 28.0224 21.01 28.0224C21.03 28.0224 21.05 27.9904 21.05 27.9491C21.05 27.9033 21.08 27.8849 21.125 27.9033C21.215 27.9354 21.225 27.8574 21.135 27.8208C21.095 27.807 21.1 27.7841 21.16 27.7474C21.21 27.7199 21.25 27.6741 21.25 27.642C21.25 27.5366 21.535 27.3304 21.635 27.367C21.71 27.3945 21.715 27.3854 21.66 27.3258C21.61 27.2662 21.62 27.2479 21.75 27.1975C21.83 27.1654 21.9 27.1195 21.9 27.0966C21.9 27.0737 21.94 27.06 21.985 27.0691C22.035 27.0737 22.1 27.0645 22.13 27.0508C22.245 26.982 22.515 26.9683 22.59 27.0233C22.655 27.0737 22.66 27.0737 22.625 27.0187C22.595 26.9683 22.605 26.9591 22.67 26.982C22.715 27.0004 22.745 26.9958 22.73 26.9729C22.705 26.9362 22.665 26.73 22.63 26.4641C22.625 26.4229 22.605 26.3725 22.59 26.3496C22.52 26.2442 22.62 25.63 22.735 25.4604C22.795 25.3779 22.795 25.3596 22.745 25.3871C22.705 25.41 22.72 25.3825 22.77 25.3275C22.825 25.2725 22.85 25.2267 22.825 25.2267C22.805 25.2267 22.81 25.1992 22.835 25.1671C22.86 25.1396 22.925 25.0113 22.97 24.8921C23.045 24.7134 23.075 24.6767 23.155 24.6996C23.205 24.7179 23.25 24.7088 23.25 24.6859C23.25 24.6584 23.305 24.6446 23.375 24.6492C23.44 24.6584 23.485 24.6492 23.475 24.6263C23.415 24.5392 23.995 24.53 24.11 24.6217C24.225 24.7088 24.305 24.6217 24.255 24.4613C24.23 24.3834 24.225 24.3009 24.24 24.2825C24.26 24.2642 24.25 24.2642 24.215 24.2825C24.14 24.3192 24.105 24.1817 24.16 24.0442C24.185 23.9755 24.18 23.948 24.15 23.9663C24.09 24.003 24.085 24.0076 24.175 23.7509C24.21 23.6317 24.235 23.4896 24.225 23.4392C24.215 23.3888 24.22 23.3567 24.245 23.3659C24.3 23.398 24.45 22.9947 24.465 22.7838C24.47 22.7426 24.49 22.7059 24.515 22.7059C24.54 22.7059 24.55 22.6738 24.535 22.6372C24.515 22.6005 24.525 22.5593 24.555 22.5455C24.58 22.5272 24.59 22.4997 24.58 22.4813C24.565 22.463 24.61 22.4172 24.675 22.3851C24.745 22.353 24.81 22.2888 24.83 22.2384C24.845 22.1926 24.89 22.1559 24.93 22.1559C24.97 22.1559 24.995 22.1284 24.99 22.0964C24.98 22.0643 25.02 22.0414 25.085 22.0459C25.15 22.0505 25.185 22.0322 25.165 21.9955C25.155 21.9634 25.165 21.9222 25.195 21.9039C25.225 21.8901 25.25 21.9039 25.25 21.9359C25.25 21.9818 25.26 21.9818 25.29 21.9405C25.355 21.8489 25.82 21.8534 26.15 21.9497C26.235 21.9726 26.355 22.1101 26.475 22.3118C26.5 22.3576 26.57 22.4126 26.63 22.4355C26.72 22.463 26.735 22.4538 26.73 22.3347C26.725 22.2614 26.71 22.2018 26.69 22.2018C26.635 22.2018 26.66 21.2668 26.72 21.198C26.76 21.1476 26.76 21.1385 26.71 21.166C26.645 21.2026 26.625 21.0972 26.685 21.0376C26.705 21.0193 26.725 20.9506 26.73 20.8818C26.735 20.8131 26.745 20.7489 26.75 20.7351C26.77 20.6939 26.785 20.6206 26.79 20.4877C26.8 20.3868 26.82 20.3639 26.88 20.3868C26.945 20.4097 26.955 20.396 26.935 20.3227C26.92 20.2722 26.93 20.2402 26.955 20.2585C26.98 20.2722 27 20.2585 27 20.231C27 20.2035 27.04 20.1714 27.085 20.1531C27.24 20.1027 27.395 19.9514 27.365 19.8735C27.345 19.8323 27.355 19.8139 27.385 19.8323C27.415 19.8506 27.5 19.8323 27.58 19.8002C27.715 19.7406 28.075 19.7085 28.515 19.7223C28.635 19.7268 28.73 19.7589 28.785 19.8185C28.835 19.8689 28.9 19.9102 28.935 19.9102C28.97 19.9102 28.985 19.9423 28.97 19.9789C28.95 20.0156 28.96 20.0477 28.98 20.0522C29.24 20.0706 29.615 20.2172 29.705 20.3318C29.72 20.3547 29.795 20.3502 29.865 20.3272C29.97 20.2906 30.005 20.2952 30.04 20.3502C30.075 20.4097 30.22 20.4602 30.385 20.4693C30.42 20.4739 30.435 20.4922 30.42 20.5152C30.385 20.5656 30.625 20.7764 30.785 20.8314C30.85 20.8543 30.925 20.9231 30.95 20.9872C30.975 21.0514 31.03 21.1018 31.075 21.1018C31.115 21.1018 31.15 21.1339 31.15 21.1705C31.15 21.2072 31.185 21.2393 31.23 21.2393C31.275 21.2393 31.29 21.2622 31.27 21.2943C31.24 21.3401 31.245 21.3401 31.31 21.2989C31.35 21.2668 31.4 21.2485 31.415 21.2622C31.435 21.276 31.44 21.2714 31.425 21.253C31.41 21.2393 31.435 21.1751 31.48 21.111C31.535 21.0331 31.54 21.0101 31.495 21.0331C31.455 21.056 31.505 20.9918 31.6 20.891C31.695 20.7947 31.79 20.7076 31.81 20.6985C31.835 20.6893 31.85 20.6526 31.85 20.616C31.85 20.5793 31.875 20.5518 31.905 20.5518C31.94 20.5518 31.95 20.506 31.93 20.4327C31.885 20.2677 31.94 20.1256 32.035 20.1577C32.09 20.1806 32.105 20.1622 32.085 20.0981C32.07 20.0477 32.08 20.0018 32.1 19.9927C32.125 19.9835 32.155 19.9148 32.17 19.8414C32.18 19.7635 32.195 19.6948 32.2 19.681C32.205 19.6673 32.21 19.6443 32.205 19.626C32.205 19.6077 32.24 19.6077 32.285 19.6214C32.345 19.6443 32.36 19.6306 32.335 19.5756C32.32 19.5343 32.325 19.4977 32.35 19.4977C32.38 19.4977 32.4 19.4656 32.4 19.4289C32.4 19.3923 32.455 19.3144 32.525 19.2594C32.615 19.1906 32.635 19.1448 32.595 19.1035C32.56 19.0669 32.565 19.0394 32.605 19.0119C32.645 18.9935 32.65 18.9981 32.63 19.0302C32.61 19.0623 32.62 19.0852 32.645 19.0852C32.715 19.0852 32.715 19.0073 32.65 18.9706C32.62 18.9569 32.665 18.8789 32.75 18.7964C32.83 18.714 32.9 18.636 32.9 18.6177C32.9 18.5994 32.965 18.5215 33.045 18.4481C33.125 18.3702 33.205 18.2694 33.22 18.2235C33.24 18.1731 33.3 18.1227 33.355 18.109C33.415 18.0952 33.45 18.0677 33.44 18.0448C33.43 18.0265 33.485 17.9531 33.56 17.8844C33.635 17.8156 33.7 17.7698 33.7 17.7836C33.7 17.7927 33.74 17.7698 33.785 17.7286C33.835 17.6919 33.955 17.614 34.05 17.5544C34.145 17.4994 34.225 17.4307 34.225 17.4032C34.225 17.3527 34.015 17.1052 33.765 16.8578C33.705 16.7982 33.67 16.7478 33.69 16.7478C33.71 16.7478 33.695 16.7294 33.66 16.7065C33.625 16.6882 33.59 16.6286 33.585 16.5736C33.585 16.5186 33.57 16.4865 33.555 16.4957C33.525 16.5278 33.35 16.3765 33.35 16.3169C33.35 16.2482 33.035 15.6799 32.975 15.6386C32.945 15.6203 32.945 15.602 32.965 15.602C32.99 15.602 32.97 15.5699 32.93 15.5286C32.885 15.492 32.86 15.4415 32.875 15.4186C32.89 15.4003 32.865 15.3682 32.82 15.3545C32.78 15.3407 32.755 15.3086 32.775 15.2857C32.79 15.2628 32.78 15.2307 32.75 15.2124C32.725 15.1986 32.7 15.1482 32.7 15.1024C32.7 15.0566 32.665 14.9924 32.625 14.9603C32.56 14.9099 32.56 14.8916 32.61 14.8641C32.655 14.8366 32.655 14.8228 32.615 14.8228C32.585 14.8228 32.53 14.7495 32.5 14.6624C32.465 14.5616 32.42 14.5112 32.385 14.5341C32.35 14.5524 32.355 14.5295 32.395 14.4882C32.46 14.4103 32.455 14.4057 32.34 14.392C32.31 14.392 32.23 14.2957 32.165 14.1812C32.1 14.0666 32.025 13.9658 32 13.9612C31.97 13.952 31.96 13.9245 31.98 13.9016C31.995 13.8787 31.98 13.8603 31.955 13.8603C31.925 13.8603 31.9 13.8191 31.9 13.7687C31.9 13.7183 31.865 13.677 31.825 13.677C31.78 13.677 31.73 13.6403 31.715 13.5945C31.695 13.5533 31.665 13.5074 31.65 13.4937C31.595 13.457 31.5 13.1637 31.53 13.1224C31.545 13.0995 31.52 13.0949 31.475 13.1087C31.425 13.127 31.405 13.1179 31.425 13.072C31.44 13.0399 31.4 12.9529 31.34 12.8841C31.28 12.8154 31.225 12.7145 31.215 12.6595C31.205 12.6045 31.175 12.545 31.14 12.5266C31.11 12.5083 31.1 12.4762 31.12 12.4487C31.135 12.4258 31.115 12.3891 31.07 12.3754C31 12.3525 31 12.3341 31.055 12.27C31.105 12.215 31.105 12.2058 31.06 12.2287C31.02 12.2516 31 12.2287 31 12.1646C31 12.1096 30.98 12.0821 30.95 12.0958C30.92 12.1141 30.9 12.1096 30.905 12.0866C30.935 11.9308 30.885 11.7062 30.805 11.6283C30.75 11.5733 30.72 11.5229 30.735 11.5046C30.75 11.4908 30.75 11.4542 30.74 11.4221C30.725 11.39 30.705 11.3396 30.7 11.3167C30.695 11.2892 30.65 11.2204 30.6 11.1563C30.465 10.9729 30.365 10.7667 30.38 10.6842C30.385 10.6429 30.375 10.6063 30.355 10.6063C30.335 10.6063 30.29 10.5329 30.255 10.4459C30.22 10.3588 30.135 10.2259 30.07 10.1479C29.96 10.0288 29.93 10.0196 29.835 10.07C29.775 10.1021 29.71 10.1434 29.695 10.1663C29.675 10.1846 29.645 10.18 29.625 10.1525C29.6 10.1159 29.565 10.125 29.505 10.1892C29.46 10.2396 29.355 10.2946 29.27 10.3129C29.19 10.3313 29.095 10.3634 29.065 10.3863C29.03 10.4138 28.915 10.4229 28.81 10.4138C28.695 10.4046 28.59 10.4229 28.555 10.455C28.495 10.5192 28.345 10.5329 27.8 10.5284C27.615 10.5238 27.47 10.5009 27.46 10.4734C27.45 10.4459 27.415 10.4367 27.385 10.455C27.295 10.5054 27.185 10.5146 27.125 10.4734C27.1 10.4504 27.04 10.4367 27 10.4367C26.96 10.4321 26.88 10.4184 26.83 10.4C26.75 10.3679 26.74 10.3771 26.76 10.455C26.78 10.5329 26.77 10.5467 26.68 10.5284C26.425 10.4734 26.25 10.4138 26.25 10.3725C26.25 10.345 26.235 10.3359 26.21 10.3496C26.145 10.3863 25.825 10.3038 25.835 10.2534C25.84 10.2304 25.795 10.2167 25.73 10.2259C25.665 10.2396 25.595 10.2259 25.58 10.1984C25.56 10.1709 25.49 10.1479 25.425 10.1479C25.36 10.1479 25.29 10.125 25.275 10.1021C25.26 10.0746 25.2 10.0563 25.145 10.0563C25.095 10.0563 25.05 10.0425 25.05 10.0196C25.05 10.0013 24.955 9.98754 24.835 9.99212C24.72 9.99212 24.61 9.97379 24.595 9.95546C24.565 9.91421 24.28 9.88212 23.93 9.87754C23.78 9.87296 23.745 9.85921 23.77 9.80421C23.785 9.76296 23.77 9.73546 23.73 9.73546C23.69 9.73546 23.65 9.76754 23.63 9.80421C23.59 9.90504 23.46 9.88671 23.39 9.76754C23.355 9.71255 23.335 9.64838 23.34 9.63005C23.345 9.60713 23.33 9.60255 23.305 9.6163C23.28 9.63463 23.195 9.62088 23.115 9.5888C23.04 9.5613 22.92 9.52922 22.85 9.52463C22.415 9.4788 22.2 9.46964 22.22 9.50172C22.235 9.52463 22.19 9.52922 22.125 9.51547C22.055 9.5063 21.985 9.4788 21.975 9.46047C21.945 9.41464 21.3 9.43297 20.935 9.48339ZM10.175 9.85921C10.155 9.93254 10.12 10.0242 10.095 10.07C10.07 10.1159 10.06 10.1709 10.075 10.1938C10.095 10.2213 10.085 10.2396 10.055 10.2396C10.025 10.2396 10.015 10.2946 10.03 10.3771C10.05 10.4596 10.035 10.5421 10 10.5834C9.955 10.6292 9.955 10.6521 9.995 10.6521C10.025 10.6521 10.05 10.6704 10.05 10.6979C10.05 10.7208 10.035 10.7392 10.01 10.7392C9.905 10.7208 9.875 10.7575 9.88 10.9133C9.885 11.0096 9.89 11.1058 9.9 11.1333C9.93 11.2388 9.895 11.3029 9.825 11.2754C9.76 11.2571 9.76 11.2663 9.8 11.3396C9.835 11.3992 9.835 11.4358 9.795 11.4587C9.765 11.4725 9.75 11.5275 9.765 11.5733C9.78 11.6237 9.775 11.6604 9.75 11.6604C9.73 11.6604 9.695 11.7337 9.68 11.8208C9.66 11.9079 9.62 11.9812 9.59 11.9812C9.56 11.9812 9.565 12.0133 9.605 12.0591C9.655 12.1096 9.655 12.1233 9.61 12.1004C9.55 12.0683 9.525 12.1462 9.55 12.3021C9.555 12.3479 9.535 12.3433 9.48 12.2791C9.42 12.2058 9.395 12.1966 9.345 12.2425C9.295 12.2883 9.295 12.3021 9.34 12.3021C9.43 12.3021 9.38 12.5816 9.275 12.632C9.215 12.6641 9.205 12.6916 9.245 12.71C9.28 12.7329 9.25 12.797 9.15 12.8979C9.005 13.0445 8.99 13.182 9.13 13.0766C9.19 13.0308 9.195 13.0354 9.17 13.0995C9.155 13.1408 9.11 13.1729 9.07 13.1729C9.03 13.1729 9.015 13.2004 9.035 13.2508C9.06 13.3058 9.05 13.3149 9 13.2874C8.95 13.2599 8.94 13.2691 8.965 13.3287C8.985 13.3699 8.98 13.3974 8.96 13.3883C8.94 13.3791 8.885 13.4066 8.835 13.457C8.79 13.5029 8.77 13.5395 8.8 13.5395C8.825 13.5395 8.805 13.5808 8.75 13.6312C8.69 13.6862 8.66 13.7458 8.675 13.7687C8.695 13.7962 8.685 13.8145 8.66 13.8145C8.63 13.8145 8.615 13.8512 8.62 13.8924C8.62 13.9383 8.595 13.9703 8.56 13.9658C8.505 13.952 8.49 14.007 8.485 14.2591C8.48 14.3141 8.465 14.3507 8.445 14.337C8.425 14.3278 8.395 14.3553 8.375 14.3966C8.36 14.4424 8.365 14.4837 8.395 14.4928C8.42 14.502 8.4 14.5478 8.35 14.5937C8.295 14.6441 8.265 14.7128 8.28 14.7449C8.295 14.7816 8.27 14.8228 8.23 14.8366C8.185 14.8549 8.135 14.9466 8.12 15.052C8.1 15.162 8.06 15.2353 8.02 15.2353C7.98 15.2353 7.95 15.2811 7.95 15.3499C7.95 15.4232 7.92 15.4645 7.87 15.4645C7.83 15.4645 7.81 15.4828 7.825 15.5103C7.84 15.5332 7.825 15.5561 7.79 15.5561C7.685 15.5561 7.495 15.767 7.53 15.8495C7.55 15.8953 7.53 15.9319 7.48 15.9503C7.435 15.964 7.4 16.0053 7.4 16.0419C7.4 16.0786 7.38 16.1061 7.35 16.1061C7.325 16.1061 7.285 16.1749 7.26 16.2528C7.235 16.3353 7.185 16.3994 7.155 16.3903C7.12 16.3857 7.105 16.3994 7.125 16.4269C7.14 16.4499 7.12 16.4728 7.08 16.4728C7.03 16.4728 7.015 16.5003 7.035 16.5507C7.055 16.6011 7.05 16.6148 7.01 16.5919C6.97 16.569 6.96 16.5828 6.98 16.6286C6.995 16.6698 6.99 16.7019 6.965 16.7019C6.91 16.7019 6.7 17.0503 6.7 17.1373C6.7 17.1694 6.63 17.2198 6.54 17.2565C6.405 17.3069 6.395 17.3207 6.48 17.3482C6.57 17.3802 6.57 17.3848 6.485 17.3848C6.345 17.3894 6.255 17.4994 6.27 17.6369C6.275 17.7011 6.3 17.7515 6.315 17.7469C6.36 17.7286 6.55 18.0127 6.55 18.0998C6.55 18.1365 6.605 18.219 6.67 18.2831C6.74 18.3519 6.78 18.4344 6.765 18.4756C6.75 18.5169 6.8 18.5948 6.895 18.6727C6.98 18.746 7.05 18.8239 7.05 18.8514C7.05 18.8744 7.07 18.9019 7.1 18.911C7.125 18.9156 7.16 18.9981 7.17 19.0852C7.18 19.1723 7.215 19.2502 7.245 19.2594C7.275 19.2685 7.35 19.351 7.405 19.4427C7.46 19.5389 7.545 19.6718 7.6 19.7498C7.655 19.8231 7.73 19.9423 7.765 20.0156C7.8 20.0843 7.845 20.1256 7.865 20.1072C7.885 20.0935 7.9 20.1118 7.9 20.1531C7.9 20.1943 7.955 20.2631 8.025 20.3043C8.095 20.3456 8.15 20.4006 8.15 20.4235C8.15 20.451 8.21 20.5106 8.28 20.561C8.355 20.616 8.395 20.6801 8.375 20.7214C8.36 20.7718 8.37 20.781 8.425 20.7626C8.465 20.7489 8.5 20.7535 8.5 20.7764C8.5 20.7947 8.545 20.8589 8.6 20.9185C8.68 21.001 8.71 21.0101 8.77 20.9643C8.815 20.9368 8.87 20.9231 8.9 20.9414C8.925 20.9551 8.95 20.9506 8.95 20.9231C8.95 20.9001 9.005 20.8864 9.075 20.8956C9.145 20.9001 9.19 20.8956 9.175 20.8818C9.15 20.8589 9.38 20.7351 9.46 20.7351C9.515 20.7351 9.59 20.6801 9.85 20.4418C9.965 20.3364 10.05 20.2906 10.05 20.3272C10.055 20.3639 10.09 20.3364 10.13 20.2677C10.17 20.1943 10.28 20.1072 10.375 20.0752C10.47 20.0385 10.55 19.9789 10.55 19.9468C10.55 19.9056 10.565 19.901 10.59 19.9377C10.615 19.9743 10.665 19.9743 10.75 19.9468C10.85 19.9148 10.86 19.8964 10.8 19.8643C10.74 19.8277 10.75 19.8185 10.835 19.8185C10.9 19.8185 10.95 19.8002 10.95 19.7727C10.95 19.7131 11.17 19.5848 11.29 19.5756C11.35 19.571 11.38 19.5481 11.365 19.5114C11.35 19.4748 11.355 19.4518 11.38 19.461C11.45 19.4748 11.795 19.3464 11.775 19.3144C11.765 19.296 11.845 19.2548 11.95 19.2227C12.06 19.1906 12.15 19.1494 12.15 19.131C12.15 19.1127 12.215 19.0714 12.3 19.0394C12.38 19.0073 12.455 18.9477 12.455 18.9064C12.46 18.8469 12.465 18.8469 12.485 18.911C12.495 18.9569 12.53 18.9935 12.56 18.9935C12.59 18.9935 12.6 18.9477 12.58 18.8789C12.56 18.801 12.58 18.7415 12.655 18.6773C12.715 18.6269 12.745 18.5673 12.73 18.5398C12.71 18.5123 12.77 18.4802 12.875 18.4619C12.97 18.4481 13.05 18.416 13.05 18.3931C13.05 18.3702 13.09 18.3519 13.135 18.3519C13.185 18.3519 13.28 18.3106 13.35 18.2602C13.42 18.2098 13.495 18.1686 13.515 18.1686C13.54 18.1686 13.615 18.1273 13.685 18.0769C13.755 18.0265 13.83 17.9944 13.85 18.0081C13.87 18.0219 13.905 17.999 13.92 17.9577C13.94 17.9119 13.93 17.8981 13.885 17.9165C13.855 17.9348 13.87 17.9119 13.92 17.8752C13.975 17.834 14 17.8019 13.975 17.8019C13.9 17.8019 14.12 17.669 14.2 17.6644C14.24 17.6644 14.33 17.6232 14.395 17.5773C14.465 17.5315 14.55 17.4994 14.585 17.5132C14.62 17.5269 14.65 17.504 14.65 17.4673C14.65 17.4261 14.715 17.3573 14.8 17.3115C14.88 17.2702 14.95 17.2061 14.95 17.1694C14.95 17.1373 14.97 17.1236 15 17.1373C15.025 17.1511 15.05 17.1327 15.05 17.0961C15.05 17.0548 15.085 17.0228 15.125 17.0228C15.165 17.0228 15.22 16.9815 15.25 16.9311C15.28 16.8807 15.32 16.844 15.34 16.844C15.44 16.8578 15.49 16.8303 15.52 16.734C15.545 16.6515 15.56 16.6423 15.6 16.7019C15.64 16.7615 15.65 16.7615 15.65 16.6928C15.65 16.5919 16.08 16.184 16.15 16.2207C16.175 16.2344 16.2 16.2207 16.2 16.1886C16.2 16.1565 16.245 16.1015 16.3 16.0694C16.36 16.0374 16.39 15.9915 16.375 15.9686C16.36 15.9411 16.38 15.9365 16.42 15.9503C16.47 15.9686 16.51 15.9457 16.53 15.8999C16.55 15.8586 16.59 15.8357 16.625 15.8495C16.665 15.8632 16.705 15.8403 16.72 15.8036C16.735 15.7624 16.775 15.7486 16.81 15.767C16.845 15.7853 16.86 15.7853 16.84 15.767C16.8 15.7257 17.075 15.4645 17.155 15.4645C17.185 15.4645 17.195 15.4461 17.18 15.4232C17.15 15.382 17.625 14.9145 17.705 14.9145C17.73 14.9145 17.75 14.8961 17.75 14.8732C17.75 14.8503 17.825 14.7999 17.91 14.7586C18 14.722 18.13 14.6349 18.195 14.5707C18.26 14.5066 18.33 14.4562 18.36 14.4562C18.385 14.4562 18.39 14.4332 18.375 14.4103C18.36 14.3828 18.38 14.3645 18.42 14.3645C18.465 14.3645 18.5 14.3462 18.5 14.3232C18.5 14.3003 18.565 14.2682 18.65 14.2499C18.83 14.2132 18.88 14.1537 18.8 14.0666C18.74 13.9978 18.7 13.4937 18.755 13.4937C18.775 13.4937 18.825 13.4204 18.87 13.3333C18.92 13.2416 18.98 13.182 19.005 13.2004C19.035 13.2141 19.095 13.1866 19.14 13.1408C19.22 13.0583 19.475 12.9575 19.43 13.0262C19.42 13.0445 19.54 13.0537 19.705 13.0537C19.94 13.0491 20 13.0629 20 13.1179C20 13.1774 20.015 13.1729 20.07 13.1041C20.135 13.0216 20.14 13.0262 20.275 13.1362C20.365 13.2141 20.405 13.2829 20.385 13.3287C20.365 13.3699 20.375 13.402 20.4 13.402C20.43 13.402 20.45 13.3837 20.45 13.3562C20.45 13.3333 20.525 13.3608 20.62 13.4158C20.71 13.4708 20.78 13.5258 20.775 13.5395C20.765 13.5533 20.84 13.567 20.935 13.5716C21.125 13.5808 21.265 13.6633 21.215 13.7366C21.2 13.7641 21.21 13.7687 21.24 13.7503C21.27 13.7366 21.31 13.7503 21.335 13.7824C21.405 13.8924 22.06 14.282 22.13 14.2545C22.17 14.2407 22.195 14.2545 22.185 14.2866C22.18 14.3187 22.225 14.3416 22.29 14.3416C22.35 14.3416 22.465 14.4103 22.54 14.4882C22.62 14.5662 22.75 14.6624 22.83 14.7037C22.91 14.7403 23.05 14.8366 23.145 14.9145C23.235 14.9878 23.335 15.052 23.355 15.052C23.38 15.052 23.4 15.0841 23.4 15.1253C23.4 15.162 23.425 15.1803 23.45 15.1666C23.48 15.1528 23.515 15.1711 23.53 15.2124C23.55 15.2536 23.62 15.3132 23.695 15.3499C23.765 15.382 23.91 15.4874 24.015 15.5745C24.115 15.6661 24.22 15.7395 24.245 15.7395C24.265 15.7395 24.34 15.7761 24.405 15.8265C24.615 15.9732 25.23 16.129 25.35 16.0603C25.385 16.0419 25.475 16.0419 25.555 16.0694C25.75 16.1336 25.975 16.0328 25.975 15.877C25.975 15.8128 26.005 15.7349 26.035 15.7028C26.07 15.6707 26.1 15.6157 26.095 15.5882C26.095 15.547 26.085 15.5515 26.065 15.5882C26.055 15.6203 26.01 15.6478 25.97 15.6478C25.915 15.6478 25.91 15.6295 25.95 15.5607C26.02 15.4415 26.015 15.3865 25.94 15.4553C25.835 15.5515 25.8 15.5149 25.82 15.3178C25.835 15.1803 25.815 15.1024 25.745 15.0336C25.69 14.9832 25.65 14.9145 25.65 14.8824C25.65 14.8503 25.615 14.8228 25.575 14.8228C25.535 14.8228 25.5 14.7907 25.5 14.7495C25.5 14.7128 25.43 14.6257 25.35 14.5616C25.265 14.502 25.21 14.4287 25.225 14.4103C25.24 14.3874 25.23 14.3645 25.205 14.3553C25.18 14.3507 25.12 14.2774 25.07 14.2041C24.815 13.8191 24.73 13.7183 24.645 13.6724C24.59 13.6495 24.56 13.6083 24.575 13.5854C24.59 13.5624 24.555 13.5212 24.5 13.4937C24.445 13.4662 24.41 13.4249 24.425 13.3974C24.445 13.3745 24.43 13.3562 24.405 13.3562C24.375 13.3562 24.305 13.3195 24.255 13.2737C24.2 13.2324 24.085 13.1454 23.995 13.0812C23.91 13.017 23.81 12.9437 23.78 12.9208C23.75 12.8933 23.695 12.8704 23.66 12.8612C23.625 12.8566 23.545 12.8108 23.49 12.7604C23.43 12.71 23.365 12.6825 23.34 12.6962C23.32 12.71 23.3 12.6962 23.3 12.6687C23.3 12.6412 23.28 12.6275 23.255 12.6412C23.23 12.655 23.2 12.6366 23.18 12.6C23.165 12.5633 23.12 12.5312 23.075 12.5312C23.035 12.5312 23 12.5083 23 12.4808C23 12.4579 22.985 12.4396 22.96 12.4487C22.94 12.4579 22.81 12.3662 22.675 12.2379C22.535 12.1141 22.46 12.0271 22.5 12.0454C22.545 12.0637 22.54 12.0546 22.485 12.0133C22.44 11.9766 22.4 11.9216 22.4 11.8941C22.4 11.8621 22.38 11.8483 22.355 11.8666C22.33 11.8804 22.28 11.8621 22.24 11.83C22.205 11.7979 22.115 11.7383 22.04 11.6925C21.96 11.6512 21.905 11.5962 21.915 11.5779C21.92 11.5596 21.915 11.5458 21.9 11.5412C21.815 11.5275 21.65 11.4221 21.67 11.39C21.69 11.3625 21.42 11.2158 21.325 11.2021C21.315 11.1975 21.155 11.1242 20.975 11.0371C20.79 10.95 20.6 10.8813 20.55 10.8813C20.505 10.8813 20.435 10.8492 20.4 10.8125C20.365 10.7758 20.31 10.7438 20.28 10.7438C20.245 10.7438 20.13 10.7025 20.025 10.6521C19.91 10.5971 19.71 10.5559 19.56 10.5513C19.42 10.5467 19.3 10.5284 19.3 10.51C19.3 10.4688 18.79 10.3634 18.575 10.3588C18.49 10.3542 18.4 10.3359 18.365 10.3175C18.29 10.2763 17.555 10.2304 16.9 10.2259C16.08 10.2259 16.03 10.2304 16.08 10.2992C16.105 10.3313 16.085 10.3175 16.035 10.2717C15.99 10.2213 15.95 10.2075 15.95 10.235C15.95 10.2625 15.88 10.2854 15.795 10.2854C15.71 10.2854 15.61 10.3175 15.57 10.3542C15.485 10.4321 15.4 10.4459 15.4 10.3771C15.4 10.3542 15.365 10.345 15.325 10.3588C15.285 10.3771 15.265 10.4092 15.285 10.4367C15.305 10.4642 15.29 10.4688 15.25 10.4459C15.17 10.4 14.9 10.3863 14.9 10.4275C14.9 10.4825 14.575 10.4046 14.485 10.3267C14.4 10.2579 14.375 10.2534 14.32 10.3084C14.28 10.3404 14.25 10.3909 14.25 10.4184C14.25 10.4459 14.2 10.4688 14.135 10.4734C14.075 10.4734 13.9 10.4825 13.75 10.4917C13.6 10.4963 13.455 10.4963 13.435 10.4825C13.395 10.4596 13.08 10.4367 12.4 10.4046C12.195 10.3954 11.98 10.3679 11.93 10.3496C11.865 10.3267 11.845 10.3313 11.865 10.3634C11.885 10.3954 11.77 10.3771 11.605 10.3313C11.44 10.2854 11.29 10.2625 11.275 10.2763C11.26 10.2946 11.26 10.2717 11.28 10.2259C11.305 10.1663 11.29 10.1525 11.22 10.18C11.16 10.1984 11.145 10.1938 11.17 10.1525C11.195 10.1159 11.185 10.1021 11.145 10.1067C11.045 10.125 10.855 10.0609 10.635 9.93254C10.53 9.87296 10.425 9.83629 10.405 9.85004C10.38 9.85921 10.35 9.84088 10.33 9.80421C10.285 9.69421 10.205 9.7263 10.175 9.85921ZM28.095 21.0239C28.13 21.056 28.13 21.0926 28.095 21.1339C28.05 21.1797 28.055 21.1935 28.11 21.1935C28.155 21.1935 28.18 21.2576 28.185 21.3951C28.19 21.5097 28.22 21.6472 28.25 21.7022C28.3 21.7801 28.295 21.7939 28.245 21.7664C28.205 21.7434 28.195 21.748 28.22 21.7847C28.24 21.8122 28.27 21.8901 28.28 21.9543C28.305 22.0826 28.41 22.2018 28.495 22.2018C28.525 22.2018 28.55 22.243 28.55 22.2934C28.55 22.3438 28.575 22.3851 28.61 22.3851C28.64 22.3851 28.65 22.3988 28.635 22.4126C28.62 22.4309 28.625 22.4859 28.655 22.5363C28.695 22.6005 28.695 22.6188 28.655 22.5959C28.555 22.5363 28.6 22.6143 28.735 22.7426C28.81 22.8113 28.89 22.8617 28.915 22.8526C28.935 22.848 28.95 22.8801 28.945 22.9213C28.93 23.0405 29 23.1688 29.07 23.1322C29.1 23.1184 29.11 23.1184 29.09 23.1413C29.07 23.1597 29.1 23.2559 29.155 23.3522C29.21 23.453 29.23 23.5309 29.2 23.5309C29.175 23.5309 29.15 23.5538 29.15 23.5859C29.15 23.6134 29.195 23.5996 29.25 23.5538C29.35 23.4713 29.35 23.4713 29.32 23.6134C29.3 23.7142 29.305 23.7601 29.345 23.7601C29.38 23.7601 29.395 23.7417 29.38 23.7234C29.37 23.7051 29.375 23.6592 29.4 23.6226C29.445 23.5538 29.45 23.5584 29.52 23.7738C29.53 23.8059 29.6 23.8609 29.68 23.8976C29.865 23.9846 29.955 24.0625 29.915 24.0992C29.895 24.113 29.91 24.1267 29.945 24.1267C29.98 24.1267 29.99 24.1496 29.975 24.1725C29.955 24.2 29.96 24.2138 29.985 24.2092C30.045 24.1955 30.35 24.3513 30.35 24.3971C30.35 24.42 30.42 24.4521 30.5 24.4705C30.585 24.4888 30.64 24.5163 30.63 24.53C30.61 24.5575 30.87 24.585 31.2 24.5896C31.27 24.5942 31.34 24.6125 31.355 24.6354C31.415 24.7225 31.575 24.608 31.585 24.4705C31.59 24.3925 31.6 24.2917 31.605 24.2413C31.61 24.1909 31.595 24.0855 31.575 24.0076C31.545 23.8884 31.555 23.8563 31.635 23.8334C31.76 23.7967 31.78 23.6226 31.65 23.6546C31.55 23.6776 31.24 23.4942 31.28 23.4347C31.3 23.4026 31.115 23.0772 31.05 23.0267C31.03 23.013 31 22.9717 30.98 22.9351C30.885 22.7472 30.81 22.6647 30.775 22.6968C30.755 22.7151 30.75 22.6693 30.77 22.5959C30.8 22.4905 30.79 22.4722 30.73 22.4905C30.68 22.5088 30.62 22.4768 30.57 22.4034C30.365 22.1239 29.6 21.5143 29.6 21.638C29.6 21.6564 29.545 21.6151 29.475 21.5418C29.405 21.4685 29.35 21.3768 29.35 21.3401C29.35 21.2989 29.32 21.2851 29.27 21.3035C29.23 21.3172 29.14 21.2989 29.07 21.2576C29.005 21.2164 28.95 21.198 28.95 21.221C28.95 21.2393 28.925 21.2347 28.89 21.2026C28.855 21.1705 28.79 21.1476 28.745 21.1476C28.695 21.1476 28.65 21.1247 28.64 21.0926C28.625 21.056 28.535 21.0376 28.41 21.0422C28.295 21.0468 28.2 21.0331 28.2 21.0147C28.2 20.9964 28.165 20.9781 28.125 20.9781C28.07 20.9781 28.065 20.9964 28.095 21.0239ZM25.72 23.2101C25.715 23.5676 25.605 23.9296 25.495 23.9571C25.435 23.9709 25.41 24.0076 25.43 24.0534C25.46 24.1221 25.405 24.1496 25.285 24.1313C25.235 24.1267 25.295 24.3421 25.385 24.5025C25.42 24.5759 25.475 24.6309 25.5 24.6309C25.53 24.6309 25.55 24.6675 25.555 24.7088C25.555 24.7638 25.565 24.7729 25.585 24.7317C25.615 24.6629 25.9 25.0204 25.9 25.1213C25.9 25.1579 25.935 25.1671 25.985 25.1488C26.035 25.135 26.06 25.135 26.04 25.1534C26.025 25.1717 26.075 25.2542 26.155 25.3275C26.235 25.4054 26.3 25.4833 26.3 25.5063C26.3 25.5246 26.38 25.6163 26.475 25.7125C26.57 25.8042 26.65 25.8637 26.65 25.8454C26.65 25.8271 26.695 25.8637 26.755 25.9279C26.81 25.9967 26.885 26.0471 26.915 26.0379C26.95 26.0333 26.97 26.0654 26.96 26.1067C26.95 26.1525 26.97 26.1892 27 26.1892C27.025 26.1892 27.06 26.1892 27.075 26.1892C27.135 26.1892 27.3 26.3771 27.275 26.4183C27.26 26.4412 27.275 26.4733 27.305 26.4916C27.345 26.51 27.35 26.5054 27.33 26.4733C27.31 26.4412 27.315 26.4183 27.345 26.4183C27.415 26.4183 27.51 26.5925 27.475 26.6475C27.46 26.675 27.48 26.6933 27.52 26.6933C27.56 26.6933 27.61 26.7346 27.625 26.785C27.64 26.8354 27.68 26.8766 27.705 26.8766C27.735 26.8766 27.74 26.8996 27.725 26.9225C27.705 26.95 27.71 26.9683 27.735 26.9637C27.84 26.9454 27.89 26.9775 27.92 27.0691C27.945 27.1562 27.96 27.1654 28 27.1058C28.035 27.06 28.05 27.0554 28.05 27.0966C28.05 27.1516 28.285 27.2662 28.365 27.2479C28.39 27.2433 28.475 27.2845 28.555 27.3395L28.705 27.4358L28.84 27.3304C29.035 27.1654 29.225 26.9545 29.215 26.9133C29.205 26.895 29.235 26.8766 29.275 26.8766C29.315 26.8766 29.355 26.8491 29.355 26.8171C29.36 26.7896 29.37 26.7162 29.375 26.6566C29.38 26.6016 29.4 26.5421 29.42 26.5237C29.435 26.51 29.425 26.4687 29.395 26.4321C29.35 26.3908 29.355 26.3725 29.395 26.3725C29.43 26.3725 29.42 26.3267 29.365 26.2533C29.32 26.1846 29.27 26.0883 29.265 26.0333C29.255 25.9829 29.205 25.8729 29.15 25.7904C29.085 25.6896 29.075 25.6392 29.115 25.6208C29.15 25.6117 29.135 25.5979 29.08 25.5979C29.02 25.5933 29 25.5704 29.015 25.5292C29.035 25.4788 29.02 25.4696 28.965 25.4879C28.91 25.5063 28.895 25.4971 28.92 25.465C28.935 25.4375 28.905 25.3917 28.85 25.3642C28.79 25.3321 28.755 25.2817 28.77 25.2496C28.785 25.2129 28.775 25.1717 28.755 25.1625C28.73 25.1488 28.7 25.0754 28.685 25.0067C28.67 24.9334 28.61 24.8234 28.55 24.7638C28.495 24.7042 28.345 24.5071 28.225 24.333C27.815 23.7463 27.46 23.4438 27.095 23.3705C27 23.3522 26.89 23.3109 26.845 23.2742C26.805 23.2422 26.725 23.2055 26.67 23.1963C26.62 23.1872 26.51 23.1551 26.43 23.123C26.35 23.0955 26.275 23.0772 26.265 23.0909C26.25 23.1001 26.17 23.0817 26.085 23.0451C25.81 22.9351 25.725 22.9717 25.72 23.2101ZM24.22 25.9004C24.23 25.9737 24.25 26.0608 24.265 26.0975C24.325 26.2579 24.335 26.3725 24.29 26.3725C24.26 26.3725 24.275 26.4229 24.32 26.4871C24.365 26.5512 24.39 26.6016 24.375 26.6016C24.33 26.6016 24.485 26.8537 24.57 26.9179C24.615 26.95 24.635 26.9958 24.62 27.0187C24.605 27.0416 24.615 27.06 24.64 27.06C24.685 27.06 24.735 27.1562 24.775 27.335C24.785 27.3716 24.82 27.4083 24.845 27.4175C24.875 27.4266 24.9 27.4633 24.9 27.5C24.9 27.5366 24.935 27.5641 24.98 27.5641C25.02 27.5641 25.04 27.5824 25.025 27.6099C25.01 27.6329 25.02 27.6558 25.055 27.6558C25.09 27.6558 25.1 27.6695 25.085 27.6879C25.065 27.7016 25.075 27.7429 25.105 27.7795C25.15 27.8208 25.145 27.8391 25.105 27.8391C25.075 27.8391 25.05 27.862 25.05 27.8895C25.05 27.9262 25.075 27.9216 25.125 27.8849C25.19 27.8345 25.215 27.8391 25.275 27.9124C25.315 27.9583 25.34 28.0224 25.33 28.0499C25.32 28.0774 25.33 28.1278 25.355 28.1645C25.39 28.2149 25.4 28.2103 25.4 28.137C25.405 28.0545 25.405 28.0499 25.455 28.1233C25.48 28.1691 25.54 28.2058 25.575 28.2058C25.615 28.2058 25.65 28.2333 25.65 28.2653C25.65 28.2974 25.715 28.3708 25.8 28.4258C25.895 28.4899 25.935 28.5541 25.915 28.5953C25.895 28.6549 25.915 28.6641 26.02 28.6458C26.09 28.632 26.15 28.6412 26.15 28.6641C26.15 28.687 26.22 28.742 26.3 28.7878C26.385 28.8337 26.44 28.8932 26.43 28.9207C26.415 28.9574 26.45 28.9712 26.525 28.962C26.685 28.9482 27 28.8062 27 28.7557C27 28.7282 27.03 28.7099 27.065 28.7099C27.19 28.7099 27.315 28.5358 27.315 28.357C27.325 28.1004 27.21 27.9216 26.945 27.7566C26.76 27.6466 26.71 27.5916 26.725 27.5137C26.745 27.4358 26.735 27.4266 26.675 27.4725C26.615 27.5183 26.6 27.5183 26.6 27.4633C26.6 27.3991 26.335 27.1058 26.275 27.1058C26.21 27.1058 26.095 26.9683 26.125 26.9225C26.155 26.8812 26.085 26.8583 25.985 26.8721C25.965 26.8766 25.935 26.84 25.915 26.7987C25.895 26.7529 25.85 26.6979 25.815 26.6796C25.78 26.6566 25.76 26.6246 25.775 26.6016C25.79 26.5787 25.78 26.5512 25.75 26.5329C25.725 26.5191 25.7 26.4641 25.7 26.4137C25.7 26.3633 25.645 26.2717 25.58 26.2121C25.51 26.1525 25.445 26.0562 25.425 26.0058C25.395 25.9187 25.235 25.8912 24.865 25.9004C24.83 25.905 24.81 25.8867 24.825 25.8683C24.84 25.85 24.74 25.8408 24.6 25.8454C24.465 25.8546 24.34 25.8454 24.325 25.8179C24.265 25.7308 24.2 25.7812 24.22 25.9004ZM23.185 28.2195C23.095 28.1828 22.885 28.1737 22.675 28.2012C22.615 28.2058 22.61 28.4349 22.67 28.4349C22.695 28.4349 22.69 28.4624 22.655 28.4945C22.615 28.5403 22.62 28.5724 22.66 28.6091C22.705 28.6503 22.705 28.6641 22.655 28.6641C22.61 28.6641 22.615 28.687 22.67 28.7374C22.765 28.8199 22.77 28.8657 22.695 28.9941C22.655 29.0628 22.655 29.0812 22.695 29.0582C22.73 29.0353 22.75 29.0674 22.75 29.1316C22.75 29.1912 22.77 29.2691 22.8 29.3057C22.83 29.347 22.825 29.3974 22.785 29.4386C22.74 29.4936 22.74 29.4982 22.785 29.4707C22.845 29.4432 22.875 29.5211 22.855 29.6357C22.855 29.6586 22.885 29.6724 22.93 29.6724C22.99 29.6724 23.005 29.7045 22.99 29.7824C22.97 29.8603 23.005 29.9107 23.11 29.9749C23.185 30.0207 23.25 30.0849 23.25 30.1078C23.25 30.1628 23.43 30.314 23.495 30.314C23.52 30.314 23.555 30.3461 23.57 30.3874C23.585 30.424 23.62 30.4469 23.645 30.4286C23.67 30.4149 23.73 30.4515 23.775 30.5065C23.83 30.5844 23.865 30.5982 23.89 30.5524C23.92 30.5111 23.95 30.5294 24 30.6119C24.05 30.6944 24.08 30.7128 24.11 30.6715C24.135 30.6303 24.15 30.6349 24.15 30.6944C24.15 30.7449 24.175 30.7632 24.205 30.7449C24.235 30.7311 24.28 30.7449 24.305 30.7769C24.345 30.8274 24.375 30.8136 24.465 30.7128C24.53 30.644 24.625 30.589 24.675 30.589C24.765 30.5844 24.765 30.5799 24.695 30.5294C24.61 30.4699 24.615 30.4653 24.815 30.259C24.925 30.149 24.985 29.9015 24.905 29.9015C24.88 29.9015 24.865 29.8328 24.875 29.7457C24.885 29.6311 24.875 29.5945 24.83 29.6082C24.79 29.622 24.71 29.5303 24.62 29.3653C24.54 29.2232 24.435 29.0628 24.38 29.0078C24.33 28.9574 24.26 28.852 24.225 28.7787C24.19 28.7007 24.1 28.5953 24.025 28.5358C23.955 28.4808 23.91 28.4074 23.93 28.3799C23.95 28.3478 23.945 28.3433 23.91 28.3616C23.875 28.3799 23.85 28.3662 23.85 28.3203C23.85 28.2791 23.825 28.2608 23.8 28.2745C23.77 28.2883 23.75 28.2791 23.75 28.2516C23.75 28.2149 23.72 28.2149 23.65 28.2516C23.57 28.2928 23.55 28.2883 23.55 28.2333C23.55 28.1737 23.53 28.1691 23.425 28.2149C23.34 28.2516 23.265 28.2516 23.185 28.2195Z" fill="black"/>
</svg>
