<svg width="189" height="153" viewBox="0 0 189 153" fill="none" xmlns="http://www.w3.org/2000/svg">
<mask id="mask0" mask-type="alpha" maskUnits="userSpaceOnUse" x="0" y="0" width="189" height="153">
<rect width="189" height="153" rx="16" fill="#FFF3E0"/>
</mask>
<g mask="url(#mask0)">
<mask id="mask1" mask-type="alpha" maskUnits="userSpaceOnUse" x="0" y="-223" width="1130" height="376">
<rect y="-223" width="1130" height="376" rx="16" fill="#F4F4F4"/>
</mask>
<g mask="url(#mask1)">
<path fill-rule="evenodd" clip-rule="evenodd" d="M67.5611 49.072C64.6322 52.0009 59.8834 52.0009 56.9545 49.072C54.0256 46.1431 54.0256 41.3943 56.9545 38.4654C59.8834 35.5365 64.6322 35.5365 67.5611 38.4654C70.49 41.3943 70.49 46.1431 67.5611 49.072ZM30.7904 22.9099C33.7194 25.8388 38.4681 25.8388 41.3971 22.9099C44.326 19.981 44.326 15.2322 41.3971 12.3033C38.4681 9.37437 33.7194 9.37437 30.7904 12.3033C27.8615 15.2322 27.8615 19.981 30.7904 22.9099ZM-21.5338 75.2361C-18.6048 78.165 -13.8561 78.165 -10.9272 75.2361C-7.99823 72.3071 -7.99823 67.5584 -10.9272 64.6295C-13.8561 61.7005 -18.6048 61.7005 -21.5338 64.6295C-24.4627 67.5584 -24.4627 72.3071 -21.5338 75.2361ZM15.233 49.072C12.3041 52.0009 7.55532 52.0009 4.62639 49.072C1.69746 46.1431 1.69746 41.3943 4.62639 38.4654C7.55532 35.5365 12.3041 35.5365 15.233 38.4654C18.1619 41.3943 18.1619 46.1431 15.233 49.072ZM-47.6978 101.398C-44.7689 104.327 -40.0202 104.327 -37.0912 101.398C-34.1623 98.4692 -34.1623 93.7205 -37.0912 90.7916C-40.0202 87.8626 -44.7689 87.8626 -47.6978 90.7916C-50.6268 93.7205 -50.6268 98.4692 -47.6978 101.398ZM4.62639 101.398C7.55532 104.327 12.3041 104.327 15.233 101.398C18.1619 98.4692 18.1619 93.7205 15.233 90.7916C12.3041 87.8626 7.55532 87.8626 4.62639 90.7916C1.69746 93.7205 1.69746 98.4692 4.62639 101.398ZM41.3971 75.2361C38.4681 78.165 33.7194 78.165 30.7904 75.2361C27.8615 72.3071 27.8615 67.5584 30.7904 64.6295C33.7194 61.7005 38.4681 61.7005 41.3971 64.6295C44.326 67.5584 44.326 72.3071 41.3971 75.2361ZM-21.5338 127.562C-18.6048 130.491 -13.8561 130.491 -10.9272 127.562C-7.99823 124.633 -7.99823 119.885 -10.9272 116.956C-13.8561 114.027 -18.6048 114.027 -21.5338 116.956C-24.4627 119.885 -24.4627 124.633 -21.5338 127.562ZM93.7213 75.2361C90.7923 78.165 86.0436 78.165 83.1147 75.2361C80.1857 72.3071 80.1857 67.5584 83.1147 64.6295C86.0436 61.7005 90.7923 61.7005 93.7213 64.6295C96.6502 67.5584 96.6502 72.3071 93.7213 75.2361ZM30.7904 127.562C33.7194 130.491 38.4681 130.491 41.3971 127.562C44.326 124.633 44.326 119.885 41.3971 116.956C38.4681 114.027 33.7194 114.027 30.7904 116.956C27.8615 119.885 27.8615 124.633 30.7904 127.562ZM67.5611 101.398C64.6322 104.327 59.8834 104.327 56.9545 101.398C54.0256 98.4692 54.0256 93.7205 56.9545 90.7916C59.8834 87.8626 64.6322 87.8626 67.5611 90.7916C70.49 93.7205 70.49 98.4692 67.5611 101.398ZM4.62639 153.724C7.55532 156.653 12.3041 156.653 15.233 153.724C18.1619 150.795 18.1619 146.047 15.233 143.118C12.3041 140.189 7.55532 140.189 4.62639 143.118C1.69746 146.047 1.69746 150.795 4.62639 153.724ZM119.885 101.398C116.956 104.327 112.208 104.327 109.279 101.398C106.35 98.4692 106.35 93.7205 109.279 90.7916C112.208 87.8626 116.956 87.8626 119.885 90.7916C122.814 93.7205 122.814 98.4692 119.885 101.398ZM56.9545 153.724C59.8834 156.653 64.6322 156.653 67.5611 153.724C70.49 150.795 70.49 146.047 67.5611 143.118C64.6322 140.189 59.8834 140.189 56.9545 143.118C54.0256 146.047 54.0256 150.795 56.9545 153.724ZM93.7213 127.562C90.7923 130.491 86.0436 130.491 83.1147 127.562C80.1857 124.633 80.1857 119.885 83.1147 116.956C86.0436 114.027 90.7923 114.027 93.7213 116.956C96.6502 119.885 96.6502 124.633 93.7213 127.562ZM30.7904 179.888C33.7194 182.817 38.4681 182.817 41.3971 179.888C44.326 176.959 44.326 172.211 41.3971 169.282C38.4681 166.353 33.7194 166.353 30.7904 169.282C27.8615 172.211 27.8615 176.959 30.7904 179.888ZM146.049 127.562C143.12 130.491 138.372 130.491 135.443 127.562C132.514 124.633 132.514 119.885 135.443 116.956C138.372 114.027 143.12 114.027 146.049 116.956C148.978 119.885 148.978 124.633 146.049 127.562ZM83.1147 179.888C86.0436 182.817 90.7923 182.817 93.7213 179.888C96.6502 176.959 96.6502 172.211 93.7213 169.282C90.7923 166.353 86.0436 166.353 83.1147 169.282C80.1857 172.211 80.1857 176.959 83.1147 179.888ZM119.885 153.724C116.956 156.653 112.208 156.653 109.279 153.724C106.35 150.795 106.35 146.047 109.279 143.118C112.208 140.189 116.956 140.189 119.885 143.118C122.814 146.047 122.814 150.795 119.885 153.724ZM56.9545 206.051C59.8834 208.979 64.6322 208.979 67.5611 206.051C70.4901 203.122 70.4901 198.373 67.5611 195.444C64.6322 192.515 59.8834 192.515 56.9545 195.444C54.0256 198.373 54.0256 203.122 56.9545 206.051ZM172.213 153.724C169.285 156.653 164.536 156.653 161.607 153.724C158.678 150.795 158.678 146.047 161.607 143.118C164.536 140.189 169.285 140.189 172.213 143.118C175.142 146.047 175.142 150.795 172.213 153.724ZM109.279 206.051C112.208 208.979 116.956 208.979 119.885 206.051C122.814 203.122 122.814 198.373 119.885 195.444C116.956 192.515 112.208 192.515 109.279 195.444C106.35 198.373 106.35 203.122 109.279 206.051ZM146.049 179.888C143.12 182.817 138.372 182.817 135.443 179.888C132.514 176.959 132.514 172.211 135.443 169.282C138.372 166.353 143.12 166.353 146.049 169.282C148.978 172.211 148.978 176.959 146.049 179.888ZM83.1147 232.213C86.0436 235.142 90.7923 235.142 93.7213 232.213C96.6502 229.284 96.6502 224.535 93.7213 221.606C90.7923 218.677 86.0436 218.677 83.1147 221.606C80.1857 224.535 80.1857 229.284 83.1147 232.213Z" fill="white"/>
</g>
</g>
</svg>
