<svg width="120" height="120" viewBox="0 0 120 120" fill="none" xmlns="http://www.w3.org/2000/svg">
<rect width="120" height="120" fill="#EFFAEA"/>
<mask id="mask0" mask-type="alpha" maskUnits="userSpaceOnUse" x="0" y="0" width="120" height="120">
<rect width="120" height="120" fill="#C4C4C4"/>
</mask>
<g mask="url(#mask0)">
<path d="M74.6668 46.6665C74.6668 39.884 72.0823 33.3562 67.4393 28.412C62.7963 23.4677 56.4437 20.4784 49.6745 20.0525C42.9053 19.6266 36.2282 21.7961 31.0021 26.1195C25.7761 30.4429 22.3938 36.5952 21.5437 43.3243C20.6936 50.0534 22.4396 56.8536 26.4263 62.3408C30.413 67.8281 36.3408 71.59 43.0033 72.8609C49.6657 74.1318 56.5621 72.8163 62.2888 69.182C68.0155 65.5477 72.1422 59.8678 73.829 53.2983L48.0001 46.6665H74.6668Z" fill="#00CD92"/>
<ellipse cx="94.6666" cy="120" rx="53.3333" ry="53.3333" fill="#00CD92"/>
</g>
</svg>
