<svg width="129" height="26" viewBox="0 0 129 26" fill="none" xmlns="http://www.w3.org/2000/svg">
<path d="M19.677 3.3488L18.657 4.36808V0.0404762H20.1201C20.3691 0.0399976 20.6176 0.061575 20.8628 0.104956V4.42016L19.677 3.3488ZM21.5213 0.283516V5.928L19.6968 4.2664L17.9886 5.98008V0.0280762H4.70175C4.15355 0.0280737 3.61074 0.136443 3.10443 0.346973C2.59811 0.557503 2.13825 0.866055 1.75119 1.25495C1.36413 1.64384 1.05748 2.10542 0.848826 2.61325C0.640168 3.12107 0.533599 3.66516 0.535228 4.21432V19.6598C0.535228 20.7667 0.9742 21.8284 1.75557 22.6111C2.53695 23.3939 3.59672 23.8336 4.70175 23.8336H7.02392C7.50981 23.8326 7.99083 23.7365 8.43999 23.5509C8.50843 23.5239 8.57537 23.4933 8.64052 23.4591C8.89393 23.3353 9.13094 23.1804 9.34608 22.9978C10.2447 22.2836 11.5048 20.7658 11.6707 17.7675C11.7895 16.4159 10.6582 15.2156 9.16783 15.2156H7.57599C5.93215 15.2156 4.57797 14.0599 4.38239 12.5645C4.38141 12.5455 4.38141 12.5264 4.38239 12.5074C4.38239 12.4479 4.38239 12.3859 4.38239 12.3264C4.38239 12.2669 4.38239 12.2421 4.38239 12.1999C4.38239 12.1478 4.38239 12.0982 4.38239 12.0462C4.38239 11.9941 4.38239 11.9445 4.38239 11.8949C4.38239 11.8453 4.39972 11.7907 4.40715 11.7411C4.41278 11.6919 4.42105 11.6431 4.43191 11.5948C4.43191 11.5427 4.45914 11.4956 4.47152 11.4435C4.4839 11.3914 4.49627 11.3493 4.51113 11.3022C4.52598 11.255 4.54826 11.2079 4.56559 11.1583C4.58292 11.1087 4.59778 11.069 4.62006 11.0244C4.64234 10.9798 4.66462 10.9351 4.6869 10.888L4.75374 10.759C4.7785 10.7169 4.80821 10.6722 4.83791 10.6301C4.86762 10.5879 4.88743 10.5482 4.91466 10.5086C4.94189 10.4689 4.97903 10.4292 5.01121 10.3895C5.04339 10.3498 5.06815 10.3126 5.10033 10.2754C5.13252 10.2382 5.17213 10.201 5.20926 10.1638C5.2464 10.1266 5.27363 10.0944 5.30829 10.0622C5.34295 10.0299 5.38998 9.99024 5.43207 9.95552C5.47416 9.9208 5.50139 9.89352 5.53852 9.86624L5.66973 9.772L5.78609 9.69016L5.9272 9.6108L6.05098 9.53888C6.10297 9.5116 6.15744 9.48928 6.2119 9.46696L6.33321 9.40992L6.51641 9.34792L6.63029 9.30824L6.81596 9.2636L6.93974 9.23384L7.1576 9.2016H7.2591C7.31852 9.2016 7.37793 9.2016 7.43735 9.2016H7.58836C7.68739 9.2016 7.78642 9.2016 7.88297 9.21648H7.95724C8.04636 9.21648 8.13548 9.2388 8.21966 9.25368H8.24194C8.70906 9.33922 9.15134 9.5278 9.53671 9.80575C9.92207 10.0837 10.2409 10.4441 10.47 10.8607C10.0603 9.99458 9.41175 9.26398 8.60091 8.7552C8.69751 8.48688 8.82461 8.23058 8.97968 7.99136C8.98977 7.97228 9.00136 7.95403 9.01434 7.9368C9.06138 7.86736 9.10594 7.80288 9.15793 7.7384C9.17305 7.71666 9.1896 7.69595 9.20744 7.6764C9.25696 7.61192 9.30894 7.54992 9.36341 7.4904L9.38816 7.46312C9.49679 7.34775 9.61167 7.23847 9.73228 7.13576L9.81398 7.06632C9.86349 7.02664 9.91795 6.98696 9.96747 6.95224C10.0088 6.92023 10.0518 6.89043 10.0962 6.86296C10.1457 6.82824 10.1952 6.796 10.2447 6.76624C10.2967 6.734 10.3512 6.70672 10.4032 6.67696L10.5443 6.60008C10.626 6.5604 10.7077 6.5232 10.7919 6.48848L10.9082 6.44136C10.9998 6.40664 11.0914 6.3744 11.188 6.34712L11.3093 6.3124C11.386 6.29256 11.4652 6.27272 11.5568 6.25784L11.688 6.23056C11.7722 6.21568 11.8564 6.20576 11.9356 6.19584L12.052 6.18096C12.1782 6.18096 12.2995 6.1636 12.4307 6.1636C12.562 6.1636 12.6932 6.1636 12.8219 6.18096L12.9482 6.19832L13.1957 6.23304L13.3393 6.26528L13.5646 6.31984L13.7131 6.36696C13.7824 6.3868 13.8518 6.4116 13.9186 6.4364L14.0647 6.49592L14.2603 6.58272L14.3989 6.65216L14.5846 6.7588L14.7133 6.83568L14.894 6.96464C14.9312 6.99192 14.9708 7.01672 15.0054 7.04648C15.0401 7.07624 15.1366 7.1556 15.201 7.21264C15.2277 7.23362 15.2533 7.25597 15.2777 7.2796C15.3645 7.35792 15.4471 7.4407 15.5253 7.5276L15.5922 7.60944C15.6441 7.67144 15.6961 7.73592 15.7456 7.80288C15.7952 7.86984 15.7976 7.87976 15.8249 7.91944C15.8521 7.95912 15.9041 8.036 15.9412 8.098C15.9784 8.16 15.9883 8.18728 16.013 8.22944C16.0378 8.2716 16.0774 8.34848 16.1046 8.41048C16.1318 8.47248 16.1492 8.50472 16.169 8.55184C16.1888 8.59896 16.2185 8.67584 16.2408 8.73784C16.2631 8.79984 16.2754 8.83704 16.2903 8.88912C16.3051 8.9412 16.3249 9.00568 16.3398 9.0652C16.3398 9.0652 16.3398 9.0652 16.3398 9.08256C16.3398 9.13464 16.3646 9.18424 16.3745 9.23632C16.4224 9.46885 16.4464 9.70568 16.4463 9.94312C16.4435 10.3669 16.3655 10.7867 16.216 11.1831C16.5966 10.5865 16.8245 9.90502 16.8795 9.19912C17.0188 9.17594 17.1593 9.16022 17.3004 9.152C19.068 9.17928 20.4915 10.5582 20.4692 12.2173C20.4469 13.8764 19.0135 15.2057 17.2508 15.2057H15.6516C14.1662 15.2057 13.0299 16.406 13.1487 17.7576C13.3121 20.7584 14.5771 22.296 15.4733 22.9978C15.6885 23.1804 15.9255 23.3353 16.1789 23.4591C16.244 23.4933 16.311 23.5239 16.3794 23.5509C16.8286 23.7365 17.3096 23.8326 17.7955 23.8336H20.1201C21.2247 23.8329 22.2839 23.3929 23.0647 22.6102C23.8455 21.8276 24.2842 20.7663 24.2842 19.6598V4.21432C24.2844 3.35372 24.019 2.5141 23.5244 1.81043C23.0298 1.10676 22.3302 0.573449 21.5213 0.283516V0.283516ZM32.3028 19.6275H35.4617V14.4195H38.6628C41.386 14.4195 43.827 12.6066 43.827 9.37768C43.827 6.14872 41.386 4.35816 38.6628 4.35816H32.3028V19.6275ZM35.4617 11.6618V7.106H38.4325C39.8065 7.106 40.72 8.04344 40.72 9.3752C40.72 10.707 39.8065 11.6667 38.4325 11.6667L35.4617 11.6618ZM49.1843 19.6722C49.7699 19.6606 50.3519 19.5773 50.9173 19.4242L50.6127 16.7606C50.4148 16.822 50.2084 16.8513 50.0013 16.8474C49.2165 16.8474 48.4763 16.411 48.4763 15.2999V3.26448H45.4164V15.8778C45.4164 18.2784 46.8993 19.6771 49.1843 19.6771V19.6722ZM56.5494 19.8234C58.1833 19.8234 59.2949 19.2134 60.0995 18.2734V19.6275H63.1495V8.8296H60.0995V10.1837C59.2949 9.22392 58.1833 8.63368 56.5494 8.63368C53.6727 8.63368 51.5164 11.0566 51.5164 14.2211C51.5164 17.3856 53.6727 19.8284 56.5494 19.8284V19.8234ZM57.3119 17.1401C55.7423 17.1401 54.5441 15.9001 54.5441 14.2162C54.5441 12.5322 55.7423 11.2898 57.3119 11.2898C58.8814 11.2898 60.0995 12.5298 60.0995 14.2162C60.0995 15.9026 58.8913 17.145 57.3119 17.145V17.1401ZM65.4815 25.0761C68.3335 25.0761 70.2942 24.0717 71.4231 21.3214L76.6121 8.8296H73.3665L70.6012 16.5771L67.769 8.8296H64.5234L69.0539 19.5234L68.7271 20.2872C68.3335 21.5743 67.2665 22.2067 65.7563 22.229L65.4815 25.0761ZM84.5663 19.816C87.4406 19.816 89.5969 17.3732 89.5969 14.2087C89.5969 11.0442 87.4406 8.62128 84.5663 8.62128C82.9324 8.62128 81.8208 9.25368 81.0138 10.1936V3.2496H77.9539V19.6176H81.0039V18.2586C81.4422 18.771 81.99 19.1782 82.6066 19.4499C83.2233 19.7216 83.893 19.851 84.5663 19.8284V19.816ZM83.8014 17.1326C82.2343 17.1326 81.0138 15.8926 81.0138 14.2087C81.0138 12.5248 82.2343 11.2823 83.8014 11.2823C85.3684 11.2823 86.5469 12.5223 86.5469 14.2087C86.5469 15.8951 85.3808 17.145 83.8014 17.145V17.1326ZM96.6549 19.9251C97.7856 19.908 98.8859 19.556 99.8172 18.9135C100.749 18.2711 101.469 17.3669 101.889 16.3149C102.308 15.2629 102.407 14.1101 102.173 13.0018C101.94 11.8934 101.384 10.8791 100.576 10.0866C99.7681 9.29413 98.7441 8.75889 97.633 8.54834C96.5219 8.33779 95.3735 8.46134 94.3324 8.90344C93.2913 9.34553 92.4041 10.0864 91.7826 11.0327C91.161 11.979 90.8329 13.0884 90.8396 14.2211C90.8547 15.7515 91.4756 17.2133 92.5661 18.2852C93.6566 19.3571 95.1273 19.9514 96.6549 19.9375V19.9251ZM96.6549 17.0657C95.1696 17.088 93.9986 15.8654 93.9986 14.2286C93.9986 12.5918 95.1745 11.3617 96.6549 11.384C98.1403 11.3617 99.3138 12.5843 99.3138 14.241C99.3138 15.8976 98.1379 17.1004 96.6549 17.088V17.0657ZM109.617 19.9375C110.748 19.9204 111.848 19.5684 112.78 18.9259C113.711 18.2835 114.432 17.3793 114.851 16.3273C115.27 15.2753 115.369 14.1225 115.136 13.0142C114.902 11.9058 114.347 10.8915 113.539 10.099C112.731 9.30653 111.707 8.77129 110.596 8.56074C109.484 8.35019 108.336 8.47374 107.295 8.91584C106.254 9.35793 105.367 10.0988 104.745 11.0451C104.124 11.9914 103.795 13.1008 103.802 14.2335C103.82 15.7617 104.443 17.2203 105.533 18.2896C106.623 19.3588 108.092 19.9514 109.617 19.9375V19.9375ZM109.617 17.0781C108.132 17.1004 106.961 15.8778 106.961 14.241C106.961 12.6042 108.137 11.3617 109.617 11.384C111.103 11.3617 112.276 12.5843 112.276 14.241C112.276 15.8976 111.1 17.1004 109.617 17.088V17.0781ZM117.2 19.6325H120.25V15.5306H121.884L125.021 19.6325H128.767L124.367 14.0674L128.767 8.8296H124.954L121.884 12.624H120.25V3.26448H117.2V19.6325Z" fill="black"/>
</svg>
