<svg width="42" height="42" viewBox="0 0 42 42" fill="none" xmlns="http://www.w3.org/2000/svg">
<path d="M32.1691 42H9.8309C4.40144 42 0 37.5986 0 32.1691V9.8309C0 4.40144 4.40144 0 9.8309 0H32.1691C37.5986 0 42 4.40144 42 9.8309V32.1691C42 37.5986 37.5986 42 32.1691 42Z" fill="#FF9200"/>
<path d="M16.4736 11.8068L28.2771 18.6215C28.6942 18.8627 29.0406 19.2094 29.2813 19.6267C29.5221 20.0441 29.6488 20.5175 29.6488 20.9993C29.6488 21.4811 29.5221 21.9545 29.2813 22.3718C29.0406 22.7892 28.6942 23.1359 28.2771 23.3771L16.4736 30.1918C16.0561 30.4323 15.5827 30.5588 15.1008 30.5586C14.6189 30.5583 14.1456 30.4313 13.7283 30.1903C13.3111 29.9493 12.9646 29.6027 12.7236 29.1854C12.4826 28.7682 12.3557 28.2948 12.3555 27.813V14.1836C12.356 13.7019 12.4832 13.2288 12.7244 12.8118C12.9655 12.3948 13.312 12.0486 13.7292 11.8078C14.1464 11.567 14.6196 11.4401 15.1013 11.44C15.583 11.4398 16.0563 11.5663 16.4736 11.8068Z" fill="white"/>
</svg>
