<svg width="32" height="32" viewBox="0 0 32 32" fill="none" xmlns="http://www.w3.org/2000/svg">
<path d="M7.49067 0H24.5093C28.6453 0 32 3.35472 32 7.49067V24.5093C32 28.6453 28.6453 32 24.5093 32H7.49067C3.35472 32 0 28.6453 0 24.5093V7.49067C0 3.35472 3.35472 0 7.49067 0Z" fill="white"/>
<path d="M13.3827 20.8368L20.2053 16.8967C20.9608 16.455 21.2281 15.4903 20.7864 14.7232C20.647 14.4791 20.4494 14.2816 20.2053 14.1421L13.3827 10.2136C12.6272 9.7719 11.6509 10.0392 11.2092 10.7947C11.0697 11.0388 11 11.3061 11 11.5851V19.4654C11 20.3371 11.709 21.0577 12.5923 21.0461C12.8713 21.0577 13.1386 20.9763 13.3827 20.8368Z" fill="black"/>
</svg>
