<svg width="227" height="39" viewBox="0 0 227 39" fill="none" xmlns="http://www.w3.org/2000/svg">
<path d="M47.1066 38.6668H51.3584V31.6585H55.669C59.3344 31.6585 62.6186 29.2247 62.6186 24.8848C62.6186 20.5743 59.3344 18.1405 55.669 18.1405H47.1066V38.6668ZM51.3584 27.9638V21.8352H55.3757C57.2231 21.8352 58.4547 23.0961 58.4547 24.8848C58.4547 26.7029 57.2231 27.9638 55.3757 27.9638H51.3584Z" fill="black"/>
<path d="M68.4222 38.6668H82.8199V34.6788H72.7327V18.1405H68.4222V38.6668Z" fill="black"/>
<path d="M87.6396 38.6668H92.39L93.6802 35.2946H102.741L104.061 38.6668H108.811L100.454 18.1405H95.9088L87.6396 38.6668ZM95.0584 31.3653L98.1667 23.0961H98.2253L101.363 31.3653H95.0584Z" fill="black"/>
<path d="M117.546 38.6668H121.857V30.5149L129.187 18.1405H124.173L119.716 26.4096L115.23 18.1405H110.215L117.546 30.5149V38.6668Z" fill="black"/>
<path d="M147.507 28.1104C148.739 27.26 149.618 25.9698 149.618 24.0051C149.618 20.2811 146.774 18.1405 142.757 18.1405H134.517V38.6668H143.255C147.243 38.6668 150.175 36.4969 150.175 32.7728C150.175 30.4856 149.032 28.9608 147.507 28.1104ZM138.769 21.8352H142.757C144.076 21.8352 145.425 22.3923 145.425 24.269C145.425 26.1164 144.105 26.7029 142.757 26.7029H138.769V21.8352ZM143.138 34.972H138.769V30.0164H143.138C144.457 30.0164 145.924 30.6615 145.924 32.4796C145.924 34.3563 144.457 34.972 143.138 34.972Z" fill="black"/>
<path d="M165.478 38.96C171.343 38.96 175.917 34.239 175.917 28.4036C175.917 22.5683 171.343 17.8472 165.478 17.8472C159.584 17.8472 155.01 22.5683 155.01 28.4036C155.01 34.239 159.584 38.96 165.478 38.96ZM165.449 34.7375C161.989 34.7375 159.321 31.9517 159.321 28.4036C159.321 24.8555 161.989 22.0698 165.449 22.0698C168.939 22.0698 171.607 24.8555 171.607 28.4036C171.607 31.9517 168.939 34.7375 165.449 34.7375Z" fill="black"/>
<path d="M191.548 38.96C197.412 38.96 201.987 34.239 201.987 28.4036C201.987 22.5683 197.412 17.8472 191.548 17.8472C185.654 17.8472 181.079 22.5683 181.079 28.4036C181.079 34.239 185.654 38.96 191.548 38.96ZM191.518 34.7375C188.058 34.7375 185.39 31.9517 185.39 28.4036C185.39 24.8555 188.058 22.0698 191.518 22.0698C195.008 22.0698 197.676 24.8555 197.676 28.4036C197.676 31.9517 195.008 34.7375 191.518 34.7375Z" fill="black"/>
<path d="M208.028 38.6668H212.339V30.4563H215.359L221.37 38.6668H226.766L219.112 28.345L226.414 18.1405H221.136L215.3 26.351H212.339V18.1405H208.028V38.6668Z" fill="black"/>
<path d="M51.1642 10.8413C53.2785 10.8413 54.9729 9.67169 54.9729 7.76734C54.9729 5.66806 52.9935 5.29319 51.4791 4.88833C50.1595 4.52845 48.795 4.30353 48.795 3.02896C48.795 2.11428 49.6347 1.25957 50.9992 1.25957C52.1988 1.25957 52.9636 1.88935 53.3234 2.99897L54.613 2.6391C54.1032 0.914687 52.8286 0 50.9842 0C48.9299 0 47.3405 1.28956 47.3405 3.01397C47.3405 5.09826 49.1699 5.57809 50.7293 5.99795C52.0639 6.34283 53.5184 6.50777 53.5184 7.79733C53.5184 8.87696 52.5287 9.55173 51.1792 9.55173C49.9196 9.55173 48.825 8.92195 48.4651 7.70736L47.1006 8.08224C47.6104 9.86663 49.2298 10.8413 51.1642 10.8413Z" fill="black"/>
<path d="M59.5 10.7813C60.8946 10.7813 61.7343 10.2715 62.3641 9.58172V10.6764H63.7136V3.25389H62.3641V4.36351C61.7343 3.64375 60.8946 3.14892 59.5 3.14892C57.4757 3.14892 55.9313 4.81335 55.9313 6.97262C55.9313 9.10189 57.4757 10.7813 59.5 10.7813ZM59.8149 9.59672C58.3754 9.59672 57.2658 8.44211 57.2658 6.97262C57.2658 5.48812 58.3754 4.33352 59.8149 4.33352C61.2544 4.33352 62.3641 5.48812 62.3641 6.97262C62.3641 8.44211 61.2544 9.59672 59.8149 9.59672Z" fill="black"/>
<path d="M68.6668 10.7813C70.0613 10.7813 70.9011 10.2715 71.5308 9.58172V10.6764H72.8804V3.25389H71.5308V4.36351C70.9011 3.64375 70.0613 3.14892 68.6668 3.14892C66.6425 3.14892 65.098 4.81335 65.098 6.97262C65.098 9.10189 66.6425 10.7813 68.6668 10.7813ZM68.9817 9.59672C67.5422 9.59672 66.4326 8.44211 66.4326 6.97262C66.4326 5.48812 67.5422 4.33352 68.9817 4.33352C70.4212 4.33352 71.5308 5.48812 71.5308 6.97262C71.5308 8.44211 70.4212 9.59672 68.9817 9.59672Z" fill="black"/>
<path d="M78.2985 10.8413C80.4127 10.8413 82.1072 9.67169 82.1072 7.76734C82.1072 5.66806 80.1278 5.29319 78.6133 4.88833C77.2938 4.52845 75.9293 4.30353 75.9293 3.02896C75.9293 2.11428 76.769 1.25957 78.1335 1.25957C79.3331 1.25957 80.0978 1.88935 80.4577 2.99897L81.7473 2.6391C81.2374 0.914687 79.9629 0 78.1185 0C76.0642 0 74.4748 1.28956 74.4748 3.01397C74.4748 5.09826 76.3041 5.57809 77.8636 5.99795C79.1981 6.34283 80.6526 6.50777 80.6526 7.79733C80.6526 8.87696 79.663 9.55173 78.3134 9.55173C77.0539 9.55173 75.9593 8.92195 75.5994 7.70736L74.2348 8.08224C74.7447 9.86663 76.3641 10.8413 78.2985 10.8413Z" fill="black"/>
<path d="M89.5447 5.30819C90.3095 4.90332 90.8643 4.19856 90.8643 3.02896C90.8643 1.12462 89.4098 0.179938 87.5954 0.179938H83.5918V10.6764H87.8053C89.5747 10.6764 91.1342 9.71668 91.1342 7.76734C91.1342 6.47779 90.4294 5.69805 89.5447 5.30819ZM84.9863 1.39452H87.5954C88.5701 1.39452 89.4997 1.82937 89.4997 3.11893C89.4997 4.3935 88.6 4.82835 87.5954 4.82835H84.9863V1.39452ZM87.7753 9.46177H84.9863V5.93797H87.7753C88.69 5.93797 89.7397 6.41781 89.7397 7.69237C89.7397 8.98193 88.69 9.46177 87.7753 9.46177Z" fill="black"/>
<path d="M97.4401 10.8263C100.424 10.8263 102.733 8.41212 102.733 5.42814C102.733 2.44416 100.424 0.0299894 97.4401 0.0299894C94.4411 0.0299894 92.1319 2.44416 92.1319 5.42814C92.1319 8.41212 94.4411 10.8263 97.4401 10.8263ZM97.4401 9.44677C95.2209 9.44677 93.5414 7.66238 93.5414 5.42814C93.5414 3.19391 95.2209 1.40952 97.4401 1.40952C99.6444 1.40952 101.324 3.19391 101.324 5.42814C101.324 7.66238 99.6444 9.44677 97.4401 9.44677Z" fill="black"/>
<path d="M109.184 10.8263C112.168 10.8263 114.477 8.41212 114.477 5.42814C114.477 2.44416 112.168 0.0299894 109.184 0.0299894C106.185 0.0299894 103.876 2.44416 103.876 5.42814C103.876 8.41212 106.185 10.8263 109.184 10.8263ZM109.184 9.44677C106.965 9.44677 105.285 7.66238 105.285 5.42814C105.285 3.19391 106.965 1.40952 109.184 1.40952C111.388 1.40952 113.068 3.19391 113.068 5.42814C113.068 7.66238 111.388 9.44677 109.184 9.44677Z" fill="black"/>
<path d="M116.115 10.6764H117.524V2.60911L121.108 8.96693H122.218L125.802 2.59411V10.6764H127.226V0.179938H125.592L121.678 7.3025L117.734 0.179938H116.115V10.6764Z" fill="black"/>
<path d="M129.802 1.81438C130.252 1.81438 130.612 1.4545 130.612 1.00466C130.612 0.599794 130.252 0.239918 129.802 0.239918C129.367 0.239918 129.008 0.599794 129.008 1.00466C129.008 1.4545 129.367 1.81438 129.802 1.81438ZM129.158 10.6764H130.477V3.25389H129.158V10.6764Z" fill="black"/>
<path d="M26.0062 38.5383C26.7431 38.8435 27.533 39.0004 28.3306 39H32.1495C33.9628 39 35.7019 38.2795 36.9841 36.9971C38.2663 35.7147 38.9867 33.9754 38.9867 32.1618V6.85156C38.9863 5.95317 38.809 5.06365 38.4649 4.23379C38.1208 3.40393 37.6166 2.64998 36.9812 2.01499C36.3457 1.38 35.5915 0.876408 34.7615 0.532963C33.9314 0.189517 33.0419 0.0129457 32.1436 0.013329H6.8372C5.02386 0.013329 3.2848 0.733783 2.00257 2.0162C0.720346 3.29862 0 5.03795 0 6.85156V32.1618C0.000773621 33.9743 0.720813 35.7123 2.00196 36.9942C3.28312 38.2761 5.02061 38.997 6.83282 38.9985H10.6444C11.4425 38.9966 12.2324 38.8372 12.9688 38.5295C13.082 38.4871 13.1927 38.4383 13.3004 38.3834C13.7155 38.1795 14.1044 37.9264 14.4589 37.6294C15.9359 36.459 18.0017 33.9605 18.2735 29.0583C18.4707 26.8417 16.608 24.8764 14.1653 24.8764H11.5502C8.85184 24.8764 6.62975 22.9784 6.30542 20.5309C6.29841 20.4992 6.29353 20.4669 6.29081 20.4345C6.27328 20.341 6.27328 20.2402 6.27328 20.1423C6.26159 20.0751 6.26159 20.0064 6.26159 19.9392V19.9202C6.26159 19.834 6.28643 19.7594 6.29812 19.6776C6.3098 19.5958 6.29812 19.5154 6.3098 19.4307C6.32149 19.3459 6.3361 19.2583 6.35071 19.1794C6.36532 19.1005 6.37262 19.0172 6.39162 18.9368C6.41061 18.8564 6.43691 18.7717 6.45882 18.6943C6.48073 18.6168 6.49096 18.5423 6.52018 18.4619C6.54699 18.3882 6.57748 18.312 6.6049 18.2435L6.61222 18.2252C6.64144 18.1522 6.66627 18.0835 6.69988 18.0061C6.73348 17.9286 6.77731 17.8482 6.81237 17.7825C6.84743 17.7167 6.87811 17.6349 6.92048 17.5706C6.96284 17.5063 7.01398 17.4274 7.05781 17.3602C7.10163 17.293 7.1367 17.2287 7.18491 17.16C7.23312 17.0914 7.29302 17.0256 7.34269 16.9628C7.39236 16.9 7.43181 16.843 7.48878 16.7787C7.54576 16.7144 7.61443 16.6501 7.66848 16.5931C7.72253 16.5361 7.77367 16.4879 7.83064 16.4265C7.88762 16.3652 7.97528 16.3009 8.03372 16.2527C8.09215 16.2044 8.13598 16.1533 8.20611 16.1065C8.27623 16.0598 8.36097 16.0043 8.42233 15.9604C8.48369 15.9166 8.53774 15.8728 8.61225 15.826C8.68676 15.7792 8.77587 15.731 8.84454 15.693C8.9132 15.655 8.96287 15.6185 9.04907 15.5761C9.13525 15.5338 9.2244 15.4958 9.3135 15.4578C9.37924 15.4286 9.44352 15.395 9.51219 15.3672C9.6013 15.3292 9.70357 15.3 9.80437 15.2649C9.8672 15.2445 9.92709 15.2211 9.99138 15.2006C10.0922 15.1729 10.1944 15.1509 10.2967 15.1261C10.3668 15.113 10.4311 15.0925 10.4998 15.0779C10.6181 15.056 10.7394 15.0414 10.8621 15.0253C10.9176 15.0194 10.9702 15.0034 11.0272 15.0034C11.1221 14.9902 11.2376 14.9946 11.3194 14.9902C11.4012 14.9858 11.4815 14.9771 11.5663 14.9771C11.7284 14.9771 11.8877 14.9888 12.0469 15.0004L12.1696 15.0121C12.323 15.0282 12.4618 15.0487 12.6079 15.075H12.643C13.4084 15.2158 14.1331 15.5247 14.7647 15.9795C15.3962 16.4344 15.919 17.0237 16.2953 17.7051C15.6194 16.2874 14.5556 15.0902 13.2274 14.2523C13.3836 13.8124 13.5916 13.3925 13.8468 13.0016C13.8643 12.9709 13.8848 12.9402 13.9052 12.911C13.9783 12.7985 14.0572 12.6904 14.1375 12.5852L14.2193 12.4829C14.3026 12.3791 14.3859 12.2754 14.4765 12.1789C14.4909 12.1651 14.5045 12.1504 14.5174 12.1351C14.6961 11.9468 14.8848 11.7683 15.0828 11.6003C15.1295 11.5623 15.1704 11.5214 15.2172 11.4849C15.3004 11.4191 15.4085 11.3461 15.4714 11.2964C15.5342 11.2467 15.6014 11.2044 15.6803 11.1503C15.7592 11.0962 15.8381 11.0436 15.9243 10.9925L16.1843 10.8464C16.2603 10.804 16.3362 10.7631 16.4151 10.7222L16.4311 10.7145C16.5584 10.6529 16.6825 10.5928 16.8227 10.5395C16.8856 10.5132 16.9469 10.4869 17.0127 10.4621C17.1631 10.4066 17.3136 10.3525 17.4714 10.3057L17.6745 10.2517C17.8001 10.2181 17.9287 10.1859 18.0602 10.1596C18.1288 10.145 18.2019 10.1304 18.2749 10.1187C18.4093 10.0953 18.5408 10.0763 18.6869 10.0603C18.7512 10.053 18.8155 10.0369 18.8797 10.0369C19.0857 10.0208 19.283 10.0077 19.4992 10.0077C19.7154 10.0077 19.9302 10.0194 20.142 10.0383C20.2048 10.0442 20.2808 10.0559 20.3509 10.0646C20.4912 10.0822 20.6299 10.0997 20.7687 10.1246C20.8491 10.1377 20.928 10.1582 21.0069 10.1772C21.1311 10.202 21.2523 10.2312 21.375 10.2648C21.4554 10.2867 21.5372 10.313 21.6175 10.3393C21.733 10.3744 21.8455 10.4153 21.9579 10.4562L21.9764 10.4633C22.0502 10.4915 22.122 10.5188 22.1975 10.5512C22.3056 10.597 22.4123 10.6457 22.5175 10.6973C22.5978 10.7324 22.6694 10.7719 22.7439 10.8098C22.8477 10.8654 22.9499 10.9238 23.0507 10.9837C23.1209 11.0261 23.191 11.067 23.2596 11.1108C23.3619 11.1766 23.4598 11.2497 23.5591 11.3227C23.6205 11.3665 23.6819 11.4089 23.7418 11.4557C23.8528 11.5433 23.9565 11.6369 24.0617 11.7289C24.1041 11.764 24.145 11.799 24.1859 11.837C24.3268 11.9684 24.4609 12.1069 24.5876 12.252C24.6256 12.2958 24.6607 12.3426 24.6972 12.3864C24.7834 12.4887 24.8696 12.5939 24.95 12.7035C24.9967 12.7663 25.0376 12.8306 25.0814 12.8949C25.1457 12.9928 25.21 13.0863 25.2699 13.1871C25.3137 13.2573 25.3517 13.3318 25.3926 13.4034C25.4394 13.4998 25.5036 13.6167 25.5387 13.6956C25.5738 13.7745 25.6088 13.8534 25.641 13.9309C25.6833 14.0317 25.7228 14.1325 25.7593 14.2348C25.7885 14.3137 25.8075 14.3824 25.8397 14.4788C25.8718 14.5752 25.8966 14.6717 25.9215 14.771L25.9302 14.7959C25.9492 14.8806 25.9697 14.9639 25.9872 15.0487C26.2109 16.1228 26.1211 17.2386 25.7286 18.2632C26.3539 17.2831 26.7277 16.164 26.817 15.0048C27.0484 14.9788 27.2811 14.9666 27.5139 14.9683C30.4139 15.0136 32.7528 17.2842 32.7163 19.9903C32.6798 22.6964 30.3277 24.8881 27.4277 24.8881H24.8155C22.3685 24.8881 20.5058 26.8446 20.703 29.067C20.9718 33.9692 23.0434 36.4678 24.5161 37.6367C24.8702 37.9353 25.2598 38.189 25.676 38.3922C25.7834 38.4467 25.8936 38.4955 26.0062 38.5383Z" fill="black"/>
</svg>
