<svg width="114" height="25" viewBox="0 0 114 25" fill="none" xmlns="http://www.w3.org/2000/svg">
<path d="M32.48 4.91859H38.8186C41.5327 4.91859 43.9656 6.73147 43.9656 9.93811C43.9656 13.1448 41.5327 14.98 38.8186 14.98H35.6283V20.188H32.48V4.91859ZM38.6015 12.2296C39.9709 12.2296 40.8814 11.2922 40.8814 9.93811C40.8814 8.58403 39.9709 7.66395 38.6015 7.66395H35.6407V12.2296H38.6015ZM44.7255 14.784C44.7035 13.6271 45.0246 12.4897 45.6479 11.5169C46.2713 10.544 47.1687 9.77966 48.2258 9.32125C49.2828 8.86284 50.4518 8.7311 51.5836 8.94281C52.7154 9.15452 53.759 9.7001 54.5812 10.51C55.4035 11.32 55.9672 12.3576 56.2006 13.4907C56.4341 14.6239 56.3266 15.8012 55.892 16.8727C55.4573 17.9443 54.7152 18.8615 53.76 19.5075C52.8049 20.1536 51.68 20.4992 50.5288 20.5004C49.0068 20.5097 47.5429 19.9142 46.4559 18.8434C45.3689 17.7727 44.747 16.3136 44.7255 14.784V14.784ZM53.1713 14.8064C53.1713 13.1472 51.9993 11.9246 50.5238 11.9469C49.0434 11.9246 47.8739 13.1472 47.8739 14.8064C47.8739 16.4655 49.0483 17.6633 50.5288 17.6435C52.0092 17.6633 53.1713 16.4432 53.1713 14.8064V14.8064ZM57.5361 14.784C57.5361 11.6196 59.6852 9.19659 62.5522 9.19659C64.1807 9.19659 65.3305 9.82899 66.0904 10.7689V3.82491H69.1302V20.1929H66.0904V18.824C65.3305 19.7614 64.1807 20.3938 62.5522 20.3938C59.6852 20.3913 57.5361 17.9485 57.5361 14.784V14.784ZM66.0904 14.784C66.0904 13.1026 64.874 11.8601 63.3122 11.8601C61.7503 11.8601 60.5759 13.1001 60.5759 14.784C60.5759 16.468 61.7479 17.708 63.3122 17.708C64.8765 17.708 66.0904 16.463 66.0904 14.784ZM70.6279 14.784C70.6328 14.0224 70.7869 13.2692 71.0814 12.5674C71.376 11.8656 71.8052 11.229 72.3446 10.694C72.8839 10.159 73.5229 9.7361 74.2249 9.44937C74.927 9.16265 75.6783 9.01776 76.4361 9.02299C77.341 9.02988 78.232 9.24649 79.04 9.65598C79.8479 10.0655 80.551 10.6568 81.0945 11.384L78.6271 13.1944C78.3921 12.8214 78.0687 12.5129 77.6859 12.2965C77.303 12.0801 76.8728 11.9625 76.4336 11.9544C74.783 11.932 73.611 13.1547 73.611 14.8138C73.611 16.4729 74.7756 17.6212 76.4361 17.6435C76.8847 17.6485 77.3266 17.5338 77.7167 17.3112C78.1068 17.0886 78.4312 16.7659 78.6567 16.3762L81.0896 18.1668C80.3647 19.138 79.3564 19.8577 78.2051 20.2255C77.0539 20.5933 75.8172 20.5908 74.6674 20.2184C73.5177 19.846 72.5122 19.1223 71.7912 18.1481C71.0701 17.174 70.6695 15.9979 70.6452 14.784H70.6279ZM81.8545 14.784C81.8545 11.6196 84.0035 9.19659 86.8706 9.19659C88.4991 9.19659 89.6045 9.78683 90.4088 10.7466V9.39995H93.4609V20.1954H90.4088V18.8438C89.6045 19.7812 88.4991 20.3913 86.8706 20.3913C84.0035 20.3913 81.8643 17.9485 81.8643 14.784H81.8545ZM90.4088 14.784C90.4088 13.1026 89.1924 11.8601 87.6306 11.8601C86.0687 11.8601 84.872 13.1001 84.872 14.784C84.872 16.468 86.0588 17.708 87.6306 17.708C89.2023 17.708 90.4088 16.463 90.4088 14.784ZM94.9685 17.5542L97.5963 16.7259C98.0305 17.7179 98.941 18.1444 99.9403 18.1444C101.07 18.1444 101.808 17.6856 101.808 16.8573C101.808 15.5032 99.1803 16.2026 97.2262 15.3941C96.2392 14.9576 95.3806 14.1541 95.3806 12.6438C95.3806 10.6152 97.3347 9.08747 99.7897 9.08747C102.156 9.08747 103.738 10.3101 104.231 12.0635L101.648 12.7827C101.559 12.3694 101.326 12.0015 100.991 11.7455C100.657 11.4895 100.242 11.3621 99.8218 11.3864C98.8349 11.3864 98.1736 11.932 98.1736 12.5868C98.1736 14.0276 101.06 13.4374 102.842 14.2012C103.928 14.66 104.774 15.4016 104.774 16.9069C104.774 19.1563 102.711 20.5972 99.9107 20.5972C97.6382 20.5897 95.6421 19.4539 94.9685 17.5542ZM107.648 16.3762V12.056H105.368V9.39995H107.648V6.25035H110.646V9.39995H113.642V12.056H110.646V15.6992C110.646 16.9888 111.47 17.4352 112.492 17.4352C112.867 17.4326 113.239 17.3741 113.597 17.2616L113.923 19.8804C113.236 20.1067 112.519 20.2247 111.796 20.2301C109.363 20.24 107.648 18.7124 107.648 16.3762ZM20.3381 0.603394H4.9713C3.86996 0.603394 2.81374 1.04314 2.03498 1.82588C1.25622 2.60863 0.818718 3.67026 0.818718 4.77723V20.2227C0.818718 21.3296 1.25622 22.3913 2.03498 23.174C2.81374 23.9568 3.86996 24.3965 4.9713 24.3965H7.28815C7.77169 24.3962 8.25043 24.3001 8.69702 24.1138C8.76601 24.0868 8.83355 24.0562 8.89935 24.022C9.1514 23.8974 9.38752 23.7425 9.60254 23.5608C10.4957 22.8465 11.7541 21.3288 11.9169 18.3304C12.0378 16.9788 10.9053 15.7785 9.42243 15.7785H7.84331C6.20498 15.7785 4.8578 14.6228 4.66041 13.1274C4.66041 13.11 4.66041 13.0902 4.66041 13.0704C4.66041 13.0108 4.66041 12.9488 4.66041 12.8893C4.66041 12.8298 4.66041 12.805 4.66041 12.7653C4.66041 12.7132 4.66041 12.6612 4.66041 12.6116C4.66041 12.562 4.66041 12.5099 4.66041 12.4603C4.66041 12.4107 4.67768 12.3561 4.68508 12.3065C4.69248 12.2569 4.69989 12.2073 4.70976 12.1577C4.71962 12.1081 4.7369 12.0585 4.74923 12.0089C4.76157 11.9593 4.77391 11.9147 4.78871 11.8676C4.80352 11.8204 4.82572 11.7708 4.84299 11.7237C4.86027 11.6766 4.87507 11.6344 4.89481 11.5898L4.96389 11.4534L5.03051 11.3244C5.05272 11.2823 5.0848 11.2376 5.11194 11.1955L5.19089 11.074C5.21803 11.0343 5.25504 10.9946 5.28712 10.9524C5.3192 10.9103 5.34387 10.8756 5.37594 10.8408C5.40802 10.8061 5.4475 10.7664 5.48451 10.7268C5.52152 10.6871 5.54866 10.6573 5.5832 10.6251C5.61775 10.5928 5.66463 10.5556 5.70657 10.5184L5.81267 10.4292C5.85215 10.3969 5.89903 10.3672 5.94097 10.3374C5.98292 10.3076 6.01746 10.2804 6.05694 10.2556L6.19758 10.1737C6.23952 10.1514 6.279 10.1241 6.32341 10.1018L6.48379 10.0299L6.60469 9.97531C6.66391 9.95051 6.72559 9.93315 6.78481 9.91331L6.90078 9.87363L7.08583 9.82651L7.20673 9.79923C7.27828 9.78435 7.35477 9.77691 7.42633 9.76699L7.52502 9.75211C7.58424 9.75211 7.64346 9.75211 7.70267 9.75211C7.76189 9.75211 7.80137 9.75211 7.85318 9.75211C7.95188 9.75211 8.0481 9.75211 8.1468 9.75211H8.22082C8.30718 9.75211 8.396 9.77443 8.48236 9.79179H8.50457C8.96993 9.87877 9.41038 10.0682 9.79431 10.3465C10.1782 10.6247 10.4961 10.985 10.7252 11.4013C10.3147 10.5359 9.66886 9.80509 8.86233 9.29331C8.95862 9.02499 9.08529 8.7687 9.23984 8.52947L9.27438 8.47491C9.3188 8.40795 9.36568 8.34099 9.41749 8.27651C9.43241 8.25466 9.44891 8.23394 9.46684 8.21451C9.51619 8.15003 9.568 8.08803 9.62228 8.02851L9.64696 8.00123C9.75552 7.88715 9.86902 7.77803 9.98992 7.67387C10.0195 7.65155 10.0442 7.62675 10.0713 7.60443C10.0985 7.58211 10.175 7.52507 10.2268 7.48787C10.2786 7.45067 10.3082 7.42835 10.3526 7.40107C10.397 7.37379 10.4513 7.33659 10.5007 7.30435C10.55 7.27211 10.6068 7.24483 10.6586 7.21507L10.7992 7.13819L11.046 7.02659L11.1619 6.97947C11.2532 6.94723 11.3445 6.91251 11.4407 6.88523L11.5616 6.85051C11.6406 6.83067 11.7171 6.81083 11.796 6.79595C11.8391 6.78507 11.8828 6.77679 11.9268 6.77115C12.0082 6.75627 12.0921 6.74635 12.1735 6.73395L12.2895 6.71907C12.4129 6.71907 12.5362 6.70171 12.6645 6.70171C12.7929 6.70171 12.9261 6.70171 13.0544 6.72155C13.0988 6.72155 13.1407 6.72155 13.1827 6.73643C13.2691 6.73643 13.3529 6.75875 13.4294 6.77363C13.4777 6.78175 13.5255 6.79251 13.5725 6.80587C13.6482 6.82025 13.7232 6.83846 13.7971 6.86043C13.8464 6.87201 13.8958 6.88689 13.9451 6.90507C14.0142 6.92739 14.0833 6.94971 14.1524 6.97699L14.2979 7.03403C14.3621 7.06131 14.4287 7.09107 14.4904 7.12331L14.6286 7.19027L14.8161 7.29691C14.858 7.32171 14.9 7.34651 14.9419 7.37627C14.9839 7.40603 15.0653 7.46059 15.1245 7.50523L15.2355 7.58459C15.3022 7.63915 15.3663 7.69619 15.428 7.75323L15.5045 7.81771C15.5917 7.89873 15.6739 7.98139 15.7512 8.06571C15.7734 8.09299 15.7956 8.12275 15.8178 8.14755C15.8697 8.21203 15.9239 8.27403 15.9708 8.34347C15.9994 8.38075 16.0257 8.41967 16.0498 8.46003C16.0893 8.51707 16.1287 8.57411 16.1657 8.63611L16.2398 8.77003C16.2718 8.82955 16.3014 8.88907 16.3311 8.94859C16.3607 9.00811 16.373 9.04531 16.3927 9.09243C16.4125 9.13955 16.4421 9.21643 16.4643 9.27843C16.4841 9.32686 16.5005 9.37657 16.5136 9.42723C16.5334 9.48675 16.5482 9.54627 16.563 9.60579C16.5641 9.61069 16.5641 9.61577 16.563 9.62067L16.6 9.77443C16.646 10.0072 16.67 10.2439 16.6716 10.4812C16.6699 10.9091 16.5922 11.3332 16.4421 11.7336C16.8216 11.1371 17.0487 10.4556 17.1033 9.74963C17.2433 9.73231 17.3843 9.72485 17.5253 9.72731C19.287 9.75211 20.7082 11.131 20.6835 12.7901C20.6588 14.4492 19.2277 15.781 17.466 15.781H15.8845C14.404 15.781 13.2691 16.9788 13.39 18.3329C13.5528 21.3238 14.8112 22.849 15.7043 23.5632C15.9202 23.7471 16.1571 23.9045 16.41 24.032C16.4766 24.0667 16.5432 24.0964 16.6099 24.1237C17.0574 24.3099 17.5369 24.4059 18.0212 24.4064H20.3381C21.4392 24.4058 22.495 23.9658 23.2737 23.1832C24.0523 22.4006 24.49 21.3394 24.4906 20.2326V4.77723C24.4893 3.67067 24.0514 2.60979 23.2729 1.82733C22.4945 1.04487 21.439 0.604706 20.3381 0.603394V0.603394ZM20.1111 7.54739C20.1111 6.91357 19.8634 6.30511 19.4212 5.85324C18.979 5.40137 18.3778 5.14229 17.7473 5.13187V4.46227C18.5563 4.47335 19.3284 4.80398 19.8968 5.38268C20.4651 5.96138 20.7841 6.74166 20.7847 7.55483L20.1111 7.54739ZM21.9665 7.54739C21.9633 6.42066 21.5188 5.34053 20.7292 4.54079C19.9395 3.74106 18.8683 3.28609 17.7473 3.27435V2.59731C19.0484 2.60908 20.2922 3.13684 21.208 4.06575C22.1239 4.99466 22.6377 6.24954 22.6376 7.55731L21.9665 7.54739Z" fill="black"/>
</svg>
