<svg width="8" height="13" viewBox="0 0 8 13" fill="none" xmlns="http://www.w3.org/2000/svg">
<path d="M7.40909 5H7.06818C6.87983 5 6.72727 5.16781 6.72727 5.375V6.5C6.72727 8.25313 5.3532 9.65984 3.72749 9.48547C2.31058 9.33336 1.27273 7.93227 1.27273 6.36641V5.375C1.27273 5.16781 1.12017 5 0.931818 5H0.590909C0.402557 5 0.25 5.16781 0.25 5.375V6.31625C0.25 8.41719 1.613 10.2901 3.48864 10.5746V11.375H2.29545C2.1071 11.375 1.95455 11.5428 1.95455 11.75V12.125C1.95455 12.3322 2.1071 12.5 2.29545 12.5H5.70455C5.8929 12.5 6.04545 12.3322 6.04545 12.125V11.75C6.04545 11.5428 5.8929 11.375 5.70455 11.375H4.51136V10.5835C6.33757 10.3079 7.75 8.58359 7.75 6.5V5.375C7.75 5.16781 7.59744 5 7.40909 5ZM4 8.75C5.12969 8.75 6.04545 7.74266 6.04545 6.5V2.75C6.04545 1.50734 5.12969 0.5 4 0.5C2.87031 0.5 1.95455 1.50734 1.95455 2.75V6.5C1.95455 7.74266 2.87031 8.75 4 8.75ZM2.97727 2.75C2.97727 2.12961 3.43601 1.625 4 1.625C4.56399 1.625 5.02273 2.12961 5.02273 2.75V6.5C5.02273 7.12039 4.56399 7.625 4 7.625C3.43601 7.625 2.97727 7.12039 2.97727 6.5V2.75Z" fill="white"/>
</svg>
