<svg width="10" height="13" viewBox="0 0 10 13" fill="none" xmlns="http://www.w3.org/2000/svg">
<path d="M4.9987 8.33398C6.10536 8.33398 6.9987 7.44065 6.9987 6.33398V2.33398C6.9987 1.22732 6.10536 0.333984 4.9987 0.333984C3.89203 0.333984 2.9987 1.22732 2.9987 2.33398V6.33398C2.9987 7.44065 3.89203 8.33398 4.9987 8.33398ZM4.33203 2.33398C4.33203 1.96732 4.63203 1.66732 4.9987 1.66732C5.36537 1.66732 5.66536 1.96732 5.66536 2.33398V6.33398C5.66536 6.70065 5.36537 7.00065 4.9987 7.00065C4.63203 7.00065 4.33203 6.70065 4.33203 6.33398V2.33398ZM8.33203 6.33398C8.33203 8.17398 6.8387 9.66732 4.9987 9.66732C3.1587 9.66732 1.66536 8.17398 1.66536 6.33398H0.332031C0.332031 8.68732 2.07203 10.6207 4.33203 10.9473V13.0007H5.66536V10.9473C7.92536 10.6207 9.66537 8.68732 9.66537 6.33398H8.33203Z" fill="black"/>
</svg>
