<svg width="264" height="229" viewBox="0 0 264 229" fill="none" xmlns="http://www.w3.org/2000/svg">
<mask id="mask0" mask-type="alpha" maskUnits="userSpaceOnUse" x="0" y="0" width="264" height="229">
<rect width="264" height="229" fill="black"/>
</mask>
<g mask="url(#mask0)">
<path opacity="0.2" fill-rule="evenodd" clip-rule="evenodd" d="M233.011 102.913C231.555 104.369 229.193 104.369 227.737 102.913C226.28 101.456 226.28 99.0946 227.737 97.638C229.193 96.1814 231.555 96.1814 233.011 97.638C234.468 99.0946 234.468 101.456 233.011 102.913ZM252.672 127.849C254.129 129.305 256.491 129.305 257.947 127.849C259.404 126.392 259.404 124.03 257.947 122.574C256.491 121.117 254.129 121.117 252.672 122.574C251.216 124.03 251.216 126.392 252.672 127.849ZM277.607 152.783C279.063 154.24 281.425 154.24 282.881 152.783C284.338 151.326 284.338 148.965 282.881 147.508C281.425 146.052 279.063 146.052 277.607 147.508C276.15 148.965 276.15 151.326 277.607 152.783ZM302.543 177.719C304 179.176 306.361 179.176 307.818 177.719C309.274 176.263 309.274 173.901 307.818 172.445C306.361 170.988 304 170.988 302.543 172.445C301.086 173.901 301.086 176.263 302.543 177.719ZM332.754 202.656C331.298 204.112 328.936 204.112 327.479 202.656C326.023 201.199 326.023 198.838 327.479 197.381C328.936 195.924 331.298 195.924 332.754 197.381C334.211 198.838 334.211 201.199 332.754 202.656ZM256.987 173.403C258.443 174.86 260.805 174.86 262.261 173.403C263.718 171.946 263.718 169.585 262.261 168.128C260.805 166.672 258.443 166.672 256.987 168.128C255.53 169.585 255.53 171.946 256.987 173.403ZM287.198 198.339C285.741 199.796 283.38 199.796 281.923 198.339C280.466 196.883 280.466 194.521 281.923 193.065C283.38 191.608 285.741 191.608 287.198 193.065C288.654 194.521 288.654 196.883 287.198 198.339ZM306.859 223.276C308.316 224.732 310.678 224.732 312.134 223.276C313.591 221.819 313.591 219.458 312.134 218.001C310.678 216.544 308.316 216.544 306.859 218.001C305.403 219.458 305.403 221.819 306.859 223.276ZM237.327 148.469C235.87 149.925 233.509 149.925 232.052 148.469C230.596 147.012 230.596 144.651 232.052 143.194C233.509 141.737 235.87 141.737 237.327 143.194C238.784 144.651 238.784 147.012 237.327 148.469ZM207.116 123.532C208.572 124.989 210.934 124.989 212.391 123.532C213.847 122.076 213.847 119.714 212.391 118.258C210.934 116.801 208.572 116.801 207.116 118.258C205.659 119.714 205.659 122.076 207.116 123.532ZM241.643 194.023C240.187 195.48 237.825 195.48 236.369 194.023C234.912 192.567 234.912 190.205 236.369 188.748C237.825 187.292 240.187 187.292 241.643 188.748C243.1 190.205 243.1 192.567 241.643 194.023ZM261.305 218.96C262.762 220.416 265.123 220.416 266.58 218.96C268.036 217.503 268.036 215.141 266.58 213.685C265.123 212.228 262.762 212.228 261.305 213.685C259.848 215.141 259.848 217.503 261.305 218.96ZM291.514 243.896C290.057 245.353 287.696 245.353 286.239 243.896C284.783 242.439 284.783 240.078 286.239 238.621C287.696 237.165 290.057 237.165 291.514 238.621C292.971 240.078 292.971 242.439 291.514 243.896ZM211.432 169.089C212.889 170.546 215.25 170.546 216.707 169.089C218.164 167.632 218.164 165.271 216.707 163.814C215.25 162.357 212.889 162.357 211.432 163.814C209.975 165.271 209.975 167.632 211.432 169.089ZM191.773 144.152C190.316 145.609 187.954 145.609 186.498 144.152C185.041 142.696 185.041 140.334 186.498 138.878C187.954 137.421 190.316 137.421 191.773 138.878C193.229 140.334 193.229 142.696 191.773 144.152ZM215.748 214.643C217.205 216.1 219.567 216.1 221.023 214.643C222.48 213.187 222.48 210.825 221.023 209.369C219.567 207.912 217.205 207.912 215.748 209.369C214.292 210.825 214.292 213.187 215.748 214.643ZM245.96 239.58C244.503 241.036 242.141 241.036 240.685 239.58C239.228 238.123 239.228 235.762 240.685 234.305C242.141 232.848 244.503 232.848 245.96 234.305C247.416 235.762 247.416 238.123 245.96 239.58ZM265.619 264.516C267.076 265.973 269.437 265.973 270.894 264.516C272.351 263.06 272.351 260.698 270.894 259.241C269.437 257.785 267.076 257.785 265.619 259.241C264.162 260.698 264.162 263.06 265.619 264.516ZM196.087 189.707C194.63 191.164 192.269 191.164 190.812 189.707C189.355 188.25 189.355 185.889 190.812 184.432C192.269 182.975 194.63 182.975 196.087 184.432C197.543 185.889 197.543 188.25 196.087 189.707ZM165.878 164.77C167.334 166.227 169.696 166.227 171.152 164.77C172.609 163.314 172.609 160.952 171.152 159.496C169.696 158.039 167.334 158.039 165.878 159.496C164.421 160.952 164.421 163.314 165.878 164.77ZM200.403 235.261C198.946 236.718 196.585 236.718 195.128 235.261C193.672 233.805 193.672 231.443 195.128 229.987C196.585 228.53 198.946 228.53 200.403 229.987C201.86 231.443 201.86 233.805 200.403 235.261ZM220.065 260.198C221.521 261.654 223.883 261.654 225.339 260.198C226.796 258.741 226.796 256.38 225.339 254.923C223.883 253.466 221.521 253.466 220.065 254.923C218.608 256.38 218.608 258.741 220.065 260.198ZM250.274 285.132C248.817 286.589 246.456 286.589 244.999 285.132C243.542 283.675 243.542 281.314 244.999 279.857C246.456 278.401 248.817 278.401 250.274 279.857C251.73 281.314 251.73 283.675 250.274 285.132ZM170.192 210.327C171.648 211.784 174.01 211.784 175.467 210.327C176.923 208.87 176.923 206.509 175.467 205.052C174.01 203.596 171.648 203.596 170.192 205.052C168.735 206.509 168.735 208.87 170.192 210.327ZM150.532 185.391C149.076 186.847 146.714 186.847 145.258 185.391C143.801 183.934 143.801 181.572 145.258 180.116C146.714 178.659 149.076 178.659 150.532 180.116C151.989 181.572 151.989 183.934 150.532 185.391ZM174.51 255.881C175.967 257.338 178.328 257.338 179.785 255.881C181.242 254.425 181.242 252.063 179.785 250.607C178.328 249.15 175.967 249.15 174.51 250.607C173.054 252.063 173.054 254.425 174.51 255.881ZM204.719 280.818C203.263 282.274 200.901 282.274 199.445 280.818C197.988 279.361 197.988 277 199.445 275.543C200.901 274.086 203.263 274.086 204.719 275.543C206.176 277 206.176 279.361 204.719 280.818ZM224.381 305.752C225.838 307.209 228.199 307.209 229.656 305.752C231.112 304.296 231.112 301.934 229.656 300.477C228.199 299.021 225.838 299.021 224.381 300.477C222.924 301.934 222.924 304.296 224.381 305.752ZM154.849 230.947C153.392 232.404 151.03 232.404 149.574 230.947C148.117 229.491 148.117 227.129 149.574 225.672C151.03 224.216 153.392 224.216 154.849 225.672C156.305 227.129 156.305 229.491 154.849 230.947ZM124.637 206.011C126.094 207.467 128.456 207.467 129.912 206.011C131.369 204.554 131.369 202.193 129.912 200.736C128.456 199.279 126.094 199.279 124.637 200.736C123.181 202.193 123.181 204.554 124.637 206.011Z" fill="white"/>
</g>
</svg>
