<svg width="203" height="39" viewBox="0 0 203 39" fill="none" xmlns="http://www.w3.org/2000/svg">
<path d="M46.6296 38.6668H50.8384V31.6585H55.1053C58.7335 31.6585 61.9845 29.2247 61.9845 24.8848C61.9845 20.5743 58.7335 18.1405 55.1053 18.1405H46.6296V38.6668ZM50.8384 27.9638V21.8352H54.815C56.6437 21.8352 57.8628 23.0961 57.8628 24.8848C57.8628 26.7029 56.6437 27.9638 54.815 27.9638H50.8384Z" fill="black"/>
<path d="M83.897 38.6668L79.7172 30.8081C81.8652 29.8111 83.4326 27.7585 83.4326 24.8262C83.4326 20.5743 80.1816 18.1405 76.5534 18.1405H67.7293V38.6668H71.9382V31.4826H75.7406L79.2238 38.6668H83.897ZM71.9382 21.9232H76.118C77.9466 21.9232 79.1657 23.1548 79.1657 24.8848C79.1657 26.6149 77.9466 27.7878 76.118 27.7878H71.9382V21.9232Z" fill="black"/>
<path d="M98.7176 38.96C104.523 38.96 109.051 34.239 109.051 28.4036C109.051 22.5683 104.523 17.8472 98.7176 17.8472C92.8833 17.8472 88.3552 22.5683 88.3552 28.4036C88.3552 34.239 92.8833 38.96 98.7176 38.96ZM98.6886 34.7375C95.2634 34.7375 92.622 31.9517 92.622 28.4036C92.622 24.8555 95.2634 22.0698 98.6886 22.0698C102.143 22.0698 104.784 24.8555 104.784 28.4036C104.784 31.9517 102.143 34.7375 98.6886 34.7375Z" fill="black"/>
<path d="M115.031 38.6668H122.897C128.325 38.6668 133.144 35.0014 133.144 28.3743C133.144 21.7472 128.325 18.1111 122.897 18.1111L115.031 18.1405V38.6668ZM119.298 34.4442V22.363L122.723 22.3337C126.09 22.3337 128.877 24.1811 128.877 28.3743C128.877 32.5675 126.09 34.4442 122.723 34.4442H119.298Z" fill="black"/>
<path d="M147.583 38.96C152.372 38.96 156.349 35.6758 156.349 30.3683V18.1405H152.082V29.5179C152.082 32.3916 150.544 34.8547 147.583 34.8547C144.593 34.8547 143.055 32.3916 143.055 29.5179V18.1405H138.788V30.3683C138.788 35.6758 142.765 38.96 147.583 38.96Z" fill="black"/>
<path d="M172.363 38.96C176.369 38.96 179.765 36.7021 181.478 33.3886L177.617 31.3946C176.63 33.3006 174.656 34.5908 172.334 34.5908C168.938 34.5908 166.326 31.8051 166.326 28.4036C166.326 25.0021 168.938 22.2164 172.334 22.2164C174.627 22.2164 176.572 23.4773 177.588 25.3247L181.419 23.3307C179.707 20.0758 176.34 17.8472 172.363 17.8472C166.529 17.8472 162.001 22.5683 162.001 28.4036C162.001 34.239 166.529 38.96 172.363 38.96Z" fill="black"/>
<path d="M192.144 38.6668H196.411V21.9232H203V18.1405H185.555V21.9232H192.144V38.6668Z" fill="black"/>
<path d="M50.6461 10.8413C52.7389 10.8413 54.4162 9.67169 54.4162 7.76734C54.4162 5.66806 52.4569 5.29319 50.9578 4.88833C49.6516 4.52845 48.3009 4.30353 48.3009 3.02896C48.3009 2.11428 49.1321 1.25957 50.4828 1.25957C51.6702 1.25957 52.4272 1.88935 52.7835 2.99897L54.06 2.6391C53.5553 0.914687 52.2937 0 50.468 0C48.4345 0 46.8611 1.28956 46.8611 3.01397C46.8611 5.09826 48.672 5.57809 50.2156 5.99795C51.5367 6.34283 52.9764 6.50777 52.9764 7.79733C52.9764 8.87696 51.9968 9.55173 50.6609 9.55173C49.4141 9.55173 48.3306 8.92195 47.9743 7.70736L46.6236 8.08224C47.1283 9.86663 48.7313 10.8413 50.6461 10.8413Z" fill="black"/>
<path d="M58.8975 10.7813C60.2779 10.7813 61.1091 10.2715 61.7325 9.58172V10.6764H63.0684V3.25389H61.7325V4.36351C61.1091 3.64375 60.2779 3.14892 58.8975 3.14892C56.8937 3.14892 55.3649 4.81335 55.3649 6.97262C55.3649 9.10189 56.8937 10.7813 58.8975 10.7813ZM59.2092 9.59672C57.7843 9.59672 56.6859 8.44211 56.6859 6.97262C56.6859 5.48812 57.7843 4.33352 59.2092 4.33352C60.6342 4.33352 61.7325 5.48812 61.7325 6.97262C61.7325 8.44211 60.6342 9.59672 59.2092 9.59672Z" fill="black"/>
<path d="M67.9715 10.7813C69.3519 10.7813 70.1831 10.2715 70.8065 9.58172V10.6764H72.1424V3.25389H70.8065V4.36351C70.1831 3.64375 69.3519 3.14892 67.9715 3.14892C65.9677 3.14892 64.4389 4.81335 64.4389 6.97262C64.4389 9.10189 65.9677 10.7813 67.9715 10.7813ZM68.2832 9.59672C66.8583 9.59672 65.7599 8.44211 65.7599 6.97262C65.7599 5.48812 66.8583 4.33352 68.2832 4.33352C69.7081 4.33352 70.8065 5.48812 70.8065 6.97262C70.8065 8.44211 69.7081 9.59672 68.2832 9.59672Z" fill="black"/>
<path d="M77.5056 10.8413C79.5984 10.8413 81.2757 9.67169 81.2757 7.76734C81.2757 5.66806 79.3164 5.29319 77.8173 4.88833C76.5111 4.52845 75.1604 4.30353 75.1604 3.02896C75.1604 2.11428 75.9916 1.25957 77.3423 1.25957C78.5298 1.25957 79.2868 1.88935 79.643 2.99897L80.9195 2.6391C80.4148 0.914687 79.1532 0 77.3275 0C75.294 0 73.7206 1.28956 73.7206 3.01397C73.7206 5.09826 75.5315 5.57809 77.0751 5.99795C78.3962 6.34283 79.8359 6.50777 79.8359 7.79733C79.8359 8.87696 78.8563 9.55173 77.5204 9.55173C76.2736 9.55173 75.1901 8.92195 74.8338 7.70736L73.4831 8.08224C73.9878 9.86663 75.5908 10.8413 77.5056 10.8413Z" fill="black"/>
<path d="M88.638 5.30819C89.395 4.90332 89.9442 4.19856 89.9442 3.02896C89.9442 1.12462 88.5044 0.179938 86.7084 0.179938H82.7453V10.6764H86.9162C88.6677 10.6764 90.2113 9.71668 90.2113 7.76734C90.2113 6.47779 89.5137 5.69805 88.638 5.30819ZM84.1257 1.39452H86.7084C87.6732 1.39452 88.5934 1.82937 88.5934 3.11893C88.5934 4.3935 87.7029 4.82835 86.7084 4.82835H84.1257V1.39452ZM86.8865 9.46177H84.1257V5.93797H86.8865C87.7919 5.93797 88.8309 6.41781 88.8309 7.69237C88.8309 8.98193 87.7919 9.46177 86.8865 9.46177Z" fill="black"/>
<path d="M96.4534 10.8263C99.4072 10.8263 101.693 8.41212 101.693 5.42814C101.693 2.44416 99.4072 0.0299894 96.4534 0.0299894C93.4848 0.0299894 91.199 2.44416 91.199 5.42814C91.199 8.41212 93.4848 10.8263 96.4534 10.8263ZM96.4534 9.44677C94.2566 9.44677 92.5942 7.66238 92.5942 5.42814C92.5942 3.19391 94.2566 1.40952 96.4534 1.40952C98.6353 1.40952 100.298 3.19391 100.298 5.42814C100.298 7.66238 98.6353 9.44677 96.4534 9.44677Z" fill="black"/>
<path d="M108.079 10.8263C111.032 10.8263 113.318 8.41212 113.318 5.42814C113.318 2.44416 111.032 0.0299894 108.079 0.0299894C105.11 0.0299894 102.824 2.44416 102.824 5.42814C102.824 8.41212 105.11 10.8263 108.079 10.8263ZM108.079 9.44677C105.882 9.44677 104.219 7.66238 104.219 5.42814C104.219 3.19391 105.882 1.40952 108.079 1.40952C110.26 1.40952 111.923 3.19391 111.923 5.42814C111.923 7.66238 110.26 9.44677 108.079 9.44677Z" fill="black"/>
<path d="M114.939 10.6764H116.334V2.60911L119.882 8.96693H120.98L124.528 2.59411V10.6764H125.938V0.179938H124.32L120.446 7.3025L116.542 0.179938H114.939V10.6764Z" fill="black"/>
<path d="M128.488 1.81438C128.933 1.81438 129.289 1.4545 129.289 1.00466C129.289 0.599794 128.933 0.239918 128.488 0.239918C128.057 0.239918 127.701 0.599794 127.701 1.00466C127.701 1.4545 128.057 1.81438 128.488 1.81438ZM127.85 10.6764H129.156V3.25389H127.85V10.6764Z" fill="black"/>
<path d="M25.7429 38.5383C26.4723 38.8435 27.2542 39.0004 28.0437 39H31.8239C33.6189 39 35.3404 38.2795 36.6096 36.9971C37.8788 35.7147 38.5919 33.9754 38.5919 32.1618V6.85156C38.5915 5.95317 38.416 5.06365 38.0754 4.23379C37.7348 3.40393 37.2357 2.64998 36.6067 2.01499C35.9777 1.38 35.2311 0.876408 34.4095 0.532963C33.5878 0.189517 32.7073 0.0129457 31.8181 0.013329H6.76797C4.97299 0.013329 3.25153 0.733783 1.98229 2.0162C0.713052 3.29862 0 5.03795 0 6.85156V32.1618C0.000765787 33.9743 0.713514 35.7123 1.98169 36.9942C3.24987 38.2761 4.96977 38.997 6.76363 38.9985H10.5366C11.3266 38.9966 12.1085 38.8372 12.8375 38.5295C12.9495 38.4871 13.0591 38.4383 13.1657 38.3834C13.5766 38.1795 13.9616 37.9264 14.3125 37.6294C15.7746 36.459 17.8194 33.9605 18.0884 29.0583C18.2836 26.8417 16.4398 24.8764 14.0218 24.8764H11.4332C8.76221 24.8764 6.56262 22.9784 6.24157 20.5309C6.23463 20.4992 6.2298 20.4669 6.22711 20.4345C6.20976 20.341 6.20976 20.2402 6.20976 20.1423C6.19819 20.0751 6.19819 20.0064 6.19819 19.9392V19.9202C6.19819 19.834 6.22277 19.7594 6.23434 19.6776C6.24591 19.5958 6.23434 19.5154 6.24591 19.4307C6.25748 19.3459 6.27194 19.2583 6.2864 19.1794C6.30086 19.1005 6.30809 19.0172 6.32689 18.9368C6.34569 18.8564 6.37172 18.7717 6.39342 18.6943C6.41511 18.6168 6.42523 18.5423 6.45416 18.4619C6.48069 18.3882 6.51088 18.312 6.53802 18.2435L6.54526 18.2252C6.57419 18.1522 6.59877 18.0835 6.63203 18.0061C6.66529 17.9286 6.70868 17.8482 6.74338 17.7825C6.77809 17.7167 6.80846 17.6349 6.8504 17.5706C6.89234 17.5063 6.94295 17.4274 6.98634 17.3602C7.02972 17.293 7.06443 17.2287 7.11215 17.16C7.15987 17.0914 7.21917 17.0256 7.26834 16.9628C7.31751 16.9 7.35655 16.843 7.41295 16.7787C7.46935 16.7144 7.53732 16.6501 7.59083 16.5931C7.64433 16.5361 7.69495 16.4879 7.75135 16.4265C7.80775 16.3652 7.89452 16.3009 7.95236 16.2527C8.01021 16.2044 8.05359 16.1533 8.12301 16.1065C8.19242 16.0598 8.2763 16.0043 8.33704 15.9604C8.39778 15.9166 8.45128 15.8728 8.52504 15.826C8.59879 15.7792 8.68701 15.731 8.75498 15.693C8.82294 15.655 8.87211 15.6185 8.95744 15.5761C9.04274 15.5338 9.13099 15.4958 9.21919 15.4578C9.28427 15.4286 9.3479 15.395 9.41586 15.3672C9.50408 15.3292 9.60531 15.3 9.70509 15.2649C9.76728 15.2445 9.82657 15.2211 9.8902 15.2006C9.98999 15.1729 10.0912 15.1509 10.1924 15.1261C10.2619 15.113 10.3255 15.0925 10.3935 15.0779C10.5106 15.056 10.6306 15.0414 10.7521 15.0253C10.8071 15.0194 10.8591 15.0034 10.9155 15.0034C11.0095 14.9902 11.1238 14.9946 11.2048 14.9902C11.2857 14.9858 11.3653 14.9771 11.4491 14.9771C11.6097 14.9771 11.7673 14.9888 11.9249 15.0004L12.0464 15.0121C12.1983 15.0282 12.3356 15.0487 12.4803 15.075H12.515C13.2726 15.2158 13.9899 15.5247 14.6151 15.9795C15.2403 16.4344 15.7578 17.0237 16.1303 17.7051C15.4612 16.2874 14.4082 15.0902 13.0934 14.2523C13.2481 13.8124 13.4539 13.3925 13.7066 13.0016C13.7239 12.9709 13.7442 12.9402 13.7644 12.911C13.8367 12.7985 13.9148 12.6904 13.9944 12.5852L14.0754 12.4829C14.1578 12.3791 14.2402 12.2754 14.3299 12.1789C14.3441 12.1651 14.3577 12.1504 14.3704 12.1351C14.5473 11.9468 14.7341 11.7683 14.93 11.6003C14.9763 11.5623 15.0168 11.5214 15.0631 11.4849C15.1455 11.4191 15.2525 11.3461 15.3147 11.2964C15.3769 11.2467 15.4434 11.2044 15.5215 11.1503C15.5996 11.0962 15.6777 11.0436 15.763 10.9925L16.0204 10.8464C16.0956 10.804 16.1708 10.7631 16.2489 10.7222L16.2647 10.7145C16.3907 10.6529 16.5136 10.5928 16.6524 10.5395C16.7146 10.5132 16.7753 10.4869 16.8404 10.4621C16.9893 10.4066 17.1383 10.3525 17.2945 10.3057L17.4955 10.2517C17.6199 10.2181 17.7471 10.1859 17.8773 10.1596C17.9452 10.145 18.0175 10.1304 18.0899 10.1187C18.2229 10.0953 18.3531 10.0763 18.4977 10.0603C18.5613 10.053 18.6249 10.0369 18.6886 10.0369C18.8925 10.0208 19.0877 10.0077 19.3017 10.0077C19.5158 10.0077 19.7283 10.0194 19.938 10.0383C20.0002 10.0442 20.0754 10.0559 20.1448 10.0646C20.2837 10.0822 20.421 10.0997 20.5584 10.1246C20.638 10.1377 20.7161 10.1582 20.7941 10.1772C20.9171 10.202 21.0371 10.2312 21.1586 10.2648C21.2381 10.2867 21.3191 10.313 21.3986 10.3393C21.5129 10.3744 21.6242 10.4153 21.7356 10.4562L21.7539 10.4633C21.827 10.4915 21.898 10.5188 21.9728 10.5512C22.0798 10.597 22.1853 10.6457 22.2895 10.6973C22.369 10.7324 22.4399 10.7719 22.5136 10.8098C22.6163 10.8654 22.7175 10.9238 22.8173 10.9837C22.8867 11.0261 22.9561 11.067 23.0241 11.1108C23.1253 11.1766 23.2222 11.2497 23.3206 11.3227C23.3813 11.3665 23.442 11.4089 23.5013 11.4557C23.6112 11.5433 23.7139 11.6369 23.818 11.7289C23.86 11.764 23.9005 11.799 23.941 11.837C24.0804 11.9684 24.2132 12.1069 24.3387 12.252C24.3763 12.2958 24.411 12.3426 24.4471 12.3864C24.5324 12.4887 24.6178 12.5939 24.6973 12.7035C24.7436 12.7663 24.7841 12.8306 24.8275 12.8949C24.8911 12.9928 24.9547 13.0863 25.014 13.1871C25.0574 13.2573 25.095 13.3318 25.1355 13.4034C25.1818 13.4998 25.2454 13.6167 25.2801 13.6956C25.3148 13.7745 25.3495 13.8534 25.3813 13.9309C25.4233 14.0317 25.4623 14.1325 25.4985 14.2348C25.5274 14.3137 25.5462 14.3824 25.578 14.4788C25.6098 14.5752 25.6344 14.6717 25.659 14.771L25.6677 14.7959C25.6865 14.8806 25.7067 14.9639 25.7241 15.0487C25.9455 16.1228 25.8566 17.2386 25.4681 18.2632C26.087 17.2831 26.4571 16.164 26.5455 15.0048C26.7745 14.9788 27.0048 14.9666 27.2353 14.9683C30.1059 15.0136 32.4212 17.2842 32.385 19.9903C32.3489 22.6964 30.0206 24.8881 27.15 24.8881H24.5643C22.142 24.8881 20.2981 26.8446 20.4934 29.067C20.7594 33.9692 22.8101 36.4678 24.2678 37.6367C24.6183 37.9353 25.004 38.189 25.416 38.3922C25.5223 38.4467 25.6314 38.4955 25.7429 38.5383Z" fill="black"/>
</svg>
