<svg width="105" height="15" viewBox="0 0 105 15" fill="none" xmlns="http://www.w3.org/2000/svg">
<path d="M14.4735 2.63243V12.3754C14.4719 13.0721 14.2039 13.7396 13.7282 14.2317C13.2525 14.7237 12.608 15 11.936 15H10.5134C10.2174 15.0002 9.92423 14.9401 9.65051 14.8233C9.60867 14.806 9.56786 14.7861 9.52831 14.7638C9.37356 14.6861 9.22865 14.5889 9.09685 14.4745C8.55074 14.024 7.78135 13.0667 7.68179 11.1757C7.60786 10.3217 8.30031 9.56622 9.20698 9.56622H10.1815C11.2587 9.56622 12.1322 8.72471 12.1427 7.68926C12.1533 6.65381 11.2904 5.77164 10.2117 5.75443C10.1259 5.75406 10.0402 5.75981 9.95524 5.77164C9.92303 6.21689 9.78462 6.64688 9.55245 7.02294C9.64423 6.77041 9.69174 6.50291 9.69275 6.23306C9.69179 6.08336 9.67714 5.9341 9.649 5.78728L9.62637 5.6903C9.62702 5.68721 9.62702 5.68401 9.62637 5.68092C9.61732 5.64181 9.60826 5.60584 9.5962 5.5683C9.58413 5.53076 9.57658 5.50574 9.56602 5.47289C9.55546 5.44004 9.53736 5.39468 9.52227 5.35714C9.50719 5.3196 9.49814 5.29614 9.48456 5.26642L9.42572 5.14599C9.41064 5.11783 9.39555 5.08811 9.38047 5.06152C9.36538 5.03493 9.3337 4.98644 9.30956 4.95047L9.26129 4.87539C9.23112 4.83316 9.19944 4.79406 9.16625 4.75339L9.12702 4.70177C9.07875 4.64546 9.02846 4.59333 8.97616 4.54536L8.9294 4.50313L8.81022 4.39833L8.74233 4.34671C8.70612 4.31856 8.66992 4.29197 8.63069 4.26538C8.59147 4.23879 8.5794 4.23253 8.55375 4.21689L8.44061 4.14963L8.35613 4.10584L8.23846 4.0511C8.20829 4.03702 8.17962 4.02607 8.14945 4.01512L8.02424 3.96976L7.93372 3.94161C7.88899 3.92885 7.84368 3.91841 7.79795 3.91032C7.76928 3.9025 7.73911 3.89468 7.71045 3.88999L7.55959 3.86653C7.53243 3.86653 7.5083 3.85871 7.48114 3.85714C7.40269 3.84932 7.33028 3.84463 7.24278 3.84463C7.15528 3.84463 7.09192 3.84463 7.01348 3.85558L6.94106 3.86496C6.88977 3.86496 6.83848 3.87904 6.7902 3.88843C6.76327 3.89198 6.73657 3.8972 6.71025 3.90407C6.66197 3.91345 6.6137 3.92596 6.55939 3.93848C6.50508 3.95099 6.5096 3.95099 6.48396 3.96038C6.42609 3.97742 6.36917 3.99778 6.31349 4.02138C6.28935 4.0292 6.26672 4.04015 6.24258 4.04953C6.19129 4.07143 6.14151 4.09489 6.09172 4.11992C6.04194 4.14494 6.0344 4.1512 6.00724 4.1684L5.91069 4.22471C5.87955 4.24289 5.84934 4.26273 5.82017 4.28415L5.74173 4.34202C5.70923 4.3641 5.67799 4.38812 5.64819 4.41397C5.63009 4.42805 5.615 4.44369 5.5969 4.45933C5.52272 4.52388 5.45172 4.59226 5.38419 4.66423L5.3691 4.68144C5.33591 4.71898 5.30423 4.75808 5.27406 4.79718L5.24389 4.83785C5.21372 4.87852 5.18505 4.91919 5.15639 4.96298C5.15639 4.97393 5.1413 4.98488 5.13527 4.99739C5.04035 5.14779 4.96336 5.30955 4.90596 5.47915C5.39859 5.80208 5.79296 6.26303 6.04345 6.80866C5.90398 6.54558 5.70978 6.318 5.47494 6.14242C5.2401 5.96683 4.9705 5.84766 4.68571 5.79354H4.67213C4.62084 5.78415 4.56653 5.77633 4.51222 5.77007H4.46696C4.40812 5.77007 4.34929 5.77007 4.28744 5.77007H4.19692C4.15921 5.77007 4.123 5.77007 4.08679 5.77007L4.02645 5.77164C3.98119 5.77164 3.93593 5.78259 3.89218 5.79041C3.84844 5.79823 3.8424 5.80448 3.81675 5.80918L3.70361 5.83889L3.63421 5.86392C3.5965 5.87643 3.55878 5.88738 3.52258 5.90302L3.44866 5.93744L3.3506 5.98279L3.27517 6.02815C3.2465 6.04536 3.21633 6.061 3.18918 6.07977C3.16202 6.09854 3.1409 6.11418 3.11827 6.13139C3.09564 6.14859 3.06396 6.16893 3.03832 6.18926L2.97345 6.24713C2.9478 6.26903 2.92216 6.28936 2.89802 6.31283L2.83767 6.37696C2.81806 6.39885 2.79242 6.42388 2.7713 6.44891L2.71699 6.52086C2.69888 6.54432 2.67776 6.56934 2.65966 6.59593C2.64156 6.62252 2.62798 6.64599 2.61138 6.67258C2.59479 6.69917 2.57669 6.72576 2.56009 6.75391C2.5435 6.78206 2.53445 6.80865 2.52087 6.83525C2.50729 6.86184 2.4907 6.89155 2.47863 6.92127C2.46656 6.95099 2.45751 6.97758 2.44695 7.00417C2.43639 7.03076 2.42281 7.06517 2.41225 7.09646C2.40169 7.12774 2.39716 7.15589 2.38962 7.18561C2.38208 7.21533 2.37152 7.24818 2.36397 7.28102C2.35643 7.31387 2.35492 7.34202 2.34889 7.37331C2.34285 7.40459 2.33833 7.43744 2.3338 7.47028C2.32928 7.50313 2.3338 7.53285 2.3338 7.56413C2.3338 7.59541 2.3338 7.62982 2.3338 7.66111C2.3338 7.68613 2.3338 7.71272 2.3338 7.73931C2.3338 7.7659 2.3338 7.81595 2.3338 7.85349C2.3338 7.86601 2.3338 7.87852 2.3338 7.89103C2.45449 8.82951 3.27818 9.56309 4.2814 9.56309H5.25143C6.15659 9.56309 6.84904 10.3186 6.77663 11.1726C6.67555 13.0589 5.90616 14.0209 5.36005 14.4713C5.22853 14.5854 5.08417 14.6826 4.9301 14.7607C4.88989 14.7827 4.8486 14.8026 4.8064 14.8201C4.53605 14.9363 4.24666 14.9973 3.95404 15H2.53897C1.8669 15 1.22224 14.7237 0.746309 14.2317C0.270376 13.7398 0.00199665 13.0722 0 12.3754V2.63243C0 1.93427 0.267498 1.2647 0.743648 0.771021C1.2198 0.277345 1.86559 0 2.53897 0H11.9345C12.2679 0 12.5981 0.0680898 12.9061 0.200382C13.2142 0.332674 13.4941 0.526577 13.7298 0.771021C13.9656 1.01546 14.1526 1.30566 14.2802 1.62504C14.4078 1.94442 14.4735 2.28673 14.4735 2.63243Z" fill="black"/>
<path d="M19.4208 12.6694H21.477V9.15547H23.5616C25.3342 9.15547 26.9225 7.93514 26.9225 5.75912C26.9225 3.59781 25.3342 2.37748 23.5616 2.37748H19.4208V12.6694ZM21.477 7.30292V4.23003H23.4198C24.3132 4.23003 24.9088 4.86225 24.9088 5.75912C24.9088 6.6707 24.3132 7.30292 23.4198 7.30292H21.477Z" fill="black"/>
<path d="M39.0336 12.6694L36.9915 8.72909C38.0409 8.2292 38.8067 7.2 38.8067 5.72972C38.8067 3.59781 37.2184 2.37748 35.4458 2.37748H31.1348V12.6694H33.191V9.06726H35.0487L36.7504 12.6694H39.0336ZM33.191 4.27414H35.2331C36.1265 4.27414 36.7221 4.89166 36.7221 5.75912C36.7221 6.62659 36.1265 7.2147 35.2331 7.2147H33.191V4.27414Z" fill="black"/>
<path d="M47.6799 12.8165C50.516 12.8165 52.7282 10.4493 52.7282 7.52346C52.7282 4.5976 50.516 2.23045 47.6799 2.23045C44.8295 2.23045 42.6173 4.5976 42.6173 7.52346C42.6173 10.4493 44.8295 12.8165 47.6799 12.8165ZM47.6657 10.6993C45.9924 10.6993 44.7019 9.3025 44.7019 7.52346C44.7019 5.74442 45.9924 4.34765 47.6657 4.34765C49.3532 4.34765 50.6437 5.74442 50.6437 7.52346C50.6437 9.3025 49.3532 10.6993 47.6657 10.6993Z" fill="black"/>
<path d="M57.0556 12.6694H60.8986C63.5504 12.6694 65.9045 10.8316 65.9045 7.50876C65.9045 4.18592 63.5504 2.36277 60.8986 2.36277L57.0556 2.37748V12.6694ZM59.1402 10.5522V4.49468L60.8135 4.47998C62.4585 4.47998 63.8199 5.40626 63.8199 7.50876C63.8199 9.61126 62.4585 10.5522 60.8135 10.5522H59.1402Z" fill="black"/>
<path d="M74.3645 12.8165C76.7044 12.8165 78.6472 11.1698 78.6472 8.50855V2.37748H76.5626V8.08217C76.5626 9.52304 75.811 10.7581 74.3645 10.7581C72.9039 10.7581 72.1523 9.52304 72.1523 8.08217V2.37748H70.0678V8.50855C70.0678 11.1698 72.0105 12.8165 74.3645 12.8165Z" fill="black"/>
<path d="M87.8767 12.8165C89.8336 12.8165 91.4928 11.6844 92.3294 10.0229L90.4434 9.02315C89.9613 9.97883 88.9969 10.6258 87.8625 10.6258C86.2033 10.6258 84.927 9.22899 84.927 7.52346C84.927 5.81793 86.2033 4.42117 87.8625 4.42117C88.9828 4.42117 89.9329 5.05339 90.4292 5.97967L92.3011 4.97987C91.4644 3.34786 89.8194 2.23045 87.8767 2.23045C85.0263 2.23045 82.8141 4.5976 82.8141 7.52346C82.8141 10.4493 85.0263 12.8165 87.8767 12.8165Z" fill="black"/>
<path d="M98.9464 12.6694H101.031V4.27414H104.25V2.37748H95.7273V4.27414H98.9464V12.6694Z" fill="black"/>
</svg>
