<svg width="72" height="72" viewBox="0 0 72 72" fill="none" xmlns="http://www.w3.org/2000/svg">
<rect width="72" height="72" rx="14" fill="#EBF7FE"/>
<circle cx="36.5" cy="36.5" r="20.5" stroke="black" stroke-width="2"/>
<path d="M51.5 36.5C51.5 42.3438 49.7916 47.6139 47.0546 51.4104C44.317 55.2076 40.5789 57.5 36.5 57.5C32.4211 57.5 28.683 55.2076 25.9454 51.4104C23.2084 47.6139 21.5 42.3438 21.5 36.5C21.5 30.6562 23.2084 25.3861 25.9454 21.5896C28.683 17.7924 32.4211 15.5 36.5 15.5C40.5789 15.5 44.317 17.7924 47.0546 21.5896C49.7916 25.3861 51.5 30.6562 51.5 36.5Z" stroke="black"/>
<path d="M43.5 36.5C43.5 42.3963 42.6655 47.7131 41.3312 51.5381C40.6632 53.453 39.8793 54.9669 39.0336 55.9923C38.1852 57.021 37.3264 57.5 36.5 57.5C35.6736 57.5 34.8148 57.021 33.9664 55.9923C33.1207 54.9669 32.3368 53.453 31.6688 51.5381C30.3345 47.7131 29.5 42.3963 29.5 36.5C29.5 30.6037 30.3345 25.2869 31.6688 21.4619C32.3368 19.547 33.1207 18.0331 33.9664 17.0077C34.8148 15.979 35.6736 15.5 36.5 15.5C37.3264 15.5 38.1852 15.979 39.0336 17.0077C39.8793 18.0331 40.6632 19.547 41.3312 21.4619C42.6655 25.2869 43.5 30.6037 43.5 36.5Z" stroke="black"/>
</svg>
