<svg width="113" height="26" viewBox="0 0 113 26" fill="none" xmlns="http://www.w3.org/2000/svg">
<path d="M26.0884 5.34489V20.9049C26.0884 23.2277 24.2302 25.1009 21.9261 25.1009H19.5973C19.1018 25.1009 18.631 25.001 18.1851 24.8262C18.1107 24.8012 18.0612 24.7762 17.9869 24.7263C17.7391 24.6014 17.4914 24.4515 17.2684 24.2517C16.3765 23.5274 15.1129 22.0039 14.9395 18.9818C14.8156 17.6331 15.9553 16.4093 17.4418 16.4093H19.0274C20.7865 16.4093 22.2234 15.0605 22.2482 13.3872C22.273 11.7138 20.8608 10.3651 19.077 10.3401C18.9283 10.3401 18.8045 10.3401 18.6558 10.3651C18.6063 11.0644 18.3833 11.7637 17.9869 12.3631C18.1355 11.9635 18.2099 11.5389 18.2099 11.1143C18.2099 10.8646 18.1851 10.6398 18.1355 10.39C18.1355 10.3401 18.1107 10.2901 18.1107 10.2402C18.1107 10.2402 18.1107 10.2402 18.1107 10.2152C18.086 10.1653 18.086 10.0903 18.0612 10.0404C18.0364 9.99042 18.0364 9.94047 18.0116 9.89052C17.9869 9.84057 17.9621 9.76564 17.9373 9.71569C17.9125 9.66574 17.8878 9.61578 17.8878 9.56583L17.7887 9.391C17.7639 9.34105 17.7391 9.2911 17.7143 9.26612C17.6896 9.24114 17.64 9.14124 17.5905 9.09129L17.5161 8.96641C17.4666 8.89148 17.417 8.84153 17.3675 8.7666C17.3427 8.74162 17.3179 8.71665 17.2932 8.69167C17.2188 8.59177 17.1197 8.51684 17.0454 8.44191C17.0206 8.41694 16.9959 8.39196 16.9711 8.36698L16.7729 8.19215L16.6738 8.11722C16.6242 8.06727 16.5499 8.0423 16.5004 7.99234C16.4508 7.94239 16.426 7.94239 16.3765 7.91742L16.1783 7.81751L16.0296 7.74259L15.8562 7.61771C15.8066 7.59273 15.7571 7.56775 15.7075 7.56775C15.658 7.56775 15.5837 7.5178 15.5093 7.49283L15.3607 7.44287C15.2864 7.4179 15.212 7.39292 15.1377 7.39292L14.9891 7.36795C14.9147 7.34297 14.8156 7.34297 14.7413 7.34297L14.6174 7.31799C14.4936 7.31799 14.3697 7.29302 14.221 7.29302C14.0724 7.29302 13.9733 7.29302 13.8494 7.31799L13.7255 7.34297C13.6512 7.34297 13.5521 7.36795 13.4778 7.36795L13.3539 7.39292C13.2796 7.4179 13.2052 7.4179 13.1061 7.44287L12.9823 7.46785C12.8832 7.49283 12.7841 7.5178 12.7097 7.56775L12.5859 7.61771C12.5115 7.64268 12.4124 7.69263 12.3381 7.74259L12.1895 7.81751C12.1399 7.84249 12.0904 7.86747 12.0408 7.91742C11.9913 7.94239 11.9417 7.96737 11.8922 8.01732L11.7683 8.11722C11.7187 8.16718 11.6692 8.19215 11.6196 8.2421L11.5453 8.31703C11.4214 8.41694 11.2976 8.54182 11.1985 8.64172L11.1737 8.6667C11.1241 8.71665 11.0746 8.79158 11.025 8.8665L10.9755 8.91646C10.9259 8.99138 10.8764 9.04134 10.8268 9.11626C10.8268 9.14124 10.802 9.16622 10.802 9.16622C10.6534 9.41598 10.5295 9.66574 10.4304 9.94047C11.248 10.465 11.8922 11.1893 12.2886 12.0634C11.8178 11.2142 11.0002 10.6148 10.0588 10.44H10.034C9.95969 10.415 9.86059 10.415 9.76148 10.39H9.66238C9.56328 10.39 9.46418 10.39 9.36508 10.39H9.21643C9.16688 10.39 9.09255 10.39 9.043 10.39H8.9439L8.72092 10.415L8.59705 10.44C8.5475 10.465 8.47317 10.465 8.39884 10.4899L8.27497 10.5399L8.10154 10.5898L7.97766 10.6398L7.82901 10.7147L7.70514 10.7897L7.55649 10.8646C7.50693 10.8896 7.48216 10.9145 7.43261 10.9395L7.30873 11.0394L7.20963 11.1393C7.16008 11.1643 7.13531 11.2142 7.08576 11.2392C7.0362 11.2642 7.01143 11.3142 6.98665 11.3391C6.96188 11.3641 6.91233 11.4141 6.88755 11.464C6.86278 11.514 6.838 11.5389 6.78845 11.5889C6.7389 11.6388 6.71413 11.6638 6.68935 11.7138C6.66458 11.7637 6.6398 11.7887 6.61503 11.8386L6.5407 11.9635C6.51592 12.0135 6.49115 12.0385 6.46637 12.0884C6.4416 12.1384 6.41682 12.1883 6.39205 12.2383C6.36727 12.2882 6.36727 12.3132 6.3425 12.3631C6.31772 12.4131 6.29295 12.463 6.29295 12.513C6.29295 12.5629 6.26817 12.6129 6.2434 12.6629C6.21862 12.7128 6.21862 12.7628 6.19385 12.8127C6.16907 12.8627 6.19385 12.8627 6.19385 12.9126C6.19385 12.9626 6.16907 13.0125 6.16907 13.0625C6.16907 13.1124 6.16907 13.1624 6.16907 13.2123C6.16907 13.2623 6.16907 13.3122 6.16907 13.3622C6.16907 13.4121 6.16907 13.4371 6.16907 13.4871C6.16907 13.537 6.16907 13.6119 6.16907 13.6619C6.16907 13.6869 6.16907 13.7118 6.16907 13.7118C6.36727 15.2104 7.72991 16.3843 9.36508 16.3843H10.9507C12.4372 16.3843 13.5769 17.5831 13.453 18.9568C13.2796 21.9789 12.016 23.5024 11.1241 24.2267C10.9011 24.4016 10.6782 24.5764 10.4304 24.7013C10.3561 24.7263 10.3065 24.7762 10.2322 24.8012C9.78626 25.001 9.29075 25.0759 8.82002 25.0759H6.49115C4.18705 25.0759 2.3289 23.2027 2.3289 20.88V5.34489C2.3289 3.02212 4.18705 1.14893 6.49115 1.14893H21.9261C24.2055 1.14893 26.0884 3.02212 26.0884 5.34489Z" fill="black"/>
<path d="M35.28 17.3583L38.6989 16.4342C39.021 17.6081 40.012 18.4323 41.4985 18.4323C43.0098 18.4323 44.0504 17.7329 44.1743 16.634C44.3973 14.6109 40.458 15.0355 38.3521 13.487C37.3611 12.7627 36.5187 11.414 36.7665 9.69068C37.2124 6.69356 39.8634 4.72046 43.3319 4.72046C46.1315 4.74543 48.2126 6.3439 48.6586 8.71662L45.3635 9.64073C45.091 8.46686 44.2981 7.74255 42.9355 7.74255C41.449 7.74255 40.458 8.64169 40.2846 9.64073C39.9625 11.6138 43.0842 11.4889 45.0166 12.3881C46.9243 13.1374 48.1631 14.536 47.8658 16.659C47.4198 19.731 44.7937 21.6042 41.0278 21.5792C37.9557 21.5543 35.8498 19.806 35.28 17.3583Z" fill="black"/>
<path d="M62.8548 9.76563L61.0462 21.3295H57.7759L57.9741 20.0058C56.9583 20.9299 55.6204 21.4544 54.0843 21.4544C51.3095 21.4544 48.9806 19.0817 49.5505 15.5351C50.0955 12.0135 52.8456 9.64075 55.9177 9.64075C57.4538 9.64075 58.643 10.1902 59.3615 11.1143L59.5597 9.76563H62.8548ZM58.6678 15.5351C58.9403 13.8117 57.8254 12.463 56.1655 12.463C54.5055 12.463 53.019 13.8117 52.7217 15.5351C52.474 17.2334 53.5145 18.6321 55.1745 18.6321C56.8344 18.6321 58.3952 17.2834 58.6678 15.5351Z" fill="black"/>
<path d="M77.4474 9.76563L75.6388 21.3295H72.3685L72.5667 20.0058C71.5509 20.9299 70.2131 21.4544 68.677 21.4544C65.9022 21.4544 63.5733 19.0817 64.1431 15.5351C64.6882 12.0135 67.4382 9.64075 70.5104 9.64075C72.0464 9.64075 73.2356 10.1902 73.9541 11.1143L74.1523 9.76563H77.4474ZM73.2852 15.5351C73.5577 13.8117 72.4428 12.463 70.7829 12.463C69.1229 12.463 67.6364 13.8117 67.3391 15.5351C67.0914 17.2334 68.1319 18.6321 69.7919 18.6321C71.4518 18.6321 73.0127 17.2834 73.2852 15.5351Z" fill="black"/>
<path d="M80.1232 17.2334L80.8664 12.6378H78.7605L79.2313 9.79058H81.3124L81.8575 6.41882H85.1526L84.6075 9.79058H87.7044L87.2585 12.6378H84.1616L83.5174 16.684C83.344 17.9078 83.9138 18.6321 85.1526 18.6321C85.5985 18.6321 86.0445 18.5322 86.4904 18.3823L86.0445 21.0548C85.2269 21.3045 84.4589 21.4294 83.7652 21.4294C81.0646 21.3794 79.7268 19.6561 80.1232 17.2334Z" fill="black"/>
<path d="M90.9995 3.79639H94.2946L93.0806 11.464C93.9725 10.2901 95.2361 9.64077 96.8465 9.64077C99.4479 9.64077 101.43 11.8137 100.91 15.3103L99.9681 21.3295H96.6978L97.5897 15.5851C97.9118 13.512 97.0447 12.4381 95.5829 12.4381C93.9478 12.4381 92.8329 13.562 92.486 15.4602L91.5693 21.3545H88.2742L90.9995 3.79639Z" fill="black"/>
<path d="M104.155 9.76566H107.45L105.617 21.3295H102.322L104.155 9.76566ZM104.552 6.14414C104.725 5.19506 105.667 4.37085 106.658 4.37085C107.649 4.37085 108.342 5.19506 108.194 6.14414C108.02 7.16816 107.079 7.99237 106.112 7.99237C105.097 7.99237 104.378 7.16816 104.552 6.14414Z" fill="black"/>
</svg>
