<svg width="164" height="38" viewBox="0 0 164 38" fill="none" xmlns="http://www.w3.org/2000/svg">
<path d="M52.9892 37.9896C57.2284 37.9896 60.5737 35.5325 60.5737 31.7896C60.5737 27.7325 56.767 26.7896 54.0562 26.0468C51.8645 25.4468 49.7593 25.0753 49.7593 23.3896C49.7593 22.1896 50.884 21.0753 52.7873 21.0753C54.5176 21.0753 55.5558 21.9325 56.046 23.4468L59.9104 22.3325C58.9299 19.1325 56.4209 17.3325 52.7008 17.3325C48.6057 17.3325 45.4047 19.9039 45.4047 23.3896C45.4047 27.361 48.8076 28.561 51.6914 29.3039C53.9408 29.8753 56.1614 30.161 56.1614 31.9039C56.1614 33.2182 54.9213 34.161 53.018 34.161C51.23 34.161 49.7304 33.2468 49.2402 31.6468L45.1451 32.7896C46.1256 36.0182 49.096 37.9896 52.9892 37.9896Z" fill="black"/>
<path d="M64.5512 37.6753H69.223L70.4919 34.3896H79.403L80.7007 37.6753H85.3725L77.1536 17.6753H72.6836L64.5512 37.6753ZM71.8473 30.561L74.9042 22.5039H74.9618L78.0476 30.561H71.8473Z" fill="black"/>
<path d="M89.5979 37.6753H94.2697L95.5386 34.3896H104.45L105.747 37.6753H110.419L102.2 17.6753H97.7303L89.5979 37.6753ZM96.894 30.561L99.9508 22.5039H100.009L103.094 30.561H96.894Z" fill="black"/>
<path d="M119.167 37.6753H123.406V21.361H129.953V17.6753H112.621V21.361H119.167V37.6753Z" fill="black"/>
<path d="M135.39 37.6753H139.629V29.7039H148.742V37.6753H152.981V17.6753H148.742V25.7039H139.629V17.6753H135.39V37.6753Z" fill="black"/>
<path d="M159.761 37.6753H164V17.6753H159.761V37.6753Z" fill="black"/>
<path d="M50.318 10.5633C52.3973 10.5633 54.0637 9.4237 54.0637 7.56818C54.0637 5.52273 52.1171 5.15747 50.6277 4.76299C49.33 4.41234 47.988 4.19318 47.988 2.9513C47.988 2.06006 48.8138 1.22727 50.1558 1.22727C51.3356 1.22727 52.0876 1.84091 52.4416 2.92208L53.7098 2.57143C53.2084 0.891234 51.9549 0 50.1411 0C48.1207 0 46.5576 1.25649 46.5576 2.93669C46.5576 4.96753 48.3567 5.43506 49.8904 5.84416C51.2028 6.18019 52.6333 6.34091 52.6333 7.5974C52.6333 8.64935 51.66 9.30682 50.3328 9.30682C49.094 9.30682 48.0175 8.69318 47.6636 7.50974L46.3216 7.875C46.823 9.61364 48.4157 10.5633 50.318 10.5633Z" fill="black"/>
<path d="M58.516 10.5049C59.8875 10.5049 60.7133 10.0081 61.3327 9.33604V10.4026H62.6599V3.17045H61.3327V4.25162C60.7133 3.55032 59.8875 3.06818 58.516 3.06818C56.5252 3.06818 55.0063 4.68993 55.0063 6.79383C55.0063 8.86851 56.5252 10.5049 58.516 10.5049ZM58.8257 9.35065C57.41 9.35065 56.3187 8.22565 56.3187 6.79383C56.3187 5.3474 57.41 4.2224 58.8257 4.2224C60.2414 4.2224 61.3327 5.3474 61.3327 6.79383C61.3327 8.22565 60.2414 9.35065 58.8257 9.35065Z" fill="black"/>
<path d="M67.5312 10.5049C68.9027 10.5049 69.7285 10.0081 70.3479 9.33604V10.4026H71.6751V3.17045H70.3479V4.25162C69.7285 3.55032 68.9027 3.06818 67.5312 3.06818C65.5404 3.06818 64.0214 4.68993 64.0214 6.79383C64.0214 8.86851 65.5404 10.5049 67.5312 10.5049ZM67.8409 9.35065C66.4252 9.35065 65.3339 8.22565 65.3339 6.79383C65.3339 5.3474 66.4252 4.2224 67.8409 4.2224C69.2566 4.2224 70.3479 5.3474 70.3479 6.79383C70.3479 8.22565 69.2566 9.35065 67.8409 9.35065Z" fill="black"/>
<path d="M77.0035 10.5633C79.0829 10.5633 80.7493 9.4237 80.7493 7.56818C80.7493 5.52273 78.8027 5.15747 77.3132 4.76299C76.0155 4.41234 74.6735 4.19318 74.6735 2.9513C74.6735 2.06006 75.4994 1.22727 76.8413 1.22727C78.0211 1.22727 78.7732 1.84091 79.1271 2.92208L80.3953 2.57143C79.8939 0.891234 78.6404 0 76.8266 0C74.8063 0 73.2431 1.25649 73.2431 2.93669C73.2431 4.96753 75.0422 5.43506 76.5759 5.84416C77.8884 6.18019 79.3188 6.34091 79.3188 7.5974C79.3188 8.64935 78.3455 9.30682 77.0183 9.30682C75.7796 9.30682 74.703 8.69318 74.3491 7.50974L73.0071 7.875C73.5085 9.61364 75.1012 10.5633 77.0035 10.5633Z" fill="black"/>
<path d="M88.0638 5.17208C88.8159 4.7776 89.3615 4.09091 89.3615 2.9513C89.3615 1.09578 87.9311 0.175324 86.1467 0.175324H82.2093V10.4026H86.3532C88.0933 10.4026 89.627 9.46753 89.627 7.56818C89.627 6.31169 88.9339 5.55195 88.0638 5.17208ZM83.5808 1.35877H86.1467C87.1053 1.35877 88.0196 1.78247 88.0196 3.03896C88.0196 4.28084 87.1348 4.70455 86.1467 4.70455H83.5808V1.35877ZM86.3237 9.21916H83.5808V5.78571H86.3237C87.2233 5.78571 88.2555 6.25325 88.2555 7.49513C88.2555 8.75162 87.2233 9.21916 86.3237 9.21916Z" fill="black"/>
<path d="M95.8286 10.5487C98.7633 10.5487 101.034 8.19643 101.034 5.28896C101.034 2.38149 98.7633 0.0292204 95.8286 0.0292204C92.8793 0.0292204 90.6082 2.38149 90.6082 5.28896C90.6082 8.19643 92.8793 10.5487 95.8286 10.5487ZM95.8286 9.20455C93.6461 9.20455 91.9944 7.46591 91.9944 5.28896C91.9944 3.11201 93.6461 1.37338 95.8286 1.37338C97.9964 1.37338 99.6481 3.11201 99.6481 5.28896C99.6481 7.46591 97.9964 9.20455 95.8286 9.20455Z" fill="black"/>
<path d="M107.378 10.5487C110.313 10.5487 112.584 8.19643 112.584 5.28896C112.584 2.38149 110.313 0.0292204 107.378 0.0292204C104.429 0.0292204 102.158 2.38149 102.158 5.28896C102.158 8.19643 104.429 10.5487 107.378 10.5487ZM107.378 9.20455C105.196 9.20455 103.544 7.46591 103.544 5.28896C103.544 3.11201 105.196 1.37338 107.378 1.37338C109.546 1.37338 111.198 3.11201 111.198 5.28896C111.198 7.46591 109.546 9.20455 107.378 9.20455Z" fill="black"/>
<path d="M114.195 10.4026H115.581V2.54221L119.105 8.73701H120.196L123.721 2.5276V10.4026H125.122V0.175324H123.515L119.666 7.11526L115.787 0.175324H114.195V10.4026Z" fill="black"/>
<path d="M127.656 1.76786C128.098 1.76786 128.452 1.41721 128.452 0.978896C128.452 0.584415 128.098 0.233766 127.656 0.233766C127.228 0.233766 126.874 0.584415 126.874 0.978896C126.874 1.41721 127.228 1.76786 127.656 1.76786ZM127.022 10.4026H128.319V3.17045H127.022V10.4026Z" fill="black"/>
<path d="M25.5761 37.5501C26.3008 37.8475 27.0776 38.0003 27.862 38H31.6178C33.4011 38 35.1114 37.298 36.3725 36.0485C37.6335 34.799 38.3419 33.1042 38.3419 31.3371V6.67588C38.3415 5.80052 38.1672 4.93381 37.8287 4.12523C37.4903 3.31665 36.9945 2.58203 36.3696 1.96332C35.7447 1.34462 35.0029 0.853936 34.1866 0.519297C33.3703 0.184658 32.4954 0.0126138 31.612 0.0129872H6.72413C4.94078 0.0129872 3.23047 0.714969 1.96945 1.9645C0.708433 3.21404 0 4.90877 0 6.67588V31.3371C0.000760827 33.1031 0.708892 34.7966 1.96886 36.0456C3.22882 37.2947 4.93758 37.9971 6.71982 37.9986H10.4684C11.2533 37.9967 12.0301 37.8414 12.7543 37.5416C12.8656 37.5002 12.9745 37.4527 13.0804 37.3992C13.4886 37.2006 13.8712 36.9539 14.2198 36.6646C15.6724 35.5242 17.704 33.0897 17.9712 28.3132C18.1652 26.1534 16.3333 24.2386 13.931 24.2386H11.3592C8.70545 24.2386 6.52011 22.3892 6.20114 20.0045C6.19425 19.9735 6.18945 19.9421 6.18677 19.9105C6.16953 19.8194 6.16953 19.7212 6.16953 19.6258C6.15804 19.5603 6.15804 19.4934 6.15804 19.4279V19.4094C6.15804 19.3254 6.18246 19.2528 6.19396 19.1731C6.20545 19.0933 6.19396 19.015 6.20545 18.9325C6.21695 18.8499 6.23131 18.7645 6.24568 18.6876C6.26005 18.6107 6.26723 18.5296 6.28591 18.4513C6.30459 18.3729 6.33045 18.2904 6.352 18.2149C6.37356 18.1395 6.38361 18.0669 6.41235 17.9886C6.43871 17.9167 6.4687 17.8425 6.49567 17.7757L6.50287 17.7579C6.5316 17.6867 6.55603 17.6198 6.58907 17.5444C6.62212 17.4689 6.66522 17.3906 6.6997 17.3265C6.73419 17.2625 6.76436 17.1827 6.80603 17.1201C6.84769 17.0575 6.89798 16.9806 6.94108 16.9151C6.98419 16.8496 7.01867 16.787 7.06608 16.72C7.1135 16.6531 7.17241 16.5891 7.22126 16.5278C7.27011 16.4666 7.3089 16.4111 7.36493 16.3485C7.42097 16.2858 7.4885 16.2232 7.54166 16.1676C7.59482 16.1121 7.64511 16.0651 7.70114 16.0053C7.75717 15.9455 7.84338 15.8829 7.90085 15.8359C7.95832 15.7889 8.00143 15.7391 8.07039 15.6936C8.13936 15.648 8.22269 15.5939 8.28304 15.5512C8.34338 15.5085 8.39654 15.4658 8.46982 15.4202C8.54309 15.3746 8.63074 15.3277 8.69827 15.2907C8.76579 15.2536 8.81464 15.218 8.89942 15.1768C8.98417 15.1355 9.07184 15.0984 9.15947 15.0614C9.22413 15.033 9.28735 15.0002 9.35487 14.9732C9.44252 14.9362 9.54309 14.9077 9.64223 14.8735C9.70401 14.8536 9.76292 14.8308 9.82614 14.8109C9.92528 14.7838 10.0259 14.7625 10.1264 14.7383C10.1954 14.7254 10.2586 14.7055 10.3261 14.6913C10.4425 14.6699 10.5618 14.6557 10.6825 14.64C10.7371 14.6343 10.7888 14.6187 10.8448 14.6187C10.9382 14.6059 11.0517 14.6101 11.1322 14.6059C11.2126 14.6016 11.2917 14.593 11.375 14.593C11.5345 14.593 11.6911 14.6044 11.8477 14.6158L11.9684 14.6272C12.1192 14.6429 12.2557 14.6628 12.3994 14.6884H12.4339C13.1867 14.8256 13.8993 15.1267 14.5205 15.5698C15.1416 16.013 15.6558 16.5872 16.0258 17.2511C15.361 15.8697 14.3149 14.7033 13.0086 13.8869C13.1623 13.4582 13.3668 13.0491 13.6178 12.6682C13.635 12.6383 13.6552 12.6084 13.6753 12.5799C13.7471 12.4703 13.8247 12.365 13.9037 12.2625L13.9842 12.1628C14.0661 12.0617 14.148 11.9606 14.2371 11.8667C14.2512 11.8531 14.2647 11.8389 14.2773 11.824C14.4531 11.6405 14.6387 11.4666 14.8333 11.3029C14.8793 11.2659 14.9195 11.226 14.9655 11.1904C15.0474 11.1263 15.1537 11.0552 15.2155 11.0068C15.2773 10.9584 15.3434 10.9171 15.421 10.8644C15.4985 10.8117 15.5761 10.7605 15.6609 10.7106L15.9166 10.5683C15.9914 10.527 16.0661 10.4871 16.1437 10.4472L16.1593 10.4397C16.2845 10.3797 16.4066 10.3212 16.5445 10.2693C16.6063 10.2437 16.6666 10.218 16.7313 10.1938C16.8793 10.1397 17.0273 10.087 17.1825 10.0415L17.3822 9.98881C17.5057 9.95607 17.6322 9.92475 17.7615 9.89912C17.829 9.88488 17.9008 9.87065 17.9727 9.85926C18.1049 9.83648 18.2342 9.81797 18.3779 9.80231C18.4411 9.79519 18.5043 9.77953 18.5675 9.77953C18.7701 9.76387 18.9641 9.75106 19.1767 9.75106C19.3893 9.75106 19.6006 9.76245 19.8089 9.78096C19.8707 9.78665 19.9454 9.79804 20.0143 9.80658C20.1523 9.82367 20.2888 9.84075 20.4253 9.86495C20.5043 9.87777 20.5819 9.8977 20.6595 9.91621C20.7816 9.94041 20.9008 9.96888 21.0215 10.0016C21.1005 10.023 21.181 10.0486 21.26 10.0742C21.3735 10.1084 21.4842 10.1483 21.5948 10.1881L21.613 10.195C21.6856 10.2224 21.7562 10.2491 21.8304 10.2807C21.9368 10.3253 22.0416 10.3727 22.1451 10.423C22.2241 10.4572 22.2945 10.4956 22.3678 10.5327C22.4698 10.5868 22.5704 10.6437 22.6695 10.7021C22.7385 10.7434 22.8074 10.7832 22.875 10.8259C22.9755 10.89 23.0718 10.9612 23.1695 11.0324C23.2299 11.0751 23.2902 11.1164 23.3491 11.1619C23.4583 11.2474 23.5603 11.3385 23.6638 11.4282C23.7054 11.4623 23.7457 11.4965 23.7859 11.5335C23.9245 11.6615 24.0563 11.7965 24.181 11.9379C24.2184 11.9806 24.2528 12.0261 24.2888 12.0688C24.3735 12.1685 24.4583 12.271 24.5373 12.3778C24.5833 12.439 24.6235 12.5016 24.6666 12.5643C24.7299 12.6597 24.7931 12.7508 24.852 12.849C24.8951 12.9174 24.9324 12.99 24.9727 13.0597C25.0186 13.1537 25.0819 13.2676 25.1164 13.3445C25.1508 13.4213 25.1853 13.4982 25.2169 13.5737C25.2586 13.6719 25.2974 13.7701 25.3333 13.8698C25.362 13.9467 25.3807 14.0136 25.4123 14.1076C25.4439 14.2015 25.4684 14.2955 25.4928 14.3923L25.5014 14.4165C25.5201 14.4991 25.5402 14.5802 25.5574 14.6628C25.7774 15.7094 25.6891 16.7966 25.3031 17.7949C25.918 16.84 26.2857 15.7495 26.3735 14.6201C26.6011 14.5947 26.8299 14.5828 27.0589 14.5845C29.9109 14.6286 32.2112 16.8411 32.1752 19.4777C32.1393 22.1144 29.8261 24.25 26.9741 24.25H24.4051C21.9985 24.25 20.1666 26.1563 20.3606 28.3217C20.625 33.0982 22.6623 35.5327 24.1106 36.6717C24.4589 36.9626 24.842 37.2098 25.2514 37.4077C25.357 37.4609 25.4654 37.5085 25.5761 37.5501Z" fill="black"/>
</svg>
