<svg width="51" height="84" viewBox="0 0 51 84" fill="none" xmlns="http://www.w3.org/2000/svg">
<path d="M22.5101 0.157036C22.3527 0.328186 22.2774 0.348755 22.161 0.252907C22.0446 0.170761 21.983 0.17762 21.8735 0.335075C21.7571 0.485687 21.6955 0.50618 21.5722 0.396645C21.3395 0.204964 20.8671 0.335022 20.1072 0.793701C19.7991 0.98539 19.5116 1.047 18.9023 1.06754C18.56 1.08807 18.2246 1.1497 18.1561 1.21816C18.0876 1.28662 17.9781 1.33456 17.9028 1.33456C17.7248 1.33456 17.3209 1.73844 17.3893 1.85483C17.4236 1.90959 17.3483 1.93017 17.2319 1.89594C17.0744 1.85487 16.9991 1.91645 16.9033 2.14237C16.8074 2.41621 16.7732 2.42992 16.6911 2.25877C16.5404 2.01231 16.3898 2.03286 16.1571 2.34093C16.0202 2.51208 15.8901 2.57368 15.76 2.5326C15.6026 2.47099 15.6026 2.47781 15.7258 2.64211C15.849 2.80641 15.8353 2.83384 15.5341 2.8886C15.3561 2.92968 15.2055 3.01868 15.2055 3.09399C15.2055 3.1556 15.1096 3.30622 14.9933 3.41576C14.8769 3.52529 14.781 3.56633 14.781 3.51157C14.781 3.45679 14.6304 3.58687 14.4593 3.7854C14.2881 3.99078 14.0964 4.16882 14.0348 4.16882C13.9801 4.18251 13.8431 4.18935 13.7336 4.20305C13.4803 4.21674 12.7341 4.94924 12.7683 5.14777C12.8094 5.38054 12.7272 5.49692 12.4808 5.59277C12.3302 5.65437 12.248 5.75021 12.2891 5.81866C12.3302 5.90082 12.3849 5.89398 12.4603 5.79814C12.5219 5.68861 12.5356 5.73654 12.4945 5.91454C12.4534 6.06515 12.337 6.31158 12.2206 6.46903C12.1111 6.62649 12.0153 6.79762 12.0153 6.85238C12.0153 6.90715 11.94 7.00986 11.8578 7.08517C11.7277 7.1947 11.7209 7.25632 11.8167 7.35901C11.9126 7.47539 11.892 7.50964 11.7209 7.50964C11.495 7.50964 11.2211 7.85194 11.3512 7.96833C11.3854 8.0094 11.3375 8.14632 11.2554 8.2764C11.1595 8.41331 11.05 8.68025 11.0226 8.87194C10.9815 9.04993 10.8925 9.21424 10.8309 9.21424C10.7693 9.21424 10.7488 9.34433 10.7898 9.53601C10.8309 9.76878 10.8035 9.87835 10.694 9.91943C10.6118 9.9605 10.5365 10.0974 10.5365 10.2411C10.5365 10.3712 10.4202 10.6109 10.2695 10.7752C10.1121 10.9463 10.0025 11.1928 10.0025 11.3571C10.0025 11.5282 9.96147 11.6651 9.9067 11.6651C9.85194 11.6651 9.81086 11.8431 9.82455 12.0622C9.83825 12.2813 9.78348 12.4661 9.70817 12.5003C9.63287 12.5208 9.5781 12.7057 9.5781 12.9042C9.5781 13.1781 9.53702 13.2671 9.4001 13.2671C9.24265 13.2808 9.22895 13.2876 9.36587 13.3629C9.59179 13.493 9.52333 14.4378 9.30426 14.4378C9.17419 14.4378 9.17419 14.4788 9.26318 14.65C9.3248 14.7663 9.33849 14.9238 9.29741 14.9991C9.25634 15.0607 9.2358 15.2113 9.24265 15.3072C9.26318 15.4167 9.22211 15.4989 9.16049 15.4989C9.09888 15.4989 9.07834 15.6084 9.11942 15.7727C9.16049 15.9507 9.13996 16.0808 9.05781 16.1356C8.97565 16.1903 8.96196 16.2725 9.01673 16.3615C9.15365 16.5874 9.17419 16.8954 9.0715 17.0323C9.00988 17.1077 9.00988 17.2103 9.05781 17.3062C9.19473 17.5321 9.18788 17.58 8.9825 17.7854C8.88666 17.8812 8.8045 18.1277 8.8045 18.3194C8.79081 18.5248 8.74974 18.7165 8.70866 18.7575C8.66759 18.7986 8.68812 18.9081 8.76343 18.9834C8.83873 19.0793 8.84558 19.1614 8.78397 19.2094C8.64705 19.3189 8.38005 19.7913 8.51697 19.7228C8.57174 19.6817 8.67443 19.7433 8.7292 19.8597C8.88666 20.1336 8.87981 20.1884 8.67443 20.1884C8.52382 20.1884 8.52382 20.2226 8.63336 20.3458C8.71551 20.4417 8.77028 20.784 8.76343 21.1468C8.76343 21.496 8.8045 21.804 8.85927 21.8519C8.91404 21.8862 8.95512 22.2148 8.95512 22.5845C8.95512 23.0226 8.99619 23.2759 9.09204 23.3101C9.17419 23.3512 9.18788 23.3923 9.10573 23.4607C9.05096 23.5018 8.93458 23.9263 8.85927 24.3986C8.62651 25.8911 8.62651 26.1786 8.8182 26.3908C8.93458 26.5277 8.94827 26.5825 8.85243 26.5825C8.75658 26.5825 8.73604 26.692 8.77712 26.9522C8.81135 27.1576 8.79766 27.3218 8.73604 27.3218C8.57859 27.3218 8.62651 27.7463 8.79766 27.8079C9.02358 27.8901 9.00304 28.0407 8.73604 28.116C8.5649 28.1776 8.54436 28.2118 8.65389 28.3487C8.76343 28.4788 8.76343 28.5199 8.63336 28.6157C8.53751 28.6773 8.52382 28.7321 8.59913 28.7664C8.74974 28.828 8.66074 29.3072 8.44167 29.6494C8.28421 29.8959 8.28421 29.9028 8.50328 29.7795C8.82504 29.6221 8.90719 29.6289 8.73604 29.8343C8.61966 29.9712 8.5649 30.4299 8.6402 30.6969C8.69497 30.9023 8.60597 31.4295 8.51013 31.4842C8.45536 31.5185 8.48959 31.5801 8.58543 31.6211C8.73604 31.6759 8.74289 31.717 8.64705 31.8333C8.5649 31.9429 8.5512 32.0045 8.63336 32.0592C8.8045 32.1688 8.76343 32.3673 8.52382 32.6206C8.27737 32.8876 8.25683 32.9629 8.44851 32.9629C8.59913 32.9629 8.5649 33.7845 8.40744 33.983C8.35267 34.0446 8.36636 34.1404 8.42113 34.1952C8.4759 34.25 8.49644 34.4006 8.46221 34.5238C8.40744 34.6949 8.29106 34.7703 7.96245 34.825C7.716 34.8661 7.47639 34.9414 7.40793 34.9825C7.25047 35.0989 6.63433 35.2153 6.16196 35.2153C5.88812 35.2016 5.75805 35.2564 5.75805 35.3522C5.75805 35.4343 5.70328 35.5302 5.62798 35.5781C5.54582 35.6329 5.53213 35.5986 5.57321 35.4617C5.63482 35.3111 5.60744 35.2905 5.43629 35.3316C5.31991 35.3658 5.22406 35.3522 5.22406 35.318C5.22406 35.2769 4.97076 35.2563 4.66269 35.2631C3.69741 35.3042 3.49203 35.2015 3.34142 34.6128C3.27981 34.3389 3.17027 34.0515 3.11551 33.983C3.06074 33.9077 2.96489 33.6544 2.90328 33.4079C2.73213 32.8123 1.849 32.0661 1.94485 32.6001C1.96538 32.737 1.90377 32.7781 1.65731 32.7781C1.39032 32.7918 1.30817 32.8603 1.13702 33.1957C0.863182 33.7708 0.739955 34.3527 0.870028 34.517C0.945334 34.5991 0.945334 34.7086 0.870028 34.8456C0.808415 34.9756 0.794723 35.0784 0.856336 35.1468C0.91795 35.2153 0.98641 35.6329 1.01379 36.0915C1.04802 36.5571 1.12333 37.1047 1.17125 37.3169C1.22602 37.5223 1.26709 38.1864 1.26709 38.8094C1.26709 39.4255 1.30132 40.0964 1.32871 40.3018C1.36978 40.5072 1.39032 40.7194 1.39032 40.781C1.31502 41.4588 1.34925 42.3213 1.44509 42.5336C1.57516 42.8211 1.5204 43.5947 1.36978 43.5947C1.23971 43.5947 1.33555 44.1561 1.5067 44.4436C1.60255 44.6148 1.61624 44.6969 1.52724 44.7312C1.44509 44.7654 1.4314 44.9023 1.49301 45.2104C1.55463 45.4431 1.56832 45.7238 1.53409 45.8265C1.49986 45.9361 1.5204 46.0524 1.58885 46.0935C1.64362 46.1277 1.69839 46.2989 1.69839 46.4769C1.69839 46.7233 1.73947 46.785 1.93115 46.785C2.23922 46.785 2.04069 46.9972 1.70524 47.0314C1.49301 47.0451 1.37663 47.3189 1.58885 47.3189C1.65047 47.3189 1.69839 47.4353 1.69839 47.5722C1.69839 47.7229 1.75316 47.8735 1.80793 47.9008C1.86954 47.9419 1.89008 48.0583 1.86269 48.1747C1.82162 48.2911 1.84216 48.3801 1.91746 48.3801C1.97908 48.3801 1.99961 48.4896 1.95854 48.647C1.90377 48.8729 1.92431 48.9004 2.07492 48.8387C2.24607 48.7771 2.25291 48.8182 2.20499 49.1605C2.17076 49.3727 2.1913 49.5781 2.24607 49.6191C2.30084 49.6534 2.32822 50.0162 2.30768 50.4201C2.28714 51.091 2.29399 51.1527 2.48568 51.1527C2.69106 51.1527 2.69106 51.1664 2.50621 51.2896C2.34876 51.406 2.33507 51.4675 2.43091 51.6592C2.49252 51.7893 2.58837 51.981 2.64313 52.0837C2.68421 52.1932 2.71844 52.5492 2.70475 52.9052C2.69106 53.2612 2.72529 53.5761 2.78005 53.6103C2.84167 53.6514 2.88959 53.8568 2.89643 54.069C2.91013 54.3702 2.9512 54.4524 3.10866 54.4524C3.26612 54.4524 3.28665 54.4935 3.22504 54.6304C3.09497 54.8837 3.14974 55.9791 3.28665 56.027C3.55365 56.1229 3.70426 56.3967 3.69057 56.7801C3.69057 57.2387 3.77272 57.4578 3.93702 57.3756C3.99179 57.3345 4.03287 57.3551 4.03287 57.4167C4.03287 57.4715 3.97125 57.5331 3.90279 57.5536C3.79326 57.5947 3.80695 57.6495 3.93702 57.7658C4.03287 57.8617 4.10817 58.1355 4.11502 58.3957C4.12871 58.649 4.19032 58.9092 4.24509 58.9571C4.3067 59.0187 4.35463 59.1693 4.35463 59.2994C4.35463 59.4294 4.42993 59.5526 4.51208 59.6006C4.59423 59.6348 4.64216 59.7307 4.60793 59.8265C4.56685 59.9361 4.60793 59.984 4.72431 59.984C4.83384 59.984 4.88177 60.0592 4.86123 60.1619C4.84069 60.3673 5.16245 60.9356 5.37468 61.0793C5.44998 61.1204 5.53213 61.3052 5.58005 61.4832C5.62113 61.6612 5.71697 61.8324 5.79228 61.8666C5.87443 61.8871 5.92235 61.9761 5.88812 62.0446C5.85389 62.113 5.90866 62.25 6.0045 62.3184C6.08666 62.3937 6.16196 62.5307 6.16196 62.6402C6.16196 62.7497 6.23727 62.8867 6.31942 62.962C6.40157 63.0373 6.44949 63.1331 6.41526 63.1879C6.38103 63.2426 6.45634 63.4206 6.58641 63.5849C7.00401 64.1052 8.17468 65.3101 8.27736 65.3101C8.33213 65.3101 8.39375 65.3854 8.43482 65.4676C8.46905 65.5497 8.54436 65.625 8.61282 65.625C8.77027 65.625 9.3248 66.2343 9.36587 66.4534C9.38641 66.5493 9.47541 66.6314 9.54387 66.6314C9.62602 66.6314 9.73556 66.7683 9.77663 66.9326C9.87248 67.3023 10.0779 67.5624 10.2011 67.4734C10.2558 67.4392 10.2969 67.494 10.2969 67.583C10.2969 67.6788 10.3585 67.7541 10.4475 67.7541C10.5297 67.7541 10.6187 67.8294 10.6598 67.9116C10.694 67.9937 10.7898 68.0417 10.8651 68.0075C10.961 67.9732 11.0363 68.028 11.0705 68.1444C11.1047 68.2744 11.3033 68.3977 11.5908 68.4867C11.8441 68.562 12.1453 68.6646 12.248 68.7331C12.3644 68.7879 12.4739 68.8084 12.5013 68.7742C12.5356 68.7399 12.8436 68.8563 13.1928 69.048C13.7884 69.3698 13.8226 69.3698 13.9595 69.1849C14.1307 68.9521 14.5003 69.048 14.4045 69.3013C14.3703 69.3835 14.384 69.4383 14.4387 69.4109C14.4798 69.3766 14.6852 69.4451 14.8837 69.5478C15.2123 69.7189 15.7121 69.8901 15.9928 69.9174C16.3419 69.9585 16.7937 70.1228 16.8896 70.2392C16.9512 70.3145 17.314 70.3761 17.7727 70.3898C18.1903 70.4104 18.5942 70.4651 18.6559 70.5199C18.7106 70.5609 18.9297 70.6294 19.1351 70.65C19.4363 70.6705 19.5184 70.7321 19.539 70.9238C19.5801 71.1703 20.0045 71.4236 20.292 71.3825C20.3673 71.3688 20.4016 71.403 20.3537 71.4783C20.3057 71.5536 20.3673 71.629 20.4906 71.6563C20.607 71.6906 20.7439 71.8343 20.7918 71.9849C20.9082 72.4231 20.8739 73.539 20.737 73.58C20.6754 73.6006 20.6412 73.6622 20.6754 73.717C20.7096 73.758 20.6617 73.9292 20.5659 74.0661C20.47 74.2167 20.4153 74.3742 20.4495 74.4358C20.4906 74.4905 20.3673 74.648 20.1757 74.7781C19.984 74.915 19.7307 75.1273 19.6143 75.2642C19.4979 75.3943 19.3062 75.4969 19.1898 75.4969C18.827 75.4832 17.848 75.7639 17.848 75.8666C17.8617 75.9282 17.6906 75.9762 17.4852 75.983C17.2524 75.983 17.0402 76.0788 16.9033 76.2294C16.65 76.4964 16.4788 76.5307 16.4788 76.3116C16.4788 76.1952 16.4241 76.1815 16.2255 76.2774C16.0681 76.3527 15.9928 76.4554 16.0338 76.5649C16.0886 76.695 16.0681 76.7018 15.938 76.5991C15.8559 76.5375 15.671 76.4622 15.5204 76.4485C15.137 76.4074 14.0417 76.5786 13.9664 76.6812C13.8705 76.8387 13.5008 76.7908 13.4324 76.6197C13.316 76.3184 12.5356 76.5375 12.5356 76.873C12.5356 77.0441 12.3576 77.0098 12.2823 76.8182C12.248 76.736 12.1659 76.6881 12.1111 76.7224C12.0495 76.7634 11.9194 76.736 11.8236 76.647C11.6867 76.5375 11.6456 76.5375 11.6114 76.647C11.5771 76.7086 11.5155 76.7566 11.4607 76.7087C11.406 76.6744 11.3649 76.7292 11.3649 76.8182C11.3649 76.914 11.3238 76.9893 11.2554 76.9893C11.2006 76.9893 11.1458 76.9278 11.1458 76.8388C11.1458 76.7224 11.0294 76.6881 10.6598 76.7292C10.0642 76.7839 9.94778 76.8455 10.0094 77.092C10.071 77.3385 9.68079 77.4754 9.58494 77.2426C9.50964 77.0304 9.35218 77.1605 9.4138 77.3932C9.44803 77.5302 9.39326 77.5849 9.2358 77.5986C8.96196 77.6192 8.70182 77.8245 8.70182 78.0162C8.70182 78.0984 8.62651 78.1668 8.54436 78.1668C8.43482 78.1668 8.3869 78.2764 8.3869 78.4749C8.3869 78.6871 8.32529 78.7966 8.17468 78.8377C8.05829 78.872 7.92137 79.0158 7.85292 79.1664C7.79815 79.317 7.7023 79.4402 7.627 79.4402C7.56538 79.4402 7.53115 79.5018 7.56538 79.5703C7.58592 79.6456 7.67492 79.7004 7.73653 79.6798C7.89399 79.6456 7.88715 79.8373 7.72284 79.9057C7.64069 79.94 7.64754 79.9673 7.76392 79.9673C7.85976 79.981 7.97614 80.0289 8.01037 80.0837C8.05145 80.1453 8.0446 80.1933 7.98983 80.1796C7.94876 80.1659 7.72284 80.1659 7.51062 80.1796C7.18201 80.1933 7.11355 80.2206 7.14093 80.3918C7.16147 80.5013 7.22309 80.6588 7.29155 80.741C7.42162 80.8916 7.42847 80.9189 7.42847 81.2612C7.42847 81.4324 7.46954 81.4666 7.67492 81.4118C7.90084 81.3571 7.88715 81.3571 7.64069 81.5214C7.40793 81.672 7.40793 81.6925 7.59961 81.6515C7.77761 81.6172 7.81184 81.6514 7.77076 81.8431C7.72969 82.0964 8.1336 82.5757 8.29106 82.473C8.46905 82.3634 9.13311 83.0344 9.05781 83.2397C9.02358 83.3219 9.0715 83.3903 9.17419 83.3903C9.27003 83.3903 9.34534 83.3493 9.34534 83.3082C9.34534 83.1918 9.67394 83.1781 9.82455 83.2876C9.88617 83.3287 10.2079 83.3492 10.5502 83.3492C10.8788 83.3355 11.1595 83.3629 11.1595 83.404C11.1595 83.4656 11.2896 83.4656 11.9605 83.3629C12.0221 83.3493 12.0563 83.3835 12.0426 83.4451C12.029 83.5067 12.3096 83.5546 12.6793 83.5546C13.0422 83.5546 13.672 83.6368 14.0622 83.7463C14.4661 83.8421 14.829 83.9038 14.8906 83.8764C14.9453 83.8353 14.9864 83.8559 14.9864 83.9106C14.9864 84.027 15.5067 84.0202 15.6915 83.9106C15.849 83.8011 16.5747 83.7805 17.0402 83.8764C17.2524 83.9175 17.4373 83.9106 17.4373 83.8627C17.4373 83.8079 17.6906 83.7668 17.9918 83.7668C18.3889 83.7668 18.5463 83.7257 18.5258 83.6299C18.5052 83.4793 18.6764 83.4588 18.7722 83.6094C18.8133 83.6847 18.9023 83.6847 19.0255 83.6094C19.1351 83.5546 19.2514 83.5341 19.272 83.5683C19.3815 83.6642 20.8603 83.7189 20.7918 83.6231C20.7576 83.5683 20.7781 83.493 20.8466 83.4519C20.9013 83.4177 20.9561 83.4656 20.9561 83.5478C20.9561 83.7806 21.1272 83.76 21.3805 83.5067C21.5106 83.3766 21.5928 83.3493 21.5928 83.4314C21.5928 83.5683 22.5307 83.5889 22.7429 83.4656C22.8045 83.4314 22.9209 83.4314 23.0167 83.4656C23.1126 83.4999 23.2632 83.4793 23.3453 83.404C23.4275 83.3424 23.537 83.2945 23.5781 83.3287C23.7698 83.4451 24.6735 83.5067 24.6735 83.404C24.6735 83.3492 24.7488 83.2945 24.8309 83.2945C24.9131 83.2945 24.9884 83.3493 24.9884 83.4109C24.9884 83.4725 25.0637 83.5067 25.1458 83.4656C25.228 83.4314 25.3033 83.4519 25.3033 83.5067C25.3033 83.5615 25.4607 83.582 25.6524 83.5478C26.4603 83.4109 27.5556 83.3424 27.5967 83.4177C27.6925 83.5546 27.9595 83.5135 27.9595 83.3561C27.9595 83.1438 28.384 83.2739 28.3977 83.493C28.3977 83.5888 28.4319 83.6094 28.4593 83.5341C28.4935 83.4383 28.5551 83.4245 28.7057 83.5204C28.8632 83.6162 28.959 83.6162 29.1713 83.5067C29.3082 83.4245 29.5136 83.3903 29.5957 83.4245C29.6779 83.4587 29.8285 83.4246 29.9175 83.3287C30.027 83.2192 30.0955 83.2123 30.1502 83.2945C30.1913 83.3766 30.2461 83.3767 30.2872 83.3082C30.3282 83.226 30.4994 83.226 30.8074 83.2945C31.1155 83.3561 31.3277 83.3561 31.4647 83.2808C31.6016 83.2055 31.6769 83.2055 31.6769 83.2671C31.6769 83.3287 31.7385 83.3492 31.8275 83.3218C31.9028 83.2876 32.3067 83.2602 32.7312 83.2466C33.272 83.2329 33.4842 83.2602 33.4842 83.3561C33.4842 83.5614 33.7717 83.5272 33.9087 83.3013C34.025 83.1302 34.025 83.1302 33.9703 83.3013C33.9292 83.4314 33.9703 83.493 34.1004 83.5067C34.1962 83.5204 34.4084 83.5272 34.5659 83.5409C34.7233 83.5546 34.8876 83.5957 34.9287 83.6368C34.9698 83.671 35.1615 83.6368 35.3532 83.5546C35.5449 83.4793 35.7365 83.4451 35.7708 83.493C35.8324 83.6094 36.7908 83.5751 36.9825 83.4587C37.0647 83.404 37.1605 83.4246 37.2153 83.5136C37.27 83.5957 37.3111 83.6094 37.3111 83.5478C37.3111 83.4862 37.5028 83.4314 37.7493 83.4314C38.0026 83.4314 38.2285 83.3698 38.2832 83.2808C38.3654 83.1439 38.4202 83.2192 38.3928 83.4177C38.3722 83.5683 38.4886 83.5135 38.9678 83.1644C39.2211 82.9727 39.4813 82.7057 39.5429 82.5688C39.6045 82.4387 39.7004 82.3361 39.7688 82.3361C39.8373 82.3361 39.8647 82.3771 39.8236 82.4319C39.7894 82.4866 39.803 82.562 39.8578 82.5894C39.9126 82.6236 40.029 82.5072 40.1248 82.3361C40.2412 82.1444 40.3713 82.0485 40.4671 82.0827C40.7683 82.1991 41.2133 80.871 41.138 80.0632C41.1175 79.7962 41.1517 79.5771 41.1928 79.5771C41.2475 79.5771 41.2065 79.5018 41.1106 79.406C41.0011 79.2896 40.96 79.139 40.9942 78.9815C41.049 78.8035 41.0148 78.7282 40.9121 78.7282C40.6862 78.7282 40.3986 78.4065 40.4671 78.2422C40.5013 78.16 40.4534 78.0916 40.3713 78.0916C40.2891 78.0916 40.1659 78.0094 40.118 77.8862C40.0563 77.7766 39.8647 77.6329 39.6935 77.5576C39.5155 77.4823 39.3854 77.3795 39.3923 77.3111C39.406 77.2495 39.3101 77.1742 39.1664 77.1536C39.0363 77.1331 38.9541 77.0783 38.9884 77.0235C39.1048 76.8455 38.7556 76.695 38.4681 76.8113C38.0984 76.9483 37.9478 76.9483 38.0299 76.8113C38.071 76.7497 38.1463 76.7361 38.2079 76.7703C38.2696 76.8114 38.3038 76.7839 38.2695 76.6949C38.2353 76.6059 38.1121 76.5238 37.9615 76.517C37.8246 76.4964 37.6397 76.4211 37.5781 76.3664C37.4823 76.291 37.3864 76.291 37.2769 76.3869C37.14 76.5033 37.0647 76.4828 36.8593 76.2911C36.7087 76.1542 36.4964 76.0583 36.3458 76.0788C36.2158 76.0925 36.0241 76.0651 35.9419 76.0378C35.8598 75.9967 35.5928 75.9419 35.36 75.9077C34.4563 75.7707 34.1346 75.757 34.1346 75.8734C34.1346 75.935 34.0251 75.9556 33.8471 75.9077C33.6759 75.8666 33.2378 75.8119 32.8544 75.7776C32.471 75.7571 32.1493 75.6955 32.1287 75.6407C32.1082 75.5996 31.9986 75.5791 31.896 75.6065C31.7796 75.6407 31.6837 75.6065 31.6837 75.5448C31.6837 75.4695 31.5879 75.449 31.4304 75.4901C31.2935 75.5243 31.1429 75.5038 31.1018 75.4353C31.0676 75.3737 30.9854 75.3395 30.9307 75.3737C30.7801 75.4695 30.1982 75.0109 30.2598 74.8602C30.3214 74.6822 29.9175 74.3057 29.8216 74.4563C29.7052 74.6617 29.5341 74.5864 29.6094 74.3605C29.6505 74.2236 29.6231 74.1277 29.5272 74.0867C29.3972 74.0456 29.3903 73.9566 29.4656 73.6896C29.5272 73.4774 29.5204 73.3404 29.4451 73.2925C29.3835 73.2514 29.404 73.1761 29.5067 73.0803C29.5889 73.005 29.6642 72.8886 29.6642 72.8065C29.6642 72.7311 29.76 72.6148 29.8764 72.5531C29.9928 72.4915 30.0544 72.382 30.027 72.3204C29.9859 72.2451 29.9928 72.2382 30.0681 72.2793C30.1434 72.3204 30.2392 72.2588 30.294 72.1082C30.3488 71.9712 30.5815 71.6632 30.828 71.403C31.0744 71.1566 31.2935 70.8074 31.3414 70.6294C31.403 70.2871 31.8001 69.9517 32.2588 69.8422C32.4162 69.8011 32.5874 69.6847 32.6422 69.5888C32.6969 69.493 32.7585 69.4314 32.7791 69.4519C32.8407 69.5135 33.3747 69.2739 33.4158 69.1507C33.4363 69.0891 33.7444 69.0207 34.1209 69.0001C34.5043 68.9864 34.8329 68.9179 34.874 68.8426C34.915 68.781 35.0314 68.7468 35.1273 68.7879C35.2231 68.8221 35.3052 68.8084 35.3052 68.7468C35.3052 68.6852 35.4559 68.6098 35.6339 68.5688C35.8118 68.5277 35.983 68.4319 36.0172 68.3429C36.0515 68.2607 36.1336 68.1922 36.2226 68.1922C36.3048 68.1922 36.3732 68.1512 36.3732 68.0827C36.3732 68.028 36.4348 68.0074 36.5101 68.028C36.5717 68.0622 36.8182 67.9116 37.0441 67.7062C37.27 67.5008 37.5028 67.357 37.5576 67.3844C37.6123 67.4255 37.6876 67.3708 37.715 67.2749C37.7561 67.1791 37.8519 67.1243 37.9409 67.1585C38.0505 67.1996 38.0779 67.1722 38.0231 67.0216C37.9683 66.8505 38.0026 66.8299 38.1737 66.871C38.3106 66.9052 38.4612 66.83 38.6324 66.6383C38.7693 66.4808 38.9405 66.2754 39.0158 66.2001C39.0911 66.1179 39.1321 66.0495 39.0979 66.0495C39.0637 66.0495 39.1184 65.9537 39.2143 65.8373C39.3238 65.7209 39.4402 65.625 39.4881 65.625C39.625 65.625 40.4055 64.7556 40.4123 64.5913C40.4123 64.516 40.4876 64.4818 40.5698 64.516C40.6656 64.5571 40.8026 64.4544 40.9395 64.2148C41.0559 64.0231 41.1517 63.9067 41.1517 63.9614C41.1517 64.0162 41.227 63.9957 41.3092 63.9204C41.3913 63.8451 41.4392 63.7493 41.405 63.6945C41.3708 63.6397 41.4255 63.5644 41.5214 63.537C41.6309 63.4959 41.6583 63.4001 41.6309 63.2837C41.5762 63.1331 41.6104 63.1057 41.7815 63.1468C41.9527 63.1879 42.0348 63.1057 42.206 62.7292C42.3224 62.4622 42.4935 62.1883 42.5894 62.113C42.6715 62.0377 42.7468 61.9351 42.7468 61.8803C42.7468 61.8255 42.918 61.6475 43.1165 61.4627C43.3219 61.2847 43.4862 61.0382 43.4862 60.9287C43.4862 60.8192 43.5615 60.7233 43.6436 60.7233C43.7395 60.7233 43.8011 60.6275 43.8011 60.47C43.8011 60.3331 43.8764 60.1825 43.9722 60.1482C44.0681 60.1072 44.1228 60.0524 44.0886 60.0182C44.0544 59.9771 44.1023 59.8813 44.1845 59.7923C44.2666 59.6965 44.3625 59.4911 44.4104 59.3336C44.4446 59.1556 44.5473 59.0118 44.6774 58.9844C44.8074 58.9433 44.8554 58.8749 44.8143 58.8064C44.7732 58.738 44.7732 58.649 44.828 58.6011C44.8828 58.5668 44.9854 58.4231 45.0607 58.2725C45.1224 58.1219 45.2319 57.9302 45.2935 57.848C45.5194 57.4989 45.8138 56.7527 45.759 56.6637C45.7248 56.6089 45.759 56.472 45.8206 56.3556C45.896 56.2187 45.896 56.1433 45.8206 56.1433C45.7659 56.1433 45.7111 56.1023 45.7111 56.0338C45.7111 55.9791 45.7864 55.9586 45.8686 55.9928C45.9781 56.0339 46.026 55.9928 46.026 55.8422C46.026 55.7121 46.0808 55.5888 46.1356 55.5546C46.1972 55.5204 46.2451 55.3766 46.2451 55.226C46.2451 55.0891 46.2999 54.9727 46.3615 54.9727C46.4231 54.9727 46.4573 54.8769 46.4231 54.7605C46.3889 54.6441 46.4026 54.5482 46.4368 54.5482C46.4779 54.5482 46.5189 54.4319 46.5189 54.2949C46.5326 54.158 46.6353 53.9458 46.7654 53.8157C46.8955 53.6856 46.9708 53.5419 46.9365 53.4734C46.8955 53.4186 46.9229 53.3023 46.9913 53.2202C47.1008 53.0901 47.0872 53.0627 46.8818 53.0627C46.6764 53.0627 46.6696 53.0421 46.7722 52.9052C46.8475 52.8231 46.9434 52.7683 46.9845 52.7957C47.094 52.8573 47.2172 52.0632 47.1351 51.851C47.1008 51.7551 47.1214 51.6798 47.1898 51.6798C47.2515 51.6798 47.3062 51.5223 47.3062 51.3306C47.3062 51.0979 47.3405 51.0294 47.4021 51.139C47.5321 51.3307 47.7101 50.4475 47.7854 49.2358C47.8607 48.0446 47.9224 47.7571 48.1894 47.3874C48.3194 47.2162 48.3468 47.1136 48.2647 47.1615C48.1551 47.2231 48.1346 47.1615 48.1894 46.8397C48.2236 46.6138 48.2989 46.4016 48.3468 46.3742C48.4769 46.292 48.6549 45.3199 48.7507 44.1835C48.8808 42.7664 48.9287 42.3556 49.0999 41.801C49.1615 41.5957 49.182 41.3971 49.1546 41.3561C49.1204 41.3013 49.1341 41.2603 49.1889 41.2603C49.2299 41.2603 49.2847 40.8905 49.2984 40.4318C49.3121 39.9869 49.3395 39.4529 49.3737 39.2475C49.4079 39.0147 49.3737 38.8299 49.2642 38.7272C49.1478 38.6177 49.1341 38.5355 49.2094 38.4602C49.271 38.3986 49.3258 38.2343 49.3258 38.1111C49.3258 37.981 49.3874 37.8235 49.4627 37.7619C49.6407 37.625 49.6133 36.0162 49.4422 35.9614C49.3669 35.9409 49.36 35.8519 49.4285 35.7287C49.4901 35.6123 49.4901 35.5028 49.4422 35.4754C49.3326 35.4138 49.5243 34.7703 49.6544 34.7703C49.7639 34.7703 49.8666 34.2842 49.9214 33.5996C49.9419 33.2778 49.983 32.8329 49.9967 32.6206C50.0172 32.4084 49.9967 32.251 49.9625 32.2715C49.9214 32.3057 49.9008 32.0798 49.9077 31.7923C49.9214 31.4911 49.8872 31.2583 49.8461 31.2583C49.7913 31.2583 49.7502 31.1214 49.7502 30.9571C49.7502 30.6832 49.2847 29.8823 49.0177 29.7248C48.7918 29.5879 48.2647 29.5879 48.1483 29.7248C48.0524 29.8412 48.073 29.8754 48.2784 29.8754C48.4563 29.8754 48.4906 29.9096 48.3947 30.0055C48.2373 30.1629 47.9908 29.9644 47.9087 29.6016C47.8539 29.3962 47.7923 29.3482 47.6622 29.3893C47.5664 29.4304 47.4568 29.4099 47.4158 29.3483C47.3747 29.273 47.2104 29.3483 46.9982 29.5536C46.8065 29.7316 46.6764 29.8822 46.7106 29.8822C46.7517 29.8822 46.6764 29.9918 46.56 30.115C46.4436 30.2451 46.3683 30.4162 46.3889 30.4847C46.4231 30.56 46.4026 30.6216 46.3341 30.6216C46.2725 30.6216 46.2383 30.6832 46.2725 30.7722C46.3067 30.8475 46.2862 30.9639 46.2177 31.0255C46.1356 31.1077 46.1356 31.183 46.2314 31.2994C46.3273 31.4089 46.3273 31.4705 46.2451 31.5253C46.1698 31.5663 46.1356 31.7169 46.1698 31.8539C46.1903 31.9908 46.1835 32.1072 46.1493 32.1072C46.1082 32.1072 46.0329 32.3742 45.9713 32.6891C45.9165 33.0108 45.9096 33.271 45.9507 33.271C46.0876 33.271 46.0466 33.4627 45.8686 33.6407C45.7727 33.7365 45.5947 33.7982 45.4647 33.7776C45.3483 33.7639 45.1771 33.7913 45.1018 33.8392C45.0265 33.8803 44.9307 33.8939 44.8964 33.8597C44.8554 33.8255 44.7253 33.8598 44.6089 33.9351C44.4788 34.0172 44.1913 34.113 43.9722 34.1473C43.7395 34.1815 43.5136 34.2773 43.4725 34.3526C43.4109 34.4622 43.3561 34.4622 43.2603 34.3663C43.1644 34.2705 43.0343 34.2842 42.7263 34.4074C42.4182 34.5238 42.2676 34.5375 42.1649 34.4485C42.0896 34.3869 41.9938 34.3732 41.939 34.4143C41.8979 34.4554 41.9253 34.3732 42.0143 34.2226C42.1854 33.9488 42.2265 32.6891 42.0691 32.4427C42.028 32.381 42.0348 32.292 42.0896 32.2509C42.1512 32.2167 42.1718 32.1209 42.1444 32.0387C42.1033 31.9566 42.0348 31.9018 41.9938 31.9292C41.9527 31.9634 41.8842 31.9155 41.8568 31.8333C41.8158 31.7375 41.8911 31.6622 42.0143 31.6211C42.1854 31.5801 42.2197 31.5389 42.1238 31.4294C42.0622 31.3472 42.028 30.9708 42.0417 30.5463C42.0759 29.9165 42.1033 29.7933 42.2881 29.7043C42.4182 29.6427 42.514 29.4989 42.514 29.3551C42.514 29.225 42.473 29.1429 42.4182 29.1771C42.3634 29.2113 42.3224 29.1908 42.3224 29.1224C42.3224 29.0676 42.3771 28.9854 42.4319 28.9512C42.514 28.8964 42.5072 28.8348 42.4182 28.7252C42.3566 28.6499 42.3224 28.4993 42.3634 28.4172C42.3977 28.3213 42.3429 28.1707 42.2334 28.0681C42.1033 27.938 42.0622 27.7463 42.0828 27.4177C42.1033 27.1507 42.0622 26.8084 41.9869 26.6441C41.8089 26.206 41.7199 24.7614 41.8705 24.6519C41.9116 24.6177 41.9527 24.4602 41.9801 24.3028C42.0006 24.0974 41.9595 24.0016 41.8226 23.9742C41.6446 23.9331 41.6446 23.9194 41.8363 23.9125C42.0075 23.8988 42.0143 23.851 41.9527 23.495C41.9116 23.2827 41.8705 23.0157 41.8774 22.9131C41.8774 22.8172 41.8431 22.735 41.7952 22.735C41.7473 22.735 41.7199 22.5776 41.7336 22.3859C41.7541 22.2079 41.7473 22.1326 41.7199 22.2285C41.6651 22.4407 41.4666 22.4954 41.494 22.2832C41.5145 22.2216 41.4598 22.1668 41.3982 22.1873C41.1654 22.2284 41.2475 22.0505 41.494 21.9409C41.8568 21.7835 41.8568 21.5028 41.5077 21.3658L41.2065 21.2495L41.494 21.2837C41.6994 21.318 41.761 21.2837 41.7199 21.1879C41.6857 21.1057 41.7405 21.0167 41.8295 20.9757C41.9595 20.9346 41.9664 20.8387 41.8705 20.4759C41.8089 20.2294 41.6994 19.9761 41.6172 19.9214C41.5077 19.8392 41.5008 19.716 41.583 19.4353C41.6651 19.1273 41.6651 18.6138 41.5967 18.0387C41.583 17.9976 41.5008 17.984 41.405 18.0182C41.227 18.073 41.227 18.0729 41.3913 17.936C41.5077 17.8265 41.5488 17.669 41.5214 17.4226C41.5008 17.2172 41.4666 16.9776 41.4666 16.8886C41.4529 16.8065 41.4118 16.6764 41.3571 16.6148C41.3023 16.5532 41.2612 16.3478 41.2407 16.1698C41.227 15.9781 41.1791 15.8275 41.1243 15.8275C41.0832 15.8275 41.0695 15.7727 41.1106 15.6974C41.227 15.5057 41.2681 14.4651 41.1517 14.3898C41.0969 14.3556 41.0764 14.2118 41.1106 14.0681C41.1449 13.8764 41.1106 13.801 40.9942 13.801C40.8642 13.801 40.8368 13.7394 40.8847 13.5957C40.9806 13.2876 40.8299 12.7947 40.693 12.9385C40.5356 13.0959 40.4055 13.0891 40.4055 12.8974C40.4055 12.8153 40.4603 12.7399 40.515 12.7399C40.6519 12.7399 40.6519 12.6099 40.5013 12.2402C40.426 12.0827 40.3644 11.5898 40.3439 11.1517C40.3096 10.6177 40.248 10.3027 40.1317 10.1727C40.0358 10.0631 39.9947 9.93995 40.0221 9.87149C40.0632 9.81673 40.0084 9.72088 39.9126 9.66611C39.7962 9.6045 39.7757 9.54973 39.8578 9.49496C39.9194 9.45389 39.9742 9.34433 39.9742 9.26218C39.9742 9.15264 39.8989 9.12524 39.7072 9.18001C39.3786 9.26216 39.3444 9.06365 39.6867 8.96781L39.9194 8.89253L39.6935 8.79666C39.5634 8.7419 39.4265 8.64606 39.3717 8.57076C39.3307 8.49545 39.3375 8.4612 39.406 8.50912C39.4676 8.55019 39.5771 8.52283 39.6387 8.43384C39.7346 8.31746 39.714 8.27634 39.5224 8.22157C39.3649 8.18735 39.2143 8.00936 39.0842 7.6876C38.9336 7.31792 38.8172 7.20158 38.5708 7.14681C38.2422 7.0715 38.071 6.9003 38.2285 6.78392C38.4065 6.66754 38.4544 6.38689 38.3106 6.2089C38.1942 6.05145 38.1737 6.03777 38.1052 6.18838C38.0642 6.31845 38.0094 6.32527 37.8519 6.22942C37.6466 6.09935 37.6466 6.09933 37.8383 5.90765C37.9546 5.79127 38.0436 5.64066 38.0436 5.56535C38.0436 5.38736 37.5781 4.93556 37.4823 5.02456C37.448 5.05879 37.448 4.99032 37.4823 4.87394C37.537 4.64802 37.27 4.35361 36.695 3.99078C36.5033 3.86071 36.3458 3.72378 36.3458 3.66901C36.3458 3.62793 36.2842 3.60739 36.1952 3.63477C36.0857 3.67585 36.0241 3.58005 35.9693 3.36782C35.894 3.02553 35.3737 2.56001 35.2231 2.69693C35.1683 2.73801 35.1683 2.68323 35.2026 2.58054C35.2573 2.45046 35.2162 2.4025 35.0862 2.4025C34.9903 2.4025 34.737 2.29301 34.5317 2.16978C34.1688 1.94386 33.7854 1.72479 32.8818 1.24557C32.649 1.1155 32.2862 1.01962 32.0808 1.03331C31.8754 1.047 31.3072 0.97171 30.8143 0.875862C29.8969 0.70472 28.3566 0.629395 28.1512 0.759468C28.0896 0.793701 28.0348 0.773201 28.0348 0.697899C28.0348 0.615746 27.9938 0.615761 27.8774 0.711601C27.7404 0.82798 27.6857 0.821136 27.5761 0.677376C27.4598 0.519913 26.8299 0.355614 26.4192 0.369301C26.3096 0.382996 26.2275 0.328186 26.2275 0.259727C26.2275 0.184425 26.1864 0.18441 26.0974 0.246025C25.9263 0.362404 25.2691 0.355576 25.0637 0.225502C24.9541 0.170731 24.8925 0.184425 24.8583 0.259727C24.8378 0.321342 24.7488 0.341866 24.6666 0.314484C24.5845 0.280251 24.516 0.300842 24.516 0.369301C24.516 0.465149 23.7082 0.444557 23.1879 0.348709C23.0715 0.314484 22.9209 0.293961 22.8456 0.293961C22.784 0.280266 22.7087 0.21183 22.6881 0.11599C22.7087 -0.048317 22.6813 -0.0346451 22.5101 0.157036ZM28.1991 4.12088C28.2128 4.19618 28.2128 4.292 28.1991 4.33308C28.1991 4.38785 28.2402 4.41525 28.3087 4.41525C28.3771 4.41525 28.4045 4.49053 28.3634 4.57269C28.3224 4.68222 28.3771 4.73013 28.5209 4.73013C28.6373 4.73013 28.829 4.77125 28.9385 4.83971C29.048 4.89448 29.3082 4.9698 29.5204 4.99033C29.7463 5.02456 29.9585 5.09987 29.9996 5.16148C30.0407 5.23679 30.2529 5.29151 30.4651 5.29151C30.6774 5.29151 30.8485 5.33262 30.8485 5.38738C30.8485 5.44215 30.9033 5.48318 30.9581 5.48318C31.0197 5.48318 31.0676 5.38734 31.0676 5.27781C31.0676 5.03136 31.2387 4.89445 31.3346 5.0519C31.3757 5.11352 31.451 5.13404 31.5057 5.10666C31.5605 5.06558 31.6427 5.16831 31.7111 5.31892C31.7659 5.46954 31.8823 5.58589 31.9439 5.56535C32.0192 5.54482 32.2314 5.6407 32.4231 5.77762C32.6011 5.90769 32.9023 6.04457 33.0803 6.0788C33.3473 6.13357 33.4021 6.18836 33.3541 6.34582C33.3131 6.48274 33.3884 6.6744 33.5595 6.90031C33.717 7.07831 33.8813 7.29738 33.9292 7.34531C34.0661 7.5233 34.5796 8.57077 34.5659 8.65292C34.5317 8.83092 34.8534 9.41962 34.9835 9.41962C35.0588 9.41962 35.0999 9.46072 35.0656 9.51549C35.0314 9.57026 35.1067 9.64556 35.2436 9.68664C35.3737 9.72087 35.4216 9.78249 35.36 9.80303C35.1478 9.89887 35.3189 10.7204 35.6065 10.9394C35.8735 11.1517 35.9282 11.3982 35.7365 11.4598C35.6544 11.494 35.6749 11.5556 35.7776 11.672C35.8735 11.7541 35.983 12.0142 36.0104 12.2265C36.0515 12.4387 36.1199 12.6099 36.161 12.6099C36.1952 12.6099 36.2363 12.8015 36.2431 13.048C36.2568 13.445 36.5717 13.9448 36.8182 13.9448C37.0441 13.9448 37.0099 14.116 36.7634 14.2187C36.5581 14.3145 36.517 14.3898 36.5923 14.472C36.7703 14.6979 36.7977 15.4646 36.6265 15.5262C36.5444 15.5605 36.5101 15.6427 36.5444 15.7043C36.5854 15.759 36.6402 15.9713 36.6744 16.1493C36.7087 16.3409 36.7566 16.5121 36.7908 16.5463C36.8661 16.6011 36.873 16.6421 36.962 17.5253C36.9825 17.7923 37.0578 18.1071 37.1126 18.2167C37.229 18.4221 37.3385 19.0862 37.4001 19.9693C37.4412 20.4554 37.4343 20.4827 37.1537 20.4896C36.9962 20.5033 36.8045 20.5033 36.7155 20.4896C36.6402 20.469 36.5033 20.5033 36.3938 20.5307C36.2979 20.5718 35.8392 20.6059 35.3737 20.5923C34.8876 20.5923 34.5043 20.6334 34.4563 20.7018C34.4153 20.784 34.3263 20.7839 34.1894 20.7155C34.0524 20.6402 33.7444 20.6607 33.1898 20.7703C32.7517 20.8524 32.1698 20.9072 31.9028 20.8866C31.5194 20.8661 31.4236 20.8867 31.4647 20.9962C31.5057 21.1126 31.4099 21.1262 31.0197 21.0715C30.3693 20.9756 29.5615 21.181 29.6505 21.4207C29.7052 21.537 29.671 21.5712 29.5409 21.5165C29.2397 21.4069 29.0823 21.5302 29.0617 21.8862C29.007 22.6187 29.1165 22.8035 29.7121 22.9746C30.5952 23.2279 31.4783 23.3375 31.5331 23.2074C31.5673 23.1321 31.6153 23.1526 31.6906 23.2485C31.7453 23.3306 31.8275 23.3649 31.8686 23.3238C31.9096 23.2827 32.0192 23.3033 32.0945 23.3786C32.2109 23.4744 32.2656 23.4744 32.3204 23.3923C32.3752 23.2964 32.6216 23.317 33.1898 23.4265C33.628 23.5224 34.1346 23.584 34.3263 23.584C34.518 23.584 34.7918 23.6456 34.9424 23.7209C35.0999 23.803 35.3052 23.8578 35.4011 23.8373C35.4969 23.8167 35.6339 23.7962 35.6886 23.7962C35.7502 23.7825 35.7228 23.7346 35.6339 23.6661C35.4764 23.5497 35.5585 23.5566 36.784 23.7756C37.0373 23.8304 37.2837 23.9057 37.3248 23.9537C37.4617 24.1043 37.5713 24.9531 37.4549 24.9531C37.2837 24.9531 37.496 27.1986 37.6808 27.3013C37.7424 27.3424 37.7561 27.4314 37.7013 27.5136C37.6466 27.5957 37.6055 27.8011 37.6055 27.9791C37.6055 28.1845 37.5507 28.3008 37.448 28.3077C37.3659 28.3077 37.1057 28.3282 36.8867 28.3282C36.6744 28.3419 36.5033 28.383 36.5033 28.4241C36.5375 28.6363 36.4828 28.6774 36.3458 28.5747C36.2295 28.4652 36.1336 28.4651 35.9625 28.561C35.8324 28.6226 35.6612 28.6568 35.5791 28.6226C35.4969 28.5883 35.4285 28.6226 35.4285 28.6979C35.4285 28.7801 35.3942 28.7938 35.3463 28.7116C35.2094 28.4994 34.6412 28.4788 33.6759 28.6294C32.5395 28.8211 32.5052 28.8211 31.9918 28.9306C31.7659 28.9854 31.4578 29.0402 31.3004 29.047C30.9307 29.0881 30.5336 29.2182 30.5268 29.3003C30.4446 30.3751 30.4651 30.4368 31.1771 30.8202C31.581 31.0324 31.8275 31.0735 32.6695 31.094C33.2241 31.1077 33.895 31.1351 34.162 31.1762C34.429 31.2104 35.0451 31.2514 35.5449 31.272C36.0446 31.2925 36.4691 31.3267 36.5033 31.3267C36.5375 31.3404 36.7087 31.3404 36.873 31.3267C37.4891 31.2925 37.7424 31.4774 37.8177 31.984C37.9341 32.7849 37.9478 33.2504 37.8519 33.312C37.7972 33.3463 37.8177 33.4079 37.893 33.4627C38.0094 33.538 38.0026 33.5585 37.8588 33.5585C37.6466 33.5585 37.6055 33.716 37.7766 33.8255C37.8382 33.8597 37.8862 33.9419 37.8862 33.9966C37.8862 34.0583 37.8314 34.072 37.7698 34.0378C37.7082 33.9967 37.6603 34.024 37.6876 34.0993C37.7013 34.1815 37.7013 34.5649 37.6876 34.9483L37.6739 35.6603L37.2769 35.7424C37.051 35.7834 36.7977 35.8177 36.7155 35.804C36.6334 35.7903 36.4828 35.8177 36.3938 35.8588C36.0515 35.9957 35.3189 36.0368 34.4495 35.9683C33.9908 35.9341 33.8128 35.9546 33.7717 36.0641C33.7375 36.1463 33.6211 36.2148 33.5048 36.2148C33.3952 36.2148 33.3268 36.2559 33.3541 36.3106C33.3884 36.3654 33.2446 36.4064 33.0324 36.4064C32.8202 36.4064 32.5942 36.4612 32.5463 36.516C32.4847 36.5776 32.3683 36.5981 32.293 36.5708C32.0603 36.4886 31.184 37.2006 31.2524 37.4196C31.2867 37.5292 31.2387 37.6319 31.1429 37.6661C30.9923 37.7209 30.9923 37.7619 31.1292 38.0358C31.3346 38.4328 31.5742 38.5493 32.1219 38.5356C32.4299 38.5356 32.5669 38.4808 32.5669 38.3849C32.5669 38.2069 32.7449 38.1933 32.7996 38.3644C32.8544 38.5219 33.0118 38.5424 34.3126 38.6108C34.8329 38.6314 35.3463 38.6109 35.4422 38.5561C35.5517 38.5013 35.6681 38.4945 35.7092 38.5356C35.7434 38.5766 36.1678 38.6177 36.6471 38.6314C37.1263 38.6314 37.5713 38.6519 37.626 38.6519C37.6876 38.6656 37.7424 38.9394 37.7424 39.3023C37.7561 39.7404 37.804 40.0074 37.9341 40.1307C38.1395 40.3634 38.1463 40.473 37.9683 40.473C37.8862 40.473 37.8314 40.6098 37.8177 40.8426C37.804 41.0548 37.7424 41.2876 37.6808 41.3766C37.6055 41.4588 37.585 41.5341 37.626 41.5341C37.6808 41.5341 37.6397 41.6162 37.5439 41.7121C37.4275 41.849 37.3864 42.0749 37.407 42.4651C37.4275 42.7732 37.3933 43.047 37.3522 43.0812C37.2974 43.1155 37.2769 43.3345 37.3111 43.581C37.3522 44.0397 37.3522 44.0397 37.0099 44.0397C36.8182 44.0397 36.5717 44.0739 36.4554 44.1218C36.339 44.1629 35.9419 44.2177 35.5859 44.2314C35.2162 44.2519 34.8534 44.3135 34.785 44.382C34.7028 44.4368 34.5522 44.4436 34.4358 44.3957C34.114 44.2656 34.0661 44.2793 34.1346 44.471C34.1894 44.6284 34.1688 44.6285 33.9224 44.4573C33.7649 44.3615 33.6348 44.3204 33.6348 44.3752C33.6348 44.4368 33.4637 44.471 33.2651 44.4367C33.0529 44.4162 32.8955 44.4505 32.8955 44.5121C32.8955 44.5669 32.8202 44.6216 32.738 44.6216C32.6559 44.6216 32.4916 44.6627 32.3889 44.7175C32.293 44.7722 32.1219 44.8475 32.0192 44.8749C31.9233 44.9091 31.807 45.0255 31.7659 45.1213C31.7248 45.2309 31.629 45.3884 31.54 45.4705C31.403 45.6006 31.3894 45.5869 31.4578 45.3884C31.5742 45.0461 31.4578 45.1008 31.2661 45.4979C31.0539 45.9155 31.0539 46.114 31.2524 46.114C31.3483 46.114 31.4099 46.2099 31.4099 46.381C31.4099 46.5864 31.4715 46.6549 31.7111 46.7028C31.8686 46.737 32.1698 46.8191 32.382 46.8808C32.5942 46.9424 33.0872 46.9766 33.4774 46.9424C33.8607 46.9219 34.1894 46.9424 34.203 46.9835C34.2441 47.1135 36.9483 47.1889 36.9483 47.0588C36.9483 46.9972 37.0236 47.0177 37.1057 47.1136C37.3111 47.3052 37.3111 47.4969 37.1194 47.4969C37.0373 47.4969 36.9483 47.5585 36.914 47.627C36.8524 47.8324 36.9551 48.1473 37.0647 48.072C37.1194 48.0378 37.1605 48.0925 37.1605 48.1815C37.1605 48.2773 37.1194 48.3526 37.051 48.3526C36.8387 48.3526 36.9551 48.6402 37.2084 48.7566C37.5165 48.8935 37.5576 49.0852 37.2906 49.1057C36.8319 49.1399 36.7771 49.1605 36.8114 49.2974C36.8251 49.3727 36.7566 49.5028 36.6607 49.5712C36.5512 49.6465 36.4554 49.7629 36.4485 49.8451C36.3938 50.1737 36.3321 50.427 36.2705 50.5776C36.0994 51.0568 36.0925 51.3649 36.2568 51.6114C36.428 51.8852 36.428 51.8852 36.1473 51.8373C35.9898 51.803 35.8392 51.8236 35.805 51.8715C35.7708 51.9263 35.805 51.9673 35.8803 51.9673C35.9898 51.9673 35.9898 52.0015 35.9008 52.0837C35.8187 52.1658 35.8187 52.296 35.8803 52.4671C35.9351 52.6177 35.9556 52.7752 35.9214 52.8299C35.8803 52.8847 35.8392 53.0353 35.8118 53.1585C35.7776 53.2886 35.716 53.4118 35.6612 53.4461C35.6065 53.4803 35.5449 53.6035 35.5243 53.7199C35.5038 53.8363 35.4285 53.9253 35.3669 53.9116C35.2916 53.891 35.2094 53.9869 35.1752 54.1238C35.0793 54.4661 34.8739 54.8769 34.7507 54.9659C34.6891 55.0207 34.7096 55.0959 34.8055 55.1576C34.9356 55.2397 34.9013 55.2671 34.6754 55.2671C34.5043 55.2671 34.3742 55.3082 34.3742 55.3492C34.3742 55.404 34.1072 55.5546 33.7923 55.6778C33.4705 55.8147 33.1008 56.0407 32.9708 56.1776C32.8339 56.3145 32.6627 56.4309 32.6011 56.4309C32.5258 56.4309 32.471 56.4857 32.4916 56.561C32.5052 56.6226 32.3752 56.7184 32.1903 56.7664C32.0192 56.8074 31.67 56.9375 31.4236 57.0675C31.1771 57.1976 30.9033 57.2935 30.8143 57.2935C30.7321 57.2935 30.6226 57.3482 30.5884 57.4098C30.5473 57.4646 30.383 57.5673 30.2392 57.6221C30.027 57.7043 29.9928 57.7522 30.1023 57.8275C30.1982 57.8823 30.2187 57.9849 30.1639 58.1013C30.0886 58.293 30.0818 58.293 29.9859 58.0808C29.8901 57.8754 29.8353 57.8686 29.5067 57.9644C29.1986 58.0603 29.1576 58.115 29.2055 58.3272C29.2397 58.4642 29.2192 58.5737 29.1507 58.5737C29.096 58.5737 29.0412 58.4778 29.0412 58.3615C29.0412 58.1082 28.8632 58.0876 28.5551 58.2998C28.425 58.382 28.2334 58.4573 28.1307 58.4573C28.028 58.4573 27.761 58.4915 27.5556 58.5189C27.3502 58.5531 27.0353 58.6011 26.8436 58.6353C26.6109 58.6695 26.4808 58.7654 26.426 58.9228C26.3507 59.1488 26.3507 59.1487 26.2686 58.9434C26.2275 58.827 26.1864 58.7859 26.1864 58.8339C26.1727 58.8955 25.8578 58.9502 25.3786 58.9434C24.8035 58.9434 24.5776 58.9845 24.5776 59.0735C24.5776 59.2446 24.4475 59.2514 24.2764 59.0871C24.1942 59.005 24.1189 59.005 24.0094 59.0871C23.8999 59.1693 23.7082 59.183 23.3933 59.1282C23.14 59.0735 22.606 59.046 22.2089 59.0529C21.805 59.0529 21.4832 59.0187 21.4832 58.9571C21.4832 58.9023 21.449 58.8955 21.4216 58.9228C21.3805 58.9571 21.2642 58.9434 21.1546 58.8886C21.0382 58.827 20.9424 58.8133 20.9013 58.8749C20.7713 59.0871 20.0387 58.8612 19.361 58.4094C18.9776 58.1561 18.5395 57.9097 18.382 57.8754C18.2246 57.8343 18.0397 57.7385 17.9781 57.6632C17.9028 57.581 17.6906 57.4578 17.492 57.3962C17.2867 57.3346 17.1292 57.2182 17.1292 57.1292C17.1292 56.958 16.7458 56.828 16.3282 56.8553C16.0955 56.869 16.0544 56.8416 16.1571 56.7732C16.2871 56.6979 16.2392 56.5952 15.9448 56.2118C15.7532 55.9653 15.5409 55.7257 15.4862 55.6778C15.4314 55.6436 15.3766 55.5478 15.3561 55.4656C15.3424 55.3903 15.1644 55.137 14.9522 54.9111C14.5483 54.4661 14.5072 54.3702 14.6783 54.2607C14.8358 54.1649 14.8084 53.9595 14.6373 54.028C14.5277 54.0691 14.4661 53.9526 14.4114 53.5898C14.3703 53.316 14.295 53.0353 14.2539 52.9806C14.1991 52.9189 14.1238 52.7067 14.0964 52.5013C14.0622 52.296 13.9801 52.0768 13.9184 52.0015C13.8568 51.9262 13.8363 51.7688 13.8637 51.6524C13.8979 51.536 13.8774 51.406 13.8089 51.3786C13.7541 51.3443 13.6583 51.1869 13.5967 51.0363C13.4461 50.6392 13.3708 49.2084 13.5008 49.2084C13.5556 49.2084 13.5761 49.003 13.5419 48.7497C13.5077 48.5032 13.4871 48.1952 13.4871 48.0583C13.4871 47.9282 13.4461 47.8255 13.3913 47.8255C13.3365 47.8255 13.2955 47.6954 13.2955 47.5517C13.2955 47.3463 13.2544 47.2847 13.138 47.3395C12.9326 47.4148 12.9326 47.3052 13.138 47.0861C13.2681 46.9492 13.405 46.9287 13.85 46.9903C14.1581 47.0314 14.6167 47.0245 14.87 46.9697C15.1233 46.915 15.5752 46.874 15.8832 46.8876C16.1913 46.8876 16.5541 46.8671 16.7048 46.826C16.8554 46.7918 17.047 46.7507 17.1292 46.7438C17.2114 46.7302 17.3209 46.6822 17.3551 46.6274C17.4647 46.4905 18.8955 46.7028 18.8681 46.8602C18.8133 47.0862 19.0187 46.9971 19.0803 46.7781C19.1419 46.5316 19.3678 46.4906 19.3678 46.7233C19.3678 46.8055 19.4226 46.8808 19.4774 46.8808C19.539 46.8808 19.5869 46.826 19.5869 46.7644C19.5869 46.6822 19.6417 46.6891 19.7581 46.785C19.936 46.9356 20.8671 47.0314 20.8671 46.8945C20.8671 46.8397 20.9424 46.7781 21.0177 46.7438C21.1341 46.7028 21.1546 46.7302 21.1272 46.8602C21.0725 47.0177 21.0862 47.0177 21.1889 46.8465C21.2505 46.7507 21.36 46.6686 21.4216 46.6686C21.5722 46.6686 21.9967 46.1688 22.2294 45.7101C22.4622 45.2309 22.4827 44.2177 22.25 44.2108C22.1404 44.2108 22.1541 44.1766 22.2911 44.1287C22.4827 44.0534 22.4691 44.0328 22.161 43.8548C21.9693 43.7384 21.8187 43.6084 21.8187 43.5674C21.8187 43.5263 21.6681 43.4852 21.4901 43.4852C21.3121 43.4852 21.1889 43.5262 21.2368 43.5947C21.271 43.6495 21.2573 43.7043 21.1957 43.7043C21.1409 43.7043 21.0656 43.6632 21.0246 43.6084C20.9629 43.492 20.4426 43.4509 19.2925 43.4715C18.7517 43.4852 18.471 43.5331 18.3546 43.6495C18.1493 43.8548 18.0876 43.8548 18.1629 43.6495C18.2177 43.5331 18.1493 43.492 17.9096 43.492C17.7316 43.492 17.5468 43.5468 17.5126 43.6016C17.4715 43.6769 17.3825 43.6769 17.2456 43.6016C16.9375 43.4304 16.8006 43.4715 16.8759 43.7111C16.9101 43.8275 16.8964 44.0123 16.8348 44.1081C16.7732 44.2177 16.7184 44.2451 16.7184 44.1698C16.7184 44.0192 16.294 44.115 16.2803 44.2862C16.2803 44.3478 16.2255 44.2862 16.1708 44.1493C16.0886 43.9439 16.0202 43.9165 15.7737 43.9712C15.6162 44.0123 15.3561 44.0808 15.1986 44.1081C15.0412 44.1424 14.9316 44.204 14.9659 44.2588C15.0412 44.3888 14.8906 44.3752 14.6989 44.2588C14.5893 44.1972 14.4114 44.2246 14.1581 44.3546C13.6925 44.5874 13.1243 44.6011 13.0422 44.3752C13.0079 44.2793 13.0285 44.1698 13.1038 44.1424C13.1859 44.0808 13.1859 44.0465 13.1038 43.9917C12.9463 43.8822 12.9532 43.5057 13.1243 43.5057C13.1996 43.5057 13.2544 43.3483 13.2544 43.0881C13.2681 42.7458 13.2338 42.691 13.0764 42.739C12.8436 42.7937 12.8436 42.7595 13.0353 42.3967C13.1312 42.205 13.1517 41.9791 13.0969 41.671C13.0422 41.4246 13.0353 41.1576 13.0627 41.0891C13.0969 41.007 13.0285 40.8426 12.9326 40.7399C12.8231 40.6235 12.7752 40.5277 12.8025 40.5277C12.8299 40.5277 12.8231 40.3771 12.7683 40.2059C12.7136 40.0006 12.7136 39.8842 12.782 39.8842C12.8505 39.8842 12.8779 39.6377 12.8573 39.3297C12.8231 38.8436 12.8573 38.7683 13.0353 38.7341C13.1517 38.7135 13.3228 38.6725 13.405 38.6383C13.583 38.563 15.0412 38.4671 16.0407 38.4671C16.4035 38.4534 16.6979 38.426 16.6979 38.3712C16.6979 38.3165 16.8143 38.3096 16.9512 38.3507C17.0881 38.3849 17.314 38.3644 17.4304 38.2891C17.5605 38.2275 17.9096 38.159 18.2177 38.159C18.9845 38.1453 19.4021 37.9263 19.3131 37.584C19.2378 37.2827 19.2788 37.2622 19.5048 37.5018C19.6622 37.6524 19.6759 37.6319 19.6827 37.3101C19.6964 37.1184 19.7238 36.8446 19.7649 36.694C19.8607 36.3517 19.7854 36.0573 19.6074 36.0573C19.5321 36.0573 19.4911 35.9957 19.5253 35.9204C19.5458 35.8451 19.5048 35.6945 19.4158 35.5781C19.2651 35.3864 19.2583 35.3864 19.2446 35.5439C19.2446 35.6739 19.1625 35.7355 18.9776 35.7355C18.6901 35.7355 18.6285 35.5438 18.8407 35.3316C18.9365 35.2358 18.8749 35.2016 18.5189 35.2016C18.2725 35.2016 18.0739 35.1468 18.0739 35.092C18.0739 35.0304 17.9986 34.9825 17.9028 34.9825C17.807 34.9825 17.7727 35.0373 17.8206 35.0989C17.8617 35.1742 17.8343 35.2084 17.7453 35.1742C17.6632 35.1399 17.5331 35.1879 17.4578 35.27C17.3825 35.3453 17.1703 35.4069 16.9991 35.4069C16.8211 35.4069 16.5404 35.4822 16.3693 35.5644C16.1913 35.6602 16.0475 35.6808 16.0475 35.6191C16.0475 35.5644 15.9928 35.5096 15.9312 35.5096C15.76 35.5096 15.5136 35.7835 15.5136 35.9752C15.5136 36.071 15.4588 36.1463 15.3972 36.1463C15.3424 36.1463 15.3219 36.1053 15.3561 36.0368C15.4725 35.8451 14.8906 35.7903 14.6099 35.9752C14.3771 36.1258 14.3429 36.1326 14.3429 35.9889C14.3429 35.7972 14.2128 35.7835 14.0417 35.9546C13.9321 36.0642 13.8842 36.0642 13.8089 35.9341C13.7131 35.7972 13.6925 35.7972 13.6035 35.9341C13.4735 36.1258 12.7615 36.1874 12.7752 36.0094C12.7889 35.6397 12.7341 35.3932 12.6588 35.448C12.604 35.4822 12.5766 35.1468 12.5766 34.7224C12.5903 33.9967 12.5766 33.9487 12.3713 33.9898C12.2206 34.0309 12.2001 34.0104 12.2959 33.9351C12.3781 33.8803 12.4466 33.5722 12.4534 33.1341C12.4671 32.737 12.5082 32.4221 12.5356 32.4221C12.6177 32.4221 12.5766 31.6896 12.4808 31.4568C12.4192 31.3062 12.5356 31.2994 13.4255 31.3199C14.1307 31.3336 14.4661 31.2993 14.5003 31.224C14.5346 31.1419 14.8426 31.0939 15.3219 31.0871C16.1434 31.0734 16.7595 30.9708 16.9512 30.8202C17.0334 30.7585 17.1018 30.779 17.1429 30.8954C17.1977 31.0255 17.3004 31.0529 17.5468 31.0255C17.7248 30.9913 18.0329 31.005 18.2246 31.0461C18.4573 31.1008 18.5942 31.0872 18.6285 31.005C18.6627 30.9297 18.7106 30.9434 18.7859 31.0392C18.8681 31.1762 18.9365 31.1761 19.1898 31.0529C19.3473 30.9776 19.539 30.9023 19.5938 30.8817C20.0524 30.7722 20.607 30.4162 20.607 30.2108C20.607 30.1492 20.6823 30.0944 20.7781 30.0944C20.8603 30.0944 20.915 30.0534 20.8876 29.9986C20.8466 29.9439 20.8739 29.7659 20.9424 29.6016C21.0246 29.3551 21.0177 29.273 20.8876 29.1771C20.7918 29.1155 20.7165 28.9443 20.7165 28.8074C20.7165 28.246 19.6006 27.7121 18.8338 27.9106C18.6627 27.9517 18.0808 27.9928 17.5263 27.9928C16.9717 28.0065 16.4378 28.0544 16.3556 28.1228C16.2735 28.1776 16.0818 28.205 15.9312 28.1982C15.7805 28.1776 15.5136 28.2187 15.3492 28.294C15.1713 28.3556 14.7673 28.4514 14.4456 28.4993C14.1238 28.5541 13.6446 28.6362 13.3913 28.691C12.8779 28.8074 12.6382 28.7664 12.6382 28.561C12.6382 28.4994 12.5629 28.3077 12.4808 28.1365C12.3439 27.8695 12.3302 27.8079 12.4671 27.6573C12.5835 27.5204 12.5972 27.4451 12.5013 27.274C12.3507 27.0207 12.2891 26.6578 12.3918 26.7194C12.4466 26.7536 12.4876 26.6578 12.4876 26.514C12.5013 26.3771 12.4739 26.2607 12.4329 26.2607C12.3918 26.2607 12.3507 25.8431 12.3507 25.3229C12.3507 24.8094 12.3165 24.2343 12.2686 24.0426C12.2138 23.8167 12.2275 23.7003 12.3096 23.7003C12.3713 23.7003 12.426 23.5839 12.426 23.4333C12.426 23.2827 12.4603 23.1664 12.5082 23.1664C13.2544 23.1116 13.6583 23.1253 13.5625 23.1869C13.4666 23.2485 13.4803 23.2691 13.583 23.2691C13.6651 23.2691 13.8294 23.1937 13.9321 23.091C14.1033 22.9336 14.1444 22.9336 14.3155 23.0773C14.4661 23.2142 14.7605 23.2348 15.9859 23.2142C17.5057 23.18 17.6906 23.1732 17.9302 23.0089C18.0055 22.9678 18.1013 22.9473 18.1356 22.9746C18.1698 23.0089 18.382 22.9199 18.6011 22.7693C18.827 22.6323 19.0598 22.516 19.1145 22.516C19.1693 22.516 19.2309 22.4406 19.272 22.3585C19.3062 22.2763 19.3884 22.2079 19.4637 22.2216C19.539 22.2421 19.6006 22.1805 19.6006 22.0915C19.6006 22.0094 19.6348 21.9135 19.6759 21.8793C19.7717 21.804 19.806 20.8045 19.7101 20.517C19.628 20.2637 19.3884 20.1952 19.3062 20.4074C19.2651 20.5169 19.2309 20.5169 19.1145 20.4074C18.9981 20.2979 18.9981 20.2774 19.1351 20.2774C19.2104 20.2637 19.1693 20.202 19.0187 20.1267C18.8407 20.0172 18.6969 20.0104 18.56 20.072C18.4642 20.1336 18.3272 20.1473 18.2588 20.113C18.204 20.072 18.0808 20.0994 17.9849 20.1884C17.8343 20.3048 17.807 20.3047 17.759 20.1747C17.718 20.0583 17.6974 20.0583 17.629 20.1747C17.5537 20.2842 17.4989 20.2842 17.362 20.161C17.2456 20.0651 17.1566 20.0515 17.1155 20.1199C17.0744 20.1884 16.6774 20.2294 16.2461 20.2157C15.8079 20.2157 15.3492 20.25 15.2329 20.3116C15.0959 20.3732 15.0206 20.3664 14.9864 20.2774C14.9659 20.2157 14.9111 20.1815 14.87 20.2157C14.8153 20.2363 14.5414 20.2911 14.2539 20.3116C13.9664 20.3458 13.6446 20.3938 13.5625 20.428C13.4666 20.4691 13.3571 20.4485 13.316 20.3869C13.2818 20.3253 13.138 20.3047 12.9874 20.3321C12.8094 20.3869 12.7341 20.3526 12.7341 20.2362C12.7341 20.1541 12.7957 20.0446 12.871 20.024C12.9532 19.983 12.9669 19.9419 12.8847 19.8734C12.8231 19.8323 12.7478 19.6954 12.7136 19.5654C12.6725 19.3874 12.6999 19.3531 12.8915 19.3942C13.1175 19.4353 13.138 19.4079 13.0832 19.0656C13.0627 18.8602 13.0832 18.6617 13.1448 18.6206C13.3023 18.5385 13.1654 18.0113 12.9532 17.8539C12.8025 17.7375 12.8162 17.7238 13.0285 17.7169C13.1585 17.7169 13.2612 17.7717 13.2612 17.847C13.2612 17.9087 13.2955 17.9429 13.3228 17.9018C13.4324 17.7923 13.4598 17.0803 13.3571 17.0186C13.3023 16.9844 13.2955 16.9023 13.3365 16.8407C13.3776 16.7654 13.4187 16.5189 13.4324 16.2862C13.4461 15.6495 13.583 15.1702 13.7541 15.1702C13.8363 15.1702 13.9047 15.1155 13.9047 15.0607C13.9047 14.9991 13.8637 14.9512 13.8226 14.9512C13.7678 14.9512 13.7404 14.7184 13.7404 14.4172C13.7541 14.1296 13.7815 13.8832 13.8226 13.8832C13.9184 13.8832 13.8637 12.959 13.7678 12.8632C13.6309 12.7263 13.6925 12.6099 13.9047 12.6099C14.1101 12.6099 14.1307 12.5688 14.1581 12.2059C14.1717 12.1306 14.2197 12.0348 14.2881 11.9937C14.3497 11.9527 14.4456 11.7473 14.4935 11.5488C14.5414 11.3502 14.6236 11.1448 14.6715 11.1106C14.7263 11.0695 14.781 10.823 14.781 10.5492C14.7947 10.2206 14.8358 10.0632 14.9385 10.0632C15.0138 10.0632 15.0754 10.0084 15.0754 9.94677C15.0754 9.89201 15.1302 9.87147 15.2055 9.91254C15.2671 9.95362 15.2876 9.9468 15.2466 9.87149C15.1849 9.76196 15.3629 9.2348 15.4999 9.10473C15.671 8.95412 16.0202 8.37907 15.9654 8.33115C15.9312 8.29692 16.0065 8.24897 16.1228 8.20105C16.2529 8.16682 16.3488 8.08469 16.3488 8.02308C16.3488 7.87247 16.7321 7.40691 16.8074 7.46852C16.8417 7.50275 16.8896 7.42745 16.9375 7.31107C16.9717 7.181 17.0539 7.08517 17.1155 7.08517C17.1703 7.08517 17.3414 6.98936 17.4852 6.87297C17.6358 6.75659 17.7316 6.66071 17.6906 6.66071C17.6563 6.66071 17.7248 6.56489 17.8412 6.44851C17.9576 6.33213 18.1082 6.23624 18.1698 6.23624C18.382 6.23624 18.9023 5.87341 18.9023 5.72279C18.9023 5.62695 18.9571 5.61327 19.1077 5.70227C19.3747 5.83919 19.361 5.83922 19.6485 5.59277C19.8265 5.4353 19.9224 5.41474 19.9771 5.49689C20.0319 5.57905 20.2099 5.53115 20.5933 5.28469C20.8945 5.1067 21.1889 4.9561 21.2505 4.9561C21.3052 4.9561 21.3258 4.90129 21.2915 4.84653C21.2094 4.69592 21.4422 4.40155 21.5791 4.4837C21.6338 4.51794 21.6338 4.60008 21.5585 4.68908C21.3805 4.90131 21.7365 4.97664 22.0378 4.78495C22.1747 4.68911 22.4759 4.62748 22.695 4.63433C22.9209 4.64802 23.1537 4.648 23.2084 4.62062C23.27 4.60693 23.4343 4.5864 23.5781 4.56586C23.7287 4.54533 24.0026 4.51109 24.2079 4.4837C24.4133 4.44947 24.6255 4.46317 24.6871 4.51794C24.7625 4.57954 24.8788 4.57954 24.9541 4.53846C25.0294 4.48369 25.1869 4.47684 25.3033 4.50423C25.4197 4.53846 25.5497 4.50426 25.5908 4.44266C25.6456 4.3605 25.7483 4.36735 25.9605 4.47688C26.1522 4.58642 26.3233 4.60692 26.426 4.53846C26.5356 4.48369 26.7136 4.4974 26.871 4.55216C27.0216 4.61378 27.2544 4.68224 27.405 4.68908C27.5556 4.70962 27.6104 4.70279 27.5419 4.66856C27.4324 4.63433 27.4324 4.55901 27.5214 4.41525C27.5761 4.29886 27.672 4.23724 27.7336 4.26462C27.7884 4.30569 27.8842 4.29884 27.9595 4.25092C28.0417 4.19614 28.0211 4.14139 27.8774 4.09347C27.6994 4.01817 27.6994 4.01131 27.9184 4.01131C28.0828 3.99761 28.1991 4.05927 28.1991 4.12088ZM45.6153 37.4881C45.6358 37.6387 45.5742 37.7962 45.4647 37.8715C45.3072 38.0016 45.3072 38.0084 45.451 38.0769C45.6016 38.1316 45.6221 38.2685 45.5674 38.9189C45.4304 40.7605 45.3962 40.9522 45.2251 41.0549C45.1292 41.1165 45.1087 41.2671 45.1634 41.5204C45.2182 41.7942 45.2045 41.8832 45.1087 41.8285C45.0128 41.7668 44.9923 41.9243 45.0265 42.4446C45.0607 42.8417 45.0402 43.1155 44.9854 43.0812C44.9307 43.047 44.9238 43.1018 44.9512 43.1976C44.9923 43.2798 44.9649 43.4304 44.8896 43.5194C44.7938 43.6358 44.7801 43.7111 44.8759 43.8206C44.9375 43.9028 44.9581 43.9918 44.9307 44.0329C44.8964 44.0671 44.917 44.1903 44.9854 44.3067C45.095 44.4984 45.0813 44.5189 44.9238 44.4573C44.7664 44.3957 44.7527 44.4162 44.8691 44.5531C44.9854 44.7037 44.9786 44.7448 44.8143 44.8407C44.6637 44.9228 44.6568 44.9708 44.7527 45.0735C44.8348 45.1556 44.8485 45.2514 44.7938 45.3199C44.6774 45.4568 44.7732 46.025 44.9033 46.025C45.1087 46.025 44.9786 46.1962 44.6705 46.3331C44.4378 46.4289 44.383 46.5042 44.4788 46.559C44.5884 46.6343 44.5747 46.7097 44.4241 46.9219C44.3282 47.0793 44.2735 47.2505 44.3077 47.3052C44.3419 47.3668 44.3282 47.4147 44.2666 47.4147C44.205 47.4147 44.1708 47.5517 44.1913 47.7228C44.2118 47.9487 44.1913 48.024 44.0818 47.9761C43.9106 47.9145 43.8764 48.2226 44.0407 48.3184C44.1023 48.3595 44.116 48.4485 44.0749 48.5101C43.9654 48.6812 44.0339 49.0441 44.1845 49.1399C44.2803 49.1947 44.2803 49.2495 44.1708 49.3522C44.0749 49.448 44.0407 49.448 44.0407 49.3316C44.0407 48.9688 43.8285 49.4275 43.7942 49.8519C43.7806 50.0984 43.7121 50.338 43.6368 50.3859C43.4656 50.4818 43.5957 50.8446 43.7669 50.7487C43.8285 50.7145 43.7806 50.8035 43.6505 50.9541C43.5136 51.091 43.404 51.2827 43.404 51.3786C43.404 51.4744 43.3424 51.6045 43.2671 51.6661C43.185 51.7277 43.137 51.9125 43.1713 52.1042C43.1918 52.2822 43.1713 52.426 43.1302 52.4123C43.0754 52.3986 42.959 52.3986 42.8769 52.4123C42.7468 52.426 42.7468 52.4466 42.8906 52.5903C43.0617 52.7615 43.0412 53.268 42.87 53.268C42.8153 53.268 42.7742 53.3502 42.7742 53.4598C42.7742 53.5693 42.6989 53.7609 42.603 53.8842C42.5072 54.0211 42.4524 54.158 42.4867 54.1854C42.5209 54.2197 42.4456 54.3429 42.3292 54.4593C42.1717 54.6167 42.1512 54.692 42.2471 54.8084C42.3292 54.9179 42.3292 55.0138 42.2471 55.1781C42.1854 55.2945 42.1512 55.4314 42.1854 55.4862C42.2197 55.5409 42.1238 55.7121 41.9801 55.8832C41.8295 56.0544 41.7336 56.2461 41.7541 56.3214C41.7884 56.383 41.7336 56.472 41.6446 56.4993C41.5625 56.5336 41.494 56.6705 41.494 56.8211C41.494 56.958 41.4324 57.095 41.3434 57.1292C41.2475 57.1703 41.2133 57.2798 41.2475 57.3962C41.2818 57.5468 41.2339 57.6289 41.0764 57.6837C40.8299 57.759 40.7889 57.8959 40.96 58.0055C41.1722 58.1355 41.0764 58.3546 40.8299 58.3067C40.6383 58.2656 40.6177 58.2724 40.6999 58.3683C40.8368 58.5189 40.7752 58.9091 40.6246 58.9091C40.5698 58.9091 40.5287 58.9844 40.5287 59.0666C40.5287 59.1487 40.4329 59.313 40.3165 59.4089C40.1043 59.6006 40.0427 59.8128 40.1864 59.895C40.2275 59.9155 40.207 59.9155 40.1317 59.9086C39.9742 59.8675 39.6456 60.3673 39.7346 60.5179C39.7757 60.5932 39.7346 60.6138 39.5977 60.5727C39.3307 60.4905 38.4818 61.2847 38.5776 61.5311C38.6324 61.668 38.5982 61.6886 38.427 61.6407C38.1942 61.5654 38.0779 61.6544 37.7013 62.1747C37.585 62.3321 37.3933 62.558 37.2837 62.6607C37.1331 62.7976 37.1126 62.8524 37.2221 62.8524C37.318 62.8524 37.2837 62.9277 37.14 63.0647C37.0099 63.1947 36.9072 63.3727 36.9072 63.4822C36.9072 63.5918 36.7908 63.7287 36.6402 63.7903C36.4896 63.8519 36.3732 63.9957 36.3732 64.0778C36.3732 64.1737 36.3185 64.2148 36.2568 64.1737C36.0994 64.0779 35.6202 64.3449 35.7023 64.4818C35.7365 64.5434 35.716 64.5571 35.6475 64.516C35.4969 64.4339 34.7781 64.8788 34.7781 65.0568C34.7781 65.1526 34.7028 65.1664 34.5453 65.0979C34.203 64.9678 33.717 65.2348 33.717 65.5429C33.7033 65.7551 33.6964 65.7551 33.6006 65.584C33.4705 65.358 33.1967 65.4128 32.7038 65.7619C32.4368 65.9536 31.4783 66.1864 30.5884 66.2754C30.4788 66.2891 30.2598 66.426 30.0886 66.5834C29.9175 66.7409 29.7805 66.83 29.7805 66.7752C29.7805 66.6246 29.6026 66.6588 29.4177 66.8368C29.3356 66.9189 29.2055 66.9942 29.1302 66.9942C28.9796 66.9942 28.5688 67.4187 28.473 67.672C28.4319 67.7678 28.3566 67.8431 28.295 67.8431C28.2334 67.8431 28.1991 67.802 28.2334 67.761C28.3292 67.5898 27.316 67.4118 26.9326 67.5145C26.6451 67.5967 26.5903 67.5967 26.6862 67.4803C26.8436 67.2886 26.7067 67.1928 26.4603 67.3229C26.3507 67.3845 25.94 67.4529 25.5566 67.4734C25.1732 67.494 24.8241 67.5556 24.7898 67.624C24.7488 67.6857 24.5571 67.6446 24.3038 67.494C23.9341 67.2886 23.804 67.2681 23.2906 67.3434C22.5375 67.4529 22.6197 67.4529 21.6749 67.3844C21.2299 67.3502 20.8123 67.3023 20.7507 67.2544C20.5796 67.1586 20.1893 67.2954 20.2715 67.4324C20.3673 67.583 20.1209 67.7199 19.8744 67.6583C19.6964 67.6035 19.6211 67.4324 19.6622 67.1722C19.6759 67.0901 19.5869 67.0764 19.2788 67.1585C19.1419 67.1996 19.0324 67.2955 19.0324 67.3913C19.0324 67.5282 19.0118 67.5419 18.9023 67.4255C18.7859 67.316 18.8065 67.2681 18.9776 67.1722C19.183 67.0559 19.1693 67.0422 18.8681 66.9806C18.6969 66.9395 18.3478 66.9052 18.1013 66.8984C17.8549 66.8984 17.6426 66.8368 17.6221 66.7683C17.6016 66.7067 17.4647 66.6314 17.3209 66.6109C16.8964 66.5561 16.3625 66.3781 16.0749 66.1933C15.938 66.0974 15.7737 66.0563 15.7258 66.0837C15.6642 66.1179 15.6162 66.0974 15.6162 66.0221C15.6162 65.94 15.4656 65.9125 15.1165 65.9673C14.5414 66.0289 14.4456 65.9879 14.2676 65.5977C14.1581 65.3512 13.6583 65.0363 13.0422 64.8309C12.9326 64.7898 12.8505 64.694 12.8505 64.605C12.8505 64.5297 12.7752 64.4338 12.693 64.3927C12.6109 64.3585 12.4808 64.2216 12.4192 64.0915C12.1453 63.4754 11.6867 62.8388 11.5155 62.8388C11.4334 62.8388 11.3649 62.7839 11.3649 62.7292C11.3649 62.6676 11.2896 62.6197 11.1937 62.6197C10.961 62.6197 10.4202 62.0857 10.4818 61.9077C10.516 61.8255 10.4612 61.7707 10.3106 61.7707C10.1737 61.7707 10.1189 61.716 10.1532 61.6338C10.1737 61.5585 10.0915 61.4284 9.94094 61.3463C9.79032 61.271 9.68763 61.1683 9.69448 61.0998C9.70817 61.0382 9.59864 60.9287 9.44803 60.8465C9.29741 60.7712 9.24265 60.7096 9.33164 60.7096C9.46172 60.7096 9.46172 60.6754 9.31795 60.5179C9.10573 60.2715 8.97565 59.9566 9.00988 59.7169C9.02358 59.6211 8.98935 59.539 8.92773 59.539C8.87296 59.539 8.69497 59.2514 8.53067 58.9091C8.32529 58.4847 8.20206 58.3135 8.1336 58.3957C8.07883 58.471 8.07199 58.4367 8.09937 58.2998C8.14045 58.1697 8.05829 57.8754 7.89399 57.5536C7.74338 57.2661 7.59277 56.7869 7.57223 56.4788C7.55169 56.1776 7.49008 55.8421 7.42162 55.7326C7.36685 55.623 7.24362 55.3492 7.14778 55.1164C6.86025 54.4387 6.62749 53.9458 6.53164 53.8842C6.47688 53.8431 6.42211 53.6788 6.42211 53.5145C6.40842 53.3434 6.36049 53.1722 6.30573 53.1311C6.24411 53.09 6.25096 53.0011 6.32626 52.9189C6.38788 52.8368 6.42211 52.6108 6.38788 52.4055C6.35365 52.2001 6.31257 51.9605 6.30573 51.8715C6.29203 51.7757 6.25096 51.6456 6.19619 51.5702C6.15512 51.5086 6.15512 51.3923 6.1825 51.3238C6.22357 51.2691 6.1825 51.1321 6.10035 51.0363C6.0045 50.9267 5.90866 50.7145 5.87443 50.5571C5.85389 50.3996 5.79228 50.1737 5.75805 50.0573C5.71697 49.9409 5.73751 49.8451 5.79912 49.8451C5.86074 49.8451 5.86074 49.715 5.79912 49.4754C5.73751 49.2632 5.72382 48.9962 5.75805 48.8935C5.85389 48.5923 5.72382 48.2568 5.52529 48.2568C5.42944 48.2568 5.38837 48.2226 5.41575 48.1815C5.45683 48.1473 5.43629 48.0514 5.37468 47.9693C5.27883 47.8598 5.29937 47.8324 5.48421 47.8324C5.62113 47.8324 5.68959 47.7913 5.65536 47.7228C5.61428 47.6612 5.48421 47.6407 5.35414 47.668C5.14191 47.7297 5.12822 47.7228 5.29937 47.5859C5.45683 47.4558 5.47052 47.3942 5.35414 47.0724C5.29252 46.8671 5.19668 46.6891 5.16245 46.6549C5.02553 46.5385 4.95707 46.1346 5.06661 46.073C5.14191 46.0319 5.14876 45.9566 5.08714 45.8813C5.02553 45.806 4.95022 45.4842 4.916 45.1693C4.77908 43.9233 4.71062 43.5194 4.58739 43.2113C4.53262 43.095 4.55316 42.9854 4.62846 42.9443C4.72431 42.8827 4.72431 42.7937 4.62846 42.5815C4.55316 42.424 4.45732 42.3282 4.3957 42.3693C4.33409 42.4104 4.3204 42.383 4.37516 42.294C4.41624 42.2187 4.4847 41.8695 4.49155 41.5067C4.51208 41.1438 4.53262 40.8015 4.54631 40.7536C4.58054 40.5482 4.42993 39.8089 4.34093 39.7404C4.29986 39.7062 4.25878 39.5693 4.25878 39.4187C4.25878 39.268 4.22455 39.0011 4.18348 38.8368C4.0534 38.2959 4.20401 38.2001 4.92969 38.3233C5.65536 38.4602 6.67541 38.4054 6.7781 38.2411C6.81917 38.1658 6.92871 38.1453 7.01086 38.1796C7.09301 38.2138 7.20255 38.2138 7.24362 38.1659C7.27785 38.1248 7.54485 38.0837 7.82553 38.07C8.43482 38.0494 8.63336 38.2206 8.59228 38.6861C8.55805 38.9189 8.60597 38.9942 8.74974 39.0079C8.85927 39.0079 8.88666 39.0422 8.81135 39.0695C8.65389 39.1312 8.63336 39.4666 8.77712 39.7404C8.85927 39.8979 8.83873 39.9184 8.66759 39.8773C8.5512 39.8431 8.45536 39.8774 8.45536 39.939C8.45536 40.0006 8.53067 40.0553 8.61282 40.0553C8.76343 40.0553 8.77027 40.0964 8.77027 41.1918C8.77027 41.3219 8.81135 41.4451 8.86612 41.4793C8.92089 41.5136 8.92773 41.7532 8.90719 42.0133C8.87296 42.2803 8.88666 42.5747 8.92773 42.6842C9.03727 42.9101 9.02358 42.8964 8.94142 43.2798C8.90035 43.4852 8.90719 43.5536 8.9825 43.5125C9.09888 43.4372 9.13311 43.7042 9.01673 43.8206C8.97565 43.8617 8.92089 44.0123 8.90035 44.1629C8.87981 44.3546 8.91404 44.4163 8.99619 44.3546C9.09204 44.2999 9.10573 44.3888 9.05096 44.6763C8.99619 44.9228 9.01673 45.1351 9.09204 45.2172C9.17419 45.3267 9.16734 45.3884 9.01673 45.4705C8.83873 45.5801 8.83873 45.5801 9.01673 45.5869C9.12626 45.5869 9.18788 45.6279 9.1468 45.6827C9.11257 45.7443 9.0715 46.0113 9.05096 46.2989C9.03042 46.5727 9.03727 46.7439 9.06465 46.6686C9.09888 46.6069 9.21526 46.5385 9.33849 46.5385C9.55071 46.5385 9.55072 46.5384 9.35218 46.6959C9.15365 46.8534 9.1468 46.8534 9.35218 47.0177C9.53018 47.1546 9.54387 47.1751 9.38641 47.1751C9.13996 47.1751 9.15365 47.4969 9.4001 47.5038C9.49595 47.5038 9.53018 47.538 9.47541 47.5585C9.4001 47.5928 9.36587 47.9419 9.37957 48.4416C9.39326 48.9072 9.34534 49.4001 9.27003 49.537C9.16049 49.7492 9.17419 49.7903 9.36587 49.8862C9.48225 49.9478 9.5781 50.0641 9.5781 50.1531C9.5781 50.2421 9.6534 50.3791 9.73556 50.4544C9.87248 50.5708 9.86563 50.5844 9.66025 50.5296C9.38641 50.4543 9.33849 50.605 9.5781 50.8377C9.66025 50.9199 9.73556 51.1595 9.74925 51.3512C9.74925 51.6524 9.76979 51.6729 9.84509 51.4881C9.9204 51.3375 9.92724 51.447 9.9067 51.8304C9.88617 52.1385 9.9067 52.4123 9.94094 52.4602C9.97517 52.4945 10.0025 52.8642 10.0025 53.2886C10.0025 53.8842 10.0573 54.1375 10.249 54.4456C10.3791 54.6715 10.4818 54.9316 10.4818 55.0275C10.4818 55.1233 10.5776 55.3492 10.6871 55.5067C10.7967 55.6778 10.8583 55.9106 10.8241 56.027C10.7898 56.1776 10.8378 56.2529 11.0021 56.294C11.1732 56.335 11.228 56.4104 11.1937 56.561C11.1595 56.6774 11.2143 56.7937 11.3512 56.8691C11.4676 56.9307 11.5292 57.047 11.5018 57.136C11.4744 57.225 11.4813 57.273 11.536 57.2456C11.6867 57.1497 12.2891 57.8412 12.2891 58.1081C12.2891 58.2451 12.3713 58.382 12.4808 58.4299C12.5766 58.471 12.782 58.6216 12.9258 58.7722C13.0764 58.9297 13.4803 59.1967 13.8089 59.3541C14.1375 59.5253 14.4182 59.7032 14.4182 59.7375C14.4182 59.7785 14.514 59.847 14.6304 59.8744C14.7468 59.9086 14.8426 59.9908 14.8426 60.0798C14.8426 60.1688 15.0343 60.3468 15.2808 60.4837C15.5136 60.6343 15.8011 60.8328 15.9106 60.9492C16.0202 61.0588 16.2324 61.1409 16.3761 61.1409C16.5199 61.1409 16.7253 61.2367 16.8211 61.3463C16.917 61.4627 17.0676 61.5517 17.1497 61.5517C17.225 61.5517 17.2867 61.5928 17.2867 61.6475C17.2867 61.7023 17.5605 61.8255 17.9028 61.9214C18.2314 62.0172 18.649 62.1541 18.8065 62.2089C18.9639 62.2705 19.1351 62.291 19.1693 62.25C19.2104 62.2157 19.3404 62.25 19.4568 62.3253C19.7786 62.517 20.3742 62.5581 20.3742 62.3801C20.3879 62.2842 20.429 62.3047 20.5248 62.4348C20.7986 62.7976 21.5791 62.873 22.873 62.6676C23.448 62.5718 23.5439 62.5854 24.0847 62.7087C24.5982 62.8456 26.0016 62.8387 26.1796 62.6949C26.2549 62.6402 26.3507 62.6128 26.3918 62.6334C26.5629 62.6744 27.2612 62.5033 27.5761 62.3458C27.7336 62.2637 28.0896 62.1678 28.3497 62.1199C28.6167 62.0788 29.1781 61.8871 29.6026 61.6955C30.027 61.4901 30.5199 61.3326 30.6979 61.3326C31.314 61.3326 31.9439 61.1067 32.0192 60.8739C32.0603 60.7165 32.1013 60.6822 32.1493 60.7918C32.1835 60.8739 32.2314 60.8876 32.2793 60.826C32.3136 60.7712 32.5121 60.6206 32.7175 60.5042C32.9228 60.3879 33.0803 60.2372 33.0598 60.1619C33.0461 60.0866 33.1145 60.0661 33.2309 60.1004C33.4774 60.1825 34.1346 59.9223 34.6001 59.5663C34.7781 59.4294 34.9835 59.3131 35.0451 59.3131C35.1067 59.3131 35.1615 59.2583 35.1615 59.2035C35.1615 59.1419 35.2436 59.094 35.3532 59.094C35.7708 59.094 36.8456 58.2861 37.5849 57.4098C37.7219 57.2524 38.0847 56.8348 38.3859 56.4925C39.1185 55.6642 39.228 55.493 39.1527 55.3561C39.1116 55.2944 39.1732 55.1438 39.2827 55.0138C39.5292 54.7468 39.6114 54.5277 39.7004 53.9937C39.7346 53.7815 39.7962 53.5966 39.8304 53.5761C40.0427 53.494 40.1522 53.3639 40.2138 53.0969C40.2686 52.871 40.248 52.8094 40.118 52.8094C39.9879 52.8094 40.0358 52.6998 40.2686 52.4055C40.5424 52.0632 40.5766 51.9468 40.5356 51.5018C40.515 51.228 40.5356 50.9062 40.5903 50.7967C40.6519 50.6871 40.7204 50.4886 40.7478 50.3517C40.96 49.4275 41.0148 49.0509 40.9737 48.9825C40.9395 48.9277 40.9737 48.8524 41.0285 48.825C41.1038 48.784 41.1106 48.6196 41.0832 48.4416C41.0285 48.2157 41.0627 48.1131 41.1791 48.072C41.2886 48.0309 41.3502 47.8803 41.3502 47.6886C41.3502 47.5174 41.3092 47.4011 41.2544 47.4421C41.1449 47.5038 41.1722 46.7165 41.2749 46.429C41.3092 46.3468 41.3708 46.1004 41.405 45.895C41.583 44.916 41.583 44.8339 41.4255 44.7654C41.2886 44.7106 41.2749 44.6558 41.3708 44.4436C41.4324 44.3067 41.5214 44.1903 41.5488 44.1903C41.5762 44.1903 41.6104 44.0397 41.6241 43.8685C41.6378 43.6905 41.5898 43.5468 41.5419 43.5468C41.494 43.5468 41.5214 43.4373 41.6035 43.314C41.8363 42.9923 41.8158 42.8006 41.5625 42.8006C41.316 42.8006 41.2749 42.6089 41.5008 42.5268C41.7268 42.4446 41.8637 41.9722 41.8637 41.3561C41.85 41.0548 41.9253 40.6783 42.0143 40.4935C42.1854 40.1443 42.1854 39.9184 42.0143 39.4734C41.9184 39.2475 41.9184 39.1311 42.0143 38.9737C42.1101 38.8368 42.1101 38.7067 42.028 38.5287C41.9321 38.3028 41.9458 38.207 42.1786 37.8167C42.1991 37.7962 42.3361 37.7551 42.5004 37.7414C42.9248 37.6866 43.3219 37.625 43.7258 37.5292C43.9175 37.4881 44.1434 37.4539 44.2118 37.4744C44.2735 37.4881 44.3419 37.4334 44.3419 37.358C44.3419 37.2622 44.5199 37.2211 44.9581 37.2211C45.5331 37.2485 45.5879 37.269 45.6153 37.4881Z" fill="black"/>
</svg>
