<svg width="73" height="72" viewBox="0 0 73 72" fill="none" xmlns="http://www.w3.org/2000/svg">
<rect x="1.40625" y="2.21484" width="70.5954" height="68.9057" rx="8" fill="black"/>
<rect width="71.9992" height="72" rx="8" fill="#FBB14B"/>
<path d="M44.1508 18.4752C44.1508 18.5546 43.9637 18.6624 43.9127 18.617C43.8503 18.5546 43.7936 18.566 43.6009 18.651C43.4308 18.7248 43.2947 18.7191 43.3287 18.6283C43.3401 18.6 43.3287 18.5886 43.289 18.6C43.2607 18.6113 43.238 18.6397 43.238 18.668C43.238 18.6964 43.2097 18.7304 43.1756 18.7418C43.141 18.7556 43.1365 18.7109 43.0997 18.7055C43.0843 18.7033 43.0657 18.7021 43.0452 18.7021C42.9421 18.7021 42.8637 18.7905 42.7639 18.8165C42.7576 18.8181 42.7512 18.8197 42.7448 18.8212C42.671 18.8382 42.5917 18.8665 42.569 18.8836C42.5147 18.9243 42.4372 18.894 42.3711 18.9096C42.3391 18.9172 42.3374 18.9377 42.3649 18.9686C42.4046 19.014 42.3932 19.0197 42.3365 19.0026C42.2912 18.9913 42.2572 18.997 42.2572 19.0253C42.2572 19.0918 42.1089 19.0288 42.0917 19.0931C42.0885 19.105 42.0871 19.1201 42.0871 19.1388C42.0871 19.2011 42.0701 19.2295 42.0361 19.2238C42.0077 19.2182 41.968 19.2352 41.951 19.2635C41.934 19.2919 41.9283 19.2692 41.9453 19.2011C41.9527 19.1717 41.9158 19.1521 41.8955 19.1746L41.8716 19.2011C41.8206 19.2635 41.7752 19.3372 41.7752 19.3656C41.7752 19.394 41.7469 19.4053 41.6845 19.3883C41.6108 19.3713 41.5882 19.3826 41.5655 19.4507C41.5315 19.5584 41.3897 19.6095 41.333 19.5301C41.3103 19.496 41.2763 19.4847 41.2593 19.5017C41.2423 19.5187 41.2536 19.5471 41.282 19.5641C41.333 19.5924 41.3274 19.6095 41.265 19.6548C41.2253 19.6889 41.1686 19.7172 41.1459 19.7172C41.0722 19.7172 40.8284 19.9667 40.8284 20.0348C40.8284 20.0688 40.8114 20.0972 40.7944 20.0972C40.7774 20.0972 40.7661 20.1369 40.7774 20.1936C40.7887 20.2673 40.7774 20.29 40.7264 20.29C40.6243 20.29 40.3635 20.5452 40.3919 20.6189C40.4202 20.6983 40.2274 20.8855 40.1821 20.8174C40.1651 20.7834 40.1537 20.7891 40.1537 20.8458C40.1537 20.9543 40.0552 21.0457 40.0658 21.1536C40.0665 21.1608 40.0674 21.1678 40.0687 21.1747C40.0857 21.2598 40.0744 21.2825 40.0233 21.2825C39.9837 21.2825 39.9666 21.2995 39.9837 21.3392C40.0037 21.3992 39.9099 21.4324 39.8955 21.494C39.8938 21.5009 39.8929 21.5079 39.8929 21.515C39.8929 21.5547 39.8759 21.5887 39.8533 21.5887C39.8362 21.5887 39.8136 21.6114 39.8136 21.6397C39.8136 21.6681 39.7909 21.7021 39.7682 21.7078C39.7399 21.7191 39.7228 21.7872 39.7228 21.8836C39.7285 21.9687 39.7115 22.0424 39.6945 22.0424C39.6775 22.0424 39.6718 22.0594 39.6832 22.0821C39.6945 22.0991 39.6888 22.1218 39.6718 22.1218C39.6548 22.1218 39.6208 22.1615 39.5981 22.2125C39.5641 22.2919 39.5698 22.3089 39.6208 22.3203C39.6775 22.3373 39.6775 22.3373 39.6151 22.343C39.5754 22.343 39.5584 22.3657 39.5698 22.3827C39.5811 22.4054 39.5698 22.428 39.5414 22.4394C39.5017 22.4564 39.4904 22.5585 39.4904 22.8874C39.4904 23.205 39.4734 23.3241 39.4394 23.3524C39.411 23.3751 39.3883 23.4715 39.3883 23.5963C39.3883 23.7097 39.3713 23.9025 39.3487 24.0273C39.2976 24.3279 39.2863 24.8496 39.3316 24.912C39.394 24.9914 39.3487 25.0084 38.9688 25.0481C38.8278 25.0564 38.6905 25.1042 38.55 25.1194C38.5423 25.1202 38.5345 25.1211 38.5266 25.1219C38.4188 25.1332 38.2998 25.1616 38.2714 25.1899C38.2654 25.1959 38.2582 25.2017 38.2501 25.207C38.1921 25.2454 38.1031 25.238 38.0673 25.2977C38.0503 25.326 37.9993 25.3317 37.9483 25.3203C37.8972 25.3033 37.8179 25.3203 37.7612 25.3487C37.6818 25.3884 37.6591 25.3884 37.6194 25.343C37.5911 25.3147 37.5344 25.3033 37.489 25.3147C37.4223 25.3301 37.2765 25.3548 37.178 25.3635C37.1587 25.3652 37.137 25.3634 37.1354 25.3827C37.1338 25.402 37.167 25.441 37.1477 25.4394C37.1441 25.4391 37.1388 25.4372 37.1318 25.4338C37.0751 25.3997 36.8484 25.4451 36.8767 25.4848C36.888 25.5018 36.8654 25.5075 36.8313 25.4905C36.7917 25.4735 36.7576 25.4905 36.735 25.5302C36.718 25.5699 36.6669 25.5926 36.6272 25.5926C36.5876 25.5926 36.5422 25.6096 36.5309 25.6323C36.5195 25.6493 36.4685 25.672 36.4175 25.672C36.3664 25.672 36.2984 25.7003 36.2644 25.7343C36.2134 25.7854 36.1907 25.7854 36.1793 25.7514C36.1567 25.6833 36.0433 25.6946 35.9412 25.7797C35.8902 25.8194 35.7995 25.8534 35.7428 25.8534C35.6861 25.8534 35.6124 25.8818 35.584 25.9158C35.5557 25.9498 35.5217 25.9669 35.499 25.9555C35.482 25.9442 35.4423 25.9612 35.4139 25.9895C35.3856 26.0179 35.3516 26.0349 35.3346 26.0236C35.3176 26.0122 35.3119 26.0292 35.3232 26.0633C35.3402 26.1143 35.3176 26.1257 35.1758 26.1257C35.0738 26.1257 34.9887 26.1483 34.9604 26.1824C34.9094 26.2447 34.8073 26.2561 34.8073 26.1994C34.8073 26.1257 34.6599 26.1597 34.5862 26.2561C34.5352 26.3185 34.4785 26.3468 34.4218 26.3412C34.4209 26.3411 34.42 26.341 34.4192 26.3409C34.3529 26.3342 34.3434 26.4186 34.2914 26.4603C34.263 26.4886 34.2347 26.4943 34.2347 26.4773C34.2347 26.4602 34.2063 26.4829 34.1723 26.5283C34.144 26.5737 34.0929 26.6134 34.0702 26.6077C34.0419 26.602 33.9965 26.6134 33.9682 26.6247C33.9398 26.6361 33.8775 26.6531 33.8378 26.6644C33.7981 26.6701 33.7641 26.6928 33.7698 26.7155C33.7754 26.7325 33.7131 26.7495 33.6394 26.7552C33.56 26.7552 33.4523 26.7665 33.3842 26.7835C33.3219 26.7949 33.1971 26.8175 33.1007 26.8289C33.01 26.8459 32.908 26.8856 32.8796 26.9196C32.8513 26.9536 32.8399 26.9593 32.8513 26.931C32.8626 26.9083 32.857 26.8856 32.8343 26.8856C32.7755 26.8856 32.7621 26.9824 32.7053 26.9973C32.701 26.9984 32.6967 26.999 32.6925 26.999C32.6642 26.999 32.6528 27.016 32.6642 27.0387C32.6755 27.0614 32.6585 27.0671 32.6302 27.0557C32.5962 27.0444 32.5678 27.0501 32.5678 27.0727C32.5678 27.0954 32.5848 27.1181 32.6075 27.1238C32.6245 27.1295 32.5565 27.1408 32.4487 27.1408C32.4186 27.1424 32.3894 27.1453 32.3626 27.149C32.273 27.1616 32.1973 27.2195 32.1086 27.2372C32.0575 27.2429 31.9895 27.2712 31.9612 27.2939C31.9158 27.3279 31.7741 27.3847 31.7003 27.4017C31.604 27.4187 31.5133 27.4697 31.5133 27.5037C31.5133 27.5208 31.4849 27.5321 31.4566 27.5208C31.3715 27.4924 31.2128 27.5605 31.2128 27.6285C31.2128 27.6852 31.1731 27.7022 31.054 27.6909C31.0143 27.6852 30.935 27.7363 30.8726 27.7986C30.8102 27.861 30.7195 27.9234 30.6742 27.9291C30.6288 27.9404 30.5778 27.9631 30.5551 27.9858C30.5381 28.0028 30.4587 28.0255 30.3907 28.0255C30.3113 28.0255 30.1866 28.0709 30.0732 28.1389C29.9314 28.224 29.8464 28.2523 29.699 28.2523C29.5799 28.2523 29.5176 28.2694 29.5346 28.292C29.5459 28.3091 29.5232 28.3317 29.4835 28.3317C29.4438 28.3317 29.3871 28.3431 29.3531 28.3544C29.3191 28.3658 29.2908 28.3431 29.2794 28.292C29.2681 28.2467 29.2397 28.2183 29.2227 28.2297C29.2001 28.241 29.1944 28.224 29.2057 28.1786C29.2227 28.1049 29.098 28.0028 29.047 28.0539C29.03 28.0709 29.03 28.0425 29.0413 27.9915C29.0583 27.9291 29.0243 27.861 28.9336 27.7533C28.8599 27.6682 28.8032 27.5831 28.8032 27.5661C28.8032 27.5491 28.7522 27.4811 28.6955 27.4244C28.6331 27.362 28.5991 27.3053 28.6104 27.2939C28.6218 27.2826 28.6047 27.2712 28.5707 27.2712C28.5448 27.2712 28.519 27.2548 28.5006 27.2345C28.4894 27.2222 28.4813 27.2022 28.4713 27.1889C28.4513 27.1621 28.4172 27.1673 28.3848 27.1588C28.3682 27.1545 28.3499 27.1482 28.3326 27.1408C28.2872 27.1238 28.2532 27.1294 28.2305 27.1635C28.2022 27.2088 28.1965 27.2088 28.1965 27.1635C28.1965 27.0954 27.8904 26.8119 27.8507 26.8402C27.8337 26.8516 27.8167 26.8345 27.8167 26.8119C27.8167 26.7835 27.7656 26.7268 27.6976 26.6928C27.5785 26.6247 27.5785 26.6247 27.6239 26.6984C27.7089 26.8629 27.6579 26.8686 27.5162 26.7155C27.4085 26.5964 27.3404 26.5567 27.261 26.5567C27.2586 26.5567 27.2562 26.5566 27.2538 26.5566C27.1601 26.5546 27.0804 26.4919 26.9889 26.4716C26.98 26.4706 26.9705 26.4689 26.9609 26.4666C26.8773 26.447 26.8139 26.3638 26.7281 26.3638C26.7048 26.3638 26.6761 26.3745 26.6585 26.3886C26.6449 26.3995 26.6406 26.4257 26.6279 26.4377C26.6083 26.456 26.6185 26.393 26.5965 26.3777C26.5846 26.3694 26.5691 26.3638 26.5523 26.3638C26.4956 26.3638 26.49 26.3582 26.541 26.3241C26.6034 26.2844 26.49 26.2731 26.2122 26.2731C26.1441 26.2788 26.0874 26.2674 26.0874 26.2504C26.0874 26.1994 25.4354 26.188 25.339 26.2447C25.2994 26.2674 25.254 26.2731 25.2427 26.2618C25.2313 26.2504 25.169 26.2334 25.0953 26.2221C25.0863 26.2206 25.0773 26.2187 25.0683 26.2165C24.9735 26.1932 24.8978 26.1077 24.8288 26.1767C24.8204 26.1851 24.8124 26.1926 24.8049 26.1992C24.7608 26.2376 24.7229 26.171 24.6644 26.171C24.621 26.171 24.6233 26.1086 24.581 26.1181C24.5786 26.1186 24.5761 26.1193 24.5737 26.12C24.534 26.1313 24.4659 26.1143 24.4206 26.0916C24.3525 26.0576 24.3128 26.0576 24.2448 26.0973C24.1711 26.137 24.1484 26.137 24.1258 26.103C24.1087 26.0746 24.0634 26.0689 24.0067 26.0803C23.9557 26.0973 23.8309 26.1086 23.7345 26.1143C23.6382 26.12 23.5418 26.1313 23.5134 26.1483C23.4851 26.1653 23.4227 26.154 23.3717 26.1313C23.298 26.0916 23.2753 26.0916 23.247 26.137C23.23 26.1653 23.1562 26.1937 23.0882 26.1937C23.0032 26.1937 22.9578 26.2164 22.9238 26.2788C22.8898 26.3468 22.8728 26.3525 22.8331 26.3185C22.7929 26.2783 22.7429 26.3366 22.7001 26.374C22.6882 26.3844 22.6756 26.3945 22.663 26.4035C22.6063 26.4489 22.5893 26.4489 22.5439 26.3865C22.5156 26.3468 22.4872 26.3355 22.4872 26.3582C22.4872 26.3809 22.4589 26.3979 22.4249 26.3809C22.3852 26.3638 22.3625 26.3865 22.3455 26.4432C22.3285 26.5056 22.3058 26.517 22.2434 26.4999C22.2038 26.4886 22.1584 26.4773 22.1471 26.4773C22.0563 26.4773 22.028 26.4943 22.045 26.5396C22.062 26.5737 22.0393 26.602 21.994 26.619C21.9543 26.6361 21.9203 26.6644 21.9203 26.6928C21.9203 26.7211 21.8692 26.7665 21.8012 26.7892C21.7218 26.8232 21.6992 26.8516 21.7275 26.8742C21.7955 26.9423 21.7785 26.9763 21.6708 26.9763C21.6198 26.9763 21.5858 26.9933 21.5971 27.0104C21.6255 27.0614 21.4667 27.1635 21.3647 27.1635C21.2739 27.1635 21.2229 27.2429 21.2626 27.3393C21.2796 27.3903 21.2683 27.396 21.2116 27.379C21.1492 27.362 21.1209 27.379 21.0812 27.4641C21.0472 27.5378 21.0075 27.5718 20.9621 27.5605C20.9224 27.5548 20.8941 27.5605 20.8941 27.5775C20.8941 27.5945 20.8487 27.6625 20.7977 27.7249C20.7467 27.793 20.724 27.844 20.7467 27.844C20.775 27.844 20.775 27.8667 20.7297 27.9177C20.6956 27.9574 20.6786 28.0142 20.69 28.0425C20.7013 28.0709 20.6843 28.1219 20.6503 28.1503C20.6219 28.1786 20.5936 28.224 20.5936 28.2523C20.5936 28.2807 20.5766 28.2977 20.5539 28.2807C20.5369 28.2694 20.5255 28.3091 20.5369 28.3828C20.5379 28.395 20.5386 28.4074 20.5388 28.4196C20.5409 28.5065 20.4899 28.582 20.4689 28.6663C20.4518 28.7287 20.4632 28.7401 20.4972 28.7287C20.5255 28.7174 20.5482 28.7231 20.5482 28.7457C20.5482 28.7684 20.5312 28.7911 20.5142 28.7968C20.4972 28.8024 20.4745 28.8421 20.4632 28.8818C20.4575 28.9215 20.4235 28.9783 20.3951 29.0009C20.3441 29.0406 20.3441 29.0463 20.3951 29.052C20.4348 29.052 20.4348 29.0633 20.4008 29.0974C20.3725 29.1257 20.3555 29.1654 20.3555 29.1938C20.3555 29.2221 20.3271 29.2675 20.2931 29.2902C20.2591 29.3185 20.2307 29.4093 20.2194 29.5C20.216 29.5575 20.2106 29.613 20.2068 29.6508C20.2036 29.6824 20.1911 29.7184 20.1627 29.7042C20.14 29.6928 20.1343 29.7098 20.1457 29.7382C20.1627 29.7779 20.1514 29.8006 20.1173 29.8006C20.0833 29.8006 20.0776 29.8119 20.1003 29.8289C20.1514 29.8686 20.1627 29.948 20.1343 30.0218C20.0947 30.1125 20.0947 30.3677 20.1343 30.3677C20.1514 30.3677 20.1457 30.3961 20.1173 30.4301C20.089 30.4584 20.0663 30.6002 20.055 30.742C20.0436 30.8838 20.038 31.0709 20.0323 31.1673C20.0266 31.2864 20.0436 31.3602 20.0947 31.4112C20.174 31.5019 20.1797 31.57 20.106 31.5983C20.072 31.6154 20.0606 31.6494 20.072 31.6948C20.0833 31.7401 20.106 31.7628 20.123 31.7515C20.14 31.7401 20.157 31.7685 20.157 31.8082C20.157 31.8535 20.14 31.8876 20.123 31.8876C20.106 31.8876 20.089 31.9386 20.089 32.001C20.0947 32.0634 20.1117 32.1144 20.1343 32.1144C20.1627 32.1144 20.1854 32.1711 20.1854 32.2335C20.191 32.3016 20.2137 32.3753 20.2307 32.3923C20.2874 32.449 20.2761 32.4887 20.2137 32.466C20.174 32.449 20.1627 32.4887 20.1627 32.6362C20.1602 32.6843 20.1576 32.7314 20.1546 32.7697C20.1499 32.8283 20.1244 32.8934 20.157 32.9424C20.174 32.9708 20.174 33.0218 20.157 33.0558C20.14 33.0899 20.14 33.1863 20.1627 33.277C20.1854 33.3848 20.1854 33.4528 20.1627 33.4868C20.1173 33.5379 20.1514 33.6003 20.2477 33.6343C20.2818 33.6456 20.3101 33.6797 20.3101 33.708C20.3101 33.7477 20.3044 33.7477 20.2874 33.708C20.2704 33.657 20.1627 33.6456 20.1627 33.6967C20.1627 33.7137 20.2024 33.7931 20.2591 33.8668C20.3101 33.9405 20.3555 34.0426 20.3555 34.088C20.3555 34.139 20.3725 34.156 20.4122 34.139C20.4405 34.1277 20.4689 34.139 20.4689 34.1617C20.4689 34.1901 20.4915 34.1844 20.5369 34.1504C20.5879 34.1107 20.5936 34.1107 20.5539 34.156C20.5255 34.1844 20.5029 34.2581 20.5029 34.3205C20.5029 34.4169 20.5142 34.4283 20.5879 34.4056C20.6389 34.3886 20.6559 34.3942 20.6219 34.4169C20.5822 34.4453 20.5822 34.468 20.6163 34.5474C20.6446 34.6041 20.673 34.6494 20.69 34.6494C20.707 34.6494 20.7126 34.6891 20.707 34.7402C20.7013 34.7912 20.7126 34.8876 20.724 34.9557C20.741 35.0294 20.7523 35.0521 20.758 35.0124C20.7637 34.95 20.7693 34.95 20.8204 34.9954C20.8714 35.0408 20.8714 35.0464 20.8147 35.0918C20.775 35.1201 20.7637 35.1542 20.7864 35.1882C20.8374 35.2506 20.8997 35.4547 20.9564 35.7213C20.9791 35.8404 21.0188 35.9311 21.0358 35.9198C21.0528 35.9084 21.0642 35.9198 21.0642 35.9368C21.0642 35.9595 21.0982 35.9765 21.1379 35.9765C21.2229 35.9765 21.2399 36.0332 21.1719 36.0729C21.1435 36.0899 21.1435 36.1069 21.1776 36.1296C21.2229 36.158 21.2229 36.1636 21.1776 36.1636C21.1191 36.1636 21.203 36.2414 21.2045 36.2998C21.2048 36.3104 21.2034 36.3201 21.2002 36.3281C21.1832 36.3621 21.2059 36.3905 21.2513 36.4075C21.2966 36.4245 21.3363 36.4812 21.3476 36.5606C21.3647 36.64 21.393 36.6911 21.427 36.6911C21.483 36.6911 21.4425 36.8033 21.4985 36.8045C21.4993 36.8045 21.5 36.8045 21.5007 36.8045C21.5461 36.8045 21.5574 36.8272 21.5404 36.8839C21.5121 36.9746 21.5461 37.0767 21.5914 37.0483C21.6084 37.037 21.6311 37.054 21.6425 37.088C21.6538 37.1221 21.6878 37.1391 21.7162 37.1277C21.7445 37.1164 21.7955 37.1334 21.8352 37.1618C21.8919 37.2015 21.8976 37.2298 21.8636 37.3036C21.8239 37.3886 21.8352 37.4 21.9316 37.4453C22.0507 37.4964 22.0507 37.502 22.062 37.6665C22.0677 37.7402 22.0847 37.7572 22.1584 37.7516C22.2094 37.7459 22.2718 37.7629 22.3001 37.7856C22.3285 37.8083 22.4079 37.8253 22.4816 37.831C22.5553 37.831 22.6233 37.8593 22.6346 37.882C22.646 37.9104 22.7083 37.9274 22.7821 37.9217C22.8228 37.9186 22.8653 37.9224 22.8989 37.9293C22.9399 37.9377 22.9992 37.9705 22.9805 37.9331C22.9635 37.9047 22.9918 37.8934 23.0769 37.8934C23.3377 37.899 23.3717 37.8877 23.3717 37.8537C23.3717 37.831 23.4 37.8253 23.4341 37.8366C23.4737 37.8537 23.5304 37.8196 23.6041 37.7402C23.7232 37.6041 23.7402 37.5247 23.6665 37.451C23.6325 37.417 23.6382 37.4056 23.6835 37.4056C23.7345 37.4056 23.7459 37.3773 23.7345 37.2639C23.7289 37.1901 23.7119 37.0994 23.6949 37.0767C23.6687 37.0331 23.7368 37.0081 23.7843 36.9898C23.7989 36.9841 23.8132 36.9787 23.8253 36.9746C23.8649 36.9633 23.916 36.9803 23.95 37.0143C23.9783 37.0483 24.0067 37.0654 24.0067 37.0483C24.0067 37.037 24.0464 37.054 24.1031 37.088C24.1541 37.1164 24.2108 37.1391 24.2278 37.1277C24.2448 37.1164 24.2788 37.1221 24.3128 37.1391C24.3525 37.1618 24.3922 37.1504 24.4319 37.1107C24.4716 37.0767 24.4999 37.071 24.4999 37.088C24.4999 37.1107 24.5623 37.1391 24.6303 37.1504C24.7041 37.1674 24.7607 37.1901 24.7607 37.2071C24.7607 37.2242 24.7834 37.2355 24.8118 37.2355C24.8401 37.2355 24.8571 37.2128 24.8458 37.1845C24.8231 37.1221 24.8798 37.1221 24.9422 37.1788C24.9705 37.2071 24.9875 37.2128 24.9875 37.1958C24.9875 37.1788 25.0215 37.2015 25.0669 37.2412C25.0692 37.2432 25.0715 37.2451 25.0739 37.2471C25.144 37.3044 25.2509 37.2726 25.3277 37.3206C25.3731 37.3433 25.4071 37.3489 25.4071 37.3262C25.4071 37.2713 25.3045 37.2668 25.2942 37.2128C25.2939 37.2109 25.2937 37.209 25.2937 37.2071C25.2937 37.1845 25.339 37.2015 25.3901 37.2412C25.5091 37.3376 25.6736 37.3546 25.5942 37.2639C25.5205 37.1788 25.5828 37.1448 25.6679 37.2242C25.7416 37.2922 25.9514 37.3092 26.1668 37.2639C26.2519 37.2412 26.2745 37.2468 26.2519 37.2809C26.2292 37.3206 26.2519 37.3262 26.3482 37.3092C26.4163 37.2922 26.4843 37.2809 26.5013 37.2809C26.5183 37.2809 26.524 37.2525 26.507 37.2128C26.49 37.1561 26.49 37.1561 26.541 37.2185C26.5864 37.2752 26.6147 37.2809 26.6714 37.2468C26.7224 37.2185 26.7565 37.2185 26.7905 37.2468C26.8245 37.2809 26.8358 37.2752 26.8358 37.2242C26.8358 37.1788 26.8528 37.1618 26.8925 37.1788C26.9209 37.1901 26.9946 37.1788 27.0456 37.1561C27.1193 37.1221 27.1477 37.1221 27.176 37.1618C27.1987 37.2015 27.2157 37.1901 27.2554 37.1277C27.2837 37.0824 27.3461 37.0483 27.3971 37.0483C27.4481 37.0483 27.5218 37.02 27.5615 36.986C27.5627 36.9849 27.5639 36.9839 27.5651 36.9829C27.6196 36.9366 27.6828 36.9973 27.7543 36.9973C27.7636 36.9973 27.7726 36.9986 27.7806 37.0009C27.8154 37.011 27.8121 37.0742 27.777 37.0654C27.76 37.0597 27.743 37.071 27.743 37.0937C27.743 37.1107 27.76 37.1334 27.777 37.1334C27.7992 37.1334 27.8422 37.2202 27.8571 37.2851C27.8642 37.3157 27.859 37.3603 27.8904 37.3603C27.9074 37.3603 27.9187 37.3886 27.9187 37.4226C27.9187 37.4623 27.9414 37.4907 27.9811 37.4907C28.0208 37.4907 28.0661 37.5191 28.0888 37.5588C28.1115 37.5928 28.1512 37.6211 28.1739 37.6211C28.2022 37.6211 28.2476 37.6495 28.2702 37.6778C28.3043 37.7175 28.3043 37.7346 28.2759 37.7346C28.2532 37.7346 28.2362 37.7516 28.2362 37.7743C28.2362 37.8026 28.2702 37.8083 28.3156 37.7969C28.429 37.7686 28.5027 37.8026 28.548 37.916C28.5707 37.9671 28.5934 37.9954 28.6047 37.9671C28.6161 37.9387 28.6558 37.9331 28.7351 37.9614C28.7975 37.9784 28.8655 37.9841 28.8826 37.9728C28.8996 37.9614 28.9166 37.9728 28.9166 37.9954C28.9166 38.0269 28.9614 38.017 28.9881 38.0335C29.0278 38.058 29.0889 38.1071 29.1547 38.1656C29.194 38.2049 29.2314 38.2375 29.263 38.2613C29.3176 38.3024 29.3833 38.2681 29.4495 38.2847C29.4892 38.296 29.5176 38.3187 29.5062 38.3357C29.4949 38.3527 29.5346 38.3867 29.6026 38.4208C29.665 38.4491 29.716 38.4832 29.716 38.4945C29.716 38.5115 29.7387 38.5229 29.767 38.5229C29.835 38.5229 29.9541 38.6533 29.9201 38.6873C29.9031 38.7043 29.9371 38.7043 29.9938 38.693C30.0675 38.6817 30.0959 38.693 30.0959 38.7327C30.0959 38.761 30.1129 38.7837 30.1355 38.7837C30.1582 38.7837 30.1696 38.8178 30.1582 38.8575C30.1412 38.9369 30.2319 38.9992 30.2546 38.9255C30.2716 38.8745 30.4984 38.9709 30.6288 39.0786C30.6628 39.107 30.7082 39.1183 30.7252 39.107C30.7592 39.0843 30.8953 39.2261 30.9066 39.2998C30.9123 39.3282 30.9009 39.3508 30.8783 39.3508C30.8556 39.3508 30.8499 39.3679 30.8612 39.3905C30.8726 39.4132 30.9236 39.4189 30.9803 39.4076C31.0767 39.3792 31.2014 39.4529 31.1617 39.5096C31.1504 39.5267 31.1787 39.5437 31.2184 39.5437C31.2638 39.5437 31.2978 39.5607 31.2978 39.5834C31.2978 39.6004 31.3262 39.6061 31.3602 39.5947C31.4055 39.5777 31.4112 39.5834 31.3885 39.6231C31.3839 39.6311 31.3805 39.6377 31.3784 39.643C31.3629 39.6818 31.491 39.6224 31.4679 39.6571C31.4395 39.6968 31.6266 39.8272 31.7117 39.8329C31.7825 39.8329 31.8477 39.8812 31.9179 39.8724C31.9286 39.8711 31.9393 39.8693 31.9498 39.8669C32.0235 39.8499 32.0462 39.8613 32.0632 39.9236C32.0745 39.969 32.1199 40.0144 32.1596 40.0257C32.2049 40.0371 32.239 40.0654 32.239 40.0824C32.239 40.1105 32.1899 40.0973 32.1812 40.1239C32.1783 40.1327 32.1766 40.1436 32.1766 40.1562C32.1717 40.225 32.2137 40.247 32.2397 40.2034C32.2489 40.1881 32.2504 40.16 32.267 40.1535C32.2869 40.1458 32.2712 40.1944 32.2897 40.205C32.3012 40.2117 32.3183 40.2112 32.341 40.2015C32.3807 40.1845 32.392 40.1959 32.3807 40.2185C32.341 40.2809 32.392 40.383 32.4544 40.383C32.4828 40.383 32.5054 40.4 32.5054 40.417C32.5054 40.434 32.5565 40.4681 32.6188 40.4964C32.7379 40.5475 32.7606 40.6042 32.6869 40.6779C32.6585 40.7063 32.6585 40.7233 32.6699 40.7233C32.6869 40.7233 32.7322 40.6892 32.7662 40.6495C32.8229 40.5872 32.8399 40.5815 32.857 40.6325C32.8683 40.6609 32.9023 40.6892 32.9363 40.6892C32.9647 40.6892 32.993 40.7063 32.993 40.7289C32.993 40.746 33.01 40.7573 33.0384 40.7403C33.0667 40.7233 33.0724 40.7346 33.0554 40.7743C33.0384 40.8254 33.0554 40.8367 33.1518 40.848C33.3502 40.8537 33.3672 40.8594 33.3672 40.8877C33.3615 40.9388 33.5657 41.1032 33.5997 41.0806C33.6167 41.0692 33.6677 41.0976 33.7074 41.1429C33.7231 41.1609 33.7398 41.1763 33.7552 41.1868C33.7883 41.2094 33.8314 41.1584 33.7924 41.1486C33.7414 41.1316 33.7244 41.0635 33.7754 41.0635C33.7924 41.0635 33.8265 41.1032 33.8491 41.16C33.8832 41.2337 33.8775 41.2564 33.8321 41.2847C33.7811 41.3131 33.7811 41.3244 33.8265 41.3641C33.8661 41.3925 33.8888 41.3981 33.9115 41.3698C33.9455 41.3131 34.0192 41.3244 33.9965 41.3868C33.9682 41.4492 34.0986 41.5626 34.195 41.5626C34.314 41.5626 34.4671 41.676 34.4218 41.7327C34.3651 41.8008 34.4218 41.8292 34.5635 41.8065C34.6712 41.7895 34.6939 41.7951 34.7279 41.8802C34.7563 41.9369 34.7903 41.9653 34.8243 41.9539C34.8583 41.9426 34.8753 41.9539 34.8753 41.9823C34.8753 42.0138 34.9244 42.0034 34.9296 42.0344C34.9312 42.0438 34.932 42.0549 34.932 42.0673C34.9207 42.1978 34.949 42.2432 35.0398 42.2432C35.1021 42.2432 35.1078 42.2375 35.0624 42.2035C35.0341 42.1864 35.0227 42.1638 35.0454 42.1638C35.1263 42.1638 35.1715 42.2597 35.2332 42.3119C35.2529 42.3286 35.2726 42.3441 35.2892 42.3566L35.3063 42.3691C35.3352 42.3903 35.3287 42.4352 35.2949 42.4473C35.2098 42.4757 35.1928 42.521 35.2552 42.5607C35.2779 42.5721 35.2949 42.5664 35.2949 42.5437C35.2949 42.4813 35.3913 42.4927 35.448 42.5551C35.4706 42.5834 35.5103 42.6061 35.5387 42.5948C35.601 42.5721 35.7144 42.6798 35.7144 42.7592C35.7144 42.7989 35.7314 42.8103 35.7825 42.7876C35.8675 42.7536 36.0149 42.7252 35.9526 42.7536C35.8902 42.7819 35.8902 42.8556 35.9469 42.8386C35.9752 42.8273 36.0319 42.8727 36.0716 42.935C36.1226 43.0088 36.1793 43.0485 36.219 43.0428C36.2587 43.0371 36.3268 43.0711 36.3834 43.1165C36.3942 43.1273 36.4053 43.1373 36.4161 43.1463C36.4668 43.1886 36.5292 43.2105 36.5422 43.2753C36.5479 43.3377 36.5705 43.3604 36.6159 43.349C36.6669 43.3377 36.7066 43.3774 36.769 43.5078C36.8143 43.6042 36.854 43.7063 36.854 43.7403C36.854 43.7914 36.8597 43.7914 36.9107 43.729C36.9674 43.6553 36.9674 43.6609 37.0411 43.7517C37.0808 43.8027 37.1318 43.8651 37.1545 43.8935C37.1715 43.9218 37.1942 43.9615 37.1942 43.9842C37.1942 44.0126 37.2226 44.0012 37.2509 43.9558C37.3019 43.8878 37.3019 43.8878 37.3076 43.9785C37.3076 44.0466 37.3189 44.0579 37.3416 44.0182C37.37 43.9785 37.3813 43.9842 37.404 44.0466C37.4153 44.0863 37.4493 44.126 37.4777 44.126C37.506 44.126 37.5401 44.177 37.5514 44.2394C37.5627 44.3075 37.5967 44.3528 37.6308 44.3528C37.6591 44.3528 37.6875 44.3358 37.6875 44.3188C37.6875 44.3018 37.7215 44.2904 37.7612 44.3018C37.8009 44.3131 37.8292 44.3415 37.8179 44.3642C37.8065 44.3925 37.8462 44.4492 37.8972 44.5003C37.9483 44.5513 37.9936 44.574 37.9936 44.557C37.9936 44.54 38.0276 44.5627 38.0673 44.608C38.107 44.6534 38.1524 44.6931 38.175 44.6988C38.2147 44.7044 38.1921 44.8122 38.1354 44.8519C38.107 44.8689 38.1354 44.8746 38.1977 44.8576C38.2884 44.8406 38.3111 44.8519 38.3281 44.9143C38.3451 44.971 38.3565 44.9823 38.3792 44.9483C38.4018 44.9143 38.4245 44.9199 38.4755 44.9653C38.5209 45.0164 38.5492 45.0164 38.5662 44.988C38.5833 44.9596 38.6059 44.9823 38.6173 45.039C38.6343 45.1241 38.657 45.1355 38.7647 45.1298C38.8497 45.1241 38.8837 45.1355 38.8724 45.1695C38.8611 45.2035 38.8894 45.2092 38.9404 45.1978C39.0064 45.1759 39.0348 45.2152 39.0126 45.2711C38.9975 45.3088 38.9716 45.343 39.0028 45.3169C39.0538 45.2716 39.0765 45.2716 39.1332 45.3226C39.2409 45.4133 39.2296 45.6062 39.1162 45.6742C39.0538 45.7082 39.0141 45.7706 38.9971 45.867C38.9801 45.9408 38.9461 46.0202 38.9178 46.0315C38.8724 46.0485 38.8724 46.0712 38.9008 46.1279C38.9348 46.1903 38.9234 46.213 38.8384 46.2697C38.7533 46.3264 38.7477 46.3377 38.8044 46.3548C38.8667 46.3774 38.8667 46.3831 38.8044 46.4398C38.7704 46.4795 38.7477 46.5249 38.7533 46.5476C38.7647 46.5759 38.7363 46.6326 38.7023 46.6667C38.6626 46.7064 38.64 46.7688 38.6513 46.7971C38.6626 46.8255 38.6513 46.8652 38.6229 46.8822C38.5833 46.9049 38.5833 46.9105 38.6229 46.9105C38.7023 46.9105 38.674 47.0126 38.5889 47.0353C38.5266 47.0523 38.5152 47.075 38.5322 47.1544C38.5379 47.1797 38.5393 47.2064 38.5366 47.2283C38.5323 47.2625 38.4972 47.2808 38.4931 47.315C38.4899 47.342 38.5071 47.371 38.5064 47.3981C38.5057 47.4228 38.4958 47.4481 38.4812 47.4663C38.4302 47.523 38.4075 47.7839 38.4529 47.7839C38.5039 47.7839 38.6003 48.0164 38.5776 48.1015C38.5662 48.1525 38.5889 48.2206 38.6343 48.2773C38.6967 48.351 38.6967 48.385 38.6626 48.4191C38.6286 48.4531 38.6343 48.4701 38.674 48.4985C38.7023 48.5155 38.7137 48.5382 38.6967 48.5382C38.6796 48.5382 38.691 48.5722 38.7307 48.6119C38.776 48.6629 38.8044 48.7707 38.8157 48.9522C38.8214 49.0939 38.8497 49.2187 38.8667 49.2187C38.8837 49.2187 38.8951 49.2471 38.8837 49.2868C38.8667 49.3265 38.9008 49.4285 38.9461 49.5249C38.9915 49.6157 39.0368 49.7405 39.0425 49.8085C39.0482 49.8709 39.0822 49.9446 39.1162 49.973C39.1672 50.0127 39.1672 50.0354 39.1332 50.1318C39.1105 50.1941 39.1049 50.2509 39.1219 50.2622C39.1389 50.2735 39.1616 50.3473 39.1786 50.4323C39.1956 50.5174 39.2183 50.5911 39.2409 50.6081C39.2579 50.6195 39.2636 50.6478 39.2523 50.6705C39.2353 50.6988 39.276 50.6795 39.3024 50.6991C39.3233 50.7146 39.3481 50.7406 39.3713 50.7726C39.3911 50.7999 39.411 50.8228 39.4279 50.8395C39.4543 50.8654 39.484 50.8625 39.4826 50.8994C39.4819 50.9172 39.476 50.9513 39.4737 50.969C39.4676 51.0164 39.4849 51.0473 39.5187 51.0618C39.5528 51.0732 39.5698 51.1129 39.5584 51.1582C39.5471 51.1979 39.5584 51.232 39.5868 51.232C39.6151 51.232 39.6265 51.2603 39.6151 51.3057C39.5981 51.3567 39.6151 51.3794 39.6548 51.3794C39.7115 51.3794 39.7115 51.3851 39.6605 51.4191C39.6265 51.4418 39.6208 51.4588 39.6491 51.4588C39.6718 51.4588 39.7002 51.4928 39.7172 51.5325C39.7285 51.5722 39.7739 51.6176 39.8136 51.629C39.8171 51.6303 39.8205 51.6317 39.8238 51.6332C39.8834 51.6599 39.8616 51.7594 39.927 51.7594C39.9666 51.7594 39.995 51.7764 39.9837 51.7934C39.9723 51.8104 39.9893 51.8445 40.0177 51.8728C40.063 51.9125 40.0857 51.9125 40.1367 51.8671C40.1764 51.8274 40.1878 51.8274 40.1707 51.8615C40.1537 51.8898 40.1594 51.9125 40.1821 51.9125C40.2048 51.9125 40.2104 51.9409 40.1991 51.9749C40.1821 52.0203 40.1934 52.0316 40.2331 52.0146C40.2728 52.0033 40.3522 52.0486 40.4542 52.145C40.5393 52.2244 40.6413 52.2925 40.681 52.2925C40.715 52.2925 40.8171 52.3322 40.9021 52.3832C41.0552 52.4683 41.2196 52.4796 41.2707 52.4002C41.282 52.3832 41.3103 52.3662 41.333 52.3662C41.3614 52.3662 41.3557 52.3832 41.3217 52.4059C41.2933 52.4229 41.282 52.4456 41.3047 52.4456C41.3217 52.4456 41.3784 52.4173 41.4181 52.3889C41.5088 52.3208 41.6619 52.3152 41.6619 52.3832C41.6619 52.4116 41.6902 52.4456 41.7242 52.457C41.7526 52.4683 41.7696 52.4626 41.7582 52.4399C41.7186 52.3719 41.8036 52.4002 41.8716 52.4796C41.9113 52.5193 41.9623 52.5534 41.9907 52.5534C42.019 52.5534 42.0417 52.5704 42.0417 52.5931C42.0417 52.6441 42.1438 52.6384 42.1665 52.5817C42.182 52.5429 42.1917 52.6273 42.2198 52.6582C42.2393 52.6797 42.2665 52.7 42.2969 52.7122C42.4046 52.7632 42.5293 52.8653 42.7277 53.0751C42.8581 53.2112 42.9092 53.2282 42.9092 53.1432C42.9092 53.1148 42.9262 53.0865 42.9489 53.0865C42.9659 53.0865 42.9772 53.1035 42.9659 53.1205C42.9545 53.1375 42.9829 53.1602 43.0226 53.1715C43.0793 53.1885 43.0963 53.2112 43.0793 53.2566C43.0623 53.3076 43.0736 53.3133 43.1189 53.2906C43.2153 53.2509 43.3684 53.2623 43.4024 53.3133C43.431 53.361 43.5015 53.317 43.5564 53.3087C43.6906 53.2884 43.9297 53.2892 43.9297 53.3246C43.9297 53.3515 43.9716 53.332 43.9982 53.3357C44.0822 53.3474 44.2603 53.4058 44.2926 53.4381C44.3436 53.4891 44.3889 53.4607 44.3663 53.387C44.3379 53.2906 44.3606 53.2906 44.457 53.3927C44.5023 53.4437 44.5534 53.4664 44.5874 53.4551C44.6271 53.4381 44.6497 53.4494 44.6497 53.4834C44.6497 53.5458 44.6838 53.5572 44.7575 53.5061C44.7915 53.4834 44.8425 53.4834 44.8879 53.5118C44.9389 53.5401 44.9502 53.5401 44.9389 53.5118C44.9276 53.4891 44.9332 53.4608 44.9502 53.4494C44.9672 53.4381 45.0013 53.4494 45.0183 53.4778C45.058 53.5345 45.71 53.5515 45.71 53.4948C45.71 53.4721 45.7326 53.4891 45.761 53.5231C45.7742 53.542 45.7862 53.5552 45.7981 53.5632C45.8472 53.596 45.9061 53.5349 45.965 53.5332C46.0107 53.5319 46.0554 53.5559 46.101 53.5527C46.1448 53.5497 46.1973 53.5346 46.2542 53.5061C46.396 53.4381 46.6738 53.4324 46.7758 53.4948C46.8042 53.5118 46.8099 53.5061 46.7929 53.4721C46.7702 53.4324 46.7758 53.4267 46.8212 53.4437C46.8272 53.4457 46.8331 53.4472 46.8387 53.4482C46.8811 53.4553 46.8988 53.406 46.9389 53.3905C46.965 53.3804 46.9997 53.3799 47.0267 53.3729C47.0577 53.3649 47.0892 53.3533 47.1047 53.3417C47.1503 53.3143 47.2096 53.3426 47.2457 53.3036C47.2479 53.3012 47.25 53.2988 47.2521 53.2963C47.2804 53.2679 47.3201 53.2509 47.3371 53.2623C47.3541 53.2736 47.3768 53.2679 47.3938 53.2452C47.4052 53.2282 47.3995 53.2055 47.3768 53.2055C47.3541 53.2055 47.3371 53.1885 47.3371 53.1658C47.3371 53.1375 47.3541 53.1375 47.3882 53.1602C47.4732 53.2282 47.6036 53.2452 47.6036 53.1885C47.6036 53.1375 47.7567 53.0354 47.7567 53.0865C47.7567 53.1035 47.7737 53.0751 47.7964 53.0241C47.8247 52.9503 47.8417 52.9447 47.8871 52.9844C47.9154 53.0071 47.9608 53.0184 47.9835 53.0014C48.0005 52.99 48.0345 53.0071 48.0458 53.0411C48.0628 53.0921 48.0742 53.0921 48.1139 53.0468C48.1649 52.9844 48.386 52.9277 48.3463 52.9844C48.335 53.0014 48.3407 53.0241 48.3633 53.0241C48.386 53.0241 48.403 53.0071 48.403 52.9844C48.403 52.9617 48.4257 52.9447 48.4541 52.9447C48.4824 52.9447 48.5278 52.9163 48.5504 52.888C48.5788 52.8539 48.6241 52.8369 48.6525 52.8483C48.6808 52.8596 48.7035 52.8426 48.7035 52.8142C48.7035 52.7716 48.7557 52.7789 48.7954 52.7632C48.8117 52.7567 48.8072 52.7412 48.7772 52.7178C48.7319 52.6895 48.7489 52.6838 48.8339 52.7008C48.8963 52.7065 48.9757 52.7065 48.9983 52.6895C49.0267 52.6725 49.0947 52.6725 49.1514 52.6838C49.2591 52.7122 49.4236 52.6328 49.4236 52.542C49.4236 52.5137 49.4406 52.5023 49.4632 52.5137C49.4802 52.525 49.5426 52.491 49.5936 52.4399C49.6447 52.3889 49.7184 52.3322 49.7637 52.3265C49.8715 52.3095 50.1096 52.0826 50.1096 51.9976C50.1096 51.9579 50.1266 51.9295 50.1493 51.9295C50.1719 51.9295 50.223 51.8955 50.2627 51.8558C50.3023 51.8161 50.3647 51.7821 50.3987 51.7821C50.4384 51.7821 50.4498 51.7594 50.4384 51.731C50.4214 51.697 50.4441 51.6687 50.4781 51.6573C50.5121 51.646 50.5745 51.5836 50.6085 51.5155C50.6595 51.4191 50.6652 51.3851 50.6255 51.3397C50.5858 51.2887 50.5858 51.283 50.6425 51.3057C50.7162 51.3341 50.8977 51.1866 50.8977 51.1072C50.8977 51.0845 50.943 50.9654 50.9997 50.852C51.0269 50.7949 51.0501 50.7365 51.067 50.6868C51.0932 50.6098 51.0908 50.5031 51.1698 50.4834C51.2435 50.4607 51.2435 50.455 51.1868 50.438C51.1188 50.421 51.1244 50.4153 51.1925 50.3643C51.1948 50.3625 51.197 50.3607 51.1992 50.3589C51.2712 50.2999 51.2314 50.1763 51.3059 50.1204C51.3697 50.0736 51.4304 49.9053 51.435 49.7907C51.4376 49.7291 51.3756 49.6527 51.4249 49.6157C51.4533 49.5987 51.4533 49.576 51.4193 49.5363C51.3796 49.4909 51.3909 49.4682 51.4476 49.4285C51.4923 49.395 51.4302 49.3601 51.4571 49.3111C51.4594 49.307 51.4619 49.3027 51.4646 49.2981C51.4936 49.2328 51.4364 49.1674 51.4625 49.1009C51.4648 49.095 51.4674 49.0889 51.4703 49.0826C51.493 49.0202 51.493 48.9692 51.4646 48.9408C51.4363 48.9068 51.4363 48.8898 51.4703 48.8784C51.527 48.8614 51.5553 48.697 51.5043 48.697C51.4816 48.697 51.4646 48.714 51.4646 48.7367C51.4646 48.7537 51.4363 48.7764 51.4079 48.7764C51.3796 48.7764 51.3512 48.7593 51.3512 48.7367C51.3512 48.714 51.3739 48.697 51.4022 48.697C51.476 48.697 51.4986 48.6232 51.4533 48.5155C51.4023 48.4077 51.4419 48.368 51.527 48.4361C51.5837 48.4815 51.5837 48.4758 51.5213 48.385C51.4816 48.3283 51.4703 48.283 51.4816 48.283C51.544 48.283 51.5326 47.7499 51.476 47.6308C51.4476 47.5684 51.4249 47.4663 51.4306 47.3983C51.4363 47.3018 51.4249 47.2792 51.3739 47.2848C51.3712 47.2848 51.3686 47.2848 51.3661 47.2846C51.3157 47.2815 51.3312 47.2205 51.3152 47.1726C51.3029 47.1355 51.268 47.1001 51.2555 47.063C51.2479 47.0401 51.2557 47.0292 51.2775 47.0183C51.3059 47.0069 51.2945 46.9956 51.2605 46.9956C51.1755 46.9899 51.1755 46.9559 51.2492 46.8652C51.2889 46.8141 51.3059 46.8085 51.3059 46.8425C51.3059 46.8708 51.3115 46.8822 51.3229 46.8708C51.3512 46.8425 51.2605 46.6497 51.2208 46.6497C51.2038 46.6497 51.2152 46.5986 51.2492 46.5362C51.2889 46.4625 51.2889 46.4228 51.2662 46.4228C51.2314 46.4228 51.2638 46.3653 51.2363 46.3439C51.2334 46.3416 51.2301 46.3395 51.2265 46.3377C51.1981 46.3264 51.1811 46.2187 51.1755 46.0485C51.1698 45.8954 51.1585 45.7763 51.1471 45.7763C51.1358 45.7763 51.1074 45.7423 51.0961 45.7026C51.0791 45.6629 51.0564 45.6345 51.0394 45.6459C51.0224 45.6572 50.9997 45.6288 50.9884 45.5891C50.977 45.5494 50.9827 45.5268 51.0054 45.5381C51.0281 45.5495 51.011 45.4984 50.9657 45.4133C50.9147 45.3226 50.9033 45.2659 50.9317 45.2546C50.9543 45.2489 50.926 45.2092 50.8636 45.1695C50.8069 45.1298 50.7559 45.0844 50.7559 45.0731C50.7502 45.005 50.6539 44.8122 50.5972 44.7441C50.5631 44.7044 50.5575 44.6818 50.5802 44.6988C50.6425 44.7385 50.6369 44.6988 50.5631 44.591C50.5291 44.54 50.5121 44.4946 50.5291 44.4946C50.5405 44.4946 50.5291 44.4663 50.5008 44.4379C50.3987 44.3245 50.376 44.2848 50.3704 44.1997C50.3647 44.143 50.3761 44.1203 50.4044 44.1373C50.4067 44.1387 50.4089 44.14 50.4109 44.1411C50.4371 44.1557 50.4126 44.1009 50.3826 44.0979C50.3622 44.0958 50.3368 44.1164 50.3285 44.0976C50.3236 44.0862 50.3222 44.0664 50.325 44.0409C50.3364 43.9445 50.2286 43.6836 50.1436 43.5929C50.1039 43.5532 50.1039 43.5305 50.1379 43.4908C50.1443 43.4844 50.1495 43.4775 50.1536 43.4704C50.1749 43.4336 50.1229 43.3904 50.1039 43.4284C50.0869 43.4568 50.0529 43.4625 50.0189 43.4398C49.9678 43.4114 49.9735 43.4001 50.0302 43.4001C50.1379 43.4001 50.1039 43.298 49.9792 43.2696C49.9461 43.2636 49.9178 43.2528 49.8986 43.2398C49.8717 43.2217 49.884 43.1799 49.8548 43.1658C49.8338 43.1557 49.802 43.1653 49.7803 43.1568C49.7615 43.1495 49.756 43.1342 49.7637 43.1108C49.7751 43.0768 49.7581 43.0598 49.7127 43.0598C49.673 43.0598 49.6163 43.0201 49.5823 42.9747C49.5313 42.8953 49.5313 42.884 49.5823 42.8443C49.6333 42.8103 49.6277 42.7989 49.5256 42.7762C49.521 42.7752 49.5165 42.7741 49.5121 42.7729C49.4331 42.752 49.4286 42.6483 49.3555 42.6118C49.3045 42.5891 49.2705 42.5494 49.2818 42.5324C49.3102 42.4927 49.2308 42.3906 49.0267 42.1921C48.936 42.107 48.9246 42.073 48.953 42.0163C48.987 41.9596 48.9813 41.9426 48.936 41.9426C48.9076 41.9426 48.8849 41.9596 48.8849 41.9766C48.8849 42.0153 48.8195 41.9908 48.7862 41.9711C48.7261 41.9357 48.6582 41.8691 48.6582 41.8348C48.6525 41.7554 48.4824 41.6307 48.403 41.6534C48.335 41.6704 48.318 41.659 48.318 41.574C48.318 41.4889 48.301 41.4775 48.2046 41.4775C48.1366 41.4775 48.0572 41.4378 48.0005 41.3811C47.9495 41.3301 47.8644 41.2847 47.8191 41.2847C47.768 41.2847 47.6887 41.2564 47.6433 41.2223C47.5979 41.194 47.5072 41.16 47.4449 41.16C47.3825 41.1543 47.3145 41.1316 47.2975 41.0976C47.2804 41.0635 47.2578 41.0522 47.2578 41.0749C47.2578 41.0919 47.2408 41.0862 47.2181 41.0579C47.1954 41.0295 47.1784 41.0182 47.1784 41.0465C47.1784 41.0692 47.1444 41.0806 47.1047 41.0692C47.065 41.0579 47.031 41.0295 47.031 40.9955C47.031 40.9274 46.9686 40.8934 46.8269 40.8877C46.6625 40.8764 46.464 40.8254 46.4413 40.7913C46.43 40.7743 46.379 40.7573 46.3336 40.7573C46.2826 40.7573 46.2202 40.7289 46.1919 40.6949C46.1522 40.6495 46.0955 40.6382 45.9424 40.6495C45.8347 40.6609 45.744 40.6552 45.744 40.6325C45.744 40.6155 45.7156 40.6042 45.6873 40.6042C45.6589 40.6042 45.6306 40.6212 45.6306 40.6439C45.6306 40.694 45.5382 40.6366 45.4963 40.6641C45.4887 40.6691 45.4822 40.6757 45.4775 40.6836C45.4605 40.7119 45.3698 40.7289 45.2451 40.7233C45.1373 40.7233 45.0013 40.7403 44.9502 40.763C44.8992 40.7913 44.8312 40.8027 44.7915 40.797C44.7575 40.7913 44.7178 40.8027 44.7064 40.8197C44.6951 40.8424 44.6441 40.8594 44.593 40.8594C44.5193 40.8594 44.508 40.8764 44.5193 40.9218C44.5364 40.9728 44.5363 40.9785 44.5023 40.9388C44.4456 40.8594 44.2755 40.8537 44.1905 40.9274C44.0034 41.0919 43.9977 41.0976 43.9807 41.0238C43.9637 40.9728 43.9297 40.9501 43.8277 40.9501C43.7539 40.9501 43.6972 40.9671 43.6972 40.9785C43.6972 41.0085 43.7407 41.0008 43.7706 41.004C43.8006 41.0071 43.7958 41.0274 43.7539 41.0692C43.7256 41.1032 43.6406 41.1316 43.5725 41.1373C43.5045 41.1373 43.4421 41.1543 43.4251 41.177C43.4081 41.1997 43.3797 41.194 43.3514 41.1656C43.3287 41.1429 43.289 41.1203 43.2664 41.1203C43.2437 41.1203 43.2493 41.1373 43.2834 41.16C43.3344 41.1883 43.3287 41.1997 43.272 41.1997C43.1416 41.1997 42.9829 41.3244 42.9545 41.4435C42.9319 41.5569 42.9262 41.5569 42.8978 41.4719C42.8695 41.3868 42.7901 41.3528 42.7901 41.4265C42.7901 41.4889 42.4896 41.7668 42.4273 41.7668C42.3989 41.7668 42.3309 41.7951 42.2742 41.8292C42.2005 41.8802 42.1891 41.9029 42.2288 41.9482C42.2685 41.9993 42.2628 42.005 42.1721 41.9879C42.0814 41.9709 42.0644 41.9766 42.0814 42.039C42.0927 42.0787 42.0871 42.1127 42.0644 42.1127C42.0321 42.1127 42.0679 42.1652 42.0511 42.1927C42.0474 42.1987 42.0424 42.2044 42.0361 42.2091C42.019 42.2205 41.9964 42.2035 41.9964 42.1751C41.9964 42.0673 41.9283 42.1127 41.9 42.2261C41.883 42.2885 41.8603 42.3339 41.8376 42.3169C41.8206 42.3055 41.8036 42.3452 41.8036 42.4133C41.8036 42.5097 41.7923 42.5267 41.7072 42.521C41.6222 42.5154 41.6052 42.5324 41.5995 42.6061C41.5938 42.6571 41.5371 42.7479 41.4748 42.8046C41.4067 42.8613 41.3557 42.9294 41.3557 42.9577C41.3557 42.9861 41.3047 43.0314 41.2366 43.0598C41.1743 43.0882 41.1062 43.1505 41.0836 43.1959C41.0609 43.247 41.0099 43.2923 40.9758 43.3037C40.9182 43.3194 40.8266 43.4708 40.8221 43.5519C40.8214 43.5641 40.8302 43.5816 40.8197 43.5879C40.8108 43.5932 40.8004 43.5855 40.7906 43.5887C40.7672 43.5966 40.728 43.6253 40.6924 43.6609C40.6073 43.746 40.4656 43.78 40.5166 43.7063C40.5336 43.678 40.5166 43.6723 40.4656 43.6893C40.4145 43.7063 40.3692 43.6893 40.3295 43.6326C40.2955 43.5816 40.2501 43.5589 40.2161 43.5702C40.1764 43.5872 40.1537 43.5759 40.1537 43.5419C40.1537 43.4977 40.1091 43.4354 40.0623 43.3948C40.014 43.353 39.927 43.3562 39.927 43.2923C39.927 43.247 39.9043 43.2129 39.8703 43.2129C39.8419 43.2129 39.8136 43.2299 39.8136 43.2526C39.8136 43.281 39.7739 43.2526 39.7172 43.1959C39.6662 43.1392 39.6321 43.0768 39.6435 43.0541C39.6615 43.0271 39.5979 43.045 39.5673 43.0339C39.5586 43.0308 39.5496 43.0264 39.5408 43.021C39.5063 42.9998 39.4827 42.9647 39.4501 42.9408C39.4224 42.9205 39.3951 42.9067 39.377 42.9067C39.3487 42.9067 39.326 42.8897 39.326 42.867C39.326 42.8159 39.1786 42.6798 39.1275 42.6798C39.0595 42.6798 38.8384 42.4133 38.8554 42.3566C38.8667 42.3282 38.8554 42.2942 38.8271 42.2772C38.7987 42.2602 38.7704 42.2715 38.7647 42.2942C38.7477 42.3452 38.6456 42.3566 38.6456 42.3112C38.6456 42.2942 38.6059 42.2545 38.5492 42.2261C38.4982 42.1978 38.4529 42.1524 38.4529 42.1241C38.4529 42.0957 38.4358 42.073 38.4245 42.073C38.4075 42.073 38.3678 42.0333 38.3395 41.9766C38.3111 41.9256 38.2601 41.8745 38.2204 41.8575C38.1807 41.8462 38.1524 41.8065 38.1524 41.7611C38.1524 41.7214 38.124 41.6874 38.09 41.6874C38.0617 41.6874 38.0446 41.6704 38.056 41.6477C38.0673 41.625 38.0503 41.6193 38.022 41.6307C38.0192 41.6321 38.0164 41.6332 38.0136 41.6342C37.9546 41.6543 37.9212 41.5338 37.8632 41.5569C37.8349 41.5683 37.8122 41.5513 37.8122 41.5229C37.8122 41.4492 37.6931 41.3414 37.6138 41.3414C37.5797 41.3414 37.5514 41.3131 37.5514 41.2847C37.5514 41.2564 37.5287 41.228 37.5004 41.228C37.472 41.228 37.4153 41.1656 37.3756 41.0862C37.3359 41.0125 37.2792 40.9445 37.2509 40.9331C37.2169 40.9218 37.2112 40.9331 37.2282 40.9671C37.2452 40.9955 37.1999 40.9615 37.1318 40.8877C37.0014 40.7516 36.9788 40.7346 36.9107 40.7346C36.8937 40.7346 36.871 40.7063 36.871 40.6722C36.871 40.6325 36.8484 40.6212 36.7973 40.6382C36.7463 40.6552 36.7236 40.6439 36.7236 40.6042C36.7236 40.5702 36.7066 40.5418 36.6839 40.5418C36.6669 40.5418 36.6443 40.5134 36.6443 40.4851C36.6443 40.4511 36.6102 40.4284 36.5535 40.4284C36.4118 40.4284 36.3438 40.3887 36.3664 40.3206C36.3891 40.2639 36.3834 40.2639 36.3154 40.3263C36.2417 40.3943 36.236 40.3943 36.1793 40.3093C36.1283 40.2356 35.6974 40.0257 35.6974 40.0768C35.6974 40.0881 35.6747 40.0768 35.6521 40.0541C35.6021 40.0041 35.7243 39.9325 35.6697 39.8877C35.6464 39.8687 35.6048 39.8556 35.55 39.8556C35.4877 39.8556 35.4423 39.8386 35.4423 39.8045C35.448 39.6741 35.4196 39.6287 35.3119 39.589C35.2855 39.5781 35.2592 39.5688 35.2361 39.5615C35.1894 39.5468 35.1406 39.5298 35.1475 39.4813C35.1531 39.4302 35.1248 39.4189 35.0511 39.4246C34.9887 39.4302 34.9434 39.4189 34.9434 39.3962C34.9434 39.3485 35.0148 39.3379 34.9791 39.3062C34.9768 39.3042 34.9743 39.302 34.9717 39.2998C34.932 39.2715 34.8753 39.2601 34.847 39.2715C34.813 39.2828 34.796 39.2658 34.796 39.2261C34.796 39.1921 34.7789 39.175 34.7619 39.1864C34.7449 39.1977 34.6996 39.175 34.6769 39.141C34.6145 39.0503 34.4048 38.9425 34.3084 38.9425C34.2687 38.9425 34.212 38.9085 34.1836 38.8688C34.1553 38.8291 34.1099 38.7951 34.0873 38.7951C34.0538 38.7951 34.0624 38.7474 34.0379 38.7246C34.0223 38.7101 33.9999 38.6947 33.9739 38.6817C33.9172 38.6533 33.8548 38.6079 33.8435 38.5852C33.8265 38.5569 33.7811 38.5342 33.7414 38.5342C33.6167 38.5342 33.4353 38.4094 33.4579 38.3357C33.4806 38.2677 33.4182 38.245 33.3786 38.3074C33.3615 38.3357 33.3389 38.3357 33.2992 38.3017C33.2538 38.262 33.2538 38.2506 33.2935 38.2223C33.3332 38.1939 33.3332 38.1939 33.2878 38.1939C33.1801 38.2053 33.1348 38.1883 33.1574 38.1542C33.1688 38.1315 33.1461 38.1145 33.1064 38.1145C33.0611 38.1145 33.027 38.0975 33.027 38.0748C33.027 38.0578 33.0044 38.0465 32.976 38.0578C32.9181 38.081 32.8963 37.969 32.8351 37.9564C32.8329 37.956 32.8307 37.9557 32.8286 37.9557C32.7549 37.9557 32.5565 37.848 32.4998 37.7856C32.494 37.7798 32.4889 37.7728 32.4846 37.7651C32.4533 37.7088 32.4958 37.614 32.4317 37.6211C32.341 37.6382 32.1766 37.5361 32.1766 37.468C32.1766 37.4283 32.1426 37.417 32.0575 37.4226C31.9895 37.4283 31.9328 37.417 31.9328 37.3943C31.9328 37.3149 31.8137 37.2412 31.723 37.2639C31.6493 37.2809 31.6323 37.2695 31.6323 37.2185C31.6323 37.1788 31.5813 37.1164 31.5189 37.0824C31.4566 37.0483 31.3999 36.9746 31.3829 36.9236C31.3658 36.8499 31.3318 36.8272 31.2638 36.8272C31.2586 36.8272 31.2537 36.827 31.249 36.8268C31.1945 36.8236 31.2022 36.7532 31.1504 36.7705C31.0994 36.7875 31.054 36.7705 31.0143 36.7137C30.973 36.6518 30.8903 36.6516 30.8351 36.6014C30.827 36.5941 30.8187 36.5861 30.8102 36.5776C30.7622 36.5243 30.7555 36.5872 30.6975 36.5449C30.672 36.5262 30.6388 36.4969 30.6004 36.4585C30.5437 36.3962 30.4587 36.3451 30.4247 36.3451C30.385 36.3451 30.3396 36.3111 30.3226 36.2601C30.3 36.1807 30.2943 36.1807 30.2489 36.2487C30.1979 36.3111 30.1979 36.3111 30.1752 36.209C30.1582 36.1126 30.1355 36.0956 30.0448 36.1013C29.9825 36.1069 29.9144 36.0842 29.8917 36.0559C29.8691 36.0275 29.8067 36.0049 29.7557 36.0049C29.6763 36.0049 29.665 35.9878 29.682 35.9198C29.699 35.8744 29.6876 35.812 29.665 35.7893C29.6139 35.727 29.7046 35.6249 29.818 35.6249C29.8804 35.6249 29.8974 35.6022 29.8974 35.5285C29.8974 35.4604 29.9144 35.4321 29.9711 35.4321C30.0108 35.4321 30.0448 35.4037 30.0448 35.3754C30.0448 35.347 30.0788 35.3186 30.1185 35.3186C30.1809 35.3186 30.1922 35.3016 30.1696 35.1825C30.1469 35.0464 30.1525 35.0408 30.2489 35.0634C30.334 35.0805 30.351 35.0691 30.3737 34.9897C30.3951 34.911 30.2832 34.8468 30.3298 34.7799C30.3432 34.7607 30.3638 34.7411 30.3907 34.7232C30.4474 34.6891 30.4644 34.6438 30.453 34.553C30.4474 34.4566 30.4587 34.4226 30.5494 34.3829C30.6231 34.3432 30.6458 34.3092 30.6345 34.2525C30.5948 34.0653 30.5948 33.9802 30.6458 33.9859C30.6742 33.9916 30.6912 33.9462 30.6912 33.8271C30.6912 33.7307 30.7195 33.6173 30.7535 33.5662C30.7932 33.5039 30.7989 33.4698 30.7705 33.4471C30.7422 33.4301 30.7479 33.3848 30.7875 33.3167C30.8272 33.2316 30.8612 33.2146 30.9236 33.2316C30.9432 33.2382 30.9587 33.2405 30.9696 33.2397C30.9945 33.2376 30.9709 33.2041 30.9808 33.1811C30.9889 33.1621 31.0228 33.1499 31.0062 33.1375C30.9955 33.1295 30.9751 33.1204 30.9463 33.1125C30.8839 33.0955 30.8216 33.1012 30.7875 33.1296C30.7479 33.1579 30.7308 33.1636 30.7308 33.1352C30.7308 33.1125 30.7592 33.0729 30.7989 33.0445C30.9009 32.9708 31.0143 32.7723 30.9633 32.7553C30.9406 32.7496 30.935 32.7156 30.9463 32.6815C30.9633 32.6362 30.9576 32.6305 30.9179 32.6532C30.8783 32.6759 30.8726 32.6702 30.9123 32.6305C30.9385 32.6019 30.9527 32.5772 30.9553 32.5604C30.9625 32.5129 30.8442 32.5765 30.8442 32.5284C30.8442 32.5057 30.8612 32.4887 30.8839 32.4887C30.9406 32.4887 30.9293 32.4093 30.8612 32.3299C30.8216 32.2902 30.7932 32.1768 30.7875 32.0123C30.7819 31.8762 30.7592 31.7401 30.7308 31.7061C30.6968 31.6664 30.6968 31.6437 30.7365 31.5983C30.7649 31.5643 30.7649 31.5416 30.7422 31.5416C30.7025 31.5416 30.6571 31.3658 30.6571 31.2184C30.6571 31.1787 30.6401 31.122 30.6175 31.0993C30.5891 31.0653 30.5891 31.0256 30.6231 30.9745C30.6515 30.9235 30.6515 30.8951 30.6288 30.8951C30.6061 30.8951 30.5778 30.8327 30.5664 30.7533C30.5267 30.5095 30.5097 30.4811 30.4417 30.5038C30.3902 30.521 30.4549 30.4696 30.4711 30.4178C30.479 30.3925 30.4846 30.3631 30.4871 30.3337C30.4927 30.2146 30.5494 30.2032 30.5494 30.3167C30.5494 30.3677 30.5721 30.3564 30.6458 30.277C30.6968 30.2202 30.7649 30.1805 30.7932 30.1919C30.8272 30.2032 30.8669 30.1805 30.9009 30.1352C30.9293 30.0898 30.9803 30.0558 31.02 30.0558C31.0824 30.0558 31.0824 30.0501 31.0257 29.9594C30.952 29.8459 30.9746 29.7949 31.0597 29.88C31.088 29.9083 31.1561 29.948 31.2128 29.965C31.2865 29.9821 31.3091 29.9707 31.3091 29.9253C31.3091 29.8856 31.3432 29.863 31.3942 29.863C31.4395 29.8573 31.5359 29.8233 31.6096 29.7836C31.6833 29.7439 31.706 29.7212 31.6607 29.7325C31.6153 29.7439 31.5699 29.7382 31.5643 29.7269C31.5473 29.6985 31.604 29.6815 31.7911 29.6758C31.8364 29.6701 31.8818 29.6475 31.8931 29.6191C31.9045 29.5907 31.9498 29.5681 31.9895 29.5681C32.0482 29.5681 32.0456 29.4952 32.1043 29.4957C32.1226 29.4958 32.1447 29.4972 32.1709 29.5C32.256 29.5057 32.324 29.4943 32.324 29.4773C32.324 29.4546 32.341 29.4603 32.3637 29.483C32.3864 29.5057 32.4317 29.517 32.4601 29.5057C32.5054 29.4887 32.5054 29.4773 32.4657 29.449C32.4261 29.4206 32.4317 29.4149 32.4771 29.4319C32.5111 29.4433 32.6075 29.4376 32.6982 29.4149C32.8116 29.3866 32.874 29.3412 32.925 29.2505C32.9647 29.1767 33.027 29.12 33.0554 29.12C33.0837 29.12 33.1291 29.0917 33.1574 29.0633C33.1858 29.035 33.2425 29.0066 33.2935 29.0066C33.3445 29.0066 33.3842 28.9896 33.3842 28.9726C33.3842 28.9556 33.4239 28.9386 33.4693 28.9329C33.645 28.9272 33.7584 28.9045 33.8094 28.8592C33.8378 28.8308 33.9172 28.8024 33.9795 28.7911C34.0476 28.7741 34.0986 28.7514 34.0986 28.7344C34.0986 28.7174 34.1213 28.7004 34.1496 28.7004C34.178 28.7004 34.263 28.6663 34.3481 28.6266C34.4898 28.5529 34.5919 28.5529 34.4785 28.6266C34.4444 28.6493 34.4388 28.6663 34.4671 28.6663C34.4705 28.6663 34.4742 28.666 34.478 28.6652C34.5244 28.6563 34.5553 28.5885 34.5975 28.6096C34.6145 28.621 34.6599 28.6153 34.6826 28.5926C34.7109 28.5699 34.7676 28.5586 34.813 28.5699C34.8583 28.5756 34.898 28.5699 34.898 28.5529C34.898 28.5359 34.9377 28.5019 34.9944 28.4735C35.0454 28.4452 35.0964 28.3941 35.1078 28.3544C35.1248 28.3147 35.1531 28.2977 35.1985 28.3091C35.2659 28.3283 35.3225 28.2598 35.392 28.2504C35.4099 28.248 35.4289 28.2467 35.448 28.2467C35.4733 28.2467 35.4994 28.2443 35.5228 28.2402C35.5798 28.2301 35.6267 28.1685 35.6804 28.19C35.7088 28.2013 35.7428 28.1956 35.7541 28.1729C35.76 28.1641 35.7737 28.1583 35.7902 28.1564C35.823 28.1526 35.8539 28.1746 35.8851 28.1636C35.9253 28.1493 35.9426 28.0976 35.9804 28.0778C36.0033 28.0659 36.0305 28.0595 36.0546 28.0595C36.1 28.0595 36.185 28.0198 36.2417 27.9631C36.2646 27.9425 36.2885 27.9246 36.3103 27.9114C36.3548 27.8844 36.4237 27.9048 36.4401 27.8554C36.4515 27.827 36.4798 27.8043 36.5082 27.8157C36.5309 27.8213 36.6386 27.7873 36.7406 27.7363C36.8484 27.6852 36.9731 27.6399 37.0355 27.6399C37.0921 27.6399 37.1602 27.6115 37.1942 27.5831C37.227 27.547 37.2845 27.5394 37.3205 27.5526C37.3675 27.5698 37.3536 27.6282 37.3983 27.6058C37.438 27.5831 37.5174 27.5661 37.5741 27.5661C37.6364 27.5661 37.6705 27.5434 37.6705 27.5094C37.6705 27.4584 37.7215 27.4527 37.9539 27.4641C38.1524 27.4697 38.2601 27.4584 38.3054 27.43C38.3395 27.4017 38.4075 27.379 38.4585 27.379C38.4671 27.379 38.4758 27.378 38.4845 27.3762C38.5503 27.3623 38.5783 27.2656 38.6456 27.2656C38.6856 27.2656 38.679 27.3266 38.7184 27.3195C38.7223 27.3188 38.7264 27.3178 38.7307 27.3166C38.7704 27.3053 38.8157 27.2656 38.8271 27.2259C38.8506 27.1709 38.9287 27.1761 38.9318 27.1164C38.9326 27.1004 38.9318 27.0819 38.9291 27.0614C38.9234 27.0387 38.9461 27.0557 38.9745 27.0898C38.9882 27.1076 39.0026 27.1219 39.0169 27.1324C39.0829 27.1811 39.1491 27.0888 39.2296 27.0727C39.2806 27.0671 39.36 27.0387 39.4054 27.0104C39.4507 26.982 39.5131 26.965 39.5471 26.965C39.5811 26.965 39.6435 26.931 39.6832 26.8913C39.7739 26.8005 39.8929 26.7892 39.8589 26.8742C39.8389 26.9343 39.9326 26.9674 39.9471 27.0291C39.9487 27.036 39.9496 27.043 39.9496 27.0501C39.9496 27.0898 39.978 27.1238 40.0063 27.1238C40.0347 27.1238 40.063 27.1521 40.063 27.1805C40.063 27.2088 40.1311 27.2996 40.2161 27.3847C40.3012 27.464 40.3692 27.5491 40.3692 27.5718C40.3692 27.5945 40.4089 27.6228 40.4656 27.6342C40.5166 27.6455 40.5676 27.6909 40.579 27.7306C40.596 27.7703 40.63 27.8043 40.6583 27.8043C40.6867 27.8043 40.7094 27.8383 40.7094 27.8837C40.7094 27.9291 40.7547 28.0085 40.8171 28.0595C40.8738 28.1106 40.9191 28.1673 40.9191 28.1786C40.9191 28.2013 40.9928 28.2977 41.1062 28.4055C41.1459 28.4452 41.1686 28.4792 41.1516 28.4792C41.1346 28.4792 41.1686 28.5246 41.2253 28.5813C41.282 28.638 41.3217 28.7004 41.3217 28.7117C41.3217 28.7287 41.35 28.7401 41.3784 28.7401C41.4067 28.7401 41.4351 28.7231 41.4351 28.7004C41.4351 28.6777 41.4521 28.6607 41.4691 28.6607C41.4918 28.6607 41.5031 28.706 41.4974 28.7628C41.4918 28.8478 41.5088 28.8705 41.5711 28.8818C41.6165 28.8875 41.6675 28.9272 41.6789 28.9669C41.6959 29.0123 41.7299 29.035 41.7582 29.0236C41.7866 29.0123 41.8093 29.0293 41.8093 29.0577C41.8093 29.0917 41.8433 29.1144 41.8943 29.1144C41.9794 29.1144 42.0757 29.1994 42.1211 29.3129C42.1324 29.3469 42.1778 29.3979 42.2232 29.4206C42.2855 29.4546 42.3082 29.449 42.3365 29.3752C42.3447 29.355 42.3747 29.3598 42.3759 29.3816L42.3762 29.3866C42.3819 29.4716 42.3819 29.4716 42.4159 29.4093C42.4499 29.3526 42.4669 29.3469 42.4896 29.3923C42.5066 29.4206 42.501 29.4546 42.4726 29.4716C42.4386 29.4943 42.4443 29.5 42.484 29.5C42.535 29.5 42.535 29.5057 42.484 29.5397C42.4386 29.5681 42.4443 29.5794 42.5123 29.5794C42.5633 29.5794 42.637 29.6191 42.6824 29.6701C42.7448 29.7325 42.8298 29.7666 42.9942 29.7892C43.1189 29.8062 43.2437 29.8176 43.272 29.8119C43.2947 29.8062 43.3174 29.8289 43.3174 29.863C43.3174 29.948 43.4024 29.9821 43.4478 29.914C43.5045 29.8346 43.5442 29.8289 43.5215 29.9027C43.5045 29.9537 43.6292 30.0104 43.7993 30.0218C43.8447 30.0218 43.8957 30.0388 43.907 30.0501C43.924 30.0671 43.9807 30.0785 44.0431 30.0785C44.1508 30.0785 44.1848 30.1352 44.1055 30.1635C44.0658 30.1749 44.0658 30.1919 44.1111 30.2316C44.1508 30.2713 44.1678 30.2713 44.1792 30.2373C44.1962 30.1862 44.3776 30.1749 44.3776 30.2202C44.3776 30.2373 44.423 30.277 44.474 30.3053C44.5534 30.3507 44.576 30.3507 44.6044 30.3053C44.6271 30.2656 44.6497 30.2656 44.6894 30.294C44.7178 30.3167 44.7801 30.345 44.8312 30.3507C44.9049 30.3564 44.9219 30.345 44.9162 30.2883C44.9049 30.2373 44.9219 30.2259 44.9672 30.2429C45.0013 30.2543 45.075 30.277 45.1203 30.2883C45.1713 30.2996 45.211 30.3393 45.211 30.3734C45.211 30.4131 45.2224 30.4187 45.2394 30.3904C45.2564 30.362 45.3188 30.3564 45.4265 30.379C45.5569 30.4017 45.5852 30.3961 45.5682 30.3564C45.5569 30.328 45.5625 30.3053 45.5852 30.3053C45.6079 30.3053 45.6249 30.3223 45.6249 30.345C45.6249 30.362 45.6589 30.3847 45.6986 30.3847C45.7383 30.3847 45.7723 30.3677 45.7723 30.345C45.7723 30.328 45.744 30.3167 45.7156 30.328C45.6282 30.3678 45.7417 30.2353 45.8358 30.2548C45.8504 30.2578 45.8653 30.2614 45.88 30.2656C45.913 30.2722 45.9451 30.2762 45.9727 30.2781C46.0281 30.2817 46.0708 30.2545 46.1262 30.2569C46.1448 30.2578 46.1724 30.2634 46.1909 30.265C46.2379 30.2691 46.27 30.2455 46.2939 30.1976C46.3563 30.0898 46.4017 30.1012 46.4357 30.2146C46.4527 30.277 46.481 30.3053 46.5207 30.294C46.5547 30.2883 46.6171 30.2656 46.6625 30.2543C46.7135 30.2373 46.7532 30.2543 46.7645 30.294C46.7815 30.3393 46.8325 30.345 47.0253 30.328C47.2691 30.2996 47.4222 30.2486 47.3825 30.2089C47.3541 30.1805 47.785 30.0161 47.9268 29.9991C47.9778 29.9934 48.0685 29.9707 48.1252 29.9424C48.1876 29.9197 48.2499 29.9027 48.267 29.9027C48.284 29.9027 48.301 29.8743 48.301 29.8403C48.301 29.8006 48.318 29.7892 48.352 29.8119C48.4597 29.8856 48.7942 29.7949 48.7942 29.6872C48.7942 29.6304 48.8566 29.6191 48.8793 29.6815C48.8963 29.7325 49.021 29.6815 49.021 29.6191C49.021 29.5851 49.0607 29.5681 49.1344 29.5681C49.2421 29.5681 49.4462 29.4546 49.5313 29.3469C49.554 29.3185 49.588 29.3015 49.6107 29.3072C49.673 29.3242 49.8431 29.1711 49.8204 29.1144C49.8091 29.0747 49.8204 29.069 49.8601 29.086C49.8941 29.0974 49.9905 29.069 50.0812 29.0236C50.223 28.9499 50.2456 28.9215 50.2343 28.8195C50.2286 28.7514 50.24 28.7004 50.2627 28.7004C50.2797 28.7004 50.2967 28.7174 50.2967 28.7401C50.2967 28.7571 50.3137 28.7798 50.3364 28.7798C50.359 28.7798 50.3761 28.7514 50.3761 28.7174C50.3761 28.6753 50.4372 28.6903 50.4603 28.6551C50.4647 28.6484 50.4688 28.6407 50.4724 28.6323C50.4838 28.5926 50.5235 28.5359 50.5688 28.4962C50.6425 28.4338 50.6425 28.4225 50.5802 28.3488C50.5405 28.3034 50.5291 28.2807 50.5461 28.2977C50.5631 28.3147 50.6085 28.3034 50.6369 28.2807C50.6879 28.2467 50.6879 28.2467 50.6652 28.2807C50.6482 28.3091 50.6482 28.3317 50.6709 28.3317C50.7332 28.3261 50.8239 28.1616 50.8466 28.0085C50.8636 27.9121 50.9033 27.8327 50.9714 27.776C51.0564 27.7022 51.0621 27.6909 50.9997 27.6682C50.9373 27.6455 50.9373 27.6399 50.9827 27.6058C51.0337 27.5775 51.0337 27.5661 50.9884 27.5378C50.926 27.4981 50.9657 27.4187 51.0507 27.4187C51.0961 27.4187 51.1018 27.4073 51.0677 27.3676C51.0054 27.2939 51.0564 27.033 51.1414 26.948C51.1868 26.9083 51.2095 26.8516 51.1981 26.8062C51.1698 26.6984 51.2038 26.6247 51.2775 26.6474C51.3342 26.6644 51.3285 26.6644 51.2718 26.6247C51.2322 26.5964 51.2095 26.551 51.2208 26.4943C51.2265 26.4432 51.2208 26.3355 51.1981 26.2504C51.1641 26.12 51.1698 26.0803 51.2265 26.0179C51.2832 25.9555 51.2889 25.9442 51.2378 25.9215C51.1981 25.9045 51.1868 25.8534 51.1868 25.757C51.1883 25.7369 51.1882 25.7164 51.1868 25.697C51.1817 25.624 51.1367 25.5525 51.1755 25.4905C51.2152 25.4224 51.2152 25.3997 51.1585 25.3374C51.114 25.2802 51.1633 25.2154 51.1328 25.1497C51.1287 25.141 51.124 25.1317 51.1188 25.1219C51.1005 25.0853 51.0861 25.0501 51.0762 25.0181C51.043 24.9107 51.1154 24.8086 51.1074 24.6965C51.1018 24.6171 51.1188 24.515 51.1414 24.464C51.1811 24.3903 51.1698 24.3676 51.1018 24.3222C51.0054 24.2542 50.994 24.1918 51.0734 24.1918C51.1018 24.1918 51.1301 24.1634 51.1301 24.1294C51.1301 24.086 51.0606 24.1004 51.0534 24.0577C51.0517 24.0472 51.0507 24.035 51.0507 24.0216C51.0507 23.9706 51.0337 23.9252 51.0167 23.9252C50.9997 23.9252 50.9657 23.8912 50.9544 23.8515C50.943 23.8118 50.9033 23.7778 50.8693 23.7778C50.8296 23.7778 50.8183 23.7551 50.8296 23.6984C50.841 23.6417 50.8296 23.6133 50.7843 23.602C50.7332 23.585 50.7162 23.5453 50.7162 23.3921C50.7106 23.2504 50.6935 23.188 50.6312 23.1313C50.5915 23.0916 50.5631 23.0349 50.5745 23.0008C50.6028 22.9328 50.5291 22.9271 50.5008 22.9895C50.4894 23.0178 50.4894 23.0008 50.5008 22.9555C50.5291 22.8477 50.4384 22.6038 50.3761 22.6038C50.3477 22.6038 50.3137 22.5698 50.291 22.5301C50.2456 22.4394 50.24 22.3997 50.2853 22.428C50.3023 22.4394 50.3137 22.411 50.3137 22.36C50.312 22.341 50.3092 22.3256 50.3052 22.314C50.2915 22.2742 50.207 22.3053 50.2286 22.2692C50.2456 22.2409 50.24 22.2239 50.223 22.2239C50.206 22.2239 50.189 22.1899 50.1833 22.1502C50.1817 22.1391 50.1814 22.1289 50.1824 22.1202C50.1859 22.0882 50.2456 22.1142 50.2456 22.0821C50.2456 22.0239 50.1506 22.0103 50.1351 21.9542C50.1333 21.9476 50.1323 21.941 50.1323 21.9346C50.1323 21.9006 50.0869 21.8269 50.0302 21.7815C49.9792 21.7305 49.9508 21.6965 49.9735 21.6965C50.0019 21.6965 50.0189 21.6681 50.0189 21.6397C50.0189 21.5933 49.9813 21.5703 49.9189 21.5751C49.9062 21.5761 49.8933 21.5803 49.8843 21.5712C49.8687 21.5552 49.8878 21.5233 49.8726 21.507C49.8597 21.4931 49.8365 21.4821 49.8091 21.4753C49.7581 21.4696 49.724 21.4469 49.724 21.4299C49.724 21.4129 49.6957 21.3902 49.6617 21.3845C49.622 21.3789 49.5936 21.3392 49.5936 21.2995C49.5936 21.2598 49.571 21.2201 49.5426 21.2087C49.5143 21.1974 49.5029 21.2087 49.5143 21.2314C49.5256 21.2541 49.5199 21.2825 49.4973 21.2938C49.4803 21.3051 49.4576 21.2881 49.4576 21.2428C49.4576 21.2031 49.3952 21.1237 49.3272 21.067C49.2535 21.0046 49.1968 20.9365 49.1968 20.9082C49.1968 20.8798 49.1741 20.8571 49.1457 20.8571C49.0947 20.8571 48.8566 20.6019 48.8566 20.5395C48.8566 20.5225 48.8282 20.5169 48.7942 20.5282C48.7545 20.5452 48.7375 20.5339 48.7545 20.4998C48.7659 20.4715 48.7545 20.4261 48.7319 20.4091C48.6865 20.3694 48.6638 20.3637 48.5901 20.3637C48.5731 20.3637 48.5504 20.3354 48.5504 20.3013C48.5504 20.258 48.4795 20.2826 48.459 20.2445C48.4547 20.2365 48.4511 20.227 48.4484 20.2163C48.437 20.1709 48.42 20.1369 48.403 20.1369C48.3917 20.1369 48.3577 20.0858 48.3293 20.0235C48.301 19.9611 48.2556 19.91 48.2273 19.91C48.1989 19.91 48.1706 19.893 48.1649 19.8703C48.1599 19.8554 48.1516 19.847 48.1386 19.8457C48.0838 19.8401 47.9642 19.9332 47.9948 19.8874C48.0118 19.8647 47.9778 19.825 47.9268 19.8023C47.8758 19.7739 47.8247 19.7172 47.8077 19.6775C47.7907 19.6151 47.7794 19.6151 47.751 19.6548C47.7283 19.6945 47.717 19.6945 47.717 19.6605C47.717 19.6378 47.649 19.5868 47.5696 19.5528C47.4845 19.5131 47.3995 19.445 47.3712 19.3996C47.3428 19.3486 47.2918 19.3146 47.2521 19.3146C47.2124 19.3146 47.1841 19.3032 47.1841 19.2862C47.1841 19.2578 47.0026 19.1671 46.9346 19.1671C46.8609 19.1671 46.7929 19.065 46.8496 19.0423C46.8904 19.0219 46.8025 19.0082 46.769 19.0394C46.7639 19.0441 46.7604 19.0491 46.7588 19.0537C46.7475 19.0934 46.6851 19.0991 46.5264 19.082C46.4867 19.0764 46.4187 19.0423 46.3846 19.0083C46.3166 18.9403 46.3053 18.9403 46.2429 18.9913C46.1579 19.065 46.1238 19.065 46.1238 18.997C46.1238 18.9686 46.1409 18.9403 46.1635 18.9403C46.1862 18.9403 46.2032 18.9232 46.2032 18.9006C46.2032 18.8779 46.1635 18.8892 46.1068 18.9233C46.0501 18.9629 46.0105 18.9686 46.0105 18.9403C46.0105 18.9176 45.9764 18.9006 45.9367 18.9006C45.928 18.9006 45.919 18.8997 45.9102 18.8982C45.8567 18.889 45.8152 18.8196 45.7667 18.8439C45.7383 18.8552 45.7043 18.8268 45.6929 18.7871C45.6703 18.7248 45.6419 18.7134 45.4945 18.7191C45.3981 18.7248 45.2847 18.7134 45.2394 18.6907C45.1997 18.668 45.1146 18.651 45.0523 18.6567C44.9899 18.6624 44.9219 18.6397 44.8935 18.6057C44.8538 18.5546 44.8482 18.5546 44.8425 18.6113C44.8425 18.668 44.8368 18.6737 44.7915 18.6283C44.7631 18.6 44.7518 18.5716 44.7745 18.566C44.8255 18.549 44.7745 18.4809 44.7121 18.4809C44.6781 18.4809 44.6611 18.5093 44.6668 18.5433C44.6781 18.617 44.559 18.6397 44.4797 18.583C44.4513 18.566 44.406 18.5546 44.3776 18.566C44.3493 18.5773 44.3039 18.5603 44.2812 18.5319C44.2018 18.4072 44.1508 18.4072 44.1508 18.4752ZM43.8843 20.8911C43.8843 20.9308 44.2812 20.9195 44.4683 20.8741C44.4994 20.8653 44.5218 20.8607 44.5365 20.8605C44.5682 20.8601 44.516 20.9308 44.5477 20.9308C44.5534 20.9308 44.593 20.9422 44.6327 20.9592C44.6781 20.9762 44.6894 20.9705 44.6724 20.9422C44.6554 20.9138 44.6781 20.9025 44.7631 20.9195C44.8368 20.9365 44.8765 20.9252 44.8765 20.9025C44.8765 20.8741 44.9105 20.8741 44.9842 20.9138C45.0466 20.9422 45.1317 20.9592 45.1713 20.9479C45.2224 20.9365 45.2564 20.9422 45.2564 20.9705C45.2564 20.9989 45.2734 21.0046 45.2961 20.9932C45.3131 20.9819 45.4038 21.0216 45.4832 21.0896C45.5321 21.1294 45.5793 21.1576 45.6178 21.1734C45.6656 21.1929 45.7553 21.1515 45.7553 21.2031C45.7553 21.2257 45.829 21.2371 45.9424 21.2314C46.1125 21.2144 46.1409 21.2257 46.2089 21.3165C46.2542 21.3789 46.3506 21.4469 46.4187 21.4866C46.4924 21.5207 46.5491 21.5717 46.5491 21.5944C46.5491 21.6227 46.5717 21.6568 46.6001 21.6681C46.7758 21.7532 46.8722 21.8382 46.8836 21.912C46.8949 21.9857 46.9346 22.014 47.014 21.997C47.0763 21.9857 47.2691 22.1105 47.2691 22.1615C47.2691 22.1899 47.3031 22.2239 47.3485 22.2352C47.3938 22.2522 47.4165 22.2806 47.4052 22.3146C47.3938 22.343 47.3995 22.3657 47.4222 22.3657C47.4902 22.3657 47.717 22.6379 47.6943 22.6946C47.683 22.7229 47.7 22.7456 47.734 22.7456C47.768 22.7456 47.7964 22.774 47.7964 22.8194C47.7964 22.8512 47.8048 22.8803 47.8176 22.8987C47.8273 22.9125 47.8461 22.9209 47.8539 22.9359C47.8678 22.9628 47.833 23.0061 47.8628 23.0115C47.8651 23.012 47.8675 23.0122 47.8701 23.0122C47.8928 23.0122 47.9268 23.0519 47.9438 23.1086C47.9608 23.1653 48.0062 23.205 48.0402 23.205C48.1082 23.205 48.1139 23.222 48.0572 23.3241C48.0288 23.3751 48.0288 23.3978 48.0572 23.3978C48.0742 23.3978 48.0969 23.3808 48.0969 23.3581C48.0969 23.3354 48.1139 23.3184 48.1309 23.3184C48.1584 23.3184 48.2973 23.5784 48.3463 23.7016C48.3615 23.7399 48.3574 23.789 48.3917 23.8118C48.4144 23.8232 48.4654 23.9309 48.5051 24.0557C48.5448 24.1748 48.6015 24.3052 48.6298 24.3449C48.7489 24.4867 48.7715 24.5604 48.7262 24.6058C48.6978 24.6341 48.6922 24.6568 48.7205 24.6795C48.7715 24.7135 48.8509 25.0254 48.8169 25.0481C48.7772 25.0708 48.8112 25.292 48.8566 25.292C48.8889 25.292 48.8599 25.3442 48.8773 25.3714C48.8797 25.3751 48.8823 25.3787 48.8853 25.3823C48.904 25.4053 48.9325 25.4186 48.9517 25.4412C48.9736 25.4669 48.9752 25.4898 48.9586 25.5188C48.9338 25.5603 48.9237 25.5977 48.9272 25.6225C48.9337 25.6701 49.038 25.6183 49.038 25.6663C49.038 25.6833 48.9983 25.7117 48.953 25.7287C48.8849 25.7457 48.8793 25.757 48.919 25.7854C48.9813 25.8251 48.9813 26.0406 48.919 26.1143C48.8963 26.1427 48.8849 26.1767 48.8963 26.188C48.9076 26.1994 48.8906 26.2504 48.8679 26.3071C48.8169 26.4035 48.8282 26.5056 48.8906 26.5056C48.9076 26.5056 48.9246 26.5226 48.9246 26.5453C48.9246 26.5743 48.8814 26.5719 48.8751 26.6003C48.8694 26.6258 48.8651 26.6642 48.8623 26.7098C48.8623 26.7949 48.8226 26.9423 48.7772 27.0387C48.7319 27.1295 48.6922 27.2259 48.6922 27.2485C48.6922 27.2769 48.6808 27.2939 48.6638 27.2939C48.6468 27.2939 48.5901 27.3336 48.5448 27.379C48.4937 27.43 48.4257 27.4697 48.3917 27.4754C48.318 27.4924 48.2499 27.5605 48.3066 27.5605C48.403 27.5605 48.3463 27.6399 48.1933 27.7079C47.9381 27.8213 47.734 27.878 47.6206 27.8667C47.5583 27.861 47.4789 27.8837 47.4392 27.9234C47.3995 27.9574 47.3655 27.9745 47.3655 27.9631C47.3655 27.9518 47.3315 27.9574 47.2918 27.9801C47.2862 27.9832 47.2809 27.9859 47.2758 27.9883C47.219 28.0149 47.1593 27.9527 47.1217 28.0028C47.0933 28.0368 47.0537 28.0539 47.031 28.0425C46.9901 28.0221 46.9491 28.0685 46.9037 28.0733C46.8729 28.0765 46.8342 28.0764 46.7929 28.0709C46.6965 28.0595 46.6398 28.0652 46.6398 28.0936C46.6398 28.1162 46.6228 28.1219 46.5944 28.1049C46.5377 28.0709 46.413 28.0879 46.3506 28.1332C46.3279 28.1503 46.2996 28.1559 46.2883 28.1446C46.2599 28.1162 45.778 28.1106 45.7496 28.1389C45.71 28.1786 44.9276 28.1333 44.8652 28.0879C44.8198 28.0482 44.8142 28.0482 44.8368 28.0822C44.8538 28.1106 44.8482 28.1332 44.8312 28.1332C44.7858 28.1332 44.7405 28.0255 44.7688 27.9801C44.7801 27.9631 44.7745 27.9461 44.7518 27.9461C44.7348 27.9461 44.7064 27.9631 44.6894 27.9858C44.6611 28.0255 44.4456 28.0198 44.4456 27.9745C44.4456 27.9574 44.4173 27.9461 44.3889 27.9461C44.3642 27.9461 44.3396 27.9312 44.3235 27.9121C44.3121 27.8985 44.302 27.875 44.2905 27.8614C44.2713 27.8387 44.2427 27.8542 44.2148 27.844C44.1987 27.8382 44.1804 27.8287 44.1622 27.8157C44.0998 27.7703 44.0885 27.7703 44.0431 27.827C43.9977 27.8837 43.9921 27.8837 43.9524 27.8213C43.9354 27.7873 43.89 27.759 43.8617 27.759C43.8333 27.759 43.805 27.7476 43.805 27.7306C43.805 27.6796 43.4478 27.6115 43.3968 27.6569C43.3571 27.6852 43.3344 27.6852 43.3117 27.6342C43.2813 27.5733 43.1857 27.6029 43.1335 27.5593C43.1241 27.5514 43.1153 27.5423 43.1076 27.5321C43.0623 27.4811 43.0566 27.4584 43.0906 27.4584C43.1303 27.4584 43.1303 27.447 43.0906 27.4017C43.0623 27.362 42.9999 27.3506 42.9375 27.362C42.8752 27.3676 42.8185 27.362 42.8071 27.345C42.7958 27.3279 42.8014 27.3109 42.8241 27.3109C42.8468 27.3109 42.8355 27.2599 42.7958 27.2032C42.7618 27.1408 42.7107 27.1011 42.6881 27.1124C42.6597 27.1238 42.637 27.1068 42.637 27.0671C42.637 27.0217 42.62 27.0104 42.5633 27.0274C42.4783 27.0557 42.4556 26.9763 42.535 26.9026C42.569 26.8686 42.5633 26.8572 42.5123 26.8572C42.4726 26.8572 42.4499 26.8402 42.4613 26.8062C42.4783 26.7608 42.3876 26.602 42.3535 26.619C42.2912 26.6531 42.2515 26.602 42.1438 26.3865C42.0814 26.2504 42.0077 26.1483 41.9907 26.1597C41.9283 26.1994 41.917 26.1086 41.968 26.0519C42.019 26.0009 42.019 25.9895 41.9567 25.9328C41.917 25.8988 41.8716 25.8704 41.849 25.8704C41.7923 25.8704 41.7526 25.7514 41.7979 25.706C41.8376 25.6663 41.8036 25.5302 41.7469 25.5302C41.7242 25.5302 41.6732 25.4791 41.6392 25.4168C41.5882 25.3203 41.5825 25.3033 41.6278 25.3033C41.7015 25.3033 41.7015 25.1956 41.6335 25.1672C41.6052 25.1559 41.5825 25.1275 41.5768 25.1048C41.5711 25.0765 41.5485 24.9063 41.5315 24.7192C41.5174 24.603 41.4989 24.4955 41.4829 24.4307C41.4718 24.386 41.4181 24.3626 41.4181 24.3165C41.4181 24.2995 41.4464 24.2939 41.4748 24.3052C41.5144 24.3222 41.5315 24.3052 41.5315 24.2655C41.5315 24.2145 41.5088 24.2031 41.4124 24.2258C41.333 24.2428 41.3047 24.2371 41.3387 24.2145C41.367 24.1974 41.3784 24.1634 41.367 24.1407C41.3273 24.0784 41.4578 24.0443 41.5031 24.101C41.5315 24.1407 41.5315 24.1294 41.5144 24.067C41.4974 24.016 41.5088 23.9819 41.5371 23.9819C41.584 23.9819 41.5271 23.9116 41.5195 23.8653C41.5133 23.8274 41.5113 23.7791 41.5144 23.7324C41.5201 23.6473 41.5258 23.5339 41.5315 23.4715C41.5371 23.3865 41.5541 23.3695 41.6052 23.3808C41.6562 23.3978 41.6732 23.3808 41.6732 23.3184C41.6675 23.273 41.6448 23.222 41.6222 23.2107C41.5485 23.1653 41.5598 23.1086 41.6392 23.1086C41.6902 23.1086 41.7072 23.0802 41.7015 22.9668C41.7015 22.825 41.7979 22.5698 41.8716 22.5245C41.8886 22.5131 41.9113 22.4734 41.9113 22.4451C41.9113 22.4444 41.9113 22.4436 41.9114 22.4429C41.9143 22.3553 42.0354 22.2901 42.0077 22.2069C41.9964 22.1728 42.019 22.1048 42.0587 22.0537C42.0984 22.0027 42.1324 21.98 42.1324 22.0027C42.1324 22.0878 42.2061 22.0537 42.2061 21.9743C42.2061 21.8893 42.2969 21.7078 42.4159 21.566C42.4455 21.528 42.4751 21.4868 42.4882 21.4612C42.4947 21.4487 42.498 21.4328 42.5002 21.4188C42.5033 21.3986 42.5151 21.3823 42.5349 21.3873C42.5502 21.3912 42.5703 21.3995 42.5917 21.4129C42.6484 21.4413 42.6654 21.4413 42.6484 21.4129C42.6144 21.3562 42.7051 21.2711 42.8298 21.2371C42.8808 21.2257 42.9489 21.1861 42.9659 21.152C42.9885 21.118 43.0056 21.1123 43.0056 21.135C43.0056 21.1634 43.0509 21.1804 43.136 21.1747C43.2097 21.169 43.255 21.1577 43.2493 21.1464C43.1434 20.9556 43.5772 20.8661 43.7953 20.8613C43.8494 20.8601 43.8843 20.8706 43.8843 20.8911ZM24.7154 28.1786C24.7699 28.1786 24.7412 28.2878 24.7937 28.3026C24.8173 28.3093 24.8536 28.3125 24.9082 28.3147C25.0159 28.3204 25.0839 28.2977 25.1066 28.258C25.1349 28.2183 25.152 28.2126 25.1633 28.241C25.1746 28.2694 25.2143 28.2807 25.254 28.2694C25.2937 28.258 25.3277 28.2694 25.3277 28.292C25.3277 28.3267 25.3743 28.3248 25.4074 28.335C25.4216 28.3393 25.437 28.3456 25.4524 28.3544C25.4865 28.3714 25.5375 28.3658 25.5658 28.3431C25.5942 28.3147 25.6622 28.3147 25.7813 28.3431C25.9457 28.3771 26.2689 28.5189 26.3142 28.5643C26.3256 28.5756 26.3936 28.6153 26.4673 28.6607C26.5772 28.7199 26.6768 28.8022 26.8005 28.8186C26.8028 28.8189 26.8052 28.8192 26.8075 28.8195C26.9719 28.8365 27.1817 28.9499 27.1817 29.0293C27.1817 29.0577 27.244 29.1314 27.3121 29.2051C27.3858 29.2788 27.4425 29.3469 27.4425 29.3639C27.4425 29.3809 27.4765 29.432 27.5162 29.4716C27.5956 29.551 27.6182 29.6588 27.5559 29.6588C27.5108 29.6588 27.5446 29.7739 27.5864 29.7571C27.5876 29.7566 27.5887 29.756 27.5899 29.7552C27.6069 29.7439 27.6182 29.7722 27.6182 29.8119C27.6239 29.8856 27.8507 30.2656 27.8904 30.2656C27.9017 30.2656 27.9131 30.328 27.9187 30.3961C27.9187 30.4698 27.9527 30.5605 27.9924 30.6059C28.0321 30.6513 28.0661 30.7306 28.0661 30.7874C28.0718 30.9405 28.1285 31.1333 28.1625 31.1333C28.1795 31.1333 28.1852 31.1617 28.1739 31.19C28.1568 31.224 28.1739 31.2467 28.2079 31.2467C28.2419 31.2467 28.2759 31.2808 28.2929 31.3205C28.3043 31.3602 28.3383 31.4055 28.3666 31.4169C28.4347 31.4395 28.4403 31.5586 28.3836 31.6154C28.3553 31.6437 28.3553 31.6777 28.3893 31.7401C28.4233 31.8025 28.4233 31.8365 28.3723 31.8876C28.3099 31.9613 28.2929 32.0407 28.3439 32.0407C28.361 32.0407 28.395 32.1087 28.4233 32.1938C28.446 32.2789 28.5084 32.3923 28.5594 32.4433C28.6671 32.5568 28.6784 32.6418 28.5991 32.6702C28.5594 32.6872 28.548 32.7156 28.5821 32.7893C28.6274 32.9141 28.6274 32.9141 28.5197 32.9141C28.4006 32.9141 28.4006 32.9651 28.5084 33.0445C28.5707 33.0899 28.5821 33.1125 28.548 33.1522C28.5197 33.1806 28.514 33.2146 28.5254 33.226C28.5628 33.2634 28.4088 33.2627 28.4111 33.3156C28.4118 33.3323 28.4218 33.3557 28.4403 33.3904C28.48 33.4755 28.4687 33.4982 28.378 33.5776C28.2589 33.6797 28.2476 33.7194 28.3496 33.6853C28.4347 33.657 28.4347 33.6797 28.3893 33.7988L28.3863 33.8053C28.378 33.8234 28.3511 33.8185 28.3496 33.7988C28.3496 33.7591 28.3213 33.7988 28.2872 33.8952C28.2589 33.9916 28.2135 34.0993 28.1909 34.1447C28.1682 34.1844 28.1512 34.2468 28.1568 34.2751C28.1739 34.3716 28.1568 34.4226 28.1172 34.4226C28.0888 34.4226 28.0888 34.3716 28.1001 34.2922C28.1172 34.2071 28.1058 34.1617 28.0831 34.1617C28.0605 34.1617 28.0435 34.1731 28.0491 34.1901C28.0661 34.2411 27.879 34.4623 27.8393 34.4396C27.8167 34.4226 27.811 34.4396 27.8223 34.4793C27.8359 34.527 27.7915 34.5485 27.7429 34.5582C27.6775 34.5712 27.6352 34.5914 27.6182 34.6211C27.5956 34.6608 27.5729 34.6551 27.5162 34.6041C27.4481 34.5417 27.4425 34.5417 27.4198 34.5984C27.4085 34.6324 27.3801 34.6494 27.3574 34.6324C27.3291 34.6154 27.3234 34.6211 27.3404 34.6494C27.3574 34.6778 27.3291 34.7005 27.2667 34.7175C27.201 34.7321 27.1629 34.7939 27.0956 34.7966C27.0904 34.7968 27.0851 34.7969 27.0796 34.7969C27.0116 34.8026 26.9039 34.8309 26.8528 34.8706C26.7565 34.933 26.7451 34.933 26.6998 34.8763C26.6544 34.8139 26.6487 34.8139 26.5807 34.899C26.541 34.95 26.4956 34.984 26.473 34.9727C26.4503 34.9614 26.4106 34.984 26.3823 35.0181C26.3426 35.0634 26.3199 35.0691 26.2745 35.0294C26.2405 35.0011 26.2235 35.0011 26.2348 35.0181C26.2519 35.0408 26.2462 35.0804 26.2235 35.1145C26.2008 35.1542 26.1895 35.1598 26.1895 35.1201C26.1895 35.0918 26.1725 35.0805 26.1498 35.0918C26.1328 35.1031 26.1101 35.1031 26.1101 35.0861C26.1101 35.0691 26.0704 35.0351 26.0137 35.0124C25.9117 34.967 25.6509 35.0124 25.6509 35.0748C25.6509 35.0918 25.6225 35.1031 25.5885 35.0861C25.5416 35.066 25.6097 35.0161 25.5922 34.9682C25.5831 34.9432 25.5603 34.9217 25.5318 34.9217C25.5091 34.9217 25.5035 34.9387 25.5148 34.9614C25.5545 35.0294 25.4184 35.0464 25.3504 34.984C25.271 34.9103 25.1916 34.9046 25.1293 34.967C25.0794 35.0169 25.0116 34.929 24.9875 34.9954C24.976 35.03 24.9297 35.0362 24.9095 35.0058L24.8911 34.9784C24.8515 34.9217 24.8174 34.8933 24.8004 34.916C24.7834 34.9387 24.7267 34.9273 24.6474 34.8763C24.5736 34.8366 24.4886 34.8139 24.4546 34.8252C24.4092 34.8423 24.4036 34.8309 24.4206 34.7629C24.4376 34.7005 24.4376 34.6891 24.4036 34.7345C24.3809 34.7629 24.3639 34.7742 24.3639 34.7572C24.3639 34.7402 24.3355 34.7458 24.3072 34.7742C24.2562 34.8139 24.2335 34.8139 24.1824 34.7572C24.1428 34.7232 24.0691 34.6948 24.0124 34.6948C23.95 34.6948 23.899 34.6665 23.8706 34.6211C23.8627 34.6072 23.8526 34.5953 23.8415 34.5863C23.8041 34.5562 23.7175 34.601 23.7175 34.553C23.7175 34.5303 23.7345 34.5133 23.7572 34.5133C23.8083 34.5133 23.7629 34.3545 23.6835 34.2922C23.683 34.2918 23.6825 34.2914 23.682 34.291C23.635 34.2543 23.7135 34.2323 23.6665 34.1957C23.6325 34.1674 23.5928 34.0993 23.5815 34.0483C23.5779 34.0363 23.5735 34.0246 23.5686 34.0135C23.5379 33.9443 23.4384 33.9062 23.4567 33.8328C23.4681 33.7931 23.4624 33.7591 23.4397 33.7591C23.3263 33.7591 23.2186 33.6967 23.2186 33.6286C23.2186 33.5549 22.9862 33.4188 22.8558 33.4188C22.7991 33.4188 22.731 33.4471 22.7083 33.4812C22.68 33.5152 22.6403 33.5265 22.6006 33.5095C22.5496 33.4925 22.5439 33.4698 22.5723 33.4358C22.6063 33.3961 22.595 33.3734 22.5383 33.3394C22.5003 33.3189 22.4758 33.312 22.4626 33.3218C22.4211 33.3525 22.4331 33.4043 22.3965 33.3678C22.3342 33.3054 22.3568 33.2033 22.4249 33.243C22.4872 33.2827 22.4646 33.1579 22.3852 33.0275C22.3455 32.9594 22.3115 32.8517 22.3115 32.7893C22.3115 32.7269 22.2945 32.6532 22.2718 32.6305C22.2321 32.5908 22.2151 32.2675 22.2548 32.2052C22.2661 32.1881 22.2604 32.1655 22.2378 32.1541C22.2094 32.1428 22.2151 32.1144 22.2604 32.0747C22.3171 32.018 22.3228 31.984 22.2888 31.8479C22.2661 31.7628 22.2548 31.6267 22.2604 31.553C22.2626 31.5248 22.2623 31.4959 22.2598 31.4696C22.2537 31.4048 22.1995 31.3263 22.2604 31.3034C22.3455 31.2751 22.3342 31.1843 22.2491 31.1617C22.2038 31.1503 22.1754 31.1106 22.1811 31.0653C22.1811 31.0256 22.1981 30.9972 22.2208 31.0085C22.2328 31.0165 22.2391 31.0358 22.2378 31.0565C22.2367 31.0741 22.2169 31.0948 22.2251 31.1104C22.2345 31.1279 22.2594 31.1055 22.2668 31.0871C22.2737 31.0701 22.2734 31.0495 22.2661 31.0312C22.2548 31.0029 22.2604 30.9688 22.2775 30.9575C22.3285 30.9291 22.2831 30.793 22.2208 30.7703C22.1584 30.7477 22.1471 30.6116 22.2038 30.5775C22.2264 30.5662 22.2548 30.4754 22.2661 30.379C22.2775 30.2826 22.3058 30.1805 22.3285 30.1465C22.3795 30.0841 22.3965 30.0161 22.4022 29.7949C22.4079 29.6758 22.4305 29.6134 22.4589 29.6134C22.4816 29.6134 22.5042 29.5964 22.5042 29.5681C22.5042 29.5454 22.5326 29.4943 22.5609 29.4603C22.5893 29.4263 22.6233 29.3469 22.629 29.2788C22.6346 29.2164 22.663 29.137 22.6857 29.1087C22.714 29.0803 22.7424 29.0009 22.7537 28.9386C22.7707 28.8648 22.8047 28.8195 22.8558 28.8024C22.9093 28.7891 22.9005 28.7262 22.9347 28.6828C22.9366 28.6805 22.9385 28.6781 22.9405 28.6758C22.983 28.6259 23.0512 28.6095 23.1102 28.581C23.1427 28.5653 23.1807 28.5459 23.2186 28.5246C23.3604 28.4452 23.5134 28.4111 23.8423 28.3941C23.8763 28.3885 23.9046 28.3771 23.9046 28.3601C23.9046 28.3431 23.95 28.3488 24.0067 28.3714C24.0804 28.3998 24.1144 28.3941 24.1371 28.3601C24.1541 28.3317 24.1654 28.3261 24.1654 28.3431C24.1654 28.3658 24.1824 28.3601 24.2108 28.3374C24.2675 28.2807 24.4829 28.275 24.4489 28.3317C24.4376 28.3488 24.4432 28.3714 24.4659 28.3714C24.4886 28.3714 24.5056 28.3374 24.5056 28.2977C24.5056 28.241 24.5283 28.224 24.602 28.2353C24.653 28.241 24.6984 28.2297 24.6984 28.2126C24.6984 28.1956 24.7041 28.1786 24.7154 28.1786ZM45.3584 42.901C45.4095 42.8727 45.8744 42.8727 45.8744 42.8953C45.8744 42.9237 46.0331 42.9237 46.0671 42.8953C46.0955 42.8727 46.1182 42.8783 46.1295 42.9123C46.1522 42.9747 46.3506 42.9861 46.3903 42.9237C46.4073 42.901 46.4187 42.918 46.4187 42.9634C46.4187 43.0485 46.464 43.0711 46.6171 43.0598C46.6511 43.0541 46.6795 43.0768 46.6795 43.1052C46.6795 43.1562 46.7645 43.2129 46.8666 43.2186C46.9006 43.2243 46.9176 43.2526 46.9119 43.3037C46.9062 43.349 46.9289 43.4057 46.9629 43.4341C46.9913 43.4625 47.0196 43.4625 47.0196 43.4454C47.0196 43.366 47.2067 43.4398 47.2181 43.5248C47.2217 43.5501 47.2344 43.5776 47.2505 43.5943C47.2665 43.6109 47.2932 43.6128 47.3161 43.615C47.3462 43.6179 47.3764 43.6259 47.3911 43.6523C47.3946 43.6585 47.3979 43.6654 47.401 43.6727C47.4087 43.6909 47.4131 43.7207 47.4209 43.7388C47.4372 43.7768 47.4794 43.7775 47.5031 43.8114C47.5126 43.825 47.5219 43.8415 47.5299 43.8594C47.5526 43.9105 47.6206 43.9672 47.6773 43.9955C47.734 44.0239 47.7794 44.0693 47.7794 44.0976C47.7794 44.126 47.8247 44.1827 47.8814 44.2281C47.9324 44.2678 47.9835 44.3358 47.9891 44.3698C47.9948 44.4663 48.0402 44.5286 48.0969 44.506C48.1252 44.4946 48.1706 44.5457 48.1989 44.625C48.2273 44.6988 48.267 44.7555 48.284 44.7555C48.301 44.7555 48.3066 44.8009 48.2953 44.8519C48.2726 44.937 48.2783 44.9483 48.3463 44.9256C48.386 44.9086 48.42 44.92 48.42 44.9426C48.42 44.9653 48.3917 44.9823 48.3633 44.9823C48.335 44.9823 48.3066 44.9937 48.3066 45.005C48.3066 45.0504 48.437 45.1298 48.5051 45.1355C48.5391 45.1355 48.5674 45.1581 48.5674 45.1865C48.5674 45.2205 48.5391 45.2375 48.4937 45.2262C48.4087 45.2092 48.4087 45.2092 48.4427 45.2999C48.4541 45.3339 48.4824 45.351 48.4994 45.3396C48.5164 45.3283 48.5391 45.3453 48.5391 45.3793C48.5504 45.4984 48.5561 45.5098 48.6241 45.5665C48.6978 45.6175 48.6865 45.7706 48.6071 45.7253C48.5845 45.7139 48.5788 45.7309 48.5901 45.765C48.6128 45.816 48.6185 45.816 48.6638 45.7593C48.6978 45.7082 48.7149 45.7082 48.7375 45.7423C48.7545 45.7706 48.7432 45.8047 48.7149 45.8217C48.6752 45.85 48.6752 45.8557 48.7319 45.8557C48.7659 45.8557 48.7999 45.8784 48.7999 45.9011C48.8169 46.0599 48.8736 46.1619 48.9246 46.1336C48.953 46.1166 48.953 46.1222 48.9246 46.1563C48.8736 46.213 48.919 46.4739 48.9813 46.4965C49.0494 46.5192 49.0267 46.5703 48.9416 46.5929C48.8679 46.6156 48.8679 46.6213 48.9246 46.7007C48.9354 46.72 48.9493 46.7369 48.9638 46.7498C48.9988 46.7811 49.0699 46.7752 49.055 46.8198C49.0437 46.8482 49.0607 46.8935 49.089 46.9162C49.1628 46.9786 49.1571 47.0183 49.0607 47.041C48.97 47.0637 48.987 47.1657 49.0777 47.1487C49.1401 47.1374 49.2308 47.2678 49.1968 47.3018C49.1628 47.3302 49.2194 47.4833 49.2591 47.4606C49.2761 47.4493 49.2988 47.4663 49.3102 47.5003C49.3499 47.5967 49.3385 47.6308 49.2761 47.6081C49.2365 47.5911 49.2194 47.6081 49.2194 47.6478C49.2194 47.6875 49.2365 47.7045 49.2705 47.6932C49.3102 47.6761 49.3158 47.7045 49.3045 47.7896C49.2988 47.8746 49.3102 47.9257 49.3555 47.954C49.4122 47.9937 49.4122 48.0051 49.3612 48.0221C49.3102 48.0391 49.3102 48.0731 49.3328 48.1639C49.3669 48.2943 49.3612 48.3737 49.3158 48.4474C49.3086 48.4594 49.3045 48.4745 49.3029 48.4904C49.2988 48.5338 49.325 48.5774 49.3148 48.6198C49.307 48.6518 49.2796 48.6756 49.2738 48.708C49.2683 48.7391 49.2747 48.7777 49.2932 48.8331C49.3442 48.9748 49.3442 48.9805 49.3102 48.9748C49.2365 48.9635 49.2251 48.9862 49.2591 49.0599C49.2932 49.1166 49.2875 49.1507 49.2535 49.1903C49.2251 49.23 49.2251 49.2414 49.2535 49.2414C49.2761 49.2414 49.2932 49.2584 49.2932 49.2811C49.2932 49.2981 49.2761 49.3094 49.2591 49.2981C49.2421 49.2868 49.2138 49.3605 49.1968 49.4626C49.1741 49.6157 49.1571 49.6497 49.1004 49.6497C49.055 49.6497 49.0267 49.6781 49.0267 49.7234C49.0267 49.7797 48.9278 49.7633 48.929 49.8195C48.9293 49.8326 48.9356 49.8512 48.9473 49.8766C48.9757 49.9333 48.9757 49.9446 48.9416 49.9333C48.9133 49.9219 48.8566 49.973 48.8056 50.0467C48.7602 50.1204 48.7035 50.1771 48.6808 50.1771C48.6525 50.1771 48.6525 50.1941 48.6865 50.2338C48.7262 50.2849 48.7205 50.2906 48.6525 50.2906C48.6128 50.2906 48.5731 50.3076 48.5731 50.3303C48.5731 50.3473 48.5391 50.37 48.4994 50.37C48.4597 50.37 48.4257 50.387 48.4257 50.3983C48.4257 50.4607 48.2443 50.6422 48.2046 50.6195C48.1819 50.6081 48.1592 50.6138 48.1536 50.6365C48.1479 50.6535 48.1025 50.6762 48.0458 50.6875C47.9948 50.6932 47.9438 50.7046 47.9324 50.7102C47.9211 50.7159 47.9041 50.7159 47.8871 50.7159C47.8701 50.7159 47.8587 50.7329 47.8587 50.7556C47.8587 50.7726 47.8417 50.784 47.8191 50.7726C47.802 50.7613 47.7453 50.7783 47.7 50.8066C47.649 50.8407 47.5753 50.8577 47.5129 50.8407C47.4279 50.8237 47.4052 50.835 47.4052 50.8804C47.4052 50.8961 47.3991 50.9107 47.3892 50.9223C47.3657 50.9498 47.3208 50.9485 47.2848 50.9509C47.2417 50.9537 47.2014 50.9588 47.1677 50.9859C47.1467 51.0028 47.1243 51.0253 47.1047 51.0505C47.0423 51.1356 46.9743 51.1469 46.7588 51.1242C46.6851 51.1186 46.6681 51.1299 46.6738 51.1866C46.68 51.2297 46.643 51.2063 46.6017 51.1924C46.5274 51.1674 46.4187 51.1787 46.4187 51.2263C46.4187 51.2547 46.379 51.3 46.3393 51.3227C46.2939 51.3454 46.2656 51.3511 46.2769 51.3284C46.3166 51.2603 45.9254 51.4135 45.88 51.4815C45.8347 51.5496 45.829 51.5439 45.761 51.4758C45.71 51.4191 45.6759 51.4078 45.6249 51.4361C45.5852 51.4588 45.5342 51.4532 45.4832 51.4135C45.4265 51.3738 45.3811 51.3681 45.3358 51.3964C45.2507 51.4361 45.058 51.4305 45.0863 51.3851C45.0976 51.3681 45.0693 51.3681 45.0183 51.3794C44.9672 51.3908 44.9219 51.4191 44.9162 51.4361C44.9105 51.4532 44.8538 51.4418 44.7972 51.4078C44.7348 51.3794 44.6724 51.3624 44.6554 51.3738C44.6384 51.3851 44.559 51.3681 44.474 51.3397C44.3946 51.3114 44.2869 51.3 44.2415 51.3114C44.1905 51.3227 44.1451 51.3114 44.1338 51.2773C44.1225 51.249 44.0544 51.2263 43.9807 51.2206C43.907 51.215 43.8163 51.1866 43.771 51.1469C43.7086 51.0902 43.6859 51.0845 43.6632 51.1299C43.6406 51.1696 43.6009 51.1582 43.4761 51.0618C43.3911 50.9938 43.3231 50.9484 43.3231 50.9654C43.3231 50.9824 43.2607 50.9314 43.187 50.8577C43.1133 50.784 43.0282 50.7216 43.0056 50.7216C42.9772 50.7216 42.9545 50.6989 42.9545 50.6705C42.9545 50.5628 42.7901 50.2679 42.7277 50.2679C42.6867 50.2679 42.7023 50.2175 42.6819 50.1819C42.6627 50.1485 42.6252 50.1147 42.5917 50.1147C42.5747 50.1147 42.569 50.1318 42.5803 50.1544C42.5917 50.1715 42.586 50.1941 42.5633 50.1941C42.535 50.1941 42.5293 50.1658 42.5463 50.1147C42.5633 50.058 42.5406 50.007 42.4329 49.9049C42.3535 49.8312 42.2685 49.7802 42.2345 49.7915C42.1791 49.8137 42.153 49.7107 42.0941 49.7013C42.0918 49.7009 42.0894 49.7008 42.0871 49.7008C42.0587 49.7008 42.0361 49.6837 42.0361 49.6611C42.0361 49.6384 42.0134 49.627 41.9907 49.6327C41.9623 49.6384 41.9453 49.6214 41.951 49.593C41.9623 49.5306 41.849 49.5363 41.8206 49.6043C41.8036 49.6497 41.7866 49.6497 41.7129 49.5987C41.6505 49.559 41.6052 49.5533 41.5258 49.5817C41.4067 49.627 41.3954 49.7008 41.5031 49.7234C41.5428 49.7348 41.5711 49.7575 41.5598 49.7745C41.5201 49.8369 41.35 49.7178 41.3274 49.61C41.3257 49.6018 41.3237 49.5935 41.3214 49.5854C41.3017 49.5147 41.2423 49.4566 41.2423 49.3832C41.2423 49.3378 41.214 49.2527 41.1856 49.1903C41.1573 49.1336 41.1289 49.0542 41.1289 49.0145C41.1289 48.9805 41.0609 48.8614 40.9758 48.7593C40.8908 48.6573 40.8228 48.5495 40.8228 48.5268C40.8228 48.4955 40.775 48.5022 40.7723 48.471C40.7685 48.4268 40.7787 48.3458 40.8001 48.2603C40.8171 48.2092 40.8114 48.1185 40.7887 48.0618C40.7604 47.9937 40.7604 47.954 40.7887 47.9484C40.8454 47.9313 40.8624 47.5741 40.8057 47.5741C40.7774 47.5741 40.7774 47.5627 40.8001 47.5457C40.8681 47.5003 40.9305 47.3245 40.9078 47.2395C40.8908 47.1828 40.9021 47.1601 40.9475 47.1601C41.0049 47.1601 40.9682 47.0715 40.9934 47.0199C41.0015 47.0033 41.0128 46.987 41.0269 46.9729C41.0665 46.9275 41.0836 46.8765 41.0665 46.8311C41.0439 46.7744 41.0382 46.7744 41.0042 46.8198C40.9758 46.8708 40.9645 46.8652 40.9645 46.8141C40.9645 46.7801 40.9928 46.7347 41.0269 46.7177C41.0323 46.7147 41.0375 46.7114 41.0423 46.7078C41.1518 46.6259 41.1654 46.4726 41.2877 46.4115C41.3954 46.3548 41.4464 46.3151 41.4181 46.2924C41.384 46.2697 41.384 46.247 41.4237 46.1846C41.4521 46.1449 41.4918 46.1109 41.5144 46.1109C41.6108 46.1222 41.6448 46.1052 41.6448 46.0315C41.6448 45.9861 41.6619 45.9691 41.6959 45.9805C41.7242 45.9918 41.7582 45.9634 41.7752 45.9124C41.7923 45.8614 41.8036 45.816 41.8093 45.8047C41.8149 45.7933 41.8376 45.7479 41.8603 45.7026C41.883 45.6572 41.8943 45.5948 41.883 45.5608C41.866 45.5098 41.8773 45.5041 41.9567 45.5211C42.019 45.5324 42.0531 45.5211 42.0531 45.4871C42.0531 45.4587 42.1381 45.368 42.2402 45.2772C42.3479 45.1922 42.4273 45.0958 42.4273 45.0674C42.4273 45.039 42.484 44.9483 42.552 44.8803C42.6824 44.7328 42.6937 44.7044 42.6484 44.5683C42.6314 44.5116 42.6314 44.4833 42.6654 44.4833C42.6937 44.4833 42.7788 44.4152 42.8581 44.3301C42.9375 44.2451 43.0566 44.1543 43.1246 44.126C43.1927 44.0976 43.2777 44.0296 43.3117 43.9729C43.3514 43.9105 43.3968 43.8765 43.4308 43.8878C43.4591 43.8991 43.4818 43.8878 43.4818 43.8651C43.4818 43.78 43.6916 43.6439 43.822 43.6439C43.8468 43.6439 43.8527 43.6092 43.8292 43.6011L43.822 43.5986C43.7483 43.5702 43.6859 43.5305 43.6746 43.5022C43.6576 43.4511 43.7256 43.4398 43.7596 43.4908C43.771 43.5078 43.822 43.5192 43.8673 43.5022C43.9127 43.4908 43.941 43.4965 43.924 43.5192C43.89 43.5702 44.0431 43.5532 44.0998 43.4965C44.1338 43.4568 44.1338 43.4454 44.0998 43.4284C44.0714 43.4171 44.0488 43.3831 44.0488 43.3547C44.0488 43.3093 44.0601 43.3037 44.0998 43.3377C44.101 43.3387 44.1021 43.3396 44.1033 43.3405C44.146 43.374 44.1987 43.3021 44.2472 43.3263C44.316 43.3539 44.3648 43.2413 44.4382 43.2305C44.4408 43.2301 44.4433 43.2299 44.4456 43.2299C44.474 43.2299 44.5477 43.2016 44.6101 43.1676C44.6951 43.1279 44.7178 43.0938 44.7008 43.0371C44.6838 42.9804 44.6951 42.9691 44.7972 42.9747C44.8652 42.9804 44.9389 42.9577 44.9729 42.918C45.0183 42.867 45.058 42.8613 45.1487 42.8897C45.2451 42.918 45.3244 42.9237 45.3584 42.901Z" fill="white"/>
</svg>
