<svg width="46" height="84" viewBox="0 0 46 84" fill="none" xmlns="http://www.w3.org/2000/svg">
<path d="M9.58752 28.1291C9.2829 28.1114 8.97704 28.1148 8.67293 28.1398C8.40854 28.1889 8.15121 28.2709 7.90647 28.3833C7.7067 28.458 7.51767 28.5542 7.31791 28.6274C7.14431 28.6909 6.98907 28.7971 6.86623 28.9365C6.52094 29.2986 6.11605 29.597 5.66926 29.8181C4.81469 30.2364 4.14736 30.9652 3.79974 31.8589C3.54715 32.4315 3.3361 33.0262 3.08487 33.5893C2.98928 33.7379 2.87551 33.8735 2.74628 33.9933C2.82009 34.0988 2.88176 34.1849 2.91359 34.2281C2.65152 34.8541 2.15844 35.29 2.04264 35.9585C1.92685 36.627 1.75908 37.2768 1.61213 37.935C1.59066 38.0147 1.58024 38.0966 1.58105 38.1792C1.56131 39.0071 1.47342 39.8316 1.31785 40.6447C1.24471 41.505 1.01286 42.3449 0.877419 43.2052C0.842133 43.4195 0.828178 43.6369 0.835094 43.854C0.854416 44.461 0.793861 45.0677 0.65588 45.6587C0.372028 46.6236 0.466331 47.6622 0.918419 48.559C0.975578 48.684 1.06537 48.7904 1.17831 48.8674C1.29126 48.9443 1.42256 48.9886 1.55857 48.9951C1.65584 48.9921 1.75258 49.0104 1.84227 49.0486C1.99401 49.1187 2.16045 49.1503 2.32701 49.1409C2.49356 49.1316 2.65533 49.0817 2.79852 48.9951C2.96737 48.8972 3.1549 48.8367 3.34873 48.8185C3.54256 48.8003 3.73829 48.8246 3.92208 48.8894C4.30774 48.9562 4.7013 48.9599 5.08797 48.8995C5.27828 48.896 5.46832 48.914 5.65471 48.953C5.99331 49.0174 6.33855 49.1872 6.67511 48.953C6.70626 48.9318 6.75903 48.9104 6.79018 48.9316C7.18756 49.1026 7.62193 49.1647 8.05064 49.1122C8.10099 49.1352 8.146 49.169 8.18224 49.2112C8.21847 49.2534 8.24544 49.3033 8.26093 49.357C8.32323 49.6645 8.32336 49.9828 8.3965 50.2814C8.54345 51.0677 8.72146 51.8533 8.87992 52.6506C8.91361 52.7461 8.93154 52.8469 8.93282 52.9483C8.92102 53.1952 8.99052 53.4385 9.13121 53.6406C9.27191 53.8427 9.47541 53.992 9.7092 54.064C9.64293 54.2682 9.55481 54.464 9.446 54.6486C9.26623 54.8856 9.16281 55.1729 9.14973 55.4713C9.13665 55.7697 9.21427 56.0653 9.37259 56.3175C9.75114 57.0709 10.4561 57.1242 11.0946 57.294C11.9523 57.4725 12.8346 57.4973 13.7009 57.3683C14.5763 57.2708 15.4583 57.2535 16.3368 57.3154C17.2402 57.3901 18.1336 57.4206 19.037 57.4439C19.2899 57.4659 19.5394 57.5156 19.7816 57.5924C19.8818 57.6289 19.988 57.6447 20.0944 57.6392C20.2008 57.6337 20.3052 57.607 20.4012 57.5603C20.6073 57.5174 20.8209 57.5284 21.0215 57.5924C21.3388 57.6645 21.6697 57.6459 21.9771 57.5389C22.4445 57.3758 22.9536 57.3835 23.4161 57.5603C23.5355 57.6234 23.6721 57.6454 23.805 57.6231C24.191 57.5067 24.6006 57.4961 24.992 57.5924C25.2386 57.5926 25.4846 57.5713 25.7274 57.5282C25.8578 57.4943 25.9916 57.4767 26.1262 57.476C27.1345 57.6876 28.1645 57.3692 29.1735 57.6445C29.4495 57.6776 29.7293 57.6339 29.9823 57.5174C30.4279 57.3545 30.9166 57.3615 31.3571 57.5382C31.5537 57.6333 31.7775 57.6561 31.9887 57.6017C32.3412 57.492 32.7175 57.4882 33.0719 57.5917C33.4105 57.6437 33.7337 57.6347 34.0798 57.6546C34.5843 57.6868 35.087 57.7084 35.5922 57.7516C36.1415 57.756 36.6704 57.541 37.0636 57.1529C37.4567 56.7648 37.6827 56.2349 37.6918 55.6793C37.6921 55.4969 37.6711 55.315 37.629 55.1375C37.535 54.7851 37.5124 54.4174 37.5629 54.0559C37.6134 53.6945 37.7357 53.3474 37.9226 53.0352C38.092 52.6959 38.1754 52.3189 38.1647 51.9389C38.1553 51.6577 38.1722 51.3766 38.2162 51.0988C38.6256 50.9946 39.0589 51.0434 39.4357 51.2359C39.5747 51.3075 39.7325 51.3328 39.8867 51.3088C40.7892 51.3211 41.678 51.5317 42.4923 51.9255C42.7581 52.052 43.0544 52.0973 43.3454 52.056C43.6363 52.0146 43.9092 51.8885 44.1303 51.6928C44.3582 51.5282 44.5129 51.2793 44.5615 51.0005C44.6969 50.1936 44.8024 49.3968 44.9927 48.6105C45.1219 47.8414 45.1772 47.0613 45.1593 46.2814C45.1869 46.0638 45.2262 45.8476 45.2757 45.634C45.3091 45.5229 45.3261 45.4076 45.3273 45.2915C45.2833 44.8246 45.3192 44.3535 45.4331 43.8989C45.5171 43.14 45.5171 42.3741 45.4331 41.6153C45.3803 41.179 45.4222 40.7539 45.3802 40.319C45.3274 39.8094 45.2448 39.2986 45.1805 38.7992C45.0755 37.9924 44.9709 37.1952 44.8551 36.3979C44.8212 36.224 44.7715 36.0534 44.7076 35.8882C44.6455 35.7235 44.6006 35.5526 44.5727 35.3785C44.595 34.7101 44.3906 34.0542 43.9941 33.519C43.708 33.145 43.5235 32.7018 43.4591 32.2334C43.3179 31.7817 43.1017 31.3577 42.819 30.9799C42.4404 30.2877 41.88 29.7146 41.2001 29.3238C40.7598 29.0312 40.3514 28.6922 39.9813 28.3131C39.4008 27.9003 38.7155 27.6651 38.0066 27.6341C37.3348 27.5485 37.2617 27.5056 37.1879 26.8255C37.0788 25.761 36.8241 24.7175 36.4314 23.7238C36.2316 23.193 36.0322 22.6723 35.8534 22.1305C35.825 21.9763 35.8075 21.8197 35.8011 21.663C35.5492 20.7383 35.3167 19.7825 34.9924 18.8797C34.6768 18.0092 34.2475 17.1795 33.8893 16.3192C33.6367 15.6918 33.427 15.0449 33.1744 14.4189C32.7004 13.2709 32.2293 12.1223 31.7248 10.9641C31.4932 10.4435 31.2104 9.94527 30.9802 9.43567C30.8448 9.148 30.7772 8.84038 30.6648 8.55408C30.5528 8.26423 30.4196 7.9836 30.266 7.71395C30.1394 7.49203 29.9398 7.29911 29.8348 7.0765C29.4874 6.34361 29.1728 5.60006 28.8362 4.86649C28.6201 4.23248 28.3309 3.62648 27.9752 3.06049C27.6274 2.43199 27.2269 1.8347 26.7776 1.27589C26.5697 1.05253 26.3869 0.806549 26.232 0.542788C26.0595 0.333905 25.8354 0.175136 25.5826 0.0819233C25.3298 -0.0112896 25.0573 -0.0352387 24.7923 0.0123589C24.2885 0.0644145 23.9417 0.436435 23.4691 0.522053C23.3927 0.544963 23.3259 0.592681 23.2799 0.658506C22.765 1.30758 22.2915 1.98944 21.8621 2.69929C21.61 3.25185 21.2725 3.76059 20.8628 4.2063C20.7304 4.35468 20.6213 4.52228 20.5388 4.70395C20.1812 5.34232 19.8142 5.9697 19.4675 6.61697C19.2887 6.95944 19.1624 7.318 18.9735 7.6591C18.7845 8.0002 18.4801 8.29595 18.3115 8.63568C17.9553 9.37953 17.6396 10.1542 17.3037 10.9206C17.2414 11.1092 17.1531 11.2882 17.0411 11.4517C16.4501 12.2278 15.9882 13.0962 15.6742 14.0229C15.599 14.1945 15.4968 14.3521 15.3707 14.4898C15.0865 14.8199 14.843 15.1838 14.6459 15.5734C14.352 16.1262 14.0892 16.7001 13.8272 17.2858C13.6795 17.6282 13.5854 17.9861 13.4595 18.3265C13.3864 18.6155 13.2766 18.8938 13.1335 19.1546C12.8492 19.6693 12.6244 20.2151 12.4622 20.7814C12.1467 21.556 11.8214 22.3106 11.4855 23.0763C11.1598 23.8202 10.8223 24.5623 10.5081 25.3164C10.4246 25.5805 10.3619 25.8512 10.3196 26.1251C10.3064 26.2244 10.278 26.3209 10.2356 26.4114C10.0399 26.7523 9.92409 27.1339 9.89701 27.5271C9.80424 27.7331 9.70092 27.934 9.58752 28.1291ZM24.838 3.49259C25.1358 3.82175 25.3711 4.20342 25.5317 4.619C25.8784 5.38271 26.245 6.13751 26.5918 6.90259C26.6229 6.9656 26.707 7.01923 26.7273 7.09389C26.8827 7.341 26.9933 7.61409 27.0533 7.90057C27.0978 8.24506 27.2385 8.56964 27.4594 8.83568C27.8801 9.46292 28.2213 10.1412 28.4752 10.8544C28.5516 11.0522 28.6012 11.2592 28.6226 11.4704C28.6646 11.8533 28.9798 12.0655 29.1477 12.3607C29.3576 12.7326 29.5262 13.1264 29.7151 13.5079C29.9019 13.778 30.0469 14.0746 30.1456 14.3888C30.1977 14.7871 30.3381 15.169 30.5556 15.5052C30.7472 15.8318 30.8754 16.1922 30.9339 16.5674C30.9651 16.6639 30.9762 16.7584 31.0073 16.855C31.1523 17.2904 31.3241 17.7163 31.5218 18.1299C31.7271 18.5707 31.9027 19.0248 32.0469 19.4897C32.1823 19.8493 32.3718 20.1894 32.4774 20.5626C32.6345 21.0935 32.719 21.6351 32.8768 22.1666C33.0238 22.6762 33.2649 23.154 33.4118 23.6656C33.6014 24.2917 33.769 24.9189 33.9058 25.5559C34.0738 26.384 34.1896 27.2348 34.3575 28.0629C34.3796 28.6205 34.4818 29.1715 34.6617 29.699C34.8157 30.0801 34.9181 30.4808 34.9659 30.8896C35.0506 31.389 35.0828 31.898 35.1458 32.396C35.2399 33.1186 35.3764 33.8198 35.4394 34.5438C35.4502 34.9678 35.4395 35.3927 35.4083 35.8167C35.3954 36.0906 35.3985 36.3652 35.4182 36.6387C35.4291 36.8716 35.4819 37.1075 35.5029 37.3397C35.534 37.8069 35.5233 38.2743 35.5551 38.7524C35.587 39.2305 35.6604 39.6984 35.7125 40.1758C35.7309 40.3205 35.7376 40.4662 35.7337 40.6119C35.8052 41.1315 35.7879 41.6598 35.6814 42.1731C35.638 42.3214 35.6198 42.4762 35.6279 42.6306C35.6394 43.2676 35.6605 43.8951 35.6814 44.5423C35.6462 44.8338 35.6636 45.1296 35.7337 45.4146C35.9166 45.9302 35.9388 46.49 35.7965 47.0186L35.7013 47.8888C35.6803 48.0374 35.7014 48.1966 35.6702 48.3356C35.5561 49.0404 35.5738 49.7604 35.7224 50.4587C35.7873 50.7484 35.826 51.0435 35.8382 51.3403C35.8382 51.9663 35.7643 52.573 35.7859 53.1998C35.8085 53.6005 35.7148 53.9998 35.5155 54.3469C35.4098 54.5168 35.0414 54.7401 34.9791 54.6894C34.6331 54.4449 34.2642 54.6032 33.9283 54.571C33.3087 54.5189 32.6784 54.5293 32.0588 54.5389C31.7759 54.562 31.492 54.5693 31.2084 54.5603C30.7284 54.5591 30.2495 54.5094 29.7793 54.4118C29.7061 54.3796 29.5903 54.465 29.4962 54.476C29.1039 54.5936 28.6896 54.6121 28.2887 54.5295C28.152 54.5099 28.0126 54.5173 27.8787 54.5509C27.6078 54.5708 27.343 54.6031 27.06 54.6031C26.4819 54.526 25.8991 54.4905 25.3161 54.4974C24.7186 54.6754 24.0801 54.6489 23.4988 54.4225C23.4743 54.4062 23.4466 54.3961 23.4175 54.3924C23.3884 54.3887 23.3586 54.3914 23.3308 54.4011C22.9638 54.6456 22.5752 54.4548 22.1967 54.476C21.6542 54.4655 21.1113 54.4864 20.5712 54.5389C20.0146 54.6355 19.5107 54.2101 18.9642 54.4546C17.919 54.3205 16.8622 54.3025 15.8131 54.4011C15.5635 54.3931 15.3149 54.369 15.0684 54.3282C14.8212 54.2979 14.5718 54.2945 14.3238 54.3175C13.5824 54.5106 12.8043 54.5064 12.0648 54.3061C11.7506 52.7992 11.4348 51.2559 11.1409 49.7169C11.0989 49.4642 11.0885 49.2077 11.1099 48.9523C11.141 48.3783 11.1621 47.8052 11.2454 47.2313C11.3721 46.3908 11.0663 45.5096 11.4557 44.6815C11.4663 44.6286 11.4663 44.5738 11.4557 44.5209C11.3921 43.3743 11.3511 42.2267 11.2454 41.0808C11.2048 40.4083 11.2008 39.7338 11.2342 39.0608C11.266 38.3183 11.171 37.5743 11.213 36.8414C11.255 36.2565 11.3187 35.6721 11.381 35.0769C11.423 34.7344 11.3186 34.3979 11.3287 34.0582C11.3428 33.1709 11.5477 32.2971 11.9286 31.4977C12.0331 31.3495 12.0848 31.1697 12.0754 30.988C12.0446 30.2873 12.1482 29.5874 12.3802 28.9264C12.4324 28.6833 12.5156 28.4271 12.5799 28.184C12.6951 27.7477 12.7682 27.2937 12.9185 26.8663C13.2558 26.153 13.537 25.4136 13.7591 24.6556C13.8037 24.5247 13.8638 24.3998 13.9383 24.2837C14.2739 23.636 14.5722 22.9691 14.831 22.2864C15.2089 21.085 15.8902 20.0122 16.2376 18.8122C16.2485 18.7697 16.2903 18.759 16.3018 18.7158C16.4481 18.4199 16.5955 18.1114 16.7323 17.8148C17.0781 16.9556 17.4743 16.118 17.9187 15.3065C18.3412 14.4593 18.8641 13.6672 19.4761 12.948C19.5587 12.8601 19.6137 12.7493 19.6335 12.6296C19.832 11.9623 20.107 11.3207 20.4528 10.7179C20.7995 10.0371 21.1146 9.32518 21.4607 8.64571C21.6076 8.34845 21.8911 8.11515 22.0069 7.80693C22.4484 6.74458 23.31 5.92573 23.719 4.85311C23.7607 4.78696 23.8054 4.72363 23.8539 4.66248C24.1871 4.31042 24.4926 3.92753 24.8386 3.49259H24.838ZM37.5582 29.8722C38.4914 30.3481 39.3011 31.0392 39.9218 31.8896C40.2377 32.2548 40.4611 32.6918 40.5725 33.1639C40.6031 33.2299 40.6384 33.294 40.6776 33.3552C40.8456 33.7271 41.0159 34.0994 41.171 34.4822C41.326 34.8651 41.434 35.2581 41.5816 35.6301C41.9176 36.4301 42.0953 37.2886 42.1054 38.1578C42.1038 38.2146 42.1078 38.2715 42.1166 38.3277C42.2006 38.9003 42.3264 39.4633 42.3792 40.04C42.4428 40.677 42.4522 41.3247 42.4949 41.9631C42.5051 42.0583 42.5571 42.1745 42.526 42.2601C42.4814 42.3792 42.4642 42.5071 42.4751 42.634C42.486 42.7609 42.5246 42.8836 42.5888 42.9932C42.6345 43.089 42.6519 43.196 42.6391 43.3015C42.6262 43.4071 42.584 43.5068 42.5167 43.5885C42.3914 43.823 42.326 44.0851 42.3269 44.3517C42.2748 44.9791 42.5265 45.6178 42.2224 46.2219C42.2029 46.2801 42.1994 46.3423 42.2119 46.4025C42.3378 46.9333 42.1172 47.444 42.2324 47.9871C42.3373 48.4542 41.9494 48.7292 41.497 48.6032C40.7862 48.3791 40.0531 48.2334 39.3114 48.1684C39.0181 48.1471 38.7343 48.1472 38.4404 48.1363C38.3234 47.7341 38.3576 47.3021 38.5357 46.9236C38.6008 46.7988 38.6361 46.6606 38.6395 46.5196C38.6395 45.8723 38.6089 45.203 38.5886 44.5544C38.577 44.055 38.5357 43.5674 38.5357 43.0681C38.556 42.4517 38.5882 41.8455 38.662 41.2407C38.7141 40.8044 38.5267 40.4113 38.5985 39.9551C38.6303 39.5078 38.6093 39.0582 38.5357 38.616C38.493 38.1906 38.4304 37.7671 38.4087 37.3417C38.2598 36.3676 38.2212 35.3796 38.2936 34.3966C38.2988 34.2964 38.2881 34.1957 38.2619 34.099C38.2097 33.6627 38.1778 33.239 38.1263 32.8027C38.0525 32.2821 37.9586 31.7752 37.8638 31.2629C37.7899 30.8382 37.6849 30.414 37.5589 29.8722H37.5582ZM9.04921 30.9866C8.74445 31.6761 8.62755 32.4354 8.71062 33.1859C8.74072 33.7 8.6581 34.2147 8.46925 34.6929C8.37947 35.0759 8.36872 35.4735 8.4375 35.8608C8.53221 36.2375 8.53221 36.632 8.4375 37.0086C8.38838 37.2568 8.38111 37.5113 8.41634 37.7618C8.43733 38.3467 8.46925 38.9186 8.46925 39.5036C8.4163 39.7622 8.40563 40.0281 8.4375 40.2902C8.51423 40.4391 8.56044 40.6024 8.57307 40.7698C8.53968 40.9301 8.49059 41.0863 8.42626 41.2367C8.40527 41.3011 8.48908 41.3738 8.48908 41.4601C8.56765 41.9656 8.58883 42.4788 8.55257 42.9892C8.56284 43.6919 8.49909 44.3936 8.36277 45.0828C8.33162 45.1561 8.39494 45.2739 8.4051 45.3691C8.42609 45.6033 8.43701 45.8379 8.458 46.1557C6.77724 46.0502 5.12767 45.9425 3.49025 45.848C3.50989 45.2418 3.52085 44.6354 3.54117 44.0313C3.56311 43.8958 3.60262 43.7635 3.65756 43.638C3.78851 43.2675 3.87319 42.882 3.90952 42.4902C3.94224 41.5027 4.08678 40.5225 4.34069 39.5685C4.43462 39.2044 4.45588 38.8252 4.40352 38.4528C4.34241 38.1692 4.37965 37.8726 4.50867 37.6133C4.64003 37.3884 4.72572 37.1397 4.76062 36.8809C4.81225 36.3521 4.95799 35.8366 5.19114 35.3605C5.27511 35.1475 5.43211 34.9677 5.50592 34.7444C5.70197 34.0613 6.06747 33.4395 6.56732 32.9391C7.31899 32.2288 7.86476 31.2421 9.05186 30.9866H9.04921ZM16.8639 71.1989C16.9899 71.9962 17.1047 72.8032 17.2422 73.5895C17.3183 73.795 17.3678 74.0093 17.3896 74.2276C17.44 74.8567 17.6454 75.463 17.9875 75.9908C18.5241 77.1088 19.187 78.1602 19.9628 79.1239C20.4449 79.7328 21.0072 80.2723 21.6333 80.7279C22.0827 81.1307 22.5984 81.4507 23.1569 81.6737C23.2714 81.7169 23.3238 81.8871 23.4274 81.9727C24.6482 82.9492 26.0693 83.6378 27.5864 83.9894C27.7638 84.0075 27.9428 83.9887 28.1128 83.9339C28.2827 83.8791 28.44 83.7896 28.5744 83.671C28.9173 83.4169 29.1605 83.0491 29.2621 82.6316C29.3638 82.2141 29.3169 81.7735 29.1299 81.3874C29.026 81.1436 28.9417 80.8919 28.8779 80.6343C28.4783 79.0742 27.9446 77.5522 27.2822 76.0865C27.2367 76.0275 27.203 75.96 27.1836 75.8878C27.1643 75.8157 27.1593 75.7405 27.1691 75.6664C27.1788 75.5923 27.2031 75.5209 27.2405 75.4564C27.2779 75.3919 27.3282 75.3353 27.3873 75.2905L27.4819 75.2263C27.7158 75.0556 27.9094 74.835 28.0486 74.5795C28.2885 74.2199 28.5829 73.9001 28.9209 73.633C29.3385 73.2197 29.6359 72.6991 29.7812 72.1267C29.9271 71.7641 30.0466 71.3906 30.1384 71.0103C30.3178 70.3411 30.5064 69.6727 30.6323 68.9809C30.7583 68.4195 30.8108 67.8438 30.7891 67.2685C30.7369 66.5891 30.5683 65.9083 30.4505 65.2391C30.3327 64.5699 29.9152 64.0698 29.7581 63.4438C29.681 63.2067 29.5519 62.9905 29.3812 62.8104C29.2104 62.6302 29.0023 62.491 28.7714 62.403C28.424 62.2328 28.0871 62.0412 27.7629 61.8291C27.1675 61.5212 26.5243 61.3198 25.861 61.2338C25.061 61.0511 24.251 60.9163 23.4353 60.8298C22.9711 60.8176 22.5075 60.8748 22.0598 60.9997C21.7551 61.0641 21.492 61.2869 21.1981 61.3616C20.338 61.6544 19.6133 62.2553 19.16 63.0505C18.986 63.3881 18.9035 63.7658 18.9199 64.1461C18.9173 64.4429 18.8167 64.7306 18.6349 64.9635C18.3622 65.3234 18.1657 65.7357 18.0569 66.1756C17.9309 66.6119 17.679 66.9926 17.5219 67.4083C17.3558 67.7817 17.2357 68.1744 17.1648 68.5775C17.0449 69.457 16.9722 70.3277 16.8665 71.1989H16.8639ZM16.444 30.8381C16.5591 31.2422 16.6853 31.666 16.7998 32.1023C16.8778 32.4686 16.987 32.8278 17.1258 33.1752C17.3967 33.7383 17.7982 34.2488 18.0291 34.8187C18.4423 35.5967 19.0892 36.222 19.8768 36.6033C19.9783 36.6641 20.088 36.7103 20.2022 36.7404C20.6128 36.8341 21.0019 37.0072 21.3476 37.2501C21.4467 37.3217 21.5645 37.3621 21.6862 37.3665C22.8414 37.5364 23.9971 37.7592 25.1104 37.1852C25.5411 36.9619 26.0244 36.8667 26.4443 36.6434C26.97 36.3777 27.4521 36.0311 27.8727 35.616C28.5237 34.9098 29.0526 34.0981 29.438 33.2147C30.0364 32.1096 30.2791 30.8431 30.1317 29.592C30.1012 29.4559 30.0969 29.3155 30.1198 29.1779C30.1776 28.9248 30.1812 28.6621 30.1304 28.4074C30.0796 28.1527 29.9758 27.9117 29.8256 27.701C29.4802 26.9946 29.065 26.3255 28.5863 25.7037C28.4979 25.5483 28.4241 25.3848 28.366 25.2154C28.1608 24.7421 27.8112 24.3473 27.3681 24.0897C26.069 23.312 24.6165 22.833 23.1139 22.6864C22.7794 22.6679 22.4445 22.7145 22.1273 22.8235C21.6959 22.9399 21.2763 23.0975 20.845 23.2489C20.803 23.2599 20.7611 23.2491 20.7299 23.2703C19.9393 23.577 19.2459 24.0946 18.7235 24.7686C18.2204 25.5536 17.7257 26.3519 17.2422 27.1492C17.0809 27.4109 16.9639 27.6974 16.8956 27.998C16.7507 28.9131 16.6254 29.8402 16.4466 30.8381H16.444Z" fill="black"/>
</svg>
