<svg width="158" height="26" viewBox="0 0 158 26" fill="none" xmlns="http://www.w3.org/2000/svg">
<path d="M25.9837 5.35028V20.8993C25.984 21.4508 25.8769 21.9969 25.6686 22.5066C25.4603 23.0162 25.1548 23.4793 24.7695 23.8695C24.3843 24.2596 23.9268 24.5692 23.4233 24.7806C22.9198 24.9919 22.38 25.1009 21.8349 25.1012H19.5149C19.0304 25.1007 18.5508 25.004 18.1032 24.8166C18.0348 24.7899 17.968 24.759 17.9033 24.7242C17.6495 24.6002 17.4123 24.4442 17.1974 24.2598C16.304 23.5433 15.0453 22.0129 14.8824 18.9944C14.7614 17.6337 15.8943 16.4279 17.3751 16.4279H18.9621C20.7243 16.4279 22.1533 15.0822 22.1705 13.4169C22.1878 11.7517 20.7711 10.3585 19.004 10.3336C18.8622 10.3315 18.7205 10.3382 18.5795 10.3535C18.5276 11.0644 18.3011 11.751 17.9205 12.3509C18.0693 11.9517 18.147 11.5291 18.1501 11.1025C18.1477 10.8627 18.1229 10.6236 18.076 10.3885C18.0701 10.3366 18.0585 10.2855 18.0415 10.2362V10.2187C18.0267 10.1588 18.0119 10.0989 17.9921 10.0415C17.9724 9.98404 17.96 9.9416 17.9427 9.88917C17.9255 9.83674 17.8959 9.76434 17.8712 9.70442C17.8465 9.6445 17.8317 9.60705 17.8095 9.55962L17.7157 9.37736C17.691 9.33242 17.6688 9.28748 17.6416 9.24504C17.6145 9.2026 17.5676 9.1252 17.5281 9.06528L17.4491 8.94794C17.3998 8.88136 17.3479 8.81645 17.2937 8.7532C17.2714 8.72574 17.2517 8.69578 17.2295 8.67081C17.1522 8.58267 17.0698 8.4993 16.9827 8.42115C16.959 8.39668 16.9334 8.37414 16.9062 8.35374L16.7112 8.18646L16.6001 8.10407C16.5409 8.05913 16.4817 8.01669 16.4175 7.97425C16.3533 7.93181 16.3336 7.92182 16.2916 7.89685L16.1065 7.7895L15.9683 7.71959L15.7955 7.61973C15.7462 7.59726 15.6993 7.57728 15.6499 7.55981C15.6006 7.54233 15.5142 7.50987 15.4426 7.4874L15.2945 7.44247C15.2221 7.42249 15.1481 7.40502 15.0724 7.39004L14.9268 7.35508C14.8429 7.3401 14.759 7.33012 14.68 7.32013L14.5615 7.30265C14.4332 7.30265 14.3147 7.28518 14.1716 7.28518C14.0463 7.28192 13.9209 7.28776 13.7964 7.30265L13.6779 7.31763C13.5948 7.32158 13.5122 7.33328 13.4311 7.35259L13.3003 7.37755C13.2214 7.39253 13.1424 7.415 13.0535 7.43498L12.9301 7.46743C12.8339 7.49739 12.7426 7.52985 12.6512 7.5648L12.5352 7.61224C12.4513 7.64719 12.3674 7.68464 12.2884 7.72459L12.1478 7.80198C12.0951 7.82861 12.0433 7.85857 11.9923 7.89186C11.9419 7.92144 11.8933 7.95395 11.8467 7.98923L11.7183 8.07911C11.6665 8.11656 11.6147 8.15401 11.5653 8.19645L11.4814 8.26636C11.3605 8.36905 11.2459 8.47911 11.1383 8.59591C11.1314 8.60545 11.1231 8.61386 11.1136 8.62088C11.0593 8.6808 11.0075 8.74321 10.9582 8.80813L10.9088 8.87054C10.8594 8.93546 10.8125 9.00287 10.7656 9.07027C10.7656 9.09025 10.741 9.10772 10.7311 9.1277C10.5753 9.36747 10.4493 9.62574 10.3559 9.89666C11.1625 10.4114 11.8079 11.1473 12.2169 12.0188C11.9888 11.5988 11.6712 11.2354 11.2869 10.9551C10.9027 10.6749 10.4616 10.4847 9.99561 10.3985H9.9734C9.88948 10.3835 9.80063 10.371 9.71178 10.361H9.18362C9.12366 10.356 9.06341 10.356 9.00345 10.361H8.90473L8.68507 10.3935L8.56167 10.4235C8.49997 10.4384 8.43827 10.4509 8.37656 10.4709L8.26303 10.5083L8.0804 10.5708L7.95946 10.6282L7.79904 10.7006L7.67564 10.773L7.53496 10.8529C7.49547 10.8778 7.45598 10.9103 7.41896 10.9378L7.28815 11.0276L7.18203 11.12C7.14007 11.155 7.09811 11.1899 7.05862 11.2274C7.01913 11.2648 6.99199 11.2948 6.9599 11.3297C6.92782 11.3647 6.88586 11.4046 6.85131 11.4446C6.81675 11.4845 6.79454 11.5195 6.76246 11.5569C6.7291 11.5951 6.69779 11.6352 6.66867 11.6768L6.58969 11.7991L6.50578 11.9314C6.4811 11.9739 6.46135 12.0163 6.44161 12.0588C6.42186 12.1012 6.39225 12.1486 6.3725 12.1986L6.32067 12.3309C6.3034 12.3758 6.28118 12.4283 6.26391 12.4782C6.24663 12.5281 6.23923 12.5731 6.22442 12.618C6.20961 12.6629 6.19727 12.7179 6.18493 12.7703C6.17259 12.8227 6.17012 12.8677 6.16025 12.9176C6.15038 12.9675 6.14297 13.02 6.13557 13.0724C6.13187 13.1231 6.13187 13.174 6.13557 13.2247V13.3795V13.7465C6.33301 15.2445 7.68057 16.4154 9.31936 16.4154H10.9063C12.3872 16.4154 13.52 17.6238 13.404 18.9844C13.2386 21.9979 11.9799 23.5308 11.0865 24.2498C10.8735 24.4339 10.639 24.5908 10.388 24.7167C10.3222 24.7511 10.2547 24.7819 10.1856 24.8091C9.73802 24.9965 9.25837 25.0932 8.77392 25.0937H6.45888C5.35895 25.0937 4.30393 24.6524 3.52523 23.8665C2.74654 23.0807 2.30776 22.0145 2.30515 20.9018V20.9018V5.35028C2.30482 4.79882 2.41188 4.25269 2.6202 3.74307C2.82852 3.23346 3.13403 2.77034 3.51928 2.38016C3.90453 1.98999 4.36198 1.68039 4.86551 1.46905C5.36905 1.25771 5.9088 1.14877 6.45395 1.14844H21.8299C22.3751 1.14811 22.915 1.2564 23.4187 1.46714C23.9225 1.67787 24.3803 1.98692 24.7661 2.37663C25.1518 2.76635 25.4578 3.2291 25.6667 3.73846C25.8757 4.24782 25.9834 4.79382 25.9837 5.34529V5.35028Z" fill="black"/>
<path d="M34.2196 17.3591L37.6749 16.4204C37.8625 17.7361 38.9756 18.4876 40.4367 18.4876C41.8978 18.4876 43.0355 17.7836 43.1984 16.68C43.4378 15.2719 41.6658 14.9798 39.9036 14.4805C37.7909 13.8713 35.1476 12.7329 35.6585 9.48723C36.0756 6.76339 38.8349 4.67371 42.2926 4.67371C45.2395 4.67371 47.0733 6.24659 47.4435 8.78317L44.1955 9.69694C43.9635 8.44862 43.2206 7.74957 41.8533 7.74957C40.3454 7.74957 39.3236 8.6184 39.1607 9.60457C38.9534 10.9178 40.5305 11.3397 42.2013 11.8091C44.3806 12.4682 47.2584 13.3595 46.7253 16.715C46.2613 19.7434 43.5168 21.6434 39.9258 21.6434C36.9345 21.6309 34.6145 20.0131 34.2196 17.3591Z" fill="black"/>
<path d="M48.675 15.7887L49.6252 9.75684H52.8978L51.9921 15.4367C51.6441 17.5938 52.5252 18.6973 54.0109 18.6973C55.6349 18.6973 56.7949 17.449 57.1207 15.3893L58.024 9.75684H61.3188L59.4801 21.3737H56.2371L56.4691 19.9731H56.4247C55.9534 20.475 55.3838 20.8718 54.7523 21.1384C54.1208 21.4049 53.4413 21.5352 52.7572 21.521C50.067 21.5135 48.0703 19.4962 48.675 15.7887Z" fill="black"/>
<path d="M64.1053 9.7568H67.4001L67.1681 11.2548C68.3281 9.94155 69.9052 9.50714 71.8303 9.54209L71.2972 13.0149C70.8098 12.7352 70.2555 12.597 69.6954 12.6155C68.0715 12.6155 66.7338 13.9312 66.4253 15.8786L65.5664 21.3712H62.2937L64.1053 9.7568Z" fill="black"/>
<path d="M71.8549 15.5516C72.388 12.1487 74.9869 9.54468 78.1658 9.54468C79.8366 9.54468 80.9275 10.2013 81.6457 11.2574L81.8777 9.75939H85.1726L83.3635 21.3763H80.0686L80.3006 19.9432C79.348 20.9418 78.0967 21.586 76.2851 21.586C73.3382 21.5835 71.3268 18.957 71.8549 15.5516ZM80.9719 15.5516C81.2755 13.7465 80.1846 12.4083 78.4669 12.4083C76.8429 12.4083 75.3571 13.7465 75.056 15.5516C74.7549 17.3567 75.8458 18.6974 77.4698 18.6974C79.1875 18.6974 80.6708 17.4316 80.9719 15.5516Z" fill="black"/>
<path d="M88.9093 3.7699H92.1572L90.5777 13.8388H92.2016L96.1234 9.75684H100.203L94.571 15.4117L98.4927 21.3737H94.687L91.8783 16.9621H90.1161L89.4201 21.3737H86.1722L88.9093 3.7699Z" fill="black"/>
<path d="M99.5836 18.4402L102.506 17.5489C102.753 18.5475 103.55 19.1917 104.779 19.1917C105.964 19.1917 106.822 18.6499 106.961 17.7836C107.17 16.373 104.293 17.0545 102.343 16.1857C101.368 15.7413 100.556 14.8725 100.813 13.2522C101.183 11.0701 103.481 9.40234 106.149 9.40234C108.632 9.40234 110.139 10.7405 110.394 12.5955L107.494 13.3945C107.449 12.4782 106.822 11.869 105.801 11.869C104.734 11.869 103.922 12.4782 103.826 13.1823C103.616 14.7551 106.726 14.121 108.491 14.9299C109.604 15.3993 110.347 16.2681 110.115 17.8385C109.72 20.3052 107.516 21.8331 104.29 21.8331C101.973 21.8206 99.9069 20.435 99.5836 18.4402Z" fill="black"/>
<path d="M114.478 3.7699H117.751L116.591 11.0701C117.553 10.1384 118.833 9.61719 120.165 9.61453C122.993 9.61453 124.921 11.7517 124.341 15.3418L123.388 21.3737H120.118L121.021 15.599C121.347 13.4868 120.488 12.4083 119.002 12.4083C117.472 12.4083 116.243 13.6291 115.895 15.5515L114.989 21.3737H111.694L114.478 3.7699Z" fill="black"/>
<path d="M126.244 15.5516C126.777 12.1487 129.376 9.54468 132.554 9.54468C134.225 9.54468 135.316 10.2013 136.034 11.2574L136.266 9.75939H139.561L137.752 21.3763H134.457L134.689 19.9432C133.737 20.9418 132.485 21.586 130.674 21.586C127.727 21.5835 125.71 18.957 126.244 15.5516ZM135.361 15.5516C135.664 13.7465 134.573 12.4083 132.855 12.4083C131.232 12.4083 129.746 13.7465 129.445 15.5516C129.144 17.3567 130.234 18.6974 131.858 18.6974C133.574 18.6974 135.059 17.4316 135.361 15.5516Z" fill="black"/>
</svg>
