<svg width="224" height="38" viewBox="0 0 224 38" fill="none" xmlns="http://www.w3.org/2000/svg">
<path d="M53.1311 37.9896C57.3816 37.9896 60.7358 35.5325 60.7358 31.7896C60.7358 27.7325 56.919 26.7896 54.2009 26.0468C52.0033 25.4468 49.8925 25.0753 49.8925 23.3896C49.8925 22.1896 51.0202 21.0753 52.9286 21.0753C54.6636 21.0753 55.7045 21.9325 56.1961 23.4468L60.0708 22.3325C59.0877 19.1325 56.572 17.3325 52.8419 17.3325C48.7359 17.3325 45.5263 19.9039 45.5263 23.3896C45.5263 27.361 48.9383 28.561 51.8299 29.3039C54.0853 29.8753 56.3118 30.161 56.3118 31.9039C56.3118 33.2182 55.0684 34.161 53.16 34.161C51.3672 34.161 49.8636 33.2468 49.372 31.6468L45.266 32.7896C46.2491 36.0182 49.2275 37.9896 53.1311 37.9896Z" fill="black"/>
<path d="M74.8129 37.961C79.5839 37.961 83.5454 34.761 83.5454 29.5896V17.6753H79.2948V28.761C79.2948 31.561 77.7623 33.961 74.8129 33.961C71.8346 33.961 70.302 31.561 70.302 28.761V17.6753H66.0514V29.5896C66.0514 34.761 70.0129 37.961 74.8129 37.961Z" fill="black"/>
<path d="M106.093 37.6753L101.929 30.0182C104.069 29.0468 105.63 27.0468 105.63 24.1896C105.63 20.0468 102.391 17.6753 98.777 17.6753H89.9866V37.6753H94.1794V30.6753H97.9673L101.437 37.6753H106.093ZM94.1794 21.361H98.3432C100.165 21.361 101.379 22.561 101.379 24.2468C101.379 25.9325 100.165 27.0753 98.3432 27.0753H94.1794V21.361Z" fill="black"/>
<path d="M110.688 37.6753H115.372L116.644 34.3896H125.579L126.88 37.6753H131.565L123.324 17.6753H118.842L110.688 37.6753ZM118.003 30.561L121.068 22.5039H121.126L124.22 30.561H118.003Z" fill="black"/>
<path d="M136.854 37.6753H141.104V29.6753H144.083L150.01 37.6753H155.331L147.784 27.6182L154.984 17.6753H149.779L144.025 25.6753H141.104V17.6753H136.854V37.6753Z" fill="black"/>
<path d="M167.037 37.9896C171.288 37.9896 174.642 35.5325 174.642 31.7896C174.642 27.7325 170.825 26.7896 168.107 26.0468C165.91 25.4468 163.799 25.0753 163.799 23.3896C163.799 22.1896 164.927 21.0753 166.835 21.0753C168.57 21.0753 169.611 21.9325 170.103 23.4468L173.977 22.3325C172.994 19.1325 170.478 17.3325 166.748 17.3325C162.642 17.3325 159.433 19.9039 159.433 23.3896C159.433 27.361 162.845 28.561 165.736 29.3039C167.992 29.8753 170.218 30.161 170.218 31.9039C170.218 33.2182 168.975 34.161 167.066 34.161C165.274 34.161 163.77 33.2468 163.278 31.6468L159.172 32.7896C160.156 36.0182 163.134 37.9896 167.037 37.9896Z" fill="black"/>
<path d="M180.219 37.6753H184.47V29.7039H193.607V37.6753H197.858V17.6753H193.607V25.7039H184.47V17.6753H180.219V37.6753Z" fill="black"/>
<path d="M203.123 37.6753H207.807L209.08 34.3896H218.014L219.316 37.6753H224L215.759 17.6753H211.277L203.123 37.6753ZM210.439 30.561L213.504 22.5039H213.561L216.655 30.561H210.439Z" fill="black"/>
<path d="M50.4527 10.5633C52.5376 10.5633 54.2085 9.4237 54.2085 7.56818C54.2085 5.52273 52.2567 5.15747 50.7633 4.76299C49.4621 4.41234 48.1165 4.19318 48.1165 2.9513C48.1165 2.06006 48.9445 1.22727 50.2901 1.22727C51.473 1.22727 52.2271 1.84091 52.582 2.92208L53.8536 2.57143C53.3509 0.891234 52.094 0 50.2753 0C48.2496 0 46.6822 1.25649 46.6822 2.93669C46.6822 4.96753 48.4862 5.43506 50.0239 5.84416C51.3399 6.18019 52.7742 6.34091 52.7742 7.5974C52.7742 8.64935 51.7983 9.30682 50.4675 9.30682C49.2255 9.30682 48.1461 8.69318 47.7912 7.50974L46.4456 7.875C46.9484 9.61364 48.5453 10.5633 50.4527 10.5633Z" fill="black"/>
<path d="M58.6727 10.5049C60.0478 10.5049 60.8759 10.0081 61.4969 9.33604V10.4026H62.8277V3.17045H61.4969V4.25162C60.8759 3.55032 60.0478 3.06818 58.6727 3.06818C56.6765 3.06818 55.1535 4.68993 55.1535 6.79383C55.1535 8.86851 56.6765 10.5049 58.6727 10.5049ZM58.9832 9.35065C57.5637 9.35065 56.4695 8.22565 56.4695 6.79383C56.4695 5.3474 57.5637 4.2224 58.9832 4.2224C60.4027 4.2224 61.4969 5.3474 61.4969 6.79383C61.4969 8.22565 60.4027 9.35065 58.9832 9.35065Z" fill="black"/>
<path d="M67.712 10.5049C69.0872 10.5049 69.9152 10.0081 70.5362 9.33604V10.4026H71.867V3.17045H70.5362V4.25162C69.9152 3.55032 69.0872 3.06818 67.712 3.06818C65.7159 3.06818 64.1929 4.68993 64.1929 6.79383C64.1929 8.86851 65.7159 10.5049 67.712 10.5049ZM68.0225 9.35065C66.6031 9.35065 65.5089 8.22565 65.5089 6.79383C65.5089 5.3474 66.6031 4.2224 68.0225 4.2224C69.442 4.2224 70.5362 5.3474 70.5362 6.79383C70.5362 8.22565 69.442 9.35065 68.0225 9.35065Z" fill="black"/>
<path d="M77.2097 10.5633C79.2946 10.5633 80.9655 9.4237 80.9655 7.56818C80.9655 5.52273 79.0137 5.15747 77.5202 4.76299C76.219 4.41234 74.8735 4.19318 74.8735 2.9513C74.8735 2.06006 75.7015 1.22727 77.0471 1.22727C78.23 1.22727 78.9841 1.84091 79.339 2.92208L80.6106 2.57143C80.1079 0.891234 78.851 0 77.0323 0C75.0066 0 73.4392 1.25649 73.4392 2.93669C73.4392 4.96753 75.2431 5.43506 76.7809 5.84416C78.0969 6.18019 79.5312 6.34091 79.5312 7.5974C79.5312 8.64935 78.5553 9.30682 77.2245 9.30682C75.9825 9.30682 74.9031 8.69318 74.5482 7.50974L73.2026 7.875C73.7054 9.61364 75.3023 10.5633 77.2097 10.5633Z" fill="black"/>
<path d="M88.2996 5.17208C89.0537 4.7776 89.6008 4.09091 89.6008 2.9513C89.6008 1.09578 88.1665 0.175324 86.3774 0.175324H82.4294V10.4026H86.5844C88.3292 10.4026 89.867 9.46753 89.867 7.56818C89.867 6.31169 89.172 5.55195 88.2996 5.17208ZM83.8046 1.35877H86.3774C87.3385 1.35877 88.2553 1.78247 88.2553 3.03896C88.2553 4.28084 87.3681 4.70455 86.3774 4.70455H83.8046V1.35877ZM86.5548 9.21916H83.8046V5.78571H86.5548C87.4568 5.78571 88.4918 6.25325 88.4918 7.49513C88.4918 8.75162 87.4568 9.21916 86.5548 9.21916Z" fill="black"/>
<path d="M96.0852 10.5487C99.0277 10.5487 101.305 8.19643 101.305 5.28896C101.305 2.38149 99.0277 0.0292204 96.0852 0.0292204C93.128 0.0292204 90.8509 2.38149 90.8509 5.28896C90.8509 8.19643 93.128 10.5487 96.0852 10.5487ZM96.0852 9.20455C93.8969 9.20455 92.2408 7.46591 92.2408 5.28896C92.2408 3.11201 93.8969 1.37338 96.0852 1.37338C98.2588 1.37338 99.9149 3.11201 99.9149 5.28896C99.9149 7.46591 98.2588 9.20455 96.0852 9.20455Z" fill="black"/>
<path d="M107.666 10.5487C110.608 10.5487 112.886 8.19643 112.886 5.28896C112.886 2.38149 110.608 0.0292204 107.666 0.0292204C104.709 0.0292204 102.432 2.38149 102.432 5.28896C102.432 8.19643 104.709 10.5487 107.666 10.5487ZM107.666 9.20455C105.478 9.20455 103.822 7.46591 103.822 5.28896C103.822 3.11201 105.478 1.37338 107.666 1.37338C109.84 1.37338 111.496 3.11201 111.496 5.28896C111.496 7.46591 109.84 9.20455 107.666 9.20455Z" fill="black"/>
<path d="M114.5 10.4026H115.89V2.54221L119.424 8.73701H120.518L124.052 2.5276V10.4026H125.457V0.175324H123.845L119.986 7.11526L116.097 0.175324H114.5V10.4026Z" fill="black"/>
<path d="M127.997 1.76786C128.441 1.76786 128.796 1.41721 128.796 0.978896C128.796 0.584415 128.441 0.233766 127.997 0.233766C127.569 0.233766 127.214 0.584415 127.214 0.978896C127.214 1.41721 127.569 1.76786 127.997 1.76786ZM127.362 10.4026H128.663V3.17045H127.362V10.4026Z" fill="black"/>
<path d="M25.6446 37.5501C26.3713 37.8475 27.1501 38.0003 27.9366 38H31.7024C33.4906 38 35.2055 37.298 36.4698 36.0485C37.7342 34.799 38.4446 33.1042 38.4446 31.3371V6.67588C38.4442 5.80052 38.2693 4.93381 37.93 4.12523C37.5907 3.31665 37.0936 2.58203 36.467 1.96332C35.8404 1.34462 35.0966 0.853936 34.2781 0.519297C33.4596 0.184658 32.5824 0.0126138 31.6967 0.0129872H6.74213C4.95401 0.0129872 3.23912 0.714969 1.97473 1.9645C0.71033 3.21404 0 4.90877 0 6.67588V31.3371C0.000762864 33.1031 0.710791 34.7966 1.97413 36.0456C3.23746 37.2947 4.9508 37.9971 6.73781 37.9986H10.4964C11.2834 37.9967 12.0623 37.8414 12.7884 37.5416C12.9001 37.5002 13.0093 37.4527 13.1155 37.3992C13.5248 37.2006 13.9083 36.9539 14.2579 36.6646C15.7144 35.5242 17.7514 33.0897 18.0194 28.3132C18.2138 26.1534 16.377 24.2386 13.9683 24.2386H11.3896C8.72876 24.2386 6.53757 22.3892 6.21775 20.0045C6.21083 19.9735 6.20602 19.9421 6.20334 19.9105C6.18605 19.8194 6.18605 19.7212 6.18605 19.6258C6.17453 19.5603 6.17453 19.4934 6.17453 19.4279V19.4094C6.17453 19.3254 6.19902 19.2528 6.21054 19.1731C6.22207 19.0933 6.21054 19.015 6.22207 18.9325C6.23359 18.8499 6.248 18.7645 6.26241 18.6876C6.27681 18.6107 6.28402 18.5296 6.30274 18.4513C6.32147 18.3729 6.3474 18.2904 6.36901 18.2149C6.39062 18.1395 6.40071 18.0669 6.42952 17.9886C6.45595 17.9167 6.48602 17.8425 6.51306 17.7757L6.52028 17.7579C6.54909 17.6867 6.57358 17.6198 6.60672 17.5444C6.63985 17.4689 6.68307 17.3906 6.71764 17.3265C6.75222 17.2625 6.78247 17.1827 6.82425 17.1201C6.86603 17.0575 6.91645 16.9806 6.95967 16.9151C7.00289 16.8496 7.03746 16.787 7.085 16.72C7.13254 16.6531 7.19161 16.5891 7.24059 16.5278C7.28957 16.4666 7.32847 16.4111 7.38465 16.3485C7.44084 16.2858 7.50855 16.2232 7.56185 16.1676C7.61515 16.1121 7.66558 16.0651 7.72176 16.0053C7.77795 15.9455 7.86438 15.8829 7.92201 15.8359C7.97963 15.7889 8.02285 15.7391 8.092 15.6936C8.16115 15.648 8.24471 15.5939 8.30521 15.5512C8.36572 15.5085 8.41902 15.4658 8.4925 15.4202C8.56597 15.3746 8.65385 15.3277 8.72156 15.2907C8.78927 15.2536 8.83825 15.218 8.92324 15.1768C9.00823 15.1355 9.09613 15.0984 9.184 15.0614C9.24883 15.033 9.31221 15.0002 9.37992 14.9732C9.4678 14.9362 9.56864 14.9077 9.66805 14.8735C9.72999 14.8536 9.78906 14.8308 9.85245 14.8109C9.95185 14.7838 10.0527 14.7625 10.1535 14.7383C10.2227 14.7254 10.2861 14.7055 10.3538 14.6913C10.4705 14.6699 10.59 14.6557 10.7111 14.64C10.7658 14.6343 10.8177 14.6187 10.8739 14.6187C10.9675 14.6059 11.0813 14.6101 11.162 14.6059C11.2427 14.6016 11.3219 14.593 11.4054 14.593C11.5654 14.593 11.7224 14.6044 11.8794 14.6158L12.0004 14.6272C12.1517 14.6429 12.2885 14.6628 12.4326 14.6884H12.4672C13.222 14.8256 13.9365 15.1267 14.5594 15.5698C15.1822 16.013 15.6977 16.5872 16.0688 17.2511C15.4022 15.8697 14.3532 14.7033 13.0434 13.8869C13.1975 13.4582 13.4026 13.0491 13.6543 12.6682C13.6716 12.6383 13.6917 12.6084 13.7119 12.5799C13.7839 12.4703 13.8617 12.365 13.9409 12.2625L14.0216 12.1628C14.1037 12.0617 14.1859 11.9606 14.2752 11.8667C14.2894 11.8531 14.3028 11.8389 14.3155 11.824C14.4918 11.6405 14.6779 11.4666 14.873 11.3029C14.9191 11.2659 14.9595 11.226 15.0056 11.1904C15.0877 11.1263 15.1943 11.0552 15.2562 11.0068C15.3182 10.9584 15.3845 10.9171 15.4622 10.8644C15.54 10.8117 15.6178 10.7605 15.7028 10.7106L15.9593 10.5683C16.0342 10.527 16.1091 10.4871 16.1869 10.4472L16.2026 10.4397C16.3281 10.3797 16.4505 10.3212 16.5888 10.2693C16.6508 10.2437 16.7113 10.218 16.7761 10.1938C16.9245 10.1397 17.0729 10.087 17.2285 10.0415L17.4287 9.98881C17.5526 9.95607 17.6794 9.92475 17.809 9.89912C17.8767 9.88488 17.9488 9.87065 18.0208 9.85926C18.1533 9.83648 18.283 9.81797 18.4271 9.80231C18.4904 9.79519 18.5538 9.77953 18.6172 9.77953C18.8204 9.76387 19.0148 9.75106 19.228 9.75106C19.4413 9.75106 19.653 9.76245 19.8619 9.78096C19.9239 9.78665 19.9988 9.79804 20.0679 9.80658C20.2062 9.82367 20.3431 9.84075 20.48 9.86495C20.5592 9.87777 20.637 9.8977 20.7148 9.91621C20.8372 9.94041 20.9568 9.96888 21.0778 10.0016C21.157 10.023 21.2377 10.0486 21.317 10.0742C21.4308 10.1084 21.5417 10.1483 21.6526 10.1881L21.6709 10.195C21.7436 10.2224 21.8144 10.2491 21.8889 10.2807C21.9955 10.3253 22.1007 10.3727 22.2044 10.423C22.2836 10.4572 22.3542 10.4956 22.4277 10.5327C22.53 10.5868 22.6308 10.6437 22.7302 10.7021C22.7994 10.7434 22.8685 10.7832 22.9362 10.8259C23.0371 10.89 23.1336 10.9612 23.2316 11.0324C23.2921 11.0751 23.3526 11.1164 23.4116 11.1619C23.5211 11.2474 23.6234 11.3385 23.7271 11.4282C23.7689 11.4623 23.8092 11.4965 23.8496 11.5335C23.9885 11.6615 24.1208 11.7965 24.2458 11.9379C24.2832 11.9806 24.3178 12.0261 24.3538 12.0688C24.4388 12.1685 24.5238 12.271 24.603 12.3778C24.6491 12.439 24.6895 12.5016 24.7327 12.5643C24.7961 12.6597 24.8595 12.7508 24.9185 12.849C24.9617 12.9174 24.9992 12.99 25.0395 13.0597C25.0856 13.1537 25.149 13.2676 25.1836 13.3445C25.2182 13.4213 25.2527 13.4982 25.2844 13.5737C25.3262 13.6719 25.3651 13.7701 25.4011 13.8698C25.4299 13.9467 25.4487 14.0136 25.4804 14.1076C25.5121 14.2015 25.5366 14.2955 25.561 14.3923L25.5697 14.4165C25.5884 14.4991 25.6086 14.5802 25.6259 14.6628C25.8464 15.7094 25.7579 16.7966 25.3709 17.7949C25.9874 16.84 26.3561 15.7495 26.4441 14.6201C26.6723 14.5947 26.9018 14.5828 27.1313 14.5845C29.991 14.6286 32.2974 16.8411 32.2614 19.4777C32.2254 22.1144 29.906 24.25 27.0463 24.25H24.4705C22.0574 24.25 20.2206 26.1563 20.4151 28.3217C20.6802 33.0982 22.723 35.5327 24.1752 36.6717C24.5244 36.9626 24.9086 37.2098 25.319 37.4077C25.4249 37.4609 25.5336 37.5085 25.6446 37.5501Z" fill="black"/>
</svg>
