<svg width="14" height="14" viewBox="0 0 14 14" fill="none" xmlns="http://www.w3.org/2000/svg">
<path d="M13.6561 6.16875L13.1936 1.28437C13.1702 1.03125 12.9686 0.83125 12.7155 0.80625L7.83114 0.34375H7.82489C7.77489 0.34375 7.73583 0.359375 7.70614 0.389063L0.388956 7.70625C0.374471 7.72071 0.362979 7.73788 0.355138 7.75678C0.347298 7.77568 0.343262 7.79594 0.343262 7.81641C0.343262 7.83687 0.347298 7.85713 0.355138 7.87603C0.362979 7.89494 0.374471 7.91211 0.388956 7.92656L6.07333 13.6109C6.10302 13.6406 6.14208 13.6562 6.18427 13.6562C6.22646 13.6562 6.26552 13.6406 6.29521 13.6109L13.6124 6.29375C13.6436 6.26094 13.6593 6.21562 13.6561 6.16875ZM9.92177 5.04688C9.37021 5.04688 8.92177 4.59844 8.92177 4.04688C8.92177 3.49531 9.37021 3.04688 9.92177 3.04688C10.4733 3.04688 10.9218 3.49531 10.9218 4.04688C10.9218 4.59844 10.4733 5.04688 9.92177 5.04688Z" fill="#F4F4F4"/>
</svg>
