<svg width="148" height="230" viewBox="0 0 148 230" fill="none" xmlns="http://www.w3.org/2000/svg">
<g clip-path="url(#clip0)">
<path d="M77.4056 160.391L141.949 95.2859C142.594 94.6381 143.105 93.8683 143.454 93.0207C143.803 92.1732 143.982 91.2645 143.982 90.3468C143.982 89.4291 143.803 88.5204 143.454 87.6729C143.105 86.8253 142.594 86.0555 141.949 85.4077L124.995 68.2993C123.961 67.2531 122.732 66.423 121.38 65.8568C120.027 65.2906 118.576 64.9995 117.111 65H27.9841C26.5181 65.0003 25.0665 65.2918 23.7123 65.8579C22.358 66.424 21.1275 67.2536 20.0911 68.2993L3.07821 85.4375C1.77928 86.7211 1.03906 88.4725 1.02036 90.3065C1.00233 92.1406 1.7074 93.9068 2.98048 95.2167L3.07821 95.3152L67.6217 160.421C68.2641 161.071 69.0273 161.587 69.8676 161.938C70.7079 162.29 71.6088 162.471 72.5187 162.471C73.4285 162.471 74.3294 162.29 75.1698 161.938C76.0101 161.587 76.7733 161.071 77.4156 160.421L77.4056 160.391Z" fill="url(#paint0_linear)"/>
<path opacity="0.4" d="M19.571 68.8226C20.7183 67.6597 22.1348 66.8034 23.6925 66.3309C25.2503 65.8584 26.9001 65.7846 28.4932 66.1163L140.577 89.0427C141.467 89.2283 142.248 89.7616 142.749 90.5262C143.25 91.2907 143.431 92.2242 143.251 93.1226C143.205 93.3572 143.132 93.5857 143.036 93.8041C143.803 92.481 144.112 90.9382 143.915 89.4184C143.719 87.8986 143.027 86.4877 141.948 85.4077L124.995 68.2993C123.96 67.2531 122.732 66.423 121.379 65.8568C120.026 65.2906 118.575 64.9995 117.111 65H27.9833C25.0226 65.0009 22.1835 66.1876 20.0903 68.2993L19.571 68.8231V68.8226Z" fill="url(#paint1_linear)"/>
<path opacity="0.4" d="M119.295 70.0082L112.772 83.3733L140.577 89.0427C141.467 89.2282 142.248 89.7615 142.749 90.526C143.25 91.2906 143.431 92.2242 143.251 93.1226C143.205 93.3572 143.132 93.5857 143.036 93.8041C143.803 92.481 144.112 90.9383 143.915 89.4184C143.719 87.8986 143.027 86.4877 141.948 85.4077L124.995 68.2993C123.96 67.2531 122.732 66.423 121.379 65.8568C120.026 65.2907 118.575 64.9995 117.111 65H116.249C116.833 64.9984 117.407 65.1482 117.917 65.4349C118.427 65.7217 118.856 66.1358 119.162 66.6375C119.467 67.1392 119.64 67.7118 119.663 68.3002C119.687 68.8887 119.56 69.4733 119.295 69.998V70.0082Z" fill="url(#paint2_linear)"/>
<path d="M143.036 93.8457C143.396 93.0047 143.411 92.0536 143.077 91.2016C142.743 90.3495 142.087 89.6661 141.253 89.3016C141.036 89.2043 140.81 89.1316 140.577 89.0848L112.771 83.3743L75.3581 159.524C74.8738 160.511 74.0568 161.291 73.0534 161.726C72.0501 162.16 70.9262 162.22 69.8831 161.894C71.144 162.421 72.531 162.559 73.8695 162.292C75.2081 162.024 76.4383 161.364 77.4053 160.393L141.948 95.2881C142.378 94.8631 142.744 94.3772 143.035 93.8457H143.036Z" fill="url(#paint3_linear)"/>
</g>
<path d="M14 54L2 41M44 48L38 21M74 48V2.5" stroke="#FFDCC1" stroke-width="4" stroke-linecap="round" stroke-linejoin="round"/>
<path d="M134 176L146 189M104 182L110 209M74 182V227.5" stroke="#FFDCC1" stroke-width="4" stroke-linecap="round" stroke-linejoin="round"/>
<path d="M134 54L146 41M104 48L110 21" stroke="#FFDCC1" stroke-width="4" stroke-linecap="round" stroke-linejoin="round"/>
<path d="M14 176L2 189M44 182L38 209" stroke="#FFDCC1" stroke-width="4" stroke-linecap="round" stroke-linejoin="round"/>
<defs>
<linearGradient id="paint0_linear" x1="41.0895" y1="128.137" x2="73.6216" y2="72.2587" gradientUnits="userSpaceOnUse">
<stop stop-color="#FFDA55"/>
<stop offset="1" stop-color="#FF7A00"/>
</linearGradient>
<linearGradient id="paint1_linear" x1="80.7743" y1="79.6509" x2="81.8283" y2="75.3347" gradientUnits="userSpaceOnUse">
<stop offset="0.07" stop-color="white"/>
<stop offset="0.89" stop-color="#FF5C00"/>
</linearGradient>
<linearGradient id="paint2_linear" x1="118.815" y1="129.108" x2="151.086" y2="156.468" gradientUnits="userSpaceOnUse">
<stop offset="0.07" stop-color="white"/>
<stop offset="0.89" stop-color="#009FFF"/>
</linearGradient>
<linearGradient id="paint3_linear" x1="77.9719" y1="114.569" x2="126.066" y2="131.079" gradientUnits="userSpaceOnUse">
<stop stop-color="#D59536"/>
<stop offset="0.98" stop-color="#FFCD6B"/>
</linearGradient>
<clipPath id="clip0">
<rect width="143" height="98" fill="white" transform="translate(1 65)"/>
</clipPath>
</defs>
</svg>
