<svg width="17" height="14" viewBox="0 0 17 14" fill="none" xmlns="http://www.w3.org/2000/svg">
<path d="M14.6483 3.32479C14.6585 3.46697 14.6585 3.60919 14.6585 3.75137C14.6585 8.08807 11.359 13.085 5.32852 13.085C3.47064 13.085 1.74476 12.5467 0.292969 11.6123C0.556939 11.6428 0.810721 11.6529 1.08485 11.6529C2.61782 11.6529 4.02901 11.135 5.15593 10.2514C3.71429 10.2209 2.50617 9.27637 2.08991 7.97637C2.29298 8.00681 2.49601 8.02713 2.70923 8.02713C3.00364 8.02713 3.29807 7.98649 3.57217 7.91543C2.06963 7.61072 0.94269 6.29042 0.94269 4.69589V4.65528C1.37922 4.89903 1.88688 5.05138 2.42491 5.07166C1.54166 4.48259 0.963003 3.47713 0.963003 2.33963C0.963003 1.73026 1.12541 1.17167 1.40969 0.684164C3.02392 2.67479 5.45033 3.97477 8.17112 4.11698C8.12037 3.87323 8.08991 3.61935 8.08991 3.36543C8.08991 1.5576 9.55185 0.0849609 11.3691 0.0849609C12.3133 0.0849609 13.1661 0.481054 13.7651 1.1209C14.5062 0.978717 15.2168 0.704485 15.8463 0.328713C15.6026 1.09045 15.0848 1.73029 14.4046 2.13651C15.0646 2.06546 15.7042 1.8826 16.293 1.62872C15.8463 2.2787 15.2879 2.85758 14.6483 3.32479Z" fill="white"/>
</svg>
