<svg width="469" height="262" viewBox="0 0 469 262" fill="none" xmlns="http://www.w3.org/2000/svg">
<path d="M468.019 261.307H1.01867C1.01867 241.392 1.01928 223.187 1.01939 206.023C1.01939 204.683 0.848934 188.023 1.51878 187.023C1.96629 186.354 6.01941 200.688 6.01941 200.023C5.93576 210.958 14.3965 220.548 25.9259 221.668L432.953 261.199C444.019 262.023 457.519 253.523 457.019 238.523L468.019 239.523V261.307Z" fill="white"/>
<path d="M1.00005 0H425H425.953C425.327 1.08556e-05 424.697 0.0259745 424.062 0.0788826L53.8665 30.9348C44.0344 31.7543 35.9916 38.8957 34.1993 48.398L6.37053 195.934C6.13079 197.205 6.01021 198.469 6.00069 199.716C6.00069 197.799 0.998286 195.894 0.993613 194C0.833201 129.004 1.00005 77.4197 1.00005 0Z" fill="white"/>
<path d="M426 3.40556e-09C437.698 -0.000203075 447.544 9.08198 448.026 20.7534L457.029 238.677C457.041 238.976 468.047 239.273 468.047 239.569V3.40556e-09H426Z" fill="white"/>
</svg>
