<svg width="452" height="240" viewBox="0 0 452 240" fill="none" xmlns="http://www.w3.org/2000/svg">
<path fill-rule="evenodd" clip-rule="evenodd" d="M419.953 3.76843e-09H0C0 41.4547 0.000183105 75.5021 0.000366211 108.168C0.000488281 138.284 0.000610352 167.227 0.000610352 199.716C0.0101318 198.469 0.130737 197.205 0.370483 195.934L28.1992 48.398C29.9916 38.8957 38.0343 31.7543 47.8665 30.9348L418.062 0.0788879C418.697 0.0259705 419.327 3.76843e-09 419.953 3.76843e-09ZM442.026 20.7534C441.544 9.08197 431.698 -0.000213619 420 3.76843e-09H451.047V239.569C451.047 239.273 451.041 238.976 451.029 238.677L442.026 20.7534Z" fill="white"/>
</svg>
