<svg width="19" height="14" viewBox="0 0 19 14" fill="none" xmlns="http://www.w3.org/2000/svg">
<path d="M18.2644 2.69995C18.1633 2.31631 17.9651 1.96645 17.6897 1.68539C17.4143 1.40433 17.0712 1.20192 16.6949 1.09843C15.3097 0.71875 9.75694 0.71875 9.75694 0.71875C9.75694 0.71875 4.20421 0.71875 2.81899 1.09641C2.44251 1.19957 2.09929 1.40186 1.82379 1.68297C1.5483 1.96409 1.35023 2.31412 1.24948 2.69793C0.878906 4.11163 0.878906 7.0602 0.878906 7.0602C0.878906 7.0602 0.878906 10.0088 1.24948 11.4205C1.4536 12.2 2.05604 12.814 2.81899 13.022C4.20421 13.4017 9.75694 13.4017 9.75694 13.4017C9.75694 13.4017 15.3097 13.4017 16.6949 13.022C17.4598 12.814 18.0603 12.2 18.2644 11.4205C18.635 10.0088 18.635 7.0602 18.635 7.0602C18.635 7.0602 18.635 4.11163 18.2644 2.69995ZM7.99323 9.76643V4.35398L12.5908 7.04001L7.99323 9.76643Z" fill="white"/>
</svg>
